<?xml version="1.0" encoding="UTF-8" standalone="no"?>
<!DOCTYPE svg PUBLIC "-//W3C//DTD SVG 1.1//EN"
 "http://www.w3.org/Graphics/SVG/1.1/DTD/svg11.dtd">
<!-- Generated by graphviz version 12.0.0 (20240704.0754)
 -->
<!-- Title: prolog Pages: 1 -->
<svg width="1328pt" height="373pt"
 viewBox="0.00 0.00 1328.00 373.00" xmlns="http://www.w3.org/2000/svg" xmlns:xlink="http://www.w3.org/1999/xlink">
<g id="graph0" class="graph" transform="scale(1 1) rotate(0) translate(4 369)">
<title>prolog</title>
<polygon fill="white" stroke="none" points="-4,4 -4,-369 1324,-369 1324,4 -4,4"/>
<g id="clust1" class="cluster">
<title>cluster_leftcol</title>
<polygon fill="none" stroke="gray" points="8,-137 8,-208 312,-208 312,-137 8,-137"/>
<text text-anchor="start" x="147.25" y="-195.5" font-family="Helvetica,sans-Serif" font-style="italic" font-size="10.00">ebuild</text>
</g>
<g id="clust2" class="cluster">
<title>cluster_midcol</title>
<polygon fill="none" stroke="gray" points="396,-8 396,-357 924,-357 924,-8 396,-8"/>
<text text-anchor="start" x="630" y="-344.5" font-family="Helvetica,sans-Serif" font-style="italic" font-size="10.00">dependencies</text>
</g>
<g id="clust3" class="cluster">
<title>cluster_compile</title>
<polygon fill="#eeeeee" stroke="gray" points="404,-16 404,-169 916,-169 916,-16 404,-16"/>
<text text-anchor="start" x="643.12" y="-156.5" font-family="Helvetica,sans-Serif" font-style="italic" font-size="10.00">compile</text>
</g>
<g id="clust8" class="cluster">
<title>cluster_run</title>
<polygon fill="#eeeeee" stroke="gray" points="404,-177 404,-330 916,-330 916,-177 404,-177"/>
<text text-anchor="start" x="653.25" y="-317.5" font-family="Helvetica,sans-Serif" font-style="italic" font-size="10.00">run</text>
</g>
<g id="clust12" class="cluster">
<title>cluster_choices</title>
<polygon fill="none" stroke="gray" points="1008,-83 1008,-262 1312,-262 1312,-83 1008,-83"/>
<text text-anchor="start" x="1136.38" y="-249.5" font-family="Helvetica,sans-Serif" font-style="italic" font-size="10.00">candidates</text>
</g>
<!-- id -->
<g id="node1" class="node">
<title>id</title>
<g id="a_node1"><a xlink:href="../sci-mathematics/pspp-1.6.1.svg" xlink:title="portage://sci&#45;mathematics/pspp&#45;1.6.1">
<ellipse fill="none" stroke="red" cx="160" cy="-163" rx="144" ry="18"/>
<text text-anchor="middle" x="160" y="-159.12" font-family="Helvetica,sans-Serif" font-size="10.00">portage://sci&#45;mathematics/pspp&#45;1.6.1</text>
</a>
</g>
</g>
<!-- dependency3616 -->
<g id="node2" class="node">
<title>dependency3616</title>
<polygon fill="none" stroke="red" points="422,-28 422,-70 511,-70 511,-28 422,-28"/>
<text text-anchor="start" x="432.75" y="-45.12" font-family="Helvetica,sans-Serif" font-size="10.00">use_conditional</text>
<polygon fill="none" stroke="red" points="511,-49 511,-70 554,-70 554,-49 511,-49"/>
<text text-anchor="start" x="515.62" y="-55.5" font-family="Helvetica,sans-Serif" font-size="10.00">positive</text>
<polygon fill="none" stroke="red" points="511,-28 511,-49 554,-49 554,-28 511,-28"/>
<text text-anchor="start" x="525.75" y="-34.5" font-family="Helvetica,sans-Serif" font-size="10.00">gtk</text>
</g>
<!-- id&#45;&gt;dependency3616 -->
<g id="edge2" class="edge">
<title>id:e&#45;&gt;dependency3616:w</title>
<path fill="none" stroke="black" d="M305.23,-163C371.03,-163 346.59,-61.55 402.16,-50.06"/>
<polygon fill="black" stroke="black" points="411.86,-49.12 402.34,-54.56 408.09,-49.48 401.9,-50.08 401.9,-50.08 401.9,-50.08 408.09,-49.48 401.47,-45.6 411.86,-49.12"/>
</g>
<!-- dependency3618 -->
<g id="node4" class="node">
<title>dependency3618</title>
<polygon fill="none" stroke="red" points="420,-96 420,-138 509,-138 509,-96 420,-96"/>
<text text-anchor="start" x="430.75" y="-113.12" font-family="Helvetica,sans-Serif" font-size="10.00">use_conditional</text>
<polygon fill="none" stroke="red" points="509,-117 509,-138 556,-138 556,-117 509,-117"/>
<text text-anchor="start" x="515.62" y="-123.5" font-family="Helvetica,sans-Serif" font-size="10.00">positive</text>
<polygon fill="none" stroke="red" points="509,-96 509,-117 556,-117 556,-96 509,-96"/>
<text text-anchor="start" x="513.75" y="-102.5" font-family="Helvetica,sans-Serif" font-size="10.00">postgres</text>
</g>
<!-- id&#45;&gt;dependency3618 -->
<g id="edge3" class="edge">
<title>id:e&#45;&gt;dependency3618:w</title>
<path fill="none" stroke="black" d="M305.23,-163C352.52,-163 358.98,-123.91 399.88,-117.8"/>
<polygon fill="black" stroke="black" points="409.86,-117.09 400.2,-122.29 406.08,-117.36 399.88,-117.8 399.88,-117.8 399.88,-117.8 406.08,-117.36 399.56,-113.31 409.86,-117.09"/>
</g>
<!-- dependency3619 -->
<g id="node5" class="node">
<title>dependency3619</title>
<polygon fill="none" stroke="red" points="422,-189 422,-231 511,-231 511,-189 422,-189"/>
<text text-anchor="start" x="432.75" y="-206.12" font-family="Helvetica,sans-Serif" font-size="10.00">use_conditional</text>
<polygon fill="none" stroke="red" points="511,-210 511,-231 554,-231 554,-210 511,-210"/>
<text text-anchor="start" x="515.62" y="-216.5" font-family="Helvetica,sans-Serif" font-size="10.00">positive</text>
<polygon fill="none" stroke="red" points="511,-189 511,-210 554,-210 554,-189 511,-189"/>
<text text-anchor="start" x="525.75" y="-195.5" font-family="Helvetica,sans-Serif" font-size="10.00">gtk</text>
</g>
<!-- id&#45;&gt;dependency3619 -->
<g id="edge5" class="edge">
<title>id:e&#45;&gt;dependency3619:w</title>
<path fill="none" stroke="black" d="M305.23,-163C354.35,-163 360.21,-204.48 404.09,-209.5"/>
<ellipse fill="none" stroke="black" cx="408.58" cy="-209.75" rx="4" ry="4"/>
</g>
<!-- dependency3621 -->
<g id="node7" class="node">
<title>dependency3621</title>
<polygon fill="none" stroke="red" points="420,-257 420,-299 509,-299 509,-257 420,-257"/>
<text text-anchor="start" x="430.75" y="-274.12" font-family="Helvetica,sans-Serif" font-size="10.00">use_conditional</text>
<polygon fill="none" stroke="red" points="509,-278 509,-299 556,-299 556,-278 509,-278"/>
<text text-anchor="start" x="515.62" y="-284.5" font-family="Helvetica,sans-Serif" font-size="10.00">positive</text>
<polygon fill="none" stroke="red" points="509,-257 509,-278 556,-278 556,-257 509,-257"/>
<text text-anchor="start" x="513.75" y="-263.5" font-family="Helvetica,sans-Serif" font-size="10.00">postgres</text>
</g>
<!-- id&#45;&gt;dependency3621 -->
<g id="edge6" class="edge">
<title>id:e&#45;&gt;dependency3621:w</title>
<path fill="none" stroke="black" d="M305.23,-163C371.58,-163 344.38,-267.9 402.31,-277.32"/>
<ellipse fill="none" stroke="black" cx="406.59" cy="-277.65" rx="4" ry="4"/>
</g>
<!-- dependency3617 -->
<g id="node3" class="node">
<title>dependency3617</title>
<polygon fill="none" stroke="blue" points="680,-32.5 680,-137.5 784,-137.5 784,-32.5 680,-32.5"/>
<text text-anchor="start" x="711" y="-81.12" font-family="Helvetica,sans-Serif" font-size="10.00">pack_dep</text>
<polygon fill="none" stroke="blue" points="784,-116.5 784,-137.5 894,-137.5 894,-116.5 784,-116.5"/>
<text text-anchor="start" x="833.75" y="-123" font-family="Helvetica,sans-Serif" font-size="10.00">no</text>
<polygon fill="none" stroke="blue" points="784,-95.5 784,-116.5 894,-116.5 894,-95.5 784,-95.5"/>
<text text-anchor="start" x="822.12" y="-102" font-family="Helvetica,sans-Serif" font-size="10.00">x11&#45;libs</text>
<polygon fill="none" stroke="blue" points="784,-74.5 784,-95.5 894,-95.5 894,-74.5 784,-74.5"/>
<text text-anchor="start" x="795.12" y="-81" font-family="Helvetica,sans-Serif" font-size="10.00">spread&#45;sheet&#45;widget</text>
<polygon fill="none" stroke="blue" points="784,-53.5 784,-74.5 894,-74.5 894,-53.5 784,-53.5"/>
<text text-anchor="start" x="812.38" y="-60" font-family="Helvetica,sans-Serif" font-size="10.00">greaterequal</text>
<polygon fill="none" stroke="blue" points="784,-32.5 784,-53.5 894,-53.5 894,-32.5 784,-32.5"/>
<text text-anchor="start" x="832.25" y="-39" font-family="Helvetica,sans-Serif" font-size="10.00">0.7</text>
</g>
<!-- dependency3616&#45;&gt;dependency3617 -->
<g id="edge1" class="edge">
<title>dependency3616:e&#45;&gt;dependency3617:w</title>
<path fill="none" stroke="black" stroke-dasharray="5,2" d="M562.93,-49C609.99,-49 619.59,-79.59 660.8,-84.38"/>
<polygon fill="black" stroke="black" points="670.78,-84.93 660.55,-88.87 667.01,-84.72 660.8,-84.37 660.8,-84.37 660.8,-84.37 667.01,-84.72 661.05,-79.88 670.78,-84.93"/>
</g>
<!-- choice1204949451081059811547115112114101971004511510410110111645119105100103101116454846514511449 -->
<g id="node8" class="node">
<title>choice1204949451081059811547115112114101971004511510410110111645119105100103101116454846514511449</title>
<g id="a_node8"><a xlink:href="../x11-libs/spread-sheet-widget-0.3-r1.svg" xlink:title="portage://x11&#45;libs/spread&#45;sheet&#45;widget&#45;0.3&#45;r1">
<ellipse fill="none" stroke="red" cx="1160" cy="-163" rx="144" ry="18"/>
<text text-anchor="middle" x="1160" y="-159.12" font-family="Helvetica,sans-Serif" font-size="10.00">portage://x11&#45;libs/spread&#45;sheet&#45;widget&#45;0.3&#45;r1</text>
</a>
</g>
</g>
<!-- dependency3617&#45;&gt;choice1204949451081059811547115112114101971004511510410110111645119105100103101116454846514511449 -->
<g id="edge7" class="edge">
<title>dependency3617:e&#45;&gt;choice1204949451081059811547115112114101971004511510410110111645119105100103101116454846514511449:w</title>
<path fill="none" stroke="black" stroke-dasharray="1,5" d="M908.89,-85C963.34,-85 957.5,-152.7 1003.71,-161.96"/>
<polygon fill="black" stroke="black" points="1013.55,-162.89 1003.17,-166.43 1009.79,-162.53 1003.6,-161.95 1003.6,-161.95 1003.6,-161.95 1009.79,-162.53 1004.02,-157.47 1013.55,-162.89"/>
</g>
<!-- choice120494945108105981154711511211410197100451151041011011164511910510010310111645484654 -->
<g id="node9" class="node">
<title>choice120494945108105981154711511211410197100451151041011011164511910510010310111645484654</title>
<g id="a_node9"><a xlink:href="../x11-libs/spread-sheet-widget-0.6.svg" xlink:title="portage://x11&#45;libs/spread&#45;sheet&#45;widget&#45;0.6">
<ellipse fill="none" stroke="red" cx="1160" cy="-217" rx="144" ry="18"/>
<text text-anchor="middle" x="1160" y="-213.12" font-family="Helvetica,sans-Serif" font-size="10.00">portage://x11&#45;libs/spread&#45;sheet&#45;widget&#45;0.6</text>
</a>
</g>
</g>
<!-- dependency3617&#45;&gt;choice120494945108105981154711511211410197100451151041011011164511910510010310111645484654 -->
<g id="edge8" class="edge">
<title>dependency3617:e&#45;&gt;choice120494945108105981154711511211410197100451151041011011164511910510010310111645484654:w</title>
<path fill="none" stroke="black" stroke-dasharray="1,5" d="M908.89,-85C980.13,-85 943.92,-203.45 1003.83,-215.94"/>
<polygon fill="black" stroke="black" points="1013.55,-216.88 1003.16,-220.39 1009.79,-216.52 1003.6,-215.91 1003.6,-215.91 1003.6,-215.91 1009.79,-216.52 1004.04,-211.44 1013.55,-216.88"/>
</g>
<!-- choice120494945108105981154711511211410197100451151041011011164511910510010310111645484655 -->
<g id="node10" class="node">
<title>choice120494945108105981154711511211410197100451151041011011164511910510010310111645484655</title>
<g id="a_node10"><a xlink:href="../x11-libs/spread-sheet-widget-0.7.svg" xlink:title="portage://x11&#45;libs/spread&#45;sheet&#45;widget&#45;0.7">
<ellipse fill="none" stroke="red" cx="1160" cy="-109" rx="144" ry="18"/>
<text text-anchor="middle" x="1160" y="-105.12" font-family="Helvetica,sans-Serif" font-size="10.00">portage://x11&#45;libs/spread&#45;sheet&#45;widget&#45;0.7</text>
</a>
</g>
</g>
<!-- dependency3617&#45;&gt;choice120494945108105981154711511211410197100451151041011011164511910510010310111645484655 -->
<g id="edge9" class="edge">
<title>dependency3617:e&#45;&gt;choice120494945108105981154711511211410197100451151041011011164511910510010310111645484655:w</title>
<path fill="none" stroke="black" stroke-dasharray="1,5" d="M908.89,-85C953.18,-85 964.72,-105.22 1003.63,-108.54"/>
<polygon fill="black" stroke="black" points="1013.55,-108.95 1003.37,-113.03 1009.77,-108.79 1003.56,-108.54 1003.56,-108.54 1003.56,-108.54 1009.77,-108.79 1003.74,-104.04 1013.55,-108.95"/>
</g>
<!-- dependency3620 -->
<g id="node6" class="node">
<title>dependency3620</title>
<polygon fill="none" stroke="blue" points="680,-189.5 680,-294.5 784,-294.5 784,-189.5 680,-189.5"/>
<text text-anchor="start" x="711" y="-238.12" font-family="Helvetica,sans-Serif" font-size="10.00">pack_dep</text>
<polygon fill="none" stroke="blue" points="784,-273.5 784,-294.5 894,-294.5 894,-273.5 784,-273.5"/>
<text text-anchor="start" x="833.75" y="-280" font-family="Helvetica,sans-Serif" font-size="10.00">no</text>
<polygon fill="none" stroke="blue" points="784,-252.5 784,-273.5 894,-273.5 894,-252.5 784,-252.5"/>
<text text-anchor="start" x="822.12" y="-259" font-family="Helvetica,sans-Serif" font-size="10.00">x11&#45;libs</text>
<polygon fill="none" stroke="blue" points="784,-231.5 784,-252.5 894,-252.5 894,-231.5 784,-231.5"/>
<text text-anchor="start" x="795.12" y="-238" font-family="Helvetica,sans-Serif" font-size="10.00">spread&#45;sheet&#45;widget</text>
<polygon fill="none" stroke="blue" points="784,-210.5 784,-231.5 894,-231.5 894,-210.5 784,-210.5"/>
<text text-anchor="start" x="812.38" y="-217" font-family="Helvetica,sans-Serif" font-size="10.00">greaterequal</text>
<polygon fill="none" stroke="blue" points="784,-189.5 784,-210.5 894,-210.5 894,-189.5 784,-189.5"/>
<text text-anchor="start" x="832.25" y="-196" font-family="Helvetica,sans-Serif" font-size="10.00">0.7</text>
</g>
<!-- dependency3619&#45;&gt;dependency3620 -->
<g id="edge4" class="edge">
<title>dependency3619:e&#45;&gt;dependency3620:w</title>
<path fill="none" stroke="black" stroke-dasharray="5,2" d="M562.93,-210C609.5,-210 619.97,-237.2 660.9,-241.44"/>
<polygon fill="black" stroke="black" points="670.78,-241.94 660.57,-245.93 667.01,-241.75 660.8,-241.44 660.8,-241.44 660.8,-241.44 667.01,-241.75 661.02,-236.95 670.78,-241.94"/>
</g>
<!-- dependency3620&#45;&gt;choice1204949451081059811547115112114101971004511510410110111645119105100103101116454846514511449 -->
<g id="edge10" class="edge">
<title>dependency3620:e&#45;&gt;choice1204949451081059811547115112114101971004511510410110111645119105100103101116454846514511449:w</title>
<path fill="none" stroke="black" stroke-dasharray="1,5" d="M908.89,-242C963.59,-242 957.3,-173.43 1003.67,-164.06"/>
<polygon fill="black" stroke="black" points="1013.55,-163.12 1004.02,-168.54 1009.79,-163.47 1003.6,-164.06 1003.6,-164.06 1003.6,-164.06 1009.79,-163.47 1003.17,-159.58 1013.55,-163.12"/>
</g>
<!-- dependency3620&#45;&gt;choice120494945108105981154711511211410197100451151041011011164511910510010310111645484654 -->
<g id="edge11" class="edge">
<title>dependency3620:e&#45;&gt;choice120494945108105981154711511211410197100451151041011011164511910510010310111645484654:w</title>
<path fill="none" stroke="black" stroke-dasharray="1,5" d="M908.89,-242C953.27,-242 964.65,-220.93 1003.61,-217.48"/>
<polygon fill="black" stroke="black" points="1013.55,-217.05 1003.75,-221.98 1009.77,-217.21 1003.56,-217.48 1003.56,-217.48 1003.56,-217.48 1009.77,-217.21 1003.37,-212.98 1013.55,-217.05"/>
</g>
<!-- dependency3620&#45;&gt;choice120494945108105981154711511211410197100451151041011011164511910510010310111645484655 -->
<g id="edge12" class="edge">
<title>dependency3620:e&#45;&gt;choice120494945108105981154711511211410197100451151041011011164511910510010310111645484655:w</title>
<path fill="none" stroke="black" stroke-dasharray="1,5" d="M908.89,-242C980.46,-242 943.65,-122.66 1003.78,-110.07"/>
<polygon fill="black" stroke="black" points="1013.55,-109.12 1004.04,-114.57 1009.79,-109.49 1003.6,-110.09 1003.6,-110.09 1003.6,-110.09 1009.79,-109.49 1003.16,-105.61 1013.55,-109.12"/>
</g>
</g>
</svg>
