<?xml version="1.0" encoding="UTF-8" standalone="no"?>
<!DOCTYPE svg PUBLIC "-//W3C//DTD SVG 1.1//EN"
 "http://www.w3.org/Graphics/SVG/1.1/DTD/svg11.dtd">
<!-- Generated by graphviz version 9.0.0 (20230911.1827)
 -->
<!-- Title: prolog Pages: 1 -->
<svg width="1076pt" height="1025pt"
 viewBox="0.00 0.00 1076.00 1025.00" xmlns="http://www.w3.org/2000/svg" xmlns:xlink="http://www.w3.org/1999/xlink">
<g id="graph0" class="graph" transform="scale(1 1) rotate(0) translate(4 1021)">
<title>prolog</title>
<polygon fill="white" stroke="none" points="-4,4 -4,-1021 1072,-1021 1072,4 -4,4"/>
<g id="clust2" class="cluster">
<title>cluster_midcol</title>
<polygon fill="none" stroke="gray" points="8,-123 8,-1009 672,-1009 672,-123 8,-123"/>
<text text-anchor="start" x="310" y="-996.5" font-family="Helvetica,sans-Serif" font-style="italic" font-size="10.00">dependencies</text>
</g>
<g id="clust5" class="cluster">
<title>cluster_run</title>
<polygon fill="#eeeeee" stroke="gray" points="16,-131 16,-982 664,-982 664,-131 16,-131"/>
<text text-anchor="start" x="333.25" y="-969.5" font-family="Helvetica,sans-Serif" font-style="italic" font-size="10.00">run</text>
</g>
<g id="clust11" class="cluster">
<title>cluster_choices</title>
<polygon fill="none" stroke="gray" points="756,-8 756,-943 1060,-943 1060,-8 756,-8"/>
<text text-anchor="start" x="884.38" y="-930.5" font-family="Helvetica,sans-Serif" font-style="italic" font-size="10.00">candidates</text>
</g>
<!-- id -->
<g id="node1" class="node">
<title>id</title>
<g id="a_node1"><a xlink:href="../games-rpg/baldurs-gate-ee-2.5.23121.svg" xlink:title="portage://games&#45;rpg/baldurs&#45;gate&#45;ee&#45;2.5.23121">
<ellipse fill="none" stroke="red" cx="168" cy="-636" rx="144" ry="18"/>
<text text-anchor="middle" x="168" y="-632.12" font-family="Helvetica,sans-Serif" font-size="10.00">portage://games&#45;rpg/baldurs&#45;gate&#45;ee&#45;2.5.23121</text>
</a>
</g>
</g>
<!-- dependency228186 -->
<g id="node2" class="node">
<title>dependency228186</title>
<polygon fill="none" stroke="blue" points="428,-143.5 428,-248.5 532,-248.5 532,-143.5 428,-143.5"/>
<text text-anchor="start" x="459" y="-192.12" font-family="Helvetica,sans-Serif" font-size="10.00">pack_dep</text>
<polygon fill="none" stroke="blue" points="532,-227.5 532,-248.5 642,-248.5 642,-227.5 532,-227.5"/>
<text text-anchor="start" x="581.75" y="-234" font-family="Helvetica,sans-Serif" font-size="10.00">no</text>
<polygon fill="none" stroke="blue" points="532,-206.5 532,-227.5 642,-227.5 642,-206.5 532,-206.5"/>
<text text-anchor="start" x="570.12" y="-213" font-family="Helvetica,sans-Serif" font-size="10.00">dev&#45;libs</text>
<polygon fill="none" stroke="blue" points="532,-185.5 532,-206.5 642,-206.5 642,-185.5 532,-185.5"/>
<text text-anchor="start" x="575" y="-192" font-family="Helvetica,sans-Serif" font-size="10.00">expat</text>
<polygon fill="none" stroke="blue" points="532,-164.5 532,-185.5 642,-185.5 642,-164.5 532,-164.5"/>
<text text-anchor="start" x="576.5" y="-171" font-family="Helvetica,sans-Serif" font-size="10.00">none</text>
<polygon fill="none" stroke="blue" points="532,-143.5 532,-164.5 642,-164.5 642,-143.5 532,-143.5"/>
<text text-anchor="start" x="581" y="-150" font-family="Helvetica,sans-Serif" font-size="10.00">[,,]</text>
</g>
<!-- id&#45;&gt;dependency228186 -->
<g id="edge1" class="edge">
<title>id:e&#45;&gt;dependency228186:w</title>
<path fill="none" stroke="black" d="M312,-636C510.31,-636 227.45,-209.22 411.19,-196.3"/>
<ellipse fill="none" stroke="black" cx="415.5" cy="-196.15" rx="4" ry="4"/>
</g>
<!-- dependency228187 -->
<g id="node3" class="node">
<title>dependency228187</title>
<polygon fill="none" stroke="blue" points="428,-452.5 428,-557.5 532,-557.5 532,-452.5 428,-452.5"/>
<text text-anchor="start" x="459" y="-501.12" font-family="Helvetica,sans-Serif" font-size="10.00">pack_dep</text>
<polygon fill="none" stroke="blue" points="532,-536.5 532,-557.5 642,-557.5 642,-536.5 532,-536.5"/>
<text text-anchor="start" x="581.75" y="-543" font-family="Helvetica,sans-Serif" font-size="10.00">no</text>
<polygon fill="none" stroke="blue" points="532,-515.5 532,-536.5 642,-536.5 642,-515.5 532,-515.5"/>
<text text-anchor="start" x="570.12" y="-522" font-family="Helvetica,sans-Serif" font-size="10.00">dev&#45;libs</text>
<polygon fill="none" stroke="blue" points="532,-494.5 532,-515.5 642,-515.5 642,-494.5 532,-494.5"/>
<text text-anchor="start" x="570.12" y="-501" font-family="Helvetica,sans-Serif" font-size="10.00">openssl</text>
<polygon fill="none" stroke="blue" points="532,-473.5 532,-494.5 642,-494.5 642,-473.5 532,-473.5"/>
<text text-anchor="start" x="576.5" y="-480" font-family="Helvetica,sans-Serif" font-size="10.00">none</text>
<polygon fill="none" stroke="blue" points="532,-452.5 532,-473.5 642,-473.5 642,-452.5 532,-452.5"/>
<text text-anchor="start" x="581" y="-459" font-family="Helvetica,sans-Serif" font-size="10.00">[,,]</text>
</g>
<!-- id&#45;&gt;dependency228187 -->
<g id="edge2" class="edge">
<title>id:e&#45;&gt;dependency228187:w</title>
<path fill="none" stroke="black" d="M312,-636C384.36,-636 347.86,-515.53 411.3,-505.64"/>
<ellipse fill="none" stroke="black" cx="415.51" cy="-505.33" rx="4" ry="4"/>
</g>
<!-- dependency228188 -->
<g id="node4" class="node">
<title>dependency228188</title>
<polygon fill="none" stroke="blue" points="428,-583.5 428,-688.5 532,-688.5 532,-583.5 428,-583.5"/>
<text text-anchor="start" x="459" y="-632.12" font-family="Helvetica,sans-Serif" font-size="10.00">pack_dep</text>
<polygon fill="none" stroke="blue" points="532,-667.5 532,-688.5 642,-688.5 642,-667.5 532,-667.5"/>
<text text-anchor="start" x="581.75" y="-674" font-family="Helvetica,sans-Serif" font-size="10.00">no</text>
<polygon fill="none" stroke="blue" points="532,-646.5 532,-667.5 642,-667.5 642,-646.5 532,-646.5"/>
<text text-anchor="start" x="564.88" y="-653" font-family="Helvetica,sans-Serif" font-size="10.00">media&#45;libs</text>
<polygon fill="none" stroke="blue" points="532,-625.5 532,-646.5 642,-646.5 642,-625.5 532,-625.5"/>
<text text-anchor="start" x="572.75" y="-632" font-family="Helvetica,sans-Serif" font-size="10.00">openal</text>
<polygon fill="none" stroke="blue" points="532,-604.5 532,-625.5 642,-625.5 642,-604.5 532,-604.5"/>
<text text-anchor="start" x="576.5" y="-611" font-family="Helvetica,sans-Serif" font-size="10.00">none</text>
<polygon fill="none" stroke="blue" points="532,-583.5 532,-604.5 642,-604.5 642,-583.5 532,-583.5"/>
<text text-anchor="start" x="581" y="-590" font-family="Helvetica,sans-Serif" font-size="10.00">[,,]</text>
</g>
<!-- id&#45;&gt;dependency228188 -->
<g id="edge3" class="edge">
<title>id:e&#45;&gt;dependency228188:w</title>
<path fill="none" stroke="black" d="M312,-636C356.91,-636 370.3,-636 411.15,-636"/>
<ellipse fill="none" stroke="black" cx="415.5" cy="-636" rx="4" ry="4"/>
</g>
<!-- dependency228189 -->
<g id="node5" class="node">
<title>dependency228189</title>
<polygon fill="none" stroke="blue" points="428,-714.5 428,-819.5 532,-819.5 532,-714.5 428,-714.5"/>
<text text-anchor="start" x="459" y="-763.12" font-family="Helvetica,sans-Serif" font-size="10.00">pack_dep</text>
<polygon fill="none" stroke="blue" points="532,-798.5 532,-819.5 642,-819.5 642,-798.5 532,-798.5"/>
<text text-anchor="start" x="581.75" y="-805" font-family="Helvetica,sans-Serif" font-size="10.00">no</text>
<polygon fill="none" stroke="blue" points="532,-777.5 532,-798.5 642,-798.5 642,-777.5 532,-777.5"/>
<text text-anchor="start" x="573.88" y="-784" font-family="Helvetica,sans-Serif" font-size="10.00">virtual</text>
<polygon fill="none" stroke="blue" points="532,-756.5 532,-777.5 642,-777.5 642,-756.5 532,-756.5"/>
<text text-anchor="start" x="572.75" y="-763" font-family="Helvetica,sans-Serif" font-size="10.00">opengl</text>
<polygon fill="none" stroke="blue" points="532,-735.5 532,-756.5 642,-756.5 642,-735.5 532,-735.5"/>
<text text-anchor="start" x="576.5" y="-742" font-family="Helvetica,sans-Serif" font-size="10.00">none</text>
<polygon fill="none" stroke="blue" points="532,-714.5 532,-735.5 642,-735.5 642,-714.5 532,-714.5"/>
<text text-anchor="start" x="581" y="-721" font-family="Helvetica,sans-Serif" font-size="10.00">[,,]</text>
</g>
<!-- id&#45;&gt;dependency228189 -->
<g id="edge4" class="edge">
<title>id:e&#45;&gt;dependency228189:w</title>
<path fill="none" stroke="black" d="M312,-636C384.36,-636 347.86,-756.47 411.3,-766.36"/>
<ellipse fill="none" stroke="black" cx="415.51" cy="-766.67" rx="4" ry="4"/>
</g>
<!-- dependency228190 -->
<g id="node6" class="node">
<title>dependency228190</title>
<polygon fill="none" stroke="blue" points="428,-845.5 428,-950.5 532,-950.5 532,-845.5 428,-845.5"/>
<text text-anchor="start" x="459" y="-894.12" font-family="Helvetica,sans-Serif" font-size="10.00">pack_dep</text>
<polygon fill="none" stroke="blue" points="532,-929.5 532,-950.5 642,-950.5 642,-929.5 532,-929.5"/>
<text text-anchor="start" x="581.75" y="-936" font-family="Helvetica,sans-Serif" font-size="10.00">no</text>
<polygon fill="none" stroke="blue" points="532,-908.5 532,-929.5 642,-929.5 642,-908.5 532,-908.5"/>
<text text-anchor="start" x="570.12" y="-915" font-family="Helvetica,sans-Serif" font-size="10.00">x11&#45;libs</text>
<polygon fill="none" stroke="blue" points="532,-887.5 532,-908.5 642,-908.5 642,-887.5 532,-887.5"/>
<text text-anchor="start" x="573.5" y="-894" font-family="Helvetica,sans-Serif" font-size="10.00">libX11</text>
<polygon fill="none" stroke="blue" points="532,-866.5 532,-887.5 642,-887.5 642,-866.5 532,-866.5"/>
<text text-anchor="start" x="576.5" y="-873" font-family="Helvetica,sans-Serif" font-size="10.00">none</text>
<polygon fill="none" stroke="blue" points="532,-845.5 532,-866.5 642,-866.5 642,-845.5 532,-845.5"/>
<text text-anchor="start" x="581" y="-852" font-family="Helvetica,sans-Serif" font-size="10.00">[,,]</text>
</g>
<!-- id&#45;&gt;dependency228190 -->
<g id="edge5" class="edge">
<title>id:e&#45;&gt;dependency228190:w</title>
<path fill="none" stroke="black" d="M312,-636C434.87,-636 300.92,-885.36 411.25,-897.54"/>
<ellipse fill="none" stroke="black" cx="415.51" cy="-897.76" rx="4" ry="4"/>
</g>
<!-- choice10010111845108105981154710112011297116455046534648 -->
<g id="node7" class="node">
<title>choice10010111845108105981154710112011297116455046534648</title>
<g id="a_node7"><a xlink:href="../dev-libs/expat-2.5.0.svg" xlink:title="portage://dev&#45;libs/expat&#45;2.5.0">
<ellipse fill="none" stroke="red" cx="908" cy="-196" rx="144" ry="18"/>
<text text-anchor="middle" x="908" y="-192.12" font-family="Helvetica,sans-Serif" font-size="10.00">portage://dev&#45;libs/expat&#45;2.5.0</text>
</a>
</g>
</g>
<!-- dependency228186&#45;&gt;choice10010111845108105981154710112011297116455046534648 -->
<g id="edge6" class="edge">
<title>dependency228186:e&#45;&gt;choice10010111845108105981154710112011297116455046534648:w</title>
<path fill="none" stroke="black" stroke-dasharray="1,5" d="M657,-196C700.25,-196 713.72,-196 752.08,-196"/>
<polygon fill="black" stroke="black" points="761.78,-196 751.78,-200.5 758,-196 751.78,-196 751.78,-196 751.78,-196 758,-196 751.78,-191.5 761.78,-196"/>
</g>
<!-- choice10010111845108105981154710112011297116455046544648 -->
<g id="node8" class="node">
<title>choice10010111845108105981154710112011297116455046544648</title>
<g id="a_node8"><a xlink:href="../dev-libs/expat-2.6.0.svg" xlink:title="portage://dev&#45;libs/expat&#45;2.6.0">
<ellipse fill="none" stroke="red" cx="908" cy="-142" rx="144" ry="18"/>
<text text-anchor="middle" x="908" y="-138.12" font-family="Helvetica,sans-Serif" font-size="10.00">portage://dev&#45;libs/expat&#45;2.6.0</text>
</a>
</g>
</g>
<!-- dependency228186&#45;&gt;choice10010111845108105981154710112011297116455046544648 -->
<g id="edge7" class="edge">
<title>dependency228186:e&#45;&gt;choice10010111845108105981154710112011297116455046544648:w</title>
<path fill="none" stroke="black" stroke-dasharray="1,5" d="M657,-196C705.95,-196 709.8,-149.72 752.05,-142.85"/>
<polygon fill="black" stroke="black" points="761.79,-142.09 752.16,-147.35 758.01,-142.39 751.82,-142.87 751.82,-142.87 751.82,-142.87 758.01,-142.39 751.47,-138.38 761.79,-142.09"/>
</g>
<!-- choice10010111845108105981154710112011297116455046544649 -->
<g id="node9" class="node">
<title>choice10010111845108105981154710112011297116455046544649</title>
<g id="a_node9"><a xlink:href="../dev-libs/expat-2.6.1.svg" xlink:title="portage://dev&#45;libs/expat&#45;2.6.1">
<ellipse fill="none" stroke="red" cx="908" cy="-88" rx="144" ry="18"/>
<text text-anchor="middle" x="908" y="-84.12" font-family="Helvetica,sans-Serif" font-size="10.00">portage://dev&#45;libs/expat&#45;2.6.1</text>
</a>
</g>
</g>
<!-- dependency228186&#45;&gt;choice10010111845108105981154710112011297116455046544649 -->
<g id="edge8" class="edge">
<title>dependency228186:e&#45;&gt;choice10010111845108105981154710112011297116455046544649:w</title>
<path fill="none" stroke="black" stroke-dasharray="1,5" d="M657,-196C720.32,-196 698.76,-100.29 752.13,-89.07"/>
<polygon fill="black" stroke="black" points="761.79,-88.12 752.28,-93.58 758.02,-88.49 751.84,-89.1 751.84,-89.1 751.84,-89.1 758.02,-88.49 751.4,-84.62 761.79,-88.12"/>
</g>
<!-- choice10010111845108105981154710112011297116455046544650 -->
<g id="node10" class="node">
<title>choice10010111845108105981154710112011297116455046544650</title>
<g id="a_node10"><a xlink:href="../dev-libs/expat-2.6.2.svg" xlink:title="portage://dev&#45;libs/expat&#45;2.6.2">
<ellipse fill="none" stroke="red" cx="908" cy="-34" rx="144" ry="18"/>
<text text-anchor="middle" x="908" y="-30.12" font-family="Helvetica,sans-Serif" font-size="10.00">portage://dev&#45;libs/expat&#45;2.6.2</text>
</a>
</g>
</g>
<!-- dependency228186&#45;&gt;choice10010111845108105981154710112011297116455046544650 -->
<g id="edge9" class="edge">
<title>dependency228186:e&#45;&gt;choice10010111845108105981154710112011297116455046544650:w</title>
<path fill="none" stroke="black" stroke-dasharray="1,5" d="M657,-196C739.01,-196 682.82,-48.83 751.87,-35.03"/>
<polygon fill="black" stroke="black" points="761.79,-34.11 752.25,-39.52 758.02,-34.46 751.83,-35.04 751.83,-35.04 751.83,-35.04 758.02,-34.46 751.41,-30.56 761.79,-34.11"/>
</g>
<!-- choice1001011184510810598115471111121011101151151084549464846501174511449 -->
<g id="node11" class="node">
<title>choice1001011184510810598115471111121011101151151084549464846501174511449</title>
<g id="a_node11"><a xlink:href="../dev-libs/openssl-1.0.2u-r1.svg" xlink:title="portage://dev&#45;libs/openssl&#45;1.0.2u&#45;r1">
<ellipse fill="none" stroke="red" cx="908" cy="-520" rx="144" ry="18"/>
<text text-anchor="middle" x="908" y="-516.12" font-family="Helvetica,sans-Serif" font-size="10.00">portage://dev&#45;libs/openssl&#45;1.0.2u&#45;r1</text>
</a>
</g>
</g>
<!-- dependency228187&#45;&gt;choice1001011184510810598115471111121011101151151084549464846501174511449 -->
<g id="edge10" class="edge">
<title>dependency228187:e&#45;&gt;choice1001011184510810598115471111121011101151151084549464846501174511449:w</title>
<path fill="none" stroke="black" stroke-dasharray="1,5" d="M657,-505C700.68,-505 713.39,-517.64 751.99,-519.71"/>
<polygon fill="black" stroke="black" points="761.78,-519.97 751.67,-524.21 758,-519.87 751.79,-519.71 751.79,-519.71 751.79,-519.71 758,-519.87 751.9,-515.21 761.78,-519.97"/>
</g>
<!-- choice100101118451081059811547111112101110115115108454946494649119 -->
<g id="node12" class="node">
<title>choice100101118451081059811547111112101110115115108454946494649119</title>
<g id="a_node12"><a xlink:href="../dev-libs/openssl-1.1.1w.svg" xlink:title="portage://dev&#45;libs/openssl&#45;1.1.1w">
<ellipse fill="none" stroke="red" cx="908" cy="-466" rx="144" ry="18"/>
<text text-anchor="middle" x="908" y="-462.12" font-family="Helvetica,sans-Serif" font-size="10.00">portage://dev&#45;libs/openssl&#45;1.1.1w</text>
</a>
</g>
</g>
<!-- dependency228187&#45;&gt;choice100101118451081059811547111112101110115115108454946494649119 -->
<g id="edge11" class="edge">
<title>dependency228187:e&#45;&gt;choice100101118451081059811547111112101110115115108454946494649119:w</title>
<path fill="none" stroke="black" stroke-dasharray="1,5" d="M657,-505C703.28,-505 711.65,-471.86 752.01,-466.68"/>
<polygon fill="black" stroke="black" points="761.78,-466.07 752.08,-471.18 758.01,-466.31 751.8,-466.69 751.8,-466.69 751.8,-466.69 758.01,-466.31 751.53,-462.2 761.78,-466.07"/>
</g>
<!-- choice100101118451081059811547111112101110115115108455146484649514511450 -->
<g id="node13" class="node">
<title>choice100101118451081059811547111112101110115115108455146484649514511450</title>
<g id="a_node13"><a xlink:href="../dev-libs/openssl-3.0.13-r2.svg" xlink:title="portage://dev&#45;libs/openssl&#45;3.0.13&#45;r2">
<ellipse fill="none" stroke="red" cx="908" cy="-412" rx="144" ry="18"/>
<text text-anchor="middle" x="908" y="-408.12" font-family="Helvetica,sans-Serif" font-size="10.00">portage://dev&#45;libs/openssl&#45;3.0.13&#45;r2</text>
</a>
</g>
</g>
<!-- dependency228187&#45;&gt;choice100101118451081059811547111112101110115115108455146484649514511450 -->
<g id="edge12" class="edge">
<title>dependency228187:e&#45;&gt;choice100101118451081059811547111112101110115115108455146484649514511450:w</title>
<path fill="none" stroke="black" stroke-dasharray="1,5" d="M657,-505C715.63,-505 702.48,-423.6 751.86,-413.11"/>
<polygon fill="black" stroke="black" points="761.79,-412.12 752.28,-417.59 758.02,-412.5 751.84,-413.11 751.84,-413.11 751.84,-413.11 758.02,-412.5 751.39,-408.63 761.79,-412.12"/>
</g>
<!-- choice10010111845108105981154711111210111011511510845514648464952 -->
<g id="node14" class="node">
<title>choice10010111845108105981154711111210111011511510845514648464952</title>
<g id="a_node14"><a xlink:href="../dev-libs/openssl-3.0.14.svg" xlink:title="portage://dev&#45;libs/openssl&#45;3.0.14">
<ellipse fill="none" stroke="red" cx="908" cy="-358" rx="144" ry="18"/>
<text text-anchor="middle" x="908" y="-354.12" font-family="Helvetica,sans-Serif" font-size="10.00">portage://dev&#45;libs/openssl&#45;3.0.14</text>
</a>
</g>
</g>
<!-- dependency228187&#45;&gt;choice10010111845108105981154711111210111011511510845514648464952 -->
<g id="edge13" class="edge">
<title>dependency228187:e&#45;&gt;choice10010111845108105981154711111210111011511510845514648464952:w</title>
<path fill="none" stroke="black" stroke-dasharray="1,5" d="M657,-505C733.61,-505 687.51,-372 752.14,-359.02"/>
<polygon fill="black" stroke="black" points="761.79,-358.11 752.25,-363.53 758.02,-358.47 751.83,-359.05 751.83,-359.05 751.83,-359.05 758.02,-358.47 751.41,-354.57 761.79,-358.11"/>
</g>
<!-- choice1001011184510810598115471111121011101151151084551464946534511450 -->
<g id="node15" class="node">
<title>choice1001011184510810598115471111121011101151151084551464946534511450</title>
<g id="a_node15"><a xlink:href="../dev-libs/openssl-3.1.5-r2.svg" xlink:title="portage://dev&#45;libs/openssl&#45;3.1.5&#45;r2">
<ellipse fill="none" stroke="red" cx="908" cy="-304" rx="144" ry="18"/>
<text text-anchor="middle" x="908" y="-300.12" font-family="Helvetica,sans-Serif" font-size="10.00">portage://dev&#45;libs/openssl&#45;3.1.5&#45;r2</text>
</a>
</g>
</g>
<!-- dependency228187&#45;&gt;choice1001011184510810598115471111121011101151151084551464946534511450 -->
<g id="edge14" class="edge">
<title>dependency228187:e&#45;&gt;choice1001011184510810598115471111121011101151151084551464946534511450:w</title>
<path fill="none" stroke="black" stroke-dasharray="1,5" d="M657,-505C754.05,-505 669.2,-319.4 752.04,-304.9"/>
<polygon fill="black" stroke="black" points="761.79,-304.1 752.19,-309.4 758.02,-304.41 751.82,-304.91 751.82,-304.91 751.82,-304.91 758.02,-304.41 751.45,-300.43 761.79,-304.1"/>
</g>
<!-- choice100101118451081059811547111112101110115115108455146494654 -->
<g id="node16" class="node">
<title>choice100101118451081059811547111112101110115115108455146494654</title>
<g id="a_node16"><a xlink:href="../dev-libs/openssl-3.1.6.svg" xlink:title="portage://dev&#45;libs/openssl&#45;3.1.6">
<ellipse fill="none" stroke="red" cx="908" cy="-250" rx="144" ry="18"/>
<text text-anchor="middle" x="908" y="-246.12" font-family="Helvetica,sans-Serif" font-size="10.00">portage://dev&#45;libs/openssl&#45;3.1.6</text>
</a>
</g>
</g>
<!-- dependency228187&#45;&gt;choice100101118451081059811547111112101110115115108455146494654 -->
<g id="edge15" class="edge">
<title>dependency228187:e&#45;&gt;choice100101118451081059811547111112101110115115108455146494654:w</title>
<path fill="none" stroke="black" stroke-dasharray="1,5" d="M657,-505C775.78,-505 648.98,-266.17 751.93,-250.78"/>
<polygon fill="black" stroke="black" points="761.78,-250.09 752.12,-255.28 758.01,-250.35 751.81,-250.79 751.81,-250.79 751.81,-250.79 758.01,-250.35 751.49,-246.3 761.78,-250.09"/>
</g>
<!-- choice1001011184510810598115471111121011101151151084551465046494511450 -->
<g id="node17" class="node">
<title>choice1001011184510810598115471111121011101151151084551465046494511450</title>
<g id="a_node17"><a xlink:href="../dev-libs/openssl-3.2.1-r2.svg" xlink:title="portage://dev&#45;libs/openssl&#45;3.2.1&#45;r2">
<ellipse fill="none" stroke="red" cx="908" cy="-736" rx="144" ry="18"/>
<text text-anchor="middle" x="908" y="-732.12" font-family="Helvetica,sans-Serif" font-size="10.00">portage://dev&#45;libs/openssl&#45;3.2.1&#45;r2</text>
</a>
</g>
</g>
<!-- dependency228187&#45;&gt;choice1001011184510810598115471111121011101151151084551465046494511450 -->
<g id="edge16" class="edge">
<title>dependency228187:e&#45;&gt;choice1001011184510810598115471111121011101151151084551465046494511450:w</title>
<path fill="none" stroke="black" stroke-dasharray="1,5" d="M657,-505C765.99,-505 658.18,-720.04 751.93,-735.16"/>
<polygon fill="black" stroke="black" points="761.79,-735.91 751.47,-739.64 758.01,-735.62 751.81,-735.15 751.81,-735.15 751.81,-735.15 758.01,-735.62 752.15,-730.67 761.79,-735.91"/>
</g>
<!-- choice100101118451081059811547111112101110115115108455146504650 -->
<g id="node18" class="node">
<title>choice100101118451081059811547111112101110115115108455146504650</title>
<g id="a_node18"><a xlink:href="../dev-libs/openssl-3.2.2.svg" xlink:title="portage://dev&#45;libs/openssl&#45;3.2.2">
<ellipse fill="none" stroke="red" cx="908" cy="-682" rx="144" ry="18"/>
<text text-anchor="middle" x="908" y="-678.12" font-family="Helvetica,sans-Serif" font-size="10.00">portage://dev&#45;libs/openssl&#45;3.2.2</text>
</a>
</g>
</g>
<!-- dependency228187&#45;&gt;choice100101118451081059811547111112101110115115108455146504650 -->
<g id="edge17" class="edge">
<title>dependency228187:e&#45;&gt;choice100101118451081059811547111112101110115115108455146504650:w</title>
<path fill="none" stroke="black" stroke-dasharray="1,5" d="M657,-505C744.75,-505 677.64,-667.12 752.09,-681.05"/>
<polygon fill="black" stroke="black" points="761.79,-681.89 751.43,-685.51 758.02,-681.57 751.82,-681.02 751.82,-681.02 751.82,-681.02 758.02,-681.57 752.22,-676.54 761.79,-681.89"/>
</g>
<!-- choice100101118451081059811547111112101110115115108455146514648 -->
<g id="node19" class="node">
<title>choice100101118451081059811547111112101110115115108455146514648</title>
<g id="a_node19"><a xlink:href="../dev-libs/openssl-3.3.0.svg" xlink:title="portage://dev&#45;libs/openssl&#45;3.3.0">
<ellipse fill="none" stroke="red" cx="908" cy="-628" rx="144" ry="18"/>
<text text-anchor="middle" x="908" y="-624.12" font-family="Helvetica,sans-Serif" font-size="10.00">portage://dev&#45;libs/openssl&#45;3.3.0</text>
</a>
</g>
</g>
<!-- dependency228187&#45;&gt;choice100101118451081059811547111112101110115115108455146514648 -->
<g id="edge18" class="edge">
<title>dependency228187:e&#45;&gt;choice100101118451081059811547111112101110115115108455146514648:w</title>
<path fill="none" stroke="black" stroke-dasharray="1,5" d="M657,-505C725.22,-505 694.7,-614.91 752.12,-626.94"/>
<polygon fill="black" stroke="black" points="761.79,-627.88 751.4,-631.39 758.02,-627.51 751.83,-626.91 751.83,-626.91 751.83,-626.91 758.02,-627.51 752.27,-622.43 761.79,-627.88"/>
</g>
<!-- choice100101118451081059811547111112101110115115108455146514649 -->
<g id="node20" class="node">
<title>choice100101118451081059811547111112101110115115108455146514649</title>
<g id="a_node20"><a xlink:href="../dev-libs/openssl-3.3.1.svg" xlink:title="portage://dev&#45;libs/openssl&#45;3.3.1">
<ellipse fill="none" stroke="red" cx="908" cy="-574" rx="144" ry="18"/>
<text text-anchor="middle" x="908" y="-570.12" font-family="Helvetica,sans-Serif" font-size="10.00">portage://dev&#45;libs/openssl&#45;3.3.1</text>
</a>
</g>
</g>
<!-- dependency228187&#45;&gt;choice100101118451081059811547111112101110115115108455146514649 -->
<g id="edge19" class="edge">
<title>dependency228187:e&#45;&gt;choice100101118451081059811547111112101110115115108455146514649:w</title>
<path fill="none" stroke="black" stroke-dasharray="1,5" d="M657,-505C709.26,-505 707.38,-564.64 752.03,-573.02"/>
<polygon fill="black" stroke="black" points="761.79,-573.89 751.43,-577.49 758.02,-573.56 751.83,-573.01 751.83,-573.01 751.83,-573.01 758.02,-573.56 752.22,-568.52 761.79,-573.89"/>
</g>
<!-- choice1091011001059745108105981154711111210111097108454946505146494511449 -->
<g id="node21" class="node">
<title>choice1091011001059745108105981154711111210111097108454946505146494511449</title>
<g id="a_node21"><a xlink:href="../media-libs/openal-1.23.1-r1.svg" xlink:title="portage://media&#45;libs/openal&#45;1.23.1&#45;r1">
<ellipse fill="none" stroke="red" cx="908" cy="-790" rx="144" ry="18"/>
<text text-anchor="middle" x="908" y="-786.12" font-family="Helvetica,sans-Serif" font-size="10.00">portage://media&#45;libs/openal&#45;1.23.1&#45;r1</text>
</a>
</g>
</g>
<!-- dependency228188&#45;&gt;choice1091011001059745108105981154711111210111097108454946505146494511449 -->
<g id="edge20" class="edge">
<title>dependency228188:e&#45;&gt;choice1091011001059745108105981154711111210111097108454946505146494511449:w</title>
<path fill="none" stroke="black" stroke-dasharray="1,5" d="M657,-636C736.2,-636 685.24,-775.9 752.23,-789.02"/>
<polygon fill="black" stroke="black" points="761.79,-789.89 751.42,-793.46 758.02,-789.55 751.83,-788.98 751.83,-788.98 751.83,-788.98 758.02,-789.55 752.24,-784.5 761.79,-789.89"/>
</g>
<!-- choice1181051141161179710847111112101110103108455546484511450 -->
<g id="node22" class="node">
<title>choice1181051141161179710847111112101110103108455546484511450</title>
<g id="a_node22"><a xlink:href="../virtual/opengl-7.0-r2.svg" xlink:title="portage://virtual/opengl&#45;7.0&#45;r2">
<ellipse fill="none" stroke="red" cx="908" cy="-844" rx="144" ry="18"/>
<text text-anchor="middle" x="908" y="-840.12" font-family="Helvetica,sans-Serif" font-size="10.00">portage://virtual/opengl&#45;7.0&#45;r2</text>
</a>
</g>
</g>
<!-- dependency228189&#45;&gt;choice1181051141161179710847111112101110103108455546484511450 -->
<g id="edge21" class="edge">
<title>dependency228189:e&#45;&gt;choice1181051141161179710847111112101110103108455546484511450:w</title>
<path fill="none" stroke="black" stroke-dasharray="1,5" d="M657,-767C711.25,-767 705.88,-833.83 751.98,-842.97"/>
<polygon fill="black" stroke="black" points="761.79,-843.89 751.41,-847.44 758.02,-843.53 751.83,-842.96 751.83,-842.96 751.83,-842.96 758.02,-843.53 752.25,-838.48 761.79,-843.89"/>
</g>
<!-- choice120494945108105981154710810598884949454946564657 -->
<g id="node23" class="node">
<title>choice120494945108105981154710810598884949454946564657</title>
<g id="a_node23"><a xlink:href="../x11-libs/libX11-1.8.9.svg" xlink:title="portage://x11&#45;libs/libX11&#45;1.8.9">
<ellipse fill="none" stroke="red" cx="908" cy="-898" rx="144" ry="18"/>
<text text-anchor="middle" x="908" y="-894.12" font-family="Helvetica,sans-Serif" font-size="10.00">portage://x11&#45;libs/libX11&#45;1.8.9</text>
</a>
</g>
</g>
<!-- dependency228190&#45;&gt;choice120494945108105981154710810598884949454946564657 -->
<g id="edge22" class="edge">
<title>dependency228190:e&#45;&gt;choice120494945108105981154710810598884949454946564657:w</title>
<path fill="none" stroke="black" stroke-dasharray="1,5" d="M657,-898C700.25,-898 713.72,-898 752.08,-898"/>
<polygon fill="black" stroke="black" points="761.78,-898 751.78,-902.5 758,-898 751.78,-898 751.78,-898 751.78,-898 758,-898 751.78,-893.5 761.78,-898"/>
</g>
</g>
</svg>
