<?xml version="1.0" encoding="UTF-8" standalone="no"?>
<!DOCTYPE svg PUBLIC "-//W3C//DTD SVG 1.1//EN"
 "http://www.w3.org/Graphics/SVG/1.1/DTD/svg11.dtd">
<!-- Generated by graphviz version 2.41.20171026.1811 (20171026.1811)
 -->
<!-- Title: prolog Pages: 1 -->
<svg width="1399pt" height="476pt"
 viewBox="0.00 0.00 1398.96 476.00" xmlns="http://www.w3.org/2000/svg" xmlns:xlink="http://www.w3.org/1999/xlink">
<g id="graph0" class="graph" transform="scale(1 1) rotate(0) translate(4 472)">
<title>prolog</title>
<polygon fill="white" stroke="transparent" points="-4,4 -4,-472 1394.96,-472 1394.96,4 -4,4"/>
<g id="clust1" class="cluster">
<title>cluster_leftcol</title>
<polygon fill="none" stroke="gray" points="8,-186 8,-258 312,-258 312,-186 8,-186"/>
<text text-anchor="start" x="146.66" y="-246" font-family="Helvetica,sans-Serif" font-style="italic" font-size="10.00">ebuild</text>
</g>
<g id="clust2" class="cluster">
<title>cluster_midcol</title>
<polygon fill="none" stroke="gray" points="396,-8 396,-460 977,-460 977,-8 396,-8"/>
<text text-anchor="start" x="655.38" y="-448" font-family="Helvetica,sans-Serif" font-style="italic" font-size="10.00">dependencies</text>
</g>
<g id="clust4" class="cluster">
<title>cluster_compileandrun</title>
<polygon fill="#eeeeee" stroke="gray" points="404,-166 404,-432 969,-432 969,-166 404,-166"/>
<text text-anchor="start" x="650.94" y="-420" font-family="Helvetica,sans-Serif" font-style="italic" font-size="10.00">compile and run</text>
</g>
<g id="clust8" class="cluster">
<title>cluster_run</title>
<polygon fill="#eeeeee" stroke="gray" points="712,-16 712,-158 964,-158 964,-16 712,-16"/>
<text text-anchor="start" x="830.78" y="-146" font-family="Helvetica,sans-Serif" font-style="italic" font-size="10.00">run</text>
</g>
<g id="clust10" class="cluster">
<title>cluster_choices</title>
<polygon fill="none" stroke="gray" points="1061,-147 1061,-397 1382.96,-397 1382.96,-147 1061,-147"/>
<text text-anchor="start" x="1197.8" y="-385" font-family="Helvetica,sans-Serif" font-style="italic" font-size="10.00">candidates</text>
</g>
<!-- id -->
<g id="node1" class="node">
<title>id</title>
<g id="a_node1"><a xlink:href="../games-rpg/eternal-lands-data-1.9.3-r1.svg" xlink:title="games&#45;rpg/eternal&#45;lands&#45;data&#45;1.9.3&#45;r1">
<ellipse fill="none" stroke="red" cx="160" cy="-212" rx="144" ry="18"/>
<text text-anchor="middle" x="160" y="-209" font-family="Helvetica,sans-Serif" font-size="10.00">games&#45;rpg/eternal&#45;lands&#45;data&#45;1.9.3&#45;r1</text>
</a>
</g>
</g>
<!-- dependency302567 -->
<g id="node2" class="node">
<title>dependency302567</title>
<polygon fill="none" stroke="red" points="420.5,-254 420.5,-298 511.5,-298 511.5,-254 420.5,-254"/>
<text text-anchor="start" x="431.27" y="-273" font-family="Helvetica,sans-Serif" font-size="10.00">use_conditional</text>
<polygon fill="none" stroke="red" points="511.5,-276 511.5,-298 599.5,-298 599.5,-276 511.5,-276"/>
<text text-anchor="start" x="536.6" y="-284" font-family="Helvetica,sans-Serif" font-size="10.00">negative</text>
<polygon fill="none" stroke="red" points="511.5,-254 511.5,-276 599.5,-276 599.5,-254 511.5,-254"/>
<text text-anchor="start" x="516.33" y="-262" font-family="Helvetica,sans-Serif" font-size="10.00">bloodsuckermaps</text>
</g>
<!-- id&#45;&gt;dependency302567 -->
<g id="edge2" class="edge">
<title>id:e&#45;&gt;dependency302567:w</title>
<path fill="none" stroke="black" d="M305,-212C352.99,-212 355.78,-261 392.47,-273.25"/>
<ellipse fill="none" stroke="black" cx="406.55" cy="-275.4" rx="4" ry="4"/>
<polygon fill="black" stroke="black" points="402.59,-274.79 392.03,-277.73 397.65,-274.04 392.71,-273.29 392.71,-273.29 392.71,-273.29 397.65,-274.04 393.38,-268.84 402.59,-274.79 402.59,-274.79"/>
</g>
<!-- dependency302569 -->
<g id="node4" class="node">
<title>dependency302569</title>
<polygon fill="none" stroke="blue" points="728,-178 728,-276 833,-276 833,-178 728,-178"/>
<text text-anchor="start" x="758.82" y="-224" font-family="Helvetica,sans-Serif" font-size="10.00">pack_dep</text>
<polygon fill="none" stroke="blue" points="833,-254 833,-276 943,-276 943,-254 833,-254"/>
<text text-anchor="start" x="882.44" y="-262" font-family="Helvetica,sans-Serif" font-size="10.00">no</text>
<polygon fill="none" stroke="blue" points="833,-232 833,-254 943,-254 943,-232 833,-232"/>
<text text-anchor="start" x="868.27" y="-240" font-family="Helvetica,sans-Serif" font-size="10.00">app&#45;arch</text>
<polygon fill="none" stroke="blue" points="833,-210 833,-232 943,-232 943,-210 833,-210"/>
<text text-anchor="start" x="876.05" y="-218" font-family="Helvetica,sans-Serif" font-size="10.00">unzip</text>
<polygon fill="none" stroke="blue" points="833,-188 833,-210 943,-210 943,-188 833,-188"/>
<text text-anchor="start" x="876.88" y="-196" font-family="Helvetica,sans-Serif" font-size="10.00">none</text>
<polygon fill="none" stroke="blue" points="833,-178 833,-188 943,-188 943,-178 833,-178"/>
</g>
<!-- id&#45;&gt;dependency302569 -->
<g id="edge3" class="edge">
<title>id:e&#45;&gt;dependency302569:w</title>
<path fill="none" stroke="black" d="M510.5,-148C553.68,-144.34 566.07,-147.75 607,-162 654.99,-178.7 660.68,-216.57 700.95,-225.22"/>
<ellipse fill="none" stroke="black" cx="715.02" cy="-226.61" rx="4" ry="4"/>
<polygon fill="black" stroke="black" points="711.04,-226.21 700.65,-229.71 706.06,-225.72 701.09,-225.23 701.09,-225.23 701.09,-225.23 706.06,-225.72 701.53,-220.75 711.04,-226.21 711.04,-226.21"/>
</g>
<!-- dependency302570 -->
<g id="node5" class="node">
<title>dependency302570</title>
<polygon fill="none" stroke="blue" points="728,-28 728,-126 833,-126 833,-28 728,-28"/>
<text text-anchor="start" x="758.82" y="-74" font-family="Helvetica,sans-Serif" font-size="10.00">pack_dep</text>
<polygon fill="none" stroke="blue" points="833,-104 833,-126 943,-126 943,-104 833,-104"/>
<text text-anchor="start" x="882.44" y="-112" font-family="Helvetica,sans-Serif" font-size="10.00">no</text>
<polygon fill="none" stroke="blue" points="833,-82 833,-104 943,-104 943,-82 833,-82"/>
<text text-anchor="start" x="861.06" y="-90" font-family="Helvetica,sans-Serif" font-size="10.00">games&#45;misc</text>
<polygon fill="none" stroke="blue" points="833,-60 833,-82 943,-82 943,-60 833,-60"/>
<text text-anchor="start" x="860.49" y="-68" font-family="Helvetica,sans-Serif" font-size="10.00">games&#45;envd</text>
<polygon fill="none" stroke="blue" points="833,-38 833,-60 943,-60 943,-38 833,-38"/>
<text text-anchor="start" x="876.88" y="-46" font-family="Helvetica,sans-Serif" font-size="10.00">none</text>
<polygon fill="none" stroke="blue" points="833,-28 833,-38 943,-38 943,-28 833,-28"/>
</g>
<!-- id&#45;&gt;dependency302570 -->
<g id="edge4" class="edge">
<title>id:e&#45;&gt;dependency302570:w</title>
<path fill="none" stroke="black" d="M510.5,-148C605.28,-139.97 620.3,-80.51 710.88,-77.15"/>
<ellipse fill="none" stroke="black" cx="715" cy="-77.07" rx="4" ry="4"/>
<path fill="none" stroke="black" d="M305,-212C351.15,-212 352.1,-176.21 396,-162 443.94,-146.48 458.29,-152.25 508.5,-148"/>
</g>
<!-- dependency302568 -->
<g id="node3" class="node">
<title>dependency302568</title>
<polygon fill="none" stroke="blue" points="723,-302 723,-400 828,-400 828,-302 723,-302"/>
<text text-anchor="start" x="753.82" y="-348" font-family="Helvetica,sans-Serif" font-size="10.00">pack_dep</text>
<polygon fill="none" stroke="blue" points="828,-378 828,-400 953,-400 953,-378 828,-378"/>
<text text-anchor="start" x="878.83" y="-386" font-family="Helvetica,sans-Serif" font-size="10.00">weak</text>
<polygon fill="none" stroke="blue" points="828,-356 828,-378 953,-378 953,-356 828,-356"/>
<text text-anchor="start" x="866.61" y="-364" font-family="Helvetica,sans-Serif" font-size="10.00">games&#45;rpg</text>
<polygon fill="none" stroke="blue" points="828,-334 828,-356 953,-356 953,-334 828,-334"/>
<text text-anchor="start" x="832.99" y="-342" font-family="Helvetica,sans-Serif" font-size="10.00">eternal&#45;lands&#45;bloodsucker</text>
<polygon fill="none" stroke="blue" points="828,-312 828,-334 953,-334 953,-312 828,-312"/>
<text text-anchor="start" x="879.38" y="-320" font-family="Helvetica,sans-Serif" font-size="10.00">none</text>
<polygon fill="none" stroke="blue" points="828,-302 828,-312 953,-312 953,-302 828,-302"/>
</g>
<!-- dependency302567&#45;&gt;dependency302568 -->
<g id="edge1" class="edge">
<title>dependency302567:e&#45;&gt;dependency302568:w</title>
<path fill="none" stroke="black" stroke-dasharray="5,2" d="M607,-276C661.44,-276 656.81,-341.92 703.87,-350.16"/>
<polygon fill="black" stroke="black" points="714,-351 703.66,-354.66 709.02,-350.59 704.03,-350.17 704.03,-350.17 704.03,-350.17 709.02,-350.59 704.41,-345.69 714,-351 714,-351"/>
</g>
<!-- choice10397109101115451141121034710111610111411097108451089711010011545981081111111001151179910710111445514648 -->
<g id="node6" class="node">
<title>choice10397109101115451141121034710111610111411097108451089711010011545981081111111001151179910710111445514648</title>
<g id="a_node6"><a xlink:href="../games-rpg/eternal-lands-bloodsucker-3.0.svg" xlink:title="games&#45;rpg/eternal&#45;lands&#45;bloodsucker&#45;3.0">
<ellipse fill="none" stroke="red" cx="1221.98" cy="-351" rx="144" ry="18"/>
<text text-anchor="middle" x="1221.98" y="-348" font-family="Helvetica,sans-Serif" font-size="10.00">games&#45;rpg/eternal&#45;lands&#45;bloodsucker&#45;3.0</text>
</a>
</g>
</g>
<!-- dependency302568&#45;&gt;choice10397109101115451141121034710111610111411097108451089711010011545981081111111001151179910710111445514648 -->
<g id="edge5" class="edge">
<title>dependency302568:e&#45;&gt;choice10397109101115451141121034710111610111411097108451089711010011545981081111111001151179910710111445514648:w</title>
<path fill="none" stroke="black" stroke-dasharray="1,5" d="M962,-351C1009.51,-351 1023.89,-351 1066.74,-351"/>
<polygon fill="black" stroke="black" points="1076.98,-351 1066.98,-355.5 1071.98,-351 1066.98,-351 1066.98,-351 1066.98,-351 1071.98,-351 1066.98,-346.5 1076.98,-351 1076.98,-351"/>
</g>
<!-- choice10397109101115451141121034710111610111411097108451089711010011545981081111111001151179910710111445514648951125048494948544956 -->
<g id="node7" class="node">
<title>choice10397109101115451141121034710111610111411097108451089711010011545981081111111001151179910710111445514648951125048494948544956</title>
<g id="a_node7"><a xlink:href="../games-rpg/eternal-lands-bloodsucker-3.0_p20110618.svg" xlink:title="games&#45;rpg/eternal&#45;lands&#45;bloodsucker&#45;3.0_p20110618">
<ellipse fill="none" stroke="red" cx="1221.98" cy="-297" rx="152.96" ry="18"/>
<text text-anchor="middle" x="1221.98" y="-294" font-family="Helvetica,sans-Serif" font-size="10.00">games&#45;rpg/eternal&#45;lands&#45;bloodsucker&#45;3.0_p20110618</text>
</a>
</g>
</g>
<!-- dependency302568&#45;&gt;choice10397109101115451141121034710111610111411097108451089711010011545981081111111001151179910710111445514648951125048494948544956 -->
<g id="edge6" class="edge">
<title>dependency302568:e&#45;&gt;choice10397109101115451141121034710111610111411097108451089711010011545981081111111001151179910710111445514648951125048494948544956:w</title>
<path fill="none" stroke="black" stroke-dasharray="1,5" d="M962,-351C1011.25,-351 1014.83,-304.13 1057.84,-297.72"/>
<polygon fill="black" stroke="black" points="1067.98,-297 1058.32,-302.2 1062.99,-297.36 1058,-297.71 1058,-297.71 1058,-297.71 1062.99,-297.36 1057.68,-293.22 1067.98,-297 1067.98,-297"/>
</g>
<!-- choice971121124597114991044711711012210511245544648951125048 -->
<g id="node8" class="node">
<title>choice971121124597114991044711711012210511245544648951125048</title>
<g id="a_node8"><a xlink:href="../app-arch/unzip-6.0_p20.svg" xlink:title="app&#45;arch/unzip&#45;6.0_p20">
<ellipse fill="none" stroke="red" cx="1221.98" cy="-227" rx="144" ry="18"/>
<text text-anchor="middle" x="1221.98" y="-224" font-family="Helvetica,sans-Serif" font-size="10.00">app&#45;arch/unzip&#45;6.0_p20</text>
</a>
</g>
</g>
<!-- dependency302569&#45;&gt;choice971121124597114991044711711012210511245544648951125048 -->
<g id="edge7" class="edge">
<title>dependency302569:e&#45;&gt;choice971121124597114991044711711012210511245544648951125048:w</title>
<path fill="none" stroke="black" stroke-dasharray="1,5" d="M957,-227C1006.78,-227 1021.71,-227 1066.86,-227"/>
<polygon fill="black" stroke="black" points="1076.98,-227 1066.98,-231.5 1071.98,-227 1066.98,-227 1066.98,-227 1066.98,-227 1071.98,-227 1066.98,-222.5 1076.98,-227 1076.98,-227"/>
</g>
<!-- choice1039710910111545109105115994710397109101115451011101181004548 -->
<g id="node9" class="node">
<title>choice1039710910111545109105115994710397109101115451011101181004548</title>
<g id="a_node9"><a xlink:href="../games-misc/games-envd-0.svg" xlink:title="games&#45;misc/games&#45;envd&#45;0">
<ellipse fill="none" stroke="red" cx="1221.98" cy="-173" rx="144" ry="18"/>
<text text-anchor="middle" x="1221.98" y="-170" font-family="Helvetica,sans-Serif" font-size="10.00">games&#45;misc/games&#45;envd&#45;0</text>
</a>
</g>
</g>
<!-- dependency302570&#45;&gt;choice1039710910111545109105115994710397109101115451011101181004548 -->
<g id="edge8" class="edge">
<title>dependency302570:e&#45;&gt;choice1039710910111545109105115994710397109101115451011101181004548:w</title>
<path fill="none" stroke="black" stroke-dasharray="1,5" d="M957,-77C1021.69,-77 1010.2,-163.14 1066.86,-172.23"/>
<polygon fill="black" stroke="black" points="1076.98,-173 1066.66,-176.73 1071.99,-172.62 1067.01,-172.24 1067.01,-172.24 1067.01,-172.24 1071.99,-172.62 1067.35,-167.75 1076.98,-173 1076.98,-173"/>
</g>
</g>
</svg>
