<?xml version="1.0" encoding="UTF-8" standalone="no"?>
<!DOCTYPE svg PUBLIC "-//W3C//DTD SVG 1.1//EN"
 "http://www.w3.org/Graphics/SVG/1.1/DTD/svg11.dtd">
<!-- Generated by graphviz version 2.41.20171026.1811 (20171026.1811)
 -->
<!-- Title: prolog Pages: 1 -->
<svg width="1068pt" height="1392pt"
 viewBox="0.00 0.00 1068.00 1392.00" xmlns="http://www.w3.org/2000/svg" xmlns:xlink="http://www.w3.org/1999/xlink">
<g id="graph0" class="graph" transform="scale(1 1) rotate(0) translate(4 1388)">
<title>prolog</title>
<polygon fill="white" stroke="transparent" points="-4,4 -4,-1388 1064,-1388 1064,4 -4,4"/>
<g id="clust1" class="cluster">
<title>cluster_leftcol</title>
<polygon fill="none" stroke="gray" points="8,-592 8,-664 312,-664 312,-592 8,-592"/>
<text text-anchor="start" x="146.66" y="-652" font-family="Helvetica,sans-Serif" font-style="italic" font-size="10.00">ebuild</text>
</g>
<g id="clust2" class="cluster">
<title>cluster_midcol</title>
<polygon fill="none" stroke="gray" points="396,-175 396,-1229 664,-1229 664,-175 396,-175"/>
<text text-anchor="start" x="498.88" y="-1217" font-family="Helvetica,sans-Serif" font-style="italic" font-size="10.00">dependencies</text>
</g>
<g id="clust3" class="cluster">
<title>cluster_compile</title>
<polygon fill="#eeeeee" stroke="gray" points="404,-653 404,-1201 656,-1201 656,-653 404,-653"/>
<text text-anchor="start" x="512.78" y="-1189" font-family="Helvetica,sans-Serif" font-style="italic" font-size="10.00">compile</text>
</g>
<g id="clust7" class="cluster">
<title>cluster_compileandrun</title>
<polygon fill="#eeeeee" stroke="gray" points="404,-183 404,-609 656,-609 656,-183 404,-183"/>
<text text-anchor="start" x="494.44" y="-597" font-family="Helvetica,sans-Serif" font-style="italic" font-size="10.00">compile and run</text>
</g>
<g id="clust12" class="cluster">
<title>cluster_choices</title>
<polygon fill="none" stroke="gray" points="748,-8 748,-1376 1052,-1376 1052,-8 748,-8"/>
<text text-anchor="start" x="875.82" y="-1364" font-family="Helvetica,sans-Serif" font-style="italic" font-size="10.00">candidates</text>
</g>
<!-- id -->
<g id="node1" class="node">
<title>id</title>
<g id="a_node1"><a xlink:href="../x11-libs/libva-intel-media-driver-9999.svg" xlink:title="x11&#45;libs/libva&#45;intel&#45;media&#45;driver&#45;9999">
<ellipse fill="none" stroke="red" cx="160" cy="-618" rx="144" ry="18"/>
<text text-anchor="middle" x="160" y="-615" font-family="Helvetica,sans-Serif" font-size="10.00">x11&#45;libs/libva&#45;intel&#45;media&#45;driver&#45;9999</text>
</a>
</g>
</g>
<!-- dependency1760620 -->
<g id="node2" class="node">
<title>dependency1760620</title>
<polygon fill="none" stroke="blue" points="420,-1059 420,-1169 525,-1169 525,-1059 420,-1059"/>
<text text-anchor="start" x="450.82" y="-1111" font-family="Helvetica,sans-Serif" font-size="10.00">pack_dep</text>
<polygon fill="none" stroke="blue" points="525,-1147 525,-1169 635,-1169 635,-1147 525,-1147"/>
<text text-anchor="start" x="574.44" y="-1155" font-family="Helvetica,sans-Serif" font-size="10.00">no</text>
<polygon fill="none" stroke="blue" points="525,-1125 525,-1147 635,-1147 635,-1125 525,-1125"/>
<text text-anchor="start" x="563.89" y="-1133" font-family="Helvetica,sans-Serif" font-size="10.00">dev&#45;util</text>
<polygon fill="none" stroke="blue" points="525,-1103 525,-1125 635,-1125 635,-1103 525,-1103"/>
<text text-anchor="start" x="565.28" y="-1111" font-family="Helvetica,sans-Serif" font-size="10.00">cmake</text>
<polygon fill="none" stroke="blue" points="525,-1081 525,-1103 635,-1103 635,-1081 525,-1081"/>
<text text-anchor="start" x="551.94" y="-1089" font-family="Helvetica,sans-Serif" font-size="10.00">greaterequal</text>
<polygon fill="none" stroke="blue" points="525,-1059 525,-1081 635,-1081 635,-1059 525,-1059"/>
<text text-anchor="start" x="568.88" y="-1067" font-family="Helvetica,sans-Serif" font-size="10.00">3.9.6</text>
</g>
<!-- id&#45;&gt;dependency1760620 -->
<g id="edge1" class="edge">
<title>id:e&#45;&gt;dependency1760620:w</title>
<path fill="none" stroke="black" d="M305,-618C526.9,-618 196.21,-1098.62 400.85,-1113.64"/>
<polygon fill="black" stroke="black" points="411,-1114 400.85,-1118.14 406,-1113.82 401.01,-1113.65 401.01,-1113.65 401.01,-1113.65 406,-1113.82 401.17,-1109.15 411,-1114 411,-1114"/>
</g>
<!-- dependency1760621 -->
<g id="node3" class="node">
<title>dependency1760621</title>
<polygon fill="none" stroke="blue" points="420,-789 420,-899 525,-899 525,-789 420,-789"/>
<text text-anchor="start" x="450.82" y="-841" font-family="Helvetica,sans-Serif" font-size="10.00">pack_dep</text>
<polygon fill="none" stroke="blue" points="525,-877 525,-899 635,-899 635,-877 525,-877"/>
<text text-anchor="start" x="574.44" y="-885" font-family="Helvetica,sans-Serif" font-size="10.00">no</text>
<polygon fill="none" stroke="blue" points="525,-855 525,-877 635,-877 635,-855 525,-855"/>
<text text-anchor="start" x="562.78" y="-863" font-family="Helvetica,sans-Serif" font-size="10.00">dev&#45;vcs</text>
<polygon fill="none" stroke="blue" points="525,-833 525,-855 635,-855 635,-833 525,-833"/>
<text text-anchor="start" x="574.72" y="-841" font-family="Helvetica,sans-Serif" font-size="10.00">git</text>
<polygon fill="none" stroke="blue" points="525,-811 525,-833 635,-833 635,-811 525,-811"/>
<text text-anchor="start" x="551.94" y="-819" font-family="Helvetica,sans-Serif" font-size="10.00">greaterequal</text>
<polygon fill="none" stroke="blue" points="525,-789 525,-811 635,-811 635,-789 525,-789"/>
<text text-anchor="start" x="564.71" y="-797" font-family="Helvetica,sans-Serif" font-size="10.00">1.8.2.1</text>
</g>
<!-- id&#45;&gt;dependency1760621 -->
<g id="edge2" class="edge">
<title>id:e&#45;&gt;dependency1760621:w</title>
<path fill="none" stroke="black" d="M305,-618C412.37,-618 307.29,-829.67 400.97,-843.31"/>
<polygon fill="black" stroke="black" points="411,-844 400.72,-847.8 406.01,-843.66 401.02,-843.31 401.02,-843.31 401.02,-843.31 406.01,-843.66 401.33,-838.83 411,-844 411,-844"/>
</g>
<!-- dependency1760622 -->
<g id="node4" class="node">
<title>dependency1760622</title>
<polygon fill="none" stroke="blue" points="420,-665 420,-763 525,-763 525,-665 420,-665"/>
<text text-anchor="start" x="450.82" y="-711" font-family="Helvetica,sans-Serif" font-size="10.00">pack_dep</text>
<polygon fill="none" stroke="blue" points="525,-741 525,-763 635,-763 635,-741 525,-741"/>
<text text-anchor="start" x="574.44" y="-749" font-family="Helvetica,sans-Serif" font-size="10.00">no</text>
<polygon fill="none" stroke="blue" points="525,-719 525,-741 635,-741 635,-719 525,-719"/>
<text text-anchor="start" x="558.89" y="-727" font-family="Helvetica,sans-Serif" font-size="10.00">sys&#45;devel</text>
<polygon fill="none" stroke="blue" points="525,-697 525,-719 635,-719 635,-697 525,-697"/>
<text text-anchor="start" x="567.78" y="-705" font-family="Helvetica,sans-Serif" font-size="10.00">make</text>
<polygon fill="none" stroke="blue" points="525,-675 525,-697 635,-697 635,-675 525,-675"/>
<text text-anchor="start" x="568.88" y="-683" font-family="Helvetica,sans-Serif" font-size="10.00">none</text>
<polygon fill="none" stroke="blue" points="525,-665 525,-675 635,-675 635,-665 525,-665"/>
</g>
<!-- id&#45;&gt;dependency1760622 -->
<g id="edge3" class="edge">
<title>id:e&#45;&gt;dependency1760622:w</title>
<path fill="none" stroke="black" d="M305,-618C364.96,-618 349.56,-703.43 400.98,-713.11"/>
<polygon fill="black" stroke="black" points="411,-714 400.64,-717.6 406.02,-713.56 401.04,-713.12 401.04,-713.12 401.04,-713.12 406.02,-713.56 401.44,-708.63 411,-714 411,-714"/>
</g>
<!-- dependency1760623 -->
<g id="node5" class="node">
<title>dependency1760623</title>
<polygon fill="none" stroke="blue" points="420,-467 420,-577 525,-577 525,-467 420,-467"/>
<text text-anchor="start" x="450.82" y="-519" font-family="Helvetica,sans-Serif" font-size="10.00">pack_dep</text>
<polygon fill="none" stroke="blue" points="525,-555 525,-577 635,-577 635,-555 525,-555"/>
<text text-anchor="start" x="574.44" y="-563" font-family="Helvetica,sans-Serif" font-size="10.00">no</text>
<polygon fill="none" stroke="blue" points="525,-533 525,-555 635,-555 635,-533 525,-533"/>
<text text-anchor="start" x="557.22" y="-541" font-family="Helvetica,sans-Serif" font-size="10.00">media&#45;libs</text>
<polygon fill="none" stroke="blue" points="525,-511 525,-533 635,-533 635,-511 525,-511"/>
<text text-anchor="start" x="563.89" y="-519" font-family="Helvetica,sans-Serif" font-size="10.00">gmmlib</text>
<polygon fill="none" stroke="blue" points="525,-489 525,-511 635,-511 635,-489 525,-489"/>
<text text-anchor="start" x="551.94" y="-497" font-family="Helvetica,sans-Serif" font-size="10.00">greaterequal</text>
<polygon fill="none" stroke="blue" points="525,-467 525,-489 635,-489 635,-467 525,-467"/>
<text text-anchor="start" x="568.88" y="-475" font-family="Helvetica,sans-Serif" font-size="10.00">9999</text>
</g>
<!-- id&#45;&gt;dependency1760623 -->
<g id="edge4" class="edge">
<title>id:e&#45;&gt;dependency1760623:w</title>
<path fill="none" stroke="black" d="M305,-618C361.73,-618 351,-541.52 393.24,-525.09"/>
<ellipse fill="none" stroke="black" cx="407.06" cy="-522.68" rx="4" ry="4"/>
<polygon fill="black" stroke="black" points="403.12,-523.37 394.04,-529.51 398.19,-524.22 393.27,-525.08 393.27,-525.08 393.27,-525.08 398.19,-524.22 392.5,-520.65 403.12,-523.37 403.12,-523.37"/>
</g>
<!-- dependency1760624 -->
<g id="node6" class="node">
<title>dependency1760624</title>
<polygon fill="none" stroke="blue" points="420,-331 420,-441 525,-441 525,-331 420,-331"/>
<text text-anchor="start" x="450.82" y="-383" font-family="Helvetica,sans-Serif" font-size="10.00">pack_dep</text>
<polygon fill="none" stroke="blue" points="525,-419 525,-441 635,-441 635,-419 525,-419"/>
<text text-anchor="start" x="574.44" y="-427" font-family="Helvetica,sans-Serif" font-size="10.00">no</text>
<polygon fill="none" stroke="blue" points="525,-397 525,-419 635,-419 635,-397 525,-397"/>
<text text-anchor="start" x="562.78" y="-405" font-family="Helvetica,sans-Serif" font-size="10.00">x11&#45;libs</text>
<polygon fill="none" stroke="blue" points="525,-375 525,-397 635,-397 635,-375 525,-375"/>
<text text-anchor="start" x="553.05" y="-383" font-family="Helvetica,sans-Serif" font-size="10.00">libpciaccess</text>
<polygon fill="none" stroke="blue" points="525,-353 525,-375 635,-375 635,-353 525,-353"/>
<text text-anchor="start" x="551.94" y="-361" font-family="Helvetica,sans-Serif" font-size="10.00">greaterequal</text>
<polygon fill="none" stroke="blue" points="525,-331 525,-353 635,-353 635,-331 525,-331"/>
<text text-anchor="start" x="559.99" y="-339" font-family="Helvetica,sans-Serif" font-size="10.00">0.13.1&#45;r1</text>
</g>
<!-- id&#45;&gt;dependency1760624 -->
<g id="edge5" class="edge">
<title>id:e&#45;&gt;dependency1760624:w</title>
<path fill="none" stroke="black" d="M305,-618C411.61,-618 311.19,-412.82 393.13,-388.37"/>
<ellipse fill="none" stroke="black" cx="407.03" cy="-386.53" rx="4" ry="4"/>
<polygon fill="black" stroke="black" points="403.07,-387.05 393.75,-392.83 398.11,-387.71 393.16,-388.37 393.16,-388.37 393.16,-388.37 398.11,-387.71 392.56,-383.91 403.07,-387.05 403.07,-387.05"/>
</g>
<!-- dependency1760625 -->
<g id="node7" class="node">
<title>dependency1760625</title>
<polygon fill="none" stroke="blue" points="420,-195 420,-305 525,-305 525,-195 420,-195"/>
<text text-anchor="start" x="450.82" y="-247" font-family="Helvetica,sans-Serif" font-size="10.00">pack_dep</text>
<polygon fill="none" stroke="blue" points="525,-283 525,-305 635,-305 635,-283 525,-283"/>
<text text-anchor="start" x="574.44" y="-291" font-family="Helvetica,sans-Serif" font-size="10.00">no</text>
<polygon fill="none" stroke="blue" points="525,-261 525,-283 635,-283 635,-261 525,-261"/>
<text text-anchor="start" x="562.78" y="-269" font-family="Helvetica,sans-Serif" font-size="10.00">x11&#45;libs</text>
<polygon fill="none" stroke="blue" points="525,-239 525,-261 635,-261 635,-239 525,-239"/>
<text text-anchor="start" x="569.72" y="-247" font-family="Helvetica,sans-Serif" font-size="10.00">libva</text>
<polygon fill="none" stroke="blue" points="525,-217 525,-239 635,-239 635,-217 525,-217"/>
<text text-anchor="start" x="551.94" y="-225" font-family="Helvetica,sans-Serif" font-size="10.00">greaterequal</text>
<polygon fill="none" stroke="blue" points="525,-195 525,-217 635,-217 635,-195 525,-195"/>
<text text-anchor="start" x="568.88" y="-203" font-family="Helvetica,sans-Serif" font-size="10.00">2.3.0</text>
</g>
<!-- id&#45;&gt;dependency1760625 -->
<g id="edge6" class="edge">
<title>id:e&#45;&gt;dependency1760625:w</title>
<path fill="none" stroke="black" d="M305,-618C468.56,-618 258.49,-278.19 392.86,-251.64"/>
<ellipse fill="none" stroke="black" cx="407.02" cy="-250.36" rx="4" ry="4"/>
<polygon fill="black" stroke="black" points="403.03,-250.72 393.48,-256.1 398.05,-251.17 393.07,-251.62 393.07,-251.62 393.07,-251.62 398.05,-251.17 392.67,-247.14 403.03,-250.72 403.03,-250.72"/>
</g>
<!-- choice1001011184511711610510847991099710710145514649484651 -->
<g id="node8" class="node">
<title>choice1001011184511711610510847991099710710145514649484651</title>
<g id="a_node8"><a xlink:href="../dev-util/cmake-3.10.3.svg" xlink:title="dev&#45;util/cmake&#45;3.10.3">
<ellipse fill="none" stroke="red" cx="900" cy="-1330" rx="144" ry="18"/>
<text text-anchor="middle" x="900" y="-1327" font-family="Helvetica,sans-Serif" font-size="10.00">dev&#45;util/cmake&#45;3.10.3</text>
</a>
</g>
</g>
<!-- dependency1760620&#45;&gt;choice1001011184511711610510847991099710710145514649484651 -->
<g id="edge7" class="edge">
<title>dependency1760620:e&#45;&gt;choice1001011184511711610510847991099710710145514649484651:w</title>
<path fill="none" stroke="black" stroke-dasharray="1,5" d="M649,-1114C752.28,-1114 655.19,-1315.49 744.77,-1329.26"/>
<polygon fill="black" stroke="black" points="755,-1330 744.7,-1333.77 750.01,-1329.64 745.03,-1329.28 745.03,-1329.28 745.03,-1329.28 750.01,-1329.64 745.35,-1324.79 755,-1330 755,-1330"/>
</g>
<!-- choice10010111845117116105108479910997107101455146494946524511449 -->
<g id="node9" class="node">
<title>choice10010111845117116105108479910997107101455146494946524511449</title>
<g id="a_node9"><a xlink:href="../dev-util/cmake-3.11.4-r1.svg" xlink:title="dev&#45;util/cmake&#45;3.11.4&#45;r1">
<ellipse fill="none" stroke="red" cx="900" cy="-1276" rx="144" ry="18"/>
<text text-anchor="middle" x="900" y="-1273" font-family="Helvetica,sans-Serif" font-size="10.00">dev&#45;util/cmake&#45;3.11.4&#45;r1</text>
</a>
</g>
</g>
<!-- dependency1760620&#45;&gt;choice10010111845117116105108479910997107101455146494946524511449 -->
<g id="edge8" class="edge">
<title>dependency1760620:e&#45;&gt;choice10010111845117116105108479910997107101455146494946524511449:w</title>
<path fill="none" stroke="black" stroke-dasharray="1,5" d="M649,-1114C731.35,-1114 674.36,-1262.38 744.73,-1275.13"/>
<polygon fill="black" stroke="black" points="755,-1276 744.66,-1279.64 750.02,-1275.58 745.04,-1275.15 745.04,-1275.15 745.04,-1275.15 750.02,-1275.58 745.42,-1270.67 755,-1276 755,-1276"/>
</g>
<!-- choice1001011184511711610510847991099710710145514649504651 -->
<g id="node10" class="node">
<title>choice1001011184511711610510847991099710710145514649504651</title>
<g id="a_node10"><a xlink:href="../dev-util/cmake-3.12.3.svg" xlink:title="dev&#45;util/cmake&#45;3.12.3">
<ellipse fill="none" stroke="red" cx="900" cy="-1222" rx="144" ry="18"/>
<text text-anchor="middle" x="900" y="-1219" font-family="Helvetica,sans-Serif" font-size="10.00">dev&#45;util/cmake&#45;3.12.3</text>
</a>
</g>
</g>
<!-- dependency1760620&#45;&gt;choice1001011184511711610510847991099710710145514649504651 -->
<g id="edge9" class="edge">
<title>dependency1760620:e&#45;&gt;choice1001011184511711610510847991099710710145514649504651:w</title>
<path fill="none" stroke="black" stroke-dasharray="1,5" d="M649,-1114C712.58,-1114 690.58,-1210.51 744.79,-1221.07"/>
<polygon fill="black" stroke="black" points="755,-1222 744.63,-1225.57 750.02,-1221.54 745.04,-1221.09 745.04,-1221.09 745.04,-1221.09 750.02,-1221.54 745.45,-1216.61 755,-1222 755,-1222"/>
</g>
<!-- choice1001011184511711610510847991099710710145514649514652 -->
<g id="node11" class="node">
<title>choice1001011184511711610510847991099710710145514649514652</title>
<g id="a_node11"><a xlink:href="../dev-util/cmake-3.13.4.svg" xlink:title="dev&#45;util/cmake&#45;3.13.4">
<ellipse fill="none" stroke="red" cx="900" cy="-1168" rx="144" ry="18"/>
<text text-anchor="middle" x="900" y="-1165" font-family="Helvetica,sans-Serif" font-size="10.00">dev&#45;util/cmake&#45;3.13.4</text>
</a>
</g>
</g>
<!-- dependency1760620&#45;&gt;choice1001011184511711610510847991099710710145514649514652 -->
<g id="edge10" class="edge">
<title>dependency1760620:e&#45;&gt;choice1001011184511711610510847991099710710145514649514652:w</title>
<path fill="none" stroke="black" stroke-dasharray="1,5" d="M649,-1114C698.26,-1114 701.85,-1160.87 744.86,-1167.28"/>
<polygon fill="black" stroke="black" points="755,-1168 744.71,-1171.78 750.01,-1167.64 745.03,-1167.29 745.03,-1167.29 745.03,-1167.29 750.01,-1167.64 745.35,-1162.8 755,-1168 755,-1168"/>
</g>
<!-- choice1001011184511711610510847991099710710145514649524648951149951 -->
<g id="node12" class="node">
<title>choice1001011184511711610510847991099710710145514649524648951149951</title>
<g id="a_node12"><a xlink:href="../dev-util/cmake-3.14.0_rc3.svg" xlink:title="dev&#45;util/cmake&#45;3.14.0_rc3">
<ellipse fill="none" stroke="red" cx="900" cy="-1114" rx="144" ry="18"/>
<text text-anchor="middle" x="900" y="-1111" font-family="Helvetica,sans-Serif" font-size="10.00">dev&#45;util/cmake&#45;3.14.0_rc3</text>
</a>
</g>
</g>
<!-- dependency1760620&#45;&gt;choice1001011184511711610510847991099710710145514649524648951149951 -->
<g id="edge11" class="edge">
<title>dependency1760620:e&#45;&gt;choice1001011184511711610510847991099710710145514649524648951149951:w</title>
<path fill="none" stroke="black" stroke-dasharray="1,5" d="M649,-1114C692.43,-1114 705.83,-1114 744.57,-1114"/>
<polygon fill="black" stroke="black" points="755,-1114 745,-1118.5 750,-1114 745,-1114 745,-1114 745,-1114 750,-1114 745,-1109.5 755,-1114 755,-1114"/>
</g>
<!-- choice10010111845117116105108479910997107101455146574654 -->
<g id="node13" class="node">
<title>choice10010111845117116105108479910997107101455146574654</title>
<g id="a_node13"><a xlink:href="../dev-util/cmake-3.9.6.svg" xlink:title="dev&#45;util/cmake&#45;3.9.6">
<ellipse fill="none" stroke="red" cx="900" cy="-1060" rx="144" ry="18"/>
<text text-anchor="middle" x="900" y="-1057" font-family="Helvetica,sans-Serif" font-size="10.00">dev&#45;util/cmake&#45;3.9.6</text>
</a>
</g>
</g>
<!-- dependency1760620&#45;&gt;choice10010111845117116105108479910997107101455146574654 -->
<g id="edge12" class="edge">
<title>dependency1760620:e&#45;&gt;choice10010111845117116105108479910997107101455146574654:w</title>
<path fill="none" stroke="black" stroke-dasharray="1,5" d="M649,-1114C698.26,-1114 701.85,-1067.13 744.86,-1060.72"/>
<polygon fill="black" stroke="black" points="755,-1060 745.35,-1065.2 750.01,-1060.36 745.03,-1060.71 745.03,-1060.71 745.03,-1060.71 750.01,-1060.36 744.71,-1056.22 755,-1060 755,-1060"/>
</g>
<!-- choice10010111845118991154710310511645504649574650 -->
<g id="node14" class="node">
<title>choice10010111845118991154710310511645504649574650</title>
<g id="a_node14"><a xlink:href="../dev-vcs/git-2.19.2.svg" xlink:title="dev&#45;vcs/git&#45;2.19.2">
<ellipse fill="none" stroke="red" cx="900" cy="-1006" rx="144" ry="18"/>
<text text-anchor="middle" x="900" y="-1003" font-family="Helvetica,sans-Serif" font-size="10.00">dev&#45;vcs/git&#45;2.19.2</text>
</a>
</g>
</g>
<!-- dependency1760621&#45;&gt;choice10010111845118991154710310511645504649574650 -->
<g id="edge13" class="edge">
<title>dependency1760621:e&#45;&gt;choice10010111845118991154710310511645504649574650:w</title>
<path fill="none" stroke="black" stroke-dasharray="1,5" d="M649,-844C731.35,-844 674.36,-992.38 744.73,-1005.13"/>
<polygon fill="black" stroke="black" points="755,-1006 744.66,-1009.64 750.02,-1005.58 745.04,-1005.15 745.04,-1005.15 745.04,-1005.15 750.02,-1005.58 745.42,-1000.67 755,-1006 755,-1006"/>
</g>
<!-- choice10010111845118991154710310511645504650484649 -->
<g id="node15" class="node">
<title>choice10010111845118991154710310511645504650484649</title>
<g id="a_node15"><a xlink:href="../dev-vcs/git-2.20.1.svg" xlink:title="dev&#45;vcs/git&#45;2.20.1">
<ellipse fill="none" stroke="red" cx="900" cy="-952" rx="144" ry="18"/>
<text text-anchor="middle" x="900" y="-949" font-family="Helvetica,sans-Serif" font-size="10.00">dev&#45;vcs/git&#45;2.20.1</text>
</a>
</g>
</g>
<!-- dependency1760621&#45;&gt;choice10010111845118991154710310511645504650484649 -->
<g id="edge14" class="edge">
<title>dependency1760621:e&#45;&gt;choice10010111845118991154710310511645504650484649:w</title>
<path fill="none" stroke="black" stroke-dasharray="1,5" d="M649,-844C712.58,-844 690.58,-940.51 744.79,-951.07"/>
<polygon fill="black" stroke="black" points="755,-952 744.63,-955.57 750.02,-951.54 745.04,-951.09 745.04,-951.09 745.04,-951.09 750.02,-951.54 745.45,-946.61 755,-952 755,-952"/>
</g>
<!-- choice10010111845118991154710310511645504650494648 -->
<g id="node16" class="node">
<title>choice10010111845118991154710310511645504650494648</title>
<g id="a_node16"><a xlink:href="../dev-vcs/git-2.21.0.svg" xlink:title="dev&#45;vcs/git&#45;2.21.0">
<ellipse fill="none" stroke="red" cx="900" cy="-898" rx="144" ry="18"/>
<text text-anchor="middle" x="900" y="-895" font-family="Helvetica,sans-Serif" font-size="10.00">dev&#45;vcs/git&#45;2.21.0</text>
</a>
</g>
</g>
<!-- dependency1760621&#45;&gt;choice10010111845118991154710310511645504650494648 -->
<g id="edge15" class="edge">
<title>dependency1760621:e&#45;&gt;choice10010111845118991154710310511645504650494648:w</title>
<path fill="none" stroke="black" stroke-dasharray="1,5" d="M649,-844C698.26,-844 701.85,-890.87 744.86,-897.28"/>
<polygon fill="black" stroke="black" points="755,-898 744.71,-901.78 750.01,-897.64 745.03,-897.29 745.03,-897.29 745.03,-897.29 750.01,-897.64 745.35,-892.8 755,-898 755,-898"/>
</g>
<!-- choice1001011184511899115471031051164557575757 -->
<g id="node17" class="node">
<title>choice1001011184511899115471031051164557575757</title>
<g id="a_node17"><a xlink:href="../dev-vcs/git-9999.svg" xlink:title="dev&#45;vcs/git&#45;9999">
<ellipse fill="none" stroke="red" cx="900" cy="-844" rx="144" ry="18"/>
<text text-anchor="middle" x="900" y="-841" font-family="Helvetica,sans-Serif" font-size="10.00">dev&#45;vcs/git&#45;9999</text>
</a>
</g>
</g>
<!-- dependency1760621&#45;&gt;choice1001011184511899115471031051164557575757 -->
<g id="edge16" class="edge">
<title>dependency1760621:e&#45;&gt;choice1001011184511899115471031051164557575757:w</title>
<path fill="none" stroke="black" stroke-dasharray="1,5" d="M649,-844C692.43,-844 705.83,-844 744.57,-844"/>
<polygon fill="black" stroke="black" points="755,-844 745,-848.5 750,-844 745,-844 745,-844 745,-844 750,-844 745,-839.5 755,-844 755,-844"/>
</g>
<!-- choice10010111845118991154710310511645575757574511449 -->
<g id="node18" class="node">
<title>choice10010111845118991154710310511645575757574511449</title>
<g id="a_node18"><a xlink:href="../dev-vcs/git-9999-r1.svg" xlink:title="dev&#45;vcs/git&#45;9999&#45;r1">
<ellipse fill="none" stroke="red" cx="900" cy="-790" rx="144" ry="18"/>
<text text-anchor="middle" x="900" y="-787" font-family="Helvetica,sans-Serif" font-size="10.00">dev&#45;vcs/git&#45;9999&#45;r1</text>
</a>
</g>
</g>
<!-- dependency1760621&#45;&gt;choice10010111845118991154710310511645575757574511449 -->
<g id="edge17" class="edge">
<title>dependency1760621:e&#45;&gt;choice10010111845118991154710310511645575757574511449:w</title>
<path fill="none" stroke="black" stroke-dasharray="1,5" d="M649,-844C698.26,-844 701.85,-797.13 744.86,-790.72"/>
<polygon fill="black" stroke="black" points="755,-790 745.35,-795.2 750.01,-790.36 745.03,-790.71 745.03,-790.71 745.03,-790.71 750.01,-790.36 744.71,-786.22 755,-790 755,-790"/>
</g>
<!-- choice10010111845118991154710310511645575757574511450 -->
<g id="node19" class="node">
<title>choice10010111845118991154710310511645575757574511450</title>
<g id="a_node19"><a xlink:href="../dev-vcs/git-9999-r2.svg" xlink:title="dev&#45;vcs/git&#45;9999&#45;r2">
<ellipse fill="none" stroke="red" cx="900" cy="-736" rx="144" ry="18"/>
<text text-anchor="middle" x="900" y="-733" font-family="Helvetica,sans-Serif" font-size="10.00">dev&#45;vcs/git&#45;9999&#45;r2</text>
</a>
</g>
</g>
<!-- dependency1760621&#45;&gt;choice10010111845118991154710310511645575757574511450 -->
<g id="edge18" class="edge">
<title>dependency1760621:e&#45;&gt;choice10010111845118991154710310511645575757574511450:w</title>
<path fill="none" stroke="black" stroke-dasharray="1,5" d="M649,-844C712.58,-844 690.58,-747.49 744.79,-736.93"/>
<polygon fill="black" stroke="black" points="755,-736 745.45,-741.39 750.02,-736.46 745.04,-736.91 745.04,-736.91 745.04,-736.91 750.02,-736.46 744.63,-732.43 755,-736 755,-736"/>
</g>
<!-- choice10010111845118991154710310511645575757574511451 -->
<g id="node20" class="node">
<title>choice10010111845118991154710310511645575757574511451</title>
<g id="a_node20"><a xlink:href="../dev-vcs/git-9999-r3.svg" xlink:title="dev&#45;vcs/git&#45;9999&#45;r3">
<ellipse fill="none" stroke="red" cx="900" cy="-682" rx="144" ry="18"/>
<text text-anchor="middle" x="900" y="-679" font-family="Helvetica,sans-Serif" font-size="10.00">dev&#45;vcs/git&#45;9999&#45;r3</text>
</a>
</g>
</g>
<!-- dependency1760621&#45;&gt;choice10010111845118991154710310511645575757574511451 -->
<g id="edge19" class="edge">
<title>dependency1760621:e&#45;&gt;choice10010111845118991154710310511645575757574511451:w</title>
<path fill="none" stroke="black" stroke-dasharray="1,5" d="M649,-844C731.35,-844 674.36,-695.62 744.73,-682.87"/>
<polygon fill="black" stroke="black" points="755,-682 745.42,-687.33 750.02,-682.42 745.04,-682.85 745.04,-682.85 745.04,-682.85 750.02,-682.42 744.66,-678.36 755,-682 755,-682"/>
</g>
<!-- choice1151211154510010111810110847109971071014552465046494511452 -->
<g id="node21" class="node">
<title>choice1151211154510010111810110847109971071014552465046494511452</title>
<g id="a_node21"><a xlink:href="../sys-devel/make-4.2.1-r4.svg" xlink:title="sys&#45;devel/make&#45;4.2.1&#45;r4">
<ellipse fill="none" stroke="red" cx="900" cy="-628" rx="144" ry="18"/>
<text text-anchor="middle" x="900" y="-625" font-family="Helvetica,sans-Serif" font-size="10.00">sys&#45;devel/make&#45;4.2.1&#45;r4</text>
</a>
</g>
</g>
<!-- dependency1760622&#45;&gt;choice1151211154510010111810110847109971071014552465046494511452 -->
<g id="edge20" class="edge">
<title>dependency1760622:e&#45;&gt;choice1151211154510010111810110847109971071014552465046494511452:w</title>
<path fill="none" stroke="black" stroke-dasharray="1,5" d="M649,-714C705.99,-714 695.91,-638.1 744.78,-628.91"/>
<polygon fill="black" stroke="black" points="755,-628 745.44,-633.37 750.02,-628.44 745.04,-628.88 745.04,-628.88 745.04,-628.88 750.02,-628.44 744.64,-624.4 755,-628 755,-628"/>
</g>
<!-- choice109101100105974510810598115471031091091081059845495646514648 -->
<g id="node22" class="node">
<title>choice109101100105974510810598115471031091091081059845495646514648</title>
<g id="a_node22"><a xlink:href="../media-libs/gmmlib-18.3.0.svg" xlink:title="media&#45;libs/gmmlib&#45;18.3.0">
<ellipse fill="none" stroke="red" cx="900" cy="-574" rx="144" ry="18"/>
<text text-anchor="middle" x="900" y="-571" font-family="Helvetica,sans-Serif" font-size="10.00">media&#45;libs/gmmlib&#45;18.3.0</text>
</a>
</g>
</g>
<!-- dependency1760623&#45;&gt;choice109101100105974510810598115471031091091081059845495646514648 -->
<g id="edge21" class="edge">
<title>dependency1760623:e&#45;&gt;choice109101100105974510810598115471031091091081059845495646514648:w</title>
<path fill="none" stroke="black" stroke-dasharray="1,5" d="M649,-522C697.89,-522 702.14,-567.13 744.93,-573.3"/>
<polygon fill="black" stroke="black" points="755,-574 744.71,-577.8 750.01,-573.66 745.02,-573.31 745.02,-573.31 745.02,-573.31 750.01,-573.66 745.33,-568.82 755,-574 755,-574"/>
</g>
<!-- choice109101100105974510810598115471031091091081059845495646524649 -->
<g id="node23" class="node">
<title>choice109101100105974510810598115471031091091081059845495646524649</title>
<g id="a_node23"><a xlink:href="../media-libs/gmmlib-18.4.1.svg" xlink:title="media&#45;libs/gmmlib&#45;18.4.1">
<ellipse fill="none" stroke="red" cx="900" cy="-520" rx="144" ry="18"/>
<text text-anchor="middle" x="900" y="-517" font-family="Helvetica,sans-Serif" font-size="10.00">media&#45;libs/gmmlib&#45;18.4.1</text>
</a>
</g>
</g>
<!-- dependency1760623&#45;&gt;choice109101100105974510810598115471031091091081059845495646524649 -->
<g id="edge22" class="edge">
<title>dependency1760623:e&#45;&gt;choice109101100105974510810598115471031091091081059845495646524649:w</title>
<path fill="none" stroke="black" stroke-dasharray="1,5" d="M649,-522C692.44,-522 705.83,-520.3 744.57,-520.03"/>
<polygon fill="black" stroke="black" points="755,-520 745.02,-524.53 750,-520.02 745,-520.03 745,-520.03 745,-520.03 750,-520.02 744.99,-515.53 755,-520 755,-520"/>
</g>
<!-- choice10910110010597451081059811547103109109108105984557575757 -->
<g id="node24" class="node">
<title>choice10910110010597451081059811547103109109108105984557575757</title>
<g id="a_node24"><a xlink:href="../media-libs/gmmlib-9999.svg" xlink:title="media&#45;libs/gmmlib&#45;9999">
<ellipse fill="none" stroke="red" cx="900" cy="-466" rx="144" ry="18"/>
<text text-anchor="middle" x="900" y="-463" font-family="Helvetica,sans-Serif" font-size="10.00">media&#45;libs/gmmlib&#45;9999</text>
</a>
</g>
</g>
<!-- dependency1760623&#45;&gt;choice10910110010597451081059811547103109109108105984557575757 -->
<g id="edge23" class="edge">
<title>dependency1760623:e&#45;&gt;choice10910110010597451081059811547103109109108105984557575757:w</title>
<path fill="none" stroke="black" stroke-dasharray="1,5" d="M649,-522C698.64,-522 701.54,-473.39 744.79,-466.75"/>
<polygon fill="black" stroke="black" points="755,-466 745.36,-471.22 750.01,-466.37 745.03,-466.73 745.03,-466.73 745.03,-466.73 750.01,-466.37 744.7,-462.24 755,-466 755,-466"/>
</g>
<!-- choice120494945108105981154710810598112991059799991011151154548464952 -->
<g id="node25" class="node">
<title>choice120494945108105981154710810598112991059799991011151154548464952</title>
<g id="a_node25"><a xlink:href="../x11-libs/libpciaccess-0.14.svg" xlink:title="x11&#45;libs/libpciaccess&#45;0.14">
<ellipse fill="none" stroke="red" cx="900" cy="-412" rx="144" ry="18"/>
<text text-anchor="middle" x="900" y="-409" font-family="Helvetica,sans-Serif" font-size="10.00">x11&#45;libs/libpciaccess&#45;0.14</text>
</a>
</g>
</g>
<!-- dependency1760624&#45;&gt;choice120494945108105981154710810598112991059799991011151154548464952 -->
<g id="edge24" class="edge">
<title>dependency1760624:e&#45;&gt;choice120494945108105981154710810598112991059799991011151154548464952:w</title>
<path fill="none" stroke="black" stroke-dasharray="1,5" d="M649,-386C693.91,-386 704.94,-408.28 744.82,-411.59"/>
<polygon fill="black" stroke="black" points="755,-412 744.83,-416.1 750,-411.8 745.01,-411.6 745.01,-411.6 745.01,-411.6 750,-411.8 745.19,-407.1 755,-412 755,-412"/>
</g>
<!-- choice12049494510810598115471081059811897454946554651 -->
<g id="node26" class="node">
<title>choice12049494510810598115471081059811897454946554651</title>
<g id="a_node26"><a xlink:href="../x11-libs/libva-1.7.3.svg" xlink:title="x11&#45;libs/libva&#45;1.7.3">
<ellipse fill="none" stroke="red" cx="900" cy="-358" rx="144" ry="18"/>
<text text-anchor="middle" x="900" y="-355" font-family="Helvetica,sans-Serif" font-size="10.00">x11&#45;libs/libva&#45;1.7.3</text>
</a>
</g>
</g>
<!-- dependency1760625&#45;&gt;choice12049494510810598115471081059811897454946554651 -->
<g id="edge25" class="edge">
<title>dependency1760625:e&#45;&gt;choice12049494510810598115471081059811897454946554651:w</title>
<path fill="none" stroke="black" stroke-dasharray="1,5" d="M649,-250C712.58,-250 690.58,-346.51 744.79,-357.07"/>
<polygon fill="black" stroke="black" points="755,-358 744.63,-361.57 750.02,-357.54 745.04,-357.09 745.04,-357.09 745.04,-357.09 750.02,-357.54 745.45,-352.61 755,-358 755,-358"/>
</g>
<!-- choice12049494510810598115471081059811897454946564651 -->
<g id="node27" class="node">
<title>choice12049494510810598115471081059811897454946564651</title>
<g id="a_node27"><a xlink:href="../x11-libs/libva-1.8.3.svg" xlink:title="x11&#45;libs/libva&#45;1.8.3">
<ellipse fill="none" stroke="red" cx="900" cy="-304" rx="144" ry="18"/>
<text text-anchor="middle" x="900" y="-301" font-family="Helvetica,sans-Serif" font-size="10.00">x11&#45;libs/libva&#45;1.8.3</text>
</a>
</g>
</g>
<!-- dependency1760625&#45;&gt;choice12049494510810598115471081059811897454946564651 -->
<g id="edge26" class="edge">
<title>dependency1760625:e&#45;&gt;choice12049494510810598115471081059811897454946564651:w</title>
<path fill="none" stroke="black" stroke-dasharray="1,5" d="M649,-250C698.26,-250 701.85,-296.87 744.86,-303.28"/>
<polygon fill="black" stroke="black" points="755,-304 744.71,-307.78 750.01,-303.64 745.03,-303.29 745.03,-303.29 745.03,-303.29 750.01,-303.64 745.35,-298.8 755,-304 755,-304"/>
</g>
<!-- choice12049494510810598115471081059811897455046494648 -->
<g id="node28" class="node">
<title>choice12049494510810598115471081059811897455046494648</title>
<g id="a_node28"><a xlink:href="../x11-libs/libva-2.1.0.svg" xlink:title="x11&#45;libs/libva&#45;2.1.0">
<ellipse fill="none" stroke="red" cx="900" cy="-250" rx="144" ry="18"/>
<text text-anchor="middle" x="900" y="-247" font-family="Helvetica,sans-Serif" font-size="10.00">x11&#45;libs/libva&#45;2.1.0</text>
</a>
</g>
</g>
<!-- dependency1760625&#45;&gt;choice12049494510810598115471081059811897455046494648 -->
<g id="edge27" class="edge">
<title>dependency1760625:e&#45;&gt;choice12049494510810598115471081059811897455046494648:w</title>
<path fill="none" stroke="black" stroke-dasharray="1,5" d="M649,-250C692.43,-250 705.83,-250 744.57,-250"/>
<polygon fill="black" stroke="black" points="755,-250 745,-254.5 750,-250 745,-250 745,-250 745,-250 750,-250 745,-245.5 755,-250 755,-250"/>
</g>
<!-- choice12049494510810598115471081059811897455046504648 -->
<g id="node29" class="node">
<title>choice12049494510810598115471081059811897455046504648</title>
<g id="a_node29"><a xlink:href="../x11-libs/libva-2.2.0.svg" xlink:title="x11&#45;libs/libva&#45;2.2.0">
<ellipse fill="none" stroke="red" cx="900" cy="-196" rx="144" ry="18"/>
<text text-anchor="middle" x="900" y="-193" font-family="Helvetica,sans-Serif" font-size="10.00">x11&#45;libs/libva&#45;2.2.0</text>
</a>
</g>
</g>
<!-- dependency1760625&#45;&gt;choice12049494510810598115471081059811897455046504648 -->
<g id="edge28" class="edge">
<title>dependency1760625:e&#45;&gt;choice12049494510810598115471081059811897455046504648:w</title>
<path fill="none" stroke="black" stroke-dasharray="1,5" d="M649,-250C698.26,-250 701.85,-203.13 744.86,-196.72"/>
<polygon fill="black" stroke="black" points="755,-196 745.35,-201.2 750.01,-196.36 745.03,-196.71 745.03,-196.71 745.03,-196.71 750.01,-196.36 744.71,-192.22 755,-196 755,-196"/>
</g>
<!-- choice12049494510810598115471081059811897455046514648 -->
<g id="node30" class="node">
<title>choice12049494510810598115471081059811897455046514648</title>
<g id="a_node30"><a xlink:href="../x11-libs/libva-2.3.0.svg" xlink:title="x11&#45;libs/libva&#45;2.3.0">
<ellipse fill="none" stroke="red" cx="900" cy="-142" rx="144" ry="18"/>
<text text-anchor="middle" x="900" y="-139" font-family="Helvetica,sans-Serif" font-size="10.00">x11&#45;libs/libva&#45;2.3.0</text>
</a>
</g>
</g>
<!-- dependency1760625&#45;&gt;choice12049494510810598115471081059811897455046514648 -->
<g id="edge29" class="edge">
<title>dependency1760625:e&#45;&gt;choice12049494510810598115471081059811897455046514648:w</title>
<path fill="none" stroke="black" stroke-dasharray="1,5" d="M649,-250C712.58,-250 690.58,-153.49 744.79,-142.93"/>
<polygon fill="black" stroke="black" points="755,-142 745.45,-147.39 750.02,-142.46 745.04,-142.91 745.04,-142.91 745.04,-142.91 750.02,-142.46 744.63,-138.43 755,-142 755,-142"/>
</g>
<!-- choice12049494510810598115471081059811897455046524648 -->
<g id="node31" class="node">
<title>choice12049494510810598115471081059811897455046524648</title>
<g id="a_node31"><a xlink:href="../x11-libs/libva-2.4.0.svg" xlink:title="x11&#45;libs/libva&#45;2.4.0">
<ellipse fill="none" stroke="red" cx="900" cy="-88" rx="144" ry="18"/>
<text text-anchor="middle" x="900" y="-85" font-family="Helvetica,sans-Serif" font-size="10.00">x11&#45;libs/libva&#45;2.4.0</text>
</a>
</g>
</g>
<!-- dependency1760625&#45;&gt;choice12049494510810598115471081059811897455046524648 -->
<g id="edge30" class="edge">
<title>dependency1760625:e&#45;&gt;choice12049494510810598115471081059811897455046524648:w</title>
<path fill="none" stroke="black" stroke-dasharray="1,5" d="M649,-250C731.35,-250 674.36,-101.62 744.73,-88.87"/>
<polygon fill="black" stroke="black" points="755,-88 745.42,-93.33 750.02,-88.42 745.04,-88.85 745.04,-88.85 745.04,-88.85 750.02,-88.42 744.66,-84.36 755,-88 755,-88"/>
</g>
<!-- choice120494945108105981154710810598118974557575757 -->
<g id="node32" class="node">
<title>choice120494945108105981154710810598118974557575757</title>
<g id="a_node32"><a xlink:href="../x11-libs/libva-9999.svg" xlink:title="x11&#45;libs/libva&#45;9999">
<ellipse fill="none" stroke="red" cx="900" cy="-34" rx="144" ry="18"/>
<text text-anchor="middle" x="900" y="-31" font-family="Helvetica,sans-Serif" font-size="10.00">x11&#45;libs/libva&#45;9999</text>
</a>
</g>
</g>
<!-- dependency1760625&#45;&gt;choice120494945108105981154710810598118974557575757 -->
<g id="edge31" class="edge">
<title>dependency1760625:e&#45;&gt;choice120494945108105981154710810598118974557575757:w</title>
<path fill="none" stroke="black" stroke-dasharray="1,5" d="M649,-250C752.28,-250 655.19,-48.51 744.77,-34.74"/>
<polygon fill="black" stroke="black" points="755,-34 745.35,-39.21 750.01,-34.36 745.03,-34.72 745.03,-34.72 745.03,-34.72 750.01,-34.36 744.7,-30.23 755,-34 755,-34"/>
</g>
</g>
</svg>
