<?xml version="1.0" encoding="UTF-8" standalone="no"?>
<!DOCTYPE svg PUBLIC "-//W3C//DTD SVG 1.1//EN"
 "http://www.w3.org/Graphics/SVG/1.1/DTD/svg11.dtd">
<!-- Generated by graphviz version 2.41.20171026.1811 (20171026.1811)
 -->
<!-- Title: prolog Pages: 1 -->
<svg width="1068pt" height="500pt"
 viewBox="0.00 0.00 1068.00 500.00" xmlns="http://www.w3.org/2000/svg" xmlns:xlink="http://www.w3.org/1999/xlink">
<g id="graph0" class="graph" transform="scale(1 1) rotate(0) translate(4 496)">
<title>prolog</title>
<polygon fill="white" stroke="transparent" points="-4,4 -4,-496 1064,-496 1064,4 -4,4"/>
<g id="clust1" class="cluster">
<title>cluster_leftcol</title>
<polygon fill="none" stroke="gray" points="8,-193 8,-265 312,-265 312,-193 8,-193"/>
<text text-anchor="start" x="146.66" y="-253" font-family="Helvetica,sans-Serif" font-style="italic" font-size="10.00">ebuild</text>
</g>
<g id="clust2" class="cluster">
<title>cluster_midcol</title>
<polygon fill="none" stroke="gray" points="396,-8 396,-484 664,-484 664,-8 396,-8"/>
<text text-anchor="start" x="498.88" y="-472" font-family="Helvetica,sans-Serif" font-style="italic" font-size="10.00">dependencies</text>
</g>
<g id="clust3" class="cluster">
<title>cluster_compile</title>
<polygon fill="#eeeeee" stroke="gray" points="404,-314 404,-456 656,-456 656,-314 404,-314"/>
<text text-anchor="start" x="512.78" y="-444" font-family="Helvetica,sans-Serif" font-style="italic" font-size="10.00">compile</text>
</g>
<g id="clust5" class="cluster">
<title>cluster_compileandrun</title>
<polygon fill="#eeeeee" stroke="gray" points="404,-16 404,-306 656,-306 656,-16 404,-16"/>
<text text-anchor="start" x="494.44" y="-294" font-family="Helvetica,sans-Serif" font-style="italic" font-size="10.00">compile and run</text>
</g>
<g id="clust9" class="cluster">
<title>cluster_choices</title>
<polygon fill="none" stroke="gray" points="748,-109 748,-451 1052,-451 1052,-109 748,-109"/>
<text text-anchor="start" x="875.82" y="-439" font-family="Helvetica,sans-Serif" font-style="italic" font-size="10.00">candidates</text>
</g>
<!-- id -->
<g id="node1" class="node">
<title>id</title>
<g id="a_node1"><a xlink:href="../x11-libs/libXxf86dga-1.1.5.svg" xlink:title="portage://x11&#45;libs/libXxf86dga&#45;1.1.5">
<ellipse fill="none" stroke="red" cx="160" cy="-219" rx="144" ry="18"/>
<text text-anchor="middle" x="160" y="-216" font-family="Helvetica,sans-Serif" font-size="10.00">portage://x11&#45;libs/libXxf86dga&#45;1.1.5</text>
</a>
</g>
</g>
<!-- dependency450053 -->
<g id="node2" class="node">
<title>dependency450053</title>
<polygon fill="none" stroke="blue" points="420,-326 420,-424 525,-424 525,-326 420,-326"/>
<text text-anchor="start" x="450.82" y="-372" font-family="Helvetica,sans-Serif" font-size="10.00">pack_dep</text>
<polygon fill="none" stroke="blue" points="525,-402 525,-424 635,-424 635,-402 525,-402"/>
<text text-anchor="start" x="574.44" y="-410" font-family="Helvetica,sans-Serif" font-size="10.00">no</text>
<polygon fill="none" stroke="blue" points="525,-380 525,-402 635,-402 635,-380 525,-380"/>
<text text-anchor="start" x="559.44" y="-388" font-family="Helvetica,sans-Serif" font-size="10.00">x11&#45;base</text>
<polygon fill="none" stroke="blue" points="525,-358 525,-380 635,-380 635,-358 525,-358"/>
<text text-anchor="start" x="557.22" y="-366" font-family="Helvetica,sans-Serif" font-size="10.00">xorg&#45;proto</text>
<polygon fill="none" stroke="blue" points="525,-336 525,-358 635,-358 635,-336 525,-336"/>
<text text-anchor="start" x="568.88" y="-344" font-family="Helvetica,sans-Serif" font-size="10.00">none</text>
<polygon fill="none" stroke="blue" points="525,-326 525,-336 635,-336 635,-326 525,-326"/>
</g>
<!-- id&#45;&gt;dependency450053 -->
<g id="edge1" class="edge">
<title>id:e&#45;&gt;dependency450053:w</title>
<path fill="none" stroke="black" d="M305,-219C385.22,-219 332.2,-361.88 400.98,-374.16"/>
<polygon fill="black" stroke="black" points="411,-375 400.66,-378.65 406.02,-374.58 401.03,-374.17 401.03,-374.17 401.03,-374.17 406.02,-374.58 401.41,-369.68 411,-375 411,-375"/>
</g>
<!-- dependency450054 -->
<g id="node3" class="node">
<title>dependency450054</title>
<polygon fill="none" stroke="blue" points="420,-164 420,-274 525,-274 525,-164 420,-164"/>
<text text-anchor="start" x="450.82" y="-216" font-family="Helvetica,sans-Serif" font-size="10.00">pack_dep</text>
<polygon fill="none" stroke="blue" points="525,-252 525,-274 635,-274 635,-252 525,-252"/>
<text text-anchor="start" x="574.44" y="-260" font-family="Helvetica,sans-Serif" font-size="10.00">no</text>
<polygon fill="none" stroke="blue" points="525,-230 525,-252 635,-252 635,-230 525,-230"/>
<text text-anchor="start" x="562.78" y="-238" font-family="Helvetica,sans-Serif" font-size="10.00">x11&#45;libs</text>
<polygon fill="none" stroke="blue" points="525,-208 525,-230 635,-230 635,-208 525,-208"/>
<text text-anchor="start" x="566.11" y="-216" font-family="Helvetica,sans-Serif" font-size="10.00">libX11</text>
<polygon fill="none" stroke="blue" points="525,-186 525,-208 635,-208 635,-186 525,-186"/>
<text text-anchor="start" x="551.94" y="-194" font-family="Helvetica,sans-Serif" font-size="10.00">greaterequal</text>
<polygon fill="none" stroke="blue" points="525,-164 525,-186 635,-186 635,-164 525,-164"/>
<text text-anchor="start" x="568.88" y="-172" font-family="Helvetica,sans-Serif" font-size="10.00">1.6.2</text>
</g>
<!-- id&#45;&gt;dependency450054 -->
<g id="edge2" class="edge">
<title>id:e&#45;&gt;dependency450054:w</title>
<path fill="none" stroke="black" d="M305,-219C345.3,-219 359.75,-219 392.57,-219"/>
<ellipse fill="none" stroke="black" cx="407" cy="-219" rx="4" ry="4"/>
<polygon fill="black" stroke="black" points="403,-219 393,-223.5 398,-219 393,-219 393,-219 393,-219 398,-219 393,-214.5 403,-219 403,-219"/>
</g>
<!-- dependency450055 -->
<g id="node4" class="node">
<title>dependency450055</title>
<polygon fill="none" stroke="blue" points="420,-28 420,-138 525,-138 525,-28 420,-28"/>
<text text-anchor="start" x="450.82" y="-80" font-family="Helvetica,sans-Serif" font-size="10.00">pack_dep</text>
<polygon fill="none" stroke="blue" points="525,-116 525,-138 635,-138 635,-116 525,-116"/>
<text text-anchor="start" x="574.44" y="-124" font-family="Helvetica,sans-Serif" font-size="10.00">no</text>
<polygon fill="none" stroke="blue" points="525,-94 525,-116 635,-116 635,-94 525,-94"/>
<text text-anchor="start" x="562.78" y="-102" font-family="Helvetica,sans-Serif" font-size="10.00">x11&#45;libs</text>
<polygon fill="none" stroke="blue" points="525,-72 525,-94 635,-94 635,-72 525,-72"/>
<text text-anchor="start" x="565" y="-80" font-family="Helvetica,sans-Serif" font-size="10.00">libXext</text>
<polygon fill="none" stroke="blue" points="525,-50 525,-72 635,-72 635,-50 525,-50"/>
<text text-anchor="start" x="551.94" y="-58" font-family="Helvetica,sans-Serif" font-size="10.00">greaterequal</text>
<polygon fill="none" stroke="blue" points="525,-28 525,-50 635,-50 635,-28 525,-28"/>
<text text-anchor="start" x="568.88" y="-36" font-family="Helvetica,sans-Serif" font-size="10.00">1.3.2</text>
</g>
<!-- id&#45;&gt;dependency450055 -->
<g id="edge3" class="edge">
<title>id:e&#45;&gt;dependency450055:w</title>
<path fill="none" stroke="black" d="M305,-219C374.75,-219 341.86,-106.34 393.17,-86.1"/>
<ellipse fill="none" stroke="black" cx="407.06" cy="-83.68" rx="4" ry="4"/>
<polygon fill="black" stroke="black" points="403.12,-84.37 394.03,-90.51 398.19,-85.22 393.27,-86.08 393.27,-86.08 393.27,-86.08 398.19,-85.22 392.5,-81.65 403.12,-84.37 403.12,-84.37"/>
</g>
<!-- choiceportage1204949459897115101471201111141034511211411111611145504849574649 -->
<g id="node5" class="node">
<title>choiceportage1204949459897115101471201111141034511211411111611145504849574649</title>
<g id="a_node5"><a xlink:href="../x11-base/xorg-proto-2019.1.svg" xlink:title="portage://x11&#45;base/xorg&#45;proto&#45;2019.1">
<ellipse fill="none" stroke="red" cx="900" cy="-405" rx="144" ry="18"/>
<text text-anchor="middle" x="900" y="-402" font-family="Helvetica,sans-Serif" font-size="10.00">portage://x11&#45;base/xorg&#45;proto&#45;2019.1</text>
</a>
</g>
</g>
<!-- dependency450053&#45;&gt;choiceportage1204949459897115101471201111141034511211411111611145504849574649 -->
<g id="edge4" class="edge">
<title>dependency450053:e&#45;&gt;choiceportage1204949459897115101471201111141034511211411111611145504849574649:w</title>
<path fill="none" stroke="black" stroke-dasharray="1,5" d="M649,-375C694.42,-375 704.66,-400.82 744.99,-404.55"/>
<polygon fill="black" stroke="black" points="755,-405 744.81,-409.05 750,-404.78 745.01,-404.55 745.01,-404.55 745.01,-404.55 750,-404.78 745.21,-400.06 755,-405 755,-405"/>
</g>
<!-- choiceportage1204949459897115101471201111141034511211411111611145504849574650 -->
<g id="node6" class="node">
<title>choiceportage1204949459897115101471201111141034511211411111611145504849574650</title>
<g id="a_node6"><a xlink:href="../x11-base/xorg-proto-2019.2.svg" xlink:title="portage://x11&#45;base/xorg&#45;proto&#45;2019.2">
<ellipse fill="none" stroke="red" cx="900" cy="-351" rx="144" ry="18"/>
<text text-anchor="middle" x="900" y="-348" font-family="Helvetica,sans-Serif" font-size="10.00">portage://x11&#45;base/xorg&#45;proto&#45;2019.2</text>
</a>
</g>
</g>
<!-- dependency450053&#45;&gt;choiceportage1204949459897115101471201111141034511211411111611145504849574650 -->
<g id="edge5" class="edge">
<title>dependency450053:e&#45;&gt;choiceportage1204949459897115101471201111141034511211411111611145504849574650:w</title>
<path fill="none" stroke="black" stroke-dasharray="1,5" d="M649,-375C693.72,-375 705.09,-354.43 744.86,-351.38"/>
<polygon fill="black" stroke="black" points="755,-351 745.17,-355.87 750,-351.19 745.01,-351.37 745.01,-351.37 745.01,-351.37 750,-351.19 744.84,-346.87 755,-351 755,-351"/>
</g>
<!-- choiceportage120494945989711510147120111114103451121141111161114557575757 -->
<g id="node7" class="node">
<title>choiceportage120494945989711510147120111114103451121141111161114557575757</title>
<g id="a_node7"><a xlink:href="../x11-base/xorg-proto-9999.svg" xlink:title="portage://x11&#45;base/xorg&#45;proto&#45;9999">
<ellipse fill="none" stroke="red" cx="900" cy="-297" rx="144" ry="18"/>
<text text-anchor="middle" x="900" y="-294" font-family="Helvetica,sans-Serif" font-size="10.00">portage://x11&#45;base/xorg&#45;proto&#45;9999</text>
</a>
</g>
</g>
<!-- dependency450053&#45;&gt;choiceportage120494945989711510147120111114103451121141111161114557575757 -->
<g id="edge6" class="edge">
<title>dependency450053:e&#45;&gt;choiceportage120494945989711510147120111114103451121141111161114557575757:w</title>
<path fill="none" stroke="black" stroke-dasharray="1,5" d="M649,-375C703.84,-375 697.61,-306.45 744.81,-297.88"/>
<polygon fill="black" stroke="black" points="755,-297 745.42,-302.34 750.02,-297.43 745.04,-297.86 745.04,-297.86 745.04,-297.86 750.02,-297.43 744.65,-293.37 755,-297 755,-297"/>
</g>
<!-- choiceportage120494945108105981154710810598884949454946544656 -->
<g id="node8" class="node">
<title>choiceportage120494945108105981154710810598884949454946544656</title>
<g id="a_node8"><a xlink:href="../x11-libs/libX11-1.6.8.svg" xlink:title="portage://x11&#45;libs/libX11&#45;1.6.8">
<ellipse fill="none" stroke="red" cx="900" cy="-243" rx="144" ry="18"/>
<text text-anchor="middle" x="900" y="-240" font-family="Helvetica,sans-Serif" font-size="10.00">portage://x11&#45;libs/libX11&#45;1.6.8</text>
</a>
</g>
</g>
<!-- dependency450054&#45;&gt;choiceportage120494945108105981154710810598884949454946544656 -->
<g id="edge7" class="edge">
<title>dependency450054:e&#45;&gt;choiceportage120494945108105981154710810598884949454946544656:w</title>
<path fill="none" stroke="black" stroke-dasharray="1,5" d="M649,-219C693.72,-219 705.09,-239.57 744.86,-242.62"/>
<polygon fill="black" stroke="black" points="755,-243 744.84,-247.13 750,-242.81 745.01,-242.63 745.01,-242.63 745.01,-242.63 750,-242.81 745.17,-238.13 755,-243 755,-243"/>
</g>
<!-- choiceportage120494945108105981154710810598884949454946544657 -->
<g id="node9" class="node">
<title>choiceportage120494945108105981154710810598884949454946544657</title>
<g id="a_node9"><a xlink:href="../x11-libs/libX11-1.6.9.svg" xlink:title="portage://x11&#45;libs/libX11&#45;1.6.9">
<ellipse fill="none" stroke="red" cx="900" cy="-189" rx="144" ry="18"/>
<text text-anchor="middle" x="900" y="-186" font-family="Helvetica,sans-Serif" font-size="10.00">portage://x11&#45;libs/libX11&#45;1.6.9</text>
</a>
</g>
</g>
<!-- dependency450054&#45;&gt;choiceportage120494945108105981154710810598884949454946544657 -->
<g id="edge8" class="edge">
<title>dependency450054:e&#45;&gt;choiceportage120494945108105981154710810598884949454946544657:w</title>
<path fill="none" stroke="black" stroke-dasharray="1,5" d="M649,-219C694.42,-219 704.66,-193.18 744.99,-189.45"/>
<polygon fill="black" stroke="black" points="755,-189 745.21,-193.94 750,-189.22 745.01,-189.45 745.01,-189.45 745.01,-189.45 750,-189.22 744.81,-184.95 755,-189 755,-189"/>
</g>
<!-- choiceportage12049494510810598115471081059888101120116454946514652 -->
<g id="node10" class="node">
<title>choiceportage12049494510810598115471081059888101120116454946514652</title>
<g id="a_node10"><a xlink:href="../x11-libs/libXext-1.3.4.svg" xlink:title="portage://x11&#45;libs/libXext&#45;1.3.4">
<ellipse fill="none" stroke="red" cx="900" cy="-135" rx="144" ry="18"/>
<text text-anchor="middle" x="900" y="-132" font-family="Helvetica,sans-Serif" font-size="10.00">portage://x11&#45;libs/libXext&#45;1.3.4</text>
</a>
</g>
</g>
<!-- dependency450055&#45;&gt;choiceportage12049494510810598115471081059888101120116454946514652 -->
<g id="edge9" class="edge">
<title>dependency450055:e&#45;&gt;choiceportage12049494510810598115471081059888101120116454946514652:w</title>
<path fill="none" stroke="black" stroke-dasharray="1,5" d="M649,-83C697.89,-83 702.14,-128.13 744.93,-134.3"/>
<polygon fill="black" stroke="black" points="755,-135 744.71,-138.8 750.01,-134.66 745.02,-134.31 745.02,-134.31 745.02,-134.31 750.01,-134.66 745.33,-129.82 755,-135 755,-135"/>
</g>
</g>
</svg>
