<?xml version="1.0" encoding="UTF-8" standalone="no"?>
<!DOCTYPE svg PUBLIC "-//W3C//DTD SVG 1.1//EN"
 "http://www.w3.org/Graphics/SVG/1.1/DTD/svg11.dtd">
<!-- Generated by graphviz version 2.41.20171026.1811 (20171026.1811)
 -->
<!-- Title: prolog Pages: 1 -->
<svg width="1068pt" height="1454pt"
 viewBox="0.00 0.00 1068.00 1454.00" xmlns="http://www.w3.org/2000/svg" xmlns:xlink="http://www.w3.org/1999/xlink">
<g id="graph0" class="graph" transform="scale(1 1) rotate(0) translate(4 1450)">
<title>prolog</title>
<polygon fill="white" stroke="transparent" points="-4,4 -4,-1450 1064,-1450 1064,4 -4,4"/>
<g id="clust1" class="cluster">
<title>cluster_leftcol</title>
<polygon fill="none" stroke="gray" points="8,-683 8,-755 312,-755 312,-683 8,-683"/>
<text text-anchor="start" x="146.66" y="-743" font-family="Helvetica,sans-Serif" font-style="italic" font-size="10.00">ebuild</text>
</g>
<g id="clust2" class="cluster">
<title>cluster_midcol</title>
<polygon fill="none" stroke="gray" points="396,-8 396,-1438 664,-1438 664,-8 396,-8"/>
<text text-anchor="start" x="498.88" y="-1426" font-family="Helvetica,sans-Serif" font-style="italic" font-size="10.00">dependencies</text>
</g>
<g id="clust4" class="cluster">
<title>cluster_compileandrun</title>
<polygon fill="#eeeeee" stroke="gray" points="404,-16 404,-1410 656,-1410 656,-16 404,-16"/>
<text text-anchor="start" x="494.44" y="-1398" font-family="Helvetica,sans-Serif" font-style="italic" font-size="10.00">compile and run</text>
</g>
<g id="clust17" class="cluster">
<title>cluster_choices</title>
<polygon fill="none" stroke="gray" points="748,-57 748,-1305 1052,-1305 1052,-57 748,-57"/>
<text text-anchor="start" x="875.82" y="-1293" font-family="Helvetica,sans-Serif" font-style="italic" font-size="10.00">candidates</text>
</g>
<!-- id -->
<g id="node1" class="node">
<title>id</title>
<g id="a_node1"><a xlink:href="../x11-libs/neXtaw-0.15.1-r1.svg" xlink:title="x11&#45;libs/neXtaw&#45;0.15.1&#45;r1">
<ellipse fill="none" stroke="red" cx="160" cy="-709" rx="144" ry="18"/>
<text text-anchor="middle" x="160" y="-706" font-family="Helvetica,sans-Serif" font-size="10.00">x11&#45;libs/neXtaw&#45;0.15.1&#45;r1</text>
</a>
</g>
</g>
<!-- dependency9222 -->
<g id="node2" class="node">
<title>dependency9222</title>
<polygon fill="none" stroke="blue" points="420,-1280 420,-1378 525,-1378 525,-1280 420,-1280"/>
<text text-anchor="start" x="450.82" y="-1326" font-family="Helvetica,sans-Serif" font-size="10.00">pack_dep</text>
<polygon fill="none" stroke="blue" points="525,-1356 525,-1378 635,-1378 635,-1356 525,-1356"/>
<text text-anchor="start" x="574.44" y="-1364" font-family="Helvetica,sans-Serif" font-size="10.00">no</text>
<polygon fill="none" stroke="blue" points="525,-1334 525,-1356 635,-1356 635,-1334 525,-1334"/>
<text text-anchor="start" x="562.78" y="-1342" font-family="Helvetica,sans-Serif" font-size="10.00">x11&#45;libs</text>
<polygon fill="none" stroke="blue" points="525,-1312 525,-1334 635,-1334 635,-1312 525,-1312"/>
<text text-anchor="start" x="566.67" y="-1320" font-family="Helvetica,sans-Serif" font-size="10.00">libICE</text>
<polygon fill="none" stroke="blue" points="525,-1290 525,-1312 635,-1312 635,-1290 525,-1290"/>
<text text-anchor="start" x="568.88" y="-1298" font-family="Helvetica,sans-Serif" font-size="10.00">none</text>
<polygon fill="none" stroke="blue" points="525,-1280 525,-1290 635,-1290 635,-1280 525,-1280"/>
</g>
<!-- id&#45;&gt;dependency9222 -->
<g id="edge1" class="edge">
<title>id:e&#45;&gt;dependency9222:w</title>
<path fill="none" stroke="black" d="M305,-709C438.22,-709 286.81,-1272.24 393.34,-1325.04"/>
<ellipse fill="none" stroke="black" cx="407.1" cy="-1328.12" rx="4" ry="4"/>
<polygon fill="black" stroke="black" points="403.19,-1327.25 392.45,-1329.45 398.32,-1326.16 393.44,-1325.06 393.44,-1325.06 393.44,-1325.06 398.32,-1326.16 394.42,-1320.67 403.19,-1327.25 403.19,-1327.25"/>
</g>
<!-- dependency9223 -->
<g id="node3" class="node">
<title>dependency9223</title>
<polygon fill="none" stroke="blue" points="420,-1156 420,-1254 525,-1254 525,-1156 420,-1156"/>
<text text-anchor="start" x="450.82" y="-1202" font-family="Helvetica,sans-Serif" font-size="10.00">pack_dep</text>
<polygon fill="none" stroke="blue" points="525,-1232 525,-1254 635,-1254 635,-1232 525,-1232"/>
<text text-anchor="start" x="574.44" y="-1240" font-family="Helvetica,sans-Serif" font-size="10.00">no</text>
<polygon fill="none" stroke="blue" points="525,-1210 525,-1232 635,-1232 635,-1210 525,-1210"/>
<text text-anchor="start" x="562.78" y="-1218" font-family="Helvetica,sans-Serif" font-size="10.00">x11&#45;libs</text>
<polygon fill="none" stroke="blue" points="525,-1188 525,-1210 635,-1210 635,-1188 525,-1188"/>
<text text-anchor="start" x="567.5" y="-1196" font-family="Helvetica,sans-Serif" font-size="10.00">libSM</text>
<polygon fill="none" stroke="blue" points="525,-1166 525,-1188 635,-1188 635,-1166 525,-1166"/>
<text text-anchor="start" x="568.88" y="-1174" font-family="Helvetica,sans-Serif" font-size="10.00">none</text>
<polygon fill="none" stroke="blue" points="525,-1156 525,-1166 635,-1166 635,-1156 525,-1156"/>
</g>
<!-- id&#45;&gt;dependency9223 -->
<g id="edge2" class="edge">
<title>id:e&#45;&gt;dependency9223:w</title>
<path fill="none" stroke="black" d="M305,-709C523.93,-709 204.97,-1176.83 392.91,-1203.79"/>
<ellipse fill="none" stroke="black" cx="407.01" cy="-1204.73" rx="4" ry="4"/>
<polygon fill="black" stroke="black" points="403.02,-1204.47 392.74,-1208.29 398.03,-1204.13 393.04,-1203.8 393.04,-1203.8 393.04,-1203.8 398.03,-1204.13 393.34,-1199.31 403.02,-1204.47 403.02,-1204.47"/>
</g>
<!-- dependency9224 -->
<g id="node4" class="node">
<title>dependency9224</title>
<polygon fill="none" stroke="blue" points="420,-1032 420,-1130 525,-1130 525,-1032 420,-1032"/>
<text text-anchor="start" x="450.82" y="-1078" font-family="Helvetica,sans-Serif" font-size="10.00">pack_dep</text>
<polygon fill="none" stroke="blue" points="525,-1108 525,-1130 635,-1130 635,-1108 525,-1108"/>
<text text-anchor="start" x="574.44" y="-1116" font-family="Helvetica,sans-Serif" font-size="10.00">no</text>
<polygon fill="none" stroke="blue" points="525,-1086 525,-1108 635,-1108 635,-1086 525,-1086"/>
<text text-anchor="start" x="562.78" y="-1094" font-family="Helvetica,sans-Serif" font-size="10.00">x11&#45;libs</text>
<polygon fill="none" stroke="blue" points="525,-1064 525,-1086 635,-1086 635,-1064 525,-1064"/>
<text text-anchor="start" x="566.11" y="-1072" font-family="Helvetica,sans-Serif" font-size="10.00">libX11</text>
<polygon fill="none" stroke="blue" points="525,-1042 525,-1064 635,-1064 635,-1042 525,-1042"/>
<text text-anchor="start" x="568.88" y="-1050" font-family="Helvetica,sans-Serif" font-size="10.00">none</text>
<polygon fill="none" stroke="blue" points="525,-1032 525,-1042 635,-1042 635,-1032 525,-1032"/>
</g>
<!-- id&#45;&gt;dependency9224 -->
<g id="edge3" class="edge">
<title>id:e&#45;&gt;dependency9224:w</title>
<path fill="none" stroke="black" d="M305,-709C470.2,-709 257.04,-1052.51 392.68,-1079.34"/>
<ellipse fill="none" stroke="black" cx="407.02" cy="-1080.64" rx="4" ry="4"/>
<polygon fill="black" stroke="black" points="403.03,-1080.28 392.67,-1083.86 398.05,-1079.83 393.07,-1079.38 393.07,-1079.38 393.07,-1079.38 398.05,-1079.83 393.48,-1074.9 403.03,-1080.28 403.03,-1080.28"/>
</g>
<!-- dependency9225 -->
<g id="node5" class="node">
<title>dependency9225</title>
<polygon fill="none" stroke="blue" points="420,-908 420,-1006 525,-1006 525,-908 420,-908"/>
<text text-anchor="start" x="450.82" y="-954" font-family="Helvetica,sans-Serif" font-size="10.00">pack_dep</text>
<polygon fill="none" stroke="blue" points="525,-984 525,-1006 635,-1006 635,-984 525,-984"/>
<text text-anchor="start" x="574.44" y="-992" font-family="Helvetica,sans-Serif" font-size="10.00">no</text>
<polygon fill="none" stroke="blue" points="525,-962 525,-984 635,-984 635,-962 525,-962"/>
<text text-anchor="start" x="562.78" y="-970" font-family="Helvetica,sans-Serif" font-size="10.00">x11&#45;libs</text>
<polygon fill="none" stroke="blue" points="525,-940 525,-962 635,-962 635,-940 525,-940"/>
<text text-anchor="start" x="565" y="-948" font-family="Helvetica,sans-Serif" font-size="10.00">libXext</text>
<polygon fill="none" stroke="blue" points="525,-918 525,-940 635,-940 635,-918 525,-918"/>
<text text-anchor="start" x="568.88" y="-926" font-family="Helvetica,sans-Serif" font-size="10.00">none</text>
<polygon fill="none" stroke="blue" points="525,-908 525,-918 635,-918 635,-908 525,-908"/>
</g>
<!-- id&#45;&gt;dependency9225 -->
<g id="edge4" class="edge">
<title>id:e&#45;&gt;dependency9225:w</title>
<path fill="none" stroke="black" d="M305,-709C418.08,-709 305.47,-929.7 392.98,-954.7"/>
<ellipse fill="none" stroke="black" cx="407.03" cy="-956.49" rx="4" ry="4"/>
<polygon fill="black" stroke="black" points="403.06,-955.99 392.58,-959.19 398.1,-955.36 393.14,-954.72 393.14,-954.72 393.14,-954.72 398.1,-955.36 393.71,-950.26 403.06,-955.99 403.06,-955.99"/>
</g>
<!-- dependency9226 -->
<g id="node6" class="node">
<title>dependency9226</title>
<polygon fill="none" stroke="blue" points="420,-784 420,-882 525,-882 525,-784 420,-784"/>
<text text-anchor="start" x="450.82" y="-830" font-family="Helvetica,sans-Serif" font-size="10.00">pack_dep</text>
<polygon fill="none" stroke="blue" points="525,-860 525,-882 635,-882 635,-860 525,-860"/>
<text text-anchor="start" x="574.44" y="-868" font-family="Helvetica,sans-Serif" font-size="10.00">no</text>
<polygon fill="none" stroke="blue" points="525,-838 525,-860 635,-860 635,-838 525,-838"/>
<text text-anchor="start" x="562.78" y="-846" font-family="Helvetica,sans-Serif" font-size="10.00">x11&#45;libs</text>
<polygon fill="none" stroke="blue" points="525,-816 525,-838 635,-838 635,-816 525,-816"/>
<text text-anchor="start" x="564.72" y="-824" font-family="Helvetica,sans-Serif" font-size="10.00">libXmu</text>
<polygon fill="none" stroke="blue" points="525,-794 525,-816 635,-816 635,-794 525,-794"/>
<text text-anchor="start" x="568.88" y="-802" font-family="Helvetica,sans-Serif" font-size="10.00">none</text>
<polygon fill="none" stroke="blue" points="525,-784 525,-794 635,-794 635,-784 525,-784"/>
</g>
<!-- id&#45;&gt;dependency9226 -->
<g id="edge5" class="edge">
<title>id:e&#45;&gt;dependency9226:w</title>
<path fill="none" stroke="black" d="M305,-709C370.56,-709 344.94,-810.4 393.05,-829.81"/>
<ellipse fill="none" stroke="black" cx="407.06" cy="-832.3" rx="4" ry="4"/>
<polygon fill="black" stroke="black" points="403.12,-831.6 392.49,-834.28 398.2,-830.73 393.28,-829.85 393.28,-829.85 393.28,-829.85 398.2,-830.73 394.07,-825.42 403.12,-831.6 403.12,-831.6"/>
</g>
<!-- dependency9227 -->
<g id="node7" class="node">
<title>dependency9227</title>
<polygon fill="none" stroke="blue" points="420,-660 420,-758 525,-758 525,-660 420,-660"/>
<text text-anchor="start" x="450.82" y="-706" font-family="Helvetica,sans-Serif" font-size="10.00">pack_dep</text>
<polygon fill="none" stroke="blue" points="525,-736 525,-758 635,-758 635,-736 525,-736"/>
<text text-anchor="start" x="574.44" y="-744" font-family="Helvetica,sans-Serif" font-size="10.00">no</text>
<polygon fill="none" stroke="blue" points="525,-714 525,-736 635,-736 635,-714 525,-714"/>
<text text-anchor="start" x="562.78" y="-722" font-family="Helvetica,sans-Serif" font-size="10.00">x11&#45;libs</text>
<polygon fill="none" stroke="blue" points="525,-692 525,-714 635,-714 635,-692 525,-692"/>
<text text-anchor="start" x="564.72" y="-700" font-family="Helvetica,sans-Serif" font-size="10.00">libXpm</text>
<polygon fill="none" stroke="blue" points="525,-670 525,-692 635,-692 635,-670 525,-670"/>
<text text-anchor="start" x="568.88" y="-678" font-family="Helvetica,sans-Serif" font-size="10.00">none</text>
<polygon fill="none" stroke="blue" points="525,-660 525,-670 635,-670 635,-660 525,-660"/>
</g>
<!-- id&#45;&gt;dependency9227 -->
<g id="edge6" class="edge">
<title>id:e&#45;&gt;dependency9227:w</title>
<path fill="none" stroke="black" d="M305,-709C345.3,-709 359.75,-709 392.57,-709"/>
<ellipse fill="none" stroke="black" cx="407" cy="-709" rx="4" ry="4"/>
<polygon fill="black" stroke="black" points="403,-709 393,-713.5 398,-709 393,-709 393,-709 393,-709 398,-709 393,-704.5 403,-709 403,-709"/>
</g>
<!-- dependency9228 -->
<g id="node8" class="node">
<title>dependency9228</title>
<polygon fill="none" stroke="blue" points="420,-536 420,-634 525,-634 525,-536 420,-536"/>
<text text-anchor="start" x="450.82" y="-582" font-family="Helvetica,sans-Serif" font-size="10.00">pack_dep</text>
<polygon fill="none" stroke="blue" points="525,-612 525,-634 635,-634 635,-612 525,-612"/>
<text text-anchor="start" x="574.44" y="-620" font-family="Helvetica,sans-Serif" font-size="10.00">no</text>
<polygon fill="none" stroke="blue" points="525,-590 525,-612 635,-612 635,-590 525,-590"/>
<text text-anchor="start" x="562.78" y="-598" font-family="Helvetica,sans-Serif" font-size="10.00">x11&#45;libs</text>
<polygon fill="none" stroke="blue" points="525,-568 525,-590 635,-590 635,-568 525,-568"/>
<text text-anchor="start" x="570.28" y="-576" font-family="Helvetica,sans-Serif" font-size="10.00">libXt</text>
<polygon fill="none" stroke="blue" points="525,-546 525,-568 635,-568 635,-546 525,-546"/>
<text text-anchor="start" x="568.88" y="-554" font-family="Helvetica,sans-Serif" font-size="10.00">none</text>
<polygon fill="none" stroke="blue" points="525,-536 525,-546 635,-546 635,-536 525,-536"/>
</g>
<!-- id&#45;&gt;dependency9228 -->
<g id="edge7" class="edge">
<title>id:e&#45;&gt;dependency9228:w</title>
<path fill="none" stroke="black" d="M305,-709C370.56,-709 344.94,-607.6 393.05,-588.19"/>
<ellipse fill="none" stroke="black" cx="407.06" cy="-585.7" rx="4" ry="4"/>
<polygon fill="black" stroke="black" points="403.12,-586.4 394.07,-592.58 398.2,-587.27 393.28,-588.15 393.28,-588.15 393.28,-588.15 398.2,-587.27 392.49,-583.72 403.12,-586.4 403.12,-586.4"/>
</g>
<!-- dependency9229 -->
<g id="node9" class="node">
<title>dependency9229</title>
<polygon fill="none" stroke="blue" points="420,-412 420,-510 525,-510 525,-412 420,-412"/>
<text text-anchor="start" x="450.82" y="-458" font-family="Helvetica,sans-Serif" font-size="10.00">pack_dep</text>
<polygon fill="none" stroke="blue" points="525,-488 525,-510 635,-510 635,-488 525,-488"/>
<text text-anchor="start" x="574.44" y="-496" font-family="Helvetica,sans-Serif" font-size="10.00">no</text>
<polygon fill="none" stroke="blue" points="525,-466 525,-488 635,-488 635,-466 525,-466"/>
<text text-anchor="start" x="562.78" y="-474" font-family="Helvetica,sans-Serif" font-size="10.00">x11&#45;libs</text>
<polygon fill="none" stroke="blue" points="525,-444 525,-466 635,-466 635,-444 525,-444"/>
<text text-anchor="start" x="560.83" y="-452" font-family="Helvetica,sans-Serif" font-size="10.00">libxkbfile</text>
<polygon fill="none" stroke="blue" points="525,-422 525,-444 635,-444 635,-422 525,-422"/>
<text text-anchor="start" x="568.88" y="-430" font-family="Helvetica,sans-Serif" font-size="10.00">none</text>
<polygon fill="none" stroke="blue" points="525,-412 525,-422 635,-422 635,-412 525,-412"/>
</g>
<!-- id&#45;&gt;dependency9229 -->
<g id="edge8" class="edge">
<title>id:e&#45;&gt;dependency9229:w</title>
<path fill="none" stroke="black" d="M305,-709C418.08,-709 305.47,-488.3 392.98,-463.3"/>
<ellipse fill="none" stroke="black" cx="407.03" cy="-461.51" rx="4" ry="4"/>
<polygon fill="black" stroke="black" points="403.06,-462.01 393.71,-467.74 398.1,-462.64 393.14,-463.28 393.14,-463.28 393.14,-463.28 398.1,-462.64 392.58,-458.81 403.06,-462.01 403.06,-462.01"/>
</g>
<!-- dependency9230 -->
<g id="node10" class="node">
<title>dependency9230</title>
<polygon fill="none" stroke="blue" points="420,-288 420,-386 525,-386 525,-288 420,-288"/>
<text text-anchor="start" x="450.82" y="-334" font-family="Helvetica,sans-Serif" font-size="10.00">pack_dep</text>
<polygon fill="none" stroke="blue" points="525,-364 525,-386 635,-386 635,-364 525,-364"/>
<text text-anchor="start" x="574.44" y="-372" font-family="Helvetica,sans-Serif" font-size="10.00">no</text>
<polygon fill="none" stroke="blue" points="525,-342 525,-364 635,-364 635,-342 525,-342"/>
<text text-anchor="start" x="558.88" y="-350" font-family="Helvetica,sans-Serif" font-size="10.00">x11&#45;proto</text>
<polygon fill="none" stroke="blue" points="525,-320 525,-342 635,-342 635,-320 525,-320"/>
<text text-anchor="start" x="559.44" y="-328" font-family="Helvetica,sans-Serif" font-size="10.00">xextproto</text>
<polygon fill="none" stroke="blue" points="525,-298 525,-320 635,-320 635,-298 525,-298"/>
<text text-anchor="start" x="568.88" y="-306" font-family="Helvetica,sans-Serif" font-size="10.00">none</text>
<polygon fill="none" stroke="blue" points="525,-288 525,-298 635,-298 635,-288 525,-288"/>
</g>
<!-- id&#45;&gt;dependency9230 -->
<g id="edge9" class="edge">
<title>id:e&#45;&gt;dependency9230:w</title>
<path fill="none" stroke="black" d="M305,-709C470.2,-709 257.04,-365.49 392.68,-338.66"/>
<ellipse fill="none" stroke="black" cx="407.02" cy="-337.36" rx="4" ry="4"/>
<polygon fill="black" stroke="black" points="403.03,-337.72 393.48,-343.1 398.05,-338.17 393.07,-338.62 393.07,-338.62 393.07,-338.62 398.05,-338.17 392.67,-334.14 403.03,-337.72 403.03,-337.72"/>
</g>
<!-- dependency9231 -->
<g id="node11" class="node">
<title>dependency9231</title>
<polygon fill="none" stroke="blue" points="420,-164 420,-262 525,-262 525,-164 420,-164"/>
<text text-anchor="start" x="450.82" y="-210" font-family="Helvetica,sans-Serif" font-size="10.00">pack_dep</text>
<polygon fill="none" stroke="blue" points="525,-240 525,-262 635,-262 635,-240 525,-240"/>
<text text-anchor="start" x="574.44" y="-248" font-family="Helvetica,sans-Serif" font-size="10.00">no</text>
<polygon fill="none" stroke="blue" points="525,-218 525,-240 635,-240 635,-218 525,-218"/>
<text text-anchor="start" x="558.88" y="-226" font-family="Helvetica,sans-Serif" font-size="10.00">x11&#45;proto</text>
<polygon fill="none" stroke="blue" points="525,-196 525,-218 635,-218 635,-196 525,-196"/>
<text text-anchor="start" x="566.11" y="-204" font-family="Helvetica,sans-Serif" font-size="10.00">xproto</text>
<polygon fill="none" stroke="blue" points="525,-174 525,-196 635,-196 635,-174 525,-174"/>
<text text-anchor="start" x="568.88" y="-182" font-family="Helvetica,sans-Serif" font-size="10.00">none</text>
<polygon fill="none" stroke="blue" points="525,-164 525,-174 635,-174 635,-164 525,-164"/>
</g>
<!-- id&#45;&gt;dependency9231 -->
<g id="edge10" class="edge">
<title>id:e&#45;&gt;dependency9231:w</title>
<path fill="none" stroke="black" d="M305,-709C523.93,-709 204.97,-241.17 392.91,-214.21"/>
<ellipse fill="none" stroke="black" cx="407.01" cy="-213.27" rx="4" ry="4"/>
<polygon fill="black" stroke="black" points="403.02,-213.53 393.34,-218.69 398.03,-213.87 393.04,-214.2 393.04,-214.2 393.04,-214.2 398.03,-213.87 392.74,-209.71 403.02,-213.53 403.02,-213.53"/>
</g>
<!-- dependency9232 -->
<g id="node12" class="node">
<title>dependency9232</title>
<polygon fill="none" stroke="blue" points="420,-28 420,-138 525,-138 525,-28 420,-28"/>
<text text-anchor="start" x="450.82" y="-80" font-family="Helvetica,sans-Serif" font-size="10.00">pack_dep</text>
<polygon fill="none" stroke="blue" points="525,-116 525,-138 635,-138 635,-116 525,-116"/>
<text text-anchor="start" x="568.33" y="-124" font-family="Helvetica,sans-Serif" font-size="10.00">weak</text>
<polygon fill="none" stroke="blue" points="525,-94 525,-116 635,-116 635,-94 525,-94"/>
<text text-anchor="start" x="562.78" y="-102" font-family="Helvetica,sans-Serif" font-size="10.00">x11&#45;libs</text>
<polygon fill="none" stroke="blue" points="525,-72 525,-94 635,-94 635,-72 525,-72"/>
<text text-anchor="start" x="563.33" y="-80" font-family="Helvetica,sans-Serif" font-size="10.00">neXtaw</text>
<polygon fill="none" stroke="blue" points="525,-50 525,-72 635,-72 635,-50 525,-50"/>
<text text-anchor="start" x="563.89" y="-58" font-family="Helvetica,sans-Serif" font-size="10.00">smaller</text>
<polygon fill="none" stroke="blue" points="525,-28 525,-50 635,-50 635,-28 525,-28"/>
<text text-anchor="start" x="559.99" y="-36" font-family="Helvetica,sans-Serif" font-size="10.00">0.15.1&#45;r1</text>
</g>
<!-- id&#45;&gt;dependency9232 -->
<g id="edge11" class="edge">
<title>id:e&#45;&gt;dependency9232:w</title>
<path fill="none" stroke="black" d="M305,-709C439.48,-709 285.73,-140.31 393.19,-87"/>
<ellipse fill="none" stroke="black" cx="407.1" cy="-83.88" rx="4" ry="4"/>
<polygon fill="black" stroke="black" points="403.19,-84.75 394.42,-91.33 398.32,-85.85 393.44,-86.94 393.44,-86.94 393.44,-86.94 398.32,-85.85 392.45,-82.55 403.19,-84.75 403.19,-84.75"/>
</g>
<!-- choice1204949451081059811547108105987367694549464846574511449 -->
<g id="node13" class="node">
<title>choice1204949451081059811547108105987367694549464846574511449</title>
<g id="a_node13"><a xlink:href="../x11-libs/libICE-1.0.9-r1.svg" xlink:title="x11&#45;libs/libICE&#45;1.0.9&#45;r1">
<ellipse fill="none" stroke="red" cx="900" cy="-1259" rx="144" ry="18"/>
<text text-anchor="middle" x="900" y="-1256" font-family="Helvetica,sans-Serif" font-size="10.00">x11&#45;libs/libICE&#45;1.0.9&#45;r1</text>
</a>
</g>
</g>
<!-- dependency9222&#45;&gt;choice1204949451081059811547108105987367694549464846574511449 -->
<g id="edge12" class="edge">
<title>dependency9222:e&#45;&gt;choice1204949451081059811547108105987367694549464846574511449:w</title>
<path fill="none" stroke="black" stroke-dasharray="1,5" d="M649,-1329C701.82,-1329 699.17,-1267.73 744.84,-1259.83"/>
<polygon fill="black" stroke="black" points="755,-1259 745.4,-1264.3 750.02,-1259.41 745.03,-1259.82 745.03,-1259.82 745.03,-1259.82 750.02,-1259.41 744.67,-1255.33 755,-1259 755,-1259"/>
</g>
<!-- choice12049494510810598115471081059883774549465046504511449 -->
<g id="node14" class="node">
<title>choice12049494510810598115471081059883774549465046504511449</title>
<g id="a_node14"><a xlink:href="../x11-libs/libSM-1.2.2-r1.svg" xlink:title="x11&#45;libs/libSM&#45;1.2.2&#45;r1">
<ellipse fill="none" stroke="red" cx="900" cy="-1205" rx="144" ry="18"/>
<text text-anchor="middle" x="900" y="-1202" font-family="Helvetica,sans-Serif" font-size="10.00">x11&#45;libs/libSM&#45;1.2.2&#45;r1</text>
</a>
</g>
</g>
<!-- dependency9223&#45;&gt;choice12049494510810598115471081059883774549465046504511449 -->
<g id="edge13" class="edge">
<title>dependency9223:e&#45;&gt;choice12049494510810598115471081059883774549465046504511449:w</title>
<path fill="none" stroke="black" stroke-dasharray="1,5" d="M649,-1205C692.43,-1205 705.83,-1205 744.57,-1205"/>
<polygon fill="black" stroke="black" points="755,-1205 745,-1209.5 750,-1205 745,-1205 745,-1205 745,-1205 750,-1205 745,-1200.5 755,-1205 755,-1205"/>
</g>
<!-- choice120494945108105981154710810598884949454946544653 -->
<g id="node15" class="node">
<title>choice120494945108105981154710810598884949454946544653</title>
<g id="a_node15"><a xlink:href="../x11-libs/libX11-1.6.5.svg" xlink:title="x11&#45;libs/libX11&#45;1.6.5">
<ellipse fill="none" stroke="red" cx="900" cy="-1081" rx="144" ry="18"/>
<text text-anchor="middle" x="900" y="-1078" font-family="Helvetica,sans-Serif" font-size="10.00">x11&#45;libs/libX11&#45;1.6.5</text>
</a>
</g>
</g>
<!-- dependency9224&#45;&gt;choice120494945108105981154710810598884949454946544653 -->
<g id="edge14" class="edge">
<title>dependency9224:e&#45;&gt;choice120494945108105981154710810598884949454946544653:w</title>
<path fill="none" stroke="black" stroke-dasharray="1,5" d="M649,-1081C692.43,-1081 705.83,-1081 744.57,-1081"/>
<polygon fill="black" stroke="black" points="755,-1081 745,-1085.5 750,-1081 745,-1081 745,-1081 745,-1081 750,-1081 745,-1076.5 755,-1081 755,-1081"/>
</g>
<!-- choice12049494510810598115471081059888101120116454946514651 -->
<g id="node16" class="node">
<title>choice12049494510810598115471081059888101120116454946514651</title>
<g id="a_node16"><a xlink:href="../x11-libs/libXext-1.3.3.svg" xlink:title="x11&#45;libs/libXext&#45;1.3.3">
<ellipse fill="none" stroke="red" cx="900" cy="-957" rx="144" ry="18"/>
<text text-anchor="middle" x="900" y="-954" font-family="Helvetica,sans-Serif" font-size="10.00">x11&#45;libs/libXext&#45;1.3.3</text>
</a>
</g>
</g>
<!-- dependency9225&#45;&gt;choice12049494510810598115471081059888101120116454946514651 -->
<g id="edge15" class="edge">
<title>dependency9225:e&#45;&gt;choice12049494510810598115471081059888101120116454946514651:w</title>
<path fill="none" stroke="black" stroke-dasharray="1,5" d="M649,-957C692.43,-957 705.83,-957 744.57,-957"/>
<polygon fill="black" stroke="black" points="755,-957 745,-961.5 750,-957 745,-957 745,-957 745,-957 750,-957 745,-952.5 755,-957 755,-957"/>
</g>
<!-- choice12049494510810598115471081059888109117454946494650 -->
<g id="node17" class="node">
<title>choice12049494510810598115471081059888109117454946494650</title>
<g id="a_node17"><a xlink:href="../x11-libs/libXmu-1.1.2.svg" xlink:title="x11&#45;libs/libXmu&#45;1.1.2">
<ellipse fill="none" stroke="red" cx="900" cy="-833" rx="144" ry="18"/>
<text text-anchor="middle" x="900" y="-830" font-family="Helvetica,sans-Serif" font-size="10.00">x11&#45;libs/libXmu&#45;1.1.2</text>
</a>
</g>
</g>
<!-- dependency9226&#45;&gt;choice12049494510810598115471081059888109117454946494650 -->
<g id="edge16" class="edge">
<title>dependency9226:e&#45;&gt;choice12049494510810598115471081059888109117454946494650:w</title>
<path fill="none" stroke="black" stroke-dasharray="1,5" d="M649,-833C692.43,-833 705.83,-833 744.57,-833"/>
<polygon fill="black" stroke="black" points="755,-833 745,-837.5 750,-833 745,-833 745,-833 745,-833 750,-833 745,-828.5 755,-833 755,-833"/>
</g>
<!-- choice1204949451081059811547108105988811210945514653464950 -->
<g id="node18" class="node">
<title>choice1204949451081059811547108105988811210945514653464950</title>
<g id="a_node18"><a xlink:href="../x11-libs/libXpm-3.5.12.svg" xlink:title="x11&#45;libs/libXpm&#45;3.5.12">
<ellipse fill="none" stroke="red" cx="900" cy="-709" rx="144" ry="18"/>
<text text-anchor="middle" x="900" y="-706" font-family="Helvetica,sans-Serif" font-size="10.00">x11&#45;libs/libXpm&#45;3.5.12</text>
</a>
</g>
</g>
<!-- dependency9227&#45;&gt;choice1204949451081059811547108105988811210945514653464950 -->
<g id="edge17" class="edge">
<title>dependency9227:e&#45;&gt;choice1204949451081059811547108105988811210945514653464950:w</title>
<path fill="none" stroke="black" stroke-dasharray="1,5" d="M649,-709C692.43,-709 705.83,-709 744.57,-709"/>
<polygon fill="black" stroke="black" points="755,-709 745,-713.5 750,-709 745,-709 745,-709 745,-709 750,-709 745,-704.5 755,-709 755,-709"/>
</g>
<!-- choice12049494510810598115471081059888116454946494653 -->
<g id="node19" class="node">
<title>choice12049494510810598115471081059888116454946494653</title>
<g id="a_node19"><a xlink:href="../x11-libs/libXt-1.1.5.svg" xlink:title="x11&#45;libs/libXt&#45;1.1.5">
<ellipse fill="none" stroke="red" cx="900" cy="-585" rx="144" ry="18"/>
<text text-anchor="middle" x="900" y="-582" font-family="Helvetica,sans-Serif" font-size="10.00">x11&#45;libs/libXt&#45;1.1.5</text>
</a>
</g>
</g>
<!-- dependency9228&#45;&gt;choice12049494510810598115471081059888116454946494653 -->
<g id="edge18" class="edge">
<title>dependency9228:e&#45;&gt;choice12049494510810598115471081059888116454946494653:w</title>
<path fill="none" stroke="black" stroke-dasharray="1,5" d="M649,-585C692.43,-585 705.83,-585 744.57,-585"/>
<polygon fill="black" stroke="black" points="755,-585 745,-589.5 750,-585 745,-585 745,-585 745,-585 750,-585 745,-580.5 755,-585 755,-585"/>
</g>
<!-- choice12049494510810598115471081059812010798102105108101454946484657 -->
<g id="node20" class="node">
<title>choice12049494510810598115471081059812010798102105108101454946484657</title>
<g id="a_node20"><a xlink:href="../x11-libs/libxkbfile-1.0.9.svg" xlink:title="x11&#45;libs/libxkbfile&#45;1.0.9">
<ellipse fill="none" stroke="red" cx="900" cy="-488" rx="144" ry="18"/>
<text text-anchor="middle" x="900" y="-485" font-family="Helvetica,sans-Serif" font-size="10.00">x11&#45;libs/libxkbfile&#45;1.0.9</text>
</a>
</g>
</g>
<!-- dependency9229&#45;&gt;choice12049494510810598115471081059812010798102105108101454946484657 -->
<g id="edge19" class="edge">
<title>dependency9229:e&#45;&gt;choice12049494510810598115471081059812010798102105108101454946484657:w</title>
<path fill="none" stroke="black" stroke-dasharray="1,5" d="M649,-461C694.01,-461 704.86,-484.14 744.8,-487.58"/>
<polygon fill="black" stroke="black" points="755,-488 744.82,-492.08 750,-487.79 745.01,-487.58 745.01,-487.58 745.01,-487.58 750,-487.79 745.2,-483.09 755,-488 755,-488"/>
</g>
<!-- choice120494945108105981154710810598120107981021051081014549464846574511449 -->
<g id="node21" class="node">
<title>choice120494945108105981154710810598120107981021051081014549464846574511449</title>
<g id="a_node21"><a xlink:href="../x11-libs/libxkbfile-1.0.9-r1.svg" xlink:title="x11&#45;libs/libxkbfile&#45;1.0.9&#45;r1">
<ellipse fill="none" stroke="red" cx="900" cy="-434" rx="144" ry="18"/>
<text text-anchor="middle" x="900" y="-431" font-family="Helvetica,sans-Serif" font-size="10.00">x11&#45;libs/libxkbfile&#45;1.0.9&#45;r1</text>
</a>
</g>
</g>
<!-- dependency9229&#45;&gt;choice120494945108105981154710810598120107981021051081014549464846574511449 -->
<g id="edge20" class="edge">
<title>dependency9229:e&#45;&gt;choice120494945108105981154710810598120107981021051081014549464846574511449:w</title>
<path fill="none" stroke="black" stroke-dasharray="1,5" d="M649,-461C694.01,-461 704.86,-437.86 744.8,-434.42"/>
<polygon fill="black" stroke="black" points="755,-434 745.2,-438.91 750,-434.21 745.01,-434.42 745.01,-434.42 745.01,-434.42 750,-434.21 744.82,-429.92 755,-434 755,-434"/>
</g>
<!-- choice120494945112114111116111471201011201161121141111161114555465146484511449 -->
<g id="node22" class="node">
<title>choice120494945112114111116111471201011201161121141111161114555465146484511449</title>
<g id="a_node22"><a xlink:href="../x11-proto/xextproto-7.3.0-r1.svg" xlink:title="x11&#45;proto/xextproto&#45;7.3.0&#45;r1">
<ellipse fill="none" stroke="red" cx="900" cy="-337" rx="144" ry="18"/>
<text text-anchor="middle" x="900" y="-334" font-family="Helvetica,sans-Serif" font-size="10.00">x11&#45;proto/xextproto&#45;7.3.0&#45;r1</text>
</a>
</g>
</g>
<!-- dependency9230&#45;&gt;choice120494945112114111116111471201011201161121141111161114555465146484511449 -->
<g id="edge21" class="edge">
<title>dependency9230:e&#45;&gt;choice120494945112114111116111471201011201161121141111161114555465146484511449:w</title>
<path fill="none" stroke="black" stroke-dasharray="1,5" d="M649,-337C692.43,-337 705.83,-337 744.57,-337"/>
<polygon fill="black" stroke="black" points="755,-337 745,-341.5 750,-337 745,-337 745,-337 745,-337 750,-337 745,-332.5 755,-337 755,-337"/>
</g>
<!-- choice12049494511211411111611147120112114111116111455546484651494511449 -->
<g id="node23" class="node">
<title>choice12049494511211411111611147120112114111116111455546484651494511449</title>
<g id="a_node23"><a xlink:href="../x11-proto/xproto-7.0.31-r1.svg" xlink:title="x11&#45;proto/xproto&#45;7.0.31&#45;r1">
<ellipse fill="none" stroke="red" cx="900" cy="-213" rx="144" ry="18"/>
<text text-anchor="middle" x="900" y="-210" font-family="Helvetica,sans-Serif" font-size="10.00">x11&#45;proto/xproto&#45;7.0.31&#45;r1</text>
</a>
</g>
</g>
<!-- dependency9231&#45;&gt;choice12049494511211411111611147120112114111116111455546484651494511449 -->
<g id="edge22" class="edge">
<title>dependency9231:e&#45;&gt;choice12049494511211411111611147120112114111116111455546484651494511449:w</title>
<path fill="none" stroke="black" stroke-dasharray="1,5" d="M649,-213C692.43,-213 705.83,-213 744.57,-213"/>
<polygon fill="black" stroke="black" points="755,-213 745,-217.5 750,-213 745,-213 745,-213 745,-213 750,-213 745,-208.5 755,-213 755,-213"/>
</g>
<!-- choice12049494510810598115471101018811697119454846495346494511449 -->
<g id="node24" class="node">
<title>choice12049494510810598115471101018811697119454846495346494511449</title>
<g id="a_node24"><a xlink:href="../x11-libs/neXtaw-0.15.1-r1.svg" xlink:title="x11&#45;libs/neXtaw&#45;0.15.1&#45;r1">
<ellipse fill="none" stroke="red" cx="900" cy="-137" rx="144" ry="18"/>
<text text-anchor="middle" x="900" y="-134" font-family="Helvetica,sans-Serif" font-size="10.00">x11&#45;libs/neXtaw&#45;0.15.1&#45;r1</text>
</a>
</g>
</g>
<!-- dependency9232&#45;&gt;choice12049494510810598115471101018811697119454846495346494511449 -->
<g id="edge23" class="edge">
<title>dependency9232:e&#45;&gt;choice12049494510810598115471101018811697119454846495346494511449:w</title>
<path fill="none" stroke="black" stroke-dasharray="1,5" d="M649,-83C698.26,-83 701.85,-129.87 744.86,-136.28"/>
<polygon fill="black" stroke="black" points="755,-137 744.71,-140.78 750.01,-136.64 745.03,-136.29 745.03,-136.29 745.03,-136.29 750.01,-136.64 745.35,-131.8 755,-137 755,-137"/>
</g>
<!-- choice12049494510810598115471101018811697119454846495346494511450 -->
<g id="node25" class="node">
<title>choice12049494510810598115471101018811697119454846495346494511450</title>
<g id="a_node25"><a xlink:href="../x11-libs/neXtaw-0.15.1-r2.svg" xlink:title="x11&#45;libs/neXtaw&#45;0.15.1&#45;r2">
<ellipse fill="none" stroke="red" cx="900" cy="-83" rx="144" ry="18"/>
<text text-anchor="middle" x="900" y="-80" font-family="Helvetica,sans-Serif" font-size="10.00">x11&#45;libs/neXtaw&#45;0.15.1&#45;r2</text>
</a>
</g>
</g>
<!-- dependency9232&#45;&gt;choice12049494510810598115471101018811697119454846495346494511450 -->
<g id="edge24" class="edge">
<title>dependency9232:e&#45;&gt;choice12049494510810598115471101018811697119454846495346494511450:w</title>
<path fill="none" stroke="black" stroke-dasharray="1,5" d="M649,-83C692.43,-83 705.83,-83 744.57,-83"/>
<polygon fill="black" stroke="black" points="755,-83 745,-87.5 750,-83 745,-83 745,-83 745,-83 750,-83 745,-78.5 755,-83 755,-83"/>
</g>
</g>
</svg>
