<?xml version="1.0" encoding="UTF-8" standalone="no"?>
<!DOCTYPE svg PUBLIC "-//W3C//DTD SVG 1.1//EN"
 "http://www.w3.org/Graphics/SVG/1.1/DTD/svg11.dtd">
<!-- Generated by graphviz version 2.44.1 (20200629.0846)
 -->
<!-- Title: prolog Pages: 1 -->
<svg width="1331pt" height="1344pt"
 viewBox="0.00 0.00 1331.00 1344.00" xmlns="http://www.w3.org/2000/svg" xmlns:xlink="http://www.w3.org/1999/xlink">
<g id="graph0" class="graph" transform="scale(1 1) rotate(0) translate(4 1340)">
<title>prolog</title>
<polygon fill="white" stroke="transparent" points="-4,4 -4,-1340 1327,-1340 1327,4 -4,4"/>
<g id="clust1" class="cluster">
<title>cluster_leftcol</title>
<polygon fill="none" stroke="gray" points="8,-574 8,-646 312,-646 312,-574 8,-574"/>
<text text-anchor="start" x="146.66" y="-634" font-family="Helvetica,sans-Serif" font-style="italic" font-size="10.00">ebuild</text>
</g>
<g id="clust2" class="cluster">
<title>cluster_midcol</title>
<polygon fill="none" stroke="gray" points="396,-8 396,-1328 927,-1328 927,-8 396,-8"/>
<text text-anchor="start" x="630.38" y="-1316" font-family="Helvetica,sans-Serif" font-style="italic" font-size="10.00">dependencies</text>
</g>
<g id="clust3" class="cluster">
<title>cluster_compile</title>
<polygon fill="#eeeeee" stroke="gray" points="404,-662 404,-1300 919,-1300 919,-662 404,-662"/>
<text text-anchor="start" x="644.28" y="-1288" font-family="Helvetica,sans-Serif" font-style="italic" font-size="10.00">compile</text>
</g>
<g id="clust11" class="cluster">
<title>cluster_run</title>
<polygon fill="#eeeeee" stroke="gray" points="404,-16 404,-654 919,-654 919,-16 404,-16"/>
<text text-anchor="start" x="654.28" y="-642" font-family="Helvetica,sans-Serif" font-style="italic" font-size="10.00">run</text>
</g>
<g id="clust18" class="cluster">
<title>cluster_choices</title>
<polygon fill="none" stroke="gray" points="1011,-379 1011,-937 1315,-937 1315,-379 1011,-379"/>
<text text-anchor="start" x="1138.82" y="-925" font-family="Helvetica,sans-Serif" font-style="italic" font-size="10.00">candidates</text>
</g>
<!-- id -->
<g id="node1" class="node">
<title>id</title>
<g id="a_node1"><a xlink:href="../x11-libs/qscintilla-2.11.6.svg" xlink:title="portage://x11&#45;libs/qscintilla&#45;2.11.6">
<ellipse fill="none" stroke="red" cx="160" cy="-600" rx="144" ry="18"/>
<text text-anchor="middle" x="160" y="-597" font-family="Helvetica,sans-Serif" font-size="10.00">portage://x11&#45;libs/qscintilla&#45;2.11.6</text>
</a>
</g>
</g>
<!-- dependency938 -->
<g id="node2" class="node">
<title>dependency938</title>
<polygon fill="none" stroke="red" points="420.5,-935 420.5,-979 511.5,-979 511.5,-935 420.5,-935"/>
<text text-anchor="start" x="431.27" y="-954" font-family="Helvetica,sans-Serif" font-size="10.00">use_conditional</text>
<polygon fill="none" stroke="red" points="511.5,-957 511.5,-979 559.5,-979 559.5,-957 511.5,-957"/>
<text text-anchor="start" x="518.55" y="-965" font-family="Helvetica,sans-Serif" font-size="10.00">positive</text>
<polygon fill="none" stroke="red" points="511.5,-935 511.5,-957 559.5,-957 559.5,-935 511.5,-935"/>
<text text-anchor="start" x="516.33" y="-943" font-family="Helvetica,sans-Serif" font-size="10.00">designer</text>
</g>
<!-- id&#45;&gt;dependency938 -->
<g id="edge2" class="edge">
<title>id:e&#45;&gt;dependency938:w</title>
<path fill="none" stroke="black" d="M305,-600C466.9,-600 254.55,-941.82 400.37,-956.51"/>
<polygon fill="black" stroke="black" points="410.5,-957 400.3,-961.01 405.51,-956.76 400.51,-956.52 400.51,-956.52 400.51,-956.52 405.51,-956.76 400.73,-952.02 410.5,-957 410.5,-957"/>
</g>
<!-- dependency940 -->
<g id="node4" class="node">
<title>dependency940</title>
<polygon fill="none" stroke="blue" points="683,-798 683,-896 788,-896 788,-798 683,-798"/>
<text text-anchor="start" x="713.82" y="-844" font-family="Helvetica,sans-Serif" font-size="10.00">pack_dep</text>
<polygon fill="none" stroke="blue" points="788,-874 788,-896 898,-896 898,-874 788,-874"/>
<text text-anchor="start" x="837.44" y="-882" font-family="Helvetica,sans-Serif" font-size="10.00">no</text>
<polygon fill="none" stroke="blue" points="788,-852 788,-874 898,-874 898,-852 788,-852"/>
<text text-anchor="start" x="829.11" y="-860" font-family="Helvetica,sans-Serif" font-size="10.00">dev&#45;qt</text>
<polygon fill="none" stroke="blue" points="788,-830 788,-852 898,-852 898,-830 788,-830"/>
<text text-anchor="start" x="829.11" y="-838" font-family="Helvetica,sans-Serif" font-size="10.00">qtcore</text>
<polygon fill="none" stroke="blue" points="788,-808 788,-830 898,-830 898,-808 788,-808"/>
<text text-anchor="start" x="831.88" y="-816" font-family="Helvetica,sans-Serif" font-size="10.00">none</text>
<polygon fill="none" stroke="blue" points="788,-798 788,-808 898,-808 898,-798 788,-798"/>
</g>
<!-- id&#45;&gt;dependency940 -->
<g id="edge3" class="edge">
<title>id:e&#45;&gt;dependency940:w</title>
<path fill="none" stroke="black" d="M490.5,-546C525.53,-545.45 540.76,-541.79 567,-565 664.87,-651.58 547.31,-836.89 664.92,-846.6"/>
<polygon fill="black" stroke="black" points="675,-847 664.83,-851.1 670,-846.8 665.01,-846.61 665.01,-846.61 665.01,-846.61 670,-846.8 665.18,-842.11 675,-847 675,-847"/>
</g>
<!-- dependency941 -->
<g id="node5" class="node">
<title>dependency941</title>
<polygon fill="none" stroke="blue" points="683,-1046 683,-1144 788,-1144 788,-1046 683,-1046"/>
<text text-anchor="start" x="713.82" y="-1092" font-family="Helvetica,sans-Serif" font-size="10.00">pack_dep</text>
<polygon fill="none" stroke="blue" points="788,-1122 788,-1144 898,-1144 898,-1122 788,-1122"/>
<text text-anchor="start" x="837.44" y="-1130" font-family="Helvetica,sans-Serif" font-size="10.00">no</text>
<polygon fill="none" stroke="blue" points="788,-1100 788,-1122 898,-1122 898,-1100 788,-1100"/>
<text text-anchor="start" x="829.11" y="-1108" font-family="Helvetica,sans-Serif" font-size="10.00">dev&#45;qt</text>
<polygon fill="none" stroke="blue" points="788,-1078 788,-1100 898,-1100 898,-1078 788,-1078"/>
<text text-anchor="start" x="832.16" y="-1086" font-family="Helvetica,sans-Serif" font-size="10.00">qtgui</text>
<polygon fill="none" stroke="blue" points="788,-1056 788,-1078 898,-1078 898,-1056 788,-1056"/>
<text text-anchor="start" x="831.88" y="-1064" font-family="Helvetica,sans-Serif" font-size="10.00">none</text>
<polygon fill="none" stroke="blue" points="788,-1046 788,-1056 898,-1056 898,-1046 788,-1046"/>
</g>
<!-- id&#45;&gt;dependency941 -->
<g id="edge4" class="edge">
<title>id:e&#45;&gt;dependency941:w</title>
<path fill="none" stroke="black" d="M490.5,-546C525.53,-545.45 542.76,-539.71 567,-565 730.91,-736.01 443.26,-1084.6 664.78,-1094.77"/>
<polygon fill="black" stroke="black" points="675,-1095 664.9,-1099.28 670,-1094.89 665,-1094.78 665,-1094.78 665,-1094.78 670,-1094.89 665.1,-1090.28 675,-1095 675,-1095"/>
</g>
<!-- dependency942 -->
<g id="node6" class="node">
<title>dependency942</title>
<polygon fill="none" stroke="blue" points="683,-922 683,-1020 788,-1020 788,-922 683,-922"/>
<text text-anchor="start" x="713.82" y="-968" font-family="Helvetica,sans-Serif" font-size="10.00">pack_dep</text>
<polygon fill="none" stroke="blue" points="788,-998 788,-1020 898,-1020 898,-998 788,-998"/>
<text text-anchor="start" x="837.44" y="-1006" font-family="Helvetica,sans-Serif" font-size="10.00">no</text>
<polygon fill="none" stroke="blue" points="788,-976 788,-998 898,-998 898,-976 788,-976"/>
<text text-anchor="start" x="829.11" y="-984" font-family="Helvetica,sans-Serif" font-size="10.00">dev&#45;qt</text>
<polygon fill="none" stroke="blue" points="788,-954 788,-976 898,-976 898,-954 788,-954"/>
<text text-anchor="start" x="812.44" y="-962" font-family="Helvetica,sans-Serif" font-size="10.00">qtprintsupport</text>
<polygon fill="none" stroke="blue" points="788,-932 788,-954 898,-954 898,-932 788,-932"/>
<text text-anchor="start" x="831.88" y="-940" font-family="Helvetica,sans-Serif" font-size="10.00">none</text>
<polygon fill="none" stroke="blue" points="788,-922 788,-932 898,-932 898,-922 788,-922"/>
</g>
<!-- id&#45;&gt;dependency942 -->
<g id="edge5" class="edge">
<title>id:e&#45;&gt;dependency942:w</title>
<path fill="none" stroke="black" d="M490.5,-546C525.53,-545.45 542.02,-540.43 567,-565 697.58,-693.44 496.22,-960.58 664.76,-970.7"/>
<polygon fill="black" stroke="black" points="675,-971 664.87,-975.21 670,-970.86 665,-970.71 665,-970.71 665,-970.71 670,-970.86 665.13,-966.21 675,-971 675,-971"/>
</g>
<!-- dependency943 -->
<g id="node7" class="node">
<title>dependency943</title>
<polygon fill="none" stroke="blue" points="683,-674 683,-772 788,-772 788,-674 683,-674"/>
<text text-anchor="start" x="713.82" y="-720" font-family="Helvetica,sans-Serif" font-size="10.00">pack_dep</text>
<polygon fill="none" stroke="blue" points="788,-750 788,-772 898,-772 898,-750 788,-750"/>
<text text-anchor="start" x="837.44" y="-758" font-family="Helvetica,sans-Serif" font-size="10.00">no</text>
<polygon fill="none" stroke="blue" points="788,-728 788,-750 898,-750 898,-728 788,-728"/>
<text text-anchor="start" x="829.11" y="-736" font-family="Helvetica,sans-Serif" font-size="10.00">dev&#45;qt</text>
<polygon fill="none" stroke="blue" points="788,-706 788,-728 898,-728 898,-706 788,-706"/>
<text text-anchor="start" x="821.88" y="-714" font-family="Helvetica,sans-Serif" font-size="10.00">qtwidgets</text>
<polygon fill="none" stroke="blue" points="788,-684 788,-706 898,-706 898,-684 788,-684"/>
<text text-anchor="start" x="831.88" y="-692" font-family="Helvetica,sans-Serif" font-size="10.00">none</text>
<polygon fill="none" stroke="blue" points="788,-674 788,-684 898,-684 898,-674 788,-674"/>
</g>
<!-- id&#45;&gt;dependency943 -->
<g id="edge6" class="edge">
<title>id:e&#45;&gt;dependency943:w</title>
<path fill="none" stroke="black" d="M490.5,-546C525.53,-545.45 538.23,-545.01 567,-565 633.85,-611.46 593.76,-713.71 664.75,-722.41"/>
<polygon fill="black" stroke="black" points="675,-723 664.76,-726.92 670.01,-722.71 665.02,-722.42 665.02,-722.42 665.02,-722.42 670.01,-722.71 665.28,-717.93 675,-723 675,-723"/>
</g>
<!-- dependency944 -->
<g id="node8" class="node">
<title>dependency944</title>
<polygon fill="none" stroke="red" points="420.5,-578 420.5,-622 511.5,-622 511.5,-578 420.5,-578"/>
<text text-anchor="start" x="431.27" y="-597" font-family="Helvetica,sans-Serif" font-size="10.00">use_conditional</text>
<polygon fill="none" stroke="red" points="511.5,-600 511.5,-622 559.5,-622 559.5,-600 511.5,-600"/>
<text text-anchor="start" x="518.55" y="-608" font-family="Helvetica,sans-Serif" font-size="10.00">positive</text>
<polygon fill="none" stroke="red" points="511.5,-578 511.5,-600 559.5,-600 559.5,-578 511.5,-578"/>
<text text-anchor="start" x="516.33" y="-586" font-family="Helvetica,sans-Serif" font-size="10.00">designer</text>
</g>
<!-- id&#45;&gt;dependency944 -->
<g id="edge8" class="edge">
<title>id:e&#45;&gt;dependency944:w</title>
<path fill="none" stroke="black" d="M305,-600C349.05,-600 362.06,-600 402.35,-600"/>
<ellipse fill="none" stroke="black" cx="406.5" cy="-600" rx="4" ry="4"/>
</g>
<!-- dependency946 -->
<g id="node10" class="node">
<title>dependency946</title>
<polygon fill="none" stroke="blue" points="683,-152 683,-250 788,-250 788,-152 683,-152"/>
<text text-anchor="start" x="713.82" y="-198" font-family="Helvetica,sans-Serif" font-size="10.00">pack_dep</text>
<polygon fill="none" stroke="blue" points="788,-228 788,-250 898,-250 898,-228 788,-228"/>
<text text-anchor="start" x="837.44" y="-236" font-family="Helvetica,sans-Serif" font-size="10.00">no</text>
<polygon fill="none" stroke="blue" points="788,-206 788,-228 898,-228 898,-206 788,-206"/>
<text text-anchor="start" x="829.11" y="-214" font-family="Helvetica,sans-Serif" font-size="10.00">dev&#45;qt</text>
<polygon fill="none" stroke="blue" points="788,-184 788,-206 898,-206 898,-184 788,-184"/>
<text text-anchor="start" x="829.11" y="-192" font-family="Helvetica,sans-Serif" font-size="10.00">qtcore</text>
<polygon fill="none" stroke="blue" points="788,-162 788,-184 898,-184 898,-162 788,-162"/>
<text text-anchor="start" x="831.88" y="-170" font-family="Helvetica,sans-Serif" font-size="10.00">none</text>
<polygon fill="none" stroke="blue" points="788,-152 788,-162 898,-162 898,-152 788,-152"/>
</g>
<!-- id&#45;&gt;dependency946 -->
<g id="edge9" class="edge">
<title>id:e&#45;&gt;dependency946:w</title>
<path fill="none" stroke="black" d="M490.5,-546C661.47,-543.32 506.44,-212.27 666.62,-201.28"/>
<ellipse fill="none" stroke="black" cx="671" cy="-201.13" rx="4" ry="4"/>
</g>
<!-- dependency947 -->
<g id="node11" class="node">
<title>dependency947</title>
<polygon fill="none" stroke="blue" points="683,-400 683,-498 788,-498 788,-400 683,-400"/>
<text text-anchor="start" x="713.82" y="-446" font-family="Helvetica,sans-Serif" font-size="10.00">pack_dep</text>
<polygon fill="none" stroke="blue" points="788,-476 788,-498 898,-498 898,-476 788,-476"/>
<text text-anchor="start" x="837.44" y="-484" font-family="Helvetica,sans-Serif" font-size="10.00">no</text>
<polygon fill="none" stroke="blue" points="788,-454 788,-476 898,-476 898,-454 788,-454"/>
<text text-anchor="start" x="829.11" y="-462" font-family="Helvetica,sans-Serif" font-size="10.00">dev&#45;qt</text>
<polygon fill="none" stroke="blue" points="788,-432 788,-454 898,-454 898,-432 788,-432"/>
<text text-anchor="start" x="832.16" y="-440" font-family="Helvetica,sans-Serif" font-size="10.00">qtgui</text>
<polygon fill="none" stroke="blue" points="788,-410 788,-432 898,-432 898,-410 788,-410"/>
<text text-anchor="start" x="831.88" y="-418" font-family="Helvetica,sans-Serif" font-size="10.00">none</text>
<polygon fill="none" stroke="blue" points="788,-400 788,-410 898,-410 898,-400 788,-400"/>
</g>
<!-- id&#45;&gt;dependency947 -->
<g id="edge10" class="edge">
<title>id:e&#45;&gt;dependency947:w</title>
<path fill="none" stroke="black" d="M490.5,-546C580.33,-544.59 582.32,-454.7 666.84,-449.26"/>
<ellipse fill="none" stroke="black" cx="671" cy="-449.13" rx="4" ry="4"/>
</g>
<!-- dependency948 -->
<g id="node12" class="node">
<title>dependency948</title>
<polygon fill="none" stroke="blue" points="683,-276 683,-374 788,-374 788,-276 683,-276"/>
<text text-anchor="start" x="713.82" y="-322" font-family="Helvetica,sans-Serif" font-size="10.00">pack_dep</text>
<polygon fill="none" stroke="blue" points="788,-352 788,-374 898,-374 898,-352 788,-352"/>
<text text-anchor="start" x="837.44" y="-360" font-family="Helvetica,sans-Serif" font-size="10.00">no</text>
<polygon fill="none" stroke="blue" points="788,-330 788,-352 898,-352 898,-330 788,-330"/>
<text text-anchor="start" x="829.11" y="-338" font-family="Helvetica,sans-Serif" font-size="10.00">dev&#45;qt</text>
<polygon fill="none" stroke="blue" points="788,-308 788,-330 898,-330 898,-308 788,-308"/>
<text text-anchor="start" x="812.44" y="-316" font-family="Helvetica,sans-Serif" font-size="10.00">qtprintsupport</text>
<polygon fill="none" stroke="blue" points="788,-286 788,-308 898,-308 898,-286 788,-286"/>
<text text-anchor="start" x="831.88" y="-294" font-family="Helvetica,sans-Serif" font-size="10.00">none</text>
<polygon fill="none" stroke="blue" points="788,-276 788,-286 898,-286 898,-276 788,-276"/>
</g>
<!-- id&#45;&gt;dependency948 -->
<g id="edge11" class="edge">
<title>id:e&#45;&gt;dependency948:w</title>
<path fill="none" stroke="black" d="M490.5,-546C615.56,-544.04 550.15,-334.73 666.68,-325.33"/>
<ellipse fill="none" stroke="black" cx="671" cy="-325.16" rx="4" ry="4"/>
</g>
<!-- dependency949 -->
<g id="node13" class="node">
<title>dependency949</title>
<polygon fill="none" stroke="blue" points="683,-28 683,-126 788,-126 788,-28 683,-28"/>
<text text-anchor="start" x="713.82" y="-74" font-family="Helvetica,sans-Serif" font-size="10.00">pack_dep</text>
<polygon fill="none" stroke="blue" points="788,-104 788,-126 898,-126 898,-104 788,-104"/>
<text text-anchor="start" x="837.44" y="-112" font-family="Helvetica,sans-Serif" font-size="10.00">no</text>
<polygon fill="none" stroke="blue" points="788,-82 788,-104 898,-104 898,-82 788,-82"/>
<text text-anchor="start" x="829.11" y="-90" font-family="Helvetica,sans-Serif" font-size="10.00">dev&#45;qt</text>
<polygon fill="none" stroke="blue" points="788,-60 788,-82 898,-82 898,-60 788,-60"/>
<text text-anchor="start" x="821.88" y="-68" font-family="Helvetica,sans-Serif" font-size="10.00">qtwidgets</text>
<polygon fill="none" stroke="blue" points="788,-38 788,-60 898,-60 898,-38 788,-38"/>
<text text-anchor="start" x="831.88" y="-46" font-family="Helvetica,sans-Serif" font-size="10.00">none</text>
<polygon fill="none" stroke="blue" points="788,-28 788,-38 898,-38 898,-28 788,-28"/>
</g>
<!-- id&#45;&gt;dependency949 -->
<g id="edge12" class="edge">
<title>id:e&#45;&gt;dependency949:w</title>
<path fill="none" stroke="black" d="M490.5,-546C711.62,-542.53 457.62,-88.74 666.7,-77.22"/>
<ellipse fill="none" stroke="black" cx="671" cy="-77.11" rx="4" ry="4"/>
<path fill="none" stroke="black" d="M305,-600C348.33,-600 354.41,-577.18 396,-565 436.28,-553.2 446.54,-546.66 488.5,-546"/>
</g>
<!-- dependency939 -->
<g id="node3" class="node">
<title>dependency939</title>
<polygon fill="none" stroke="blue" points="683,-1170 683,-1268 788,-1268 788,-1170 683,-1170"/>
<text text-anchor="start" x="713.82" y="-1216" font-family="Helvetica,sans-Serif" font-size="10.00">pack_dep</text>
<polygon fill="none" stroke="blue" points="788,-1246 788,-1268 898,-1268 898,-1246 788,-1246"/>
<text text-anchor="start" x="837.44" y="-1254" font-family="Helvetica,sans-Serif" font-size="10.00">no</text>
<polygon fill="none" stroke="blue" points="788,-1224 788,-1246 898,-1246 898,-1224 788,-1224"/>
<text text-anchor="start" x="829.11" y="-1232" font-family="Helvetica,sans-Serif" font-size="10.00">dev&#45;qt</text>
<polygon fill="none" stroke="blue" points="788,-1202 788,-1224 898,-1224 898,-1202 788,-1202"/>
<text text-anchor="start" x="823.83" y="-1210" font-family="Helvetica,sans-Serif" font-size="10.00">designer</text>
<polygon fill="none" stroke="blue" points="788,-1180 788,-1202 898,-1202 898,-1180 788,-1180"/>
<text text-anchor="start" x="831.88" y="-1188" font-family="Helvetica,sans-Serif" font-size="10.00">none</text>
<polygon fill="none" stroke="blue" points="788,-1170 788,-1180 898,-1180 898,-1170 788,-1170"/>
</g>
<!-- dependency938&#45;&gt;dependency939 -->
<g id="edge1" class="edge">
<title>dependency938:e&#45;&gt;dependency939:w</title>
<path fill="none" stroke="black" stroke-dasharray="5,2" d="M567,-957C689.38,-957 556.98,-1204.37 664.94,-1218.38"/>
<polygon fill="black" stroke="black" points="675,-1219 664.74,-1222.88 670.01,-1218.69 665.02,-1218.39 665.02,-1218.39 665.02,-1218.39 670.01,-1218.69 665.29,-1213.89 675,-1219 675,-1219"/>
</g>
<!-- choice100101118451131164710010111510510311010111445534649534650 -->
<g id="node14" class="node">
<title>choice100101118451131164710010111510510311010111445534649534650</title>
<g id="a_node14"><a xlink:href="../dev-qt/designer-5.15.2.svg" xlink:title="portage://dev&#45;qt/designer&#45;5.15.2">
<ellipse fill="none" stroke="red" cx="1163" cy="-891" rx="144" ry="18"/>
<text text-anchor="middle" x="1163" y="-888" font-family="Helvetica,sans-Serif" font-size="10.00">portage://dev&#45;qt/designer&#45;5.15.2</text>
</a>
</g>
</g>
<!-- dependency939&#45;&gt;choice100101118451131164710010111510510311010111445534649534650 -->
<g id="edge13" class="edge">
<title>dependency939:e&#45;&gt;choice100101118451131164710010111510510311010111445534649534650:w</title>
<path fill="none" stroke="black" stroke-dasharray="1,5" d="M912,-1219C1061.61,-1219 874,-906.19 1007.8,-891.53"/>
<polygon fill="black" stroke="black" points="1018,-891 1008.25,-896.02 1013.01,-891.26 1008.01,-891.52 1008.01,-891.52 1008.01,-891.52 1013.01,-891.26 1007.78,-887.03 1018,-891 1018,-891"/>
</g>
<!-- choice100101118451131164710010111510510311010111445534649534649 -->
<g id="node15" class="node">
<title>choice100101118451131164710010111510510311010111445534649534649</title>
<g id="a_node15"><a xlink:href="../dev-qt/designer-5.15.1.svg" xlink:title="portage://dev&#45;qt/designer&#45;5.15.1">
<ellipse fill="none" stroke="red" cx="1163" cy="-837" rx="144" ry="18"/>
<text text-anchor="middle" x="1163" y="-834" font-family="Helvetica,sans-Serif" font-size="10.00">portage://dev&#45;qt/designer&#45;5.15.1</text>
</a>
</g>
</g>
<!-- dependency939&#45;&gt;choice100101118451131164710010111510510311010111445534649534649 -->
<g id="edge14" class="edge">
<title>dependency939:e&#45;&gt;choice100101118451131164710010111510510311010111445534649534649:w</title>
<path fill="none" stroke="black" stroke-dasharray="1,5" d="M912,-1219C1084.58,-1219 851.74,-852.51 1007.69,-837.48"/>
<polygon fill="black" stroke="black" points="1018,-837 1008.22,-841.96 1013.01,-837.23 1008.01,-837.46 1008.01,-837.46 1008.01,-837.46 1013.01,-837.23 1007.8,-832.97 1018,-837 1018,-837"/>
</g>
<!-- choice10010111845113116471131169911111410145534649534650 -->
<g id="node16" class="node">
<title>choice10010111845113116471131169911111410145534649534650</title>
<g id="a_node16"><a xlink:href="../dev-qt/qtcore-5.15.2.svg" xlink:title="portage://dev&#45;qt/qtcore&#45;5.15.2">
<ellipse fill="none" stroke="red" cx="1163" cy="-567" rx="144" ry="18"/>
<text text-anchor="middle" x="1163" y="-564" font-family="Helvetica,sans-Serif" font-size="10.00">portage://dev&#45;qt/qtcore&#45;5.15.2</text>
</a>
</g>
</g>
<!-- dependency940&#45;&gt;choice10010111845113116471131169911111410145534649534650 -->
<g id="edge15" class="edge">
<title>dependency940:e&#45;&gt;choice10010111845113116471131169911111410145534649534650:w</title>
<path fill="none" stroke="black" stroke-dasharray="1,5" d="M912,-847C1041.42,-847 893.47,-582.1 1007.73,-567.62"/>
<polygon fill="black" stroke="black" points="1018,-567 1008.29,-572.09 1013.01,-567.3 1008.02,-567.6 1008.02,-567.6 1008.02,-567.6 1013.01,-567.3 1007.75,-563.11 1018,-567 1018,-567"/>
</g>
<!-- choice100101118451131164711311699111114101455346495346494511449 -->
<g id="node17" class="node">
<title>choice100101118451131164711311699111114101455346495346494511449</title>
<g id="a_node17"><a xlink:href="../dev-qt/qtcore-5.15.1-r1.svg" xlink:title="portage://dev&#45;qt/qtcore&#45;5.15.1&#45;r1">
<ellipse fill="none" stroke="red" cx="1163" cy="-513" rx="144" ry="18"/>
<text text-anchor="middle" x="1163" y="-510" font-family="Helvetica,sans-Serif" font-size="10.00">portage://dev&#45;qt/qtcore&#45;5.15.1&#45;r1</text>
</a>
</g>
</g>
<!-- dependency940&#45;&gt;choice100101118451131164711311699111114101455346495346494511449 -->
<g id="edge16" class="edge">
<title>dependency940:e&#45;&gt;choice100101118451131164711311699111114101455346495346494511449:w</title>
<path fill="none" stroke="black" stroke-dasharray="1,5" d="M912,-847C1064.09,-847 871.69,-528.47 1007.64,-513.54"/>
<polygon fill="black" stroke="black" points="1018,-513 1008.25,-518.02 1013.01,-513.26 1008.01,-513.52 1008.01,-513.52 1008.01,-513.52 1013.01,-513.26 1007.78,-509.03 1018,-513 1018,-513"/>
</g>
<!-- choice100101118451131164711311610311710545534649534650 -->
<g id="node18" class="node">
<title>choice100101118451131164711311610311710545534649534650</title>
<g id="a_node18"><a xlink:href="../dev-qt/qtgui-5.15.2.svg" xlink:title="portage://dev&#45;qt/qtgui&#45;5.15.2">
<ellipse fill="none" stroke="red" cx="1163" cy="-783" rx="144" ry="18"/>
<text text-anchor="middle" x="1163" y="-780" font-family="Helvetica,sans-Serif" font-size="10.00">portage://dev&#45;qt/qtgui&#45;5.15.2</text>
</a>
</g>
</g>
<!-- dependency941&#45;&gt;choice100101118451131164711311610311710545534649534650 -->
<g id="edge17" class="edge">
<title>dependency941:e&#45;&gt;choice100101118451131164711311610311710545534649534650:w</title>
<path fill="none" stroke="black" stroke-dasharray="1,5" d="M912,-1095C1054.88,-1095 880.48,-798.05 1007.86,-783.55"/>
<polygon fill="black" stroke="black" points="1018,-783 1008.26,-788.03 1013.01,-783.27 1008.01,-783.54 1008.01,-783.54 1008.01,-783.54 1013.01,-783.27 1007.77,-779.05 1018,-783 1018,-783"/>
</g>
<!-- choice1001011184511311647113116103117105455346495346494511449 -->
<g id="node19" class="node">
<title>choice1001011184511311647113116103117105455346495346494511449</title>
<g id="a_node19"><a xlink:href="../dev-qt/qtgui-5.15.1-r1.svg" xlink:title="portage://dev&#45;qt/qtgui&#45;5.15.1&#45;r1">
<ellipse fill="none" stroke="red" cx="1163" cy="-729" rx="144" ry="18"/>
<text text-anchor="middle" x="1163" y="-726" font-family="Helvetica,sans-Serif" font-size="10.00">portage://dev&#45;qt/qtgui&#45;5.15.1&#45;r1</text>
</a>
</g>
</g>
<!-- dependency941&#45;&gt;choice1001011184511311647113116103117105455346495346494511449 -->
<g id="edge18" class="edge">
<title>dependency941:e&#45;&gt;choice1001011184511311647113116103117105455346495346494511449:w</title>
<path fill="none" stroke="black" stroke-dasharray="1,5" d="M912,-1095C1077.71,-1095 858.46,-744.56 1007.63,-729.5"/>
<polygon fill="black" stroke="black" points="1018,-729 1008.23,-733.98 1013.01,-729.24 1008.01,-729.48 1008.01,-729.48 1008.01,-729.48 1013.01,-729.24 1007.79,-724.99 1018,-729 1018,-729"/>
</g>
<!-- choice100101118451131164711311611211410511011611511711211211111411645534649534650 -->
<g id="node20" class="node">
<title>choice100101118451131164711311611211410511011611511711211211111411645534649534650</title>
<g id="a_node20"><a xlink:href="../dev-qt/qtprintsupport-5.15.2.svg" xlink:title="portage://dev&#45;qt/qtprintsupport&#45;5.15.2">
<ellipse fill="none" stroke="red" cx="1163" cy="-675" rx="144" ry="18"/>
<text text-anchor="middle" x="1163" y="-672" font-family="Helvetica,sans-Serif" font-size="10.00">portage://dev&#45;qt/qtprintsupport&#45;5.15.2</text>
</a>
</g>
</g>
<!-- dependency942&#45;&gt;choice100101118451131164711311611211410511011611511711211211111411645534649534650 -->
<g id="edge19" class="edge">
<title>dependency942:e&#45;&gt;choice100101118451131164711311611211410511011611511711211211111411645534649534650:w</title>
<path fill="none" stroke="black" stroke-dasharray="1,5" d="M912,-971C1048.19,-971 886.87,-689.84 1007.95,-675.56"/>
<polygon fill="black" stroke="black" points="1018,-675 1008.27,-680.05 1013.01,-675.28 1008.02,-675.56 1008.02,-675.56 1008.02,-675.56 1013.01,-675.28 1007.76,-671.07 1018,-675 1018,-675"/>
</g>
<!-- choice100101118451131164711311611211410511011611511711211211111411645534649534649 -->
<g id="node21" class="node">
<title>choice100101118451131164711311611211410511011611511711211211111411645534649534649</title>
<g id="a_node21"><a xlink:href="../dev-qt/qtprintsupport-5.15.1.svg" xlink:title="portage://dev&#45;qt/qtprintsupport&#45;5.15.1">
<ellipse fill="none" stroke="red" cx="1163" cy="-621" rx="144" ry="18"/>
<text text-anchor="middle" x="1163" y="-618" font-family="Helvetica,sans-Serif" font-size="10.00">portage://dev&#45;qt/qtprintsupport&#45;5.15.1</text>
</a>
</g>
</g>
<!-- dependency942&#45;&gt;choice100101118451131164711311611211410511011611511711211211111411645534649534649 -->
<g id="edge20" class="edge">
<title>dependency942:e&#45;&gt;choice100101118451131164711311611211410511011611511711211211111411645534649534649:w</title>
<path fill="none" stroke="black" stroke-dasharray="1,5" d="M912,-971C1070.88,-971 865.12,-636.55 1007.62,-621.52"/>
<polygon fill="black" stroke="black" points="1018,-621 1008.24,-626 1013.01,-621.25 1008.01,-621.5 1008.01,-621.5 1008.01,-621.5 1013.01,-621.25 1007.79,-617.01 1018,-621 1018,-621"/>
</g>
<!-- choice100101118451131164711311611910510010310111611545534649534650 -->
<g id="node22" class="node">
<title>choice100101118451131164711311611910510010310111611545534649534650</title>
<g id="a_node22"><a xlink:href="../dev-qt/qtwidgets-5.15.2.svg" xlink:title="portage://dev&#45;qt/qtwidgets&#45;5.15.2">
<ellipse fill="none" stroke="red" cx="1163" cy="-459" rx="144" ry="18"/>
<text text-anchor="middle" x="1163" y="-456" font-family="Helvetica,sans-Serif" font-size="10.00">portage://dev&#45;qt/qtwidgets&#45;5.15.2</text>
</a>
</g>
</g>
<!-- dependency943&#45;&gt;choice100101118451131164711311611910510010310111611545534649534650 -->
<g id="edge21" class="edge">
<title>dependency943:e&#45;&gt;choice100101118451131164711311611910510010310111611545534649534650:w</title>
<path fill="none" stroke="black" stroke-dasharray="1,5" d="M912,-723C1034.86,-723 899.66,-473.74 1007.9,-459.62"/>
<polygon fill="black" stroke="black" points="1018,-459 1008.3,-464.11 1013.01,-459.31 1008.02,-459.62 1008.02,-459.62 1008.02,-459.62 1013.01,-459.31 1007.74,-455.12 1018,-459 1018,-459"/>
</g>
<!-- choice100101118451131164711311611910510010310111611545534649534649 -->
<g id="node23" class="node">
<title>choice100101118451131164711311611910510010310111611545534649534649</title>
<g id="a_node23"><a xlink:href="../dev-qt/qtwidgets-5.15.1.svg" xlink:title="portage://dev&#45;qt/qtwidgets&#45;5.15.1">
<ellipse fill="none" stroke="red" cx="1163" cy="-405" rx="144" ry="18"/>
<text text-anchor="middle" x="1163" y="-402" font-family="Helvetica,sans-Serif" font-size="10.00">portage://dev&#45;qt/qtwidgets&#45;5.15.1</text>
</a>
</g>
</g>
<!-- dependency943&#45;&gt;choice100101118451131164711311611910510010310111611545534649534649 -->
<g id="edge22" class="edge">
<title>dependency943:e&#45;&gt;choice100101118451131164711311611910510010310111611545534649534649:w</title>
<path fill="none" stroke="black" stroke-dasharray="1,5" d="M912,-723C1057.34,-723 878.19,-420.34 1007.69,-405.56"/>
<polygon fill="black" stroke="black" points="1018,-405 1008.26,-410.04 1013.01,-405.27 1008.01,-405.54 1008.01,-405.54 1008.01,-405.54 1013.01,-405.27 1007.77,-401.05 1018,-405 1018,-405"/>
</g>
<!-- dependency945 -->
<g id="node9" class="node">
<title>dependency945</title>
<polygon fill="none" stroke="blue" points="683,-524 683,-622 788,-622 788,-524 683,-524"/>
<text text-anchor="start" x="713.82" y="-570" font-family="Helvetica,sans-Serif" font-size="10.00">pack_dep</text>
<polygon fill="none" stroke="blue" points="788,-600 788,-622 898,-622 898,-600 788,-600"/>
<text text-anchor="start" x="837.44" y="-608" font-family="Helvetica,sans-Serif" font-size="10.00">no</text>
<polygon fill="none" stroke="blue" points="788,-578 788,-600 898,-600 898,-578 788,-578"/>
<text text-anchor="start" x="829.11" y="-586" font-family="Helvetica,sans-Serif" font-size="10.00">dev&#45;qt</text>
<polygon fill="none" stroke="blue" points="788,-556 788,-578 898,-578 898,-556 788,-556"/>
<text text-anchor="start" x="823.83" y="-564" font-family="Helvetica,sans-Serif" font-size="10.00">designer</text>
<polygon fill="none" stroke="blue" points="788,-534 788,-556 898,-556 898,-534 788,-534"/>
<text text-anchor="start" x="831.88" y="-542" font-family="Helvetica,sans-Serif" font-size="10.00">none</text>
<polygon fill="none" stroke="blue" points="788,-524 788,-534 898,-534 898,-524 788,-524"/>
</g>
<!-- dependency944&#45;&gt;dependency945 -->
<g id="edge7" class="edge">
<title>dependency944:e&#45;&gt;dependency945:w</title>
<path fill="none" stroke="black" stroke-dasharray="5,2" d="M567,-600C612.9,-600 624,-576.76 664.88,-573.4"/>
<polygon fill="black" stroke="black" points="675,-573 665.19,-577.89 670,-573.2 665.01,-573.4 665.01,-573.4 665.01,-573.4 670,-573.2 664.83,-568.9 675,-573 675,-573"/>
</g>
<!-- dependency945&#45;&gt;choice100101118451131164710010111510510311010111445534649534650 -->
<g id="edge23" class="edge">
<title>dependency945:e&#45;&gt;choice100101118451131164710010111510510311010111445534649534650:w</title>
<path fill="none" stroke="black" stroke-dasharray="1,5" d="M912,-573C1057.34,-573 878.19,-875.66 1007.69,-890.44"/>
<polygon fill="black" stroke="black" points="1018,-891 1007.77,-894.95 1013.01,-890.73 1008.01,-890.46 1008.01,-890.46 1008.01,-890.46 1013.01,-890.73 1008.26,-885.96 1018,-891 1018,-891"/>
</g>
<!-- dependency945&#45;&gt;choice100101118451131164710010111510510311010111445534649534649 -->
<g id="edge24" class="edge">
<title>dependency945:e&#45;&gt;choice100101118451131164710010111510510311010111445534649534649:w</title>
<path fill="none" stroke="black" stroke-dasharray="1,5" d="M912,-573C1034.86,-573 899.66,-822.26 1007.9,-836.38"/>
<polygon fill="black" stroke="black" points="1018,-837 1007.74,-840.88 1013.01,-836.69 1008.02,-836.38 1008.02,-836.38 1008.02,-836.38 1013.01,-836.69 1008.3,-831.89 1018,-837 1018,-837"/>
</g>
<!-- dependency946&#45;&gt;choice10010111845113116471131169911111410145534649534650 -->
<g id="edge25" class="edge">
<title>dependency946:e&#45;&gt;choice10010111845113116471131169911111410145534649534650:w</title>
<path fill="none" stroke="black" stroke-dasharray="1,5" d="M912,-201C1077.71,-201 858.46,-551.44 1007.63,-566.5"/>
<polygon fill="black" stroke="black" points="1018,-567 1007.79,-571.01 1013.01,-566.76 1008.01,-566.52 1008.01,-566.52 1008.01,-566.52 1013.01,-566.76 1008.23,-562.02 1018,-567 1018,-567"/>
</g>
<!-- dependency946&#45;&gt;choice100101118451131164711311699111114101455346495346494511449 -->
<g id="edge26" class="edge">
<title>dependency946:e&#45;&gt;choice100101118451131164711311699111114101455346495346494511449:w</title>
<path fill="none" stroke="black" stroke-dasharray="1,5" d="M912,-201C1054.88,-201 880.48,-497.95 1007.86,-512.45"/>
<polygon fill="black" stroke="black" points="1018,-513 1007.77,-516.95 1013.01,-512.73 1008.01,-512.46 1008.01,-512.46 1008.01,-512.46 1013.01,-512.73 1008.26,-507.97 1018,-513 1018,-513"/>
</g>
<!-- dependency947&#45;&gt;choice100101118451131164711311610311710545534649534650 -->
<g id="edge27" class="edge">
<title>dependency947:e&#45;&gt;choice100101118451131164711311610311710545534649534650:w</title>
<path fill="none" stroke="black" stroke-dasharray="1,5" d="M912,-449C1064.09,-449 871.69,-767.53 1007.64,-782.46"/>
<polygon fill="black" stroke="black" points="1018,-783 1007.78,-786.97 1013.01,-782.74 1008.01,-782.48 1008.01,-782.48 1008.01,-782.48 1013.01,-782.74 1008.25,-777.98 1018,-783 1018,-783"/>
</g>
<!-- dependency947&#45;&gt;choice1001011184511311647113116103117105455346495346494511449 -->
<g id="edge28" class="edge">
<title>dependency947:e&#45;&gt;choice1001011184511311647113116103117105455346495346494511449:w</title>
<path fill="none" stroke="black" stroke-dasharray="1,5" d="M912,-449C1041.42,-449 893.47,-713.9 1007.73,-728.38"/>
<polygon fill="black" stroke="black" points="1018,-729 1007.75,-732.89 1013.01,-728.7 1008.02,-728.4 1008.02,-728.4 1008.02,-728.4 1013.01,-728.7 1008.29,-723.91 1018,-729 1018,-729"/>
</g>
<!-- dependency948&#45;&gt;choice100101118451131164711311611211410511011611511711211211111411645534649534650 -->
<g id="edge29" class="edge">
<title>dependency948:e&#45;&gt;choice100101118451131164711311611211410511011611511711211211111411645534649534650:w</title>
<path fill="none" stroke="black" stroke-dasharray="1,5" d="M912,-325C1070.88,-325 865.12,-659.45 1007.62,-674.48"/>
<polygon fill="black" stroke="black" points="1018,-675 1007.79,-678.99 1013.01,-674.75 1008.01,-674.5 1008.01,-674.5 1008.01,-674.5 1013.01,-674.75 1008.24,-670 1018,-675 1018,-675"/>
</g>
<!-- dependency948&#45;&gt;choice100101118451131164711311611211410511011611511711211211111411645534649534649 -->
<g id="edge30" class="edge">
<title>dependency948:e&#45;&gt;choice100101118451131164711311611211410511011611511711211211111411645534649534649:w</title>
<path fill="none" stroke="black" stroke-dasharray="1,5" d="M912,-325C1048.19,-325 886.87,-606.16 1007.95,-620.44"/>
<polygon fill="black" stroke="black" points="1018,-621 1007.76,-624.93 1013.01,-620.72 1008.02,-620.44 1008.02,-620.44 1008.02,-620.44 1013.01,-620.72 1008.27,-615.95 1018,-621 1018,-621"/>
</g>
<!-- dependency949&#45;&gt;choice100101118451131164711311611910510010310111611545534649534650 -->
<g id="edge31" class="edge">
<title>dependency949:e&#45;&gt;choice100101118451131164711311611910510010310111611545534649534650:w</title>
<path fill="none" stroke="black" stroke-dasharray="1,5" d="M912,-77C1084.58,-77 851.74,-443.49 1007.69,-458.52"/>
<polygon fill="black" stroke="black" points="1018,-459 1007.8,-463.03 1013.01,-458.77 1008.01,-458.54 1008.01,-458.54 1008.01,-458.54 1013.01,-458.77 1008.22,-454.04 1018,-459 1018,-459"/>
</g>
<!-- dependency949&#45;&gt;choice100101118451131164711311611910510010310111611545534649534649 -->
<g id="edge32" class="edge">
<title>dependency949:e&#45;&gt;choice100101118451131164711311611910510010310111611545534649534649:w</title>
<path fill="none" stroke="black" stroke-dasharray="1,5" d="M912,-77C1061.61,-77 874,-389.81 1007.8,-404.47"/>
<polygon fill="black" stroke="black" points="1018,-405 1007.78,-408.97 1013.01,-404.74 1008.01,-404.48 1008.01,-404.48 1008.01,-404.48 1013.01,-404.74 1008.25,-399.98 1018,-405 1018,-405"/>
</g>
</g>
</svg>
