<?xml version="1.0" encoding="UTF-8" standalone="no"?>
<!DOCTYPE svg PUBLIC "-//W3C//DTD SVG 1.1//EN"
 "http://www.w3.org/Graphics/SVG/1.1/DTD/svg11.dtd">
<!-- Generated by graphviz version 2.41.20171026.1811 (20171026.1811)
 -->
<!-- Title: prolog Pages: 1 -->
<svg width="1326pt" height="306pt"
 viewBox="0.00 0.00 1326.00 306.00" xmlns="http://www.w3.org/2000/svg" xmlns:xlink="http://www.w3.org/1999/xlink">
<g id="graph0" class="graph" transform="scale(1 1) rotate(0) translate(4 302)">
<title>prolog</title>
<polygon fill="white" stroke="transparent" points="-4,4 -4,-302 1322,-302 1322,4 -4,4"/>
<g id="clust1" class="cluster">
<title>cluster_leftcol</title>
<polygon fill="none" stroke="gray" points="8,-104 8,-174 312,-174 312,-104 8,-104"/>
<text text-anchor="start" x="146.66" y="-163" font-family="Helvetica,sans-Serif" font-style="italic" font-size="10.00">ebuild</text>
</g>
<g id="clust2" class="cluster">
<title>cluster_midcol</title>
<polygon fill="none" stroke="gray" points="396,-8 396,-290 922,-290 922,-8 396,-8"/>
<text text-anchor="start" x="627.86" y="-279" font-family="Helvetica,sans-Serif" font-style="italic" font-size="10.00">dependencies</text>
</g>
<g id="clust4" class="cluster">
<title>cluster_compileandrun</title>
<polygon fill="#eeeeee" stroke="gray" points="404,-16 404,-264 914,-264 914,-16 404,-16"/>
<text text-anchor="start" x="623.42" y="-253" font-family="Helvetica,sans-Serif" font-style="italic" font-size="10.00">compile and run</text>
</g>
<g id="clust10" class="cluster">
<title>cluster_choices</title>
<polygon fill="none" stroke="gray" points="1006,-78 1006,-202 1310,-202 1310,-78 1006,-78"/>
<text text-anchor="start" x="1133.82" y="-191" font-family="Helvetica,sans-Serif" font-style="italic" font-size="10.00">candidates</text>
</g>
<!-- id -->
<g id="node1" class="node">
<title>id</title>
<g id="a_node1"><a xlink:href="../x11-libs/qwtpolar-1.1.1-r1.svg" xlink:title="x11&#45;libs/qwtpolar&#45;1.1.1&#45;r1">
<ellipse fill="none" stroke="red" cx="160" cy="-130" rx="144" ry="18"/>
<text text-anchor="middle" x="160" y="-127" font-family="Helvetica,sans-Serif" font-size="10.00">x11&#45;libs/qwtpolar&#45;1.1.1&#45;r1</text>
</a>
</g>
</g>
<!-- dependency520489 -->
<g id="node2" class="node">
<title>dependency520489</title>
<polygon fill="none" stroke="red" points="420,-156 420,-196 511,-196 511,-156 420,-156"/>
<text text-anchor="start" x="430.75" y="-173" font-family="Helvetica,sans-Serif" font-size="10.00">use_conditional</text>
<polygon fill="none" stroke="red" points="511,-176 511,-196 554,-196 554,-176 511,-176"/>
<text text-anchor="start" x="515.55" y="-183" font-family="Helvetica,sans-Serif" font-size="10.00">positive</text>
<polygon fill="none" stroke="red" points="511,-156 511,-176 554,-176 554,-156 511,-156"/>
<text text-anchor="start" x="525.55" y="-163" font-family="Helvetica,sans-Serif" font-size="10.00">qt4</text>
</g>
<!-- id&#45;&gt;dependency520489 -->
<g id="edge2" class="edge">
<title>id:e&#45;&gt;dependency520489:w</title>
<path fill="none" stroke="black" d="M305,-130C349.54,-130 357.92,-164.59 392.86,-173.78"/>
<ellipse fill="none" stroke="black" cx="407.03" cy="-175.51" rx="4" ry="4"/>
<polygon fill="black" stroke="black" points="403.06,-175.03 392.59,-178.28 398.1,-174.42 393.13,-173.82 393.13,-173.82 393.13,-173.82 398.1,-174.42 393.68,-169.35 403.06,-175.03 403.06,-175.03"/>
</g>
<!-- dependency520491 -->
<g id="node4" class="node">
<title>dependency520491</title>
<polygon fill="none" stroke="red" points="420,-65 420,-105 511,-105 511,-65 420,-65"/>
<text text-anchor="start" x="430.75" y="-82" font-family="Helvetica,sans-Serif" font-size="10.00">use_conditional</text>
<polygon fill="none" stroke="red" points="511,-85 511,-105 554,-105 554,-85 511,-85"/>
<text text-anchor="start" x="515.55" y="-92" font-family="Helvetica,sans-Serif" font-size="10.00">positive</text>
<polygon fill="none" stroke="red" points="511,-65 511,-85 554,-85 554,-65 511,-65"/>
<text text-anchor="start" x="525.55" y="-72" font-family="Helvetica,sans-Serif" font-size="10.00">qt5</text>
</g>
<!-- id&#45;&gt;dependency520491 -->
<g id="edge4" class="edge">
<title>id:e&#45;&gt;dependency520491:w</title>
<path fill="none" stroke="black" d="M305,-130C349.38,-130 358.01,-96.16 392.9,-87.17"/>
<ellipse fill="none" stroke="black" cx="407.03" cy="-85.48" rx="4" ry="4"/>
<polygon fill="black" stroke="black" points="403.06,-85.95 393.66,-91.61 398.09,-86.55 393.13,-87.14 393.13,-87.14 393.13,-87.14 398.09,-86.55 392.59,-82.68 403.06,-85.95 403.06,-85.95"/>
</g>
<!-- dependency520490 -->
<g id="node3" class="node">
<title>dependency520490</title>
<polygon fill="none" stroke="blue" points="678,-144 678,-234 783,-234 783,-144 678,-144"/>
<text text-anchor="start" x="708.82" y="-186" font-family="Helvetica,sans-Serif" font-size="10.00">pack_dep</text>
<polygon fill="none" stroke="blue" points="783,-214 783,-234 893,-234 893,-214 783,-214"/>
<text text-anchor="start" x="832.44" y="-221" font-family="Helvetica,sans-Serif" font-size="10.00">no</text>
<polygon fill="none" stroke="blue" points="783,-194 783,-214 893,-214 893,-194 783,-194"/>
<text text-anchor="start" x="821.14" y="-201" font-family="Helvetica,sans-Serif" font-size="10.00">x11&#45;libs</text>
<polygon fill="none" stroke="blue" points="783,-174 783,-194 893,-194 893,-174 783,-174"/>
<text text-anchor="start" x="830.22" y="-181" font-family="Helvetica,sans-Serif" font-size="10.00">qwt</text>
<polygon fill="none" stroke="blue" points="783,-154 783,-174 893,-174 893,-154 783,-154"/>
<text text-anchor="start" x="826.88" y="-161" font-family="Helvetica,sans-Serif" font-size="10.00">none</text>
<polygon fill="none" stroke="blue" points="783,-144 783,-154 893,-154 893,-144 783,-144"/>
</g>
<!-- dependency520489&#45;&gt;dependency520490 -->
<g id="edge1" class="edge">
<title>dependency520489:e&#45;&gt;dependency520490:w</title>
<path fill="none" stroke="black" stroke-dasharray="5,2" d="M562,-176C606.76,-176 619.77,-187.14 659.82,-188.8"/>
<polygon fill="black" stroke="black" points="670,-189 659.91,-193.3 665,-188.9 660,-188.8 660,-188.8 660,-188.8 665,-188.9 660.09,-184.3 670,-189 670,-189"/>
</g>
<!-- choice12049494510810598115471131191164553465046514511450 -->
<g id="node6" class="node">
<title>choice12049494510810598115471131191164553465046514511450</title>
<g id="a_node6"><a xlink:href="../x11-libs/qwt-5.2.3-r2.svg" xlink:title="x11&#45;libs/qwt&#45;5.2.3&#45;r2">
<ellipse fill="none" stroke="red" cx="1158" cy="-158" rx="144" ry="18"/>
<text text-anchor="middle" x="1158" y="-155" font-family="Helvetica,sans-Serif" font-size="10.00">x11&#45;libs/qwt&#45;5.2.3&#45;r2</text>
</a>
</g>
</g>
<!-- dependency520490&#45;&gt;choice12049494510810598115471131191164553465046514511450 -->
<g id="edge5" class="edge">
<title>dependency520490:e&#45;&gt;choice12049494510810598115471131191164553465046514511450:w</title>
<path fill="none" stroke="black" stroke-dasharray="1,5" d="M907,-189C952.54,-189 962.57,-162.32 1002.97,-158.46"/>
<polygon fill="black" stroke="black" points="1013,-158 1003.22,-162.96 1008.01,-158.23 1003.01,-158.46 1003.01,-158.46 1003.01,-158.46 1008.01,-158.23 1002.8,-153.97 1013,-158 1013,-158"/>
</g>
<!-- choice12049494510810598115471131191164554464946514511449 -->
<g id="node7" class="node">
<title>choice12049494510810598115471131191164554464946514511449</title>
<g id="a_node7"><a xlink:href="../x11-libs/qwt-6.1.3-r1.svg" xlink:title="x11&#45;libs/qwt&#45;6.1.3&#45;r1">
<ellipse fill="none" stroke="red" cx="1158" cy="-104" rx="144" ry="18"/>
<text text-anchor="middle" x="1158" y="-101" font-family="Helvetica,sans-Serif" font-size="10.00">x11&#45;libs/qwt&#45;6.1.3&#45;r1</text>
</a>
</g>
</g>
<!-- dependency520490&#45;&gt;choice12049494510810598115471131191164554464946514511449 -->
<g id="edge6" class="edge">
<title>dependency520490:e&#45;&gt;choice12049494510810598115471131191164554464946514511449:w</title>
<path fill="none" stroke="black" stroke-dasharray="1,5" d="M907,-189C963.73,-189 954.13,-113.98 1002.82,-104.9"/>
<polygon fill="black" stroke="black" points="1013,-104 1003.43,-109.36 1008.02,-104.44 1003.04,-104.88 1003.04,-104.88 1003.04,-104.88 1008.02,-104.44 1002.64,-100.4 1013,-104 1013,-104"/>
</g>
<!-- dependency520492 -->
<g id="node5" class="node">
<title>dependency520492</title>
<polygon fill="none" stroke="blue" points="678,-28 678,-118 783,-118 783,-28 678,-28"/>
<text text-anchor="start" x="708.82" y="-70" font-family="Helvetica,sans-Serif" font-size="10.00">pack_dep</text>
<polygon fill="none" stroke="blue" points="783,-98 783,-118 893,-118 893,-98 783,-98"/>
<text text-anchor="start" x="832.44" y="-105" font-family="Helvetica,sans-Serif" font-size="10.00">no</text>
<polygon fill="none" stroke="blue" points="783,-78 783,-98 893,-98 893,-78 783,-78"/>
<text text-anchor="start" x="821.14" y="-85" font-family="Helvetica,sans-Serif" font-size="10.00">x11&#45;libs</text>
<polygon fill="none" stroke="blue" points="783,-58 783,-78 893,-78 893,-58 783,-58"/>
<text text-anchor="start" x="830.22" y="-65" font-family="Helvetica,sans-Serif" font-size="10.00">qwt</text>
<polygon fill="none" stroke="blue" points="783,-38 783,-58 893,-58 893,-38 783,-38"/>
<text text-anchor="start" x="826.88" y="-45" font-family="Helvetica,sans-Serif" font-size="10.00">none</text>
<polygon fill="none" stroke="blue" points="783,-28 783,-38 893,-38 893,-28 783,-28"/>
</g>
<!-- dependency520491&#45;&gt;dependency520492 -->
<g id="edge3" class="edge">
<title>dependency520491:e&#45;&gt;dependency520492:w</title>
<path fill="none" stroke="black" stroke-dasharray="5,2" d="M562,-85C606.71,-85 619.81,-74.72 659.83,-73.19"/>
<polygon fill="black" stroke="black" points="670,-73 660.09,-77.68 665,-73.09 660,-73.19 660,-73.19 660,-73.19 665,-73.09 659.92,-68.69 670,-73 670,-73"/>
</g>
<!-- dependency520492&#45;&gt;choice12049494510810598115471131191164553465046514511450 -->
<g id="edge7" class="edge">
<title>dependency520492:e&#45;&gt;choice12049494510810598115471131191164553465046514511450:w</title>
<path fill="none" stroke="black" stroke-dasharray="1,5" d="M907,-73C963.73,-73 954.13,-148.02 1002.82,-157.1"/>
<polygon fill="black" stroke="black" points="1013,-158 1002.64,-161.6 1008.02,-157.56 1003.04,-157.12 1003.04,-157.12 1003.04,-157.12 1008.02,-157.56 1003.43,-152.64 1013,-158 1013,-158"/>
</g>
<!-- dependency520492&#45;&gt;choice12049494510810598115471131191164554464946514511449 -->
<g id="edge8" class="edge">
<title>dependency520492:e&#45;&gt;choice12049494510810598115471131191164554464946514511449:w</title>
<path fill="none" stroke="black" stroke-dasharray="1,5" d="M907,-73C952.54,-73 962.57,-99.68 1002.97,-103.54"/>
<polygon fill="black" stroke="black" points="1013,-104 1002.8,-108.03 1008.01,-103.77 1003.01,-103.54 1003.01,-103.54 1003.01,-103.54 1008.01,-103.77 1003.22,-99.04 1013,-104 1013,-104"/>
</g>
</g>
</svg>
