<?xml version="1.0" encoding="UTF-8" standalone="no"?>
<!DOCTYPE svg PUBLIC "-//W3C//DTD SVG 1.1//EN"
 "http://www.w3.org/Graphics/SVG/1.1/DTD/svg11.dtd">
<!-- Generated by graphviz version 2.39.20160721.2101 (20160721.2101)
 -->
<!-- Title: prolog Pages: 1 -->
<svg width="1068pt" height="1108pt"
 viewBox="0.00 0.00 1068.00 1108.00" xmlns="http://www.w3.org/2000/svg" xmlns:xlink="http://www.w3.org/1999/xlink">
<g id="graph0" class="graph" transform="scale(1 1) rotate(0) translate(4 1104)">
<title>prolog</title>
<polygon fill="white" stroke="transparent" points="-4,4 -4,-1104 1064,-1104 1064,4 -4,4"/>
<g id="clust1" class="cluster">
<title>cluster_leftcol</title>
<polygon fill="none" stroke="gray" points="8,-485 8,-557 312,-557 312,-485 8,-485"/>
<text text-anchor="start" x="146.663" y="-545" font-family="Helvetica,sans-Serif" font-style="italic" font-size="10.00">ebuild</text>
</g>
<g id="clust2" class="cluster">
<title>cluster_midcol</title>
<polygon fill="none" stroke="gray" points="396,-8 396,-1092 664,-1092 664,-8 396,-8"/>
<text text-anchor="start" x="498.875" y="-1080" font-family="Helvetica,sans-Serif" font-style="italic" font-size="10.00">dependencies</text>
</g>
<g id="clust3" class="cluster">
<title>cluster_compile</title>
<polygon fill="#eeeeee" stroke="gray" points="404,-910 404,-1064 656,-1064 656,-910 404,-910"/>
<text text-anchor="start" x="512.778" y="-1052" font-family="Helvetica,sans-Serif" font-style="italic" font-size="10.00">compile</text>
</g>
<g id="clust5" class="cluster">
<title>cluster_compileandrun</title>
<polygon fill="#eeeeee" stroke="gray" points="404,-16 404,-902 656,-902 656,-16 404,-16"/>
<text text-anchor="start" x="494.437" y="-890" font-family="Helvetica,sans-Serif" font-style="italic" font-size="10.00">compile and run</text>
</g>
<g id="clust14" class="cluster">
<title>cluster_choices</title>
<polygon fill="none" stroke="gray" points="748,-13 748,-1077 1052,-1077 1052,-13 748,-13"/>
<text text-anchor="start" x="875.824" y="-1065" font-family="Helvetica,sans-Serif" font-style="italic" font-size="10.00">candidates</text>
</g>
<!-- id -->
<g id="node1" class="node">
<title>id</title>
<g id="a_node1"><a xlink:href="../x11-libs/xbae-4.60.4.svg" xlink:title="x11&#45;libs/xbae&#45;4.60.4">
<ellipse fill="none" stroke="red" cx="160" cy="-511" rx="144" ry="18"/>
<text text-anchor="middle" x="160" y="-508" font-family="Helvetica,sans-Serif" font-size="10.00">x11&#45;libs/xbae&#45;4.60.4</text>
</a>
</g>
</g>
<!-- dependency521004 -->
<g id="node2" class="node">
<title>dependency521004</title>
<polygon fill="none" stroke="blue" points="420,-922 420,-1032 525,-1032 525,-922 420,-922"/>
<text text-anchor="start" x="450.823" y="-974" font-family="Helvetica,sans-Serif" font-size="10.00">pack_dep</text>
<polygon fill="none" stroke="blue" points="525,-1010 525,-1032 635,-1032 635,-1010 525,-1010"/>
<text text-anchor="start" x="574.441" y="-1018" font-family="Helvetica,sans-Serif" font-size="10.00">no</text>
<polygon fill="none" stroke="blue" points="525,-988 525,-1010 635,-1010 635,-988 525,-988"/>
<text text-anchor="start" x="553.045" y="-996" font-family="Helvetica,sans-Serif" font-size="10.00">app&#45;portage</text>
<polygon fill="none" stroke="blue" points="525,-966 525,-988 635,-988 635,-966 525,-966"/>
<text text-anchor="start" x="555.549" y="-974" font-family="Helvetica,sans-Serif" font-size="10.00">elt&#45;patches</text>
<polygon fill="none" stroke="blue" points="525,-944 525,-966 635,-966 635,-944 525,-944"/>
<text text-anchor="start" x="551.936" y="-952" font-family="Helvetica,sans-Serif" font-size="10.00">greaterequal</text>
<polygon fill="none" stroke="blue" points="525,-922 525,-944 635,-944 635,-922 525,-922"/>
<text text-anchor="start" x="557.764" y="-930" font-family="Helvetica,sans-Serif" font-size="10.00">20170422</text>
</g>
<!-- id&#45;&gt;dependency521004 -->
<g id="edge1" class="edge">
<title>id:e&#45;&gt;dependency521004:w</title>
<path fill="none" stroke="black" d="M304,-511C513.071,-511 209.785,-961.656 401.845,-976.619"/>
<polygon fill="black" stroke="black" points="412,-977 401.838,-981.122 407.004,-976.812 402.007,-976.625 402.007,-976.625 402.007,-976.625 407.004,-976.812 402.176,-972.128 412,-977 412,-977"/>
</g>
<!-- dependency521005 -->
<g id="node3" class="node">
<title>dependency521005</title>
<polygon fill="none" stroke="blue" points="420,-772 420,-870 525,-870 525,-772 420,-772"/>
<text text-anchor="start" x="450.823" y="-818" font-family="Helvetica,sans-Serif" font-size="10.00">pack_dep</text>
<polygon fill="none" stroke="blue" points="525,-848 525,-870 635,-870 635,-848 525,-848"/>
<text text-anchor="start" x="574.441" y="-856" font-family="Helvetica,sans-Serif" font-size="10.00">no</text>
<polygon fill="none" stroke="blue" points="525,-826 525,-848 635,-848 635,-826 525,-826"/>
<text text-anchor="start" x="562.778" y="-834" font-family="Helvetica,sans-Serif" font-size="10.00">x11&#45;libs</text>
<polygon fill="none" stroke="blue" points="525,-804 525,-826 635,-826 635,-804 525,-804"/>
<text text-anchor="start" x="566.108" y="-812" font-family="Helvetica,sans-Serif" font-size="10.00">libXau</text>
<polygon fill="none" stroke="blue" points="525,-782 525,-804 635,-804 635,-782 525,-782"/>
<text text-anchor="start" x="568.882" y="-790" font-family="Helvetica,sans-Serif" font-size="10.00">none</text>
<polygon fill="none" stroke="blue" points="525,-772 525,-782 635,-782 635,-772 525,-772"/>
</g>
<!-- id&#45;&gt;dependency521005 -->
<g id="edge2" class="edge">
<title>id:e&#45;&gt;dependency521005:w</title>
<path fill="none" stroke="black" d="M304,-511C443.203,-511 282.278,-793.196 393.93,-819.101"/>
<ellipse fill="none" stroke="black" cx="408.022" cy="-820.582" rx="4" ry="4"/>
<polygon fill="black" stroke="black" points="404.044,-820.164 393.628,-823.594 399.071,-819.641 394.099,-819.118 394.099,-819.118 394.099,-819.118 399.071,-819.641 394.569,-814.643 404.044,-820.164 404.044,-820.164"/>
</g>
<!-- dependency521006 -->
<g id="node4" class="node">
<title>dependency521006</title>
<polygon fill="none" stroke="blue" points="420,-648 420,-746 525,-746 525,-648 420,-648"/>
<text text-anchor="start" x="450.823" y="-694" font-family="Helvetica,sans-Serif" font-size="10.00">pack_dep</text>
<polygon fill="none" stroke="blue" points="525,-724 525,-746 635,-746 635,-724 525,-724"/>
<text text-anchor="start" x="574.441" y="-732" font-family="Helvetica,sans-Serif" font-size="10.00">no</text>
<polygon fill="none" stroke="blue" points="525,-702 525,-724 635,-724 635,-702 525,-702"/>
<text text-anchor="start" x="562.778" y="-710" font-family="Helvetica,sans-Serif" font-size="10.00">x11&#45;libs</text>
<polygon fill="none" stroke="blue" points="525,-680 525,-702 635,-702 635,-680 525,-680"/>
<text text-anchor="start" x="559.443" y="-688" font-family="Helvetica,sans-Serif" font-size="10.00">libXdmcp</text>
<polygon fill="none" stroke="blue" points="525,-658 525,-680 635,-680 635,-658 525,-658"/>
<text text-anchor="start" x="568.882" y="-666" font-family="Helvetica,sans-Serif" font-size="10.00">none</text>
<polygon fill="none" stroke="blue" points="525,-648 525,-658 635,-658 635,-648 525,-648"/>
</g>
<!-- id&#45;&gt;dependency521006 -->
<g id="edge3" class="edge">
<title>id:e&#45;&gt;dependency521006:w</title>
<path fill="none" stroke="black" d="M304,-511C392.684,-511 327.497,-671.089 393.942,-694.226"/>
<ellipse fill="none" stroke="black" cx="408.046" cy="-696.393" rx="4" ry="4"/>
<polygon fill="black" stroke="black" points="404.093,-695.785 393.525,-698.715 399.151,-695.026 394.209,-694.267 394.209,-694.267 394.209,-694.267 399.151,-695.026 394.892,-689.819 404.093,-695.785 404.093,-695.785"/>
</g>
<!-- dependency521007 -->
<g id="node5" class="node">
<title>dependency521007</title>
<polygon fill="none" stroke="blue" points="420,-524 420,-622 525,-622 525,-524 420,-524"/>
<text text-anchor="start" x="450.823" y="-570" font-family="Helvetica,sans-Serif" font-size="10.00">pack_dep</text>
<polygon fill="none" stroke="blue" points="525,-600 525,-622 635,-622 635,-600 525,-600"/>
<text text-anchor="start" x="574.441" y="-608" font-family="Helvetica,sans-Serif" font-size="10.00">no</text>
<polygon fill="none" stroke="blue" points="525,-578 525,-600 635,-600 635,-578 525,-578"/>
<text text-anchor="start" x="562.778" y="-586" font-family="Helvetica,sans-Serif" font-size="10.00">x11&#45;libs</text>
<polygon fill="none" stroke="blue" points="525,-556 525,-578 635,-578 635,-556 525,-556"/>
<text text-anchor="start" x="564.998" y="-564" font-family="Helvetica,sans-Serif" font-size="10.00">libXext</text>
<polygon fill="none" stroke="blue" points="525,-534 525,-556 635,-556 635,-534 525,-534"/>
<text text-anchor="start" x="568.882" y="-542" font-family="Helvetica,sans-Serif" font-size="10.00">none</text>
<polygon fill="none" stroke="blue" points="525,-524 525,-534 635,-534 635,-524 525,-524"/>
</g>
<!-- id&#45;&gt;dependency521007 -->
<g id="edge4" class="edge">
<title>id:e&#45;&gt;dependency521007:w</title>
<path fill="none" stroke="black" d="M304,-511C352.537,-511 356.437,-558.681 393.989,-570.415"/>
<ellipse fill="none" stroke="black" cx="408.041" cy="-572.432" rx="4" ry="4"/>
<polygon fill="black" stroke="black" points="404.081,-571.863 393.543,-574.897 399.132,-571.153 394.183,-570.443 394.183,-570.443 394.183,-570.443 399.132,-571.153 394.822,-565.988 404.081,-571.863 404.081,-571.863"/>
</g>
<!-- dependency521008 -->
<g id="node6" class="node">
<title>dependency521008</title>
<polygon fill="none" stroke="blue" points="420,-400 420,-498 525,-498 525,-400 420,-400"/>
<text text-anchor="start" x="450.823" y="-446" font-family="Helvetica,sans-Serif" font-size="10.00">pack_dep</text>
<polygon fill="none" stroke="blue" points="525,-476 525,-498 635,-498 635,-476 525,-476"/>
<text text-anchor="start" x="574.441" y="-484" font-family="Helvetica,sans-Serif" font-size="10.00">no</text>
<polygon fill="none" stroke="blue" points="525,-454 525,-476 635,-476 635,-454 525,-454"/>
<text text-anchor="start" x="562.778" y="-462" font-family="Helvetica,sans-Serif" font-size="10.00">x11&#45;libs</text>
<polygon fill="none" stroke="blue" points="525,-432 525,-454 635,-454 635,-432 525,-432"/>
<text text-anchor="start" x="564.723" y="-440" font-family="Helvetica,sans-Serif" font-size="10.00">libXmu</text>
<polygon fill="none" stroke="blue" points="525,-410 525,-432 635,-432 635,-410 525,-410"/>
<text text-anchor="start" x="568.882" y="-418" font-family="Helvetica,sans-Serif" font-size="10.00">none</text>
<polygon fill="none" stroke="blue" points="525,-400 525,-410 635,-410 635,-400 525,-400"/>
</g>
<!-- id&#45;&gt;dependency521008 -->
<g id="edge5" class="edge">
<title>id:e&#45;&gt;dependency521008:w</title>
<path fill="none" stroke="black" d="M304,-511C352.537,-511 356.437,-463.319 393.989,-451.585"/>
<ellipse fill="none" stroke="black" cx="408.041" cy="-449.568" rx="4" ry="4"/>
<polygon fill="black" stroke="black" points="404.081,-450.137 394.822,-456.012 399.132,-450.847 394.183,-451.557 394.183,-451.557 394.183,-451.557 399.132,-450.847 393.543,-447.103 404.081,-450.137 404.081,-450.137"/>
</g>
<!-- dependency521009 -->
<g id="node7" class="node">
<title>dependency521009</title>
<polygon fill="none" stroke="blue" points="420,-276 420,-374 525,-374 525,-276 420,-276"/>
<text text-anchor="start" x="450.823" y="-322" font-family="Helvetica,sans-Serif" font-size="10.00">pack_dep</text>
<polygon fill="none" stroke="blue" points="525,-352 525,-374 635,-374 635,-352 525,-352"/>
<text text-anchor="start" x="574.441" y="-360" font-family="Helvetica,sans-Serif" font-size="10.00">no</text>
<polygon fill="none" stroke="blue" points="525,-330 525,-352 635,-352 635,-330 525,-330"/>
<text text-anchor="start" x="562.778" y="-338" font-family="Helvetica,sans-Serif" font-size="10.00">x11&#45;libs</text>
<polygon fill="none" stroke="blue" points="525,-308 525,-330 635,-330 635,-308 525,-308"/>
<text text-anchor="start" x="564.723" y="-316" font-family="Helvetica,sans-Serif" font-size="10.00">libXpm</text>
<polygon fill="none" stroke="blue" points="525,-286 525,-308 635,-308 635,-286 525,-286"/>
<text text-anchor="start" x="568.882" y="-294" font-family="Helvetica,sans-Serif" font-size="10.00">none</text>
<polygon fill="none" stroke="blue" points="525,-276 525,-286 635,-286 635,-276 525,-276"/>
</g>
<!-- id&#45;&gt;dependency521009 -->
<g id="edge6" class="edge">
<title>id:e&#45;&gt;dependency521009:w</title>
<path fill="none" stroke="black" d="M304,-511C392.684,-511 327.497,-350.911 393.942,-327.774"/>
<ellipse fill="none" stroke="black" cx="408.046" cy="-325.607" rx="4" ry="4"/>
<polygon fill="black" stroke="black" points="404.093,-326.215 394.892,-332.181 399.151,-326.974 394.209,-327.733 394.209,-327.733 394.209,-327.733 399.151,-326.974 393.525,-323.285 404.093,-326.215 404.093,-326.215"/>
</g>
<!-- dependency521010 -->
<g id="node8" class="node">
<title>dependency521010</title>
<polygon fill="none" stroke="blue" points="420,-152 420,-250 525,-250 525,-152 420,-152"/>
<text text-anchor="start" x="450.823" y="-198" font-family="Helvetica,sans-Serif" font-size="10.00">pack_dep</text>
<polygon fill="none" stroke="blue" points="525,-228 525,-250 635,-250 635,-228 525,-228"/>
<text text-anchor="start" x="574.441" y="-236" font-family="Helvetica,sans-Serif" font-size="10.00">no</text>
<polygon fill="none" stroke="blue" points="525,-206 525,-228 635,-228 635,-206 525,-206"/>
<text text-anchor="start" x="562.778" y="-214" font-family="Helvetica,sans-Serif" font-size="10.00">x11&#45;libs</text>
<polygon fill="none" stroke="blue" points="525,-184 525,-206 635,-206 635,-184 525,-184"/>
<text text-anchor="start" x="570.278" y="-192" font-family="Helvetica,sans-Serif" font-size="10.00">libXt</text>
<polygon fill="none" stroke="blue" points="525,-162 525,-184 635,-184 635,-162 525,-162"/>
<text text-anchor="start" x="568.882" y="-170" font-family="Helvetica,sans-Serif" font-size="10.00">none</text>
<polygon fill="none" stroke="blue" points="525,-152 525,-162 635,-162 635,-152 525,-152"/>
</g>
<!-- id&#45;&gt;dependency521010 -->
<g id="edge7" class="edge">
<title>id:e&#45;&gt;dependency521010:w</title>
<path fill="none" stroke="black" d="M304,-511C443.203,-511 282.278,-228.804 393.93,-202.899"/>
<ellipse fill="none" stroke="black" cx="408.022" cy="-201.418" rx="4" ry="4"/>
<polygon fill="black" stroke="black" points="404.044,-201.836 394.569,-207.357 399.071,-202.359 394.099,-202.882 394.099,-202.882 394.099,-202.882 399.071,-202.359 393.628,-198.406 404.044,-201.836 404.044,-201.836"/>
</g>
<!-- dependency521011 -->
<g id="node9" class="node">
<title>dependency521011</title>
<polygon fill="none" stroke="blue" points="420,-28 420,-126 525,-126 525,-28 420,-28"/>
<text text-anchor="start" x="450.823" y="-74" font-family="Helvetica,sans-Serif" font-size="10.00">pack_dep</text>
<polygon fill="none" stroke="blue" points="525,-104 525,-126 635,-126 635,-104 525,-104"/>
<text text-anchor="start" x="574.441" y="-112" font-family="Helvetica,sans-Serif" font-size="10.00">no</text>
<polygon fill="none" stroke="blue" points="525,-82 525,-104 635,-104 635,-82 525,-82"/>
<text text-anchor="start" x="562.778" y="-90" font-family="Helvetica,sans-Serif" font-size="10.00">x11&#45;libs</text>
<polygon fill="none" stroke="blue" points="525,-60 525,-82 635,-82 635,-60 525,-60"/>
<text text-anchor="start" x="569.168" y="-68" font-family="Helvetica,sans-Serif" font-size="10.00">motif</text>
<polygon fill="none" stroke="blue" points="525,-38 525,-60 635,-60 635,-38 525,-38"/>
<text text-anchor="start" x="568.882" y="-46" font-family="Helvetica,sans-Serif" font-size="10.00">none</text>
<polygon fill="none" stroke="blue" points="525,-28 525,-38 635,-38 635,-28 525,-28"/>
</g>
<!-- id&#45;&gt;dependency521011 -->
<g id="edge8" class="edge">
<title>id:e&#45;&gt;dependency521011:w</title>
<path fill="none" stroke="black" d="M304,-511C496.172,-511 231.918,-105.342 393.78,-78.4036"/>
<ellipse fill="none" stroke="black" cx="408.012" cy="-77.3073" rx="4" ry="4"/>
<polygon fill="black" stroke="black" points="404.024,-77.6145 394.399,-82.8693 399.038,-77.9986 394.053,-78.3826 394.053,-78.3826 394.053,-78.3826 399.038,-77.9986 393.708,-73.8959 404.024,-77.6145 404.024,-77.6145"/>
</g>
<!-- choice97112112451121111141169710310147101108116451129711699104101115455048495548514955 -->
<g id="node10" class="node">
<title>choice97112112451121111141169710310147101108116451129711699104101115455048495548514955</title>
<g id="a_node10"><a xlink:href="../app-portage/elt-patches-20170317.svg" xlink:title="app&#45;portage/elt&#45;patches&#45;20170317">
<ellipse fill="none" stroke="red" cx="900" cy="-1031" rx="144" ry="18"/>
<text text-anchor="middle" x="900" y="-1028" font-family="Helvetica,sans-Serif" font-size="10.00">app&#45;portage/elt&#45;patches&#45;20170317</text>
</a>
</g>
</g>
<!-- dependency521004&#45;&gt;choice97112112451121111141169710310147101108116451129711699104101115455048495548514955 -->
<g id="edge9" class="edge">
<title>dependency521004:e&#45;&gt;choice97112112451121111141169710310147101108116451129711699104101115455048495548514955:w</title>
<path fill="none" stroke="black" stroke-dasharray="1,5" d="M648,-977C698.102,-977 702.012,-1024.07 745.979,-1030.32"/>
<polygon fill="black" stroke="black" points="756,-1031 745.717,-1034.81 751.012,-1030.66 746.023,-1030.32 746.023,-1030.32 746.023,-1030.32 751.012,-1030.66 746.329,-1025.83 756,-1031 756,-1031"/>
</g>
<!-- choice97112112451121111141169710310147101108116451129711699104101115455048495548525050 -->
<g id="node11" class="node">
<title>choice97112112451121111141169710310147101108116451129711699104101115455048495548525050</title>
<g id="a_node11"><a xlink:href="../app-portage/elt-patches-20170422.svg" xlink:title="app&#45;portage/elt&#45;patches&#45;20170422">
<ellipse fill="none" stroke="red" cx="900" cy="-977" rx="144" ry="18"/>
<text text-anchor="middle" x="900" y="-974" font-family="Helvetica,sans-Serif" font-size="10.00">app&#45;portage/elt&#45;patches&#45;20170422</text>
</a>
</g>
</g>
<!-- dependency521004&#45;&gt;choice97112112451121111141169710310147101108116451129711699104101115455048495548525050 -->
<g id="edge10" class="edge">
<title>dependency521004:e&#45;&gt;choice97112112451121111141169710310147101108116451129711699104101115455048495548525050:w</title>
<path fill="none" stroke="black" stroke-dasharray="1,5" d="M648,-977C692.438,-977 706.02,-977 745.878,-977"/>
<polygon fill="black" stroke="black" points="756,-977 746,-981.5 751,-977 746,-977 746,-977 746,-977 751,-977 746,-972.5 756,-977 756,-977"/>
</g>
<!-- choice97112112451121111141169710310147101108116451129711699104101115455048495548564953 -->
<g id="node12" class="node">
<title>choice97112112451121111141169710310147101108116451129711699104101115455048495548564953</title>
<g id="a_node12"><a xlink:href="../app-portage/elt-patches-20170815.svg" xlink:title="app&#45;portage/elt&#45;patches&#45;20170815">
<ellipse fill="none" stroke="red" cx="900" cy="-923" rx="144" ry="18"/>
<text text-anchor="middle" x="900" y="-920" font-family="Helvetica,sans-Serif" font-size="10.00">app&#45;portage/elt&#45;patches&#45;20170815</text>
</a>
</g>
</g>
<!-- dependency521004&#45;&gt;choice97112112451121111141169710310147101108116451129711699104101115455048495548564953 -->
<g id="edge11" class="edge">
<title>dependency521004:e&#45;&gt;choice97112112451121111141169710310147101108116451129711699104101115455048495548564953:w</title>
<path fill="none" stroke="black" stroke-dasharray="1,5" d="M648,-977C698.102,-977 702.012,-929.934 745.979,-923.683"/>
<polygon fill="black" stroke="black" points="756,-923 746.329,-928.169 751.012,-923.34 746.023,-923.68 746.023,-923.68 746.023,-923.68 751.012,-923.34 745.717,-919.19 756,-923 756,-923"/>
</g>
<!-- choice971121124511211111411697103101471011081164511297116991041011154550484955485650544649 -->
<g id="node13" class="node">
<title>choice971121124511211111411697103101471011081164511297116991041011154550484955485650544649</title>
<g id="a_node13"><a xlink:href="../app-portage/elt-patches-20170826.1.svg" xlink:title="app&#45;portage/elt&#45;patches&#45;20170826.1">
<ellipse fill="none" stroke="red" cx="900" cy="-869" rx="144" ry="18"/>
<text text-anchor="middle" x="900" y="-866" font-family="Helvetica,sans-Serif" font-size="10.00">app&#45;portage/elt&#45;patches&#45;20170826.1</text>
</a>
</g>
</g>
<!-- dependency521004&#45;&gt;choice971121124511211111411697103101471011081164511297116991041011154550484955485650544649 -->
<g id="edge12" class="edge">
<title>dependency521004:e&#45;&gt;choice971121124511211111411697103101471011081164511297116991041011154550484955485650544649:w</title>
<path fill="none" stroke="black" stroke-dasharray="1,5" d="M648,-977C712.303,-977 690.78,-880.09 746.031,-869.869"/>
<polygon fill="black" stroke="black" points="756,-869 746.429,-874.352 751.019,-869.434 746.038,-869.869 746.038,-869.869 746.038,-869.869 751.019,-869.434 745.647,-865.386 756,-869 756,-869"/>
</g>
<!-- choice1204949451081059811547108105988897117454946484656 -->
<g id="node14" class="node">
<title>choice1204949451081059811547108105988897117454946484656</title>
<g id="a_node14"><a xlink:href="../x11-libs/libXau-1.0.8.svg" xlink:title="x11&#45;libs/libXau&#45;1.0.8">
<ellipse fill="none" stroke="red" cx="900" cy="-815" rx="144" ry="18"/>
<text text-anchor="middle" x="900" y="-812" font-family="Helvetica,sans-Serif" font-size="10.00">x11&#45;libs/libXau&#45;1.0.8</text>
</a>
</g>
</g>
<!-- dependency521005&#45;&gt;choice1204949451081059811547108105988897117454946484656 -->
<g id="edge13" class="edge">
<title>dependency521005:e&#45;&gt;choice1204949451081059811547108105988897117454946484656:w</title>
<path fill="none" stroke="black" stroke-dasharray="1,5" d="M648,-821C692.506,-821 705.967,-815.858 745.865,-815.094"/>
<polygon fill="black" stroke="black" points="756,-815 746.042,-819.593 751,-815.047 746,-815.093 746,-815.093 746,-815.093 751,-815.047 745.959,-810.593 756,-815 756,-815"/>
</g>
<!-- choice12049494510810598115471081059888100109991124549464946504511449 -->
<g id="node15" class="node">
<title>choice12049494510810598115471081059888100109991124549464946504511449</title>
<g id="a_node15"><a xlink:href="../x11-libs/libXdmcp-1.1.2-r1.svg" xlink:title="x11&#45;libs/libXdmcp&#45;1.1.2&#45;r1">
<ellipse fill="none" stroke="red" cx="900" cy="-697" rx="144" ry="18"/>
<text text-anchor="middle" x="900" y="-694" font-family="Helvetica,sans-Serif" font-size="10.00">x11&#45;libs/libXdmcp&#45;1.1.2&#45;r1</text>
</a>
</g>
</g>
<!-- dependency521006&#45;&gt;choice12049494510810598115471081059888100109991124549464946504511449 -->
<g id="edge14" class="edge">
<title>dependency521006:e&#45;&gt;choice12049494510810598115471081059888100109991124549464946504511449:w</title>
<path fill="none" stroke="black" stroke-dasharray="1,5" d="M648,-697C692.438,-697 706.02,-697 745.878,-697"/>
<polygon fill="black" stroke="black" points="756,-697 746,-701.5 751,-697 746,-697 746,-697 746,-697 751,-697 746,-692.5 756,-697 756,-697"/>
</g>
<!-- choice12049494510810598115471081059888101120116454946514650 -->
<g id="node16" class="node">
<title>choice12049494510810598115471081059888101120116454946514650</title>
<g id="a_node16"><a xlink:href="../x11-libs/libXext-1.3.2.svg" xlink:title="x11&#45;libs/libXext&#45;1.3.2">
<ellipse fill="none" stroke="red" cx="900" cy="-619" rx="144" ry="18"/>
<text text-anchor="middle" x="900" y="-616" font-family="Helvetica,sans-Serif" font-size="10.00">x11&#45;libs/libXext&#45;1.3.2</text>
</a>
</g>
</g>
<!-- dependency521007&#45;&gt;choice12049494510810598115471081059888101120116454946514650 -->
<g id="edge15" class="edge">
<title>dependency521007:e&#45;&gt;choice12049494510810598115471081059888101120116454946514650:w</title>
<path fill="none" stroke="black" stroke-dasharray="1,5" d="M648,-573C696.606,-573 703.101,-612.926 745.95,-618.385"/>
<polygon fill="black" stroke="black" points="756,-619 745.744,-622.88 751.009,-618.694 746.019,-618.389 746.019,-618.389 746.019,-618.389 751.009,-618.694 746.294,-613.897 756,-619 756,-619"/>
</g>
<!-- choice12049494510810598115471081059888101120116454946514651 -->
<g id="node17" class="node">
<title>choice12049494510810598115471081059888101120116454946514651</title>
<g id="a_node17"><a xlink:href="../x11-libs/libXext-1.3.3.svg" xlink:title="x11&#45;libs/libXext&#45;1.3.3">
<ellipse fill="none" stroke="red" cx="900" cy="-565" rx="144" ry="18"/>
<text text-anchor="middle" x="900" y="-562" font-family="Helvetica,sans-Serif" font-size="10.00">x11&#45;libs/libXext&#45;1.3.3</text>
</a>
</g>
</g>
<!-- dependency521007&#45;&gt;choice12049494510810598115471081059888101120116454946514651 -->
<g id="edge16" class="edge">
<title>dependency521007:e&#45;&gt;choice12049494510810598115471081059888101120116454946514651:w</title>
<path fill="none" stroke="black" stroke-dasharray="1,5" d="M648,-573C692.559,-573 705.926,-566.143 745.855,-565.126"/>
<polygon fill="black" stroke="black" points="756,-565 746.057,-569.624 751,-565.062 746.001,-565.124 746.001,-565.124 746.001,-565.124 751,-565.062 745.945,-560.624 756,-565 756,-565"/>
</g>
<!-- choice12049494510810598115471081059888109117454946494649 -->
<g id="node18" class="node">
<title>choice12049494510810598115471081059888109117454946494649</title>
<g id="a_node18"><a xlink:href="../x11-libs/libXmu-1.1.1.svg" xlink:title="x11&#45;libs/libXmu&#45;1.1.1">
<ellipse fill="none" stroke="red" cx="900" cy="-503" rx="144" ry="18"/>
<text text-anchor="middle" x="900" y="-500" font-family="Helvetica,sans-Serif" font-size="10.00">x11&#45;libs/libXmu&#45;1.1.1</text>
</a>
</g>
</g>
<!-- dependency521008&#45;&gt;choice12049494510810598115471081059888109117454946494649 -->
<g id="edge17" class="edge">
<title>dependency521008:e&#45;&gt;choice12049494510810598115471081059888109117454946494649:w</title>
<path fill="none" stroke="black" stroke-dasharray="1,5" d="M648,-449C698.102,-449 702.012,-496.066 745.979,-502.317"/>
<polygon fill="black" stroke="black" points="756,-503 745.717,-506.81 751.012,-502.66 746.023,-502.32 746.023,-502.32 746.023,-502.32 751.012,-502.66 746.329,-497.831 756,-503 756,-503"/>
</g>
<!-- choice120494945108105981154710810598881091174549464946494511449 -->
<g id="node19" class="node">
<title>choice120494945108105981154710810598881091174549464946494511449</title>
<g id="a_node19"><a xlink:href="../x11-libs/libXmu-1.1.1-r1.svg" xlink:title="x11&#45;libs/libXmu&#45;1.1.1&#45;r1">
<ellipse fill="none" stroke="red" cx="900" cy="-449" rx="144" ry="18"/>
<text text-anchor="middle" x="900" y="-446" font-family="Helvetica,sans-Serif" font-size="10.00">x11&#45;libs/libXmu&#45;1.1.1&#45;r1</text>
</a>
</g>
</g>
<!-- dependency521008&#45;&gt;choice120494945108105981154710810598881091174549464946494511449 -->
<g id="edge18" class="edge">
<title>dependency521008:e&#45;&gt;choice120494945108105981154710810598881091174549464946494511449:w</title>
<path fill="none" stroke="black" stroke-dasharray="1,5" d="M648,-449C692.438,-449 706.02,-449 745.878,-449"/>
<polygon fill="black" stroke="black" points="756,-449 746,-453.5 751,-449 746,-449 746,-449 746,-449 751,-449 746,-444.5 756,-449 756,-449"/>
</g>
<!-- choice12049494510810598115471081059888109117454946494650 -->
<g id="node20" class="node">
<title>choice12049494510810598115471081059888109117454946494650</title>
<g id="a_node20"><a xlink:href="../x11-libs/libXmu-1.1.2.svg" xlink:title="x11&#45;libs/libXmu&#45;1.1.2">
<ellipse fill="none" stroke="red" cx="900" cy="-395" rx="144" ry="18"/>
<text text-anchor="middle" x="900" y="-392" font-family="Helvetica,sans-Serif" font-size="10.00">x11&#45;libs/libXmu&#45;1.1.2</text>
</a>
</g>
</g>
<!-- dependency521008&#45;&gt;choice12049494510810598115471081059888109117454946494650 -->
<g id="edge19" class="edge">
<title>dependency521008:e&#45;&gt;choice12049494510810598115471081059888109117454946494650:w</title>
<path fill="none" stroke="black" stroke-dasharray="1,5" d="M648,-449C698.102,-449 702.012,-401.934 745.979,-395.683"/>
<polygon fill="black" stroke="black" points="756,-395 746.329,-400.169 751.012,-395.34 746.023,-395.68 746.023,-395.68 746.023,-395.68 751.012,-395.34 745.717,-391.19 756,-395 756,-395"/>
</g>
<!-- choice1204949451081059811547108105988811210945514653464950 -->
<g id="node21" class="node">
<title>choice1204949451081059811547108105988811210945514653464950</title>
<g id="a_node21"><a xlink:href="../x11-libs/libXpm-3.5.12.svg" xlink:title="x11&#45;libs/libXpm&#45;3.5.12">
<ellipse fill="none" stroke="red" cx="900" cy="-325" rx="144" ry="18"/>
<text text-anchor="middle" x="900" y="-322" font-family="Helvetica,sans-Serif" font-size="10.00">x11&#45;libs/libXpm&#45;3.5.12</text>
</a>
</g>
</g>
<!-- dependency521009&#45;&gt;choice1204949451081059811547108105988811210945514653464950 -->
<g id="edge20" class="edge">
<title>dependency521009:e&#45;&gt;choice1204949451081059811547108105988811210945514653464950:w</title>
<path fill="none" stroke="black" stroke-dasharray="1,5" d="M648,-325C692.438,-325 706.02,-325 745.878,-325"/>
<polygon fill="black" stroke="black" points="756,-325 746,-329.5 751,-325 746,-325 746,-325 746,-325 751,-325 746,-320.5 756,-325 756,-325"/>
</g>
<!-- choice12049494510810598115471081059888116454946494652 -->
<g id="node22" class="node">
<title>choice12049494510810598115471081059888116454946494652</title>
<g id="a_node22"><a xlink:href="../x11-libs/libXt-1.1.4.svg" xlink:title="x11&#45;libs/libXt&#45;1.1.4">
<ellipse fill="none" stroke="red" cx="900" cy="-255" rx="144" ry="18"/>
<text text-anchor="middle" x="900" y="-252" font-family="Helvetica,sans-Serif" font-size="10.00">x11&#45;libs/libXt&#45;1.1.4</text>
</a>
</g>
</g>
<!-- dependency521010&#45;&gt;choice12049494510810598115471081059888116454946494652 -->
<g id="edge21" class="edge">
<title>dependency521010:e&#45;&gt;choice12049494510810598115471081059888116454946494652:w</title>
<path fill="none" stroke="black" stroke-dasharray="1,5" d="M648,-201C698.102,-201 702.012,-248.066 745.979,-254.317"/>
<polygon fill="black" stroke="black" points="756,-255 745.717,-258.81 751.012,-254.66 746.023,-254.32 746.023,-254.32 746.023,-254.32 751.012,-254.66 746.329,-249.831 756,-255 756,-255"/>
</g>
<!-- choice12049494510810598115471081059888116454946494653 -->
<g id="node23" class="node">
<title>choice12049494510810598115471081059888116454946494653</title>
<g id="a_node23"><a xlink:href="../x11-libs/libXt-1.1.5.svg" xlink:title="x11&#45;libs/libXt&#45;1.1.5">
<ellipse fill="none" stroke="red" cx="900" cy="-201" rx="144" ry="18"/>
<text text-anchor="middle" x="900" y="-198" font-family="Helvetica,sans-Serif" font-size="10.00">x11&#45;libs/libXt&#45;1.1.5</text>
</a>
</g>
</g>
<!-- dependency521010&#45;&gt;choice12049494510810598115471081059888116454946494653 -->
<g id="edge22" class="edge">
<title>dependency521010:e&#45;&gt;choice12049494510810598115471081059888116454946494653:w</title>
<path fill="none" stroke="black" stroke-dasharray="1,5" d="M648,-201C692.438,-201 706.02,-201 745.878,-201"/>
<polygon fill="black" stroke="black" points="756,-201 746,-205.5 751,-201 746,-201 746,-201 746,-201 751,-201 746,-196.5 756,-201 756,-201"/>
</g>
<!-- choice1204949451081059811547109111116105102455046504651451144950 -->
<g id="node24" class="node">
<title>choice1204949451081059811547109111116105102455046504651451144950</title>
<g id="a_node24"><a xlink:href="../x11-libs/motif-2.2.3-r12.svg" xlink:title="x11&#45;libs/motif&#45;2.2.3&#45;r12">
<ellipse fill="none" stroke="red" cx="900" cy="-147" rx="144" ry="18"/>
<text text-anchor="middle" x="900" y="-144" font-family="Helvetica,sans-Serif" font-size="10.00">x11&#45;libs/motif&#45;2.2.3&#45;r12</text>
</a>
</g>
</g>
<!-- dependency521011&#45;&gt;choice1204949451081059811547109111116105102455046504651451144950 -->
<g id="edge23" class="edge">
<title>dependency521011:e&#45;&gt;choice1204949451081059811547109111116105102455046504651451144950:w</title>
<path fill="none" stroke="black" stroke-dasharray="1,5" d="M648,-77C701.626,-77 699.351,-138.523 745.989,-146.214"/>
<polygon fill="black" stroke="black" points="756,-147 745.678,-150.703 751.015,-146.609 746.031,-146.217 746.031,-146.217 746.031,-146.217 751.015,-146.609 746.383,-141.731 756,-147 756,-147"/>
</g>
<!-- choice12049494510810598115471091111161051024550465146544511449 -->
<g id="node25" class="node">
<title>choice12049494510810598115471091111161051024550465146544511449</title>
<g id="a_node25"><a xlink:href="../x11-libs/motif-2.3.6-r1.svg" xlink:title="x11&#45;libs/motif&#45;2.3.6&#45;r1">
<ellipse fill="none" stroke="red" cx="900" cy="-93" rx="144" ry="18"/>
<text text-anchor="middle" x="900" y="-90" font-family="Helvetica,sans-Serif" font-size="10.00">x11&#45;libs/motif&#45;2.3.6&#45;r1</text>
</a>
</g>
</g>
<!-- dependency521011&#45;&gt;choice12049494510810598115471091111161051024550465146544511449 -->
<g id="edge24" class="edge">
<title>dependency521011:e&#45;&gt;choice12049494510810598115471091111161051024550465146544511449:w</title>
<path fill="none" stroke="black" stroke-dasharray="1,5" d="M648,-77C692.923,-77 705.643,-90.7131 745.786,-92.7487"/>
<polygon fill="black" stroke="black" points="756,-93 745.892,-97.2526 751.002,-92.877 746.003,-92.7539 746.003,-92.7539 746.003,-92.7539 751.002,-92.877 746.114,-88.2553 756,-93 756,-93"/>
</g>
<!-- choice1204949451081059811547109111116105102455046514655 -->
<g id="node26" class="node">
<title>choice1204949451081059811547109111116105102455046514655</title>
<g id="a_node26"><a xlink:href="../x11-libs/motif-2.3.7.svg" xlink:title="x11&#45;libs/motif&#45;2.3.7">
<ellipse fill="none" stroke="red" cx="900" cy="-39" rx="144" ry="18"/>
<text text-anchor="middle" x="900" y="-36" font-family="Helvetica,sans-Serif" font-size="10.00">x11&#45;libs/motif&#45;2.3.7</text>
</a>
</g>
</g>
<!-- dependency521011&#45;&gt;choice1204949451081059811547109111116105102455046514655 -->
<g id="edge25" class="edge">
<title>dependency521011:e&#45;&gt;choice1204949451081059811547109111116105102455046514655:w</title>
<path fill="none" stroke="black" stroke-dasharray="1,5" d="M648,-77C695.307,-77 704.018,-44.1559 745.898,-39.5372"/>
<polygon fill="black" stroke="black" points="756,-39 746.253,-44.0247 751.007,-39.2655 746.014,-39.5311 746.014,-39.5311 746.014,-39.5311 751.007,-39.2655 745.775,-35.0374 756,-39 756,-39"/>
</g>
</g>
</svg>
