<?xml version="1.0" encoding="UTF-8" standalone="no"?>
<!DOCTYPE svg PUBLIC "-//W3C//DTD SVG 1.1//EN"
 "http://www.w3.org/Graphics/SVG/1.1/DTD/svg11.dtd">
<!-- Generated by graphviz version 2.41.20171026.1811 (20171026.1811)
 -->
<!-- Title: prolog Pages: 1 -->
<svg width="1326pt" height="1014pt"
 viewBox="0.00 0.00 1326.00 1014.00" xmlns="http://www.w3.org/2000/svg" xmlns:xlink="http://www.w3.org/1999/xlink">
<g id="graph0" class="graph" transform="scale(1 1) rotate(0) translate(4 1010)">
<title>prolog</title>
<polygon fill="white" stroke="transparent" points="-4,4 -4,-1010 1322,-1010 1322,4 -4,4"/>
<g id="clust1" class="cluster">
<title>cluster_leftcol</title>
<polygon fill="none" stroke="gray" points="8,-448 8,-520 312,-520 312,-448 8,-448"/>
<text text-anchor="start" x="146.66" y="-508" font-family="Helvetica,sans-Serif" font-style="italic" font-size="10.00">ebuild</text>
</g>
<g id="clust2" class="cluster">
<title>cluster_midcol</title>
<polygon fill="none" stroke="gray" points="396,-57 396,-953 922,-953 922,-57 396,-57"/>
<text text-anchor="start" x="627.88" y="-941" font-family="Helvetica,sans-Serif" font-style="italic" font-size="10.00">dependencies</text>
</g>
<g id="clust3" class="cluster">
<title>cluster_compile</title>
<polygon fill="#eeeeee" stroke="gray" points="404,-351 404,-925 914,-925 914,-351 404,-351"/>
<text text-anchor="start" x="641.78" y="-913" font-family="Helvetica,sans-Serif" font-style="italic" font-size="10.00">compile</text>
</g>
<g id="clust8" class="cluster">
<title>cluster_compileandrun</title>
<polygon fill="#eeeeee" stroke="gray" points="662,-65 662,-331 914,-331 914,-65 662,-65"/>
<text text-anchor="start" x="752.44" y="-319" font-family="Helvetica,sans-Serif" font-style="italic" font-size="10.00">compile and run</text>
</g>
<g id="clust12" class="cluster">
<title>cluster_choices</title>
<polygon fill="none" stroke="gray" points="1006,-8 1006,-998 1310,-998 1310,-8 1006,-8"/>
<text text-anchor="start" x="1133.82" y="-986" font-family="Helvetica,sans-Serif" font-style="italic" font-size="10.00">candidates</text>
</g>
<!-- id -->
<g id="node1" class="node">
<title>id</title>
<g id="a_node1"><a xlink:href="../sci-physics/bullet-2.86.svg" xlink:title="sci&#45;physics/bullet&#45;2.86">
<ellipse fill="none" stroke="red" cx="160" cy="-474" rx="144" ry="18"/>
<text text-anchor="middle" x="160" y="-471" font-family="Helvetica,sans-Serif" font-size="10.00">sci&#45;physics/bullet&#45;2.86</text>
</a>
</g>
</g>
<!-- dependency2098 -->
<g id="node2" class="node">
<title>dependency2098</title>
<polygon fill="none" stroke="red" points="420,-593 420,-637 511,-637 511,-593 420,-593"/>
<text text-anchor="start" x="430.77" y="-612" font-family="Helvetica,sans-Serif" font-size="10.00">use_conditional</text>
<polygon fill="none" stroke="red" points="511,-615 511,-637 554,-637 554,-615 511,-615"/>
<text text-anchor="start" x="515.55" y="-623" font-family="Helvetica,sans-Serif" font-size="10.00">positive</text>
<polygon fill="none" stroke="red" points="511,-593 511,-615 554,-615 554,-593 511,-593"/>
<text text-anchor="start" x="524.44" y="-601" font-family="Helvetica,sans-Serif" font-size="10.00">doc</text>
</g>
<!-- id&#45;&gt;dependency2098 -->
<g id="edge2" class="edge">
<title>id:e&#45;&gt;dependency2098:w</title>
<path fill="none" stroke="black" d="M305,-474C379.73,-474 337.08,-602.09 400.8,-614.1"/>
<polygon fill="black" stroke="black" points="411,-615 400.64,-618.6 406.02,-614.56 401.04,-614.12 401.04,-614.12 401.04,-614.12 406.02,-614.56 401.43,-609.64 411,-615 411,-615"/>
</g>
<!-- dependency2100 -->
<g id="node4" class="node">
<title>dependency2100</title>
<polygon fill="none" stroke="blue" points="678,-573 678,-683 783,-683 783,-573 678,-573"/>
<text text-anchor="start" x="708.82" y="-625" font-family="Helvetica,sans-Serif" font-size="10.00">pack_dep</text>
<polygon fill="none" stroke="blue" points="783,-661 783,-683 893,-683 893,-661 783,-661"/>
<text text-anchor="start" x="832.44" y="-669" font-family="Helvetica,sans-Serif" font-size="10.00">no</text>
<polygon fill="none" stroke="blue" points="783,-639 783,-661 893,-661 893,-639 783,-639"/>
<text text-anchor="start" x="821.89" y="-647" font-family="Helvetica,sans-Serif" font-size="10.00">dev&#45;util</text>
<polygon fill="none" stroke="blue" points="783,-617 783,-639 893,-639 893,-617 783,-617"/>
<text text-anchor="start" x="823.28" y="-625" font-family="Helvetica,sans-Serif" font-size="10.00">cmake</text>
<polygon fill="none" stroke="blue" points="783,-595 783,-617 893,-617 893,-595 783,-595"/>
<text text-anchor="start" x="809.94" y="-603" font-family="Helvetica,sans-Serif" font-size="10.00">greaterequal</text>
<polygon fill="none" stroke="blue" points="783,-573 783,-595 893,-595 893,-573 783,-573"/>
<text text-anchor="start" x="826.88" y="-581" font-family="Helvetica,sans-Serif" font-size="10.00">3.9.6</text>
</g>
<!-- id&#45;&gt;dependency2100 -->
<g id="edge3" class="edge">
<title>id:e&#45;&gt;dependency2100:w</title>
<path fill="none" stroke="black" d="M488,-333C521,-327.38 536.33,-325.51 562,-347 661.77,-430.52 542.01,-617.78 658.97,-627.6"/>
<polygon fill="black" stroke="black" points="669,-628 658.83,-632.1 664,-627.8 659.01,-627.6 659.01,-627.6 659.01,-627.6 664,-627.8 659.19,-623.1 669,-628 669,-628"/>
</g>
<!-- dependency2101 -->
<g id="node5" class="node">
<title>dependency2101</title>
<polygon fill="none" stroke="blue" points="678,-363 678,-461 783,-461 783,-363 678,-363"/>
<text text-anchor="start" x="708.82" y="-409" font-family="Helvetica,sans-Serif" font-size="10.00">pack_dep</text>
<polygon fill="none" stroke="blue" points="783,-439 783,-461 893,-461 893,-439 783,-439"/>
<text text-anchor="start" x="832.44" y="-447" font-family="Helvetica,sans-Serif" font-size="10.00">no</text>
<polygon fill="none" stroke="blue" points="783,-417 783,-439 893,-439 893,-417 783,-417"/>
<text text-anchor="start" x="816.89" y="-425" font-family="Helvetica,sans-Serif" font-size="10.00">sys&#45;devel</text>
<polygon fill="none" stroke="blue" points="783,-395 783,-417 893,-417 893,-395 783,-395"/>
<text text-anchor="start" x="825.78" y="-403" font-family="Helvetica,sans-Serif" font-size="10.00">make</text>
<polygon fill="none" stroke="blue" points="783,-373 783,-395 893,-395 893,-373 783,-373"/>
<text text-anchor="start" x="826.88" y="-381" font-family="Helvetica,sans-Serif" font-size="10.00">none</text>
<polygon fill="none" stroke="blue" points="783,-363 783,-373 893,-373 893,-363 783,-363"/>
</g>
<!-- id&#45;&gt;dependency2101 -->
<g id="edge4" class="edge">
<title>id:e&#45;&gt;dependency2101:w</title>
<path fill="none" stroke="black" d="M488,-333C521,-327.38 530.75,-335.01 562,-347 610.6,-365.65 613.22,-406.3 658.91,-411.46"/>
<polygon fill="black" stroke="black" points="669,-412 658.77,-415.96 664.01,-411.73 659.01,-411.46 659.01,-411.46 659.01,-411.46 664.01,-411.73 659.26,-406.97 669,-412 669,-412"/>
</g>
<!-- dependency2102 -->
<g id="node6" class="node">
<title>dependency2102</title>
<polygon fill="none" stroke="blue" points="678,-201 678,-299 783,-299 783,-201 678,-201"/>
<text text-anchor="start" x="708.82" y="-247" font-family="Helvetica,sans-Serif" font-size="10.00">pack_dep</text>
<polygon fill="none" stroke="blue" points="783,-277 783,-299 893,-299 893,-277 783,-277"/>
<text text-anchor="start" x="832.44" y="-285" font-family="Helvetica,sans-Serif" font-size="10.00">no</text>
<polygon fill="none" stroke="blue" points="783,-255 783,-277 893,-277 893,-255 783,-255"/>
<text text-anchor="start" x="815.22" y="-263" font-family="Helvetica,sans-Serif" font-size="10.00">media&#45;libs</text>
<polygon fill="none" stroke="blue" points="783,-233 783,-255 893,-255 893,-233 783,-233"/>
<text text-anchor="start" x="821.33" y="-241" font-family="Helvetica,sans-Serif" font-size="10.00">freeglut</text>
<polygon fill="none" stroke="blue" points="783,-211 783,-233 893,-233 893,-211 783,-211"/>
<text text-anchor="start" x="826.88" y="-219" font-family="Helvetica,sans-Serif" font-size="10.00">none</text>
<polygon fill="none" stroke="blue" points="783,-201 783,-211 893,-211 893,-201 783,-201"/>
</g>
<!-- id&#45;&gt;dependency2102 -->
<g id="edge5" class="edge">
<title>id:e&#45;&gt;dependency2102:w</title>
<path fill="none" stroke="black" d="M488,-333C568.77,-319.24 579.27,-259.82 650.6,-251.08"/>
<ellipse fill="none" stroke="black" cx="665.01" cy="-250.23" rx="4" ry="4"/>
<polygon fill="black" stroke="black" points="661.01,-250.47 651.29,-255.54 656.02,-250.76 651.03,-251.05 651.03,-251.05 651.03,-251.05 656.02,-250.76 650.77,-246.56 661.01,-250.47 661.01,-250.47"/>
</g>
<!-- dependency2103 -->
<g id="node7" class="node">
<title>dependency2103</title>
<polygon fill="none" stroke="blue" points="678,-77 678,-175 783,-175 783,-77 678,-77"/>
<text text-anchor="start" x="708.82" y="-123" font-family="Helvetica,sans-Serif" font-size="10.00">pack_dep</text>
<polygon fill="none" stroke="blue" points="783,-153 783,-175 893,-175 893,-153 783,-153"/>
<text text-anchor="start" x="832.44" y="-161" font-family="Helvetica,sans-Serif" font-size="10.00">no</text>
<polygon fill="none" stroke="blue" points="783,-131 783,-153 893,-153 893,-131 783,-131"/>
<text text-anchor="start" x="824.67" y="-139" font-family="Helvetica,sans-Serif" font-size="10.00">virtual</text>
<polygon fill="none" stroke="blue" points="783,-109 783,-131 893,-131 893,-109 783,-109"/>
<text text-anchor="start" x="822.99" y="-117" font-family="Helvetica,sans-Serif" font-size="10.00">opengl</text>
<polygon fill="none" stroke="blue" points="783,-87 783,-109 893,-109 893,-87 783,-87"/>
<text text-anchor="start" x="826.88" y="-95" font-family="Helvetica,sans-Serif" font-size="10.00">none</text>
<polygon fill="none" stroke="blue" points="783,-77 783,-87 893,-87 893,-77 783,-77"/>
</g>
<!-- id&#45;&gt;dependency2103 -->
<g id="edge6" class="edge">
<title>id:e&#45;&gt;dependency2103:w</title>
<path fill="none" stroke="black" d="M488,-333C602,-313.58 552.89,-145.55 650.84,-127.56"/>
<ellipse fill="none" stroke="black" cx="665.01" cy="-126.34" rx="4" ry="4"/>
<polygon fill="black" stroke="black" points="661.03,-126.68 651.45,-132.02 656.05,-127.11 651.07,-127.54 651.07,-127.54 651.07,-127.54 656.05,-127.11 650.68,-123.06 661.03,-126.68 661.03,-126.68"/>
<path fill="none" stroke="black" d="M305,-474C374.44,-474 336.86,-383.39 396,-347 430.48,-325.78 446.09,-339.8 486,-333"/>
</g>
<!-- dependency2099 -->
<g id="node3" class="node">
<title>dependency2099</title>
<polygon fill="none" stroke="blue" points="678,-795 678,-893 783,-893 783,-795 678,-795"/>
<text text-anchor="start" x="708.82" y="-841" font-family="Helvetica,sans-Serif" font-size="10.00">pack_dep</text>
<polygon fill="none" stroke="blue" points="783,-871 783,-893 893,-893 893,-871 783,-871"/>
<text text-anchor="start" x="832.44" y="-879" font-family="Helvetica,sans-Serif" font-size="10.00">no</text>
<polygon fill="none" stroke="blue" points="783,-849 783,-871 893,-871 893,-849 783,-849"/>
<text text-anchor="start" x="819.94" y="-857" font-family="Helvetica,sans-Serif" font-size="10.00">app&#45;doc</text>
<polygon fill="none" stroke="blue" points="783,-827 783,-849 893,-849 893,-827 783,-827"/>
<text text-anchor="start" x="819.1" y="-835" font-family="Helvetica,sans-Serif" font-size="10.00">doxygen</text>
<polygon fill="none" stroke="blue" points="783,-805 783,-827 893,-827 893,-805 783,-805"/>
<text text-anchor="start" x="826.88" y="-813" font-family="Helvetica,sans-Serif" font-size="10.00">none</text>
<polygon fill="none" stroke="blue" points="783,-795 783,-805 893,-805 893,-795 783,-795"/>
</g>
<!-- dependency2098&#45;&gt;dependency2099 -->
<g id="edge1" class="edge">
<title>dependency2098:e&#45;&gt;dependency2099:w</title>
<path fill="none" stroke="black" stroke-dasharray="5,2" d="M562,-615C670.72,-615 564.01,-829.48 658.84,-843.3"/>
<polygon fill="black" stroke="black" points="669,-844 658.71,-847.8 664.01,-843.66 659.02,-843.31 659.02,-843.31 659.02,-843.31 664.01,-843.66 659.33,-838.82 669,-844 669,-844"/>
</g>
<!-- choice97112112451001119947100111120121103101110454946564649514511449 -->
<g id="node8" class="node">
<title>choice97112112451001119947100111120121103101110454946564649514511449</title>
<g id="a_node8"><a xlink:href="../app-doc/doxygen-1.8.13-r1.svg" xlink:title="app&#45;doc/doxygen&#45;1.8.13&#45;r1">
<ellipse fill="none" stroke="red" cx="1158" cy="-952" rx="144" ry="18"/>
<text text-anchor="middle" x="1158" y="-949" font-family="Helvetica,sans-Serif" font-size="10.00">app&#45;doc/doxygen&#45;1.8.13&#45;r1</text>
</a>
</g>
</g>
<!-- dependency2099&#45;&gt;choice97112112451001119947100111120121103101110454946564649514511449 -->
<g id="edge7" class="edge">
<title>dependency2099:e&#45;&gt;choice97112112451001119947100111120121103101110454946564649514511449:w</title>
<path fill="none" stroke="black" stroke-dasharray="1,5" d="M907,-844C970.58,-844 948.58,-940.51 1002.79,-951.07"/>
<polygon fill="black" stroke="black" points="1013,-952 1002.63,-955.57 1008.02,-951.54 1003.04,-951.09 1003.04,-951.09 1003.04,-951.09 1008.02,-951.54 1003.45,-946.61 1013,-952 1013,-952"/>
</g>
<!-- choice97112112451001119947100111120121103101110454946564649524511449 -->
<g id="node9" class="node">
<title>choice97112112451001119947100111120121103101110454946564649524511449</title>
<g id="a_node9"><a xlink:href="../app-doc/doxygen-1.8.14-r1.svg" xlink:title="app&#45;doc/doxygen&#45;1.8.14&#45;r1">
<ellipse fill="none" stroke="red" cx="1158" cy="-898" rx="144" ry="18"/>
<text text-anchor="middle" x="1158" y="-895" font-family="Helvetica,sans-Serif" font-size="10.00">app&#45;doc/doxygen&#45;1.8.14&#45;r1</text>
</a>
</g>
</g>
<!-- dependency2099&#45;&gt;choice97112112451001119947100111120121103101110454946564649524511449 -->
<g id="edge8" class="edge">
<title>dependency2099:e&#45;&gt;choice97112112451001119947100111120121103101110454946564649524511449:w</title>
<path fill="none" stroke="black" stroke-dasharray="1,5" d="M907,-844C956.26,-844 959.85,-890.87 1002.86,-897.28"/>
<polygon fill="black" stroke="black" points="1013,-898 1002.71,-901.78 1008.01,-897.64 1003.03,-897.29 1003.03,-897.29 1003.03,-897.29 1008.01,-897.64 1003.35,-892.8 1013,-898 1013,-898"/>
</g>
<!-- choice971121124510011199471001111201211031011104557575757 -->
<g id="node10" class="node">
<title>choice971121124510011199471001111201211031011104557575757</title>
<g id="a_node10"><a xlink:href="../app-doc/doxygen-9999.svg" xlink:title="app&#45;doc/doxygen&#45;9999">
<ellipse fill="none" stroke="red" cx="1158" cy="-844" rx="144" ry="18"/>
<text text-anchor="middle" x="1158" y="-841" font-family="Helvetica,sans-Serif" font-size="10.00">app&#45;doc/doxygen&#45;9999</text>
</a>
</g>
</g>
<!-- dependency2099&#45;&gt;choice971121124510011199471001111201211031011104557575757 -->
<g id="edge9" class="edge">
<title>dependency2099:e&#45;&gt;choice971121124510011199471001111201211031011104557575757:w</title>
<path fill="none" stroke="black" stroke-dasharray="1,5" d="M907,-844C950.43,-844 963.83,-844 1002.57,-844"/>
<polygon fill="black" stroke="black" points="1013,-844 1003,-848.5 1008,-844 1003,-844 1003,-844 1003,-844 1008,-844 1003,-839.5 1013,-844 1013,-844"/>
</g>
<!-- choice1001011184511711610510847991099710710145514649504648951149950 -->
<g id="node11" class="node">
<title>choice1001011184511711610510847991099710710145514649504648951149950</title>
<g id="a_node11"><a xlink:href="../dev-util/cmake-3.12.0_rc2.svg" xlink:title="dev&#45;util/cmake&#45;3.12.0_rc2">
<ellipse fill="none" stroke="red" cx="1158" cy="-790" rx="144" ry="18"/>
<text text-anchor="middle" x="1158" y="-787" font-family="Helvetica,sans-Serif" font-size="10.00">dev&#45;util/cmake&#45;3.12.0_rc2</text>
</a>
</g>
</g>
<!-- dependency2100&#45;&gt;choice1001011184511711610510847991099710710145514649504648951149950 -->
<g id="edge10" class="edge">
<title>dependency2100:e&#45;&gt;choice1001011184511711610510847991099710710145514649504648951149950:w</title>
<path fill="none" stroke="black" stroke-dasharray="1,5" d="M907,-628C989.35,-628 932.36,-776.38 1002.73,-789.13"/>
<polygon fill="black" stroke="black" points="1013,-790 1002.66,-793.64 1008.02,-789.58 1003.04,-789.15 1003.04,-789.15 1003.04,-789.15 1008.02,-789.58 1003.42,-784.67 1013,-790 1013,-790"/>
</g>
<!-- choice1001011184511711610510847991099710710145514649484651 -->
<g id="node12" class="node">
<title>choice1001011184511711610510847991099710710145514649484651</title>
<g id="a_node12"><a xlink:href="../dev-util/cmake-3.10.3.svg" xlink:title="dev&#45;util/cmake&#45;3.10.3">
<ellipse fill="none" stroke="red" cx="1158" cy="-736" rx="144" ry="18"/>
<text text-anchor="middle" x="1158" y="-733" font-family="Helvetica,sans-Serif" font-size="10.00">dev&#45;util/cmake&#45;3.10.3</text>
</a>
</g>
</g>
<!-- dependency2100&#45;&gt;choice1001011184511711610510847991099710710145514649484651 -->
<g id="edge11" class="edge">
<title>dependency2100:e&#45;&gt;choice1001011184511711610510847991099710710145514649484651:w</title>
<path fill="none" stroke="black" stroke-dasharray="1,5" d="M907,-628C970.58,-628 948.58,-724.51 1002.79,-735.07"/>
<polygon fill="black" stroke="black" points="1013,-736 1002.63,-739.57 1008.02,-735.54 1003.04,-735.09 1003.04,-735.09 1003.04,-735.09 1008.02,-735.54 1003.45,-730.61 1013,-736 1013,-736"/>
</g>
<!-- choice1001011184511711610510847991099710710145514649494651 -->
<g id="node13" class="node">
<title>choice1001011184511711610510847991099710710145514649494651</title>
<g id="a_node13"><a xlink:href="../dev-util/cmake-3.11.3.svg" xlink:title="dev&#45;util/cmake&#45;3.11.3">
<ellipse fill="none" stroke="red" cx="1158" cy="-682" rx="144" ry="18"/>
<text text-anchor="middle" x="1158" y="-679" font-family="Helvetica,sans-Serif" font-size="10.00">dev&#45;util/cmake&#45;3.11.3</text>
</a>
</g>
</g>
<!-- dependency2100&#45;&gt;choice1001011184511711610510847991099710710145514649494651 -->
<g id="edge12" class="edge">
<title>dependency2100:e&#45;&gt;choice1001011184511711610510847991099710710145514649494651:w</title>
<path fill="none" stroke="black" stroke-dasharray="1,5" d="M907,-628C956.26,-628 959.85,-674.87 1002.86,-681.28"/>
<polygon fill="black" stroke="black" points="1013,-682 1002.71,-685.78 1008.01,-681.64 1003.03,-681.29 1003.03,-681.29 1003.03,-681.29 1008.01,-681.64 1003.35,-676.8 1013,-682 1013,-682"/>
</g>
<!-- choice1001011184511711610510847991099710710145514649494652 -->
<g id="node14" class="node">
<title>choice1001011184511711610510847991099710710145514649494652</title>
<g id="a_node14"><a xlink:href="../dev-util/cmake-3.11.4.svg" xlink:title="dev&#45;util/cmake&#45;3.11.4">
<ellipse fill="none" stroke="red" cx="1158" cy="-628" rx="144" ry="18"/>
<text text-anchor="middle" x="1158" y="-625" font-family="Helvetica,sans-Serif" font-size="10.00">dev&#45;util/cmake&#45;3.11.4</text>
</a>
</g>
</g>
<!-- dependency2100&#45;&gt;choice1001011184511711610510847991099710710145514649494652 -->
<g id="edge13" class="edge">
<title>dependency2100:e&#45;&gt;choice1001011184511711610510847991099710710145514649494652:w</title>
<path fill="none" stroke="black" stroke-dasharray="1,5" d="M907,-628C950.43,-628 963.83,-628 1002.57,-628"/>
<polygon fill="black" stroke="black" points="1013,-628 1003,-632.5 1008,-628 1003,-628 1003,-628 1003,-628 1008,-628 1003,-623.5 1013,-628 1013,-628"/>
</g>
<!-- choice1001011184511711610510847991099710710145514649504648951149951 -->
<g id="node15" class="node">
<title>choice1001011184511711610510847991099710710145514649504648951149951</title>
<g id="a_node15"><a xlink:href="../dev-util/cmake-3.12.0_rc3.svg" xlink:title="dev&#45;util/cmake&#45;3.12.0_rc3">
<ellipse fill="none" stroke="red" cx="1158" cy="-574" rx="144" ry="18"/>
<text text-anchor="middle" x="1158" y="-571" font-family="Helvetica,sans-Serif" font-size="10.00">dev&#45;util/cmake&#45;3.12.0_rc3</text>
</a>
</g>
</g>
<!-- dependency2100&#45;&gt;choice1001011184511711610510847991099710710145514649504648951149951 -->
<g id="edge14" class="edge">
<title>dependency2100:e&#45;&gt;choice1001011184511711610510847991099710710145514649504648951149951:w</title>
<path fill="none" stroke="black" stroke-dasharray="1,5" d="M907,-628C956.26,-628 959.85,-581.13 1002.86,-574.72"/>
<polygon fill="black" stroke="black" points="1013,-574 1003.35,-579.2 1008.01,-574.36 1003.03,-574.71 1003.03,-574.71 1003.03,-574.71 1008.01,-574.36 1002.71,-570.22 1013,-574 1013,-574"/>
</g>
<!-- choice10010111845117116105108479910997107101455146574654 -->
<g id="node16" class="node">
<title>choice10010111845117116105108479910997107101455146574654</title>
<g id="a_node16"><a xlink:href="../dev-util/cmake-3.9.6.svg" xlink:title="dev&#45;util/cmake&#45;3.9.6">
<ellipse fill="none" stroke="red" cx="1158" cy="-520" rx="144" ry="18"/>
<text text-anchor="middle" x="1158" y="-517" font-family="Helvetica,sans-Serif" font-size="10.00">dev&#45;util/cmake&#45;3.9.6</text>
</a>
</g>
</g>
<!-- dependency2100&#45;&gt;choice10010111845117116105108479910997107101455146574654 -->
<g id="edge15" class="edge">
<title>dependency2100:e&#45;&gt;choice10010111845117116105108479910997107101455146574654:w</title>
<path fill="none" stroke="black" stroke-dasharray="1,5" d="M907,-628C970.58,-628 948.58,-531.49 1002.79,-520.93"/>
<polygon fill="black" stroke="black" points="1013,-520 1003.45,-525.39 1008.02,-520.46 1003.04,-520.91 1003.04,-520.91 1003.04,-520.91 1008.02,-520.46 1002.63,-516.43 1013,-520 1013,-520"/>
</g>
<!-- choice115121115451001011181011084710997107101455246494511449 -->
<g id="node17" class="node">
<title>choice115121115451001011181011084710997107101455246494511449</title>
<g id="a_node17"><a xlink:href="../sys-devel/make-4.1-r1.svg" xlink:title="sys&#45;devel/make&#45;4.1&#45;r1">
<ellipse fill="none" stroke="red" cx="1158" cy="-466" rx="144" ry="18"/>
<text text-anchor="middle" x="1158" y="-463" font-family="Helvetica,sans-Serif" font-size="10.00">sys&#45;devel/make&#45;4.1&#45;r1</text>
</a>
</g>
</g>
<!-- dependency2101&#45;&gt;choice115121115451001011181011084710997107101455246494511449 -->
<g id="edge16" class="edge">
<title>dependency2101:e&#45;&gt;choice115121115451001011181011084710997107101455246494511449:w</title>
<path fill="none" stroke="black" stroke-dasharray="1,5" d="M907,-412C956.26,-412 959.85,-458.87 1002.86,-465.28"/>
<polygon fill="black" stroke="black" points="1013,-466 1002.71,-469.78 1008.01,-465.64 1003.03,-465.29 1003.03,-465.29 1003.03,-465.29 1008.01,-465.64 1003.35,-460.8 1013,-466 1013,-466"/>
</g>
<!-- choice115121115451001011181011084710997107101455246504649 -->
<g id="node18" class="node">
<title>choice115121115451001011181011084710997107101455246504649</title>
<g id="a_node18"><a xlink:href="../sys-devel/make-4.2.1.svg" xlink:title="sys&#45;devel/make&#45;4.2.1">
<ellipse fill="none" stroke="red" cx="1158" cy="-412" rx="144" ry="18"/>
<text text-anchor="middle" x="1158" y="-409" font-family="Helvetica,sans-Serif" font-size="10.00">sys&#45;devel/make&#45;4.2.1</text>
</a>
</g>
</g>
<!-- dependency2101&#45;&gt;choice115121115451001011181011084710997107101455246504649 -->
<g id="edge17" class="edge">
<title>dependency2101:e&#45;&gt;choice115121115451001011181011084710997107101455246504649:w</title>
<path fill="none" stroke="black" stroke-dasharray="1,5" d="M907,-412C950.43,-412 963.83,-412 1002.57,-412"/>
<polygon fill="black" stroke="black" points="1013,-412 1003,-416.5 1008,-412 1003,-412 1003,-412 1003,-412 1008,-412 1003,-407.5 1013,-412 1013,-412"/>
</g>
<!-- choice1151211154510010111810110847109971071014552465046494511450 -->
<g id="node19" class="node">
<title>choice1151211154510010111810110847109971071014552465046494511450</title>
<g id="a_node19"><a xlink:href="../sys-devel/make-4.2.1-r2.svg" xlink:title="sys&#45;devel/make&#45;4.2.1&#45;r2">
<ellipse fill="none" stroke="red" cx="1158" cy="-358" rx="144" ry="18"/>
<text text-anchor="middle" x="1158" y="-355" font-family="Helvetica,sans-Serif" font-size="10.00">sys&#45;devel/make&#45;4.2.1&#45;r2</text>
</a>
</g>
</g>
<!-- dependency2101&#45;&gt;choice1151211154510010111810110847109971071014552465046494511450 -->
<g id="edge18" class="edge">
<title>dependency2101:e&#45;&gt;choice1151211154510010111810110847109971071014552465046494511450:w</title>
<path fill="none" stroke="black" stroke-dasharray="1,5" d="M907,-412C956.26,-412 959.85,-365.13 1002.86,-358.72"/>
<polygon fill="black" stroke="black" points="1013,-358 1003.35,-363.2 1008.01,-358.36 1003.03,-358.71 1003.03,-358.71 1003.03,-358.71 1008.01,-358.36 1002.71,-354.22 1013,-358 1013,-358"/>
</g>
<!-- choice1151211154510010111810110847109971071014552465046494511451 -->
<g id="node20" class="node">
<title>choice1151211154510010111810110847109971071014552465046494511451</title>
<g id="a_node20"><a xlink:href="../sys-devel/make-4.2.1-r3.svg" xlink:title="sys&#45;devel/make&#45;4.2.1&#45;r3">
<ellipse fill="none" stroke="red" cx="1158" cy="-304" rx="144" ry="18"/>
<text text-anchor="middle" x="1158" y="-301" font-family="Helvetica,sans-Serif" font-size="10.00">sys&#45;devel/make&#45;4.2.1&#45;r3</text>
</a>
</g>
</g>
<!-- dependency2101&#45;&gt;choice1151211154510010111810110847109971071014552465046494511451 -->
<g id="edge19" class="edge">
<title>dependency2101:e&#45;&gt;choice1151211154510010111810110847109971071014552465046494511451:w</title>
<path fill="none" stroke="black" stroke-dasharray="1,5" d="M907,-412C970.58,-412 948.58,-315.49 1002.79,-304.93"/>
<polygon fill="black" stroke="black" points="1013,-304 1003.45,-309.39 1008.02,-304.46 1003.04,-304.91 1003.04,-304.91 1003.04,-304.91 1008.02,-304.46 1002.63,-300.43 1013,-304 1013,-304"/>
</g>
<!-- choice109101100105974510810598115471021141011011031081171164550465646494511449 -->
<g id="node21" class="node">
<title>choice109101100105974510810598115471021141011011031081171164550465646494511449</title>
<g id="a_node21"><a xlink:href="../media-libs/freeglut-2.8.1-r1.svg" xlink:title="media&#45;libs/freeglut&#45;2.8.1&#45;r1">
<ellipse fill="none" stroke="red" cx="1158" cy="-250" rx="144" ry="18"/>
<text text-anchor="middle" x="1158" y="-247" font-family="Helvetica,sans-Serif" font-size="10.00">media&#45;libs/freeglut&#45;2.8.1&#45;r1</text>
</a>
</g>
</g>
<!-- dependency2102&#45;&gt;choice109101100105974510810598115471021141011011031081171164550465646494511449 -->
<g id="edge20" class="edge">
<title>dependency2102:e&#45;&gt;choice109101100105974510810598115471021141011011031081171164550465646494511449:w</title>
<path fill="none" stroke="black" stroke-dasharray="1,5" d="M907,-250C950.43,-250 963.83,-250 1002.57,-250"/>
<polygon fill="black" stroke="black" points="1013,-250 1003,-254.5 1008,-250 1003,-250 1003,-250 1003,-250 1008,-250 1003,-245.5 1013,-250 1013,-250"/>
</g>
<!-- choice10910110010597451081059811547102114101101103108117116455146484648 -->
<g id="node22" class="node">
<title>choice10910110010597451081059811547102114101101103108117116455146484648</title>
<g id="a_node22"><a xlink:href="../media-libs/freeglut-3.0.0.svg" xlink:title="media&#45;libs/freeglut&#45;3.0.0">
<ellipse fill="none" stroke="red" cx="1158" cy="-196" rx="144" ry="18"/>
<text text-anchor="middle" x="1158" y="-193" font-family="Helvetica,sans-Serif" font-size="10.00">media&#45;libs/freeglut&#45;3.0.0</text>
</a>
</g>
</g>
<!-- dependency2102&#45;&gt;choice10910110010597451081059811547102114101101103108117116455146484648 -->
<g id="edge21" class="edge">
<title>dependency2102:e&#45;&gt;choice10910110010597451081059811547102114101101103108117116455146484648:w</title>
<path fill="none" stroke="black" stroke-dasharray="1,5" d="M907,-250C956.26,-250 959.85,-203.13 1002.86,-196.72"/>
<polygon fill="black" stroke="black" points="1013,-196 1003.35,-201.2 1008.01,-196.36 1003.03,-196.71 1003.03,-196.71 1003.03,-196.71 1008.01,-196.36 1002.71,-192.22 1013,-196 1013,-196"/>
</g>
<!-- choice118105114116117971084711111210111010310845554648 -->
<g id="node23" class="node">
<title>choice118105114116117971084711111210111010310845554648</title>
<g id="a_node23"><a xlink:href="../virtual/opengl-7.0.svg" xlink:title="virtual/opengl&#45;7.0">
<ellipse fill="none" stroke="red" cx="1158" cy="-142" rx="144" ry="18"/>
<text text-anchor="middle" x="1158" y="-139" font-family="Helvetica,sans-Serif" font-size="10.00">virtual/opengl&#45;7.0</text>
</a>
</g>
</g>
<!-- dependency2103&#45;&gt;choice118105114116117971084711111210111010310845554648 -->
<g id="edge22" class="edge">
<title>dependency2103:e&#45;&gt;choice118105114116117971084711111210111010310845554648:w</title>
<path fill="none" stroke="black" stroke-dasharray="1,5" d="M907,-126C951.11,-126 963.56,-139.71 1002.97,-141.75"/>
<polygon fill="black" stroke="black" points="1013,-142 1002.89,-146.25 1008,-141.87 1003,-141.75 1003,-141.75 1003,-141.75 1008,-141.87 1003.12,-137.25 1013,-142 1013,-142"/>
</g>
<!-- choice1181051141161179710847111112101110103108455546484511449 -->
<g id="node24" class="node">
<title>choice1181051141161179710847111112101110103108455546484511449</title>
<g id="a_node24"><a xlink:href="../virtual/opengl-7.0-r1.svg" xlink:title="virtual/opengl&#45;7.0&#45;r1">
<ellipse fill="none" stroke="red" cx="1158" cy="-88" rx="144" ry="18"/>
<text text-anchor="middle" x="1158" y="-85" font-family="Helvetica,sans-Serif" font-size="10.00">virtual/opengl&#45;7.0&#45;r1</text>
</a>
</g>
</g>
<!-- dependency2103&#45;&gt;choice1181051141161179710847111112101110103108455546484511449 -->
<g id="edge23" class="edge">
<title>dependency2103:e&#45;&gt;choice1181051141161179710847111112101110103108455546484511449:w</title>
<path fill="none" stroke="black" stroke-dasharray="1,5" d="M907,-126C953.43,-126 961.87,-93.29 1002.81,-88.57"/>
<polygon fill="black" stroke="black" points="1013,-88 1003.27,-93.05 1008.01,-88.28 1003.02,-88.56 1003.02,-88.56 1003.02,-88.56 1008.01,-88.28 1002.77,-84.06 1013,-88 1013,-88"/>
</g>
<!-- choice1181051141161179710847111112101110103108455546484511450 -->
<g id="node25" class="node">
<title>choice1181051141161179710847111112101110103108455546484511450</title>
<g id="a_node25"><a xlink:href="../virtual/opengl-7.0-r2.svg" xlink:title="virtual/opengl&#45;7.0&#45;r2">
<ellipse fill="none" stroke="red" cx="1158" cy="-34" rx="144" ry="18"/>
<text text-anchor="middle" x="1158" y="-31" font-family="Helvetica,sans-Serif" font-size="10.00">virtual/opengl&#45;7.0&#45;r2</text>
</a>
</g>
</g>
<!-- dependency2103&#45;&gt;choice1181051141161179710847111112101110103108455546484511450 -->
<g id="edge24" class="edge">
<title>dependency2103:e&#45;&gt;choice1181051141161179710847111112101110103108455546484511450:w</title>
<path fill="none" stroke="black" stroke-dasharray="1,5" d="M907,-126C965.73,-126 952.54,-44.47 1002.84,-34.91"/>
<polygon fill="black" stroke="black" points="1013,-34 1003.44,-39.37 1008.02,-34.45 1003.04,-34.89 1003.04,-34.89 1003.04,-34.89 1008.02,-34.45 1002.64,-30.41 1013,-34 1013,-34"/>
</g>
</g>
</svg>
