<?xml version="1.0" encoding="UTF-8" standalone="no"?>
<!DOCTYPE svg PUBLIC "-//W3C//DTD SVG 1.1//EN"
 "http://www.w3.org/Graphics/SVG/1.1/DTD/svg11.dtd">
<!-- Generated by graphviz version 2.41.20171026.1811 (20171026.1811)
 -->
<!-- Title: prolog Pages: 1 -->
<svg width="1068pt" height="673pt"
 viewBox="0.00 0.00 1068.00 673.00" xmlns="http://www.w3.org/2000/svg" xmlns:xlink="http://www.w3.org/1999/xlink">
<g id="graph0" class="graph" transform="scale(1 1) rotate(0) translate(4 669)">
<title>prolog</title>
<polygon fill="white" stroke="transparent" points="-4,4 -4,-669 1064,-669 1064,4 -4,4"/>
<g id="clust1" class="cluster">
<title>cluster_leftcol</title>
<polygon fill="none" stroke="gray" points="8,-228 8,-298 312,-298 312,-228 8,-228"/>
<text text-anchor="start" x="146.66" y="-287" font-family="Helvetica,sans-Serif" font-style="italic" font-size="10.00">ebuild</text>
</g>
<g id="clust2" class="cluster">
<title>cluster_midcol</title>
<polygon fill="none" stroke="gray" points="396,-8 396,-611 664,-611 664,-8 396,-8"/>
<text text-anchor="start" x="498.86" y="-600" font-family="Helvetica,sans-Serif" font-style="italic" font-size="10.00">dependencies</text>
</g>
<g id="clust3" class="cluster">
<title>cluster_compile</title>
<polygon fill="#eeeeee" stroke="gray" points="404,-443 404,-585 656,-585 656,-443 404,-443"/>
<text text-anchor="start" x="512.77" y="-574" font-family="Helvetica,sans-Serif" font-style="italic" font-size="10.00">compile</text>
</g>
<g id="clust5" class="cluster">
<title>cluster_compileandrun</title>
<polygon fill="#eeeeee" stroke="gray" points="404,-16 404,-390 656,-390 656,-16 404,-16"/>
<text text-anchor="start" x="494.42" y="-379" font-family="Helvetica,sans-Serif" font-style="italic" font-size="10.00">compile and run</text>
</g>
<g id="clust10" class="cluster">
<title>cluster_choices</title>
<polygon fill="none" stroke="gray" points="748,-47 748,-657 1052,-657 1052,-47 748,-47"/>
<text text-anchor="start" x="875.82" y="-646" font-family="Helvetica,sans-Serif" font-style="italic" font-size="10.00">candidates</text>
</g>
<!-- id -->
<g id="node1" class="node">
<title>id</title>
<g id="a_node1"><a xlink:href="../sci-physics/h2o-gtk-0.1.svg" xlink:title="sci&#45;physics/h2o&#45;gtk&#45;0.1">
<ellipse fill="none" stroke="red" cx="160" cy="-254" rx="144" ry="18"/>
<text text-anchor="middle" x="160" y="-251" font-family="Helvetica,sans-Serif" font-size="10.00">sci&#45;physics/h2o&#45;gtk&#45;0.1</text>
</a>
</g>
</g>
<!-- dependency457743 -->
<g id="node2" class="node">
<title>dependency457743</title>
<polygon fill="none" stroke="blue" points="420,-455 420,-555 525,-555 525,-455 420,-455"/>
<text text-anchor="start" x="450.82" y="-502" font-family="Helvetica,sans-Serif" font-size="10.00">pack_dep</text>
<polygon fill="none" stroke="blue" points="525,-535 525,-555 635,-555 635,-535 525,-535"/>
<text text-anchor="start" x="574.44" y="-542" font-family="Helvetica,sans-Serif" font-size="10.00">no</text>
<polygon fill="none" stroke="blue" points="525,-515 525,-535 635,-535 635,-515 525,-515"/>
<text text-anchor="start" x="553.03" y="-522" font-family="Helvetica,sans-Serif" font-size="10.00">app&#45;portage</text>
<polygon fill="none" stroke="blue" points="525,-495 525,-515 635,-515 635,-495 525,-495"/>
<text text-anchor="start" x="555.54" y="-502" font-family="Helvetica,sans-Serif" font-size="10.00">elt&#45;patches</text>
<polygon fill="none" stroke="blue" points="525,-475 525,-495 635,-495 635,-475 525,-475"/>
<text text-anchor="start" x="551.92" y="-482" font-family="Helvetica,sans-Serif" font-size="10.00">greaterequal</text>
<polygon fill="none" stroke="blue" points="525,-455 525,-475 635,-475 635,-455 525,-455"/>
<text text-anchor="start" x="557.75" y="-462" font-family="Helvetica,sans-Serif" font-size="10.00">20170422</text>
</g>
<!-- id&#45;&gt;dependency457743 -->
<g id="edge1" class="edge">
<title>id:e&#45;&gt;dependency457743:w</title>
<path fill="none" stroke="black" d="M305,-254C422.55,-254 297.66,-490.51 401.01,-504.37"/>
<polygon fill="black" stroke="black" points="411,-505 400.74,-508.86 406.01,-504.68 401.02,-504.37 401.02,-504.37 401.02,-504.37 406.01,-504.68 401.3,-499.88 411,-505 411,-505"/>
</g>
<!-- dependency457744 -->
<g id="node3" class="node">
<title>dependency457744</title>
<polygon fill="none" stroke="blue" points="420,-270 420,-360 525,-360 525,-270 420,-270"/>
<text text-anchor="start" x="450.82" y="-312" font-family="Helvetica,sans-Serif" font-size="10.00">pack_dep</text>
<polygon fill="none" stroke="blue" points="525,-340 525,-360 635,-360 635,-340 525,-340"/>
<text text-anchor="start" x="574.44" y="-347" font-family="Helvetica,sans-Serif" font-size="10.00">no</text>
<polygon fill="none" stroke="blue" points="525,-320 525,-340 635,-340 635,-320 525,-320"/>
<text text-anchor="start" x="562.21" y="-327" font-family="Helvetica,sans-Serif" font-size="10.00">dev&#45;cpp</text>
<polygon fill="none" stroke="blue" points="525,-300 525,-320 635,-320 635,-300 525,-300"/>
<text text-anchor="start" x="565" y="-307" font-family="Helvetica,sans-Serif" font-size="10.00">gtkmm</text>
<polygon fill="none" stroke="blue" points="525,-280 525,-300 635,-300 635,-280 525,-280"/>
<text text-anchor="start" x="568.88" y="-287" font-family="Helvetica,sans-Serif" font-size="10.00">none</text>
<polygon fill="none" stroke="blue" points="525,-270 525,-280 635,-280 635,-270 525,-270"/>
</g>
<!-- id&#45;&gt;dependency457744 -->
<g id="edge2" class="edge">
<title>id:e&#45;&gt;dependency457744:w</title>
<path fill="none" stroke="black" d="M305,-254C352.56,-254 356.43,-300.7 393.07,-312.38"/>
<ellipse fill="none" stroke="black" cx="407.04" cy="-314.42" rx="4" ry="4"/>
<polygon fill="black" stroke="black" points="403.08,-313.84 392.54,-316.85 398.14,-313.12 393.19,-312.4 393.19,-312.4 393.19,-312.4 398.14,-313.12 393.84,-307.94 403.08,-313.84 403.08,-313.84"/>
</g>
<!-- dependency457745 -->
<g id="node4" class="node">
<title>dependency457745</title>
<polygon fill="none" stroke="blue" points="420,-144 420,-244 525,-244 525,-144 420,-144"/>
<text text-anchor="start" x="450.82" y="-191" font-family="Helvetica,sans-Serif" font-size="10.00">pack_dep</text>
<polygon fill="none" stroke="blue" points="525,-224 525,-244 635,-244 635,-224 525,-224"/>
<text text-anchor="start" x="574.44" y="-231" font-family="Helvetica,sans-Serif" font-size="10.00">no</text>
<polygon fill="none" stroke="blue" points="525,-204 525,-224 635,-224 635,-204 525,-204"/>
<text text-anchor="start" x="564.72" y="-211" font-family="Helvetica,sans-Serif" font-size="10.00">sci&#45;libs</text>
<polygon fill="none" stroke="blue" points="525,-184 525,-204 635,-204 635,-184 525,-184"/>
<text text-anchor="start" x="561.66" y="-191" font-family="Helvetica,sans-Serif" font-size="10.00">libh2oxx</text>
<polygon fill="none" stroke="blue" points="525,-164 525,-184 635,-184 635,-164 525,-164"/>
<text text-anchor="start" x="551.92" y="-171" font-family="Helvetica,sans-Serif" font-size="10.00">greaterequal</text>
<polygon fill="none" stroke="blue" points="525,-144 525,-164 635,-164 635,-144 525,-144"/>
<text text-anchor="start" x="573.05" y="-151" font-family="Helvetica,sans-Serif" font-size="10.00">0.2</text>
</g>
<!-- id&#45;&gt;dependency457745 -->
<g id="edge3" class="edge">
<title>id:e&#45;&gt;dependency457745:w</title>
<path fill="none" stroke="black" d="M305,-254C352.37,-254 356.55,-208.06 393.12,-196.58"/>
<ellipse fill="none" stroke="black" cx="407.04" cy="-194.57" rx="4" ry="4"/>
<polygon fill="black" stroke="black" points="403.08,-195.14 393.83,-201.02 398.13,-195.86 393.18,-196.57 393.18,-196.57 393.18,-196.57 398.13,-195.86 392.54,-192.12 403.08,-195.14 403.08,-195.14"/>
</g>
<!-- dependency457746 -->
<g id="node5" class="node">
<title>dependency457746</title>
<polygon fill="none" stroke="blue" points="420,-28 420,-118 525,-118 525,-28 420,-28"/>
<text text-anchor="start" x="450.82" y="-70" font-family="Helvetica,sans-Serif" font-size="10.00">pack_dep</text>
<polygon fill="none" stroke="blue" points="525,-98 525,-118 635,-118 635,-98 525,-98"/>
<text text-anchor="start" x="574.44" y="-105" font-family="Helvetica,sans-Serif" font-size="10.00">no</text>
<polygon fill="none" stroke="blue" points="525,-78 525,-98 635,-98 635,-78 525,-78"/>
<text text-anchor="start" x="564.72" y="-85" font-family="Helvetica,sans-Serif" font-size="10.00">sci&#45;libs</text>
<polygon fill="none" stroke="blue" points="525,-58 525,-78 635,-78 635,-58 525,-58"/>
<text text-anchor="start" x="563.61" y="-65" font-family="Helvetica,sans-Serif" font-size="10.00">plotmm</text>
<polygon fill="none" stroke="blue" points="525,-38 525,-58 635,-58 635,-38 525,-38"/>
<text text-anchor="start" x="568.88" y="-45" font-family="Helvetica,sans-Serif" font-size="10.00">none</text>
<polygon fill="none" stroke="blue" points="525,-28 525,-38 635,-38 635,-28 525,-28"/>
</g>
<!-- id&#45;&gt;dependency457746 -->
<g id="edge4" class="edge">
<title>id:e&#45;&gt;dependency457746:w</title>
<path fill="none" stroke="black" d="M305,-254C391.31,-254 328.76,-98.87 392.97,-75.84"/>
<ellipse fill="none" stroke="black" cx="407.05" cy="-73.62" rx="4" ry="4"/>
<polygon fill="black" stroke="black" points="403.1,-74.25 393.92,-80.25 398.16,-75.03 393.22,-75.8 393.22,-75.8 393.22,-75.8 398.16,-75.03 392.52,-71.36 403.1,-74.25 403.1,-74.25"/>
</g>
<!-- choice97112112451121111141169710310147101108116451129711699104101115455048495548514955 -->
<g id="node6" class="node">
<title>choice97112112451121111141169710310147101108116451129711699104101115455048495548514955</title>
<g id="a_node6"><a xlink:href="../app-portage/elt-patches-20170317.svg" xlink:title="app&#45;portage/elt&#45;patches&#45;20170317">
<ellipse fill="none" stroke="red" cx="900" cy="-613" rx="144" ry="18"/>
<text text-anchor="middle" x="900" y="-610" font-family="Helvetica,sans-Serif" font-size="10.00">app&#45;portage/elt&#45;patches&#45;20170317</text>
</a>
</g>
</g>
<!-- dependency457743&#45;&gt;choice97112112451121111141169710310147101108116451129711699104101115455048495548514955 -->
<g id="edge5" class="edge">
<title>dependency457743:e&#45;&gt;choice97112112451121111141169710310147101108116451129711699104101115455048495548514955:w</title>
<path fill="none" stroke="black" stroke-dasharray="1,5" d="M649,-505C712.58,-505 690.58,-601.51 744.79,-612.07"/>
<polygon fill="black" stroke="black" points="755,-613 744.63,-616.57 750.02,-612.54 745.04,-612.09 745.04,-612.09 745.04,-612.09 750.02,-612.54 745.45,-607.61 755,-613 755,-613"/>
</g>
<!-- choice97112112451121111141169710310147101108116451129711699104101115455048495548525050 -->
<g id="node7" class="node">
<title>choice97112112451121111141169710310147101108116451129711699104101115455048495548525050</title>
<g id="a_node7"><a xlink:href="../app-portage/elt-patches-20170422.svg" xlink:title="app&#45;portage/elt&#45;patches&#45;20170422">
<ellipse fill="none" stroke="red" cx="900" cy="-559" rx="144" ry="18"/>
<text text-anchor="middle" x="900" y="-556" font-family="Helvetica,sans-Serif" font-size="10.00">app&#45;portage/elt&#45;patches&#45;20170422</text>
</a>
</g>
</g>
<!-- dependency457743&#45;&gt;choice97112112451121111141169710310147101108116451129711699104101115455048495548525050 -->
<g id="edge6" class="edge">
<title>dependency457743:e&#45;&gt;choice97112112451121111141169710310147101108116451129711699104101115455048495548525050:w</title>
<path fill="none" stroke="black" stroke-dasharray="1,5" d="M649,-505C698.26,-505 701.85,-551.87 744.86,-558.28"/>
<polygon fill="black" stroke="black" points="755,-559 744.71,-562.78 750.01,-558.64 745.03,-558.29 745.03,-558.29 745.03,-558.29 750.01,-558.64 745.35,-553.8 755,-559 755,-559"/>
</g>
<!-- choice97112112451121111141169710310147101108116451129711699104101115455048495548564953 -->
<g id="node8" class="node">
<title>choice97112112451121111141169710310147101108116451129711699104101115455048495548564953</title>
<g id="a_node8"><a xlink:href="../app-portage/elt-patches-20170815.svg" xlink:title="app&#45;portage/elt&#45;patches&#45;20170815">
<ellipse fill="none" stroke="red" cx="900" cy="-505" rx="144" ry="18"/>
<text text-anchor="middle" x="900" y="-502" font-family="Helvetica,sans-Serif" font-size="10.00">app&#45;portage/elt&#45;patches&#45;20170815</text>
</a>
</g>
</g>
<!-- dependency457743&#45;&gt;choice97112112451121111141169710310147101108116451129711699104101115455048495548564953 -->
<g id="edge7" class="edge">
<title>dependency457743:e&#45;&gt;choice97112112451121111141169710310147101108116451129711699104101115455048495548564953:w</title>
<path fill="none" stroke="black" stroke-dasharray="1,5" d="M649,-505C692.43,-505 705.83,-505 744.57,-505"/>
<polygon fill="black" stroke="black" points="755,-505 745,-509.5 750,-505 745,-505 745,-505 745,-505 750,-505 745,-500.5 755,-505 755,-505"/>
</g>
<!-- choice971121124511211111411697103101471011081164511297116991041011154550484955485650544649 -->
<g id="node9" class="node">
<title>choice971121124511211111411697103101471011081164511297116991041011154550484955485650544649</title>
<g id="a_node9"><a xlink:href="../app-portage/elt-patches-20170826.1.svg" xlink:title="app&#45;portage/elt&#45;patches&#45;20170826.1">
<ellipse fill="none" stroke="red" cx="900" cy="-451" rx="144" ry="18"/>
<text text-anchor="middle" x="900" y="-448" font-family="Helvetica,sans-Serif" font-size="10.00">app&#45;portage/elt&#45;patches&#45;20170826.1</text>
</a>
</g>
</g>
<!-- dependency457743&#45;&gt;choice971121124511211111411697103101471011081164511297116991041011154550484955485650544649 -->
<g id="edge8" class="edge">
<title>dependency457743:e&#45;&gt;choice971121124511211111411697103101471011081164511297116991041011154550484955485650544649:w</title>
<path fill="none" stroke="black" stroke-dasharray="1,5" d="M649,-505C698.26,-505 701.85,-458.13 744.86,-451.72"/>
<polygon fill="black" stroke="black" points="755,-451 745.35,-456.2 750.01,-451.36 745.03,-451.71 745.03,-451.71 745.03,-451.71 750.01,-451.36 744.71,-447.22 755,-451 755,-451"/>
</g>
<!-- choice10010111845991121124710311610710910945504650524653 -->
<g id="node10" class="node">
<title>choice10010111845991121124710311610710910945504650524653</title>
<g id="a_node10"><a xlink:href="../dev-cpp/gtkmm-2.24.5.svg" xlink:title="dev&#45;cpp/gtkmm&#45;2.24.5">
<ellipse fill="none" stroke="red" cx="900" cy="-397" rx="144" ry="18"/>
<text text-anchor="middle" x="900" y="-394" font-family="Helvetica,sans-Serif" font-size="10.00">dev&#45;cpp/gtkmm&#45;2.24.5</text>
</a>
</g>
</g>
<!-- dependency457744&#45;&gt;choice10010111845991121124710311610710910945504650524653 -->
<g id="edge9" class="edge">
<title>dependency457744:e&#45;&gt;choice10010111845991121124710311610710910945504650524653:w</title>
<path fill="none" stroke="black" stroke-dasharray="1,5" d="M649,-315C704.96,-315 696.76,-387.37 744.95,-396.13"/>
<polygon fill="black" stroke="black" points="755,-397 744.65,-400.63 750.02,-396.57 745.04,-396.14 745.04,-396.14 745.04,-396.14 750.02,-396.57 745.42,-391.66 755,-397 755,-397"/>
</g>
<!-- choice10010111845991121124710311610710910945514650504648 -->
<g id="node11" class="node">
<title>choice10010111845991121124710311610710910945514650504648</title>
<g id="a_node11"><a xlink:href="../dev-cpp/gtkmm-3.22.0.svg" xlink:title="dev&#45;cpp/gtkmm&#45;3.22.0">
<ellipse fill="none" stroke="red" cx="900" cy="-343" rx="144" ry="18"/>
<text text-anchor="middle" x="900" y="-340" font-family="Helvetica,sans-Serif" font-size="10.00">dev&#45;cpp/gtkmm&#45;3.22.0</text>
</a>
</g>
</g>
<!-- dependency457744&#45;&gt;choice10010111845991121124710311610710910945514650504648 -->
<g id="edge10" class="edge">
<title>dependency457744:e&#45;&gt;choice10010111845991121124710311610710910945514650504648:w</title>
<path fill="none" stroke="black" stroke-dasharray="1,5" d="M649,-315C694.11,-315 704.78,-339 744.78,-342.56"/>
<polygon fill="black" stroke="black" points="755,-343 744.82,-347.07 750,-342.78 745.01,-342.57 745.01,-342.57 745.01,-342.57 750,-342.78 745.2,-338.07 755,-343 755,-343"/>
</g>
<!-- choice10010111845991121124710311610710910945514650504649 -->
<g id="node12" class="node">
<title>choice10010111845991121124710311610710910945514650504649</title>
<g id="a_node12"><a xlink:href="../dev-cpp/gtkmm-3.22.1.svg" xlink:title="dev&#45;cpp/gtkmm&#45;3.22.1">
<ellipse fill="none" stroke="red" cx="900" cy="-289" rx="144" ry="18"/>
<text text-anchor="middle" x="900" y="-286" font-family="Helvetica,sans-Serif" font-size="10.00">dev&#45;cpp/gtkmm&#45;3.22.1</text>
</a>
</g>
</g>
<!-- dependency457744&#45;&gt;choice10010111845991121124710311610710910945514650504649 -->
<g id="edge11" class="edge">
<title>dependency457744:e&#45;&gt;choice10010111845991121124710311610710910945514650504649:w</title>
<path fill="none" stroke="black" stroke-dasharray="1,5" d="M649,-315C693.91,-315 704.94,-292.72 744.82,-289.41"/>
<polygon fill="black" stroke="black" points="755,-289 745.19,-293.9 750,-289.2 745.01,-289.4 745.01,-289.4 745.01,-289.4 750,-289.2 744.83,-284.9 755,-289 755,-289"/>
</g>
<!-- choice10010111845991121124710311610710910945514650504650 -->
<g id="node13" class="node">
<title>choice10010111845991121124710311610710910945514650504650</title>
<g id="a_node13"><a xlink:href="../dev-cpp/gtkmm-3.22.2.svg" xlink:title="dev&#45;cpp/gtkmm&#45;3.22.2">
<ellipse fill="none" stroke="red" cx="900" cy="-235" rx="144" ry="18"/>
<text text-anchor="middle" x="900" y="-232" font-family="Helvetica,sans-Serif" font-size="10.00">dev&#45;cpp/gtkmm&#45;3.22.2</text>
</a>
</g>
</g>
<!-- dependency457744&#45;&gt;choice10010111845991121124710311610710910945514650504650 -->
<g id="edge12" class="edge">
<title>dependency457744:e&#45;&gt;choice10010111845991121124710311610710910945514650504650:w</title>
<path fill="none" stroke="black" stroke-dasharray="1,5" d="M649,-315C704.45,-315 697.18,-244.39 745.03,-235.84"/>
<polygon fill="black" stroke="black" points="755,-235 745.42,-240.33 750.02,-235.42 745.04,-235.84 745.04,-235.84 745.04,-235.84 750.02,-235.42 744.66,-231.36 755,-235 755,-235"/>
</g>
<!-- choice11599105451081059811547108105981045011112012045484650 -->
<g id="node14" class="node">
<title>choice11599105451081059811547108105981045011112012045484650</title>
<g id="a_node14"><a xlink:href="../sci-libs/libh2oxx-0.2.svg" xlink:title="sci&#45;libs/libh2oxx&#45;0.2">
<ellipse fill="none" stroke="red" cx="900" cy="-181" rx="144" ry="18"/>
<text text-anchor="middle" x="900" y="-178" font-family="Helvetica,sans-Serif" font-size="10.00">sci&#45;libs/libh2oxx&#45;0.2</text>
</a>
</g>
</g>
<!-- dependency457745&#45;&gt;choice11599105451081059811547108105981045011112012045484650 -->
<g id="edge13" class="edge">
<title>dependency457745:e&#45;&gt;choice11599105451081059811547108105981045011112012045484650:w</title>
<path fill="none" stroke="black" stroke-dasharray="1,5" d="M649,-194C692.76,-194 705.58,-182.95 744.51,-181.23"/>
<polygon fill="black" stroke="black" points="755,-181 745.1,-185.71 750,-181.11 745,-181.22 745,-181.22 745,-181.22 750,-181.11 744.91,-176.72 755,-181 755,-181"/>
</g>
<!-- choice1159910545108105981154710810598104501111201204557575757 -->
<g id="node15" class="node">
<title>choice1159910545108105981154710810598104501111201204557575757</title>
<g id="a_node15"><a xlink:href="../sci-libs/libh2oxx-9999.svg" xlink:title="sci&#45;libs/libh2oxx&#45;9999">
<ellipse fill="none" stroke="red" cx="900" cy="-127" rx="144" ry="18"/>
<text text-anchor="middle" x="900" y="-124" font-family="Helvetica,sans-Serif" font-size="10.00">sci&#45;libs/libh2oxx&#45;9999</text>
</a>
</g>
</g>
<!-- dependency457745&#45;&gt;choice1159910545108105981154710810598104501111201204557575757 -->
<g id="edge14" class="edge">
<title>dependency457745:e&#45;&gt;choice1159910545108105981154710810598104501111201204557575757:w</title>
<path fill="none" stroke="black" stroke-dasharray="1,5" d="M649,-194C701.14,-194 699.72,-135.36 744.95,-127.8"/>
<polygon fill="black" stroke="black" points="755,-127 745.39,-132.28 750.02,-127.4 745.03,-127.79 745.03,-127.79 745.03,-127.79 750.02,-127.4 744.67,-123.31 755,-127 755,-127"/>
</g>
<!-- choice11599105451081059811547112108111116109109454846494650 -->
<g id="node16" class="node">
<title>choice11599105451081059811547112108111116109109454846494650</title>
<g id="a_node16"><a xlink:href="../sci-libs/plotmm-0.1.2.svg" xlink:title="sci&#45;libs/plotmm&#45;0.1.2">
<ellipse fill="none" stroke="red" cx="900" cy="-73" rx="144" ry="18"/>
<text text-anchor="middle" x="900" y="-70" font-family="Helvetica,sans-Serif" font-size="10.00">sci&#45;libs/plotmm&#45;0.1.2</text>
</a>
</g>
</g>
<!-- dependency457746&#45;&gt;choice11599105451081059811547112108111116109109454846494650 -->
<g id="edge15" class="edge">
<title>dependency457746:e&#45;&gt;choice11599105451081059811547112108111116109109454846494650:w</title>
<path fill="none" stroke="black" stroke-dasharray="1,5" d="M649,-73C692.43,-73 705.83,-73 744.57,-73"/>
<polygon fill="black" stroke="black" points="755,-73 745,-77.5 750,-73 745,-73 745,-73 745,-73 750,-73 745,-68.5 755,-73 755,-73"/>
</g>
</g>
</svg>
