<?xml version="1.0" encoding="UTF-8" standalone="no"?>
<!DOCTYPE svg PUBLIC "-//W3C//DTD SVG 1.1//EN"
 "http://www.w3.org/Graphics/SVG/1.1/DTD/svg11.dtd">
<!-- Generated by graphviz version 2.41.20171026.1811 (20171026.1811)
 -->
<!-- Title: prolog Pages: 1 -->
<svg width="1099pt" height="1068pt"
 viewBox="0.00 0.00 1098.61 1068.00" xmlns="http://www.w3.org/2000/svg" xmlns:xlink="http://www.w3.org/1999/xlink">
<g id="graph0" class="graph" transform="scale(1 1) rotate(0) translate(4 1064)">
<title>prolog</title>
<polygon fill="white" stroke="transparent" points="-4,4 -4,-1064 1094.61,-1064 1094.61,4 -4,4"/>
<g id="clust1" class="cluster">
<title>cluster_leftcol</title>
<polygon fill="none" stroke="gray" points="8,-386 8,-458 342.61,-458 342.61,-386 8,-386"/>
<text text-anchor="start" x="161.97" y="-446" font-family="Helvetica,sans-Serif" font-style="italic" font-size="10.00">ebuild</text>
</g>
<g id="clust2" class="cluster">
<title>cluster_midcol</title>
<polygon fill="none" stroke="gray" points="426.61,-95 426.61,-969 694.61,-969 694.61,-95 426.61,-95"/>
<text text-anchor="start" x="529.49" y="-957" font-family="Helvetica,sans-Serif" font-style="italic" font-size="10.00">dependencies</text>
</g>
<g id="clust5" class="cluster">
<title>cluster_run</title>
<polygon fill="#eeeeee" stroke="gray" points="434.61,-103 434.61,-941 686.61,-941 686.61,-103 434.61,-103"/>
<text text-anchor="start" x="553.39" y="-929" font-family="Helvetica,sans-Serif" font-style="italic" font-size="10.00">run</text>
</g>
<g id="clust11" class="cluster">
<title>cluster_choices</title>
<polygon fill="none" stroke="gray" points="778.61,-8 778.61,-1052 1082.61,-1052 1082.61,-8 778.61,-8"/>
<text text-anchor="start" x="906.43" y="-1040" font-family="Helvetica,sans-Serif" font-style="italic" font-size="10.00">candidates</text>
</g>
<!-- id -->
<g id="node1" class="node">
<title>id</title>
<g id="a_node1"><a xlink:href="../sci-electronics/quartus-prime-lite-15.1.0.185-r3.svg" xlink:title="portage://sci&#45;electronics/quartus&#45;prime&#45;lite&#45;15.1.0.185&#45;r3">
<ellipse fill="none" stroke="red" cx="175.31" cy="-412" rx="159.11" ry="18"/>
<text text-anchor="middle" x="175.31" y="-409" font-family="Helvetica,sans-Serif" font-size="10.00">portage://sci&#45;electronics/quartus&#45;prime&#45;lite&#45;15.1.0.185&#45;r3</text>
</a>
</g>
</g>
<!-- dependency386600 -->
<g id="node2" class="node">
<title>dependency386600</title>
<polygon fill="none" stroke="blue" points="450.61,-811 450.61,-909 555.61,-909 555.61,-811 450.61,-811"/>
<text text-anchor="start" x="481.43" y="-857" font-family="Helvetica,sans-Serif" font-size="10.00">pack_dep</text>
<polygon fill="none" stroke="blue" points="555.61,-887 555.61,-909 665.61,-909 665.61,-887 555.61,-887"/>
<text text-anchor="start" x="605.05" y="-895" font-family="Helvetica,sans-Serif" font-size="10.00">no</text>
<polygon fill="none" stroke="blue" points="555.61,-865 555.61,-887 665.61,-887 665.61,-865 555.61,-865"/>
<text text-anchor="start" x="590.88" y="-873" font-family="Helvetica,sans-Serif" font-size="10.00">app&#45;arch</text>
<polygon fill="none" stroke="blue" points="555.61,-843 555.61,-865 665.61,-865 665.61,-843 555.61,-843"/>
<text text-anchor="start" x="598.66" y="-851" font-family="Helvetica,sans-Serif" font-size="10.00">bzip2</text>
<polygon fill="none" stroke="blue" points="555.61,-821 555.61,-843 665.61,-843 665.61,-821 555.61,-821"/>
<text text-anchor="start" x="599.49" y="-829" font-family="Helvetica,sans-Serif" font-size="10.00">none</text>
<polygon fill="none" stroke="blue" points="555.61,-811 555.61,-821 665.61,-821 665.61,-811 555.61,-811"/>
</g>
<!-- id&#45;&gt;dependency386600 -->
<g id="edge1" class="edge">
<title>id:e&#45;&gt;dependency386600:w</title>
<path fill="none" stroke="black" d="M336.31,-412C538.05,-412 245.28,-847.83 433.5,-859.75"/>
<ellipse fill="none" stroke="black" cx="437.61" cy="-859.88" rx="4" ry="4"/>
</g>
<!-- dependency386601 -->
<g id="node3" class="node">
<title>dependency386601</title>
<polygon fill="none" stroke="blue" points="450.61,-687 450.61,-785 555.61,-785 555.61,-687 450.61,-687"/>
<text text-anchor="start" x="481.43" y="-733" font-family="Helvetica,sans-Serif" font-size="10.00">pack_dep</text>
<polygon fill="none" stroke="blue" points="555.61,-763 555.61,-785 665.61,-785 665.61,-763 555.61,-763"/>
<text text-anchor="start" x="605.05" y="-771" font-family="Helvetica,sans-Serif" font-size="10.00">no</text>
<polygon fill="none" stroke="blue" points="555.61,-741 555.61,-763 665.61,-763 665.61,-741 555.61,-741"/>
<text text-anchor="start" x="587.83" y="-749" font-family="Helvetica,sans-Serif" font-size="10.00">media&#45;libs</text>
<polygon fill="none" stroke="blue" points="555.61,-719 555.61,-741 665.61,-741 665.61,-719 555.61,-719"/>
<text text-anchor="start" x="579.22" y="-727" font-family="Helvetica,sans-Serif" font-size="10.00">libpng&#45;compat</text>
<polygon fill="none" stroke="blue" points="555.61,-697 555.61,-719 665.61,-719 665.61,-697 555.61,-697"/>
<text text-anchor="start" x="599.49" y="-705" font-family="Helvetica,sans-Serif" font-size="10.00">none</text>
<polygon fill="none" stroke="blue" points="555.61,-687 555.61,-697 665.61,-697 665.61,-687 555.61,-687"/>
</g>
<!-- id&#45;&gt;dependency386601 -->
<g id="edge2" class="edge">
<title>id:e&#45;&gt;dependency386601:w</title>
<path fill="none" stroke="black" d="M336.31,-412C484.91,-412 297.41,-724.09 433.54,-735.67"/>
<ellipse fill="none" stroke="black" cx="437.61" cy="-735.84" rx="4" ry="4"/>
</g>
<!-- dependency386602 -->
<g id="node4" class="node">
<title>dependency386602</title>
<polygon fill="none" stroke="blue" points="450.61,-363 450.61,-461 555.61,-461 555.61,-363 450.61,-363"/>
<text text-anchor="start" x="481.43" y="-409" font-family="Helvetica,sans-Serif" font-size="10.00">pack_dep</text>
<polygon fill="none" stroke="blue" points="555.61,-439 555.61,-461 665.61,-461 665.61,-439 555.61,-439"/>
<text text-anchor="start" x="605.05" y="-447" font-family="Helvetica,sans-Serif" font-size="10.00">no</text>
<polygon fill="none" stroke="blue" points="555.61,-417 555.61,-439 665.61,-439 665.61,-417 555.61,-417"/>
<text text-anchor="start" x="593.95" y="-425" font-family="Helvetica,sans-Serif" font-size="10.00">sys&#45;libs</text>
<polygon fill="none" stroke="blue" points="555.61,-395 555.61,-417 665.61,-417 665.61,-395 555.61,-395"/>
<text text-anchor="start" x="600.33" y="-403" font-family="Helvetica,sans-Serif" font-size="10.00">glibc</text>
<polygon fill="none" stroke="blue" points="555.61,-373 555.61,-395 665.61,-395 665.61,-373 555.61,-373"/>
<text text-anchor="start" x="599.49" y="-381" font-family="Helvetica,sans-Serif" font-size="10.00">none</text>
<polygon fill="none" stroke="blue" points="555.61,-363 555.61,-373 665.61,-373 665.61,-363 555.61,-363"/>
</g>
<!-- id&#45;&gt;dependency386602 -->
<g id="edge3" class="edge">
<title>id:e&#45;&gt;dependency386602:w</title>
<path fill="none" stroke="black" d="M336.31,-412C380.27,-412 393.26,-412 433.48,-412"/>
<ellipse fill="none" stroke="black" cx="437.61" cy="-412" rx="4" ry="4"/>
</g>
<!-- dependency386603 -->
<g id="node5" class="node">
<title>dependency386603</title>
<polygon fill="none" stroke="blue" points="450.61,-239 450.61,-337 555.61,-337 555.61,-239 450.61,-239"/>
<text text-anchor="start" x="481.43" y="-285" font-family="Helvetica,sans-Serif" font-size="10.00">pack_dep</text>
<polygon fill="none" stroke="blue" points="555.61,-315 555.61,-337 665.61,-337 665.61,-315 555.61,-315"/>
<text text-anchor="start" x="605.05" y="-323" font-family="Helvetica,sans-Serif" font-size="10.00">no</text>
<polygon fill="none" stroke="blue" points="555.61,-293 555.61,-315 665.61,-315 665.61,-293 555.61,-293"/>
<text text-anchor="start" x="593.95" y="-301" font-family="Helvetica,sans-Serif" font-size="10.00">sys&#45;libs</text>
<polygon fill="none" stroke="blue" points="555.61,-271 555.61,-293 665.61,-293 665.61,-271 555.61,-271"/>
<text text-anchor="start" x="603.11" y="-279" font-family="Helvetica,sans-Serif" font-size="10.00">zlib</text>
<polygon fill="none" stroke="blue" points="555.61,-249 555.61,-271 665.61,-271 665.61,-249 555.61,-249"/>
<text text-anchor="start" x="599.49" y="-257" font-family="Helvetica,sans-Serif" font-size="10.00">none</text>
<polygon fill="none" stroke="blue" points="555.61,-239 555.61,-249 665.61,-249 665.61,-239 555.61,-239"/>
</g>
<!-- id&#45;&gt;dependency386603 -->
<g id="edge4" class="edge">
<title>id:e&#45;&gt;dependency386603:w</title>
<path fill="none" stroke="black" d="M336.31,-412C405.64,-412 372.34,-297.96 433.26,-288.61"/>
<ellipse fill="none" stroke="black" cx="437.62" cy="-288.29" rx="4" ry="4"/>
</g>
<!-- dependency386604 -->
<g id="node6" class="node">
<title>dependency386604</title>
<polygon fill="none" stroke="blue" points="450.61,-115 450.61,-213 555.61,-213 555.61,-115 450.61,-115"/>
<text text-anchor="start" x="481.43" y="-161" font-family="Helvetica,sans-Serif" font-size="10.00">pack_dep</text>
<polygon fill="none" stroke="blue" points="555.61,-191 555.61,-213 665.61,-213 665.61,-191 555.61,-191"/>
<text text-anchor="start" x="605.05" y="-199" font-family="Helvetica,sans-Serif" font-size="10.00">no</text>
<polygon fill="none" stroke="blue" points="555.61,-169 555.61,-191 665.61,-191 665.61,-169 555.61,-169"/>
<text text-anchor="start" x="593.39" y="-177" font-family="Helvetica,sans-Serif" font-size="10.00">x11&#45;libs</text>
<polygon fill="none" stroke="blue" points="555.61,-147 555.61,-169 665.61,-169 665.61,-147 555.61,-147"/>
<text text-anchor="start" x="599.5" y="-155" font-family="Helvetica,sans-Serif" font-size="10.00">libXft</text>
<polygon fill="none" stroke="blue" points="555.61,-125 555.61,-147 665.61,-147 665.61,-125 555.61,-125"/>
<text text-anchor="start" x="599.49" y="-133" font-family="Helvetica,sans-Serif" font-size="10.00">none</text>
<polygon fill="none" stroke="blue" points="555.61,-115 555.61,-125 665.61,-125 665.61,-115 555.61,-115"/>
</g>
<!-- id&#45;&gt;dependency386604 -->
<g id="edge5" class="edge">
<title>id:e&#45;&gt;dependency386604:w</title>
<path fill="none" stroke="black" d="M336.31,-412C453.25,-412 328.01,-175.49 433.6,-164.4"/>
<ellipse fill="none" stroke="black" cx="437.62" cy="-164.2" rx="4" ry="4"/>
</g>
<!-- choiceportage97112112459711499104479812210511250454946484654451144949 -->
<g id="node7" class="node">
<title>choiceportage97112112459711499104479812210511250454946484654451144949</title>
<g id="a_node7"><a xlink:href="../app-arch/bzip2-1.0.6-r11.svg" xlink:title="portage://app&#45;arch/bzip2&#45;1.0.6&#45;r11">
<ellipse fill="none" stroke="red" cx="930.61" cy="-1006" rx="144" ry="18"/>
<text text-anchor="middle" x="930.61" y="-1003" font-family="Helvetica,sans-Serif" font-size="10.00">portage://app&#45;arch/bzip2&#45;1.0.6&#45;r11</text>
</a>
</g>
</g>
<!-- dependency386600&#45;&gt;choiceportage97112112459711499104479812210511250454946484654451144949 -->
<g id="edge6" class="edge">
<title>dependency386600:e&#45;&gt;choiceportage97112112459711499104479812210511250454946484654451144949:w</title>
<path fill="none" stroke="black" stroke-dasharray="1,5" d="M679.61,-860C756.2,-860 710.04,-993.18 775.59,-1005.14"/>
<polygon fill="black" stroke="black" points="785.61,-1006 775.26,-1009.63 780.63,-1005.57 775.65,-1005.15 775.65,-1005.15 775.65,-1005.15 780.63,-1005.57 776.03,-1000.66 785.61,-1006 785.61,-1006"/>
</g>
<!-- choiceportage97112112459711499104479812210511250454946484655 -->
<g id="node8" class="node">
<title>choiceportage97112112459711499104479812210511250454946484655</title>
<g id="a_node8"><a xlink:href="../app-arch/bzip2-1.0.7.svg" xlink:title="portage://app&#45;arch/bzip2&#45;1.0.7">
<ellipse fill="none" stroke="red" cx="930.61" cy="-952" rx="144" ry="18"/>
<text text-anchor="middle" x="930.61" y="-949" font-family="Helvetica,sans-Serif" font-size="10.00">portage://app&#45;arch/bzip2&#45;1.0.7</text>
</a>
</g>
</g>
<!-- dependency386600&#45;&gt;choiceportage97112112459711499104479812210511250454946484655 -->
<g id="edge7" class="edge">
<title>dependency386600:e&#45;&gt;choiceportage97112112459711499104479812210511250454946484655:w</title>
<path fill="none" stroke="black" stroke-dasharray="1,5" d="M679.61,-860C738.34,-860 725.15,-941.53 775.45,-951.09"/>
<polygon fill="black" stroke="black" points="785.61,-952 775.25,-955.59 780.63,-951.55 775.65,-951.11 775.65,-951.11 775.65,-951.11 780.63,-951.55 776.05,-946.63 785.61,-952 785.61,-952"/>
</g>
<!-- choiceportage97112112459711499104479812210511250454946484656 -->
<g id="node9" class="node">
<title>choiceportage97112112459711499104479812210511250454946484656</title>
<g id="a_node9"><a xlink:href="../app-arch/bzip2-1.0.8.svg" xlink:title="portage://app&#45;arch/bzip2&#45;1.0.8">
<ellipse fill="none" stroke="red" cx="930.61" cy="-898" rx="144" ry="18"/>
<text text-anchor="middle" x="930.61" y="-895" font-family="Helvetica,sans-Serif" font-size="10.00">portage://app&#45;arch/bzip2&#45;1.0.8</text>
</a>
</g>
</g>
<!-- dependency386600&#45;&gt;choiceportage97112112459711499104479812210511250454946484656 -->
<g id="edge8" class="edge">
<title>dependency386600:e&#45;&gt;choiceportage97112112459711499104479812210511250454946484656:w</title>
<path fill="none" stroke="black" stroke-dasharray="1,5" d="M679.61,-860C726.04,-860 734.48,-892.71 775.42,-897.43"/>
<polygon fill="black" stroke="black" points="785.61,-898 775.38,-901.94 780.62,-897.72 775.63,-897.44 775.63,-897.44 775.63,-897.44 780.62,-897.72 775.88,-892.95 785.61,-898 785.61,-898"/>
</g>
<!-- choiceportage971121124597114991044798122105112504557575757 -->
<g id="node10" class="node">
<title>choiceportage971121124597114991044798122105112504557575757</title>
<g id="a_node10"><a xlink:href="../app-arch/bzip2-9999.svg" xlink:title="portage://app&#45;arch/bzip2&#45;9999">
<ellipse fill="none" stroke="red" cx="930.61" cy="-844" rx="144" ry="18"/>
<text text-anchor="middle" x="930.61" y="-841" font-family="Helvetica,sans-Serif" font-size="10.00">portage://app&#45;arch/bzip2&#45;9999</text>
</a>
</g>
</g>
<!-- dependency386600&#45;&gt;choiceportage971121124597114991044798122105112504557575757 -->
<g id="edge9" class="edge">
<title>dependency386600:e&#45;&gt;choiceportage971121124597114991044798122105112504557575757:w</title>
<path fill="none" stroke="black" stroke-dasharray="1,5" d="M679.61,-860C723.72,-860 736.17,-846.29 775.58,-844.25"/>
<polygon fill="black" stroke="black" points="785.61,-844 775.73,-848.75 780.61,-844.13 775.61,-844.25 775.61,-844.25 775.61,-844.25 780.61,-844.13 775.5,-839.75 785.61,-844 785.61,-844"/>
</g>
<!-- choiceportage109101100105974510810598115471081059811211010345991111091129711645494650465357 -->
<g id="node11" class="node">
<title>choiceportage109101100105974510810598115471081059811211010345991111091129711645494650465357</title>
<g id="a_node11"><a xlink:href="../media-libs/libpng-compat-1.2.59.svg" xlink:title="portage://media&#45;libs/libpng&#45;compat&#45;1.2.59">
<ellipse fill="none" stroke="red" cx="930.61" cy="-790" rx="144" ry="18"/>
<text text-anchor="middle" x="930.61" y="-787" font-family="Helvetica,sans-Serif" font-size="10.00">portage://media&#45;libs/libpng&#45;compat&#45;1.2.59</text>
</a>
</g>
</g>
<!-- dependency386601&#45;&gt;choiceportage109101100105974510810598115471081059811211010345991111091129711645494650465357 -->
<g id="edge10" class="edge">
<title>dependency386601:e&#45;&gt;choiceportage109101100105974510810598115471081059811211010345991111091129711645494650465357:w</title>
<path fill="none" stroke="black" stroke-dasharray="1,5" d="M679.61,-736C728.87,-736 732.46,-782.87 775.47,-789.28"/>
<polygon fill="black" stroke="black" points="785.61,-790 775.32,-793.78 780.62,-789.64 775.64,-789.29 775.64,-789.29 775.64,-789.29 780.62,-789.64 775.96,-784.8 785.61,-790 785.61,-790"/>
</g>
<!-- choiceportage109101100105974510810598115471081059811211010345991111091129711645494653465148 -->
<g id="node12" class="node">
<title>choiceportage109101100105974510810598115471081059811211010345991111091129711645494653465148</title>
<g id="a_node12"><a xlink:href="../media-libs/libpng-compat-1.5.30.svg" xlink:title="portage://media&#45;libs/libpng&#45;compat&#45;1.5.30">
<ellipse fill="none" stroke="red" cx="930.61" cy="-736" rx="144" ry="18"/>
<text text-anchor="middle" x="930.61" y="-733" font-family="Helvetica,sans-Serif" font-size="10.00">portage://media&#45;libs/libpng&#45;compat&#45;1.5.30</text>
</a>
</g>
</g>
<!-- dependency386601&#45;&gt;choiceportage109101100105974510810598115471081059811211010345991111091129711645494653465148 -->
<g id="edge11" class="edge">
<title>dependency386601:e&#45;&gt;choiceportage109101100105974510810598115471081059811211010345991111091129711645494653465148:w</title>
<path fill="none" stroke="black" stroke-dasharray="1,5" d="M679.61,-736C723.04,-736 736.44,-736 775.18,-736"/>
<polygon fill="black" stroke="black" points="785.61,-736 775.61,-740.5 780.61,-736 775.61,-736 775.61,-736 775.61,-736 780.61,-736 775.61,-731.5 785.61,-736 785.61,-736"/>
</g>
<!-- choiceportage115121115451081059811547103108105989945504649574511450 -->
<g id="node13" class="node">
<title>choiceportage115121115451081059811547103108105989945504649574511450</title>
<g id="a_node13"><a xlink:href="../sys-libs/glibc-2.19-r2.svg" xlink:title="portage://sys&#45;libs/glibc&#45;2.19&#45;r2">
<ellipse fill="none" stroke="red" cx="930.61" cy="-682" rx="144" ry="18"/>
<text text-anchor="middle" x="930.61" y="-679" font-family="Helvetica,sans-Serif" font-size="10.00">portage://sys&#45;libs/glibc&#45;2.19&#45;r2</text>
</a>
</g>
</g>
<!-- dependency386602&#45;&gt;choiceportage115121115451081059811547103108105989945504649574511450 -->
<g id="edge12" class="edge">
<title>dependency386602:e&#45;&gt;choiceportage115121115451081059811547103108105989945504649574511450:w</title>
<path fill="none" stroke="black" stroke-dasharray="1,5" d="M679.61,-412C804.88,-412 665.07,-666.92 775.32,-681.36"/>
<polygon fill="black" stroke="black" points="785.61,-682 775.35,-685.87 780.62,-681.69 775.63,-681.38 775.63,-681.38 775.63,-681.38 780.62,-681.69 775.91,-676.89 785.61,-682 785.61,-682"/>
</g>
<!-- choiceportage115121115451081059811547103108105989945504650524511452 -->
<g id="node14" class="node">
<title>choiceportage115121115451081059811547103108105989945504650524511452</title>
<g id="a_node14"><a xlink:href="../sys-libs/glibc-2.24-r4.svg" xlink:title="portage://sys&#45;libs/glibc&#45;2.24&#45;r4">
<ellipse fill="none" stroke="red" cx="930.61" cy="-628" rx="144" ry="18"/>
<text text-anchor="middle" x="930.61" y="-625" font-family="Helvetica,sans-Serif" font-size="10.00">portage://sys&#45;libs/glibc&#45;2.24&#45;r4</text>
</a>
</g>
</g>
<!-- dependency386602&#45;&gt;choiceportage115121115451081059811547103108105989945504650524511452 -->
<g id="edge13" class="edge">
<title>dependency386602:e&#45;&gt;choiceportage115121115451081059811547103108105989945504650524511452:w</title>
<path fill="none" stroke="black" stroke-dasharray="1,5" d="M679.61,-412C782.89,-412 685.8,-613.49 775.38,-627.26"/>
<polygon fill="black" stroke="black" points="785.61,-628 775.31,-631.77 780.62,-627.64 775.64,-627.28 775.64,-627.28 775.64,-627.28 780.62,-627.64 775.96,-622.79 785.61,-628 785.61,-628"/>
</g>
<!-- choiceportage11512111545108105981154710310810598994550465053451144949 -->
<g id="node15" class="node">
<title>choiceportage11512111545108105981154710310810598994550465053451144949</title>
<g id="a_node15"><a xlink:href="../sys-libs/glibc-2.25-r11.svg" xlink:title="portage://sys&#45;libs/glibc&#45;2.25&#45;r11">
<ellipse fill="none" stroke="red" cx="930.61" cy="-574" rx="144" ry="18"/>
<text text-anchor="middle" x="930.61" y="-571" font-family="Helvetica,sans-Serif" font-size="10.00">portage://sys&#45;libs/glibc&#45;2.25&#45;r11</text>
</a>
</g>
</g>
<!-- dependency386602&#45;&gt;choiceportage11512111545108105981154710310810598994550465053451144949 -->
<g id="edge14" class="edge">
<title>dependency386602:e&#45;&gt;choiceportage11512111545108105981154710310810598994550465053451144949:w</title>
<path fill="none" stroke="black" stroke-dasharray="1,5" d="M679.61,-412C761.96,-412 704.97,-560.38 775.34,-573.13"/>
<polygon fill="black" stroke="black" points="785.61,-574 775.27,-577.64 780.63,-573.58 775.65,-573.15 775.65,-573.15 775.65,-573.15 780.63,-573.58 776.03,-568.67 785.61,-574 785.61,-574"/>
</g>
<!-- choiceportage115121115451081059811547103108105989945504650544511455 -->
<g id="node16" class="node">
<title>choiceportage115121115451081059811547103108105989945504650544511455</title>
<g id="a_node16"><a xlink:href="../sys-libs/glibc-2.26-r7.svg" xlink:title="portage://sys&#45;libs/glibc&#45;2.26&#45;r7">
<ellipse fill="none" stroke="red" cx="930.61" cy="-520" rx="144" ry="18"/>
<text text-anchor="middle" x="930.61" y="-517" font-family="Helvetica,sans-Serif" font-size="10.00">portage://sys&#45;libs/glibc&#45;2.26&#45;r7</text>
</a>
</g>
</g>
<!-- dependency386602&#45;&gt;choiceportage115121115451081059811547103108105989945504650544511455 -->
<g id="edge15" class="edge">
<title>dependency386602:e&#45;&gt;choiceportage115121115451081059811547103108105989945504650544511455:w</title>
<path fill="none" stroke="black" stroke-dasharray="1,5" d="M679.61,-412C743.19,-412 721.19,-508.51 775.4,-519.07"/>
<polygon fill="black" stroke="black" points="785.61,-520 775.24,-523.57 780.63,-519.54 775.65,-519.09 775.65,-519.09 775.65,-519.09 780.63,-519.54 776.06,-514.61 785.61,-520 785.61,-520"/>
</g>
<!-- choiceportage115121115451081059811547103108105989945504650554511454 -->
<g id="node17" class="node">
<title>choiceportage115121115451081059811547103108105989945504650554511454</title>
<g id="a_node17"><a xlink:href="../sys-libs/glibc-2.27-r6.svg" xlink:title="portage://sys&#45;libs/glibc&#45;2.27&#45;r6">
<ellipse fill="none" stroke="red" cx="930.61" cy="-466" rx="144" ry="18"/>
<text text-anchor="middle" x="930.61" y="-463" font-family="Helvetica,sans-Serif" font-size="10.00">portage://sys&#45;libs/glibc&#45;2.27&#45;r6</text>
</a>
</g>
</g>
<!-- dependency386602&#45;&gt;choiceportage115121115451081059811547103108105989945504650554511454 -->
<g id="edge16" class="edge">
<title>dependency386602:e&#45;&gt;choiceportage115121115451081059811547103108105989945504650554511454:w</title>
<path fill="none" stroke="black" stroke-dasharray="1,5" d="M679.61,-412C728.87,-412 732.46,-458.87 775.47,-465.28"/>
<polygon fill="black" stroke="black" points="785.61,-466 775.32,-469.78 780.62,-465.64 775.64,-465.29 775.64,-465.29 775.64,-465.29 780.62,-465.64 775.96,-460.8 785.61,-466 785.61,-466"/>
</g>
<!-- choiceportage115121115451081059811547103108105989945504650564511454 -->
<g id="node18" class="node">
<title>choiceportage115121115451081059811547103108105989945504650564511454</title>
<g id="a_node18"><a xlink:href="../sys-libs/glibc-2.28-r6.svg" xlink:title="portage://sys&#45;libs/glibc&#45;2.28&#45;r6">
<ellipse fill="none" stroke="red" cx="930.61" cy="-412" rx="144" ry="18"/>
<text text-anchor="middle" x="930.61" y="-409" font-family="Helvetica,sans-Serif" font-size="10.00">portage://sys&#45;libs/glibc&#45;2.28&#45;r6</text>
</a>
</g>
</g>
<!-- dependency386602&#45;&gt;choiceportage115121115451081059811547103108105989945504650564511454 -->
<g id="edge17" class="edge">
<title>dependency386602:e&#45;&gt;choiceportage115121115451081059811547103108105989945504650564511454:w</title>
<path fill="none" stroke="black" stroke-dasharray="1,5" d="M679.61,-412C723.04,-412 736.44,-412 775.18,-412"/>
<polygon fill="black" stroke="black" points="785.61,-412 775.61,-416.5 780.61,-412 775.61,-412 775.61,-412 775.61,-412 780.61,-412 775.61,-407.5 785.61,-412 785.61,-412"/>
</g>
<!-- choiceportage115121115451081059811547103108105989945504650574511450 -->
<g id="node19" class="node">
<title>choiceportage115121115451081059811547103108105989945504650574511450</title>
<g id="a_node19"><a xlink:href="../sys-libs/glibc-2.29-r2.svg" xlink:title="portage://sys&#45;libs/glibc&#45;2.29&#45;r2">
<ellipse fill="none" stroke="red" cx="930.61" cy="-358" rx="144" ry="18"/>
<text text-anchor="middle" x="930.61" y="-355" font-family="Helvetica,sans-Serif" font-size="10.00">portage://sys&#45;libs/glibc&#45;2.29&#45;r2</text>
</a>
</g>
</g>
<!-- dependency386602&#45;&gt;choiceportage115121115451081059811547103108105989945504650574511450 -->
<g id="edge18" class="edge">
<title>dependency386602:e&#45;&gt;choiceportage115121115451081059811547103108105989945504650574511450:w</title>
<path fill="none" stroke="black" stroke-dasharray="1,5" d="M679.61,-412C728.87,-412 732.46,-365.13 775.47,-358.72"/>
<polygon fill="black" stroke="black" points="785.61,-358 775.96,-363.2 780.62,-358.36 775.64,-358.71 775.64,-358.71 775.64,-358.71 780.62,-358.36 775.32,-354.22 785.61,-358 785.61,-358"/>
</g>
<!-- choiceportage115121115451081059811547103108105989945504650574511453 -->
<g id="node20" class="node">
<title>choiceportage115121115451081059811547103108105989945504650574511453</title>
<g id="a_node20"><a xlink:href="../sys-libs/glibc-2.29-r5.svg" xlink:title="portage://sys&#45;libs/glibc&#45;2.29&#45;r5">
<ellipse fill="none" stroke="red" cx="930.61" cy="-304" rx="144" ry="18"/>
<text text-anchor="middle" x="930.61" y="-301" font-family="Helvetica,sans-Serif" font-size="10.00">portage://sys&#45;libs/glibc&#45;2.29&#45;r5</text>
</a>
</g>
</g>
<!-- dependency386602&#45;&gt;choiceportage115121115451081059811547103108105989945504650574511453 -->
<g id="edge19" class="edge">
<title>dependency386602:e&#45;&gt;choiceportage115121115451081059811547103108105989945504650574511453:w</title>
<path fill="none" stroke="black" stroke-dasharray="1,5" d="M679.61,-412C743.19,-412 721.19,-315.49 775.4,-304.93"/>
<polygon fill="black" stroke="black" points="785.61,-304 776.06,-309.39 780.63,-304.46 775.65,-304.91 775.65,-304.91 775.65,-304.91 780.63,-304.46 775.24,-300.43 785.61,-304 785.61,-304"/>
</g>
<!-- choiceportage115121115451081059811547103108105989945504650574511454 -->
<g id="node21" class="node">
<title>choiceportage115121115451081059811547103108105989945504650574511454</title>
<g id="a_node21"><a xlink:href="../sys-libs/glibc-2.29-r6.svg" xlink:title="portage://sys&#45;libs/glibc&#45;2.29&#45;r6">
<ellipse fill="none" stroke="red" cx="930.61" cy="-250" rx="144" ry="18"/>
<text text-anchor="middle" x="930.61" y="-247" font-family="Helvetica,sans-Serif" font-size="10.00">portage://sys&#45;libs/glibc&#45;2.29&#45;r6</text>
</a>
</g>
</g>
<!-- dependency386602&#45;&gt;choiceportage115121115451081059811547103108105989945504650574511454 -->
<g id="edge20" class="edge">
<title>dependency386602:e&#45;&gt;choiceportage115121115451081059811547103108105989945504650574511454:w</title>
<path fill="none" stroke="black" stroke-dasharray="1,5" d="M679.61,-412C761.96,-412 704.97,-263.62 775.34,-250.87"/>
<polygon fill="black" stroke="black" points="785.61,-250 776.03,-255.33 780.63,-250.42 775.65,-250.85 775.65,-250.85 775.65,-250.85 780.63,-250.42 775.27,-246.36 785.61,-250 785.61,-250"/>
</g>
<!-- choiceportage115121115451081059811547103108105989945504651484511450 -->
<g id="node22" class="node">
<title>choiceportage115121115451081059811547103108105989945504651484511450</title>
<g id="a_node22"><a xlink:href="../sys-libs/glibc-2.30-r2.svg" xlink:title="portage://sys&#45;libs/glibc&#45;2.30&#45;r2">
<ellipse fill="none" stroke="red" cx="930.61" cy="-196" rx="144" ry="18"/>
<text text-anchor="middle" x="930.61" y="-193" font-family="Helvetica,sans-Serif" font-size="10.00">portage://sys&#45;libs/glibc&#45;2.30&#45;r2</text>
</a>
</g>
</g>
<!-- dependency386602&#45;&gt;choiceportage115121115451081059811547103108105989945504651484511450 -->
<g id="edge21" class="edge">
<title>dependency386602:e&#45;&gt;choiceportage115121115451081059811547103108105989945504651484511450:w</title>
<path fill="none" stroke="black" stroke-dasharray="1,5" d="M679.61,-412C782.89,-412 685.8,-210.51 775.38,-196.74"/>
<polygon fill="black" stroke="black" points="785.61,-196 775.96,-201.21 780.62,-196.36 775.64,-196.72 775.64,-196.72 775.64,-196.72 780.62,-196.36 775.31,-192.23 785.61,-196 785.61,-196"/>
</g>
<!-- choiceportage11512111545108105981154710310810598994557575757 -->
<g id="node23" class="node">
<title>choiceportage11512111545108105981154710310810598994557575757</title>
<g id="a_node23"><a xlink:href="../sys-libs/glibc-9999.svg" xlink:title="portage://sys&#45;libs/glibc&#45;9999">
<ellipse fill="none" stroke="red" cx="930.61" cy="-142" rx="144" ry="18"/>
<text text-anchor="middle" x="930.61" y="-139" font-family="Helvetica,sans-Serif" font-size="10.00">portage://sys&#45;libs/glibc&#45;9999</text>
</a>
</g>
</g>
<!-- dependency386602&#45;&gt;choiceportage11512111545108105981154710310810598994557575757 -->
<g id="edge22" class="edge">
<title>dependency386602:e&#45;&gt;choiceportage11512111545108105981154710310810598994557575757:w</title>
<path fill="none" stroke="black" stroke-dasharray="1,5" d="M679.61,-412C804.88,-412 665.07,-157.08 775.32,-142.64"/>
<polygon fill="black" stroke="black" points="785.61,-142 775.91,-147.11 780.62,-142.31 775.63,-142.62 775.63,-142.62 775.63,-142.62 780.62,-142.31 775.35,-138.13 785.61,-142 785.61,-142"/>
</g>
<!-- choiceportage11512111545108105981154712210810598454946504649494511450 -->
<g id="node24" class="node">
<title>choiceportage11512111545108105981154712210810598454946504649494511450</title>
<g id="a_node24"><a xlink:href="../sys-libs/zlib-1.2.11-r2.svg" xlink:title="portage://sys&#45;libs/zlib&#45;1.2.11&#45;r2">
<ellipse fill="none" stroke="red" cx="930.61" cy="-88" rx="144" ry="18"/>
<text text-anchor="middle" x="930.61" y="-85" font-family="Helvetica,sans-Serif" font-size="10.00">portage://sys&#45;libs/zlib&#45;1.2.11&#45;r2</text>
</a>
</g>
</g>
<!-- dependency386603&#45;&gt;choiceportage11512111545108105981154712210810598454946504649494511450 -->
<g id="edge23" class="edge">
<title>dependency386603:e&#45;&gt;choiceportage11512111545108105981154712210810598454946504649494511450:w</title>
<path fill="none" stroke="black" stroke-dasharray="1,5" d="M679.61,-288C776.58,-288 691.63,-102.19 775.45,-88.76"/>
<polygon fill="black" stroke="black" points="785.61,-88 775.98,-93.24 780.62,-88.38 775.64,-88.75 775.64,-88.75 775.64,-88.75 780.62,-88.38 775.3,-84.26 785.61,-88 785.61,-88"/>
</g>
<!-- choiceportage12049494510810598115471081059888102116455046514651 -->
<g id="node25" class="node">
<title>choiceportage12049494510810598115471081059888102116455046514651</title>
<g id="a_node25"><a xlink:href="../x11-libs/libXft-2.3.3.svg" xlink:title="portage://x11&#45;libs/libXft&#45;2.3.3">
<ellipse fill="none" stroke="red" cx="930.61" cy="-34" rx="144" ry="18"/>
<text text-anchor="middle" x="930.61" y="-31" font-family="Helvetica,sans-Serif" font-size="10.00">portage://x11&#45;libs/libXft&#45;2.3.3</text>
</a>
</g>
</g>
<!-- dependency386604&#45;&gt;choiceportage12049494510810598115471081059888102116455046514651 -->
<g id="edge24" class="edge">
<title>dependency386604:e&#45;&gt;choiceportage12049494510810598115471081059888102116455046514651:w</title>
<path fill="none" stroke="black" stroke-dasharray="1,5" d="M679.61,-164C750.52,-164 714.99,-46.39 775.5,-34.9"/>
<polygon fill="black" stroke="black" points="785.61,-34 776.05,-39.37 780.63,-34.44 775.65,-34.89 775.65,-34.89 775.65,-34.89 780.63,-34.44 775.25,-30.4 785.61,-34 785.61,-34"/>
</g>
</g>
</svg>
