<?xml version="1.0" encoding="UTF-8" standalone="no"?>
<!DOCTYPE svg PUBLIC "-//W3C//DTD SVG 1.1//EN"
 "http://www.w3.org/Graphics/SVG/1.1/DTD/svg11.dtd">
<!-- Generated by graphviz version 2.41.20171026.1811 (20171026.1811)
 -->
<!-- Title: prolog Pages: 1 -->
<svg width="1411pt" height="718pt"
 viewBox="0.00 0.00 1411.00 718.00" xmlns="http://www.w3.org/2000/svg" xmlns:xlink="http://www.w3.org/1999/xlink">
<g id="graph0" class="graph" transform="scale(1 1) rotate(0) translate(4 714)">
<title>prolog</title>
<polygon fill="white" stroke="transparent" points="-4,4 -4,-714 1407,-714 1407,4 -4,4"/>
<g id="clust1" class="cluster">
<title>cluster_leftcol</title>
<polygon fill="none" stroke="gray" points="8,-275 8,-345 312,-345 312,-275 8,-275"/>
<text text-anchor="start" x="146.66" y="-334" font-family="Helvetica,sans-Serif" font-style="italic" font-size="10.00">ebuild</text>
</g>
<g id="clust2" class="cluster">
<title>cluster_midcol</title>
<polygon fill="none" stroke="gray" points="396,-8 396,-566 1007,-566 1007,-8 396,-8"/>
<text text-anchor="start" x="670.36" y="-555" font-family="Helvetica,sans-Serif" font-style="italic" font-size="10.00">dependencies</text>
</g>
<g id="clust4" class="cluster">
<title>cluster_compileandrun</title>
<polygon fill="#eeeeee" stroke="gray" points="404,-272 404,-540 999,-540 999,-272 404,-272"/>
<text text-anchor="start" x="665.92" y="-529" font-family="Helvetica,sans-Serif" font-style="italic" font-size="10.00">compile and run</text>
</g>
<g id="clust8" class="cluster">
<title>cluster_run</title>
<polygon fill="#eeeeee" stroke="gray" points="747,-16 747,-264 999,-264 999,-16 747,-16"/>
<text text-anchor="start" x="865.77" y="-253" font-family="Helvetica,sans-Serif" font-style="italic" font-size="10.00">run</text>
</g>
<g id="clust11" class="cluster">
<title>cluster_choices</title>
<polygon fill="none" stroke="gray" points="1091,-92 1091,-702 1395,-702 1395,-92 1091,-92"/>
<text text-anchor="start" x="1218.82" y="-691" font-family="Helvetica,sans-Serif" font-style="italic" font-size="10.00">candidates</text>
</g>
<!-- id -->
<g id="node1" class="node">
<title>id</title>
<g id="a_node1"><a xlink:href="../app-cdr/burn-cd-1.8.1.svg" xlink:title="app&#45;cdr/burn&#45;cd&#45;1.8.1">
<ellipse fill="none" stroke="red" cx="160" cy="-301" rx="144" ry="18"/>
<text text-anchor="middle" x="160" y="-298" font-family="Helvetica,sans-Serif" font-size="10.00">app&#45;cdr/burn&#45;cd&#45;1.8.1</text>
</a>
</g>
</g>
<!-- dependency11537 -->
<g id="node2" class="node">
<title>dependency11537</title>
<polygon fill="none" stroke="red" points="420.5,-362 420.5,-402 511.5,-402 511.5,-362 420.5,-362"/>
<text text-anchor="start" x="431.25" y="-379" font-family="Helvetica,sans-Serif" font-size="10.00">use_conditional</text>
<polygon fill="none" stroke="red" points="511.5,-382 511.5,-402 639.5,-402 639.5,-382 511.5,-382"/>
<text text-anchor="start" x="558.55" y="-389" font-family="Helvetica,sans-Serif" font-size="10.00">positive</text>
<polygon fill="none" stroke="red" points="511.5,-362 511.5,-382 639.5,-382 639.5,-362 511.5,-362"/>
<text text-anchor="start" x="516.29" y="-369" font-family="Helvetica,sans-Serif" font-size="10.00">python_targets_python2_7</text>
</g>
<!-- id&#45;&gt;dependency11537 -->
<g id="edge2" class="edge">
<title>id:e&#45;&gt;dependency11537:w</title>
<path fill="none" stroke="black" d="M305,-301C357.3,-301 353.36,-364.41 392.71,-379.02"/>
<ellipse fill="none" stroke="black" cx="406.55" cy="-381.34" rx="4" ry="4"/>
<polygon fill="black" stroke="black" points="402.61,-380.68 392,-383.47 397.68,-379.85 392.75,-379.03 392.75,-379.03 392.75,-379.03 397.68,-379.85 393.49,-374.59 402.61,-380.68 402.61,-380.68"/>
</g>
<!-- dependency11539 -->
<g id="node4" class="node">
<title>dependency11539</title>
<polygon fill="none" stroke="blue" points="763,-284 763,-384 868,-384 868,-284 763,-284"/>
<text text-anchor="start" x="793.82" y="-331" font-family="Helvetica,sans-Serif" font-size="10.00">pack_dep</text>
<polygon fill="none" stroke="blue" points="868,-364 868,-384 978,-384 978,-364 868,-364"/>
<text text-anchor="start" x="917.44" y="-371" font-family="Helvetica,sans-Serif" font-size="10.00">no</text>
<polygon fill="none" stroke="blue" points="868,-344 868,-364 978,-364 978,-344 868,-344"/>
<text text-anchor="start" x="903.82" y="-351" font-family="Helvetica,sans-Serif" font-size="10.00">dev&#45;lang</text>
<polygon fill="none" stroke="blue" points="868,-324 868,-344 978,-344 978,-324 868,-324"/>
<text text-anchor="start" x="895.76" y="-331" font-family="Helvetica,sans-Serif" font-size="10.00">python&#45;exec</text>
<polygon fill="none" stroke="blue" points="868,-304 868,-324 978,-324 978,-304 868,-304"/>
<text text-anchor="start" x="894.92" y="-311" font-family="Helvetica,sans-Serif" font-size="10.00">greaterequal</text>
<polygon fill="none" stroke="blue" points="868,-284 868,-304 978,-304 978,-284 868,-284"/>
<text text-anchor="start" x="920.22" y="-291" font-family="Helvetica,sans-Serif" font-size="10.00">2</text>
</g>
<!-- id&#45;&gt;dependency11539 -->
<g id="edge3" class="edge">
<title>id:e&#45;&gt;dependency11539:w</title>
<path fill="none" stroke="black" d="M530.5,-221C585.79,-213.26 597.17,-242.81 647,-268 690.83,-290.16 697.11,-324.35 735.92,-332.31"/>
<ellipse fill="none" stroke="black" cx="750.02" cy="-333.63" rx="4" ry="4"/>
<polygon fill="black" stroke="black" points="746.03,-333.25 735.66,-336.8 741.06,-332.79 736.08,-332.32 736.08,-332.32 736.08,-332.32 741.06,-332.79 736.5,-327.84 746.03,-333.25 746.03,-333.25"/>
</g>
<!-- dependency11540 -->
<g id="node5" class="node">
<title>dependency11540</title>
<polygon fill="none" stroke="blue" points="763,-144 763,-234 868,-234 868,-144 763,-144"/>
<text text-anchor="start" x="793.82" y="-186" font-family="Helvetica,sans-Serif" font-size="10.00">pack_dep</text>
<polygon fill="none" stroke="blue" points="868,-214 868,-234 978,-234 978,-214 868,-214"/>
<text text-anchor="start" x="917.44" y="-221" font-family="Helvetica,sans-Serif" font-size="10.00">no</text>
<polygon fill="none" stroke="blue" points="868,-194 868,-214 978,-214 978,-194 868,-194"/>
<text text-anchor="start" x="906.05" y="-201" font-family="Helvetica,sans-Serif" font-size="10.00">app&#45;cdr</text>
<polygon fill="none" stroke="blue" points="868,-174 868,-194 978,-194 978,-174 868,-174"/>
<text text-anchor="start" x="894.52" y="-181" font-family="Helvetica,sans-Serif" font-size="10.00">dvd+rw&#45;tools</text>
<polygon fill="none" stroke="blue" points="868,-154 868,-174 978,-174 978,-154 868,-154"/>
<text text-anchor="start" x="911.88" y="-161" font-family="Helvetica,sans-Serif" font-size="10.00">none</text>
<polygon fill="none" stroke="blue" points="868,-144 868,-154 978,-154 978,-144 868,-144"/>
</g>
<!-- id&#45;&gt;dependency11540 -->
<g id="edge4" class="edge">
<title>id:e&#45;&gt;dependency11540:w</title>
<path fill="none" stroke="black" d="M530.5,-221C627.16,-207.47 652.3,-189.99 745.94,-189.04"/>
<ellipse fill="none" stroke="black" cx="750" cy="-189.02" rx="4" ry="4"/>
</g>
<!-- dependency11541 -->
<g id="node6" class="node">
<title>dependency11541</title>
<polygon fill="none" stroke="blue" points="763,-28 763,-118 868,-118 868,-28 763,-28"/>
<text text-anchor="start" x="793.82" y="-70" font-family="Helvetica,sans-Serif" font-size="10.00">pack_dep</text>
<polygon fill="none" stroke="blue" points="868,-98 868,-118 978,-118 978,-98 868,-98"/>
<text text-anchor="start" x="917.44" y="-105" font-family="Helvetica,sans-Serif" font-size="10.00">no</text>
<polygon fill="none" stroke="blue" points="868,-78 868,-98 978,-98 978,-78 868,-78"/>
<text text-anchor="start" x="909.66" y="-85" font-family="Helvetica,sans-Serif" font-size="10.00">virtual</text>
<polygon fill="none" stroke="blue" points="868,-58 868,-78 978,-78 978,-58 868,-58"/>
<text text-anchor="start" x="905.49" y="-65" font-family="Helvetica,sans-Serif" font-size="10.00">cdrtools</text>
<polygon fill="none" stroke="blue" points="868,-38 868,-58 978,-58 978,-38 868,-38"/>
<text text-anchor="start" x="911.88" y="-45" font-family="Helvetica,sans-Serif" font-size="10.00">none</text>
<polygon fill="none" stroke="blue" points="868,-28 868,-38 978,-38 978,-28 868,-28"/>
</g>
<!-- id&#45;&gt;dependency11541 -->
<g id="edge5" class="edge">
<title>id:e&#45;&gt;dependency11541:w</title>
<path fill="none" stroke="black" d="M530.5,-221C645.72,-204.87 635.43,-79.1 745.84,-73.21"/>
<ellipse fill="none" stroke="black" cx="750" cy="-73.1" rx="4" ry="4"/>
<path fill="none" stroke="black" d="M305,-301C348.02,-301 355.5,-282.52 396,-268 454.82,-246.9 466.62,-229.66 528.5,-221"/>
</g>
<!-- dependency11538 -->
<g id="node3" class="node">
<title>dependency11538</title>
<polygon fill="none" stroke="blue" points="763,-410 763,-510 868,-510 868,-410 763,-410"/>
<text text-anchor="start" x="793.82" y="-457" font-family="Helvetica,sans-Serif" font-size="10.00">pack_dep</text>
<polygon fill="none" stroke="blue" points="868,-490 868,-510 978,-510 978,-490 868,-490"/>
<text text-anchor="start" x="917.44" y="-497" font-family="Helvetica,sans-Serif" font-size="10.00">no</text>
<polygon fill="none" stroke="blue" points="868,-470 868,-490 978,-490 978,-470 868,-470"/>
<text text-anchor="start" x="903.82" y="-477" font-family="Helvetica,sans-Serif" font-size="10.00">dev&#45;lang</text>
<polygon fill="none" stroke="blue" points="868,-450 868,-470 978,-470 978,-450 868,-450"/>
<text text-anchor="start" x="907.99" y="-457" font-family="Helvetica,sans-Serif" font-size="10.00">python</text>
<polygon fill="none" stroke="blue" points="868,-430 868,-450 978,-450 978,-430 868,-430"/>
<text text-anchor="start" x="894.92" y="-437" font-family="Helvetica,sans-Serif" font-size="10.00">greaterequal</text>
<polygon fill="none" stroke="blue" points="868,-410 868,-430 978,-430 978,-410 868,-410"/>
<text text-anchor="start" x="905.77" y="-417" font-family="Helvetica,sans-Serif" font-size="10.00">2.7.5&#45;r2</text>
</g>
<!-- dependency11537&#45;&gt;dependency11538 -->
<g id="edge1" class="edge">
<title>dependency11537:e&#45;&gt;dependency11538:w</title>
<path fill="none" stroke="black" stroke-dasharray="5,2" d="M647,-382C702.17,-382 696.22,-450.55 743.75,-459.12"/>
<polygon fill="black" stroke="black" points="754,-460 743.65,-463.63 749.02,-459.57 744.04,-459.15 744.04,-459.15 744.04,-459.15 749.02,-459.57 744.42,-454.67 754,-460 754,-460"/>
</g>
<!-- choice10010111845108971101034711212111610411111045504655464950 -->
<g id="node7" class="node">
<title>choice10010111845108971101034711212111610411111045504655464950</title>
<g id="a_node7"><a xlink:href="../dev-lang/python-2.7.12.svg" xlink:title="dev&#45;lang/python&#45;2.7.12">
<ellipse fill="none" stroke="red" cx="1243" cy="-658" rx="144" ry="18"/>
<text text-anchor="middle" x="1243" y="-655" font-family="Helvetica,sans-Serif" font-size="10.00">dev&#45;lang/python&#45;2.7.12</text>
</a>
</g>
</g>
<!-- dependency11538&#45;&gt;choice10010111845108971101034711212111610411111045504655464950 -->
<g id="edge6" class="edge">
<title>dependency11538:e&#45;&gt;choice10010111845108971101034711212111610411111045504655464950:w</title>
<path fill="none" stroke="black" stroke-dasharray="1,5" d="M992,-460C1088.21,-460 1004.7,-643.95 1087.92,-657.24"/>
<polygon fill="black" stroke="black" points="1098,-658 1087.69,-661.74 1093.01,-657.63 1088.03,-657.25 1088.03,-657.25 1088.03,-657.25 1093.01,-657.63 1088.37,-652.76 1098,-658 1098,-658"/>
</g>
<!-- choice10010111845108971101034711212111610411111045504655464952 -->
<g id="node8" class="node">
<title>choice10010111845108971101034711212111610411111045504655464952</title>
<g id="a_node8"><a xlink:href="../dev-lang/python-2.7.14.svg" xlink:title="dev&#45;lang/python&#45;2.7.14">
<ellipse fill="none" stroke="red" cx="1243" cy="-604" rx="144" ry="18"/>
<text text-anchor="middle" x="1243" y="-601" font-family="Helvetica,sans-Serif" font-size="10.00">dev&#45;lang/python&#45;2.7.14</text>
</a>
</g>
</g>
<!-- dependency11538&#45;&gt;choice10010111845108971101034711212111610411111045504655464952 -->
<g id="edge7" class="edge">
<title>dependency11538:e&#45;&gt;choice10010111845108971101034711212111610411111045504655464952:w</title>
<path fill="none" stroke="black" stroke-dasharray="1,5" d="M992,-460C1067.74,-460 1023.2,-590.82 1087.67,-603.08"/>
<polygon fill="black" stroke="black" points="1098,-604 1087.64,-607.6 1093.02,-603.56 1088.04,-603.11 1088.04,-603.11 1088.04,-603.11 1093.02,-603.56 1088.44,-598.63 1098,-604 1098,-604"/>
</g>
<!-- choice100101118451089711010347112121116104111110455146524653 -->
<g id="node9" class="node">
<title>choice100101118451089711010347112121116104111110455146524653</title>
<g id="a_node9"><a xlink:href="../dev-lang/python-3.4.5.svg" xlink:title="dev&#45;lang/python&#45;3.4.5">
<ellipse fill="none" stroke="red" cx="1243" cy="-550" rx="144" ry="18"/>
<text text-anchor="middle" x="1243" y="-547" font-family="Helvetica,sans-Serif" font-size="10.00">dev&#45;lang/python&#45;3.4.5</text>
</a>
</g>
</g>
<!-- dependency11538&#45;&gt;choice100101118451089711010347112121116104111110455146524653 -->
<g id="edge8" class="edge">
<title>dependency11538:e&#45;&gt;choice100101118451089711010347112121116104111110455146524653:w</title>
<path fill="none" stroke="black" stroke-dasharray="1,5" d="M992,-460C1050.18,-460 1037.99,-539.76 1087.92,-549.11"/>
<polygon fill="black" stroke="black" points="1098,-550 1087.64,-553.6 1093.02,-549.56 1088.04,-549.12 1088.04,-549.12 1088.04,-549.12 1093.02,-549.56 1088.44,-544.64 1098,-550 1098,-550"/>
</g>
<!-- choice100101118451089711010347112121116104111110455146524654 -->
<g id="node10" class="node">
<title>choice100101118451089711010347112121116104111110455146524654</title>
<g id="a_node10"><a xlink:href="../dev-lang/python-3.4.6.svg" xlink:title="dev&#45;lang/python&#45;3.4.6">
<ellipse fill="none" stroke="red" cx="1243" cy="-496" rx="144" ry="18"/>
<text text-anchor="middle" x="1243" y="-493" font-family="Helvetica,sans-Serif" font-size="10.00">dev&#45;lang/python&#45;3.4.6</text>
</a>
</g>
</g>
<!-- dependency11538&#45;&gt;choice100101118451089711010347112121116104111110455146524654 -->
<g id="edge9" class="edge">
<title>dependency11538:e&#45;&gt;choice100101118451089711010347112121116104111110455146524654:w</title>
<path fill="none" stroke="black" stroke-dasharray="1,5" d="M992,-460C1038.16,-460 1047.08,-490.98 1087.86,-495.46"/>
<polygon fill="black" stroke="black" points="1098,-496 1087.78,-499.97 1093.01,-495.74 1088.01,-495.47 1088.01,-495.47 1088.01,-495.47 1093.01,-495.74 1088.25,-490.98 1098,-496 1098,-496"/>
</g>
<!-- choice100101118451089711010347112121116104111110455146534652 -->
<g id="node11" class="node">
<title>choice100101118451089711010347112121116104111110455146534652</title>
<g id="a_node11"><a xlink:href="../dev-lang/python-3.5.4.svg" xlink:title="dev&#45;lang/python&#45;3.5.4">
<ellipse fill="none" stroke="red" cx="1243" cy="-442" rx="144" ry="18"/>
<text text-anchor="middle" x="1243" y="-439" font-family="Helvetica,sans-Serif" font-size="10.00">dev&#45;lang/python&#45;3.5.4</text>
</a>
</g>
</g>
<!-- dependency11538&#45;&gt;choice100101118451089711010347112121116104111110455146534652 -->
<g id="edge10" class="edge">
<title>dependency11538:e&#45;&gt;choice100101118451089711010347112121116104111110455146534652:w</title>
<path fill="none" stroke="black" stroke-dasharray="1,5" d="M992,-460C1036.24,-460 1048.46,-444.57 1087.95,-442.28"/>
<polygon fill="black" stroke="black" points="1098,-442 1088.13,-446.78 1093,-442.14 1088,-442.28 1088,-442.28 1088,-442.28 1093,-442.14 1087.88,-437.78 1098,-442 1098,-442"/>
</g>
<!-- choice100101118451089711010347112121116104111110455146544651 -->
<g id="node12" class="node">
<title>choice100101118451089711010347112121116104111110455146544651</title>
<g id="a_node12"><a xlink:href="../dev-lang/python-3.6.3.svg" xlink:title="dev&#45;lang/python&#45;3.6.3">
<ellipse fill="none" stroke="red" cx="1243" cy="-388" rx="144" ry="18"/>
<text text-anchor="middle" x="1243" y="-385" font-family="Helvetica,sans-Serif" font-size="10.00">dev&#45;lang/python&#45;3.6.3</text>
</a>
</g>
</g>
<!-- dependency11538&#45;&gt;choice100101118451089711010347112121116104111110455146544651 -->
<g id="edge11" class="edge">
<title>dependency11538:e&#45;&gt;choice100101118451089711010347112121116104111110455146544651:w</title>
<path fill="none" stroke="black" stroke-dasharray="1,5" d="M992,-460C1045.28,-460 1041.8,-396.98 1087.76,-388.86"/>
<polygon fill="black" stroke="black" points="1098,-388 1088.41,-393.32 1093.02,-388.42 1088.03,-388.84 1088.03,-388.84 1088.03,-388.84 1093.02,-388.42 1087.66,-384.35 1098,-388 1098,-388"/>
</g>
<!-- choice1001011184510897110103471121211161041111104510112010199455046524652 -->
<g id="node13" class="node">
<title>choice1001011184510897110103471121211161041111104510112010199455046524652</title>
<g id="a_node13"><a xlink:href="../dev-lang/python-exec-2.4.4.svg" xlink:title="dev&#45;lang/python&#45;exec&#45;2.4.4">
<ellipse fill="none" stroke="red" cx="1243" cy="-334" rx="144" ry="18"/>
<text text-anchor="middle" x="1243" y="-331" font-family="Helvetica,sans-Serif" font-size="10.00">dev&#45;lang/python&#45;exec&#45;2.4.4</text>
</a>
</g>
</g>
<!-- dependency11539&#45;&gt;choice1001011184510897110103471121211161041111104510112010199455046524652 -->
<g id="edge12" class="edge">
<title>dependency11539:e&#45;&gt;choice1001011184510897110103471121211161041111104510112010199455046524652:w</title>
<path fill="none" stroke="black" stroke-dasharray="1,5" d="M992,-334C1035.43,-334 1048.83,-334 1087.57,-334"/>
<polygon fill="black" stroke="black" points="1098,-334 1088,-338.5 1093,-334 1088,-334 1088,-334 1088,-334 1093,-334 1088,-329.5 1098,-334 1098,-334"/>
</g>
<!-- choice1001011184510897110103471121211161041111104510112010199455046524653 -->
<g id="node14" class="node">
<title>choice1001011184510897110103471121211161041111104510112010199455046524653</title>
<g id="a_node14"><a xlink:href="../dev-lang/python-exec-2.4.5.svg" xlink:title="dev&#45;lang/python&#45;exec&#45;2.4.5">
<ellipse fill="none" stroke="red" cx="1243" cy="-280" rx="144" ry="18"/>
<text text-anchor="middle" x="1243" y="-277" font-family="Helvetica,sans-Serif" font-size="10.00">dev&#45;lang/python&#45;exec&#45;2.4.5</text>
</a>
</g>
</g>
<!-- dependency11539&#45;&gt;choice1001011184510897110103471121211161041111104510112010199455046524653 -->
<g id="edge13" class="edge">
<title>dependency11539:e&#45;&gt;choice1001011184510897110103471121211161041111104510112010199455046524653:w</title>
<path fill="none" stroke="black" stroke-dasharray="1,5" d="M992,-334C1041.26,-334 1044.85,-287.13 1087.86,-280.72"/>
<polygon fill="black" stroke="black" points="1098,-280 1088.35,-285.2 1093.01,-280.36 1088.03,-280.71 1088.03,-280.71 1088.03,-280.71 1093.01,-280.36 1087.71,-276.22 1098,-280 1098,-280"/>
</g>
<!-- choice10010111845108971101034711212111610411111045101120101994557575757 -->
<g id="node15" class="node">
<title>choice10010111845108971101034711212111610411111045101120101994557575757</title>
<g id="a_node15"><a xlink:href="../dev-lang/python-exec-9999.svg" xlink:title="dev&#45;lang/python&#45;exec&#45;9999">
<ellipse fill="none" stroke="red" cx="1243" cy="-226" rx="144" ry="18"/>
<text text-anchor="middle" x="1243" y="-223" font-family="Helvetica,sans-Serif" font-size="10.00">dev&#45;lang/python&#45;exec&#45;9999</text>
</a>
</g>
</g>
<!-- dependency11539&#45;&gt;choice10010111845108971101034711212111610411111045101120101994557575757 -->
<g id="edge14" class="edge">
<title>dependency11539:e&#45;&gt;choice10010111845108971101034711212111610411111045101120101994557575757:w</title>
<path fill="none" stroke="black" stroke-dasharray="1,5" d="M992,-334C1055.58,-334 1033.58,-237.49 1087.79,-226.93"/>
<polygon fill="black" stroke="black" points="1098,-226 1088.45,-231.39 1093.02,-226.46 1088.04,-226.91 1088.04,-226.91 1088.04,-226.91 1093.02,-226.46 1087.63,-222.43 1098,-226 1098,-226"/>
</g>
<!-- choice971121124599100114471001181004311411945116111111108115455546494511451 -->
<g id="node16" class="node">
<title>choice971121124599100114471001181004311411945116111111108115455546494511451</title>
<g id="a_node16"><a xlink:href="../app-cdr/dvd+rw-tools-7.1-r3.svg" xlink:title="app&#45;cdr/dvd+rw&#45;tools&#45;7.1&#45;r3">
<ellipse fill="none" stroke="red" cx="1243" cy="-172" rx="144" ry="18"/>
<text text-anchor="middle" x="1243" y="-169" font-family="Helvetica,sans-Serif" font-size="10.00">app&#45;cdr/dvd+rw&#45;tools&#45;7.1&#45;r3</text>
</a>
</g>
</g>
<!-- dependency11540&#45;&gt;choice971121124599100114471001181004311411945116111111108115455546494511451 -->
<g id="edge15" class="edge">
<title>dependency11540:e&#45;&gt;choice971121124599100114471001181004311411945116111111108115455546494511451:w</title>
<path fill="none" stroke="black" stroke-dasharray="1,5" d="M992,-189C1036.17,-189 1048.51,-174.43 1087.96,-172.27"/>
<polygon fill="black" stroke="black" points="1098,-172 1088.12,-176.76 1093,-172.13 1088,-172.27 1088,-172.27 1088,-172.27 1093,-172.13 1087.88,-167.77 1098,-172 1098,-172"/>
</g>
<!-- choice1181051141161179710847991001141161111111081154548 -->
<g id="node17" class="node">
<title>choice1181051141161179710847991001141161111111081154548</title>
<g id="a_node17"><a xlink:href="../virtual/cdrtools-0.svg" xlink:title="virtual/cdrtools&#45;0">
<ellipse fill="none" stroke="red" cx="1243" cy="-118" rx="144" ry="18"/>
<text text-anchor="middle" x="1243" y="-115" font-family="Helvetica,sans-Serif" font-size="10.00">virtual/cdrtools&#45;0</text>
</a>
</g>
</g>
<!-- dependency11541&#45;&gt;choice1181051141161179710847991001141161111111081154548 -->
<g id="edge16" class="edge">
<title>dependency11541:e&#45;&gt;choice1181051141161179710847991001141161111111081154548:w</title>
<path fill="none" stroke="black" stroke-dasharray="1,5" d="M992,-73C1039.58,-73 1046.07,-111.89 1087.88,-117.36"/>
<polygon fill="black" stroke="black" points="1098,-118 1087.74,-121.86 1093.01,-117.69 1088.02,-117.37 1088.02,-117.37 1088.02,-117.37 1093.01,-117.69 1088.3,-112.88 1098,-118 1098,-118"/>
</g>
</g>
</svg>
