<?xml version="1.0" encoding="UTF-8" standalone="no"?>
<!DOCTYPE svg PUBLIC "-//W3C//DTD SVG 1.1//EN"
 "http://www.w3.org/Graphics/SVG/1.1/DTD/svg11.dtd">
<!-- Generated by graphviz version 9.0.0 (20230911.1827)
 -->
<!-- Title: prolog Pages: 1 -->
<svg width="732pt" height="1277pt"
 viewBox="0.00 0.00 732.00 1277.00" xmlns="http://www.w3.org/2000/svg" xmlns:xlink="http://www.w3.org/1999/xlink">
<g id="graph0" class="graph" transform="scale(1 1) rotate(0) translate(4 1273)">
<title>prolog</title>
<polygon fill="white" stroke="none" points="-4,4 -4,-1273 728,-1273 728,4 -4,4"/>
<g id="clust10" class="cluster">
<title>cluster_choices</title>
<polygon fill="none" stroke="gray" points="412,-8 412,-1261 716,-1261 716,-8 412,-8"/>
<text text-anchor="start" x="540.38" y="-1248.5" font-family="Helvetica,sans-Serif" font-style="italic" font-size="10.00">candidates</text>
</g>
<g id="clust2" class="cluster">
<title>cluster_midcol</title>
<polygon fill="none" stroke="gray" points="8,-483 8,-589 328,-589 328,-483 8,-483"/>
<text text-anchor="start" x="138" y="-576.5" font-family="Helvetica,sans-Serif" font-style="italic" font-size="10.00">dependencies</text>
</g>
<g id="clust5" class="cluster">
<title>cluster_run</title>
<polygon fill="#eeeeee" stroke="gray" points="16,-491 16,-562 320,-562 320,-491 16,-491"/>
<text text-anchor="start" x="161.25" y="-549.5" font-family="Helvetica,sans-Serif" font-style="italic" font-size="10.00">run</text>
</g>
<!-- id -->
<g id="node1" class="node">
<title>id</title>
<g id="a_node1"><a xlink:href="../app-xemacs/easypg-1.02.svg" xlink:title="portage://app&#45;xemacs/easypg&#45;1.02">
<ellipse fill="none" stroke="red" cx="168" cy="-517" rx="144" ry="18"/>
<text text-anchor="middle" x="168" y="-513.12" font-family="Helvetica,sans-Serif" font-size="10.00">portage://app&#45;xemacs/easypg&#45;1.02</text>
</a>
</g>
</g>
<!-- dependency588543 -->
<g id="node2" class="node">
<title>dependency588543</title>
<polygon fill="none" stroke="blue" points="454,-920 454,-1014 558,-1014 558,-920 454,-920"/>
<text text-anchor="start" x="485" y="-963.12" font-family="Helvetica,sans-Serif" font-size="10.00">pack_dep</text>
<polygon fill="none" stroke="blue" points="558,-993 558,-1014 668,-1014 668,-993 558,-993"/>
<text text-anchor="start" x="607.75" y="-999.5" font-family="Helvetica,sans-Serif" font-size="10.00">no</text>
<polygon fill="none" stroke="blue" points="558,-972 558,-993 668,-993 668,-972 558,-972"/>
<text text-anchor="start" x="589" y="-978.5" font-family="Helvetica,sans-Serif" font-size="10.00">app&#45;editors</text>
<polygon fill="none" stroke="blue" points="558,-951 558,-972 668,-972 668,-951 558,-951"/>
<text text-anchor="start" x="595.75" y="-957.5" font-family="Helvetica,sans-Serif" font-size="10.00">xemacs</text>
<polygon fill="none" stroke="blue" points="558,-930 558,-951 668,-951 668,-930 558,-930"/>
<text text-anchor="start" x="602.5" y="-936.5" font-family="Helvetica,sans-Serif" font-size="10.00">none</text>
<polygon fill="none" stroke="blue" points="558,-920 558,-930 668,-930 668,-920 558,-920"/>
</g>
<!-- id&#45;&gt;dependency588543 -->
<g id="edge1" class="edge">
<title>id:e&#45;&gt;dependency588543:w</title>
<path fill="none" stroke="black" d="M313,-517C518.37,-517 244.81,-953.91 436.16,-966.71"/>
<ellipse fill="none" stroke="black" cx="440.5" cy="-966.85" rx="4" ry="4"/>
</g>
<!-- dependency588544 -->
<g id="node3" class="node">
<title>dependency588544</title>
<polygon fill="none" stroke="blue" points="454,-584 454,-678 558,-678 558,-584 454,-584"/>
<text text-anchor="start" x="485" y="-627.12" font-family="Helvetica,sans-Serif" font-size="10.00">pack_dep</text>
<polygon fill="none" stroke="blue" points="558,-657 558,-678 668,-678 668,-657 558,-657"/>
<text text-anchor="start" x="607.75" y="-663.5" font-family="Helvetica,sans-Serif" font-size="10.00">no</text>
<polygon fill="none" stroke="blue" points="558,-636 558,-657 668,-657 668,-636 558,-636"/>
<text text-anchor="start" x="586.38" y="-642.5" font-family="Helvetica,sans-Serif" font-size="10.00">app&#45;xemacs</text>
<polygon fill="none" stroke="blue" points="558,-615 558,-636 668,-636 668,-615 558,-615"/>
<text text-anchor="start" x="602.5" y="-621.5" font-family="Helvetica,sans-Serif" font-size="10.00">dired</text>
<polygon fill="none" stroke="blue" points="558,-594 558,-615 668,-615 668,-594 558,-594"/>
<text text-anchor="start" x="602.5" y="-600.5" font-family="Helvetica,sans-Serif" font-size="10.00">none</text>
<polygon fill="none" stroke="blue" points="558,-584 558,-594 668,-594 668,-584 558,-584"/>
</g>
<!-- id&#45;&gt;dependency588544 -->
<g id="edge2" class="edge">
<title>id:e&#45;&gt;dependency588544:w</title>
<path fill="none" stroke="black" d="M313,-517C387.49,-517 369.13,-622.27 436.36,-630.49"/>
<ellipse fill="none" stroke="black" cx="440.51" cy="-630.74" rx="4" ry="4"/>
</g>
<!-- dependency588545 -->
<g id="node4" class="node">
<title>dependency588545</title>
<polygon fill="none" stroke="blue" points="454,-356 454,-450 558,-450 558,-356 454,-356"/>
<text text-anchor="start" x="485" y="-399.12" font-family="Helvetica,sans-Serif" font-size="10.00">pack_dep</text>
<polygon fill="none" stroke="blue" points="558,-429 558,-450 668,-450 668,-429 558,-429"/>
<text text-anchor="start" x="607.75" y="-435.5" font-family="Helvetica,sans-Serif" font-size="10.00">no</text>
<polygon fill="none" stroke="blue" points="558,-408 558,-429 668,-429 668,-408 558,-408"/>
<text text-anchor="start" x="586.38" y="-414.5" font-family="Helvetica,sans-Serif" font-size="10.00">app&#45;xemacs</text>
<polygon fill="none" stroke="blue" points="558,-387 558,-408 668,-408 668,-387 558,-387"/>
<text text-anchor="start" x="597.62" y="-393.5" font-family="Helvetica,sans-Serif" font-size="10.00">mail&#45;lib</text>
<polygon fill="none" stroke="blue" points="558,-366 558,-387 668,-387 668,-366 558,-366"/>
<text text-anchor="start" x="602.5" y="-372.5" font-family="Helvetica,sans-Serif" font-size="10.00">none</text>
<polygon fill="none" stroke="blue" points="558,-356 558,-366 668,-366 668,-356 558,-356"/>
</g>
<!-- id&#45;&gt;dependency588545 -->
<g id="edge3" class="edge">
<title>id:e&#45;&gt;dependency588545:w</title>
<path fill="none" stroke="black" d="M313,-517C387.49,-517 369.13,-411.73 436.36,-403.51"/>
<ellipse fill="none" stroke="black" cx="440.51" cy="-403.26" rx="4" ry="4"/>
</g>
<!-- dependency588546 -->
<g id="node5" class="node">
<title>dependency588546</title>
<polygon fill="none" stroke="blue" points="454,-20 454,-114 558,-114 558,-20 454,-20"/>
<text text-anchor="start" x="485" y="-63.12" font-family="Helvetica,sans-Serif" font-size="10.00">pack_dep</text>
<polygon fill="none" stroke="blue" points="558,-93 558,-114 668,-114 668,-93 558,-93"/>
<text text-anchor="start" x="607.75" y="-99.5" font-family="Helvetica,sans-Serif" font-size="10.00">no</text>
<polygon fill="none" stroke="blue" points="558,-72 558,-93 668,-93 668,-72 558,-72"/>
<text text-anchor="start" x="586.38" y="-78.5" font-family="Helvetica,sans-Serif" font-size="10.00">app&#45;xemacs</text>
<polygon fill="none" stroke="blue" points="558,-51 558,-72 668,-72 668,-51 558,-51"/>
<text text-anchor="start" x="583.75" y="-57.5" font-family="Helvetica,sans-Serif" font-size="10.00">xemacs&#45;base</text>
<polygon fill="none" stroke="blue" points="558,-30 558,-51 668,-51 668,-30 558,-30"/>
<text text-anchor="start" x="602.5" y="-36.5" font-family="Helvetica,sans-Serif" font-size="10.00">none</text>
<polygon fill="none" stroke="blue" points="558,-20 558,-30 668,-30 668,-20 558,-20"/>
</g>
<!-- id&#45;&gt;dependency588546 -->
<g id="edge4" class="edge">
<title>id:e&#45;&gt;dependency588546:w</title>
<path fill="none" stroke="black" d="M313,-517C518.37,-517 244.81,-80.09 436.16,-67.29"/>
<ellipse fill="none" stroke="black" cx="440.5" cy="-67.15" rx="4" ry="4"/>
</g>
<!-- choice971121124510110010511611111411547120101109979911545504946534651524511452 -->
<g id="node6" class="node">
<title>choice971121124510110010511611111411547120101109979911545504946534651524511452</title>
<g id="a_node6"><a xlink:href="../app-editors/xemacs-21.5.34-r4.svg" xlink:title="portage://app&#45;editors/xemacs&#45;21.5.34&#45;r4">
<ellipse fill="none" stroke="red" cx="564" cy="-1216" rx="144" ry="18"/>
<text text-anchor="middle" x="564" y="-1212.12" font-family="Helvetica,sans-Serif" font-size="10.00">portage://app&#45;editors/xemacs&#45;21.5.34&#45;r4</text>
</a>
</g>
</g>
<!-- dependency588543&#45;&gt;choice971121124510110010511611111411547120101109979911545504946534651524511452 -->
<g id="edge5" class="edge">
<title>dependency588543:e&#45;&gt;choice971121124510110010511611111411547120101109979911545504946534651524511452:w</title>
<path fill="none" stroke="black" stroke-dasharray="1,5" d="M683,-967C705.67,-967 697.92,-1001.86 682,-1018 657.62,-1042.72 391.83,-1009 370,-1036 320.22,-1097.58 334.59,-1205.72 408.22,-1215.32"/>
<polygon fill="black" stroke="black" points="417.78,-1215.92 407.52,-1219.78 414.01,-1215.68 407.8,-1215.29 407.8,-1215.29 407.8,-1215.29 414.01,-1215.68 408.09,-1210.8 417.78,-1215.92"/>
</g>
<!-- choice971121124510110010511611111411547120101109979911545504946524650524511450 -->
<g id="node7" class="node">
<title>choice971121124510110010511611111411547120101109979911545504946524650524511450</title>
<g id="a_node7"><a xlink:href="../app-editors/xemacs-21.4.24-r2.svg" xlink:title="portage://app&#45;editors/xemacs&#45;21.4.24&#45;r2">
<ellipse fill="none" stroke="red" cx="564" cy="-1162" rx="144" ry="18"/>
<text text-anchor="middle" x="564" y="-1158.12" font-family="Helvetica,sans-Serif" font-size="10.00">portage://app&#45;editors/xemacs&#45;21.4.24&#45;r2</text>
</a>
</g>
</g>
<!-- dependency588543&#45;&gt;choice971121124510110010511611111411547120101109979911545504946524650524511450 -->
<g id="edge6" class="edge">
<title>dependency588543:e&#45;&gt;choice971121124510110010511611111411547120101109979911545504946524650524511450:w</title>
<path fill="none" stroke="black" stroke-dasharray="1,5" d="M683,-967C705.67,-967 697.92,-1001.86 682,-1018 657.62,-1042.72 391.83,-1009 370,-1036 334.59,-1079.81 355.83,-1152.22 408.13,-1161.1"/>
<polygon fill="black" stroke="black" points="417.79,-1161.9 407.45,-1165.56 414.02,-1161.59 407.82,-1161.07 407.82,-1161.07 407.82,-1161.07 414.02,-1161.59 408.19,-1156.59 417.79,-1161.9"/>
</g>
<!-- choice971121124510110010511611111411547120101109979911545504946524650524511449 -->
<g id="node8" class="node">
<title>choice971121124510110010511611111411547120101109979911545504946524650524511449</title>
<g id="a_node8"><a xlink:href="../app-editors/xemacs-21.4.24-r1.svg" xlink:title="portage://app&#45;editors/xemacs&#45;21.4.24&#45;r1">
<ellipse fill="none" stroke="red" cx="564" cy="-1108" rx="144" ry="18"/>
<text text-anchor="middle" x="564" y="-1104.12" font-family="Helvetica,sans-Serif" font-size="10.00">portage://app&#45;editors/xemacs&#45;21.4.24&#45;r1</text>
</a>
</g>
</g>
<!-- dependency588543&#45;&gt;choice971121124510110010511611111411547120101109979911545504946524650524511449 -->
<g id="edge7" class="edge">
<title>dependency588543:e&#45;&gt;choice971121124510110010511611111411547120101109979911545504946524650524511449:w</title>
<path fill="none" stroke="black" stroke-dasharray="1,5" d="M683,-967C705.67,-967 697.92,-1001.86 682,-1018 657.62,-1042.72 391.83,-1009 370,-1036 347.95,-1063.28 374.32,-1100.25 408.27,-1106.94"/>
<polygon fill="black" stroke="black" points="417.79,-1107.88 407.39,-1111.38 414.02,-1107.51 407.84,-1106.9 407.84,-1106.9 407.84,-1106.9 414.02,-1107.51 408.28,-1102.42 417.79,-1107.88"/>
</g>
<!-- choice97112112451011001051161111141154712010110997991154550494652465052 -->
<g id="node9" class="node">
<title>choice97112112451011001051161111141154712010110997991154550494652465052</title>
<g id="a_node9"><a xlink:href="../app-editors/xemacs-21.4.24.svg" xlink:title="portage://app&#45;editors/xemacs&#45;21.4.24">
<ellipse fill="none" stroke="red" cx="564" cy="-1054" rx="144" ry="18"/>
<text text-anchor="middle" x="564" y="-1050.12" font-family="Helvetica,sans-Serif" font-size="10.00">portage://app&#45;editors/xemacs&#45;21.4.24</text>
</a>
</g>
</g>
<!-- dependency588543&#45;&gt;choice97112112451011001051161111141154712010110997991154550494652465052 -->
<g id="edge8" class="edge">
<title>dependency588543:e&#45;&gt;choice97112112451011001051161111141154712010110997991154550494652465052:w</title>
<path fill="none" stroke="black" stroke-dasharray="1,5" d="M415.36,-1043.45C416.4,-1040.7 418.07,-1037.96 420,-1036 461,-994.46 641.76,-1060.26 682,-1018 697.63,-1001.58 705.67,-967 683,-967"/>
<polygon fill="black" stroke="black" points="418.6,-1052.85 411.09,-1044.86 417.37,-1049.27 415.34,-1043.39 415.34,-1043.39 415.34,-1043.39 417.37,-1049.27 419.6,-1041.93 418.6,-1052.85"/>
</g>
<!-- choice97112112451201011099799115471001051141011004549465050 -->
<g id="node10" class="node">
<title>choice97112112451201011099799115471001051141011004549465050</title>
<g id="a_node10"><a xlink:href="../app-xemacs/dired-1.22.svg" xlink:title="portage://app&#45;xemacs/dired&#45;1.22">
<ellipse fill="none" stroke="red" cx="564" cy="-880" rx="144" ry="18"/>
<text text-anchor="middle" x="564" y="-876.12" font-family="Helvetica,sans-Serif" font-size="10.00">portage://app&#45;xemacs/dired&#45;1.22</text>
</a>
</g>
</g>
<!-- dependency588544&#45;&gt;choice97112112451201011099799115471001051141011004549465050 -->
<g id="edge9" class="edge">
<title>dependency588544:e&#45;&gt;choice97112112451201011099799115471001051141011004549465050:w</title>
<path fill="none" stroke="black" stroke-dasharray="1,5" d="M683,-631C705.67,-631 697.92,-665.86 682,-682 657.62,-706.72 391.83,-673 370,-700 320.22,-761.58 334.59,-869.72 408.22,-879.32"/>
<polygon fill="black" stroke="black" points="417.78,-879.92 407.52,-883.78 414.01,-879.68 407.8,-879.29 407.8,-879.29 407.8,-879.29 414.01,-879.68 408.09,-874.8 417.78,-879.92"/>
</g>
<!-- choice97112112451201011099799115471001051141011004549465048 -->
<g id="node11" class="node">
<title>choice97112112451201011099799115471001051141011004549465048</title>
<g id="a_node11"><a xlink:href="../app-xemacs/dired-1.20.svg" xlink:title="portage://app&#45;xemacs/dired&#45;1.20">
<ellipse fill="none" stroke="red" cx="564" cy="-826" rx="144" ry="18"/>
<text text-anchor="middle" x="564" y="-822.12" font-family="Helvetica,sans-Serif" font-size="10.00">portage://app&#45;xemacs/dired&#45;1.20</text>
</a>
</g>
</g>
<!-- dependency588544&#45;&gt;choice97112112451201011099799115471001051141011004549465048 -->
<g id="edge10" class="edge">
<title>dependency588544:e&#45;&gt;choice97112112451201011099799115471001051141011004549465048:w</title>
<path fill="none" stroke="black" stroke-dasharray="1,5" d="M683,-631C705.67,-631 697.92,-665.86 682,-682 657.62,-706.72 391.83,-673 370,-700 334.59,-743.81 355.83,-816.22 408.13,-825.1"/>
<polygon fill="black" stroke="black" points="417.79,-825.9 407.45,-829.56 414.02,-825.59 407.82,-825.07 407.82,-825.07 407.82,-825.07 414.02,-825.59 408.19,-820.59 417.79,-825.9"/>
</g>
<!-- choice97112112451201011099799115471001051141011004549464957 -->
<g id="node12" class="node">
<title>choice97112112451201011099799115471001051141011004549464957</title>
<g id="a_node12"><a xlink:href="../app-xemacs/dired-1.19.svg" xlink:title="portage://app&#45;xemacs/dired&#45;1.19">
<ellipse fill="none" stroke="red" cx="564" cy="-772" rx="144" ry="18"/>
<text text-anchor="middle" x="564" y="-768.12" font-family="Helvetica,sans-Serif" font-size="10.00">portage://app&#45;xemacs/dired&#45;1.19</text>
</a>
</g>
</g>
<!-- dependency588544&#45;&gt;choice97112112451201011099799115471001051141011004549464957 -->
<g id="edge11" class="edge">
<title>dependency588544:e&#45;&gt;choice97112112451201011099799115471001051141011004549464957:w</title>
<path fill="none" stroke="black" stroke-dasharray="1,5" d="M683,-631C705.67,-631 697.92,-665.86 682,-682 657.62,-706.72 391.83,-673 370,-700 347.95,-727.28 374.32,-764.25 408.27,-770.94"/>
<polygon fill="black" stroke="black" points="417.79,-771.88 407.39,-775.38 414.02,-771.51 407.84,-770.9 407.84,-770.9 407.84,-770.9 414.02,-771.51 408.28,-766.42 417.79,-771.88"/>
</g>
<!-- choice97112112451201011099799115471001051141011004549464955 -->
<g id="node13" class="node">
<title>choice97112112451201011099799115471001051141011004549464955</title>
<g id="a_node13"><a xlink:href="../app-xemacs/dired-1.17.svg" xlink:title="portage://app&#45;xemacs/dired&#45;1.17">
<ellipse fill="none" stroke="red" cx="564" cy="-718" rx="144" ry="18"/>
<text text-anchor="middle" x="564" y="-714.12" font-family="Helvetica,sans-Serif" font-size="10.00">portage://app&#45;xemacs/dired&#45;1.17</text>
</a>
</g>
</g>
<!-- dependency588544&#45;&gt;choice97112112451201011099799115471001051141011004549464955 -->
<g id="edge12" class="edge">
<title>dependency588544:e&#45;&gt;choice97112112451201011099799115471001051141011004549464955:w</title>
<path fill="none" stroke="black" stroke-dasharray="1,5" d="M415.36,-707.45C416.4,-704.7 418.07,-701.96 420,-700 461,-658.46 641.76,-724.26 682,-682 697.63,-665.58 705.67,-631 683,-631"/>
<polygon fill="black" stroke="black" points="418.6,-716.85 411.09,-708.86 417.37,-713.27 415.34,-707.39 415.34,-707.39 415.34,-707.39 417.37,-713.27 419.6,-705.93 418.6,-716.85"/>
</g>
<!-- choice97112112451201011099799115471099710510845108105984549465652 -->
<g id="node14" class="node">
<title>choice97112112451201011099799115471099710510845108105984549465652</title>
<g id="a_node14"><a xlink:href="../app-xemacs/mail-lib-1.84.svg" xlink:title="portage://app&#45;xemacs/mail&#45;lib&#45;1.84">
<ellipse fill="none" stroke="red" cx="564" cy="-544" rx="144" ry="18"/>
<text text-anchor="middle" x="564" y="-540.12" font-family="Helvetica,sans-Serif" font-size="10.00">portage://app&#45;xemacs/mail&#45;lib&#45;1.84</text>
</a>
</g>
</g>
<!-- dependency588545&#45;&gt;choice97112112451201011099799115471099710510845108105984549465652 -->
<g id="edge13" class="edge">
<title>dependency588545:e&#45;&gt;choice97112112451201011099799115471099710510845108105984549465652:w</title>
<path fill="none" stroke="black" stroke-dasharray="1,5" d="M683,-403C705.67,-403 697.92,-437.86 682,-454 657.62,-478.72 391.83,-445 370,-472 347.95,-499.28 374.32,-536.25 408.27,-542.94"/>
<polygon fill="black" stroke="black" points="417.79,-543.88 407.39,-547.38 414.02,-543.51 407.84,-542.9 407.84,-542.9 407.84,-542.9 414.02,-543.51 408.28,-538.42 417.79,-543.88"/>
</g>
<!-- choice97112112451201011099799115471099710510845108105984549465651 -->
<g id="node15" class="node">
<title>choice97112112451201011099799115471099710510845108105984549465651</title>
<g id="a_node15"><a xlink:href="../app-xemacs/mail-lib-1.83.svg" xlink:title="portage://app&#45;xemacs/mail&#45;lib&#45;1.83">
<ellipse fill="none" stroke="red" cx="564" cy="-490" rx="144" ry="18"/>
<text text-anchor="middle" x="564" y="-486.12" font-family="Helvetica,sans-Serif" font-size="10.00">portage://app&#45;xemacs/mail&#45;lib&#45;1.83</text>
</a>
</g>
</g>
<!-- dependency588545&#45;&gt;choice97112112451201011099799115471099710510845108105984549465651 -->
<g id="edge14" class="edge">
<title>dependency588545:e&#45;&gt;choice97112112451201011099799115471099710510845108105984549465651:w</title>
<path fill="none" stroke="black" stroke-dasharray="1,5" d="M415.36,-479.45C416.4,-476.7 418.07,-473.96 420,-472 461,-430.46 641.76,-496.26 682,-454 697.63,-437.58 705.67,-403 683,-403"/>
<polygon fill="black" stroke="black" points="418.6,-488.85 411.09,-480.86 417.37,-485.27 415.34,-479.39 415.34,-479.39 415.34,-479.39 417.37,-485.27 419.6,-477.93 418.6,-488.85"/>
</g>
<!-- choice971121124512010110997991154712010110997991154598971151014550465254 -->
<g id="node16" class="node">
<title>choice971121124512010110997991154712010110997991154598971151014550465254</title>
<g id="a_node16"><a xlink:href="../app-xemacs/xemacs-base-2.46.svg" xlink:title="portage://app&#45;xemacs/xemacs&#45;base&#45;2.46">
<ellipse fill="none" stroke="red" cx="564" cy="-316" rx="144" ry="18"/>
<text text-anchor="middle" x="564" y="-312.12" font-family="Helvetica,sans-Serif" font-size="10.00">portage://app&#45;xemacs/xemacs&#45;base&#45;2.46</text>
</a>
</g>
</g>
<!-- dependency588546&#45;&gt;choice971121124512010110997991154712010110997991154598971151014550465254 -->
<g id="edge15" class="edge">
<title>dependency588546:e&#45;&gt;choice971121124512010110997991154712010110997991154598971151014550465254:w</title>
<path fill="none" stroke="black" stroke-dasharray="1,5" d="M683,-67C705.67,-67 697.92,-101.86 682,-118 657.62,-142.72 391.83,-109 370,-136 320.22,-197.58 334.59,-305.72 408.22,-315.32"/>
<polygon fill="black" stroke="black" points="417.78,-315.92 407.52,-319.78 414.01,-315.68 407.8,-315.29 407.8,-315.29 407.8,-315.29 414.01,-315.68 408.09,-310.8 417.78,-315.92"/>
</g>
<!-- choice971121124512010110997991154712010110997991154598971151014550465055 -->
<g id="node17" class="node">
<title>choice971121124512010110997991154712010110997991154598971151014550465055</title>
<g id="a_node17"><a xlink:href="../app-xemacs/xemacs-base-2.27.svg" xlink:title="portage://app&#45;xemacs/xemacs&#45;base&#45;2.27">
<ellipse fill="none" stroke="red" cx="564" cy="-262" rx="144" ry="18"/>
<text text-anchor="middle" x="564" y="-258.12" font-family="Helvetica,sans-Serif" font-size="10.00">portage://app&#45;xemacs/xemacs&#45;base&#45;2.27</text>
</a>
</g>
</g>
<!-- dependency588546&#45;&gt;choice971121124512010110997991154712010110997991154598971151014550465055 -->
<g id="edge16" class="edge">
<title>dependency588546:e&#45;&gt;choice971121124512010110997991154712010110997991154598971151014550465055:w</title>
<path fill="none" stroke="black" stroke-dasharray="1,5" d="M683,-67C705.67,-67 697.92,-101.86 682,-118 657.62,-142.72 391.83,-109 370,-136 334.59,-179.81 355.83,-252.22 408.13,-261.1"/>
<polygon fill="black" stroke="black" points="417.79,-261.9 407.45,-265.56 414.02,-261.59 407.82,-261.07 407.82,-261.07 407.82,-261.07 414.02,-261.59 408.19,-256.59 417.79,-261.9"/>
</g>
<!-- choice9711211245120101109979911547120101109979911545989711510145504649484511449 -->
<g id="node18" class="node">
<title>choice9711211245120101109979911547120101109979911545989711510145504649484511449</title>
<g id="a_node18"><a xlink:href="../app-xemacs/xemacs-base-2.10-r1.svg" xlink:title="portage://app&#45;xemacs/xemacs&#45;base&#45;2.10&#45;r1">
<ellipse fill="none" stroke="red" cx="564" cy="-208" rx="144" ry="18"/>
<text text-anchor="middle" x="564" y="-204.12" font-family="Helvetica,sans-Serif" font-size="10.00">portage://app&#45;xemacs/xemacs&#45;base&#45;2.10&#45;r1</text>
</a>
</g>
</g>
<!-- dependency588546&#45;&gt;choice9711211245120101109979911547120101109979911545989711510145504649484511449 -->
<g id="edge17" class="edge">
<title>dependency588546:e&#45;&gt;choice9711211245120101109979911547120101109979911545989711510145504649484511449:w</title>
<path fill="none" stroke="black" stroke-dasharray="1,5" d="M683,-67C705.67,-67 697.92,-101.86 682,-118 657.62,-142.72 391.83,-109 370,-136 347.95,-163.28 374.32,-200.25 408.27,-206.94"/>
<polygon fill="black" stroke="black" points="417.79,-207.88 407.39,-211.38 414.02,-207.51 407.84,-206.9 407.84,-206.9 407.84,-206.9 414.02,-207.51 408.28,-202.42 417.79,-207.88"/>
</g>
<!-- choice971121124512010110997991154712010110997991154598971151014550464856 -->
<g id="node19" class="node">
<title>choice971121124512010110997991154712010110997991154598971151014550464856</title>
<g id="a_node19"><a xlink:href="../app-xemacs/xemacs-base-2.08.svg" xlink:title="portage://app&#45;xemacs/xemacs&#45;base&#45;2.08">
<ellipse fill="none" stroke="red" cx="564" cy="-154" rx="144" ry="18"/>
<text text-anchor="middle" x="564" y="-150.12" font-family="Helvetica,sans-Serif" font-size="10.00">portage://app&#45;xemacs/xemacs&#45;base&#45;2.08</text>
</a>
</g>
</g>
<!-- dependency588546&#45;&gt;choice971121124512010110997991154712010110997991154598971151014550464856 -->
<g id="edge18" class="edge">
<title>dependency588546:e&#45;&gt;choice971121124512010110997991154712010110997991154598971151014550464856:w</title>
<path fill="none" stroke="black" stroke-dasharray="1,5" d="M415.36,-143.45C416.4,-140.7 418.07,-137.96 420,-136 461,-94.46 641.76,-160.26 682,-118 697.63,-101.58 705.67,-67 683,-67"/>
<polygon fill="black" stroke="black" points="418.6,-152.85 411.09,-144.86 417.37,-149.27 415.34,-143.39 415.34,-143.39 415.34,-143.39 417.37,-149.27 419.6,-141.93 418.6,-152.85"/>
</g>
</g>
</svg>
