<?xml version="1.0" encoding="UTF-8" standalone="no"?>
<!DOCTYPE svg PUBLIC "-//W3C//DTD SVG 1.1//EN"
 "http://www.w3.org/Graphics/SVG/1.1/DTD/svg11.dtd">
<!-- Generated by graphviz version 9.0.0 (20230911.1827)
 -->
<!-- Title: prolog Pages: 1 -->
<svg width="1068pt" height="905pt"
 viewBox="0.00 0.00 1068.00 905.00" xmlns="http://www.w3.org/2000/svg" xmlns:xlink="http://www.w3.org/1999/xlink">
<g id="graph0" class="graph" transform="scale(1 1) rotate(0) translate(4 901)">
<title>prolog</title>
<polygon fill="white" stroke="none" points="-4,4 -4,-901 1064,-901 1064,4 -4,4"/>
<g id="clust1" class="cluster">
<title>cluster_leftcol</title>
<polygon fill="none" stroke="gray" points="8,-382 8,-453 312,-453 312,-382 8,-382"/>
<text text-anchor="start" x="147.25" y="-440.5" font-family="Helvetica,sans-Serif" font-style="italic" font-size="10.00">ebuild</text>
</g>
<g id="clust2" class="cluster">
<title>cluster_midcol</title>
<polygon fill="none" stroke="gray" points="396,-8 396,-847 664,-847 664,-8 396,-8"/>
<text text-anchor="start" x="500" y="-834.5" font-family="Helvetica,sans-Serif" font-style="italic" font-size="10.00">dependencies</text>
</g>
<g id="clust5" class="cluster">
<title>cluster_run</title>
<polygon fill="#eeeeee" stroke="gray" points="404,-16 404,-820 656,-820 656,-16 404,-16"/>
<text text-anchor="start" x="523.25" y="-807.5" font-family="Helvetica,sans-Serif" font-style="italic" font-size="10.00">run</text>
</g>
<g id="clust12" class="cluster">
<title>cluster_choices</title>
<polygon fill="none" stroke="gray" points="748,-132 748,-889 1052,-889 1052,-132 748,-132"/>
<text text-anchor="start" x="876.38" y="-876.5" font-family="Helvetica,sans-Serif" font-style="italic" font-size="10.00">candidates</text>
</g>
<!-- id -->
<g id="node1" class="node">
<title>id</title>
<g id="a_node1"><a xlink:href="../app-xemacs/edit-utils-2.59.svg" xlink:title="portage://app&#45;xemacs/edit&#45;utils&#45;2.59">
<ellipse fill="none" stroke="red" cx="160" cy="-408" rx="144" ry="18"/>
<text text-anchor="middle" x="160" y="-404.12" font-family="Helvetica,sans-Serif" font-size="10.00">portage://app&#45;xemacs/edit&#45;utils&#45;2.59</text>
</a>
</g>
</g>
<!-- dependency62746 -->
<g id="node2" class="node">
<title>dependency62746</title>
<polygon fill="none" stroke="blue" points="420,-683.5 420,-788.5 524,-788.5 524,-683.5 420,-683.5"/>
<text text-anchor="start" x="451" y="-732.12" font-family="Helvetica,sans-Serif" font-size="10.00">pack_dep</text>
<polygon fill="none" stroke="blue" points="524,-767.5 524,-788.5 634,-788.5 634,-767.5 524,-767.5"/>
<text text-anchor="start" x="572.25" y="-774" font-family="Helvetica,sans-Serif" font-size="10.00">run</text>
<polygon fill="none" stroke="blue" points="524,-746.5 524,-767.5 634,-767.5 634,-746.5 524,-746.5"/>
<text text-anchor="start" x="555" y="-753" font-family="Helvetica,sans-Serif" font-size="10.00">app&#45;editors</text>
<polygon fill="none" stroke="blue" points="524,-725.5 524,-746.5 634,-746.5 634,-725.5 524,-725.5"/>
<text text-anchor="start" x="561.75" y="-732" font-family="Helvetica,sans-Serif" font-size="10.00">xemacs</text>
<polygon fill="none" stroke="blue" points="524,-704.5 524,-725.5 634,-725.5 634,-704.5 524,-704.5"/>
<text text-anchor="start" x="568.5" y="-711" font-family="Helvetica,sans-Serif" font-size="10.00">none</text>
<polygon fill="none" stroke="blue" points="524,-683.5 524,-704.5 634,-704.5 634,-683.5 524,-683.5"/>
<text text-anchor="start" x="573" y="-690" font-family="Helvetica,sans-Serif" font-size="10.00">[,,]</text>
</g>
<!-- id&#45;&gt;dependency62746 -->
<g id="edge1" class="edge">
<title>id:e&#45;&gt;dependency62746:w</title>
<path fill="none" stroke="black" d="M305,-408C455.06,-408 265.87,-722.68 402.01,-735.59"/>
<ellipse fill="none" stroke="black" cx="406.5" cy="-735.8" rx="4" ry="4"/>
</g>
<!-- dependency62747 -->
<g id="node3" class="node">
<title>dependency62747</title>
<polygon fill="none" stroke="blue" points="420,-552.5 420,-657.5 524,-657.5 524,-552.5 420,-552.5"/>
<text text-anchor="start" x="451" y="-601.12" font-family="Helvetica,sans-Serif" font-size="10.00">pack_dep</text>
<polygon fill="none" stroke="blue" points="524,-636.5 524,-657.5 634,-657.5 634,-636.5 524,-636.5"/>
<text text-anchor="start" x="572.25" y="-643" font-family="Helvetica,sans-Serif" font-size="10.00">run</text>
<polygon fill="none" stroke="blue" points="524,-615.5 524,-636.5 634,-636.5 634,-615.5 524,-615.5"/>
<text text-anchor="start" x="552.38" y="-622" font-family="Helvetica,sans-Serif" font-size="10.00">app&#45;xemacs</text>
<polygon fill="none" stroke="blue" points="524,-594.5 524,-615.5 634,-615.5 634,-594.5 524,-594.5"/>
<text text-anchor="start" x="568.5" y="-601" font-family="Helvetica,sans-Serif" font-size="10.00">dired</text>
<polygon fill="none" stroke="blue" points="524,-573.5 524,-594.5 634,-594.5 634,-573.5 524,-573.5"/>
<text text-anchor="start" x="568.5" y="-580" font-family="Helvetica,sans-Serif" font-size="10.00">none</text>
<polygon fill="none" stroke="blue" points="524,-552.5 524,-573.5 634,-573.5 634,-552.5 524,-552.5"/>
<text text-anchor="start" x="573" y="-559" font-family="Helvetica,sans-Serif" font-size="10.00">[,,]</text>
</g>
<!-- id&#45;&gt;dependency62747 -->
<g id="edge2" class="edge">
<title>id:e&#45;&gt;dependency62747:w</title>
<path fill="none" stroke="black" d="M305,-408C401.32,-408 317.19,-592.88 402.23,-604.43"/>
<ellipse fill="none" stroke="black" cx="406.51" cy="-604.71" rx="4" ry="4"/>
</g>
<!-- dependency62748 -->
<g id="node4" class="node">
<title>dependency62748</title>
<polygon fill="none" stroke="blue" points="420,-421.5 420,-526.5 524,-526.5 524,-421.5 420,-421.5"/>
<text text-anchor="start" x="451" y="-470.12" font-family="Helvetica,sans-Serif" font-size="10.00">pack_dep</text>
<polygon fill="none" stroke="blue" points="524,-505.5 524,-526.5 634,-526.5 634,-505.5 524,-505.5"/>
<text text-anchor="start" x="572.25" y="-512" font-family="Helvetica,sans-Serif" font-size="10.00">run</text>
<polygon fill="none" stroke="blue" points="524,-484.5 524,-505.5 634,-505.5 634,-484.5 524,-484.5"/>
<text text-anchor="start" x="552.38" y="-491" font-family="Helvetica,sans-Serif" font-size="10.00">app&#45;xemacs</text>
<polygon fill="none" stroke="blue" points="524,-463.5 524,-484.5 634,-484.5 634,-463.5 524,-463.5"/>
<text text-anchor="start" x="555.75" y="-470" font-family="Helvetica,sans-Serif" font-size="10.00">fsf&#45;compat</text>
<polygon fill="none" stroke="blue" points="524,-442.5 524,-463.5 634,-463.5 634,-442.5 524,-442.5"/>
<text text-anchor="start" x="568.5" y="-449" font-family="Helvetica,sans-Serif" font-size="10.00">none</text>
<polygon fill="none" stroke="blue" points="524,-421.5 524,-442.5 634,-442.5 634,-421.5 524,-421.5"/>
<text text-anchor="start" x="573" y="-428" font-family="Helvetica,sans-Serif" font-size="10.00">[,,]</text>
</g>
<!-- id&#45;&gt;dependency62748 -->
<g id="edge3" class="edge">
<title>id:e&#45;&gt;dependency62748:w</title>
<path fill="none" stroke="black" d="M305,-408C357.35,-408 355.87,-466.74 402.13,-473.39"/>
<ellipse fill="none" stroke="black" cx="406.51" cy="-473.69" rx="4" ry="4"/>
</g>
<!-- dependency62749 -->
<g id="node5" class="node">
<title>dependency62749</title>
<polygon fill="none" stroke="blue" points="420,-290.5 420,-395.5 524,-395.5 524,-290.5 420,-290.5"/>
<text text-anchor="start" x="451" y="-339.12" font-family="Helvetica,sans-Serif" font-size="10.00">pack_dep</text>
<polygon fill="none" stroke="blue" points="524,-374.5 524,-395.5 634,-395.5 634,-374.5 524,-374.5"/>
<text text-anchor="start" x="572.25" y="-381" font-family="Helvetica,sans-Serif" font-size="10.00">run</text>
<polygon fill="none" stroke="blue" points="524,-353.5 524,-374.5 634,-374.5 634,-353.5 524,-353.5"/>
<text text-anchor="start" x="552.38" y="-360" font-family="Helvetica,sans-Serif" font-size="10.00">app&#45;xemacs</text>
<polygon fill="none" stroke="blue" points="524,-332.5 524,-353.5 634,-353.5 634,-332.5 524,-332.5"/>
<text text-anchor="start" x="563.62" y="-339" font-family="Helvetica,sans-Serif" font-size="10.00">mail&#45;lib</text>
<polygon fill="none" stroke="blue" points="524,-311.5 524,-332.5 634,-332.5 634,-311.5 524,-311.5"/>
<text text-anchor="start" x="568.5" y="-318" font-family="Helvetica,sans-Serif" font-size="10.00">none</text>
<polygon fill="none" stroke="blue" points="524,-290.5 524,-311.5 634,-311.5 634,-290.5 524,-290.5"/>
<text text-anchor="start" x="573" y="-297" font-family="Helvetica,sans-Serif" font-size="10.00">[,,]</text>
</g>
<!-- id&#45;&gt;dependency62749 -->
<g id="edge4" class="edge">
<title>id:e&#45;&gt;dependency62749:w</title>
<path fill="none" stroke="black" d="M305,-408C357.13,-408 356.06,-350.15 402.16,-343.6"/>
<ellipse fill="none" stroke="black" cx="406.51" cy="-343.31" rx="4" ry="4"/>
</g>
<!-- dependency62750 -->
<g id="node6" class="node">
<title>dependency62750</title>
<polygon fill="none" stroke="blue" points="420,-159.5 420,-264.5 524,-264.5 524,-159.5 420,-159.5"/>
<text text-anchor="start" x="451" y="-208.12" font-family="Helvetica,sans-Serif" font-size="10.00">pack_dep</text>
<polygon fill="none" stroke="blue" points="524,-243.5 524,-264.5 634,-264.5 634,-243.5 524,-243.5"/>
<text text-anchor="start" x="572.25" y="-250" font-family="Helvetica,sans-Serif" font-size="10.00">run</text>
<polygon fill="none" stroke="blue" points="524,-222.5 524,-243.5 634,-243.5 634,-222.5 524,-222.5"/>
<text text-anchor="start" x="552.38" y="-229" font-family="Helvetica,sans-Serif" font-size="10.00">app&#45;xemacs</text>
<polygon fill="none" stroke="blue" points="524,-201.5 524,-222.5 634,-222.5 634,-201.5 524,-201.5"/>
<text text-anchor="start" x="549.75" y="-208" font-family="Helvetica,sans-Serif" font-size="10.00">xemacs&#45;base</text>
<polygon fill="none" stroke="blue" points="524,-180.5 524,-201.5 634,-201.5 634,-180.5 524,-180.5"/>
<text text-anchor="start" x="568.5" y="-187" font-family="Helvetica,sans-Serif" font-size="10.00">none</text>
<polygon fill="none" stroke="blue" points="524,-159.5 524,-180.5 634,-180.5 634,-159.5 524,-159.5"/>
<text text-anchor="start" x="573" y="-166" font-family="Helvetica,sans-Serif" font-size="10.00">[,,]</text>
</g>
<!-- id&#45;&gt;dependency62750 -->
<g id="edge5" class="edge">
<title>id:e&#45;&gt;dependency62750:w</title>
<path fill="none" stroke="black" d="M305,-408C400.94,-408 317.53,-224.06 402.26,-212.56"/>
<ellipse fill="none" stroke="black" cx="406.51" cy="-212.29" rx="4" ry="4"/>
</g>
<!-- dependency62751 -->
<g id="node7" class="node">
<title>dependency62751</title>
<polygon fill="none" stroke="blue" points="420,-28.5 420,-133.5 524,-133.5 524,-28.5 420,-28.5"/>
<text text-anchor="start" x="451" y="-77.12" font-family="Helvetica,sans-Serif" font-size="10.00">pack_dep</text>
<polygon fill="none" stroke="blue" points="524,-112.5 524,-133.5 634,-133.5 634,-112.5 524,-112.5"/>
<text text-anchor="start" x="572.25" y="-119" font-family="Helvetica,sans-Serif" font-size="10.00">run</text>
<polygon fill="none" stroke="blue" points="524,-91.5 524,-112.5 634,-112.5 634,-91.5 524,-91.5"/>
<text text-anchor="start" x="552.38" y="-98" font-family="Helvetica,sans-Serif" font-size="10.00">app&#45;xemacs</text>
<polygon fill="none" stroke="blue" points="524,-70.5 524,-91.5 634,-91.5 634,-70.5 524,-70.5"/>
<text text-anchor="start" x="548.62" y="-77" font-family="Helvetica,sans-Serif" font-size="10.00">xemacs&#45;devel</text>
<polygon fill="none" stroke="blue" points="524,-49.5 524,-70.5 634,-70.5 634,-49.5 524,-49.5"/>
<text text-anchor="start" x="568.5" y="-56" font-family="Helvetica,sans-Serif" font-size="10.00">none</text>
<polygon fill="none" stroke="blue" points="524,-28.5 524,-49.5 634,-49.5 634,-28.5 524,-28.5"/>
<text text-anchor="start" x="573" y="-35" font-family="Helvetica,sans-Serif" font-size="10.00">[,,]</text>
</g>
<!-- id&#45;&gt;dependency62751 -->
<g id="edge6" class="edge">
<title>id:e&#45;&gt;dependency62751:w</title>
<path fill="none" stroke="black" d="M305,-408C454.65,-408 266.26,-94.27 402.04,-81.41"/>
<ellipse fill="none" stroke="black" cx="406.5" cy="-81.2" rx="4" ry="4"/>
</g>
<!-- choice971121124510110010511611111411547120101109979911545504946534657575757 -->
<g id="node8" class="node">
<title>choice971121124510110010511611111411547120101109979911545504946534657575757</title>
<g id="a_node8"><a xlink:href="../app-editors/xemacs-21.5.9999.svg" xlink:title="portage://app&#45;editors/xemacs&#45;21.5.9999">
<ellipse fill="none" stroke="red" cx="900" cy="-844" rx="144" ry="18"/>
<text text-anchor="middle" x="900" y="-840.12" font-family="Helvetica,sans-Serif" font-size="10.00">portage://app&#45;editors/xemacs&#45;21.5.9999</text>
</a>
</g>
</g>
<!-- dependency62746&#45;&gt;choice971121124510110010511611111411547120101109979911545504946534657575757 -->
<g id="edge7" class="edge">
<title>dependency62746:e&#45;&gt;choice971121124510110010511611111411547120101109979911545504946534657575757:w</title>
<path fill="none" stroke="black" stroke-dasharray="1,5" d="M649,-736C712.32,-736 690.76,-831.71 744.13,-842.93"/>
<polygon fill="black" stroke="black" points="753.79,-843.88 743.4,-847.38 750.02,-843.51 743.84,-842.9 743.84,-842.9 743.84,-842.9 750.02,-843.51 744.28,-838.42 753.79,-843.88"/>
</g>
<!-- choice971121124510110010511611111411547120101109979911545504946534651534511450 -->
<g id="node9" class="node">
<title>choice971121124510110010511611111411547120101109979911545504946534651534511450</title>
<g id="a_node9"><a xlink:href="../app-editors/xemacs-21.5.35-r2.svg" xlink:title="portage://app&#45;editors/xemacs&#45;21.5.35&#45;r2">
<ellipse fill="none" stroke="red" cx="900" cy="-790" rx="144" ry="18"/>
<text text-anchor="middle" x="900" y="-786.12" font-family="Helvetica,sans-Serif" font-size="10.00">portage://app&#45;editors/xemacs&#45;21.5.35&#45;r2</text>
</a>
</g>
</g>
<!-- dependency62746&#45;&gt;choice971121124510110010511611111411547120101109979911545504946534651534511450 -->
<g id="edge8" class="edge">
<title>dependency62746:e&#45;&gt;choice971121124510110010511611111411547120101109979911545504946534651534511450:w</title>
<path fill="none" stroke="black" stroke-dasharray="1,5" d="M649,-736C697.95,-736 701.8,-782.28 744.05,-789.15"/>
<polygon fill="black" stroke="black" points="753.79,-789.91 743.47,-793.62 750.01,-789.61 743.82,-789.13 743.82,-789.13 743.82,-789.13 750.01,-789.61 744.16,-784.65 753.79,-789.91"/>
</g>
<!-- choice97112112451011001051161111141154712010110997991154550494653465153 -->
<g id="node10" class="node">
<title>choice97112112451011001051161111141154712010110997991154550494653465153</title>
<g id="a_node10"><a xlink:href="../app-editors/xemacs-21.5.35.svg" xlink:title="portage://app&#45;editors/xemacs&#45;21.5.35">
<ellipse fill="none" stroke="red" cx="900" cy="-736" rx="144" ry="18"/>
<text text-anchor="middle" x="900" y="-732.12" font-family="Helvetica,sans-Serif" font-size="10.00">portage://app&#45;editors/xemacs&#45;21.5.35</text>
</a>
</g>
</g>
<!-- dependency62746&#45;&gt;choice97112112451011001051161111141154712010110997991154550494653465153 -->
<g id="edge9" class="edge">
<title>dependency62746:e&#45;&gt;choice97112112451011001051161111141154712010110997991154550494653465153:w</title>
<path fill="none" stroke="black" stroke-dasharray="1,5" d="M649,-736C692.25,-736 705.72,-736 744.08,-736"/>
<polygon fill="black" stroke="black" points="753.78,-736 743.78,-740.5 750,-736 743.78,-736 743.78,-736 743.78,-736 750,-736 743.78,-731.5 753.78,-736"/>
</g>
<!-- choice971121124510110010511611111411547120101109979911545504946524650524511457 -->
<g id="node11" class="node">
<title>choice971121124510110010511611111411547120101109979911545504946524650524511457</title>
<g id="a_node11"><a xlink:href="../app-editors/xemacs-21.4.24-r9.svg" xlink:title="portage://app&#45;editors/xemacs&#45;21.4.24&#45;r9">
<ellipse fill="none" stroke="red" cx="900" cy="-682" rx="144" ry="18"/>
<text text-anchor="middle" x="900" y="-678.12" font-family="Helvetica,sans-Serif" font-size="10.00">portage://app&#45;editors/xemacs&#45;21.4.24&#45;r9</text>
</a>
</g>
</g>
<!-- dependency62746&#45;&gt;choice971121124510110010511611111411547120101109979911545504946524650524511457 -->
<g id="edge10" class="edge">
<title>dependency62746:e&#45;&gt;choice971121124510110010511611111411547120101109979911545504946524650524511457:w</title>
<path fill="none" stroke="black" stroke-dasharray="1,5" d="M649,-736C697.95,-736 701.8,-689.72 744.05,-682.85"/>
<polygon fill="black" stroke="black" points="753.79,-682.09 744.16,-687.35 750.01,-682.39 743.82,-682.87 743.82,-682.87 743.82,-682.87 750.01,-682.39 743.47,-678.38 753.79,-682.09"/>
</g>
<!-- choice97112112451011001051161111141154712010110997991154550494652465052451144948 -->
<g id="node12" class="node">
<title>choice97112112451011001051161111141154712010110997991154550494652465052451144948</title>
<g id="a_node12"><a xlink:href="../app-editors/xemacs-21.4.24-r10.svg" xlink:title="portage://app&#45;editors/xemacs&#45;21.4.24&#45;r10">
<ellipse fill="none" stroke="red" cx="900" cy="-628" rx="144" ry="18"/>
<text text-anchor="middle" x="900" y="-624.12" font-family="Helvetica,sans-Serif" font-size="10.00">portage://app&#45;editors/xemacs&#45;21.4.24&#45;r10</text>
</a>
</g>
</g>
<!-- dependency62746&#45;&gt;choice97112112451011001051161111141154712010110997991154550494652465052451144948 -->
<g id="edge11" class="edge">
<title>dependency62746:e&#45;&gt;choice97112112451011001051161111141154712010110997991154550494652465052451144948:w</title>
<path fill="none" stroke="black" stroke-dasharray="1,5" d="M649,-736C712.32,-736 690.76,-640.29 744.13,-629.07"/>
<polygon fill="black" stroke="black" points="753.79,-628.12 744.28,-633.58 750.02,-628.49 743.84,-629.1 743.84,-629.1 743.84,-629.1 750.02,-628.49 743.4,-624.62 753.79,-628.12"/>
</g>
<!-- choice97112112451201011099799115471001051141011004549465050 -->
<g id="node13" class="node">
<title>choice97112112451201011099799115471001051141011004549465050</title>
<g id="a_node13"><a xlink:href="../app-xemacs/dired-1.22.svg" xlink:title="portage://app&#45;xemacs/dired&#45;1.22">
<ellipse fill="none" stroke="red" cx="900" cy="-574" rx="144" ry="18"/>
<text text-anchor="middle" x="900" y="-570.12" font-family="Helvetica,sans-Serif" font-size="10.00">portage://app&#45;xemacs/dired&#45;1.22</text>
</a>
</g>
</g>
<!-- dependency62747&#45;&gt;choice97112112451201011099799115471001051141011004549465050 -->
<g id="edge12" class="edge">
<title>dependency62747:e&#45;&gt;choice97112112451201011099799115471001051141011004549465050:w</title>
<path fill="none" stroke="black" stroke-dasharray="1,5" d="M649,-605C694.15,-605 704.4,-578.77 743.96,-574.56"/>
<polygon fill="black" stroke="black" points="753.78,-574.06 744.03,-579.07 750.01,-574.26 743.8,-574.57 743.8,-574.57 743.8,-574.57 750.01,-574.26 743.57,-570.08 753.78,-574.06"/>
</g>
<!-- choice97112112451201011099799115471021151024599111109112971164549465052 -->
<g id="node14" class="node">
<title>choice97112112451201011099799115471021151024599111109112971164549465052</title>
<g id="a_node14"><a xlink:href="../app-xemacs/fsf-compat-1.24.svg" xlink:title="portage://app&#45;xemacs/fsf&#45;compat&#45;1.24">
<ellipse fill="none" stroke="red" cx="900" cy="-474" rx="144" ry="18"/>
<text text-anchor="middle" x="900" y="-470.12" font-family="Helvetica,sans-Serif" font-size="10.00">portage://app&#45;xemacs/fsf&#45;compat&#45;1.24</text>
</a>
</g>
</g>
<!-- dependency62748&#45;&gt;choice97112112451201011099799115471021151024599111109112971164549465052 -->
<g id="edge13" class="edge">
<title>dependency62748:e&#45;&gt;choice97112112451201011099799115471021151024599111109112971164549465052:w</title>
<path fill="none" stroke="black" stroke-dasharray="1,5" d="M649,-474C692.25,-474 705.72,-474 744.08,-474"/>
<polygon fill="black" stroke="black" points="753.78,-474 743.78,-478.5 750,-474 743.78,-474 743.78,-474 743.78,-474 750,-474 743.78,-469.5 753.78,-474"/>
</g>
<!-- choice97112112451201011099799115471099710510845108105984549465653 -->
<g id="node15" class="node">
<title>choice97112112451201011099799115471099710510845108105984549465653</title>
<g id="a_node15"><a xlink:href="../app-xemacs/mail-lib-1.85.svg" xlink:title="portage://app&#45;xemacs/mail&#45;lib&#45;1.85">
<ellipse fill="none" stroke="red" cx="900" cy="-343" rx="144" ry="18"/>
<text text-anchor="middle" x="900" y="-339.12" font-family="Helvetica,sans-Serif" font-size="10.00">portage://app&#45;xemacs/mail&#45;lib&#45;1.85</text>
</a>
</g>
</g>
<!-- dependency62749&#45;&gt;choice97112112451201011099799115471099710510845108105984549465653 -->
<g id="edge14" class="edge">
<title>dependency62749:e&#45;&gt;choice97112112451201011099799115471099710510845108105984549465653:w</title>
<path fill="none" stroke="black" stroke-dasharray="1,5" d="M649,-343C692.25,-343 705.72,-343 744.08,-343"/>
<polygon fill="black" stroke="black" points="753.78,-343 743.78,-347.5 750,-343 743.78,-343 743.78,-343 743.78,-343 750,-343 743.78,-338.5 753.78,-343"/>
</g>
<!-- choice971121124512010110997991154712010110997991154598971151014550465255 -->
<g id="node16" class="node">
<title>choice971121124512010110997991154712010110997991154598971151014550465255</title>
<g id="a_node16"><a xlink:href="../app-xemacs/xemacs-base-2.47.svg" xlink:title="portage://app&#45;xemacs/xemacs&#45;base&#45;2.47">
<ellipse fill="none" stroke="red" cx="900" cy="-212" rx="144" ry="18"/>
<text text-anchor="middle" x="900" y="-208.12" font-family="Helvetica,sans-Serif" font-size="10.00">portage://app&#45;xemacs/xemacs&#45;base&#45;2.47</text>
</a>
</g>
</g>
<!-- dependency62750&#45;&gt;choice971121124512010110997991154712010110997991154598971151014550465255 -->
<g id="edge15" class="edge">
<title>dependency62750:e&#45;&gt;choice971121124512010110997991154712010110997991154598971151014550465255:w</title>
<path fill="none" stroke="black" stroke-dasharray="1,5" d="M649,-212C692.25,-212 705.72,-212 744.08,-212"/>
<polygon fill="black" stroke="black" points="753.78,-212 743.78,-216.5 750,-212 743.78,-212 743.78,-212 743.78,-212 750,-212 743.78,-207.5 753.78,-212"/>
</g>
<!-- choice97112112451201011099799115471201011099799115451001011181011084549465652 -->
<g id="node17" class="node">
<title>choice97112112451201011099799115471201011099799115451001011181011084549465652</title>
<g id="a_node17"><a xlink:href="../app-xemacs/xemacs-devel-1.84.svg" xlink:title="portage://app&#45;xemacs/xemacs&#45;devel&#45;1.84">
<ellipse fill="none" stroke="red" cx="900" cy="-158" rx="144" ry="18"/>
<text text-anchor="middle" x="900" y="-154.12" font-family="Helvetica,sans-Serif" font-size="10.00">portage://app&#45;xemacs/xemacs&#45;devel&#45;1.84</text>
</a>
</g>
</g>
<!-- dependency62751&#45;&gt;choice97112112451201011099799115471201011099799115451001011181011084549465652 -->
<g id="edge16" class="edge">
<title>dependency62751:e&#45;&gt;choice97112112451201011099799115471201011099799115451001011181011084549465652:w</title>
<path fill="none" stroke="black" stroke-dasharray="1,5" d="M649,-81C703.25,-81 697.88,-147.83 743.98,-156.97"/>
<polygon fill="black" stroke="black" points="753.79,-157.89 743.41,-161.44 750.02,-157.53 743.83,-156.96 743.83,-156.96 743.83,-156.96 750.02,-157.53 744.25,-152.48 753.79,-157.89"/>
</g>
</g>
</svg>
