<?xml version="1.0" encoding="UTF-8" standalone="no"?>
<!DOCTYPE svg PUBLIC "-//W3C//DTD SVG 1.1//EN"
 "http://www.w3.org/Graphics/SVG/1.1/DTD/svg11.dtd">
<!-- Generated by graphviz version 12.0.0 (20240704.0754)
 -->
<!-- Title: prolog Pages: 1 -->
<svg width="1324pt" height="852pt"
 viewBox="0.00 0.00 1324.00 852.00" xmlns="http://www.w3.org/2000/svg" xmlns:xlink="http://www.w3.org/1999/xlink">
<g id="graph0" class="graph" transform="scale(1 1) rotate(0) translate(4 848)">
<title>prolog</title>
<polygon fill="white" stroke="none" points="-4,4 -4,-848 1320,-848 1320,4 -4,4"/>
<g id="clust1" class="cluster">
<title>cluster_leftcol</title>
<polygon fill="none" stroke="gray" points="8,-231 8,-303 312,-303 312,-231 8,-231"/>
<text text-anchor="start" x="147.25" y="-290.5" font-family="Helvetica,sans-Serif" font-style="italic" font-size="10.00">ebuild</text>
</g>
<g id="clust2" class="cluster">
<title>cluster_midcol</title>
<polygon fill="none" stroke="gray" points="396,-67 396,-581 920,-581 920,-67 396,-67"/>
<text text-anchor="start" x="628" y="-568.5" font-family="Helvetica,sans-Serif" font-style="italic" font-size="10.00">dependencies</text>
</g>
<g id="clust3" class="cluster">
<title>cluster_compile</title>
<polygon fill="#eeeeee" stroke="gray" points="660,-399 660,-553 912,-553 912,-399 660,-399"/>
<text text-anchor="start" x="769.12" y="-540.5" font-family="Helvetica,sans-Serif" font-style="italic" font-size="10.00">compile</text>
</g>
<g id="clust6" class="cluster">
<title>cluster_run</title>
<polygon fill="#eeeeee" stroke="gray" points="404,-75 404,-229 912,-229 912,-75 404,-75"/>
<text text-anchor="start" x="651.25" y="-216.5" font-family="Helvetica,sans-Serif" font-style="italic" font-size="10.00">run</text>
</g>
<g id="clust9" class="cluster">
<title>cluster_choices</title>
<polygon fill="none" stroke="gray" points="1004,-8 1004,-836 1308,-836 1308,-8 1004,-8"/>
<text text-anchor="start" x="1132.38" y="-823.5" font-family="Helvetica,sans-Serif" font-style="italic" font-size="10.00">candidates</text>
</g>
<!-- id -->
<g id="node1" class="node">
<title>id</title>
<g id="a_node1"><a xlink:href="../sys-power/acpid-2.0.34-r1.svg" xlink:title="portage://sys&#45;power/acpid&#45;2.0.34&#45;r1">
<ellipse fill="none" stroke="red" cx="160" cy="-257" rx="144" ry="18"/>
<text text-anchor="middle" x="160" y="-253.5" font-family="Helvetica,sans-Serif" font-size="10.00">portage://sys&#45;power/acpid&#45;2.0.34&#45;r1</text>
</a>
</g>
</g>
<!-- dependency440238 -->
<g id="node2" class="node">
<title>dependency440238</title>
<polygon fill="none" stroke="blue" points="676,-411 676,-521 780,-521 780,-411 676,-411"/>
<text text-anchor="start" x="707" y="-462.5" font-family="Helvetica,sans-Serif" font-size="10.00">pack_dep</text>
<polygon fill="none" stroke="blue" points="780,-499 780,-521 890,-521 890,-499 780,-499"/>
<text text-anchor="start" x="822.25" y="-506.5" font-family="Helvetica,sans-Serif" font-size="10.00">install</text>
<polygon fill="none" stroke="blue" points="780,-477 780,-499 890,-499 890,-477 780,-477"/>
<text text-anchor="start" x="812.5" y="-484.5" font-family="Helvetica,sans-Serif" font-size="10.00">sys&#45;kernel</text>
<polygon fill="none" stroke="blue" points="780,-455 780,-477 890,-477 890,-455 780,-455"/>
<text text-anchor="start" x="806.12" y="-462.5" font-family="Helvetica,sans-Serif" font-size="10.00">linux&#45;headers</text>
<polygon fill="none" stroke="blue" points="780,-433 780,-455 890,-455 890,-433 780,-433"/>
<text text-anchor="start" x="808.38" y="-440.5" font-family="Helvetica,sans-Serif" font-size="10.00">greaterequal</text>
<polygon fill="none" stroke="blue" points="780,-411 780,-433 890,-433 890,-411 780,-411"/>
<text text-anchor="start" x="822.25" y="-418.5" font-family="Helvetica,sans-Serif" font-size="10.00">[3,,,3]</text>
</g>
<!-- id&#45;&gt;dependency440238 -->
<g id="edge1" class="edge">
<title>id:e&#45;&gt;dependency440238:w</title>
<path fill="none" stroke="black" d="M305.23,-257C487.16,-257 481.69,-457.52 655.93,-465.74"/>
<polygon fill="black" stroke="black" points="665.89,-465.97 655.79,-470.24 662.11,-465.88 655.9,-465.74 655.9,-465.74 655.9,-465.74 662.11,-465.88 656,-461.24 665.89,-465.97"/>
</g>
<!-- dependency440239 -->
<g id="node3" class="node">
<title>dependency440239</title>
<polygon fill="none" stroke="red" points="420,-136 420,-180 509,-180 509,-136 420,-136"/>
<text text-anchor="start" x="430.75" y="-154.5" font-family="Helvetica,sans-Serif" font-size="10.00">use_conditional</text>
<polygon fill="none" stroke="red" points="509,-158 509,-180 552,-180 552,-158 509,-158"/>
<text text-anchor="start" x="513.62" y="-165.5" font-family="Helvetica,sans-Serif" font-size="10.00">positive</text>
<polygon fill="none" stroke="red" points="509,-136 509,-158 552,-158 552,-136 509,-136"/>
<text text-anchor="start" x="515.12" y="-143.5" font-family="Helvetica,sans-Serif" font-size="10.00">selinux</text>
</g>
<!-- id&#45;&gt;dependency440239 -->
<g id="edge3" class="edge">
<title>id:e&#45;&gt;dependency440239:w</title>
<path fill="none" stroke="black" d="M305.23,-257C366.5,-257 348.7,-167.43 402.24,-158.69"/>
<ellipse fill="none" stroke="black" cx="406.58" cy="-158.35" rx="4" ry="4"/>
</g>
<!-- choice1151211154510710111411010110847108105110117120451041019710010111411545544657 -->
<g id="node5" class="node">
<title>choice1151211154510710111411010110847108105110117120451041019710010111411545544657</title>
<g id="a_node5"><a xlink:href="../sys-kernel/linux-headers-6.9.svg" xlink:title="portage://sys&#45;kernel/linux&#45;headers&#45;6.9">
<ellipse fill="none" stroke="red" cx="1156" cy="-682" rx="144" ry="18"/>
<text text-anchor="middle" x="1156" y="-678.5" font-family="Helvetica,sans-Serif" font-size="10.00">portage://sys&#45;kernel/linux&#45;headers&#45;6.9</text>
</a>
</g>
</g>
<!-- dependency440238&#45;&gt;choice1151211154510710111411010110847108105110117120451041019710010111411545544657 -->
<g id="edge4" class="edge">
<title>dependency440238:e&#45;&gt;choice1151211154510710111411010110847108105110117120451041019710010111411545544657:w</title>
<path fill="none" stroke="black" stroke-dasharray="1,5" d="M904.89,-466C1007.83,-466 911.57,-666.27 999.73,-681.13"/>
<polygon fill="black" stroke="black" points="1009.55,-681.9 999.23,-685.6 1005.78,-681.61 999.58,-681.12 999.58,-681.12 999.58,-681.12 1005.78,-681.61 999.94,-676.63 1009.55,-681.9"/>
</g>
<!-- choice11512111545107101114110101108471081051101171204510410197100101114115455446564511449 -->
<g id="node6" class="node">
<title>choice11512111545107101114110101108471081051101171204510410197100101114115455446564511449</title>
<g id="a_node6"><a xlink:href="../sys-kernel/linux-headers-6.8-r1.svg" xlink:title="portage://sys&#45;kernel/linux&#45;headers&#45;6.8&#45;r1">
<ellipse fill="none" stroke="red" cx="1156" cy="-736" rx="144" ry="18"/>
<text text-anchor="middle" x="1156" y="-732.5" font-family="Helvetica,sans-Serif" font-size="10.00">portage://sys&#45;kernel/linux&#45;headers&#45;6.8&#45;r1</text>
</a>
</g>
</g>
<!-- dependency440238&#45;&gt;choice11512111545107101114110101108471081051101171204510410197100101114115455446564511449 -->
<g id="edge5" class="edge">
<title>dependency440238:e&#45;&gt;choice11512111545107101114110101108471081051101171204510410197100101114115455446564511449:w</title>
<path fill="none" stroke="black" stroke-dasharray="1,5" d="M904.89,-466C1029.88,-466 890.81,-719.9 999.82,-735.27"/>
<polygon fill="black" stroke="black" points="1009.55,-735.92 999.27,-739.75 1005.78,-735.67 999.57,-735.26 999.57,-735.26 999.57,-735.26 1005.78,-735.67 999.87,-730.77 1009.55,-735.92"/>
</g>
<!-- choice11512111545107101114110101108471081051101171204510410197100101114115455446544511449 -->
<g id="node7" class="node">
<title>choice11512111545107101114110101108471081051101171204510410197100101114115455446544511449</title>
<g id="a_node7"><a xlink:href="../sys-kernel/linux-headers-6.6-r1.svg" xlink:title="portage://sys&#45;kernel/linux&#45;headers&#45;6.6&#45;r1">
<ellipse fill="none" stroke="red" cx="1156" cy="-790" rx="144" ry="18"/>
<text text-anchor="middle" x="1156" y="-786.5" font-family="Helvetica,sans-Serif" font-size="10.00">portage://sys&#45;kernel/linux&#45;headers&#45;6.6&#45;r1</text>
</a>
</g>
</g>
<!-- dependency440238&#45;&gt;choice11512111545107101114110101108471081051101171204510410197100101114115455446544511449 -->
<g id="edge6" class="edge">
<title>dependency440238:e&#45;&gt;choice11512111545107101114110101108471081051101171204510410197100101114115455446544511449:w</title>
<path fill="none" stroke="black" stroke-dasharray="1,5" d="M904.89,-466C1052.54,-466 869.06,-773.76 999.89,-789.38"/>
<polygon fill="black" stroke="black" points="1009.55,-789.93 999.31,-793.86 1005.77,-789.72 999.57,-789.37 999.57,-789.37 999.57,-789.37 1005.77,-789.72 999.82,-784.87 1009.55,-789.93"/>
</g>
<!-- choice1151211154510710111411010110847108105110117120451041019710010111411545544649 -->
<g id="node8" class="node">
<title>choice1151211154510710111411010110847108105110117120451041019710010111411545544649</title>
<g id="a_node8"><a xlink:href="../sys-kernel/linux-headers-6.1.svg" xlink:title="portage://sys&#45;kernel/linux&#45;headers&#45;6.1">
<ellipse fill="none" stroke="red" cx="1156" cy="-196" rx="144" ry="18"/>
<text text-anchor="middle" x="1156" y="-192.5" font-family="Helvetica,sans-Serif" font-size="10.00">portage://sys&#45;kernel/linux&#45;headers&#45;6.1</text>
</a>
</g>
</g>
<!-- dependency440238&#45;&gt;choice1151211154510710111411010110847108105110117120451041019710010111411545544649 -->
<g id="edge7" class="edge">
<title>dependency440238:e&#45;&gt;choice1151211154510710111411010110847108105110117120451041019710010111411545544649:w</title>
<path fill="none" stroke="black" stroke-dasharray="1,5" d="M904.89,-466C1029.88,-466 890.81,-212.1 999.82,-196.73"/>
<polygon fill="black" stroke="black" points="1009.55,-196.08 999.87,-201.23 1005.78,-196.33 999.57,-196.74 999.57,-196.74 999.57,-196.74 1005.78,-196.33 999.27,-192.25 1009.55,-196.08"/>
</g>
<!-- choice1151211154510710111411010110847108105110117120451041019710010111411545534649534511451 -->
<g id="node9" class="node">
<title>choice1151211154510710111411010110847108105110117120451041019710010111411545534649534511451</title>
<g id="a_node9"><a xlink:href="../sys-kernel/linux-headers-5.15-r3.svg" xlink:title="portage://sys&#45;kernel/linux&#45;headers&#45;5.15&#45;r3">
<ellipse fill="none" stroke="red" cx="1156" cy="-250" rx="144" ry="18"/>
<text text-anchor="middle" x="1156" y="-246.5" font-family="Helvetica,sans-Serif" font-size="10.00">portage://sys&#45;kernel/linux&#45;headers&#45;5.15&#45;r3</text>
</a>
</g>
</g>
<!-- dependency440238&#45;&gt;choice1151211154510710111411010110847108105110117120451041019710010111411545534649534511451 -->
<g id="edge8" class="edge">
<title>dependency440238:e&#45;&gt;choice1151211154510710111411010110847108105110117120451041019710010111411545534649534511451:w</title>
<path fill="none" stroke="black" stroke-dasharray="1,5" d="M904.89,-466C1007.83,-466 911.57,-265.73 999.73,-250.87"/>
<polygon fill="black" stroke="black" points="1009.55,-250.1 999.94,-255.37 1005.78,-250.39 999.58,-250.88 999.58,-250.88 999.58,-250.88 1005.78,-250.39 999.23,-246.4 1009.55,-250.1"/>
</g>
<!-- choice1151211154510710111411010110847108105110117120451041019710010111411545534649484511450 -->
<g id="node10" class="node">
<title>choice1151211154510710111411010110847108105110117120451041019710010111411545534649484511450</title>
<g id="a_node10"><a xlink:href="../sys-kernel/linux-headers-5.10-r2.svg" xlink:title="portage://sys&#45;kernel/linux&#45;headers&#45;5.10&#45;r2">
<ellipse fill="none" stroke="red" cx="1156" cy="-304" rx="144" ry="18"/>
<text text-anchor="middle" x="1156" y="-300.5" font-family="Helvetica,sans-Serif" font-size="10.00">portage://sys&#45;kernel/linux&#45;headers&#45;5.10&#45;r2</text>
</a>
</g>
</g>
<!-- dependency440238&#45;&gt;choice1151211154510710111411010110847108105110117120451041019710010111411545534649484511450 -->
<g id="edge9" class="edge">
<title>dependency440238:e&#45;&gt;choice1151211154510710111411010110847108105110117120451041019710010111411545534649484511450:w</title>
<path fill="none" stroke="black" stroke-dasharray="1,5" d="M904.89,-466C986.87,-466 930.62,-318.83 999.64,-305.03"/>
<polygon fill="black" stroke="black" points="1009.55,-304.11 1000.01,-309.52 1005.79,-304.46 999.6,-305.04 999.6,-305.04 999.6,-305.04 1005.79,-304.46 999.18,-300.56 1009.55,-304.11"/>
</g>
<!-- choice11512111545107101114110101108471081051101171204510410197100101114115455346524511450 -->
<g id="node11" class="node">
<title>choice11512111545107101114110101108471081051101171204510410197100101114115455346524511450</title>
<g id="a_node11"><a xlink:href="../sys-kernel/linux-headers-5.4-r2.svg" xlink:title="portage://sys&#45;kernel/linux&#45;headers&#45;5.4&#45;r2">
<ellipse fill="none" stroke="red" cx="1156" cy="-358" rx="144" ry="18"/>
<text text-anchor="middle" x="1156" y="-354.5" font-family="Helvetica,sans-Serif" font-size="10.00">portage://sys&#45;kernel/linux&#45;headers&#45;5.4&#45;r2</text>
</a>
</g>
</g>
<!-- dependency440238&#45;&gt;choice11512111545107101114110101108471081051101171204510410197100101114115455346524511450 -->
<g id="edge10" class="edge">
<title>dependency440238:e&#45;&gt;choice11512111545107101114110101108471081051101171204510410197100101114115455346524511450:w</title>
<path fill="none" stroke="black" stroke-dasharray="1,5" d="M904.89,-466C968.17,-466 946.57,-370.29 999.9,-359.07"/>
<polygon fill="black" stroke="black" points="1009.55,-358.12 1000.04,-363.58 1005.79,-358.49 999.6,-359.1 999.6,-359.1 999.6,-359.1 1005.79,-358.49 999.16,-354.62 1009.55,-358.12"/>
</g>
<!-- choice1151211154510710111411010110847108105110117120451041019710010111411545524649574511449 -->
<g id="node12" class="node">
<title>choice1151211154510710111411010110847108105110117120451041019710010111411545524649574511449</title>
<g id="a_node12"><a xlink:href="../sys-kernel/linux-headers-4.19-r1.svg" xlink:title="portage://sys&#45;kernel/linux&#45;headers&#45;4.19&#45;r1">
<ellipse fill="none" stroke="red" cx="1156" cy="-412" rx="144" ry="18"/>
<text text-anchor="middle" x="1156" y="-408.5" font-family="Helvetica,sans-Serif" font-size="10.00">portage://sys&#45;kernel/linux&#45;headers&#45;4.19&#45;r1</text>
</a>
</g>
</g>
<!-- dependency440238&#45;&gt;choice1151211154510710111411010110847108105110117120451041019710010111411545524649574511449 -->
<g id="edge11" class="edge">
<title>dependency440238:e&#45;&gt;choice1151211154510710111411010110847108105110117120451041019710010111411545524649574511449:w</title>
<path fill="none" stroke="black" stroke-dasharray="1,5" d="M904.89,-466C953.79,-466 957.62,-419.72 999.83,-412.85"/>
<polygon fill="black" stroke="black" points="1009.55,-412.09 999.93,-417.35 1005.78,-412.39 999.58,-412.87 999.58,-412.87 999.58,-412.87 1005.78,-412.39 999.23,-408.38 1009.55,-412.09"/>
</g>
<!-- choice1151211154510710111411010110847108105110117120451041019710010111411545524649524511450 -->
<g id="node13" class="node">
<title>choice1151211154510710111411010110847108105110117120451041019710010111411545524649524511450</title>
<g id="a_node13"><a xlink:href="../sys-kernel/linux-headers-4.14-r2.svg" xlink:title="portage://sys&#45;kernel/linux&#45;headers&#45;4.14&#45;r2">
<ellipse fill="none" stroke="red" cx="1156" cy="-466" rx="144" ry="18"/>
<text text-anchor="middle" x="1156" y="-462.5" font-family="Helvetica,sans-Serif" font-size="10.00">portage://sys&#45;kernel/linux&#45;headers&#45;4.14&#45;r2</text>
</a>
</g>
</g>
<!-- dependency440238&#45;&gt;choice1151211154510710111411010110847108105110117120451041019710010111411545524649524511450 -->
<g id="edge12" class="edge">
<title>dependency440238:e&#45;&gt;choice1151211154510710111411010110847108105110117120451041019710010111411545524649524511450:w</title>
<path fill="none" stroke="black" stroke-dasharray="1,5" d="M904.89,-466C948.08,-466 961.54,-466 999.86,-466"/>
<polygon fill="black" stroke="black" points="1009.55,-466 999.55,-470.5 1005.77,-466 999.55,-466 999.55,-466 999.55,-466 1005.77,-466 999.55,-461.5 1009.55,-466"/>
</g>
<!-- choice11512111545107101114110101108471081051101171204510410197100101114115455246574511449 -->
<g id="node14" class="node">
<title>choice11512111545107101114110101108471081051101171204510410197100101114115455246574511449</title>
<g id="a_node14"><a xlink:href="../sys-kernel/linux-headers-4.9-r1.svg" xlink:title="portage://sys&#45;kernel/linux&#45;headers&#45;4.9&#45;r1">
<ellipse fill="none" stroke="red" cx="1156" cy="-520" rx="144" ry="18"/>
<text text-anchor="middle" x="1156" y="-516.5" font-family="Helvetica,sans-Serif" font-size="10.00">portage://sys&#45;kernel/linux&#45;headers&#45;4.9&#45;r1</text>
</a>
</g>
</g>
<!-- dependency440238&#45;&gt;choice11512111545107101114110101108471081051101171204510410197100101114115455246574511449 -->
<g id="edge13" class="edge">
<title>dependency440238:e&#45;&gt;choice11512111545107101114110101108471081051101171204510410197100101114115455246574511449:w</title>
<path fill="none" stroke="black" stroke-dasharray="1,5" d="M904.89,-466C953.79,-466 957.62,-512.28 999.83,-519.15"/>
<polygon fill="black" stroke="black" points="1009.55,-519.91 999.23,-523.62 1005.78,-519.61 999.58,-519.13 999.58,-519.13 999.58,-519.13 1005.78,-519.61 999.93,-514.65 1009.55,-519.91"/>
</g>
<!-- choice11512111545107101114110101108471081051101171204510410197100101114115455246524511449 -->
<g id="node15" class="node">
<title>choice11512111545107101114110101108471081051101171204510410197100101114115455246524511449</title>
<g id="a_node15"><a xlink:href="../sys-kernel/linux-headers-4.4-r1.svg" xlink:title="portage://sys&#45;kernel/linux&#45;headers&#45;4.4&#45;r1">
<ellipse fill="none" stroke="red" cx="1156" cy="-574" rx="144" ry="18"/>
<text text-anchor="middle" x="1156" y="-570.5" font-family="Helvetica,sans-Serif" font-size="10.00">portage://sys&#45;kernel/linux&#45;headers&#45;4.4&#45;r1</text>
</a>
</g>
</g>
<!-- dependency440238&#45;&gt;choice11512111545107101114110101108471081051101171204510410197100101114115455246524511449 -->
<g id="edge14" class="edge">
<title>dependency440238:e&#45;&gt;choice11512111545107101114110101108471081051101171204510410197100101114115455246524511449:w</title>
<path fill="none" stroke="black" stroke-dasharray="1,5" d="M904.89,-466C968.17,-466 946.57,-561.71 999.9,-572.93"/>
<polygon fill="black" stroke="black" points="1009.55,-573.88 999.16,-577.38 1005.79,-573.51 999.6,-572.9 999.6,-572.9 999.6,-572.9 1005.79,-573.51 1000.04,-568.42 1009.55,-573.88"/>
</g>
<!-- choice1151211154510710111411010110847108105110117120451041019710010111411545514649564511449 -->
<g id="node16" class="node">
<title>choice1151211154510710111411010110847108105110117120451041019710010111411545514649564511449</title>
<g id="a_node16"><a xlink:href="../sys-kernel/linux-headers-3.18-r1.svg" xlink:title="portage://sys&#45;kernel/linux&#45;headers&#45;3.18&#45;r1">
<ellipse fill="none" stroke="red" cx="1156" cy="-628" rx="144" ry="18"/>
<text text-anchor="middle" x="1156" y="-624.5" font-family="Helvetica,sans-Serif" font-size="10.00">portage://sys&#45;kernel/linux&#45;headers&#45;3.18&#45;r1</text>
</a>
</g>
</g>
<!-- dependency440238&#45;&gt;choice1151211154510710111411010110847108105110117120451041019710010111411545514649564511449 -->
<g id="edge15" class="edge">
<title>dependency440238:e&#45;&gt;choice1151211154510710111411010110847108105110117120451041019710010111411545514649564511449:w</title>
<path fill="none" stroke="black" stroke-dasharray="1,5" d="M904.89,-466C986.87,-466 930.62,-613.17 999.64,-626.97"/>
<polygon fill="black" stroke="black" points="1009.55,-627.89 999.18,-631.44 1005.79,-627.54 999.6,-626.96 999.6,-626.96 999.6,-626.96 1005.79,-627.54 1000.01,-622.48 1009.55,-627.89"/>
</g>
<!-- dependency440240 -->
<g id="node4" class="node">
<title>dependency440240</title>
<polygon fill="none" stroke="blue" points="676,-87 676,-197 780,-197 780,-87 676,-87"/>
<text text-anchor="start" x="707" y="-138.5" font-family="Helvetica,sans-Serif" font-size="10.00">pack_dep</text>
<polygon fill="none" stroke="blue" points="780,-175 780,-197 890,-197 890,-175 780,-175"/>
<text text-anchor="start" x="828.25" y="-182.5" font-family="Helvetica,sans-Serif" font-size="10.00">run</text>
<polygon fill="none" stroke="blue" points="780,-153 780,-175 890,-175 890,-153 780,-153"/>
<text text-anchor="start" x="812.88" y="-160.5" font-family="Helvetica,sans-Serif" font-size="10.00">sec&#45;policy</text>
<polygon fill="none" stroke="blue" points="780,-131 780,-153 890,-153 890,-131 780,-131"/>
<text text-anchor="start" x="808.75" y="-138.5" font-family="Helvetica,sans-Serif" font-size="10.00">selinux&#45;apm</text>
<polygon fill="none" stroke="blue" points="780,-109 780,-131 890,-131 890,-109 780,-109"/>
<text text-anchor="start" x="824.5" y="-116.5" font-family="Helvetica,sans-Serif" font-size="10.00">none</text>
<polygon fill="none" stroke="blue" points="780,-87 780,-109 890,-109 890,-87 780,-87"/>
<text text-anchor="start" x="829" y="-94.5" font-family="Helvetica,sans-Serif" font-size="10.00">[,,]</text>
</g>
<!-- dependency440239&#45;&gt;dependency440240 -->
<g id="edge2" class="edge">
<title>dependency440239:e&#45;&gt;dependency440240:w</title>
<path fill="none" stroke="black" stroke-dasharray="5,2" d="M560,-158C604.19,-158 616.95,-144.52 655.98,-142.31"/>
<polygon fill="black" stroke="black" points="665.89,-142.03 656.02,-146.81 662.11,-142.14 655.9,-142.31 655.9,-142.31 655.9,-142.31 662.11,-142.14 655.77,-137.81 665.89,-142.03"/>
</g>
<!-- choice1151019945112111108105991214711510110810511011712045971121094557575757 -->
<g id="node17" class="node">
<title>choice1151019945112111108105991214711510110810511011712045971121094557575757</title>
<g id="a_node17"><a xlink:href="../sec-policy/selinux-apm-9999.svg" xlink:title="portage://sec&#45;policy/selinux&#45;apm&#45;9999">
<ellipse fill="none" stroke="red" cx="1156" cy="-34" rx="144" ry="18"/>
<text text-anchor="middle" x="1156" y="-30.5" font-family="Helvetica,sans-Serif" font-size="10.00">portage://sec&#45;policy/selinux&#45;apm&#45;9999</text>
</a>
</g>
</g>
<!-- dependency440240&#45;&gt;choice1151019945112111108105991214711510110810511011712045971121094557575757 -->
<g id="edge16" class="edge">
<title>dependency440240:e&#45;&gt;choice1151019945112111108105991214711510110810511011712045971121094557575757:w</title>
<path fill="none" stroke="black" stroke-dasharray="1,5" d="M904.89,-142C968.17,-142 946.57,-46.29 999.9,-35.07"/>
<polygon fill="black" stroke="black" points="1009.55,-34.12 1000.04,-39.58 1005.79,-34.49 999.6,-35.1 999.6,-35.1 999.6,-35.1 1005.79,-34.49 999.16,-30.62 1009.55,-34.12"/>
</g>
<!-- choice11510199451121111081059912147115101108105110117120459711210945504650485052485050544511450 -->
<g id="node18" class="node">
<title>choice11510199451121111081059912147115101108105110117120459711210945504650485052485050544511450</title>
<g id="a_node18"><a xlink:href="../sec-policy/selinux-apm-2.20240226-r2.svg" xlink:title="portage://sec&#45;policy/selinux&#45;apm&#45;2.20240226&#45;r2">
<ellipse fill="none" stroke="red" cx="1156" cy="-88" rx="144" ry="18"/>
<text text-anchor="middle" x="1156" y="-84.5" font-family="Helvetica,sans-Serif" font-size="10.00">portage://sec&#45;policy/selinux&#45;apm&#45;2.20240226&#45;r2</text>
</a>
</g>
</g>
<!-- dependency440240&#45;&gt;choice11510199451121111081059912147115101108105110117120459711210945504650485052485050544511450 -->
<g id="edge17" class="edge">
<title>dependency440240:e&#45;&gt;choice11510199451121111081059912147115101108105110117120459711210945504650485052485050544511450:w</title>
<path fill="none" stroke="black" stroke-dasharray="1,5" d="M904.89,-142C953.79,-142 957.62,-95.72 999.83,-88.85"/>
<polygon fill="black" stroke="black" points="1009.55,-88.09 999.93,-93.35 1005.78,-88.39 999.58,-88.87 999.58,-88.87 999.58,-88.87 1005.78,-88.39 999.23,-84.38 1009.55,-88.09"/>
</g>
<!-- choice11510199451121111081059912147115101108105110117120459711210945504650485052485050544511449 -->
<g id="node19" class="node">
<title>choice11510199451121111081059912147115101108105110117120459711210945504650485052485050544511449</title>
<g id="a_node19"><a xlink:href="../sec-policy/selinux-apm-2.20240226-r1.svg" xlink:title="portage://sec&#45;policy/selinux&#45;apm&#45;2.20240226&#45;r1">
<ellipse fill="none" stroke="red" cx="1156" cy="-142" rx="144" ry="18"/>
<text text-anchor="middle" x="1156" y="-138.5" font-family="Helvetica,sans-Serif" font-size="10.00">portage://sec&#45;policy/selinux&#45;apm&#45;2.20240226&#45;r1</text>
</a>
</g>
</g>
<!-- dependency440240&#45;&gt;choice11510199451121111081059912147115101108105110117120459711210945504650485052485050544511449 -->
<g id="edge18" class="edge">
<title>dependency440240:e&#45;&gt;choice11510199451121111081059912147115101108105110117120459711210945504650485052485050544511449:w</title>
<path fill="none" stroke="black" stroke-dasharray="1,5" d="M904.89,-142C948.08,-142 961.54,-142 999.86,-142"/>
<polygon fill="black" stroke="black" points="1009.55,-142 999.55,-146.5 1005.77,-142 999.55,-142 999.55,-142 999.55,-142 1005.77,-142 999.55,-137.5 1009.55,-142"/>
</g>
</g>
</svg>
