<?xml version="1.0" encoding="UTF-8" standalone="no"?>
<!DOCTYPE svg PUBLIC "-//W3C//DTD SVG 1.1//EN"
 "http://www.w3.org/Graphics/SVG/1.1/DTD/svg11.dtd">
<!-- Generated by graphviz version 12.2.1 (20241206.2353)
 -->
<!-- Title: prolog Pages: 1 -->
<svg width="1055pt" height="444pt"
 viewBox="0.00 0.00 1054.50 444.42" xmlns="http://www.w3.org/2000/svg" xmlns:xlink="http://www.w3.org/1999/xlink">
<g id="graph0" class="graph" transform="scale(1 1) rotate(0) translate(4 440.42)">
<title>prolog</title>
<polygon fill="white" stroke="none" points="-4,4 -4,-440.42 1050.5,-440.42 1050.5,4 -4,4"/>
<polygon fill="none" stroke="black" points="8,-407.17 8,-432.42 180.5,-432.42 180.5,-407.17 8,-407.17"/>
<text text-anchor="start" x="69.88" y="-416.92" font-family="Helvetica,sans-Serif" font-weight="bold" font-size="10.00">navigation</text>
<polygon fill="none" stroke="black" points="210.5,-407.17 210.5,-432.42 541.75,-432.42 541.75,-407.17 210.5,-407.17"/>
<text text-anchor="start" x="333" y="-416.92" font-family="Helvetica,sans-Serif" font-weight="bold" font-size="10.00">dependency graph</text>
<polygon fill="none" stroke="black" points="571.75,-407.17 571.75,-432.42 780.75,-432.42 780.75,-407.17 571.75,-407.17"/>
<text text-anchor="start" x="641" y="-416.92" font-family="Helvetica,sans-Serif" font-weight="bold" font-size="10.00">version control</text>
<polygon fill="none" stroke="black" points="810.75,-407.17 810.75,-432.42 962.25,-432.42 962.25,-407.17 810.75,-407.17"/>
<text text-anchor="start" x="853.12" y="-416.92" font-family="Helvetica,sans-Serif" font-weight="bold" font-size="10.00">command line</text>
<polygon fill="none" stroke="black" points="992.25,-407.17 992.25,-432.42 1038.5,-432.42 1038.5,-407.17 992.25,-407.17"/>
<text text-anchor="start" x="1000.38" y="-416.92" font-family="Helvetica,sans-Serif" font-weight="bold" font-size="10.00">legacy</text>
<g id="a_graph0_0"><a xlink:href="../index.html" xlink:title="repository">
<polygon fill="none" stroke="black" points="8,-381.92 8,-407.17 54.25,-407.17 54.25,-381.92 8,-381.92"/>
<text text-anchor="start" x="15" y="-390.67" font-family="Helvetica,sans-Serif" font-size="10.00" fill="blue">portage</text>
</a>
</g>
<g id="a_graph0_1"><a xlink:href="./index.html" xlink:title="repository">
<polygon fill="none" stroke="black" points="54.25,-381.92 54.25,-407.17 102.75,-407.17 102.75,-381.92 54.25,-381.92"/>
<text text-anchor="start" x="61.25" y="-390.67" font-family="Helvetica,sans-Serif" font-size="10.00" fill="blue">dev&#45;perl</text>
</a>
</g>
<g id="a_graph0_2"><a xlink:href="./Variable-Magic.html" xlink:title="repository">
<polygon fill="none" stroke="black" points="102.75,-381.92 102.75,-407.17 180.5,-407.17 180.5,-381.92 102.75,-381.92"/>
<text text-anchor="start" x="109.75" y="-390.67" font-family="Helvetica,sans-Serif" font-size="10.00" fill="blue">Variable&#45;Magic</text>
</a>
</g>
<g id="a_graph0_3"><a xlink:href="../dev-perl/Variable-Magic-0.640.0.svg" xlink:title="portage://dev&#45;perl/Variable&#45;Magic&#45;0.640.0">
<polygon fill="none" stroke="black" points="210.5,-381.92 210.5,-407.17 247.75,-407.17 247.75,-381.92 210.5,-381.92"/>
<text text-anchor="start" x="217.5" y="-390.67" font-family="Helvetica,sans-Serif" font-size="10.00" fill="blue">detail</text>
</a>
</g>
<g id="a_graph0_4"><a xlink:href="../dev-perl/Variable-Magic-0.640.0-bdepend.svg" xlink:title="portage://dev&#45;perl/Variable&#45;Magic&#45;0.640.0">
<polygon fill="none" stroke="black" points="247.75,-381.92 247.75,-407.17 298.5,-407.17 298.5,-381.92 247.75,-381.92"/>
<text text-anchor="start" x="254.75" y="-390.67" font-family="Helvetica,sans-Serif" font-size="10.00" fill="blue">bdepend</text>
</a>
</g>
<g id="a_graph0_5"><a xlink:href="../dev-perl/Variable-Magic-0.640.0-cdepend.svg" xlink:title="portage://dev&#45;perl/Variable&#45;Magic&#45;0.640.0">
<polygon fill="none" stroke="black" points="298.5,-381.92 298.5,-407.17 349.25,-407.17 349.25,-381.92 298.5,-381.92"/>
<text text-anchor="start" x="305.5" y="-390.67" font-family="Helvetica,sans-Serif" font-size="10.00" fill="blue">cdepend</text>
</a>
</g>
<g id="a_graph0_6"><a xlink:href="../dev-perl/Variable-Magic-0.640.0-depend.svg" xlink:title="portage://dev&#45;perl/Variable&#45;Magic&#45;0.640.0">
<polygon fill="none" stroke="black" points="349.25,-381.92 349.25,-407.17 394.75,-407.17 394.75,-381.92 349.25,-381.92"/>
<text text-anchor="start" x="356.25" y="-390.67" font-family="Helvetica,sans-Serif" font-size="10.00" fill="blue">depend</text>
</a>
</g>
<g id="a_graph0_7"><a xlink:href="../dev-perl/Variable-Magic-0.640.0-idepend.svg" xlink:title="portage://dev&#45;perl/Variable&#45;Magic&#45;0.640.0">
<polygon fill="none" stroke="black" points="394.75,-381.92 394.75,-407.17 442.5,-407.17 442.5,-381.92 394.75,-381.92"/>
<text text-anchor="start" x="401.75" y="-390.67" font-family="Helvetica,sans-Serif" font-size="10.00" fill="blue">idepend</text>
</a>
</g>
<g id="a_graph0_8"><a xlink:href="../dev-perl/Variable-Magic-0.640.0-rdepend.svg" xlink:title="portage://dev&#45;perl/Variable&#45;Magic&#45;0.640.0">
<polygon fill="none" stroke="black" points="442.5,-381.92 442.5,-407.17 491,-407.17 491,-381.92 442.5,-381.92"/>
<text text-anchor="start" x="449.5" y="-391.67" font-family="Helvetica,sans-Serif" text-decoration="underline" font-size="10.00" fill="blue">rdepend</text>
</a>
</g>
<g id="a_graph0_9"><a xlink:href="../dev-perl/Variable-Magic-0.640.0-pdepend.svg" xlink:title="portage://dev&#45;perl/Variable&#45;Magic&#45;0.640.0">
<polygon fill="none" stroke="black" points="491,-381.92 491,-407.17 541.75,-407.17 541.75,-381.92 491,-381.92"/>
<text text-anchor="start" x="498" y="-390.67" font-family="Helvetica,sans-Serif" font-size="10.00" fill="blue">pdepend</text>
</a>
</g>
<polygon fill="none" stroke="black" points="571.75,-381.92 571.75,-407.17 632.25,-407.17 632.25,-381.92 571.75,-381.92"/>
<text text-anchor="start" x="578.75" y="-390.67" font-family="Helvetica,sans-Serif" font-size="10.00" fill="gray">&lt;&lt; newest</text>
<polygon fill="none" stroke="black" points="632.25,-381.92 632.25,-407.17 681.5,-407.17 681.5,-381.92 632.25,-381.92"/>
<text text-anchor="start" x="639.25" y="-390.67" font-family="Helvetica,sans-Serif" font-size="10.00" fill="gray">&lt; newer</text>
<polygon fill="none" stroke="black" points="681.5,-381.92 681.5,-407.17 725.5,-407.17 725.5,-381.92 681.5,-381.92"/>
<text text-anchor="start" x="688.5" y="-390.67" font-family="Helvetica,sans-Serif" font-size="10.00" fill="gray">older &gt;</text>
<polygon fill="none" stroke="black" points="725.5,-381.92 725.5,-407.17 780.75,-407.17 780.75,-381.92 725.5,-381.92"/>
<text text-anchor="start" x="732.5" y="-390.67" font-family="Helvetica,sans-Serif" font-size="10.00" fill="gray">oldest &gt;&gt;</text>
<g id="a_graph0_10"><a xlink:href="../dev-perl/Variable-Magic-0.640.0-merge.svg" xlink:title="portage://dev&#45;perl/Variable&#45;Magic&#45;0.640.0">
<polygon fill="none" stroke="black" points="810.75,-381.92 810.75,-407.17 860.75,-407.17 860.75,-381.92 810.75,-381.92"/>
<text text-anchor="start" x="817.75" y="-390.67" font-family="Helvetica,sans-Serif" font-size="10.00" fill="blue">&#45;&#45;merge </text>
</a>
</g>
<g id="a_graph0_11"><a xlink:href="../dev-perl/Variable-Magic-0.640.0-fetchonly.svg" xlink:title="portage://dev&#45;perl/Variable&#45;Magic&#45;0.640.0">
<polygon fill="none" stroke="black" points="860.75,-381.92 860.75,-407.17 923.5,-407.17 923.5,-381.92 860.75,-381.92"/>
<text text-anchor="start" x="867.75" y="-390.67" font-family="Helvetica,sans-Serif" font-size="10.00" fill="blue">&#45;&#45;fetchonly </text>
</a>
</g>
<g id="a_graph0_12"><a xlink:href="../dev-perl/Variable-Magic-0.640.0-info.svg" xlink:title="portage://dev&#45;perl/Variable&#45;Magic&#45;0.640.0">
<polygon fill="none" stroke="black" points="923.5,-381.92 923.5,-407.17 962.25,-407.17 962.25,-381.92 923.5,-381.92"/>
<text text-anchor="start" x="930.5" y="-390.67" font-family="Helvetica,sans-Serif" font-size="10.00" fill="blue">&#45;&#45;info </text>
</a>
</g>
<g id="a_graph0_13"><a xlink:href="../dev-perl/Variable-Magic-0.640.0-emerge.svg" xlink:title="portage://dev&#45;perl/Variable&#45;Magic&#45;0.640.0">
<polygon fill="none" stroke="black" points="992.25,-381.92 992.25,-407.17 1038.5,-407.17 1038.5,-381.92 992.25,-381.92"/>
<text text-anchor="start" x="999.25" y="-390.67" font-family="Helvetica,sans-Serif" font-size="10.00" fill="blue">emerge</text>
</a>
</g>
<!-- root -->
<!-- portage://dev&#45;perl/Variable&#45;Magic&#45;0.640.0 -->
<g id="node2" class="node">
<title>portage://dev&#45;perl/Variable&#45;Magic&#45;0.640.0</title>
<g id="a_node2"><a xlink:href="../dev-perl/Variable-Magic-0.640.0-rdepend.svg" xlink:title="portage://dev&#45;perl/Variable&#45;Magic&#45;0.640.0">
<ellipse fill="none" stroke="red" stroke-width="2" cx="614.18" cy="-342" rx="121.3" ry="18"/>
<text text-anchor="middle" x="614.18" y="-338.12" font-family="Helvetica,sans-Serif" font-weight="bold" font-size="10.00">portage://dev&#45;perl/Variable&#45;Magic&#45;0.640.0</text>
</a>
</g>
</g>
<!-- root&#45;&gt;portage://dev&#45;perl/Variable&#45;Magic&#45;0.640.0 -->
<!-- portage://virtual/perl&#45;Carp&#45;1.540.0&#45;r2 -->
<g id="node3" class="node">
<title>portage://virtual/perl&#45;Carp&#45;1.540.0&#45;r2</title>
<g id="a_node3"><a xlink:href="../virtual/perl-Carp-1.540.0-r2-rdepend.svg" xlink:title="portage://virtual/perl&#45;Carp&#45;1.540.0&#45;r2">
<ellipse fill="none" stroke="red" cx="276.18" cy="-234" rx="102.22" ry="18"/>
<text text-anchor="middle" x="276.18" y="-230.12" font-family="Helvetica,sans-Serif" font-size="10.00">portage://virtual/perl&#45;Carp&#45;1.540.0&#45;r2</text>
</a>
</g>
</g>
<!-- portage://dev&#45;perl/Variable&#45;Magic&#45;0.640.0&#45;&gt;portage://virtual/perl&#45;Carp&#45;1.540.0&#45;r2 -->
<g id="edge2" class="edge">
<title>portage://dev&#45;perl/Variable&#45;Magic&#45;0.640.0&#45;&gt;portage://virtual/perl&#45;Carp&#45;1.540.0&#45;r2</title>
<path fill="none" stroke="black" d="M562.48,-324.79C500.12,-305.23 395.71,-272.49 331.69,-252.41"/>
<polygon fill="black" stroke="black" points="326.02,-250.63 332.55,-249.85 327.72,-251.16 331.75,-252.43 331.75,-252.43 331.75,-252.43 327.72,-251.16 330.94,-255 326.02,-250.63"/>
</g>
<!-- portage://virtual/perl&#45;Exporter&#45;5.790.0 -->
<g id="node4" class="node">
<title>portage://virtual/perl&#45;Exporter&#45;5.790.0</title>
<g id="a_node4"><a xlink:href="../virtual/perl-Exporter-5.790.0-rdepend.svg" xlink:title="portage://virtual/perl&#45;Exporter&#45;5.790.0">
<ellipse fill="none" stroke="red" cx="497.18" cy="-234" rx="104.88" ry="18"/>
<text text-anchor="middle" x="497.18" y="-230.12" font-family="Helvetica,sans-Serif" font-size="10.00">portage://virtual/perl&#45;Exporter&#45;5.790.0</text>
</a>
</g>
</g>
<!-- portage://dev&#45;perl/Variable&#45;Magic&#45;0.640.0&#45;&gt;portage://virtual/perl&#45;Exporter&#45;5.790.0 -->
<g id="edge3" class="edge">
<title>portage://dev&#45;perl/Variable&#45;Magic&#45;0.640.0&#45;&gt;portage://virtual/perl&#45;Exporter&#45;5.790.0</title>
<path fill="none" stroke="black" d="M594.6,-323.26C574.45,-305 543.02,-276.53 521.34,-256.89"/>
<polygon fill="black" stroke="black" points="516.95,-252.92 523.21,-254.94 518.27,-254.11 521.4,-256.94 521.4,-256.94 521.4,-256.94 518.27,-254.11 519.59,-258.94 516.95,-252.92"/>
</g>
<!-- portage://virtual/perl&#45;XSLoader&#45;0.320.0&#45;r2 -->
<g id="node5" class="node">
<title>portage://virtual/perl&#45;XSLoader&#45;0.320.0&#45;r2</title>
<g id="a_node5"><a xlink:href="../virtual/perl-XSLoader-0.320.0-r2-rdepend.svg" xlink:title="portage://virtual/perl&#45;XSLoader&#45;0.320.0&#45;r2">
<ellipse fill="none" stroke="red" cx="731.18" cy="-234" rx="115.08" ry="18"/>
<text text-anchor="middle" x="731.18" y="-230.12" font-family="Helvetica,sans-Serif" font-size="10.00">portage://virtual/perl&#45;XSLoader&#45;0.320.0&#45;r2</text>
</a>
</g>
</g>
<!-- portage://dev&#45;perl/Variable&#45;Magic&#45;0.640.0&#45;&gt;portage://virtual/perl&#45;XSLoader&#45;0.320.0&#45;r2 -->
<g id="edge4" class="edge">
<title>portage://dev&#45;perl/Variable&#45;Magic&#45;0.640.0&#45;&gt;portage://virtual/perl&#45;XSLoader&#45;0.320.0&#45;r2</title>
<path fill="none" stroke="black" d="M633.76,-323.26C653.91,-305 685.34,-276.53 707.02,-256.89"/>
<polygon fill="black" stroke="black" points="711.4,-252.92 708.77,-258.94 710.08,-254.11 706.96,-256.94 706.96,-256.94 706.96,-256.94 710.08,-254.11 705.15,-254.94 711.4,-252.92"/>
</g>
<!-- portage://dev&#45;lang/perl&#45;5.42.0&#45;r1 -->
<g id="node6" class="node">
<title>portage://dev&#45;lang/perl&#45;5.42.0&#45;r1</title>
<g id="a_node6"><a xlink:href="../dev-lang/perl-5.42.0-r1-rdepend.svg" xlink:title="portage://dev&#45;lang/perl&#45;5.42.0&#45;r1">
<ellipse fill="none" stroke="red" cx="614.18" cy="-126" rx="91.12" ry="18"/>
<text text-anchor="middle" x="614.18" y="-122.12" font-family="Helvetica,sans-Serif" font-size="10.00">portage://dev&#45;lang/perl&#45;5.42.0&#45;r1</text>
</a>
</g>
</g>
<!-- portage://dev&#45;perl/Variable&#45;Magic&#45;0.640.0&#45;&gt;portage://dev&#45;lang/perl&#45;5.42.0&#45;r1 -->
<g id="edge5" class="edge">
<title>portage://dev&#45;perl/Variable&#45;Magic&#45;0.640.0&#45;&gt;portage://dev&#45;lang/perl&#45;5.42.0&#45;r1</title>
<path fill="none" stroke="black" d="M712.46,-330.77C763.42,-319.92 821.48,-297.64 853.18,-252 898.18,-187.22 780.49,-153.57 694.73,-138.13"/>
<polygon fill="black" stroke="black" points="689.03,-137.13 695.41,-135.51 690.79,-137.44 694.94,-138.17 694.94,-138.17 694.94,-138.17 690.79,-137.44 694.47,-140.83 689.03,-137.13"/>
</g>
<!-- portage://virtual/perl&#45;Carp&#45;1.540.0&#45;r2&#45;&gt;portage://dev&#45;lang/perl&#45;5.42.0&#45;r1 -->
<g id="edge7" class="edge">
<title>portage://virtual/perl&#45;Carp&#45;1.540.0&#45;r2&#45;&gt;portage://dev&#45;lang/perl&#45;5.42.0&#45;r1</title>
<path fill="none" stroke="black" d="M324.61,-217.81C387.08,-198.22 495.42,-164.24 560.39,-143.87"/>
<polygon fill="black" stroke="black" points="565.77,-142.18 560.85,-146.55 564.07,-142.72 560.04,-143.98 560.04,-143.98 560.04,-143.98 564.07,-142.72 559.24,-141.4 565.77,-142.18"/>
</g>
<!-- portage://virtual/perl&#45;Exporter&#45;5.790.0&#45;&gt;portage://dev&#45;lang/perl&#45;5.42.0&#45;r1 -->
<g id="edge11" class="edge">
<title>portage://virtual/perl&#45;Exporter&#45;5.790.0&#45;&gt;portage://dev&#45;lang/perl&#45;5.42.0&#45;r1</title>
<path fill="none" stroke="black" d="M515.98,-215.97C536.19,-197.66 568.38,-168.5 590.35,-148.59"/>
<polygon fill="black" stroke="black" points="594.52,-144.81 591.89,-150.84 593.2,-146 590.08,-148.84 590.08,-148.84 590.08,-148.84 593.2,-146 588.26,-146.83 594.52,-144.81"/>
</g>
<!-- portage://virtual/perl&#45;XSLoader&#45;0.320.0&#45;r2&#45;&gt;portage://dev&#45;lang/perl&#45;5.42.0&#45;r1 -->
<g id="edge12" class="edge">
<title>portage://virtual/perl&#45;XSLoader&#45;0.320.0&#45;r2&#45;&gt;portage://dev&#45;lang/perl&#45;5.42.0&#45;r1</title>
<path fill="none" stroke="black" d="M712.38,-215.97C692.17,-197.66 659.98,-168.5 638.01,-148.59"/>
<polygon fill="black" stroke="black" points="633.83,-144.81 640.09,-146.83 635.15,-146 638.28,-148.84 638.28,-148.84 638.28,-148.84 635.15,-146 636.47,-150.84 633.83,-144.81"/>
</g>
<!-- portage://app&#45;arch/bzip2&#45;9999 -->
<g id="node7" class="node">
<title>portage://app&#45;arch/bzip2&#45;9999</title>
<g id="a_node7"><a xlink:href="../app-arch/bzip2-9999-rdepend.svg" xlink:title="portage://app&#45;arch/bzip2&#45;9999">
<ellipse fill="none" stroke="red" cx="433.18" cy="-18" rx="85.8" ry="18"/>
<text text-anchor="middle" x="433.18" y="-14.12" font-family="Helvetica,sans-Serif" font-size="10.00">portage://app&#45;arch/bzip2&#45;9999</text>
</a>
</g>
</g>
<!-- portage://dev&#45;lang/perl&#45;5.42.0&#45;r1&#45;&gt;portage://app&#45;arch/bzip2&#45;9999 -->
<g id="edge8" class="edge">
<title>portage://dev&#45;lang/perl&#45;5.42.0&#45;r1&#45;&gt;portage://app&#45;arch/bzip2&#45;9999</title>
<path fill="none" stroke="black" d="M585.9,-108.44C553.89,-89.69 501.74,-59.15 467.45,-39.07"/>
<polygon fill="black" stroke="black" points="462.31,-36.06 468.85,-36.76 463.85,-36.96 467.49,-39.09 467.49,-39.09 467.49,-39.09 463.85,-36.96 466.13,-41.42 462.31,-36.06"/>
</g>
<!-- portage://virtual/zlib&#45;1.3.1&#45;r1 -->
<g id="node8" class="node">
<title>portage://virtual/zlib&#45;1.3.1&#45;r1</title>
<g id="a_node8"><a xlink:href="../virtual/zlib-1.3.1-r1-rdepend.svg" xlink:title="portage://virtual/zlib&#45;1.3.1&#45;r1">
<ellipse fill="none" stroke="red" cx="614.18" cy="-18" rx="81.36" ry="18"/>
<text text-anchor="middle" x="614.18" y="-14.12" font-family="Helvetica,sans-Serif" font-size="10.00">portage://virtual/zlib&#45;1.3.1&#45;r1</text>
</a>
</g>
</g>
<!-- portage://dev&#45;lang/perl&#45;5.42.0&#45;r1&#45;&gt;portage://virtual/zlib&#45;1.3.1&#45;r1 -->
<g id="edge9" class="edge">
<title>portage://dev&#45;lang/perl&#45;5.42.0&#45;r1&#45;&gt;portage://virtual/zlib&#45;1.3.1&#45;r1</title>
<path fill="none" stroke="black" d="M614.18,-107.97C614.18,-90.53 614.18,-63.26 614.18,-43.51"/>
<polygon fill="black" stroke="black" points="614.18,-37.56 616.88,-43.56 614.18,-39.34 614.18,-43.56 614.18,-43.56 614.18,-43.56 614.18,-39.34 611.48,-43.56 614.18,-37.56"/>
</g>
<!-- portage://virtual/libcrypt&#45;2&#45;r1 -->
<g id="node9" class="node">
<title>portage://virtual/libcrypt&#45;2&#45;r1</title>
<g id="a_node9"><a xlink:href="../virtual/libcrypt-2-r1-rdepend.svg" xlink:title="portage://virtual/libcrypt&#45;2&#45;r1">
<ellipse fill="none" stroke="red" cx="791.18" cy="-18" rx="81.36" ry="18"/>
<text text-anchor="middle" x="791.18" y="-14.12" font-family="Helvetica,sans-Serif" font-size="10.00">portage://virtual/libcrypt&#45;2&#45;r1</text>
</a>
</g>
</g>
<!-- portage://dev&#45;lang/perl&#45;5.42.0&#45;r1&#45;&gt;portage://virtual/libcrypt&#45;2&#45;r1 -->
<g id="edge10" class="edge">
<title>portage://dev&#45;lang/perl&#45;5.42.0&#45;r1&#45;&gt;portage://virtual/libcrypt&#45;2&#45;r1</title>
<path fill="none" stroke="black" d="M641.83,-108.44C673.23,-89.64 724.43,-58.98 757.96,-38.89"/>
<polygon fill="black" stroke="black" points="762.96,-35.9 759.2,-41.3 761.43,-36.81 757.81,-38.98 757.81,-38.98 757.81,-38.98 761.43,-36.81 756.43,-36.66 762.96,-35.9"/>
</g>
</g>
</svg>
