<?xml version="1.0" encoding="UTF-8" standalone="no"?>
<!DOCTYPE svg PUBLIC "-//W3C//DTD SVG 1.1//EN"
 "http://www.w3.org/Graphics/SVG/1.1/DTD/svg11.dtd">
<!-- Generated by graphviz version 2.44.1 (20200629.0846)
 -->
<!-- Title: prolog Pages: 1 -->
<svg width="1094pt" height="648pt"
 viewBox="0.00 0.00 1093.86 648.00" xmlns="http://www.w3.org/2000/svg" xmlns:xlink="http://www.w3.org/1999/xlink">
<g id="graph0" class="graph" transform="scale(1 1) rotate(0) translate(4 644)">
<title>prolog</title>
<polygon fill="white" stroke="transparent" points="-4,4 -4,-644 1089.86,-644 1089.86,4 -4,4"/>
<g id="clust1" class="cluster">
<title>cluster_leftcol</title>
<polygon fill="none" stroke="gray" points="8,-274 8,-346 314.57,-346 314.57,-274 8,-274"/>
<text text-anchor="start" x="147.95" y="-334" font-family="Helvetica,sans-Serif" font-style="italic" font-size="10.00">ebuild</text>
</g>
<g id="clust2" class="cluster">
<title>cluster_midcol</title>
<polygon fill="none" stroke="gray" points="398.57,-8 398.57,-632 666.57,-632 666.57,-8 398.57,-8"/>
<text text-anchor="start" x="501.45" y="-620" font-family="Helvetica,sans-Serif" font-style="italic" font-size="10.00">dependencies</text>
</g>
<g id="clust3" class="cluster">
<title>cluster_compile</title>
<polygon fill="#eeeeee" stroke="gray" points="406.57,-314 406.57,-604 658.57,-604 658.57,-314 406.57,-314"/>
<text text-anchor="start" x="515.35" y="-592" font-family="Helvetica,sans-Serif" font-style="italic" font-size="10.00">compile</text>
</g>
<g id="clust7" class="cluster">
<title>cluster_run</title>
<polygon fill="#eeeeee" stroke="gray" points="406.57,-16 406.57,-306 658.57,-306 658.57,-16 406.57,-16"/>
<text text-anchor="start" x="525.35" y="-294" font-family="Helvetica,sans-Serif" font-style="italic" font-size="10.00">run</text>
</g>
<g id="clust10" class="cluster">
<title>cluster_choices</title>
<polygon fill="none" stroke="gray" points="750.57,-139 750.57,-481 1077.86,-481 1077.86,-139 750.57,-139"/>
<text text-anchor="start" x="890.04" y="-469" font-family="Helvetica,sans-Serif" font-style="italic" font-size="10.00">candidates</text>
</g>
<!-- id -->
<g id="node1" class="node">
<title>id</title>
<g id="a_node1"><a xlink:href="../sec-policy/selinux-prelude-2.20200818-r2.svg" xlink:title="portage://sec&#45;policy/selinux&#45;prelude&#45;2.20200818&#45;r2">
<ellipse fill="none" stroke="red" cx="161.29" cy="-300" rx="145.07" ry="18"/>
<text text-anchor="middle" x="161.29" y="-297" font-family="Helvetica,sans-Serif" font-size="10.00">portage://sec&#45;policy/selinux&#45;prelude&#45;2.20200818&#45;r2</text>
</a>
</g>
</g>
<!-- dependency2005 -->
<g id="node2" class="node">
<title>dependency2005</title>
<polygon fill="none" stroke="blue" points="422.57,-462 422.57,-572 527.57,-572 527.57,-462 422.57,-462"/>
<text text-anchor="start" x="453.4" y="-514" font-family="Helvetica,sans-Serif" font-size="10.00">pack_dep</text>
<polygon fill="none" stroke="blue" points="527.57,-550 527.57,-572 637.57,-572 637.57,-550 527.57,-550"/>
<text text-anchor="start" x="577.01" y="-558" font-family="Helvetica,sans-Serif" font-size="10.00">no</text>
<polygon fill="none" stroke="blue" points="527.57,-528 527.57,-550 637.57,-550 637.57,-528 527.57,-528"/>
<text text-anchor="start" x="560.35" y="-536" font-family="Helvetica,sans-Serif" font-size="10.00">sec&#45;policy</text>
<polygon fill="none" stroke="blue" points="527.57,-506 527.57,-528 637.57,-528 637.57,-506 527.57,-506"/>
<text text-anchor="start" x="540.07" y="-514" font-family="Helvetica,sans-Serif" font-size="10.00">selinux&#45;base&#45;policy</text>
<polygon fill="none" stroke="blue" points="527.57,-484 527.57,-506 637.57,-506 637.57,-484 527.57,-484"/>
<text text-anchor="start" x="554.51" y="-492" font-family="Helvetica,sans-Serif" font-size="10.00">greaterequal</text>
<polygon fill="none" stroke="blue" points="527.57,-462 527.57,-484 637.57,-484 637.57,-462 527.57,-462"/>
<text text-anchor="start" x="550.06" y="-470" font-family="Helvetica,sans-Serif" font-size="10.00">2.20200818&#45;r2</text>
</g>
<!-- id&#45;&gt;dependency2005 -->
<g id="edge1" class="edge">
<title>id:e&#45;&gt;dependency2005:w</title>
<path fill="none" stroke="black" d="M308.29,-300C411.92,-300 313.38,-502.83 403.6,-516.3"/>
<polygon fill="black" stroke="black" points="413.57,-517 403.28,-520.79 408.59,-516.65 403.6,-516.3 403.6,-516.3 403.6,-516.3 408.59,-516.65 403.91,-511.81 413.57,-517 413.57,-517"/>
</g>
<!-- dependency2006 -->
<g id="node3" class="node">
<title>dependency2006</title>
<polygon fill="none" stroke="blue" points="422.57,-326 422.57,-436 527.57,-436 527.57,-326 422.57,-326"/>
<text text-anchor="start" x="453.4" y="-378" font-family="Helvetica,sans-Serif" font-size="10.00">pack_dep</text>
<polygon fill="none" stroke="blue" points="527.57,-414 527.57,-436 637.57,-436 637.57,-414 527.57,-414"/>
<text text-anchor="start" x="577.01" y="-422" font-family="Helvetica,sans-Serif" font-size="10.00">no</text>
<polygon fill="none" stroke="blue" points="527.57,-392 527.57,-414 637.57,-414 637.57,-392 527.57,-392"/>
<text text-anchor="start" x="562.57" y="-400" font-family="Helvetica,sans-Serif" font-size="10.00">sys&#45;apps</text>
<polygon fill="none" stroke="blue" points="527.57,-370 527.57,-392 637.57,-392 637.57,-370 527.57,-370"/>
<text text-anchor="start" x="551.18" y="-378" font-family="Helvetica,sans-Serif" font-size="10.00">policycoreutils</text>
<polygon fill="none" stroke="blue" points="527.57,-348 527.57,-370 637.57,-370 637.57,-348 527.57,-348"/>
<text text-anchor="start" x="554.51" y="-356" font-family="Helvetica,sans-Serif" font-size="10.00">greaterequal</text>
<polygon fill="none" stroke="blue" points="527.57,-326 527.57,-348 637.57,-348 637.57,-326 527.57,-326"/>
<text text-anchor="start" x="568.68" y="-334" font-family="Helvetica,sans-Serif" font-size="10.00">2.0.82</text>
</g>
<!-- id&#45;&gt;dependency2006 -->
<g id="edge2" class="edge">
<title>id:e&#45;&gt;dependency2006:w</title>
<path fill="none" stroke="black" d="M308.29,-300C363.75,-300 355.82,-371.49 403.61,-380.15"/>
<polygon fill="black" stroke="black" points="413.57,-381 403.23,-384.63 408.59,-380.57 403.61,-380.15 403.61,-380.15 403.61,-380.15 408.59,-380.57 403.99,-375.66 413.57,-381 413.57,-381"/>
</g>
<!-- dependency2007 -->
<g id="node4" class="node">
<title>dependency2007</title>
<polygon fill="none" stroke="blue" points="422.57,-164 422.57,-274 527.57,-274 527.57,-164 422.57,-164"/>
<text text-anchor="start" x="453.4" y="-216" font-family="Helvetica,sans-Serif" font-size="10.00">pack_dep</text>
<polygon fill="none" stroke="blue" points="527.57,-252 527.57,-274 637.57,-274 637.57,-252 527.57,-252"/>
<text text-anchor="start" x="577.01" y="-260" font-family="Helvetica,sans-Serif" font-size="10.00">no</text>
<polygon fill="none" stroke="blue" points="527.57,-230 527.57,-252 637.57,-252 637.57,-230 527.57,-230"/>
<text text-anchor="start" x="560.35" y="-238" font-family="Helvetica,sans-Serif" font-size="10.00">sec&#45;policy</text>
<polygon fill="none" stroke="blue" points="527.57,-208 527.57,-230 637.57,-230 637.57,-208 527.57,-208"/>
<text text-anchor="start" x="540.07" y="-216" font-family="Helvetica,sans-Serif" font-size="10.00">selinux&#45;base&#45;policy</text>
<polygon fill="none" stroke="blue" points="527.57,-186 527.57,-208 637.57,-208 637.57,-186 527.57,-186"/>
<text text-anchor="start" x="554.51" y="-194" font-family="Helvetica,sans-Serif" font-size="10.00">greaterequal</text>
<polygon fill="none" stroke="blue" points="527.57,-164 527.57,-186 637.57,-186 637.57,-164 527.57,-164"/>
<text text-anchor="start" x="550.06" y="-172" font-family="Helvetica,sans-Serif" font-size="10.00">2.20200818&#45;r2</text>
</g>
<!-- id&#45;&gt;dependency2007 -->
<g id="edge3" class="edge">
<title>id:e&#45;&gt;dependency2007:w</title>
<path fill="none" stroke="black" d="M308.29,-300C364.44,-300 355.61,-226.72 405.42,-219.56"/>
<ellipse fill="none" stroke="black" cx="409.58" cy="-219.27" rx="4" ry="4"/>
</g>
<!-- dependency2008 -->
<g id="node5" class="node">
<title>dependency2008</title>
<polygon fill="none" stroke="blue" points="422.57,-28 422.57,-138 527.57,-138 527.57,-28 422.57,-28"/>
<text text-anchor="start" x="453.4" y="-80" font-family="Helvetica,sans-Serif" font-size="10.00">pack_dep</text>
<polygon fill="none" stroke="blue" points="527.57,-116 527.57,-138 637.57,-138 637.57,-116 527.57,-116"/>
<text text-anchor="start" x="577.01" y="-124" font-family="Helvetica,sans-Serif" font-size="10.00">no</text>
<polygon fill="none" stroke="blue" points="527.57,-94 527.57,-116 637.57,-116 637.57,-94 527.57,-94"/>
<text text-anchor="start" x="562.57" y="-102" font-family="Helvetica,sans-Serif" font-size="10.00">sys&#45;apps</text>
<polygon fill="none" stroke="blue" points="527.57,-72 527.57,-94 637.57,-94 637.57,-72 527.57,-72"/>
<text text-anchor="start" x="551.18" y="-80" font-family="Helvetica,sans-Serif" font-size="10.00">policycoreutils</text>
<polygon fill="none" stroke="blue" points="527.57,-50 527.57,-72 637.57,-72 637.57,-50 527.57,-50"/>
<text text-anchor="start" x="554.51" y="-58" font-family="Helvetica,sans-Serif" font-size="10.00">greaterequal</text>
<polygon fill="none" stroke="blue" points="527.57,-28 527.57,-50 637.57,-50 637.57,-28 527.57,-28"/>
<text text-anchor="start" x="568.68" y="-36" font-family="Helvetica,sans-Serif" font-size="10.00">2.0.82</text>
</g>
<!-- id&#45;&gt;dependency2008 -->
<g id="edge4" class="edge">
<title>id:e&#45;&gt;dependency2008:w</title>
<path fill="none" stroke="black" d="M308.29,-300C412.66,-300 311.98,-94.29 405.54,-83.44"/>
<ellipse fill="none" stroke="black" cx="409.58" cy="-83.22" rx="4" ry="4"/>
</g>
<!-- choice11510199451121111081059912147115101108105110117120459897115101451121111081059912145504650485048485649564511450 -->
<g id="node6" class="node">
<title>choice11510199451121111081059912147115101108105110117120459897115101451121111081059912145504650485048485649564511450</title>
<g id="a_node6"><a xlink:href="../sec-policy/selinux-base-policy-2.20200818-r2.svg" xlink:title="portage://sec&#45;policy/selinux&#45;base&#45;policy&#45;2.20200818&#45;r2">
<ellipse fill="none" stroke="red" cx="914.21" cy="-327" rx="155.78" ry="18"/>
<text text-anchor="middle" x="914.21" y="-324" font-family="Helvetica,sans-Serif" font-size="10.00">portage://sec&#45;policy/selinux&#45;base&#45;policy&#45;2.20200818&#45;r2</text>
</a>
</g>
</g>
<!-- dependency2005&#45;&gt;choice11510199451121111081059912147115101108105110117120459897115101451121111081059912145504650485048485649564511450 -->
<g id="edge5" class="edge">
<title>dependency2005:e&#45;&gt;choice11510199451121111081059912147115101108105110117120459897115101451121111081059912145504650485048485649564511450:w</title>
<path fill="none" stroke="black" stroke-dasharray="1,5" d="M651.57,-517C744.61,-517 666.84,-340.84 747.2,-327.77"/>
<polygon fill="black" stroke="black" points="757.21,-327 747.59,-332.25 752.23,-327.38 747.24,-327.76 747.24,-327.76 747.24,-327.76 752.23,-327.38 746.9,-323.28 757.21,-327 757.21,-327"/>
</g>
<!-- choice11510199451121111081059912147115101108105110117120459897115101451121111081059912145504650485049485048514511449 -->
<g id="node7" class="node">
<title>choice11510199451121111081059912147115101108105110117120459897115101451121111081059912145504650485049485048514511449</title>
<g id="a_node7"><a xlink:href="../sec-policy/selinux-base-policy-2.20210203-r1.svg" xlink:title="portage://sec&#45;policy/selinux&#45;base&#45;policy&#45;2.20210203&#45;r1">
<ellipse fill="none" stroke="red" cx="914.21" cy="-435" rx="155.78" ry="18"/>
<text text-anchor="middle" x="914.21" y="-432" font-family="Helvetica,sans-Serif" font-size="10.00">portage://sec&#45;policy/selinux&#45;base&#45;policy&#45;2.20210203&#45;r1</text>
</a>
</g>
</g>
<!-- dependency2005&#45;&gt;choice11510199451121111081059912147115101108105110117120459897115101451121111081059912145504650485049485048514511449 -->
<g id="edge6" class="edge">
<title>dependency2005:e&#45;&gt;choice11510199451121111081059912147115101108105110117120459897115101451121111081059912145504650485049485048514511449:w</title>
<path fill="none" stroke="black" stroke-dasharray="1,5" d="M651.57,-517C707.41,-517 699.11,-444.63 747.19,-435.87"/>
<polygon fill="black" stroke="black" points="757.21,-435 747.64,-440.34 752.23,-435.43 747.25,-435.86 747.25,-435.86 747.25,-435.86 752.23,-435.43 746.87,-431.38 757.21,-435 757.21,-435"/>
</g>
<!-- choice1151019945112111108105991214711510110810511011712045989711510145112111108105991214557575757 -->
<g id="node8" class="node">
<title>choice1151019945112111108105991214711510110810511011712045989711510145112111108105991214557575757</title>
<g id="a_node8"><a xlink:href="../sec-policy/selinux-base-policy-9999.svg" xlink:title="portage://sec&#45;policy/selinux&#45;base&#45;policy&#45;9999">
<ellipse fill="none" stroke="red" cx="914.21" cy="-381" rx="144" ry="18"/>
<text text-anchor="middle" x="914.21" y="-378" font-family="Helvetica,sans-Serif" font-size="10.00">portage://sec&#45;policy/selinux&#45;base&#45;policy&#45;9999</text>
</a>
</g>
</g>
<!-- dependency2005&#45;&gt;choice1151019945112111108105991214711510110810511011712045989711510145112111108105991214557575757 -->
<g id="edge7" class="edge">
<title>dependency2005:e&#45;&gt;choice1151019945112111108105991214711510110810511011712045989711510145112111108105991214557575757:w</title>
<path fill="none" stroke="black" stroke-dasharray="1,5" d="M651.57,-517C727.9,-517 692.84,-392.94 759.16,-381.8"/>
<polygon fill="black" stroke="black" points="769.21,-381 759.6,-386.28 764.23,-381.4 759.25,-381.79 759.25,-381.79 759.25,-381.79 764.23,-381.4 758.89,-377.31 769.21,-381 769.21,-381"/>
</g>
<!-- choice1151211154597112112115471121111081059912199111114101117116105108115455146494511450 -->
<g id="node9" class="node">
<title>choice1151211154597112112115471121111081059912199111114101117116105108115455146494511450</title>
<g id="a_node9"><a xlink:href="../sys-apps/policycoreutils-3.1-r2.svg" xlink:title="portage://sys&#45;apps/policycoreutils&#45;3.1&#45;r2">
<ellipse fill="none" stroke="red" cx="914.21" cy="-165" rx="144" ry="18"/>
<text text-anchor="middle" x="914.21" y="-162" font-family="Helvetica,sans-Serif" font-size="10.00">portage://sys&#45;apps/policycoreutils&#45;3.1&#45;r2</text>
</a>
</g>
</g>
<!-- dependency2006&#45;&gt;choice1151211154597112112115471121111081059912199111114101117116105108115455146494511450 -->
<g id="edge8" class="edge">
<title>dependency2006:e&#45;&gt;choice1151211154597112112115471121111081059912199111114101117116105108115455146494511450:w</title>
<path fill="none" stroke="black" stroke-dasharray="1,5" d="M651.57,-381C757.26,-381 666.37,-179.11 759.01,-165.7"/>
<polygon fill="black" stroke="black" points="769.21,-165 759.55,-170.17 764.23,-165.34 759.24,-165.68 759.24,-165.68 759.24,-165.68 764.23,-165.34 758.93,-161.19 769.21,-165 769.21,-165"/>
</g>
<!-- choice115121115459711211211547112111108105991219911111410111711610510811545514650 -->
<g id="node10" class="node">
<title>choice115121115459711211211547112111108105991219911111410111711610510811545514650</title>
<g id="a_node10"><a xlink:href="../sys-apps/policycoreutils-3.2.svg" xlink:title="portage://sys&#45;apps/policycoreutils&#45;3.2">
<ellipse fill="none" stroke="red" cx="914.21" cy="-273" rx="144" ry="18"/>
<text text-anchor="middle" x="914.21" y="-270" font-family="Helvetica,sans-Serif" font-size="10.00">portage://sys&#45;apps/policycoreutils&#45;3.2</text>
</a>
</g>
</g>
<!-- dependency2006&#45;&gt;choice115121115459711211211547112111108105991219911111410111711610510811545514650 -->
<g id="edge9" class="edge">
<title>dependency2006:e&#45;&gt;choice115121115459711211211547112111108105991219911111410111711610510811545514650:w</title>
<path fill="none" stroke="black" stroke-dasharray="1,5" d="M651.57,-381C718.95,-381 700.46,-283.69 759.11,-273.81"/>
<polygon fill="black" stroke="black" points="769.21,-273 759.61,-278.28 764.23,-273.4 759.25,-273.8 759.25,-273.8 759.25,-273.8 764.23,-273.4 758.89,-269.31 769.21,-273 769.21,-273"/>
</g>
<!-- choice11512111545971121121154711211110810599121991111141011171161051081154557575757 -->
<g id="node11" class="node">
<title>choice11512111545971121121154711211110810599121991111141011171161051081154557575757</title>
<g id="a_node11"><a xlink:href="../sys-apps/policycoreutils-9999.svg" xlink:title="portage://sys&#45;apps/policycoreutils&#45;9999">
<ellipse fill="none" stroke="red" cx="914.21" cy="-219" rx="144" ry="18"/>
<text text-anchor="middle" x="914.21" y="-216" font-family="Helvetica,sans-Serif" font-size="10.00">portage://sys&#45;apps/policycoreutils&#45;9999</text>
</a>
</g>
</g>
<!-- dependency2006&#45;&gt;choice11512111545971121121154711211110810599121991111141011171161051081154557575757 -->
<g id="edge10" class="edge">
<title>dependency2006:e&#45;&gt;choice11512111545971121121154711211110810599121991111141011171161051081154557575757:w</title>
<path fill="none" stroke="black" stroke-dasharray="1,5" d="M651.57,-381C736.91,-381 684.93,-232.02 759,-219.8"/>
<polygon fill="black" stroke="black" points="769.21,-219 759.59,-224.26 764.23,-219.39 759.25,-219.78 759.25,-219.78 759.25,-219.78 764.23,-219.39 758.9,-215.29 769.21,-219 769.21,-219"/>
</g>
<!-- dependency2007&#45;&gt;choice11510199451121111081059912147115101108105110117120459897115101451121111081059912145504650485048485649564511450 -->
<g id="edge11" class="edge">
<title>dependency2007:e&#45;&gt;choice11510199451121111081059912147115101108105110117120459897115101451121111081059912145504650485048485649564511450:w</title>
<path fill="none" stroke="black" stroke-dasharray="1,5" d="M651.57,-219C715.05,-219 692.92,-315.51 747.03,-326.07"/>
<polygon fill="black" stroke="black" points="757.21,-327 746.85,-330.57 752.24,-326.54 747.26,-326.09 747.26,-326.09 747.26,-326.09 752.24,-326.54 747.67,-321.61 757.21,-327 757.21,-327"/>
</g>
<!-- dependency2007&#45;&gt;choice11510199451121111081059912147115101108105110117120459897115101451121111081059912145504650485049485048514511449 -->
<g id="edge12" class="edge">
<title>dependency2007:e&#45;&gt;choice11510199451121111081059912147115101108105110117120459897115101451121111081059912145504650485049485048514511449:w</title>
<path fill="none" stroke="black" stroke-dasharray="1,5" d="M651.57,-219C754.79,-219 657.49,-420.49 746.99,-434.26"/>
<polygon fill="black" stroke="black" points="757.21,-435 746.92,-438.77 752.23,-434.64 747.24,-434.28 747.24,-434.28 747.24,-434.28 752.23,-434.64 747.57,-429.79 757.21,-435 757.21,-435"/>
</g>
<!-- dependency2007&#45;&gt;choice1151019945112111108105991214711510110810511011712045989711510145112111108105991214557575757 -->
<g id="edge13" class="edge">
<title>dependency2007:e&#45;&gt;choice1151019945112111108105991214711510110810511011712045989711510145112111108105991214557575757:w</title>
<path fill="none" stroke="black" stroke-dasharray="1,5" d="M651.57,-219C736.91,-219 684.93,-367.98 759,-380.2"/>
<polygon fill="black" stroke="black" points="769.21,-381 758.9,-384.71 764.23,-380.61 759.25,-380.22 759.25,-380.22 759.25,-380.22 764.23,-380.61 759.59,-375.74 769.21,-381 769.21,-381"/>
</g>
<!-- dependency2008&#45;&gt;choice1151211154597112112115471121111081059912199111114101117116105108115455146494511450 -->
<g id="edge14" class="edge">
<title>dependency2008:e&#45;&gt;choice1151211154597112112115471121111081059912199111114101117116105108115455146494511450:w</title>
<path fill="none" stroke="black" stroke-dasharray="1,5" d="M651.57,-83C711.7,-83 706.36,-155.97 759.07,-164.24"/>
<polygon fill="black" stroke="black" points="769.21,-165 758.91,-168.74 764.23,-164.63 759.24,-164.25 759.24,-164.25 759.24,-164.25 764.23,-164.63 759.58,-159.77 769.21,-165 769.21,-165"/>
</g>
<!-- dependency2008&#45;&gt;choice115121115459711211211547112111108105991219911111410111711610510811545514650 -->
<g id="edge15" class="edge">
<title>dependency2008:e&#45;&gt;choice115121115459711211211547112111108105991219911111410111711610510811545514650:w</title>
<path fill="none" stroke="black" stroke-dasharray="1,5" d="M651.57,-83C747.31,-83 675.51,-259.52 759.14,-272.27"/>
<polygon fill="black" stroke="black" points="769.21,-273 758.92,-276.77 764.23,-272.64 759.24,-272.28 759.24,-272.28 759.24,-272.28 764.23,-272.64 759.56,-267.79 769.21,-273 769.21,-273"/>
</g>
<!-- dependency2008&#45;&gt;choice11512111545971121121154711211110810599121991111141011171161051081154557575757 -->
<g id="edge16" class="edge">
<title>dependency2008:e&#45;&gt;choice11512111545971121121154711211110810599121991111141011171161051081154557575757:w</title>
<path fill="none" stroke="black" stroke-dasharray="1,5" d="M651.57,-83C727.9,-83 692.84,-207.06 759.16,-218.2"/>
<polygon fill="black" stroke="black" points="769.21,-219 758.89,-222.69 764.23,-218.6 759.25,-218.21 759.25,-218.21 759.25,-218.21 764.23,-218.6 759.6,-213.72 769.21,-219 769.21,-219"/>
</g>
</g>
</svg>
