<?xml version="1.0" encoding="UTF-8" standalone="no"?>
<!DOCTYPE svg PUBLIC "-//W3C//DTD SVG 1.1//EN"
 "http://www.w3.org/Graphics/SVG/1.1/DTD/svg11.dtd">
<!-- Generated by graphviz version 2.39.20160721.2101 (20160721.2101)
 -->
<!-- Title: prolog Pages: 1 -->
<svg width="1068pt" height="867pt"
 viewBox="0.00 0.00 1068.00 867.00" xmlns="http://www.w3.org/2000/svg" xmlns:xlink="http://www.w3.org/1999/xlink">
<g id="graph0" class="graph" transform="scale(1 1) rotate(0) translate(4 863)">
<title>prolog</title>
<polygon fill="white" stroke="transparent" points="-4,4 -4,-863 1064,-863 1064,4 -4,4"/>
<g id="clust1" class="cluster">
<title>cluster_leftcol</title>
<polygon fill="none" stroke="gray" points="8,-361 8,-433 312,-433 312,-361 8,-361"/>
<text text-anchor="start" x="146.663" y="-421" font-family="Helvetica,sans-Serif" font-style="italic" font-size="10.00">ebuild</text>
</g>
<g id="clust2" class="cluster">
<title>cluster_midcol</title>
<polygon fill="none" stroke="gray" points="396,-8 396,-806 664,-806 664,-8 396,-8"/>
<text text-anchor="start" x="498.875" y="-794" font-family="Helvetica,sans-Serif" font-style="italic" font-size="10.00">dependencies</text>
</g>
<g id="clust4" class="cluster">
<title>cluster_compileandrun</title>
<polygon fill="#eeeeee" stroke="gray" points="404,-16 404,-778 656,-778 656,-16 404,-16"/>
<text text-anchor="start" x="494.437" y="-766" font-family="Helvetica,sans-Serif" font-style="italic" font-size="10.00">compile and run</text>
</g>
<g id="clust12" class="cluster">
<title>cluster_choices</title>
<polygon fill="none" stroke="gray" points="748,-67 748,-851 1052,-851 1052,-67 748,-67"/>
<text text-anchor="start" x="875.824" y="-839" font-family="Helvetica,sans-Serif" font-style="italic" font-size="10.00">candidates</text>
</g>
<!-- id -->
<g id="node1" class="node">
<title>id</title>
<g id="a_node1"><a xlink:href="../x11-misc/kdocker-4.8-r2.svg" xlink:title="x11&#45;misc/kdocker&#45;4.8&#45;r2">
<ellipse fill="none" stroke="red" cx="160" cy="-387" rx="144" ry="18"/>
<text text-anchor="middle" x="160" y="-384" font-family="Helvetica,sans-Serif" font-size="10.00">x11&#45;misc/kdocker&#45;4.8&#45;r2</text>
</a>
</g>
</g>
<!-- dependency522520 -->
<g id="node2" class="node">
<title>dependency522520</title>
<polygon fill="none" stroke="blue" points="420,-648 420,-746 525,-746 525,-648 420,-648"/>
<text text-anchor="start" x="450.823" y="-694" font-family="Helvetica,sans-Serif" font-size="10.00">pack_dep</text>
<polygon fill="none" stroke="blue" points="525,-724 525,-746 635,-746 635,-724 525,-724"/>
<text text-anchor="start" x="574.441" y="-732" font-family="Helvetica,sans-Serif" font-size="10.00">no</text>
<polygon fill="none" stroke="blue" points="525,-702 525,-724 635,-724 635,-702 525,-702"/>
<text text-anchor="start" x="566.107" y="-710" font-family="Helvetica,sans-Serif" font-size="10.00">dev&#45;qt</text>
<polygon fill="none" stroke="blue" points="525,-680 525,-702 635,-702 635,-680 525,-680"/>
<text text-anchor="start" x="566.107" y="-688" font-family="Helvetica,sans-Serif" font-size="10.00">qtcore</text>
<polygon fill="none" stroke="blue" points="525,-658 525,-680 635,-680 635,-658 525,-658"/>
<text text-anchor="start" x="568.882" y="-666" font-family="Helvetica,sans-Serif" font-size="10.00">none</text>
<polygon fill="none" stroke="blue" points="525,-648 525,-658 635,-658 635,-648 525,-648"/>
</g>
<!-- id&#45;&gt;dependency522520 -->
<g id="edge1" class="edge">
<title>id:e&#45;&gt;dependency522520:w</title>
<path fill="none" stroke="black" d="M304,-387C443.203,-387 282.278,-669.196 393.93,-695.101"/>
<ellipse fill="none" stroke="black" cx="408.022" cy="-696.582" rx="4" ry="4"/>
<polygon fill="black" stroke="black" points="404.044,-696.164 393.628,-699.594 399.071,-695.641 394.099,-695.118 394.099,-695.118 394.099,-695.118 399.071,-695.641 394.569,-690.643 404.044,-696.164 404.044,-696.164"/>
</g>
<!-- dependency522521 -->
<g id="node3" class="node">
<title>dependency522521</title>
<polygon fill="none" stroke="blue" points="420,-524 420,-622 525,-622 525,-524 420,-524"/>
<text text-anchor="start" x="450.823" y="-570" font-family="Helvetica,sans-Serif" font-size="10.00">pack_dep</text>
<polygon fill="none" stroke="blue" points="525,-600 525,-622 635,-622 635,-600 525,-600"/>
<text text-anchor="start" x="574.441" y="-608" font-family="Helvetica,sans-Serif" font-size="10.00">no</text>
<polygon fill="none" stroke="blue" points="525,-578 525,-600 635,-600 635,-578 525,-578"/>
<text text-anchor="start" x="566.107" y="-586" font-family="Helvetica,sans-Serif" font-size="10.00">dev&#45;qt</text>
<polygon fill="none" stroke="blue" points="525,-556 525,-578 635,-578 635,-556 525,-556"/>
<text text-anchor="start" x="569.163" y="-564" font-family="Helvetica,sans-Serif" font-size="10.00">qtgui</text>
<polygon fill="none" stroke="blue" points="525,-534 525,-556 635,-556 635,-534 525,-534"/>
<text text-anchor="start" x="568.882" y="-542" font-family="Helvetica,sans-Serif" font-size="10.00">none</text>
<polygon fill="none" stroke="blue" points="525,-524 525,-534 635,-534 635,-524 525,-524"/>
</g>
<!-- id&#45;&gt;dependency522521 -->
<g id="edge2" class="edge">
<title>id:e&#45;&gt;dependency522521:w</title>
<path fill="none" stroke="black" d="M304,-387C392.684,-387 327.497,-547.089 393.942,-570.226"/>
<ellipse fill="none" stroke="black" cx="408.046" cy="-572.393" rx="4" ry="4"/>
<polygon fill="black" stroke="black" points="404.093,-571.785 393.525,-574.715 399.151,-571.026 394.209,-570.267 394.209,-570.267 394.209,-570.267 399.151,-571.026 394.892,-565.819 404.093,-571.785 404.093,-571.785"/>
</g>
<!-- dependency522522 -->
<g id="node4" class="node">
<title>dependency522522</title>
<polygon fill="none" stroke="blue" points="420,-400 420,-498 525,-498 525,-400 420,-400"/>
<text text-anchor="start" x="450.823" y="-446" font-family="Helvetica,sans-Serif" font-size="10.00">pack_dep</text>
<polygon fill="none" stroke="blue" points="525,-476 525,-498 635,-498 635,-476 525,-476"/>
<text text-anchor="start" x="574.441" y="-484" font-family="Helvetica,sans-Serif" font-size="10.00">no</text>
<polygon fill="none" stroke="blue" points="525,-454 525,-476 635,-476 635,-454 525,-454"/>
<text text-anchor="start" x="566.107" y="-462" font-family="Helvetica,sans-Serif" font-size="10.00">dev&#45;qt</text>
<polygon fill="none" stroke="blue" points="525,-432 525,-454 635,-454 635,-432 525,-432"/>
<text text-anchor="start" x="538.879" y="-440" font-family="Helvetica,sans-Serif" font-size="10.00">qtsingleapplication</text>
<polygon fill="none" stroke="blue" points="525,-410 525,-432 635,-432 635,-410 525,-410"/>
<text text-anchor="start" x="568.882" y="-418" font-family="Helvetica,sans-Serif" font-size="10.00">none</text>
<polygon fill="none" stroke="blue" points="525,-400 525,-410 635,-410 635,-400 525,-400"/>
</g>
<!-- id&#45;&gt;dependency522522 -->
<g id="edge3" class="edge">
<title>id:e&#45;&gt;dependency522522:w</title>
<path fill="none" stroke="black" d="M304,-387C352.537,-387 356.437,-434.681 393.989,-446.415"/>
<ellipse fill="none" stroke="black" cx="408.041" cy="-448.432" rx="4" ry="4"/>
<polygon fill="black" stroke="black" points="404.081,-447.863 393.543,-450.897 399.132,-447.153 394.183,-446.443 394.183,-446.443 394.183,-446.443 399.132,-447.153 394.822,-441.988 404.081,-447.863 404.081,-447.863"/>
</g>
<!-- dependency522523 -->
<g id="node5" class="node">
<title>dependency522523</title>
<polygon fill="none" stroke="blue" points="420,-276 420,-374 525,-374 525,-276 420,-276"/>
<text text-anchor="start" x="450.823" y="-322" font-family="Helvetica,sans-Serif" font-size="10.00">pack_dep</text>
<polygon fill="none" stroke="blue" points="525,-352 525,-374 635,-374 635,-352 525,-352"/>
<text text-anchor="start" x="574.441" y="-360" font-family="Helvetica,sans-Serif" font-size="10.00">no</text>
<polygon fill="none" stroke="blue" points="525,-330 525,-352 635,-352 635,-330 525,-330"/>
<text text-anchor="start" x="562.778" y="-338" font-family="Helvetica,sans-Serif" font-size="10.00">x11&#45;libs</text>
<polygon fill="none" stroke="blue" points="525,-308 525,-330 635,-330 635,-308 525,-308"/>
<text text-anchor="start" x="566.108" y="-316" font-family="Helvetica,sans-Serif" font-size="10.00">libX11</text>
<polygon fill="none" stroke="blue" points="525,-286 525,-308 635,-308 635,-286 525,-286"/>
<text text-anchor="start" x="568.882" y="-294" font-family="Helvetica,sans-Serif" font-size="10.00">none</text>
<polygon fill="none" stroke="blue" points="525,-276 525,-286 635,-286 635,-276 525,-276"/>
</g>
<!-- id&#45;&gt;dependency522523 -->
<g id="edge4" class="edge">
<title>id:e&#45;&gt;dependency522523:w</title>
<path fill="none" stroke="black" d="M304,-387C352.537,-387 356.437,-339.319 393.989,-327.585"/>
<ellipse fill="none" stroke="black" cx="408.041" cy="-325.568" rx="4" ry="4"/>
<polygon fill="black" stroke="black" points="404.081,-326.137 394.822,-332.012 399.132,-326.847 394.183,-327.557 394.183,-327.557 394.183,-327.557 399.132,-326.847 393.543,-323.103 404.081,-326.137 404.081,-326.137"/>
</g>
<!-- dependency522524 -->
<g id="node6" class="node">
<title>dependency522524</title>
<polygon fill="none" stroke="blue" points="420,-152 420,-250 525,-250 525,-152 420,-152"/>
<text text-anchor="start" x="450.823" y="-198" font-family="Helvetica,sans-Serif" font-size="10.00">pack_dep</text>
<polygon fill="none" stroke="blue" points="525,-228 525,-250 635,-250 635,-228 525,-228"/>
<text text-anchor="start" x="574.441" y="-236" font-family="Helvetica,sans-Serif" font-size="10.00">no</text>
<polygon fill="none" stroke="blue" points="525,-206 525,-228 635,-228 635,-206 525,-206"/>
<text text-anchor="start" x="562.778" y="-214" font-family="Helvetica,sans-Serif" font-size="10.00">x11&#45;libs</text>
<polygon fill="none" stroke="blue" points="525,-184 525,-206 635,-206 635,-184 525,-184"/>
<text text-anchor="start" x="564.723" y="-192" font-family="Helvetica,sans-Serif" font-size="10.00">libXmu</text>
<polygon fill="none" stroke="blue" points="525,-162 525,-184 635,-184 635,-162 525,-162"/>
<text text-anchor="start" x="568.882" y="-170" font-family="Helvetica,sans-Serif" font-size="10.00">none</text>
<polygon fill="none" stroke="blue" points="525,-152 525,-162 635,-162 635,-152 525,-152"/>
</g>
<!-- id&#45;&gt;dependency522524 -->
<g id="edge5" class="edge">
<title>id:e&#45;&gt;dependency522524:w</title>
<path fill="none" stroke="black" d="M304,-387C392.684,-387 327.497,-226.911 393.942,-203.774"/>
<ellipse fill="none" stroke="black" cx="408.046" cy="-201.607" rx="4" ry="4"/>
<polygon fill="black" stroke="black" points="404.093,-202.215 394.892,-208.181 399.151,-202.974 394.209,-203.733 394.209,-203.733 394.209,-203.733 399.151,-202.974 393.525,-199.285 404.093,-202.215 404.093,-202.215"/>
</g>
<!-- dependency522525 -->
<g id="node7" class="node">
<title>dependency522525</title>
<polygon fill="none" stroke="blue" points="420,-28 420,-126 525,-126 525,-28 420,-28"/>
<text text-anchor="start" x="450.823" y="-74" font-family="Helvetica,sans-Serif" font-size="10.00">pack_dep</text>
<polygon fill="none" stroke="blue" points="525,-104 525,-126 635,-126 635,-104 525,-104"/>
<text text-anchor="start" x="574.441" y="-112" font-family="Helvetica,sans-Serif" font-size="10.00">no</text>
<polygon fill="none" stroke="blue" points="525,-82 525,-104 635,-104 635,-82 525,-82"/>
<text text-anchor="start" x="562.778" y="-90" font-family="Helvetica,sans-Serif" font-size="10.00">x11&#45;libs</text>
<polygon fill="none" stroke="blue" points="525,-60 525,-82 635,-82 635,-60 525,-60"/>
<text text-anchor="start" x="564.723" y="-68" font-family="Helvetica,sans-Serif" font-size="10.00">libXpm</text>
<polygon fill="none" stroke="blue" points="525,-38 525,-60 635,-60 635,-38 525,-38"/>
<text text-anchor="start" x="568.882" y="-46" font-family="Helvetica,sans-Serif" font-size="10.00">none</text>
<polygon fill="none" stroke="blue" points="525,-28 525,-38 635,-38 635,-28 525,-28"/>
</g>
<!-- id&#45;&gt;dependency522525 -->
<g id="edge6" class="edge">
<title>id:e&#45;&gt;dependency522525:w</title>
<path fill="none" stroke="black" d="M304,-387C443.203,-387 282.278,-104.804 393.93,-78.8993"/>
<ellipse fill="none" stroke="black" cx="408.022" cy="-77.4181" rx="4" ry="4"/>
<polygon fill="black" stroke="black" points="404.044,-77.8363 394.569,-83.357 399.071,-78.359 394.099,-78.8816 394.099,-78.8816 394.099,-78.8816 399.071,-78.359 393.628,-74.4063 404.044,-77.8363 404.044,-77.8363"/>
</g>
<!-- choice1001011184511311647113116991111141014552465646554511450 -->
<g id="node8" class="node">
<title>choice1001011184511311647113116991111141014552465646554511450</title>
<g id="a_node8"><a xlink:href="../dev-qt/qtcore-4.8.7-r2.svg" xlink:title="dev&#45;qt/qtcore&#45;4.8.7&#45;r2">
<ellipse fill="none" stroke="red" cx="900" cy="-805" rx="144" ry="18"/>
<text text-anchor="middle" x="900" y="-802" font-family="Helvetica,sans-Serif" font-size="10.00">dev&#45;qt/qtcore&#45;4.8.7&#45;r2</text>
</a>
</g>
</g>
<!-- dependency522520&#45;&gt;choice1001011184511311647113116991111141014552465646554511450 -->
<g id="edge7" class="edge">
<title>dependency522520:e&#45;&gt;choice1001011184511311647113116991111141014552465646554511450:w</title>
<path fill="none" stroke="black" stroke-dasharray="1,5" d="M648,-697C712.303,-697 690.78,-793.91 746.031,-804.131"/>
<polygon fill="black" stroke="black" points="756,-805 745.647,-808.614 751.019,-804.566 746.038,-804.131 746.038,-804.131 746.038,-804.131 751.019,-804.566 746.429,-799.648 756,-805 756,-805"/>
</g>
<!-- choice1001011184511311647113116991111141014552465646554511451 -->
<g id="node9" class="node">
<title>choice1001011184511311647113116991111141014552465646554511451</title>
<g id="a_node9"><a xlink:href="../dev-qt/qtcore-4.8.7-r3.svg" xlink:title="dev&#45;qt/qtcore&#45;4.8.7&#45;r3">
<ellipse fill="none" stroke="red" cx="900" cy="-751" rx="144" ry="18"/>
<text text-anchor="middle" x="900" y="-748" font-family="Helvetica,sans-Serif" font-size="10.00">dev&#45;qt/qtcore&#45;4.8.7&#45;r3</text>
</a>
</g>
</g>
<!-- dependency522520&#45;&gt;choice1001011184511311647113116991111141014552465646554511451 -->
<g id="edge8" class="edge">
<title>dependency522520:e&#45;&gt;choice1001011184511311647113116991111141014552465646554511451:w</title>
<path fill="none" stroke="black" stroke-dasharray="1,5" d="M648,-697C698.102,-697 702.012,-744.066 745.979,-750.317"/>
<polygon fill="black" stroke="black" points="756,-751 745.717,-754.81 751.012,-750.66 746.023,-750.32 746.023,-750.32 746.023,-750.32 751.012,-750.66 746.329,-745.831 756,-751 756,-751"/>
</g>
<!-- choice1001011184511311647113116991111141014553465546494511451 -->
<g id="node10" class="node">
<title>choice1001011184511311647113116991111141014553465546494511451</title>
<g id="a_node10"><a xlink:href="../dev-qt/qtcore-5.7.1-r3.svg" xlink:title="dev&#45;qt/qtcore&#45;5.7.1&#45;r3">
<ellipse fill="none" stroke="red" cx="900" cy="-697" rx="144" ry="18"/>
<text text-anchor="middle" x="900" y="-694" font-family="Helvetica,sans-Serif" font-size="10.00">dev&#45;qt/qtcore&#45;5.7.1&#45;r3</text>
</a>
</g>
</g>
<!-- dependency522520&#45;&gt;choice1001011184511311647113116991111141014553465546494511451 -->
<g id="edge9" class="edge">
<title>dependency522520:e&#45;&gt;choice1001011184511311647113116991111141014553465546494511451:w</title>
<path fill="none" stroke="black" stroke-dasharray="1,5" d="M648,-697C692.438,-697 706.02,-697 745.878,-697"/>
<polygon fill="black" stroke="black" points="756,-697 746,-701.5 751,-697 746,-697 746,-697 746,-697 751,-697 746,-692.5 756,-697 756,-697"/>
</g>
<!-- choice100101118451131164711311699111114101455346574650 -->
<g id="node11" class="node">
<title>choice100101118451131164711311699111114101455346574650</title>
<g id="a_node11"><a xlink:href="../dev-qt/qtcore-5.9.2.svg" xlink:title="dev&#45;qt/qtcore&#45;5.9.2">
<ellipse fill="none" stroke="red" cx="900" cy="-643" rx="144" ry="18"/>
<text text-anchor="middle" x="900" y="-640" font-family="Helvetica,sans-Serif" font-size="10.00">dev&#45;qt/qtcore&#45;5.9.2</text>
</a>
</g>
</g>
<!-- dependency522520&#45;&gt;choice100101118451131164711311699111114101455346574650 -->
<g id="edge10" class="edge">
<title>dependency522520:e&#45;&gt;choice100101118451131164711311699111114101455346574650:w</title>
<path fill="none" stroke="black" stroke-dasharray="1,5" d="M648,-697C698.102,-697 702.012,-649.934 745.979,-643.683"/>
<polygon fill="black" stroke="black" points="756,-643 746.329,-648.169 751.012,-643.34 746.023,-643.68 746.023,-643.68 746.023,-643.68 751.012,-643.34 745.717,-639.19 756,-643 756,-643"/>
</g>
<!-- choice1001011184511311647113116103117105455246564655 -->
<g id="node12" class="node">
<title>choice1001011184511311647113116103117105455246564655</title>
<g id="a_node12"><a xlink:href="../dev-qt/qtgui-4.8.7.svg" xlink:title="dev&#45;qt/qtgui&#45;4.8.7">
<ellipse fill="none" stroke="red" cx="900" cy="-589" rx="144" ry="18"/>
<text text-anchor="middle" x="900" y="-586" font-family="Helvetica,sans-Serif" font-size="10.00">dev&#45;qt/qtgui&#45;4.8.7</text>
</a>
</g>
</g>
<!-- dependency522521&#45;&gt;choice1001011184511311647113116103117105455246564655 -->
<g id="edge11" class="edge">
<title>dependency522521:e&#45;&gt;choice1001011184511311647113116103117105455246564655:w</title>
<path fill="none" stroke="black" stroke-dasharray="1,5" d="M648,-573C692.923,-573 705.643,-586.713 745.786,-588.749"/>
<polygon fill="black" stroke="black" points="756,-589 745.892,-593.253 751.002,-588.877 746.003,-588.754 746.003,-588.754 746.003,-588.754 751.002,-588.877 746.114,-584.255 756,-589 756,-589"/>
</g>
<!-- choice10010111845113116471131161031171054553465546494511449 -->
<g id="node13" class="node">
<title>choice10010111845113116471131161031171054553465546494511449</title>
<g id="a_node13"><a xlink:href="../dev-qt/qtgui-5.7.1-r1.svg" xlink:title="dev&#45;qt/qtgui&#45;5.7.1&#45;r1">
<ellipse fill="none" stroke="red" cx="900" cy="-535" rx="144" ry="18"/>
<text text-anchor="middle" x="900" y="-532" font-family="Helvetica,sans-Serif" font-size="10.00">dev&#45;qt/qtgui&#45;5.7.1&#45;r1</text>
</a>
</g>
</g>
<!-- dependency522521&#45;&gt;choice10010111845113116471131161031171054553465546494511449 -->
<g id="edge12" class="edge">
<title>dependency522521:e&#45;&gt;choice10010111845113116471131161031171054553465546494511449:w</title>
<path fill="none" stroke="black" stroke-dasharray="1,5" d="M648,-573C695.307,-573 704.018,-540.156 745.898,-535.537"/>
<polygon fill="black" stroke="black" points="756,-535 746.253,-540.025 751.007,-535.266 746.014,-535.531 746.014,-535.531 746.014,-535.531 751.007,-535.266 745.775,-531.037 756,-535 756,-535"/>
</g>
<!-- choice1001011184511311647113116103117105455346574650 -->
<g id="node14" class="node">
<title>choice1001011184511311647113116103117105455346574650</title>
<g id="a_node14"><a xlink:href="../dev-qt/qtgui-5.9.2.svg" xlink:title="dev&#45;qt/qtgui&#45;5.9.2">
<ellipse fill="none" stroke="red" cx="900" cy="-481" rx="144" ry="18"/>
<text text-anchor="middle" x="900" y="-478" font-family="Helvetica,sans-Serif" font-size="10.00">dev&#45;qt/qtgui&#45;5.9.2</text>
</a>
</g>
</g>
<!-- dependency522521&#45;&gt;choice1001011184511311647113116103117105455346574650 -->
<g id="edge13" class="edge">
<title>dependency522521:e&#45;&gt;choice1001011184511311647113116103117105455346574650:w</title>
<path fill="none" stroke="black" stroke-dasharray="1,5" d="M648,-573C707.36,-573 694.789,-491.465 745.719,-481.911"/>
<polygon fill="black" stroke="black" points="756,-481 746.436,-486.365 751.019,-481.441 746.039,-481.882 746.039,-481.882 746.039,-481.882 751.019,-481.441 745.642,-477.4 756,-481 756,-481"/>
</g>
<!-- choice1001011184511311647113116115105110103108101971121121081059997116105111110455046544649951125048495348545057 -->
<g id="node15" class="node">
<title>choice1001011184511311647113116115105110103108101971121121081059997116105111110455046544649951125048495348545057</title>
<g id="a_node15"><a xlink:href="../dev-qt/qtsingleapplication-2.6.1_p20150629.svg" xlink:title="dev&#45;qt/qtsingleapplication&#45;2.6.1_p20150629">
<ellipse fill="none" stroke="red" cx="900" cy="-427" rx="144" ry="18"/>
<text text-anchor="middle" x="900" y="-424" font-family="Helvetica,sans-Serif" font-size="10.00">dev&#45;qt/qtsingleapplication&#45;2.6.1_p20150629</text>
</a>
</g>
</g>
<!-- dependency522522&#45;&gt;choice1001011184511311647113116115105110103108101971121121081059997116105111110455046544649951125048495348545057 -->
<g id="edge14" class="edge">
<title>dependency522522:e&#45;&gt;choice1001011184511311647113116115105110103108101971121121081059997116105111110455046544649951125048495348545057:w</title>
<path fill="none" stroke="black" stroke-dasharray="1,5" d="M648,-449C693.446,-449 705.361,-430.065 745.961,-427.328"/>
<polygon fill="black" stroke="black" points="756,-427 746.152,-431.824 751.003,-427.163 746.005,-427.327 746.005,-427.327 746.005,-427.327 751.003,-427.163 745.858,-422.829 756,-427 756,-427"/>
</g>
<!-- choice120494945108105981154710810598884949454946544653 -->
<g id="node16" class="node">
<title>choice120494945108105981154710810598884949454946544653</title>
<g id="a_node16"><a xlink:href="../x11-libs/libX11-1.6.5.svg" xlink:title="x11&#45;libs/libX11&#45;1.6.5">
<ellipse fill="none" stroke="red" cx="900" cy="-325" rx="144" ry="18"/>
<text text-anchor="middle" x="900" y="-322" font-family="Helvetica,sans-Serif" font-size="10.00">x11&#45;libs/libX11&#45;1.6.5</text>
</a>
</g>
</g>
<!-- dependency522523&#45;&gt;choice120494945108105981154710810598884949454946544653 -->
<g id="edge15" class="edge">
<title>dependency522523:e&#45;&gt;choice120494945108105981154710810598884949454946544653:w</title>
<path fill="none" stroke="black" stroke-dasharray="1,5" d="M648,-325C692.438,-325 706.02,-325 745.878,-325"/>
<polygon fill="black" stroke="black" points="756,-325 746,-329.5 751,-325 746,-325 746,-325 746,-325 751,-325 746,-320.5 756,-325 756,-325"/>
</g>
<!-- choice12049494510810598115471081059888109117454946494649 -->
<g id="node17" class="node">
<title>choice12049494510810598115471081059888109117454946494649</title>
<g id="a_node17"><a xlink:href="../x11-libs/libXmu-1.1.1.svg" xlink:title="x11&#45;libs/libXmu&#45;1.1.1">
<ellipse fill="none" stroke="red" cx="900" cy="-255" rx="144" ry="18"/>
<text text-anchor="middle" x="900" y="-252" font-family="Helvetica,sans-Serif" font-size="10.00">x11&#45;libs/libXmu&#45;1.1.1</text>
</a>
</g>
</g>
<!-- dependency522524&#45;&gt;choice12049494510810598115471081059888109117454946494649 -->
<g id="edge16" class="edge">
<title>dependency522524:e&#45;&gt;choice12049494510810598115471081059888109117454946494649:w</title>
<path fill="none" stroke="black" stroke-dasharray="1,5" d="M648,-201C698.102,-201 702.012,-248.066 745.979,-254.317"/>
<polygon fill="black" stroke="black" points="756,-255 745.717,-258.81 751.012,-254.66 746.023,-254.32 746.023,-254.32 746.023,-254.32 751.012,-254.66 746.329,-249.831 756,-255 756,-255"/>
</g>
<!-- choice120494945108105981154710810598881091174549464946494511449 -->
<g id="node18" class="node">
<title>choice120494945108105981154710810598881091174549464946494511449</title>
<g id="a_node18"><a xlink:href="../x11-libs/libXmu-1.1.1-r1.svg" xlink:title="x11&#45;libs/libXmu&#45;1.1.1&#45;r1">
<ellipse fill="none" stroke="red" cx="900" cy="-201" rx="144" ry="18"/>
<text text-anchor="middle" x="900" y="-198" font-family="Helvetica,sans-Serif" font-size="10.00">x11&#45;libs/libXmu&#45;1.1.1&#45;r1</text>
</a>
</g>
</g>
<!-- dependency522524&#45;&gt;choice120494945108105981154710810598881091174549464946494511449 -->
<g id="edge17" class="edge">
<title>dependency522524:e&#45;&gt;choice120494945108105981154710810598881091174549464946494511449:w</title>
<path fill="none" stroke="black" stroke-dasharray="1,5" d="M648,-201C692.438,-201 706.02,-201 745.878,-201"/>
<polygon fill="black" stroke="black" points="756,-201 746,-205.5 751,-201 746,-201 746,-201 746,-201 751,-201 746,-196.5 756,-201 756,-201"/>
</g>
<!-- choice12049494510810598115471081059888109117454946494650 -->
<g id="node19" class="node">
<title>choice12049494510810598115471081059888109117454946494650</title>
<g id="a_node19"><a xlink:href="../x11-libs/libXmu-1.1.2.svg" xlink:title="x11&#45;libs/libXmu&#45;1.1.2">
<ellipse fill="none" stroke="red" cx="900" cy="-147" rx="144" ry="18"/>
<text text-anchor="middle" x="900" y="-144" font-family="Helvetica,sans-Serif" font-size="10.00">x11&#45;libs/libXmu&#45;1.1.2</text>
</a>
</g>
</g>
<!-- dependency522524&#45;&gt;choice12049494510810598115471081059888109117454946494650 -->
<g id="edge18" class="edge">
<title>dependency522524:e&#45;&gt;choice12049494510810598115471081059888109117454946494650:w</title>
<path fill="none" stroke="black" stroke-dasharray="1,5" d="M648,-201C698.102,-201 702.012,-153.934 745.979,-147.683"/>
<polygon fill="black" stroke="black" points="756,-147 746.329,-152.169 751.012,-147.34 746.023,-147.68 746.023,-147.68 746.023,-147.68 751.012,-147.34 745.717,-143.19 756,-147 756,-147"/>
</g>
<!-- choice1204949451081059811547108105988811210945514653464950 -->
<g id="node20" class="node">
<title>choice1204949451081059811547108105988811210945514653464950</title>
<g id="a_node20"><a xlink:href="../x11-libs/libXpm-3.5.12.svg" xlink:title="x11&#45;libs/libXpm&#45;3.5.12">
<ellipse fill="none" stroke="red" cx="900" cy="-93" rx="144" ry="18"/>
<text text-anchor="middle" x="900" y="-90" font-family="Helvetica,sans-Serif" font-size="10.00">x11&#45;libs/libXpm&#45;3.5.12</text>
</a>
</g>
</g>
<!-- dependency522525&#45;&gt;choice1204949451081059811547108105988811210945514653464950 -->
<g id="edge19" class="edge">
<title>dependency522525:e&#45;&gt;choice1204949451081059811547108105988811210945514653464950:w</title>
<path fill="none" stroke="black" stroke-dasharray="1,5" d="M648,-77C692.923,-77 705.643,-90.7131 745.786,-92.7487"/>
<polygon fill="black" stroke="black" points="756,-93 745.892,-97.2526 751.002,-92.877 746.003,-92.7539 746.003,-92.7539 746.003,-92.7539 751.002,-92.877 746.114,-88.2553 756,-93 756,-93"/>
</g>
</g>
</svg>
