<?xml version="1.0" encoding="UTF-8" standalone="no"?>
<!DOCTYPE svg PUBLIC "-//W3C//DTD SVG 1.1//EN"
 "http://www.w3.org/Graphics/SVG/1.1/DTD/svg11.dtd">
<!-- Generated by graphviz version 9.0.0 (20230911.1827)
 -->
<!-- Title: prolog Pages: 1 -->
<svg width="1332pt" height="1937pt"
 viewBox="0.00 0.00 1332.00 1937.00" xmlns="http://www.w3.org/2000/svg" xmlns:xlink="http://www.w3.org/1999/xlink">
<g id="graph0" class="graph" transform="scale(1 1) rotate(0) translate(4 1933)">
<title>prolog</title>
<polygon fill="white" stroke="none" points="-4,4 -4,-1933 1328,-1933 1328,4 -4,4"/>
<g id="clust2" class="cluster">
<title>cluster_midcol</title>
<polygon fill="none" stroke="gray" points="8,-8 8,-1921 928,-1921 928,-8 8,-8"/>
<text text-anchor="start" x="438" y="-1908.5" font-family="Helvetica,sans-Serif" font-style="italic" font-size="10.00">dependencies</text>
</g>
<g id="clust3" class="cluster">
<title>cluster_compile</title>
<polygon fill="#eeeeee" stroke="gray" points="16,-16 16,-951 920,-951 920,-16 16,-16"/>
<text text-anchor="start" x="451.12" y="-938.5" font-family="Helvetica,sans-Serif" font-style="italic" font-size="10.00">compile</text>
</g>
<g id="clust13" class="cluster">
<title>cluster_run</title>
<polygon fill="#eeeeee" stroke="gray" points="412,-959 412,-1894 920,-1894 920,-959 412,-959"/>
<text text-anchor="start" x="659.25" y="-1881.5" font-family="Helvetica,sans-Serif" font-style="italic" font-size="10.00">run</text>
</g>
<g id="clust22" class="cluster">
<title>cluster_choices</title>
<polygon fill="none" stroke="gray" points="1012,-757 1012,-1206 1316,-1206 1316,-757 1012,-757"/>
<text text-anchor="start" x="1140.38" y="-1193.5" font-family="Helvetica,sans-Serif" font-style="italic" font-size="10.00">candidates</text>
</g>
<!-- id -->
<g id="node1" class="node">
<title>id</title>
<g id="a_node1"><a xlink:href="../x11-misc/qtfm-6.2.1.svg" xlink:title="portage://x11&#45;misc/qtfm&#45;6.2.1">
<ellipse fill="none" stroke="red" cx="168" cy="-755" rx="144" ry="18"/>
<text text-anchor="middle" x="168" y="-751.12" font-family="Helvetica,sans-Serif" font-size="10.00">portage://x11&#45;misc/qtfm&#45;6.2.1</text>
</a>
</g>
</g>
<!-- dependency452041 -->
<g id="node2" class="node">
<title>dependency452041</title>
<polygon fill="none" stroke="red" points="428,-300 428,-342 517,-342 517,-300 428,-300"/>
<text text-anchor="start" x="438.75" y="-317.12" font-family="Helvetica,sans-Serif" font-size="10.00">use_conditional</text>
<polygon fill="none" stroke="red" points="517,-321 517,-342 560,-342 560,-321 517,-321"/>
<text text-anchor="start" x="521.62" y="-327.5" font-family="Helvetica,sans-Serif" font-size="10.00">positive</text>
<polygon fill="none" stroke="red" points="517,-300 517,-321 560,-321 560,-300 517,-300"/>
<text text-anchor="start" x="528" y="-306.5" font-family="Helvetica,sans-Serif" font-size="10.00">dbus</text>
</g>
<!-- id&#45;&gt;dependency452041 -->
<g id="edge2" class="edge">
<title>id:e&#45;&gt;dependency452041:w</title>
<path fill="none" stroke="black" d="M312,-755C506.78,-755 231.49,-337.79 407.91,-321.49"/>
<polygon fill="black" stroke="black" points="417.78,-321.05 407.99,-325.99 414,-321.22 407.79,-321.5 407.79,-321.5 407.79,-321.5 414,-321.22 407.59,-317 417.78,-321.05"/>
</g>
<!-- dependency452043 -->
<g id="node4" class="node">
<title>dependency452043</title>
<polygon fill="none" stroke="blue" points="684,-159.5 684,-264.5 788,-264.5 788,-159.5 684,-159.5"/>
<text text-anchor="start" x="715" y="-208.12" font-family="Helvetica,sans-Serif" font-size="10.00">pack_dep</text>
<polygon fill="none" stroke="blue" points="788,-243.5 788,-264.5 898,-264.5 898,-243.5 788,-243.5"/>
<text text-anchor="start" x="837.75" y="-250" font-family="Helvetica,sans-Serif" font-size="10.00">no</text>
<polygon fill="none" stroke="blue" points="788,-222.5 788,-243.5 898,-243.5 898,-222.5 788,-222.5"/>
<text text-anchor="start" x="829.5" y="-229" font-family="Helvetica,sans-Serif" font-size="10.00">dev&#45;qt</text>
<polygon fill="none" stroke="blue" points="788,-201.5 788,-222.5 898,-222.5 898,-201.5 788,-201.5"/>
<text text-anchor="start" x="816" y="-208" font-family="Helvetica,sans-Serif" font-size="10.00">qtconcurrent</text>
<polygon fill="none" stroke="blue" points="788,-180.5 788,-201.5 898,-201.5 898,-180.5 788,-180.5"/>
<text text-anchor="start" x="832.5" y="-187" font-family="Helvetica,sans-Serif" font-size="10.00">none</text>
<polygon fill="none" stroke="blue" points="788,-159.5 788,-180.5 898,-180.5 898,-159.5 788,-159.5"/>
<text text-anchor="start" x="837" y="-166" font-family="Helvetica,sans-Serif" font-size="10.00">[,,]</text>
</g>
<!-- id&#45;&gt;dependency452043 -->
<g id="edge3" class="edge">
<title>id:e&#45;&gt;dependency452043:w</title>
<path fill="none" stroke="black" d="M495,-605C673.7,-545.17 491.3,-225.18 664.91,-212.39"/>
<polygon fill="black" stroke="black" points="674.78,-212.04 664.95,-216.9 671,-212.18 664.79,-212.4 664.79,-212.4 664.79,-212.4 671,-212.18 664.63,-207.9 674.78,-212.04"/>
<path fill="none" stroke="black" d="M312,-755C416.48,-755 393.93,-638.17 493,-605"/>
</g>
<!-- dependency452044 -->
<g id="node5" class="node">
<title>dependency452044</title>
<polygon fill="none" stroke="blue" points="684,-290.5 684,-395.5 788,-395.5 788,-290.5 684,-290.5"/>
<text text-anchor="start" x="715" y="-339.12" font-family="Helvetica,sans-Serif" font-size="10.00">pack_dep</text>
<polygon fill="none" stroke="blue" points="788,-374.5 788,-395.5 898,-395.5 898,-374.5 788,-374.5"/>
<text text-anchor="start" x="837.75" y="-381" font-family="Helvetica,sans-Serif" font-size="10.00">no</text>
<polygon fill="none" stroke="blue" points="788,-353.5 788,-374.5 898,-374.5 898,-353.5 788,-353.5"/>
<text text-anchor="start" x="829.5" y="-360" font-family="Helvetica,sans-Serif" font-size="10.00">dev&#45;qt</text>
<polygon fill="none" stroke="blue" points="788,-332.5 788,-353.5 898,-353.5 898,-332.5 788,-332.5"/>
<text text-anchor="start" x="829.5" y="-339" font-family="Helvetica,sans-Serif" font-size="10.00">qtcore</text>
<polygon fill="none" stroke="blue" points="788,-311.5 788,-332.5 898,-332.5 898,-311.5 788,-311.5"/>
<text text-anchor="start" x="832.5" y="-318" font-family="Helvetica,sans-Serif" font-size="10.00">none</text>
<polygon fill="none" stroke="blue" points="788,-290.5 788,-311.5 898,-311.5 898,-290.5 788,-290.5"/>
<text text-anchor="start" x="837" y="-297" font-family="Helvetica,sans-Serif" font-size="10.00">[,,]</text>
</g>
<!-- id&#45;&gt;dependency452044 -->
<g id="edge4" class="edge">
<title>id:e&#45;&gt;dependency452044:w</title>
<path fill="none" stroke="black" d="M495,-605C625.54,-561.29 539.48,-354.74 664.91,-343.48"/>
<polygon fill="black" stroke="black" points="674.78,-343.05 664.99,-347.98 671,-343.22 664.79,-343.48 664.79,-343.48 664.79,-343.48 671,-343.22 664.6,-338.99 674.78,-343.05"/>
</g>
<!-- dependency452045 -->
<g id="node6" class="node">
<title>dependency452045</title>
<polygon fill="none" stroke="blue" points="684,-421.5 684,-526.5 788,-526.5 788,-421.5 684,-421.5"/>
<text text-anchor="start" x="715" y="-470.12" font-family="Helvetica,sans-Serif" font-size="10.00">pack_dep</text>
<polygon fill="none" stroke="blue" points="788,-505.5 788,-526.5 898,-526.5 898,-505.5 788,-505.5"/>
<text text-anchor="start" x="837.75" y="-512" font-family="Helvetica,sans-Serif" font-size="10.00">no</text>
<polygon fill="none" stroke="blue" points="788,-484.5 788,-505.5 898,-505.5 898,-484.5 788,-484.5"/>
<text text-anchor="start" x="829.5" y="-491" font-family="Helvetica,sans-Serif" font-size="10.00">dev&#45;qt</text>
<polygon fill="none" stroke="blue" points="788,-463.5 788,-484.5 898,-484.5 898,-463.5 788,-463.5"/>
<text text-anchor="start" x="832.5" y="-470" font-family="Helvetica,sans-Serif" font-size="10.00">qtgui</text>
<polygon fill="none" stroke="blue" points="788,-442.5 788,-463.5 898,-463.5 898,-442.5 788,-442.5"/>
<text text-anchor="start" x="832.5" y="-449" font-family="Helvetica,sans-Serif" font-size="10.00">none</text>
<polygon fill="none" stroke="blue" points="788,-421.5 788,-442.5 898,-442.5 898,-421.5 788,-421.5"/>
<text text-anchor="start" x="837" y="-428" font-family="Helvetica,sans-Serif" font-size="10.00">[,,]</text>
</g>
<!-- id&#45;&gt;dependency452045 -->
<g id="edge5" class="edge">
<title>id:e&#45;&gt;dependency452045:w</title>
<path fill="none" stroke="black" d="M495,-605C585.49,-574.7 577.51,-481.67 664.86,-474.45"/>
<polygon fill="black" stroke="black" points="674.78,-474.05 664.97,-478.94 671,-474.2 664.79,-474.45 664.79,-474.45 664.79,-474.45 671,-474.2 664.61,-469.95 674.78,-474.05"/>
</g>
<!-- dependency452046 -->
<g id="node7" class="node">
<title>dependency452046</title>
<polygon fill="none" stroke="blue" points="684,-552.5 684,-657.5 788,-657.5 788,-552.5 684,-552.5"/>
<text text-anchor="start" x="715" y="-601.12" font-family="Helvetica,sans-Serif" font-size="10.00">pack_dep</text>
<polygon fill="none" stroke="blue" points="788,-636.5 788,-657.5 898,-657.5 898,-636.5 788,-636.5"/>
<text text-anchor="start" x="837.75" y="-643" font-family="Helvetica,sans-Serif" font-size="10.00">no</text>
<polygon fill="none" stroke="blue" points="788,-615.5 788,-636.5 898,-636.5 898,-615.5 788,-615.5"/>
<text text-anchor="start" x="829.5" y="-622" font-family="Helvetica,sans-Serif" font-size="10.00">dev&#45;qt</text>
<polygon fill="none" stroke="blue" points="788,-594.5 788,-615.5 898,-615.5 898,-594.5 788,-594.5"/>
<text text-anchor="start" x="821.62" y="-601" font-family="Helvetica,sans-Serif" font-size="10.00">qtnetwork</text>
<polygon fill="none" stroke="blue" points="788,-573.5 788,-594.5 898,-594.5 898,-573.5 788,-573.5"/>
<text text-anchor="start" x="832.5" y="-580" font-family="Helvetica,sans-Serif" font-size="10.00">none</text>
<polygon fill="none" stroke="blue" points="788,-552.5 788,-573.5 898,-573.5 898,-552.5 788,-552.5"/>
<text text-anchor="start" x="837" y="-559" font-family="Helvetica,sans-Serif" font-size="10.00">[,,]</text>
</g>
<!-- id&#45;&gt;dependency452046 -->
<g id="edge6" class="edge">
<title>id:e&#45;&gt;dependency452046:w</title>
<path fill="none" stroke="black" d="M495,-605C567.71,-580.66 593.17,-602.72 665.05,-604.84"/>
<polygon fill="black" stroke="black" points="674.78,-604.98 664.72,-609.34 671,-604.93 664.78,-604.84 664.78,-604.84 664.78,-604.84 671,-604.93 664.85,-600.34 674.78,-604.98"/>
</g>
<!-- dependency452047 -->
<g id="node8" class="node">
<title>dependency452047</title>
<polygon fill="none" stroke="blue" points="684,-683.5 684,-788.5 788,-788.5 788,-683.5 684,-683.5"/>
<text text-anchor="start" x="715" y="-732.12" font-family="Helvetica,sans-Serif" font-size="10.00">pack_dep</text>
<polygon fill="none" stroke="blue" points="788,-767.5 788,-788.5 898,-788.5 898,-767.5 788,-767.5"/>
<text text-anchor="start" x="837.75" y="-774" font-family="Helvetica,sans-Serif" font-size="10.00">no</text>
<polygon fill="none" stroke="blue" points="788,-746.5 788,-767.5 898,-767.5 898,-746.5 788,-746.5"/>
<text text-anchor="start" x="829.5" y="-753" font-family="Helvetica,sans-Serif" font-size="10.00">dev&#45;qt</text>
<polygon fill="none" stroke="blue" points="788,-725.5 788,-746.5 898,-746.5 898,-725.5 788,-725.5"/>
<text text-anchor="start" x="822" y="-732" font-family="Helvetica,sans-Serif" font-size="10.00">qtwidgets</text>
<polygon fill="none" stroke="blue" points="788,-704.5 788,-725.5 898,-725.5 898,-704.5 788,-704.5"/>
<text text-anchor="start" x="832.5" y="-711" font-family="Helvetica,sans-Serif" font-size="10.00">none</text>
<polygon fill="none" stroke="blue" points="788,-683.5 788,-704.5 898,-704.5 898,-683.5 788,-683.5"/>
<text text-anchor="start" x="837" y="-690" font-family="Helvetica,sans-Serif" font-size="10.00">[,,]</text>
</g>
<!-- id&#45;&gt;dependency452047 -->
<g id="edge7" class="edge">
<title>id:e&#45;&gt;dependency452047:w</title>
<path fill="none" stroke="black" d="M495,-605C585.49,-574.7 577.51,-723.6 664.86,-735.28"/>
<polygon fill="black" stroke="black" points="674.78,-735.92 664.51,-739.76 671.01,-735.68 664.81,-735.27 664.81,-735.27 664.81,-735.27 671.01,-735.68 665.1,-730.78 674.78,-735.92"/>
</g>
<!-- dependency452048 -->
<g id="node9" class="node">
<title>dependency452048</title>
<polygon fill="none" stroke="blue" points="684,-814.5 684,-919.5 788,-919.5 788,-814.5 684,-814.5"/>
<text text-anchor="start" x="715" y="-863.12" font-family="Helvetica,sans-Serif" font-size="10.00">pack_dep</text>
<polygon fill="none" stroke="blue" points="788,-898.5 788,-919.5 898,-919.5 898,-898.5 788,-898.5"/>
<text text-anchor="start" x="837.75" y="-905" font-family="Helvetica,sans-Serif" font-size="10.00">no</text>
<polygon fill="none" stroke="blue" points="788,-877.5 788,-898.5 898,-898.5 898,-877.5 788,-877.5"/>
<text text-anchor="start" x="823.12" y="-884" font-family="Helvetica,sans-Serif" font-size="10.00">sys&#45;apps</text>
<polygon fill="none" stroke="blue" points="788,-856.5 788,-877.5 898,-877.5 898,-856.5 788,-856.5"/>
<text text-anchor="start" x="836.62" y="-863" font-family="Helvetica,sans-Serif" font-size="10.00">file</text>
<polygon fill="none" stroke="blue" points="788,-835.5 788,-856.5 898,-856.5 898,-835.5 788,-835.5"/>
<text text-anchor="start" x="832.5" y="-842" font-family="Helvetica,sans-Serif" font-size="10.00">none</text>
<polygon fill="none" stroke="blue" points="788,-814.5 788,-835.5 898,-835.5 898,-814.5 788,-814.5"/>
<text text-anchor="start" x="837" y="-821" font-family="Helvetica,sans-Serif" font-size="10.00">[,,]</text>
</g>
<!-- id&#45;&gt;dependency452048 -->
<g id="edge8" class="edge">
<title>id:e&#45;&gt;dependency452048:w</title>
<path fill="none" stroke="black" d="M495,-605C625.54,-561.29 539.48,-850.48 664.91,-866.32"/>
<polygon fill="black" stroke="black" points="674.78,-866.93 664.53,-870.81 671.01,-866.7 664.8,-866.32 664.8,-866.32 664.8,-866.32 671.01,-866.7 665.08,-861.83 674.78,-866.93"/>
</g>
<!-- dependency452049 -->
<g id="node10" class="node">
<title>dependency452049</title>
<polygon fill="none" stroke="red" points="428,-987 428,-1029 517,-1029 517,-987 428,-987"/>
<text text-anchor="start" x="438.75" y="-1004.12" font-family="Helvetica,sans-Serif" font-size="10.00">use_conditional</text>
<polygon fill="none" stroke="red" points="517,-1008 517,-1029 560,-1029 560,-1008 517,-1008"/>
<text text-anchor="start" x="521.62" y="-1014.5" font-family="Helvetica,sans-Serif" font-size="10.00">positive</text>
<polygon fill="none" stroke="red" points="517,-987 517,-1008 560,-1008 560,-987 517,-987"/>
<text text-anchor="start" x="528" y="-993.5" font-family="Helvetica,sans-Serif" font-size="10.00">dbus</text>
</g>
<!-- id&#45;&gt;dependency452049 -->
<g id="edge10" class="edge">
<title>id:e&#45;&gt;dependency452049:w</title>
<path fill="none" stroke="black" d="M312,-755C430.99,-755 303.71,-995.32 410.19,-1007.52"/>
<ellipse fill="none" stroke="black" cx="414.51" cy="-1007.75" rx="4" ry="4"/>
</g>
<!-- dependency452051 -->
<g id="node12" class="node">
<title>dependency452051</title>
<polygon fill="none" stroke="blue" points="684,-1102.5 684,-1207.5 788,-1207.5 788,-1102.5 684,-1102.5"/>
<text text-anchor="start" x="715" y="-1151.12" font-family="Helvetica,sans-Serif" font-size="10.00">pack_dep</text>
<polygon fill="none" stroke="blue" points="788,-1186.5 788,-1207.5 898,-1207.5 898,-1186.5 788,-1186.5"/>
<text text-anchor="start" x="837.75" y="-1193" font-family="Helvetica,sans-Serif" font-size="10.00">no</text>
<polygon fill="none" stroke="blue" points="788,-1165.5 788,-1186.5 898,-1186.5 898,-1165.5 788,-1165.5"/>
<text text-anchor="start" x="829.5" y="-1172" font-family="Helvetica,sans-Serif" font-size="10.00">dev&#45;qt</text>
<polygon fill="none" stroke="blue" points="788,-1144.5 788,-1165.5 898,-1165.5 898,-1144.5 788,-1144.5"/>
<text text-anchor="start" x="816" y="-1151" font-family="Helvetica,sans-Serif" font-size="10.00">qtconcurrent</text>
<polygon fill="none" stroke="blue" points="788,-1123.5 788,-1144.5 898,-1144.5 898,-1123.5 788,-1123.5"/>
<text text-anchor="start" x="832.5" y="-1130" font-family="Helvetica,sans-Serif" font-size="10.00">none</text>
<polygon fill="none" stroke="blue" points="788,-1102.5 788,-1123.5 898,-1123.5 898,-1102.5 788,-1102.5"/>
<text text-anchor="start" x="837" y="-1109" font-family="Helvetica,sans-Serif" font-size="10.00">[,,]</text>
</g>
<!-- id&#45;&gt;dependency452051 -->
<g id="edge11" class="edge">
<title>id:e&#45;&gt;dependency452051:w</title>
<path fill="none" stroke="black" d="M495,-1482C631.77,-1570.72 514.42,-1170.31 667.05,-1155.43"/>
<ellipse fill="none" stroke="black" cx="671.51" cy="-1155.21" rx="4" ry="4"/>
<path fill="none" stroke="black" d="M312,-755C478.49,-755 353.33,-1391.39 493,-1482"/>
</g>
<!-- dependency452052 -->
<g id="node13" class="node">
<title>dependency452052</title>
<polygon fill="none" stroke="blue" points="684,-1233.5 684,-1338.5 788,-1338.5 788,-1233.5 684,-1233.5"/>
<text text-anchor="start" x="715" y="-1282.12" font-family="Helvetica,sans-Serif" font-size="10.00">pack_dep</text>
<polygon fill="none" stroke="blue" points="788,-1317.5 788,-1338.5 898,-1338.5 898,-1317.5 788,-1317.5"/>
<text text-anchor="start" x="837.75" y="-1324" font-family="Helvetica,sans-Serif" font-size="10.00">no</text>
<polygon fill="none" stroke="blue" points="788,-1296.5 788,-1317.5 898,-1317.5 898,-1296.5 788,-1296.5"/>
<text text-anchor="start" x="829.5" y="-1303" font-family="Helvetica,sans-Serif" font-size="10.00">dev&#45;qt</text>
<polygon fill="none" stroke="blue" points="788,-1275.5 788,-1296.5 898,-1296.5 898,-1275.5 788,-1275.5"/>
<text text-anchor="start" x="829.5" y="-1282" font-family="Helvetica,sans-Serif" font-size="10.00">qtcore</text>
<polygon fill="none" stroke="blue" points="788,-1254.5 788,-1275.5 898,-1275.5 898,-1254.5 788,-1254.5"/>
<text text-anchor="start" x="832.5" y="-1261" font-family="Helvetica,sans-Serif" font-size="10.00">none</text>
<polygon fill="none" stroke="blue" points="788,-1233.5 788,-1254.5 898,-1254.5 898,-1233.5 788,-1233.5"/>
<text text-anchor="start" x="837" y="-1240" font-family="Helvetica,sans-Serif" font-size="10.00">[,,]</text>
</g>
<!-- id&#45;&gt;dependency452052 -->
<g id="edge12" class="edge">
<title>id:e&#45;&gt;dependency452052:w</title>
<path fill="none" stroke="black" d="M495,-1482C591.95,-1544.89 559.22,-1299.02 667.26,-1286.49"/>
<ellipse fill="none" stroke="black" cx="671.51" cy="-1286.25" rx="4" ry="4"/>
</g>
<!-- dependency452053 -->
<g id="node14" class="node">
<title>dependency452053</title>
<polygon fill="none" stroke="blue" points="684,-1364.5 684,-1469.5 788,-1469.5 788,-1364.5 684,-1364.5"/>
<text text-anchor="start" x="715" y="-1413.12" font-family="Helvetica,sans-Serif" font-size="10.00">pack_dep</text>
<polygon fill="none" stroke="blue" points="788,-1448.5 788,-1469.5 898,-1469.5 898,-1448.5 788,-1448.5"/>
<text text-anchor="start" x="837.75" y="-1455" font-family="Helvetica,sans-Serif" font-size="10.00">no</text>
<polygon fill="none" stroke="blue" points="788,-1427.5 788,-1448.5 898,-1448.5 898,-1427.5 788,-1427.5"/>
<text text-anchor="start" x="829.5" y="-1434" font-family="Helvetica,sans-Serif" font-size="10.00">dev&#45;qt</text>
<polygon fill="none" stroke="blue" points="788,-1406.5 788,-1427.5 898,-1427.5 898,-1406.5 788,-1406.5"/>
<text text-anchor="start" x="832.5" y="-1413" font-family="Helvetica,sans-Serif" font-size="10.00">qtgui</text>
<polygon fill="none" stroke="blue" points="788,-1385.5 788,-1406.5 898,-1406.5 898,-1385.5 788,-1385.5"/>
<text text-anchor="start" x="832.5" y="-1392" font-family="Helvetica,sans-Serif" font-size="10.00">none</text>
<polygon fill="none" stroke="blue" points="788,-1364.5 788,-1385.5 898,-1385.5 898,-1364.5 788,-1364.5"/>
<text text-anchor="start" x="837" y="-1371" font-family="Helvetica,sans-Serif" font-size="10.00">[,,]</text>
</g>
<!-- id&#45;&gt;dependency452053 -->
<g id="edge13" class="edge">
<title>id:e&#45;&gt;dependency452053:w</title>
<path fill="none" stroke="black" d="M495,-1482C564.19,-1526.88 588.79,-1424.65 667.21,-1417.4"/>
<ellipse fill="none" stroke="black" cx="671.5" cy="-1417.21" rx="4" ry="4"/>
</g>
<!-- dependency452054 -->
<g id="node15" class="node">
<title>dependency452054</title>
<polygon fill="none" stroke="blue" points="684,-1495.5 684,-1600.5 788,-1600.5 788,-1495.5 684,-1495.5"/>
<text text-anchor="start" x="715" y="-1544.12" font-family="Helvetica,sans-Serif" font-size="10.00">pack_dep</text>
<polygon fill="none" stroke="blue" points="788,-1579.5 788,-1600.5 898,-1600.5 898,-1579.5 788,-1579.5"/>
<text text-anchor="start" x="837.75" y="-1586" font-family="Helvetica,sans-Serif" font-size="10.00">no</text>
<polygon fill="none" stroke="blue" points="788,-1558.5 788,-1579.5 898,-1579.5 898,-1558.5 788,-1558.5"/>
<text text-anchor="start" x="829.5" y="-1565" font-family="Helvetica,sans-Serif" font-size="10.00">dev&#45;qt</text>
<polygon fill="none" stroke="blue" points="788,-1537.5 788,-1558.5 898,-1558.5 898,-1537.5 788,-1537.5"/>
<text text-anchor="start" x="821.62" y="-1544" font-family="Helvetica,sans-Serif" font-size="10.00">qtnetwork</text>
<polygon fill="none" stroke="blue" points="788,-1516.5 788,-1537.5 898,-1537.5 898,-1516.5 788,-1516.5"/>
<text text-anchor="start" x="832.5" y="-1523" font-family="Helvetica,sans-Serif" font-size="10.00">none</text>
<polygon fill="none" stroke="blue" points="788,-1495.5 788,-1516.5 898,-1516.5 898,-1495.5 788,-1495.5"/>
<text text-anchor="start" x="837" y="-1502" font-family="Helvetica,sans-Serif" font-size="10.00">[,,]</text>
</g>
<!-- id&#45;&gt;dependency452054 -->
<g id="edge14" class="edge">
<title>id:e&#45;&gt;dependency452054:w</title>
<path fill="none" stroke="black" d="M495,-1482C564.31,-1526.96 588.66,-1546.6 667.19,-1547.93"/>
<ellipse fill="none" stroke="black" cx="671.5" cy="-1547.96" rx="4" ry="4"/>
</g>
<!-- dependency452055 -->
<g id="node16" class="node">
<title>dependency452055</title>
<polygon fill="none" stroke="blue" points="684,-1626.5 684,-1731.5 788,-1731.5 788,-1626.5 684,-1626.5"/>
<text text-anchor="start" x="715" y="-1675.12" font-family="Helvetica,sans-Serif" font-size="10.00">pack_dep</text>
<polygon fill="none" stroke="blue" points="788,-1710.5 788,-1731.5 898,-1731.5 898,-1710.5 788,-1710.5"/>
<text text-anchor="start" x="837.75" y="-1717" font-family="Helvetica,sans-Serif" font-size="10.00">no</text>
<polygon fill="none" stroke="blue" points="788,-1689.5 788,-1710.5 898,-1710.5 898,-1689.5 788,-1689.5"/>
<text text-anchor="start" x="829.5" y="-1696" font-family="Helvetica,sans-Serif" font-size="10.00">dev&#45;qt</text>
<polygon fill="none" stroke="blue" points="788,-1668.5 788,-1689.5 898,-1689.5 898,-1668.5 788,-1668.5"/>
<text text-anchor="start" x="822" y="-1675" font-family="Helvetica,sans-Serif" font-size="10.00">qtwidgets</text>
<polygon fill="none" stroke="blue" points="788,-1647.5 788,-1668.5 898,-1668.5 898,-1647.5 788,-1647.5"/>
<text text-anchor="start" x="832.5" y="-1654" font-family="Helvetica,sans-Serif" font-size="10.00">none</text>
<polygon fill="none" stroke="blue" points="788,-1626.5 788,-1647.5 898,-1647.5 898,-1626.5 788,-1626.5"/>
<text text-anchor="start" x="837" y="-1633" font-family="Helvetica,sans-Serif" font-size="10.00">[,,]</text>
</g>
<!-- id&#45;&gt;dependency452055 -->
<g id="edge15" class="edge">
<title>id:e&#45;&gt;dependency452055:w</title>
<path fill="none" stroke="black" d="M495,-1482C592.22,-1545.07 558.92,-1672.33 667.24,-1678.75"/>
<ellipse fill="none" stroke="black" cx="671.5" cy="-1678.87" rx="4" ry="4"/>
</g>
<!-- dependency452056 -->
<g id="node17" class="node">
<title>dependency452056</title>
<polygon fill="none" stroke="blue" points="684,-1757.5 684,-1862.5 788,-1862.5 788,-1757.5 684,-1757.5"/>
<text text-anchor="start" x="715" y="-1806.12" font-family="Helvetica,sans-Serif" font-size="10.00">pack_dep</text>
<polygon fill="none" stroke="blue" points="788,-1841.5 788,-1862.5 898,-1862.5 898,-1841.5 788,-1841.5"/>
<text text-anchor="start" x="837.75" y="-1848" font-family="Helvetica,sans-Serif" font-size="10.00">no</text>
<polygon fill="none" stroke="blue" points="788,-1820.5 788,-1841.5 898,-1841.5 898,-1820.5 788,-1820.5"/>
<text text-anchor="start" x="823.12" y="-1827" font-family="Helvetica,sans-Serif" font-size="10.00">sys&#45;apps</text>
<polygon fill="none" stroke="blue" points="788,-1799.5 788,-1820.5 898,-1820.5 898,-1799.5 788,-1799.5"/>
<text text-anchor="start" x="836.62" y="-1806" font-family="Helvetica,sans-Serif" font-size="10.00">file</text>
<polygon fill="none" stroke="blue" points="788,-1778.5 788,-1799.5 898,-1799.5 898,-1778.5 788,-1778.5"/>
<text text-anchor="start" x="832.5" y="-1785" font-family="Helvetica,sans-Serif" font-size="10.00">none</text>
<polygon fill="none" stroke="blue" points="788,-1757.5 788,-1778.5 898,-1778.5 898,-1757.5 788,-1757.5"/>
<text text-anchor="start" x="837" y="-1764" font-family="Helvetica,sans-Serif" font-size="10.00">[,,]</text>
</g>
<!-- id&#45;&gt;dependency452056 -->
<g id="edge16" class="edge">
<title>id:e&#45;&gt;dependency452056:w</title>
<path fill="none" stroke="black" d="M495,-1482C632.09,-1570.93 514.05,-1801.24 667.03,-1809.76"/>
<ellipse fill="none" stroke="black" cx="671.5" cy="-1809.88" rx="4" ry="4"/>
</g>
<!-- dependency452042 -->
<g id="node3" class="node">
<title>dependency452042</title>
<polygon fill="none" stroke="blue" points="684,-28.5 684,-133.5 788,-133.5 788,-28.5 684,-28.5"/>
<text text-anchor="start" x="715" y="-77.12" font-family="Helvetica,sans-Serif" font-size="10.00">pack_dep</text>
<polygon fill="none" stroke="blue" points="788,-112.5 788,-133.5 898,-133.5 898,-112.5 788,-112.5"/>
<text text-anchor="start" x="837.75" y="-119" font-family="Helvetica,sans-Serif" font-size="10.00">no</text>
<polygon fill="none" stroke="blue" points="788,-91.5 788,-112.5 898,-112.5 898,-91.5 788,-91.5"/>
<text text-anchor="start" x="829.5" y="-98" font-family="Helvetica,sans-Serif" font-size="10.00">dev&#45;qt</text>
<polygon fill="none" stroke="blue" points="788,-70.5 788,-91.5 898,-91.5 898,-70.5 788,-70.5"/>
<text text-anchor="start" x="828.38" y="-77" font-family="Helvetica,sans-Serif" font-size="10.00">qtdbus</text>
<polygon fill="none" stroke="blue" points="788,-49.5 788,-70.5 898,-70.5 898,-49.5 788,-49.5"/>
<text text-anchor="start" x="832.5" y="-56" font-family="Helvetica,sans-Serif" font-size="10.00">none</text>
<polygon fill="none" stroke="blue" points="788,-28.5 788,-49.5 898,-49.5 898,-28.5 788,-28.5"/>
<text text-anchor="start" x="837" y="-35" font-family="Helvetica,sans-Serif" font-size="10.00">[,,]</text>
</g>
<!-- dependency452041&#45;&gt;dependency452042 -->
<g id="edge1" class="edge">
<title>dependency452041:e&#45;&gt;dependency452042:w</title>
<path fill="none" stroke="black" stroke-dasharray="5,2" d="M568,-321C680.97,-321 567.36,-97.13 664.84,-81.82"/>
<polygon fill="black" stroke="black" points="674.78,-81.09 665.14,-86.31 671.01,-81.37 664.81,-81.82 664.81,-81.82 664.81,-81.82 671.01,-81.37 664.48,-77.34 674.78,-81.09"/>
</g>
<!-- choice1001011184511311647113116100981171154553464953464952 -->
<g id="node18" class="node">
<title>choice1001011184511311647113116100981171154553464953464952</title>
<g id="a_node18"><a xlink:href="../dev-qt/qtdbus-5.15.14.svg" xlink:title="portage://dev&#45;qt/qtdbus&#45;5.15.14">
<ellipse fill="none" stroke="red" cx="1164" cy="-783" rx="144" ry="18"/>
<text text-anchor="middle" x="1164" y="-779.12" font-family="Helvetica,sans-Serif" font-size="10.00">portage://dev&#45;qt/qtdbus&#45;5.15.14</text>
</a>
</g>
</g>
<!-- dependency452042&#45;&gt;choice1001011184511311647113116100981171154553464953464952 -->
<g id="edge17" class="edge">
<title>dependency452042:e&#45;&gt;choice1001011184511311647113116100981171154553464953464952:w</title>
<path fill="none" stroke="black" stroke-dasharray="1,5" d="M913,-81C1066.92,-81 871.24,-749.14 1008.09,-781.77"/>
<polygon fill="black" stroke="black" points="1017.79,-782.86 1007.35,-786.21 1014.03,-782.44 1007.85,-781.74 1007.85,-781.74 1007.85,-781.74 1014.03,-782.44 1008.36,-777.27 1017.79,-782.86"/>
</g>
<!-- choice100101118451131164711311699111110991171141141011101164553464953464952 -->
<g id="node19" class="node">
<title>choice100101118451131164711311699111110991171141141011101164553464953464952</title>
<g id="a_node19"><a xlink:href="../dev-qt/qtconcurrent-5.15.14.svg" xlink:title="portage://dev&#45;qt/qtconcurrent&#45;5.15.14">
<ellipse fill="none" stroke="red" cx="1164" cy="-837" rx="144" ry="18"/>
<text text-anchor="middle" x="1164" y="-833.12" font-family="Helvetica,sans-Serif" font-size="10.00">portage://dev&#45;qt/qtconcurrent&#45;5.15.14</text>
</a>
</g>
</g>
<!-- dependency452043&#45;&gt;choice100101118451131164711311699111110991171141141011101164553464953464952 -->
<g id="edge18" class="edge">
<title>dependency452043:e&#45;&gt;choice100101118451131164711311699111110991171141141011101164553464953464952:w</title>
<path fill="none" stroke="black" stroke-dasharray="1,5" d="M913,-212C1050.02,-212 887.5,-803.29 1008.14,-835.62"/>
<polygon fill="black" stroke="black" points="1017.79,-836.85 1007.3,-840.05 1014.04,-836.37 1007.87,-835.59 1007.87,-835.59 1007.87,-835.59 1014.04,-836.37 1008.44,-831.12 1017.79,-836.85"/>
</g>
<!-- choice1001011184511311647113116991111141014553464953464952 -->
<g id="node20" class="node">
<title>choice1001011184511311647113116991111141014553464953464952</title>
<g id="a_node20"><a xlink:href="../dev-qt/qtcore-5.15.14.svg" xlink:title="portage://dev&#45;qt/qtcore&#45;5.15.14">
<ellipse fill="none" stroke="red" cx="1164" cy="-891" rx="144" ry="18"/>
<text text-anchor="middle" x="1164" y="-887.12" font-family="Helvetica,sans-Serif" font-size="10.00">portage://dev&#45;qt/qtcore&#45;5.15.14</text>
</a>
</g>
</g>
<!-- dependency452044&#45;&gt;choice1001011184511311647113116991111141014553464953464952 -->
<g id="edge19" class="edge">
<title>dependency452044:e&#45;&gt;choice1001011184511311647113116991111141014553464953464952:w</title>
<path fill="none" stroke="black" stroke-dasharray="1,5" d="M913,-343C1157.19,-343 782.97,-874.01 1007.83,-890.6"/>
<polygon fill="black" stroke="black" points="1017.78,-890.96 1007.63,-895.1 1014,-890.82 1007.79,-890.6 1007.79,-890.6 1007.79,-890.6 1014,-890.82 1007.95,-886.1 1017.78,-890.96"/>
</g>
<!-- choice10010111845113116471131161031171054553464953464952 -->
<g id="node21" class="node">
<title>choice10010111845113116471131161031171054553464953464952</title>
<g id="a_node21"><a xlink:href="../dev-qt/qtgui-5.15.14.svg" xlink:title="portage://dev&#45;qt/qtgui&#45;5.15.14">
<ellipse fill="none" stroke="red" cx="1164" cy="-945" rx="144" ry="18"/>
<text text-anchor="middle" x="1164" y="-941.12" font-family="Helvetica,sans-Serif" font-size="10.00">portage://dev&#45;qt/qtgui&#45;5.15.14</text>
</a>
</g>
</g>
<!-- dependency452045&#45;&gt;choice10010111845113116471131161031171054553464953464952 -->
<g id="edge20" class="edge">
<title>dependency452045:e&#45;&gt;choice10010111845113116471131161031171054553464953464952:w</title>
<path fill="none" stroke="black" stroke-dasharray="1,5" d="M913,-474C1123.69,-474 815.93,-928.14 1007.89,-944.54"/>
<polygon fill="black" stroke="black" points="1017.78,-944.95 1007.61,-949.04 1014,-944.8 1007.79,-944.54 1007.79,-944.54 1007.79,-944.54 1014,-944.8 1007.98,-940.04 1017.78,-944.95"/>
</g>
<!-- choice10010111845113116471131161101011161191111141074553464953464952 -->
<g id="node22" class="node">
<title>choice10010111845113116471131161101011161191111141074553464953464952</title>
<g id="a_node22"><a xlink:href="../dev-qt/qtnetwork-5.15.14.svg" xlink:title="portage://dev&#45;qt/qtnetwork&#45;5.15.14">
<ellipse fill="none" stroke="red" cx="1164" cy="-999" rx="144" ry="18"/>
<text text-anchor="middle" x="1164" y="-995.12" font-family="Helvetica,sans-Serif" font-size="10.00">portage://dev&#45;qt/qtnetwork&#45;5.15.14</text>
</a>
</g>
</g>
<!-- dependency452046&#45;&gt;choice10010111845113116471131161101011161191111141074553464953464952 -->
<g id="edge21" class="edge">
<title>dependency452046:e&#45;&gt;choice10010111845113116471131161101011161191111141074553464953464952:w</title>
<path fill="none" stroke="black" stroke-dasharray="1,5" d="M913,-605C1090.44,-605 848.49,-982.25 1007.91,-998.46"/>
<polygon fill="black" stroke="black" points="1017.78,-998.94 1007.58,-1002.95 1014.01,-998.76 1007.79,-998.46 1007.79,-998.46 1007.79,-998.46 1014.01,-998.76 1008.01,-993.96 1017.78,-998.94"/>
</g>
<!-- choice10010111845113116471131161191051001031011161154553464953464952 -->
<g id="node23" class="node">
<title>choice10010111845113116471131161191051001031011161154553464953464952</title>
<g id="a_node23"><a xlink:href="../dev-qt/qtwidgets-5.15.14.svg" xlink:title="portage://dev&#45;qt/qtwidgets&#45;5.15.14">
<ellipse fill="none" stroke="red" cx="1164" cy="-1053" rx="144" ry="18"/>
<text text-anchor="middle" x="1164" y="-1049.12" font-family="Helvetica,sans-Serif" font-size="10.00">portage://dev&#45;qt/qtwidgets&#45;5.15.14</text>
</a>
</g>
</g>
<!-- dependency452047&#45;&gt;choice10010111845113116471131161191051001031011161154553464953464952 -->
<g id="edge22" class="edge">
<title>dependency452047:e&#45;&gt;choice10010111845113116471131161191051001031011161154553464953464952:w</title>
<path fill="none" stroke="black" stroke-dasharray="1,5" d="M913,-736C1057.64,-736 880.29,-1036.5 1007.94,-1052.35"/>
<polygon fill="black" stroke="black" points="1017.78,-1052.93 1007.54,-1056.83 1014.01,-1052.71 1007.8,-1052.34 1007.8,-1052.34 1007.8,-1052.34 1014.01,-1052.71 1008.06,-1047.85 1017.78,-1052.93"/>
</g>
<!-- choice11512111545971121121154710210510810145534652534511452 -->
<g id="node24" class="node">
<title>choice11512111545971121121154710210510810145534652534511452</title>
<g id="a_node24"><a xlink:href="../sys-apps/file-5.45-r4.svg" xlink:title="portage://sys&#45;apps/file&#45;5.45&#45;r4">
<ellipse fill="none" stroke="red" cx="1164" cy="-1161" rx="144" ry="18"/>
<text text-anchor="middle" x="1164" y="-1157.12" font-family="Helvetica,sans-Serif" font-size="10.00">portage://sys&#45;apps/file&#45;5.45&#45;r4</text>
</a>
</g>
</g>
<!-- dependency452048&#45;&gt;choice11512111545971121121154710210510810145534652534511452 -->
<g id="edge23" class="edge">
<title>dependency452048:e&#45;&gt;choice11512111545971121121154710210510810145534652534511452:w</title>
<path fill="none" stroke="black" stroke-dasharray="1,5" d="M913,-867C1047.97,-867 889.58,-1144.58 1007.93,-1160.31"/>
<polygon fill="black" stroke="black" points="1017.78,-1160.92 1007.52,-1164.79 1014.01,-1160.69 1007.8,-1160.3 1007.8,-1160.3 1007.8,-1160.3 1014.01,-1160.69 1008.09,-1155.81 1017.78,-1160.92"/>
</g>
<!-- choice1151211154597112112115471021051081014557575757 -->
<g id="node25" class="node">
<title>choice1151211154597112112115471021051081014557575757</title>
<g id="a_node25"><a xlink:href="../sys-apps/file-9999.svg" xlink:title="portage://sys&#45;apps/file&#45;9999">
<ellipse fill="none" stroke="red" cx="1164" cy="-1107" rx="144" ry="18"/>
<text text-anchor="middle" x="1164" y="-1103.12" font-family="Helvetica,sans-Serif" font-size="10.00">portage://sys&#45;apps/file&#45;9999</text>
</a>
</g>
</g>
<!-- dependency452048&#45;&gt;choice1151211154597112112115471021051081014557575757 -->
<g id="edge24" class="edge">
<title>dependency452048:e&#45;&gt;choice1151211154597112112115471021051081014557575757:w</title>
<path fill="none" stroke="black" stroke-dasharray="1,5" d="M913,-867C1025.62,-867 910.8,-1090.87 1007.88,-1106.18"/>
<polygon fill="black" stroke="black" points="1017.78,-1106.91 1007.48,-1110.66 1014.01,-1106.63 1007.81,-1106.17 1007.81,-1106.17 1007.81,-1106.17 1014.01,-1106.63 1008.14,-1101.69 1017.78,-1106.91"/>
</g>
<!-- dependency452050 -->
<g id="node11" class="node">
<title>dependency452050</title>
<polygon fill="none" stroke="blue" points="684,-971.5 684,-1076.5 788,-1076.5 788,-971.5 684,-971.5"/>
<text text-anchor="start" x="715" y="-1020.12" font-family="Helvetica,sans-Serif" font-size="10.00">pack_dep</text>
<polygon fill="none" stroke="blue" points="788,-1055.5 788,-1076.5 898,-1076.5 898,-1055.5 788,-1055.5"/>
<text text-anchor="start" x="837.75" y="-1062" font-family="Helvetica,sans-Serif" font-size="10.00">no</text>
<polygon fill="none" stroke="blue" points="788,-1034.5 788,-1055.5 898,-1055.5 898,-1034.5 788,-1034.5"/>
<text text-anchor="start" x="829.5" y="-1041" font-family="Helvetica,sans-Serif" font-size="10.00">dev&#45;qt</text>
<polygon fill="none" stroke="blue" points="788,-1013.5 788,-1034.5 898,-1034.5 898,-1013.5 788,-1013.5"/>
<text text-anchor="start" x="828.38" y="-1020" font-family="Helvetica,sans-Serif" font-size="10.00">qtdbus</text>
<polygon fill="none" stroke="blue" points="788,-992.5 788,-1013.5 898,-1013.5 898,-992.5 788,-992.5"/>
<text text-anchor="start" x="832.5" y="-999" font-family="Helvetica,sans-Serif" font-size="10.00">none</text>
<polygon fill="none" stroke="blue" points="788,-971.5 788,-992.5 898,-992.5 898,-971.5 788,-971.5"/>
<text text-anchor="start" x="837" y="-978" font-family="Helvetica,sans-Serif" font-size="10.00">[,,]</text>
</g>
<!-- dependency452049&#45;&gt;dependency452050 -->
<g id="edge9" class="edge">
<title>dependency452049:e&#45;&gt;dependency452050:w</title>
<path fill="none" stroke="black" stroke-dasharray="5,2" d="M568,-1008C612.64,-1008 625.48,-1021.54 665.03,-1023.71"/>
<polygon fill="black" stroke="black" points="674.78,-1023.97 664.67,-1028.2 671,-1023.87 664.79,-1023.7 664.79,-1023.7 664.79,-1023.7 671,-1023.87 664.91,-1019.2 674.78,-1023.97"/>
</g>
<!-- dependency452050&#45;&gt;choice1001011184511311647113116100981171154553464953464952 -->
<g id="edge25" class="edge">
<title>dependency452050:e&#45;&gt;choice1001011184511311647113116100981171154553464953464952:w</title>
<path fill="none" stroke="black" stroke-dasharray="1,5" d="M913,-1024C1026.01,-1024 910.45,-799.19 1007.84,-783.83"/>
<polygon fill="black" stroke="black" points="1017.78,-783.09 1008.14,-788.32 1014.01,-783.37 1007.81,-783.83 1007.81,-783.83 1007.81,-783.83 1014.01,-783.37 1007.48,-779.34 1017.78,-783.09"/>
</g>
<!-- dependency452051&#45;&gt;choice100101118451131164711311699111110991171141141011101164553464953464952 -->
<g id="edge26" class="edge">
<title>dependency452051:e&#45;&gt;choice100101118451131164711311699111110991171141141011101164553464953464952:w</title>
<path fill="none" stroke="black" stroke-dasharray="1,5" d="M913,-1155C1058.05,-1155 879.91,-853.55 1007.91,-837.65"/>
<polygon fill="black" stroke="black" points="1017.78,-837.07 1008.06,-842.15 1014.01,-837.29 1007.8,-837.66 1007.8,-837.66 1007.8,-837.66 1014.01,-837.29 1007.54,-833.17 1017.78,-837.07"/>
</g>
<!-- dependency452052&#45;&gt;choice1001011184511311647113116991111141014553464953464952 -->
<g id="edge27" class="edge">
<title>dependency452052:e&#45;&gt;choice1001011184511311647113116991111141014553464953464952:w</title>
<path fill="none" stroke="black" stroke-dasharray="1,5" d="M913,-1286C1090.86,-1286 848.1,-907.79 1007.88,-891.54"/>
<polygon fill="black" stroke="black" points="1017.78,-891.06 1008.01,-896.04 1014.01,-891.24 1007.79,-891.54 1007.79,-891.54 1007.79,-891.54 1014.01,-891.24 1007.58,-887.05 1017.78,-891.06"/>
</g>
<!-- dependency452053&#45;&gt;choice10010111845113116471131161031171054553464953464952 -->
<g id="edge28" class="edge">
<title>dependency452053:e&#45;&gt;choice10010111845113116471131161031171054553464953464952:w</title>
<path fill="none" stroke="black" stroke-dasharray="1,5" d="M913,-1417C1124.12,-1417 815.53,-961.9 1007.87,-945.46"/>
<polygon fill="black" stroke="black" points="1017.78,-945.05 1007.98,-949.96 1014,-945.2 1007.79,-945.46 1007.79,-945.46 1007.79,-945.46 1014,-945.2 1007.61,-940.96 1017.78,-945.05"/>
</g>
<!-- dependency452054&#45;&gt;choice10010111845113116471131161101011161191111141074553464953464952 -->
<g id="edge29" class="edge">
<title>dependency452054:e&#45;&gt;choice10010111845113116471131161101011161191111141074553464953464952:w</title>
<path fill="none" stroke="black" stroke-dasharray="1,5" d="M913,-1548C1157.62,-1548 782.56,-1016.02 1007.81,-999.4"/>
<polygon fill="black" stroke="black" points="1017.78,-999.04 1007.95,-1003.9 1014,-999.18 1007.79,-999.4 1007.79,-999.4 1007.79,-999.4 1014,-999.18 1007.63,-994.9 1017.78,-999.04"/>
</g>
<!-- dependency452055&#45;&gt;choice10010111845113116471131161191051001031011161154553464953464952 -->
<g id="edge30" class="edge">
<title>dependency452055:e&#45;&gt;choice10010111845113116471131161191051001031011161154553464953464952:w</title>
<path fill="none" stroke="black" stroke-dasharray="1,5" d="M913,-1679C1050.23,-1679 887.31,-1086.77 1008.12,-1054.38"/>
<polygon fill="black" stroke="black" points="1017.79,-1053.15 1008.44,-1058.88 1014.04,-1053.63 1007.87,-1054.41 1007.87,-1054.41 1007.87,-1054.41 1014.04,-1053.63 1007.3,-1049.95 1017.79,-1053.15"/>
</g>
<!-- dependency452056&#45;&gt;choice11512111545971121121154710210510810145534652534511452 -->
<g id="edge31" class="edge">
<title>dependency452056:e&#45;&gt;choice11512111545971121121154710210510810145534652534511452:w</title>
<path fill="none" stroke="black" stroke-dasharray="1,5" d="M913,-1810C1055.28,-1810 882.46,-1194.77 1008.12,-1162.33"/>
<polygon fill="black" stroke="black" points="1017.79,-1161.15 1008.41,-1166.83 1014.04,-1161.61 1007.86,-1162.36 1007.86,-1162.36 1007.86,-1162.36 1014.04,-1161.61 1007.32,-1157.89 1017.79,-1161.15"/>
</g>
<!-- dependency452056&#45;&gt;choice1151211154597112112115471021051081014557575757 -->
<g id="edge32" class="edge">
<title>dependency452056:e&#45;&gt;choice1151211154597112112115471021051081014557575757:w</title>
<path fill="none" stroke="black" stroke-dasharray="1,5" d="M913,-1810C1067.13,-1810 871.05,-1140.91 1008.08,-1108.24"/>
<polygon fill="black" stroke="black" points="1017.79,-1107.14 1008.36,-1112.73 1014.03,-1107.56 1007.85,-1108.26 1007.85,-1108.26 1007.85,-1108.26 1014.03,-1107.56 1007.35,-1103.79 1017.79,-1107.14"/>
</g>
</g>
</svg>
