<?xml version="1.0" encoding="UTF-8" standalone="no"?>
<!DOCTYPE svg PUBLIC "-//W3C//DTD SVG 1.1//EN"
 "http://www.w3.org/Graphics/SVG/1.1/DTD/svg11.dtd">
<!-- Generated by graphviz version 2.41.20171026.1811 (20171026.1811)
 -->
<!-- Title: prolog Pages: 1 -->
<svg width="1068pt" height="829pt"
 viewBox="0.00 0.00 1068.00 829.00" xmlns="http://www.w3.org/2000/svg" xmlns:xlink="http://www.w3.org/1999/xlink">
<g id="graph0" class="graph" transform="scale(1 1) rotate(0) translate(4 825)">
<title>prolog</title>
<polygon fill="white" stroke="transparent" points="-4,4 -4,-825 1064,-825 1064,4 -4,4"/>
<g id="clust1" class="cluster">
<title>cluster_leftcol</title>
<polygon fill="none" stroke="gray" points="8,-299 8,-371 312,-371 312,-299 8,-299"/>
<text text-anchor="start" x="146.66" y="-359" font-family="Helvetica,sans-Serif" font-style="italic" font-size="10.00">ebuild</text>
</g>
<g id="clust2" class="cluster">
<title>cluster_midcol</title>
<polygon fill="none" stroke="gray" points="396,-8 396,-720 664,-720 664,-8 396,-8"/>
<text text-anchor="start" x="498.88" y="-708" font-family="Helvetica,sans-Serif" font-style="italic" font-size="10.00">dependencies</text>
</g>
<g id="clust3" class="cluster">
<title>cluster_compile</title>
<polygon fill="#eeeeee" stroke="gray" points="404,-538 404,-692 656,-692 656,-538 404,-538"/>
<text text-anchor="start" x="512.78" y="-680" font-family="Helvetica,sans-Serif" font-style="italic" font-size="10.00">compile</text>
</g>
<g id="clust5" class="cluster">
<title>cluster_compileandrun</title>
<polygon fill="#eeeeee" stroke="gray" points="404,-16 404,-530 656,-530 656,-16 404,-16"/>
<text text-anchor="start" x="494.44" y="-518" font-family="Helvetica,sans-Serif" font-style="italic" font-size="10.00">compile and run</text>
</g>
<g id="clust11" class="cluster">
<title>cluster_choices</title>
<polygon fill="none" stroke="gray" points="748,-121 748,-813 1052,-813 1052,-121 748,-121"/>
<text text-anchor="start" x="875.82" y="-801" font-family="Helvetica,sans-Serif" font-style="italic" font-size="10.00">candidates</text>
</g>
<!-- id -->
<g id="node1" class="node">
<title>id</title>
<g id="a_node1"><a xlink:href="../x11-misc/set_opacity-9999.svg" xlink:title="portage://x11&#45;misc/set_opacity&#45;9999">
<ellipse fill="none" stroke="red" cx="160" cy="-325" rx="144" ry="18"/>
<text text-anchor="middle" x="160" y="-322" font-family="Helvetica,sans-Serif" font-size="10.00">portage://x11&#45;misc/set_opacity&#45;9999</text>
</a>
</g>
</g>
<!-- dependency454118 -->
<g id="node2" class="node">
<title>dependency454118</title>
<polygon fill="none" stroke="blue" points="420,-550 420,-660 525,-660 525,-550 420,-550"/>
<text text-anchor="start" x="450.82" y="-602" font-family="Helvetica,sans-Serif" font-size="10.00">pack_dep</text>
<polygon fill="none" stroke="blue" points="525,-638 525,-660 635,-660 635,-638 525,-638"/>
<text text-anchor="start" x="574.44" y="-646" font-family="Helvetica,sans-Serif" font-size="10.00">no</text>
<polygon fill="none" stroke="blue" points="525,-616 525,-638 635,-638 635,-616 525,-616"/>
<text text-anchor="start" x="562.78" y="-624" font-family="Helvetica,sans-Serif" font-size="10.00">dev&#45;vcs</text>
<polygon fill="none" stroke="blue" points="525,-594 525,-616 635,-616 635,-594 525,-594"/>
<text text-anchor="start" x="574.72" y="-602" font-family="Helvetica,sans-Serif" font-size="10.00">git</text>
<polygon fill="none" stroke="blue" points="525,-572 525,-594 635,-594 635,-572 525,-572"/>
<text text-anchor="start" x="551.94" y="-580" font-family="Helvetica,sans-Serif" font-size="10.00">greaterequal</text>
<polygon fill="none" stroke="blue" points="525,-550 525,-572 635,-572 635,-550 525,-550"/>
<text text-anchor="start" x="564.71" y="-558" font-family="Helvetica,sans-Serif" font-size="10.00">1.8.2.1</text>
</g>
<!-- id&#45;&gt;dependency454118 -->
<g id="edge1" class="edge">
<title>id:e&#45;&gt;dependency454118:w</title>
<path fill="none" stroke="black" d="M305,-325C434.42,-325 286.47,-589.9 400.73,-604.38"/>
<polygon fill="black" stroke="black" points="411,-605 400.75,-608.89 406.01,-604.7 401.02,-604.4 401.02,-604.4 401.02,-604.4 406.01,-604.7 401.29,-599.91 411,-605 411,-605"/>
</g>
<!-- dependency454119 -->
<g id="node3" class="node">
<title>dependency454119</title>
<polygon fill="none" stroke="blue" points="420,-400 420,-498 525,-498 525,-400 420,-400"/>
<text text-anchor="start" x="450.82" y="-446" font-family="Helvetica,sans-Serif" font-size="10.00">pack_dep</text>
<polygon fill="none" stroke="blue" points="525,-476 525,-498 635,-498 635,-476 525,-476"/>
<text text-anchor="start" x="574.44" y="-484" font-family="Helvetica,sans-Serif" font-size="10.00">no</text>
<polygon fill="none" stroke="blue" points="525,-454 525,-476 635,-476 635,-454 525,-454"/>
<text text-anchor="start" x="562.78" y="-462" font-family="Helvetica,sans-Serif" font-size="10.00">x11&#45;libs</text>
<polygon fill="none" stroke="blue" points="525,-432 525,-454 635,-454 635,-432 525,-432"/>
<text text-anchor="start" x="548.89" y="-440" font-family="Helvetica,sans-Serif" font-size="10.00">libXcomposite</text>
<polygon fill="none" stroke="blue" points="525,-410 525,-432 635,-432 635,-410 525,-410"/>
<text text-anchor="start" x="568.88" y="-418" font-family="Helvetica,sans-Serif" font-size="10.00">none</text>
<polygon fill="none" stroke="blue" points="525,-400 525,-410 635,-410 635,-400 525,-400"/>
</g>
<!-- id&#45;&gt;dependency454119 -->
<g id="edge2" class="edge">
<title>id:e&#45;&gt;dependency454119:w</title>
<path fill="none" stroke="black" d="M305,-325C370.56,-325 344.94,-426.4 393.05,-445.81"/>
<ellipse fill="none" stroke="black" cx="407.06" cy="-448.3" rx="4" ry="4"/>
<polygon fill="black" stroke="black" points="403.12,-447.6 392.49,-450.28 398.2,-446.73 393.28,-445.85 393.28,-445.85 393.28,-445.85 398.2,-446.73 394.07,-441.42 403.12,-447.6 403.12,-447.6"/>
</g>
<!-- dependency454120 -->
<g id="node4" class="node">
<title>dependency454120</title>
<polygon fill="none" stroke="blue" points="420,-276 420,-374 525,-374 525,-276 420,-276"/>
<text text-anchor="start" x="450.82" y="-322" font-family="Helvetica,sans-Serif" font-size="10.00">pack_dep</text>
<polygon fill="none" stroke="blue" points="525,-352 525,-374 635,-374 635,-352 525,-352"/>
<text text-anchor="start" x="574.44" y="-360" font-family="Helvetica,sans-Serif" font-size="10.00">no</text>
<polygon fill="none" stroke="blue" points="525,-330 525,-352 635,-352 635,-330 525,-330"/>
<text text-anchor="start" x="562.78" y="-338" font-family="Helvetica,sans-Serif" font-size="10.00">x11&#45;libs</text>
<polygon fill="none" stroke="blue" points="525,-308 525,-330 635,-330 635,-308 525,-308"/>
<text text-anchor="start" x="553.61" y="-316" font-family="Helvetica,sans-Serif" font-size="10.00">libXdamage</text>
<polygon fill="none" stroke="blue" points="525,-286 525,-308 635,-308 635,-286 525,-286"/>
<text text-anchor="start" x="568.88" y="-294" font-family="Helvetica,sans-Serif" font-size="10.00">none</text>
<polygon fill="none" stroke="blue" points="525,-276 525,-286 635,-286 635,-276 525,-276"/>
</g>
<!-- id&#45;&gt;dependency454120 -->
<g id="edge3" class="edge">
<title>id:e&#45;&gt;dependency454120:w</title>
<path fill="none" stroke="black" d="M305,-325C345.3,-325 359.75,-325 392.57,-325"/>
<ellipse fill="none" stroke="black" cx="407" cy="-325" rx="4" ry="4"/>
<polygon fill="black" stroke="black" points="403,-325 393,-329.5 398,-325 393,-325 393,-325 393,-325 398,-325 393,-320.5 403,-325 403,-325"/>
</g>
<!-- dependency454121 -->
<g id="node5" class="node">
<title>dependency454121</title>
<polygon fill="none" stroke="blue" points="420,-152 420,-250 525,-250 525,-152 420,-152"/>
<text text-anchor="start" x="450.82" y="-198" font-family="Helvetica,sans-Serif" font-size="10.00">pack_dep</text>
<polygon fill="none" stroke="blue" points="525,-228 525,-250 635,-250 635,-228 525,-228"/>
<text text-anchor="start" x="574.44" y="-236" font-family="Helvetica,sans-Serif" font-size="10.00">no</text>
<polygon fill="none" stroke="blue" points="525,-206 525,-228 635,-228 635,-206 525,-206"/>
<text text-anchor="start" x="562.78" y="-214" font-family="Helvetica,sans-Serif" font-size="10.00">x11&#45;libs</text>
<polygon fill="none" stroke="blue" points="525,-184 525,-206 635,-206 635,-184 525,-184"/>
<text text-anchor="start" x="561.39" y="-192" font-family="Helvetica,sans-Serif" font-size="10.00">libXfixes</text>
<polygon fill="none" stroke="blue" points="525,-162 525,-184 635,-184 635,-162 525,-162"/>
<text text-anchor="start" x="568.88" y="-170" font-family="Helvetica,sans-Serif" font-size="10.00">none</text>
<polygon fill="none" stroke="blue" points="525,-152 525,-162 635,-162 635,-152 525,-152"/>
</g>
<!-- id&#45;&gt;dependency454121 -->
<g id="edge4" class="edge">
<title>id:e&#45;&gt;dependency454121:w</title>
<path fill="none" stroke="black" d="M305,-325C370.56,-325 344.94,-223.6 393.05,-204.19"/>
<ellipse fill="none" stroke="black" cx="407.06" cy="-201.7" rx="4" ry="4"/>
<polygon fill="black" stroke="black" points="403.12,-202.4 394.07,-208.58 398.2,-203.27 393.28,-204.15 393.28,-204.15 393.28,-204.15 398.2,-203.27 392.49,-199.72 403.12,-202.4 403.12,-202.4"/>
</g>
<!-- dependency454122 -->
<g id="node6" class="node">
<title>dependency454122</title>
<polygon fill="none" stroke="blue" points="420,-28 420,-126 525,-126 525,-28 420,-28"/>
<text text-anchor="start" x="450.82" y="-74" font-family="Helvetica,sans-Serif" font-size="10.00">pack_dep</text>
<polygon fill="none" stroke="blue" points="525,-104 525,-126 635,-126 635,-104 525,-104"/>
<text text-anchor="start" x="574.44" y="-112" font-family="Helvetica,sans-Serif" font-size="10.00">no</text>
<polygon fill="none" stroke="blue" points="525,-82 525,-104 635,-104 635,-82 525,-82"/>
<text text-anchor="start" x="562.78" y="-90" font-family="Helvetica,sans-Serif" font-size="10.00">x11&#45;libs</text>
<polygon fill="none" stroke="blue" points="525,-60 525,-82 635,-82 635,-60 525,-60"/>
<text text-anchor="start" x="557.22" y="-68" font-family="Helvetica,sans-Serif" font-size="10.00">libXrender</text>
<polygon fill="none" stroke="blue" points="525,-38 525,-60 635,-60 635,-38 525,-38"/>
<text text-anchor="start" x="568.88" y="-46" font-family="Helvetica,sans-Serif" font-size="10.00">none</text>
<polygon fill="none" stroke="blue" points="525,-28 525,-38 635,-38 635,-28 525,-28"/>
</g>
<!-- id&#45;&gt;dependency454122 -->
<g id="edge5" class="edge">
<title>id:e&#45;&gt;dependency454122:w</title>
<path fill="none" stroke="black" d="M305,-325C418.08,-325 305.47,-104.3 392.98,-79.3"/>
<ellipse fill="none" stroke="black" cx="407.03" cy="-77.51" rx="4" ry="4"/>
<polygon fill="black" stroke="black" points="403.06,-78.01 393.71,-83.74 398.1,-78.64 393.14,-79.28 393.14,-79.28 393.14,-79.28 398.1,-78.64 392.58,-74.81 403.06,-78.01 403.06,-78.01"/>
</g>
<!-- choiceportage10010111845118991154710310511645504650494648 -->
<g id="node7" class="node">
<title>choiceportage10010111845118991154710310511645504650494648</title>
<g id="a_node7"><a xlink:href="../dev-vcs/git-2.21.0.svg" xlink:title="portage://dev&#45;vcs/git&#45;2.21.0">
<ellipse fill="none" stroke="red" cx="900" cy="-767" rx="144" ry="18"/>
<text text-anchor="middle" x="900" y="-764" font-family="Helvetica,sans-Serif" font-size="10.00">portage://dev&#45;vcs/git&#45;2.21.0</text>
</a>
</g>
</g>
<!-- dependency454118&#45;&gt;choiceportage10010111845118991154710310511645504650494648 -->
<g id="edge6" class="edge">
<title>dependency454118:e&#45;&gt;choiceportage10010111845118991154710310511645504650494648:w</title>
<path fill="none" stroke="black" stroke-dasharray="1,5" d="M649,-605C731.35,-605 674.36,-753.38 744.73,-766.13"/>
<polygon fill="black" stroke="black" points="755,-767 744.66,-770.64 750.02,-766.58 745.04,-766.15 745.04,-766.15 745.04,-766.15 750.02,-766.58 745.42,-761.67 755,-767 755,-767"/>
</g>
<!-- choiceportage100101118451189911547103105116455046505146484511449 -->
<g id="node8" class="node">
<title>choiceportage100101118451189911547103105116455046505146484511449</title>
<g id="a_node8"><a xlink:href="../dev-vcs/git-2.23.0-r1.svg" xlink:title="portage://dev&#45;vcs/git&#45;2.23.0&#45;r1">
<ellipse fill="none" stroke="red" cx="900" cy="-713" rx="144" ry="18"/>
<text text-anchor="middle" x="900" y="-710" font-family="Helvetica,sans-Serif" font-size="10.00">portage://dev&#45;vcs/git&#45;2.23.0&#45;r1</text>
</a>
</g>
</g>
<!-- dependency454118&#45;&gt;choiceportage100101118451189911547103105116455046505146484511449 -->
<g id="edge7" class="edge">
<title>dependency454118:e&#45;&gt;choiceportage100101118451189911547103105116455046505146484511449:w</title>
<path fill="none" stroke="black" stroke-dasharray="1,5" d="M649,-605C712.58,-605 690.58,-701.51 744.79,-712.07"/>
<polygon fill="black" stroke="black" points="755,-713 744.63,-716.57 750.02,-712.54 745.04,-712.09 745.04,-712.09 745.04,-712.09 750.02,-712.54 745.45,-707.61 755,-713 755,-713"/>
</g>
<!-- choiceportage10010111845118991154710310511645504650524648 -->
<g id="node9" class="node">
<title>choiceportage10010111845118991154710310511645504650524648</title>
<g id="a_node9"><a xlink:href="../dev-vcs/git-2.24.0.svg" xlink:title="portage://dev&#45;vcs/git&#45;2.24.0">
<ellipse fill="none" stroke="red" cx="900" cy="-659" rx="144" ry="18"/>
<text text-anchor="middle" x="900" y="-656" font-family="Helvetica,sans-Serif" font-size="10.00">portage://dev&#45;vcs/git&#45;2.24.0</text>
</a>
</g>
</g>
<!-- dependency454118&#45;&gt;choiceportage10010111845118991154710310511645504650524648 -->
<g id="edge8" class="edge">
<title>dependency454118:e&#45;&gt;choiceportage10010111845118991154710310511645504650524648:w</title>
<path fill="none" stroke="black" stroke-dasharray="1,5" d="M649,-605C698.26,-605 701.85,-651.87 744.86,-658.28"/>
<polygon fill="black" stroke="black" points="755,-659 744.71,-662.78 750.01,-658.64 745.03,-658.29 745.03,-658.29 745.03,-658.29 750.01,-658.64 745.35,-653.8 755,-659 755,-659"/>
</g>
<!-- choiceportage1001011184511899115471031051164557575757 -->
<g id="node10" class="node">
<title>choiceportage1001011184511899115471031051164557575757</title>
<g id="a_node10"><a xlink:href="../dev-vcs/git-9999.svg" xlink:title="portage://dev&#45;vcs/git&#45;9999">
<ellipse fill="none" stroke="red" cx="900" cy="-605" rx="144" ry="18"/>
<text text-anchor="middle" x="900" y="-602" font-family="Helvetica,sans-Serif" font-size="10.00">portage://dev&#45;vcs/git&#45;9999</text>
</a>
</g>
</g>
<!-- dependency454118&#45;&gt;choiceportage1001011184511899115471031051164557575757 -->
<g id="edge9" class="edge">
<title>dependency454118:e&#45;&gt;choiceportage1001011184511899115471031051164557575757:w</title>
<path fill="none" stroke="black" stroke-dasharray="1,5" d="M649,-605C692.43,-605 705.83,-605 744.57,-605"/>
<polygon fill="black" stroke="black" points="755,-605 745,-609.5 750,-605 745,-605 745,-605 745,-605 750,-605 745,-600.5 755,-605 755,-605"/>
</g>
<!-- choiceportage10010111845118991154710310511645575757574511449 -->
<g id="node11" class="node">
<title>choiceportage10010111845118991154710310511645575757574511449</title>
<g id="a_node11"><a xlink:href="../dev-vcs/git-9999-r1.svg" xlink:title="portage://dev&#45;vcs/git&#45;9999&#45;r1">
<ellipse fill="none" stroke="red" cx="900" cy="-551" rx="144" ry="18"/>
<text text-anchor="middle" x="900" y="-548" font-family="Helvetica,sans-Serif" font-size="10.00">portage://dev&#45;vcs/git&#45;9999&#45;r1</text>
</a>
</g>
</g>
<!-- dependency454118&#45;&gt;choiceportage10010111845118991154710310511645575757574511449 -->
<g id="edge10" class="edge">
<title>dependency454118:e&#45;&gt;choiceportage10010111845118991154710310511645575757574511449:w</title>
<path fill="none" stroke="black" stroke-dasharray="1,5" d="M649,-605C698.26,-605 701.85,-558.13 744.86,-551.72"/>
<polygon fill="black" stroke="black" points="755,-551 745.35,-556.2 750.01,-551.36 745.03,-551.71 745.03,-551.71 745.03,-551.71 750.01,-551.36 744.71,-547.22 755,-551 755,-551"/>
</g>
<!-- choiceportage10010111845118991154710310511645575757574511450 -->
<g id="node12" class="node">
<title>choiceportage10010111845118991154710310511645575757574511450</title>
<g id="a_node12"><a xlink:href="../dev-vcs/git-9999-r2.svg" xlink:title="portage://dev&#45;vcs/git&#45;9999&#45;r2">
<ellipse fill="none" stroke="red" cx="900" cy="-497" rx="144" ry="18"/>
<text text-anchor="middle" x="900" y="-494" font-family="Helvetica,sans-Serif" font-size="10.00">portage://dev&#45;vcs/git&#45;9999&#45;r2</text>
</a>
</g>
</g>
<!-- dependency454118&#45;&gt;choiceportage10010111845118991154710310511645575757574511450 -->
<g id="edge11" class="edge">
<title>dependency454118:e&#45;&gt;choiceportage10010111845118991154710310511645575757574511450:w</title>
<path fill="none" stroke="black" stroke-dasharray="1,5" d="M649,-605C712.58,-605 690.58,-508.49 744.79,-497.93"/>
<polygon fill="black" stroke="black" points="755,-497 745.45,-502.39 750.02,-497.46 745.04,-497.91 745.04,-497.91 745.04,-497.91 750.02,-497.46 744.63,-493.43 755,-497 755,-497"/>
</g>
<!-- choiceportage10010111845118991154710310511645575757574511451 -->
<g id="node13" class="node">
<title>choiceportage10010111845118991154710310511645575757574511451</title>
<g id="a_node13"><a xlink:href="../dev-vcs/git-9999-r3.svg" xlink:title="portage://dev&#45;vcs/git&#45;9999&#45;r3">
<ellipse fill="none" stroke="red" cx="900" cy="-443" rx="144" ry="18"/>
<text text-anchor="middle" x="900" y="-440" font-family="Helvetica,sans-Serif" font-size="10.00">portage://dev&#45;vcs/git&#45;9999&#45;r3</text>
</a>
</g>
</g>
<!-- dependency454118&#45;&gt;choiceportage10010111845118991154710310511645575757574511451 -->
<g id="edge12" class="edge">
<title>dependency454118:e&#45;&gt;choiceportage10010111845118991154710310511645575757574511451:w</title>
<path fill="none" stroke="black" stroke-dasharray="1,5" d="M649,-605C731.35,-605 674.36,-456.62 744.73,-443.87"/>
<polygon fill="black" stroke="black" points="755,-443 745.42,-448.33 750.02,-443.42 745.04,-443.85 745.04,-443.85 745.04,-443.85 750.02,-443.42 744.66,-439.36 755,-443 755,-443"/>
</g>
<!-- choiceportage1204949451081059811547108105988899111109112111115105116101454846524653 -->
<g id="node14" class="node">
<title>choiceportage1204949451081059811547108105988899111109112111115105116101454846524653</title>
<g id="a_node14"><a xlink:href="../x11-libs/libXcomposite-0.4.5.svg" xlink:title="portage://x11&#45;libs/libXcomposite&#45;0.4.5">
<ellipse fill="none" stroke="red" cx="900" cy="-389" rx="144" ry="18"/>
<text text-anchor="middle" x="900" y="-386" font-family="Helvetica,sans-Serif" font-size="10.00">portage://x11&#45;libs/libXcomposite&#45;0.4.5</text>
</a>
</g>
</g>
<!-- dependency454119&#45;&gt;choiceportage1204949451081059811547108105988899111109112111115105116101454846524653 -->
<g id="edge13" class="edge">
<title>dependency454119:e&#45;&gt;choiceportage1204949451081059811547108105988899111109112111115105116101454846524653:w</title>
<path fill="none" stroke="black" stroke-dasharray="1,5" d="M649,-449C699.54,-449 700.92,-396.7 744.93,-389.76"/>
<polygon fill="black" stroke="black" points="755,-389 745.37,-394.24 750.01,-389.38 745.03,-389.75 745.03,-389.75 745.03,-389.75 750.01,-389.38 744.69,-385.26 755,-389 755,-389"/>
</g>
<!-- choiceportage120494945108105981154710810598881009710997103101454946494653 -->
<g id="node15" class="node">
<title>choiceportage120494945108105981154710810598881009710997103101454946494653</title>
<g id="a_node15"><a xlink:href="../x11-libs/libXdamage-1.1.5.svg" xlink:title="portage://x11&#45;libs/libXdamage&#45;1.1.5">
<ellipse fill="none" stroke="red" cx="900" cy="-325" rx="144" ry="18"/>
<text text-anchor="middle" x="900" y="-322" font-family="Helvetica,sans-Serif" font-size="10.00">portage://x11&#45;libs/libXdamage&#45;1.1.5</text>
</a>
</g>
</g>
<!-- dependency454120&#45;&gt;choiceportage120494945108105981154710810598881009710997103101454946494653 -->
<g id="edge14" class="edge">
<title>dependency454120:e&#45;&gt;choiceportage120494945108105981154710810598881009710997103101454946494653:w</title>
<path fill="none" stroke="black" stroke-dasharray="1,5" d="M649,-325C692.43,-325 705.83,-325 744.57,-325"/>
<polygon fill="black" stroke="black" points="755,-325 745,-329.5 750,-325 745,-325 745,-325 745,-325 750,-325 745,-320.5 755,-325 755,-325"/>
</g>
<!-- choiceportage120494945108105981154710810598881021051201011154553464846514511449 -->
<g id="node16" class="node">
<title>choiceportage120494945108105981154710810598881021051201011154553464846514511449</title>
<g id="a_node16"><a xlink:href="../x11-libs/libXfixes-5.0.3-r1.svg" xlink:title="portage://x11&#45;libs/libXfixes&#45;5.0.3&#45;r1">
<ellipse fill="none" stroke="red" cx="900" cy="-201" rx="144" ry="18"/>
<text text-anchor="middle" x="900" y="-198" font-family="Helvetica,sans-Serif" font-size="10.00">portage://x11&#45;libs/libXfixes&#45;5.0.3&#45;r1</text>
</a>
</g>
</g>
<!-- dependency454121&#45;&gt;choiceportage120494945108105981154710810598881021051201011154553464846514511449 -->
<g id="edge15" class="edge">
<title>dependency454121:e&#45;&gt;choiceportage120494945108105981154710810598881021051201011154553464846514511449:w</title>
<path fill="none" stroke="black" stroke-dasharray="1,5" d="M649,-201C692.43,-201 705.83,-201 744.57,-201"/>
<polygon fill="black" stroke="black" points="755,-201 745,-205.5 750,-201 745,-201 745,-201 745,-201 750,-201 745,-196.5 755,-201 755,-201"/>
</g>
<!-- choiceportage12049494510810598115471081059888114101110100101114454846574649484511449 -->
<g id="node17" class="node">
<title>choiceportage12049494510810598115471081059888114101110100101114454846574649484511449</title>
<g id="a_node17"><a xlink:href="../x11-libs/libXrender-0.9.10-r1.svg" xlink:title="portage://x11&#45;libs/libXrender&#45;0.9.10&#45;r1">
<ellipse fill="none" stroke="red" cx="900" cy="-147" rx="144" ry="18"/>
<text text-anchor="middle" x="900" y="-144" font-family="Helvetica,sans-Serif" font-size="10.00">portage://x11&#45;libs/libXrender&#45;0.9.10&#45;r1</text>
</a>
</g>
</g>
<!-- dependency454122&#45;&gt;choiceportage12049494510810598115471081059888114101110100101114454846574649484511449 -->
<g id="edge16" class="edge">
<title>dependency454122:e&#45;&gt;choiceportage12049494510810598115471081059888114101110100101114454846574649484511449:w</title>
<path fill="none" stroke="black" stroke-dasharray="1,5" d="M649,-77C701.82,-77 699.17,-138.27 744.84,-146.17"/>
<polygon fill="black" stroke="black" points="755,-147 744.67,-150.67 750.02,-146.59 745.03,-146.18 745.03,-146.18 745.03,-146.18 750.02,-146.59 745.4,-141.7 755,-147 755,-147"/>
</g>
</g>
</svg>
