<?xml version="1.0" encoding="UTF-8" standalone="no"?>
<!DOCTYPE svg PUBLIC "-//W3C//DTD SVG 1.1//EN"
 "http://www.w3.org/Graphics/SVG/1.1/DTD/svg11.dtd">
<!-- Generated by graphviz version 9.0.0 (20230911.1827)
 -->
<!-- Title: prolog Pages: 1 -->
<svg width="1324pt" height="1413pt"
 viewBox="0.00 0.00 1324.00 1413.00" xmlns="http://www.w3.org/2000/svg" xmlns:xlink="http://www.w3.org/1999/xlink">
<g id="graph0" class="graph" transform="scale(1 1) rotate(0) translate(4 1409)">
<title>prolog</title>
<polygon fill="white" stroke="none" points="-4,4 -4,-1409 1320,-1409 1320,4 -4,4"/>
<g id="clust1" class="cluster">
<title>cluster_leftcol</title>
<polygon fill="none" stroke="gray" points="8,-710 8,-781 312,-781 312,-710 8,-710"/>
<text text-anchor="start" x="147.25" y="-768.5" font-family="Helvetica,sans-Serif" font-style="italic" font-size="10.00">ebuild</text>
</g>
<g id="clust2" class="cluster">
<title>cluster_midcol</title>
<polygon fill="none" stroke="gray" points="396,-8 396,-1397 920,-1397 920,-8 396,-8"/>
<text text-anchor="start" x="628" y="-1384.5" font-family="Helvetica,sans-Serif" font-style="italic" font-size="10.00">dependencies</text>
</g>
<g id="clust3" class="cluster">
<title>cluster_compile</title>
<polygon fill="#eeeeee" stroke="gray" points="404,-828 404,-1370 912,-1370 912,-828 404,-828"/>
<text text-anchor="start" x="641.12" y="-1357.5" font-family="Helvetica,sans-Serif" font-style="italic" font-size="10.00">compile</text>
</g>
<g id="clust11" class="cluster">
<title>cluster_run</title>
<polygon fill="#eeeeee" stroke="gray" points="404,-16 404,-820 912,-820 912,-16 404,-16"/>
<text text-anchor="start" x="651.25" y="-807.5" font-family="Helvetica,sans-Serif" font-style="italic" font-size="10.00">run</text>
</g>
<g id="clust20" class="cluster">
<title>cluster_choices</title>
<polygon fill="none" stroke="gray" points="1004,-55 1004,-943 1308,-943 1308,-55 1004,-55"/>
<text text-anchor="start" x="1132.38" y="-930.5" font-family="Helvetica,sans-Serif" font-style="italic" font-size="10.00">candidates</text>
</g>
<!-- id -->
<g id="node1" class="node">
<title>id</title>
<g id="a_node1"><a xlink:href="../kde-apps/kmbox-23.08.5.svg" xlink:title="portage://kde&#45;apps/kmbox&#45;23.08.5">
<ellipse fill="none" stroke="red" cx="160" cy="-736" rx="144" ry="18"/>
<text text-anchor="middle" x="160" y="-732.12" font-family="Helvetica,sans-Serif" font-size="10.00">portage://kde&#45;apps/kmbox&#45;23.08.5</text>
</a>
</g>
</g>
<!-- dependency250379 -->
<g id="node2" class="node">
<title>dependency250379</title>
<polygon fill="none" stroke="red" points="420,-987 420,-1029 509,-1029 509,-987 420,-987"/>
<text text-anchor="start" x="430.75" y="-1004.12" font-family="Helvetica,sans-Serif" font-size="10.00">use_conditional</text>
<polygon fill="none" stroke="red" points="509,-1008 509,-1029 552,-1029 552,-1008 509,-1008"/>
<text text-anchor="start" x="513.62" y="-1014.5" font-family="Helvetica,sans-Serif" font-size="10.00">positive</text>
<polygon fill="none" stroke="red" points="509,-987 509,-1008 552,-1008 552,-987 509,-987"/>
<text text-anchor="start" x="522.62" y="-993.5" font-family="Helvetica,sans-Serif" font-size="10.00">doc</text>
</g>
<!-- id&#45;&gt;dependency250379 -->
<g id="edge2" class="edge">
<title>id:e&#45;&gt;dependency250379:w</title>
<path fill="none" stroke="black" d="M305,-736C430.82,-736 290.29,-991.78 399.98,-1007.27"/>
<polygon fill="black" stroke="black" points="409.78,-1007.92 399.51,-1011.75 406.01,-1007.67 399.81,-1007.26 399.81,-1007.26 399.81,-1007.26 406.01,-1007.67 400.1,-1002.77 409.78,-1007.92"/>
</g>
<!-- dependency250381 -->
<g id="node4" class="node">
<title>dependency250381</title>
<polygon fill="none" stroke="red" points="420,-1160 420,-1202 509,-1202 509,-1160 420,-1160"/>
<text text-anchor="start" x="430.75" y="-1177.12" font-family="Helvetica,sans-Serif" font-size="10.00">use_conditional</text>
<polygon fill="none" stroke="red" points="509,-1181 509,-1202 552,-1202 552,-1181 509,-1181"/>
<text text-anchor="start" x="513.62" y="-1187.5" font-family="Helvetica,sans-Serif" font-size="10.00">positive</text>
<polygon fill="none" stroke="red" points="509,-1160 509,-1181 552,-1181 552,-1160 509,-1160"/>
<text text-anchor="start" x="522.25" y="-1166.5" font-family="Helvetica,sans-Serif" font-size="10.00">test</text>
</g>
<!-- id&#45;&gt;dependency250381 -->
<g id="edge4" class="edge">
<title>id:e&#45;&gt;dependency250381:w</title>
<path fill="none" stroke="black" d="M305,-736C504.44,-736 218.96,-1164.21 399.93,-1180.52"/>
<polygon fill="black" stroke="black" points="409.78,-1180.95 399.6,-1185.01 406,-1180.78 399.79,-1180.52 399.79,-1180.52 399.79,-1180.52 406,-1180.78 399.99,-1176.02 409.78,-1180.95"/>
</g>
<!-- dependency250383 -->
<g id="node6" class="node">
<title>dependency250383</title>
<polygon fill="none" stroke="blue" points="676,-840.5 676,-945.5 780,-945.5 780,-840.5 676,-840.5"/>
<text text-anchor="start" x="707" y="-889.12" font-family="Helvetica,sans-Serif" font-size="10.00">pack_dep</text>
<polygon fill="none" stroke="blue" points="780,-924.5 780,-945.5 890,-945.5 890,-924.5 780,-924.5"/>
<text text-anchor="start" x="829.75" y="-931" font-family="Helvetica,sans-Serif" font-size="10.00">no</text>
<polygon fill="none" stroke="blue" points="780,-903.5 780,-924.5 890,-924.5 890,-903.5 780,-903.5"/>
<text text-anchor="start" x="821.5" y="-910" font-family="Helvetica,sans-Serif" font-size="10.00">dev&#45;qt</text>
<polygon fill="none" stroke="blue" points="780,-882.5 780,-903.5 890,-903.5 890,-882.5 780,-882.5"/>
<text text-anchor="start" x="821.5" y="-889" font-family="Helvetica,sans-Serif" font-size="10.00">qtcore</text>
<polygon fill="none" stroke="blue" points="780,-861.5 780,-882.5 890,-882.5 890,-861.5 780,-861.5"/>
<text text-anchor="start" x="824.5" y="-868" font-family="Helvetica,sans-Serif" font-size="10.00">none</text>
<polygon fill="none" stroke="blue" points="780,-840.5 780,-861.5 890,-861.5 890,-840.5 780,-840.5"/>
<text text-anchor="start" x="829" y="-847" font-family="Helvetica,sans-Serif" font-size="10.00">[,,]</text>
</g>
<!-- id&#45;&gt;dependency250383 -->
<g id="edge5" class="edge">
<title>id:e&#45;&gt;dependency250383:w</title>
<path fill="none" stroke="black" d="M487,-605C641.41,-563.83 605.36,-856.63 657.58,-889.94"/>
<polygon fill="black" stroke="black" points="666.83,-892.66 655.97,-894.15 663.2,-891.59 657.24,-889.84 657.24,-889.84 657.24,-889.84 663.2,-891.59 658.51,-885.52 666.83,-892.66"/>
</g>
<!-- dependency250384 -->
<g id="node7" class="node">
<title>dependency250384</title>
<polygon fill="none" stroke="blue" points="676,-971.5 676,-1076.5 780,-1076.5 780,-971.5 676,-971.5"/>
<text text-anchor="start" x="707" y="-1020.12" font-family="Helvetica,sans-Serif" font-size="10.00">pack_dep</text>
<polygon fill="none" stroke="blue" points="780,-1055.5 780,-1076.5 890,-1076.5 890,-1055.5 780,-1055.5"/>
<text text-anchor="start" x="829.75" y="-1062" font-family="Helvetica,sans-Serif" font-size="10.00">no</text>
<polygon fill="none" stroke="blue" points="780,-1034.5 780,-1055.5 890,-1055.5 890,-1034.5 780,-1034.5"/>
<text text-anchor="start" x="815.12" y="-1041" font-family="Helvetica,sans-Serif" font-size="10.00">kde&#45;apps</text>
<polygon fill="none" stroke="blue" points="780,-1013.5 780,-1034.5 890,-1034.5 890,-1013.5 780,-1013.5"/>
<text text-anchor="start" x="820.38" y="-1020" font-family="Helvetica,sans-Serif" font-size="10.00">kmime</text>
<polygon fill="none" stroke="blue" points="780,-992.5 780,-1013.5 890,-1013.5 890,-992.5 780,-992.5"/>
<text text-anchor="start" x="808.38" y="-999" font-family="Helvetica,sans-Serif" font-size="10.00">greaterequal</text>
<polygon fill="none" stroke="blue" points="780,-971.5 780,-992.5 890,-992.5 890,-971.5 780,-971.5"/>
<text text-anchor="start" x="795.25" y="-978" font-family="Helvetica,sans-Serif" font-size="10.00">[23.08.5,,,23.08.5]</text>
</g>
<!-- id&#45;&gt;dependency250384 -->
<g id="edge6" class="edge">
<title>id:e&#45;&gt;dependency250384:w</title>
<path fill="none" stroke="black" d="M487,-605C519.39,-596.36 536.19,-600.4 560,-624 688.12,-750.96 492.2,-1012.97 657.16,-1023.66"/>
<polygon fill="black" stroke="black" points="666.78,-1023.96 656.65,-1028.15 663,-1023.84 656.79,-1023.65 656.79,-1023.65 656.79,-1023.65 663,-1023.84 656.93,-1019.15 666.78,-1023.96"/>
</g>
<!-- dependency250385 -->
<g id="node8" class="node">
<title>dependency250385</title>
<polygon fill="none" stroke="red" points="445.75,-637.38 445.75,-670.62 526.25,-670.62 526.25,-637.38 445.75,-637.38"/>
<text text-anchor="start" x="456.75" y="-650.12" font-family="Helvetica,sans-Serif" font-size="10.00">any_of_group</text>
</g>
<!-- id&#45;&gt;dependency250385 -->
<g id="edge9" class="edge">
<title>id:e&#45;&gt;dependency250385:w</title>
<path fill="none" stroke="black" d="M305,-736C370.96,-736 368.33,-661.2 428.13,-654.48"/>
<ellipse fill="none" stroke="black" cx="432.51" cy="-654.24" rx="4" ry="4"/>
</g>
<!-- dependency250388 -->
<g id="node11" class="node">
<title>dependency250388</title>
<polygon fill="none" stroke="red" points="420,-715 420,-757 509,-757 509,-715 420,-715"/>
<text text-anchor="start" x="430.75" y="-732.12" font-family="Helvetica,sans-Serif" font-size="10.00">use_conditional</text>
<polygon fill="none" stroke="red" points="509,-736 509,-757 552,-757 552,-736 509,-736"/>
<text text-anchor="start" x="513.62" y="-742.5" font-family="Helvetica,sans-Serif" font-size="10.00">positive</text>
<polygon fill="none" stroke="red" points="509,-715 509,-736 552,-736 552,-715 509,-715"/>
<text text-anchor="start" x="522.62" y="-721.5" font-family="Helvetica,sans-Serif" font-size="10.00">doc</text>
</g>
<!-- id&#45;&gt;dependency250388 -->
<g id="edge11" class="edge">
<title>id:e&#45;&gt;dependency250388:w</title>
<path fill="none" stroke="black" d="M305,-736C348.98,-736 362.17,-736 402.06,-736"/>
<ellipse fill="none" stroke="black" cx="406.5" cy="-736" rx="4" ry="4"/>
</g>
<!-- dependency250390 -->
<g id="node13" class="node">
<title>dependency250390</title>
<polygon fill="none" stroke="blue" points="676,-159.5 676,-264.5 780,-264.5 780,-159.5 676,-159.5"/>
<text text-anchor="start" x="707" y="-208.12" font-family="Helvetica,sans-Serif" font-size="10.00">pack_dep</text>
<polygon fill="none" stroke="blue" points="780,-243.5 780,-264.5 890,-264.5 890,-243.5 780,-243.5"/>
<text text-anchor="start" x="829.75" y="-250" font-family="Helvetica,sans-Serif" font-size="10.00">no</text>
<polygon fill="none" stroke="blue" points="780,-222.5 780,-243.5 890,-243.5 890,-222.5 780,-222.5"/>
<text text-anchor="start" x="821.5" y="-229" font-family="Helvetica,sans-Serif" font-size="10.00">dev&#45;qt</text>
<polygon fill="none" stroke="blue" points="780,-201.5 780,-222.5 890,-222.5 890,-201.5 780,-201.5"/>
<text text-anchor="start" x="821.5" y="-208" font-family="Helvetica,sans-Serif" font-size="10.00">qtcore</text>
<polygon fill="none" stroke="blue" points="780,-180.5 780,-201.5 890,-201.5 890,-180.5 780,-180.5"/>
<text text-anchor="start" x="824.5" y="-187" font-family="Helvetica,sans-Serif" font-size="10.00">none</text>
<polygon fill="none" stroke="blue" points="780,-159.5 780,-180.5 890,-180.5 890,-159.5 780,-159.5"/>
<text text-anchor="start" x="829" y="-166" font-family="Helvetica,sans-Serif" font-size="10.00">[,,]</text>
</g>
<!-- id&#45;&gt;dependency250390 -->
<g id="edge12" class="edge">
<title>id:e&#45;&gt;dependency250390:w</title>
<path fill="none" stroke="black" d="M487,-605C669.81,-556.25 481.95,-222.99 659,-212.26"/>
<ellipse fill="none" stroke="black" cx="663.5" cy="-212.13" rx="4" ry="4"/>
</g>
<!-- dependency250391 -->
<g id="node14" class="node">
<title>dependency250391</title>
<polygon fill="none" stroke="blue" points="676,-552.5 676,-657.5 780,-657.5 780,-552.5 676,-552.5"/>
<text text-anchor="start" x="707" y="-601.12" font-family="Helvetica,sans-Serif" font-size="10.00">pack_dep</text>
<polygon fill="none" stroke="blue" points="780,-636.5 780,-657.5 890,-657.5 890,-636.5 780,-636.5"/>
<text text-anchor="start" x="829.75" y="-643" font-family="Helvetica,sans-Serif" font-size="10.00">no</text>
<polygon fill="none" stroke="blue" points="780,-615.5 780,-636.5 890,-636.5 890,-615.5 780,-615.5"/>
<text text-anchor="start" x="815.12" y="-622" font-family="Helvetica,sans-Serif" font-size="10.00">kde&#45;apps</text>
<polygon fill="none" stroke="blue" points="780,-594.5 780,-615.5 890,-615.5 890,-594.5 780,-594.5"/>
<text text-anchor="start" x="820.38" y="-601" font-family="Helvetica,sans-Serif" font-size="10.00">kmime</text>
<polygon fill="none" stroke="blue" points="780,-573.5 780,-594.5 890,-594.5 890,-573.5 780,-573.5"/>
<text text-anchor="start" x="808.38" y="-580" font-family="Helvetica,sans-Serif" font-size="10.00">greaterequal</text>
<polygon fill="none" stroke="blue" points="780,-552.5 780,-573.5 890,-573.5 890,-552.5 780,-552.5"/>
<text text-anchor="start" x="795.25" y="-559" font-family="Helvetica,sans-Serif" font-size="10.00">[23.08.5,,,23.08.5]</text>
</g>
<!-- id&#45;&gt;dependency250391 -->
<g id="edge13" class="edge">
<title>id:e&#45;&gt;dependency250391:w</title>
<path fill="none" stroke="black" d="M487,-605C561.84,-585.04 585.79,-603.52 659.28,-604.92"/>
<ellipse fill="none" stroke="black" cx="663.5" cy="-604.96" rx="4" ry="4"/>
</g>
<!-- dependency250392 -->
<g id="node15" class="node">
<title>dependency250392</title>
<polygon fill="none" stroke="blue" points="676,-28.5 676,-133.5 780,-133.5 780,-28.5 676,-28.5"/>
<text text-anchor="start" x="707" y="-77.12" font-family="Helvetica,sans-Serif" font-size="10.00">pack_dep</text>
<polygon fill="none" stroke="blue" points="780,-112.5 780,-133.5 890,-133.5 890,-112.5 780,-112.5"/>
<text text-anchor="start" x="829.75" y="-119" font-family="Helvetica,sans-Serif" font-size="10.00">no</text>
<polygon fill="none" stroke="blue" points="780,-91.5 780,-112.5 890,-112.5 890,-91.5 780,-91.5"/>
<text text-anchor="start" x="800.12" y="-98" font-family="Helvetica,sans-Serif" font-size="10.00">kde&#45;frameworks</text>
<polygon fill="none" stroke="blue" points="780,-70.5 780,-91.5 890,-91.5 890,-70.5 780,-70.5"/>
<text text-anchor="start" x="821.5" y="-77" font-family="Helvetica,sans-Serif" font-size="10.00">kf&#45;env</text>
<polygon fill="none" stroke="blue" points="780,-49.5 780,-70.5 890,-70.5 890,-49.5 780,-49.5"/>
<text text-anchor="start" x="808.38" y="-56" font-family="Helvetica,sans-Serif" font-size="10.00">greaterequal</text>
<polygon fill="none" stroke="blue" points="780,-28.5 780,-49.5 890,-49.5 890,-28.5 780,-28.5"/>
<text text-anchor="start" x="822.25" y="-35" font-family="Helvetica,sans-Serif" font-size="10.00">[4,,,4]</text>
</g>
<!-- id&#45;&gt;dependency250392 -->
<g id="edge14" class="edge">
<title>id:e&#45;&gt;dependency250392:w</title>
<path fill="none" stroke="black" d="M487,-605C722.17,-542.29 428.94,-92.18 659.22,-81.2"/>
<ellipse fill="none" stroke="black" cx="663.5" cy="-81.1" rx="4" ry="4"/>
<path fill="none" stroke="black" d="M305,-736C369.14,-736 341.3,-657.49 396,-624 430.49,-602.88 445.92,-615.42 485,-605"/>
</g>
<!-- dependency250380 -->
<g id="node3" class="node">
<title>dependency250380</title>
<polygon fill="none" stroke="blue" points="676,-1102.5 676,-1207.5 780,-1207.5 780,-1102.5 676,-1102.5"/>
<text text-anchor="start" x="707" y="-1151.12" font-family="Helvetica,sans-Serif" font-size="10.00">pack_dep</text>
<polygon fill="none" stroke="blue" points="780,-1186.5 780,-1207.5 890,-1207.5 890,-1186.5 780,-1186.5"/>
<text text-anchor="start" x="829.75" y="-1193" font-family="Helvetica,sans-Serif" font-size="10.00">no</text>
<polygon fill="none" stroke="blue" points="780,-1165.5 780,-1186.5 890,-1186.5 890,-1165.5 780,-1165.5"/>
<text text-anchor="start" x="821.5" y="-1172" font-family="Helvetica,sans-Serif" font-size="10.00">dev&#45;qt</text>
<polygon fill="none" stroke="blue" points="780,-1144.5 780,-1165.5 890,-1165.5 890,-1144.5 780,-1144.5"/>
<text text-anchor="start" x="818.88" y="-1151" font-family="Helvetica,sans-Serif" font-size="10.00">qt&#45;docs</text>
<polygon fill="none" stroke="blue" points="780,-1123.5 780,-1144.5 890,-1144.5 890,-1123.5 780,-1123.5"/>
<text text-anchor="start" x="824.5" y="-1130" font-family="Helvetica,sans-Serif" font-size="10.00">none</text>
<polygon fill="none" stroke="blue" points="780,-1102.5 780,-1123.5 890,-1123.5 890,-1102.5 780,-1102.5"/>
<text text-anchor="start" x="829" y="-1109" font-family="Helvetica,sans-Serif" font-size="10.00">[,,]</text>
</g>
<!-- dependency250379&#45;&gt;dependency250380 -->
<g id="edge1" class="edge">
<title>dependency250379:e&#45;&gt;dependency250380:w</title>
<path fill="none" stroke="black" stroke-dasharray="5,2" d="M560,-1008C637.11,-1008 591.89,-1141 657.06,-1153.98"/>
<polygon fill="black" stroke="black" points="666.79,-1154.89 656.41,-1158.44 663.02,-1154.54 656.83,-1153.96 656.83,-1153.96 656.83,-1153.96 663.02,-1154.54 657.25,-1149.48 666.79,-1154.89"/>
</g>
<!-- choice100101118451131164711311645100111991154553464953465095112504850484949495148544952 -->
<g id="node16" class="node">
<title>choice100101118451131164711311645100111991154553464953465095112504850484949495148544952</title>
<g id="a_node16"><a xlink:href="../dev-qt/qt-docs-5.15.2_p202011130614.svg" xlink:title="portage://dev&#45;qt/qt&#45;docs&#45;5.15.2_p202011130614">
<ellipse fill="none" stroke="red" cx="1156" cy="-844" rx="144" ry="18"/>
<text text-anchor="middle" x="1156" y="-840.12" font-family="Helvetica,sans-Serif" font-size="10.00">portage://dev&#45;qt/qt&#45;docs&#45;5.15.2_p202011130614</text>
</a>
</g>
</g>
<!-- dependency250380&#45;&gt;choice100101118451131164711311645100111991154553464953465095112504850484949495148544952 -->
<g id="edge15" class="edge">
<title>dependency250380:e&#45;&gt;choice100101118451131164711311645100111991154553464953465095112504850484949495148544952:w</title>
<path fill="none" stroke="black" stroke-dasharray="1,5" d="M905,-1155C1047.18,-1155 874.55,-860.18 1000.13,-844.64"/>
<polygon fill="black" stroke="black" points="1009.78,-844.07 1000.06,-849.15 1006.01,-844.29 999.8,-844.66 999.8,-844.66 999.8,-844.66 1006.01,-844.29 999.54,-840.16 1009.78,-844.07"/>
</g>
<!-- choice1001011184511311647113116451001119911545544655464995112504850524852505149504848 -->
<g id="node17" class="node">
<title>choice1001011184511311647113116451001119911545544655464995112504850524852505149504848</title>
<g id="a_node17"><a xlink:href="../dev-qt/qt-docs-6.7.1_p202404231200.svg" xlink:title="portage://dev&#45;qt/qt&#45;docs&#45;6.7.1_p202404231200">
<ellipse fill="none" stroke="red" cx="1156" cy="-790" rx="144" ry="18"/>
<text text-anchor="middle" x="1156" y="-786.12" font-family="Helvetica,sans-Serif" font-size="10.00">portage://dev&#45;qt/qt&#45;docs&#45;6.7.1_p202404231200</text>
</a>
</g>
</g>
<!-- dependency250380&#45;&gt;choice1001011184511311647113116451001119911545544655464995112504850524852505149504848 -->
<g id="edge16" class="edge">
<title>dependency250380:e&#45;&gt;choice1001011184511311647113116451001119911545544655464995112504850524852505149504848:w</title>
<path fill="none" stroke="black" stroke-dasharray="1,5" d="M905,-1155C1070.13,-1155 852.29,-806.21 1000.21,-790.54"/>
<polygon fill="black" stroke="black" points="1009.78,-790.06 1000.02,-795.06 1006.01,-790.25 999.8,-790.57 999.8,-790.57 999.8,-790.57 1006.01,-790.25 999.57,-786.07 1009.78,-790.06"/>
</g>
<!-- choice1001011184511311647113116451001119911545544655465095112504850524854494948515152 -->
<g id="node18" class="node">
<title>choice1001011184511311647113116451001119911545544655465095112504850524854494948515152</title>
<g id="a_node18"><a xlink:href="../dev-qt/qt-docs-6.7.2_p202406110334.svg" xlink:title="portage://dev&#45;qt/qt&#45;docs&#45;6.7.2_p202406110334">
<ellipse fill="none" stroke="red" cx="1156" cy="-736" rx="144" ry="18"/>
<text text-anchor="middle" x="1156" y="-732.12" font-family="Helvetica,sans-Serif" font-size="10.00">portage://dev&#45;qt/qt&#45;docs&#45;6.7.2_p202406110334</text>
</a>
</g>
</g>
<!-- dependency250380&#45;&gt;choice1001011184511311647113116451001119911545544655465095112504850524854494948515152 -->
<g id="edge17" class="edge">
<title>dependency250380:e&#45;&gt;choice1001011184511311647113116451001119911545544655465095112504850524854494948515152:w</title>
<path fill="none" stroke="black" stroke-dasharray="1,5" d="M905,-1155C1093.24,-1155 829.86,-752.61 1000.02,-736.5"/>
<polygon fill="black" stroke="black" points="1009.78,-736.06 1000,-741 1006.01,-736.23 999.79,-736.51 999.79,-736.51 999.79,-736.51 1006.01,-736.23 999.59,-732.01 1009.78,-736.06"/>
</g>
<!-- dependency250382 -->
<g id="node5" class="node">
<title>dependency250382</title>
<polygon fill="none" stroke="blue" points="676,-1233.5 676,-1338.5 780,-1338.5 780,-1233.5 676,-1233.5"/>
<text text-anchor="start" x="707" y="-1282.12" font-family="Helvetica,sans-Serif" font-size="10.00">pack_dep</text>
<polygon fill="none" stroke="blue" points="780,-1317.5 780,-1338.5 890,-1338.5 890,-1317.5 780,-1317.5"/>
<text text-anchor="start" x="829.75" y="-1324" font-family="Helvetica,sans-Serif" font-size="10.00">no</text>
<polygon fill="none" stroke="blue" points="780,-1296.5 780,-1317.5 890,-1317.5 890,-1296.5 780,-1296.5"/>
<text text-anchor="start" x="821.5" y="-1303" font-family="Helvetica,sans-Serif" font-size="10.00">dev&#45;qt</text>
<polygon fill="none" stroke="blue" points="780,-1275.5 780,-1296.5 890,-1296.5 890,-1275.5 780,-1275.5"/>
<text text-anchor="start" x="822.62" y="-1282" font-family="Helvetica,sans-Serif" font-size="10.00">qttest</text>
<polygon fill="none" stroke="blue" points="780,-1254.5 780,-1275.5 890,-1275.5 890,-1254.5 780,-1254.5"/>
<text text-anchor="start" x="824.5" y="-1261" font-family="Helvetica,sans-Serif" font-size="10.00">none</text>
<polygon fill="none" stroke="blue" points="780,-1233.5 780,-1254.5 890,-1254.5 890,-1233.5 780,-1233.5"/>
<text text-anchor="start" x="829" y="-1240" font-family="Helvetica,sans-Serif" font-size="10.00">[,,]</text>
</g>
<!-- dependency250381&#45;&gt;dependency250382 -->
<g id="edge3" class="edge">
<title>dependency250381:e&#45;&gt;dependency250382:w</title>
<path fill="none" stroke="black" stroke-dasharray="5,2" d="M560,-1181C623.02,-1181 603.77,-1274.06 657.15,-1284.96"/>
<polygon fill="black" stroke="black" points="666.79,-1285.88 656.4,-1289.41 663.02,-1285.52 656.83,-1284.93 656.83,-1284.93 656.83,-1284.93 663.02,-1285.52 657.26,-1280.45 666.79,-1285.88"/>
</g>
<!-- choice10010111845113116471131161161011151164553464953464952 -->
<g id="node19" class="node">
<title>choice10010111845113116471131161161011151164553464953464952</title>
<g id="a_node19"><a xlink:href="../dev-qt/qttest-5.15.14.svg" xlink:title="portage://dev&#45;qt/qttest&#45;5.15.14">
<ellipse fill="none" stroke="red" cx="1156" cy="-898" rx="144" ry="18"/>
<text text-anchor="middle" x="1156" y="-894.12" font-family="Helvetica,sans-Serif" font-size="10.00">portage://dev&#45;qt/qttest&#45;5.15.14</text>
</a>
</g>
</g>
<!-- dependency250382&#45;&gt;choice10010111845113116471131161161011151164553464953464952 -->
<g id="edge18" class="edge">
<title>dependency250382:e&#45;&gt;choice10010111845113116471131161161011151164553464953464952:w</title>
<path fill="none" stroke="black" stroke-dasharray="1,5" d="M905,-1286C1079.92,-1286 842.85,-914.49 1000.07,-898.53"/>
<polygon fill="black" stroke="black" points="1009.78,-898.06 1000.01,-903.04 1006.01,-898.24 999.79,-898.54 999.79,-898.54 999.79,-898.54 1006.01,-898.24 999.58,-894.05 1009.78,-898.06"/>
</g>
<!-- choice1001011184511311647113116991111141014553464953464952 -->
<g id="node20" class="node">
<title>choice1001011184511311647113116991111141014553464953464952</title>
<g id="a_node20"><a xlink:href="../dev-qt/qtcore-5.15.14.svg" xlink:title="portage://dev&#45;qt/qtcore&#45;5.15.14">
<ellipse fill="none" stroke="red" cx="1156" cy="-229" rx="144" ry="18"/>
<text text-anchor="middle" x="1156" y="-225.12" font-family="Helvetica,sans-Serif" font-size="10.00">portage://dev&#45;qt/qtcore&#45;5.15.14</text>
</a>
</g>
</g>
<!-- dependency250383&#45;&gt;choice1001011184511311647113116991111141014553464953464952 -->
<g id="edge19" class="edge">
<title>dependency250383:e&#45;&gt;choice1001011184511311647113116991111141014553464953464952:w</title>
<path fill="none" stroke="black" stroke-dasharray="1,5" d="M905,-893C1050.48,-893 871.51,-263.55 999.88,-230.36"/>
<polygon fill="black" stroke="black" points="1009.79,-229.15 1000.41,-234.83 1006.04,-229.61 999.86,-230.36 999.86,-230.36 999.86,-230.36 1006.04,-229.61 999.32,-225.9 1009.79,-229.15"/>
</g>
<!-- choice1071001014597112112115471071091051091014550514648564653 -->
<g id="node21" class="node">
<title>choice1071001014597112112115471071091051091014550514648564653</title>
<g id="a_node21"><a xlink:href="../kde-apps/kmime-23.08.5.svg" xlink:title="portage://kde&#45;apps/kmime&#45;23.08.5">
<ellipse fill="none" stroke="red" cx="1156" cy="-611" rx="144" ry="18"/>
<text text-anchor="middle" x="1156" y="-607.12" font-family="Helvetica,sans-Serif" font-size="10.00">portage://kde&#45;apps/kmime&#45;23.08.5</text>
</a>
</g>
</g>
<!-- dependency250384&#45;&gt;choice1071001014597112112115471071091051091014550514648564653 -->
<g id="edge20" class="edge">
<title>dependency250384:e&#45;&gt;choice1071001014597112112115471071091051091014550514648564653:w</title>
<path fill="none" stroke="black" stroke-dasharray="1,5" d="M905,-1024C1090.62,-1024 832.5,-627.77 999.92,-611.51"/>
<polygon fill="black" stroke="black" points="1009.78,-611.06 1000,-616.01 1006.01,-611.23 999.79,-611.52 999.79,-611.52 999.79,-611.52 1006.01,-611.23 999.59,-607.02 1009.78,-611.06"/>
</g>
<!-- choice1071001014597112112115471071091051091014550524648534649 -->
<g id="node22" class="node">
<title>choice1071001014597112112115471071091051091014550524648534649</title>
<g id="a_node22"><a xlink:href="../kde-apps/kmime-24.05.1.svg" xlink:title="portage://kde&#45;apps/kmime&#45;24.05.1">
<ellipse fill="none" stroke="red" cx="1156" cy="-671" rx="144" ry="18"/>
<text text-anchor="middle" x="1156" y="-667.12" font-family="Helvetica,sans-Serif" font-size="10.00">portage://kde&#45;apps/kmime&#45;24.05.1</text>
</a>
</g>
</g>
<!-- dependency250384&#45;&gt;choice1071001014597112112115471071091051091014550524648534649 -->
<g id="edge21" class="edge">
<title>dependency250384:e&#45;&gt;choice1071001014597112112115471071091051091014550524648534649:w</title>
<path fill="none" stroke="black" stroke-dasharray="1,5" d="M905,-1024C1064.97,-1024 857.37,-687.35 1000.11,-671.57"/>
<polygon fill="black" stroke="black" points="1009.78,-671.06 1000.03,-676.08 1006.01,-671.26 999.8,-671.59 999.8,-671.59 999.8,-671.59 1006.01,-671.26 999.56,-667.1 1009.78,-671.06"/>
</g>
<!-- dependency250386 -->
<g id="node9" class="node">
<title>dependency250386</title>
<polygon fill="none" stroke="blue" points="676,-421.5 676,-526.5 780,-526.5 780,-421.5 676,-421.5"/>
<text text-anchor="start" x="707" y="-470.12" font-family="Helvetica,sans-Serif" font-size="10.00">pack_dep</text>
<polygon fill="none" stroke="blue" points="780,-505.5 780,-526.5 890,-526.5 890,-505.5 780,-505.5"/>
<text text-anchor="start" x="829.75" y="-512" font-family="Helvetica,sans-Serif" font-size="10.00">no</text>
<polygon fill="none" stroke="blue" points="780,-484.5 780,-505.5 890,-505.5 890,-484.5 780,-484.5"/>
<text text-anchor="start" x="800.12" y="-491" font-family="Helvetica,sans-Serif" font-size="10.00">kde&#45;frameworks</text>
<polygon fill="none" stroke="blue" points="780,-463.5 780,-484.5 890,-484.5 890,-463.5 780,-463.5"/>
<text text-anchor="start" x="807.25" y="-470" font-family="Helvetica,sans-Serif" font-size="10.00">breeze&#45;icons</text>
<polygon fill="none" stroke="blue" points="780,-442.5 780,-463.5 890,-463.5 890,-442.5 780,-442.5"/>
<text text-anchor="start" x="824.5" y="-449" font-family="Helvetica,sans-Serif" font-size="10.00">none</text>
<polygon fill="none" stroke="blue" points="780,-421.5 780,-442.5 890,-442.5 890,-421.5 780,-421.5"/>
<text text-anchor="start" x="829" y="-428" font-family="Helvetica,sans-Serif" font-size="10.00">[,,]</text>
</g>
<!-- dependency250385&#45;&gt;dependency250386 -->
<g id="edge7" class="edge">
<title>dependency250385:e&#45;&gt;dependency250386:w</title>
<path fill="none" stroke="black" stroke-dasharray="1,5" d="M535,-654C630.78,-654 573.2,-487.11 657.59,-474.73"/>
<polygon fill="none" stroke="black" points="667.74,-477.53 657.53,-474.73 667.26,-470.54 667.74,-477.53"/>
</g>
<!-- dependency250387 -->
<g id="node10" class="node">
<title>dependency250387</title>
<polygon fill="none" stroke="blue" points="676,-290.5 676,-395.5 780,-395.5 780,-290.5 676,-290.5"/>
<text text-anchor="start" x="707" y="-339.12" font-family="Helvetica,sans-Serif" font-size="10.00">pack_dep</text>
<polygon fill="none" stroke="blue" points="780,-374.5 780,-395.5 890,-395.5 890,-374.5 780,-374.5"/>
<text text-anchor="start" x="829.75" y="-381" font-family="Helvetica,sans-Serif" font-size="10.00">no</text>
<polygon fill="none" stroke="blue" points="780,-353.5 780,-374.5 890,-374.5 890,-353.5 780,-353.5"/>
<text text-anchor="start" x="800.12" y="-360" font-family="Helvetica,sans-Serif" font-size="10.00">kde&#45;frameworks</text>
<polygon fill="none" stroke="blue" points="780,-332.5 780,-353.5 890,-353.5 890,-332.5 780,-332.5"/>
<text text-anchor="start" x="806.12" y="-339" font-family="Helvetica,sans-Serif" font-size="10.00">oxygen&#45;icons</text>
<polygon fill="none" stroke="blue" points="780,-311.5 780,-332.5 890,-332.5 890,-311.5 780,-311.5"/>
<text text-anchor="start" x="824.5" y="-318" font-family="Helvetica,sans-Serif" font-size="10.00">none</text>
<polygon fill="none" stroke="blue" points="780,-290.5 780,-311.5 890,-311.5 890,-290.5 780,-290.5"/>
<text text-anchor="start" x="829" y="-297" font-family="Helvetica,sans-Serif" font-size="10.00">[,,]</text>
</g>
<!-- dependency250385&#45;&gt;dependency250387 -->
<g id="edge8" class="edge">
<title>dependency250385:e&#45;&gt;dependency250387:w</title>
<path fill="none" stroke="black" stroke-dasharray="1,5" d="M535,-654C681.66,-654 525.67,-358 657.55,-343.55"/>
<polygon fill="none" stroke="black" points="667.68,-346.52 657.51,-343.55 667.32,-339.53 667.68,-346.52"/>
</g>
<!-- choice1071001014510211497109101119111114107115479811410110112210145105991111101154553464949544648 -->
<g id="node23" class="node">
<title>choice1071001014510211497109101119111114107115479811410110112210145105991111101154553464949544648</title>
<g id="a_node23"><a xlink:href="../kde-frameworks/breeze-icons-5.116.0.svg" xlink:title="portage://kde&#45;frameworks/breeze&#45;icons&#45;5.116.0">
<ellipse fill="none" stroke="red" cx="1156" cy="-501" rx="144" ry="18"/>
<text text-anchor="middle" x="1156" y="-497.12" font-family="Helvetica,sans-Serif" font-size="10.00">portage://kde&#45;frameworks/breeze&#45;icons&#45;5.116.0</text>
</a>
</g>
</g>
<!-- dependency250386&#45;&gt;choice1071001014510211497109101119111114107115479811410110112210145105991111101154553464949544648 -->
<g id="edge22" class="edge">
<title>dependency250386:e&#45;&gt;choice1071001014510211497109101119111114107115479811410110112210145105991111101154553464949544648:w</title>
<path fill="none" stroke="black" stroke-dasharray="1,5" d="M905,-474C949.63,-474 960.68,-496.75 999.8,-500.48"/>
<polygon fill="black" stroke="black" points="1009.78,-500.94 999.59,-504.98 1006.01,-500.77 999.79,-500.48 999.79,-500.48 999.79,-500.48 1006.01,-500.77 1000,-495.99 1009.78,-500.94"/>
</g>
<!-- choice107100101451021149710910111911111410711547981141011011221014510599111110115455446514648 -->
<g id="node24" class="node">
<title>choice107100101451021149710910111911111410711547981141011011221014510599111110115455446514648</title>
<g id="a_node24"><a xlink:href="../kde-frameworks/breeze-icons-6.3.0.svg" xlink:title="portage://kde&#45;frameworks/breeze&#45;icons&#45;6.3.0">
<ellipse fill="none" stroke="red" cx="1156" cy="-447" rx="144" ry="18"/>
<text text-anchor="middle" x="1156" y="-443.12" font-family="Helvetica,sans-Serif" font-size="10.00">portage://kde&#45;frameworks/breeze&#45;icons&#45;6.3.0</text>
</a>
</g>
</g>
<!-- dependency250386&#45;&gt;choice107100101451021149710910111911111410711547981141011011221014510599111110115455446514648 -->
<g id="edge23" class="edge">
<title>dependency250386:e&#45;&gt;choice107100101451021149710910111911111410711547981141011011221014510599111110115455446514648:w</title>
<path fill="none" stroke="black" stroke-dasharray="1,5" d="M905,-474C949.63,-474 960.68,-451.25 999.8,-447.52"/>
<polygon fill="black" stroke="black" points="1009.78,-447.06 1000,-452.01 1006.01,-447.23 999.79,-447.52 999.79,-447.52 999.79,-447.52 1006.01,-447.23 999.59,-443.02 1009.78,-447.06"/>
</g>
<!-- choice10710010145102114971091011191111141071154711112012110310111045105991111101154553464949544648 -->
<g id="node25" class="node">
<title>choice10710010145102114971091011191111141071154711112012110310111045105991111101154553464949544648</title>
<g id="a_node25"><a xlink:href="../kde-frameworks/oxygen-icons-5.116.0.svg" xlink:title="portage://kde&#45;frameworks/oxygen&#45;icons&#45;5.116.0">
<ellipse fill="none" stroke="red" cx="1156" cy="-300" rx="144" ry="18"/>
<text text-anchor="middle" x="1156" y="-296.12" font-family="Helvetica,sans-Serif" font-size="10.00">portage://kde&#45;frameworks/oxygen&#45;icons&#45;5.116.0</text>
</a>
</g>
</g>
<!-- dependency250387&#45;&gt;choice10710010145102114971091011191111141071154711112012110310111045105991111101154553464949544648 -->
<g id="edge24" class="edge">
<title>dependency250387:e&#45;&gt;choice10710010145102114971091011191111141071154711112012110310111045105991111101154553464949544648:w</title>
<path fill="none" stroke="black" stroke-dasharray="1,5" d="M905,-343C951.87,-343 959.2,-306.46 999.89,-300.75"/>
<polygon fill="black" stroke="black" points="1009.78,-300.08 1000.11,-305.24 1006.01,-300.34 999.81,-300.75 999.81,-300.75 999.81,-300.75 1006.01,-300.34 999.51,-296.26 1009.78,-300.08"/>
</g>
<!-- choice1071001014510211497109101119111114107115471111201211031011104510599111110115455446484648 -->
<g id="node26" class="node">
<title>choice1071001014510211497109101119111114107115471111201211031011104510599111110115455446484648</title>
<g id="a_node26"><a xlink:href="../kde-frameworks/oxygen-icons-6.0.0.svg" xlink:title="portage://kde&#45;frameworks/oxygen&#45;icons&#45;6.0.0">
<ellipse fill="none" stroke="red" cx="1156" cy="-354" rx="144" ry="18"/>
<text text-anchor="middle" x="1156" y="-350.12" font-family="Helvetica,sans-Serif" font-size="10.00">portage://kde&#45;frameworks/oxygen&#45;icons&#45;6.0.0</text>
</a>
</g>
</g>
<!-- dependency250387&#45;&gt;choice1071001014510211497109101119111114107115471111201211031011104510599111110115455446484648 -->
<g id="edge25" class="edge">
<title>dependency250387:e&#45;&gt;choice1071001014510211497109101119111114107115471111201211031011104510599111110115455446484648:w</title>
<path fill="none" stroke="black" stroke-dasharray="1,5" d="M905,-343C948.48,-343 961.54,-352.27 1000.03,-353.79"/>
<polygon fill="black" stroke="black" points="1009.78,-353.98 999.7,-358.28 1006,-353.9 999.78,-353.79 999.78,-353.79 999.78,-353.79 1006,-353.9 999.87,-349.29 1009.78,-353.98"/>
</g>
<!-- dependency250389 -->
<g id="node12" class="node">
<title>dependency250389</title>
<polygon fill="none" stroke="blue" points="676,-683.5 676,-788.5 780,-788.5 780,-683.5 676,-683.5"/>
<text text-anchor="start" x="707" y="-732.12" font-family="Helvetica,sans-Serif" font-size="10.00">pack_dep</text>
<polygon fill="none" stroke="blue" points="780,-767.5 780,-788.5 890,-788.5 890,-767.5 780,-767.5"/>
<text text-anchor="start" x="829.75" y="-774" font-family="Helvetica,sans-Serif" font-size="10.00">no</text>
<polygon fill="none" stroke="blue" points="780,-746.5 780,-767.5 890,-767.5 890,-746.5 780,-746.5"/>
<text text-anchor="start" x="821.5" y="-753" font-family="Helvetica,sans-Serif" font-size="10.00">dev&#45;qt</text>
<polygon fill="none" stroke="blue" points="780,-725.5 780,-746.5 890,-746.5 890,-725.5 780,-725.5"/>
<text text-anchor="start" x="818.88" y="-732" font-family="Helvetica,sans-Serif" font-size="10.00">qt&#45;docs</text>
<polygon fill="none" stroke="blue" points="780,-704.5 780,-725.5 890,-725.5 890,-704.5 780,-704.5"/>
<text text-anchor="start" x="824.5" y="-711" font-family="Helvetica,sans-Serif" font-size="10.00">none</text>
<polygon fill="none" stroke="blue" points="780,-683.5 780,-704.5 890,-704.5 890,-683.5 780,-683.5"/>
<text text-anchor="start" x="829" y="-690" font-family="Helvetica,sans-Serif" font-size="10.00">[,,]</text>
</g>
<!-- dependency250388&#45;&gt;dependency250389 -->
<g id="edge10" class="edge">
<title>dependency250388:e&#45;&gt;dependency250389:w</title>
<path fill="none" stroke="black" stroke-dasharray="5,2" d="M560,-736C604.06,-736 617.79,-736 656.87,-736"/>
<polygon fill="black" stroke="black" points="666.78,-736 656.78,-740.5 663,-736 656.78,-736 656.78,-736 656.78,-736 663,-736 656.78,-731.5 666.78,-736"/>
</g>
<!-- dependency250389&#45;&gt;choice100101118451131164711311645100111991154553464953465095112504850484949495148544952 -->
<g id="edge26" class="edge">
<title>dependency250389:e&#45;&gt;choice100101118451131164711311645100111991154553464953465095112504850484949495148544952:w</title>
<path fill="none" stroke="black" stroke-dasharray="1,5" d="M905,-736C968.32,-736 946.76,-831.71 1000.13,-842.93"/>
<polygon fill="black" stroke="black" points="1009.79,-843.88 999.4,-847.38 1006.02,-843.51 999.84,-842.9 999.84,-842.9 999.84,-842.9 1006.02,-843.51 1000.28,-838.42 1009.79,-843.88"/>
</g>
<!-- dependency250389&#45;&gt;choice1001011184511311647113116451001119911545544655464995112504850524852505149504848 -->
<g id="edge27" class="edge">
<title>dependency250389:e&#45;&gt;choice1001011184511311647113116451001119911545544655464995112504850524852505149504848:w</title>
<path fill="none" stroke="black" stroke-dasharray="1,5" d="M905,-736C953.95,-736 957.8,-782.28 1000.05,-789.15"/>
<polygon fill="black" stroke="black" points="1009.79,-789.91 999.47,-793.62 1006.01,-789.61 999.82,-789.13 999.82,-789.13 999.82,-789.13 1006.01,-789.61 1000.16,-784.65 1009.79,-789.91"/>
</g>
<!-- dependency250389&#45;&gt;choice1001011184511311647113116451001119911545544655465095112504850524854494948515152 -->
<g id="edge28" class="edge">
<title>dependency250389:e&#45;&gt;choice1001011184511311647113116451001119911545544655465095112504850524854494948515152:w</title>
<path fill="none" stroke="black" stroke-dasharray="1,5" d="M905,-736C948.25,-736 961.72,-736 1000.08,-736"/>
<polygon fill="black" stroke="black" points="1009.78,-736 999.78,-740.5 1006,-736 999.78,-736 999.78,-736 999.78,-736 1006,-736 999.78,-731.5 1009.78,-736"/>
</g>
<!-- dependency250390&#45;&gt;choice1001011184511311647113116991111141014553464953464952 -->
<g id="edge29" class="edge">
<title>dependency250390:e&#45;&gt;choice1001011184511311647113116991111141014553464953464952:w</title>
<path fill="none" stroke="black" stroke-dasharray="1,5" d="M905,-212C948.8,-212 961.3,-226.33 999.97,-228.68"/>
<polygon fill="black" stroke="black" points="1009.78,-228.96 999.65,-233.17 1006,-228.85 999.79,-228.67 999.79,-228.67 999.79,-228.67 1006,-228.85 999.92,-224.17 1009.78,-228.96"/>
</g>
<!-- dependency250391&#45;&gt;choice1071001014597112112115471071091051091014550514648564653 -->
<g id="edge30" class="edge">
<title>dependency250391:e&#45;&gt;choice1071001014597112112115471071091051091014550514648564653:w</title>
<path fill="none" stroke="black" stroke-dasharray="1,5" d="M905,-605C948.32,-605 961.67,-610.06 1000.07,-610.89"/>
<polygon fill="black" stroke="black" points="1009.78,-610.99 999.74,-615.38 1006,-610.95 999.78,-610.88 999.78,-610.88 999.78,-610.88 1006,-610.95 999.83,-606.38 1009.78,-610.99"/>
</g>
<!-- dependency250391&#45;&gt;choice1071001014597112112115471071091051091014550524648534649 -->
<g id="edge31" class="edge">
<title>dependency250391:e&#45;&gt;choice1071001014597112112115471071091051091014550524648534649:w</title>
<path fill="none" stroke="black" stroke-dasharray="1,5" d="M905,-605C956.49,-605 955.91,-661.81 999.87,-670.02"/>
<polygon fill="black" stroke="black" points="1009.79,-670.89 999.43,-674.49 1006.02,-670.56 999.83,-670.01 999.83,-670.01 999.83,-670.01 1006.02,-670.56 1000.22,-665.53 1009.79,-670.89"/>
</g>
<!-- choice107100101451021149710910111911111410711547107102451011101184553 -->
<g id="node27" class="node">
<title>choice107100101451021149710910111911111410711547107102451011101184553</title>
<g id="a_node27"><a xlink:href="../kde-frameworks/kf-env-5.svg" xlink:title="portage://kde&#45;frameworks/kf&#45;env&#45;5">
<ellipse fill="none" stroke="red" cx="1156" cy="-135" rx="144" ry="18"/>
<text text-anchor="middle" x="1156" y="-131.12" font-family="Helvetica,sans-Serif" font-size="10.00">portage://kde&#45;frameworks/kf&#45;env&#45;5</text>
</a>
</g>
</g>
<!-- dependency250392&#45;&gt;choice107100101451021149710910111911111410711547107102451011101184553 -->
<g id="edge32" class="edge">
<title>dependency250392:e&#45;&gt;choice107100101451021149710910111911111410711547107102451011101184553:w</title>
<path fill="none" stroke="black" stroke-dasharray="1,5" d="M905,-81C953.95,-81 957.8,-127.28 1000.05,-134.15"/>
<polygon fill="black" stroke="black" points="1009.79,-134.91 999.47,-138.62 1006.01,-134.61 999.82,-134.13 999.82,-134.13 999.82,-134.13 1006.01,-134.61 1000.16,-129.65 1009.79,-134.91"/>
</g>
<!-- choice107100101451021149710910111911111410711547107102451011101184554 -->
<g id="node28" class="node">
<title>choice107100101451021149710910111911111410711547107102451011101184554</title>
<g id="a_node28"><a xlink:href="../kde-frameworks/kf-env-6.svg" xlink:title="portage://kde&#45;frameworks/kf&#45;env&#45;6">
<ellipse fill="none" stroke="red" cx="1156" cy="-81" rx="144" ry="18"/>
<text text-anchor="middle" x="1156" y="-77.12" font-family="Helvetica,sans-Serif" font-size="10.00">portage://kde&#45;frameworks/kf&#45;env&#45;6</text>
</a>
</g>
</g>
<!-- dependency250392&#45;&gt;choice107100101451021149710910111911111410711547107102451011101184554 -->
<g id="edge33" class="edge">
<title>dependency250392:e&#45;&gt;choice107100101451021149710910111911111410711547107102451011101184554:w</title>
<path fill="none" stroke="black" stroke-dasharray="1,5" d="M905,-81C948.25,-81 961.72,-81 1000.08,-81"/>
<polygon fill="black" stroke="black" points="1009.78,-81 999.78,-85.5 1006,-81 999.78,-81 999.78,-81 999.78,-81 1006,-81 999.78,-76.5 1009.78,-81"/>
</g>
</g>
</svg>
