<?xml version="1.0" encoding="UTF-8" standalone="no"?>
<!DOCTYPE svg PUBLIC "-//W3C//DTD SVG 1.1//EN"
 "http://www.w3.org/Graphics/SVG/1.1/DTD/svg11.dtd">
<!-- Generated by graphviz version 2.41.20171026.1811 (20171026.1811)
 -->
<!-- Title: prolog Pages: 1 -->
<svg width="1330pt" height="1324pt"
 viewBox="0.00 0.00 1330.00 1324.00" xmlns="http://www.w3.org/2000/svg" xmlns:xlink="http://www.w3.org/1999/xlink">
<g id="graph0" class="graph" transform="scale(1 1) rotate(0) translate(4 1320)">
<title>prolog</title>
<polygon fill="white" stroke="transparent" points="-4,4 -4,-1320 1326,-1320 1326,4 -4,4"/>
<g id="clust1" class="cluster">
<title>cluster_leftcol</title>
<polygon fill="none" stroke="gray" points="8,-795 8,-867 312,-867 312,-795 8,-795"/>
<text text-anchor="start" x="146.66" y="-855" font-family="Helvetica,sans-Serif" font-style="italic" font-size="10.00">ebuild</text>
</g>
<g id="clust2" class="cluster">
<title>cluster_midcol</title>
<polygon fill="none" stroke="gray" points="396,-8 396,-1308 926,-1308 926,-8 396,-8"/>
<text text-anchor="start" x="629.88" y="-1296" font-family="Helvetica,sans-Serif" font-style="italic" font-size="10.00">dependencies</text>
</g>
<g id="clust3" class="cluster">
<title>cluster_compile</title>
<polygon fill="#eeeeee" stroke="gray" points="666,-1138 666,-1280 918,-1280 918,-1138 666,-1138"/>
<text text-anchor="start" x="774.78" y="-1268" font-family="Helvetica,sans-Serif" font-style="italic" font-size="10.00">compile</text>
</g>
<g id="clust5" class="cluster">
<title>cluster_compileandrun</title>
<polygon fill="#eeeeee" stroke="gray" points="404,-16 404,-1064 918,-1064 918,-16 404,-16"/>
<text text-anchor="start" x="625.44" y="-1052" font-family="Helvetica,sans-Serif" font-style="italic" font-size="10.00">compile and run</text>
</g>
<g id="clust18" class="cluster">
<title>cluster_choices</title>
<polygon fill="none" stroke="gray" points="1010,-121 1010,-1299 1314,-1299 1314,-121 1010,-121"/>
<text text-anchor="start" x="1137.82" y="-1287" font-family="Helvetica,sans-Serif" font-style="italic" font-size="10.00">candidates</text>
</g>
<!-- id -->
<g id="node1" class="node">
<title>id</title>
<g id="a_node1"><a xlink:href="../net-mail/asmail-2.1-r1.svg" xlink:title="net&#45;mail/asmail&#45;2.1&#45;r1">
<ellipse fill="none" stroke="red" cx="160" cy="-821" rx="144" ry="18"/>
<text text-anchor="middle" x="160" y="-818" font-family="Helvetica,sans-Serif" font-size="10.00">net&#45;mail/asmail&#45;2.1&#45;r1</text>
</a>
</g>
</g>
<!-- dependency1662878 -->
<g id="node2" class="node">
<title>dependency1662878</title>
<polygon fill="none" stroke="blue" points="682,-1150 682,-1248 787,-1248 787,-1150 682,-1150"/>
<text text-anchor="start" x="712.82" y="-1196" font-family="Helvetica,sans-Serif" font-size="10.00">pack_dep</text>
<polygon fill="none" stroke="blue" points="787,-1226 787,-1248 897,-1248 897,-1226 787,-1226"/>
<text text-anchor="start" x="836.44" y="-1234" font-family="Helvetica,sans-Serif" font-size="10.00">no</text>
<polygon fill="none" stroke="blue" points="787,-1204 787,-1226 897,-1226 897,-1204 787,-1204"/>
<text text-anchor="start" x="821.44" y="-1212" font-family="Helvetica,sans-Serif" font-size="10.00">x11&#45;base</text>
<polygon fill="none" stroke="blue" points="787,-1182 787,-1204 897,-1204 897,-1182 787,-1182"/>
<text text-anchor="start" x="819.22" y="-1190" font-family="Helvetica,sans-Serif" font-size="10.00">xorg&#45;proto</text>
<polygon fill="none" stroke="blue" points="787,-1160 787,-1182 897,-1182 897,-1160 787,-1160"/>
<text text-anchor="start" x="830.88" y="-1168" font-family="Helvetica,sans-Serif" font-size="10.00">none</text>
<polygon fill="none" stroke="blue" points="787,-1150 787,-1160 897,-1160 897,-1150 787,-1150"/>
</g>
<!-- id&#45;&gt;dependency1662878 -->
<g id="edge1" class="edge">
<title>id:e&#45;&gt;dependency1662878:w</title>
<path fill="none" stroke="black" d="M305,-821C421.99,-821 317.03,-981.69 396,-1068 485.6,-1165.92 534.31,-1197.4 662.79,-1198.94"/>
<polygon fill="black" stroke="black" points="673,-1199 662.97,-1203.44 668,-1198.97 663,-1198.94 663,-1198.94 663,-1198.94 668,-1198.97 663.03,-1194.44 673,-1199 673,-1199"/>
</g>
<!-- dependency1662879 -->
<g id="node3" class="node">
<title>dependency1662879</title>
<polygon fill="none" stroke="red" points="420,-915 420,-959 511,-959 511,-915 420,-915"/>
<text text-anchor="start" x="430.77" y="-934" font-family="Helvetica,sans-Serif" font-size="10.00">use_conditional</text>
<polygon fill="none" stroke="red" points="511,-937 511,-959 558,-959 558,-937 511,-937"/>
<text text-anchor="start" x="515.6" y="-945" font-family="Helvetica,sans-Serif" font-size="10.00">negative</text>
<polygon fill="none" stroke="red" points="511,-915 511,-937 558,-937 558,-915 511,-915"/>
<text text-anchor="start" x="518.95" y="-923" font-family="Helvetica,sans-Serif" font-size="10.00">libressl</text>
</g>
<!-- id&#45;&gt;dependency1662879 -->
<g id="edge3" class="edge">
<title>id:e&#45;&gt;dependency1662879:w</title>
<path fill="none" stroke="black" d="M305,-821C367.88,-821 346.84,-915.04 393.01,-933.78"/>
<ellipse fill="none" stroke="black" cx="407.06" cy="-936.29" rx="4" ry="4"/>
<polygon fill="black" stroke="black" points="403.13,-935.59 392.49,-938.26 398.2,-934.71 393.28,-933.83 393.28,-933.83 393.28,-933.83 398.2,-934.71 394.08,-929.4 403.13,-935.59 403.13,-935.59"/>
</g>
<!-- dependency1662881 -->
<g id="node5" class="node">
<title>dependency1662881</title>
<polygon fill="none" stroke="red" points="422,-799 422,-843 513,-843 513,-799 422,-799"/>
<text text-anchor="start" x="432.77" y="-818" font-family="Helvetica,sans-Serif" font-size="10.00">use_conditional</text>
<polygon fill="none" stroke="red" points="513,-821 513,-843 556,-843 556,-821 513,-821"/>
<text text-anchor="start" x="517.55" y="-829" font-family="Helvetica,sans-Serif" font-size="10.00">positive</text>
<polygon fill="none" stroke="red" points="513,-799 513,-821 556,-821 556,-799 513,-799"/>
<text text-anchor="start" x="525.05" y="-807" font-family="Helvetica,sans-Serif" font-size="10.00">jpeg</text>
</g>
<!-- id&#45;&gt;dependency1662881 -->
<g id="edge5" class="edge">
<title>id:e&#45;&gt;dependency1662881:w</title>
<path fill="none" stroke="black" d="M305,-821C346.25,-821 360.91,-821 394.69,-821"/>
<ellipse fill="none" stroke="black" cx="409" cy="-821" rx="4" ry="4"/>
<polygon fill="black" stroke="black" points="405,-821 395,-825.5 400,-821 395,-821 395,-821 395,-821 400,-821 395,-816.5 405,-821 405,-821"/>
</g>
<!-- dependency1662883 -->
<g id="node7" class="node">
<title>dependency1662883</title>
<polygon fill="none" stroke="red" points="422,-702 422,-746 513,-746 513,-702 422,-702"/>
<text text-anchor="start" x="432.77" y="-721" font-family="Helvetica,sans-Serif" font-size="10.00">use_conditional</text>
<polygon fill="none" stroke="red" points="513,-724 513,-746 556,-746 556,-724 513,-724"/>
<text text-anchor="start" x="517.55" y="-732" font-family="Helvetica,sans-Serif" font-size="10.00">positive</text>
<polygon fill="none" stroke="red" points="513,-702 513,-724 556,-724 556,-702 513,-702"/>
<text text-anchor="start" x="518.95" y="-710" font-family="Helvetica,sans-Serif" font-size="10.00">libressl</text>
</g>
<!-- id&#45;&gt;dependency1662883 -->
<g id="edge7" class="edge">
<title>id:e&#45;&gt;dependency1662883:w</title>
<path fill="none" stroke="black" d="M305,-821C362.71,-821 351.97,-743.38 395.24,-727.01"/>
<ellipse fill="none" stroke="black" cx="409.06" cy="-724.67" rx="4" ry="4"/>
<polygon fill="black" stroke="black" points="405.11,-725.34 396,-731.44 400.18,-726.17 395.25,-727.01 395.25,-727.01 395.25,-727.01 400.18,-726.17 394.5,-722.57 405.11,-725.34 405.11,-725.34"/>
</g>
<!-- dependency1662885 -->
<g id="node9" class="node">
<title>dependency1662885</title>
<polygon fill="none" stroke="blue" points="682,-524 682,-622 787,-622 787,-524 682,-524"/>
<text text-anchor="start" x="712.82" y="-570" font-family="Helvetica,sans-Serif" font-size="10.00">pack_dep</text>
<polygon fill="none" stroke="blue" points="787,-600 787,-622 897,-622 897,-600 787,-600"/>
<text text-anchor="start" x="836.44" y="-608" font-family="Helvetica,sans-Serif" font-size="10.00">no</text>
<polygon fill="none" stroke="blue" points="787,-578 787,-600 897,-600 897,-578 787,-578"/>
<text text-anchor="start" x="824.78" y="-586" font-family="Helvetica,sans-Serif" font-size="10.00">x11&#45;libs</text>
<polygon fill="none" stroke="blue" points="787,-556 787,-578 897,-578 897,-556 787,-556"/>
<text text-anchor="start" x="828.67" y="-564" font-family="Helvetica,sans-Serif" font-size="10.00">libICE</text>
<polygon fill="none" stroke="blue" points="787,-534 787,-556 897,-556 897,-534 787,-534"/>
<text text-anchor="start" x="830.88" y="-542" font-family="Helvetica,sans-Serif" font-size="10.00">none</text>
<polygon fill="none" stroke="blue" points="787,-524 787,-534 897,-534 897,-524 787,-524"/>
</g>
<!-- id&#45;&gt;dependency1662885 -->
<g id="edge8" class="edge">
<title>id:e&#45;&gt;dependency1662885:w</title>
<path fill="none" stroke="black" d="M490,-387C582.67,-328.64 560.09,-546.37 654.95,-570.79"/>
<ellipse fill="none" stroke="black" cx="669.03" cy="-572.51" rx="4" ry="4"/>
<polygon fill="black" stroke="black" points="665.06,-572.03 654.59,-575.28 660.1,-571.42 655.13,-570.81 655.13,-570.81 655.13,-570.81 660.1,-571.42 655.68,-566.35 665.06,-572.03 665.06,-572.03"/>
</g>
<!-- dependency1662886 -->
<g id="node10" class="node">
<title>dependency1662886</title>
<polygon fill="none" stroke="blue" points="682,-400 682,-498 787,-498 787,-400 682,-400"/>
<text text-anchor="start" x="712.82" y="-446" font-family="Helvetica,sans-Serif" font-size="10.00">pack_dep</text>
<polygon fill="none" stroke="blue" points="787,-476 787,-498 897,-498 897,-476 787,-476"/>
<text text-anchor="start" x="836.44" y="-484" font-family="Helvetica,sans-Serif" font-size="10.00">no</text>
<polygon fill="none" stroke="blue" points="787,-454 787,-476 897,-476 897,-454 787,-454"/>
<text text-anchor="start" x="824.78" y="-462" font-family="Helvetica,sans-Serif" font-size="10.00">x11&#45;libs</text>
<polygon fill="none" stroke="blue" points="787,-432 787,-454 897,-454 897,-432 787,-432"/>
<text text-anchor="start" x="829.5" y="-440" font-family="Helvetica,sans-Serif" font-size="10.00">libSM</text>
<polygon fill="none" stroke="blue" points="787,-410 787,-432 897,-432 897,-410 787,-410"/>
<text text-anchor="start" x="830.88" y="-418" font-family="Helvetica,sans-Serif" font-size="10.00">none</text>
<polygon fill="none" stroke="blue" points="787,-400 787,-410 897,-410 897,-400 787,-400"/>
</g>
<!-- id&#45;&gt;dependency1662886 -->
<g id="edge9" class="edge">
<title>id:e&#45;&gt;dependency1662886:w</title>
<path fill="none" stroke="black" d="M490,-387C557.27,-344.64 583.23,-433.85 654.85,-447.33"/>
<ellipse fill="none" stroke="black" cx="669.02" cy="-448.63" rx="4" ry="4"/>
<polygon fill="black" stroke="black" points="665.03,-448.27 654.66,-451.83 660.05,-447.81 655.08,-447.35 655.08,-447.35 655.08,-447.35 660.05,-447.81 655.49,-442.87 665.03,-448.27 665.03,-448.27"/>
</g>
<!-- dependency1662887 -->
<g id="node11" class="node">
<title>dependency1662887</title>
<polygon fill="none" stroke="blue" points="682,-276 682,-374 787,-374 787,-276 682,-276"/>
<text text-anchor="start" x="712.82" y="-322" font-family="Helvetica,sans-Serif" font-size="10.00">pack_dep</text>
<polygon fill="none" stroke="blue" points="787,-352 787,-374 897,-374 897,-352 787,-352"/>
<text text-anchor="start" x="836.44" y="-360" font-family="Helvetica,sans-Serif" font-size="10.00">no</text>
<polygon fill="none" stroke="blue" points="787,-330 787,-352 897,-352 897,-330 787,-330"/>
<text text-anchor="start" x="824.78" y="-338" font-family="Helvetica,sans-Serif" font-size="10.00">x11&#45;libs</text>
<polygon fill="none" stroke="blue" points="787,-308 787,-330 897,-330 897,-308 787,-308"/>
<text text-anchor="start" x="828.11" y="-316" font-family="Helvetica,sans-Serif" font-size="10.00">libX11</text>
<polygon fill="none" stroke="blue" points="787,-286 787,-308 897,-308 897,-286 787,-286"/>
<text text-anchor="start" x="830.88" y="-294" font-family="Helvetica,sans-Serif" font-size="10.00">none</text>
<polygon fill="none" stroke="blue" points="787,-276 787,-286 897,-286 897,-276 787,-276"/>
</g>
<!-- id&#45;&gt;dependency1662887 -->
<g id="edge10" class="edge">
<title>id:e&#45;&gt;dependency1662887:w</title>
<path fill="none" stroke="black" d="M490,-387C557.27,-344.64 583.23,-327.57 654.85,-325.27"/>
<ellipse fill="none" stroke="black" cx="669" cy="-325.06" rx="4" ry="4"/>
<polygon fill="black" stroke="black" points="665,-325.12 655.07,-329.77 660,-325.2 655,-325.27 655,-325.27 655,-325.27 660,-325.2 654.93,-320.77 665,-325.12 665,-325.12"/>
</g>
<!-- dependency1662888 -->
<g id="node12" class="node">
<title>dependency1662888</title>
<polygon fill="none" stroke="blue" points="682,-152 682,-250 787,-250 787,-152 682,-152"/>
<text text-anchor="start" x="712.82" y="-198" font-family="Helvetica,sans-Serif" font-size="10.00">pack_dep</text>
<polygon fill="none" stroke="blue" points="787,-228 787,-250 897,-250 897,-228 787,-228"/>
<text text-anchor="start" x="836.44" y="-236" font-family="Helvetica,sans-Serif" font-size="10.00">no</text>
<polygon fill="none" stroke="blue" points="787,-206 787,-228 897,-228 897,-206 787,-206"/>
<text text-anchor="start" x="824.78" y="-214" font-family="Helvetica,sans-Serif" font-size="10.00">x11&#45;libs</text>
<polygon fill="none" stroke="blue" points="787,-184 787,-206 897,-206 897,-184 787,-184"/>
<text text-anchor="start" x="827" y="-192" font-family="Helvetica,sans-Serif" font-size="10.00">libXext</text>
<polygon fill="none" stroke="blue" points="787,-162 787,-184 897,-184 897,-162 787,-162"/>
<text text-anchor="start" x="830.88" y="-170" font-family="Helvetica,sans-Serif" font-size="10.00">none</text>
<polygon fill="none" stroke="blue" points="787,-152 787,-162 897,-162 897,-152 787,-152"/>
</g>
<!-- id&#45;&gt;dependency1662888 -->
<g id="edge11" class="edge">
<title>id:e&#45;&gt;dependency1662888:w</title>
<path fill="none" stroke="black" d="M490,-387C582.67,-328.64 560.09,-214.63 654.95,-202.12"/>
<ellipse fill="none" stroke="black" cx="669.01" cy="-201.25" rx="4" ry="4"/>
<polygon fill="black" stroke="black" points="665.02,-201.5 655.31,-206.61 660.03,-201.81 655.03,-202.12 655.03,-202.12 655.03,-202.12 660.03,-201.81 654.76,-197.63 665.02,-201.5 665.02,-201.5"/>
</g>
<!-- dependency1662889 -->
<g id="node13" class="node">
<title>dependency1662889</title>
<polygon fill="none" stroke="blue" points="682,-28 682,-126 787,-126 787,-28 682,-28"/>
<text text-anchor="start" x="712.82" y="-74" font-family="Helvetica,sans-Serif" font-size="10.00">pack_dep</text>
<polygon fill="none" stroke="blue" points="787,-104 787,-126 897,-126 897,-104 787,-104"/>
<text text-anchor="start" x="836.44" y="-112" font-family="Helvetica,sans-Serif" font-size="10.00">no</text>
<polygon fill="none" stroke="blue" points="787,-82 787,-104 897,-104 897,-82 787,-82"/>
<text text-anchor="start" x="824.78" y="-90" font-family="Helvetica,sans-Serif" font-size="10.00">x11&#45;libs</text>
<polygon fill="none" stroke="blue" points="787,-60 787,-82 897,-82 897,-60 787,-60"/>
<text text-anchor="start" x="826.72" y="-68" font-family="Helvetica,sans-Serif" font-size="10.00">libXpm</text>
<polygon fill="none" stroke="blue" points="787,-38 787,-60 897,-60 897,-38 787,-38"/>
<text text-anchor="start" x="830.88" y="-46" font-family="Helvetica,sans-Serif" font-size="10.00">none</text>
<polygon fill="none" stroke="blue" points="787,-28 787,-38 897,-38 897,-28 787,-28"/>
</g>
<!-- id&#45;&gt;dependency1662889 -->
<g id="edge12" class="edge">
<title>id:e&#45;&gt;dependency1662889:w</title>
<path fill="none" stroke="black" d="M490,-387C619.83,-305.24 521.81,-95.2 654.65,-78.11"/>
<ellipse fill="none" stroke="black" cx="669.01" cy="-77.24" rx="4" ry="4"/>
<polygon fill="black" stroke="black" points="665.01,-77.48 655.3,-82.58 660.02,-77.78 655.03,-78.09 655.03,-78.09 655.03,-78.09 660.02,-77.78 654.76,-73.59 665.01,-77.48 665.01,-77.48"/>
<path fill="none" stroke="black" d="M305,-821C409.67,-821 399.43,-442.77 488,-387"/>
</g>
<!-- choice1204949459897115101471201111141034511211411111611145504849564652 -->
<g id="node14" class="node">
<title>choice1204949459897115101471201111141034511211411111611145504849564652</title>
<g id="a_node14"><a xlink:href="../x11-base/xorg-proto-2018.4.svg" xlink:title="x11&#45;base/xorg&#45;proto&#45;2018.4">
<ellipse fill="none" stroke="red" cx="1162" cy="-1253" rx="144" ry="18"/>
<text text-anchor="middle" x="1162" y="-1250" font-family="Helvetica,sans-Serif" font-size="10.00">x11&#45;base/xorg&#45;proto&#45;2018.4</text>
</a>
</g>
</g>
<!-- dependency1662878&#45;&gt;choice1204949459897115101471201111141034511211411111611145504849564652 -->
<g id="edge13" class="edge">
<title>dependency1662878:e&#45;&gt;choice1204949459897115101471201111141034511211411111611145504849564652:w</title>
<path fill="none" stroke="black" stroke-dasharray="1,5" d="M911,-1199C960.26,-1199 963.85,-1245.87 1006.86,-1252.28"/>
<polygon fill="black" stroke="black" points="1017,-1253 1006.71,-1256.78 1012.01,-1252.64 1007.03,-1252.29 1007.03,-1252.29 1007.03,-1252.29 1012.01,-1252.64 1007.35,-1247.8 1017,-1253 1017,-1253"/>
</g>
<!-- choice120494945989711510147120111114103451121141111161114557575757 -->
<g id="node15" class="node">
<title>choice120494945989711510147120111114103451121141111161114557575757</title>
<g id="a_node15"><a xlink:href="../x11-base/xorg-proto-9999.svg" xlink:title="x11&#45;base/xorg&#45;proto&#45;9999">
<ellipse fill="none" stroke="red" cx="1162" cy="-1199" rx="144" ry="18"/>
<text text-anchor="middle" x="1162" y="-1196" font-family="Helvetica,sans-Serif" font-size="10.00">x11&#45;base/xorg&#45;proto&#45;9999</text>
</a>
</g>
</g>
<!-- dependency1662878&#45;&gt;choice120494945989711510147120111114103451121141111161114557575757 -->
<g id="edge14" class="edge">
<title>dependency1662878:e&#45;&gt;choice120494945989711510147120111114103451121141111161114557575757:w</title>
<path fill="none" stroke="black" stroke-dasharray="1,5" d="M911,-1199C954.43,-1199 967.83,-1199 1006.57,-1199"/>
<polygon fill="black" stroke="black" points="1017,-1199 1007,-1203.5 1012,-1199 1007,-1199 1007,-1199 1007,-1199 1012,-1199 1007,-1194.5 1017,-1199 1017,-1199"/>
</g>
<!-- dependency1662880 -->
<g id="node4" class="node">
<title>dependency1662880</title>
<polygon fill="none" stroke="blue" points="682,-934 682,-1032 787,-1032 787,-934 682,-934"/>
<text text-anchor="start" x="712.82" y="-980" font-family="Helvetica,sans-Serif" font-size="10.00">pack_dep</text>
<polygon fill="none" stroke="blue" points="787,-1010 787,-1032 897,-1032 897,-1010 787,-1010"/>
<text text-anchor="start" x="836.44" y="-1018" font-family="Helvetica,sans-Serif" font-size="10.00">no</text>
<polygon fill="none" stroke="blue" points="787,-988 787,-1010 897,-1010 897,-988 787,-988"/>
<text text-anchor="start" x="824.78" y="-996" font-family="Helvetica,sans-Serif" font-size="10.00">dev&#45;libs</text>
<polygon fill="none" stroke="blue" points="787,-966 787,-988 897,-988 897,-966 787,-966"/>
<text text-anchor="start" x="824.77" y="-974" font-family="Helvetica,sans-Serif" font-size="10.00">openssl</text>
<polygon fill="none" stroke="blue" points="787,-944 787,-966 897,-966 897,-944 787,-944"/>
<text text-anchor="start" x="830.88" y="-952" font-family="Helvetica,sans-Serif" font-size="10.00">none</text>
<polygon fill="none" stroke="blue" points="787,-934 787,-944 897,-944 897,-934 787,-934"/>
</g>
<!-- dependency1662879&#45;&gt;dependency1662880 -->
<g id="edge2" class="edge">
<title>dependency1662879:e&#45;&gt;dependency1662880:w</title>
<path fill="none" stroke="black" stroke-dasharray="5,2" d="M566,-937C614.12,-937 620.51,-976.76 662.76,-982.35"/>
<polygon fill="black" stroke="black" points="673,-983 662.73,-986.86 668.01,-982.68 663.02,-982.37 663.02,-982.37 663.02,-982.37 668.01,-982.68 663.31,-977.87 673,-983 673,-983"/>
</g>
<!-- choice10010111845108105981154711111210111011511510845484657465612295112564511449 -->
<g id="node16" class="node">
<title>choice10010111845108105981154711111210111011511510845484657465612295112564511449</title>
<g id="a_node16"><a xlink:href="../dev-libs/openssl-0.9.8z_p8-r1.svg" xlink:title="dev&#45;libs/openssl&#45;0.9.8z_p8&#45;r1">
<ellipse fill="none" stroke="red" cx="1162" cy="-1145" rx="144" ry="18"/>
<text text-anchor="middle" x="1162" y="-1142" font-family="Helvetica,sans-Serif" font-size="10.00">dev&#45;libs/openssl&#45;0.9.8z_p8&#45;r1</text>
</a>
</g>
</g>
<!-- dependency1662880&#45;&gt;choice10010111845108105981154711111210111011511510845484657465612295112564511449 -->
<g id="edge15" class="edge">
<title>dependency1662880:e&#45;&gt;choice10010111845108105981154711111210111011511510845484657465612295112564511449:w</title>
<path fill="none" stroke="black" stroke-dasharray="1,5" d="M911,-983C993.35,-983 936.36,-1131.38 1006.73,-1144.13"/>
<polygon fill="black" stroke="black" points="1017,-1145 1006.66,-1148.64 1012.02,-1144.58 1007.04,-1144.15 1007.04,-1144.15 1007.04,-1144.15 1012.02,-1144.58 1007.42,-1139.67 1017,-1145 1017,-1145"/>
</g>
<!-- choice100101118451081059811547111112101110115115108454946484650113 -->
<g id="node17" class="node">
<title>choice100101118451081059811547111112101110115115108454946484650113</title>
<g id="a_node17"><a xlink:href="../dev-libs/openssl-1.0.2q.svg" xlink:title="dev&#45;libs/openssl&#45;1.0.2q">
<ellipse fill="none" stroke="red" cx="1162" cy="-1091" rx="144" ry="18"/>
<text text-anchor="middle" x="1162" y="-1088" font-family="Helvetica,sans-Serif" font-size="10.00">dev&#45;libs/openssl&#45;1.0.2q</text>
</a>
</g>
</g>
<!-- dependency1662880&#45;&gt;choice100101118451081059811547111112101110115115108454946484650113 -->
<g id="edge16" class="edge">
<title>dependency1662880:e&#45;&gt;choice100101118451081059811547111112101110115115108454946484650113:w</title>
<path fill="none" stroke="black" stroke-dasharray="1,5" d="M911,-983C974.58,-983 952.58,-1079.51 1006.79,-1090.07"/>
<polygon fill="black" stroke="black" points="1017,-1091 1006.63,-1094.57 1012.02,-1090.54 1007.04,-1090.09 1007.04,-1090.09 1007.04,-1090.09 1012.02,-1090.54 1007.45,-1085.61 1017,-1091 1017,-1091"/>
</g>
<!-- choice100101118451081059811547111112101110115115108454946484650114 -->
<g id="node18" class="node">
<title>choice100101118451081059811547111112101110115115108454946484650114</title>
<g id="a_node18"><a xlink:href="../dev-libs/openssl-1.0.2r.svg" xlink:title="dev&#45;libs/openssl&#45;1.0.2r">
<ellipse fill="none" stroke="red" cx="1162" cy="-1037" rx="144" ry="18"/>
<text text-anchor="middle" x="1162" y="-1034" font-family="Helvetica,sans-Serif" font-size="10.00">dev&#45;libs/openssl&#45;1.0.2r</text>
</a>
</g>
</g>
<!-- dependency1662880&#45;&gt;choice100101118451081059811547111112101110115115108454946484650114 -->
<g id="edge17" class="edge">
<title>dependency1662880:e&#45;&gt;choice100101118451081059811547111112101110115115108454946484650114:w</title>
<path fill="none" stroke="black" stroke-dasharray="1,5" d="M911,-983C960.26,-983 963.85,-1029.87 1006.86,-1036.28"/>
<polygon fill="black" stroke="black" points="1017,-1037 1006.71,-1040.78 1012.01,-1036.64 1007.03,-1036.29 1007.03,-1036.29 1007.03,-1036.29 1012.01,-1036.64 1007.35,-1031.8 1017,-1037 1017,-1037"/>
</g>
<!-- choice10010111845108105981154711111210111011511510845494648465011445114504848 -->
<g id="node19" class="node">
<title>choice10010111845108105981154711111210111011511510845494648465011445114504848</title>
<g id="a_node19"><a xlink:href="../dev-libs/openssl-1.0.2r-r200.svg" xlink:title="dev&#45;libs/openssl&#45;1.0.2r&#45;r200">
<ellipse fill="none" stroke="red" cx="1162" cy="-983" rx="144" ry="18"/>
<text text-anchor="middle" x="1162" y="-980" font-family="Helvetica,sans-Serif" font-size="10.00">dev&#45;libs/openssl&#45;1.0.2r&#45;r200</text>
</a>
</g>
</g>
<!-- dependency1662880&#45;&gt;choice10010111845108105981154711111210111011511510845494648465011445114504848 -->
<g id="edge18" class="edge">
<title>dependency1662880:e&#45;&gt;choice10010111845108105981154711111210111011511510845494648465011445114504848:w</title>
<path fill="none" stroke="black" stroke-dasharray="1,5" d="M911,-983C954.43,-983 967.83,-983 1006.57,-983"/>
<polygon fill="black" stroke="black" points="1017,-983 1007,-987.5 1012,-983 1007,-983 1007,-983 1007,-983 1012,-983 1007,-978.5 1017,-983 1017,-983"/>
</g>
<!-- choice1001011184510810598115471111121011101151151084549464946481064511449 -->
<g id="node20" class="node">
<title>choice1001011184510810598115471111121011101151151084549464946481064511449</title>
<g id="a_node20"><a xlink:href="../dev-libs/openssl-1.1.0j-r1.svg" xlink:title="dev&#45;libs/openssl&#45;1.1.0j&#45;r1">
<ellipse fill="none" stroke="red" cx="1162" cy="-929" rx="144" ry="18"/>
<text text-anchor="middle" x="1162" y="-926" font-family="Helvetica,sans-Serif" font-size="10.00">dev&#45;libs/openssl&#45;1.1.0j&#45;r1</text>
</a>
</g>
</g>
<!-- dependency1662880&#45;&gt;choice1001011184510810598115471111121011101151151084549464946481064511449 -->
<g id="edge19" class="edge">
<title>dependency1662880:e&#45;&gt;choice1001011184510810598115471111121011101151151084549464946481064511449:w</title>
<path fill="none" stroke="black" stroke-dasharray="1,5" d="M911,-983C960.26,-983 963.85,-936.13 1006.86,-929.72"/>
<polygon fill="black" stroke="black" points="1017,-929 1007.35,-934.2 1012.01,-929.36 1007.03,-929.71 1007.03,-929.71 1007.03,-929.71 1012.01,-929.36 1006.71,-925.22 1017,-929 1017,-929"/>
</g>
<!-- choice100101118451081059811547111112101110115115108454946494649984511450 -->
<g id="node21" class="node">
<title>choice100101118451081059811547111112101110115115108454946494649984511450</title>
<g id="a_node21"><a xlink:href="../dev-libs/openssl-1.1.1b-r2.svg" xlink:title="dev&#45;libs/openssl&#45;1.1.1b&#45;r2">
<ellipse fill="none" stroke="red" cx="1162" cy="-875" rx="144" ry="18"/>
<text text-anchor="middle" x="1162" y="-872" font-family="Helvetica,sans-Serif" font-size="10.00">dev&#45;libs/openssl&#45;1.1.1b&#45;r2</text>
</a>
</g>
</g>
<!-- dependency1662880&#45;&gt;choice100101118451081059811547111112101110115115108454946494649984511450 -->
<g id="edge20" class="edge">
<title>dependency1662880:e&#45;&gt;choice100101118451081059811547111112101110115115108454946494649984511450:w</title>
<path fill="none" stroke="black" stroke-dasharray="1,5" d="M911,-983C974.58,-983 952.58,-886.49 1006.79,-875.93"/>
<polygon fill="black" stroke="black" points="1017,-875 1007.45,-880.39 1012.02,-875.46 1007.04,-875.91 1007.04,-875.91 1007.04,-875.91 1012.02,-875.46 1006.63,-871.43 1017,-875 1017,-875"/>
</g>
<!-- dependency1662882 -->
<g id="node6" class="node">
<title>dependency1662882</title>
<polygon fill="none" stroke="blue" points="682,-772 682,-870 787,-870 787,-772 682,-772"/>
<text text-anchor="start" x="712.82" y="-818" font-family="Helvetica,sans-Serif" font-size="10.00">pack_dep</text>
<polygon fill="none" stroke="blue" points="787,-848 787,-870 897,-870 897,-848 787,-848"/>
<text text-anchor="start" x="836.44" y="-856" font-family="Helvetica,sans-Serif" font-size="10.00">no</text>
<polygon fill="none" stroke="blue" points="787,-826 787,-848 897,-848 897,-826 787,-826"/>
<text text-anchor="start" x="828.67" y="-834" font-family="Helvetica,sans-Serif" font-size="10.00">virtual</text>
<polygon fill="none" stroke="blue" points="787,-804 787,-826 897,-826 897,-804 787,-804"/>
<text text-anchor="start" x="832.55" y="-812" font-family="Helvetica,sans-Serif" font-size="10.00">jpeg</text>
<polygon fill="none" stroke="blue" points="787,-782 787,-804 897,-804 897,-782 787,-782"/>
<text text-anchor="start" x="830.88" y="-790" font-family="Helvetica,sans-Serif" font-size="10.00">none</text>
<polygon fill="none" stroke="blue" points="787,-772 787,-782 897,-782 897,-772 787,-772"/>
</g>
<!-- dependency1662881&#45;&gt;dependency1662882 -->
<g id="edge4" class="edge">
<title>dependency1662881:e&#45;&gt;dependency1662882:w</title>
<path fill="none" stroke="black" stroke-dasharray="5,2" d="M565,-821C609.44,-821 623.02,-821 662.88,-821"/>
<polygon fill="black" stroke="black" points="673,-821 663,-825.5 668,-821 663,-821 663,-821 663,-821 668,-821 663,-816.5 673,-821 673,-821"/>
</g>
<!-- choice118105114116117971084710611210110345484511450 -->
<g id="node22" class="node">
<title>choice118105114116117971084710611210110345484511450</title>
<g id="a_node22"><a xlink:href="../virtual/jpeg-0-r2.svg" xlink:title="virtual/jpeg&#45;0&#45;r2">
<ellipse fill="none" stroke="red" cx="1162" cy="-821" rx="144" ry="18"/>
<text text-anchor="middle" x="1162" y="-818" font-family="Helvetica,sans-Serif" font-size="10.00">virtual/jpeg&#45;0&#45;r2</text>
</a>
</g>
</g>
<!-- dependency1662882&#45;&gt;choice118105114116117971084710611210110345484511450 -->
<g id="edge21" class="edge">
<title>dependency1662882:e&#45;&gt;choice118105114116117971084710611210110345484511450:w</title>
<path fill="none" stroke="black" stroke-dasharray="1,5" d="M911,-821C954.43,-821 967.83,-821 1006.57,-821"/>
<polygon fill="black" stroke="black" points="1017,-821 1007,-825.5 1012,-821 1007,-821 1007,-821 1007,-821 1012,-821 1007,-816.5 1017,-821 1017,-821"/>
</g>
<!-- choice1181051141161179710847106112101103455450 -->
<g id="node23" class="node">
<title>choice1181051141161179710847106112101103455450</title>
<g id="a_node23"><a xlink:href="../virtual/jpeg-62.svg" xlink:title="virtual/jpeg&#45;62">
<ellipse fill="none" stroke="red" cx="1162" cy="-767" rx="144" ry="18"/>
<text text-anchor="middle" x="1162" y="-764" font-family="Helvetica,sans-Serif" font-size="10.00">virtual/jpeg&#45;62</text>
</a>
</g>
</g>
<!-- dependency1662882&#45;&gt;choice1181051141161179710847106112101103455450 -->
<g id="edge22" class="edge">
<title>dependency1662882:e&#45;&gt;choice1181051141161179710847106112101103455450:w</title>
<path fill="none" stroke="black" stroke-dasharray="1,5" d="M911,-821C960.26,-821 963.85,-774.13 1006.86,-767.72"/>
<polygon fill="black" stroke="black" points="1017,-767 1007.35,-772.2 1012.01,-767.36 1007.03,-767.71 1007.03,-767.71 1007.03,-767.71 1012.01,-767.36 1006.71,-763.22 1017,-767 1017,-767"/>
</g>
<!-- dependency1662884 -->
<g id="node8" class="node">
<title>dependency1662884</title>
<polygon fill="none" stroke="blue" points="682,-648 682,-746 787,-746 787,-648 682,-648"/>
<text text-anchor="start" x="712.82" y="-694" font-family="Helvetica,sans-Serif" font-size="10.00">pack_dep</text>
<polygon fill="none" stroke="blue" points="787,-724 787,-746 897,-746 897,-724 787,-724"/>
<text text-anchor="start" x="836.44" y="-732" font-family="Helvetica,sans-Serif" font-size="10.00">no</text>
<polygon fill="none" stroke="blue" points="787,-702 787,-724 897,-724 897,-702 787,-702"/>
<text text-anchor="start" x="824.78" y="-710" font-family="Helvetica,sans-Serif" font-size="10.00">dev&#45;libs</text>
<polygon fill="none" stroke="blue" points="787,-680 787,-702 897,-702 897,-680 787,-680"/>
<text text-anchor="start" x="826.45" y="-688" font-family="Helvetica,sans-Serif" font-size="10.00">libressl</text>
<polygon fill="none" stroke="blue" points="787,-658 787,-680 897,-680 897,-658 787,-658"/>
<text text-anchor="start" x="830.88" y="-666" font-family="Helvetica,sans-Serif" font-size="10.00">none</text>
<polygon fill="none" stroke="blue" points="787,-648 787,-658 897,-658 897,-648 787,-648"/>
</g>
<!-- dependency1662883&#45;&gt;dependency1662884 -->
<g id="edge6" class="edge">
<title>dependency1662883:e&#45;&gt;dependency1662884:w</title>
<path fill="none" stroke="black" stroke-dasharray="5,2" d="M565,-724C610.9,-724 622,-700.76 662.88,-697.4"/>
<polygon fill="black" stroke="black" points="673,-697 663.19,-701.89 668,-697.2 663.01,-697.4 663.01,-697.4 663.01,-697.4 668,-697.2 662.83,-692.9 673,-697 673,-697"/>
</g>
<!-- choice10010111845108105981154710810598114101115115108455046544653 -->
<g id="node24" class="node">
<title>choice10010111845108105981154710810598114101115115108455046544653</title>
<g id="a_node24"><a xlink:href="../dev-libs/libressl-2.6.5.svg" xlink:title="dev&#45;libs/libressl&#45;2.6.5">
<ellipse fill="none" stroke="red" cx="1162" cy="-713" rx="144" ry="18"/>
<text text-anchor="middle" x="1162" y="-710" font-family="Helvetica,sans-Serif" font-size="10.00">dev&#45;libs/libressl&#45;2.6.5</text>
</a>
</g>
</g>
<!-- dependency1662884&#45;&gt;choice10010111845108105981154710810598114101115115108455046544653 -->
<g id="edge23" class="edge">
<title>dependency1662884:e&#45;&gt;choice10010111845108105981154710810598114101115115108455046544653:w</title>
<path fill="none" stroke="black" stroke-dasharray="1,5" d="M911,-697C955.11,-697 967.56,-710.71 1006.97,-712.75"/>
<polygon fill="black" stroke="black" points="1017,-713 1006.89,-717.25 1012,-712.87 1007,-712.75 1007,-712.75 1007,-712.75 1012,-712.87 1007.12,-708.25 1017,-713 1017,-713"/>
</g>
<!-- choice10010111845108105981154710810598114101115115108455046554653 -->
<g id="node25" class="node">
<title>choice10010111845108105981154710810598114101115115108455046554653</title>
<g id="a_node25"><a xlink:href="../dev-libs/libressl-2.7.5.svg" xlink:title="dev&#45;libs/libressl&#45;2.7.5">
<ellipse fill="none" stroke="red" cx="1162" cy="-659" rx="144" ry="18"/>
<text text-anchor="middle" x="1162" y="-656" font-family="Helvetica,sans-Serif" font-size="10.00">dev&#45;libs/libressl&#45;2.7.5</text>
</a>
</g>
</g>
<!-- dependency1662884&#45;&gt;choice10010111845108105981154710810598114101115115108455046554653 -->
<g id="edge24" class="edge">
<title>dependency1662884:e&#45;&gt;choice10010111845108105981154710810598114101115115108455046554653:w</title>
<path fill="none" stroke="black" stroke-dasharray="1,5" d="M911,-697C957.43,-697 965.87,-664.29 1006.81,-659.57"/>
<polygon fill="black" stroke="black" points="1017,-659 1007.27,-664.05 1012.01,-659.28 1007.02,-659.56 1007.02,-659.56 1007.02,-659.56 1012.01,-659.28 1006.77,-655.06 1017,-659 1017,-659"/>
</g>
<!-- choice10010111845108105981154710810598114101115115108455046564651 -->
<g id="node26" class="node">
<title>choice10010111845108105981154710810598114101115115108455046564651</title>
<g id="a_node26"><a xlink:href="../dev-libs/libressl-2.8.3.svg" xlink:title="dev&#45;libs/libressl&#45;2.8.3">
<ellipse fill="none" stroke="red" cx="1162" cy="-605" rx="144" ry="18"/>
<text text-anchor="middle" x="1162" y="-602" font-family="Helvetica,sans-Serif" font-size="10.00">dev&#45;libs/libressl&#45;2.8.3</text>
</a>
</g>
</g>
<!-- dependency1662884&#45;&gt;choice10010111845108105981154710810598114101115115108455046564651 -->
<g id="edge25" class="edge">
<title>dependency1662884:e&#45;&gt;choice10010111845108105981154710810598114101115115108455046564651:w</title>
<path fill="none" stroke="black" stroke-dasharray="1,5" d="M911,-697C969.73,-697 956.54,-615.47 1006.84,-605.91"/>
<polygon fill="black" stroke="black" points="1017,-605 1007.44,-610.37 1012.02,-605.45 1007.04,-605.89 1007.04,-605.89 1007.04,-605.89 1012.02,-605.45 1006.64,-601.41 1017,-605 1017,-605"/>
</g>
<!-- choice10010111845108105981154710810598114101115115108455046574648 -->
<g id="node27" class="node">
<title>choice10010111845108105981154710810598114101115115108455046574648</title>
<g id="a_node27"><a xlink:href="../dev-libs/libressl-2.9.0.svg" xlink:title="dev&#45;libs/libressl&#45;2.9.0">
<ellipse fill="none" stroke="red" cx="1162" cy="-551" rx="144" ry="18"/>
<text text-anchor="middle" x="1162" y="-548" font-family="Helvetica,sans-Serif" font-size="10.00">dev&#45;libs/libressl&#45;2.9.0</text>
</a>
</g>
</g>
<!-- dependency1662884&#45;&gt;choice10010111845108105981154710810598114101115115108455046574648 -->
<g id="edge26" class="edge">
<title>dependency1662884:e&#45;&gt;choice10010111845108105981154710810598114101115115108455046574648:w</title>
<path fill="none" stroke="black" stroke-dasharray="1,5" d="M911,-697C987.59,-697 941.43,-563.82 1006.98,-551.86"/>
<polygon fill="black" stroke="black" points="1017,-551 1007.42,-556.34 1012.02,-551.43 1007.04,-551.85 1007.04,-551.85 1007.04,-551.85 1012.02,-551.43 1006.65,-547.37 1017,-551 1017,-551"/>
</g>
<!-- choice1204949451081059811547108105987367694549464846574511450 -->
<g id="node28" class="node">
<title>choice1204949451081059811547108105987367694549464846574511450</title>
<g id="a_node28"><a xlink:href="../x11-libs/libICE-1.0.9-r2.svg" xlink:title="x11&#45;libs/libICE&#45;1.0.9&#45;r2">
<ellipse fill="none" stroke="red" cx="1162" cy="-497" rx="144" ry="18"/>
<text text-anchor="middle" x="1162" y="-494" font-family="Helvetica,sans-Serif" font-size="10.00">x11&#45;libs/libICE&#45;1.0.9&#45;r2</text>
</a>
</g>
</g>
<!-- dependency1662885&#45;&gt;choice1204949451081059811547108105987367694549464846574511450 -->
<g id="edge27" class="edge">
<title>dependency1662885:e&#45;&gt;choice1204949451081059811547108105987367694549464846574511450:w</title>
<path fill="none" stroke="black" stroke-dasharray="1,5" d="M911,-573C965.35,-573 960.01,-506.2 1006.89,-497.85"/>
<polygon fill="black" stroke="black" points="1017,-497 1007.41,-502.33 1012.02,-497.42 1007.04,-497.84 1007.04,-497.84 1007.04,-497.84 1012.02,-497.42 1006.66,-493.36 1017,-497 1017,-497"/>
</g>
<!-- choice1204949451081059811547108105988377454946504651 -->
<g id="node29" class="node">
<title>choice1204949451081059811547108105988377454946504651</title>
<g id="a_node29"><a xlink:href="../x11-libs/libSM-1.2.3.svg" xlink:title="x11&#45;libs/libSM&#45;1.2.3">
<ellipse fill="none" stroke="red" cx="1162" cy="-443" rx="144" ry="18"/>
<text text-anchor="middle" x="1162" y="-440" font-family="Helvetica,sans-Serif" font-size="10.00">x11&#45;libs/libSM&#45;1.2.3</text>
</a>
</g>
</g>
<!-- dependency1662886&#45;&gt;choice1204949451081059811547108105988377454946504651 -->
<g id="edge28" class="edge">
<title>dependency1662886:e&#45;&gt;choice1204949451081059811547108105988377454946504651:w</title>
<path fill="none" stroke="black" stroke-dasharray="1,5" d="M911,-449C954.5,-449 967.78,-443.9 1006.56,-443.1"/>
<polygon fill="black" stroke="black" points="1017,-443 1007.05,-447.6 1012,-443.05 1007,-443.1 1007,-443.1 1007,-443.1 1012,-443.05 1006.96,-438.6 1017,-443 1017,-443"/>
</g>
<!-- choice120494945108105981154710810598884949454946544655 -->
<g id="node30" class="node">
<title>choice120494945108105981154710810598884949454946544655</title>
<g id="a_node30"><a xlink:href="../x11-libs/libX11-1.6.7.svg" xlink:title="x11&#45;libs/libX11&#45;1.6.7">
<ellipse fill="none" stroke="red" cx="1162" cy="-325" rx="144" ry="18"/>
<text text-anchor="middle" x="1162" y="-322" font-family="Helvetica,sans-Serif" font-size="10.00">x11&#45;libs/libX11&#45;1.6.7</text>
</a>
</g>
</g>
<!-- dependency1662887&#45;&gt;choice120494945108105981154710810598884949454946544655 -->
<g id="edge29" class="edge">
<title>dependency1662887:e&#45;&gt;choice120494945108105981154710810598884949454946544655:w</title>
<path fill="none" stroke="black" stroke-dasharray="1,5" d="M911,-325C954.43,-325 967.83,-325 1006.57,-325"/>
<polygon fill="black" stroke="black" points="1017,-325 1007,-329.5 1012,-325 1007,-325 1007,-325 1007,-325 1012,-325 1007,-320.5 1017,-325 1017,-325"/>
</g>
<!-- choice120494945108105981154710810598881011201164549465146514511449 -->
<g id="node31" class="node">
<title>choice120494945108105981154710810598881011201164549465146514511449</title>
<g id="a_node31"><a xlink:href="../x11-libs/libXext-1.3.3-r1.svg" xlink:title="x11&#45;libs/libXext&#45;1.3.3&#45;r1">
<ellipse fill="none" stroke="red" cx="1162" cy="-201" rx="144" ry="18"/>
<text text-anchor="middle" x="1162" y="-198" font-family="Helvetica,sans-Serif" font-size="10.00">x11&#45;libs/libXext&#45;1.3.3&#45;r1</text>
</a>
</g>
</g>
<!-- dependency1662888&#45;&gt;choice120494945108105981154710810598881011201164549465146514511449 -->
<g id="edge30" class="edge">
<title>dependency1662888:e&#45;&gt;choice120494945108105981154710810598881011201164549465146514511449:w</title>
<path fill="none" stroke="black" stroke-dasharray="1,5" d="M911,-201C954.43,-201 967.83,-201 1006.57,-201"/>
<polygon fill="black" stroke="black" points="1017,-201 1007,-205.5 1012,-201 1007,-201 1007,-201 1007,-201 1012,-201 1007,-196.5 1017,-201 1017,-201"/>
</g>
<!-- choice12049494510810598115471081059888112109455146534649504511449 -->
<g id="node32" class="node">
<title>choice12049494510810598115471081059888112109455146534649504511449</title>
<g id="a_node32"><a xlink:href="../x11-libs/libXpm-3.5.12-r1.svg" xlink:title="x11&#45;libs/libXpm&#45;3.5.12&#45;r1">
<ellipse fill="none" stroke="red" cx="1162" cy="-147" rx="144" ry="18"/>
<text text-anchor="middle" x="1162" y="-144" font-family="Helvetica,sans-Serif" font-size="10.00">x11&#45;libs/libXpm&#45;3.5.12&#45;r1</text>
</a>
</g>
</g>
<!-- dependency1662889&#45;&gt;choice12049494510810598115471081059888112109455146534649504511449 -->
<g id="edge31" class="edge">
<title>dependency1662889:e&#45;&gt;choice12049494510810598115471081059888112109455146534649504511449:w</title>
<path fill="none" stroke="black" stroke-dasharray="1,5" d="M911,-77C963.82,-77 961.17,-138.27 1006.84,-146.17"/>
<polygon fill="black" stroke="black" points="1017,-147 1006.67,-150.67 1012.02,-146.59 1007.03,-146.18 1007.03,-146.18 1007.03,-146.18 1012.02,-146.59 1007.4,-141.7 1017,-147 1017,-147"/>
</g>
</g>
</svg>
