<?xml version="1.0" encoding="UTF-8" standalone="no"?>
<!DOCTYPE svg PUBLIC "-//W3C//DTD SVG 1.1//EN"
 "http://www.w3.org/Graphics/SVG/1.1/DTD/svg11.dtd">
<!-- Generated by graphviz version 2.41.20171026.1811 (20171026.1811)
 -->
<!-- Title: prolog Pages: 1 -->
<svg width="1068pt" height="1720pt"
 viewBox="0.00 0.00 1068.00 1720.00" xmlns="http://www.w3.org/2000/svg" xmlns:xlink="http://www.w3.org/1999/xlink">
<g id="graph0" class="graph" transform="scale(1 1) rotate(0) translate(4 1716)">
<title>prolog</title>
<polygon fill="white" stroke="transparent" points="-4,4 -4,-1716 1064,-1716 1064,4 -4,4"/>
<g id="clust15" class="cluster">
<title>cluster_choices</title>
<polygon fill="none" stroke="gray" points="748,-8 748,-1704 1052,-1704 1052,-8 748,-8"/>
<text text-anchor="start" x="875.82" y="-1693" font-family="Helvetica,sans-Serif" font-style="italic" font-size="10.00">candidates</text>
</g>
<g id="clust1" class="cluster">
<title>cluster_leftcol</title>
<polygon fill="none" stroke="gray" points="8,-1234 8,-1304 312,-1304 312,-1234 8,-1234"/>
<text text-anchor="start" x="146.66" y="-1293" font-family="Helvetica,sans-Serif" font-style="italic" font-size="10.00">ebuild</text>
</g>
<g id="clust2" class="cluster">
<title>cluster_midcol</title>
<polygon fill="none" stroke="gray" points="396,-1079 396,-1517 664,-1517 664,-1079 396,-1079"/>
<text text-anchor="start" x="498.86" y="-1506" font-family="Helvetica,sans-Serif" font-style="italic" font-size="10.00">dependencies</text>
</g>
<g id="clust3" class="cluster">
<title>cluster_compile</title>
<polygon fill="#eeeeee" stroke="gray" points="437,-1409 437,-1491 623,-1491 623,-1409 437,-1409"/>
<text text-anchor="start" x="512.77" y="-1480" font-family="Helvetica,sans-Serif" font-style="italic" font-size="10.00">compile</text>
</g>
<g id="clust7" class="cluster">
<title>cluster_compileandrun</title>
<polygon fill="#eeeeee" stroke="gray" points="404,-1087 404,-1401 656,-1401 656,-1087 404,-1087"/>
<text text-anchor="start" x="494.42" y="-1390" font-family="Helvetica,sans-Serif" font-style="italic" font-size="10.00">compile and run</text>
</g>
<!-- id -->
<g id="node1" class="node">
<title>id</title>
<g id="a_node1"><a xlink:href="../sys-cluster/dlm-2.03.11.svg" xlink:title="sys&#45;cluster/dlm&#45;2.03.11">
<ellipse fill="none" stroke="red" cx="160" cy="-1260" rx="144" ry="18"/>
<text text-anchor="middle" x="160" y="-1257" font-family="Helvetica,sans-Serif" font-size="10.00">sys&#45;cluster/dlm&#45;2.03.11</text>
</a>
</g>
</g>
<!-- dependency7145 -->
<g id="node2" class="node">
<title>dependency7145</title>
<polygon fill="none" stroke="red" points="453,-1421 453,-1461 544,-1461 544,-1421 453,-1421"/>
<text text-anchor="start" x="463.75" y="-1438" font-family="Helvetica,sans-Serif" font-size="10.00">use_conditional</text>
<polygon fill="none" stroke="red" points="544,-1441 544,-1461 607,-1461 607,-1441 544,-1441"/>
<text text-anchor="start" x="558.55" y="-1448" font-family="Helvetica,sans-Serif" font-size="10.00">positive</text>
<polygon fill="none" stroke="red" points="544,-1421 544,-1441 607,-1441 607,-1421 544,-1421"/>
<text text-anchor="start" x="548.82" y="-1428" font-family="Helvetica,sans-Serif" font-size="10.00">kernel_linux</text>
</g>
<!-- id&#45;&gt;dependency7145 -->
<g id="edge2" class="edge">
<title>id:e&#45;&gt;dependency7145:w</title>
<path fill="none" stroke="black" d="M305,-1260C402.86,-1260 346.86,-1428.5 433.9,-1440.34"/>
<polygon fill="black" stroke="black" points="444,-1441 433.73,-1444.84 439.01,-1440.68 434.02,-1440.35 434.02,-1440.35 434.02,-1440.35 439.01,-1440.68 434.31,-1435.86 444,-1441 444,-1441"/>
</g>
<!-- dependency7147 -->
<g id="node4" class="node">
<title>dependency7147</title>
<polygon fill="none" stroke="blue" points="790,-920 790,-1010 895,-1010 895,-920 790,-920"/>
<text text-anchor="start" x="820.82" y="-962" font-family="Helvetica,sans-Serif" font-size="10.00">pack_dep</text>
<polygon fill="none" stroke="blue" points="895,-990 895,-1010 1005,-1010 1005,-990 895,-990"/>
<text text-anchor="start" x="944.44" y="-997" font-family="Helvetica,sans-Serif" font-size="10.00">no</text>
<polygon fill="none" stroke="blue" points="895,-970 895,-990 1005,-990 1005,-970 895,-970"/>
<text text-anchor="start" x="929.99" y="-977" font-family="Helvetica,sans-Serif" font-size="10.00">sys&#45;apps</text>
<polygon fill="none" stroke="blue" points="895,-950 895,-970 1005,-970 1005,-950 895,-950"/>
<text text-anchor="start" x="941.94" y="-957" font-family="Helvetica,sans-Serif" font-size="10.00">sed</text>
<polygon fill="none" stroke="blue" points="895,-930 895,-950 1005,-950 1005,-930 895,-930"/>
<text text-anchor="start" x="938.88" y="-937" font-family="Helvetica,sans-Serif" font-size="10.00">none</text>
<polygon fill="none" stroke="blue" points="895,-920 895,-930 1005,-930 1005,-920 895,-920"/>
</g>
<!-- id&#45;&gt;dependency7147 -->
<g id="edge3" class="edge">
<title>id:e&#45;&gt;dependency7147:w</title>
<path fill="none" stroke="black" d="M531,-850C620.01,-771.26 656.61,-954.12 770.81,-964.54"/>
<polygon fill="black" stroke="black" points="781,-965 770.81,-969.04 776.01,-964.77 771.01,-964.55 771.01,-964.55 771.01,-964.55 776.01,-964.77 771.21,-960.05 781,-965 781,-965"/>
</g>
<!-- dependency7148 -->
<g id="node5" class="node">
<title>dependency7148</title>
<polygon fill="none" stroke="red" points="453,-1331 453,-1371 544,-1371 544,-1331 453,-1331"/>
<text text-anchor="start" x="463.75" y="-1348" font-family="Helvetica,sans-Serif" font-size="10.00">use_conditional</text>
<polygon fill="none" stroke="red" points="544,-1351 544,-1371 607,-1371 607,-1351 544,-1351"/>
<text text-anchor="start" x="558.55" y="-1358" font-family="Helvetica,sans-Serif" font-size="10.00">positive</text>
<polygon fill="none" stroke="red" points="544,-1331 544,-1351 607,-1351 607,-1331 544,-1331"/>
<text text-anchor="start" x="548.82" y="-1338" font-family="Helvetica,sans-Serif" font-size="10.00">kernel_linux</text>
</g>
<!-- id&#45;&gt;dependency7148 -->
<g id="edge5" class="edge">
<title>id:e&#45;&gt;dependency7148:w</title>
<path fill="none" stroke="black" d="M305,-1260C372.21,-1260 371.05,-1335.38 425.98,-1348.93"/>
<ellipse fill="none" stroke="black" cx="440.03" cy="-1350.54" rx="4" ry="4"/>
<polygon fill="black" stroke="black" points="436.05,-1350.09 425.6,-1353.42 431.09,-1349.52 426.12,-1348.94 426.12,-1348.94 426.12,-1348.94 431.09,-1349.52 426.63,-1344.47 436.05,-1350.09 436.05,-1350.09"/>
</g>
<!-- dependency7150 -->
<g id="node7" class="node">
<title>dependency7150</title>
<polygon fill="none" stroke="blue" points="790,-686 790,-786 895,-786 895,-686 790,-686"/>
<text text-anchor="start" x="820.82" y="-733" font-family="Helvetica,sans-Serif" font-size="10.00">pack_dep</text>
<polygon fill="none" stroke="blue" points="895,-766 895,-786 1005,-786 1005,-766 895,-766"/>
<text text-anchor="start" x="944.44" y="-773" font-family="Helvetica,sans-Serif" font-size="10.00">no</text>
<polygon fill="none" stroke="blue" points="895,-746 895,-766 1005,-766 1005,-746 895,-746"/>
<text text-anchor="start" x="926.11" y="-753" font-family="Helvetica,sans-Serif" font-size="10.00">sys&#45;cluster</text>
<polygon fill="none" stroke="blue" points="895,-726 895,-746 1005,-746 1005,-726 895,-726"/>
<text text-anchor="start" x="935.28" y="-733" font-family="Helvetica,sans-Serif" font-size="10.00">dlm&#45;lib</text>
<polygon fill="none" stroke="blue" points="895,-706 895,-726 1005,-726 1005,-706 895,-706"/>
<text text-anchor="start" x="937.77" y="-713" font-family="Helvetica,sans-Serif" font-size="10.00">equal</text>
<polygon fill="none" stroke="blue" points="895,-686 895,-706 1005,-706 1005,-686 895,-686"/>
<text text-anchor="start" x="931.74" y="-693" font-family="Helvetica,sans-Serif" font-size="10.00">2.03.11*</text>
</g>
<!-- id&#45;&gt;dependency7150 -->
<g id="edge6" class="edge">
<title>id:e&#45;&gt;dependency7150:w</title>
<path fill="none" stroke="black" d="M531,-850C617.73,-773.27 654.96,-739.55 762.71,-736.27"/>
<ellipse fill="none" stroke="black" cx="777" cy="-736.06" rx="4" ry="4"/>
<polygon fill="black" stroke="black" points="773,-736.12 763.07,-740.76 768,-736.19 763,-736.26 763,-736.26 763,-736.26 768,-736.19 762.94,-731.76 773,-736.12 773,-736.12"/>
</g>
<!-- dependency7151 -->
<g id="node8" class="node">
<title>dependency7151</title>
<polygon fill="none" stroke="blue" points="790,-20 790,-120 895,-120 895,-20 790,-20"/>
<text text-anchor="start" x="820.82" y="-67" font-family="Helvetica,sans-Serif" font-size="10.00">pack_dep</text>
<polygon fill="none" stroke="blue" points="895,-100 895,-120 1005,-120 1005,-100 895,-100"/>
<text text-anchor="start" x="944.44" y="-107" font-family="Helvetica,sans-Serif" font-size="10.00">no</text>
<polygon fill="none" stroke="blue" points="895,-80 895,-100 1005,-100 1005,-80 895,-80"/>
<text text-anchor="start" x="927.22" y="-87" font-family="Helvetica,sans-Serif" font-size="10.00">sys&#45;kernel</text>
<polygon fill="none" stroke="blue" points="895,-60 895,-80 1005,-80 1005,-60 895,-60"/>
<text text-anchor="start" x="919.98" y="-67" font-family="Helvetica,sans-Serif" font-size="10.00">linux&#45;headers</text>
<polygon fill="none" stroke="blue" points="895,-40 895,-60 1005,-60 1005,-40 895,-40"/>
<text text-anchor="start" x="921.92" y="-47" font-family="Helvetica,sans-Serif" font-size="10.00">greaterequal</text>
<polygon fill="none" stroke="blue" points="895,-20 895,-40 1005,-40 1005,-20 895,-20"/>
<text text-anchor="start" x="936.1" y="-27" font-family="Helvetica,sans-Serif" font-size="10.00">2.6.24</text>
</g>
<!-- id&#45;&gt;dependency7151 -->
<g id="edge7" class="edge">
<title>id:e&#45;&gt;dependency7151:w</title>
<path fill="none" stroke="black" d="M531,-850C798.99,-612.91 429.99,-88.33 762.99,-70.47"/>
<ellipse fill="none" stroke="black" cx="777" cy="-70.1" rx="4" ry="4"/>
<polygon fill="black" stroke="black" points="773,-70.21 763.12,-74.97 768,-70.34 763.01,-70.47 763.01,-70.47 763.01,-70.47 768,-70.34 762.89,-65.97 773,-70.21 773,-70.21"/>
<path fill="none" stroke="black" d="M305,-1260C393.45,-1260 353.84,-1160.76 396,-1083 452.83,-978.17 439.69,-929.01 529,-850"/>
</g>
<!-- dependency7152 -->
<g id="node9" class="node">
<title>dependency7152</title>
<polygon fill="none" stroke="blue" points="420,-1215 420,-1305 525,-1305 525,-1215 420,-1215"/>
<text text-anchor="start" x="450.82" y="-1257" font-family="Helvetica,sans-Serif" font-size="10.00">pack_dep</text>
<polygon fill="none" stroke="blue" points="525,-1285 525,-1305 635,-1305 635,-1285 525,-1285"/>
<text text-anchor="start" x="568.33" y="-1292" font-family="Helvetica,sans-Serif" font-size="10.00">weak</text>
<polygon fill="none" stroke="blue" points="525,-1265 525,-1285 635,-1285 635,-1265 525,-1265"/>
<text text-anchor="start" x="556.11" y="-1272" font-family="Helvetica,sans-Serif" font-size="10.00">sys&#45;cluster</text>
<polygon fill="none" stroke="blue" points="525,-1245 525,-1265 635,-1265 635,-1245 525,-1245"/>
<text text-anchor="start" x="552.21" y="-1252" font-family="Helvetica,sans-Serif" font-size="10.00">dlm&#45;headers</text>
<polygon fill="none" stroke="blue" points="525,-1225 525,-1245 635,-1245 635,-1225 525,-1225"/>
<text text-anchor="start" x="568.88" y="-1232" font-family="Helvetica,sans-Serif" font-size="10.00">none</text>
<polygon fill="none" stroke="blue" points="525,-1215 525,-1225 635,-1225 635,-1215 525,-1215"/>
</g>
<!-- id&#45;&gt;dependency7152 -->
<g id="edge8" class="edge">
<title>id:e&#45;&gt;dependency7152:w</title>
<path fill="none" stroke="black" d="M305,-1260C345.3,-1260 359.75,-1260 392.57,-1260"/>
<ellipse fill="none" stroke="black" cx="407" cy="-1260" rx="4" ry="4"/>
<polygon fill="black" stroke="black" points="403,-1260 393,-1264.5 398,-1260 393,-1260 393,-1260 393,-1260 398,-1260 393,-1255.5 403,-1260 403,-1260"/>
</g>
<!-- dependency7153 -->
<g id="node10" class="node">
<title>dependency7153</title>
<polygon fill="none" stroke="blue" points="420,-1099 420,-1189 525,-1189 525,-1099 420,-1099"/>
<text text-anchor="start" x="450.82" y="-1141" font-family="Helvetica,sans-Serif" font-size="10.00">pack_dep</text>
<polygon fill="none" stroke="blue" points="525,-1169 525,-1189 635,-1189 635,-1169 525,-1169"/>
<text text-anchor="start" x="568.33" y="-1176" font-family="Helvetica,sans-Serif" font-size="10.00">weak</text>
<polygon fill="none" stroke="blue" points="525,-1149 525,-1169 635,-1169 635,-1149 525,-1149"/>
<text text-anchor="start" x="556.11" y="-1156" font-family="Helvetica,sans-Serif" font-size="10.00">sys&#45;cluster</text>
<polygon fill="none" stroke="blue" points="525,-1129 525,-1149 635,-1149 635,-1129 525,-1129"/>
<text text-anchor="start" x="556.66" y="-1136" font-family="Helvetica,sans-Serif" font-size="10.00">dlm&#45;kernel</text>
<polygon fill="none" stroke="blue" points="525,-1109 525,-1129 635,-1129 635,-1109 525,-1109"/>
<text text-anchor="start" x="568.88" y="-1116" font-family="Helvetica,sans-Serif" font-size="10.00">none</text>
<polygon fill="none" stroke="blue" points="525,-1099 525,-1109 635,-1109 635,-1099 525,-1099"/>
</g>
<!-- id&#45;&gt;dependency7153 -->
<g id="edge9" class="edge">
<title>id:e&#45;&gt;dependency7153:w</title>
<path fill="none" stroke="black" d="M305,-1260C367.88,-1260 346.84,-1165.96 393.01,-1147.22"/>
<ellipse fill="none" stroke="black" cx="407.06" cy="-1144.71" rx="4" ry="4"/>
<polygon fill="black" stroke="black" points="403.13,-1145.41 394.08,-1151.6 398.2,-1146.29 393.28,-1147.17 393.28,-1147.17 393.28,-1147.17 398.2,-1146.29 392.49,-1142.74 403.13,-1145.41 403.13,-1145.41"/>
</g>
<!-- dependency7146 -->
<g id="node3" class="node">
<title>dependency7146</title>
<polygon fill="none" stroke="blue" points="790,-1422 790,-1512 895,-1512 895,-1422 790,-1422"/>
<text text-anchor="start" x="820.82" y="-1464" font-family="Helvetica,sans-Serif" font-size="10.00">pack_dep</text>
<polygon fill="none" stroke="blue" points="895,-1492 895,-1512 1005,-1512 1005,-1492 895,-1492"/>
<text text-anchor="start" x="944.44" y="-1499" font-family="Helvetica,sans-Serif" font-size="10.00">no</text>
<polygon fill="none" stroke="blue" points="895,-1472 895,-1492 1005,-1492 1005,-1472 895,-1472"/>
<text text-anchor="start" x="936.66" y="-1479" font-family="Helvetica,sans-Serif" font-size="10.00">virtual</text>
<polygon fill="none" stroke="blue" points="895,-1452 895,-1472 1005,-1472 1005,-1452 895,-1452"/>
<text text-anchor="start" x="920.54" y="-1459" font-family="Helvetica,sans-Serif" font-size="10.00">linux&#45;sources</text>
<polygon fill="none" stroke="blue" points="895,-1432 895,-1452 1005,-1452 1005,-1432 895,-1432"/>
<text text-anchor="start" x="938.88" y="-1439" font-family="Helvetica,sans-Serif" font-size="10.00">none</text>
<polygon fill="none" stroke="blue" points="895,-1422 895,-1432 1005,-1432 1005,-1422 895,-1422"/>
</g>
<!-- dependency7145&#45;&gt;dependency7146 -->
<g id="edge1" class="edge">
<title>dependency7145:e&#45;&gt;dependency7146:w</title>
<path fill="none" stroke="black" stroke-dasharray="5,2" d="M616,-1441C686.76,-1441 705.09,-1464.62 770.93,-1466.83"/>
<polygon fill="black" stroke="black" points="781,-1467 770.93,-1471.33 776,-1466.92 771,-1466.84 771,-1466.84 771,-1466.84 776,-1466.92 771.08,-1462.34 781,-1467 781,-1467"/>
</g>
<!-- choice118105114116117971084710810511011712045115111117114991011154551 -->
<g id="node11" class="node">
<title>choice118105114116117971084710810511011712045115111117114991011154551</title>
<g id="a_node11"><a xlink:href="../virtual/linux-sources-3.svg" xlink:title="virtual/linux&#45;sources&#45;3">
<ellipse fill="none" stroke="red" cx="900" cy="-1606" rx="144" ry="18"/>
<text text-anchor="middle" x="900" y="-1603" font-family="Helvetica,sans-Serif" font-size="10.00">virtual/linux&#45;sources&#45;3</text>
</a>
</g>
</g>
<!-- dependency7146&#45;&gt;choice118105114116117971084710810511011712045115111117114991011154551 -->
<g id="edge10" class="edge">
<title>dependency7146:e&#45;&gt;choice118105114116117971084710810511011712045115111117114991011154551:w</title>
<path fill="none" stroke="black" stroke-dasharray="1,5" d="M1019,-1467C1040.78,-1467 1033.3,-1500.5 1018,-1516 993.61,-1540.71 727.83,-1507 706,-1534 683.85,-1561.4 710.55,-1598.57 744.71,-1605.02"/>
<polygon fill="black" stroke="black" points="755,-1606 744.62,-1609.54 750.02,-1605.53 745.04,-1605.06 745.04,-1605.06 745.04,-1605.06 750.02,-1605.53 745.47,-1600.58 755,-1606 755,-1606"/>
</g>
<!-- choice1181051141161179710847108105110117120451151111171149910111545514511449 -->
<g id="node12" class="node">
<title>choice1181051141161179710847108105110117120451151111171149910111545514511449</title>
<g id="a_node12"><a xlink:href="../virtual/linux-sources-3-r1.svg" xlink:title="virtual/linux&#45;sources&#45;3&#45;r1">
<ellipse fill="none" stroke="red" cx="900" cy="-1552" rx="144" ry="18"/>
<text text-anchor="middle" x="900" y="-1549" font-family="Helvetica,sans-Serif" font-size="10.00">virtual/linux&#45;sources&#45;3&#45;r1</text>
</a>
</g>
</g>
<!-- dependency7146&#45;&gt;choice1181051141161179710847108105110117120451151111171149910111545514511449 -->
<g id="edge11" class="edge">
<title>dependency7146:e&#45;&gt;choice1181051141161179710847108105110117120451151111171149910111545514511449:w</title>
<path fill="none" stroke="black" stroke-dasharray="1,5" d="M750.98,-1542.58C751.95,-1539.46 753.8,-1536.23 756,-1534 797,-1492.46 977.74,-1558.25 1018,-1516 1033.03,-1500.23 1040.78,-1467 1019,-1467"/>
<polygon fill="black" stroke="black" points="755,-1552 746.94,-1544.57 753.04,-1547.4 751.07,-1542.8 751.07,-1542.8 751.07,-1542.8 753.04,-1547.4 755.21,-1541.04 755,-1552 755,-1552"/>
</g>
<!-- choice11512111545971121121154711510110045524652 -->
<g id="node13" class="node">
<title>choice11512111545971121121154711510110045524652</title>
<g id="a_node13"><a xlink:href="../sys-apps/sed-4.4.svg" xlink:title="sys&#45;apps/sed&#45;4.4">
<ellipse fill="none" stroke="red" cx="900" cy="-1104" rx="144" ry="18"/>
<text text-anchor="middle" x="900" y="-1101" font-family="Helvetica,sans-Serif" font-size="10.00">sys&#45;apps/sed&#45;4.4</text>
</a>
</g>
</g>
<!-- dependency7147&#45;&gt;choice11512111545971121121154711510110045524652 -->
<g id="edge12" class="edge">
<title>dependency7147:e&#45;&gt;choice11512111545971121121154711510110045524652:w</title>
<path fill="none" stroke="black" stroke-dasharray="1,5" d="M1019,-965C1040.78,-965 1033.3,-998.5 1018,-1014 993.61,-1038.71 727.83,-1005 706,-1032 683.85,-1059.4 710.55,-1096.57 744.71,-1103.02"/>
<polygon fill="black" stroke="black" points="755,-1104 744.62,-1107.54 750.02,-1103.53 745.04,-1103.06 745.04,-1103.06 745.04,-1103.06 750.02,-1103.53 745.47,-1098.58 755,-1104 755,-1104"/>
</g>
<!-- choice115121115459711211211547115101100455246504650 -->
<g id="node14" class="node">
<title>choice115121115459711211211547115101100455246504650</title>
<g id="a_node14"><a xlink:href="../sys-apps/sed-4.2.2.svg" xlink:title="sys&#45;apps/sed&#45;4.2.2">
<ellipse fill="none" stroke="red" cx="900" cy="-1050" rx="144" ry="18"/>
<text text-anchor="middle" x="900" y="-1047" font-family="Helvetica,sans-Serif" font-size="10.00">sys&#45;apps/sed&#45;4.2.2</text>
</a>
</g>
</g>
<!-- dependency7147&#45;&gt;choice115121115459711211211547115101100455246504650 -->
<g id="edge13" class="edge">
<title>dependency7147:e&#45;&gt;choice115121115459711211211547115101100455246504650:w</title>
<path fill="none" stroke="black" stroke-dasharray="1,5" d="M750.98,-1040.58C751.95,-1037.46 753.8,-1034.23 756,-1032 797,-990.46 977.74,-1056.25 1018,-1014 1033.03,-998.23 1040.78,-965 1019,-965"/>
<polygon fill="black" stroke="black" points="755,-1050 746.94,-1042.57 753.04,-1045.4 751.07,-1040.8 751.07,-1040.8 751.07,-1040.8 753.04,-1045.4 755.21,-1039.04 755,-1050 755,-1050"/>
</g>
<!-- choice115121115459711211211547115101100455246514511449 -->
<g id="node15" class="node">
<title>choice115121115459711211211547115101100455246514511449</title>
<g id="a_node15"><a xlink:href="../sys-apps/sed-4.3-r1.svg" xlink:title="sys&#45;apps/sed&#45;4.3&#45;r1">
<ellipse fill="none" stroke="red" cx="900" cy="-1266" rx="144" ry="18"/>
<text text-anchor="middle" x="900" y="-1263" font-family="Helvetica,sans-Serif" font-size="10.00">sys&#45;apps/sed&#45;4.3&#45;r1</text>
</a>
</g>
</g>
<!-- dependency7147&#45;&gt;choice115121115459711211211547115101100455246514511449 -->
<g id="edge14" class="edge">
<title>dependency7147:e&#45;&gt;choice115121115459711211211547115101100455246514511449:w</title>
<path fill="none" stroke="black" stroke-dasharray="1,5" d="M1019,-965C1040.78,-965 1033.3,-998.5 1018,-1014 993.61,-1038.71 727.83,-1005 706,-1032 650.68,-1100.43 666.26,-1151.49 706,-1230 716.54,-1250.81 725.26,-1262.52 744.83,-1265.33"/>
<polygon fill="black" stroke="black" points="755,-1266 744.73,-1269.84 750.01,-1265.67 745.02,-1265.34 745.02,-1265.34 745.02,-1265.34 750.01,-1265.67 745.32,-1260.85 755,-1266 755,-1266"/>
</g>
<!-- choice115121115459711211211547115101100455246524511449 -->
<g id="node16" class="node">
<title>choice115121115459711211211547115101100455246524511449</title>
<g id="a_node16"><a xlink:href="../sys-apps/sed-4.4-r1.svg" xlink:title="sys&#45;apps/sed&#45;4.4&#45;r1">
<ellipse fill="none" stroke="red" cx="900" cy="-1212" rx="144" ry="18"/>
<text text-anchor="middle" x="900" y="-1209" font-family="Helvetica,sans-Serif" font-size="10.00">sys&#45;apps/sed&#45;4.4&#45;r1</text>
</a>
</g>
</g>
<!-- dependency7147&#45;&gt;choice115121115459711211211547115101100455246524511449 -->
<g id="edge15" class="edge">
<title>dependency7147:e&#45;&gt;choice115121115459711211211547115101100455246524511449:w</title>
<path fill="none" stroke="black" stroke-dasharray="1,5" d="M1019,-965C1040.78,-965 1033.3,-998.5 1018,-1014 993.61,-1038.71 727.83,-1005 706,-1032 656.12,-1093.71 670.65,-1202.17 744.67,-1211.37"/>
<polygon fill="black" stroke="black" points="755,-1212 744.75,-1215.89 750.01,-1211.7 745.02,-1211.39 745.02,-1211.39 745.02,-1211.39 750.01,-1211.7 745.29,-1206.9 755,-1212 755,-1212"/>
</g>
<!-- choice11512111545971121121154711510110045524653 -->
<g id="node17" class="node">
<title>choice11512111545971121121154711510110045524653</title>
<g id="a_node17"><a xlink:href="../sys-apps/sed-4.5.svg" xlink:title="sys&#45;apps/sed&#45;4.5">
<ellipse fill="none" stroke="red" cx="900" cy="-1158" rx="144" ry="18"/>
<text text-anchor="middle" x="900" y="-1155" font-family="Helvetica,sans-Serif" font-size="10.00">sys&#45;apps/sed&#45;4.5</text>
</a>
</g>
</g>
<!-- dependency7147&#45;&gt;choice11512111545971121121154711510110045524653 -->
<g id="edge16" class="edge">
<title>dependency7147:e&#45;&gt;choice11512111545971121121154711510110045524653:w</title>
<path fill="none" stroke="black" stroke-dasharray="1,5" d="M1019,-965C1040.78,-965 1033.3,-998.5 1018,-1014 993.61,-1038.71 727.83,-1005 706,-1032 670.44,-1075.99 692.01,-1148.82 744.79,-1157.21"/>
<polygon fill="black" stroke="black" points="755,-1158 744.68,-1161.71 750.02,-1157.61 745.03,-1157.22 745.03,-1157.22 745.03,-1157.22 750.02,-1157.61 745.38,-1152.74 755,-1158 755,-1158"/>
</g>
<!-- dependency7149 -->
<g id="node6" class="node">
<title>dependency7149</title>
<polygon fill="none" stroke="blue" points="790,-1306 790,-1396 895,-1396 895,-1306 790,-1306"/>
<text text-anchor="start" x="820.82" y="-1348" font-family="Helvetica,sans-Serif" font-size="10.00">pack_dep</text>
<polygon fill="none" stroke="blue" points="895,-1376 895,-1396 1005,-1396 1005,-1376 895,-1376"/>
<text text-anchor="start" x="944.44" y="-1383" font-family="Helvetica,sans-Serif" font-size="10.00">no</text>
<polygon fill="none" stroke="blue" points="895,-1356 895,-1376 1005,-1376 1005,-1356 895,-1356"/>
<text text-anchor="start" x="936.66" y="-1363" font-family="Helvetica,sans-Serif" font-size="10.00">virtual</text>
<polygon fill="none" stroke="blue" points="895,-1336 895,-1356 1005,-1356 1005,-1336 895,-1336"/>
<text text-anchor="start" x="931.38" y="-1343" font-family="Helvetica,sans-Serif" font-size="10.00">modutils</text>
<polygon fill="none" stroke="blue" points="895,-1316 895,-1336 1005,-1336 1005,-1316 895,-1316"/>
<text text-anchor="start" x="938.88" y="-1323" font-family="Helvetica,sans-Serif" font-size="10.00">none</text>
<polygon fill="none" stroke="blue" points="895,-1306 895,-1316 1005,-1316 1005,-1306 895,-1306"/>
</g>
<!-- dependency7148&#45;&gt;dependency7149 -->
<g id="edge4" class="edge">
<title>dependency7148:e&#45;&gt;dependency7149:w</title>
<path fill="none" stroke="black" stroke-dasharray="5,2" d="M616,-1351C685.75,-1351 705.75,-1351 770.64,-1351"/>
<polygon fill="black" stroke="black" points="781,-1351 771,-1355.5 776,-1351 771,-1351 771,-1351 771,-1351 776,-1351 771,-1346.5 781,-1351 781,-1351"/>
</g>
<!-- choice11810511411611797108471091111001171161051081154548 -->
<g id="node18" class="node">
<title>choice11810511411611797108471091111001171161051081154548</title>
<g id="a_node18"><a xlink:href="../virtual/modutils-0.svg" xlink:title="virtual/modutils&#45;0">
<ellipse fill="none" stroke="red" cx="900" cy="-1660" rx="144" ry="18"/>
<text text-anchor="middle" x="900" y="-1657" font-family="Helvetica,sans-Serif" font-size="10.00">virtual/modutils&#45;0</text>
</a>
</g>
</g>
<!-- dependency7149&#45;&gt;choice11810511411611797108471091111001171161051081154548 -->
<g id="edge17" class="edge">
<title>dependency7149:e&#45;&gt;choice11810511411611797108471091111001171161051081154548:w</title>
<path fill="none" stroke="black" stroke-dasharray="1,5" d="M1019,-1351C1040.78,-1351 1033.3,-1384.5 1018,-1400 993.61,-1424.71 727.83,-1391 706,-1418 648.44,-1489.2 664.65,-1542.31 706,-1624 716.54,-1644.81 725.26,-1656.52 744.83,-1659.33"/>
<polygon fill="black" stroke="black" points="755,-1660 744.73,-1663.84 750.01,-1659.67 745.02,-1659.34 745.02,-1659.34 745.02,-1659.34 750.01,-1659.67 745.32,-1654.85 755,-1660 755,-1660"/>
</g>
<!-- choice11512111545991081171151161011144710010810945108105984550464851464857 -->
<g id="node19" class="node">
<title>choice11512111545991081171151161011144710010810945108105984550464851464857</title>
<g id="a_node19"><a xlink:href="../sys-cluster/dlm-lib-2.03.09.svg" xlink:title="sys&#45;cluster/dlm&#45;lib&#45;2.03.09">
<ellipse fill="none" stroke="red" cx="900" cy="-826" rx="144" ry="18"/>
<text text-anchor="middle" x="900" y="-823" font-family="Helvetica,sans-Serif" font-size="10.00">sys&#45;cluster/dlm&#45;lib&#45;2.03.09</text>
</a>
</g>
</g>
<!-- dependency7150&#45;&gt;choice11512111545991081171151161011144710010810945108105984550464851464857 -->
<g id="edge18" class="edge">
<title>dependency7150:e&#45;&gt;choice11512111545991081171151161011144710010810945108105984550464851464857:w</title>
<path fill="none" stroke="black" stroke-dasharray="1,5" d="M750.98,-816.58C751.95,-813.46 753.8,-810.23 756,-808 797,-766.46 977.78,-832.29 1018,-790 1034.54,-772.61 1043,-736 1019,-736"/>
<polygon fill="black" stroke="black" points="755,-826 746.94,-818.57 753.04,-821.4 751.07,-816.8 751.07,-816.8 751.07,-816.8 753.04,-821.4 755.21,-815.04 755,-826 755,-826"/>
</g>
<!-- choice11512111545991081171151161011144710010810945108105984550464851464949 -->
<g id="node20" class="node">
<title>choice11512111545991081171151161011144710010810945108105984550464851464949</title>
<g id="a_node20"><a xlink:href="../sys-cluster/dlm-lib-2.03.11.svg" xlink:title="sys&#45;cluster/dlm&#45;lib&#45;2.03.11">
<ellipse fill="none" stroke="red" cx="900" cy="-880" rx="144" ry="18"/>
<text text-anchor="middle" x="900" y="-877" font-family="Helvetica,sans-Serif" font-size="10.00">sys&#45;cluster/dlm&#45;lib&#45;2.03.11</text>
</a>
</g>
</g>
<!-- dependency7150&#45;&gt;choice11512111545991081171151161011144710010810945108105984550464851464949 -->
<g id="edge19" class="edge">
<title>dependency7150:e&#45;&gt;choice11512111545991081171151161011144710010810945108105984550464851464949:w</title>
<path fill="none" stroke="black" stroke-dasharray="1,5" d="M1019,-736C1043,-736 1034.85,-772.9 1018,-790 993.63,-814.73 727.83,-781 706,-808 683.85,-835.4 710.55,-872.57 744.71,-879.02"/>
<polygon fill="black" stroke="black" points="755,-880 744.62,-883.54 750.02,-879.53 745.04,-879.06 745.04,-879.06 745.04,-879.06 750.02,-879.53 745.47,-874.58 755,-880 755,-880"/>
</g>
<!-- choice11512111545107101114110101108471081051101171204510410197100101114115455046524651514651 -->
<g id="node21" class="node">
<title>choice11512111545107101114110101108471081051101171204510410197100101114115455046524651514651</title>
<g id="a_node21"><a xlink:href="../sys-kernel/linux-headers-2.4.33.3.svg" xlink:title="sys&#45;kernel/linux&#45;headers&#45;2.4.33.3">
<ellipse fill="none" stroke="red" cx="900" cy="-376" rx="144" ry="18"/>
<text text-anchor="middle" x="900" y="-373" font-family="Helvetica,sans-Serif" font-size="10.00">sys&#45;kernel/linux&#45;headers&#45;2.4.33.3</text>
</a>
</g>
</g>
<!-- dependency7151&#45;&gt;choice11512111545107101114110101108471081051101171204510410197100101114115455046524651514651 -->
<g id="edge20" class="edge">
<title>dependency7151:e&#45;&gt;choice11512111545107101114110101108471081051101171204510410197100101114115455046524651514651:w</title>
<path fill="none" stroke="black" stroke-dasharray="1,5" d="M1019,-70C1043,-70 1034.85,-106.9 1018,-124 993.63,-148.73 727.83,-115 706,-142 650.68,-210.43 666.26,-261.49 706,-340 716.54,-360.81 725.26,-372.52 744.83,-375.33"/>
<polygon fill="black" stroke="black" points="755,-376 744.73,-379.84 750.01,-375.67 745.02,-375.34 745.02,-375.34 745.02,-375.34 750.01,-375.67 745.32,-370.85 755,-376 755,-376"/>
</g>
<!-- choice1151211154510710111411010110847108105110117120451041019710010111411545504652465154 -->
<g id="node22" class="node">
<title>choice1151211154510710111411010110847108105110117120451041019710010111411545504652465154</title>
<g id="a_node22"><a xlink:href="../sys-kernel/linux-headers-2.4.36.svg" xlink:title="sys&#45;kernel/linux&#45;headers&#45;2.4.36">
<ellipse fill="none" stroke="red" cx="900" cy="-322" rx="144" ry="18"/>
<text text-anchor="middle" x="900" y="-319" font-family="Helvetica,sans-Serif" font-size="10.00">sys&#45;kernel/linux&#45;headers&#45;2.4.36</text>
</a>
</g>
</g>
<!-- dependency7151&#45;&gt;choice1151211154510710111411010110847108105110117120451041019710010111411545504652465154 -->
<g id="edge21" class="edge">
<title>dependency7151:e&#45;&gt;choice1151211154510710111411010110847108105110117120451041019710010111411545504652465154:w</title>
<path fill="none" stroke="black" stroke-dasharray="1,5" d="M1019,-70C1043,-70 1034.85,-106.9 1018,-124 993.63,-148.73 727.83,-115 706,-142 656.12,-203.71 670.65,-312.17 744.67,-321.37"/>
<polygon fill="black" stroke="black" points="755,-322 744.75,-325.89 750.01,-321.7 745.02,-321.39 745.02,-321.39 745.02,-321.39 750.01,-321.7 745.29,-316.9 755,-322 755,-322"/>
</g>
<!-- choice115121115451071011141101011084710810511011712045104101971001011141154551464956 -->
<g id="node23" class="node">
<title>choice115121115451071011141101011084710810511011712045104101971001011141154551464956</title>
<g id="a_node23"><a xlink:href="../sys-kernel/linux-headers-3.18.svg" xlink:title="sys&#45;kernel/linux&#45;headers&#45;3.18">
<ellipse fill="none" stroke="red" cx="900" cy="-268" rx="144" ry="18"/>
<text text-anchor="middle" x="900" y="-265" font-family="Helvetica,sans-Serif" font-size="10.00">sys&#45;kernel/linux&#45;headers&#45;3.18</text>
</a>
</g>
</g>
<!-- dependency7151&#45;&gt;choice115121115451071011141101011084710810511011712045104101971001011141154551464956 -->
<g id="edge22" class="edge">
<title>dependency7151:e&#45;&gt;choice115121115451071011141101011084710810511011712045104101971001011141154551464956:w</title>
<path fill="none" stroke="black" stroke-dasharray="1,5" d="M1019,-70C1043,-70 1034.85,-106.9 1018,-124 993.63,-148.73 727.83,-115 706,-142 670.44,-185.99 692.01,-258.82 744.79,-267.21"/>
<polygon fill="black" stroke="black" points="755,-268 744.68,-271.71 750.02,-267.61 745.03,-267.22 745.03,-267.22 745.03,-267.22 750.02,-267.61 745.38,-262.74 755,-268 755,-268"/>
</g>
<!-- choice115121115451071011141101011084710810511011712045104101971001011141154552464951 -->
<g id="node24" class="node">
<title>choice115121115451071011141101011084710810511011712045104101971001011141154552464951</title>
<g id="a_node24"><a xlink:href="../sys-kernel/linux-headers-4.13.svg" xlink:title="sys&#45;kernel/linux&#45;headers&#45;4.13">
<ellipse fill="none" stroke="red" cx="900" cy="-214" rx="144" ry="18"/>
<text text-anchor="middle" x="900" y="-211" font-family="Helvetica,sans-Serif" font-size="10.00">sys&#45;kernel/linux&#45;headers&#45;4.13</text>
</a>
</g>
</g>
<!-- dependency7151&#45;&gt;choice115121115451071011141101011084710810511011712045104101971001011141154552464951 -->
<g id="edge23" class="edge">
<title>dependency7151:e&#45;&gt;choice115121115451071011141101011084710810511011712045104101971001011141154552464951:w</title>
<path fill="none" stroke="black" stroke-dasharray="1,5" d="M1019,-70C1043,-70 1034.85,-106.9 1018,-124 993.63,-148.73 727.83,-115 706,-142 683.85,-169.4 710.55,-206.57 744.71,-213.02"/>
<polygon fill="black" stroke="black" points="755,-214 744.62,-217.54 750.02,-213.53 745.04,-213.06 745.04,-213.06 745.04,-213.06 750.02,-213.53 745.47,-208.58 755,-214 755,-214"/>
</g>
<!-- choice115121115451071011141101011084710810511011712045104101971001011141154552464952 -->
<g id="node25" class="node">
<title>choice115121115451071011141101011084710810511011712045104101971001011141154552464952</title>
<g id="a_node25"><a xlink:href="../sys-kernel/linux-headers-4.14.svg" xlink:title="sys&#45;kernel/linux&#45;headers&#45;4.14">
<ellipse fill="none" stroke="red" cx="900" cy="-160" rx="144" ry="18"/>
<text text-anchor="middle" x="900" y="-157" font-family="Helvetica,sans-Serif" font-size="10.00">sys&#45;kernel/linux&#45;headers&#45;4.14</text>
</a>
</g>
</g>
<!-- dependency7151&#45;&gt;choice115121115451071011141101011084710810511011712045104101971001011141154552464952 -->
<g id="edge24" class="edge">
<title>dependency7151:e&#45;&gt;choice115121115451071011141101011084710810511011712045104101971001011141154552464952:w</title>
<path fill="none" stroke="black" stroke-dasharray="1,5" d="M750.98,-150.58C751.95,-147.46 753.8,-144.23 756,-142 797,-100.46 977.78,-166.29 1018,-124 1034.54,-106.61 1043,-70 1019,-70"/>
<polygon fill="black" stroke="black" points="755,-160 746.94,-152.57 753.04,-155.4 751.07,-150.8 751.07,-150.8 751.07,-150.8 753.04,-155.4 755.21,-149.04 755,-160 755,-160"/>
</g>
<!-- choice115121115451071011141101011084710810511011712045104101971001011141154552464953 -->
<g id="node26" class="node">
<title>choice115121115451071011141101011084710810511011712045104101971001011141154552464953</title>
<g id="a_node26"><a xlink:href="../sys-kernel/linux-headers-4.15.svg" xlink:title="sys&#45;kernel/linux&#45;headers&#45;4.15">
<ellipse fill="none" stroke="red" cx="900" cy="-646" rx="144" ry="18"/>
<text text-anchor="middle" x="900" y="-643" font-family="Helvetica,sans-Serif" font-size="10.00">sys&#45;kernel/linux&#45;headers&#45;4.15</text>
</a>
</g>
</g>
<!-- dependency7151&#45;&gt;choice115121115451071011141101011084710810511011712045104101971001011141154552464953 -->
<g id="edge25" class="edge">
<title>dependency7151:e&#45;&gt;choice115121115451071011141101011084710810511011712045104101971001011141154552464953:w</title>
<path fill="none" stroke="black" stroke-dasharray="1,5" d="M1019,-70C1043,-70 1034.85,-106.9 1018,-124 993.63,-148.73 727.83,-115 706,-142 673.31,-182.44 682.52,-563.61 706,-610 716.54,-630.81 725.26,-642.52 744.83,-645.33"/>
<polygon fill="black" stroke="black" points="755,-646 744.73,-649.84 750.01,-645.67 745.02,-645.34 745.02,-645.34 745.02,-645.34 750.01,-645.67 745.32,-640.85 755,-646 755,-646"/>
</g>
<!-- choice115121115451071011141101011084710810511011712045104101971001011141154552464954 -->
<g id="node27" class="node">
<title>choice115121115451071011141101011084710810511011712045104101971001011141154552464954</title>
<g id="a_node27"><a xlink:href="../sys-kernel/linux-headers-4.16.svg" xlink:title="sys&#45;kernel/linux&#45;headers&#45;4.16">
<ellipse fill="none" stroke="red" cx="900" cy="-592" rx="144" ry="18"/>
<text text-anchor="middle" x="900" y="-589" font-family="Helvetica,sans-Serif" font-size="10.00">sys&#45;kernel/linux&#45;headers&#45;4.16</text>
</a>
</g>
</g>
<!-- dependency7151&#45;&gt;choice115121115451071011141101011084710810511011712045104101971001011141154552464954 -->
<g id="edge26" class="edge">
<title>dependency7151:e&#45;&gt;choice115121115451071011141101011084710810511011712045104101971001011141154552464954:w</title>
<path fill="none" stroke="black" stroke-dasharray="1,5" d="M1019,-70C1043,-70 1034.85,-106.9 1018,-124 993.63,-148.73 727.83,-115 706,-142 648.16,-213.55 664.45,-473.92 706,-556 716.54,-576.81 725.26,-588.52 744.83,-591.33"/>
<polygon fill="black" stroke="black" points="755,-592 744.73,-595.84 750.01,-591.67 745.02,-591.34 745.02,-591.34 745.02,-591.34 750.01,-591.67 745.32,-586.85 755,-592 755,-592"/>
</g>
<!-- choice1151211154510710111411010110847108105110117120451041019710010111411545524649544511449 -->
<g id="node28" class="node">
<title>choice1151211154510710111411010110847108105110117120451041019710010111411545524649544511449</title>
<g id="a_node28"><a xlink:href="../sys-kernel/linux-headers-4.16-r1.svg" xlink:title="sys&#45;kernel/linux&#45;headers&#45;4.16&#45;r1">
<ellipse fill="none" stroke="red" cx="900" cy="-538" rx="144" ry="18"/>
<text text-anchor="middle" x="900" y="-535" font-family="Helvetica,sans-Serif" font-size="10.00">sys&#45;kernel/linux&#45;headers&#45;4.16&#45;r1</text>
</a>
</g>
</g>
<!-- dependency7151&#45;&gt;choice1151211154510710111411010110847108105110117120451041019710010111411545524649544511449 -->
<g id="edge27" class="edge">
<title>dependency7151:e&#45;&gt;choice1151211154510710111411010110847108105110117120451041019710010111411545524649544511449:w</title>
<path fill="none" stroke="black" stroke-dasharray="1,5" d="M1019,-70C1043,-70 1034.85,-106.9 1018,-124 993.63,-148.73 727.83,-115 706,-142 655.71,-204.21 669.87,-430.62 706,-502 716.54,-522.81 725.26,-534.52 744.83,-537.33"/>
<polygon fill="black" stroke="black" points="755,-538 744.73,-541.84 750.01,-537.67 745.02,-537.34 745.02,-537.34 745.02,-537.34 750.01,-537.67 745.32,-532.85 755,-538 755,-538"/>
</g>
<!-- choice1151211154510710111411010110847108105110117120451041019710010111411545524652 -->
<g id="node29" class="node">
<title>choice1151211154510710111411010110847108105110117120451041019710010111411545524652</title>
<g id="a_node29"><a xlink:href="../sys-kernel/linux-headers-4.4.svg" xlink:title="sys&#45;kernel/linux&#45;headers&#45;4.4">
<ellipse fill="none" stroke="red" cx="900" cy="-484" rx="144" ry="18"/>
<text text-anchor="middle" x="900" y="-481" font-family="Helvetica,sans-Serif" font-size="10.00">sys&#45;kernel/linux&#45;headers&#45;4.4</text>
</a>
</g>
</g>
<!-- dependency7151&#45;&gt;choice1151211154510710111411010110847108105110117120451041019710010111411545524652 -->
<g id="edge28" class="edge">
<title>dependency7151:e&#45;&gt;choice1151211154510710111411010110847108105110117120451041019710010111411545524652:w</title>
<path fill="none" stroke="black" stroke-dasharray="1,5" d="M1019,-70C1043,-70 1034.85,-106.9 1018,-124 993.63,-148.73 727.83,-115 706,-142 663.25,-194.88 675.29,-387.33 706,-448 716.54,-468.81 725.26,-480.52 744.83,-483.33"/>
<polygon fill="black" stroke="black" points="755,-484 744.73,-487.84 750.01,-483.67 745.02,-483.34 745.02,-483.34 745.02,-483.34 750.01,-483.67 745.32,-478.85 755,-484 755,-484"/>
</g>
<!-- choice1151211154510710111411010110847108105110117120451041019710010111411545524657 -->
<g id="node30" class="node">
<title>choice1151211154510710111411010110847108105110117120451041019710010111411545524657</title>
<g id="a_node30"><a xlink:href="../sys-kernel/linux-headers-4.9.svg" xlink:title="sys&#45;kernel/linux&#45;headers&#45;4.9">
<ellipse fill="none" stroke="red" cx="900" cy="-430" rx="144" ry="18"/>
<text text-anchor="middle" x="900" y="-427" font-family="Helvetica,sans-Serif" font-size="10.00">sys&#45;kernel/linux&#45;headers&#45;4.9</text>
</a>
</g>
</g>
<!-- dependency7151&#45;&gt;choice1151211154510710111411010110847108105110117120451041019710010111411545524657 -->
<g id="edge29" class="edge">
<title>dependency7151:e&#45;&gt;choice1151211154510710111411010110847108105110117120451041019710010111411545524657:w</title>
<path fill="none" stroke="black" stroke-dasharray="1,5" d="M1019,-70C1043,-70 1034.85,-106.9 1018,-124 993.63,-148.73 727.83,-115 706,-142 670.79,-185.55 680.71,-344.04 706,-394 716.54,-414.81 725.26,-426.52 744.83,-429.33"/>
<polygon fill="black" stroke="black" points="755,-430 744.73,-433.84 750.01,-429.67 745.02,-429.34 745.02,-429.34 745.02,-429.34 750.01,-429.67 745.32,-424.85 755,-430 755,-430"/>
</g>
</g>
</svg>
