<?xml version="1.0" encoding="UTF-8" standalone="no"?>
<!DOCTYPE svg PUBLIC "-//W3C//DTD SVG 1.1//EN"
 "http://www.w3.org/Graphics/SVG/1.1/DTD/svg11.dtd">
<!-- Generated by graphviz version 9.0.0 (20230911.1827)
 -->
<!-- Title: prolog Pages: 1 -->
<svg width="1076pt" height="627pt"
 viewBox="0.00 0.00 1076.00 627.00" xmlns="http://www.w3.org/2000/svg" xmlns:xlink="http://www.w3.org/1999/xlink">
<g id="graph0" class="graph" transform="scale(1 1) rotate(0) translate(4 623)">
<title>prolog</title>
<polygon fill="white" stroke="none" points="-4,4 -4,-623 1072,-623 1072,4 -4,4"/>
<g id="clust2" class="cluster">
<title>cluster_midcol</title>
<polygon fill="none" stroke="gray" points="8,-8 8,-611 672,-611 672,-8 8,-8"/>
<text text-anchor="start" x="310" y="-598.5" font-family="Helvetica,sans-Serif" font-style="italic" font-size="10.00">dependencies</text>
</g>
<g id="clust3" class="cluster">
<title>cluster_compile</title>
<polygon fill="#eeeeee" stroke="gray" points="16,-16 16,-427 664,-427 664,-16 16,-16"/>
<text text-anchor="start" x="323.12" y="-414.5" font-family="Helvetica,sans-Serif" font-style="italic" font-size="10.00">compile</text>
</g>
<g id="clust8" class="cluster">
<title>cluster_run</title>
<polygon fill="#eeeeee" stroke="gray" points="412,-435 412,-584 664,-584 664,-435 412,-435"/>
<text text-anchor="start" x="531.25" y="-571.5" font-family="Helvetica,sans-Serif" font-style="italic" font-size="10.00">run</text>
</g>
<g id="clust10" class="cluster">
<title>cluster_choices</title>
<polygon fill="none" stroke="gray" points="756,-78 756,-442 1060,-442 1060,-78 756,-78"/>
<text text-anchor="start" x="884.38" y="-429.5" font-family="Helvetica,sans-Serif" font-style="italic" font-size="10.00">candidates</text>
</g>
<!-- id -->
<g id="node1" class="node">
<title>id</title>
<g id="a_node1"><a xlink:href="../sys-cluster/galera-25.3.37.svg" xlink:title="portage://sys&#45;cluster/galera&#45;25.3.37">
<ellipse fill="none" stroke="red" cx="168" cy="-277" rx="144" ry="18"/>
<text text-anchor="middle" x="168" y="-273.12" font-family="Helvetica,sans-Serif" font-size="10.00">portage://sys&#45;cluster/galera&#45;25.3.37</text>
</a>
</g>
</g>
<!-- dependency5756 -->
<g id="node2" class="node">
<title>dependency5756</title>
<polygon fill="none" stroke="blue" points="428,-28.5 428,-133.5 532,-133.5 532,-28.5 428,-28.5"/>
<text text-anchor="start" x="459" y="-77.12" font-family="Helvetica,sans-Serif" font-size="10.00">pack_dep</text>
<polygon fill="none" stroke="blue" points="532,-112.5 532,-133.5 642,-133.5 642,-112.5 532,-112.5"/>
<text text-anchor="start" x="581.75" y="-119" font-family="Helvetica,sans-Serif" font-size="10.00">no</text>
<polygon fill="none" stroke="blue" points="532,-91.5 532,-112.5 642,-112.5 642,-91.5 532,-91.5"/>
<text text-anchor="start" x="569.75" y="-98" font-family="Helvetica,sans-Serif" font-size="10.00">dev&#45;cpp</text>
<polygon fill="none" stroke="blue" points="532,-70.5 532,-91.5 642,-91.5 642,-70.5 532,-70.5"/>
<text text-anchor="start" x="578" y="-77" font-family="Helvetica,sans-Serif" font-size="10.00">asio</text>
<polygon fill="none" stroke="blue" points="532,-49.5 532,-70.5 642,-70.5 642,-49.5 532,-49.5"/>
<text text-anchor="start" x="560.38" y="-56" font-family="Helvetica,sans-Serif" font-size="10.00">greaterequal</text>
<polygon fill="none" stroke="blue" points="532,-28.5 532,-49.5 642,-49.5 642,-28.5 532,-28.5"/>
<text text-anchor="start" x="573.5" y="-35" font-family="Helvetica,sans-Serif" font-size="10.00">1.10.1</text>
</g>
<!-- id&#45;&gt;dependency5756 -->
<g id="edge1" class="edge">
<title>id:e&#45;&gt;dependency5756:w</title>
<path fill="none" stroke="black" d="M312,-277C407.37,-277 326.61,-96.01 408.22,-81.87"/>
<polygon fill="black" stroke="black" points="417.79,-81.1 408.18,-86.39 414.02,-81.4 407.82,-81.91 407.82,-81.91 407.82,-81.91 414.02,-81.4 407.45,-77.42 417.79,-81.1"/>
</g>
<!-- dependency5757 -->
<g id="node3" class="node">
<title>dependency5757</title>
<polygon fill="none" stroke="blue" points="428,-159.5 428,-264.5 532,-264.5 532,-159.5 428,-159.5"/>
<text text-anchor="start" x="459" y="-208.12" font-family="Helvetica,sans-Serif" font-size="10.00">pack_dep</text>
<polygon fill="none" stroke="blue" points="532,-243.5 532,-264.5 642,-264.5 642,-243.5 532,-243.5"/>
<text text-anchor="start" x="581.75" y="-250" font-family="Helvetica,sans-Serif" font-size="10.00">no</text>
<polygon fill="none" stroke="blue" points="532,-222.5 532,-243.5 642,-243.5 642,-222.5 532,-222.5"/>
<text text-anchor="start" x="569.75" y="-229" font-family="Helvetica,sans-Serif" font-size="10.00">dev&#45;cpp</text>
<polygon fill="none" stroke="blue" points="532,-201.5 532,-222.5 642,-222.5 642,-201.5 532,-201.5"/>
<text text-anchor="start" x="578" y="-208" font-family="Helvetica,sans-Serif" font-size="10.00">asio</text>
<polygon fill="none" stroke="blue" points="532,-180.5 532,-201.5 642,-201.5 642,-180.5 532,-180.5"/>
<text text-anchor="start" x="571.25" y="-187" font-family="Helvetica,sans-Serif" font-size="10.00">smaller</text>
<polygon fill="none" stroke="blue" points="532,-159.5 532,-180.5 642,-180.5 642,-159.5 532,-159.5"/>
<text text-anchor="start" x="573.5" y="-166" font-family="Helvetica,sans-Serif" font-size="10.00">1.12.0</text>
</g>
<!-- id&#45;&gt;dependency5757 -->
<g id="edge2" class="edge">
<title>id:e&#45;&gt;dependency5757:w</title>
<path fill="none" stroke="black" d="M312,-277C363.62,-277 363.66,-221.06 407.83,-212.97"/>
<polygon fill="black" stroke="black" points="417.79,-212.11 408.21,-217.45 414.02,-212.43 407.82,-212.97 407.82,-212.97 407.82,-212.97 414.02,-212.43 407.43,-208.49 417.79,-212.11"/>
</g>
<!-- dependency5758 -->
<g id="node4" class="node">
<title>dependency5758</title>
<polygon fill="none" stroke="blue" points="428,-290.5 428,-395.5 532,-395.5 532,-290.5 428,-290.5"/>
<text text-anchor="start" x="459" y="-339.12" font-family="Helvetica,sans-Serif" font-size="10.00">pack_dep</text>
<polygon fill="none" stroke="blue" points="532,-374.5 532,-395.5 642,-395.5 642,-374.5 532,-374.5"/>
<text text-anchor="start" x="581.75" y="-381" font-family="Helvetica,sans-Serif" font-size="10.00">no</text>
<polygon fill="none" stroke="blue" points="532,-353.5 532,-374.5 642,-374.5 642,-353.5 532,-353.5"/>
<text text-anchor="start" x="570.12" y="-360" font-family="Helvetica,sans-Serif" font-size="10.00">dev&#45;libs</text>
<polygon fill="none" stroke="blue" points="532,-332.5 532,-353.5 642,-353.5 642,-332.5 532,-332.5"/>
<text text-anchor="start" x="575" y="-339" font-family="Helvetica,sans-Serif" font-size="10.00">boost</text>
<polygon fill="none" stroke="blue" points="532,-311.5 532,-332.5 642,-332.5 642,-311.5 532,-311.5"/>
<text text-anchor="start" x="560.38" y="-318" font-family="Helvetica,sans-Serif" font-size="10.00">greaterequal</text>
<polygon fill="none" stroke="blue" points="532,-290.5 532,-311.5 642,-311.5 642,-290.5 532,-290.5"/>
<text text-anchor="start" x="577.62" y="-297" font-family="Helvetica,sans-Serif" font-size="10.00">1.41</text>
</g>
<!-- id&#45;&gt;dependency5758 -->
<g id="edge3" class="edge">
<title>id:e&#45;&gt;dependency5758:w</title>
<path fill="none" stroke="black" d="M312,-277C363.95,-277 363.49,-334.05 408.07,-342.07"/>
<polygon fill="black" stroke="black" points="417.79,-342.9 407.44,-346.53 414.02,-342.57 407.82,-342.05 407.82,-342.05 407.82,-342.05 414.02,-342.57 408.21,-337.56 417.79,-342.9"/>
</g>
<!-- dependency5759 -->
<g id="node5" class="node">
<title>dependency5759</title>
<polygon fill="none" stroke="blue" points="428,-447.5 428,-552.5 532,-552.5 532,-447.5 428,-447.5"/>
<text text-anchor="start" x="459" y="-496.12" font-family="Helvetica,sans-Serif" font-size="10.00">pack_dep</text>
<polygon fill="none" stroke="blue" points="532,-531.5 532,-552.5 642,-552.5 642,-531.5 532,-531.5"/>
<text text-anchor="start" x="581.75" y="-538" font-family="Helvetica,sans-Serif" font-size="10.00">no</text>
<polygon fill="none" stroke="blue" points="532,-510.5 532,-531.5 642,-531.5 642,-510.5 532,-510.5"/>
<text text-anchor="start" x="570.12" y="-517" font-family="Helvetica,sans-Serif" font-size="10.00">dev&#45;libs</text>
<polygon fill="none" stroke="blue" points="532,-489.5 532,-510.5 642,-510.5 642,-489.5 532,-489.5"/>
<text text-anchor="start" x="575" y="-496" font-family="Helvetica,sans-Serif" font-size="10.00">boost</text>
<polygon fill="none" stroke="blue" points="532,-468.5 532,-489.5 642,-489.5 642,-468.5 532,-468.5"/>
<text text-anchor="start" x="560.38" y="-475" font-family="Helvetica,sans-Serif" font-size="10.00">greaterequal</text>
<polygon fill="none" stroke="blue" points="532,-447.5 532,-468.5 642,-468.5 642,-447.5 532,-447.5"/>
<text text-anchor="start" x="577.62" y="-454" font-family="Helvetica,sans-Serif" font-size="10.00">1.41</text>
</g>
<!-- id&#45;&gt;dependency5759 -->
<g id="edge4" class="edge">
<title>id:e&#45;&gt;dependency5759:w</title>
<path fill="none" stroke="black" d="M312,-277C418.82,-277 315.28,-487.55 410.19,-499.47"/>
<ellipse fill="none" stroke="black" cx="414.51" cy="-499.73" rx="4" ry="4"/>
</g>
<!-- choice1001011184599112112479711510511145494649484656 -->
<g id="node6" class="node">
<title>choice1001011184599112112479711510511145494649484656</title>
<g id="a_node6"><a xlink:href="../dev-cpp/asio-1.10.8.svg" xlink:title="portage://dev&#45;cpp/asio&#45;1.10.8">
<ellipse fill="none" stroke="red" cx="908" cy="-158" rx="144" ry="18"/>
<text text-anchor="middle" x="908" y="-154.12" font-family="Helvetica,sans-Serif" font-size="10.00">portage://dev&#45;cpp/asio&#45;1.10.8</text>
</a>
</g>
</g>
<!-- dependency5756&#45;&gt;choice1001011184599112112479711510511145494649484656 -->
<g id="edge5" class="edge">
<title>dependency5756:e&#45;&gt;choice1001011184599112112479711510511145494649484656:w</title>
<path fill="none" stroke="black" stroke-dasharray="1,5" d="M657,-81C711.25,-81 705.88,-147.83 751.98,-156.97"/>
<polygon fill="black" stroke="black" points="761.79,-157.89 751.41,-161.44 758.02,-157.53 751.83,-156.96 751.83,-156.96 751.83,-156.96 758.02,-157.53 752.25,-152.48 761.79,-157.89"/>
</g>
<!-- choice1001011184599112112479711510511145494650504650 -->
<g id="node7" class="node">
<title>choice1001011184599112112479711510511145494650504650</title>
<g id="a_node7"><a xlink:href="../dev-cpp/asio-1.22.2.svg" xlink:title="portage://dev&#45;cpp/asio&#45;1.22.2">
<ellipse fill="none" stroke="red" cx="908" cy="-104" rx="144" ry="18"/>
<text text-anchor="middle" x="908" y="-100.12" font-family="Helvetica,sans-Serif" font-size="10.00">portage://dev&#45;cpp/asio&#45;1.22.2</text>
</a>
</g>
</g>
<!-- dependency5756&#45;&gt;choice1001011184599112112479711510511145494650504650 -->
<g id="edge6" class="edge">
<title>dependency5756:e&#45;&gt;choice1001011184599112112479711510511145494650504650:w</title>
<path fill="none" stroke="black" stroke-dasharray="1,5" d="M657,-81C701.25,-81 712.96,-100.38 751.87,-103.56"/>
<polygon fill="black" stroke="black" points="761.78,-103.95 751.61,-108.05 758,-103.8 751.79,-103.56 751.79,-103.56 751.79,-103.56 758,-103.8 751.97,-99.06 761.78,-103.95"/>
</g>
<!-- choice1001011184599112112479711510511145494650524648 -->
<g id="node8" class="node">
<title>choice1001011184599112112479711510511145494650524648</title>
<g id="a_node8"><a xlink:href="../dev-cpp/asio-1.24.0.svg" xlink:title="portage://dev&#45;cpp/asio&#45;1.24.0">
<ellipse fill="none" stroke="red" cx="908" cy="-212" rx="144" ry="18"/>
<text text-anchor="middle" x="908" y="-208.12" font-family="Helvetica,sans-Serif" font-size="10.00">portage://dev&#45;cpp/asio&#45;1.24.0</text>
</a>
</g>
</g>
<!-- dependency5756&#45;&gt;choice1001011184599112112479711510511145494650524648 -->
<g id="edge7" class="edge">
<title>dependency5756:e&#45;&gt;choice1001011184599112112479711510511145494650524648:w</title>
<path fill="none" stroke="black" stroke-dasharray="1,5" d="M657,-81C727.95,-81 692.39,-198.55 752.11,-210.95"/>
<polygon fill="black" stroke="black" points="761.79,-211.88 751.4,-215.4 758.02,-211.52 751.83,-210.92 751.83,-210.92 751.83,-210.92 758.02,-211.52 752.27,-206.44 761.79,-211.88"/>
</g>
<!-- dependency5757&#45;&gt;choice1001011184599112112479711510511145494649484656 -->
<g id="edge8" class="edge">
<title>dependency5757:e&#45;&gt;choice1001011184599112112479711510511145494649484656:w</title>
<path fill="none" stroke="black" stroke-dasharray="1,5" d="M657,-212C705.95,-212 709.8,-165.72 752.05,-158.85"/>
<polygon fill="black" stroke="black" points="761.79,-158.09 752.16,-163.35 758.01,-158.39 751.82,-158.87 751.82,-158.87 751.82,-158.87 758.01,-158.39 751.47,-154.38 761.79,-158.09"/>
</g>
<!-- dependency5757&#45;&gt;choice1001011184599112112479711510511145494650504650 -->
<g id="edge9" class="edge">
<title>dependency5757:e&#45;&gt;choice1001011184599112112479711510511145494650504650:w</title>
<path fill="none" stroke="black" stroke-dasharray="1,5" d="M657,-212C720.32,-212 698.76,-116.29 752.13,-105.07"/>
<polygon fill="black" stroke="black" points="761.79,-104.12 752.28,-109.58 758.02,-104.49 751.84,-105.1 751.84,-105.1 751.84,-105.1 758.02,-104.49 751.4,-100.62 761.79,-104.12"/>
</g>
<!-- dependency5757&#45;&gt;choice1001011184599112112479711510511145494650524648 -->
<g id="edge10" class="edge">
<title>dependency5757:e&#45;&gt;choice1001011184599112112479711510511145494650524648:w</title>
<path fill="none" stroke="black" stroke-dasharray="1,5" d="M657,-212C700.25,-212 713.72,-212 752.08,-212"/>
<polygon fill="black" stroke="black" points="761.78,-212 751.78,-216.5 758,-212 751.78,-212 751.78,-212 751.78,-212 758,-212 751.78,-207.5 761.78,-212"/>
</g>
<!-- choice10010111845108105981154798111111115116454946564846484511449 -->
<g id="node9" class="node">
<title>choice10010111845108105981154798111111115116454946564846484511449</title>
<g id="a_node9"><a xlink:href="../dev-libs/boost-1.80.0-r1.svg" xlink:title="portage://dev&#45;libs/boost&#45;1.80.0&#45;r1">
<ellipse fill="none" stroke="red" cx="908" cy="-343" rx="144" ry="18"/>
<text text-anchor="middle" x="908" y="-339.12" font-family="Helvetica,sans-Serif" font-size="10.00">portage://dev&#45;libs/boost&#45;1.80.0&#45;r1</text>
</a>
</g>
</g>
<!-- dependency5758&#45;&gt;choice10010111845108105981154798111111115116454946564846484511449 -->
<g id="edge11" class="edge">
<title>dependency5758:e&#45;&gt;choice10010111845108105981154798111111115116454946564846484511449:w</title>
<path fill="none" stroke="black" stroke-dasharray="1,5" d="M657,-343C700.25,-343 713.72,-343 752.08,-343"/>
<polygon fill="black" stroke="black" points="761.78,-343 751.78,-347.5 758,-343 751.78,-343 751.78,-343 751.78,-343 758,-343 751.78,-338.5 761.78,-343"/>
</g>
<!-- choice10010111845108105981154798111111115116454946564946484511449 -->
<g id="node10" class="node">
<title>choice10010111845108105981154798111111115116454946564946484511449</title>
<g id="a_node10"><a xlink:href="../dev-libs/boost-1.81.0-r1.svg" xlink:title="portage://dev&#45;libs/boost&#45;1.81.0&#45;r1">
<ellipse fill="none" stroke="red" cx="908" cy="-397" rx="144" ry="18"/>
<text text-anchor="middle" x="908" y="-393.12" font-family="Helvetica,sans-Serif" font-size="10.00">portage://dev&#45;libs/boost&#45;1.81.0&#45;r1</text>
</a>
</g>
</g>
<!-- dependency5758&#45;&gt;choice10010111845108105981154798111111115116454946564946484511449 -->
<g id="edge12" class="edge">
<title>dependency5758:e&#45;&gt;choice10010111845108105981154798111111115116454946564946484511449:w</title>
<path fill="none" stroke="black" stroke-dasharray="1,5" d="M657,-343C705.95,-343 709.8,-389.28 752.05,-396.15"/>
<polygon fill="black" stroke="black" points="761.79,-396.91 751.47,-400.62 758.01,-396.61 751.82,-396.13 751.82,-396.13 751.82,-396.13 758.01,-396.61 752.16,-391.65 761.79,-396.91"/>
</g>
<!-- dependency5759&#45;&gt;choice10010111845108105981154798111111115116454946564846484511449 -->
<g id="edge13" class="edge">
<title>dependency5759:e&#45;&gt;choice10010111845108105981154798111111115116454946564846484511449:w</title>
<path fill="none" stroke="black" stroke-dasharray="1,5" d="M657,-500C737.25,-500 684.33,-357.37 752.1,-344"/>
<polygon fill="black" stroke="black" points="761.79,-343.11 752.24,-348.51 758.02,-343.46 751.83,-344.03 751.83,-344.03 751.83,-344.03 758.02,-343.46 751.42,-339.55 761.79,-343.11"/>
</g>
<!-- dependency5759&#45;&gt;choice10010111845108105981154798111111115116454946564946484511449 -->
<g id="edge14" class="edge">
<title>dependency5759:e&#45;&gt;choice10010111845108105981154798111111115116454946564946484511449:w</title>
<path fill="none" stroke="black" stroke-dasharray="1,5" d="M657,-500C718.71,-500 700.05,-409.1 752.03,-398.09"/>
<polygon fill="black" stroke="black" points="761.79,-397.12 752.28,-402.58 758.02,-397.49 751.84,-398.11 751.84,-398.11 751.84,-398.11 758.02,-397.49 751.39,-393.63 761.79,-397.12"/>
</g>
</g>
</svg>
