<?xml version="1.0" encoding="UTF-8" standalone="no"?>
<!DOCTYPE svg PUBLIC "-//W3C//DTD SVG 1.1//EN"
 "http://www.w3.org/Graphics/SVG/1.1/DTD/svg11.dtd">
<!-- Generated by graphviz version 2.41.20171026.1811 (20171026.1811)
 -->
<!-- Title: prolog Pages: 1 -->
<svg width="1326pt" height="420pt"
 viewBox="0.00 0.00 1326.00 420.00" xmlns="http://www.w3.org/2000/svg" xmlns:xlink="http://www.w3.org/1999/xlink">
<g id="graph0" class="graph" transform="scale(1 1) rotate(0) translate(4 416)">
<title>prolog</title>
<polygon fill="white" stroke="transparent" points="-4,4 -4,-416 1322,-416 1322,4 -4,4"/>
<g id="clust1" class="cluster">
<title>cluster_leftcol</title>
<polygon fill="none" stroke="gray" points="8,-127 8,-199 312,-199 312,-127 8,-127"/>
<text text-anchor="start" x="146.66" y="-187" font-family="Helvetica,sans-Serif" font-style="italic" font-size="10.00">ebuild</text>
</g>
<g id="clust2" class="cluster">
<title>cluster_midcol</title>
<polygon fill="none" stroke="gray" points="396,-19 396,-333 922,-333 922,-19 396,-19"/>
<text text-anchor="start" x="627.88" y="-321" font-family="Helvetica,sans-Serif" font-style="italic" font-size="10.00">dependencies</text>
</g>
<g id="clust4" class="cluster">
<title>cluster_compileandrun</title>
<polygon fill="#eeeeee" stroke="gray" points="404,-27 404,-305 914,-305 914,-27 404,-27"/>
<text text-anchor="start" x="623.44" y="-293" font-family="Helvetica,sans-Serif" font-style="italic" font-size="10.00">compile and run</text>
</g>
<g id="clust10" class="cluster">
<title>cluster_choices</title>
<polygon fill="none" stroke="gray" points="1006,-8 1006,-404 1310,-404 1310,-8 1006,-8"/>
<text text-anchor="start" x="1133.82" y="-392" font-family="Helvetica,sans-Serif" font-style="italic" font-size="10.00">candidates</text>
</g>
<!-- id -->
<g id="node1" class="node">
<title>id</title>
<g id="a_node1"><a xlink:href="../sys-cluster/maui-3.3.1-r3.svg" xlink:title="sys&#45;cluster/maui&#45;3.3.1&#45;r3">
<ellipse fill="none" stroke="red" cx="160" cy="-153" rx="144" ry="18"/>
<text text-anchor="middle" x="160" y="-150" font-family="Helvetica,sans-Serif" font-size="10.00">sys&#45;cluster/maui&#45;3.3.1&#45;r3</text>
</a>
</g>
</g>
<!-- dependency480724 -->
<g id="node2" class="node">
<title>dependency480724</title>
<polygon fill="none" stroke="red" points="420,-181 420,-225 511,-225 511,-181 420,-181"/>
<text text-anchor="start" x="430.77" y="-200" font-family="Helvetica,sans-Serif" font-size="10.00">use_conditional</text>
<polygon fill="none" stroke="red" points="511,-203 511,-225 554,-225 554,-203 511,-203"/>
<text text-anchor="start" x="515.55" y="-211" font-family="Helvetica,sans-Serif" font-size="10.00">positive</text>
<polygon fill="none" stroke="red" points="511,-181 511,-203 554,-203 554,-181 511,-181"/>
<text text-anchor="start" x="524.44" y="-189" font-family="Helvetica,sans-Serif" font-size="10.00">pbs</text>
</g>
<!-- id&#45;&gt;dependency480724 -->
<g id="edge2" class="edge">
<title>id:e&#45;&gt;dependency480724:w</title>
<path fill="none" stroke="black" d="M305,-153C350.17,-153 357.54,-190.6 392.67,-200.59"/>
<ellipse fill="none" stroke="black" cx="407.03" cy="-202.48" rx="4" ry="4"/>
<polygon fill="black" stroke="black" points="403.07,-201.96 392.57,-205.11 398.11,-201.3 393.15,-200.65 393.15,-200.65 393.15,-200.65 398.11,-201.3 393.74,-196.19 403.07,-201.96 403.07,-201.96"/>
</g>
<!-- dependency480726 -->
<g id="node4" class="node">
<title>dependency480726</title>
<polygon fill="none" stroke="red" points="420,-81 420,-125 511,-125 511,-81 420,-81"/>
<text text-anchor="start" x="430.77" y="-100" font-family="Helvetica,sans-Serif" font-size="10.00">use_conditional</text>
<polygon fill="none" stroke="red" points="511,-103 511,-125 554,-125 554,-103 511,-103"/>
<text text-anchor="start" x="515.55" y="-111" font-family="Helvetica,sans-Serif" font-size="10.00">positive</text>
<polygon fill="none" stroke="red" points="511,-81 511,-103 554,-103 554,-81 511,-81"/>
<text text-anchor="start" x="520.28" y="-89" font-family="Helvetica,sans-Serif" font-size="10.00">slurm</text>
</g>
<!-- id&#45;&gt;dependency480726 -->
<g id="edge4" class="edge">
<title>id:e&#45;&gt;dependency480726:w</title>
<path fill="none" stroke="black" d="M305,-153C350.17,-153 357.54,-115.4 392.67,-105.41"/>
<ellipse fill="none" stroke="black" cx="407.03" cy="-103.52" rx="4" ry="4"/>
<polygon fill="black" stroke="black" points="403.07,-104.04 393.74,-109.81 398.11,-104.7 393.15,-105.35 393.15,-105.35 393.15,-105.35 398.11,-104.7 392.57,-100.89 403.07,-104.04 403.07,-104.04"/>
</g>
<!-- dependency480725 -->
<g id="node3" class="node">
<title>dependency480725</title>
<polygon fill="none" stroke="blue" points="678,-163 678,-273 783,-273 783,-163 678,-163"/>
<text text-anchor="start" x="708.82" y="-215" font-family="Helvetica,sans-Serif" font-size="10.00">pack_dep</text>
<polygon fill="none" stroke="blue" points="783,-251 783,-273 893,-273 893,-251 783,-251"/>
<text text-anchor="start" x="832.44" y="-259" font-family="Helvetica,sans-Serif" font-size="10.00">no</text>
<polygon fill="none" stroke="blue" points="783,-229 783,-251 893,-251 893,-229 783,-229"/>
<text text-anchor="start" x="814.11" y="-237" font-family="Helvetica,sans-Serif" font-size="10.00">sys&#45;cluster</text>
<polygon fill="none" stroke="blue" points="783,-207 783,-229 893,-229 893,-207 783,-207"/>
<text text-anchor="start" x="823.83" y="-215" font-family="Helvetica,sans-Serif" font-size="10.00">torque</text>
<polygon fill="none" stroke="blue" points="783,-185 783,-207 893,-207 893,-185 783,-185"/>
<text text-anchor="start" x="809.94" y="-193" font-family="Helvetica,sans-Serif" font-size="10.00">greaterequal</text>
<polygon fill="none" stroke="blue" points="783,-163 783,-185 893,-185 893,-163 783,-163"/>
<text text-anchor="start" x="835.22" y="-171" font-family="Helvetica,sans-Serif" font-size="10.00">4</text>
</g>
<!-- dependency480724&#45;&gt;dependency480725 -->
<g id="edge1" class="edge">
<title>dependency480724:e&#45;&gt;dependency480725:w</title>
<path fill="none" stroke="black" stroke-dasharray="5,2" d="M562,-203C606.86,-203 619.69,-215.86 659.8,-217.76"/>
<polygon fill="black" stroke="black" points="670,-218 659.9,-222.27 665,-217.88 660,-217.77 660,-217.77 660,-217.77 665,-217.88 660.11,-213.27 670,-218 670,-218"/>
</g>
<!-- choice115121115459910811711511610111447116111114113117101455046534649514511449 -->
<g id="node6" class="node">
<title>choice115121115459910811711511610111447116111114113117101455046534649514511449</title>
<g id="a_node6"><a xlink:href="../sys-cluster/torque-2.5.13-r1.svg" xlink:title="sys&#45;cluster/torque&#45;2.5.13&#45;r1">
<ellipse fill="none" stroke="red" cx="1158" cy="-358" rx="144" ry="18"/>
<text text-anchor="middle" x="1158" y="-355" font-family="Helvetica,sans-Serif" font-size="10.00">sys&#45;cluster/torque&#45;2.5.13&#45;r1</text>
</a>
</g>
</g>
<!-- dependency480725&#45;&gt;choice115121115459910811711511610111447116111114113117101455046534649514511449 -->
<g id="edge5" class="edge">
<title>dependency480725:e&#45;&gt;choice115121115459910811711511610111447116111114113117101455046534649514511449:w</title>
<path fill="none" stroke="black" stroke-dasharray="1,5" d="M907,-218C981.39,-218 939.37,-345.18 1002.84,-357.11"/>
<polygon fill="black" stroke="black" points="1013,-358 1002.64,-361.61 1008.02,-357.56 1003.04,-357.12 1003.04,-357.12 1003.04,-357.12 1008.02,-357.56 1003.43,-352.64 1013,-358 1013,-358"/>
</g>
<!-- choice1151211154599108117115116101114471161111141131171014552464946554511449 -->
<g id="node7" class="node">
<title>choice1151211154599108117115116101114471161111141131171014552464946554511449</title>
<g id="a_node7"><a xlink:href="../sys-cluster/torque-4.1.7-r1.svg" xlink:title="sys&#45;cluster/torque&#45;4.1.7&#45;r1">
<ellipse fill="none" stroke="red" cx="1158" cy="-304" rx="144" ry="18"/>
<text text-anchor="middle" x="1158" y="-301" font-family="Helvetica,sans-Serif" font-size="10.00">sys&#45;cluster/torque&#45;4.1.7&#45;r1</text>
</a>
</g>
</g>
<!-- dependency480725&#45;&gt;choice1151211154599108117115116101114471161111141131171014552464946554511449 -->
<g id="edge6" class="edge">
<title>dependency480725:e&#45;&gt;choice1151211154599108117115116101114471161111141131171014552464946554511449:w</title>
<path fill="none" stroke="black" stroke-dasharray="1,5" d="M907,-218C963.99,-218 953.91,-293.9 1002.78,-303.09"/>
<polygon fill="black" stroke="black" points="1013,-304 1002.64,-307.6 1008.02,-303.56 1003.04,-303.12 1003.04,-303.12 1003.04,-303.12 1008.02,-303.56 1003.44,-298.63 1013,-304 1013,-304"/>
</g>
<!-- choice11512111545991081171151161011144711611111411311710145524650464948 -->
<g id="node8" class="node">
<title>choice11512111545991081171151161011144711611111411311710145524650464948</title>
<g id="a_node8"><a xlink:href="../sys-cluster/torque-4.2.10.svg" xlink:title="sys&#45;cluster/torque&#45;4.2.10">
<ellipse fill="none" stroke="red" cx="1158" cy="-250" rx="144" ry="18"/>
<text text-anchor="middle" x="1158" y="-247" font-family="Helvetica,sans-Serif" font-size="10.00">sys&#45;cluster/torque&#45;4.2.10</text>
</a>
</g>
</g>
<!-- dependency480725&#45;&gt;choice11512111545991081171151161011144711611111411311710145524650464948 -->
<g id="edge7" class="edge">
<title>dependency480725:e&#45;&gt;choice11512111545991081171151161011144711611111411311710145524650464948:w</title>
<path fill="none" stroke="black" stroke-dasharray="1,5" d="M907,-218C952.65,-218 962.48,-245.54 1002.95,-249.52"/>
<polygon fill="black" stroke="black" points="1013,-250 1002.8,-254.02 1008.01,-249.76 1003.01,-249.53 1003.01,-249.53 1003.01,-249.53 1008.01,-249.76 1003.22,-245.03 1013,-250 1013,-250"/>
</g>
<!-- choice1151211154599108117115116101114471161111141131171014552465046574511453 -->
<g id="node9" class="node">
<title>choice1151211154599108117115116101114471161111141131171014552465046574511453</title>
<g id="a_node9"><a xlink:href="../sys-cluster/torque-4.2.9-r5.svg" xlink:title="sys&#45;cluster/torque&#45;4.2.9&#45;r5">
<ellipse fill="none" stroke="red" cx="1158" cy="-196" rx="144" ry="18"/>
<text text-anchor="middle" x="1158" y="-193" font-family="Helvetica,sans-Serif" font-size="10.00">sys&#45;cluster/torque&#45;4.2.9&#45;r5</text>
</a>
</g>
</g>
<!-- dependency480725&#45;&gt;choice1151211154599108117115116101114471161111141131171014552465046574511453 -->
<g id="edge8" class="edge">
<title>dependency480725:e&#45;&gt;choice1151211154599108117115116101114471161111141131171014552465046574511453:w</title>
<path fill="none" stroke="black" stroke-dasharray="1,5" d="M907,-218C951.54,-218 963.22,-199.14 1002.89,-196.35"/>
<polygon fill="black" stroke="black" points="1013,-196 1003.16,-200.84 1008,-196.17 1003.01,-196.34 1003.01,-196.34 1003.01,-196.34 1008,-196.17 1002.85,-191.84 1013,-196 1013,-196"/>
</g>
<!-- choice115121115459910811711511610111447116111114113117101455446484651 -->
<g id="node10" class="node">
<title>choice115121115459910811711511610111447116111114113117101455446484651</title>
<g id="a_node10"><a xlink:href="../sys-cluster/torque-6.0.3.svg" xlink:title="sys&#45;cluster/torque&#45;6.0.3">
<ellipse fill="none" stroke="red" cx="1158" cy="-142" rx="144" ry="18"/>
<text text-anchor="middle" x="1158" y="-139" font-family="Helvetica,sans-Serif" font-size="10.00">sys&#45;cluster/torque&#45;6.0.3</text>
</a>
</g>
</g>
<!-- dependency480725&#45;&gt;choice115121115459910811711511610111447116111114113117101455446484651 -->
<g id="edge9" class="edge">
<title>dependency480725:e&#45;&gt;choice115121115459910811711511610111447116111114113117101455446484651:w</title>
<path fill="none" stroke="black" stroke-dasharray="1,5" d="M907,-218C961.35,-218 956.01,-151.2 1002.89,-142.85"/>
<polygon fill="black" stroke="black" points="1013,-142 1003.41,-147.33 1008.02,-142.42 1003.04,-142.84 1003.04,-142.84 1003.04,-142.84 1008.02,-142.42 1002.66,-138.36 1013,-142 1013,-142"/>
</g>
<!-- dependency480727 -->
<g id="node5" class="node">
<title>dependency480727</title>
<polygon fill="none" stroke="blue" points="678,-39 678,-137 783,-137 783,-39 678,-39"/>
<text text-anchor="start" x="708.82" y="-85" font-family="Helvetica,sans-Serif" font-size="10.00">pack_dep</text>
<polygon fill="none" stroke="blue" points="783,-115 783,-137 893,-137 893,-115 783,-115"/>
<text text-anchor="start" x="832.44" y="-123" font-family="Helvetica,sans-Serif" font-size="10.00">no</text>
<polygon fill="none" stroke="blue" points="783,-93 783,-115 893,-115 893,-93 783,-93"/>
<text text-anchor="start" x="814.11" y="-101" font-family="Helvetica,sans-Serif" font-size="10.00">sys&#45;cluster</text>
<polygon fill="none" stroke="blue" points="783,-71 783,-93 893,-93 893,-71 783,-71"/>
<text text-anchor="start" x="825.78" y="-79" font-family="Helvetica,sans-Serif" font-size="10.00">slurm</text>
<polygon fill="none" stroke="blue" points="783,-49 783,-71 893,-71 893,-49 783,-49"/>
<text text-anchor="start" x="826.88" y="-57" font-family="Helvetica,sans-Serif" font-size="10.00">none</text>
<polygon fill="none" stroke="blue" points="783,-39 783,-49 893,-49 893,-39 783,-39"/>
</g>
<!-- dependency480726&#45;&gt;dependency480727 -->
<g id="edge3" class="edge">
<title>dependency480726:e&#45;&gt;dependency480727:w</title>
<path fill="none" stroke="black" stroke-dasharray="5,2" d="M562,-103C606.86,-103 619.69,-90.14 659.8,-88.24"/>
<polygon fill="black" stroke="black" points="670,-88 660.11,-92.73 665,-88.12 660,-88.23 660,-88.23 660,-88.23 665,-88.12 659.9,-83.73 670,-88 670,-88"/>
</g>
<!-- choice1151211154599108117115116101114471151081171141094549544648534650 -->
<g id="node11" class="node">
<title>choice1151211154599108117115116101114471151081171141094549544648534650</title>
<g id="a_node11"><a xlink:href="../sys-cluster/slurm-16.05.2.svg" xlink:title="sys&#45;cluster/slurm&#45;16.05.2">
<ellipse fill="none" stroke="red" cx="1158" cy="-88" rx="144" ry="18"/>
<text text-anchor="middle" x="1158" y="-85" font-family="Helvetica,sans-Serif" font-size="10.00">sys&#45;cluster/slurm&#45;16.05.2</text>
</a>
</g>
</g>
<!-- dependency480727&#45;&gt;choice1151211154599108117115116101114471151081171141094549544648534650 -->
<g id="edge10" class="edge">
<title>dependency480727:e&#45;&gt;choice1151211154599108117115116101114471151081171141094549544648534650:w</title>
<path fill="none" stroke="black" stroke-dasharray="1,5" d="M907,-88C950.43,-88 963.83,-88 1002.57,-88"/>
<polygon fill="black" stroke="black" points="1013,-88 1003,-92.5 1008,-88 1003,-88 1003,-88 1003,-88 1008,-88 1003,-83.5 1013,-88 1013,-88"/>
</g>
<!-- choice1151211154599108117115116101114471151081171141094549554648504654 -->
<g id="node12" class="node">
<title>choice1151211154599108117115116101114471151081171141094549554648504654</title>
<g id="a_node12"><a xlink:href="../sys-cluster/slurm-17.02.6.svg" xlink:title="sys&#45;cluster/slurm&#45;17.02.6">
<ellipse fill="none" stroke="red" cx="1158" cy="-34" rx="144" ry="18"/>
<text text-anchor="middle" x="1158" y="-31" font-family="Helvetica,sans-Serif" font-size="10.00">sys&#45;cluster/slurm&#45;17.02.6</text>
</a>
</g>
</g>
<!-- dependency480727&#45;&gt;choice1151211154599108117115116101114471151081171141094549554648504654 -->
<g id="edge11" class="edge">
<title>dependency480727:e&#45;&gt;choice1151211154599108117115116101114471151081171141094549554648504654:w</title>
<path fill="none" stroke="black" stroke-dasharray="1,5" d="M907,-88C956.26,-88 959.85,-41.13 1002.86,-34.72"/>
<polygon fill="black" stroke="black" points="1013,-34 1003.35,-39.2 1008.01,-34.36 1003.03,-34.71 1003.03,-34.71 1003.03,-34.71 1008.01,-34.36 1002.71,-30.22 1013,-34 1013,-34"/>
</g>
</g>
</svg>
