<?xml version="1.0" encoding="UTF-8" standalone="no"?>
<!DOCTYPE svg PUBLIC "-//W3C//DTD SVG 1.1//EN"
 "http://www.w3.org/Graphics/SVG/1.1/DTD/svg11.dtd">
<!-- Generated by graphviz version 9.0.0 (20230911.1827)
 -->
<!-- Title: prolog Pages: 1 -->
<svg width="724pt" height="815pt"
 viewBox="0.00 0.00 724.00 815.00" xmlns="http://www.w3.org/2000/svg" xmlns:xlink="http://www.w3.org/1999/xlink">
<g id="graph0" class="graph" transform="scale(1 1) rotate(0) translate(4 811)">
<title>prolog</title>
<polygon fill="white" stroke="none" points="-4,4 -4,-811 720,-811 720,4 -4,4"/>
<g id="clust9" class="cluster">
<title>cluster_choices</title>
<polygon fill="none" stroke="gray" points="404,-8 404,-799 708,-799 708,-8 404,-8"/>
<text text-anchor="start" x="532.38" y="-786.5" font-family="Helvetica,sans-Serif" font-style="italic" font-size="10.00">candidates</text>
</g>
<g id="clust1" class="cluster">
<title>cluster_leftcol</title>
<polygon fill="none" stroke="gray" points="8,-341 8,-412 312,-412 312,-341 8,-341"/>
<text text-anchor="start" x="147.25" y="-399.5" font-family="Helvetica,sans-Serif" font-style="italic" font-size="10.00">ebuild</text>
</g>
<!-- id -->
<g id="node1" class="node">
<title>id</title>
<g id="a_node1"><a xlink:href="../sys-cluster/spark-bin-2.4.4.svg" xlink:title="sys&#45;cluster/spark&#45;bin&#45;2.4.4">
<ellipse fill="none" stroke="red" cx="160" cy="-367" rx="144" ry="18"/>
<text text-anchor="middle" x="160" y="-363.12" font-family="Helvetica,sans-Serif" font-size="10.00">sys&#45;cluster/spark&#45;bin&#45;2.4.4</text>
</a>
</g>
</g>
<!-- dependency887839 -->
<g id="node2" class="node">
<title>dependency887839</title>
<polygon fill="none" stroke="blue" points="446,-500.5 446,-605.5 550,-605.5 550,-500.5 446,-500.5"/>
<text text-anchor="start" x="477" y="-549.12" font-family="Helvetica,sans-Serif" font-size="10.00">pack_dep</text>
<polygon fill="none" stroke="blue" points="550,-584.5 550,-605.5 660,-605.5 660,-584.5 550,-584.5"/>
<text text-anchor="start" x="599.75" y="-591" font-family="Helvetica,sans-Serif" font-size="10.00">no</text>
<polygon fill="none" stroke="blue" points="550,-563.5 550,-584.5 660,-584.5 660,-563.5 550,-563.5"/>
<text text-anchor="start" x="591.88" y="-570" font-family="Helvetica,sans-Serif" font-size="10.00">virtual</text>
<polygon fill="none" stroke="blue" points="550,-542.5 550,-563.5 660,-563.5 660,-542.5 550,-542.5"/>
<text text-anchor="start" x="598.62" y="-549" font-family="Helvetica,sans-Serif" font-size="10.00">jdk</text>
<polygon fill="none" stroke="blue" points="550,-521.5 550,-542.5 660,-542.5 660,-521.5 550,-521.5"/>
<text text-anchor="start" x="578.38" y="-528" font-family="Helvetica,sans-Serif" font-size="10.00">greaterequal</text>
<polygon fill="none" stroke="blue" points="550,-500.5 550,-521.5 660,-521.5 660,-500.5 550,-500.5"/>
<text text-anchor="start" x="598.25" y="-507" font-family="Helvetica,sans-Serif" font-size="10.00">1.8</text>
</g>
<!-- id&#45;&gt;dependency887839 -->
<g id="edge1" class="edge">
<title>id:e&#45;&gt;dependency887839:w</title>
<path fill="none" stroke="black" d="M305,-367C402.41,-367 340.9,-538.75 425.89,-552.17"/>
<polygon fill="black" stroke="black" points="435.78,-552.91 425.48,-556.65 432.01,-552.63 425.81,-552.17 425.81,-552.17 425.81,-552.17 432.01,-552.63 426.15,-547.68 435.78,-552.91"/>
</g>
<!-- dependency887840 -->
<g id="node3" class="node">
<title>dependency887840</title>
<polygon fill="none" stroke="blue" points="446,-314.5 446,-419.5 550,-419.5 550,-314.5 446,-314.5"/>
<text text-anchor="start" x="477" y="-363.12" font-family="Helvetica,sans-Serif" font-size="10.00">pack_dep</text>
<polygon fill="none" stroke="blue" points="550,-398.5 550,-419.5 660,-419.5 660,-398.5 550,-398.5"/>
<text text-anchor="start" x="599.75" y="-405" font-family="Helvetica,sans-Serif" font-size="10.00">no</text>
<polygon fill="none" stroke="blue" points="550,-377.5 550,-398.5 660,-398.5 660,-377.5 550,-377.5"/>
<text text-anchor="start" x="586.62" y="-384" font-family="Helvetica,sans-Serif" font-size="10.00">dev&#45;java</text>
<polygon fill="none" stroke="blue" points="550,-356.5 550,-377.5 660,-377.5 660,-356.5 550,-356.5"/>
<text text-anchor="start" x="581.38" y="-363" font-family="Helvetica,sans-Serif" font-size="10.00">java&#45;config</text>
<polygon fill="none" stroke="blue" points="550,-335.5 550,-356.5 660,-356.5 660,-335.5 550,-335.5"/>
<text text-anchor="start" x="578.38" y="-342" font-family="Helvetica,sans-Serif" font-size="10.00">greaterequal</text>
<polygon fill="none" stroke="blue" points="550,-314.5 550,-335.5 660,-335.5 660,-314.5 550,-314.5"/>
<text text-anchor="start" x="588.5" y="-321" font-family="Helvetica,sans-Serif" font-size="10.00">2.2.0&#45;r3</text>
</g>
<!-- id&#45;&gt;dependency887840 -->
<g id="edge2" class="edge">
<title>id:e&#45;&gt;dependency887840:w</title>
<path fill="none" stroke="black" d="M305,-367C356.33,-367 373.98,-367 416.89,-367"/>
<ellipse fill="none" stroke="black" cx="432.5" cy="-367" rx="4" ry="4"/>
<polygon fill="black" stroke="black" points="426.78,-367 416.78,-371.5 423,-367 416.78,-367 416.78,-367 416.78,-367 423,-367 416.78,-362.5 426.78,-367"/>
</g>
<!-- dependency887841 -->
<g id="node4" class="node">
<title>dependency887841</title>
<polygon fill="none" stroke="blue" points="446,-20.5 446,-125.5 550,-125.5 550,-20.5 446,-20.5"/>
<text text-anchor="start" x="477" y="-69.12" font-family="Helvetica,sans-Serif" font-size="10.00">pack_dep</text>
<polygon fill="none" stroke="blue" points="550,-104.5 550,-125.5 660,-125.5 660,-104.5 550,-104.5"/>
<text text-anchor="start" x="599.75" y="-111" font-family="Helvetica,sans-Serif" font-size="10.00">no</text>
<polygon fill="none" stroke="blue" points="550,-83.5 550,-104.5 660,-104.5 660,-83.5 550,-83.5"/>
<text text-anchor="start" x="591.88" y="-90" font-family="Helvetica,sans-Serif" font-size="10.00">virtual</text>
<polygon fill="none" stroke="blue" points="550,-62.5 550,-83.5 660,-83.5 660,-62.5 550,-62.5"/>
<text text-anchor="start" x="599.75" y="-69" font-family="Helvetica,sans-Serif" font-size="10.00">jre</text>
<polygon fill="none" stroke="blue" points="550,-41.5 550,-62.5 660,-62.5 660,-41.5 550,-41.5"/>
<text text-anchor="start" x="578.38" y="-48" font-family="Helvetica,sans-Serif" font-size="10.00">greaterequal</text>
<polygon fill="none" stroke="blue" points="550,-20.5 550,-41.5 660,-41.5 660,-20.5 550,-20.5"/>
<text text-anchor="start" x="598.25" y="-27" font-family="Helvetica,sans-Serif" font-size="10.00">1.8</text>
</g>
<!-- id&#45;&gt;dependency887841 -->
<g id="edge3" class="edge">
<title>id:e&#45;&gt;dependency887841:w</title>
<path fill="none" stroke="black" d="M305,-367C445.16,-367 300.27,-85.5 428.17,-73.4"/>
<ellipse fill="none" stroke="black" cx="432.5" cy="-73.2" rx="4" ry="4"/>
</g>
<!-- choice11810511411611797108471061001074549465646484511451 -->
<g id="node5" class="node">
<title>choice11810511411611797108471061001074549465646484511451</title>
<g id="a_node5"><a xlink:href="../virtual/jdk-1.8.0-r3.svg" xlink:title="virtual/jdk&#45;1.8.0&#45;r3">
<ellipse fill="none" stroke="red" cx="556" cy="-754" rx="144" ry="18"/>
<text text-anchor="middle" x="556" y="-750.12" font-family="Helvetica,sans-Serif" font-size="10.00">virtual/jdk&#45;1.8.0&#45;r3</text>
</a>
</g>
</g>
<!-- dependency887839&#45;&gt;choice11810511411611797108471061001074549465646484511451 -->
<g id="edge4" class="edge">
<title>dependency887839:e&#45;&gt;choice11810511411611797108471061001074549465646484511451:w</title>
<path fill="none" stroke="black" stroke-dasharray="1,5" d="M675,-553C700.12,-553 691.6,-591.59 674,-609.5 649.35,-634.59 380.36,-600.85 358,-628 321.8,-671.97 346.66,-744.24 399.97,-753.1"/>
<polygon fill="black" stroke="black" points="409.79,-753.9 399.45,-757.57 406.02,-753.59 399.82,-753.09 399.82,-753.09 399.82,-753.09 406.02,-753.59 400.18,-748.6 409.79,-753.9"/>
</g>
<!-- choice11810511411611797108471061001074549465646484511452 -->
<g id="node6" class="node">
<title>choice11810511411611797108471061001074549465646484511452</title>
<g id="a_node6"><a xlink:href="../virtual/jdk-1.8.0-r4.svg" xlink:title="virtual/jdk&#45;1.8.0&#45;r4">
<ellipse fill="none" stroke="red" cx="556" cy="-700" rx="144" ry="18"/>
<text text-anchor="middle" x="556" y="-696.12" font-family="Helvetica,sans-Serif" font-size="10.00">virtual/jdk&#45;1.8.0&#45;r4</text>
</a>
</g>
</g>
<!-- dependency887839&#45;&gt;choice11810511411611797108471061001074549465646484511452 -->
<g id="edge5" class="edge">
<title>dependency887839:e&#45;&gt;choice11810511411611797108471061001074549465646484511452:w</title>
<path fill="none" stroke="black" stroke-dasharray="1,5" d="M675,-553C700.12,-553 691.6,-591.59 674,-609.5 649.35,-634.59 380.36,-600.85 358,-628 335.11,-655.8 364.6,-692.35 399.91,-698.95"/>
<polygon fill="black" stroke="black" points="409.79,-699.89 399.41,-703.43 406.02,-699.53 399.83,-698.95 399.83,-698.95 399.83,-698.95 406.02,-699.53 400.25,-694.47 409.79,-699.89"/>
</g>
<!-- choice1181051141161179710847106100107454949 -->
<g id="node7" class="node">
<title>choice1181051141161179710847106100107454949</title>
<g id="a_node7"><a xlink:href="../virtual/jdk-11.svg" xlink:title="virtual/jdk&#45;11">
<ellipse fill="none" stroke="red" cx="556" cy="-646" rx="144" ry="18"/>
<text text-anchor="middle" x="556" y="-642.12" font-family="Helvetica,sans-Serif" font-size="10.00">virtual/jdk&#45;11</text>
</a>
</g>
</g>
<!-- dependency887839&#45;&gt;choice1181051141161179710847106100107454949 -->
<g id="edge6" class="edge">
<title>dependency887839:e&#45;&gt;choice1181051141161179710847106100107454949:w</title>
<path fill="none" stroke="black" stroke-dasharray="1,5" d="M407.37,-635.45C408.4,-632.7 410.07,-629.96 412,-628 452.96,-586.42 633.83,-651.85 674,-609.5 691.28,-591.28 700.12,-553 675,-553"/>
<polygon fill="black" stroke="black" points="410.6,-644.85 403.09,-636.86 409.37,-641.27 407.34,-635.39 407.34,-635.39 407.34,-635.39 409.37,-641.27 411.6,-633.93 410.6,-644.85"/>
</g>
<!-- choice10010111845106971189747106971189745991111101021051034550465046484511452 -->
<g id="node8" class="node">
<title>choice10010111845106971189747106971189745991111101021051034550465046484511452</title>
<g id="a_node8"><a xlink:href="../dev-java/java-config-2.2.0-r4.svg" xlink:title="dev&#45;java/java&#45;config&#45;2.2.0&#45;r4">
<ellipse fill="none" stroke="red" cx="556" cy="-460" rx="144" ry="18"/>
<text text-anchor="middle" x="556" y="-456.12" font-family="Helvetica,sans-Serif" font-size="10.00">dev&#45;java/java&#45;config&#45;2.2.0&#45;r4</text>
</a>
</g>
</g>
<!-- dependency887840&#45;&gt;choice10010111845106971189747106971189745991111101021051034550465046484511452 -->
<g id="edge7" class="edge">
<title>dependency887840:e&#45;&gt;choice10010111845106971189747106971189745991111101021051034550465046484511452:w</title>
<path fill="none" stroke="black" stroke-dasharray="1,5" d="M407.37,-449.45C408.4,-446.7 410.07,-443.96 412,-442 452.96,-400.42 633.83,-465.85 674,-423.5 691.28,-405.28 700.12,-367 675,-367"/>
<polygon fill="black" stroke="black" points="410.6,-458.85 403.09,-450.86 409.37,-455.27 407.34,-449.39 407.34,-449.39 407.34,-449.39 409.37,-455.27 411.6,-447.93 410.6,-458.85"/>
</g>
<!-- choice11810511411611797108471061141014549465646484511449 -->
<g id="node9" class="node">
<title>choice11810511411611797108471061141014549465646484511449</title>
<g id="a_node9"><a xlink:href="../virtual/jre-1.8.0-r1.svg" xlink:title="virtual/jre&#45;1.8.0&#45;r1">
<ellipse fill="none" stroke="red" cx="556" cy="-274" rx="144" ry="18"/>
<text text-anchor="middle" x="556" y="-270.12" font-family="Helvetica,sans-Serif" font-size="10.00">virtual/jre&#45;1.8.0&#45;r1</text>
</a>
</g>
</g>
<!-- dependency887841&#45;&gt;choice11810511411611797108471061141014549465646484511449 -->
<g id="edge8" class="edge">
<title>dependency887841:e&#45;&gt;choice11810511411611797108471061141014549465646484511449:w</title>
<path fill="none" stroke="black" stroke-dasharray="1,5" d="M675,-73C700.12,-73 691.6,-111.59 674,-129.5 649.35,-154.59 380.36,-120.85 358,-148 321.8,-191.97 346.66,-264.24 399.97,-273.1"/>
<polygon fill="black" stroke="black" points="409.79,-273.9 399.45,-277.57 406.02,-273.59 399.82,-273.09 399.82,-273.09 399.82,-273.09 406.02,-273.59 400.18,-268.6 409.79,-273.9"/>
</g>
<!-- choice11810511411611797108471061141014549465646484511450 -->
<g id="node10" class="node">
<title>choice11810511411611797108471061141014549465646484511450</title>
<g id="a_node10"><a xlink:href="../virtual/jre-1.8.0-r2.svg" xlink:title="virtual/jre&#45;1.8.0&#45;r2">
<ellipse fill="none" stroke="red" cx="556" cy="-220" rx="144" ry="18"/>
<text text-anchor="middle" x="556" y="-216.12" font-family="Helvetica,sans-Serif" font-size="10.00">virtual/jre&#45;1.8.0&#45;r2</text>
</a>
</g>
</g>
<!-- dependency887841&#45;&gt;choice11810511411611797108471061141014549465646484511450 -->
<g id="edge9" class="edge">
<title>dependency887841:e&#45;&gt;choice11810511411611797108471061141014549465646484511450:w</title>
<path fill="none" stroke="black" stroke-dasharray="1,5" d="M675,-73C700.12,-73 691.6,-111.59 674,-129.5 649.35,-154.59 380.36,-120.85 358,-148 335.11,-175.8 364.6,-212.35 399.91,-218.95"/>
<polygon fill="black" stroke="black" points="409.79,-219.89 399.41,-223.43 406.02,-219.53 399.83,-218.95 399.83,-218.95 399.83,-218.95 406.02,-219.53 400.25,-214.47 409.79,-219.89"/>
</g>
<!-- choice11810511411611797108471061141014549494511449 -->
<g id="node11" class="node">
<title>choice11810511411611797108471061141014549494511449</title>
<g id="a_node11"><a xlink:href="../virtual/jre-11-r1.svg" xlink:title="virtual/jre&#45;11&#45;r1">
<ellipse fill="none" stroke="red" cx="556" cy="-166" rx="144" ry="18"/>
<text text-anchor="middle" x="556" y="-162.12" font-family="Helvetica,sans-Serif" font-size="10.00">virtual/jre&#45;11&#45;r1</text>
</a>
</g>
</g>
<!-- dependency887841&#45;&gt;choice11810511411611797108471061141014549494511449 -->
<g id="edge10" class="edge">
<title>dependency887841:e&#45;&gt;choice11810511411611797108471061141014549494511449:w</title>
<path fill="none" stroke="black" stroke-dasharray="1,5" d="M407.37,-155.45C408.4,-152.7 410.07,-149.96 412,-148 452.96,-106.42 633.83,-171.85 674,-129.5 691.28,-111.28 700.12,-73 675,-73"/>
<polygon fill="black" stroke="black" points="410.6,-164.85 403.09,-156.86 409.37,-161.27 407.34,-155.39 407.34,-155.39 407.34,-155.39 409.37,-161.27 411.6,-153.93 410.6,-164.85"/>
</g>
</g>
</svg>
