<?xml version="1.0" encoding="UTF-8" standalone="no"?>
<!DOCTYPE svg PUBLIC "-//W3C//DTD SVG 1.1//EN"
 "http://www.w3.org/Graphics/SVG/1.1/DTD/svg11.dtd">
<!-- Generated by graphviz version 9.0.0 (20230911.1827)
 -->
<!-- Title: prolog Pages: 1 -->
<svg width="1068pt" height="2011pt"
 viewBox="0.00 0.00 1068.00 2011.00" xmlns="http://www.w3.org/2000/svg" xmlns:xlink="http://www.w3.org/1999/xlink">
<g id="graph0" class="graph" transform="scale(1 1) rotate(0) translate(4 2007)">
<title>prolog</title>
<polygon fill="white" stroke="none" points="-4,4 -4,-2007 1064,-2007 1064,4 -4,4"/>
<g id="clust1" class="cluster">
<title>cluster_leftcol</title>
<polygon fill="none" stroke="gray" points="8,-1037 8,-1108 312,-1108 312,-1037 8,-1037"/>
<text text-anchor="start" x="147.25" y="-1095.5" font-family="Helvetica,sans-Serif" font-style="italic" font-size="10.00">ebuild</text>
</g>
<g id="clust2" class="cluster">
<title>cluster_midcol</title>
<polygon fill="none" stroke="gray" points="396,-8 396,-1995 664,-1995 664,-8 396,-8"/>
<text text-anchor="start" x="500" y="-1982.5" font-family="Helvetica,sans-Serif" font-style="italic" font-size="10.00">dependencies</text>
</g>
<g id="clust3" class="cluster">
<title>cluster_compile</title>
<polygon fill="#eeeeee" stroke="gray" points="404,-1819 404,-1968 656,-1968 656,-1819 404,-1819"/>
<text text-anchor="start" x="513.12" y="-1955.5" font-family="Helvetica,sans-Serif" font-style="italic" font-size="10.00">compile</text>
</g>
<g id="clust6" class="cluster">
<title>cluster_run</title>
<polygon fill="#eeeeee" stroke="gray" points="404,-16 404,-1811 656,-1811 656,-16 404,-16"/>
<text text-anchor="start" x="523.25" y="-1798.5" font-family="Helvetica,sans-Serif" font-style="italic" font-size="10.00">run</text>
</g>
<g id="clust22" class="cluster">
<title>cluster_choices</title>
<polygon fill="none" stroke="gray" points="748,-78 748,-1490 1052,-1490 1052,-78 748,-78"/>
<text text-anchor="start" x="876.38" y="-1477.5" font-family="Helvetica,sans-Serif" font-style="italic" font-size="10.00">candidates</text>
</g>
<!-- id -->
<g id="node1" class="node">
<title>id</title>
<g id="a_node1"><a xlink:href="../sys-cluster/swift-2020.2.9999.svg" xlink:title="portage://sys&#45;cluster/swift&#45;2020.2.9999">
<ellipse fill="none" stroke="red" cx="160" cy="-1063" rx="144" ry="18"/>
<text text-anchor="middle" x="160" y="-1059.12" font-family="Helvetica,sans-Serif" font-size="10.00">portage://sys&#45;cluster/swift&#45;2020.2.9999</text>
</a>
</g>
</g>
<!-- dependency2088 -->
<g id="node2" class="node">
<title>dependency2088</title>
<polygon fill="none" stroke="blue" points="420,-1831.5 420,-1936.5 524,-1936.5 524,-1831.5 420,-1831.5"/>
<text text-anchor="start" x="451" y="-1880.12" font-family="Helvetica,sans-Serif" font-size="10.00">pack_dep</text>
<polygon fill="none" stroke="blue" points="524,-1915.5 524,-1936.5 634,-1936.5 634,-1915.5 524,-1915.5"/>
<text text-anchor="start" x="573.75" y="-1922" font-family="Helvetica,sans-Serif" font-size="10.00">no</text>
<polygon fill="none" stroke="blue" points="524,-1894.5 524,-1915.5 634,-1915.5 634,-1894.5 524,-1894.5"/>
<text text-anchor="start" x="555" y="-1901" font-family="Helvetica,sans-Serif" font-size="10.00">dev&#45;python</text>
<polygon fill="none" stroke="blue" points="524,-1873.5 524,-1894.5 634,-1894.5 634,-1873.5 524,-1873.5"/>
<text text-anchor="start" x="572.25" y="-1880" font-family="Helvetica,sans-Serif" font-size="10.00">pbr</text>
<polygon fill="none" stroke="blue" points="524,-1852.5 524,-1873.5 634,-1873.5 634,-1852.5 524,-1852.5"/>
<text text-anchor="start" x="552.38" y="-1859" font-family="Helvetica,sans-Serif" font-size="10.00">greaterequal</text>
<polygon fill="none" stroke="blue" points="524,-1831.5 524,-1852.5 634,-1852.5 634,-1831.5 524,-1831.5"/>
<text text-anchor="start" x="568.12" y="-1838" font-family="Helvetica,sans-Serif" font-size="10.00">1.8.0</text>
</g>
<!-- id&#45;&gt;dependency2088 -->
<g id="edge1" class="edge">
<title>id:e&#45;&gt;dependency2088:w</title>
<path fill="none" stroke="black" d="M305,-1063C485.19,-1063 237.6,-1850.67 400.24,-1882.98"/>
<polygon fill="black" stroke="black" points="409.79,-1883.88 399.41,-1887.42 406.02,-1883.53 399.83,-1882.94 399.83,-1882.94 399.83,-1882.94 406.02,-1883.53 400.26,-1878.46 409.79,-1883.88"/>
</g>
<!-- dependency2089 -->
<g id="node3" class="node">
<title>dependency2089</title>
<polygon fill="none" stroke="red" points="454,-1606 454,-1648 543,-1648 543,-1606 454,-1606"/>
<text text-anchor="start" x="464.75" y="-1623.12" font-family="Helvetica,sans-Serif" font-size="10.00">use_conditional</text>
<polygon fill="none" stroke="red" points="543,-1627 543,-1648 606,-1648 606,-1627 543,-1627"/>
<text text-anchor="start" x="557.62" y="-1633.5" font-family="Helvetica,sans-Serif" font-size="10.00">positive</text>
<polygon fill="none" stroke="red" points="543,-1606 543,-1627 606,-1627 606,-1606 543,-1606"/>
<text text-anchor="start" x="547.88" y="-1612.5" font-family="Helvetica,sans-Serif" font-size="10.00">memcached</text>
</g>
<!-- id&#45;&gt;dependency2089 -->
<g id="edge2" class="edge">
<title>id:e&#45;&gt;dependency2089:w</title>
<path fill="none" stroke="black" d="M305,-1063C424.5,-1063 331.8,-1492.21 396,-1593 408.52,-1612.65 416.41,-1624.02 436.13,-1626.49"/>
<ellipse fill="none" stroke="black" cx="440.51" cy="-1626.74" rx="4" ry="4"/>
</g>
<!-- dependency2090 -->
<g id="node4" class="node">
<title>dependency2090</title>
<polygon fill="none" stroke="red" points="423.5,-1538 423.5,-1580 512.5,-1580 512.5,-1538 423.5,-1538"/>
<text text-anchor="start" x="434.25" y="-1555.12" font-family="Helvetica,sans-Serif" font-size="10.00">use_conditional</text>
<polygon fill="none" stroke="red" points="512.5,-1559 512.5,-1580 636.5,-1580 636.5,-1559 512.5,-1559"/>
<text text-anchor="start" x="557.62" y="-1565.5" font-family="Helvetica,sans-Serif" font-size="10.00">positive</text>
<polygon fill="none" stroke="red" points="512.5,-1538 512.5,-1559 636.5,-1559 636.5,-1538 512.5,-1538"/>
<text text-anchor="start" x="517.12" y="-1544.5" font-family="Helvetica,sans-Serif" font-size="10.00">python_targets_python3_7</text>
</g>
<!-- id&#45;&gt;dependency2090 -->
<g id="edge3" class="edge">
<title>id:e&#45;&gt;dependency2090:w</title>
<path fill="none" stroke="black" d="M305,-1063C527.71,-1063 198.43,-1545.53 406.05,-1558.72"/>
<ellipse fill="none" stroke="black" cx="410.5" cy="-1558.86" rx="4" ry="4"/>
</g>
<!-- dependency2091 -->
<g id="node5" class="node">
<title>dependency2091</title>
<polygon fill="none" stroke="red" points="423.5,-1470 423.5,-1512 512.5,-1512 512.5,-1470 423.5,-1470"/>
<text text-anchor="start" x="434.25" y="-1487.12" font-family="Helvetica,sans-Serif" font-size="10.00">use_conditional</text>
<polygon fill="none" stroke="red" points="512.5,-1491 512.5,-1512 636.5,-1512 636.5,-1491 512.5,-1491"/>
<text text-anchor="start" x="557.62" y="-1497.5" font-family="Helvetica,sans-Serif" font-size="10.00">positive</text>
<polygon fill="none" stroke="red" points="512.5,-1470 512.5,-1491 636.5,-1491 636.5,-1470 512.5,-1470"/>
<text text-anchor="start" x="517.12" y="-1476.5" font-family="Helvetica,sans-Serif" font-size="10.00">python_targets_python3_8</text>
</g>
<!-- id&#45;&gt;dependency2091 -->
<g id="edge4" class="edge">
<title>id:e&#45;&gt;dependency2091:w</title>
<path fill="none" stroke="black" d="M305,-1063C498.34,-1063 227.32,-1477.73 406.14,-1490.69"/>
<ellipse fill="none" stroke="black" cx="410.5" cy="-1490.84" rx="4" ry="4"/>
</g>
<!-- dependency2092 -->
<g id="node6" class="node">
<title>dependency2092</title>
<polygon fill="none" stroke="blue" points="420,-1207.5 420,-1312.5 524,-1312.5 524,-1207.5 420,-1207.5"/>
<text text-anchor="start" x="451" y="-1256.12" font-family="Helvetica,sans-Serif" font-size="10.00">pack_dep</text>
<polygon fill="none" stroke="blue" points="524,-1291.5 524,-1312.5 634,-1312.5 634,-1291.5 524,-1291.5"/>
<text text-anchor="start" x="573.75" y="-1298" font-family="Helvetica,sans-Serif" font-size="10.00">no</text>
<polygon fill="none" stroke="blue" points="524,-1270.5 524,-1291.5 634,-1291.5 634,-1270.5 524,-1270.5"/>
<text text-anchor="start" x="560.62" y="-1277" font-family="Helvetica,sans-Serif" font-size="10.00">dev&#45;lang</text>
<polygon fill="none" stroke="blue" points="524,-1249.5 524,-1270.5 634,-1270.5 634,-1249.5 524,-1249.5"/>
<text text-anchor="start" x="552.38" y="-1256" font-family="Helvetica,sans-Serif" font-size="10.00">python&#45;exec</text>
<polygon fill="none" stroke="blue" points="524,-1228.5 524,-1249.5 634,-1249.5 634,-1228.5 524,-1228.5"/>
<text text-anchor="start" x="552.38" y="-1235" font-family="Helvetica,sans-Serif" font-size="10.00">greaterequal</text>
<polygon fill="none" stroke="blue" points="524,-1207.5 524,-1228.5 634,-1228.5 634,-1207.5 524,-1207.5"/>
<text text-anchor="start" x="576.38" y="-1214" font-family="Helvetica,sans-Serif" font-size="10.00">2</text>
</g>
<!-- id&#45;&gt;dependency2092 -->
<g id="edge5" class="edge">
<title>id:e&#45;&gt;dependency2092:w</title>
<path fill="none" stroke="black" d="M305,-1063C401.32,-1063 317.19,-1247.88 402.23,-1259.43"/>
<ellipse fill="none" stroke="black" cx="406.51" cy="-1259.71" rx="4" ry="4"/>
</g>
<!-- dependency2093 -->
<g id="node7" class="node">
<title>dependency2093</title>
<polygon fill="none" stroke="blue" points="420,-1076.5 420,-1181.5 524,-1181.5 524,-1076.5 420,-1076.5"/>
<text text-anchor="start" x="451" y="-1125.12" font-family="Helvetica,sans-Serif" font-size="10.00">pack_dep</text>
<polygon fill="none" stroke="blue" points="524,-1160.5 524,-1181.5 634,-1181.5 634,-1160.5 524,-1160.5"/>
<text text-anchor="start" x="573.75" y="-1167" font-family="Helvetica,sans-Serif" font-size="10.00">no</text>
<polygon fill="none" stroke="blue" points="524,-1139.5 524,-1160.5 634,-1160.5 634,-1139.5 524,-1139.5"/>
<text text-anchor="start" x="555" y="-1146" font-family="Helvetica,sans-Serif" font-size="10.00">dev&#45;python</text>
<polygon fill="none" stroke="blue" points="524,-1118.5 524,-1139.5 634,-1139.5 634,-1118.5 524,-1118.5"/>
<text text-anchor="start" x="559.5" y="-1125" font-family="Helvetica,sans-Serif" font-size="10.00">PyECLib</text>
<polygon fill="none" stroke="blue" points="524,-1097.5 524,-1118.5 634,-1118.5 634,-1097.5 524,-1097.5"/>
<text text-anchor="start" x="552.38" y="-1104" font-family="Helvetica,sans-Serif" font-size="10.00">greaterequal</text>
<polygon fill="none" stroke="blue" points="524,-1076.5 524,-1097.5 634,-1097.5 634,-1076.5 524,-1076.5"/>
<text text-anchor="start" x="568.12" y="-1083" font-family="Helvetica,sans-Serif" font-size="10.00">1.3.1</text>
</g>
<!-- id&#45;&gt;dependency2093 -->
<g id="edge6" class="edge">
<title>id:e&#45;&gt;dependency2093:w</title>
<path fill="none" stroke="black" d="M305,-1063C357.35,-1063 355.87,-1121.74 402.13,-1128.39"/>
<ellipse fill="none" stroke="black" cx="406.51" cy="-1128.69" rx="4" ry="4"/>
</g>
<!-- dependency2094 -->
<g id="node8" class="node">
<title>dependency2094</title>
<polygon fill="none" stroke="blue" points="420,-945.5 420,-1050.5 524,-1050.5 524,-945.5 420,-945.5"/>
<text text-anchor="start" x="451" y="-994.12" font-family="Helvetica,sans-Serif" font-size="10.00">pack_dep</text>
<polygon fill="none" stroke="blue" points="524,-1029.5 524,-1050.5 634,-1050.5 634,-1029.5 524,-1029.5"/>
<text text-anchor="start" x="573.75" y="-1036" font-family="Helvetica,sans-Serif" font-size="10.00">no</text>
<polygon fill="none" stroke="blue" points="524,-1008.5 524,-1029.5 634,-1029.5 634,-1008.5 524,-1008.5"/>
<text text-anchor="start" x="555" y="-1015" font-family="Helvetica,sans-Serif" font-size="10.00">dev&#45;python</text>
<polygon fill="none" stroke="blue" points="524,-987.5 524,-1008.5 634,-1008.5 634,-987.5 524,-987.5"/>
<text text-anchor="start" x="550.88" y="-994" font-family="Helvetica,sans-Serif" font-size="10.00">cryptography</text>
<polygon fill="none" stroke="blue" points="524,-966.5 524,-987.5 634,-987.5 634,-966.5 524,-966.5"/>
<text text-anchor="start" x="552.38" y="-973" font-family="Helvetica,sans-Serif" font-size="10.00">greaterequal</text>
<polygon fill="none" stroke="blue" points="524,-945.5 524,-966.5 634,-966.5 634,-945.5 524,-945.5"/>
<text text-anchor="start" x="568.12" y="-952" font-family="Helvetica,sans-Serif" font-size="10.00">2.0.2</text>
</g>
<!-- id&#45;&gt;dependency2094 -->
<g id="edge7" class="edge">
<title>id:e&#45;&gt;dependency2094:w</title>
<path fill="none" stroke="black" d="M305,-1063C357.13,-1063 356.06,-1005.15 402.16,-998.6"/>
<ellipse fill="none" stroke="black" cx="406.51" cy="-998.31" rx="4" ry="4"/>
</g>
<!-- dependency2095 -->
<g id="node9" class="node">
<title>dependency2095</title>
<polygon fill="none" stroke="blue" points="420,-814.5 420,-919.5 524,-919.5 524,-814.5 420,-814.5"/>
<text text-anchor="start" x="451" y="-863.12" font-family="Helvetica,sans-Serif" font-size="10.00">pack_dep</text>
<polygon fill="none" stroke="blue" points="524,-898.5 524,-919.5 634,-919.5 634,-898.5 524,-898.5"/>
<text text-anchor="start" x="573.75" y="-905" font-family="Helvetica,sans-Serif" font-size="10.00">no</text>
<polygon fill="none" stroke="blue" points="524,-877.5 524,-898.5 634,-898.5 634,-877.5 524,-877.5"/>
<text text-anchor="start" x="555" y="-884" font-family="Helvetica,sans-Serif" font-size="10.00">dev&#45;python</text>
<polygon fill="none" stroke="blue" points="524,-856.5 524,-877.5 634,-877.5 634,-856.5 524,-856.5"/>
<text text-anchor="start" x="561.75" y="-863" font-family="Helvetica,sans-Serif" font-size="10.00">eventlet</text>
<polygon fill="none" stroke="blue" points="524,-835.5 524,-856.5 634,-856.5 634,-835.5 524,-835.5"/>
<text text-anchor="start" x="552.38" y="-842" font-family="Helvetica,sans-Serif" font-size="10.00">greaterequal</text>
<polygon fill="none" stroke="blue" points="524,-814.5 524,-835.5 634,-835.5 634,-814.5 524,-814.5"/>
<text text-anchor="start" x="565.5" y="-821" font-family="Helvetica,sans-Serif" font-size="10.00">0.25.0</text>
</g>
<!-- id&#45;&gt;dependency2095 -->
<g id="edge8" class="edge">
<title>id:e&#45;&gt;dependency2095:w</title>
<path fill="none" stroke="black" d="M305,-1063C400.94,-1063 317.53,-879.06 402.26,-867.56"/>
<ellipse fill="none" stroke="black" cx="406.51" cy="-867.29" rx="4" ry="4"/>
</g>
<!-- dependency2096 -->
<g id="node10" class="node">
<title>dependency2096</title>
<polygon fill="none" stroke="blue" points="420,-683.5 420,-788.5 524,-788.5 524,-683.5 420,-683.5"/>
<text text-anchor="start" x="451" y="-732.12" font-family="Helvetica,sans-Serif" font-size="10.00">pack_dep</text>
<polygon fill="none" stroke="blue" points="524,-767.5 524,-788.5 634,-788.5 634,-767.5 524,-767.5"/>
<text text-anchor="start" x="573.75" y="-774" font-family="Helvetica,sans-Serif" font-size="10.00">no</text>
<polygon fill="none" stroke="blue" points="524,-746.5 524,-767.5 634,-767.5 634,-746.5 524,-746.5"/>
<text text-anchor="start" x="555" y="-753" font-family="Helvetica,sans-Serif" font-size="10.00">dev&#45;python</text>
<polygon fill="none" stroke="blue" points="524,-725.5 524,-746.5 634,-746.5 634,-725.5 524,-725.5"/>
<text text-anchor="start" x="561.75" y="-732" font-family="Helvetica,sans-Serif" font-size="10.00">greenlet</text>
<polygon fill="none" stroke="blue" points="524,-704.5 524,-725.5 634,-725.5 634,-704.5 524,-704.5"/>
<text text-anchor="start" x="552.38" y="-711" font-family="Helvetica,sans-Serif" font-size="10.00">greaterequal</text>
<polygon fill="none" stroke="blue" points="524,-683.5 524,-704.5 634,-704.5 634,-683.5 524,-683.5"/>
<text text-anchor="start" x="568.12" y="-690" font-family="Helvetica,sans-Serif" font-size="10.00">0.3.2</text>
</g>
<!-- id&#45;&gt;dependency2096 -->
<g id="edge9" class="edge">
<title>id:e&#45;&gt;dependency2096:w</title>
<path fill="none" stroke="black" d="M305,-1063C454.65,-1063 266.26,-749.27 402.04,-736.41"/>
<ellipse fill="none" stroke="black" cx="406.5" cy="-736.2" rx="4" ry="4"/>
</g>
<!-- dependency2097 -->
<g id="node11" class="node">
<title>dependency2097</title>
<polygon fill="none" stroke="blue" points="420,-552.5 420,-657.5 524,-657.5 524,-552.5 420,-552.5"/>
<text text-anchor="start" x="451" y="-601.12" font-family="Helvetica,sans-Serif" font-size="10.00">pack_dep</text>
<polygon fill="none" stroke="blue" points="524,-636.5 524,-657.5 634,-657.5 634,-636.5 524,-636.5"/>
<text text-anchor="start" x="573.75" y="-643" font-family="Helvetica,sans-Serif" font-size="10.00">no</text>
<polygon fill="none" stroke="blue" points="524,-615.5 524,-636.5 634,-636.5 634,-615.5 524,-615.5"/>
<text text-anchor="start" x="555" y="-622" font-family="Helvetica,sans-Serif" font-size="10.00">dev&#45;python</text>
<polygon fill="none" stroke="blue" points="524,-594.5 524,-615.5 634,-615.5 634,-594.5 524,-594.5"/>
<text text-anchor="start" x="559.12" y="-601" font-family="Helvetica,sans-Serif" font-size="10.00">netifaces</text>
<polygon fill="none" stroke="blue" points="524,-573.5 524,-594.5 634,-594.5 634,-573.5 524,-573.5"/>
<text text-anchor="start" x="552.38" y="-580" font-family="Helvetica,sans-Serif" font-size="10.00">greaterequal</text>
<polygon fill="none" stroke="blue" points="524,-552.5 524,-573.5 634,-573.5 634,-552.5 524,-552.5"/>
<text text-anchor="start" x="572.25" y="-559" font-family="Helvetica,sans-Serif" font-size="10.00">0.8</text>
</g>
<!-- id&#45;&gt;dependency2097 -->
<g id="edge10" class="edge">
<title>id:e&#45;&gt;dependency2097:w</title>
<path fill="none" stroke="black" d="M305,-1063C510.88,-1063 211.09,-618.32 402.15,-605.29"/>
<ellipse fill="none" stroke="black" cx="406.5" cy="-605.15" rx="4" ry="4"/>
</g>
<!-- dependency2098 -->
<g id="node12" class="node">
<title>dependency2098</title>
<polygon fill="none" stroke="blue" points="420,-290.5 420,-395.5 524,-395.5 524,-290.5 420,-290.5"/>
<text text-anchor="start" x="451" y="-339.12" font-family="Helvetica,sans-Serif" font-size="10.00">pack_dep</text>
<polygon fill="none" stroke="blue" points="524,-374.5 524,-395.5 634,-395.5 634,-374.5 524,-374.5"/>
<text text-anchor="start" x="573.75" y="-381" font-family="Helvetica,sans-Serif" font-size="10.00">no</text>
<polygon fill="none" stroke="blue" points="524,-353.5 524,-374.5 634,-374.5 634,-353.5 524,-353.5"/>
<text text-anchor="start" x="555" y="-360" font-family="Helvetica,sans-Serif" font-size="10.00">dev&#45;python</text>
<polygon fill="none" stroke="blue" points="524,-332.5 524,-353.5 634,-353.5 634,-332.5 524,-332.5"/>
<text text-anchor="start" x="552.75" y="-339" font-family="Helvetica,sans-Serif" font-size="10.00">pastedeploy</text>
<polygon fill="none" stroke="blue" points="524,-311.5 524,-332.5 634,-332.5 634,-311.5 524,-311.5"/>
<text text-anchor="start" x="552.38" y="-318" font-family="Helvetica,sans-Serif" font-size="10.00">greaterequal</text>
<polygon fill="none" stroke="blue" points="524,-290.5 524,-311.5 634,-311.5 634,-290.5 524,-290.5"/>
<text text-anchor="start" x="568.12" y="-297" font-family="Helvetica,sans-Serif" font-size="10.00">1.3.3</text>
</g>
<!-- id&#45;&gt;dependency2098 -->
<g id="edge11" class="edge">
<title>id:e&#45;&gt;dependency2098:w</title>
<path fill="none" stroke="black" d="M305,-1063C463.72,-1063 257.21,-369.47 402.38,-343.73"/>
<ellipse fill="none" stroke="black" cx="406.52" cy="-343.38" rx="4" ry="4"/>
</g>
<!-- dependency2099 -->
<g id="node13" class="node">
<title>dependency2099</title>
<polygon fill="none" stroke="blue" points="420,-1338.5 420,-1443.5 524,-1443.5 524,-1338.5 420,-1338.5"/>
<text text-anchor="start" x="451" y="-1387.12" font-family="Helvetica,sans-Serif" font-size="10.00">pack_dep</text>
<polygon fill="none" stroke="blue" points="524,-1422.5 524,-1443.5 634,-1443.5 634,-1422.5 524,-1422.5"/>
<text text-anchor="start" x="573.75" y="-1429" font-family="Helvetica,sans-Serif" font-size="10.00">no</text>
<polygon fill="none" stroke="blue" points="524,-1401.5 524,-1422.5 634,-1422.5 634,-1401.5 524,-1401.5"/>
<text text-anchor="start" x="555" y="-1408" font-family="Helvetica,sans-Serif" font-size="10.00">dev&#45;python</text>
<polygon fill="none" stroke="blue" points="524,-1380.5 524,-1401.5 634,-1401.5 634,-1380.5 524,-1380.5"/>
<text text-anchor="start" x="572.25" y="-1387" font-family="Helvetica,sans-Serif" font-size="10.00">pbr</text>
<polygon fill="none" stroke="blue" points="524,-1359.5 524,-1380.5 634,-1380.5 634,-1359.5 524,-1359.5"/>
<text text-anchor="start" x="552.38" y="-1366" font-family="Helvetica,sans-Serif" font-size="10.00">greaterequal</text>
<polygon fill="none" stroke="blue" points="524,-1338.5 524,-1359.5 634,-1359.5 634,-1338.5 524,-1338.5"/>
<text text-anchor="start" x="568.12" y="-1345" font-family="Helvetica,sans-Serif" font-size="10.00">1.8.0</text>
</g>
<!-- id&#45;&gt;dependency2099 -->
<g id="edge12" class="edge">
<title>id:e&#45;&gt;dependency2099:w</title>
<path fill="none" stroke="black" d="M305,-1063C455.06,-1063 265.87,-1377.68 402.01,-1390.59"/>
<ellipse fill="none" stroke="black" cx="406.5" cy="-1390.8" rx="4" ry="4"/>
</g>
<!-- dependency2100 -->
<g id="node14" class="node">
<title>dependency2100</title>
<polygon fill="none" stroke="blue" points="420,-159.5 420,-264.5 524,-264.5 524,-159.5 420,-159.5"/>
<text text-anchor="start" x="451" y="-208.12" font-family="Helvetica,sans-Serif" font-size="10.00">pack_dep</text>
<polygon fill="none" stroke="blue" points="524,-243.5 524,-264.5 634,-264.5 634,-243.5 524,-243.5"/>
<text text-anchor="start" x="573.75" y="-250" font-family="Helvetica,sans-Serif" font-size="10.00">no</text>
<polygon fill="none" stroke="blue" points="524,-222.5 524,-243.5 634,-243.5 634,-222.5 524,-222.5"/>
<text text-anchor="start" x="555" y="-229" font-family="Helvetica,sans-Serif" font-size="10.00">dev&#45;python</text>
<polygon fill="none" stroke="blue" points="524,-201.5 524,-222.5 634,-222.5 634,-201.5 524,-201.5"/>
<text text-anchor="start" x="556.5" y="-208" font-family="Helvetica,sans-Serif" font-size="10.00">setuptools</text>
<polygon fill="none" stroke="blue" points="524,-180.5 524,-201.5 634,-201.5 634,-180.5 524,-180.5"/>
<text text-anchor="start" x="552.38" y="-187" font-family="Helvetica,sans-Serif" font-size="10.00">greaterequal</text>
<polygon fill="none" stroke="blue" points="524,-159.5 524,-180.5 634,-180.5 634,-159.5 524,-159.5"/>
<text text-anchor="start" x="565.5" y="-166" font-family="Helvetica,sans-Serif" font-size="10.00">42.0.2</text>
</g>
<!-- id&#45;&gt;dependency2100 -->
<g id="edge13" class="edge">
<title>id:e&#45;&gt;dependency2100:w</title>
<path fill="none" stroke="black" d="M305,-1063C492.5,-1063 229.17,-239.2 402.15,-212.66"/>
<ellipse fill="none" stroke="black" cx="406.51" cy="-212.33" rx="4" ry="4"/>
</g>
<!-- dependency2101 -->
<g id="node15" class="node">
<title>dependency2101</title>
<polygon fill="none" stroke="blue" points="420,-28.5 420,-133.5 524,-133.5 524,-28.5 420,-28.5"/>
<text text-anchor="start" x="451" y="-77.12" font-family="Helvetica,sans-Serif" font-size="10.00">pack_dep</text>
<polygon fill="none" stroke="blue" points="524,-112.5 524,-133.5 634,-133.5 634,-112.5 524,-112.5"/>
<text text-anchor="start" x="573.75" y="-119" font-family="Helvetica,sans-Serif" font-size="10.00">no</text>
<polygon fill="none" stroke="blue" points="524,-91.5 524,-112.5 634,-112.5 634,-91.5 524,-91.5"/>
<text text-anchor="start" x="555" y="-98" font-family="Helvetica,sans-Serif" font-size="10.00">dev&#45;python</text>
<polygon fill="none" stroke="blue" points="524,-70.5 524,-91.5 634,-91.5 634,-70.5 524,-70.5"/>
<text text-anchor="start" x="572.62" y="-77" font-family="Helvetica,sans-Serif" font-size="10.00">six</text>
<polygon fill="none" stroke="blue" points="524,-49.5 524,-70.5 634,-70.5 634,-49.5 524,-49.5"/>
<text text-anchor="start" x="552.38" y="-56" font-family="Helvetica,sans-Serif" font-size="10.00">greaterequal</text>
<polygon fill="none" stroke="blue" points="524,-28.5 524,-49.5 634,-49.5 634,-28.5 524,-28.5"/>
<text text-anchor="start" x="565.5" y="-35" font-family="Helvetica,sans-Serif" font-size="10.00">1.10.0</text>
</g>
<!-- id&#45;&gt;dependency2101 -->
<g id="edge14" class="edge">
<title>id:e&#45;&gt;dependency2101:w</title>
<path fill="none" stroke="black" d="M305,-1063C521.49,-1063 200.51,-107.67 402.3,-81.55"/>
<ellipse fill="none" stroke="black" cx="406.51" cy="-81.28" rx="4" ry="4"/>
</g>
<!-- dependency2102 -->
<g id="node16" class="node">
<title>dependency2102</title>
<polygon fill="none" stroke="blue" points="420,-421.5 420,-526.5 524,-526.5 524,-421.5 420,-421.5"/>
<text text-anchor="start" x="451" y="-470.12" font-family="Helvetica,sans-Serif" font-size="10.00">pack_dep</text>
<polygon fill="none" stroke="blue" points="524,-505.5 524,-526.5 634,-526.5 634,-505.5 524,-505.5"/>
<text text-anchor="start" x="567.38" y="-512" font-family="Helvetica,sans-Serif" font-size="10.00">weak</text>
<polygon fill="none" stroke="blue" points="524,-484.5 524,-505.5 634,-505.5 634,-484.5 524,-484.5"/>
<text text-anchor="start" x="555" y="-491" font-family="Helvetica,sans-Serif" font-size="10.00">dev&#45;python</text>
<polygon fill="none" stroke="blue" points="524,-463.5 524,-484.5 634,-484.5 634,-463.5 524,-463.5"/>
<text text-anchor="start" x="559.12" y="-470" font-family="Helvetica,sans-Serif" font-size="10.00">netifaces</text>
<polygon fill="none" stroke="blue" points="524,-442.5 524,-463.5 634,-463.5 634,-442.5 524,-442.5"/>
<text text-anchor="start" x="570" y="-449" font-family="Helvetica,sans-Serif" font-size="10.00">tilde</text>
<polygon fill="none" stroke="blue" points="524,-421.5 524,-442.5 634,-442.5 634,-421.5 524,-421.5"/>
<text text-anchor="start" x="565.5" y="-428" font-family="Helvetica,sans-Serif" font-size="10.00">0.10.0</text>
</g>
<!-- id&#45;&gt;dependency2102 -->
<g id="edge15" class="edge">
<title>id:e&#45;&gt;dependency2102:w</title>
<path fill="none" stroke="black" d="M305,-1063C434.87,-1063 285.35,-501.29 402.12,-474.96"/>
<ellipse fill="none" stroke="black" cx="406.53" cy="-474.48" rx="4" ry="4"/>
</g>
<!-- dependency2103 -->
<g id="node17" class="node">
<title>dependency2103</title>
<polygon fill="none" stroke="blue" points="420,-1674.5 420,-1779.5 524,-1779.5 524,-1674.5 420,-1674.5"/>
<text text-anchor="start" x="451" y="-1723.12" font-family="Helvetica,sans-Serif" font-size="10.00">pack_dep</text>
<polygon fill="none" stroke="blue" points="524,-1758.5 524,-1779.5 634,-1779.5 634,-1758.5 524,-1758.5"/>
<text text-anchor="start" x="567.38" y="-1765" font-family="Helvetica,sans-Serif" font-size="10.00">weak</text>
<polygon fill="none" stroke="blue" points="524,-1737.5 524,-1758.5 634,-1758.5 634,-1737.5 524,-1737.5"/>
<text text-anchor="start" x="555" y="-1744" font-family="Helvetica,sans-Serif" font-size="10.00">dev&#45;python</text>
<polygon fill="none" stroke="blue" points="524,-1716.5 524,-1737.5 634,-1737.5 634,-1716.5 524,-1716.5"/>
<text text-anchor="start" x="559.12" y="-1723" font-family="Helvetica,sans-Serif" font-size="10.00">netifaces</text>
<polygon fill="none" stroke="blue" points="524,-1695.5 524,-1716.5 634,-1716.5 634,-1695.5 524,-1695.5"/>
<text text-anchor="start" x="570" y="-1702" font-family="Helvetica,sans-Serif" font-size="10.00">tilde</text>
<polygon fill="none" stroke="blue" points="524,-1674.5 524,-1695.5 634,-1695.5 634,-1674.5 524,-1674.5"/>
<text text-anchor="start" x="565.5" y="-1681" font-family="Helvetica,sans-Serif" font-size="10.00">0.10.1</text>
</g>
<!-- id&#45;&gt;dependency2103 -->
<g id="edge16" class="edge">
<title>id:e&#45;&gt;dependency2103:w</title>
<path fill="none" stroke="black" d="M305,-1063C451.36,-1063 269.34,-1700.04 402.23,-1726.17"/>
<ellipse fill="none" stroke="black" cx="406.52" cy="-1726.58" rx="4" ry="4"/>
</g>
<!-- choice100101118451121211161041111104711298114455346534649 -->
<g id="node18" class="node">
<title>choice100101118451121211161041111104711298114455346534649</title>
<g id="a_node18"><a xlink:href="../dev-python/pbr-5.5.1.svg" xlink:title="portage://dev&#45;python/pbr&#45;5.5.1">
<ellipse fill="none" stroke="red" cx="900" cy="-1445" rx="144" ry="18"/>
<text text-anchor="middle" x="900" y="-1441.12" font-family="Helvetica,sans-Serif" font-size="10.00">portage://dev&#45;python/pbr&#45;5.5.1</text>
</a>
</g>
</g>
<!-- dependency2088&#45;&gt;choice100101118451121211161041111104711298114455346534649 -->
<g id="edge17" class="edge">
<title>dependency2088:e&#45;&gt;choice100101118451121211161041111104711298114455346534649:w</title>
<path fill="none" stroke="black" stroke-dasharray="1,5" d="M649,-1884C845.8,-1884 565.63,-1461.98 743.8,-1445.5"/>
<polygon fill="black" stroke="black" points="753.78,-1445.05 743.99,-1449.99 750,-1445.22 743.79,-1445.5 743.79,-1445.5 743.79,-1445.5 750,-1445.22 743.59,-1441 753.78,-1445.05"/>
</g>
<!-- choice100101118451121211161041111104711298114455346544648 -->
<g id="node19" class="node">
<title>choice100101118451121211161041111104711298114455346544648</title>
<g id="a_node19"><a xlink:href="../dev-python/pbr-5.6.0.svg" xlink:title="portage://dev&#45;python/pbr&#45;5.6.0">
<ellipse fill="none" stroke="red" cx="900" cy="-1391" rx="144" ry="18"/>
<text text-anchor="middle" x="900" y="-1387.12" font-family="Helvetica,sans-Serif" font-size="10.00">portage://dev&#45;python/pbr&#45;5.6.0</text>
</a>
</g>
</g>
<!-- dependency2088&#45;&gt;choice100101118451121211161041111104711298114455346544648 -->
<g id="edge18" class="edge">
<title>dependency2088:e&#45;&gt;choice100101118451121211161041111104711298114455346544648:w</title>
<path fill="none" stroke="black" stroke-dasharray="1,5" d="M649,-1884C869.29,-1884 542.41,-1407.71 744,-1391.43"/>
<polygon fill="black" stroke="black" points="753.78,-1391.05 743.96,-1395.93 750,-1391.19 743.79,-1391.44 743.79,-1391.44 743.79,-1391.44 750,-1391.19 743.62,-1386.94 753.78,-1391.05"/>
</g>
<!-- choice10010111845108971101034711212111610411111045101120101994550465246544511452 -->
<g id="node20" class="node">
<title>choice10010111845108971101034711212111610411111045101120101994550465246544511452</title>
<g id="a_node20"><a xlink:href="../dev-lang/python-exec-2.4.6-r4.svg" xlink:title="portage://dev&#45;lang/python&#45;exec&#45;2.4.6&#45;r4">
<ellipse fill="none" stroke="red" cx="900" cy="-1260" rx="144" ry="18"/>
<text text-anchor="middle" x="900" y="-1256.12" font-family="Helvetica,sans-Serif" font-size="10.00">portage://dev&#45;lang/python&#45;exec&#45;2.4.6&#45;r4</text>
</a>
</g>
</g>
<!-- dependency2092&#45;&gt;choice10010111845108971101034711212111610411111045101120101994550465246544511452 -->
<g id="edge19" class="edge">
<title>dependency2092:e&#45;&gt;choice10010111845108971101034711212111610411111045101120101994550465246544511452:w</title>
<path fill="none" stroke="black" stroke-dasharray="1,5" d="M649,-1260C692.25,-1260 705.72,-1260 744.08,-1260"/>
<polygon fill="black" stroke="black" points="753.78,-1260 743.78,-1264.5 750,-1260 743.78,-1260 743.78,-1260 743.78,-1260 750,-1260 743.78,-1255.5 753.78,-1260"/>
</g>
<!-- choice10010111845112121116104111110478012169677610598454946544648 -->
<g id="node21" class="node">
<title>choice10010111845112121116104111110478012169677610598454946544648</title>
<g id="a_node21"><a xlink:href="../dev-python/PyECLib-1.6.0.svg" xlink:title="portage://dev&#45;python/PyECLib&#45;1.6.0">
<ellipse fill="none" stroke="red" cx="900" cy="-1129" rx="144" ry="18"/>
<text text-anchor="middle" x="900" y="-1125.12" font-family="Helvetica,sans-Serif" font-size="10.00">portage://dev&#45;python/PyECLib&#45;1.6.0</text>
</a>
</g>
</g>
<!-- dependency2093&#45;&gt;choice10010111845112121116104111110478012169677610598454946544648 -->
<g id="edge20" class="edge">
<title>dependency2093:e&#45;&gt;choice10010111845112121116104111110478012169677610598454946544648:w</title>
<path fill="none" stroke="black" stroke-dasharray="1,5" d="M649,-1129C692.25,-1129 705.72,-1129 744.08,-1129"/>
<polygon fill="black" stroke="black" points="753.78,-1129 743.78,-1133.5 750,-1129 743.78,-1129 743.78,-1129 743.78,-1129 750,-1129 743.78,-1124.5 753.78,-1129"/>
</g>
<!-- choice10010111845112121116104111110479911412111211611110311497112104121455146514650 -->
<g id="node22" class="node">
<title>choice10010111845112121116104111110479911412111211611110311497112104121455146514650</title>
<g id="a_node22"><a xlink:href="../dev-python/cryptography-3.3.2.svg" xlink:title="portage://dev&#45;python/cryptography&#45;3.3.2">
<ellipse fill="none" stroke="red" cx="900" cy="-1025" rx="144" ry="18"/>
<text text-anchor="middle" x="900" y="-1021.12" font-family="Helvetica,sans-Serif" font-size="10.00">portage://dev&#45;python/cryptography&#45;3.3.2</text>
</a>
</g>
</g>
<!-- dependency2094&#45;&gt;choice10010111845112121116104111110479911412111211611110311497112104121455146514650 -->
<g id="edge21" class="edge">
<title>dependency2094:e&#45;&gt;choice10010111845112121116104111110479911412111211611110311497112104121455146514650:w</title>
<path fill="none" stroke="black" stroke-dasharray="1,5" d="M649,-998C693.63,-998 704.68,-1020.75 743.8,-1024.48"/>
<polygon fill="black" stroke="black" points="753.78,-1024.94 743.59,-1028.98 750.01,-1024.77 743.79,-1024.48 743.79,-1024.48 743.79,-1024.48 750.01,-1024.77 744,-1019.99 753.78,-1024.94"/>
</g>
<!-- choice10010111845112121116104111110479911412111211611110311497112104121455146524655 -->
<g id="node23" class="node">
<title>choice10010111845112121116104111110479911412111211611110311497112104121455146524655</title>
<g id="a_node23"><a xlink:href="../dev-python/cryptography-3.4.7.svg" xlink:title="portage://dev&#45;python/cryptography&#45;3.4.7">
<ellipse fill="none" stroke="red" cx="900" cy="-971" rx="144" ry="18"/>
<text text-anchor="middle" x="900" y="-967.12" font-family="Helvetica,sans-Serif" font-size="10.00">portage://dev&#45;python/cryptography&#45;3.4.7</text>
</a>
</g>
</g>
<!-- dependency2094&#45;&gt;choice10010111845112121116104111110479911412111211611110311497112104121455146524655 -->
<g id="edge22" class="edge">
<title>dependency2094:e&#45;&gt;choice10010111845112121116104111110479911412111211611110311497112104121455146524655:w</title>
<path fill="none" stroke="black" stroke-dasharray="1,5" d="M649,-998C693.63,-998 704.68,-975.25 743.8,-971.52"/>
<polygon fill="black" stroke="black" points="753.78,-971.06 744,-976.01 750.01,-971.23 743.79,-971.52 743.79,-971.52 743.79,-971.52 750.01,-971.23 743.59,-967.02 753.78,-971.06"/>
</g>
<!-- choice1001011184511212111610411111047101118101110116108101116454846514846484511449 -->
<g id="node24" class="node">
<title>choice1001011184511212111610411111047101118101110116108101116454846514846484511449</title>
<g id="a_node24"><a xlink:href="../dev-python/eventlet-0.30.0-r1.svg" xlink:title="portage://dev&#45;python/eventlet&#45;0.30.0&#45;r1">
<ellipse fill="none" stroke="red" cx="900" cy="-892" rx="144" ry="18"/>
<text text-anchor="middle" x="900" y="-888.12" font-family="Helvetica,sans-Serif" font-size="10.00">portage://dev&#45;python/eventlet&#45;0.30.0&#45;r1</text>
</a>
</g>
</g>
<!-- dependency2095&#45;&gt;choice1001011184511212111610411111047101118101110116108101116454846514846484511449 -->
<g id="edge23" class="edge">
<title>dependency2095:e&#45;&gt;choice1001011184511212111610411111047101118101110116108101116454846514846484511449:w</title>
<path fill="none" stroke="black" stroke-dasharray="1,5" d="M649,-867C693.43,-867 704.82,-888.07 743.84,-891.52"/>
<polygon fill="black" stroke="black" points="753.78,-891.95 743.6,-896.02 750,-891.79 743.79,-891.52 743.79,-891.52 743.79,-891.52 750,-891.79 743.98,-887.03 753.78,-891.95"/>
</g>
<!-- choice1001011184511212111610411111047101118101110116108101116454846514846504511449 -->
<g id="node25" class="node">
<title>choice1001011184511212111610411111047101118101110116108101116454846514846504511449</title>
<g id="a_node25"><a xlink:href="../dev-python/eventlet-0.30.2-r1.svg" xlink:title="portage://dev&#45;python/eventlet&#45;0.30.2&#45;r1">
<ellipse fill="none" stroke="red" cx="900" cy="-838" rx="144" ry="18"/>
<text text-anchor="middle" x="900" y="-834.12" font-family="Helvetica,sans-Serif" font-size="10.00">portage://dev&#45;python/eventlet&#45;0.30.2&#45;r1</text>
</a>
</g>
</g>
<!-- dependency2095&#45;&gt;choice1001011184511212111610411111047101118101110116108101116454846514846504511449 -->
<g id="edge24" class="edge">
<title>dependency2095:e&#45;&gt;choice1001011184511212111610411111047101118101110116108101116454846514846504511449:w</title>
<path fill="none" stroke="black" stroke-dasharray="1,5" d="M649,-867C694.03,-867 704.61,-842.35 744.26,-838.5"/>
<polygon fill="black" stroke="black" points="753.78,-838.06 744,-843.02 750.01,-838.23 743.79,-838.53 743.79,-838.53 743.79,-838.53 750.01,-838.23 743.58,-834.03 753.78,-838.06"/>
</g>
<!-- choice1001011184511212111610411111047103114101101110108101116454946484648 -->
<g id="node26" class="node">
<title>choice1001011184511212111610411111047103114101101110108101116454946484648</title>
<g id="a_node26"><a xlink:href="../dev-python/greenlet-1.0.0.svg" xlink:title="portage://dev&#45;python/greenlet&#45;1.0.0">
<ellipse fill="none" stroke="red" cx="900" cy="-736" rx="144" ry="18"/>
<text text-anchor="middle" x="900" y="-732.12" font-family="Helvetica,sans-Serif" font-size="10.00">portage://dev&#45;python/greenlet&#45;1.0.0</text>
</a>
</g>
</g>
<!-- dependency2096&#45;&gt;choice1001011184511212111610411111047103114101101110108101116454946484648 -->
<g id="edge25" class="edge">
<title>dependency2096:e&#45;&gt;choice1001011184511212111610411111047103114101101110108101116454946484648:w</title>
<path fill="none" stroke="black" stroke-dasharray="1,5" d="M649,-736C692.25,-736 705.72,-736 744.08,-736"/>
<polygon fill="black" stroke="black" points="753.78,-736 743.78,-740.5 750,-736 743.78,-736 743.78,-736 743.78,-736 750,-736 743.78,-731.5 753.78,-736"/>
</g>
<!-- choice1001011184511212111610411111047110101116105102979910111545484649484657 -->
<g id="node27" class="node">
<title>choice1001011184511212111610411111047110101116105102979910111545484649484657</title>
<g id="a_node27"><a xlink:href="../dev-python/netifaces-0.10.9.svg" xlink:title="portage://dev&#45;python/netifaces&#45;0.10.9">
<ellipse fill="none" stroke="red" cx="900" cy="-605" rx="144" ry="18"/>
<text text-anchor="middle" x="900" y="-601.12" font-family="Helvetica,sans-Serif" font-size="10.00">portage://dev&#45;python/netifaces&#45;0.10.9</text>
</a>
</g>
</g>
<!-- dependency2097&#45;&gt;choice1001011184511212111610411111047110101116105102979910111545484649484657 -->
<g id="edge26" class="edge">
<title>dependency2097:e&#45;&gt;choice1001011184511212111610411111047110101116105102979910111545484649484657:w</title>
<path fill="none" stroke="black" stroke-dasharray="1,5" d="M649,-605C692.25,-605 705.72,-605 744.08,-605"/>
<polygon fill="black" stroke="black" points="753.78,-605 743.78,-609.5 750,-605 743.78,-605 743.78,-605 743.78,-605 750,-605 743.78,-600.5 753.78,-605"/>
</g>
<!-- choice100101118451121211161041111104711297115116101100101112108111121455046494649 -->
<g id="node28" class="node">
<title>choice100101118451121211161041111104711297115116101100101112108111121455046494649</title>
<g id="a_node28"><a xlink:href="../dev-python/pastedeploy-2.1.1.svg" xlink:title="portage://dev&#45;python/pastedeploy&#45;2.1.1">
<ellipse fill="none" stroke="red" cx="900" cy="-343" rx="144" ry="18"/>
<text text-anchor="middle" x="900" y="-339.12" font-family="Helvetica,sans-Serif" font-size="10.00">portage://dev&#45;python/pastedeploy&#45;2.1.1</text>
</a>
</g>
</g>
<!-- dependency2098&#45;&gt;choice100101118451121211161041111104711297115116101100101112108111121455046494649 -->
<g id="edge27" class="edge">
<title>dependency2098:e&#45;&gt;choice100101118451121211161041111104711297115116101100101112108111121455046494649:w</title>
<path fill="none" stroke="black" stroke-dasharray="1,5" d="M649,-343C692.25,-343 705.72,-343 744.08,-343"/>
<polygon fill="black" stroke="black" points="753.78,-343 743.78,-347.5 750,-343 743.78,-343 743.78,-343 743.78,-343 750,-343 743.78,-338.5 753.78,-343"/>
</g>
<!-- dependency2099&#45;&gt;choice100101118451121211161041111104711298114455346534649 -->
<g id="edge28" class="edge">
<title>dependency2099:e&#45;&gt;choice100101118451121211161041111104711298114455346534649:w</title>
<path fill="none" stroke="black" stroke-dasharray="1,5" d="M649,-1391C697.95,-1391 701.8,-1437.28 744.05,-1444.15"/>
<polygon fill="black" stroke="black" points="753.79,-1444.91 743.47,-1448.62 750.01,-1444.61 743.82,-1444.13 743.82,-1444.13 743.82,-1444.13 750.01,-1444.61 744.16,-1439.65 753.79,-1444.91"/>
</g>
<!-- dependency2099&#45;&gt;choice100101118451121211161041111104711298114455346544648 -->
<g id="edge29" class="edge">
<title>dependency2099:e&#45;&gt;choice100101118451121211161041111104711298114455346544648:w</title>
<path fill="none" stroke="black" stroke-dasharray="1,5" d="M649,-1391C692.25,-1391 705.72,-1391 744.08,-1391"/>
<polygon fill="black" stroke="black" points="753.78,-1391 743.78,-1395.5 750,-1391 743.78,-1391 743.78,-1391 743.78,-1391 750,-1391 743.78,-1386.5 753.78,-1391"/>
</g>
<!-- choice100101118451121211161041111104711510111611711211611111110811545535146494648 -->
<g id="node29" class="node">
<title>choice100101118451121211161041111104711510111611711211611111110811545535146494648</title>
<g id="a_node29"><a xlink:href="../dev-python/setuptools-53.1.0.svg" xlink:title="portage://dev&#45;python/setuptools&#45;53.1.0">
<ellipse fill="none" stroke="red" cx="900" cy="-158" rx="144" ry="18"/>
<text text-anchor="middle" x="900" y="-154.12" font-family="Helvetica,sans-Serif" font-size="10.00">portage://dev&#45;python/setuptools&#45;53.1.0</text>
</a>
</g>
</g>
<!-- dependency2100&#45;&gt;choice100101118451121211161041111104711510111611711211611111110811545535146494648 -->
<g id="edge30" class="edge">
<title>dependency2100:e&#45;&gt;choice100101118451121211161041111104711510111611711211611111110811545535146494648:w</title>
<path fill="none" stroke="black" stroke-dasharray="1,5" d="M649,-212C697.95,-212 701.8,-165.72 744.05,-158.85"/>
<polygon fill="black" stroke="black" points="753.79,-158.09 744.16,-163.35 750.01,-158.39 743.82,-158.87 743.82,-158.87 743.82,-158.87 750.01,-158.39 743.47,-154.38 753.79,-158.09"/>
</g>
<!-- choice100101118451121211161041111104711510111611711211611111110811545535246504648 -->
<g id="node30" class="node">
<title>choice100101118451121211161041111104711510111611711211611111110811545535246504648</title>
<g id="a_node30"><a xlink:href="../dev-python/setuptools-54.2.0.svg" xlink:title="portage://dev&#45;python/setuptools&#45;54.2.0">
<ellipse fill="none" stroke="red" cx="900" cy="-266" rx="144" ry="18"/>
<text text-anchor="middle" x="900" y="-262.12" font-family="Helvetica,sans-Serif" font-size="10.00">portage://dev&#45;python/setuptools&#45;54.2.0</text>
</a>
</g>
</g>
<!-- dependency2100&#45;&gt;choice100101118451121211161041111104711510111611711211611111110811545535246504648 -->
<g id="edge31" class="edge">
<title>dependency2100:e&#45;&gt;choice100101118451121211161041111104711510111611711211611111110811545535246504648:w</title>
<path fill="none" stroke="black" stroke-dasharray="1,5" d="M649,-212C697.95,-212 701.8,-258.28 744.05,-265.15"/>
<polygon fill="black" stroke="black" points="753.79,-265.91 743.47,-269.62 750.01,-265.61 743.82,-265.13 743.82,-265.13 743.82,-265.13 750.01,-265.61 744.16,-260.65 753.79,-265.91"/>
</g>
<!-- choice100101118451121211161041111104711510111611711211611111110811545535446484648 -->
<g id="node31" class="node">
<title>choice100101118451121211161041111104711510111611711211611111110811545535446484648</title>
<g id="a_node31"><a xlink:href="../dev-python/setuptools-56.0.0.svg" xlink:title="portage://dev&#45;python/setuptools&#45;56.0.0">
<ellipse fill="none" stroke="red" cx="900" cy="-212" rx="144" ry="18"/>
<text text-anchor="middle" x="900" y="-208.12" font-family="Helvetica,sans-Serif" font-size="10.00">portage://dev&#45;python/setuptools&#45;56.0.0</text>
</a>
</g>
</g>
<!-- dependency2100&#45;&gt;choice100101118451121211161041111104711510111611711211611111110811545535446484648 -->
<g id="edge32" class="edge">
<title>dependency2100:e&#45;&gt;choice100101118451121211161041111104711510111611711211611111110811545535446484648:w</title>
<path fill="none" stroke="black" stroke-dasharray="1,5" d="M649,-212C692.25,-212 705.72,-212 744.08,-212"/>
<polygon fill="black" stroke="black" points="753.78,-212 743.78,-216.5 750,-212 743.78,-212 743.78,-212 743.78,-212 750,-212 743.78,-207.5 753.78,-212"/>
</g>
<!-- choice1001011184511212111610411111047115105120454946495346484511449 -->
<g id="node32" class="node">
<title>choice1001011184511212111610411111047115105120454946495346484511449</title>
<g id="a_node32"><a xlink:href="../dev-python/six-1.15.0-r1.svg" xlink:title="portage://dev&#45;python/six&#45;1.15.0&#45;r1">
<ellipse fill="none" stroke="red" cx="900" cy="-104" rx="144" ry="18"/>
<text text-anchor="middle" x="900" y="-100.12" font-family="Helvetica,sans-Serif" font-size="10.00">portage://dev&#45;python/six&#45;1.15.0&#45;r1</text>
</a>
</g>
</g>
<!-- dependency2101&#45;&gt;choice1001011184511212111610411111047115105120454946495346484511449 -->
<g id="edge33" class="edge">
<title>dependency2101:e&#45;&gt;choice1001011184511212111610411111047115105120454946495346484511449:w</title>
<path fill="none" stroke="black" stroke-dasharray="1,5" d="M649,-81C693.25,-81 704.96,-100.38 743.87,-103.56"/>
<polygon fill="black" stroke="black" points="753.78,-103.95 743.61,-108.05 750,-103.8 743.79,-103.56 743.79,-103.56 743.79,-103.56 750,-103.8 743.97,-99.06 753.78,-103.95"/>
</g>
<!-- dependency2102&#45;&gt;choice1001011184511212111610411111047110101116105102979910111545484649484657 -->
<g id="edge34" class="edge">
<title>dependency2102:e&#45;&gt;choice1001011184511212111610411111047110101116105102979910111545484649484657:w</title>
<path fill="none" stroke="black" stroke-dasharray="1,5" d="M649,-474C719.95,-474 684.39,-591.55 744.11,-603.95"/>
<polygon fill="black" stroke="black" points="753.79,-604.88 743.4,-608.4 750.02,-604.52 743.83,-603.92 743.83,-603.92 743.83,-603.92 750.02,-604.52 744.27,-599.44 753.79,-604.88"/>
</g>
<!-- dependency2103&#45;&gt;choice1001011184511212111610411111047110101116105102979910111545484649484657 -->
<g id="edge35" class="edge">
<title>dependency2103:e&#45;&gt;choice1001011184511212111610411111047110101116105102979910111545484649484657:w</title>
<path fill="none" stroke="black" stroke-dasharray="1,5" d="M649,-1727C895.65,-1727 516.36,-638.71 744.07,-605.76"/>
<polygon fill="black" stroke="black" points="753.78,-605.08 744.12,-610.27 750.01,-605.35 743.81,-605.78 743.81,-605.78 743.81,-605.78 750.01,-605.35 743.5,-601.29 753.78,-605.08"/>
</g>
</g>
</svg>
