<?xml version="1.0" encoding="UTF-8" standalone="no"?>
<!DOCTYPE svg PUBLIC "-//W3C//DTD SVG 1.1//EN"
 "http://www.w3.org/Graphics/SVG/1.1/DTD/svg11.dtd">
<!-- Generated by graphviz version 2.44.1 (20200629.0846)
 -->
<!-- Title: prolog Pages: 1 -->
<svg width="1068pt" height="600pt"
 viewBox="0.00 0.00 1068.00 600.00" xmlns="http://www.w3.org/2000/svg" xmlns:xlink="http://www.w3.org/1999/xlink">
<g id="graph0" class="graph" transform="scale(1 1) rotate(0) translate(4 596)">
<title>prolog</title>
<polygon fill="white" stroke="transparent" points="-4,4 -4,-596 1064,-596 1064,4 -4,4"/>
<g id="clust1" class="cluster">
<title>cluster_leftcol</title>
<polygon fill="none" stroke="gray" points="8,-250 8,-322 312,-322 312,-250 8,-250"/>
<text text-anchor="start" x="146.66" y="-310" font-family="Helvetica,sans-Serif" font-style="italic" font-size="10.00">ebuild</text>
</g>
<g id="clust2" class="cluster">
<title>cluster_midcol</title>
<polygon fill="none" stroke="gray" points="396,-8 396,-584 664,-584 664,-8 396,-8"/>
<text text-anchor="start" x="498.88" y="-572" font-family="Helvetica,sans-Serif" font-style="italic" font-size="10.00">dependencies</text>
</g>
<g id="clust3" class="cluster">
<title>cluster_compile</title>
<polygon fill="#eeeeee" stroke="gray" points="404,-290 404,-556 656,-556 656,-290 404,-290"/>
<text text-anchor="start" x="512.78" y="-544" font-family="Helvetica,sans-Serif" font-style="italic" font-size="10.00">compile</text>
</g>
<g id="clust7" class="cluster">
<title>cluster_run</title>
<polygon fill="#eeeeee" stroke="gray" points="404,-16 404,-282 656,-282 656,-16 404,-16"/>
<text text-anchor="start" x="522.78" y="-270" font-family="Helvetica,sans-Serif" font-style="italic" font-size="10.00">run</text>
</g>
<g id="clust10" class="cluster">
<title>cluster_choices</title>
<polygon fill="none" stroke="gray" points="748,-107 748,-449 1052,-449 1052,-107 748,-107"/>
<text text-anchor="start" x="875.82" y="-437" font-family="Helvetica,sans-Serif" font-style="italic" font-size="10.00">candidates</text>
</g>
<!-- id -->
<g id="node1" class="node">
<title>id</title>
<g id="a_node1"><a xlink:href="../sys-devel/llvm-roc-2.10.0.svg" xlink:title="portage://sys&#45;devel/llvm&#45;roc&#45;2.10.0">
<ellipse fill="none" stroke="red" cx="160" cy="-276" rx="144" ry="18"/>
<text text-anchor="middle" x="160" y="-273" font-family="Helvetica,sans-Serif" font-size="10.00">portage://sys&#45;devel/llvm&#45;roc&#45;2.10.0</text>
</a>
</g>
</g>
<!-- dependency36857 -->
<g id="node2" class="node">
<title>dependency36857</title>
<polygon fill="none" stroke="blue" points="420,-426 420,-524 525,-524 525,-426 420,-426"/>
<text text-anchor="start" x="450.82" y="-472" font-family="Helvetica,sans-Serif" font-size="10.00">pack_dep</text>
<polygon fill="none" stroke="blue" points="525,-502 525,-524 635,-524 635,-502 525,-502"/>
<text text-anchor="start" x="574.44" y="-510" font-family="Helvetica,sans-Serif" font-size="10.00">no</text>
<polygon fill="none" stroke="blue" points="525,-480 525,-502 635,-502 635,-480 525,-480"/>
<text text-anchor="start" x="562.78" y="-488" font-family="Helvetica,sans-Serif" font-size="10.00">dev&#45;libs</text>
<polygon fill="none" stroke="blue" points="525,-458 525,-480 635,-480 635,-458 525,-458"/>
<text text-anchor="start" x="553.06" y="-466" font-family="Helvetica,sans-Serif" font-size="10.00">rocr&#45;runtime</text>
<polygon fill="none" stroke="blue" points="525,-436 525,-458 635,-458 635,-436 525,-436"/>
<text text-anchor="start" x="568.88" y="-444" font-family="Helvetica,sans-Serif" font-size="10.00">none</text>
<polygon fill="none" stroke="blue" points="525,-426 525,-436 635,-436 635,-426 525,-426"/>
</g>
<!-- id&#45;&gt;dependency36857 -->
<g id="edge1" class="edge">
<title>id:e&#45;&gt;dependency36857:w</title>
<path fill="none" stroke="black" d="M305,-276C401.59,-276 317.36,-460.88 400.88,-474.24"/>
<polygon fill="black" stroke="black" points="411,-475 400.69,-478.74 406.01,-474.63 401.03,-474.25 401.03,-474.25 401.03,-474.25 406.01,-474.63 401.37,-469.76 411,-475 411,-475"/>
</g>
<!-- dependency36858 -->
<g id="node3" class="node">
<title>dependency36858</title>
<polygon fill="none" stroke="blue" points="420,-302 420,-400 525,-400 525,-302 420,-302"/>
<text text-anchor="start" x="450.82" y="-348" font-family="Helvetica,sans-Serif" font-size="10.00">pack_dep</text>
<polygon fill="none" stroke="blue" points="525,-378 525,-400 635,-400 635,-378 525,-378"/>
<text text-anchor="start" x="574.44" y="-386" font-family="Helvetica,sans-Serif" font-size="10.00">no</text>
<polygon fill="none" stroke="blue" points="525,-356 525,-378 635,-378 635,-356 525,-356"/>
<text text-anchor="start" x="566.67" y="-364" font-family="Helvetica,sans-Serif" font-size="10.00">virtual</text>
<polygon fill="none" stroke="blue" points="525,-334 525,-356 635,-356 635,-334 525,-334"/>
<text text-anchor="start" x="568.33" y="-342" font-family="Helvetica,sans-Serif" font-size="10.00">cblas</text>
<polygon fill="none" stroke="blue" points="525,-312 525,-334 635,-334 635,-312 525,-312"/>
<text text-anchor="start" x="568.88" y="-320" font-family="Helvetica,sans-Serif" font-size="10.00">none</text>
<polygon fill="none" stroke="blue" points="525,-302 525,-312 635,-312 635,-302 525,-302"/>
</g>
<!-- id&#45;&gt;dependency36858 -->
<g id="edge2" class="edge">
<title>id:e&#45;&gt;dependency36858:w</title>
<path fill="none" stroke="black" d="M305,-276C359.1,-276 354.2,-341.92 400.93,-350.16"/>
<polygon fill="black" stroke="black" points="411,-351 400.66,-354.65 406.02,-350.58 401.03,-350.17 401.03,-350.17 401.03,-350.17 406.02,-350.58 401.41,-345.68 411,-351 411,-351"/>
</g>
<!-- dependency36859 -->
<g id="node4" class="node">
<title>dependency36859</title>
<polygon fill="none" stroke="blue" points="420,-152 420,-250 525,-250 525,-152 420,-152"/>
<text text-anchor="start" x="450.82" y="-198" font-family="Helvetica,sans-Serif" font-size="10.00">pack_dep</text>
<polygon fill="none" stroke="blue" points="525,-228 525,-250 635,-250 635,-228 525,-228"/>
<text text-anchor="start" x="574.44" y="-236" font-family="Helvetica,sans-Serif" font-size="10.00">no</text>
<polygon fill="none" stroke="blue" points="525,-206 525,-228 635,-228 635,-206 525,-206"/>
<text text-anchor="start" x="562.78" y="-214" font-family="Helvetica,sans-Serif" font-size="10.00">dev&#45;libs</text>
<polygon fill="none" stroke="blue" points="525,-184 525,-206 635,-206 635,-184 525,-184"/>
<text text-anchor="start" x="553.06" y="-192" font-family="Helvetica,sans-Serif" font-size="10.00">rocr&#45;runtime</text>
<polygon fill="none" stroke="blue" points="525,-162 525,-184 635,-184 635,-162 525,-162"/>
<text text-anchor="start" x="568.88" y="-170" font-family="Helvetica,sans-Serif" font-size="10.00">none</text>
<polygon fill="none" stroke="blue" points="525,-152 525,-162 635,-162 635,-152 525,-152"/>
</g>
<!-- id&#45;&gt;dependency36859 -->
<g id="edge3" class="edge">
<title>id:e&#45;&gt;dependency36859:w</title>
<path fill="none" stroke="black" d="M305,-276C359.89,-276 354.05,-208.15 403.01,-201.52"/>
<ellipse fill="none" stroke="black" cx="407.01" cy="-201.26" rx="4" ry="4"/>
</g>
<!-- dependency36860 -->
<g id="node5" class="node">
<title>dependency36860</title>
<polygon fill="none" stroke="blue" points="420,-28 420,-126 525,-126 525,-28 420,-28"/>
<text text-anchor="start" x="450.82" y="-74" font-family="Helvetica,sans-Serif" font-size="10.00">pack_dep</text>
<polygon fill="none" stroke="blue" points="525,-104 525,-126 635,-126 635,-104 525,-104"/>
<text text-anchor="start" x="574.44" y="-112" font-family="Helvetica,sans-Serif" font-size="10.00">no</text>
<polygon fill="none" stroke="blue" points="525,-82 525,-104 635,-104 635,-82 525,-82"/>
<text text-anchor="start" x="566.67" y="-90" font-family="Helvetica,sans-Serif" font-size="10.00">virtual</text>
<polygon fill="none" stroke="blue" points="525,-60 525,-82 635,-82 635,-60 525,-60"/>
<text text-anchor="start" x="568.33" y="-68" font-family="Helvetica,sans-Serif" font-size="10.00">cblas</text>
<polygon fill="none" stroke="blue" points="525,-38 525,-60 635,-60 635,-38 525,-38"/>
<text text-anchor="start" x="568.88" y="-46" font-family="Helvetica,sans-Serif" font-size="10.00">none</text>
<polygon fill="none" stroke="blue" points="525,-28 525,-38 635,-38 635,-28 525,-28"/>
</g>
<!-- id&#45;&gt;dependency36860 -->
<g id="edge4" class="edge">
<title>id:e&#45;&gt;dependency36860:w</title>
<path fill="none" stroke="black" d="M305,-276C402.37,-276 315.98,-88.11 402.95,-77.47"/>
<ellipse fill="none" stroke="black" cx="407.01" cy="-77.23" rx="4" ry="4"/>
</g>
<!-- choice10010111845108105981154711411199114451141171101161051091014557575757 -->
<g id="node6" class="node">
<title>choice10010111845108105981154711411199114451141171101161051091014557575757</title>
<g id="a_node6"><a xlink:href="../dev-libs/rocr-runtime-9999.svg" xlink:title="portage://dev&#45;libs/rocr&#45;runtime&#45;9999">
<ellipse fill="none" stroke="red" cx="900" cy="-403" rx="144" ry="18"/>
<text text-anchor="middle" x="900" y="-400" font-family="Helvetica,sans-Serif" font-size="10.00">portage://dev&#45;libs/rocr&#45;runtime&#45;9999</text>
</a>
</g>
</g>
<!-- dependency36857&#45;&gt;choice10010111845108105981154711411199114451141171101161051091014557575757 -->
<g id="edge5" class="edge">
<title>dependency36857:e&#45;&gt;choice10010111845108105981154711411199114451141171101161051091014557575757:w</title>
<path fill="none" stroke="black" stroke-dasharray="1,5" d="M649,-475C702.28,-475 698.8,-411.98 744.76,-403.86"/>
<polygon fill="black" stroke="black" points="755,-403 745.41,-408.32 750.02,-403.42 745.03,-403.84 745.03,-403.84 745.03,-403.84 750.02,-403.42 744.66,-399.35 755,-403 755,-403"/>
</g>
<!-- choice1001011184510810598115471141119911445114117110116105109101455146484648 -->
<g id="node7" class="node">
<title>choice1001011184510810598115471141119911445114117110116105109101455146484648</title>
<g id="a_node7"><a xlink:href="../dev-libs/rocr-runtime-3.0.0.svg" xlink:title="portage://dev&#45;libs/rocr&#45;runtime&#45;3.0.0">
<ellipse fill="none" stroke="red" cx="900" cy="-349" rx="144" ry="18"/>
<text text-anchor="middle" x="900" y="-346" font-family="Helvetica,sans-Serif" font-size="10.00">portage://dev&#45;libs/rocr&#45;runtime&#45;3.0.0</text>
</a>
</g>
</g>
<!-- dependency36857&#45;&gt;choice1001011184510810598115471141119911445114117110116105109101455146484648 -->
<g id="edge6" class="edge">
<title>dependency36857:e&#45;&gt;choice1001011184510810598115471141119911445114117110116105109101455146484648:w</title>
<path fill="none" stroke="black" stroke-dasharray="1,5" d="M649,-475C718.46,-475 685.63,-361.47 744.7,-349.94"/>
<polygon fill="black" stroke="black" points="755,-349 745.45,-354.39 750.02,-349.46 745.04,-349.91 745.04,-349.91 745.04,-349.91 750.02,-349.46 744.63,-345.43 755,-349 755,-349"/>
</g>
<!-- choice118105114116117971084799981089711545514656 -->
<g id="node8" class="node">
<title>choice118105114116117971084799981089711545514656</title>
<g id="a_node8"><a xlink:href="../virtual/cblas-3.8.svg" xlink:title="portage://virtual/cblas&#45;3.8">
<ellipse fill="none" stroke="red" cx="900" cy="-295" rx="144" ry="18"/>
<text text-anchor="middle" x="900" y="-292" font-family="Helvetica,sans-Serif" font-size="10.00">portage://virtual/cblas&#45;3.8</text>
</a>
</g>
</g>
<!-- dependency36858&#45;&gt;choice118105114116117971084799981089711545514656 -->
<g id="edge7" class="edge">
<title>dependency36858:e&#45;&gt;choice118105114116117971084799981089711545514656:w</title>
<path fill="none" stroke="black" stroke-dasharray="1,5" d="M649,-351C698.64,-351 701.54,-302.39 744.79,-295.75"/>
<polygon fill="black" stroke="black" points="755,-295 745.36,-300.22 750.01,-295.37 745.03,-295.73 745.03,-295.73 745.03,-295.73 750.01,-295.37 744.7,-291.24 755,-295 755,-295"/>
</g>
<!-- choice118105114116117971084799981089711545514655 -->
<g id="node9" class="node">
<title>choice118105114116117971084799981089711545514655</title>
<g id="a_node9"><a xlink:href="../virtual/cblas-3.7.svg" xlink:title="portage://virtual/cblas&#45;3.7">
<ellipse fill="none" stroke="red" cx="900" cy="-241" rx="144" ry="18"/>
<text text-anchor="middle" x="900" y="-238" font-family="Helvetica,sans-Serif" font-size="10.00">portage://virtual/cblas&#45;3.7</text>
</a>
</g>
</g>
<!-- dependency36858&#45;&gt;choice118105114116117971084799981089711545514655 -->
<g id="edge8" class="edge">
<title>dependency36858:e&#45;&gt;choice118105114116117971084799981089711545514655:w</title>
<path fill="none" stroke="black" stroke-dasharray="1,5" d="M649,-351C713.18,-351 690.07,-252.7 744.71,-241.95"/>
<polygon fill="black" stroke="black" points="755,-241 745.46,-246.4 750.02,-241.46 745.04,-241.92 745.04,-241.92 745.04,-241.92 750.02,-241.46 744.63,-237.44 755,-241 755,-241"/>
</g>
<!-- choice118105114116117971084799981089711545514654 -->
<g id="node10" class="node">
<title>choice118105114116117971084799981089711545514654</title>
<g id="a_node10"><a xlink:href="../virtual/cblas-3.6.svg" xlink:title="portage://virtual/cblas&#45;3.6">
<ellipse fill="none" stroke="red" cx="900" cy="-187" rx="144" ry="18"/>
<text text-anchor="middle" x="900" y="-184" font-family="Helvetica,sans-Serif" font-size="10.00">portage://virtual/cblas&#45;3.6</text>
</a>
</g>
</g>
<!-- dependency36858&#45;&gt;choice118105114116117971084799981089711545514654 -->
<g id="edge9" class="edge">
<title>dependency36858:e&#45;&gt;choice118105114116117971084799981089711545514654:w</title>
<path fill="none" stroke="black" stroke-dasharray="1,5" d="M649,-351C732.06,-351 673.73,-200.79 744.64,-187.88"/>
<polygon fill="black" stroke="black" points="755,-187 745.42,-192.33 750.02,-187.42 745.04,-187.85 745.04,-187.85 745.04,-187.85 750.02,-187.42 744.65,-183.37 755,-187 755,-187"/>
</g>
<!-- choice118105114116117971084799981089711545494648 -->
<g id="node11" class="node">
<title>choice118105114116117971084799981089711545494648</title>
<g id="a_node11"><a xlink:href="../virtual/cblas-1.0.svg" xlink:title="portage://virtual/cblas&#45;1.0">
<ellipse fill="none" stroke="red" cx="900" cy="-133" rx="144" ry="18"/>
<text text-anchor="middle" x="900" y="-130" font-family="Helvetica,sans-Serif" font-size="10.00">portage://virtual/cblas&#45;1.0</text>
</a>
</g>
</g>
<!-- dependency36858&#45;&gt;choice118105114116117971084799981089711545494648 -->
<g id="edge10" class="edge">
<title>dependency36858:e&#45;&gt;choice118105114116117971084799981089711545494648:w</title>
<path fill="none" stroke="black" stroke-dasharray="1,5" d="M649,-351C753.16,-351 654.29,-147.24 744.97,-133.71"/>
<polygon fill="black" stroke="black" points="755,-133 745.34,-138.19 750.01,-133.35 745.02,-133.7 745.02,-133.7 745.02,-133.7 750.01,-133.35 744.71,-129.21 755,-133 755,-133"/>
</g>
<!-- dependency36859&#45;&gt;choice10010111845108105981154711411199114451141171101161051091014557575757 -->
<g id="edge11" class="edge">
<title>dependency36859:e&#45;&gt;choice10010111845108105981154711411199114451141171101161051091014557575757:w</title>
<path fill="none" stroke="black" stroke-dasharray="1,5" d="M649,-201C746.82,-201 660.17,-389.05 745.02,-402.27"/>
<polygon fill="black" stroke="black" points="755,-403 744.7,-406.76 750.01,-402.63 745.03,-402.27 745.03,-402.27 745.03,-402.27 750.01,-402.63 745.36,-397.78 755,-403 755,-403"/>
</g>
<!-- dependency36859&#45;&gt;choice1001011184510810598115471141119911445114117110116105109101455146484648 -->
<g id="edge12" class="edge">
<title>dependency36859:e&#45;&gt;choice1001011184510810598115471141119911445114117110116105109101455146484648:w</title>
<path fill="none" stroke="black" stroke-dasharray="1,5" d="M649,-201C726.27,-201 678.83,-336 744.9,-348.13"/>
<polygon fill="black" stroke="black" points="755,-349 744.65,-352.63 750.02,-348.57 745.04,-348.14 745.04,-348.14 745.04,-348.14 750.02,-348.57 745.42,-343.66 755,-349 755,-349"/>
</g>
<!-- dependency36860&#45;&gt;choice118105114116117971084799981089711545514656 -->
<g id="edge13" class="edge">
<title>dependency36860:e&#45;&gt;choice118105114116117971084799981089711545514656:w</title>
<path fill="none" stroke="black" stroke-dasharray="1,5" d="M649,-77C753.16,-77 654.29,-280.76 744.97,-294.29"/>
<polygon fill="black" stroke="black" points="755,-295 744.71,-298.79 750.01,-294.65 745.02,-294.3 745.02,-294.3 745.02,-294.3 750.01,-294.65 745.34,-289.81 755,-295 755,-295"/>
</g>
<!-- dependency36860&#45;&gt;choice118105114116117971084799981089711545514655 -->
<g id="edge14" class="edge">
<title>dependency36860:e&#45;&gt;choice118105114116117971084799981089711545514655:w</title>
<path fill="none" stroke="black" stroke-dasharray="1,5" d="M649,-77C732.06,-77 673.73,-227.21 744.64,-240.12"/>
<polygon fill="black" stroke="black" points="755,-241 744.65,-244.63 750.02,-240.58 745.04,-240.15 745.04,-240.15 745.04,-240.15 750.02,-240.58 745.42,-235.67 755,-241 755,-241"/>
</g>
<!-- dependency36860&#45;&gt;choice118105114116117971084799981089711545514654 -->
<g id="edge15" class="edge">
<title>dependency36860:e&#45;&gt;choice118105114116117971084799981089711545514654:w</title>
<path fill="none" stroke="black" stroke-dasharray="1,5" d="M649,-77C713.18,-77 690.07,-175.3 744.71,-186.05"/>
<polygon fill="black" stroke="black" points="755,-187 744.63,-190.56 750.02,-186.54 745.04,-186.08 745.04,-186.08 745.04,-186.08 750.02,-186.54 745.46,-181.6 755,-187 755,-187"/>
</g>
<!-- dependency36860&#45;&gt;choice118105114116117971084799981089711545494648 -->
<g id="edge16" class="edge">
<title>dependency36860:e&#45;&gt;choice118105114116117971084799981089711545494648:w</title>
<path fill="none" stroke="black" stroke-dasharray="1,5" d="M649,-77C698.64,-77 701.54,-125.61 744.79,-132.25"/>
<polygon fill="black" stroke="black" points="755,-133 744.7,-136.76 750.01,-132.63 745.03,-132.27 745.03,-132.27 745.03,-132.27 750.01,-132.63 745.36,-127.78 755,-133 755,-133"/>
</g>
</g>
</svg>
