<?xml version="1.0" encoding="UTF-8" standalone="no"?>
<!DOCTYPE svg PUBLIC "-//W3C//DTD SVG 1.1//EN"
 "http://www.w3.org/Graphics/SVG/1.1/DTD/svg11.dtd">
<!-- Generated by graphviz version 2.39.20160721.2101 (20160721.2101)
 -->
<!-- Title: prolog Pages: 1 -->
<svg width="982pt" height="1808pt"
 viewBox="0.00 0.00 982.00 1808.00" xmlns="http://www.w3.org/2000/svg" xmlns:xlink="http://www.w3.org/1999/xlink">
<g id="graph0" class="graph" transform="scale(1 1) rotate(0) translate(4 1804)">
<title>prolog</title>
<polygon fill="white" stroke="transparent" points="-4,4 -4,-1804 978,-1804 978,4 -4,4"/>
<g id="clust1" class="cluster">
<title>cluster_leftcol</title>
<polygon fill="none" stroke="gray" points="8,-1113 8,-1185 312,-1185 312,-1113 8,-1113"/>
<text text-anchor="start" x="146.663" y="-1173" font-family="Helvetica,sans-Serif" font-style="italic" font-size="10.00">ebuild</text>
</g>
<g id="clust16" class="cluster">
<title>cluster_choices</title>
<polygon fill="none" stroke="gray" points="662,-8 662,-1792 966,-1792 966,-8 662,-8"/>
<text text-anchor="start" x="789.824" y="-1780" font-family="Helvetica,sans-Serif" font-style="italic" font-size="10.00">candidates</text>
</g>
<g id="clust2" class="cluster">
<title>cluster_midcol</title>
<polygon fill="none" stroke="gray" points="396,-957 396,-1387 578,-1387 578,-957 396,-957"/>
<text text-anchor="start" x="455.875" y="-1375" font-family="Helvetica,sans-Serif" font-style="italic" font-size="10.00">dependencies</text>
</g>
<g id="clust3" class="cluster">
<title>cluster_compile</title>
<polygon fill="#eeeeee" stroke="gray" points="404,-1201 404,-1359 570,-1359 570,-1201 404,-1201"/>
<text text-anchor="start" x="469.778" y="-1347" font-family="Helvetica,sans-Serif" font-style="italic" font-size="10.00">compile</text>
</g>
<g id="clust8" class="cluster">
<title>cluster_compileandrun</title>
<polygon fill="#eeeeee" stroke="gray" points="404,-965 404,-1193 570,-1193 570,-965 404,-965"/>
<text text-anchor="start" x="451.437" y="-1181" font-family="Helvetica,sans-Serif" font-style="italic" font-size="10.00">compile and run</text>
</g>
<!-- id -->
<g id="node1" class="node">
<title>id</title>
<g id="a_node1"><a xlink:href="../sys-devel/sparse-0.5.0.svg" xlink:title="sys&#45;devel/sparse&#45;0.5.0">
<ellipse fill="none" stroke="red" cx="160" cy="-1139" rx="144" ry="18"/>
<text text-anchor="middle" x="160" y="-1136" font-family="Helvetica,sans-Serif" font-size="10.00">sys&#45;devel/sparse&#45;0.5.0</text>
</a>
</g>
</g>
<!-- dependency485688 -->
<g id="node2" class="node">
<title>dependency485688</title>
<polygon fill="none" stroke="red" points="420,-1283 420,-1327 511,-1327 511,-1283 420,-1283"/>
<text text-anchor="start" x="430.767" y="-1302" font-family="Helvetica,sans-Serif" font-size="10.00">use_conditional</text>
<polygon fill="none" stroke="red" points="511,-1305 511,-1327 554,-1327 554,-1305 511,-1305"/>
<text text-anchor="start" x="515.553" y="-1313" font-family="Helvetica,sans-Serif" font-size="10.00">positive</text>
<polygon fill="none" stroke="red" points="511,-1283 511,-1305 554,-1305 554,-1283 511,-1283"/>
<text text-anchor="start" x="525.831" y="-1291" font-family="Helvetica,sans-Serif" font-size="10.00">gtk</text>
</g>
<!-- id&#45;&gt;dependency485688 -->
<g id="edge2" class="edge">
<title>id:e&#45;&gt;dependency485688:w</title>
<path fill="none" stroke="black" d="M304,-1139C388.408,-1139 329.301,-1291.66 401.936,-1304.19"/>
<polygon fill="black" stroke="black" points="412,-1305 401.669,-1308.68 407.016,-1304.6 402.033,-1304.19 402.033,-1304.19 402.033,-1304.19 407.016,-1304.6 402.396,-1299.71 412,-1305 412,-1305"/>
</g>
<!-- dependency485690 -->
<g id="node4" class="node">
<title>dependency485690</title>
<polygon fill="none" stroke="red" points="420,-1213 420,-1257 511,-1257 511,-1213 420,-1213"/>
<text text-anchor="start" x="430.767" y="-1232" font-family="Helvetica,sans-Serif" font-size="10.00">use_conditional</text>
<polygon fill="none" stroke="red" points="511,-1235 511,-1257 554,-1257 554,-1235 511,-1235"/>
<text text-anchor="start" x="515.553" y="-1243" font-family="Helvetica,sans-Serif" font-size="10.00">positive</text>
<polygon fill="none" stroke="red" points="511,-1213 511,-1235 554,-1235 554,-1213 511,-1213"/>
<text text-anchor="start" x="524.726" y="-1221" font-family="Helvetica,sans-Serif" font-size="10.00">xml</text>
</g>
<!-- id&#45;&gt;dependency485690 -->
<g id="edge4" class="edge">
<title>id:e&#45;&gt;dependency485690:w</title>
<path fill="none" stroke="black" d="M304,-1139C364.584,-1139 349.822,-1224.43 401.871,-1234.11"/>
<polygon fill="black" stroke="black" points="412,-1235 401.645,-1238.61 407.019,-1234.56 402.038,-1234.13 402.038,-1234.13 402.038,-1234.13 407.019,-1234.56 402.432,-1229.64 412,-1235 412,-1235"/>
</g>
<!-- dependency485692 -->
<g id="node6" class="node">
<title>dependency485692</title>
<polygon fill="none" stroke="red" points="420,-1117 420,-1161 511,-1161 511,-1117 420,-1117"/>
<text text-anchor="start" x="430.767" y="-1136" font-family="Helvetica,sans-Serif" font-size="10.00">use_conditional</text>
<polygon fill="none" stroke="red" points="511,-1139 511,-1161 554,-1161 554,-1139 511,-1139"/>
<text text-anchor="start" x="515.553" y="-1147" font-family="Helvetica,sans-Serif" font-size="10.00">positive</text>
<polygon fill="none" stroke="red" points="511,-1117 511,-1139 554,-1139 554,-1117 511,-1117"/>
<text text-anchor="start" x="525.831" y="-1125" font-family="Helvetica,sans-Serif" font-size="10.00">gtk</text>
</g>
<!-- id&#45;&gt;dependency485692 -->
<g id="edge6" class="edge">
<title>id:e&#45;&gt;dependency485692:w</title>
<path fill="none" stroke="black" d="M304,-1139C345.25,-1139 359.913,-1139 393.686,-1139"/>
<ellipse fill="none" stroke="black" cx="408" cy="-1139" rx="4" ry="4"/>
<polygon fill="black" stroke="black" points="404,-1139 394,-1143.5 399,-1139 394,-1139 394,-1139 394,-1139 399,-1139 394,-1134.5 404,-1139 404,-1139"/>
</g>
<!-- dependency485694 -->
<g id="node8" class="node">
<title>dependency485694</title>
<polygon fill="none" stroke="red" points="420,-1047 420,-1091 511,-1091 511,-1047 420,-1047"/>
<text text-anchor="start" x="430.767" y="-1066" font-family="Helvetica,sans-Serif" font-size="10.00">use_conditional</text>
<polygon fill="none" stroke="red" points="511,-1069 511,-1091 554,-1091 554,-1069 511,-1069"/>
<text text-anchor="start" x="515.553" y="-1077" font-family="Helvetica,sans-Serif" font-size="10.00">positive</text>
<polygon fill="none" stroke="red" points="511,-1047 511,-1069 554,-1069 554,-1047 511,-1047"/>
<text text-anchor="start" x="523.616" y="-1055" font-family="Helvetica,sans-Serif" font-size="10.00">llvm</text>
</g>
<!-- id&#45;&gt;dependency485694 -->
<g id="edge8" class="edge">
<title>id:e&#45;&gt;dependency485694:w</title>
<path fill="none" stroke="black" d="M304,-1139C354.386,-1139 355.422,-1084.69 394.049,-1071.74"/>
<ellipse fill="none" stroke="black" cx="408.046" cy="-1069.6" rx="4" ry="4"/>
<polygon fill="black" stroke="black" points="404.092,-1070.21 394.887,-1076.17 399.149,-1070.96 394.207,-1071.72 394.207,-1071.72 394.207,-1071.72 399.149,-1070.96 393.527,-1067.27 404.092,-1070.21 404.092,-1070.21"/>
</g>
<!-- dependency485696 -->
<g id="node10" class="node">
<title>dependency485696</title>
<polygon fill="none" stroke="red" points="420,-977 420,-1021 511,-1021 511,-977 420,-977"/>
<text text-anchor="start" x="430.767" y="-996" font-family="Helvetica,sans-Serif" font-size="10.00">use_conditional</text>
<polygon fill="none" stroke="red" points="511,-999 511,-1021 554,-1021 554,-999 511,-999"/>
<text text-anchor="start" x="515.553" y="-1007" font-family="Helvetica,sans-Serif" font-size="10.00">positive</text>
<polygon fill="none" stroke="red" points="511,-977 511,-999 554,-999 554,-977 511,-977"/>
<text text-anchor="start" x="524.726" y="-985" font-family="Helvetica,sans-Serif" font-size="10.00">xml</text>
</g>
<!-- id&#45;&gt;dependency485696 -->
<g id="edge10" class="edge">
<title>id:e&#45;&gt;dependency485696:w</title>
<path fill="none" stroke="black" d="M304,-1139C375.678,-1139 341.071,-1022.53 394.066,-1002.05"/>
<ellipse fill="none" stroke="black" cx="408.057" cy="-999.672" rx="4" ry="4"/>
<polygon fill="black" stroke="black" points="404.114,-1000.34 395.011,-1006.46 399.185,-1001.18 394.256,-1002.02 394.256,-1002.02 394.256,-1002.02 399.185,-1001.18 393.5,-997.586 404.114,-1000.34 404.114,-1000.34"/>
</g>
<!-- dependency485689 -->
<g id="node3" class="node">
<title>dependency485689</title>
<polygon fill="none" stroke="blue" points="704,-1608 704,-1706 809,-1706 809,-1608 704,-1608"/>
<text text-anchor="start" x="734.823" y="-1654" font-family="Helvetica,sans-Serif" font-size="10.00">pack_dep</text>
<polygon fill="none" stroke="blue" points="809,-1684 809,-1706 919,-1706 919,-1684 809,-1684"/>
<text text-anchor="start" x="858.441" y="-1692" font-family="Helvetica,sans-Serif" font-size="10.00">no</text>
<polygon fill="none" stroke="blue" points="809,-1662 809,-1684 919,-1684 919,-1662 809,-1662"/>
<text text-anchor="start" x="850.668" y="-1670" font-family="Helvetica,sans-Serif" font-size="10.00">virtual</text>
<polygon fill="none" stroke="blue" points="809,-1640 809,-1662 919,-1662 919,-1640 809,-1640"/>
<text text-anchor="start" x="842.604" y="-1648" font-family="Helvetica,sans-Serif" font-size="10.00">pkgconfig</text>
<polygon fill="none" stroke="blue" points="809,-1618 809,-1640 919,-1640 919,-1618 809,-1618"/>
<text text-anchor="start" x="852.882" y="-1626" font-family="Helvetica,sans-Serif" font-size="10.00">none</text>
<polygon fill="none" stroke="blue" points="809,-1608 809,-1618 919,-1618 919,-1608 809,-1608"/>
</g>
<!-- dependency485688&#45;&gt;dependency485689 -->
<g id="edge1" class="edge">
<title>dependency485688:e&#45;&gt;dependency485689:w</title>
<path fill="none" stroke="black" stroke-dasharray="5,2" d="M562,-1305C725.801,-1305 537.061,-1642.04 685.713,-1656.52"/>
<polygon fill="black" stroke="black" points="696,-1657 685.801,-1661.03 691.005,-1656.77 686.011,-1656.53 686.011,-1656.53 686.011,-1656.53 691.005,-1656.77 686.221,-1652.04 696,-1657 696,-1657"/>
</g>
<!-- choice11810511411611797108471121071039911111010210510345484511449 -->
<g id="node12" class="node">
<title>choice11810511411611797108471121071039911111010210510345484511449</title>
<g id="a_node12"><a xlink:href="../virtual/pkgconfig-0-r1.svg" xlink:title="virtual/pkgconfig&#45;0&#45;r1">
<ellipse fill="none" stroke="red" cx="814" cy="-1746" rx="144" ry="18"/>
<text text-anchor="middle" x="814" y="-1743" font-family="Helvetica,sans-Serif" font-size="10.00">virtual/pkgconfig&#45;0&#45;r1</text>
</a>
</g>
</g>
<!-- dependency485689&#45;&gt;choice11810511411611797108471121071039911111010210510345484511449 -->
<g id="edge11" class="edge">
<title>dependency485689:e&#45;&gt;choice11810511411611797108471121071039911111010210510345484511449:w</title>
<path fill="none" stroke="black" stroke-dasharray="1,5" d="M665.302,-1737.01C666.046,-1733.79 667.782,-1730.38 670,-1728 709.827,-1685.34 892.173,-1752.66 932,-1710 948.075,-1692.78 955.556,-1657 932,-1657"/>
<polygon fill="black" stroke="black" points="670,-1746 661.38,-1739.22 667.684,-1741.57 665.368,-1737.14 665.368,-1737.14 665.368,-1737.14 667.684,-1741.57 669.357,-1735.05 670,-1746 670,-1746"/>
</g>
<!-- dependency485691 -->
<g id="node5" class="node">
<title>dependency485691</title>
<polygon fill="none" stroke="blue" points="704,-1484 704,-1582 809,-1582 809,-1484 704,-1484"/>
<text text-anchor="start" x="734.823" y="-1530" font-family="Helvetica,sans-Serif" font-size="10.00">pack_dep</text>
<polygon fill="none" stroke="blue" points="809,-1560 809,-1582 919,-1582 919,-1560 809,-1560"/>
<text text-anchor="start" x="858.441" y="-1568" font-family="Helvetica,sans-Serif" font-size="10.00">no</text>
<polygon fill="none" stroke="blue" points="809,-1538 809,-1560 919,-1560 919,-1538 809,-1538"/>
<text text-anchor="start" x="850.668" y="-1546" font-family="Helvetica,sans-Serif" font-size="10.00">virtual</text>
<polygon fill="none" stroke="blue" points="809,-1516 809,-1538 919,-1538 919,-1516 809,-1516"/>
<text text-anchor="start" x="842.604" y="-1524" font-family="Helvetica,sans-Serif" font-size="10.00">pkgconfig</text>
<polygon fill="none" stroke="blue" points="809,-1494 809,-1516 919,-1516 919,-1494 809,-1494"/>
<text text-anchor="start" x="852.882" y="-1502" font-family="Helvetica,sans-Serif" font-size="10.00">none</text>
<polygon fill="none" stroke="blue" points="809,-1484 809,-1494 919,-1494 919,-1484 809,-1484"/>
</g>
<!-- dependency485690&#45;&gt;dependency485691 -->
<g id="edge3" class="edge">
<title>dependency485690:e&#45;&gt;dependency485691:w</title>
<path fill="none" stroke="black" stroke-dasharray="5,2" d="M562,-1235C703.673,-1235 558.24,-1518.63 685.895,-1532.48"/>
<polygon fill="black" stroke="black" points="696,-1533 685.78,-1536.98 691.007,-1532.74 686.013,-1532.48 686.013,-1532.48 686.013,-1532.48 691.007,-1532.74 686.247,-1527.99 696,-1533 696,-1533"/>
</g>
<!-- dependency485691&#45;&gt;choice11810511411611797108471121071039911111010210510345484511449 -->
<g id="edge12" class="edge">
<title>dependency485691:e&#45;&gt;choice11810511411611797108471121071039911111010210510345484511449:w</title>
<path fill="none" stroke="black" stroke-dasharray="1,5" d="M932,-1533C955.556,-1533 948.376,-1569.07 932,-1586 907.859,-1610.96 641.83,-1577 620,-1604 580.154,-1653.29 600.625,-1736.62 659.767,-1745.27"/>
<polygon fill="black" stroke="black" points="670,-1746 659.704,-1749.78 665.013,-1745.64 660.025,-1745.29 660.025,-1745.29 660.025,-1745.29 665.013,-1745.64 660.347,-1740.8 670,-1746 670,-1746"/>
</g>
<!-- dependency485693 -->
<g id="node7" class="node">
<title>dependency485693</title>
<polygon fill="none" stroke="blue" points="704,-1090 704,-1188 809,-1188 809,-1090 704,-1090"/>
<text text-anchor="start" x="734.823" y="-1136" font-family="Helvetica,sans-Serif" font-size="10.00">pack_dep</text>
<polygon fill="none" stroke="blue" points="809,-1166 809,-1188 919,-1188 919,-1166 809,-1166"/>
<text text-anchor="start" x="858.441" y="-1174" font-family="Helvetica,sans-Serif" font-size="10.00">no</text>
<polygon fill="none" stroke="blue" points="809,-1144 809,-1166 919,-1166 919,-1144 809,-1144"/>
<text text-anchor="start" x="846.778" y="-1152" font-family="Helvetica,sans-Serif" font-size="10.00">x11&#45;libs</text>
<polygon fill="none" stroke="blue" points="809,-1122 809,-1144 919,-1144 919,-1122 809,-1122"/>
<text text-anchor="start" x="854.412" y="-1130" font-family="Helvetica,sans-Serif" font-size="10.00">gtk+</text>
<polygon fill="none" stroke="blue" points="809,-1100 809,-1122 919,-1122 919,-1100 809,-1100"/>
<text text-anchor="start" x="852.882" y="-1108" font-family="Helvetica,sans-Serif" font-size="10.00">none</text>
<polygon fill="none" stroke="blue" points="809,-1090 809,-1100 919,-1100 919,-1090 809,-1090"/>
</g>
<!-- dependency485692&#45;&gt;dependency485693 -->
<g id="edge5" class="edge">
<title>dependency485692:e&#45;&gt;dependency485693:w</title>
<path fill="none" stroke="black" stroke-dasharray="5,2" d="M562,-1139C618.066,-1139 634.546,-1139 685.973,-1139"/>
<polygon fill="black" stroke="black" points="696,-1139 686,-1143.5 691,-1139 686,-1139 686,-1139 686,-1139 691,-1139 686,-1134.5 696,-1139 696,-1139"/>
</g>
<!-- choice12049494510810598115471031161074345504650524651494511449 -->
<g id="node13" class="node">
<title>choice12049494510810598115471031161074345504650524651494511449</title>
<g id="a_node13"><a xlink:href="../x11-libs/gtk+-2.24.31-r1.svg" xlink:title="x11&#45;libs/gtk+&#45;2.24.31&#45;r1">
<ellipse fill="none" stroke="red" cx="814" cy="-1444" rx="144" ry="18"/>
<text text-anchor="middle" x="814" y="-1441" font-family="Helvetica,sans-Serif" font-size="10.00">x11&#45;libs/gtk+&#45;2.24.31&#45;r1</text>
</a>
</g>
</g>
<!-- dependency485693&#45;&gt;choice12049494510810598115471031161074345504650524651494511449 -->
<g id="edge13" class="edge">
<title>dependency485693:e&#45;&gt;choice12049494510810598115471031161074345504650524651494511449:w</title>
<path fill="none" stroke="black" stroke-dasharray="1,5" d="M932,-1139C955.556,-1139 948.376,-1175.07 932,-1192 907.859,-1216.96 641.83,-1183 620,-1210 555.362,-1289.96 563.04,-1434.03 659.723,-1443.51"/>
<polygon fill="black" stroke="black" points="670,-1444 659.796,-1448.02 665.006,-1443.76 660.011,-1443.52 660.011,-1443.52 660.011,-1443.52 665.006,-1443.76 660.227,-1439.03 670,-1444 670,-1444"/>
</g>
<!-- choice1204949451081059811547103116107434551465050464953 -->
<g id="node14" class="node">
<title>choice1204949451081059811547103116107434551465050464953</title>
<g id="a_node14"><a xlink:href="../x11-libs/gtk+-3.22.15.svg" xlink:title="x11&#45;libs/gtk+&#45;3.22.15">
<ellipse fill="none" stroke="red" cx="814" cy="-1390" rx="144" ry="18"/>
<text text-anchor="middle" x="814" y="-1387" font-family="Helvetica,sans-Serif" font-size="10.00">x11&#45;libs/gtk+&#45;3.22.15</text>
</a>
</g>
</g>
<!-- dependency485693&#45;&gt;choice1204949451081059811547103116107434551465050464953 -->
<g id="edge14" class="edge">
<title>dependency485693:e&#45;&gt;choice1204949451081059811547103116107434551465050464953:w</title>
<path fill="none" stroke="black" stroke-dasharray="1,5" d="M932,-1139C955.556,-1139 948.376,-1175.07 932,-1192 907.859,-1216.96 641.83,-1183 620,-1210 570.044,-1271.79 585.455,-1380.17 659.651,-1389.37"/>
<polygon fill="black" stroke="black" points="670,-1390 659.746,-1393.89 665.009,-1389.7 660.018,-1389.4 660.018,-1389.4 660.018,-1389.4 665.009,-1389.7 660.29,-1384.9 670,-1390 670,-1390"/>
</g>
<!-- choice1204949451081059811547103116107434551465050464954 -->
<g id="node15" class="node">
<title>choice1204949451081059811547103116107434551465050464954</title>
<g id="a_node15"><a xlink:href="../x11-libs/gtk+-3.22.16.svg" xlink:title="x11&#45;libs/gtk+&#45;3.22.16">
<ellipse fill="none" stroke="red" cx="814" cy="-1336" rx="144" ry="18"/>
<text text-anchor="middle" x="814" y="-1333" font-family="Helvetica,sans-Serif" font-size="10.00">x11&#45;libs/gtk+&#45;3.22.16</text>
</a>
</g>
</g>
<!-- dependency485693&#45;&gt;choice1204949451081059811547103116107434551465050464954 -->
<g id="edge15" class="edge">
<title>dependency485693:e&#45;&gt;choice1204949451081059811547103116107434551465050464954:w</title>
<path fill="none" stroke="black" stroke-dasharray="1,5" d="M932,-1139C955.556,-1139 948.376,-1175.07 932,-1192 907.859,-1216.96 641.83,-1183 620,-1210 584.343,-1254.11 606.739,-1326.84 659.752,-1335.21"/>
<polygon fill="black" stroke="black" points="670,-1336 659.683,-1339.72 665.015,-1335.61 660.03,-1335.23 660.03,-1335.23 660.03,-1335.23 665.015,-1335.61 660.377,-1330.74 670,-1336 670,-1336"/>
</g>
<!-- choice1204949451081059811547103116107434551465050464955 -->
<g id="node16" class="node">
<title>choice1204949451081059811547103116107434551465050464955</title>
<g id="a_node16"><a xlink:href="../x11-libs/gtk+-3.22.17.svg" xlink:title="x11&#45;libs/gtk+&#45;3.22.17">
<ellipse fill="none" stroke="red" cx="814" cy="-1282" rx="144" ry="18"/>
<text text-anchor="middle" x="814" y="-1279" font-family="Helvetica,sans-Serif" font-size="10.00">x11&#45;libs/gtk+&#45;3.22.17</text>
</a>
</g>
</g>
<!-- dependency485693&#45;&gt;choice1204949451081059811547103116107434551465050464955 -->
<g id="edge16" class="edge">
<title>dependency485693:e&#45;&gt;choice1204949451081059811547103116107434551465050464955:w</title>
<path fill="none" stroke="black" stroke-dasharray="1,5" d="M932,-1139C955.556,-1139 948.376,-1175.07 932,-1192 907.859,-1216.96 641.83,-1183 620,-1210 597.708,-1237.58 625.14,-1274.6 659.623,-1281.03"/>
<polygon fill="black" stroke="black" points="670,-1282 659.624,-1285.55 665.022,-1281.53 660.044,-1281.07 660.044,-1281.07 660.044,-1281.07 665.022,-1281.53 660.463,-1276.59 670,-1282 670,-1282"/>
</g>
<!-- choice1204949451081059811547103116107434551465050464957 -->
<g id="node17" class="node">
<title>choice1204949451081059811547103116107434551465050464957</title>
<g id="a_node17"><a xlink:href="../x11-libs/gtk+-3.22.19.svg" xlink:title="x11&#45;libs/gtk+&#45;3.22.19">
<ellipse fill="none" stroke="red" cx="814" cy="-1228" rx="144" ry="18"/>
<text text-anchor="middle" x="814" y="-1225" font-family="Helvetica,sans-Serif" font-size="10.00">x11&#45;libs/gtk+&#45;3.22.19</text>
</a>
</g>
</g>
<!-- dependency485693&#45;&gt;choice1204949451081059811547103116107434551465050464957 -->
<g id="edge17" class="edge">
<title>dependency485693:e&#45;&gt;choice1204949451081059811547103116107434551465050464957:w</title>
<path fill="none" stroke="black" stroke-dasharray="1,5" d="M665.302,-1219.01C666.046,-1215.79 667.782,-1212.38 670,-1210 709.827,-1167.34 892.173,-1234.66 932,-1192 948.075,-1174.78 955.556,-1139 932,-1139"/>
<polygon fill="black" stroke="black" points="670,-1228 661.38,-1221.22 667.684,-1223.57 665.368,-1219.14 665.368,-1219.14 665.368,-1219.14 667.684,-1223.57 669.357,-1217.05 670,-1228 670,-1228"/>
</g>
<!-- dependency485695 -->
<g id="node9" class="node">
<title>dependency485695</title>
<polygon fill="none" stroke="blue" points="704,-414 704,-524 809,-524 809,-414 704,-414"/>
<text text-anchor="start" x="734.823" y="-466" font-family="Helvetica,sans-Serif" font-size="10.00">pack_dep</text>
<polygon fill="none" stroke="blue" points="809,-502 809,-524 919,-524 919,-502 809,-502"/>
<text text-anchor="start" x="858.441" y="-510" font-family="Helvetica,sans-Serif" font-size="10.00">no</text>
<polygon fill="none" stroke="blue" points="809,-480 809,-502 919,-502 919,-480 809,-480"/>
<text text-anchor="start" x="842.888" y="-488" font-family="Helvetica,sans-Serif" font-size="10.00">sys&#45;devel</text>
<polygon fill="none" stroke="blue" points="809,-458 809,-480 919,-480 919,-458 809,-458"/>
<text text-anchor="start" x="855.116" y="-466" font-family="Helvetica,sans-Serif" font-size="10.00">llvm</text>
<polygon fill="none" stroke="blue" points="809,-436 809,-458 919,-458 919,-436 809,-436"/>
<text text-anchor="start" x="835.936" y="-444" font-family="Helvetica,sans-Serif" font-size="10.00">greaterequal</text>
<polygon fill="none" stroke="blue" points="809,-414 809,-436 919,-436 919,-414 809,-414"/>
<text text-anchor="start" x="857.052" y="-422" font-family="Helvetica,sans-Serif" font-size="10.00">3.0</text>
</g>
<!-- dependency485694&#45;&gt;dependency485695 -->
<g id="edge7" class="edge">
<title>dependency485694:e&#45;&gt;dependency485695:w</title>
<path fill="none" stroke="black" stroke-dasharray="5,2" d="M562,-1069C831.767,-1069 433.126,-484.138 685.922,-469.288"/>
<polygon fill="black" stroke="black" points="696,-469 686.133,-473.784 691.002,-469.143 686.004,-469.285 686.004,-469.285 686.004,-469.285 691.002,-469.143 685.876,-464.787 696,-469 696,-469"/>
</g>
<!-- choice115121115451001011181011084710810811810945514652465045114494848 -->
<g id="node18" class="node">
<title>choice115121115451001011181011084710810811810945514652465045114494848</title>
<g id="a_node18"><a xlink:href="../sys-devel/llvm-3.4.2-r100.svg" xlink:title="sys&#45;devel/llvm&#45;3.4.2&#45;r100">
<ellipse fill="none" stroke="red" cx="814" cy="-1050" rx="144" ry="18"/>
<text text-anchor="middle" x="814" y="-1047" font-family="Helvetica,sans-Serif" font-size="10.00">sys&#45;devel/llvm&#45;3.4.2&#45;r100</text>
</a>
</g>
</g>
<!-- dependency485695&#45;&gt;choice115121115451001011181011084710810811810945514652465045114494848 -->
<g id="edge18" class="edge">
<title>dependency485695:e&#45;&gt;choice115121115451001011181011084710810811810945514652465045114494848:w</title>
<path fill="none" stroke="black" stroke-dasharray="1,5" d="M932,-469C958.222,-469 950.23,-509.152 932,-528 907.859,-552.959 641.83,-518.996 620,-546 587.309,-586.439 596.293,-967.718 620,-1014 630.826,-1035.13 639.884,-1046.69 659.957,-1049.38"/>
<polygon fill="black" stroke="black" points="670,-1050 659.742,-1053.88 665.009,-1049.69 660.019,-1049.39 660.019,-1049.39 660.019,-1049.39 665.009,-1049.69 660.295,-1044.89 670,-1050 670,-1050"/>
</g>
<!-- choice115121115451001011181011084710810811810945514653465045114494848 -->
<g id="node19" class="node">
<title>choice115121115451001011181011084710810811810945514653465045114494848</title>
<g id="a_node19"><a xlink:href="../sys-devel/llvm-3.5.2-r100.svg" xlink:title="sys&#45;devel/llvm&#45;3.5.2&#45;r100">
<ellipse fill="none" stroke="red" cx="814" cy="-996" rx="144" ry="18"/>
<text text-anchor="middle" x="814" y="-993" font-family="Helvetica,sans-Serif" font-size="10.00">sys&#45;devel/llvm&#45;3.5.2&#45;r100</text>
</a>
</g>
</g>
<!-- dependency485695&#45;&gt;choice115121115451001011181011084710810811810945514653465045114494848 -->
<g id="edge19" class="edge">
<title>dependency485695:e&#45;&gt;choice115121115451001011181011084710810811810945514653465045114494848:w</title>
<path fill="none" stroke="black" stroke-dasharray="1,5" d="M932,-469C958.222,-469 950.23,-509.152 932,-528 907.859,-552.959 641.83,-518.996 620,-546 562.162,-617.545 578.057,-878.117 620,-960 630.826,-981.135 639.884,-992.686 659.957,-995.382"/>
<polygon fill="black" stroke="black" points="670,-996 659.742,-999.877 665.009,-995.693 660.019,-995.386 660.019,-995.386 660.019,-995.386 665.009,-995.693 660.295,-990.894 670,-996 670,-996"/>
</g>
<!-- choice115121115451001011181011084710810811810945514654465045114494848 -->
<g id="node20" class="node">
<title>choice115121115451001011181011084710810811810945514654465045114494848</title>
<g id="a_node20"><a xlink:href="../sys-devel/llvm-3.6.2-r100.svg" xlink:title="sys&#45;devel/llvm&#45;3.6.2&#45;r100">
<ellipse fill="none" stroke="red" cx="814" cy="-942" rx="144" ry="18"/>
<text text-anchor="middle" x="814" y="-939" font-family="Helvetica,sans-Serif" font-size="10.00">sys&#45;devel/llvm&#45;3.6.2&#45;r100</text>
</a>
</g>
</g>
<!-- dependency485695&#45;&gt;choice115121115451001011181011084710810811810945514654465045114494848 -->
<g id="edge20" class="edge">
<title>dependency485695:e&#45;&gt;choice115121115451001011181011084710810811810945514654465045114494848:w</title>
<path fill="none" stroke="black" stroke-dasharray="1,5" d="M932,-469C958.222,-469 950.23,-509.152 932,-528 907.859,-552.959 641.83,-518.996 620,-546 569.706,-608.213 583.528,-834.798 620,-906 630.826,-927.135 639.884,-938.686 659.957,-941.382"/>
<polygon fill="black" stroke="black" points="670,-942 659.742,-945.877 665.009,-941.693 660.019,-941.386 660.019,-941.386 660.019,-941.386 665.009,-941.693 660.295,-936.894 670,-942 670,-942"/>
</g>
<!-- choice11512111545100101118101108471081081181094551465546494511451 -->
<g id="node21" class="node">
<title>choice11512111545100101118101108471081081181094551465546494511451</title>
<g id="a_node21"><a xlink:href="../sys-devel/llvm-3.7.1-r3.svg" xlink:title="sys&#45;devel/llvm&#45;3.7.1&#45;r3">
<ellipse fill="none" stroke="red" cx="814" cy="-888" rx="144" ry="18"/>
<text text-anchor="middle" x="814" y="-885" font-family="Helvetica,sans-Serif" font-size="10.00">sys&#45;devel/llvm&#45;3.7.1&#45;r3</text>
</a>
</g>
</g>
<!-- dependency485695&#45;&gt;choice11512111545100101118101108471081081181094551465546494511451 -->
<g id="edge21" class="edge">
<title>dependency485695:e&#45;&gt;choice11512111545100101118101108471081081181094551465546494511451:w</title>
<path fill="none" stroke="black" stroke-dasharray="1,5" d="M932,-469C958.222,-469 950.23,-509.152 932,-528 907.859,-552.959 641.83,-518.996 620,-546 577.25,-598.881 588.999,-791.478 620,-852 630.826,-873.135 639.884,-884.686 659.957,-887.382"/>
<polygon fill="black" stroke="black" points="670,-888 659.742,-891.877 665.009,-887.693 660.019,-887.386 660.019,-887.386 660.019,-887.386 665.009,-887.693 660.295,-882.894 670,-888 670,-888"/>
</g>
<!-- choice11512111545100101118101108471081081181094551465646494511450 -->
<g id="node22" class="node">
<title>choice11512111545100101118101108471081081181094551465646494511450</title>
<g id="a_node22"><a xlink:href="../sys-devel/llvm-3.8.1-r2.svg" xlink:title="sys&#45;devel/llvm&#45;3.8.1&#45;r2">
<ellipse fill="none" stroke="red" cx="814" cy="-834" rx="144" ry="18"/>
<text text-anchor="middle" x="814" y="-831" font-family="Helvetica,sans-Serif" font-size="10.00">sys&#45;devel/llvm&#45;3.8.1&#45;r2</text>
</a>
</g>
</g>
<!-- dependency485695&#45;&gt;choice11512111545100101118101108471081081181094551465646494511450 -->
<g id="edge22" class="edge">
<title>dependency485695:e&#45;&gt;choice11512111545100101118101108471081081181094551465646494511450:w</title>
<path fill="none" stroke="black" stroke-dasharray="1,5" d="M932,-469C958.222,-469 950.23,-509.152 932,-528 907.859,-552.959 641.83,-518.996 620,-546 584.794,-589.549 594.469,-748.158 620,-798 630.826,-819.135 639.884,-830.686 659.957,-833.382"/>
<polygon fill="black" stroke="black" points="670,-834 659.742,-837.877 665.009,-833.693 660.019,-833.386 660.019,-833.386 660.019,-833.386 665.009,-833.693 660.295,-828.894 670,-834 670,-834"/>
</g>
<!-- choice11512111545100101118101108471081081181094551465746494511449 -->
<g id="node23" class="node">
<title>choice11512111545100101118101108471081081181094551465746494511449</title>
<g id="a_node23"><a xlink:href="../sys-devel/llvm-3.9.1-r1.svg" xlink:title="sys&#45;devel/llvm&#45;3.9.1&#45;r1">
<ellipse fill="none" stroke="red" cx="814" cy="-780" rx="144" ry="18"/>
<text text-anchor="middle" x="814" y="-777" font-family="Helvetica,sans-Serif" font-size="10.00">sys&#45;devel/llvm&#45;3.9.1&#45;r1</text>
</a>
</g>
</g>
<!-- dependency485695&#45;&gt;choice11512111545100101118101108471081081181094551465746494511449 -->
<g id="edge23" class="edge">
<title>dependency485695:e&#45;&gt;choice11512111545100101118101108471081081181094551465746494511449:w</title>
<path fill="none" stroke="black" stroke-dasharray="1,5" d="M932,-469C958.222,-469 950.23,-509.152 932,-528 907.859,-552.959 641.83,-518.996 620,-546 555.362,-625.957 563.04,-770.029 659.723,-779.508"/>
<polygon fill="black" stroke="black" points="670,-780 659.796,-784.016 665.006,-779.761 660.011,-779.521 660.011,-779.521 660.011,-779.521 665.006,-779.761 660.227,-775.027 670,-780 670,-780"/>
</g>
<!-- choice1151211154510010111810110847108108118109455246484649 -->
<g id="node24" class="node">
<title>choice1151211154510010111810110847108108118109455246484649</title>
<g id="a_node24"><a xlink:href="../sys-devel/llvm-4.0.1.svg" xlink:title="sys&#45;devel/llvm&#45;4.0.1">
<ellipse fill="none" stroke="red" cx="814" cy="-726" rx="144" ry="18"/>
<text text-anchor="middle" x="814" y="-723" font-family="Helvetica,sans-Serif" font-size="10.00">sys&#45;devel/llvm&#45;4.0.1</text>
</a>
</g>
</g>
<!-- dependency485695&#45;&gt;choice1151211154510010111810110847108108118109455246484649 -->
<g id="edge24" class="edge">
<title>dependency485695:e&#45;&gt;choice1151211154510010111810110847108108118109455246484649:w</title>
<path fill="none" stroke="black" stroke-dasharray="1,5" d="M932,-469C958.222,-469 950.23,-509.152 932,-528 907.859,-552.959 641.83,-518.996 620,-546 570.044,-607.794 585.455,-716.174 659.651,-725.374"/>
<polygon fill="black" stroke="black" points="670,-726 659.746,-729.888 665.009,-725.698 660.018,-725.396 660.018,-725.396 660.018,-725.396 665.009,-725.698 660.29,-720.904 670,-726 670,-726"/>
</g>
<!-- choice1151211154510010111810110847108108118109455346484648 -->
<g id="node25" class="node">
<title>choice1151211154510010111810110847108108118109455346484648</title>
<g id="a_node25"><a xlink:href="../sys-devel/llvm-5.0.0.svg" xlink:title="sys&#45;devel/llvm&#45;5.0.0">
<ellipse fill="none" stroke="red" cx="814" cy="-672" rx="144" ry="18"/>
<text text-anchor="middle" x="814" y="-669" font-family="Helvetica,sans-Serif" font-size="10.00">sys&#45;devel/llvm&#45;5.0.0</text>
</a>
</g>
</g>
<!-- dependency485695&#45;&gt;choice1151211154510010111810110847108108118109455346484648 -->
<g id="edge25" class="edge">
<title>dependency485695:e&#45;&gt;choice1151211154510010111810110847108108118109455346484648:w</title>
<path fill="none" stroke="black" stroke-dasharray="1,5" d="M932,-469C958.222,-469 950.23,-509.152 932,-528 907.859,-552.959 641.83,-518.996 620,-546 584.343,-590.108 606.739,-662.836 659.752,-671.207"/>
<polygon fill="black" stroke="black" points="670,-672 659.683,-675.715 665.015,-671.614 660.03,-671.229 660.03,-671.229 660.03,-671.229 665.015,-671.614 660.377,-666.742 670,-672 670,-672"/>
</g>
<!-- choice1151211154510010111810110847108108118109455346484657575757 -->
<g id="node26" class="node">
<title>choice1151211154510010111810110847108108118109455346484657575757</title>
<g id="a_node26"><a xlink:href="../sys-devel/llvm-5.0.9999.svg" xlink:title="sys&#45;devel/llvm&#45;5.0.9999">
<ellipse fill="none" stroke="red" cx="814" cy="-618" rx="144" ry="18"/>
<text text-anchor="middle" x="814" y="-615" font-family="Helvetica,sans-Serif" font-size="10.00">sys&#45;devel/llvm&#45;5.0.9999</text>
</a>
</g>
</g>
<!-- dependency485695&#45;&gt;choice1151211154510010111810110847108108118109455346484657575757 -->
<g id="edge26" class="edge">
<title>dependency485695:e&#45;&gt;choice1151211154510010111810110847108108118109455346484657575757:w</title>
<path fill="none" stroke="black" stroke-dasharray="1,5" d="M932,-469C958.222,-469 950.23,-509.152 932,-528 907.859,-552.959 641.83,-518.996 620,-546 597.708,-573.575 625.14,-610.599 659.623,-617.029"/>
<polygon fill="black" stroke="black" points="670,-618 659.624,-621.548 665.022,-617.534 660.044,-617.068 660.044,-617.068 660.044,-617.068 665.022,-617.534 660.463,-612.587 670,-618 670,-618"/>
</g>
<!-- choice11512111545100101118101108471081081181094557575757 -->
<g id="node27" class="node">
<title>choice11512111545100101118101108471081081181094557575757</title>
<g id="a_node27"><a xlink:href="../sys-devel/llvm-9999.svg" xlink:title="sys&#45;devel/llvm&#45;9999">
<ellipse fill="none" stroke="red" cx="814" cy="-564" rx="144" ry="18"/>
<text text-anchor="middle" x="814" y="-561" font-family="Helvetica,sans-Serif" font-size="10.00">sys&#45;devel/llvm&#45;9999</text>
</a>
</g>
</g>
<!-- dependency485695&#45;&gt;choice11512111545100101118101108471081081181094557575757 -->
<g id="edge27" class="edge">
<title>dependency485695:e&#45;&gt;choice11512111545100101118101108471081081181094557575757:w</title>
<path fill="none" stroke="black" stroke-dasharray="1,5" d="M665.302,-555.011C666.046,-551.792 667.782,-548.376 670,-546 709.827,-503.343 892.173,-570.657 932,-528 949.895,-508.833 958.222,-469 932,-469"/>
<polygon fill="black" stroke="black" points="670,-564 661.38,-557.221 667.684,-559.569 665.368,-555.137 665.368,-555.137 665.368,-555.137 667.684,-559.569 669.357,-553.053 670,-564 670,-564"/>
</g>
<!-- dependency485697 -->
<g id="node11" class="node">
<title>dependency485697</title>
<polygon fill="none" stroke="blue" points="704,-20 704,-118 809,-118 809,-20 704,-20"/>
<text text-anchor="start" x="734.823" y="-66" font-family="Helvetica,sans-Serif" font-size="10.00">pack_dep</text>
<polygon fill="none" stroke="blue" points="809,-96 809,-118 919,-118 919,-96 809,-96"/>
<text text-anchor="start" x="858.441" y="-104" font-family="Helvetica,sans-Serif" font-size="10.00">no</text>
<polygon fill="none" stroke="blue" points="809,-74 809,-96 919,-96 919,-74 809,-74"/>
<text text-anchor="start" x="846.778" y="-82" font-family="Helvetica,sans-Serif" font-size="10.00">dev&#45;libs</text>
<polygon fill="none" stroke="blue" points="809,-52 809,-74 919,-74 919,-52 809,-52"/>
<text text-anchor="start" x="848.448" y="-60" font-family="Helvetica,sans-Serif" font-size="10.00">libxml2</text>
<polygon fill="none" stroke="blue" points="809,-30 809,-52 919,-52 919,-30 809,-30"/>
<text text-anchor="start" x="852.882" y="-38" font-family="Helvetica,sans-Serif" font-size="10.00">none</text>
<polygon fill="none" stroke="blue" points="809,-20 809,-30 919,-30 919,-20 809,-20"/>
</g>
<!-- dependency485696&#45;&gt;dependency485697 -->
<g id="edge9" class="edge">
<title>dependency485696:e&#45;&gt;dependency485697:w</title>
<path fill="none" stroke="black" stroke-dasharray="5,2" d="M562,-999C767.335,-999 496.48,-99.6226 686.003,-69.7604"/>
<polygon fill="black" stroke="black" points="696,-69 686.37,-74.2456 691.014,-69.3793 686.029,-69.7586 686.029,-69.7586 686.029,-69.7586 691.014,-69.3793 685.687,-65.2716 696,-69 696,-69"/>
</g>
<!-- choice10010111845108105981154710810598120109108504550465746524511449 -->
<g id="node28" class="node">
<title>choice10010111845108105981154710810598120109108504550465746524511449</title>
<g id="a_node28"><a xlink:href="../dev-libs/libxml2-2.9.4-r1.svg" xlink:title="dev&#45;libs/libxml2&#45;2.9.4&#45;r1">
<ellipse fill="none" stroke="red" cx="814" cy="-374" rx="144" ry="18"/>
<text text-anchor="middle" x="814" y="-371" font-family="Helvetica,sans-Serif" font-size="10.00">dev&#45;libs/libxml2&#45;2.9.4&#45;r1</text>
</a>
</g>
</g>
<!-- dependency485697&#45;&gt;choice10010111845108105981154710810598120109108504550465746524511449 -->
<g id="edge28" class="edge">
<title>dependency485697:e&#45;&gt;choice10010111845108105981154710810598120109108504550465746524511449:w</title>
<path fill="none" stroke="black" stroke-dasharray="1,5" d="M932,-69C955.556,-69 948.376,-105.069 932,-122 907.859,-146.959 641.83,-112.996 620,-140 555.362,-219.957 563.04,-364.029 659.723,-373.508"/>
<polygon fill="black" stroke="black" points="670,-374 659.796,-378.016 665.006,-373.761 660.011,-373.521 660.011,-373.521 660.011,-373.521 665.006,-373.761 660.227,-369.027 670,-374 670,-374"/>
</g>
<!-- choice10010111845108105981154710810598120109108504550465746524511450 -->
<g id="node29" class="node">
<title>choice10010111845108105981154710810598120109108504550465746524511450</title>
<g id="a_node29"><a xlink:href="../dev-libs/libxml2-2.9.4-r2.svg" xlink:title="dev&#45;libs/libxml2&#45;2.9.4&#45;r2">
<ellipse fill="none" stroke="red" cx="814" cy="-320" rx="144" ry="18"/>
<text text-anchor="middle" x="814" y="-317" font-family="Helvetica,sans-Serif" font-size="10.00">dev&#45;libs/libxml2&#45;2.9.4&#45;r2</text>
</a>
</g>
</g>
<!-- dependency485697&#45;&gt;choice10010111845108105981154710810598120109108504550465746524511450 -->
<g id="edge29" class="edge">
<title>dependency485697:e&#45;&gt;choice10010111845108105981154710810598120109108504550465746524511450:w</title>
<path fill="none" stroke="black" stroke-dasharray="1,5" d="M932,-69C955.556,-69 948.376,-105.069 932,-122 907.859,-146.959 641.83,-112.996 620,-140 570.044,-201.794 585.455,-310.174 659.651,-319.374"/>
<polygon fill="black" stroke="black" points="670,-320 659.746,-323.888 665.009,-319.698 660.018,-319.396 660.018,-319.396 660.018,-319.396 665.009,-319.698 660.29,-314.904 670,-320 670,-320"/>
</g>
<!-- choice10010111845108105981154710810598120109108504550465746524511451 -->
<g id="node30" class="node">
<title>choice10010111845108105981154710810598120109108504550465746524511451</title>
<g id="a_node30"><a xlink:href="../dev-libs/libxml2-2.9.4-r3.svg" xlink:title="dev&#45;libs/libxml2&#45;2.9.4&#45;r3">
<ellipse fill="none" stroke="red" cx="814" cy="-266" rx="144" ry="18"/>
<text text-anchor="middle" x="814" y="-263" font-family="Helvetica,sans-Serif" font-size="10.00">dev&#45;libs/libxml2&#45;2.9.4&#45;r3</text>
</a>
</g>
</g>
<!-- dependency485697&#45;&gt;choice10010111845108105981154710810598120109108504550465746524511451 -->
<g id="edge30" class="edge">
<title>dependency485697:e&#45;&gt;choice10010111845108105981154710810598120109108504550465746524511451:w</title>
<path fill="none" stroke="black" stroke-dasharray="1,5" d="M932,-69C955.556,-69 948.376,-105.069 932,-122 907.859,-146.959 641.83,-112.996 620,-140 584.343,-184.108 606.739,-256.836 659.752,-265.207"/>
<polygon fill="black" stroke="black" points="670,-266 659.683,-269.715 665.015,-265.614 660.03,-265.229 660.03,-265.229 660.03,-265.229 665.015,-265.614 660.377,-260.742 670,-266 670,-266"/>
</g>
<!-- choice1001011184510810598115471081059812010910850455046574653 -->
<g id="node31" class="node">
<title>choice1001011184510810598115471081059812010910850455046574653</title>
<g id="a_node31"><a xlink:href="../dev-libs/libxml2-2.9.5.svg" xlink:title="dev&#45;libs/libxml2&#45;2.9.5">
<ellipse fill="none" stroke="red" cx="814" cy="-212" rx="144" ry="18"/>
<text text-anchor="middle" x="814" y="-209" font-family="Helvetica,sans-Serif" font-size="10.00">dev&#45;libs/libxml2&#45;2.9.5</text>
</a>
</g>
</g>
<!-- dependency485697&#45;&gt;choice1001011184510810598115471081059812010910850455046574653 -->
<g id="edge31" class="edge">
<title>dependency485697:e&#45;&gt;choice1001011184510810598115471081059812010910850455046574653:w</title>
<path fill="none" stroke="black" stroke-dasharray="1,5" d="M932,-69C955.556,-69 948.376,-105.069 932,-122 907.859,-146.959 641.83,-112.996 620,-140 597.708,-167.575 625.14,-204.599 659.623,-211.029"/>
<polygon fill="black" stroke="black" points="670,-212 659.624,-215.548 665.022,-211.534 660.044,-211.068 660.044,-211.068 660.044,-211.068 665.022,-211.534 660.463,-206.587 670,-212 670,-212"/>
</g>
<!-- choice1001011184510810598115471081059812010910850455046574654 -->
<g id="node32" class="node">
<title>choice1001011184510810598115471081059812010910850455046574654</title>
<g id="a_node32"><a xlink:href="../dev-libs/libxml2-2.9.6.svg" xlink:title="dev&#45;libs/libxml2&#45;2.9.6">
<ellipse fill="none" stroke="red" cx="814" cy="-158" rx="144" ry="18"/>
<text text-anchor="middle" x="814" y="-155" font-family="Helvetica,sans-Serif" font-size="10.00">dev&#45;libs/libxml2&#45;2.9.6</text>
</a>
</g>
</g>
<!-- dependency485697&#45;&gt;choice1001011184510810598115471081059812010910850455046574654 -->
<g id="edge32" class="edge">
<title>dependency485697:e&#45;&gt;choice1001011184510810598115471081059812010910850455046574654:w</title>
<path fill="none" stroke="black" stroke-dasharray="1,5" d="M665.302,-149.011C666.046,-145.792 667.782,-142.376 670,-140 709.827,-97.3428 892.173,-164.657 932,-122 948.075,-104.782 955.556,-69 932,-69"/>
<polygon fill="black" stroke="black" points="670,-158 661.38,-151.221 667.684,-153.569 665.368,-149.137 665.368,-149.137 665.368,-149.137 667.684,-153.569 669.357,-147.053 670,-158 670,-158"/>
</g>
</g>
</svg>
