<?xml version="1.0" encoding="UTF-8" standalone="no"?>
<!DOCTYPE svg PUBLIC "-//W3C//DTD SVG 1.1//EN"
 "http://www.w3.org/Graphics/SVG/1.1/DTD/svg11.dtd">
<!-- Generated by graphviz version 2.39.20160721.2101 (20160721.2101)
 -->
<!-- Title: prolog Pages: 1 -->
<svg width="1276pt" height="798pt"
 viewBox="0.00 0.00 1276.00 798.00" xmlns="http://www.w3.org/2000/svg" xmlns:xlink="http://www.w3.org/1999/xlink">
<g id="graph0" class="graph" transform="scale(1 1) rotate(0) translate(4 794)">
<title>prolog</title>
<polygon fill="white" stroke="transparent" points="-4,4 -4,-794 1272,-794 1272,4 -4,4"/>
<g id="clust1" class="cluster">
<title>cluster_leftcol</title>
<polygon fill="none" stroke="gray" points="8,-359 8,-431 312,-431 312,-359 8,-359"/>
<text text-anchor="start" x="146.663" y="-419" font-family="Helvetica,sans-Serif" font-style="italic" font-size="10.00">ebuild</text>
</g>
<g id="clust2" class="cluster">
<title>cluster_midcol</title>
<polygon fill="none" stroke="gray" points="396,-45 396,-753 872,-753 872,-45 396,-45"/>
<text text-anchor="start" x="602.875" y="-741" font-family="Helvetica,sans-Serif" font-style="italic" font-size="10.00">dependencies</text>
</g>
<g id="clust5" class="cluster">
<title>cluster_run</title>
<polygon fill="#eeeeee" stroke="gray" points="404,-53 404,-725 864,-725 864,-53 404,-53"/>
<text text-anchor="start" x="626.777" y="-713" font-family="Helvetica,sans-Serif" font-style="italic" font-size="10.00">run</text>
</g>
<g id="clust11" class="cluster">
<title>cluster_choices</title>
<polygon fill="none" stroke="gray" points="956,-8 956,-782 1260,-782 1260,-8 956,-8"/>
<text text-anchor="start" x="1083.82" y="-770" font-family="Helvetica,sans-Serif" font-style="italic" font-size="10.00">candidates</text>
</g>
<!-- id -->
<g id="node1" class="node">
<title>id</title>
<g id="a_node1"><a xlink:href="../app-text/build-docbook-catalog-1.20.svg" xlink:title="app&#45;text/build&#45;docbook&#45;catalog&#45;1.20">
<ellipse fill="none" stroke="red" cx="160" cy="-385" rx="144" ry="18"/>
<text text-anchor="middle" x="160" y="-382" font-family="Helvetica,sans-Serif" font-size="10.00">app&#45;text/build&#45;docbook&#45;catalog&#45;1.20</text>
</a>
</g>
</g>
<!-- dependency55836 -->
<g id="node2" class="node">
<title>dependency55836</title>
<polygon fill="none" stroke="red" points="420.5,-503 420.5,-537 503.5,-537 503.5,-503 420.5,-503"/>
<text text-anchor="start" x="431.43" y="-517" font-family="Helvetica,sans-Serif" font-size="10.00">any_of_group</text>
</g>
<!-- id&#45;&gt;dependency55836 -->
<g id="edge3" class="edge">
<title>id:e&#45;&gt;dependency55836:w</title>
<path fill="none" stroke="black" d="M304,-385C377.853,-385 338.039,-510.166 403.455,-519.456"/>
<ellipse fill="none" stroke="black" cx="407.509" cy="-519.73" rx="4" ry="4"/>
</g>
<!-- dependency55839 -->
<g id="node5" class="node">
<title>dependency55839</title>
<polygon fill="none" stroke="blue" points="627.5,-201 627.5,-299 732.5,-299 732.5,-201 627.5,-201"/>
<text text-anchor="start" x="658.323" y="-247" font-family="Helvetica,sans-Serif" font-size="10.00">pack_dep</text>
<polygon fill="none" stroke="blue" points="732.5,-277 732.5,-299 842.5,-299 842.5,-277 732.5,-277"/>
<text text-anchor="start" x="781.941" y="-285" font-family="Helvetica,sans-Serif" font-size="10.00">no</text>
<polygon fill="none" stroke="blue" points="732.5,-255 732.5,-277 842.5,-277 842.5,-255 732.5,-255"/>
<text text-anchor="start" x="770.278" y="-263" font-family="Helvetica,sans-Serif" font-size="10.00">dev&#45;libs</text>
<polygon fill="none" stroke="blue" points="732.5,-233 732.5,-255 842.5,-255 842.5,-233 732.5,-233"/>
<text text-anchor="start" x="771.948" y="-241" font-family="Helvetica,sans-Serif" font-size="10.00">libxml2</text>
<polygon fill="none" stroke="blue" points="732.5,-211 732.5,-233 842.5,-233 842.5,-211 732.5,-211"/>
<text text-anchor="start" x="776.382" y="-219" font-family="Helvetica,sans-Serif" font-size="10.00">none</text>
<polygon fill="none" stroke="blue" points="732.5,-201 732.5,-211 842.5,-211 842.5,-201 732.5,-201"/>
</g>
<!-- id&#45;&gt;dependency55839 -->
<g id="edge4" class="edge">
<title>id:e&#45;&gt;dependency55839:w</title>
<path fill="none" stroke="black" d="M461.5,-250C525.422,-228.38 547.548,-248.311 611.489,-249.901"/>
<ellipse fill="none" stroke="black" cx="615.5" cy="-249.951" rx="4" ry="4"/>
</g>
<!-- dependency55840 -->
<g id="node6" class="node">
<title>dependency55840</title>
<polygon fill="none" stroke="blue" points="627.5,-65 627.5,-175 732.5,-175 732.5,-65 627.5,-65"/>
<text text-anchor="start" x="658.323" y="-117" font-family="Helvetica,sans-Serif" font-size="10.00">pack_dep</text>
<polygon fill="none" stroke="blue" points="732.5,-153 732.5,-175 848.5,-175 848.5,-153 732.5,-153"/>
<text text-anchor="start" x="778.832" y="-161" font-family="Helvetica,sans-Serif" font-size="10.00">weak</text>
<polygon fill="none" stroke="blue" points="732.5,-131 732.5,-153 848.5,-153 848.5,-131 732.5,-131"/>
<text text-anchor="start" x="772.438" y="-139" font-family="Helvetica,sans-Serif" font-size="10.00">app&#45;text</text>
<polygon fill="none" stroke="blue" points="732.5,-109 732.5,-131 848.5,-131 848.5,-109 732.5,-109"/>
<text text-anchor="start" x="737.158" y="-117" font-family="Helvetica,sans-Serif" font-size="10.00">docbook&#45;xsl&#45;stylesheets</text>
<polygon fill="none" stroke="blue" points="732.5,-87 732.5,-109 848.5,-109 848.5,-87 732.5,-87"/>
<text text-anchor="start" x="774.393" y="-95" font-family="Helvetica,sans-Serif" font-size="10.00">smaller</text>
<polygon fill="none" stroke="blue" points="732.5,-65 732.5,-87 848.5,-87 848.5,-65 732.5,-65"/>
<text text-anchor="start" x="776.603" y="-73" font-family="Helvetica,sans-Serif" font-size="10.00">1.73.1</text>
</g>
<!-- id&#45;&gt;dependency55840 -->
<g id="edge5" class="edge">
<title>id:e&#45;&gt;dependency55840:w</title>
<path fill="none" stroke="black" d="M461.5,-250C544.793,-221.829 529.335,-126.237 610.807,-120.29"/>
<ellipse fill="none" stroke="black" cx="615.003" cy="-120.142" rx="4" ry="4"/>
<path fill="none" stroke="black" d="M304,-385C396.195,-385 374.165,-279.539 461.5,-250"/>
</g>
<!-- dependency55837 -->
<g id="node3" class="node">
<title>dependency55837</title>
<polygon fill="none" stroke="blue" points="627.5,-471 627.5,-569 732.5,-569 732.5,-471 627.5,-471"/>
<text text-anchor="start" x="658.323" y="-517" font-family="Helvetica,sans-Serif" font-size="10.00">pack_dep</text>
<polygon fill="none" stroke="blue" points="732.5,-547 732.5,-569 842.5,-569 842.5,-547 732.5,-547"/>
<text text-anchor="start" x="781.941" y="-555" font-family="Helvetica,sans-Serif" font-size="10.00">no</text>
<polygon fill="none" stroke="blue" points="732.5,-525 732.5,-547 842.5,-547 842.5,-525 732.5,-525"/>
<text text-anchor="start" x="767.497" y="-533" font-family="Helvetica,sans-Serif" font-size="10.00">sys&#45;apps</text>
<polygon fill="none" stroke="blue" points="732.5,-503 732.5,-525 842.5,-525 842.5,-503 732.5,-503"/>
<text text-anchor="start" x="769.169" y="-511" font-family="Helvetica,sans-Serif" font-size="10.00">util&#45;linux</text>
<polygon fill="none" stroke="blue" points="732.5,-481 732.5,-503 842.5,-503 842.5,-481 732.5,-481"/>
<text text-anchor="start" x="776.382" y="-489" font-family="Helvetica,sans-Serif" font-size="10.00">none</text>
<polygon fill="none" stroke="blue" points="732.5,-471 732.5,-481 842.5,-481 842.5,-471 732.5,-471"/>
</g>
<!-- dependency55836&#45;&gt;dependency55837 -->
<g id="edge1" class="edge">
<title>dependency55836:e&#45;&gt;dependency55837:w</title>
<path fill="none" stroke="black" stroke-dasharray="1,5" d="M511,-520C555.643,-520 569.289,-520 609.331,-520"/>
<polygon fill="none" stroke="black" points="619.5,-523.5 609.5,-520 619.5,-516.5 619.5,-523.5"/>
</g>
<!-- dependency55838 -->
<g id="node4" class="node">
<title>dependency55838</title>
<polygon fill="none" stroke="blue" points="627.5,-595 627.5,-693 732.5,-693 732.5,-595 627.5,-595"/>
<text text-anchor="start" x="658.323" y="-641" font-family="Helvetica,sans-Serif" font-size="10.00">pack_dep</text>
<polygon fill="none" stroke="blue" points="732.5,-671 732.5,-693 842.5,-693 842.5,-671 732.5,-671"/>
<text text-anchor="start" x="781.941" y="-679" font-family="Helvetica,sans-Serif" font-size="10.00">no</text>
<polygon fill="none" stroke="blue" points="732.5,-649 732.5,-671 842.5,-671 842.5,-649 732.5,-649"/>
<text text-anchor="start" x="767.223" y="-657" font-family="Helvetica,sans-Serif" font-size="10.00">app&#45;misc</text>
<polygon fill="none" stroke="blue" points="732.5,-627 732.5,-649 842.5,-649 842.5,-627 732.5,-627"/>
<text text-anchor="start" x="773.603" y="-635" font-family="Helvetica,sans-Serif" font-size="10.00">getopt</text>
<polygon fill="none" stroke="blue" points="732.5,-605 732.5,-627 842.5,-627 842.5,-605 732.5,-605"/>
<text text-anchor="start" x="776.382" y="-613" font-family="Helvetica,sans-Serif" font-size="10.00">none</text>
<polygon fill="none" stroke="blue" points="732.5,-595 732.5,-605 842.5,-605 842.5,-595 732.5,-595"/>
</g>
<!-- dependency55836&#45;&gt;dependency55838 -->
<g id="edge2" class="edge">
<title>dependency55836:e&#45;&gt;dependency55838:w</title>
<path fill="none" stroke="black" stroke-dasharray="1,5" d="M511,-520C580.511,-520 549.839,-631.726 609.175,-643.073"/>
<polygon fill="none" stroke="black" points="619.187,-647.486 609.54,-643.106 619.813,-640.514 619.187,-647.486"/>
</g>
<!-- choice1151211154597112112115471171161051084510810511011712045504650564650 -->
<g id="node7" class="node">
<title>choice1151211154597112112115471171161051084510810511011712045504650564650</title>
<g id="a_node7"><a xlink:href="../sys-apps/util-linux-2.28.2.svg" xlink:title="sys&#45;apps/util&#45;linux&#45;2.28.2">
<ellipse fill="none" stroke="red" cx="1108" cy="-628" rx="144" ry="18"/>
<text text-anchor="middle" x="1108" y="-625" font-family="Helvetica,sans-Serif" font-size="10.00">sys&#45;apps/util&#45;linux&#45;2.28.2</text>
</a>
</g>
</g>
<!-- dependency55837&#45;&gt;choice1151211154597112112115471171161051084510810511011712045504650564650 -->
<g id="edge6" class="edge">
<title>dependency55837:e&#45;&gt;choice1151211154597112112115471171161051084510810511011712045504650564650:w</title>
<path fill="none" stroke="black" stroke-dasharray="1,5" d="M855.5,-520C919.952,-520 898.603,-616.91 954.006,-627.131"/>
<polygon fill="black" stroke="black" points="964,-628 953.648,-631.616 959.019,-627.567 954.038,-627.133 954.038,-627.133 954.038,-627.133 959.019,-627.567 954.428,-622.65 964,-628 964,-628"/>
</g>
<!-- choice11512111545971121121154711711610510845108105110117120455046505746504511449 -->
<g id="node8" class="node">
<title>choice11512111545971121121154711711610510845108105110117120455046505746504511449</title>
<g id="a_node8"><a xlink:href="../sys-apps/util-linux-2.29.2-r1.svg" xlink:title="sys&#45;apps/util&#45;linux&#45;2.29.2&#45;r1">
<ellipse fill="none" stroke="red" cx="1108" cy="-574" rx="144" ry="18"/>
<text text-anchor="middle" x="1108" y="-571" font-family="Helvetica,sans-Serif" font-size="10.00">sys&#45;apps/util&#45;linux&#45;2.29.2&#45;r1</text>
</a>
</g>
</g>
<!-- dependency55837&#45;&gt;choice11512111545971121121154711711610510845108105110117120455046505746504511449 -->
<g id="edge7" class="edge">
<title>dependency55837:e&#45;&gt;choice11512111545971121121154711711610510845108105110117120455046505746504511449:w</title>
<path fill="none" stroke="black" stroke-dasharray="1,5" d="M855.5,-520C905.788,-520 909.799,-567.066 953.94,-573.317"/>
<polygon fill="black" stroke="black" points="964,-574 953.718,-577.812 959.011,-573.661 954.023,-573.323 954.023,-573.323 954.023,-573.323 959.011,-573.661 954.328,-568.833 964,-574 964,-574"/>
</g>
<!-- choice1151211154597112112115471171161051084510810511011712045504651484649 -->
<g id="node9" class="node">
<title>choice1151211154597112112115471171161051084510810511011712045504651484649</title>
<g id="a_node9"><a xlink:href="../sys-apps/util-linux-2.30.1.svg" xlink:title="sys&#45;apps/util&#45;linux&#45;2.30.1">
<ellipse fill="none" stroke="red" cx="1108" cy="-520" rx="144" ry="18"/>
<text text-anchor="middle" x="1108" y="-517" font-family="Helvetica,sans-Serif" font-size="10.00">sys&#45;apps/util&#45;linux&#45;2.30.1</text>
</a>
</g>
</g>
<!-- dependency55837&#45;&gt;choice1151211154597112112115471171161051084510810511011712045504651484649 -->
<g id="edge8" class="edge">
<title>dependency55837:e&#45;&gt;choice1151211154597112112115471171161051084510810511011712045504651484649:w</title>
<path fill="none" stroke="black" stroke-dasharray="1,5" d="M855.5,-520C900.143,-520 913.789,-520 953.831,-520"/>
<polygon fill="black" stroke="black" points="964,-520 954,-524.5 959,-520 954,-520 954,-520 954,-520 959,-520 954,-515.5 964,-520 964,-520"/>
</g>
<!-- choice1151211154597112112115471171161051084510810511011712045504651484650 -->
<g id="node10" class="node">
<title>choice1151211154597112112115471171161051084510810511011712045504651484650</title>
<g id="a_node10"><a xlink:href="../sys-apps/util-linux-2.30.2.svg" xlink:title="sys&#45;apps/util&#45;linux&#45;2.30.2">
<ellipse fill="none" stroke="red" cx="1108" cy="-466" rx="144" ry="18"/>
<text text-anchor="middle" x="1108" y="-463" font-family="Helvetica,sans-Serif" font-size="10.00">sys&#45;apps/util&#45;linux&#45;2.30.2</text>
</a>
</g>
</g>
<!-- dependency55837&#45;&gt;choice1151211154597112112115471171161051084510810511011712045504651484650 -->
<g id="edge9" class="edge">
<title>dependency55837:e&#45;&gt;choice1151211154597112112115471171161051084510810511011712045504651484650:w</title>
<path fill="none" stroke="black" stroke-dasharray="1,5" d="M855.5,-520C905.788,-520 909.799,-472.934 953.94,-466.683"/>
<polygon fill="black" stroke="black" points="964,-466 954.328,-471.167 959.011,-466.339 954.023,-466.677 954.023,-466.677 954.023,-466.677 959.011,-466.339 953.718,-462.188 964,-466 964,-466"/>
</g>
<!-- choice115121115459711211211547117116105108451081051101171204550465149 -->
<g id="node11" class="node">
<title>choice115121115459711211211547117116105108451081051101171204550465149</title>
<g id="a_node11"><a xlink:href="../sys-apps/util-linux-2.31.svg" xlink:title="sys&#45;apps/util&#45;linux&#45;2.31">
<ellipse fill="none" stroke="red" cx="1108" cy="-412" rx="144" ry="18"/>
<text text-anchor="middle" x="1108" y="-409" font-family="Helvetica,sans-Serif" font-size="10.00">sys&#45;apps/util&#45;linux&#45;2.31</text>
</a>
</g>
</g>
<!-- dependency55837&#45;&gt;choice115121115459711211211547117116105108451081051101171204550465149 -->
<g id="edge10" class="edge">
<title>dependency55837:e&#45;&gt;choice115121115459711211211547117116105108451081051101171204550465149:w</title>
<path fill="none" stroke="black" stroke-dasharray="1,5" d="M855.5,-520C919.952,-520 898.603,-423.09 954.006,-412.869"/>
<polygon fill="black" stroke="black" points="964,-412 954.428,-417.35 959.019,-412.433 954.038,-412.867 954.038,-412.867 954.038,-412.867 959.019,-412.433 953.648,-408.384 964,-412 964,-412"/>
</g>
<!-- choice115121115459711211211547117116105108451081051101171204557575757 -->
<g id="node12" class="node">
<title>choice115121115459711211211547117116105108451081051101171204557575757</title>
<g id="a_node12"><a xlink:href="../sys-apps/util-linux-9999.svg" xlink:title="sys&#45;apps/util&#45;linux&#45;9999">
<ellipse fill="none" stroke="red" cx="1108" cy="-682" rx="144" ry="18"/>
<text text-anchor="middle" x="1108" y="-679" font-family="Helvetica,sans-Serif" font-size="10.00">sys&#45;apps/util&#45;linux&#45;9999</text>
</a>
</g>
</g>
<!-- dependency55837&#45;&gt;choice115121115459711211211547117116105108451081051101171204557575757 -->
<g id="edge11" class="edge">
<title>dependency55837:e&#45;&gt;choice115121115459711211211547117116105108451081051101171204557575757:w</title>
<path fill="none" stroke="black" stroke-dasharray="1,5" d="M855.5,-520C938.433,-520 882.634,-668.377 953.644,-681.128"/>
<polygon fill="black" stroke="black" points="964,-682 953.658,-685.645 959.018,-681.581 954.035,-681.161 954.035,-681.161 954.035,-681.161 959.018,-681.581 954.413,-676.677 964,-682 964,-682"/>
</g>
<!-- choice97112112451091051159947103101116111112116454946494654 -->
<g id="node13" class="node">
<title>choice97112112451091051159947103101116111112116454946494654</title>
<g id="a_node13"><a xlink:href="../app-misc/getopt-1.1.6.svg" xlink:title="app&#45;misc/getopt&#45;1.1.6">
<ellipse fill="none" stroke="red" cx="1108" cy="-736" rx="144" ry="18"/>
<text text-anchor="middle" x="1108" y="-733" font-family="Helvetica,sans-Serif" font-size="10.00">app&#45;misc/getopt&#45;1.1.6</text>
</a>
</g>
</g>
<!-- dependency55838&#45;&gt;choice97112112451091051159947103101116111112116454946494654 -->
<g id="edge12" class="edge">
<title>dependency55838:e&#45;&gt;choice97112112451091051159947103101116111112116454946494654:w</title>
<path fill="none" stroke="black" stroke-dasharray="1,5" d="M855.5,-644C915.143,-644 902.549,-725.873 954.009,-735.148"/>
<polygon fill="black" stroke="black" points="964,-736 953.654,-739.634 959.018,-735.575 954.036,-735.15 954.036,-735.15 954.036,-735.15 959.018,-735.575 954.419,-730.667 964,-736 964,-736"/>
</g>
<!-- choice10010111845108105981154710810598120109108504550465746524511449 -->
<g id="node14" class="node">
<title>choice10010111845108105981154710810598120109108504550465746524511449</title>
<g id="a_node14"><a xlink:href="../dev-libs/libxml2-2.9.4-r1.svg" xlink:title="dev&#45;libs/libxml2&#45;2.9.4&#45;r1">
<ellipse fill="none" stroke="red" cx="1108" cy="-142" rx="144" ry="18"/>
<text text-anchor="middle" x="1108" y="-139" font-family="Helvetica,sans-Serif" font-size="10.00">dev&#45;libs/libxml2&#45;2.9.4&#45;r1</text>
</a>
</g>
</g>
<!-- dependency55839&#45;&gt;choice10010111845108105981154710810598120109108504550465746524511449 -->
<g id="edge13" class="edge">
<title>dependency55839:e&#45;&gt;choice10010111845108105981154710810598120109108504550465746524511449:w</title>
<path fill="none" stroke="black" stroke-dasharray="1,5" d="M855.5,-250C919.952,-250 898.603,-153.09 954.006,-142.869"/>
<polygon fill="black" stroke="black" points="964,-142 954.428,-147.35 959.019,-142.433 954.038,-142.867 954.038,-142.867 954.038,-142.867 959.019,-142.433 953.648,-138.384 964,-142 964,-142"/>
</g>
<!-- choice10010111845108105981154710810598120109108504550465746524511450 -->
<g id="node15" class="node">
<title>choice10010111845108105981154710810598120109108504550465746524511450</title>
<g id="a_node15"><a xlink:href="../dev-libs/libxml2-2.9.4-r2.svg" xlink:title="dev&#45;libs/libxml2&#45;2.9.4&#45;r2">
<ellipse fill="none" stroke="red" cx="1108" cy="-358" rx="144" ry="18"/>
<text text-anchor="middle" x="1108" y="-355" font-family="Helvetica,sans-Serif" font-size="10.00">dev&#45;libs/libxml2&#45;2.9.4&#45;r2</text>
</a>
</g>
</g>
<!-- dependency55839&#45;&gt;choice10010111845108105981154710810598120109108504550465746524511450 -->
<g id="edge14" class="edge">
<title>dependency55839:e&#45;&gt;choice10010111845108105981154710810598120109108504550465746524511450:w</title>
<path fill="none" stroke="black" stroke-dasharray="1,5" d="M855.5,-250C919.952,-250 898.603,-346.91 954.006,-357.131"/>
<polygon fill="black" stroke="black" points="964,-358 953.648,-361.616 959.019,-357.567 954.038,-357.133 954.038,-357.133 954.038,-357.133 959.019,-357.567 954.428,-352.65 964,-358 964,-358"/>
</g>
<!-- choice10010111845108105981154710810598120109108504550465746524511451 -->
<g id="node16" class="node">
<title>choice10010111845108105981154710810598120109108504550465746524511451</title>
<g id="a_node16"><a xlink:href="../dev-libs/libxml2-2.9.4-r3.svg" xlink:title="dev&#45;libs/libxml2&#45;2.9.4&#45;r3">
<ellipse fill="none" stroke="red" cx="1108" cy="-304" rx="144" ry="18"/>
<text text-anchor="middle" x="1108" y="-301" font-family="Helvetica,sans-Serif" font-size="10.00">dev&#45;libs/libxml2&#45;2.9.4&#45;r3</text>
</a>
</g>
</g>
<!-- dependency55839&#45;&gt;choice10010111845108105981154710810598120109108504550465746524511451 -->
<g id="edge15" class="edge">
<title>dependency55839:e&#45;&gt;choice10010111845108105981154710810598120109108504550465746524511451:w</title>
<path fill="none" stroke="black" stroke-dasharray="1,5" d="M855.5,-250C905.788,-250 909.799,-297.066 953.94,-303.317"/>
<polygon fill="black" stroke="black" points="964,-304 953.718,-307.812 959.011,-303.661 954.023,-303.323 954.023,-303.323 954.023,-303.323 959.011,-303.661 954.328,-298.833 964,-304 964,-304"/>
</g>
<!-- choice1001011184510810598115471081059812010910850455046574653 -->
<g id="node17" class="node">
<title>choice1001011184510810598115471081059812010910850455046574653</title>
<g id="a_node17"><a xlink:href="../dev-libs/libxml2-2.9.5.svg" xlink:title="dev&#45;libs/libxml2&#45;2.9.5">
<ellipse fill="none" stroke="red" cx="1108" cy="-250" rx="144" ry="18"/>
<text text-anchor="middle" x="1108" y="-247" font-family="Helvetica,sans-Serif" font-size="10.00">dev&#45;libs/libxml2&#45;2.9.5</text>
</a>
</g>
</g>
<!-- dependency55839&#45;&gt;choice1001011184510810598115471081059812010910850455046574653 -->
<g id="edge16" class="edge">
<title>dependency55839:e&#45;&gt;choice1001011184510810598115471081059812010910850455046574653:w</title>
<path fill="none" stroke="black" stroke-dasharray="1,5" d="M855.5,-250C900.143,-250 913.789,-250 953.831,-250"/>
<polygon fill="black" stroke="black" points="964,-250 954,-254.5 959,-250 954,-250 954,-250 954,-250 959,-250 954,-245.5 964,-250 964,-250"/>
</g>
<!-- choice1001011184510810598115471081059812010910850455046574654 -->
<g id="node18" class="node">
<title>choice1001011184510810598115471081059812010910850455046574654</title>
<g id="a_node18"><a xlink:href="../dev-libs/libxml2-2.9.6.svg" xlink:title="dev&#45;libs/libxml2&#45;2.9.6">
<ellipse fill="none" stroke="red" cx="1108" cy="-196" rx="144" ry="18"/>
<text text-anchor="middle" x="1108" y="-193" font-family="Helvetica,sans-Serif" font-size="10.00">dev&#45;libs/libxml2&#45;2.9.6</text>
</a>
</g>
</g>
<!-- dependency55839&#45;&gt;choice1001011184510810598115471081059812010910850455046574654 -->
<g id="edge17" class="edge">
<title>dependency55839:e&#45;&gt;choice1001011184510810598115471081059812010910850455046574654:w</title>
<path fill="none" stroke="black" stroke-dasharray="1,5" d="M855.5,-250C905.788,-250 909.799,-202.934 953.94,-196.683"/>
<polygon fill="black" stroke="black" points="964,-196 954.328,-201.167 959.011,-196.339 954.023,-196.677 954.023,-196.677 954.023,-196.677 959.011,-196.339 953.718,-192.188 964,-196 964,-196"/>
</g>
<!-- choice97112112451161011201164710011199981111111074512011510845115116121108101115104101101116115454946555746494511449 -->
<g id="node19" class="node">
<title>choice97112112451161011201164710011199981111111074512011510845115116121108101115104101101116115454946555746494511449</title>
<g id="a_node19"><a xlink:href="../app-text/docbook-xsl-stylesheets-1.79.1-r1.svg" xlink:title="app&#45;text/docbook&#45;xsl&#45;stylesheets&#45;1.79.1&#45;r1">
<ellipse fill="none" stroke="red" cx="1108" cy="-88" rx="144" ry="18"/>
<text text-anchor="middle" x="1108" y="-85" font-family="Helvetica,sans-Serif" font-size="10.00">app&#45;text/docbook&#45;xsl&#45;stylesheets&#45;1.79.1&#45;r1</text>
</a>
</g>
</g>
<!-- dependency55840&#45;&gt;choice97112112451161011201164710011199981111111074512011510845115116121108101115104101101116115454946555746494511449 -->
<g id="edge18" class="edge">
<title>dependency55840:e&#45;&gt;choice97112112451161011201164710011199981111111074512011510845115116121108101115104101101116115454946555746494511449:w</title>
<path fill="none" stroke="black" stroke-dasharray="1,5" d="M856.5,-120C902.747,-120 912.803,-92.4579 953.82,-88.4772"/>
<polygon fill="black" stroke="black" points="964,-88 954.222,-92.9634 959.005,-88.2342 954.011,-88.4683 954.011,-88.4683 954.011,-88.4683 959.005,-88.2342 953.8,-83.9733 964,-88 964,-88"/>
</g>
<!-- choice97112112451161011201164710011199981111111074512011510845115116121108101115104101101116115454946555746494511450 -->
<g id="node20" class="node">
<title>choice97112112451161011201164710011199981111111074512011510845115116121108101115104101101116115454946555746494511450</title>
<g id="a_node20"><a xlink:href="../app-text/docbook-xsl-stylesheets-1.79.1-r2.svg" xlink:title="app&#45;text/docbook&#45;xsl&#45;stylesheets&#45;1.79.1&#45;r2">
<ellipse fill="none" stroke="red" cx="1108" cy="-34" rx="144" ry="18"/>
<text text-anchor="middle" x="1108" y="-31" font-family="Helvetica,sans-Serif" font-size="10.00">app&#45;text/docbook&#45;xsl&#45;stylesheets&#45;1.79.1&#45;r2</text>
</a>
</g>
</g>
<!-- dependency55840&#45;&gt;choice97112112451161011201164710011199981111111074512011510845115116121108101115104101101116115454946555746494511450 -->
<g id="edge19" class="edge">
<title>dependency55840:e&#45;&gt;choice97112112451161011201164710011199981111111074512011510845115116121108101115104101101116115454946555746494511450:w</title>
<path fill="none" stroke="black" stroke-dasharray="1,5" d="M856.5,-120C914.1,-120 904.296,-43.7829 953.998,-34.8512"/>
<polygon fill="black" stroke="black" points="964,-34 954.418,-39.3318 959.018,-34.424 954.036,-34.848 954.036,-34.848 954.036,-34.848 959.018,-34.424 953.654,-30.3642 964,-34 964,-34"/>
</g>
</g>
</svg>
