<?xml version="1.0" encoding="UTF-8" standalone="no"?>
<!DOCTYPE svg PUBLIC "-//W3C//DTD SVG 1.1//EN"
 "http://www.w3.org/Graphics/SVG/1.1/DTD/svg11.dtd">
<!-- Generated by graphviz version 2.39.20160721.2101 (20160721.2101)
 -->
<!-- Title: prolog Pages: 1 -->
<svg width="1069pt" height="648pt"
 viewBox="0.00 0.00 1069.00 648.00" xmlns="http://www.w3.org/2000/svg" xmlns:xlink="http://www.w3.org/1999/xlink">
<g id="graph0" class="graph" transform="scale(1 1) rotate(0) translate(4 644)">
<title>prolog</title>
<polygon fill="white" stroke="transparent" points="-4,4 -4,-644 1065,-644 1065,4 -4,4"/>
<g id="clust1" class="cluster">
<title>cluster_leftcol</title>
<polygon fill="none" stroke="gray" points="8,-274 8,-346 312,-346 312,-274 8,-274"/>
<text text-anchor="start" x="146.663" y="-334" font-family="Helvetica,sans-Serif" font-style="italic" font-size="10.00">ebuild</text>
</g>
<g id="clust2" class="cluster">
<title>cluster_midcol</title>
<polygon fill="none" stroke="gray" points="396,-8 396,-632 665,-632 665,-8 396,-8"/>
<text text-anchor="start" x="499.375" y="-620" font-family="Helvetica,sans-Serif" font-style="italic" font-size="10.00">dependencies</text>
</g>
<g id="clust3" class="cluster">
<title>cluster_compile</title>
<polygon fill="#eeeeee" stroke="gray" points="404.5,-314 404.5,-604 656.5,-604 656.5,-314 404.5,-314"/>
<text text-anchor="start" x="513.278" y="-592" font-family="Helvetica,sans-Serif" font-style="italic" font-size="10.00">compile</text>
</g>
<g id="clust7" class="cluster">
<title>cluster_run</title>
<polygon fill="#eeeeee" stroke="gray" points="404,-16 404,-306 657,-306 657,-16 404,-16"/>
<text text-anchor="start" x="523.277" y="-294" font-family="Helvetica,sans-Serif" font-style="italic" font-size="10.00">run</text>
</g>
<g id="clust10" class="cluster">
<title>cluster_choices</title>
<polygon fill="none" stroke="gray" points="749,-57 749,-481 1053,-481 1053,-57 749,-57"/>
<text text-anchor="start" x="876.824" y="-469" font-family="Helvetica,sans-Serif" font-style="italic" font-size="10.00">candidates</text>
</g>
<!-- id -->
<g id="node1" class="node">
<title>id</title>
<g id="a_node1"><a xlink:href="../app-text/docbook-xml-dtd-4.4-r2.svg" xlink:title="app&#45;text/docbook&#45;xml&#45;dtd&#45;4.4&#45;r2">
<ellipse fill="none" stroke="red" cx="160" cy="-300" rx="144" ry="18"/>
<text text-anchor="middle" x="160" y="-297" font-family="Helvetica,sans-Serif" font-size="10.00">app&#45;text/docbook&#45;xml&#45;dtd&#45;4.4&#45;r2</text>
</a>
</g>
</g>
<!-- dependency56377 -->
<g id="node2" class="node">
<title>dependency56377</title>
<polygon fill="none" stroke="blue" points="420.5,-462 420.5,-572 525.5,-572 525.5,-462 420.5,-462"/>
<text text-anchor="start" x="451.323" y="-514" font-family="Helvetica,sans-Serif" font-size="10.00">pack_dep</text>
<polygon fill="none" stroke="blue" points="525.5,-550 525.5,-572 635.5,-572 635.5,-550 525.5,-550"/>
<text text-anchor="start" x="574.941" y="-558" font-family="Helvetica,sans-Serif" font-size="10.00">no</text>
<polygon fill="none" stroke="blue" points="525.5,-528 525.5,-550 635.5,-550 635.5,-528 525.5,-528"/>
<text text-anchor="start" x="560.774" y="-536" font-family="Helvetica,sans-Serif" font-size="10.00">app&#45;arch</text>
<polygon fill="none" stroke="blue" points="525.5,-506 525.5,-528 635.5,-528 635.5,-506 525.5,-506"/>
<text text-anchor="start" x="568.552" y="-514" font-family="Helvetica,sans-Serif" font-size="10.00">unzip</text>
<polygon fill="none" stroke="blue" points="525.5,-484 525.5,-506 635.5,-506 635.5,-484 525.5,-484"/>
<text text-anchor="start" x="552.436" y="-492" font-family="Helvetica,sans-Serif" font-size="10.00">greaterequal</text>
<polygon fill="none" stroke="blue" points="525.5,-462 525.5,-484 635.5,-484 635.5,-462 525.5,-462"/>
<text text-anchor="start" x="570.772" y="-470" font-family="Helvetica,sans-Serif" font-size="10.00">5.41</text>
</g>
<!-- id&#45;&gt;dependency56377 -->
<g id="edge1" class="edge">
<title>id:e&#45;&gt;dependency56377:w</title>
<path fill="none" stroke="black" d="M304,-300C408.248,-300 311.551,-502.829 402.455,-516.298"/>
<polygon fill="black" stroke="black" points="412.5,-517 402.211,-520.792 407.512,-516.651 402.524,-516.303 402.524,-516.303 402.524,-516.303 407.512,-516.651 402.838,-511.814 412.5,-517 412.5,-517"/>
</g>
<!-- dependency56378 -->
<g id="node3" class="node">
<title>dependency56378</title>
<polygon fill="none" stroke="blue" points="420.5,-326 420.5,-436 525.5,-436 525.5,-326 420.5,-326"/>
<text text-anchor="start" x="451.323" y="-378" font-family="Helvetica,sans-Serif" font-size="10.00">pack_dep</text>
<polygon fill="none" stroke="blue" points="525.5,-414 525.5,-436 635.5,-436 635.5,-414 525.5,-414"/>
<text text-anchor="start" x="574.941" y="-422" font-family="Helvetica,sans-Serif" font-size="10.00">no</text>
<polygon fill="none" stroke="blue" points="525.5,-392 525.5,-414 635.5,-414 635.5,-392 525.5,-392"/>
<text text-anchor="start" x="562.438" y="-400" font-family="Helvetica,sans-Serif" font-size="10.00">app&#45;text</text>
<polygon fill="none" stroke="blue" points="525.5,-370 525.5,-392 635.5,-392 635.5,-370 525.5,-370"/>
<text text-anchor="start" x="549.115" y="-378" font-family="Helvetica,sans-Serif" font-size="10.00">sgml&#45;common</text>
<polygon fill="none" stroke="blue" points="525.5,-348 525.5,-370 635.5,-370 635.5,-348 525.5,-348"/>
<text text-anchor="start" x="552.436" y="-356" font-family="Helvetica,sans-Serif" font-size="10.00">greaterequal</text>
<polygon fill="none" stroke="blue" points="525.5,-326 525.5,-348 635.5,-348 635.5,-326 525.5,-326"/>
<text text-anchor="start" x="563.274" y="-334" font-family="Helvetica,sans-Serif" font-size="10.00">0.6.3&#45;r2</text>
</g>
<!-- id&#45;&gt;dependency56378 -->
<g id="edge2" class="edge">
<title>id:e&#45;&gt;dependency56378:w</title>
<path fill="none" stroke="black" d="M304,-300C360.534,-300 353.494,-371.488 402.329,-380.145"/>
<polygon fill="black" stroke="black" points="412.5,-381 402.158,-384.647 407.518,-380.581 402.535,-380.162 402.535,-380.162 402.535,-380.162 407.518,-380.581 402.912,-375.678 412.5,-381 412.5,-381"/>
</g>
<!-- dependency56379 -->
<g id="node4" class="node">
<title>dependency56379</title>
<polygon fill="none" stroke="blue" points="420.5,-164 420.5,-274 525.5,-274 525.5,-164 420.5,-164"/>
<text text-anchor="start" x="451.323" y="-216" font-family="Helvetica,sans-Serif" font-size="10.00">pack_dep</text>
<polygon fill="none" stroke="blue" points="525.5,-252 525.5,-274 635.5,-274 635.5,-252 525.5,-252"/>
<text text-anchor="start" x="574.941" y="-260" font-family="Helvetica,sans-Serif" font-size="10.00">no</text>
<polygon fill="none" stroke="blue" points="525.5,-230 525.5,-252 635.5,-252 635.5,-230 525.5,-230"/>
<text text-anchor="start" x="562.438" y="-238" font-family="Helvetica,sans-Serif" font-size="10.00">app&#45;text</text>
<polygon fill="none" stroke="blue" points="525.5,-208 525.5,-230 635.5,-230 635.5,-208 525.5,-208"/>
<text text-anchor="start" x="531.599" y="-216" font-family="Helvetica,sans-Serif" font-size="10.00">build&#45;docbook&#45;catalog</text>
<polygon fill="none" stroke="blue" points="525.5,-186 525.5,-208 635.5,-208 635.5,-186 525.5,-186"/>
<text text-anchor="start" x="552.436" y="-194" font-family="Helvetica,sans-Serif" font-size="10.00">greaterequal</text>
<polygon fill="none" stroke="blue" points="525.5,-164 525.5,-186 635.5,-186 635.5,-164 525.5,-164"/>
<text text-anchor="start" x="573.552" y="-172" font-family="Helvetica,sans-Serif" font-size="10.00">1.2</text>
</g>
<!-- id&#45;&gt;dependency56379 -->
<g id="edge3" class="edge">
<title>id:e&#45;&gt;dependency56379:w</title>
<path fill="none" stroke="black" d="M304,-300C361.357,-300 353.275,-226.416 404.497,-219.517"/>
<ellipse fill="none" stroke="black" cx="408.508" cy="-219.258" rx="4" ry="4"/>
</g>
<!-- dependency56380 -->
<g id="node5" class="node">
<title>dependency56380</title>
<polygon fill="none" stroke="blue" points="420.5,-28 420.5,-138 525.5,-138 525.5,-28 420.5,-28"/>
<text text-anchor="start" x="451.323" y="-80" font-family="Helvetica,sans-Serif" font-size="10.00">pack_dep</text>
<polygon fill="none" stroke="blue" points="525.5,-116 525.5,-138 641.5,-138 641.5,-116 525.5,-116"/>
<text text-anchor="start" x="577.941" y="-124" font-family="Helvetica,sans-Serif" font-size="10.00">no</text>
<polygon fill="none" stroke="blue" points="525.5,-94 525.5,-116 641.5,-116 641.5,-94 525.5,-94"/>
<text text-anchor="start" x="565.438" y="-102" font-family="Helvetica,sans-Serif" font-size="10.00">app&#45;text</text>
<polygon fill="none" stroke="blue" points="525.5,-72 525.5,-94 641.5,-94 641.5,-72 525.5,-72"/>
<text text-anchor="start" x="530.158" y="-80" font-family="Helvetica,sans-Serif" font-size="10.00">docbook&#45;xsl&#45;stylesheets</text>
<polygon fill="none" stroke="blue" points="525.5,-50 525.5,-72 641.5,-72 641.5,-50 525.5,-50"/>
<text text-anchor="start" x="555.436" y="-58" font-family="Helvetica,sans-Serif" font-size="10.00">greaterequal</text>
<polygon fill="none" stroke="blue" points="525.5,-28 525.5,-50 641.5,-50 641.5,-28 525.5,-28"/>
<text text-anchor="start" x="573.772" y="-36" font-family="Helvetica,sans-Serif" font-size="10.00">1.65</text>
</g>
<!-- id&#45;&gt;dependency56380 -->
<g id="edge4" class="edge">
<title>id:e&#45;&gt;dependency56380:w</title>
<path fill="none" stroke="black" d="M304,-300C408.792,-300 309.403,-94.2925 403.428,-83.4446"/>
<ellipse fill="none" stroke="black" cx="407.506" cy="-83.22" rx="4" ry="4"/>
</g>
<!-- choice971121124597114991044711711012210511245544648951125048 -->
<g id="node6" class="node">
<title>choice971121124597114991044711711012210511245544648951125048</title>
<g id="a_node6"><a xlink:href="../app-arch/unzip-6.0_p20.svg" xlink:title="app&#45;arch/unzip&#45;6.0_p20">
<ellipse fill="none" stroke="red" cx="901" cy="-435" rx="144" ry="18"/>
<text text-anchor="middle" x="901" y="-432" font-family="Helvetica,sans-Serif" font-size="10.00">app&#45;arch/unzip&#45;6.0_p20</text>
</a>
</g>
</g>
<!-- dependency56377&#45;&gt;choice971121124597114991044711711012210511245544648951125048 -->
<g id="edge5" class="edge">
<title>dependency56377:e&#45;&gt;choice971121124597114991044711711012210511245544648951125048:w</title>
<path fill="none" stroke="black" stroke-dasharray="1,5" d="M648.5,-517C705.285,-517 697.788,-444.629 746.789,-435.865"/>
<polygon fill="black" stroke="black" points="757,-435 747.416,-440.329 752.018,-435.422 747.036,-435.845 747.036,-435.845 747.036,-435.845 752.018,-435.422 746.656,-431.361 757,-435 757,-435"/>
</g>
<!-- choice97112112451161011201164711510310910845991111091091111104548465446514511453 -->
<g id="node7" class="node">
<title>choice97112112451161011201164711510310910845991111091091111104548465446514511453</title>
<g id="a_node7"><a xlink:href="../app-text/sgml-common-0.6.3-r5.svg" xlink:title="app&#45;text/sgml&#45;common&#45;0.6.3&#45;r5">
<ellipse fill="none" stroke="red" cx="901" cy="-381" rx="144" ry="18"/>
<text text-anchor="middle" x="901" y="-378" font-family="Helvetica,sans-Serif" font-size="10.00">app&#45;text/sgml&#45;common&#45;0.6.3&#45;r5</text>
</a>
</g>
</g>
<!-- dependency56378&#45;&gt;choice97112112451161011201164711510310910845991111091091111104548465446514511453 -->
<g id="edge6" class="edge">
<title>dependency56378:e&#45;&gt;choice97112112451161011201164711510310910845991111091091111104548465446514511453:w</title>
<path fill="none" stroke="black" stroke-dasharray="1,5" d="M648.5,-381C693.143,-381 706.789,-381 746.831,-381"/>
<polygon fill="black" stroke="black" points="757,-381 747,-385.5 752,-381 747,-381 747,-381 747,-381 752,-381 747,-376.5 757,-381 757,-381"/>
</g>
<!-- choice971121124511610112011647981171051081004510011199981111111074599971169710811110345494649574649 -->
<g id="node8" class="node">
<title>choice971121124511610112011647981171051081004510011199981111111074599971169710811110345494649574649</title>
<g id="a_node8"><a xlink:href="../app-text/build-docbook-catalog-1.19.1.svg" xlink:title="app&#45;text/build&#45;docbook&#45;catalog&#45;1.19.1">
<ellipse fill="none" stroke="red" cx="901" cy="-299" rx="144" ry="18"/>
<text text-anchor="middle" x="901" y="-296" font-family="Helvetica,sans-Serif" font-size="10.00">app&#45;text/build&#45;docbook&#45;catalog&#45;1.19.1</text>
</a>
</g>
</g>
<!-- dependency56379&#45;&gt;choice971121124511610112011647981171051081004510011199981111111074599971169710811110345494649574649 -->
<g id="edge7" class="edge">
<title>dependency56379:e&#45;&gt;choice971121124511610112011647981171051081004510011199981111111074599971169710811110345494649574649:w</title>
<path fill="none" stroke="black" stroke-dasharray="1,5" d="M648.5,-219C704.786,-219 698.197,-289.606 746.869,-298.156"/>
<polygon fill="black" stroke="black" points="757,-299 746.661,-302.654 752.017,-298.585 747.035,-298.169 747.035,-298.169 747.035,-298.169 752.017,-298.585 747.408,-293.685 757,-299 757,-299"/>
</g>
<!-- choice97112112451161011201164798117105108100451001119998111111107459997116971081111034549465048 -->
<g id="node9" class="node">
<title>choice97112112451161011201164798117105108100451001119998111111107459997116971081111034549465048</title>
<g id="a_node9"><a xlink:href="../app-text/build-docbook-catalog-1.20.svg" xlink:title="app&#45;text/build&#45;docbook&#45;catalog&#45;1.20">
<ellipse fill="none" stroke="red" cx="901" cy="-245" rx="144" ry="18"/>
<text text-anchor="middle" x="901" y="-242" font-family="Helvetica,sans-Serif" font-size="10.00">app&#45;text/build&#45;docbook&#45;catalog&#45;1.20</text>
</a>
</g>
</g>
<!-- dependency56379&#45;&gt;choice97112112451161011201164798117105108100451001119998111111107459997116971081111034549465048 -->
<g id="edge8" class="edge">
<title>dependency56379:e&#45;&gt;choice97112112451161011201164798117105108100451001119998111111107459997116971081111034549465048:w</title>
<path fill="none" stroke="black" stroke-dasharray="1,5" d="M648.5,-219C694.504,-219 705.855,-241.378 746.85,-244.612"/>
<polygon fill="black" stroke="black" points="757,-245 746.835,-249.115 752.004,-244.809 747.007,-244.618 747.007,-244.618 747.007,-244.618 752.004,-244.809 747.179,-240.121 757,-245 757,-245"/>
</g>
<!-- choice97112112451161011201164798117105108100451001119998111111107459997116971081111034549465049 -->
<g id="node10" class="node">
<title>choice97112112451161011201164798117105108100451001119998111111107459997116971081111034549465049</title>
<g id="a_node10"><a xlink:href="../app-text/build-docbook-catalog-1.21.svg" xlink:title="app&#45;text/build&#45;docbook&#45;catalog&#45;1.21">
<ellipse fill="none" stroke="red" cx="901" cy="-191" rx="144" ry="18"/>
<text text-anchor="middle" x="901" y="-188" font-family="Helvetica,sans-Serif" font-size="10.00">app&#45;text/build&#45;docbook&#45;catalog&#45;1.21</text>
</a>
</g>
</g>
<!-- dependency56379&#45;&gt;choice97112112451161011201164798117105108100451001119998111111107459997116971081111034549465049 -->
<g id="edge9" class="edge">
<title>dependency56379:e&#45;&gt;choice97112112451161011201164798117105108100451001119998111111107459997116971081111034549465049:w</title>
<path fill="none" stroke="black" stroke-dasharray="1,5" d="M648.5,-219C694.703,-219 705.699,-194.901 746.813,-191.418"/>
<polygon fill="black" stroke="black" points="757,-191 747.193,-195.906 752.004,-191.205 747.008,-191.41 747.008,-191.41 747.008,-191.41 752.004,-191.205 746.824,-186.913 757,-191 757,-191"/>
</g>
<!-- choice97112112451161011201164710011199981111111074512011510845115116121108101115104101101116115454946555746494511449 -->
<g id="node11" class="node">
<title>choice97112112451161011201164710011199981111111074512011510845115116121108101115104101101116115454946555746494511449</title>
<g id="a_node11"><a xlink:href="../app-text/docbook-xsl-stylesheets-1.79.1-r1.svg" xlink:title="app&#45;text/docbook&#45;xsl&#45;stylesheets&#45;1.79.1&#45;r1">
<ellipse fill="none" stroke="red" cx="901" cy="-137" rx="144" ry="18"/>
<text text-anchor="middle" x="901" y="-134" font-family="Helvetica,sans-Serif" font-size="10.00">app&#45;text/docbook&#45;xsl&#45;stylesheets&#45;1.79.1&#45;r1</text>
</a>
</g>
</g>
<!-- dependency56380&#45;&gt;choice97112112451161011201164710011199981111111074512011510845115116121108101115104101101116115454946555746494511449 -->
<g id="edge10" class="edge">
<title>dependency56380:e&#45;&gt;choice97112112451161011201164710011199981111111074512011510845115116121108101115104101101116115454946555746494511449:w</title>
<path fill="none" stroke="black" stroke-dasharray="1,5" d="M649.5,-83C699.416,-83 703.225,-130.066 747.017,-136.317"/>
<polygon fill="black" stroke="black" points="757,-137 746.716,-140.807 752.012,-136.659 747.023,-136.318 747.023,-136.318 747.023,-136.318 752.012,-136.659 747.33,-131.828 757,-137 757,-137"/>
</g>
<!-- choice97112112451161011201164710011199981111111074512011510845115116121108101115104101101116115454946555746494511450 -->
<g id="node12" class="node">
<title>choice97112112451161011201164710011199981111111074512011510845115116121108101115104101101116115454946555746494511450</title>
<g id="a_node12"><a xlink:href="../app-text/docbook-xsl-stylesheets-1.79.1-r2.svg" xlink:title="app&#45;text/docbook&#45;xsl&#45;stylesheets&#45;1.79.1&#45;r2">
<ellipse fill="none" stroke="red" cx="901" cy="-83" rx="144" ry="18"/>
<text text-anchor="middle" x="901" y="-80" font-family="Helvetica,sans-Serif" font-size="10.00">app&#45;text/docbook&#45;xsl&#45;stylesheets&#45;1.79.1&#45;r2</text>
</a>
</g>
</g>
<!-- dependency56380&#45;&gt;choice97112112451161011201164710011199981111111074512011510845115116121108101115104101101116115454946555746494511450 -->
<g id="edge11" class="edge">
<title>dependency56380:e&#45;&gt;choice97112112451161011201164710011199981111111074512011510845115116121108101115104101101116115454946555746494511450:w</title>
<path fill="none" stroke="black" stroke-dasharray="1,5" d="M649.5,-83C693.732,-83 707.252,-83 746.925,-83"/>
<polygon fill="black" stroke="black" points="757,-83 747,-87.5001 752,-83 747,-83.0001 747,-83.0001 747,-83.0001 752,-83 747,-78.5001 757,-83 757,-83"/>
</g>
</g>
</svg>
