<?xml version="1.0" encoding="UTF-8" standalone="no"?>
<!DOCTYPE svg PUBLIC "-//W3C//DTD SVG 1.1//EN"
 "http://www.w3.org/Graphics/SVG/1.1/DTD/svg11.dtd">
<!-- Generated by graphviz version 9.0.0 (20230911.1827)
 -->
<!-- Title: prolog Pages: 1 -->
<svg width="1324pt" height="701pt"
 viewBox="0.00 0.00 1324.00 701.00" xmlns="http://www.w3.org/2000/svg" xmlns:xlink="http://www.w3.org/1999/xlink">
<g id="graph0" class="graph" transform="scale(1 1) rotate(0) translate(4 697)">
<title>prolog</title>
<polygon fill="white" stroke="none" points="-4,4 -4,-697 1320,-697 1320,4 -4,4"/>
<g id="clust1" class="cluster">
<title>cluster_leftcol</title>
<polygon fill="none" stroke="gray" points="8,-278 8,-349 312,-349 312,-278 8,-278"/>
<text text-anchor="start" x="147.25" y="-336.5" font-family="Helvetica,sans-Serif" font-style="italic" font-size="10.00">ebuild</text>
</g>
<g id="clust2" class="cluster">
<title>cluster_midcol</title>
<polygon fill="none" stroke="gray" points="396,-8 396,-685 920,-685 920,-8 396,-8"/>
<text text-anchor="start" x="628" y="-672.5" font-family="Helvetica,sans-Serif" font-style="italic" font-size="10.00">dependencies</text>
</g>
<g id="clust3" class="cluster">
<title>cluster_compile</title>
<polygon fill="#eeeeee" stroke="gray" points="404,-281 404,-658 912,-658 912,-281 404,-281"/>
<text text-anchor="start" x="641.12" y="-645.5" font-family="Helvetica,sans-Serif" font-style="italic" font-size="10.00">compile</text>
</g>
<g id="clust10" class="cluster">
<title>cluster_run</title>
<polygon fill="#eeeeee" stroke="gray" points="404,-16 404,-273 912,-273 912,-16 404,-16"/>
<text text-anchor="start" x="651.25" y="-260.5" font-family="Helvetica,sans-Serif" font-style="italic" font-size="10.00">run</text>
</g>
<g id="clust14" class="cluster">
<title>cluster_choices</title>
<polygon fill="none" stroke="gray" points="1004,-260 1004,-625 1308,-625 1308,-260 1004,-260"/>
<text text-anchor="start" x="1132.38" y="-612.5" font-family="Helvetica,sans-Serif" font-style="italic" font-size="10.00">candidates</text>
</g>
<!-- id -->
<g id="node1" class="node">
<title>id</title>
<g id="a_node1"><a xlink:href="../app-text/libstaroffice-0.0.6.svg" xlink:title="portage://app&#45;text/libstaroffice&#45;0.0.6">
<ellipse fill="none" stroke="red" cx="160" cy="-304" rx="144" ry="18"/>
<text text-anchor="middle" x="160" y="-300.12" font-family="Helvetica,sans-Serif" font-size="10.00">portage://app&#45;text/libstaroffice&#45;0.0.6</text>
</a>
</g>
</g>
<!-- dependency596237 -->
<g id="node2" class="node">
<title>dependency596237</title>
<polygon fill="none" stroke="red" points="420,-496 420,-538 509,-538 509,-496 420,-496"/>
<text text-anchor="start" x="430.75" y="-513.12" font-family="Helvetica,sans-Serif" font-size="10.00">use_conditional</text>
<polygon fill="none" stroke="red" points="509,-517 509,-538 552,-538 552,-517 509,-517"/>
<text text-anchor="start" x="513.62" y="-523.5" font-family="Helvetica,sans-Serif" font-size="10.00">positive</text>
<polygon fill="none" stroke="red" points="509,-496 509,-517 552,-517 552,-496 509,-496"/>
<text text-anchor="start" x="522.62" y="-502.5" font-family="Helvetica,sans-Serif" font-size="10.00">doc</text>
</g>
<!-- id&#45;&gt;dependency596237 -->
<g id="edge2" class="edge">
<title>id:e&#45;&gt;dependency596237:w</title>
<path fill="none" stroke="black" d="M305,-304C406.82,-304 312.8,-501.48 400.08,-516.14"/>
<polygon fill="black" stroke="black" points="409.79,-516.9 399.46,-520.61 406.02,-516.61 399.82,-516.12 399.82,-516.12 399.82,-516.12 406.02,-516.61 400.17,-511.63 409.79,-516.9"/>
</g>
<!-- dependency596239 -->
<g id="node4" class="node">
<title>dependency596239</title>
<polygon fill="none" stroke="red" points="420,-366 420,-408 509,-408 509,-366 420,-366"/>
<text text-anchor="start" x="430.75" y="-383.12" font-family="Helvetica,sans-Serif" font-size="10.00">use_conditional</text>
<polygon fill="none" stroke="red" points="509,-387 509,-408 552,-408 552,-387 509,-387"/>
<text text-anchor="start" x="513.62" y="-393.5" font-family="Helvetica,sans-Serif" font-size="10.00">positive</text>
<polygon fill="none" stroke="red" points="509,-366 509,-387 552,-387 552,-366 509,-366"/>
<text text-anchor="start" x="523" y="-372.5" font-family="Helvetica,sans-Serif" font-size="10.00">zlib</text>
</g>
<!-- id&#45;&gt;dependency596239 -->
<g id="edge4" class="edge">
<title>id:e&#45;&gt;dependency596239:w</title>
<path fill="none" stroke="black" d="M305,-304C360.86,-304 352.66,-376.34 400.01,-385.95"/>
<polygon fill="black" stroke="black" points="409.79,-386.88 399.4,-390.41 406.02,-386.52 399.83,-385.93 399.83,-385.93 399.83,-385.93 406.02,-386.52 400.26,-381.45 409.79,-386.88"/>
</g>
<!-- dependency596241 -->
<g id="node6" class="node">
<title>dependency596241</title>
<polygon fill="none" stroke="blue" points="676,-293 676,-387 780,-387 780,-293 676,-293"/>
<text text-anchor="start" x="707" y="-336.12" font-family="Helvetica,sans-Serif" font-size="10.00">pack_dep</text>
<polygon fill="none" stroke="blue" points="780,-366 780,-387 890,-387 890,-366 780,-366"/>
<text text-anchor="start" x="829.75" y="-372.5" font-family="Helvetica,sans-Serif" font-size="10.00">no</text>
<polygon fill="none" stroke="blue" points="780,-345 780,-366 890,-366 890,-345 780,-345"/>
<text text-anchor="start" x="818.12" y="-351.5" font-family="Helvetica,sans-Serif" font-size="10.00">dev&#45;libs</text>
<polygon fill="none" stroke="blue" points="780,-324 780,-345 890,-345 890,-324 780,-324"/>
<text text-anchor="start" x="812.88" y="-330.5" font-family="Helvetica,sans-Serif" font-size="10.00">librevenge</text>
<polygon fill="none" stroke="blue" points="780,-303 780,-324 890,-324 890,-303 780,-303"/>
<text text-anchor="start" x="824.5" y="-309.5" font-family="Helvetica,sans-Serif" font-size="10.00">none</text>
<polygon fill="none" stroke="blue" points="780,-293 780,-303 890,-303 890,-293 780,-293"/>
</g>
<!-- id&#45;&gt;dependency596241 -->
<g id="edge5" class="edge">
<title>id:e&#45;&gt;dependency596241:w</title>
<path fill="none" stroke="black" d="M487,-168C520.23,-163.58 532.43,-167.92 560,-187 625.23,-232.15 588.61,-330.22 657.11,-339.32"/>
<polygon fill="black" stroke="black" points="666.78,-339.92 656.52,-343.79 663.01,-339.69 656.8,-339.3 656.8,-339.3 656.8,-339.3 663.01,-339.69 657.08,-334.81 666.78,-339.92"/>
</g>
<!-- dependency596242 -->
<g id="node7" class="node">
<title>dependency596242</title>
<polygon fill="none" stroke="red" points="420,-200 420,-242 509,-242 509,-200 420,-200"/>
<text text-anchor="start" x="430.75" y="-217.12" font-family="Helvetica,sans-Serif" font-size="10.00">use_conditional</text>
<polygon fill="none" stroke="red" points="509,-221 509,-242 552,-242 552,-221 509,-221"/>
<text text-anchor="start" x="513.62" y="-227.5" font-family="Helvetica,sans-Serif" font-size="10.00">positive</text>
<polygon fill="none" stroke="red" points="509,-200 509,-221 552,-221 552,-200 509,-200"/>
<text text-anchor="start" x="523" y="-206.5" font-family="Helvetica,sans-Serif" font-size="10.00">zlib</text>
</g>
<!-- id&#45;&gt;dependency596242 -->
<g id="edge7" class="edge">
<title>id:e&#45;&gt;dependency596242:w</title>
<path fill="none" stroke="black" d="M305,-304C361.68,-304 352.4,-229.52 402.13,-221.67"/>
<ellipse fill="none" stroke="black" cx="406.51" cy="-221.34" rx="4" ry="4"/>
</g>
<!-- dependency596244 -->
<g id="node9" class="node">
<title>dependency596244</title>
<polygon fill="none" stroke="blue" points="676,-28 676,-122 780,-122 780,-28 676,-28"/>
<text text-anchor="start" x="707" y="-71.12" font-family="Helvetica,sans-Serif" font-size="10.00">pack_dep</text>
<polygon fill="none" stroke="blue" points="780,-101 780,-122 890,-122 890,-101 780,-101"/>
<text text-anchor="start" x="829.75" y="-107.5" font-family="Helvetica,sans-Serif" font-size="10.00">no</text>
<polygon fill="none" stroke="blue" points="780,-80 780,-101 890,-101 890,-80 780,-80"/>
<text text-anchor="start" x="818.12" y="-86.5" font-family="Helvetica,sans-Serif" font-size="10.00">dev&#45;libs</text>
<polygon fill="none" stroke="blue" points="780,-59 780,-80 890,-80 890,-59 780,-59"/>
<text text-anchor="start" x="812.88" y="-65.5" font-family="Helvetica,sans-Serif" font-size="10.00">librevenge</text>
<polygon fill="none" stroke="blue" points="780,-38 780,-59 890,-59 890,-38 780,-38"/>
<text text-anchor="start" x="824.5" y="-44.5" font-family="Helvetica,sans-Serif" font-size="10.00">none</text>
<polygon fill="none" stroke="blue" points="780,-28 780,-38 890,-38 890,-28 780,-28"/>
</g>
<!-- id&#45;&gt;dependency596244 -->
<g id="edge8" class="edge">
<title>id:e&#45;&gt;dependency596244:w</title>
<path fill="none" stroke="black" d="M487,-168C573.68,-156.48 577.4,-80.31 659.28,-75.26"/>
<ellipse fill="none" stroke="black" cx="663.5" cy="-75.14" rx="4" ry="4"/>
<path fill="none" stroke="black" d="M305,-304C370.88,-304 340.19,-222 396,-187 430.27,-165.51 444.91,-173.33 485,-168"/>
</g>
<!-- dependency596238 -->
<g id="node3" class="node">
<title>dependency596238</title>
<polygon fill="none" stroke="blue" points="676,-533 676,-627 780,-627 780,-533 676,-533"/>
<text text-anchor="start" x="707" y="-576.12" font-family="Helvetica,sans-Serif" font-size="10.00">pack_dep</text>
<polygon fill="none" stroke="blue" points="780,-606 780,-627 890,-627 890,-606 780,-606"/>
<text text-anchor="start" x="829.75" y="-612.5" font-family="Helvetica,sans-Serif" font-size="10.00">no</text>
<polygon fill="none" stroke="blue" points="780,-585 780,-606 890,-606 890,-585 780,-585"/>
<text text-anchor="start" x="817.75" y="-591.5" font-family="Helvetica,sans-Serif" font-size="10.00">app&#45;doc</text>
<polygon fill="none" stroke="blue" points="780,-564 780,-585 890,-585 890,-564 780,-564"/>
<text text-anchor="start" x="816.62" y="-570.5" font-family="Helvetica,sans-Serif" font-size="10.00">doxygen</text>
<polygon fill="none" stroke="blue" points="780,-543 780,-564 890,-564 890,-543 780,-543"/>
<text text-anchor="start" x="824.5" y="-549.5" font-family="Helvetica,sans-Serif" font-size="10.00">none</text>
<polygon fill="none" stroke="blue" points="780,-533 780,-543 890,-543 890,-533 780,-533"/>
</g>
<!-- dependency596237&#45;&gt;dependency596238 -->
<g id="edge1" class="edge">
<title>dependency596237:e&#45;&gt;dependency596238:w</title>
<path fill="none" stroke="black" stroke-dasharray="5,2" d="M560,-517C611.55,-517 612.58,-571.22 656.83,-579.06"/>
<polygon fill="black" stroke="black" points="666.79,-579.9 656.44,-583.54 663.02,-579.58 656.82,-579.06 656.82,-579.06 656.82,-579.06 663.02,-579.58 657.2,-574.58 666.79,-579.9"/>
</g>
<!-- choice971121124510011199471001111201211031011104557575757 -->
<g id="node10" class="node">
<title>choice971121124510011199471001111201211031011104557575757</title>
<g id="a_node10"><a xlink:href="../app-doc/doxygen-9999.svg" xlink:title="portage://app&#45;doc/doxygen&#45;9999">
<ellipse fill="none" stroke="red" cx="1156" cy="-580" rx="144" ry="18"/>
<text text-anchor="middle" x="1156" y="-576.12" font-family="Helvetica,sans-Serif" font-size="10.00">portage://app&#45;doc/doxygen&#45;9999</text>
</a>
</g>
</g>
<!-- dependency596238&#45;&gt;choice971121124510011199471001111201211031011104557575757 -->
<g id="edge9" class="edge">
<title>dependency596238:e&#45;&gt;choice971121124510011199471001111201211031011104557575757:w</title>
<path fill="none" stroke="black" stroke-dasharray="1,5" d="M905,-580C948.25,-580 961.72,-580 1000.08,-580"/>
<polygon fill="black" stroke="black" points="1009.78,-580 999.78,-584.5 1006,-580 999.78,-580 999.78,-580 999.78,-580 1006,-580 999.78,-575.5 1009.78,-580"/>
</g>
<!-- choice97112112451001119947100111120121103101110454946564649544511449 -->
<g id="node11" class="node">
<title>choice97112112451001119947100111120121103101110454946564649544511449</title>
<g id="a_node11"><a xlink:href="../app-doc/doxygen-1.8.16-r1.svg" xlink:title="portage://app&#45;doc/doxygen&#45;1.8.16&#45;r1">
<ellipse fill="none" stroke="red" cx="1156" cy="-526" rx="144" ry="18"/>
<text text-anchor="middle" x="1156" y="-522.12" font-family="Helvetica,sans-Serif" font-size="10.00">portage://app&#45;doc/doxygen&#45;1.8.16&#45;r1</text>
</a>
</g>
</g>
<!-- dependency596238&#45;&gt;choice97112112451001119947100111120121103101110454946564649544511449 -->
<g id="edge10" class="edge">
<title>dependency596238:e&#45;&gt;choice97112112451001119947100111120121103101110454946564649544511449:w</title>
<path fill="none" stroke="black" stroke-dasharray="1,5" d="M905,-580C953.95,-580 957.8,-533.72 1000.05,-526.85"/>
<polygon fill="black" stroke="black" points="1009.79,-526.09 1000.16,-531.35 1006.01,-526.39 999.82,-526.87 999.82,-526.87 999.82,-526.87 1006.01,-526.39 999.47,-522.38 1009.79,-526.09"/>
</g>
<!-- choice9711211245100111994710011112012110310111045494656464953 -->
<g id="node12" class="node">
<title>choice9711211245100111994710011112012110310111045494656464953</title>
<g id="a_node12"><a xlink:href="../app-doc/doxygen-1.8.15.svg" xlink:title="portage://app&#45;doc/doxygen&#45;1.8.15">
<ellipse fill="none" stroke="red" cx="1156" cy="-472" rx="144" ry="18"/>
<text text-anchor="middle" x="1156" y="-468.12" font-family="Helvetica,sans-Serif" font-size="10.00">portage://app&#45;doc/doxygen&#45;1.8.15</text>
</a>
</g>
</g>
<!-- dependency596238&#45;&gt;choice9711211245100111994710011112012110310111045494656464953 -->
<g id="edge11" class="edge">
<title>dependency596238:e&#45;&gt;choice9711211245100111994710011112012110310111045494656464953:w</title>
<path fill="none" stroke="black" stroke-dasharray="1,5" d="M905,-580C968.32,-580 946.76,-484.29 1000.13,-473.07"/>
<polygon fill="black" stroke="black" points="1009.79,-472.12 1000.28,-477.58 1006.02,-472.49 999.84,-473.1 999.84,-473.1 999.84,-473.1 1006.02,-472.49 999.4,-468.62 1009.79,-472.12"/>
</g>
<!-- dependency596240 -->
<g id="node5" class="node">
<title>dependency596240</title>
<polygon fill="none" stroke="blue" points="676,-413 676,-507 780,-507 780,-413 676,-413"/>
<text text-anchor="start" x="707" y="-456.12" font-family="Helvetica,sans-Serif" font-size="10.00">pack_dep</text>
<polygon fill="none" stroke="blue" points="780,-486 780,-507 890,-507 890,-486 780,-486"/>
<text text-anchor="start" x="829.75" y="-492.5" font-family="Helvetica,sans-Serif" font-size="10.00">no</text>
<polygon fill="none" stroke="blue" points="780,-465 780,-486 890,-486 890,-465 780,-465"/>
<text text-anchor="start" x="818.12" y="-471.5" font-family="Helvetica,sans-Serif" font-size="10.00">sys&#45;libs</text>
<polygon fill="none" stroke="blue" points="780,-444 780,-465 890,-465 890,-444 780,-444"/>
<text text-anchor="start" x="827.5" y="-450.5" font-family="Helvetica,sans-Serif" font-size="10.00">zlib</text>
<polygon fill="none" stroke="blue" points="780,-423 780,-444 890,-444 890,-423 780,-423"/>
<text text-anchor="start" x="824.5" y="-429.5" font-family="Helvetica,sans-Serif" font-size="10.00">none</text>
<polygon fill="none" stroke="blue" points="780,-413 780,-423 890,-423 890,-413 780,-413"/>
</g>
<!-- dependency596239&#45;&gt;dependency596240 -->
<g id="edge3" class="edge">
<title>dependency596239:e&#45;&gt;dependency596240:w</title>
<path fill="none" stroke="black" stroke-dasharray="5,2" d="M560,-387C613.98,-387 610.83,-450.36 657,-459.02"/>
<polygon fill="black" stroke="black" points="666.79,-459.89 656.43,-463.49 663.02,-459.56 656.83,-459.01 656.83,-459.01 656.83,-459.01 663.02,-459.56 657.22,-454.53 666.79,-459.89"/>
</g>
<!-- choice11512111545108105981154712210810598454946504649494511450 -->
<g id="node13" class="node">
<title>choice11512111545108105981154712210810598454946504649494511450</title>
<g id="a_node13"><a xlink:href="../sys-libs/zlib-1.2.11-r2.svg" xlink:title="portage://sys&#45;libs/zlib&#45;1.2.11&#45;r2">
<ellipse fill="none" stroke="red" cx="1156" cy="-406" rx="144" ry="18"/>
<text text-anchor="middle" x="1156" y="-402.12" font-family="Helvetica,sans-Serif" font-size="10.00">portage://sys&#45;libs/zlib&#45;1.2.11&#45;r2</text>
</a>
</g>
</g>
<!-- dependency596240&#45;&gt;choice11512111545108105981154712210810598454946504649494511450 -->
<g id="edge12" class="edge">
<title>dependency596240:e&#45;&gt;choice11512111545108105981154712210810598454946504649494511450:w</title>
<path fill="none" stroke="black" stroke-dasharray="1,5" d="M905,-460C953.95,-460 957.8,-413.72 1000.05,-406.85"/>
<polygon fill="black" stroke="black" points="1009.79,-406.09 1000.16,-411.35 1006.01,-406.39 999.82,-406.87 999.82,-406.87 999.82,-406.87 1006.01,-406.39 999.47,-402.38 1009.79,-406.09"/>
</g>
<!-- choice100101118451081059811547108105981141011181011101031014557575757 -->
<g id="node14" class="node">
<title>choice100101118451081059811547108105981141011181011101031014557575757</title>
<g id="a_node14"><a xlink:href="../dev-libs/librevenge-9999.svg" xlink:title="portage://dev&#45;libs/librevenge&#45;9999">
<ellipse fill="none" stroke="red" cx="1156" cy="-340" rx="144" ry="18"/>
<text text-anchor="middle" x="1156" y="-336.12" font-family="Helvetica,sans-Serif" font-size="10.00">portage://dev&#45;libs/librevenge&#45;9999</text>
</a>
</g>
</g>
<!-- dependency596241&#45;&gt;choice100101118451081059811547108105981141011181011101031014557575757 -->
<g id="edge13" class="edge">
<title>dependency596241:e&#45;&gt;choice100101118451081059811547108105981141011181011101031014557575757:w</title>
<path fill="none" stroke="black" stroke-dasharray="1,5" d="M905,-340C948.25,-340 961.72,-340 1000.08,-340"/>
<polygon fill="black" stroke="black" points="1009.78,-340 999.78,-344.5 1006,-340 999.78,-340 999.78,-340 999.78,-340 1006,-340 999.78,-335.5 1009.78,-340"/>
</g>
<!-- choice100101118451081059811547108105981141011181011101031014548464846524511449 -->
<g id="node15" class="node">
<title>choice100101118451081059811547108105981141011181011101031014548464846524511449</title>
<g id="a_node15"><a xlink:href="../dev-libs/librevenge-0.0.4-r1.svg" xlink:title="portage://dev&#45;libs/librevenge&#45;0.0.4&#45;r1">
<ellipse fill="none" stroke="red" cx="1156" cy="-286" rx="144" ry="18"/>
<text text-anchor="middle" x="1156" y="-282.12" font-family="Helvetica,sans-Serif" font-size="10.00">portage://dev&#45;libs/librevenge&#45;0.0.4&#45;r1</text>
</a>
</g>
</g>
<!-- dependency596241&#45;&gt;choice100101118451081059811547108105981141011181011101031014548464846524511449 -->
<g id="edge14" class="edge">
<title>dependency596241:e&#45;&gt;choice100101118451081059811547108105981141011181011101031014548464846524511449:w</title>
<path fill="none" stroke="black" stroke-dasharray="1,5" d="M905,-340C953.95,-340 957.8,-293.72 1000.05,-286.85"/>
<polygon fill="black" stroke="black" points="1009.79,-286.09 1000.16,-291.35 1006.01,-286.39 999.82,-286.87 999.82,-286.87 999.82,-286.87 1006.01,-286.39 999.47,-282.38 1009.79,-286.09"/>
</g>
<!-- dependency596243 -->
<g id="node8" class="node">
<title>dependency596243</title>
<polygon fill="none" stroke="blue" points="676,-148 676,-242 780,-242 780,-148 676,-148"/>
<text text-anchor="start" x="707" y="-191.12" font-family="Helvetica,sans-Serif" font-size="10.00">pack_dep</text>
<polygon fill="none" stroke="blue" points="780,-221 780,-242 890,-242 890,-221 780,-221"/>
<text text-anchor="start" x="829.75" y="-227.5" font-family="Helvetica,sans-Serif" font-size="10.00">no</text>
<polygon fill="none" stroke="blue" points="780,-200 780,-221 890,-221 890,-200 780,-200"/>
<text text-anchor="start" x="818.12" y="-206.5" font-family="Helvetica,sans-Serif" font-size="10.00">sys&#45;libs</text>
<polygon fill="none" stroke="blue" points="780,-179 780,-200 890,-200 890,-179 780,-179"/>
<text text-anchor="start" x="827.5" y="-185.5" font-family="Helvetica,sans-Serif" font-size="10.00">zlib</text>
<polygon fill="none" stroke="blue" points="780,-158 780,-179 890,-179 890,-158 780,-158"/>
<text text-anchor="start" x="824.5" y="-164.5" font-family="Helvetica,sans-Serif" font-size="10.00">none</text>
<polygon fill="none" stroke="blue" points="780,-148 780,-158 890,-158 890,-148 780,-148"/>
</g>
<!-- dependency596242&#45;&gt;dependency596243 -->
<g id="edge6" class="edge">
<title>dependency596242:e&#45;&gt;dependency596243:w</title>
<path fill="none" stroke="black" stroke-dasharray="5,2" d="M560,-221C605.42,-221 616.89,-199 656.87,-195.47"/>
<polygon fill="black" stroke="black" points="666.78,-195.05 656.98,-199.97 663,-195.21 656.79,-195.48 656.79,-195.48 656.79,-195.48 663,-195.21 656.6,-190.98 666.78,-195.05"/>
</g>
<!-- dependency596243&#45;&gt;choice11512111545108105981154712210810598454946504649494511450 -->
<g id="edge15" class="edge">
<title>dependency596243:e&#45;&gt;choice11512111545108105981154712210810598454946504649494511450:w</title>
<path fill="none" stroke="black" stroke-dasharray="1,5" d="M905,-195C1005.95,-195 913.66,-390.23 999.89,-405.11"/>
<polygon fill="black" stroke="black" points="1009.79,-405.9 999.46,-409.58 1006.02,-405.6 999.82,-405.1 999.82,-405.1 999.82,-405.1 1006.02,-405.6 1000.18,-400.61 1009.79,-405.9"/>
</g>
<!-- dependency596244&#45;&gt;choice100101118451081059811547108105981141011181011101031014557575757 -->
<g id="edge16" class="edge">
<title>dependency596244:e&#45;&gt;choice100101118451081059811547108105981141011181011101031014557575757:w</title>
<path fill="none" stroke="black" stroke-dasharray="1,5" d="M905,-75C1027.89,-75 893.11,-323.7 999.9,-339.24"/>
<polygon fill="black" stroke="black" points="1009.78,-339.92 999.5,-343.72 1006.01,-339.66 999.81,-339.23 999.81,-339.23 999.81,-339.23 1006.01,-339.66 1000.12,-334.74 1009.78,-339.92"/>
</g>
<!-- dependency596244&#45;&gt;choice100101118451081059811547108105981141011181011101031014548464846524511449 -->
<g id="edge17" class="edge">
<title>dependency596244:e&#45;&gt;choice100101118451081059811547108105981141011181011101031014548464846524511449:w</title>
<path fill="none" stroke="black" stroke-dasharray="1,5" d="M905,-75C1005.95,-75 913.66,-270.23 999.89,-285.11"/>
<polygon fill="black" stroke="black" points="1009.79,-285.9 999.46,-289.58 1006.02,-285.6 999.82,-285.1 999.82,-285.1 999.82,-285.1 1006.02,-285.6 1000.18,-280.61 1009.79,-285.9"/>
</g>
</g>
</svg>
