<?xml version="1.0" encoding="UTF-8" standalone="no"?>
<!DOCTYPE svg PUBLIC "-//W3C//DTD SVG 1.1//EN"
 "http://www.w3.org/Graphics/SVG/1.1/DTD/svg11.dtd">
<!-- Generated by graphviz version 2.39.20160721.2101 (20160721.2101)
 -->
<!-- Title: prolog Pages: 1 -->
<svg width="986pt" height="398pt"
 viewBox="0.00 0.00 986.00 398.00" xmlns="http://www.w3.org/2000/svg" xmlns:xlink="http://www.w3.org/1999/xlink">
<g id="graph0" class="graph" transform="scale(1 1) rotate(0) translate(4 394)">
<title>prolog</title>
<polygon fill="white" stroke="transparent" points="-4,4 -4,-394 982,-394 982,4 -4,4"/>
<g id="clust1" class="cluster">
<title>cluster_leftcol</title>
<polygon fill="none" stroke="gray" points="8,-105 8,-177 312,-177 312,-105 8,-105"/>
<text text-anchor="start" x="146.663" y="-165" font-family="Helvetica,sans-Serif" font-style="italic" font-size="10.00">ebuild</text>
</g>
<g id="clust10" class="cluster">
<title>cluster_choices</title>
<polygon fill="none" stroke="gray" points="666,-8 666,-382 970,-382 970,-8 666,-8"/>
<text text-anchor="start" x="793.824" y="-370" font-family="Helvetica,sans-Serif" font-style="italic" font-size="10.00">candidates</text>
</g>
<g id="clust2" class="cluster">
<title>cluster_midcol</title>
<polygon fill="none" stroke="gray" points="396,-41 396,-261 582,-261 582,-41 396,-41"/>
<text text-anchor="start" x="457.875" y="-249" font-family="Helvetica,sans-Serif" font-style="italic" font-size="10.00">dependencies</text>
</g>
<g id="clust3" class="cluster">
<title>cluster_compile</title>
<polygon fill="#eeeeee" stroke="gray" points="406,-145 406,-233 572,-233 572,-145 406,-145"/>
<text text-anchor="start" x="471.778" y="-221" font-family="Helvetica,sans-Serif" font-style="italic" font-size="10.00">compile</text>
</g>
<g id="clust6" class="cluster">
<title>cluster_compileandrun</title>
<polygon fill="#eeeeee" stroke="gray" points="404,-49 404,-137 574,-137 574,-49 404,-49"/>
<text text-anchor="start" x="453.437" y="-125" font-family="Helvetica,sans-Serif" font-style="italic" font-size="10.00">compile and run</text>
</g>
<!-- id -->
<g id="node1" class="node">
<title>id</title>
<g id="a_node1"><a xlink:href="../app-text/mandoc-1.14.1-r1.svg" xlink:title="app&#45;text/mandoc&#45;1.14.1&#45;r1">
<ellipse fill="none" stroke="red" cx="160" cy="-131" rx="144" ry="18"/>
<text text-anchor="middle" x="160" y="-128" font-family="Helvetica,sans-Serif" font-size="10.00">app&#45;text/mandoc&#45;1.14.1&#45;r1</text>
</a>
</g>
</g>
<!-- dependency58139 -->
<g id="node2" class="node">
<title>dependency58139</title>
<polygon fill="none" stroke="red" points="422,-157 422,-201 513,-201 513,-157 422,-157"/>
<text text-anchor="start" x="432.767" y="-176" font-family="Helvetica,sans-Serif" font-size="10.00">use_conditional</text>
<polygon fill="none" stroke="red" points="513,-179 513,-201 556,-201 556,-179 513,-179"/>
<text text-anchor="start" x="517.553" y="-187" font-family="Helvetica,sans-Serif" font-size="10.00">positive</text>
<polygon fill="none" stroke="red" points="513,-157 513,-179 556,-179 556,-157 513,-157"/>
<text text-anchor="start" x="522.832" y="-165" font-family="Helvetica,sans-Serif" font-size="10.00">static</text>
</g>
<!-- id&#45;&gt;dependency58139 -->
<g id="edge2" class="edge">
<title>id:e&#45;&gt;dependency58139:w</title>
<path fill="none" stroke="black" d="M304,-131C353.799,-131 359.998,-172.837 404.006,-178.393"/>
<polygon fill="black" stroke="black" points="414,-179 403.746,-182.885 409.009,-178.697 404.018,-178.394 404.018,-178.394 404.018,-178.394 409.009,-178.697 404.291,-173.902 414,-179 414,-179"/>
</g>
<!-- dependency58141 -->
<g id="node4" class="node">
<title>dependency58141</title>
<polygon fill="none" stroke="red" points="420,-61 420,-105 511,-105 511,-61 420,-61"/>
<text text-anchor="start" x="430.767" y="-80" font-family="Helvetica,sans-Serif" font-size="10.00">use_conditional</text>
<polygon fill="none" stroke="red" points="511,-83 511,-105 558,-105 558,-83 511,-83"/>
<text text-anchor="start" x="515.604" y="-91" font-family="Helvetica,sans-Serif" font-size="10.00">negative</text>
<polygon fill="none" stroke="red" points="511,-61 511,-83 558,-83 558,-61 511,-61"/>
<text text-anchor="start" x="522.832" y="-69" font-family="Helvetica,sans-Serif" font-size="10.00">static</text>
</g>
<!-- id&#45;&gt;dependency58141 -->
<g id="edge4" class="edge">
<title>id:e&#45;&gt;dependency58141:w</title>
<path fill="none" stroke="black" d="M304,-131C349.756,-131 357.889,-94.5774 393.946,-85.1872"/>
<ellipse fill="none" stroke="black" cx="408.029" cy="-83.4811" rx="4" ry="4"/>
<polygon fill="black" stroke="black" points="404.058,-83.9622 394.672,-89.6322 399.094,-84.5635 394.131,-85.1649 394.131,-85.1649 394.131,-85.1649 399.094,-84.5635 393.589,-80.6976 404.058,-83.9622 404.058,-83.9622"/>
</g>
<!-- dependency58140 -->
<g id="node3" class="node">
<title>dependency58140</title>
<polygon fill="none" stroke="blue" points="708,-144 708,-242 813,-242 813,-144 708,-144"/>
<text text-anchor="start" x="738.823" y="-190" font-family="Helvetica,sans-Serif" font-size="10.00">pack_dep</text>
<polygon fill="none" stroke="blue" points="813,-220 813,-242 923,-242 923,-220 813,-220"/>
<text text-anchor="start" x="862.441" y="-228" font-family="Helvetica,sans-Serif" font-size="10.00">no</text>
<polygon fill="none" stroke="blue" points="813,-198 813,-220 923,-220 923,-198 813,-198"/>
<text text-anchor="start" x="851.337" y="-206" font-family="Helvetica,sans-Serif" font-size="10.00">sys&#45;libs</text>
<polygon fill="none" stroke="blue" points="813,-176 813,-198 923,-198 923,-176 813,-176"/>
<text text-anchor="start" x="860.501" y="-184" font-family="Helvetica,sans-Serif" font-size="10.00">zlib</text>
<polygon fill="none" stroke="blue" points="813,-154 813,-176 923,-176 923,-154 813,-154"/>
<text text-anchor="start" x="856.882" y="-162" font-family="Helvetica,sans-Serif" font-size="10.00">none</text>
<polygon fill="none" stroke="blue" points="813,-144 813,-154 923,-154 923,-144 813,-144"/>
</g>
<!-- dependency58139&#45;&gt;dependency58140 -->
<g id="edge1" class="edge">
<title>dependency58139:e&#45;&gt;dependency58140:w</title>
<path fill="none" stroke="black" stroke-dasharray="5,2" d="M564,-179C621.203,-179 637.381,-191.407 689.777,-192.861"/>
<polygon fill="black" stroke="black" points="700,-193 689.94,-197.364 695,-192.932 690.001,-192.864 690.001,-192.864 690.001,-192.864 695,-192.932 690.062,-188.365 700,-193 700,-193"/>
</g>
<!-- choice1151211154510810598115471221081059845494650464949 -->
<g id="node6" class="node">
<title>choice1151211154510810598115471221081059845494650464949</title>
<g id="a_node6"><a xlink:href="../sys-libs/zlib-1.2.11.svg" xlink:title="sys&#45;libs/zlib&#45;1.2.11">
<ellipse fill="none" stroke="red" cx="818" cy="-336" rx="144" ry="18"/>
<text text-anchor="middle" x="818" y="-333" font-family="Helvetica,sans-Serif" font-size="10.00">sys&#45;libs/zlib&#45;1.2.11</text>
</a>
</g>
</g>
<!-- dependency58140&#45;&gt;choice1151211154510810598115471221081059845494650464949 -->
<g id="edge5" class="edge">
<title>dependency58140:e&#45;&gt;choice1151211154510810598115471221081059845494650464949:w</title>
<path fill="none" stroke="black" stroke-dasharray="1,5" d="M936,-193C959.556,-193 952.376,-229.069 936,-246 911.859,-270.959 645.83,-236.996 624,-264 601.708,-291.575 629.14,-328.599 663.623,-335.029"/>
<polygon fill="black" stroke="black" points="674,-336 663.624,-339.548 669.022,-335.534 664.044,-335.068 664.044,-335.068 664.044,-335.068 669.022,-335.534 664.463,-330.587 674,-336 674,-336"/>
</g>
<!-- choice11512111545108105981154712210810598454946504649494511449 -->
<g id="node7" class="node">
<title>choice11512111545108105981154712210810598454946504649494511449</title>
<g id="a_node7"><a xlink:href="../sys-libs/zlib-1.2.11-r1.svg" xlink:title="sys&#45;libs/zlib&#45;1.2.11&#45;r1">
<ellipse fill="none" stroke="red" cx="818" cy="-282" rx="144" ry="18"/>
<text text-anchor="middle" x="818" y="-279" font-family="Helvetica,sans-Serif" font-size="10.00">sys&#45;libs/zlib&#45;1.2.11&#45;r1</text>
</a>
</g>
</g>
<!-- dependency58140&#45;&gt;choice11512111545108105981154712210810598454946504649494511449 -->
<g id="edge6" class="edge">
<title>dependency58140:e&#45;&gt;choice11512111545108105981154712210810598454946504649494511449:w</title>
<path fill="none" stroke="black" stroke-dasharray="1,5" d="M669.302,-273.011C670.046,-269.792 671.782,-266.376 674,-264 713.827,-221.343 896.173,-288.657 936,-246 952.075,-228.782 959.556,-193 936,-193"/>
<polygon fill="black" stroke="black" points="674,-282 665.38,-275.221 671.684,-277.569 669.368,-273.137 669.368,-273.137 669.368,-273.137 671.684,-277.569 673.357,-271.053 674,-282 674,-282"/>
</g>
<!-- dependency58142 -->
<g id="node5" class="node">
<title>dependency58142</title>
<polygon fill="none" stroke="blue" points="708,-20 708,-118 813,-118 813,-20 708,-20"/>
<text text-anchor="start" x="738.823" y="-66" font-family="Helvetica,sans-Serif" font-size="10.00">pack_dep</text>
<polygon fill="none" stroke="blue" points="813,-96 813,-118 923,-118 923,-96 813,-96"/>
<text text-anchor="start" x="862.441" y="-104" font-family="Helvetica,sans-Serif" font-size="10.00">no</text>
<polygon fill="none" stroke="blue" points="813,-74 813,-96 923,-96 923,-74 813,-74"/>
<text text-anchor="start" x="851.337" y="-82" font-family="Helvetica,sans-Serif" font-size="10.00">sys&#45;libs</text>
<polygon fill="none" stroke="blue" points="813,-52 813,-74 923,-74 923,-52 813,-52"/>
<text text-anchor="start" x="860.501" y="-60" font-family="Helvetica,sans-Serif" font-size="10.00">zlib</text>
<polygon fill="none" stroke="blue" points="813,-30 813,-52 923,-52 923,-30 813,-30"/>
<text text-anchor="start" x="856.882" y="-38" font-family="Helvetica,sans-Serif" font-size="10.00">none</text>
<polygon fill="none" stroke="blue" points="813,-20 813,-30 923,-30 923,-20 813,-20"/>
</g>
<!-- dependency58141&#45;&gt;dependency58142 -->
<g id="edge3" class="edge">
<title>dependency58141:e&#45;&gt;dependency58142:w</title>
<path fill="none" stroke="black" stroke-dasharray="5,2" d="M566,-83C622.371,-83 638.295,-70.5926 689.926,-69.1386"/>
<polygon fill="black" stroke="black" points="700,-69 690.063,-73.6372 695,-69.0688 690.001,-69.1376 690.001,-69.1376 690.001,-69.1376 695,-69.0688 689.939,-64.6381 700,-69 700,-69"/>
</g>
<!-- dependency58142&#45;&gt;choice1151211154510810598115471221081059845494650464949 -->
<g id="edge7" class="edge">
<title>dependency58142:e&#45;&gt;choice1151211154510810598115471221081059845494650464949:w</title>
<path fill="none" stroke="black" stroke-dasharray="1,5" d="M936,-69C959.556,-69 952.376,-105.069 936,-122 911.859,-146.959 645.83,-112.996 624,-140 569.689,-207.182 582.912,-326.235 663.8,-335.434"/>
<polygon fill="black" stroke="black" points="674,-336 663.766,-339.939 669.008,-335.723 664.015,-335.446 664.015,-335.446 664.015,-335.446 669.008,-335.723 664.265,-330.952 674,-336 674,-336"/>
</g>
<!-- dependency58142&#45;&gt;choice11512111545108105981154712210810598454946504649494511449 -->
<g id="edge8" class="edge">
<title>dependency58142:e&#45;&gt;choice11512111545108105981154712210810598454946504649494511449:w</title>
<path fill="none" stroke="black" stroke-dasharray="1,5" d="M936,-69C959.556,-69 952.376,-105.069 936,-122 911.859,-146.959 645.83,-112.996 624,-140 584.154,-189.289 604.625,-272.617 663.767,-281.268"/>
<polygon fill="black" stroke="black" points="674,-282 663.704,-285.775 669.013,-281.643 664.025,-281.287 664.025,-281.287 664.025,-281.287 669.013,-281.643 664.347,-276.798 674,-282 674,-282"/>
</g>
</g>
</svg>
