<?xml version="1.0" encoding="UTF-8" standalone="no"?>
<!DOCTYPE svg PUBLIC "-//W3C//DTD SVG 1.1//EN"
 "http://www.w3.org/Graphics/SVG/1.1/DTD/svg11.dtd">
<!-- Generated by graphviz version 9.0.0 (20230911.1827)
 -->
<!-- Title: prolog Pages: 1 -->
<svg width="1367pt" height="889pt"
 viewBox="0.00 0.00 1367.06 889.00" xmlns="http://www.w3.org/2000/svg" xmlns:xlink="http://www.w3.org/1999/xlink">
<g id="graph0" class="graph" transform="scale(1 1) rotate(0) translate(4 885)">
<title>prolog</title>
<polygon fill="white" stroke="none" points="-4,4 -4,-885 1363.06,-885 1363.06,4 -4,4"/>
<g id="clust2" class="cluster">
<title>cluster_midcol</title>
<polygon fill="none" stroke="gray" points="8,-8 8,-873 949,-873 949,-8 8,-8"/>
<text text-anchor="start" x="448.5" y="-860.5" font-family="Helvetica,sans-Serif" font-style="italic" font-size="10.00">dependencies</text>
</g>
<g id="clust3" class="cluster">
<title>cluster_compile</title>
<polygon fill="#eeeeee" stroke="gray" points="16,-16 16,-427 941,-427 941,-16 16,-16"/>
<text text-anchor="start" x="461.62" y="-414.5" font-family="Helvetica,sans-Serif" font-style="italic" font-size="10.00">compile</text>
</g>
<g id="clust10" class="cluster">
<title>cluster_run</title>
<polygon fill="#eeeeee" stroke="gray" points="412,-435 412,-846 941,-846 941,-435 412,-435"/>
<text text-anchor="start" x="669.75" y="-833.5" font-family="Helvetica,sans-Serif" font-style="italic" font-size="10.00">run</text>
</g>
<g id="clust16" class="cluster">
<title>cluster_choices</title>
<polygon fill="none" stroke="gray" points="1033,-101 1033,-807 1351.06,-807 1351.06,-101 1033,-101"/>
<text text-anchor="start" x="1168.41" y="-794.5" font-family="Helvetica,sans-Serif" font-style="italic" font-size="10.00">candidates</text>
</g>
<!-- id -->
<g id="node1" class="node">
<title>id</title>
<g id="a_node1"><a xlink:href="../app-text/mandoc-1.14.6.svg" xlink:title="portage://app&#45;text/mandoc&#45;1.14.6">
<ellipse fill="none" stroke="red" cx="168" cy="-372" rx="144" ry="18"/>
<text text-anchor="middle" x="168" y="-368.12" font-family="Helvetica,sans-Serif" font-size="10.00">portage://app&#45;text/mandoc&#45;1.14.6</text>
</a>
</g>
</g>
<!-- dependency56917 -->
<g id="node2" class="node">
<title>dependency56917</title>
<polygon fill="none" stroke="red" points="438.5,-244 438.5,-286 527.5,-286 527.5,-244 438.5,-244"/>
<text text-anchor="start" x="449.25" y="-261.12" font-family="Helvetica,sans-Serif" font-size="10.00">use_conditional</text>
<polygon fill="none" stroke="red" points="527.5,-265 527.5,-286 570.5,-286 570.5,-265 527.5,-265"/>
<text text-anchor="start" x="532.12" y="-271.5" font-family="Helvetica,sans-Serif" font-size="10.00">positive</text>
<polygon fill="none" stroke="red" points="527.5,-244 527.5,-265 570.5,-265 570.5,-244 527.5,-244"/>
<text text-anchor="start" x="542.62" y="-250.5" font-family="Helvetica,sans-Serif" font-size="10.00">cgi</text>
</g>
<!-- id&#45;&gt;dependency56917 -->
<g id="edge2" class="edge">
<title>id:e&#45;&gt;dependency56917:w</title>
<path fill="none" stroke="black" d="M312,-372C378.63,-372 361.26,-276.78 418.37,-265.99"/>
<polygon fill="black" stroke="black" points="428.29,-265.11 418.72,-270.48 424.52,-265.44 418.33,-266 418.33,-266 418.33,-266 424.52,-265.44 417.93,-261.51 428.29,-265.11"/>
</g>
<!-- dependency56919 -->
<g id="node4" class="node">
<title>dependency56919</title>
<polygon fill="none" stroke="red" points="428,-145 428,-187 517,-187 517,-145 428,-145"/>
<text text-anchor="start" x="438.75" y="-162.12" font-family="Helvetica,sans-Serif" font-size="10.00">use_conditional</text>
<polygon fill="none" stroke="red" points="517,-166 517,-187 581,-187 581,-166 517,-166"/>
<text text-anchor="start" x="532.12" y="-172.5" font-family="Helvetica,sans-Serif" font-size="10.00">positive</text>
<polygon fill="none" stroke="red" points="517,-145 517,-166 581,-166 581,-145 517,-145"/>
<text text-anchor="start" x="522" y="-151.5" font-family="Helvetica,sans-Serif" font-size="10.00">system&#45;man</text>
</g>
<!-- id&#45;&gt;dependency56919 -->
<g id="edge4" class="edge">
<title>id:e&#45;&gt;dependency56919:w</title>
<path fill="none" stroke="black" d="M312,-372C411.34,-372 323.48,-181.39 408.56,-166.87"/>
<polygon fill="black" stroke="black" points="418.29,-166.1 408.68,-171.38 414.52,-166.4 408.32,-166.89 408.32,-166.89 408.32,-166.89 414.52,-166.4 407.96,-162.41 418.29,-166.1"/>
</g>
<!-- dependency56921 -->
<g id="node6" class="node">
<title>dependency56921</title>
<polygon fill="none" stroke="blue" points="705,-290.5 705,-395.5 809,-395.5 809,-290.5 705,-290.5"/>
<text text-anchor="start" x="736" y="-339.12" font-family="Helvetica,sans-Serif" font-size="10.00">pack_dep</text>
<polygon fill="none" stroke="blue" points="809,-374.5 809,-395.5 919,-395.5 919,-374.5 809,-374.5"/>
<text text-anchor="start" x="851.25" y="-381" font-family="Helvetica,sans-Serif" font-size="10.00">install</text>
<polygon fill="none" stroke="blue" points="809,-353.5 809,-374.5 919,-374.5 919,-353.5 809,-353.5"/>
<text text-anchor="start" x="847.12" y="-360" font-family="Helvetica,sans-Serif" font-size="10.00">sys&#45;libs</text>
<polygon fill="none" stroke="blue" points="809,-332.5 809,-353.5 919,-353.5 919,-332.5 809,-332.5"/>
<text text-anchor="start" x="856.5" y="-339" font-family="Helvetica,sans-Serif" font-size="10.00">zlib</text>
<polygon fill="none" stroke="blue" points="809,-311.5 809,-332.5 919,-332.5 919,-311.5 809,-311.5"/>
<text text-anchor="start" x="853.5" y="-318" font-family="Helvetica,sans-Serif" font-size="10.00">none</text>
<polygon fill="none" stroke="blue" points="809,-290.5 809,-311.5 919,-311.5 919,-290.5 809,-290.5"/>
<text text-anchor="start" x="858" y="-297" font-family="Helvetica,sans-Serif" font-size="10.00">[,,]</text>
</g>
<!-- id&#45;&gt;dependency56921 -->
<g id="edge5" class="edge">
<title>id:e&#45;&gt;dependency56921:w</title>
<path fill="none" stroke="black" d="M312,-372C479.91,-372 523.55,-344.23 686.12,-343.04"/>
<polygon fill="black" stroke="black" points="695.78,-343 685.8,-347.54 692,-343.02 685.78,-343.04 685.78,-343.04 685.78,-343.04 692,-343.02 685.77,-338.54 695.78,-343"/>
</g>
<!-- dependency56922 -->
<g id="node7" class="node">
<title>dependency56922</title>
<polygon fill="none" stroke="red" points="438.5,-548 438.5,-590 527.5,-590 527.5,-548 438.5,-548"/>
<text text-anchor="start" x="449.25" y="-565.12" font-family="Helvetica,sans-Serif" font-size="10.00">use_conditional</text>
<polygon fill="none" stroke="red" points="527.5,-569 527.5,-590 570.5,-590 570.5,-569 527.5,-569"/>
<text text-anchor="start" x="532.12" y="-575.5" font-family="Helvetica,sans-Serif" font-size="10.00">positive</text>
<polygon fill="none" stroke="red" points="527.5,-548 527.5,-569 570.5,-569 570.5,-548 527.5,-548"/>
<text text-anchor="start" x="533.62" y="-554.5" font-family="Helvetica,sans-Serif" font-size="10.00">selinux</text>
</g>
<!-- id&#45;&gt;dependency56922 -->
<g id="edge7" class="edge">
<title>id:e&#45;&gt;dependency56922:w</title>
<path fill="none" stroke="black" d="M312,-372C410.86,-372 332.61,-557.25 420.75,-568.47"/>
<ellipse fill="none" stroke="black" cx="425.01" cy="-568.73" rx="4" ry="4"/>
</g>
<!-- dependency56924 -->
<g id="node9" class="node">
<title>dependency56924</title>
<polygon fill="none" stroke="red" points="428,-463 428,-505 517,-505 517,-463 428,-463"/>
<text text-anchor="start" x="438.75" y="-480.12" font-family="Helvetica,sans-Serif" font-size="10.00">use_conditional</text>
<polygon fill="none" stroke="red" points="517,-484 517,-505 581,-505 581,-484 517,-484"/>
<text text-anchor="start" x="532.12" y="-490.5" font-family="Helvetica,sans-Serif" font-size="10.00">positive</text>
<polygon fill="none" stroke="red" points="517,-463 517,-484 581,-484 581,-463 517,-463"/>
<text text-anchor="start" x="522" y="-469.5" font-family="Helvetica,sans-Serif" font-size="10.00">system&#45;man</text>
</g>
<!-- id&#45;&gt;dependency56924 -->
<g id="edge9" class="edge">
<title>id:e&#45;&gt;dependency56924:w</title>
<path fill="none" stroke="black" d="M312,-372C377.9,-372 353.04,-474.16 410.79,-483.34"/>
<ellipse fill="none" stroke="black" cx="415.01" cy="-483.66" rx="4" ry="4"/>
</g>
<!-- dependency56926 -->
<g id="node11" class="node">
<title>dependency56926</title>
<polygon fill="none" stroke="blue" points="705,-578.5 705,-683.5 809,-683.5 809,-578.5 705,-578.5"/>
<text text-anchor="start" x="736" y="-627.12" font-family="Helvetica,sans-Serif" font-size="10.00">pack_dep</text>
<polygon fill="none" stroke="blue" points="809,-662.5 809,-683.5 919,-683.5 919,-662.5 809,-662.5"/>
<text text-anchor="start" x="857.25" y="-669" font-family="Helvetica,sans-Serif" font-size="10.00">run</text>
<polygon fill="none" stroke="blue" points="809,-641.5 809,-662.5 919,-662.5 919,-641.5 809,-641.5"/>
<text text-anchor="start" x="847.12" y="-648" font-family="Helvetica,sans-Serif" font-size="10.00">sys&#45;libs</text>
<polygon fill="none" stroke="blue" points="809,-620.5 809,-641.5 919,-641.5 919,-620.5 809,-620.5"/>
<text text-anchor="start" x="856.5" y="-627" font-family="Helvetica,sans-Serif" font-size="10.00">zlib</text>
<polygon fill="none" stroke="blue" points="809,-599.5 809,-620.5 919,-620.5 919,-599.5 809,-599.5"/>
<text text-anchor="start" x="853.5" y="-606" font-family="Helvetica,sans-Serif" font-size="10.00">none</text>
<polygon fill="none" stroke="blue" points="809,-578.5 809,-599.5 919,-599.5 919,-578.5 809,-578.5"/>
<text text-anchor="start" x="858" y="-585" font-family="Helvetica,sans-Serif" font-size="10.00">[,,]</text>
</g>
<!-- id&#45;&gt;dependency56926 -->
<g id="edge10" class="edge">
<title>id:e&#45;&gt;dependency56926:w</title>
<path fill="none" stroke="black" d="M312,-372C423.87,-372 321.61,-537.08 412,-603 512.43,-676.24 567.12,-633.14 688.17,-631.08"/>
<ellipse fill="none" stroke="black" cx="692.5" cy="-631.04" rx="4" ry="4"/>
</g>
<!-- dependency56918 -->
<g id="node3" class="node">
<title>dependency56918</title>
<polygon fill="none" stroke="blue" points="705,-159.5 705,-264.5 809,-264.5 809,-159.5 705,-159.5"/>
<text text-anchor="start" x="736" y="-208.12" font-family="Helvetica,sans-Serif" font-size="10.00">pack_dep</text>
<polygon fill="none" stroke="blue" points="809,-243.5 809,-264.5 919,-264.5 919,-243.5 809,-243.5"/>
<text text-anchor="start" x="851.25" y="-250" font-family="Helvetica,sans-Serif" font-size="10.00">install</text>
<polygon fill="none" stroke="blue" points="809,-222.5 809,-243.5 919,-243.5 919,-222.5 809,-222.5"/>
<text text-anchor="start" x="847.12" y="-229" font-family="Helvetica,sans-Serif" font-size="10.00">sys&#45;libs</text>
<polygon fill="none" stroke="blue" points="809,-201.5 809,-222.5 919,-222.5 919,-201.5 809,-201.5"/>
<text text-anchor="start" x="856.5" y="-208" font-family="Helvetica,sans-Serif" font-size="10.00">zlib</text>
<polygon fill="none" stroke="blue" points="809,-180.5 809,-201.5 919,-201.5 919,-180.5 809,-180.5"/>
<text text-anchor="start" x="853.5" y="-187" font-family="Helvetica,sans-Serif" font-size="10.00">none</text>
<polygon fill="none" stroke="blue" points="809,-159.5 809,-180.5 919,-180.5 919,-159.5 809,-159.5"/>
<text text-anchor="start" x="858" y="-166" font-family="Helvetica,sans-Serif" font-size="10.00">[,,]</text>
</g>
<!-- dependency56917&#45;&gt;dependency56918 -->
<g id="edge1" class="edge">
<title>dependency56917:e&#45;&gt;dependency56918:w</title>
<path fill="none" stroke="black" stroke-dasharray="5,2" d="M579.5,-265C632.87,-265 639.06,-219 685.98,-212.71"/>
<polygon fill="black" stroke="black" points="695.78,-212.08 686.09,-217.21 692.01,-212.32 685.8,-212.72 685.8,-212.72 685.8,-212.72 692.01,-212.32 685.52,-208.23 695.78,-212.08"/>
</g>
<!-- choice115121115451081059811547122108105984549465146494511449 -->
<g id="node12" class="node">
<title>choice115121115451081059811547122108105984549465146494511449</title>
<g id="a_node12"><a xlink:href="../sys-libs/zlib-1.3.1-r1.svg" xlink:title="portage://sys&#45;libs/zlib&#45;1.3.1&#45;r1">
<ellipse fill="none" stroke="red" cx="1192.03" cy="-397" rx="144" ry="18"/>
<text text-anchor="middle" x="1192.03" y="-393.12" font-family="Helvetica,sans-Serif" font-size="10.00">portage://sys&#45;libs/zlib&#45;1.3.1&#45;r1</text>
</a>
</g>
</g>
<!-- dependency56918&#45;&gt;choice115121115451081059811547122108105984549465146494511449 -->
<g id="edge11" class="edge">
<title>dependency56918:e&#45;&gt;choice115121115451081059811547122108105984549465146494511449:w</title>
<path fill="none" stroke="black" stroke-dasharray="1,5" d="M934,-212C1026.4,-212 956.92,-382.14 1036.04,-396.09"/>
<polygon fill="black" stroke="black" points="1045.82,-396.9 1035.48,-400.56 1042.05,-396.59 1035.85,-396.08 1035.85,-396.08 1035.85,-396.08 1042.05,-396.59 1036.22,-391.59 1045.82,-396.9"/>
</g>
<!-- choice11512111545108105981154712210810598454946514511452 -->
<g id="node13" class="node">
<title>choice11512111545108105981154712210810598454946514511452</title>
<g id="a_node13"><a xlink:href="../sys-libs/zlib-1.3-r4.svg" xlink:title="portage://sys&#45;libs/zlib&#45;1.3&#45;r4">
<ellipse fill="none" stroke="red" cx="1192.03" cy="-343" rx="144" ry="18"/>
<text text-anchor="middle" x="1192.03" y="-339.12" font-family="Helvetica,sans-Serif" font-size="10.00">portage://sys&#45;libs/zlib&#45;1.3&#45;r4</text>
</a>
</g>
</g>
<!-- dependency56918&#45;&gt;choice11512111545108105981154712210810598454946514511452 -->
<g id="edge12" class="edge">
<title>dependency56918:e&#45;&gt;choice11512111545108105981154712210810598454946514511452:w</title>
<path fill="none" stroke="black" stroke-dasharray="1,5" d="M934,-212C1006.99,-212 973.97,-330.03 1036.19,-342.02"/>
<polygon fill="black" stroke="black" points="1045.82,-342.89 1035.45,-346.47 1042.05,-342.55 1035.86,-341.99 1035.86,-341.99 1035.86,-341.99 1042.05,-342.55 1036.26,-337.51 1045.82,-342.89"/>
</g>
<!-- dependency56920 -->
<g id="node5" class="node">
<title>dependency56920</title>
<polygon fill="none" stroke="blue" points="705,-28.5 705,-133.5 809,-133.5 809,-28.5 705,-28.5"/>
<text text-anchor="start" x="736" y="-77.12" font-family="Helvetica,sans-Serif" font-size="10.00">pack_dep</text>
<polygon fill="none" stroke="blue" points="809,-112.5 809,-133.5 919,-133.5 919,-112.5 809,-112.5"/>
<text text-anchor="start" x="851.25" y="-119" font-family="Helvetica,sans-Serif" font-size="10.00">install</text>
<polygon fill="none" stroke="blue" points="809,-91.5 809,-112.5 919,-112.5 919,-91.5 809,-91.5"/>
<text text-anchor="start" x="844.12" y="-98" font-family="Helvetica,sans-Serif" font-size="10.00">sys&#45;apps</text>
<polygon fill="none" stroke="blue" points="809,-70.5 809,-91.5 919,-91.5 919,-70.5 809,-70.5"/>
<text text-anchor="start" x="847.88" y="-77" font-family="Helvetica,sans-Serif" font-size="10.00">man&#45;db</text>
<polygon fill="none" stroke="blue" points="809,-49.5 809,-70.5 919,-70.5 919,-49.5 809,-49.5"/>
<text text-anchor="start" x="853.5" y="-56" font-family="Helvetica,sans-Serif" font-size="10.00">none</text>
<polygon fill="none" stroke="blue" points="809,-28.5 809,-49.5 919,-49.5 919,-28.5 809,-28.5"/>
<text text-anchor="start" x="858" y="-35" font-family="Helvetica,sans-Serif" font-size="10.00">[,,]</text>
</g>
<!-- dependency56919&#45;&gt;dependency56920 -->
<g id="edge3" class="edge">
<title>dependency56919:e&#45;&gt;dependency56920:w</title>
<path fill="none" stroke="black" stroke-dasharray="5,2" d="M589,-166C646.15,-166 637.43,-91.6 686.09,-82.01"/>
<polygon fill="black" stroke="black" points="695.79,-81.11 686.25,-86.52 692.02,-81.46 685.83,-82.04 685.83,-82.04 685.83,-82.04 692.02,-81.46 685.41,-77.56 695.79,-81.11"/>
</g>
<!-- choice1151211154597112112115471099711045100984557575757 -->
<g id="node14" class="node">
<title>choice1151211154597112112115471099711045100984557575757</title>
<g id="a_node14"><a xlink:href="../sys-apps/man-db-9999.svg" xlink:title="portage://sys&#45;apps/man&#45;db&#45;9999">
<ellipse fill="none" stroke="red" cx="1192.03" cy="-235" rx="144" ry="18"/>
<text text-anchor="middle" x="1192.03" y="-231.12" font-family="Helvetica,sans-Serif" font-size="10.00">portage://sys&#45;apps/man&#45;db&#45;9999</text>
</a>
</g>
</g>
<!-- dependency56920&#45;&gt;choice1151211154597112112115471099711045100984557575757 -->
<g id="edge13" class="edge">
<title>dependency56920:e&#45;&gt;choice1151211154597112112115471099711045100984557575757:w</title>
<path fill="none" stroke="black" stroke-dasharray="1,5" d="M934,-81C1014.92,-81 967.14,-220.9 1036,-234.02"/>
<polygon fill="black" stroke="black" points="1045.82,-234.89 1035.46,-238.49 1042.05,-234.56 1035.86,-234 1035.86,-234 1035.86,-234 1042.05,-234.56 1036.26,-229.52 1045.82,-234.89"/>
</g>
<!-- choice11512111545971121121154710997110451009845504649504649 -->
<g id="node15" class="node">
<title>choice11512111545971121121154710997110451009845504649504649</title>
<g id="a_node15"><a xlink:href="../sys-apps/man-db-2.12.1.svg" xlink:title="portage://sys&#45;apps/man&#45;db&#45;2.12.1">
<ellipse fill="none" stroke="red" cx="1192.03" cy="-181" rx="144" ry="18"/>
<text text-anchor="middle" x="1192.03" y="-177.12" font-family="Helvetica,sans-Serif" font-size="10.00">portage://sys&#45;apps/man&#45;db&#45;2.12.1</text>
</a>
</g>
</g>
<!-- dependency56920&#45;&gt;choice11512111545971121121154710997110451009845504649504649 -->
<g id="edge14" class="edge">
<title>dependency56920:e&#45;&gt;choice11512111545971121121154710997110451009845504649504649:w</title>
<path fill="none" stroke="black" stroke-dasharray="1,5" d="M934,-81C997.14,-81 982.13,-169.62 1036.11,-180.01"/>
<polygon fill="black" stroke="black" points="1045.82,-180.89 1035.45,-184.47 1042.05,-180.55 1035.86,-179.99 1035.86,-179.99 1035.86,-179.99 1042.05,-180.55 1036.26,-175.51 1045.82,-180.89"/>
</g>
<!-- choice11512111545971121121154710997110451009845504649504648 -->
<g id="node16" class="node">
<title>choice11512111545971121121154710997110451009845504649504648</title>
<g id="a_node16"><a xlink:href="../sys-apps/man-db-2.12.0.svg" xlink:title="portage://sys&#45;apps/man&#45;db&#45;2.12.0">
<ellipse fill="none" stroke="red" cx="1192.03" cy="-127" rx="144" ry="18"/>
<text text-anchor="middle" x="1192.03" y="-123.12" font-family="Helvetica,sans-Serif" font-size="10.00">portage://sys&#45;apps/man&#45;db&#45;2.12.0</text>
</a>
</g>
</g>
<!-- dependency56920&#45;&gt;choice11512111545971121121154710997110451009845504649504648 -->
<g id="edge15" class="edge">
<title>dependency56920:e&#45;&gt;choice11512111545971121121154710997110451009845504649504648:w</title>
<path fill="none" stroke="black" stroke-dasharray="1,5" d="M934,-81C984.32,-81 991.88,-120.59 1036.01,-126.31"/>
<polygon fill="black" stroke="black" points="1045.81,-126.92 1035.55,-130.79 1042.04,-126.69 1035.83,-126.3 1035.83,-126.3 1035.83,-126.3 1042.04,-126.69 1036.11,-121.81 1045.81,-126.92"/>
</g>
<!-- choice11512111545971121121154710997110451009845504649494650 -->
<g id="node17" class="node">
<title>choice11512111545971121121154710997110451009845504649494650</title>
<g id="a_node17"><a xlink:href="../sys-apps/man-db-2.11.2.svg" xlink:title="portage://sys&#45;apps/man&#45;db&#45;2.11.2">
<ellipse fill="none" stroke="red" cx="1192.03" cy="-289" rx="144" ry="18"/>
<text text-anchor="middle" x="1192.03" y="-285.12" font-family="Helvetica,sans-Serif" font-size="10.00">portage://sys&#45;apps/man&#45;db&#45;2.11.2</text>
</a>
</g>
</g>
<!-- dependency56920&#45;&gt;choice11512111545971121121154710997110451009845504649494650 -->
<g id="edge16" class="edge">
<title>dependency56920:e&#45;&gt;choice11512111545971121121154710997110451009845504649494650:w</title>
<path fill="none" stroke="black" stroke-dasharray="1,5" d="M934,-81C1035.21,-81 948.94,-273.46 1035.87,-288.12"/>
<polygon fill="black" stroke="black" points="1045.82,-288.9 1035.49,-292.6 1042.05,-288.61 1035.85,-288.12 1035.85,-288.12 1035.85,-288.12 1042.05,-288.61 1036.2,-283.63 1045.82,-288.9"/>
</g>
<!-- dependency56921&#45;&gt;choice115121115451081059811547122108105984549465146494511449 -->
<g id="edge17" class="edge">
<title>dependency56921:e&#45;&gt;choice115121115451081059811547122108105984549465146494511449:w</title>
<path fill="none" stroke="black" stroke-dasharray="1,5" d="M934,-343C985.76,-343 990.85,-389.67 1036.05,-396.24"/>
<polygon fill="black" stroke="black" points="1045.82,-396.92 1035.53,-400.71 1042.04,-396.65 1035.84,-396.22 1035.84,-396.22 1035.84,-396.22 1042.04,-396.65 1036.15,-391.73 1045.82,-396.92"/>
</g>
<!-- dependency56921&#45;&gt;choice11512111545108105981154712210810598454946514511452 -->
<g id="edge18" class="edge">
<title>dependency56921:e&#45;&gt;choice11512111545108105981154712210810598454946514511452:w</title>
<path fill="none" stroke="black" stroke-dasharray="1,5" d="M934,-343C980.31,-343 994.6,-343 1035.91,-343"/>
<polygon fill="black" stroke="black" points="1045.81,-343 1035.81,-347.5 1042.03,-343 1035.81,-343 1035.81,-343 1035.81,-343 1042.03,-343 1035.81,-338.5 1045.81,-343"/>
</g>
<!-- dependency56923 -->
<g id="node8" class="node">
<title>dependency56923</title>
<polygon fill="none" stroke="blue" points="705,-709.5 705,-814.5 809,-814.5 809,-709.5 705,-709.5"/>
<text text-anchor="start" x="736" y="-758.12" font-family="Helvetica,sans-Serif" font-size="10.00">pack_dep</text>
<polygon fill="none" stroke="blue" points="809,-793.5 809,-814.5 919,-814.5 919,-793.5 809,-793.5"/>
<text text-anchor="start" x="857.25" y="-800" font-family="Helvetica,sans-Serif" font-size="10.00">run</text>
<polygon fill="none" stroke="blue" points="809,-772.5 809,-793.5 919,-793.5 919,-772.5 809,-772.5"/>
<text text-anchor="start" x="841.88" y="-779" font-family="Helvetica,sans-Serif" font-size="10.00">sec&#45;policy</text>
<polygon fill="none" stroke="blue" points="809,-751.5 809,-772.5 919,-772.5 919,-751.5 809,-751.5"/>
<text text-anchor="start" x="820.88" y="-758" font-family="Helvetica,sans-Serif" font-size="10.00">selinux&#45;makewhatis</text>
<polygon fill="none" stroke="blue" points="809,-730.5 809,-751.5 919,-751.5 919,-730.5 809,-730.5"/>
<text text-anchor="start" x="853.5" y="-737" font-family="Helvetica,sans-Serif" font-size="10.00">none</text>
<polygon fill="none" stroke="blue" points="809,-709.5 809,-730.5 919,-730.5 919,-709.5 809,-709.5"/>
<text text-anchor="start" x="858" y="-716" font-family="Helvetica,sans-Serif" font-size="10.00">[,,]</text>
</g>
<!-- dependency56922&#45;&gt;dependency56923 -->
<g id="edge6" class="edge">
<title>dependency56922:e&#45;&gt;dependency56923:w</title>
<path fill="none" stroke="black" stroke-dasharray="5,2" d="M579.5,-569C676,-569 602.81,-747.22 686.05,-761.14"/>
<polygon fill="black" stroke="black" points="695.79,-761.9 685.46,-765.61 692.02,-761.61 685.82,-761.12 685.82,-761.12 685.82,-761.12 692.02,-761.61 686.17,-756.63 695.79,-761.9"/>
</g>
<!-- choice115101994511211110810599121471151011081051101171204510997107101119104971161051154557575757 -->
<g id="node18" class="node">
<title>choice115101994511211110810599121471151011081051101171204510997107101119104971161051154557575757</title>
<g id="a_node18"><a xlink:href="../sec-policy/selinux-makewhatis-9999.svg" xlink:title="portage://sec&#45;policy/selinux&#45;makewhatis&#45;9999">
<ellipse fill="none" stroke="red" cx="1192.03" cy="-762" rx="144" ry="18"/>
<text text-anchor="middle" x="1192.03" y="-758.12" font-family="Helvetica,sans-Serif" font-size="10.00">portage://sec&#45;policy/selinux&#45;makewhatis&#45;9999</text>
</a>
</g>
</g>
<!-- dependency56923&#45;&gt;choice115101994511211110810599121471151011081051101171204510997107101119104971161051154557575757 -->
<g id="edge19" class="edge">
<title>dependency56923:e&#45;&gt;choice115101994511211110810599121471151011081051101171204510997107101119104971161051154557575757:w</title>
<path fill="none" stroke="black" stroke-dasharray="1,5" d="M934,-762C980.31,-762 994.6,-762 1035.91,-762"/>
<polygon fill="black" stroke="black" points="1045.81,-762 1035.81,-766.5 1042.03,-762 1035.81,-762 1035.81,-762 1035.81,-762 1042.03,-762 1035.81,-757.5 1045.81,-762"/>
</g>
<!-- choice1151019945112111108105991214711510110810511011712045109971071011191049711610511545504650485052485050544511450 -->
<g id="node19" class="node">
<title>choice1151019945112111108105991214711510110810511011712045109971071011191049711610511545504650485052485050544511450</title>
<g id="a_node19"><a xlink:href="../sec-policy/selinux-makewhatis-2.20240226-r2.svg" xlink:title="portage://sec&#45;policy/selinux&#45;makewhatis&#45;2.20240226&#45;r2">
<ellipse fill="none" stroke="red" cx="1192.03" cy="-708" rx="151.03" ry="18"/>
<text text-anchor="middle" x="1192.03" y="-704.12" font-family="Helvetica,sans-Serif" font-size="10.00">portage://sec&#45;policy/selinux&#45;makewhatis&#45;2.20240226&#45;r2</text>
</a>
</g>
</g>
<!-- dependency56923&#45;&gt;choice1151019945112111108105991214711510110810511011712045109971071011191049711610511545504650485052485050544511450 -->
<g id="edge20" class="edge">
<title>dependency56923:e&#45;&gt;choice1151019945112111108105991214711510110810511011712045109971071011191049711610511545504650485052485050544511450:w</title>
<path fill="none" stroke="black" stroke-dasharray="1,5" d="M934,-762C982.96,-762 986.82,-715.72 1029.08,-708.85"/>
<polygon fill="black" stroke="black" points="1038.82,-708.09 1029.19,-713.35 1035.05,-708.39 1028.85,-708.87 1028.85,-708.87 1028.85,-708.87 1035.05,-708.39 1028.5,-704.38 1038.82,-708.09"/>
</g>
<!-- choice1151019945112111108105991214711510110810511011712045109971071011191049711610511545504650485052485050544511449 -->
<g id="node20" class="node">
<title>choice1151019945112111108105991214711510110810511011712045109971071011191049711610511545504650485052485050544511449</title>
<g id="a_node20"><a xlink:href="../sec-policy/selinux-makewhatis-2.20240226-r1.svg" xlink:title="portage://sec&#45;policy/selinux&#45;makewhatis&#45;2.20240226&#45;r1">
<ellipse fill="none" stroke="red" cx="1192.03" cy="-654" rx="151.03" ry="18"/>
<text text-anchor="middle" x="1192.03" y="-650.12" font-family="Helvetica,sans-Serif" font-size="10.00">portage://sec&#45;policy/selinux&#45;makewhatis&#45;2.20240226&#45;r1</text>
</a>
</g>
</g>
<!-- dependency56923&#45;&gt;choice1151019945112111108105991214711510110810511011712045109971071011191049711610511545504650485052485050544511449 -->
<g id="edge21" class="edge">
<title>dependency56923:e&#45;&gt;choice1151019945112111108105991214711510110810511011712045109971071011191049711610511545504650485052485050544511449:w</title>
<path fill="none" stroke="black" stroke-dasharray="1,5" d="M934,-762C997.32,-762 975.78,-666.29 1029.15,-655.07"/>
<polygon fill="black" stroke="black" points="1038.82,-654.12 1029.31,-659.58 1035.05,-654.49 1028.87,-655.1 1028.87,-655.1 1028.87,-655.1 1035.05,-654.49 1028.43,-650.62 1038.82,-654.12"/>
</g>
<!-- dependency56925 -->
<g id="node10" class="node">
<title>dependency56925</title>
<polygon fill="none" stroke="blue" points="705,-447.5 705,-552.5 809,-552.5 809,-447.5 705,-447.5"/>
<text text-anchor="start" x="736" y="-496.12" font-family="Helvetica,sans-Serif" font-size="10.00">pack_dep</text>
<polygon fill="none" stroke="blue" points="809,-531.5 809,-552.5 919,-552.5 919,-531.5 809,-531.5"/>
<text text-anchor="start" x="857.25" y="-538" font-family="Helvetica,sans-Serif" font-size="10.00">run</text>
<polygon fill="none" stroke="blue" points="809,-510.5 809,-531.5 919,-531.5 919,-510.5 809,-510.5"/>
<text text-anchor="start" x="844.12" y="-517" font-family="Helvetica,sans-Serif" font-size="10.00">sys&#45;apps</text>
<polygon fill="none" stroke="blue" points="809,-489.5 809,-510.5 919,-510.5 919,-489.5 809,-489.5"/>
<text text-anchor="start" x="847.88" y="-496" font-family="Helvetica,sans-Serif" font-size="10.00">man&#45;db</text>
<polygon fill="none" stroke="blue" points="809,-468.5 809,-489.5 919,-489.5 919,-468.5 809,-468.5"/>
<text text-anchor="start" x="853.5" y="-475" font-family="Helvetica,sans-Serif" font-size="10.00">none</text>
<polygon fill="none" stroke="blue" points="809,-447.5 809,-468.5 919,-468.5 919,-447.5 809,-447.5"/>
<text text-anchor="start" x="858" y="-454" font-family="Helvetica,sans-Serif" font-size="10.00">[,,]</text>
</g>
<!-- dependency56924&#45;&gt;dependency56925 -->
<g id="edge8" class="edge">
<title>dependency56924:e&#45;&gt;dependency56925:w</title>
<path fill="none" stroke="black" stroke-dasharray="5,2" d="M589,-484C633.64,-484 646.48,-497.54 686.03,-499.71"/>
<polygon fill="black" stroke="black" points="695.78,-499.97 685.67,-504.2 692,-499.87 685.79,-499.7 685.79,-499.7 685.79,-499.7 692,-499.87 685.91,-495.2 695.78,-499.97"/>
</g>
<!-- dependency56925&#45;&gt;choice1151211154597112112115471099711045100984557575757 -->
<g id="edge22" class="edge">
<title>dependency56925:e&#45;&gt;choice1151211154597112112115471099711045100984557575757:w</title>
<path fill="none" stroke="black" stroke-dasharray="1,5" d="M934,-500C1058.17,-500 927.4,-250.8 1036.13,-235.71"/>
<polygon fill="black" stroke="black" points="1045.81,-235.08 1036.13,-240.22 1042.04,-235.33 1035.84,-235.73 1035.84,-235.73 1035.84,-235.73 1042.04,-235.33 1035.54,-231.24 1045.81,-235.08"/>
</g>
<!-- dependency56925&#45;&gt;choice11512111545971121121154710997110451009845504649504649 -->
<g id="edge23" class="edge">
<title>dependency56925:e&#45;&gt;choice11512111545971121121154710997110451009845504649504649:w</title>
<path fill="none" stroke="black" stroke-dasharray="1,5" d="M934,-500C1080.6,-500 905.93,-196.99 1036.22,-181.61"/>
<polygon fill="black" stroke="black" points="1045.81,-181.07 1036.08,-186.12 1042.04,-181.28 1035.83,-181.63 1035.83,-181.63 1035.83,-181.63 1042.04,-181.28 1035.58,-177.14 1045.81,-181.07"/>
</g>
<!-- dependency56925&#45;&gt;choice11512111545971121121154710997110451009845504649504648 -->
<g id="edge24" class="edge">
<title>dependency56925:e&#45;&gt;choice11512111545971121121154710997110451009845504649504648:w</title>
<path fill="none" stroke="black" stroke-dasharray="1,5" d="M934,-500C1103.33,-500 884.09,-143.57 1035.96,-127.56"/>
<polygon fill="black" stroke="black" points="1045.81,-127.06 1036.05,-132.06 1042.04,-127.25 1035.83,-127.56 1035.83,-127.56 1035.83,-127.56 1042.04,-127.25 1035.6,-123.07 1045.81,-127.06"/>
</g>
<!-- dependency56925&#45;&gt;choice11512111545971121121154710997110451009845504649494650 -->
<g id="edge25" class="edge">
<title>dependency56925:e&#45;&gt;choice11512111545971121121154710997110451009845504649494650:w</title>
<path fill="none" stroke="black" stroke-dasharray="1,5" d="M934,-500C1036.44,-500 947.76,-304.37 1036.02,-289.85"/>
<polygon fill="black" stroke="black" points="1045.82,-289.09 1036.19,-294.35 1042.05,-289.38 1035.85,-289.86 1035.85,-289.86 1035.85,-289.86 1042.05,-289.38 1035.5,-285.38 1045.82,-289.09"/>
</g>
<!-- dependency56926&#45;&gt;choice115121115451081059811547122108105984549465146494511449 -->
<g id="edge26" class="edge">
<title>dependency56926:e&#45;&gt;choice115121115451081059811547122108105984549465146494511449:w</title>
<path fill="none" stroke="black" stroke-dasharray="1,5" d="M934,-631C1045.55,-631 939.32,-412.72 1035.99,-397.8"/>
<polygon fill="black" stroke="black" points="1045.82,-397.09 1036.17,-402.3 1042.04,-397.36 1035.84,-397.81 1035.84,-397.81 1035.84,-397.81 1042.04,-397.36 1035.52,-393.32 1045.82,-397.09"/>
</g>
<!-- dependency56926&#45;&gt;choice11512111545108105981154712210810598454946514511452 -->
<g id="edge27" class="edge">
<title>dependency56926:e&#45;&gt;choice11512111545108105981154712210810598454946514511452:w</title>
<path fill="none" stroke="black" stroke-dasharray="1,5" d="M934,-631C1067.61,-631 918.46,-359.08 1036.05,-343.68"/>
<polygon fill="black" stroke="black" points="1045.81,-343.08 1036.11,-348.19 1042.04,-343.31 1035.83,-343.69 1035.83,-343.69 1035.83,-343.69 1042.04,-343.31 1035.56,-339.2 1045.81,-343.08"/>
</g>
</g>
</svg>
