<?xml version="1.0" encoding="UTF-8" standalone="no"?>
<!DOCTYPE svg PUBLIC "-//W3C//DTD SVG 1.1//EN"
 "http://www.w3.org/Graphics/SVG/1.1/DTD/svg11.dtd">
<!-- Generated by graphviz version 2.44.1 (20200629.0846)
 -->
<!-- Title: prolog Pages: 1 -->
<svg width="1326pt" height="886pt"
 viewBox="0.00 0.00 1326.00 886.00" xmlns="http://www.w3.org/2000/svg" xmlns:xlink="http://www.w3.org/1999/xlink">
<g id="graph0" class="graph" transform="scale(1 1) rotate(0) translate(4 882)">
<title>prolog</title>
<polygon fill="white" stroke="transparent" points="-4,4 -4,-882 1322,-882 1322,4 -4,4"/>
<g id="clust1" class="cluster">
<title>cluster_leftcol</title>
<polygon fill="none" stroke="gray" points="8,-326 8,-398 312,-398 312,-326 8,-326"/>
<text text-anchor="start" x="146.66" y="-386" font-family="Helvetica,sans-Serif" font-style="italic" font-size="10.00">ebuild</text>
</g>
<g id="clust2" class="cluster">
<title>cluster_midcol</title>
<polygon fill="none" stroke="gray" points="396,-8 396,-870 922,-870 922,-8 396,-8"/>
<text text-anchor="start" x="627.88" y="-858" font-family="Helvetica,sans-Serif" font-style="italic" font-size="10.00">dependencies</text>
</g>
<g id="clust3" class="cluster">
<title>cluster_compile</title>
<polygon fill="#eeeeee" stroke="gray" points="404,-166 404,-842 914,-842 914,-166 404,-166"/>
<text text-anchor="start" x="641.78" y="-830" font-family="Helvetica,sans-Serif" font-style="italic" font-size="10.00">compile</text>
</g>
<g id="clust11" class="cluster">
<title>cluster_run</title>
<polygon fill="#eeeeee" stroke="gray" points="662,-16 662,-158 914,-158 914,-16 662,-16"/>
<text text-anchor="start" x="780.78" y="-146" font-family="Helvetica,sans-Serif" font-style="italic" font-size="10.00">run</text>
</g>
<g id="clust13" class="cluster">
<title>cluster_choices</title>
<polygon fill="none" stroke="gray" points="1006,-71 1006,-845 1310,-845 1310,-71 1006,-71"/>
<text text-anchor="start" x="1133.82" y="-833" font-family="Helvetica,sans-Serif" font-style="italic" font-size="10.00">candidates</text>
</g>
<!-- id -->
<g id="node1" class="node">
<title>id</title>
<g id="a_node1"><a xlink:href="../app-text/peg-markdown-0.4.14.svg" xlink:title="portage://app&#45;text/peg&#45;markdown&#45;0.4.14">
<ellipse fill="none" stroke="red" cx="160" cy="-352" rx="144" ry="18"/>
<text text-anchor="middle" x="160" y="-349" font-family="Helvetica,sans-Serif" font-size="10.00">portage://app&#45;text/peg&#45;markdown&#45;0.4.14</text>
</a>
</g>
</g>
<!-- dependency593964 -->
<g id="node2" class="node">
<title>dependency593964</title>
<polygon fill="none" stroke="red" points="420,-534 420,-578 511,-578 511,-534 420,-534"/>
<text text-anchor="start" x="430.77" y="-553" font-family="Helvetica,sans-Serif" font-size="10.00">use_conditional</text>
<polygon fill="none" stroke="red" points="511,-556 511,-578 554,-578 554,-556 511,-556"/>
<text text-anchor="start" x="515.55" y="-564" font-family="Helvetica,sans-Serif" font-size="10.00">positive</text>
<polygon fill="none" stroke="red" points="511,-534 511,-556 554,-556 554,-534 511,-534"/>
<text text-anchor="start" x="524.44" y="-542" font-family="Helvetica,sans-Serif" font-size="10.00">test</text>
</g>
<!-- id&#45;&gt;dependency593964 -->
<g id="edge4" class="edge">
<title>id:e&#45;&gt;dependency593964:w</title>
<path fill="none" stroke="black" d="M305,-352C403.58,-352 315.49,-541.91 400.95,-555.26"/>
<polygon fill="black" stroke="black" points="411,-556 400.7,-559.75 406.01,-555.63 401.03,-555.27 401.03,-555.27 401.03,-555.27 406.01,-555.63 401.36,-550.78 411,-556 411,-556"/>
</g>
<!-- dependency593968 -->
<g id="node6" class="node">
<title>dependency593968</title>
<polygon fill="none" stroke="blue" points="678,-178 678,-276 783,-276 783,-178 678,-178"/>
<text text-anchor="start" x="708.82" y="-224" font-family="Helvetica,sans-Serif" font-size="10.00">pack_dep</text>
<polygon fill="none" stroke="blue" points="783,-254 783,-276 893,-276 893,-254 783,-254"/>
<text text-anchor="start" x="832.44" y="-262" font-family="Helvetica,sans-Serif" font-size="10.00">no</text>
<polygon fill="none" stroke="blue" points="783,-232 783,-254 893,-254 893,-232 783,-232"/>
<text text-anchor="start" x="820.78" y="-240" font-family="Helvetica,sans-Serif" font-size="10.00">dev&#45;libs</text>
<polygon fill="none" stroke="blue" points="783,-210 783,-232 893,-232 893,-210 783,-210"/>
<text text-anchor="start" x="830.22" y="-218" font-family="Helvetica,sans-Serif" font-size="10.00">glib</text>
<polygon fill="none" stroke="blue" points="783,-188 783,-210 893,-210 893,-188 783,-188"/>
<text text-anchor="start" x="826.88" y="-196" font-family="Helvetica,sans-Serif" font-size="10.00">none</text>
<polygon fill="none" stroke="blue" points="783,-178 783,-188 893,-188 893,-178 783,-178"/>
</g>
<!-- id&#45;&gt;dependency593968 -->
<g id="edge5" class="edge">
<title>id:e&#45;&gt;dependency593968:w</title>
<path fill="none" stroke="black" d="M488,-148C521.02,-142.53 530.75,-150.01 562,-162 610.6,-180.65 613.22,-221.3 658.91,-226.46"/>
<polygon fill="black" stroke="black" points="669,-227 658.77,-230.96 664.01,-226.73 659.01,-226.46 659.01,-226.46 659.01,-226.46 664.01,-226.73 659.26,-221.97 669,-227 669,-227"/>
</g>
<!-- dependency593969 -->
<g id="node7" class="node">
<title>dependency593969</title>
<polygon fill="none" stroke="blue" points="678,-302 678,-400 783,-400 783,-302 678,-302"/>
<text text-anchor="start" x="708.82" y="-348" font-family="Helvetica,sans-Serif" font-size="10.00">pack_dep</text>
<polygon fill="none" stroke="blue" points="783,-378 783,-400 893,-400 893,-378 783,-378"/>
<text text-anchor="start" x="832.44" y="-386" font-family="Helvetica,sans-Serif" font-size="10.00">no</text>
<polygon fill="none" stroke="blue" points="783,-356 783,-378 893,-378 893,-356 783,-356"/>
<text text-anchor="start" x="821.89" y="-364" font-family="Helvetica,sans-Serif" font-size="10.00">dev&#45;util</text>
<polygon fill="none" stroke="blue" points="783,-334 783,-356 893,-356 893,-334 783,-334"/>
<text text-anchor="start" x="829.66" y="-342" font-family="Helvetica,sans-Serif" font-size="10.00">peg</text>
<polygon fill="none" stroke="blue" points="783,-312 783,-334 893,-334 893,-312 783,-312"/>
<text text-anchor="start" x="826.88" y="-320" font-family="Helvetica,sans-Serif" font-size="10.00">none</text>
<polygon fill="none" stroke="blue" points="783,-302 783,-312 893,-312 893,-302 783,-302"/>
</g>
<!-- id&#45;&gt;dependency593969 -->
<g id="edge6" class="edge">
<title>id:e&#45;&gt;dependency593969:w</title>
<path fill="none" stroke="black" d="M488,-148C521.02,-142.53 534.78,-142.52 562,-162 637.58,-216.1 577.32,-341.25 658.92,-350.46"/>
<polygon fill="black" stroke="black" points="669,-351 658.77,-354.96 664.01,-350.73 659.01,-350.47 659.01,-350.47 659.01,-350.47 664.01,-350.73 659.25,-345.97 669,-351 669,-351"/>
</g>
<!-- dependency593970 -->
<g id="node8" class="node">
<title>dependency593970</title>
<polygon fill="none" stroke="blue" points="678,-28 678,-126 783,-126 783,-28 678,-28"/>
<text text-anchor="start" x="708.82" y="-74" font-family="Helvetica,sans-Serif" font-size="10.00">pack_dep</text>
<polygon fill="none" stroke="blue" points="783,-104 783,-126 893,-126 893,-104 783,-104"/>
<text text-anchor="start" x="832.44" y="-112" font-family="Helvetica,sans-Serif" font-size="10.00">no</text>
<polygon fill="none" stroke="blue" points="783,-82 783,-104 893,-104 893,-82 783,-82"/>
<text text-anchor="start" x="820.78" y="-90" font-family="Helvetica,sans-Serif" font-size="10.00">dev&#45;libs</text>
<polygon fill="none" stroke="blue" points="783,-60 783,-82 893,-82 893,-60 783,-60"/>
<text text-anchor="start" x="830.22" y="-68" font-family="Helvetica,sans-Serif" font-size="10.00">glib</text>
<polygon fill="none" stroke="blue" points="783,-38 783,-60 893,-60 893,-38 783,-38"/>
<text text-anchor="start" x="826.88" y="-46" font-family="Helvetica,sans-Serif" font-size="10.00">none</text>
<polygon fill="none" stroke="blue" points="783,-28 783,-38 893,-38 893,-28 783,-28"/>
</g>
<!-- id&#45;&gt;dependency593970 -->
<g id="edge7" class="edge">
<title>id:e&#45;&gt;dependency593970:w</title>
<path fill="none" stroke="black" d="M488,-148C570.42,-134.35 581.88,-80.73 660.64,-77.18"/>
<ellipse fill="none" stroke="black" cx="665" cy="-77.09" rx="4" ry="4"/>
<path fill="none" stroke="black" d="M305,-352C398.63,-352 320.86,-217.86 396,-162 428.49,-137.85 446.06,-154.61 486,-148"/>
</g>
<!-- dependency593965 -->
<g id="node3" class="node">
<title>dependency593965</title>
<polygon fill="none" stroke="blue" points="678,-426 678,-524 783,-524 783,-426 678,-426"/>
<text text-anchor="start" x="708.82" y="-472" font-family="Helvetica,sans-Serif" font-size="10.00">pack_dep</text>
<polygon fill="none" stroke="blue" points="783,-502 783,-524 893,-524 893,-502 783,-502"/>
<text text-anchor="start" x="832.44" y="-510" font-family="Helvetica,sans-Serif" font-size="10.00">no</text>
<polygon fill="none" stroke="blue" points="783,-480 783,-502 893,-502 893,-480 783,-480"/>
<text text-anchor="start" x="818.83" y="-488" font-family="Helvetica,sans-Serif" font-size="10.00">dev&#45;lang</text>
<polygon fill="none" stroke="blue" points="783,-458 783,-480 893,-480 893,-458 783,-458"/>
<text text-anchor="start" x="829.67" y="-466" font-family="Helvetica,sans-Serif" font-size="10.00">perl</text>
<polygon fill="none" stroke="blue" points="783,-436 783,-458 893,-458 893,-436 783,-436"/>
<text text-anchor="start" x="826.88" y="-444" font-family="Helvetica,sans-Serif" font-size="10.00">none</text>
<polygon fill="none" stroke="blue" points="783,-426 783,-436 893,-436 893,-426 783,-426"/>
</g>
<!-- dependency593964&#45;&gt;dependency593965 -->
<g id="edge1" class="edge">
<title>dependency593964:e&#45;&gt;dependency593965:w</title>
<path fill="none" stroke="black" stroke-dasharray="5,2" d="M562,-556C618.03,-556 610.58,-484.51 658.93,-475.85"/>
<polygon fill="black" stroke="black" points="669,-475 659.42,-480.33 664.02,-475.42 659.04,-475.85 659.04,-475.85 659.04,-475.85 664.02,-475.42 658.66,-471.36 669,-475 669,-475"/>
</g>
<!-- dependency593966 -->
<g id="node4" class="node">
<title>dependency593966</title>
<polygon fill="none" stroke="blue" points="678,-588 678,-686 783,-686 783,-588 678,-588"/>
<text text-anchor="start" x="708.82" y="-634" font-family="Helvetica,sans-Serif" font-size="10.00">pack_dep</text>
<polygon fill="none" stroke="blue" points="783,-664 783,-686 893,-686 893,-664 783,-664"/>
<text text-anchor="start" x="832.44" y="-672" font-family="Helvetica,sans-Serif" font-size="10.00">no</text>
<polygon fill="none" stroke="blue" points="783,-642 783,-664 893,-664 893,-642 783,-642"/>
<text text-anchor="start" x="824.67" y="-650" font-family="Helvetica,sans-Serif" font-size="10.00">virtual</text>
<polygon fill="none" stroke="blue" points="783,-620 783,-642 893,-642 893,-620 783,-620"/>
<text text-anchor="start" x="800.21" y="-628" font-family="Helvetica,sans-Serif" font-size="10.00">perl&#45;Getopt&#45;Long</text>
<polygon fill="none" stroke="blue" points="783,-598 783,-620 893,-620 893,-598 783,-598"/>
<text text-anchor="start" x="826.88" y="-606" font-family="Helvetica,sans-Serif" font-size="10.00">none</text>
<polygon fill="none" stroke="blue" points="783,-588 783,-598 893,-598 893,-588 783,-588"/>
</g>
<!-- dependency593964&#45;&gt;dependency593966 -->
<g id="edge2" class="edge">
<title>dependency593964:e&#45;&gt;dependency593966:w</title>
<path fill="none" stroke="black" stroke-dasharray="5,2" d="M562,-556C618.03,-556 610.58,-627.49 658.93,-636.15"/>
<polygon fill="black" stroke="black" points="669,-637 658.66,-640.64 664.02,-636.58 659.04,-636.15 659.04,-636.15 659.04,-636.15 664.02,-636.58 659.42,-631.67 669,-637 669,-637"/>
</g>
<!-- dependency593967 -->
<g id="node5" class="node">
<title>dependency593967</title>
<polygon fill="none" stroke="blue" points="678,-712 678,-810 783,-810 783,-712 678,-712"/>
<text text-anchor="start" x="708.82" y="-758" font-family="Helvetica,sans-Serif" font-size="10.00">pack_dep</text>
<polygon fill="none" stroke="blue" points="783,-788 783,-810 893,-810 893,-788 783,-788"/>
<text text-anchor="start" x="832.44" y="-796" font-family="Helvetica,sans-Serif" font-size="10.00">no</text>
<polygon fill="none" stroke="blue" points="783,-766 783,-788 893,-788 893,-766 783,-766"/>
<text text-anchor="start" x="819.94" y="-774" font-family="Helvetica,sans-Serif" font-size="10.00">app&#45;text</text>
<polygon fill="none" stroke="blue" points="783,-744 783,-766 893,-766 893,-744 783,-744"/>
<text text-anchor="start" x="820.78" y="-752" font-family="Helvetica,sans-Serif" font-size="10.00">htmltidy</text>
<polygon fill="none" stroke="blue" points="783,-722 783,-744 893,-744 893,-722 783,-722"/>
<text text-anchor="start" x="826.88" y="-730" font-family="Helvetica,sans-Serif" font-size="10.00">none</text>
<polygon fill="none" stroke="blue" points="783,-712 783,-722 893,-722 893,-712 783,-712"/>
</g>
<!-- dependency593964&#45;&gt;dependency593967 -->
<g id="edge3" class="edge">
<title>dependency593964:e&#45;&gt;dependency593967:w</title>
<path fill="none" stroke="black" stroke-dasharray="5,2" d="M562,-556C661.16,-556 572.91,-746.84 658.89,-760.26"/>
<polygon fill="black" stroke="black" points="669,-761 658.7,-764.76 664.01,-760.63 659.03,-760.27 659.03,-760.27 659.03,-760.27 664.01,-760.63 659.36,-755.78 669,-761 669,-761"/>
</g>
<!-- choice10010111845108971101034711210111410845534651484649 -->
<g id="node9" class="node">
<title>choice10010111845108971101034711210111410845534651484649</title>
<g id="a_node9"><a xlink:href="../dev-lang/perl-5.30.1.svg" xlink:title="portage://dev&#45;lang/perl&#45;5.30.1">
<ellipse fill="none" stroke="red" cx="1158" cy="-367" rx="144" ry="18"/>
<text text-anchor="middle" x="1158" y="-364" font-family="Helvetica,sans-Serif" font-size="10.00">portage://dev&#45;lang/perl&#45;5.30.1</text>
</a>
</g>
</g>
<!-- dependency593965&#45;&gt;choice10010111845108971101034711210111410845534651484649 -->
<g id="edge8" class="edge">
<title>dependency593965:e&#45;&gt;choice10010111845108971101034711210111410845534651484649:w</title>
<path fill="none" stroke="black" stroke-dasharray="1,5" d="M907,-475C970.58,-475 948.58,-378.49 1002.79,-367.93"/>
<polygon fill="black" stroke="black" points="1013,-367 1003.45,-372.39 1008.02,-367.46 1003.04,-367.91 1003.04,-367.91 1003.04,-367.91 1008.02,-367.46 1002.63,-363.43 1013,-367 1013,-367"/>
</g>
<!-- choice100101118451089711010347112101114108455346505646504511449 -->
<g id="node10" class="node">
<title>choice100101118451089711010347112101114108455346505646504511449</title>
<g id="a_node10"><a xlink:href="../dev-lang/perl-5.28.2-r1.svg" xlink:title="portage://dev&#45;lang/perl&#45;5.28.2&#45;r1">
<ellipse fill="none" stroke="red" cx="1158" cy="-583" rx="144" ry="18"/>
<text text-anchor="middle" x="1158" y="-580" font-family="Helvetica,sans-Serif" font-size="10.00">portage://dev&#45;lang/perl&#45;5.28.2&#45;r1</text>
</a>
</g>
</g>
<!-- dependency593965&#45;&gt;choice100101118451089711010347112101114108455346505646504511449 -->
<g id="edge9" class="edge">
<title>dependency593965:e&#45;&gt;choice100101118451089711010347112101114108455346505646504511449:w</title>
<path fill="none" stroke="black" stroke-dasharray="1,5" d="M907,-475C970.58,-475 948.58,-571.51 1002.79,-582.07"/>
<polygon fill="black" stroke="black" points="1013,-583 1002.63,-586.57 1008.02,-582.54 1003.04,-582.09 1003.04,-582.09 1003.04,-582.09 1008.02,-582.54 1003.45,-577.61 1013,-583 1013,-583"/>
</g>
<!-- choice10010111845108971101034711210111410845534650544650 -->
<g id="node11" class="node">
<title>choice10010111845108971101034711210111410845534650544650</title>
<g id="a_node11"><a xlink:href="../dev-lang/perl-5.26.2.svg" xlink:title="portage://dev&#45;lang/perl&#45;5.26.2">
<ellipse fill="none" stroke="red" cx="1158" cy="-529" rx="144" ry="18"/>
<text text-anchor="middle" x="1158" y="-526" font-family="Helvetica,sans-Serif" font-size="10.00">portage://dev&#45;lang/perl&#45;5.26.2</text>
</a>
</g>
</g>
<!-- dependency593965&#45;&gt;choice10010111845108971101034711210111410845534650544650 -->
<g id="edge10" class="edge">
<title>dependency593965:e&#45;&gt;choice10010111845108971101034711210111410845534650544650:w</title>
<path fill="none" stroke="black" stroke-dasharray="1,5" d="M907,-475C956.26,-475 959.85,-521.87 1002.86,-528.28"/>
<polygon fill="black" stroke="black" points="1013,-529 1002.71,-532.78 1008.01,-528.64 1003.03,-528.29 1003.03,-528.29 1003.03,-528.29 1008.01,-528.64 1003.35,-523.8 1013,-529 1013,-529"/>
</g>
<!-- choice10010111845108971101034711210111410845534650524652 -->
<g id="node12" class="node">
<title>choice10010111845108971101034711210111410845534650524652</title>
<g id="a_node12"><a xlink:href="../dev-lang/perl-5.24.4.svg" xlink:title="portage://dev&#45;lang/perl&#45;5.24.4">
<ellipse fill="none" stroke="red" cx="1158" cy="-475" rx="144" ry="18"/>
<text text-anchor="middle" x="1158" y="-472" font-family="Helvetica,sans-Serif" font-size="10.00">portage://dev&#45;lang/perl&#45;5.24.4</text>
</a>
</g>
</g>
<!-- dependency593965&#45;&gt;choice10010111845108971101034711210111410845534650524652 -->
<g id="edge11" class="edge">
<title>dependency593965:e&#45;&gt;choice10010111845108971101034711210111410845534650524652:w</title>
<path fill="none" stroke="black" stroke-dasharray="1,5" d="M907,-475C950.43,-475 963.83,-475 1002.57,-475"/>
<polygon fill="black" stroke="black" points="1013,-475 1003,-479.5 1008,-475 1003,-475 1003,-475 1003,-475 1008,-475 1003,-470.5 1013,-475 1013,-475"/>
</g>
<!-- choice100101118451089711010347112101114108455346505246514511449 -->
<g id="node13" class="node">
<title>choice100101118451089711010347112101114108455346505246514511449</title>
<g id="a_node13"><a xlink:href="../dev-lang/perl-5.24.3-r1.svg" xlink:title="portage://dev&#45;lang/perl&#45;5.24.3&#45;r1">
<ellipse fill="none" stroke="red" cx="1158" cy="-421" rx="144" ry="18"/>
<text text-anchor="middle" x="1158" y="-418" font-family="Helvetica,sans-Serif" font-size="10.00">portage://dev&#45;lang/perl&#45;5.24.3&#45;r1</text>
</a>
</g>
</g>
<!-- dependency593965&#45;&gt;choice100101118451089711010347112101114108455346505246514511449 -->
<g id="edge12" class="edge">
<title>dependency593965:e&#45;&gt;choice100101118451089711010347112101114108455346505246514511449:w</title>
<path fill="none" stroke="black" stroke-dasharray="1,5" d="M907,-475C956.26,-475 959.85,-428.13 1002.86,-421.72"/>
<polygon fill="black" stroke="black" points="1013,-421 1003.35,-426.2 1008.01,-421.36 1003.03,-421.71 1003.03,-421.71 1003.03,-421.71 1008.01,-421.36 1002.71,-417.22 1013,-421 1013,-421"/>
</g>
<!-- choice11810511411611797108471121011141084571101116111112116457611111010345504653484846484511449 -->
<g id="node14" class="node">
<title>choice11810511411611797108471121011141084571101116111112116457611111010345504653484846484511449</title>
<g id="a_node14"><a xlink:href="../virtual/perl-Getopt-Long-2.500.0-r1.svg" xlink:title="portage://virtual/perl&#45;Getopt&#45;Long&#45;2.500.0&#45;r1">
<ellipse fill="none" stroke="red" cx="1158" cy="-691" rx="144" ry="18"/>
<text text-anchor="middle" x="1158" y="-688" font-family="Helvetica,sans-Serif" font-size="10.00">portage://virtual/perl&#45;Getopt&#45;Long&#45;2.500.0&#45;r1</text>
</a>
</g>
</g>
<!-- dependency593966&#45;&gt;choice11810511411611797108471121011141084571101116111112116457611111010345504653484846484511449 -->
<g id="edge13" class="edge">
<title>dependency593966:e&#45;&gt;choice11810511411611797108471121011141084571101116111112116457611111010345504653484846484511449:w</title>
<path fill="none" stroke="black" stroke-dasharray="1,5" d="M907,-637C956.26,-637 959.85,-683.87 1002.86,-690.28"/>
<polygon fill="black" stroke="black" points="1013,-691 1002.71,-694.78 1008.01,-690.64 1003.03,-690.29 1003.03,-690.29 1003.03,-690.29 1008.01,-690.64 1003.35,-685.8 1013,-691 1013,-691"/>
</g>
<!-- choice1181051141161179710847112101114108457110111611111211645761111101034550465257484648 -->
<g id="node15" class="node">
<title>choice1181051141161179710847112101114108457110111611111211645761111101034550465257484648</title>
<g id="a_node15"><a xlink:href="../virtual/perl-Getopt-Long-2.490.0.svg" xlink:title="portage://virtual/perl&#45;Getopt&#45;Long&#45;2.490.0">
<ellipse fill="none" stroke="red" cx="1158" cy="-637" rx="144" ry="18"/>
<text text-anchor="middle" x="1158" y="-634" font-family="Helvetica,sans-Serif" font-size="10.00">portage://virtual/perl&#45;Getopt&#45;Long&#45;2.490.0</text>
</a>
</g>
</g>
<!-- dependency593966&#45;&gt;choice1181051141161179710847112101114108457110111611111211645761111101034550465257484648 -->
<g id="edge14" class="edge">
<title>dependency593966:e&#45;&gt;choice1181051141161179710847112101114108457110111611111211645761111101034550465257484648:w</title>
<path fill="none" stroke="black" stroke-dasharray="1,5" d="M907,-637C950.43,-637 963.83,-637 1002.57,-637"/>
<polygon fill="black" stroke="black" points="1013,-637 1003,-641.5 1008,-637 1003,-637 1003,-637 1003,-637 1008,-637 1003,-632.5 1013,-637 1013,-637"/>
</g>
<!-- choice11810511411611797108471121011141084571101116111112116457611111010345504652564846484511449 -->
<g id="node16" class="node">
<title>choice11810511411611797108471121011141084571101116111112116457611111010345504652564846484511449</title>
<g id="a_node16"><a xlink:href="../virtual/perl-Getopt-Long-2.480.0-r1.svg" xlink:title="portage://virtual/perl&#45;Getopt&#45;Long&#45;2.480.0&#45;r1">
<ellipse fill="none" stroke="red" cx="1158" cy="-745" rx="144" ry="18"/>
<text text-anchor="middle" x="1158" y="-742" font-family="Helvetica,sans-Serif" font-size="10.00">portage://virtual/perl&#45;Getopt&#45;Long&#45;2.480.0&#45;r1</text>
</a>
</g>
</g>
<!-- dependency593966&#45;&gt;choice11810511411611797108471121011141084571101116111112116457611111010345504652564846484511449 -->
<g id="edge15" class="edge">
<title>dependency593966:e&#45;&gt;choice11810511411611797108471121011141084571101116111112116457611111010345504652564846484511449:w</title>
<path fill="none" stroke="black" stroke-dasharray="1,5" d="M907,-637C970.58,-637 948.58,-733.51 1002.79,-744.07"/>
<polygon fill="black" stroke="black" points="1013,-745 1002.63,-748.57 1008.02,-744.54 1003.04,-744.09 1003.04,-744.09 1003.04,-744.09 1008.02,-744.54 1003.45,-739.61 1013,-745 1013,-745"/>
</g>
<!-- choice9711211245116101120116471041161091081161051001214550484857485150534511450 -->
<g id="node17" class="node">
<title>choice9711211245116101120116471041161091081161051001214550484857485150534511450</title>
<g id="a_node17"><a xlink:href="../app-text/htmltidy-20090325-r2.svg" xlink:title="portage://app&#45;text/htmltidy&#45;20090325&#45;r2">
<ellipse fill="none" stroke="red" cx="1158" cy="-799" rx="144" ry="18"/>
<text text-anchor="middle" x="1158" y="-796" font-family="Helvetica,sans-Serif" font-size="10.00">portage://app&#45;text/htmltidy&#45;20090325&#45;r2</text>
</a>
</g>
</g>
<!-- dependency593967&#45;&gt;choice9711211245116101120116471041161091081161051001214550484857485150534511450 -->
<g id="edge16" class="edge">
<title>dependency593967:e&#45;&gt;choice9711211245116101120116471041161091081161051001214550484857485150534511450:w</title>
<path fill="none" stroke="black" stroke-dasharray="1,5" d="M907,-761C953.43,-761 961.87,-793.71 1002.81,-798.43"/>
<polygon fill="black" stroke="black" points="1013,-799 1002.77,-802.94 1008.01,-798.72 1003.02,-798.44 1003.02,-798.44 1003.02,-798.44 1008.01,-798.72 1003.27,-793.95 1013,-799 1013,-799"/>
</g>
<!-- choice10010111845108105981154710310810598455046544846554511449 -->
<g id="node18" class="node">
<title>choice10010111845108105981154710310810598455046544846554511449</title>
<g id="a_node18"><a xlink:href="../dev-libs/glib-2.60.7-r1.svg" xlink:title="portage://dev&#45;libs/glib&#45;2.60.7&#45;r1">
<ellipse fill="none" stroke="red" cx="1158" cy="-205" rx="144" ry="18"/>
<text text-anchor="middle" x="1158" y="-202" font-family="Helvetica,sans-Serif" font-size="10.00">portage://dev&#45;libs/glib&#45;2.60.7&#45;r1</text>
</a>
</g>
</g>
<!-- dependency593968&#45;&gt;choice10010111845108105981154710310810598455046544846554511449 -->
<g id="edge17" class="edge">
<title>dependency593968:e&#45;&gt;choice10010111845108105981154710310810598455046544846554511449:w</title>
<path fill="none" stroke="black" stroke-dasharray="1,5" d="M907,-227C951.54,-227 963.22,-208.14 1002.89,-205.35"/>
<polygon fill="black" stroke="black" points="1013,-205 1003.16,-209.84 1008,-205.17 1003.01,-205.34 1003.01,-205.34 1003.01,-205.34 1008,-205.17 1002.85,-200.84 1013,-205 1013,-205"/>
</g>
<!-- choice1001011184510810598115471031081059845504654484655 -->
<g id="node19" class="node">
<title>choice1001011184510810598115471031081059845504654484655</title>
<g id="a_node19"><a xlink:href="../dev-libs/glib-2.60.7.svg" xlink:title="portage://dev&#45;libs/glib&#45;2.60.7">
<ellipse fill="none" stroke="red" cx="1158" cy="-151" rx="144" ry="18"/>
<text text-anchor="middle" x="1158" y="-148" font-family="Helvetica,sans-Serif" font-size="10.00">portage://dev&#45;libs/glib&#45;2.60.7</text>
</a>
</g>
</g>
<!-- dependency593968&#45;&gt;choice1001011184510810598115471031081059845504654484655 -->
<g id="edge18" class="edge">
<title>dependency593968:e&#45;&gt;choice1001011184510810598115471031081059845504654484655:w</title>
<path fill="none" stroke="black" stroke-dasharray="1,5" d="M907,-227C961.35,-227 956.01,-160.2 1002.89,-151.85"/>
<polygon fill="black" stroke="black" points="1013,-151 1003.41,-156.33 1008.02,-151.42 1003.04,-151.84 1003.04,-151.84 1003.04,-151.84 1008.02,-151.42 1002.66,-147.36 1013,-151 1013,-151"/>
</g>
<!-- choice10010111845108105981154710310810598455046535646514511449 -->
<g id="node20" class="node">
<title>choice10010111845108105981154710310810598455046535646514511449</title>
<g id="a_node20"><a xlink:href="../dev-libs/glib-2.58.3-r1.svg" xlink:title="portage://dev&#45;libs/glib&#45;2.58.3&#45;r1">
<ellipse fill="none" stroke="red" cx="1158" cy="-97" rx="144" ry="18"/>
<text text-anchor="middle" x="1158" y="-94" font-family="Helvetica,sans-Serif" font-size="10.00">portage://dev&#45;libs/glib&#45;2.58.3&#45;r1</text>
</a>
</g>
</g>
<!-- dependency593968&#45;&gt;choice10010111845108105981154710310810598455046535646514511449 -->
<g id="edge19" class="edge">
<title>dependency593968:e&#45;&gt;choice10010111845108105981154710310810598455046535646514511449:w</title>
<path fill="none" stroke="black" stroke-dasharray="1,5" d="M907,-227C977.91,-227 942.38,-109.39 1002.89,-97.9"/>
<polygon fill="black" stroke="black" points="1013,-97 1003.44,-102.37 1008.02,-97.44 1003.04,-97.89 1003.04,-97.89 1003.04,-97.89 1008.02,-97.44 1002.64,-93.4 1013,-97 1013,-97"/>
</g>
<!-- choice100101118451171161051084711210110345484649464956 -->
<g id="node21" class="node">
<title>choice100101118451171161051084711210110345484649464956</title>
<g id="a_node21"><a xlink:href="../dev-util/peg-0.1.18.svg" xlink:title="portage://dev&#45;util/peg&#45;0.1.18">
<ellipse fill="none" stroke="red" cx="1158" cy="-313" rx="144" ry="18"/>
<text text-anchor="middle" x="1158" y="-310" font-family="Helvetica,sans-Serif" font-size="10.00">portage://dev&#45;util/peg&#45;0.1.18</text>
</a>
</g>
</g>
<!-- dependency593969&#45;&gt;choice100101118451171161051084711210110345484649464956 -->
<g id="edge20" class="edge">
<title>dependency593969:e&#45;&gt;choice100101118451171161051084711210110345484649464956:w</title>
<path fill="none" stroke="black" stroke-dasharray="1,5" d="M907,-351C953.43,-351 961.87,-318.29 1002.81,-313.57"/>
<polygon fill="black" stroke="black" points="1013,-313 1003.27,-318.05 1008.01,-313.28 1003.02,-313.56 1003.02,-313.56 1003.02,-313.56 1008.01,-313.28 1002.77,-309.06 1013,-313 1013,-313"/>
</g>
<!-- choice1001011184511711610510847112101103454846494649534511449 -->
<g id="node22" class="node">
<title>choice1001011184511711610510847112101103454846494649534511449</title>
<g id="a_node22"><a xlink:href="../dev-util/peg-0.1.15-r1.svg" xlink:title="portage://dev&#45;util/peg&#45;0.1.15&#45;r1">
<ellipse fill="none" stroke="red" cx="1158" cy="-259" rx="144" ry="18"/>
<text text-anchor="middle" x="1158" y="-256" font-family="Helvetica,sans-Serif" font-size="10.00">portage://dev&#45;util/peg&#45;0.1.15&#45;r1</text>
</a>
</g>
</g>
<!-- dependency593969&#45;&gt;choice1001011184511711610510847112101103454846494649534511449 -->
<g id="edge21" class="edge">
<title>dependency593969:e&#45;&gt;choice1001011184511711610510847112101103454846494649534511449:w</title>
<path fill="none" stroke="black" stroke-dasharray="1,5" d="M907,-351C965.73,-351 952.54,-269.47 1002.84,-259.91"/>
<polygon fill="black" stroke="black" points="1013,-259 1003.44,-264.37 1008.02,-259.45 1003.04,-259.89 1003.04,-259.89 1003.04,-259.89 1008.02,-259.45 1002.64,-255.41 1013,-259 1013,-259"/>
</g>
<!-- dependency593970&#45;&gt;choice10010111845108105981154710310810598455046544846554511449 -->
<g id="edge22" class="edge">
<title>dependency593970:e&#45;&gt;choice10010111845108105981154710310810598455046544846554511449:w</title>
<path fill="none" stroke="black" stroke-dasharray="1,5" d="M907,-77C977.26,-77 942.94,-192.81 1002.98,-204.11"/>
<polygon fill="black" stroke="black" points="1013,-205 1002.64,-208.6 1008.02,-204.56 1003.04,-204.12 1003.04,-204.12 1003.04,-204.12 1008.02,-204.56 1003.44,-199.64 1013,-205 1013,-205"/>
</g>
<!-- dependency593970&#45;&gt;choice1001011184510810598115471031081059845504654484655 -->
<g id="edge23" class="edge">
<title>dependency593970:e&#45;&gt;choice1001011184510810598115471031081059845504654484655:w</title>
<path fill="none" stroke="black" stroke-dasharray="1,5" d="M907,-77C960.86,-77 956.4,-142.04 1002.97,-150.17"/>
<polygon fill="black" stroke="black" points="1013,-151 1002.66,-154.66 1008.02,-150.59 1003.03,-150.17 1003.03,-150.17 1003.03,-150.17 1008.02,-150.59 1003.41,-145.69 1013,-151 1013,-151"/>
</g>
<!-- dependency593970&#45;&gt;choice10010111845108105981154710310810598455046535646514511449 -->
<g id="edge24" class="edge">
<title>dependency593970:e&#45;&gt;choice10010111845108105981154710310810598455046535646514511449:w</title>
<path fill="none" stroke="black" stroke-dasharray="1,5" d="M907,-77C951.38,-77 963.35,-94.14 1002.92,-96.69"/>
<polygon fill="black" stroke="black" points="1013,-97 1002.86,-101.19 1008,-96.84 1003,-96.69 1003,-96.69 1003,-96.69 1008,-96.84 1003.15,-92.19 1013,-97 1013,-97"/>
</g>
</g>
</svg>
