<?xml version="1.0" encoding="UTF-8" standalone="no"?>
<!DOCTYPE svg PUBLIC "-//W3C//DTD SVG 1.1//EN"
 "http://www.w3.org/Graphics/SVG/1.1/DTD/svg11.dtd">
<!-- Generated by graphviz version 9.0.0 (20230911.1827)
 -->
<!-- Title: prolog Pages: 1 -->
<svg width="1068pt" height="1755pt"
 viewBox="0.00 0.00 1068.00 1755.00" xmlns="http://www.w3.org/2000/svg" xmlns:xlink="http://www.w3.org/1999/xlink">
<g id="graph0" class="graph" transform="scale(1 1) rotate(0) translate(4 1751)">
<title>prolog</title>
<polygon fill="white" stroke="none" points="-4,4 -4,-1751 1064,-1751 1064,4 -4,4"/>
<g id="clust1" class="cluster">
<title>cluster_leftcol</title>
<polygon fill="none" stroke="gray" points="8,-829 8,-900 312,-900 312,-829 8,-829"/>
<text text-anchor="start" x="147.25" y="-887.5" font-family="Helvetica,sans-Serif" font-style="italic" font-size="10.00">ebuild</text>
</g>
<g id="clust2" class="cluster">
<title>cluster_midcol</title>
<polygon fill="none" stroke="gray" points="396,-8 396,-1715 664,-1715 664,-8 396,-8"/>
<text text-anchor="start" x="500" y="-1702.5" font-family="Helvetica,sans-Serif" font-style="italic" font-size="10.00">dependencies</text>
</g>
<g id="clust3" class="cluster">
<title>cluster_compile</title>
<polygon fill="#eeeeee" stroke="gray" points="404,-544 404,-1688 656,-1688 656,-544 404,-544"/>
<text text-anchor="start" x="513.12" y="-1675.5" font-family="Helvetica,sans-Serif" font-style="italic" font-size="10.00">compile</text>
</g>
<g id="clust14" class="cluster">
<title>cluster_run</title>
<polygon fill="#eeeeee" stroke="gray" points="404,-16 404,-536 656,-536 656,-16 404,-16"/>
<text text-anchor="start" x="523.25" y="-523.5" font-family="Helvetica,sans-Serif" font-style="italic" font-size="10.00">run</text>
</g>
<g id="clust19" class="cluster">
<title>cluster_choices</title>
<polygon fill="none" stroke="gray" points="748,-55 748,-1739 1052,-1739 1052,-55 748,-55"/>
<text text-anchor="start" x="876.38" y="-1726.5" font-family="Helvetica,sans-Serif" font-style="italic" font-size="10.00">candidates</text>
</g>
<!-- id -->
<g id="node1" class="node">
<title>id</title>
<g id="a_node1"><a xlink:href="../app-text/trang-20151127.svg" xlink:title="portage://app&#45;text/trang&#45;20151127">
<ellipse fill="none" stroke="red" cx="160" cy="-855" rx="144" ry="18"/>
<text text-anchor="middle" x="160" y="-851.12" font-family="Helvetica,sans-Serif" font-size="10.00">portage://app&#45;text/trang&#45;20151127</text>
</a>
</g>
</g>
<!-- dependency591839 -->
<g id="node2" class="node">
<title>dependency591839</title>
<polygon fill="none" stroke="blue" points="420,-1048.5 420,-1153.5 524,-1153.5 524,-1048.5 420,-1048.5"/>
<text text-anchor="start" x="451" y="-1097.12" font-family="Helvetica,sans-Serif" font-size="10.00">pack_dep</text>
<polygon fill="none" stroke="blue" points="524,-1132.5 524,-1153.5 634,-1153.5 634,-1132.5 524,-1132.5"/>
<text text-anchor="start" x="573.75" y="-1139" font-family="Helvetica,sans-Serif" font-size="10.00">no</text>
<polygon fill="none" stroke="blue" points="524,-1111.5 524,-1132.5 634,-1132.5 634,-1111.5 524,-1111.5"/>
<text text-anchor="start" x="560.62" y="-1118" font-family="Helvetica,sans-Serif" font-size="10.00">dev&#45;java</text>
<polygon fill="none" stroke="blue" points="524,-1090.5 524,-1111.5 634,-1111.5 634,-1090.5 524,-1090.5"/>
<text text-anchor="start" x="561.38" y="-1097" font-family="Helvetica,sans-Serif" font-size="10.00">ant&#45;core</text>
<polygon fill="none" stroke="blue" points="524,-1069.5 524,-1090.5 634,-1090.5 634,-1069.5 524,-1069.5"/>
<text text-anchor="start" x="552.38" y="-1076" font-family="Helvetica,sans-Serif" font-size="10.00">greaterequal</text>
<polygon fill="none" stroke="blue" points="524,-1048.5 524,-1069.5 634,-1069.5 634,-1048.5 524,-1048.5"/>
<text text-anchor="start" x="568.12" y="-1055" font-family="Helvetica,sans-Serif" font-size="10.00">1.8.2</text>
</g>
<!-- id&#45;&gt;dependency591839 -->
<g id="edge1" class="edge">
<title>id:e&#45;&gt;dependency591839:w</title>
<path fill="none" stroke="black" d="M305,-855C420.1,-855 300.44,-1084.94 399.95,-1100.2"/>
<polygon fill="black" stroke="black" points="409.78,-1100.91 399.49,-1104.68 406.01,-1100.64 399.81,-1100.19 399.81,-1100.19 399.81,-1100.19 406.01,-1100.64 400.13,-1095.71 409.78,-1100.91"/>
</g>
<!-- dependency591840 -->
<g id="node3" class="node">
<title>dependency591840</title>
<polygon fill="none" stroke="blue" points="420,-556.5 420,-661.5 524,-661.5 524,-556.5 420,-556.5"/>
<text text-anchor="start" x="451" y="-605.12" font-family="Helvetica,sans-Serif" font-size="10.00">pack_dep</text>
<polygon fill="none" stroke="blue" points="524,-640.5 524,-661.5 634,-661.5 634,-640.5 524,-640.5"/>
<text text-anchor="start" x="573.75" y="-647" font-family="Helvetica,sans-Serif" font-size="10.00">no</text>
<polygon fill="none" stroke="blue" points="524,-619.5 524,-640.5 634,-640.5 634,-619.5 524,-619.5"/>
<text text-anchor="start" x="560.62" y="-626" font-family="Helvetica,sans-Serif" font-size="10.00">dev&#45;java</text>
<polygon fill="none" stroke="blue" points="524,-598.5 524,-619.5 634,-619.5 634,-598.5 524,-598.5"/>
<text text-anchor="start" x="555.38" y="-605" font-family="Helvetica,sans-Serif" font-size="10.00">java&#45;config</text>
<polygon fill="none" stroke="blue" points="524,-577.5 524,-598.5 634,-598.5 634,-577.5 524,-577.5"/>
<text text-anchor="start" x="552.38" y="-584" font-family="Helvetica,sans-Serif" font-size="10.00">greaterequal</text>
<polygon fill="none" stroke="blue" points="524,-556.5 524,-577.5 634,-577.5 634,-556.5 524,-556.5"/>
<text text-anchor="start" x="562.5" y="-563" font-family="Helvetica,sans-Serif" font-size="10.00">2.2.0&#45;r3</text>
</g>
<!-- id&#45;&gt;dependency591840 -->
<g id="edge2" class="edge">
<title>id:e&#45;&gt;dependency591840:w</title>
<path fill="none" stroke="black" d="M305,-855C420.1,-855 300.44,-625.06 399.95,-609.8"/>
<polygon fill="black" stroke="black" points="409.78,-609.09 400.13,-614.29 406.01,-609.36 399.81,-609.81 399.81,-609.81 399.81,-609.81 406.01,-609.36 399.49,-605.32 409.78,-609.09"/>
</g>
<!-- dependency591841 -->
<g id="node4" class="node">
<title>dependency591841</title>
<polygon fill="none" stroke="blue" points="420,-928 420,-1022 524,-1022 524,-928 420,-928"/>
<text text-anchor="start" x="451" y="-971.12" font-family="Helvetica,sans-Serif" font-size="10.00">pack_dep</text>
<polygon fill="none" stroke="blue" points="524,-1001 524,-1022 634,-1022 634,-1001 524,-1001"/>
<text text-anchor="start" x="573.75" y="-1007.5" font-family="Helvetica,sans-Serif" font-size="10.00">no</text>
<polygon fill="none" stroke="blue" points="524,-980 524,-1001 634,-1001 634,-980 524,-980"/>
<text text-anchor="start" x="560.62" y="-986.5" font-family="Helvetica,sans-Serif" font-size="10.00">dev&#45;java</text>
<polygon fill="none" stroke="blue" points="524,-959 524,-980 634,-980 634,-959 524,-959"/>
<text text-anchor="start" x="564.75" y="-965.5" font-family="Helvetica,sans-Serif" font-size="10.00">javacc</text>
<polygon fill="none" stroke="blue" points="524,-938 524,-959 634,-959 634,-938 524,-938"/>
<text text-anchor="start" x="568.5" y="-944.5" font-family="Helvetica,sans-Serif" font-size="10.00">none</text>
<polygon fill="none" stroke="blue" points="524,-928 524,-938 634,-938 634,-928 524,-928"/>
</g>
<!-- id&#45;&gt;dependency591841 -->
<g id="edge3" class="edge">
<title>id:e&#45;&gt;dependency591841:w</title>
<path fill="none" stroke="black" d="M305,-855C372.13,-855 343.61,-961.79 399.9,-973.89"/>
<polygon fill="black" stroke="black" points="409.79,-974.88 399.39,-978.36 406.02,-974.5 399.84,-973.88 399.84,-973.88 399.84,-973.88 406.02,-974.5 400.29,-969.4 409.79,-974.88"/>
</g>
<!-- dependency591842 -->
<g id="node5" class="node">
<title>dependency591842</title>
<polygon fill="none" stroke="blue" points="420,-1551.5 420,-1656.5 524,-1656.5 524,-1551.5 420,-1551.5"/>
<text text-anchor="start" x="451" y="-1600.12" font-family="Helvetica,sans-Serif" font-size="10.00">pack_dep</text>
<polygon fill="none" stroke="blue" points="524,-1635.5 524,-1656.5 634,-1656.5 634,-1635.5 524,-1635.5"/>
<text text-anchor="start" x="573.75" y="-1642" font-family="Helvetica,sans-Serif" font-size="10.00">no</text>
<polygon fill="none" stroke="blue" points="524,-1614.5 524,-1635.5 634,-1635.5 634,-1614.5 524,-1614.5"/>
<text text-anchor="start" x="560.62" y="-1621" font-family="Helvetica,sans-Serif" font-size="10.00">dev&#45;java</text>
<polygon fill="none" stroke="blue" points="524,-1593.5 524,-1614.5 634,-1614.5 634,-1593.5 524,-1593.5"/>
<text text-anchor="start" x="556.88" y="-1600" font-family="Helvetica,sans-Serif" font-size="10.00">javatoolkit</text>
<polygon fill="none" stroke="blue" points="524,-1572.5 524,-1593.5 634,-1593.5 634,-1572.5 524,-1572.5"/>
<text text-anchor="start" x="552.38" y="-1579" font-family="Helvetica,sans-Serif" font-size="10.00">greaterequal</text>
<polygon fill="none" stroke="blue" points="524,-1551.5 524,-1572.5 634,-1572.5 634,-1551.5 524,-1551.5"/>
<text text-anchor="start" x="562.5" y="-1558" font-family="Helvetica,sans-Serif" font-size="10.00">0.3.0&#45;r2</text>
</g>
<!-- id&#45;&gt;dependency591842 -->
<g id="edge4" class="edge">
<title>id:e&#45;&gt;dependency591842:w</title>
<path fill="none" stroke="black" d="M305,-855C469.33,-855 253.04,-1570.73 400.27,-1602.88"/>
<polygon fill="black" stroke="black" points="409.79,-1603.87 399.38,-1607.31 406.03,-1603.48 399.84,-1602.84 399.84,-1602.84 399.84,-1602.84 406.03,-1603.48 400.31,-1598.36 409.79,-1603.87"/>
</g>
<!-- dependency591843 -->
<g id="node6" class="node">
<title>dependency591843</title>
<polygon fill="none" stroke="blue" points="420,-1431 420,-1525 524,-1525 524,-1431 420,-1431"/>
<text text-anchor="start" x="451" y="-1474.12" font-family="Helvetica,sans-Serif" font-size="10.00">pack_dep</text>
<polygon fill="none" stroke="blue" points="524,-1504 524,-1525 634,-1525 634,-1504 524,-1504"/>
<text text-anchor="start" x="573.75" y="-1510.5" font-family="Helvetica,sans-Serif" font-size="10.00">no</text>
<polygon fill="none" stroke="blue" points="524,-1483 524,-1504 634,-1504 634,-1483 524,-1483"/>
<text text-anchor="start" x="560.62" y="-1489.5" font-family="Helvetica,sans-Serif" font-size="10.00">dev&#45;java</text>
<polygon fill="none" stroke="blue" points="524,-1462 524,-1483 634,-1483 634,-1462 524,-1462"/>
<text text-anchor="start" x="565.88" y="-1468.5" font-family="Helvetica,sans-Serif" font-size="10.00">saxon</text>
<polygon fill="none" stroke="blue" points="524,-1441 524,-1462 634,-1462 634,-1441 524,-1441"/>
<text text-anchor="start" x="568.5" y="-1447.5" font-family="Helvetica,sans-Serif" font-size="10.00">none</text>
<polygon fill="none" stroke="blue" points="524,-1431 524,-1441 634,-1441 634,-1431 524,-1431"/>
</g>
<!-- id&#45;&gt;dependency591843 -->
<g id="edge5" class="edge">
<title>id:e&#45;&gt;dependency591843:w</title>
<path fill="none" stroke="black" d="M305,-855C441.59,-855 279.89,-1444.4 400.17,-1476.63"/>
<polygon fill="black" stroke="black" points="409.79,-1477.85 399.3,-1481.05 406.04,-1477.37 399.87,-1476.59 399.87,-1476.59 399.87,-1476.59 406.04,-1477.37 400.44,-1472.13 409.79,-1477.85"/>
</g>
<!-- dependency591844 -->
<g id="node7" class="node">
<title>dependency591844</title>
<polygon fill="none" stroke="blue" points="420,-1311 420,-1405 524,-1405 524,-1311 420,-1311"/>
<text text-anchor="start" x="451" y="-1354.12" font-family="Helvetica,sans-Serif" font-size="10.00">pack_dep</text>
<polygon fill="none" stroke="blue" points="524,-1384 524,-1405 634,-1405 634,-1384 524,-1384"/>
<text text-anchor="start" x="573.75" y="-1390.5" font-family="Helvetica,sans-Serif" font-size="10.00">no</text>
<polygon fill="none" stroke="blue" points="524,-1363 524,-1384 634,-1384 634,-1363 524,-1363"/>
<text text-anchor="start" x="560.62" y="-1369.5" font-family="Helvetica,sans-Serif" font-size="10.00">dev&#45;java</text>
<polygon fill="none" stroke="blue" points="524,-1342 524,-1363 634,-1363 634,-1342 524,-1342"/>
<text text-anchor="start" x="565.5" y="-1348.5" font-family="Helvetica,sans-Serif" font-size="10.00">testng</text>
<polygon fill="none" stroke="blue" points="524,-1321 524,-1342 634,-1342 634,-1321 524,-1321"/>
<text text-anchor="start" x="568.5" y="-1327.5" font-family="Helvetica,sans-Serif" font-size="10.00">none</text>
<polygon fill="none" stroke="blue" points="524,-1311 524,-1321 634,-1321 634,-1311 524,-1311"/>
</g>
<!-- id&#45;&gt;dependency591844 -->
<g id="edge6" class="edge">
<title>id:e&#45;&gt;dependency591844:w</title>
<path fill="none" stroke="black" d="M305,-855C529.67,-855 194.03,-1341.44 400.1,-1357.59"/>
<polygon fill="black" stroke="black" points="409.78,-1357.95 399.62,-1362.07 406,-1357.81 399.79,-1357.58 399.79,-1357.58 399.79,-1357.58 406,-1357.81 399.96,-1353.08 409.78,-1357.95"/>
</g>
<!-- dependency591845 -->
<g id="node8" class="node">
<title>dependency591845</title>
<polygon fill="none" stroke="blue" points="420,-808 420,-902 524,-902 524,-808 420,-808"/>
<text text-anchor="start" x="451" y="-851.12" font-family="Helvetica,sans-Serif" font-size="10.00">pack_dep</text>
<polygon fill="none" stroke="blue" points="524,-881 524,-902 634,-902 634,-881 524,-881"/>
<text text-anchor="start" x="573.75" y="-887.5" font-family="Helvetica,sans-Serif" font-size="10.00">no</text>
<polygon fill="none" stroke="blue" points="524,-860 524,-881 634,-881 634,-860 524,-860"/>
<text text-anchor="start" x="560.62" y="-866.5" font-family="Helvetica,sans-Serif" font-size="10.00">dev&#45;java</text>
<polygon fill="none" stroke="blue" points="524,-839 524,-860 634,-860 634,-839 524,-839"/>
<text text-anchor="start" x="564.38" y="-845.5" font-family="Helvetica,sans-Serif" font-size="10.00">xerces</text>
<polygon fill="none" stroke="blue" points="524,-818 524,-839 634,-839 634,-818 524,-818"/>
<text text-anchor="start" x="568.5" y="-824.5" font-family="Helvetica,sans-Serif" font-size="10.00">none</text>
<polygon fill="none" stroke="blue" points="524,-808 524,-818 634,-818 634,-808 524,-808"/>
</g>
<!-- id&#45;&gt;dependency591845 -->
<g id="edge7" class="edge">
<title>id:e&#45;&gt;dependency591845:w</title>
<path fill="none" stroke="black" d="M305,-855C348.25,-855 361.72,-855 400.08,-855"/>
<polygon fill="black" stroke="black" points="409.78,-855 399.78,-859.5 406,-855 399.78,-855 399.78,-855 399.78,-855 406,-855 399.78,-850.5 409.78,-855"/>
</g>
<!-- dependency591846 -->
<g id="node9" class="node">
<title>dependency591846</title>
<polygon fill="none" stroke="blue" points="420,-688 420,-782 524,-782 524,-688 420,-688"/>
<text text-anchor="start" x="451" y="-731.12" font-family="Helvetica,sans-Serif" font-size="10.00">pack_dep</text>
<polygon fill="none" stroke="blue" points="524,-761 524,-782 634,-782 634,-761 524,-761"/>
<text text-anchor="start" x="573.75" y="-767.5" font-family="Helvetica,sans-Serif" font-size="10.00">no</text>
<polygon fill="none" stroke="blue" points="524,-740 524,-761 634,-761 634,-740 524,-740"/>
<text text-anchor="start" x="560.62" y="-746.5" font-family="Helvetica,sans-Serif" font-size="10.00">dev&#45;java</text>
<polygon fill="none" stroke="blue" points="524,-719 524,-740 634,-740 634,-719 524,-719"/>
<text text-anchor="start" x="529.5" y="-725.5" font-family="Helvetica,sans-Serif" font-size="10.00">xml&#45;commons&#45;resolver</text>
<polygon fill="none" stroke="blue" points="524,-698 524,-719 634,-719 634,-698 524,-698"/>
<text text-anchor="start" x="568.5" y="-704.5" font-family="Helvetica,sans-Serif" font-size="10.00">none</text>
<polygon fill="none" stroke="blue" points="524,-688 524,-698 634,-698 634,-688 524,-688"/>
</g>
<!-- id&#45;&gt;dependency591846 -->
<g id="edge8" class="edge">
<title>id:e&#45;&gt;dependency591846:w</title>
<path fill="none" stroke="black" d="M305,-855C372.13,-855 343.61,-748.21 399.9,-736.11"/>
<polygon fill="black" stroke="black" points="409.79,-735.12 400.29,-740.6 406.02,-735.5 399.84,-736.12 399.84,-736.12 399.84,-736.12 406.02,-735.5 399.39,-731.64 409.79,-735.12"/>
</g>
<!-- dependency591847 -->
<g id="node10" class="node">
<title>dependency591847</title>
<polygon fill="none" stroke="blue" points="420,-1179.5 420,-1284.5 524,-1284.5 524,-1179.5 420,-1179.5"/>
<text text-anchor="start" x="451" y="-1228.12" font-family="Helvetica,sans-Serif" font-size="10.00">pack_dep</text>
<polygon fill="none" stroke="blue" points="524,-1263.5 524,-1284.5 634,-1284.5 634,-1263.5 524,-1263.5"/>
<text text-anchor="start" x="573.75" y="-1270" font-family="Helvetica,sans-Serif" font-size="10.00">no</text>
<polygon fill="none" stroke="blue" points="524,-1242.5 524,-1263.5 634,-1263.5 634,-1242.5 524,-1242.5"/>
<text text-anchor="start" x="565.88" y="-1249" font-family="Helvetica,sans-Serif" font-size="10.00">virtual</text>
<polygon fill="none" stroke="blue" points="524,-1221.5 524,-1242.5 634,-1242.5 634,-1221.5 524,-1221.5"/>
<text text-anchor="start" x="572.62" y="-1228" font-family="Helvetica,sans-Serif" font-size="10.00">jdk</text>
<polygon fill="none" stroke="blue" points="524,-1200.5 524,-1221.5 634,-1221.5 634,-1200.5 524,-1200.5"/>
<text text-anchor="start" x="552.38" y="-1207" font-family="Helvetica,sans-Serif" font-size="10.00">greaterequal</text>
<polygon fill="none" stroke="blue" points="524,-1179.5 524,-1200.5 634,-1200.5 634,-1179.5 524,-1179.5"/>
<text text-anchor="start" x="572.25" y="-1186" font-family="Helvetica,sans-Serif" font-size="10.00">1.7</text>
</g>
<!-- id&#45;&gt;dependency591847 -->
<g id="edge9" class="edge">
<title>id:e&#45;&gt;dependency591847:w</title>
<path fill="none" stroke="black" d="M305,-855C475.14,-855 247.61,-1215.25 399.89,-1231.44"/>
<polygon fill="black" stroke="black" points="409.78,-1231.94 399.57,-1235.93 406.01,-1231.75 399.8,-1231.43 399.8,-1231.43 399.8,-1231.43 406.01,-1231.75 400.02,-1226.94 409.78,-1231.94"/>
</g>
<!-- dependency591848 -->
<g id="node11" class="node">
<title>dependency591848</title>
<polygon fill="none" stroke="blue" points="420,-159.5 420,-264.5 524,-264.5 524,-159.5 420,-159.5"/>
<text text-anchor="start" x="451" y="-208.12" font-family="Helvetica,sans-Serif" font-size="10.00">pack_dep</text>
<polygon fill="none" stroke="blue" points="524,-243.5 524,-264.5 634,-264.5 634,-243.5 524,-243.5"/>
<text text-anchor="start" x="573.75" y="-250" font-family="Helvetica,sans-Serif" font-size="10.00">no</text>
<polygon fill="none" stroke="blue" points="524,-222.5 524,-243.5 634,-243.5 634,-222.5 524,-222.5"/>
<text text-anchor="start" x="560.62" y="-229" font-family="Helvetica,sans-Serif" font-size="10.00">dev&#45;java</text>
<polygon fill="none" stroke="blue" points="524,-201.5 524,-222.5 634,-222.5 634,-201.5 524,-201.5"/>
<text text-anchor="start" x="555.38" y="-208" font-family="Helvetica,sans-Serif" font-size="10.00">java&#45;config</text>
<polygon fill="none" stroke="blue" points="524,-180.5 524,-201.5 634,-201.5 634,-180.5 524,-180.5"/>
<text text-anchor="start" x="552.38" y="-187" font-family="Helvetica,sans-Serif" font-size="10.00">greaterequal</text>
<polygon fill="none" stroke="blue" points="524,-159.5 524,-180.5 634,-180.5 634,-159.5 524,-159.5"/>
<text text-anchor="start" x="562.5" y="-166" font-family="Helvetica,sans-Serif" font-size="10.00">2.2.0&#45;r3</text>
</g>
<!-- id&#45;&gt;dependency591848 -->
<g id="edge10" class="edge">
<title>id:e&#45;&gt;dependency591848:w</title>
<path fill="none" stroke="black" d="M305,-855C446.71,-855 273.92,-239.33 402.11,-212.88"/>
<ellipse fill="none" stroke="black" cx="406.52" cy="-212.44" rx="4" ry="4"/>
</g>
<!-- dependency591849 -->
<g id="node12" class="node">
<title>dependency591849</title>
<polygon fill="none" stroke="blue" points="420,-411 420,-505 524,-505 524,-411 420,-411"/>
<text text-anchor="start" x="451" y="-454.12" font-family="Helvetica,sans-Serif" font-size="10.00">pack_dep</text>
<polygon fill="none" stroke="blue" points="524,-484 524,-505 634,-505 634,-484 524,-484"/>
<text text-anchor="start" x="573.75" y="-490.5" font-family="Helvetica,sans-Serif" font-size="10.00">no</text>
<polygon fill="none" stroke="blue" points="524,-463 524,-484 634,-484 634,-463 524,-463"/>
<text text-anchor="start" x="560.62" y="-469.5" font-family="Helvetica,sans-Serif" font-size="10.00">dev&#45;java</text>
<polygon fill="none" stroke="blue" points="524,-442 524,-463 634,-463 634,-442 524,-442"/>
<text text-anchor="start" x="564.38" y="-448.5" font-family="Helvetica,sans-Serif" font-size="10.00">xerces</text>
<polygon fill="none" stroke="blue" points="524,-421 524,-442 634,-442 634,-421 524,-421"/>
<text text-anchor="start" x="568.5" y="-427.5" font-family="Helvetica,sans-Serif" font-size="10.00">none</text>
<polygon fill="none" stroke="blue" points="524,-411 524,-421 634,-421 634,-411 524,-411"/>
</g>
<!-- id&#45;&gt;dependency591849 -->
<g id="edge11" class="edge">
<title>id:e&#45;&gt;dependency591849:w</title>
<path fill="none" stroke="black" d="M305,-855C484.59,-855 236.86,-471.07 402.27,-458.32"/>
<ellipse fill="none" stroke="black" cx="406.5" cy="-458.17" rx="4" ry="4"/>
</g>
<!-- dependency591850 -->
<g id="node13" class="node">
<title>dependency591850</title>
<polygon fill="none" stroke="blue" points="420,-291 420,-385 524,-385 524,-291 420,-291"/>
<text text-anchor="start" x="451" y="-334.12" font-family="Helvetica,sans-Serif" font-size="10.00">pack_dep</text>
<polygon fill="none" stroke="blue" points="524,-364 524,-385 634,-385 634,-364 524,-364"/>
<text text-anchor="start" x="573.75" y="-370.5" font-family="Helvetica,sans-Serif" font-size="10.00">no</text>
<polygon fill="none" stroke="blue" points="524,-343 524,-364 634,-364 634,-343 524,-343"/>
<text text-anchor="start" x="560.62" y="-349.5" font-family="Helvetica,sans-Serif" font-size="10.00">dev&#45;java</text>
<polygon fill="none" stroke="blue" points="524,-322 524,-343 634,-343 634,-322 524,-322"/>
<text text-anchor="start" x="529.5" y="-328.5" font-family="Helvetica,sans-Serif" font-size="10.00">xml&#45;commons&#45;resolver</text>
<polygon fill="none" stroke="blue" points="524,-301 524,-322 634,-322 634,-301 524,-301"/>
<text text-anchor="start" x="568.5" y="-307.5" font-family="Helvetica,sans-Serif" font-size="10.00">none</text>
<polygon fill="none" stroke="blue" points="524,-291 524,-301 634,-301 634,-291 524,-291"/>
</g>
<!-- id&#45;&gt;dependency591850 -->
<g id="edge12" class="edge">
<title>id:e&#45;&gt;dependency591850:w</title>
<path fill="none" stroke="black" d="M305,-855C536.47,-855 185.91,-351.54 402.03,-338.27"/>
<ellipse fill="none" stroke="black" cx="406.5" cy="-338.13" rx="4" ry="4"/>
</g>
<!-- dependency591851 -->
<g id="node14" class="node">
<title>dependency591851</title>
<polygon fill="none" stroke="blue" points="420,-28.5 420,-133.5 524,-133.5 524,-28.5 420,-28.5"/>
<text text-anchor="start" x="451" y="-77.12" font-family="Helvetica,sans-Serif" font-size="10.00">pack_dep</text>
<polygon fill="none" stroke="blue" points="524,-112.5 524,-133.5 634,-133.5 634,-112.5 524,-112.5"/>
<text text-anchor="start" x="573.75" y="-119" font-family="Helvetica,sans-Serif" font-size="10.00">no</text>
<polygon fill="none" stroke="blue" points="524,-91.5 524,-112.5 634,-112.5 634,-91.5 524,-91.5"/>
<text text-anchor="start" x="565.88" y="-98" font-family="Helvetica,sans-Serif" font-size="10.00">virtual</text>
<polygon fill="none" stroke="blue" points="524,-70.5 524,-91.5 634,-91.5 634,-70.5 524,-70.5"/>
<text text-anchor="start" x="573.75" y="-77" font-family="Helvetica,sans-Serif" font-size="10.00">jre</text>
<polygon fill="none" stroke="blue" points="524,-49.5 524,-70.5 634,-70.5 634,-49.5 524,-49.5"/>
<text text-anchor="start" x="552.38" y="-56" font-family="Helvetica,sans-Serif" font-size="10.00">greaterequal</text>
<polygon fill="none" stroke="blue" points="524,-28.5 524,-49.5 634,-49.5 634,-28.5 524,-28.5"/>
<text text-anchor="start" x="572.25" y="-35" font-family="Helvetica,sans-Serif" font-size="10.00">1.7</text>
</g>
<!-- id&#45;&gt;dependency591851 -->
<g id="edge13" class="edge">
<title>id:e&#45;&gt;dependency591851:w</title>
<path fill="none" stroke="black" d="M305,-855C475.55,-855 245.75,-107.97 402.23,-81.71"/>
<ellipse fill="none" stroke="black" cx="406.51" cy="-81.36" rx="4" ry="4"/>
</g>
<!-- choice1001011184510697118974797110116459911111410145494649484655 -->
<g id="node15" class="node">
<title>choice1001011184510697118974797110116459911111410145494649484655</title>
<g id="a_node15"><a xlink:href="../dev-java/ant-core-1.10.7.svg" xlink:title="portage://dev&#45;java/ant&#45;core&#45;1.10.7">
<ellipse fill="none" stroke="red" cx="900" cy="-1101" rx="144" ry="18"/>
<text text-anchor="middle" x="900" y="-1097.12" font-family="Helvetica,sans-Serif" font-size="10.00">portage://dev&#45;java/ant&#45;core&#45;1.10.7</text>
</a>
</g>
</g>
<!-- dependency591839&#45;&gt;choice1001011184510697118974797110116459911111410145494649484655 -->
<g id="edge14" class="edge">
<title>dependency591839:e&#45;&gt;choice1001011184510697118974797110116459911111410145494649484655:w</title>
<path fill="none" stroke="black" stroke-dasharray="1,5" d="M649,-1101C692.25,-1101 705.72,-1101 744.08,-1101"/>
<polygon fill="black" stroke="black" points="753.78,-1101 743.78,-1105.5 750,-1101 743.78,-1101 743.78,-1101 743.78,-1101 750,-1101 743.78,-1096.5 753.78,-1101"/>
</g>
<!-- choice10010111845106971189747106971189745991111101021051034550465046484511452 -->
<g id="node16" class="node">
<title>choice10010111845106971189747106971189745991111101021051034550465046484511452</title>
<g id="a_node16"><a xlink:href="../dev-java/java-config-2.2.0-r4.svg" xlink:title="portage://dev&#45;java/java&#45;config&#45;2.2.0&#45;r4">
<ellipse fill="none" stroke="red" cx="900" cy="-396" rx="144" ry="18"/>
<text text-anchor="middle" x="900" y="-392.12" font-family="Helvetica,sans-Serif" font-size="10.00">portage://dev&#45;java/java&#45;config&#45;2.2.0&#45;r4</text>
</a>
</g>
</g>
<!-- dependency591840&#45;&gt;choice10010111845106971189747106971189745991111101021051034550465046484511452 -->
<g id="edge15" class="edge">
<title>dependency591840:e&#45;&gt;choice10010111845106971189747106971189745991111101021051034550465046484511452:w</title>
<path fill="none" stroke="black" stroke-dasharray="1,5" d="M649,-609C750.82,-609 656.8,-411.52 744.08,-396.86"/>
<polygon fill="black" stroke="black" points="753.79,-396.1 744.17,-401.37 750.02,-396.39 743.82,-396.88 743.82,-396.88 743.82,-396.88 750.02,-396.39 743.46,-392.39 753.79,-396.1"/>
</g>
<!-- choice1001011184510697118974710697118979999455346484511451 -->
<g id="node17" class="node">
<title>choice1001011184510697118974710697118979999455346484511451</title>
<g id="a_node17"><a xlink:href="../dev-java/javacc-5.0-r3.svg" xlink:title="portage://dev&#45;java/javacc&#45;5.0&#45;r3">
<ellipse fill="none" stroke="red" cx="900" cy="-975" rx="144" ry="18"/>
<text text-anchor="middle" x="900" y="-971.12" font-family="Helvetica,sans-Serif" font-size="10.00">portage://dev&#45;java/javacc&#45;5.0&#45;r3</text>
</a>
</g>
</g>
<!-- dependency591841&#45;&gt;choice1001011184510697118974710697118979999455346484511451 -->
<g id="edge16" class="edge">
<title>dependency591841:e&#45;&gt;choice1001011184510697118974710697118979999455346484511451:w</title>
<path fill="none" stroke="black" stroke-dasharray="1,5" d="M649,-975C692.25,-975 705.72,-975 744.08,-975"/>
<polygon fill="black" stroke="black" points="753.78,-975 743.78,-979.5 750,-975 743.78,-975 743.78,-975 743.78,-975 750,-975 743.78,-970.5 753.78,-975"/>
</g>
<!-- choice1001011184510697118974710697118971161111111081071051164557575757 -->
<g id="node18" class="node">
<title>choice1001011184510697118974710697118971161111111081071051164557575757</title>
<g id="a_node18"><a xlink:href="../dev-java/javatoolkit-9999.svg" xlink:title="portage://dev&#45;java/javatoolkit&#45;9999">
<ellipse fill="none" stroke="red" cx="900" cy="-1640" rx="144" ry="18"/>
<text text-anchor="middle" x="900" y="-1636.12" font-family="Helvetica,sans-Serif" font-size="10.00">portage://dev&#45;java/javatoolkit&#45;9999</text>
</a>
</g>
</g>
<!-- dependency591842&#45;&gt;choice1001011184510697118974710697118971161111111081071051164557575757 -->
<g id="edge17" class="edge">
<title>dependency591842:e&#45;&gt;choice1001011184510697118974710697118971161111111081071051164557575757:w</title>
<path fill="none" stroke="black" stroke-dasharray="1,5" d="M649,-1604C694.77,-1604 703.93,-1634.47 743.84,-1639.34"/>
<polygon fill="black" stroke="black" points="753.78,-1639.93 743.54,-1643.83 750.01,-1639.71 743.8,-1639.34 743.8,-1639.34 743.8,-1639.34 750.01,-1639.71 744.06,-1634.85 753.78,-1639.93"/>
</g>
<!-- choice1001011184510697118974710697118971161111111081071051164548465446504511449 -->
<g id="node19" class="node">
<title>choice1001011184510697118974710697118971161111111081071051164548465446504511449</title>
<g id="a_node19"><a xlink:href="../dev-java/javatoolkit-0.6.2-r1.svg" xlink:title="portage://dev&#45;java/javatoolkit&#45;0.6.2&#45;r1">
<ellipse fill="none" stroke="red" cx="900" cy="-1586" rx="144" ry="18"/>
<text text-anchor="middle" x="900" y="-1582.12" font-family="Helvetica,sans-Serif" font-size="10.00">portage://dev&#45;java/javatoolkit&#45;0.6.2&#45;r1</text>
</a>
</g>
</g>
<!-- dependency591842&#45;&gt;choice1001011184510697118974710697118971161111111081071051164548465446504511449 -->
<g id="edge18" class="edge">
<title>dependency591842:e&#45;&gt;choice1001011184510697118974710697118971161111111081071051164548465446504511449:w</title>
<path fill="none" stroke="black" stroke-dasharray="1,5" d="M649,-1604C692.87,-1604 705.25,-1588.83 743.95,-1586.34"/>
<polygon fill="black" stroke="black" points="753.78,-1586.04 743.93,-1590.85 750,-1586.16 743.79,-1586.35 743.79,-1586.35 743.79,-1586.35 750,-1586.16 743.65,-1581.85 753.78,-1586.04"/>
</g>
<!-- choice100101118451069711897471069711897116111111108107105116454846544649 -->
<g id="node20" class="node">
<title>choice100101118451069711897471069711897116111111108107105116454846544649</title>
<g id="a_node20"><a xlink:href="../dev-java/javatoolkit-0.6.1.svg" xlink:title="portage://dev&#45;java/javatoolkit&#45;0.6.1">
<ellipse fill="none" stroke="red" cx="900" cy="-1532" rx="144" ry="18"/>
<text text-anchor="middle" x="900" y="-1528.12" font-family="Helvetica,sans-Serif" font-size="10.00">portage://dev&#45;java/javatoolkit&#45;0.6.1</text>
</a>
</g>
</g>
<!-- dependency591842&#45;&gt;choice100101118451069711897471069711897116111111108107105116454846544649 -->
<g id="edge19" class="edge">
<title>dependency591842:e&#45;&gt;choice100101118451069711897471069711897116111111108107105116454846544649:w</title>
<path fill="none" stroke="black" stroke-dasharray="1,5" d="M649,-1604C701.95,-1604 698.84,-1541.77 743.9,-1533.02"/>
<polygon fill="black" stroke="black" points="753.79,-1532.11 744.24,-1537.51 750.02,-1532.46 743.83,-1533.02 743.83,-1533.02 743.83,-1533.02 750.02,-1532.46 743.42,-1528.54 753.79,-1532.11"/>
</g>
<!-- choice1001011184510697118974710697118971161111111081071051164548465146484511457 -->
<g id="node21" class="node">
<title>choice1001011184510697118974710697118971161111111081071051164548465146484511457</title>
<g id="a_node21"><a xlink:href="../dev-java/javatoolkit-0.3.0-r9.svg" xlink:title="portage://dev&#45;java/javatoolkit&#45;0.3.0&#45;r9">
<ellipse fill="none" stroke="red" cx="900" cy="-1694" rx="144" ry="18"/>
<text text-anchor="middle" x="900" y="-1690.12" font-family="Helvetica,sans-Serif" font-size="10.00">portage://dev&#45;java/javatoolkit&#45;0.3.0&#45;r9</text>
</a>
</g>
</g>
<!-- dependency591842&#45;&gt;choice1001011184510697118974710697118971161111111081071051164548465146484511457 -->
<g id="edge20" class="edge">
<title>dependency591842:e&#45;&gt;choice1001011184510697118974710697118971161111111081071051164548465146484511457:w</title>
<path fill="none" stroke="black" stroke-dasharray="1,5" d="M649,-1604C706.82,-1604 695.14,-1682.77 744,-1692.93"/>
<polygon fill="black" stroke="black" points="753.79,-1693.88 743.4,-1697.39 750.02,-1693.51 743.83,-1692.91 743.83,-1692.91 743.83,-1692.91 750.02,-1693.51 744.27,-1688.43 753.79,-1693.88"/>
</g>
<!-- choice100101118451069711897471159712011111045574650464846544511450 -->
<g id="node22" class="node">
<title>choice100101118451069711897471159712011111045574650464846544511450</title>
<g id="a_node22"><a xlink:href="../dev-java/saxon-9.2.0.6-r2.svg" xlink:title="portage://dev&#45;java/saxon&#45;9.2.0.6&#45;r2">
<ellipse fill="none" stroke="red" cx="900" cy="-1478" rx="144" ry="18"/>
<text text-anchor="middle" x="900" y="-1474.12" font-family="Helvetica,sans-Serif" font-size="10.00">portage://dev&#45;java/saxon&#45;9.2.0.6&#45;r2</text>
</a>
</g>
</g>
<!-- dependency591843&#45;&gt;choice100101118451069711897471159712011111045574650464846544511450 -->
<g id="edge21" class="edge">
<title>dependency591843:e&#45;&gt;choice100101118451069711897471159712011111045574650464846544511450:w</title>
<path fill="none" stroke="black" stroke-dasharray="1,5" d="M649,-1478C692.25,-1478 705.72,-1478 744.08,-1478"/>
<polygon fill="black" stroke="black" points="753.78,-1478 743.78,-1482.5 750,-1478 743.78,-1478 743.78,-1478 743.78,-1478 750,-1478 743.78,-1473.5 753.78,-1478"/>
</g>
<!-- choice10010111845106971189747115971201111104554465346534511450 -->
<g id="node23" class="node">
<title>choice10010111845106971189747115971201111104554465346534511450</title>
<g id="a_node23"><a xlink:href="../dev-java/saxon-6.5.5-r2.svg" xlink:title="portage://dev&#45;java/saxon&#45;6.5.5&#45;r2">
<ellipse fill="none" stroke="red" cx="900" cy="-1424" rx="144" ry="18"/>
<text text-anchor="middle" x="900" y="-1420.12" font-family="Helvetica,sans-Serif" font-size="10.00">portage://dev&#45;java/saxon&#45;6.5.5&#45;r2</text>
</a>
</g>
</g>
<!-- dependency591843&#45;&gt;choice10010111845106971189747115971201111104554465346534511450 -->
<g id="edge22" class="edge">
<title>dependency591843:e&#45;&gt;choice10010111845106971189747115971201111104554465346534511450:w</title>
<path fill="none" stroke="black" stroke-dasharray="1,5" d="M649,-1478C697.95,-1478 701.8,-1431.72 744.05,-1424.85"/>
<polygon fill="black" stroke="black" points="753.79,-1424.09 744.16,-1429.35 750.01,-1424.39 743.82,-1424.87 743.82,-1424.87 743.82,-1424.87 750.01,-1424.39 743.47,-1420.38 753.79,-1424.09"/>
</g>
<!-- choice1001011184510697118974711610111511611010345544657464948 -->
<g id="node24" class="node">
<title>choice1001011184510697118974711610111511611010345544657464948</title>
<g id="a_node24"><a xlink:href="../dev-java/testng-6.9.10.svg" xlink:title="portage://dev&#45;java/testng&#45;6.9.10">
<ellipse fill="none" stroke="red" cx="900" cy="-1358" rx="144" ry="18"/>
<text text-anchor="middle" x="900" y="-1354.12" font-family="Helvetica,sans-Serif" font-size="10.00">portage://dev&#45;java/testng&#45;6.9.10</text>
</a>
</g>
</g>
<!-- dependency591844&#45;&gt;choice1001011184510697118974711610111511611010345544657464948 -->
<g id="edge23" class="edge">
<title>dependency591844:e&#45;&gt;choice1001011184510697118974711610111511611010345544657464948:w</title>
<path fill="none" stroke="black" stroke-dasharray="1,5" d="M649,-1358C692.25,-1358 705.72,-1358 744.08,-1358"/>
<polygon fill="black" stroke="black" points="753.78,-1358 743.78,-1362.5 750,-1358 743.78,-1358 743.78,-1358 743.78,-1358 750,-1358 743.78,-1353.5 753.78,-1358"/>
</g>
<!-- choice100101118451069711897471201011149910111545504649504648 -->
<g id="node25" class="node">
<title>choice100101118451069711897471201011149910111545504649504648</title>
<g id="a_node25"><a xlink:href="../dev-java/xerces-2.12.0.svg" xlink:title="portage://dev&#45;java/xerces&#45;2.12.0">
<ellipse fill="none" stroke="red" cx="900" cy="-656" rx="144" ry="18"/>
<text text-anchor="middle" x="900" y="-652.12" font-family="Helvetica,sans-Serif" font-size="10.00">portage://dev&#45;java/xerces&#45;2.12.0</text>
</a>
</g>
</g>
<!-- dependency591845&#45;&gt;choice100101118451069711897471201011149910111545504649504648 -->
<g id="edge24" class="edge">
<title>dependency591845:e&#45;&gt;choice100101118451069711897471201011149910111545504649504648:w</title>
<path fill="none" stroke="black" stroke-dasharray="1,5" d="M649,-855C745.29,-855 661.87,-671.24 744.12,-656.89"/>
<polygon fill="black" stroke="black" points="753.79,-656.1 744.18,-661.4 750.02,-656.41 743.82,-656.91 743.82,-656.91 743.82,-656.91 750.02,-656.41 743.45,-652.43 753.79,-656.1"/>
</g>
<!-- choice10010111845106971189747120109108459911110910911111011545114101115111108118101114454946504511449 -->
<g id="node26" class="node">
<title>choice10010111845106971189747120109108459911110910911111011545114101115111108118101114454946504511449</title>
<g id="a_node26"><a xlink:href="../dev-java/xml-commons-resolver-1.2-r1.svg" xlink:title="portage://dev&#45;java/xml&#45;commons&#45;resolver&#45;1.2&#45;r1">
<ellipse fill="none" stroke="red" cx="900" cy="-470" rx="144" ry="18"/>
<text text-anchor="middle" x="900" y="-466.12" font-family="Helvetica,sans-Serif" font-size="10.00">portage://dev&#45;java/xml&#45;commons&#45;resolver&#45;1.2&#45;r1</text>
</a>
</g>
</g>
<!-- dependency591846&#45;&gt;choice10010111845106971189747120109108459911110910911111011545114101115111108118101114454946504511449 -->
<g id="edge25" class="edge">
<title>dependency591846:e&#45;&gt;choice10010111845106971189747120109108459911110910911111011545114101115111108118101114454946504511449:w</title>
<path fill="none" stroke="black" stroke-dasharray="1,5" d="M649,-735C771.89,-735 637.11,-486.3 743.9,-470.76"/>
<polygon fill="black" stroke="black" points="753.78,-470.08 744.12,-475.26 750.01,-470.34 743.81,-470.77 743.81,-470.77 743.81,-470.77 750.01,-470.34 743.5,-466.28 753.78,-470.08"/>
</g>
<!-- choice1181051141161179710847106100107454949 -->
<g id="node27" class="node">
<title>choice1181051141161179710847106100107454949</title>
<g id="a_node27"><a xlink:href="../virtual/jdk-11.svg" xlink:title="portage://virtual/jdk&#45;11">
<ellipse fill="none" stroke="red" cx="900" cy="-1286" rx="144" ry="18"/>
<text text-anchor="middle" x="900" y="-1282.12" font-family="Helvetica,sans-Serif" font-size="10.00">portage://virtual/jdk&#45;11</text>
</a>
</g>
</g>
<!-- dependency591847&#45;&gt;choice1181051141161179710847106100107454949 -->
<g id="edge26" class="edge">
<title>dependency591847:e&#45;&gt;choice1181051141161179710847106100107454949:w</title>
<path fill="none" stroke="black" stroke-dasharray="1,5" d="M649,-1232C697.95,-1232 701.8,-1278.28 744.05,-1285.15"/>
<polygon fill="black" stroke="black" points="753.79,-1285.91 743.47,-1289.62 750.01,-1285.61 743.82,-1285.13 743.82,-1285.13 743.82,-1285.13 750.01,-1285.61 744.16,-1280.65 753.79,-1285.91"/>
</g>
<!-- choice11810511411611797108471061001074549465646484511452 -->
<g id="node28" class="node">
<title>choice11810511411611797108471061001074549465646484511452</title>
<g id="a_node28"><a xlink:href="../virtual/jdk-1.8.0-r4.svg" xlink:title="portage://virtual/jdk&#45;1.8.0&#45;r4">
<ellipse fill="none" stroke="red" cx="900" cy="-1232" rx="144" ry="18"/>
<text text-anchor="middle" x="900" y="-1228.12" font-family="Helvetica,sans-Serif" font-size="10.00">portage://virtual/jdk&#45;1.8.0&#45;r4</text>
</a>
</g>
</g>
<!-- dependency591847&#45;&gt;choice11810511411611797108471061001074549465646484511452 -->
<g id="edge27" class="edge">
<title>dependency591847:e&#45;&gt;choice11810511411611797108471061001074549465646484511452:w</title>
<path fill="none" stroke="black" stroke-dasharray="1,5" d="M649,-1232C692.25,-1232 705.72,-1232 744.08,-1232"/>
<polygon fill="black" stroke="black" points="753.78,-1232 743.78,-1236.5 750,-1232 743.78,-1232 743.78,-1232 743.78,-1232 750,-1232 743.78,-1227.5 753.78,-1232"/>
</g>
<!-- choice11810511411611797108471061001074549465646484511451 -->
<g id="node29" class="node">
<title>choice11810511411611797108471061001074549465646484511451</title>
<g id="a_node29"><a xlink:href="../virtual/jdk-1.8.0-r3.svg" xlink:title="portage://virtual/jdk&#45;1.8.0&#45;r3">
<ellipse fill="none" stroke="red" cx="900" cy="-1178" rx="144" ry="18"/>
<text text-anchor="middle" x="900" y="-1174.12" font-family="Helvetica,sans-Serif" font-size="10.00">portage://virtual/jdk&#45;1.8.0&#45;r3</text>
</a>
</g>
</g>
<!-- dependency591847&#45;&gt;choice11810511411611797108471061001074549465646484511451 -->
<g id="edge28" class="edge">
<title>dependency591847:e&#45;&gt;choice11810511411611797108471061001074549465646484511451:w</title>
<path fill="none" stroke="black" stroke-dasharray="1,5" d="M649,-1232C697.95,-1232 701.8,-1185.72 744.05,-1178.85"/>
<polygon fill="black" stroke="black" points="753.79,-1178.09 744.16,-1183.35 750.01,-1178.39 743.82,-1178.87 743.82,-1178.87 743.82,-1178.87 750.01,-1178.39 743.47,-1174.38 753.79,-1178.09"/>
</g>
<!-- dependency591848&#45;&gt;choice10010111845106971189747106971189745991111101021051034550465046484511452 -->
<g id="edge29" class="edge">
<title>dependency591848:e&#45;&gt;choice10010111845106971189747106971189745991111101021051034550465046484511452:w</title>
<path fill="none" stroke="black" stroke-dasharray="1,5" d="M649,-212C739.51,-212 667.11,-381.22 744.26,-395.1"/>
<polygon fill="black" stroke="black" points="753.79,-395.9 743.44,-399.54 750.02,-395.58 743.82,-395.06 743.82,-395.06 743.82,-395.06 750.02,-395.58 744.2,-390.58 753.79,-395.9"/>
</g>
<!-- dependency591849&#45;&gt;choice100101118451069711897471201011149910111545504649504648 -->
<g id="edge30" class="edge">
<title>dependency591849:e&#45;&gt;choice100101118451069711897471201011149910111545504649504648:w</title>
<path fill="none" stroke="black" stroke-dasharray="1,5" d="M649,-458C744.92,-458 662.2,-640.83 744.17,-655.12"/>
<polygon fill="black" stroke="black" points="753.79,-655.9 743.45,-659.57 750.02,-655.59 743.82,-655.09 743.82,-655.09 743.82,-655.09 750.02,-655.59 744.18,-650.6 753.79,-655.9"/>
</g>
<!-- dependency591850&#45;&gt;choice10010111845106971189747120109108459911110910911111011545114101115111108118101114454946504511449 -->
<g id="edge31" class="edge">
<title>dependency591850:e&#45;&gt;choice10010111845106971189747120109108459911110910911111011545114101115111108118101114454946504511449:w</title>
<path fill="none" stroke="black" stroke-dasharray="1,5" d="M649,-338C720.27,-338 684.12,-456.45 744.06,-468.94"/>
<polygon fill="black" stroke="black" points="753.79,-469.88 743.4,-473.39 750.02,-469.52 743.83,-468.92 743.83,-468.92 743.83,-468.92 750.02,-469.52 744.27,-464.44 753.79,-469.88"/>
</g>
<!-- choice11810511411611797108471061141014549494511449 -->
<g id="node30" class="node">
<title>choice11810511411611797108471061141014549494511449</title>
<g id="a_node30"><a xlink:href="../virtual/jre-11-r1.svg" xlink:title="portage://virtual/jre&#45;11&#45;r1">
<ellipse fill="none" stroke="red" cx="900" cy="-189" rx="144" ry="18"/>
<text text-anchor="middle" x="900" y="-185.12" font-family="Helvetica,sans-Serif" font-size="10.00">portage://virtual/jre&#45;11&#45;r1</text>
</a>
</g>
</g>
<!-- dependency591851&#45;&gt;choice11810511411611797108471061141014549494511449 -->
<g id="edge32" class="edge">
<title>dependency591851:e&#45;&gt;choice11810511411611797108471061141014549494511449:w</title>
<path fill="none" stroke="black" stroke-dasharray="1,5" d="M649,-81C712.32,-81 690.76,-176.71 744.13,-187.93"/>
<polygon fill="black" stroke="black" points="753.79,-188.88 743.4,-192.38 750.02,-188.51 743.84,-187.9 743.84,-187.9 743.84,-187.9 750.02,-188.51 744.28,-183.42 753.79,-188.88"/>
</g>
<!-- choice11810511411611797108471061141014549465646484511450 -->
<g id="node31" class="node">
<title>choice11810511411611797108471061141014549465646484511450</title>
<g id="a_node31"><a xlink:href="../virtual/jre-1.8.0-r2.svg" xlink:title="portage://virtual/jre&#45;1.8.0&#45;r2">
<ellipse fill="none" stroke="red" cx="900" cy="-135" rx="144" ry="18"/>
<text text-anchor="middle" x="900" y="-131.12" font-family="Helvetica,sans-Serif" font-size="10.00">portage://virtual/jre&#45;1.8.0&#45;r2</text>
</a>
</g>
</g>
<!-- dependency591851&#45;&gt;choice11810511411611797108471061141014549465646484511450 -->
<g id="edge33" class="edge">
<title>dependency591851:e&#45;&gt;choice11810511411611797108471061141014549465646484511450:w</title>
<path fill="none" stroke="black" stroke-dasharray="1,5" d="M649,-81C697.95,-81 701.8,-127.28 744.05,-134.15"/>
<polygon fill="black" stroke="black" points="753.79,-134.91 743.47,-138.62 750.01,-134.61 743.82,-134.13 743.82,-134.13 743.82,-134.13 750.01,-134.61 744.16,-129.65 753.79,-134.91"/>
</g>
<!-- choice11810511411611797108471061141014549465646484511449 -->
<g id="node32" class="node">
<title>choice11810511411611797108471061141014549465646484511449</title>
<g id="a_node32"><a xlink:href="../virtual/jre-1.8.0-r1.svg" xlink:title="portage://virtual/jre&#45;1.8.0&#45;r1">
<ellipse fill="none" stroke="red" cx="900" cy="-81" rx="144" ry="18"/>
<text text-anchor="middle" x="900" y="-77.12" font-family="Helvetica,sans-Serif" font-size="10.00">portage://virtual/jre&#45;1.8.0&#45;r1</text>
</a>
</g>
</g>
<!-- dependency591851&#45;&gt;choice11810511411611797108471061141014549465646484511449 -->
<g id="edge34" class="edge">
<title>dependency591851:e&#45;&gt;choice11810511411611797108471061141014549465646484511449:w</title>
<path fill="none" stroke="black" stroke-dasharray="1,5" d="M649,-81C692.25,-81 705.72,-81 744.08,-81"/>
<polygon fill="black" stroke="black" points="753.78,-81 743.78,-85.5 750,-81 743.78,-81 743.78,-81 743.78,-81 750,-81 743.78,-76.5 753.78,-81"/>
</g>
</g>
</svg>
