<?xml version="1.0" encoding="UTF-8" standalone="no"?>
<!DOCTYPE svg PUBLIC "-//W3C//DTD SVG 1.1//EN"
 "http://www.w3.org/Graphics/SVG/1.1/DTD/svg11.dtd">
<!-- Generated by graphviz version 2.40.1 (20161225.0304)
 -->
<!-- Title: prolog Pages: 1 -->
<svg width="1275pt" height="1083pt"
 viewBox="0.00 0.00 1275.00 1083.00" xmlns="http://www.w3.org/2000/svg" xmlns:xlink="http://www.w3.org/1999/xlink">
<g id="graph0" class="graph" transform="scale(1 1) rotate(0) translate(4 1079)">
<title>prolog</title>
<polygon fill="#ffffff" stroke="transparent" points="-4,4 -4,-1079 1271,-1079 1271,4 -4,4"/>
<g id="clust1" class="cluster">
<title>cluster_leftcol</title>
<polygon fill="none" stroke="#c0c0c0" points="8,-629 8,-701 312,-701 312,-629 8,-629"/>
<text text-anchor="start" x="146.663" y="-689" font-family="Helvetica,sans-Serif" font-style="italic" font-size="10.00" fill="#000000">ebuild</text>
</g>
<g id="clust2" class="cluster">
<title>cluster_midcol</title>
<polygon fill="none" stroke="#c0c0c0" points="396,-95 396,-1067 871,-1067 871,-95 396,-95"/>
<text text-anchor="start" x="602.375" y="-1055" font-family="Helvetica,sans-Serif" font-style="italic" font-size="10.00" fill="#000000">dependencies</text>
</g>
<g id="clust3" class="cluster">
<title>cluster_compile</title>
<polygon fill="#eeeeee" stroke="#c0c0c0" points="404,-637 404,-1039 863,-1039 863,-637 404,-637"/>
<text text-anchor="start" x="616.278" y="-1027" font-family="Helvetica,sans-Serif" font-style="italic" font-size="10.00" fill="#000000">compile</text>
</g>
<g id="clust9" class="cluster">
<title>cluster_run</title>
<polygon fill="#eeeeee" stroke="#c0c0c0" points="611,-103 611,-629 863,-629 863,-103 611,-103"/>
<text text-anchor="start" x="729.7765" y="-617" font-family="Helvetica,sans-Serif" font-style="italic" font-size="10.00" fill="#000000">run</text>
</g>
<g id="clust14" class="cluster">
<title>cluster_choices</title>
<polygon fill="none" stroke="#c0c0c0" points="955,-8 955,-1004 1259,-1004 1259,-8 955,-8"/>
<text text-anchor="start" x="1082.824" y="-992" font-family="Helvetica,sans-Serif" font-style="italic" font-size="10.00" fill="#000000">candidates</text>
</g>
<!-- id -->
<g id="node1" class="node">
<title>id</title>
<g id="a_node1"><a xlink:href="../www-apps/cgp-1_p20181209.svg" xlink:title="portage://www&#45;apps/cgp&#45;1_p20181209">
<ellipse fill="none" stroke="#ff0000" cx="160" cy="-655" rx="144" ry="18"/>
<text text-anchor="middle" x="160" y="-652" font-family="Helvetica,sans-Serif" font-size="10.00" fill="#000000">portage://www&#45;apps/cgp&#45;1_p20181209</text>
</a>
</g>
</g>
<!-- dependency1811 -->
<g id="node2" class="node">
<title>dependency1811</title>
<polygon fill="none" stroke="#ff0000" points="420.5,-817 420.5,-851 503.5,-851 503.5,-817 420.5,-817"/>
<text text-anchor="start" x="431.4305" y="-831" font-family="Helvetica,sans-Serif" font-size="10.00" fill="#000000">any_of_group</text>
</g>
<!-- id&#45;&gt;dependency1811 -->
<g id="edge3" class="edge">
<title>id:e&#45;&gt;dependency1811:w</title>
<path fill="none" stroke="#000000" d="M304,-655C393.1748,-655 324.541,-820.2888 401.387,-833.2019"/>
<polygon fill="#000000" stroke="#000000" points="411.5,-834 401.1769,-837.6993 406.5155,-833.6066 401.531,-833.2132 401.531,-833.2132 401.531,-833.2132 406.5155,-833.6066 401.885,-828.7272 411.5,-834 411.5,-834"/>
</g>
<!-- dependency1814 -->
<g id="node5" class="node">
<title>dependency1814</title>
<polygon fill="none" stroke="#0000ff" points="627,-649 627,-759 732,-759 732,-649 627,-649"/>
<text text-anchor="start" x="657.823" y="-701" font-family="Helvetica,sans-Serif" font-size="10.00" fill="#000000">pack_dep</text>
<polygon fill="none" stroke="#0000ff" points="732,-737 732,-759 842,-759 842,-737 732,-737"/>
<text text-anchor="start" x="781.441" y="-745" font-family="Helvetica,sans-Serif" font-size="10.00" fill="#000000">no</text>
<polygon fill="none" stroke="#0000ff" points="732,-715 732,-737 842,-737 842,-715 732,-715"/>
<text text-anchor="start" x="763.3845" y="-723" font-family="Helvetica,sans-Serif" font-size="10.00" fill="#000000">app&#45;admin</text>
<polygon fill="none" stroke="#0000ff" points="732,-693 732,-715 842,-715 842,-693 732,-693"/>
<text text-anchor="start" x="754.491" y="-701" font-family="Helvetica,sans-Serif" font-size="10.00" fill="#000000">webapp&#45;config</text>
<polygon fill="none" stroke="#0000ff" points="732,-671 732,-693 842,-693 842,-671 732,-671"/>
<text text-anchor="start" x="758.936" y="-679" font-family="Helvetica,sans-Serif" font-size="10.00" fill="#000000">greaterequal</text>
<polygon fill="none" stroke="#0000ff" points="732,-649 732,-671 842,-671 842,-649 732,-649"/>
<text text-anchor="start" x="770.3235" y="-657" font-family="Helvetica,sans-Serif" font-size="10.00" fill="#000000">1.50.15</text>
</g>
<!-- id&#45;&gt;dependency1814 -->
<g id="edge4" class="edge">
<title>id:e&#45;&gt;dependency1814:w</title>
<path fill="none" stroke="#000000" d="M461.5,-477C572.8373,-434.4324 500.7251,-688.3999 608.7197,-703.3173"/>
<polygon fill="#000000" stroke="#000000" points="619,-704 608.7238,-707.8274 614.011,-703.6686 609.022,-703.3373 609.022,-703.3373 609.022,-703.3373 614.011,-703.6686 609.3202,-698.8472 619,-704 619,-704"/>
</g>
<!-- dependency1815 -->
<g id="node6" class="node">
<title>dependency1815</title>
<polygon fill="none" stroke="#0000ff" points="627,-487 627,-597 732,-597 732,-487 627,-487"/>
<text text-anchor="start" x="657.823" y="-539" font-family="Helvetica,sans-Serif" font-size="10.00" fill="#000000">pack_dep</text>
<polygon fill="none" stroke="#0000ff" points="732,-575 732,-597 842,-597 842,-575 732,-575"/>
<text text-anchor="start" x="781.441" y="-583" font-family="Helvetica,sans-Serif" font-size="10.00" fill="#000000">no</text>
<polygon fill="none" stroke="#0000ff" points="732,-553 732,-575 842,-575 842,-553 732,-553"/>
<text text-anchor="start" x="763.3845" y="-561" font-family="Helvetica,sans-Serif" font-size="10.00" fill="#000000">app&#45;admin</text>
<polygon fill="none" stroke="#0000ff" points="732,-531 732,-553 842,-553 842,-531 732,-531"/>
<text text-anchor="start" x="754.491" y="-539" font-family="Helvetica,sans-Serif" font-size="10.00" fill="#000000">webapp&#45;config</text>
<polygon fill="none" stroke="#0000ff" points="732,-509 732,-531 842,-531 842,-509 732,-509"/>
<text text-anchor="start" x="758.936" y="-517" font-family="Helvetica,sans-Serif" font-size="10.00" fill="#000000">greaterequal</text>
<polygon fill="none" stroke="#0000ff" points="732,-487 732,-509 842,-509 842,-487 732,-487"/>
<text text-anchor="start" x="770.3235" y="-495" font-family="Helvetica,sans-Serif" font-size="10.00" fill="#000000">1.50.15</text>
</g>
<!-- id&#45;&gt;dependency1815 -->
<g id="edge5" class="edge">
<title>id:e&#45;&gt;dependency1815:w</title>
<path fill="none" stroke="#000000" d="M461.5,-477C529.6085,-450.96 542.3715,-535.3326 610.8304,-541.6305"/>
<ellipse fill="none" stroke="#000000" cx="615.0041" cy="-541.8192" rx="4" ry="4"/>
</g>
<!-- dependency1816 -->
<g id="node7" class="node">
<title>dependency1816</title>
<polygon fill="none" stroke="#0000ff" points="627,-239 627,-337 732,-337 732,-239 627,-239"/>
<text text-anchor="start" x="657.823" y="-285" font-family="Helvetica,sans-Serif" font-size="10.00" fill="#000000">pack_dep</text>
<polygon fill="none" stroke="#0000ff" points="732,-315 732,-337 842,-337 842,-315 732,-315"/>
<text text-anchor="start" x="781.441" y="-323" font-family="Helvetica,sans-Serif" font-size="10.00" fill="#000000">no</text>
<polygon fill="none" stroke="#0000ff" points="732,-293 732,-315 842,-315 842,-293 732,-293"/>
<text text-anchor="start" x="767.8285" y="-301" font-family="Helvetica,sans-Serif" font-size="10.00" fill="#000000">dev&#45;lang</text>
<polygon fill="none" stroke="#0000ff" points="732,-271 732,-293 842,-293 842,-271 732,-271"/>
<text text-anchor="start" x="778.6615" y="-279" font-family="Helvetica,sans-Serif" font-size="10.00" fill="#000000">php</text>
<polygon fill="none" stroke="#0000ff" points="732,-249 732,-271 842,-271 842,-249 732,-249"/>
<text text-anchor="start" x="775.882" y="-257" font-family="Helvetica,sans-Serif" font-size="10.00" fill="#000000">none</text>
<polygon fill="none" stroke="#0000ff" points="732,-239 732,-249 842,-249 842,-239 732,-239"/>
</g>
<!-- id&#45;&gt;dependency1816 -->
<g id="edge6" class="edge">
<title>id:e&#45;&gt;dependency1816:w</title>
<path fill="none" stroke="#000000" d="M461.5,-477C561.04,-438.9428 512.2969,-295.5432 610.9817,-288.2857"/>
<ellipse fill="none" stroke="#000000" cx="615.0025" cy="-288.1425" rx="4" ry="4"/>
</g>
<!-- dependency1817 -->
<g id="node8" class="node">
<title>dependency1817</title>
<polygon fill="none" stroke="#0000ff" points="627,-115 627,-213 732,-213 732,-115 627,-115"/>
<text text-anchor="start" x="657.823" y="-161" font-family="Helvetica,sans-Serif" font-size="10.00" fill="#000000">pack_dep</text>
<polygon fill="none" stroke="#0000ff" points="732,-191 732,-213 842,-213 842,-191 732,-191"/>
<text text-anchor="start" x="781.441" y="-199" font-family="Helvetica,sans-Serif" font-size="10.00" fill="#000000">no</text>
<polygon fill="none" stroke="#0000ff" points="732,-169 732,-191 842,-191 842,-169 732,-169"/>
<text text-anchor="start" x="759.495" y="-177" font-family="Helvetica,sans-Serif" font-size="10.00" fill="#000000">net&#45;analyzer</text>
<polygon fill="none" stroke="#0000ff" points="732,-147 732,-169 842,-169 842,-147 732,-147"/>
<text text-anchor="start" x="772.8335" y="-155" font-family="Helvetica,sans-Serif" font-size="10.00" fill="#000000">rrdtool</text>
<polygon fill="none" stroke="#0000ff" points="732,-125 732,-147 842,-147 842,-125 732,-125"/>
<text text-anchor="start" x="775.882" y="-133" font-family="Helvetica,sans-Serif" font-size="10.00" fill="#000000">none</text>
<polygon fill="none" stroke="#0000ff" points="732,-115 732,-125 842,-125 842,-115 732,-115"/>
</g>
<!-- id&#45;&gt;dependency1817 -->
<g id="edge7" class="edge">
<title>id:e&#45;&gt;dependency1817:w</title>
<path fill="none" stroke="#000000" d="M461.5,-477C604.2622,-422.4177 468.5025,-173.482 610.6369,-164.2629"/>
<ellipse fill="none" stroke="#000000" cx="615.002" cy="-164.1257" rx="4" ry="4"/>
<path fill="none" stroke="#000000" d="M304,-655C409.6341,-655 362.8315,-514.724 461.5,-477"/>
</g>
<!-- dependency1818 -->
<g id="node9" class="node">
<title>dependency1818</title>
<polygon fill="none" stroke="#0000ff" points="627,-363 627,-461 732,-461 732,-363 627,-363"/>
<text text-anchor="start" x="657.823" y="-409" font-family="Helvetica,sans-Serif" font-size="10.00" fill="#000000">pack_dep</text>
<polygon fill="none" stroke="#0000ff" points="732,-439 732,-461 842,-461 842,-439 732,-439"/>
<text text-anchor="start" x="781.441" y="-447" font-family="Helvetica,sans-Serif" font-size="10.00" fill="#000000">no</text>
<polygon fill="none" stroke="#0000ff" points="732,-417 732,-439 842,-439 842,-417 732,-417"/>
<text text-anchor="start" x="773.668" y="-425" font-family="Helvetica,sans-Serif" font-size="10.00" fill="#000000">virtual</text>
<polygon fill="none" stroke="#0000ff" points="732,-395 732,-417 842,-417 842,-395 732,-395"/>
<text text-anchor="start" x="765.8795" y="-403" font-family="Helvetica,sans-Serif" font-size="10.00" fill="#000000">httpd&#45;php</text>
<polygon fill="none" stroke="#0000ff" points="732,-373 732,-395 842,-395 842,-373 732,-373"/>
<text text-anchor="start" x="775.882" y="-381" font-family="Helvetica,sans-Serif" font-size="10.00" fill="#000000">none</text>
<polygon fill="none" stroke="#0000ff" points="732,-363 732,-373 842,-373 842,-363 732,-363"/>
</g>
<!-- id&#45;&gt;dependency1818 -->
<g id="edge8" class="edge">
<title>id:e&#45;&gt;dependency1818:w</title>
<path fill="none" stroke="#000000" d="M461.5,-477C529.6085,-450.96 542.3715,-414.8021 610.8304,-412.1543"/>
<ellipse fill="none" stroke="#000000" cx="615.0007" cy="-412.0756" rx="4" ry="4"/>
</g>
<!-- dependency1812 -->
<g id="node3" class="node">
<title>dependency1812</title>
<polygon fill="none" stroke="#0000ff" points="627,-909 627,-1007 732,-1007 732,-909 627,-909"/>
<text text-anchor="start" x="657.823" y="-955" font-family="Helvetica,sans-Serif" font-size="10.00" fill="#000000">pack_dep</text>
<polygon fill="none" stroke="#0000ff" points="732,-985 732,-1007 842,-1007 842,-985 732,-985"/>
<text text-anchor="start" x="781.441" y="-993" font-family="Helvetica,sans-Serif" font-size="10.00" fill="#000000">no</text>
<polygon fill="none" stroke="#0000ff" points="732,-963 732,-985 842,-985 842,-963 732,-963"/>
<text text-anchor="start" x="773.668" y="-971" font-family="Helvetica,sans-Serif" font-size="10.00" fill="#000000">virtual</text>
<polygon fill="none" stroke="#0000ff" points="732,-941 732,-963 842,-963 842,-941 732,-941"/>
<text text-anchor="start" x="767.829" y="-949" font-family="Helvetica,sans-Serif" font-size="10.00" fill="#000000">httpd&#45;cgi</text>
<polygon fill="none" stroke="#0000ff" points="732,-919 732,-941 842,-941 842,-919 732,-919"/>
<text text-anchor="start" x="775.882" y="-927" font-family="Helvetica,sans-Serif" font-size="10.00" fill="#000000">none</text>
<polygon fill="none" stroke="#0000ff" points="732,-909 732,-919 842,-919 842,-909 732,-909"/>
</g>
<!-- dependency1811&#45;&gt;dependency1812 -->
<g id="edge1" class="edge">
<title>dependency1811:e&#45;&gt;dependency1812:w</title>
<path fill="none" stroke="#000000" stroke-dasharray="1,5" d="M511,-834C580.3725,-834 549.5057,-945.726 608.6977,-957.0732"/>
<polygon fill="none" stroke="#000000" points="618.6864,-961.4859 609.0402,-957.1039 619.3136,-954.5141 618.6864,-961.4859"/>
</g>
<!-- dependency1813 -->
<g id="node4" class="node">
<title>dependency1813</title>
<polygon fill="none" stroke="#0000ff" points="627,-785 627,-883 732,-883 732,-785 627,-785"/>
<text text-anchor="start" x="657.823" y="-831" font-family="Helvetica,sans-Serif" font-size="10.00" fill="#000000">pack_dep</text>
<polygon fill="none" stroke="#0000ff" points="732,-861 732,-883 842,-883 842,-861 732,-861"/>
<text text-anchor="start" x="781.441" y="-869" font-family="Helvetica,sans-Serif" font-size="10.00" fill="#000000">no</text>
<polygon fill="none" stroke="#0000ff" points="732,-839 732,-861 842,-861 842,-839 732,-839"/>
<text text-anchor="start" x="773.668" y="-847" font-family="Helvetica,sans-Serif" font-size="10.00" fill="#000000">virtual</text>
<polygon fill="none" stroke="#0000ff" points="732,-817 732,-839 842,-839 842,-817 732,-817"/>
<text text-anchor="start" x="759.7705" y="-825" font-family="Helvetica,sans-Serif" font-size="10.00" fill="#000000">httpd&#45;fastcgi</text>
<polygon fill="none" stroke="#0000ff" points="732,-795 732,-817 842,-817 842,-795 732,-795"/>
<text text-anchor="start" x="775.882" y="-803" font-family="Helvetica,sans-Serif" font-size="10.00" fill="#000000">none</text>
<polygon fill="none" stroke="#0000ff" points="732,-785 732,-795 842,-795 842,-785 732,-785"/>
</g>
<!-- dependency1811&#45;&gt;dependency1813 -->
<g id="edge2" class="edge">
<title>dependency1811:e&#45;&gt;dependency1813:w</title>
<path fill="none" stroke="#000000" stroke-dasharray="1,5" d="M511,-834C555.4375,-834 569.0204,-834 608.878,-834"/>
<polygon fill="none" stroke="#000000" points="619,-837.5 609,-834.0001 619,-830.5 619,-837.5"/>
</g>
<!-- choice1181051141161179710847104116116112100459910310545484511450 -->
<g id="node10" class="node">
<title>choice1181051141161179710847104116116112100459910310545484511450</title>
<g id="a_node10"><a xlink:href="../virtual/httpd-cgi-0-r2.svg" xlink:title="portage://virtual/httpd&#45;cgi&#45;0&#45;r2">
<ellipse fill="none" stroke="#ff0000" cx="1107" cy="-904" rx="144" ry="18"/>
<text text-anchor="middle" x="1107" y="-901" font-family="Helvetica,sans-Serif" font-size="10.00" fill="#000000">portage://virtual/httpd&#45;cgi&#45;0&#45;r2</text>
</a>
</g>
</g>
<!-- dependency1812&#45;&gt;choice1181051141161179710847104116116112100459910310545484511450 -->
<g id="edge9" class="edge">
<title>dependency1812:e&#45;&gt;choice1181051141161179710847104116116112100459910310545484511450:w</title>
<path fill="none" stroke="#000000" stroke-dasharray="1,5" d="M855,-958C905.1019,-958 909.0118,-910.9337 952.9789,-904.6828"/>
<polygon fill="#000000" stroke="#000000" points="963,-904 953.3291,-909.1694 958.0116,-904.3399 953.0231,-904.6798 953.0231,-904.6798 953.0231,-904.6798 958.0116,-904.3399 952.7172,-900.1902 963,-904 963,-904"/>
</g>
<!-- choice1181051141161179710847104116116112100459910310545484511449 -->
<g id="node11" class="node">
<title>choice1181051141161179710847104116116112100459910310545484511449</title>
<g id="a_node11"><a xlink:href="../virtual/httpd-cgi-0-r1.svg" xlink:title="portage://virtual/httpd&#45;cgi&#45;0&#45;r1">
<ellipse fill="none" stroke="#ff0000" cx="1107" cy="-958" rx="144" ry="18"/>
<text text-anchor="middle" x="1107" y="-955" font-family="Helvetica,sans-Serif" font-size="10.00" fill="#000000">portage://virtual/httpd&#45;cgi&#45;0&#45;r1</text>
</a>
</g>
</g>
<!-- dependency1812&#45;&gt;choice1181051141161179710847104116116112100459910310545484511449 -->
<g id="edge10" class="edge">
<title>dependency1812:e&#45;&gt;choice1181051141161179710847104116116112100459910310545484511449:w</title>
<path fill="none" stroke="#000000" stroke-dasharray="1,5" d="M855,-958C899.4375,-958 913.0204,-958 952.878,-958"/>
<polygon fill="#000000" stroke="#000000" points="963,-958 953,-962.5001 958,-958 953,-958.0001 953,-958.0001 953,-958.0001 958,-958 953,-953.5001 963,-958 963,-958"/>
</g>
<!-- choice118105114116117971084710411611611210045102971151169910310545484511449 -->
<g id="node12" class="node">
<title>choice118105114116117971084710411611611210045102971151169910310545484511449</title>
<g id="a_node12"><a xlink:href="../virtual/httpd-fastcgi-0-r1.svg" xlink:title="portage://virtual/httpd&#45;fastcgi&#45;0&#45;r1">
<ellipse fill="none" stroke="#ff0000" cx="1107" cy="-834" rx="144" ry="18"/>
<text text-anchor="middle" x="1107" y="-831" font-family="Helvetica,sans-Serif" font-size="10.00" fill="#000000">portage://virtual/httpd&#45;fastcgi&#45;0&#45;r1</text>
</a>
</g>
</g>
<!-- dependency1813&#45;&gt;choice118105114116117971084710411611611210045102971151169910310545484511449 -->
<g id="edge11" class="edge">
<title>dependency1813:e&#45;&gt;choice118105114116117971084710411611611210045102971151169910310545484511449:w</title>
<path fill="none" stroke="#000000" stroke-dasharray="1,5" d="M855,-834C899.4375,-834 913.0204,-834 952.878,-834"/>
<polygon fill="#000000" stroke="#000000" points="963,-834 953,-838.5001 958,-834 953,-834.0001 953,-834.0001 953,-834.0001 958,-834 953,-829.5001 963,-834 963,-834"/>
</g>
<!-- choice97112112459710010910511047119101989711211245991111101021051034557575757 -->
<g id="node13" class="node">
<title>choice97112112459710010910511047119101989711211245991111101021051034557575757</title>
<g id="a_node13"><a xlink:href="../app-admin/webapp-config-9999.svg" xlink:title="portage://app&#45;admin/webapp&#45;config&#45;9999">
<ellipse fill="none" stroke="#ff0000" cx="1107" cy="-593" rx="144" ry="18"/>
<text text-anchor="middle" x="1107" y="-590" font-family="Helvetica,sans-Serif" font-size="10.00" fill="#000000">portage://app&#45;admin/webapp&#45;config&#45;9999</text>
</a>
</g>
</g>
<!-- dependency1814&#45;&gt;choice97112112459710010910511047119101989711211245991111101021051034557575757 -->
<g id="edge12" class="edge">
<title>dependency1814:e&#45;&gt;choice97112112459710010910511047119101989711211245991111101021051034557575757:w</title>
<path fill="none" stroke="#000000" stroke-dasharray="1,5" d="M855,-704C920.2017,-704 897.0231,-604.3983 952.9035,-593.8935"/>
<polygon fill="#000000" stroke="#000000" points="963,-593 953.4356,-598.3641 958.0195,-593.4408 953.0389,-593.8816 953.0389,-593.8816 953.0389,-593.8816 958.0195,-593.4408 952.6422,-589.3991 963,-593 963,-593"/>
</g>
<!-- choice971121124597100109105110471191019897112112459911111010210510345494653534511449 -->
<g id="node14" class="node">
<title>choice971121124597100109105110471191019897112112459911111010210510345494653534511449</title>
<g id="a_node14"><a xlink:href="../app-admin/webapp-config-1.55-r1.svg" xlink:title="portage://app&#45;admin/webapp&#45;config&#45;1.55&#45;r1">
<ellipse fill="none" stroke="#ff0000" cx="1107" cy="-685" rx="144" ry="18"/>
<text text-anchor="middle" x="1107" y="-682" font-family="Helvetica,sans-Serif" font-size="10.00" fill="#000000">portage://app&#45;admin/webapp&#45;config&#45;1.55&#45;r1</text>
</a>
</g>
</g>
<!-- dependency1814&#45;&gt;choice971121124597100109105110471191019897112112459911111010210510345494653534511449 -->
<g id="edge13" class="edge">
<title>dependency1814:e&#45;&gt;choice971121124597100109105110471191019897112112459911111010210510345494653534511449:w</title>
<path fill="none" stroke="#000000" stroke-dasharray="1,5" d="M855,-704C900.2151,-704 912.542,-687.6469 953.0038,-685.2833"/>
<polygon fill="#000000" stroke="#000000" points="963,-685 953.1316,-689.7816 958.002,-685.1417 953.004,-685.2834 953.004,-685.2834 953.004,-685.2834 958.002,-685.1417 952.8765,-680.7852 963,-685 963,-685"/>
</g>
<!-- dependency1815&#45;&gt;choice97112112459710010910511047119101989711211245991111101021051034557575757 -->
<g id="edge14" class="edge">
<title>dependency1815:e&#45;&gt;choice97112112459710010910511047119101989711211245991111101021051034557575757:w</title>
<path fill="none" stroke="#000000" stroke-dasharray="1,5" d="M855,-542C904.454,-542 909.427,-586.2657 952.7996,-592.3176"/>
<polygon fill="#000000" stroke="#000000" points="963,-593 952.7219,-596.8224 958.0112,-592.6662 953.0223,-592.3324 953.0223,-592.3324 953.0223,-592.3324 958.0112,-592.6662 953.3227,-587.8425 963,-593 963,-593"/>
</g>
<!-- dependency1815&#45;&gt;choice971121124597100109105110471191019897112112459911111010210510345494653534511449 -->
<g id="edge15" class="edge">
<title>dependency1815:e&#45;&gt;choice971121124597100109105110471191019897112112459911111010210510345494653534511449:w</title>
<path fill="none" stroke="#000000" stroke-dasharray="1,5" d="M855,-542C930.9115,-542 887.8758,-671.908 952.6361,-684.0868"/>
<polygon fill="#000000" stroke="#000000" points="963,-685 952.6436,-688.6048 958.0193,-684.5611 953.0386,-684.1222 953.0386,-684.1222 953.0386,-684.1222 958.0193,-684.5611 953.4336,-679.6396 963,-685 963,-685"/>
</g>
<!-- choice100101118451089711010347112104112455546524657 -->
<g id="node15" class="node">
<title>choice100101118451089711010347112104112455546524657</title>
<g id="a_node15"><a xlink:href="../dev-lang/php-7.4.9.svg" xlink:title="portage://dev&#45;lang/php&#45;7.4.9">
<ellipse fill="none" stroke="#ff0000" cx="1107" cy="-358" rx="144" ry="18"/>
<text text-anchor="middle" x="1107" y="-355" font-family="Helvetica,sans-Serif" font-size="10.00" fill="#000000">portage://dev&#45;lang/php&#45;7.4.9</text>
</a>
</g>
</g>
<!-- dependency1816&#45;&gt;choice100101118451089711010347112104112455546524657 -->
<g id="edge16" class="edge">
<title>dependency1816:e&#45;&gt;choice100101118451089711010347112104112455546524657:w</title>
<path fill="none" stroke="#000000" stroke-dasharray="1,5" d="M855,-288C908.6255,-288 906.3512,-349.5234 952.9892,-357.2139"/>
<polygon fill="#000000" stroke="#000000" points="963,-358 952.6784,-361.7032 958.0153,-357.6085 953.0307,-357.217 953.0307,-357.217 953.0307,-357.217 958.0153,-357.6085 953.383,-352.7308 963,-358 963,-358"/>
</g>
<!-- choice10010111845108971101034711210411245554651465049 -->
<g id="node16" class="node">
<title>choice10010111845108971101034711210411245554651465049</title>
<g id="a_node16"><a xlink:href="../dev-lang/php-7.3.21.svg" xlink:title="portage://dev&#45;lang/php&#45;7.3.21">
<ellipse fill="none" stroke="#ff0000" cx="1107" cy="-304" rx="144" ry="18"/>
<text text-anchor="middle" x="1107" y="-301" font-family="Helvetica,sans-Serif" font-size="10.00" fill="#000000">portage://dev&#45;lang/php&#45;7.3.21</text>
</a>
</g>
</g>
<!-- dependency1816&#45;&gt;choice10010111845108971101034711210411245554651465049 -->
<g id="edge17" class="edge">
<title>dependency1816:e&#45;&gt;choice10010111845108971101034711210411245554651465049:w</title>
<path fill="none" stroke="#000000" stroke-dasharray="1,5" d="M855,-288C899.9225,-288 912.6434,-301.7131 952.786,-303.7487"/>
<polygon fill="#000000" stroke="#000000" points="963,-304 952.8923,-308.2526 958.0015,-303.877 953.003,-303.7539 953.003,-303.7539 953.003,-303.7539 958.0015,-303.877 953.1138,-299.2553 963,-304 963,-304"/>
</g>
<!-- choice10010111845108971101034711210411245554650465151 -->
<g id="node17" class="node">
<title>choice10010111845108971101034711210411245554650465151</title>
<g id="a_node17"><a xlink:href="../dev-lang/php-7.2.33.svg" xlink:title="portage://dev&#45;lang/php&#45;7.2.33">
<ellipse fill="none" stroke="#ff0000" cx="1107" cy="-250" rx="144" ry="18"/>
<text text-anchor="middle" x="1107" y="-247" font-family="Helvetica,sans-Serif" font-size="10.00" fill="#000000">portage://dev&#45;lang/php&#45;7.2.33</text>
</a>
</g>
</g>
<!-- dependency1816&#45;&gt;choice10010111845108971101034711210411245554650465151 -->
<g id="edge18" class="edge">
<title>dependency1816:e&#45;&gt;choice10010111845108971101034711210411245554650465151:w</title>
<path fill="none" stroke="#000000" stroke-dasharray="1,5" d="M855,-288C902.3067,-288 911.0185,-255.1559 952.8978,-250.5372"/>
<polygon fill="#000000" stroke="#000000" points="963,-250 953.2531,-255.0247 958.0071,-250.2655 953.0141,-250.5311 953.0141,-250.5311 953.0141,-250.5311 958.0071,-250.2655 952.7751,-246.0374 963,-250 963,-250"/>
</g>
<!-- choice110101116459711097108121122101114471141141001161111111084549465546504511449 -->
<g id="node18" class="node">
<title>choice110101116459711097108121122101114471141141001161111111084549465546504511449</title>
<g id="a_node18"><a xlink:href="../net-analyzer/rrdtool-1.7.2-r1.svg" xlink:title="portage://net&#45;analyzer/rrdtool&#45;1.7.2&#45;r1">
<ellipse fill="none" stroke="#ff0000" cx="1107" cy="-142" rx="144" ry="18"/>
<text text-anchor="middle" x="1107" y="-139" font-family="Helvetica,sans-Serif" font-size="10.00" fill="#000000">portage://net&#45;analyzer/rrdtool&#45;1.7.2&#45;r1</text>
</a>
</g>
</g>
<!-- dependency1817&#45;&gt;choice110101116459711097108121122101114471141141001161111111084549465546504511449 -->
<g id="edge19" class="edge">
<title>dependency1817:e&#45;&gt;choice110101116459711097108121122101114471141141001161111111084549465546504511449:w</title>
<path fill="none" stroke="#000000" stroke-dasharray="1,5" d="M855,-164C900.4458,-164 912.3614,-145.0648 952.961,-142.3281"/>
<polygon fill="#000000" stroke="#000000" points="963,-142 953.1524,-146.8243 958.0027,-142.1634 953.0053,-142.3267 953.0053,-142.3267 953.0053,-142.3267 958.0027,-142.1634 952.8583,-137.8291 963,-142 963,-142"/>
</g>
<!-- choice11010111645971109710812112210111447114114100116111111108454946554650 -->
<g id="node19" class="node">
<title>choice11010111645971109710812112210111447114114100116111111108454946554650</title>
<g id="a_node19"><a xlink:href="../net-analyzer/rrdtool-1.7.2.svg" xlink:title="portage://net&#45;analyzer/rrdtool&#45;1.7.2">
<ellipse fill="none" stroke="#ff0000" cx="1107" cy="-88" rx="144" ry="18"/>
<text text-anchor="middle" x="1107" y="-85" font-family="Helvetica,sans-Serif" font-size="10.00" fill="#000000">portage://net&#45;analyzer/rrdtool&#45;1.7.2</text>
</a>
</g>
</g>
<!-- dependency1817&#45;&gt;choice11010111645971109710812112210111447114114100116111111108454946554650 -->
<g id="edge20" class="edge">
<title>dependency1817:e&#45;&gt;choice11010111645971109710812112210111447114114100116111111108454946554650:w</title>
<path fill="none" stroke="#000000" stroke-dasharray="1,5" d="M855,-164C910.0252,-164 905.2139,-97.2031 952.7595,-88.8535"/>
<polygon fill="#000000" stroke="#000000" points="963,-88 953.4084,-93.3151 958.0173,-88.4153 953.0346,-88.8307 953.0346,-88.8307 953.0346,-88.8307 958.0173,-88.4153 952.6607,-84.3462 963,-88 963,-88"/>
</g>
<!-- choice11010111645971109710812112210111447114114100116111111108454946554649 -->
<g id="node20" class="node">
<title>choice11010111645971109710812112210111447114114100116111111108454946554649</title>
<g id="a_node20"><a xlink:href="../net-analyzer/rrdtool-1.7.1.svg" xlink:title="portage://net&#45;analyzer/rrdtool&#45;1.7.1">
<ellipse fill="none" stroke="#ff0000" cx="1107" cy="-34" rx="144" ry="18"/>
<text text-anchor="middle" x="1107" y="-31" font-family="Helvetica,sans-Serif" font-size="10.00" fill="#000000">portage://net&#45;analyzer/rrdtool&#45;1.7.1</text>
</a>
</g>
</g>
<!-- dependency1817&#45;&gt;choice11010111645971109710812112210111447114114100116111111108454946554649 -->
<g id="edge21" class="edge">
<title>dependency1817:e&#45;&gt;choice11010111645971109710812112210111447114114100116111111108454946554649:w</title>
<path fill="none" stroke="#000000" stroke-dasharray="1,5" d="M855,-164C926.4473,-164 891.7292,-46.3854 952.8088,-34.8996"/>
<polygon fill="#000000" stroke="#000000" points="963,-34 953.4344,-39.3619 958.0194,-34.4397 953.0387,-34.8794 953.0387,-34.8794 953.0387,-34.8794 958.0194,-34.4397 952.643,-30.3968 963,-34 963,-34"/>
</g>
<!-- choice110101116459711097108121122101114471141141001161111111084549465446484511449 -->
<g id="node21" class="node">
<title>choice110101116459711097108121122101114471141141001161111111084549465446484511449</title>
<g id="a_node21"><a xlink:href="../net-analyzer/rrdtool-1.6.0-r1.svg" xlink:title="portage://net&#45;analyzer/rrdtool&#45;1.6.0&#45;r1">
<ellipse fill="none" stroke="#ff0000" cx="1107" cy="-196" rx="144" ry="18"/>
<text text-anchor="middle" x="1107" y="-193" font-family="Helvetica,sans-Serif" font-size="10.00" fill="#000000">portage://net&#45;analyzer/rrdtool&#45;1.6.0&#45;r1</text>
</a>
</g>
</g>
<!-- dependency1817&#45;&gt;choice110101116459711097108121122101114471141141001161111111084549465446484511449 -->
<g id="edge22" class="edge">
<title>dependency1817:e&#45;&gt;choice110101116459711097108121122101114471141141001161111111084549465446484511449:w</title>
<path fill="none" stroke="#000000" stroke-dasharray="1,5" d="M855,-164C901.4449,-164 911.5789,-191.5421 952.7757,-195.5228"/>
<polygon fill="#000000" stroke="#000000" points="963,-196 952.801,-200.0288 958.0054,-195.7668 953.0109,-195.5337 953.0109,-195.5337 953.0109,-195.5337 958.0054,-195.7668 953.2207,-191.0386 963,-196 963,-196"/>
</g>
<!-- choice11810511411611797108471041161161121004511210411245554652 -->
<g id="node22" class="node">
<title>choice11810511411611797108471041161161121004511210411245554652</title>
<g id="a_node22"><a xlink:href="../virtual/httpd-php-7.4.svg" xlink:title="portage://virtual/httpd&#45;php&#45;7.4">
<ellipse fill="none" stroke="#ff0000" cx="1107" cy="-520" rx="144" ry="18"/>
<text text-anchor="middle" x="1107" y="-517" font-family="Helvetica,sans-Serif" font-size="10.00" fill="#000000">portage://virtual/httpd&#45;php&#45;7.4</text>
</a>
</g>
</g>
<!-- dependency1818&#45;&gt;choice11810511411611797108471041161161121004511210411245554652 -->
<g id="edge23" class="edge">
<title>dependency1818:e&#45;&gt;choice11810511411611797108471041161161121004511210411245554652:w</title>
<path fill="none" stroke="#000000" stroke-dasharray="1,5" d="M855,-412C919.3025,-412 897.7801,-508.9097 953.0307,-519.1307"/>
<polygon fill="#000000" stroke="#000000" points="963,-520 952.6468,-523.6142 958.0189,-519.5656 953.0378,-519.1312 953.0378,-519.1312 953.0378,-519.1312 958.0189,-519.5656 953.4288,-514.6482 963,-520 963,-520"/>
</g>
<!-- choice11810511411611797108471041161161121004511210411245554651 -->
<g id="node23" class="node">
<title>choice11810511411611797108471041161161121004511210411245554651</title>
<g id="a_node23"><a xlink:href="../virtual/httpd-php-7.3.svg" xlink:title="portage://virtual/httpd&#45;php&#45;7.3">
<ellipse fill="none" stroke="#ff0000" cx="1107" cy="-466" rx="144" ry="18"/>
<text text-anchor="middle" x="1107" y="-463" font-family="Helvetica,sans-Serif" font-size="10.00" fill="#000000">portage://virtual/httpd&#45;php&#45;7.3</text>
</a>
</g>
</g>
<!-- dependency1818&#45;&gt;choice11810511411611797108471041161161121004511210411245554651 -->
<g id="edge24" class="edge">
<title>dependency1818:e&#45;&gt;choice11810511411611797108471041161161121004511210411245554651:w</title>
<path fill="none" stroke="#000000" stroke-dasharray="1,5" d="M855,-412C905.1019,-412 909.0118,-459.0663 952.9789,-465.3172"/>
<polygon fill="#000000" stroke="#000000" points="963,-466 952.7172,-469.8098 958.0116,-465.6601 953.0231,-465.3202 953.0231,-465.3202 953.0231,-465.3202 958.0116,-465.6601 953.3291,-460.8306 963,-466 963,-466"/>
</g>
<!-- choice11810511411611797108471041161161121004511210411245554650 -->
<g id="node24" class="node">
<title>choice11810511411611797108471041161161121004511210411245554650</title>
<g id="a_node24"><a xlink:href="../virtual/httpd-php-7.2.svg" xlink:title="portage://virtual/httpd&#45;php&#45;7.2">
<ellipse fill="none" stroke="#ff0000" cx="1107" cy="-412" rx="144" ry="18"/>
<text text-anchor="middle" x="1107" y="-409" font-family="Helvetica,sans-Serif" font-size="10.00" fill="#000000">portage://virtual/httpd&#45;php&#45;7.2</text>
</a>
</g>
</g>
<!-- dependency1818&#45;&gt;choice11810511411611797108471041161161121004511210411245554650 -->
<g id="edge25" class="edge">
<title>dependency1818:e&#45;&gt;choice11810511411611797108471041161161121004511210411245554650:w</title>
<path fill="none" stroke="#000000" stroke-dasharray="1,5" d="M855,-412C899.4375,-412 913.0204,-412 952.878,-412"/>
<polygon fill="#000000" stroke="#000000" points="963,-412 953,-416.5001 958,-412 953,-412.0001 953,-412.0001 953,-412.0001 958,-412 953,-407.5001 963,-412 963,-412"/>
</g>
</g>
</svg>
