<?xml version="1.0" encoding="UTF-8" standalone="no"?>
<!DOCTYPE svg PUBLIC "-//W3C//DTD SVG 1.1//EN"
 "http://www.w3.org/Graphics/SVG/1.1/DTD/svg11.dtd">
<!-- Generated by graphviz version 2.40.1 (20161225.0304)
 -->
<!-- Title: prolog Pages: 1 -->
<svg width="1533pt" height="1207pt"
 viewBox="0.00 0.00 1533.00 1207.00" xmlns="http://www.w3.org/2000/svg" xmlns:xlink="http://www.w3.org/1999/xlink">
<g id="graph0" class="graph" transform="scale(1 1) rotate(0) translate(4 1203)">
<title>prolog</title>
<polygon fill="#ffffff" stroke="transparent" points="-4,4 -4,-1203 1529,-1203 1529,4 -4,4"/>
<g id="clust1" class="cluster">
<title>cluster_leftcol</title>
<polygon fill="none" stroke="#c0c0c0" points="8,-673 8,-745 312,-745 312,-673 8,-673"/>
<text text-anchor="start" x="146.663" y="-733" font-family="Helvetica,sans-Serif" font-style="italic" font-size="10.00" fill="#000000">ebuild</text>
</g>
<g id="clust2" class="cluster">
<title>cluster_midcol</title>
<polygon fill="none" stroke="#c0c0c0" points="396,-73 396,-1191 1129,-1191 1129,-73 396,-73"/>
<text text-anchor="start" x="731.375" y="-1179" font-family="Helvetica,sans-Serif" font-style="italic" font-size="10.00" fill="#000000">dependencies</text>
</g>
<g id="clust3" class="cluster">
<title>cluster_compile</title>
<polygon fill="#eeeeee" stroke="#c0c0c0" points="662,-761 662,-1163 1121,-1163 1121,-761 662,-761"/>
<text text-anchor="start" x="874.278" y="-1151" font-family="Helvetica,sans-Serif" font-style="italic" font-size="10.00" fill="#000000">compile</text>
</g>
<g id="clust9" class="cluster">
<title>cluster_run</title>
<polygon fill="#eeeeee" stroke="#c0c0c0" points="404,-81 404,-753 1121,-753 1121,-81 404,-81"/>
<text text-anchor="start" x="755.2765" y="-741" font-family="Helvetica,sans-Serif" font-style="italic" font-size="10.00" fill="#000000">run</text>
</g>
<g id="clust17" class="cluster">
<title>cluster_choices</title>
<polygon fill="none" stroke="#c0c0c0" points="1213,-8 1213,-1058 1517,-1058 1517,-8 1213,-8"/>
<text text-anchor="start" x="1340.824" y="-1046" font-family="Helvetica,sans-Serif" font-style="italic" font-size="10.00" fill="#000000">candidates</text>
</g>
<!-- id -->
<g id="node1" class="node">
<title>id</title>
<g id="a_node1"><a xlink:href="../www-apps/dokuwiki-20180422b.svg" xlink:title="portage://www&#45;apps/dokuwiki&#45;20180422b">
<ellipse fill="none" stroke="#ff0000" cx="160" cy="-699" rx="144" ry="18"/>
<text text-anchor="middle" x="160" y="-696" font-family="Helvetica,sans-Serif" font-size="10.00" fill="#000000">portage://www&#45;apps/dokuwiki&#45;20180422b</text>
</a>
</g>
</g>
<!-- dependency3012 -->
<g id="node2" class="node">
<title>dependency3012</title>
<polygon fill="none" stroke="#ff0000" points="678.5,-941 678.5,-975 761.5,-975 761.5,-941 678.5,-941"/>
<text text-anchor="start" x="689.4305" y="-955" font-family="Helvetica,sans-Serif" font-size="10.00" fill="#000000">any_of_group</text>
</g>
<!-- id&#45;&gt;dependency3012 -->
<g id="edge3" class="edge">
<title>id:e&#45;&gt;dependency3012:w</title>
<path fill="none" stroke="#000000" d="M304,-699C327.137,-699 601.652,-922.8586 660.139,-954.3387"/>
<polygon fill="#000000" stroke="#000000" points="669.5,-958 658.5478,-958.5482 664.8435,-956.1787 660.187,-954.3574 660.187,-954.3574 660.187,-954.3574 664.8435,-956.1787 661.8262,-950.1665 669.5,-958 669.5,-958"/>
</g>
<!-- dependency3015 -->
<g id="node5" class="node">
<title>dependency3015</title>
<polygon fill="none" stroke="#0000ff" points="885,-773 885,-883 990,-883 990,-773 885,-773"/>
<text text-anchor="start" x="915.823" y="-825" font-family="Helvetica,sans-Serif" font-size="10.00" fill="#000000">pack_dep</text>
<polygon fill="none" stroke="#0000ff" points="990,-861 990,-883 1100,-883 1100,-861 990,-861"/>
<text text-anchor="start" x="1039.441" y="-869" font-family="Helvetica,sans-Serif" font-size="10.00" fill="#000000">no</text>
<polygon fill="none" stroke="#0000ff" points="990,-839 990,-861 1100,-861 1100,-839 990,-839"/>
<text text-anchor="start" x="1021.3845" y="-847" font-family="Helvetica,sans-Serif" font-size="10.00" fill="#000000">app&#45;admin</text>
<polygon fill="none" stroke="#0000ff" points="990,-817 990,-839 1100,-839 1100,-817 990,-817"/>
<text text-anchor="start" x="1012.491" y="-825" font-family="Helvetica,sans-Serif" font-size="10.00" fill="#000000">webapp&#45;config</text>
<polygon fill="none" stroke="#0000ff" points="990,-795 990,-817 1100,-817 1100,-795 990,-795"/>
<text text-anchor="start" x="1016.936" y="-803" font-family="Helvetica,sans-Serif" font-size="10.00" fill="#000000">greaterequal</text>
<polygon fill="none" stroke="#0000ff" points="990,-773 990,-795 1100,-795 1100,-773 990,-773"/>
<text text-anchor="start" x="1028.3235" y="-781" font-family="Helvetica,sans-Serif" font-size="10.00" fill="#000000">1.50.15</text>
</g>
<!-- id&#45;&gt;dependency3015 -->
<g id="edge4" class="edge">
<title>id:e&#45;&gt;dependency3015:w</title>
<path fill="none" stroke="#000000" d="M719.5,-647C742.2186,-640.741 750.5974,-651.2808 769,-666 833.8046,-717.8335 794.0579,-819.2354 867.0048,-827.4664"/>
<polygon fill="#000000" stroke="#000000" points="877,-828 866.7743,-831.9604 872.0071,-827.7334 867.0142,-827.4668 867.0142,-827.4668 867.0142,-827.4668 872.0071,-827.7334 867.2542,-822.9732 877,-828 877,-828"/>
</g>
<!-- dependency3016 -->
<g id="node6" class="node">
<title>dependency3016</title>
<polygon fill="none" stroke="#ff0000" points="420,-677 420,-721 511,-721 511,-677 420,-677"/>
<text text-anchor="start" x="430.7665" y="-696" font-family="Helvetica,sans-Serif" font-size="10.00" fill="#000000">use_conditional</text>
<polygon fill="none" stroke="#ff0000" points="511,-699 511,-721 554,-721 554,-699 511,-699"/>
<text text-anchor="start" x="515.553" y="-707" font-family="Helvetica,sans-Serif" font-size="10.00" fill="#000000">positive</text>
<polygon fill="none" stroke="#ff0000" points="511,-677 511,-699 554,-699 554,-677 511,-677"/>
<text text-anchor="start" x="526.941" y="-685" font-family="Helvetica,sans-Serif" font-size="10.00" fill="#000000">gd</text>
</g>
<!-- id&#45;&gt;dependency3016 -->
<g id="edge8" class="edge">
<title>id:e&#45;&gt;dependency3016:w</title>
<path fill="none" stroke="#000000" d="M304,-699C349.1875,-699 362.4702,-699 403.9188,-699"/>
<ellipse fill="none" stroke="#000000" cx="408" cy="-699" rx="4" ry="4"/>
</g>
<!-- dependency3020 -->
<g id="node10" class="node">
<title>dependency3020</title>
<polygon fill="none" stroke="#0000ff" points="885,-611 885,-721 990,-721 990,-611 885,-611"/>
<text text-anchor="start" x="915.823" y="-663" font-family="Helvetica,sans-Serif" font-size="10.00" fill="#000000">pack_dep</text>
<polygon fill="none" stroke="#0000ff" points="990,-699 990,-721 1100,-721 1100,-699 990,-699"/>
<text text-anchor="start" x="1039.441" y="-707" font-family="Helvetica,sans-Serif" font-size="10.00" fill="#000000">no</text>
<polygon fill="none" stroke="#0000ff" points="990,-677 990,-699 1100,-699 1100,-677 990,-677"/>
<text text-anchor="start" x="1021.3845" y="-685" font-family="Helvetica,sans-Serif" font-size="10.00" fill="#000000">app&#45;admin</text>
<polygon fill="none" stroke="#0000ff" points="990,-655 990,-677 1100,-677 1100,-655 990,-655"/>
<text text-anchor="start" x="1012.491" y="-663" font-family="Helvetica,sans-Serif" font-size="10.00" fill="#000000">webapp&#45;config</text>
<polygon fill="none" stroke="#0000ff" points="990,-633 990,-655 1100,-655 1100,-633 990,-633"/>
<text text-anchor="start" x="1016.936" y="-641" font-family="Helvetica,sans-Serif" font-size="10.00" fill="#000000">greaterequal</text>
<polygon fill="none" stroke="#0000ff" points="990,-611 990,-633 1100,-633 1100,-611 990,-611"/>
<text text-anchor="start" x="1028.3235" y="-619" font-family="Helvetica,sans-Serif" font-size="10.00" fill="#000000">1.50.15</text>
</g>
<!-- id&#45;&gt;dependency3020 -->
<g id="edge9" class="edge">
<title>id:e&#45;&gt;dependency3020:w</title>
<path fill="none" stroke="#000000" d="M719.5,-647C784.8197,-629.0042 804.932,-663.1387 868.9671,-665.8329"/>
<ellipse fill="none" stroke="#000000" cx="873.0009" cy="-665.9168" rx="4" ry="4"/>
</g>
<!-- dependency3021 -->
<g id="node11" class="node">
<title>dependency3021</title>
<polygon fill="none" stroke="#0000ff" points="885,-227 885,-337 990,-337 990,-227 885,-227"/>
<text text-anchor="start" x="915.823" y="-279" font-family="Helvetica,sans-Serif" font-size="10.00" fill="#000000">pack_dep</text>
<polygon fill="none" stroke="#0000ff" points="990,-315 990,-337 1100,-337 1100,-315 990,-315"/>
<text text-anchor="start" x="1039.441" y="-323" font-family="Helvetica,sans-Serif" font-size="10.00" fill="#000000">no</text>
<polygon fill="none" stroke="#0000ff" points="990,-293 990,-315 1100,-315 1100,-293 990,-293"/>
<text text-anchor="start" x="1025.8285" y="-301" font-family="Helvetica,sans-Serif" font-size="10.00" fill="#000000">dev&#45;lang</text>
<polygon fill="none" stroke="#0000ff" points="990,-271 990,-293 1100,-293 1100,-271 990,-271"/>
<text text-anchor="start" x="1036.6615" y="-279" font-family="Helvetica,sans-Serif" font-size="10.00" fill="#000000">php</text>
<polygon fill="none" stroke="#0000ff" points="990,-249 990,-271 1100,-271 1100,-249 990,-249"/>
<text text-anchor="start" x="1016.936" y="-257" font-family="Helvetica,sans-Serif" font-size="10.00" fill="#000000">greaterequal</text>
<polygon fill="none" stroke="#0000ff" points="990,-227 990,-249 1100,-249 1100,-227 990,-227"/>
<text text-anchor="start" x="1038.0515" y="-235" font-family="Helvetica,sans-Serif" font-size="10.00" fill="#000000">5.3</text>
</g>
<!-- id&#45;&gt;dependency3021 -->
<g id="edge10" class="edge">
<title>id:e&#45;&gt;dependency3021:w</title>
<path fill="none" stroke="#000000" d="M719.5,-647C887.173,-600.8055 706.1539,-291.8736 868.9835,-282.2307"/>
<ellipse fill="none" stroke="#000000" cx="873.0017" cy="-282.1151" rx="4" ry="4"/>
</g>
<!-- dependency3022 -->
<g id="node12" class="node">
<title>dependency3022</title>
<polygon fill="none" stroke="#0000ff" points="885,-93 885,-191 990,-191 990,-93 885,-93"/>
<text text-anchor="start" x="915.823" y="-139" font-family="Helvetica,sans-Serif" font-size="10.00" fill="#000000">pack_dep</text>
<polygon fill="none" stroke="#0000ff" points="990,-169 990,-191 1100,-191 1100,-169 990,-169"/>
<text text-anchor="start" x="1039.441" y="-177" font-family="Helvetica,sans-Serif" font-size="10.00" fill="#000000">no</text>
<polygon fill="none" stroke="#0000ff" points="990,-147 990,-169 1100,-169 1100,-147 990,-147"/>
<text text-anchor="start" x="1031.668" y="-155" font-family="Helvetica,sans-Serif" font-size="10.00" fill="#000000">virtual</text>
<polygon fill="none" stroke="#0000ff" points="990,-125 990,-147 1100,-147 1100,-125 990,-125"/>
<text text-anchor="start" x="1023.8795" y="-133" font-family="Helvetica,sans-Serif" font-size="10.00" fill="#000000">httpd&#45;php</text>
<polygon fill="none" stroke="#0000ff" points="990,-103 990,-125 1100,-125 1100,-103 990,-103"/>
<text text-anchor="start" x="1033.882" y="-111" font-family="Helvetica,sans-Serif" font-size="10.00" fill="#000000">none</text>
<polygon fill="none" stroke="#0000ff" points="990,-93 990,-103 1100,-103 1100,-93 990,-93"/>
</g>
<!-- id&#45;&gt;dependency3022 -->
<g id="edge11" class="edge">
<title>id:e&#45;&gt;dependency3022:w</title>
<path fill="none" stroke="#000000" d="M719.5,-647C943.506,-585.2855 648.9514,-152.3202 868.955,-142.181"/>
<ellipse fill="none" stroke="#000000" cx="873.001" cy="-142.09" rx="4" ry="4"/>
<path fill="none" stroke="#000000" d="M304,-699C347.7479,-699 353.1952,-673.0347 396,-664 536.8725,-634.2664 580.6953,-685.2412 719.5,-647"/>
</g>
<!-- dependency3013 -->
<g id="node3" class="node">
<title>dependency3013</title>
<polygon fill="none" stroke="#0000ff" points="885,-909 885,-1007 990,-1007 990,-909 885,-909"/>
<text text-anchor="start" x="915.823" y="-955" font-family="Helvetica,sans-Serif" font-size="10.00" fill="#000000">pack_dep</text>
<polygon fill="none" stroke="#0000ff" points="990,-985 990,-1007 1100,-1007 1100,-985 990,-985"/>
<text text-anchor="start" x="1039.441" y="-993" font-family="Helvetica,sans-Serif" font-size="10.00" fill="#000000">no</text>
<polygon fill="none" stroke="#0000ff" points="990,-963 990,-985 1100,-985 1100,-963 990,-963"/>
<text text-anchor="start" x="1031.668" y="-971" font-family="Helvetica,sans-Serif" font-size="10.00" fill="#000000">virtual</text>
<polygon fill="none" stroke="#0000ff" points="990,-941 990,-963 1100,-963 1100,-941 990,-941"/>
<text text-anchor="start" x="1025.829" y="-949" font-family="Helvetica,sans-Serif" font-size="10.00" fill="#000000">httpd&#45;cgi</text>
<polygon fill="none" stroke="#0000ff" points="990,-919 990,-941 1100,-941 1100,-919 990,-919"/>
<text text-anchor="start" x="1033.882" y="-927" font-family="Helvetica,sans-Serif" font-size="10.00" fill="#000000">none</text>
<polygon fill="none" stroke="#0000ff" points="990,-909 990,-919 1100,-919 1100,-909 990,-909"/>
</g>
<!-- dependency3012&#45;&gt;dependency3013 -->
<g id="edge1" class="edge">
<title>dependency3012:e&#45;&gt;dependency3013:w</title>
<path fill="none" stroke="#000000" stroke-dasharray="1,5" d="M769,-958C813.4375,-958 827.0204,-958 866.878,-958"/>
<polygon fill="none" stroke="#000000" points="877,-961.5 867,-958.0001 877,-954.5 877,-961.5"/>
</g>
<!-- dependency3014 -->
<g id="node4" class="node">
<title>dependency3014</title>
<polygon fill="none" stroke="#0000ff" points="885,-1033 885,-1131 990,-1131 990,-1033 885,-1033"/>
<text text-anchor="start" x="915.823" y="-1079" font-family="Helvetica,sans-Serif" font-size="10.00" fill="#000000">pack_dep</text>
<polygon fill="none" stroke="#0000ff" points="990,-1109 990,-1131 1100,-1131 1100,-1109 990,-1109"/>
<text text-anchor="start" x="1039.441" y="-1117" font-family="Helvetica,sans-Serif" font-size="10.00" fill="#000000">no</text>
<polygon fill="none" stroke="#0000ff" points="990,-1087 990,-1109 1100,-1109 1100,-1087 990,-1087"/>
<text text-anchor="start" x="1031.668" y="-1095" font-family="Helvetica,sans-Serif" font-size="10.00" fill="#000000">virtual</text>
<polygon fill="none" stroke="#0000ff" points="990,-1065 990,-1087 1100,-1087 1100,-1065 990,-1065"/>
<text text-anchor="start" x="1017.7705" y="-1073" font-family="Helvetica,sans-Serif" font-size="10.00" fill="#000000">httpd&#45;fastcgi</text>
<polygon fill="none" stroke="#0000ff" points="990,-1043 990,-1065 1100,-1065 1100,-1043 990,-1043"/>
<text text-anchor="start" x="1033.882" y="-1051" font-family="Helvetica,sans-Serif" font-size="10.00" fill="#000000">none</text>
<polygon fill="none" stroke="#0000ff" points="990,-1033 990,-1043 1100,-1043 1100,-1033 990,-1033"/>
</g>
<!-- dependency3012&#45;&gt;dependency3014 -->
<g id="edge2" class="edge">
<title>dependency3012:e&#45;&gt;dependency3014:w</title>
<path fill="none" stroke="#000000" stroke-dasharray="1,5" d="M769,-958C838.3725,-958 807.5057,-1069.726 866.6977,-1081.0732"/>
<polygon fill="none" stroke="#000000" points="876.6864,-1085.4859 867.0402,-1081.1039 877.3136,-1078.5141 876.6864,-1085.4859"/>
</g>
<!-- choice1181051141161179710847104116116112100459910310545484511450 -->
<g id="node13" class="node">
<title>choice1181051141161179710847104116116112100459910310545484511450</title>
<g id="a_node13"><a xlink:href="../virtual/httpd-cgi-0-r2.svg" xlink:title="portage://virtual/httpd&#45;cgi&#45;0&#45;r2">
<ellipse fill="none" stroke="#ff0000" cx="1365" cy="-904" rx="144" ry="18"/>
<text text-anchor="middle" x="1365" y="-901" font-family="Helvetica,sans-Serif" font-size="10.00" fill="#000000">portage://virtual/httpd&#45;cgi&#45;0&#45;r2</text>
</a>
</g>
</g>
<!-- dependency3013&#45;&gt;choice1181051141161179710847104116116112100459910310545484511450 -->
<g id="edge12" class="edge">
<title>dependency3013:e&#45;&gt;choice1181051141161179710847104116116112100459910310545484511450:w</title>
<path fill="none" stroke="#000000" stroke-dasharray="1,5" d="M1113,-958C1163.1019,-958 1167.0118,-910.9337 1210.9789,-904.6828"/>
<polygon fill="#000000" stroke="#000000" points="1221,-904 1211.3291,-909.1694 1216.0116,-904.3399 1211.0231,-904.6798 1211.0231,-904.6798 1211.0231,-904.6798 1216.0116,-904.3399 1210.7172,-900.1902 1221,-904 1221,-904"/>
</g>
<!-- choice1181051141161179710847104116116112100459910310545484511449 -->
<g id="node14" class="node">
<title>choice1181051141161179710847104116116112100459910310545484511449</title>
<g id="a_node14"><a xlink:href="../virtual/httpd-cgi-0-r1.svg" xlink:title="portage://virtual/httpd&#45;cgi&#45;0&#45;r1">
<ellipse fill="none" stroke="#ff0000" cx="1365" cy="-958" rx="144" ry="18"/>
<text text-anchor="middle" x="1365" y="-955" font-family="Helvetica,sans-Serif" font-size="10.00" fill="#000000">portage://virtual/httpd&#45;cgi&#45;0&#45;r1</text>
</a>
</g>
</g>
<!-- dependency3013&#45;&gt;choice1181051141161179710847104116116112100459910310545484511449 -->
<g id="edge13" class="edge">
<title>dependency3013:e&#45;&gt;choice1181051141161179710847104116116112100459910310545484511449:w</title>
<path fill="none" stroke="#000000" stroke-dasharray="1,5" d="M1113,-958C1157.4375,-958 1171.0204,-958 1210.878,-958"/>
<polygon fill="#000000" stroke="#000000" points="1221,-958 1211,-962.5001 1216,-958 1211,-958.0001 1211,-958.0001 1211,-958.0001 1216,-958 1211,-953.5001 1221,-958 1221,-958"/>
</g>
<!-- choice118105114116117971084710411611611210045102971151169910310545484511449 -->
<g id="node15" class="node">
<title>choice118105114116117971084710411611611210045102971151169910310545484511449</title>
<g id="a_node15"><a xlink:href="../virtual/httpd-fastcgi-0-r1.svg" xlink:title="portage://virtual/httpd&#45;fastcgi&#45;0&#45;r1">
<ellipse fill="none" stroke="#ff0000" cx="1365" cy="-1012" rx="144" ry="18"/>
<text text-anchor="middle" x="1365" y="-1009" font-family="Helvetica,sans-Serif" font-size="10.00" fill="#000000">portage://virtual/httpd&#45;fastcgi&#45;0&#45;r1</text>
</a>
</g>
</g>
<!-- dependency3014&#45;&gt;choice118105114116117971084710411611611210045102971151169910310545484511449 -->
<g id="edge14" class="edge">
<title>dependency3014:e&#45;&gt;choice118105114116117971084710411611611210045102971151169910310545484511449:w</title>
<path fill="none" stroke="#000000" stroke-dasharray="1,5" d="M1113,-1082C1166.6255,-1082 1164.3512,-1020.4766 1210.9892,-1012.7861"/>
<polygon fill="#000000" stroke="#000000" points="1221,-1012 1211.383,-1017.2692 1216.0153,-1012.3915 1211.0307,-1012.783 1211.0307,-1012.783 1211.0307,-1012.783 1216.0153,-1012.3915 1210.6784,-1008.2968 1221,-1012 1221,-1012"/>
</g>
<!-- choice97112112459710010910511047119101989711211245991111101021051034557575757 -->
<g id="node16" class="node">
<title>choice97112112459710010910511047119101989711211245991111101021051034557575757</title>
<g id="a_node16"><a xlink:href="../app-admin/webapp-config-9999.svg" xlink:title="portage://app&#45;admin/webapp&#45;config&#45;9999">
<ellipse fill="none" stroke="#ff0000" cx="1365" cy="-790" rx="144" ry="18"/>
<text text-anchor="middle" x="1365" y="-787" font-family="Helvetica,sans-Serif" font-size="10.00" fill="#000000">portage://app&#45;admin/webapp&#45;config&#45;9999</text>
</a>
</g>
</g>
<!-- dependency3015&#45;&gt;choice97112112459710010910511047119101989711211245991111101021051034557575757 -->
<g id="edge15" class="edge">
<title>dependency3015:e&#45;&gt;choice97112112459710010910511047119101989711211245991111101021051034557575757:w</title>
<path fill="none" stroke="#000000" stroke-dasharray="1,5" d="M1113,-828C1160.3067,-828 1169.0185,-795.1559 1210.8978,-790.5372"/>
<polygon fill="#000000" stroke="#000000" points="1221,-790 1211.2531,-795.0247 1216.0071,-790.2655 1211.0141,-790.5311 1211.0141,-790.5311 1211.0141,-790.5311 1216.0071,-790.2655 1210.7751,-786.0374 1221,-790 1221,-790"/>
</g>
<!-- choice971121124597100109105110471191019897112112459911111010210510345494653534511449 -->
<g id="node17" class="node">
<title>choice971121124597100109105110471191019897112112459911111010210510345494653534511449</title>
<g id="a_node17"><a xlink:href="../app-admin/webapp-config-1.55-r1.svg" xlink:title="portage://app&#45;admin/webapp&#45;config&#45;1.55&#45;r1">
<ellipse fill="none" stroke="#ff0000" cx="1365" cy="-844" rx="144" ry="18"/>
<text text-anchor="middle" x="1365" y="-841" font-family="Helvetica,sans-Serif" font-size="10.00" fill="#000000">portage://app&#45;admin/webapp&#45;config&#45;1.55&#45;r1</text>
</a>
</g>
</g>
<!-- dependency3015&#45;&gt;choice971121124597100109105110471191019897112112459911111010210510345494653534511449 -->
<g id="edge16" class="edge">
<title>dependency3015:e&#45;&gt;choice971121124597100109105110471191019897112112459911111010210510345494653534511449:w</title>
<path fill="none" stroke="#000000" stroke-dasharray="1,5" d="M1113,-828C1157.9225,-828 1170.6434,-841.7131 1210.786,-843.7487"/>
<polygon fill="#000000" stroke="#000000" points="1221,-844 1210.8923,-848.2526 1216.0015,-843.877 1211.003,-843.7539 1211.003,-843.7539 1211.003,-843.7539 1216.0015,-843.877 1211.1138,-839.2553 1221,-844 1221,-844"/>
</g>
<!-- dependency3017 -->
<g id="node7" class="node">
<title>dependency3017</title>
<polygon fill="none" stroke="#ff0000" points="678.5,-679 678.5,-713 761.5,-713 761.5,-679 678.5,-679"/>
<text text-anchor="start" x="689.4305" y="-693" font-family="Helvetica,sans-Serif" font-size="10.00" fill="#000000">any_of_group</text>
</g>
<!-- dependency3016&#45;&gt;dependency3017 -->
<g id="edge7" class="edge">
<title>dependency3016:e&#45;&gt;dependency3017:w</title>
<path fill="none" stroke="#000000" stroke-dasharray="5,2" d="M562,-699C606.249,-699 619.7384,-696.4288 659.4216,-696.0471"/>
<polygon fill="#000000" stroke="#000000" points="669.5,-696 659.5212,-700.5468 664.5001,-696.0234 659.5001,-696.0469 659.5001,-696.0469 659.5001,-696.0469 664.5001,-696.0234 659.479,-691.5469 669.5,-696 669.5,-696"/>
</g>
<!-- dependency3018 -->
<g id="node8" class="node">
<title>dependency3018</title>
<polygon fill="none" stroke="#0000ff" points="885,-363 885,-461 990,-461 990,-363 885,-363"/>
<text text-anchor="start" x="915.823" y="-409" font-family="Helvetica,sans-Serif" font-size="10.00" fill="#000000">pack_dep</text>
<polygon fill="none" stroke="#0000ff" points="990,-439 990,-461 1100,-461 1100,-439 990,-439"/>
<text text-anchor="start" x="1039.441" y="-447" font-family="Helvetica,sans-Serif" font-size="10.00" fill="#000000">no</text>
<polygon fill="none" stroke="#0000ff" points="990,-417 990,-439 1100,-439 1100,-417 990,-417"/>
<text text-anchor="start" x="1025.8285" y="-425" font-family="Helvetica,sans-Serif" font-size="10.00" fill="#000000">dev&#45;lang</text>
<polygon fill="none" stroke="#0000ff" points="990,-395 990,-417 1100,-417 1100,-395 990,-395"/>
<text text-anchor="start" x="1036.6615" y="-403" font-family="Helvetica,sans-Serif" font-size="10.00" fill="#000000">php</text>
<polygon fill="none" stroke="#0000ff" points="990,-373 990,-395 1100,-395 1100,-373 990,-373"/>
<text text-anchor="start" x="1033.882" y="-381" font-family="Helvetica,sans-Serif" font-size="10.00" fill="#000000">none</text>
<polygon fill="none" stroke="#0000ff" points="990,-363 990,-373 1100,-373 1100,-363 990,-363"/>
</g>
<!-- dependency3017&#45;&gt;dependency3018 -->
<g id="edge5" class="edge">
<title>dependency3017:e&#45;&gt;dependency3018:w</title>
<path fill="none" stroke="#000000" stroke-dasharray="1,5" d="M769,-696C900.4803,-696 750.2998,-426.7791 866.9269,-412.5819"/>
<polygon fill="none" stroke="#000000" points="877.2019,-415.4942 867.0166,-412.5768 876.7981,-408.5058 877.2019,-415.4942"/>
</g>
<!-- dependency3019 -->
<g id="node9" class="node">
<title>dependency3019</title>
<polygon fill="none" stroke="#0000ff" points="885,-487 885,-585 990,-585 990,-487 885,-487"/>
<text text-anchor="start" x="915.823" y="-533" font-family="Helvetica,sans-Serif" font-size="10.00" fill="#000000">pack_dep</text>
<polygon fill="none" stroke="#0000ff" points="990,-563 990,-585 1100,-585 1100,-563 990,-563"/>
<text text-anchor="start" x="1039.441" y="-571" font-family="Helvetica,sans-Serif" font-size="10.00" fill="#000000">no</text>
<polygon fill="none" stroke="#0000ff" points="990,-541 990,-563 1100,-563 1100,-541 990,-541"/>
<text text-anchor="start" x="1023.054" y="-549" font-family="Helvetica,sans-Serif" font-size="10.00" fill="#000000">media&#45;gfx</text>
<polygon fill="none" stroke="#0000ff" points="990,-519 990,-541 1100,-541 1100,-519 990,-519"/>
<text text-anchor="start" x="1015.5545" y="-527" font-family="Helvetica,sans-Serif" font-size="10.00" fill="#000000">imagemagick</text>
<polygon fill="none" stroke="#0000ff" points="990,-497 990,-519 1100,-519 1100,-497 990,-497"/>
<text text-anchor="start" x="1033.882" y="-505" font-family="Helvetica,sans-Serif" font-size="10.00" fill="#000000">none</text>
<polygon fill="none" stroke="#0000ff" points="990,-487 990,-497 1100,-497 1100,-487 990,-487"/>
</g>
<!-- dependency3017&#45;&gt;dependency3019 -->
<g id="edge6" class="edge">
<title>dependency3017:e&#45;&gt;dependency3019:w</title>
<path fill="none" stroke="#000000" stroke-dasharray="1,5" d="M769,-696C851.1085,-696 796.3939,-549.4546 866.7442,-536.8608"/>
<polygon fill="none" stroke="#000000" points="877.2928,-539.4877 867.035,-536.8365 876.7072,-532.5123 877.2928,-539.4877"/>
</g>
<!-- choice100101118451089711010347112104112455546524654 -->
<g id="node18" class="node">
<title>choice100101118451089711010347112104112455546524654</title>
<g id="a_node18"><a xlink:href="../dev-lang/php-7.4.6.svg" xlink:title="portage://dev&#45;lang/php&#45;7.4.6">
<ellipse fill="none" stroke="#ff0000" cx="1365" cy="-466" rx="144" ry="18"/>
<text text-anchor="middle" x="1365" y="-463" font-family="Helvetica,sans-Serif" font-size="10.00" fill="#000000">portage://dev&#45;lang/php&#45;7.4.6</text>
</a>
</g>
</g>
<!-- dependency3018&#45;&gt;choice100101118451089711010347112104112455546524654 -->
<g id="edge17" class="edge">
<title>dependency3018:e&#45;&gt;choice100101118451089711010347112104112455546524654:w</title>
<path fill="none" stroke="#000000" stroke-dasharray="1,5" d="M1113,-412C1163.1019,-412 1167.0118,-459.0663 1210.9789,-465.3172"/>
<polygon fill="#000000" stroke="#000000" points="1221,-466 1210.7172,-469.8098 1216.0116,-465.6601 1211.0231,-465.3202 1211.0231,-465.3202 1211.0231,-465.3202 1216.0116,-465.6601 1211.3291,-460.8306 1221,-466 1221,-466"/>
</g>
<!-- choice100101118451089711010347112104112455546524653 -->
<g id="node19" class="node">
<title>choice100101118451089711010347112104112455546524653</title>
<g id="a_node19"><a xlink:href="../dev-lang/php-7.4.5.svg" xlink:title="portage://dev&#45;lang/php&#45;7.4.5">
<ellipse fill="none" stroke="#ff0000" cx="1365" cy="-412" rx="144" ry="18"/>
<text text-anchor="middle" x="1365" y="-409" font-family="Helvetica,sans-Serif" font-size="10.00" fill="#000000">portage://dev&#45;lang/php&#45;7.4.5</text>
</a>
</g>
</g>
<!-- dependency3018&#45;&gt;choice100101118451089711010347112104112455546524653 -->
<g id="edge18" class="edge">
<title>dependency3018:e&#45;&gt;choice100101118451089711010347112104112455546524653:w</title>
<path fill="none" stroke="#000000" stroke-dasharray="1,5" d="M1113,-412C1157.4375,-412 1171.0204,-412 1210.878,-412"/>
<polygon fill="#000000" stroke="#000000" points="1221,-412 1211,-416.5001 1216,-412 1211,-412.0001 1211,-412.0001 1211,-412.0001 1216,-412 1211,-407.5001 1221,-412 1221,-412"/>
</g>
<!-- choice10010111845108971101034711210411245554651464956 -->
<g id="node20" class="node">
<title>choice10010111845108971101034711210411245554651464956</title>
<g id="a_node20"><a xlink:href="../dev-lang/php-7.3.18.svg" xlink:title="portage://dev&#45;lang/php&#45;7.3.18">
<ellipse fill="none" stroke="#ff0000" cx="1365" cy="-358" rx="144" ry="18"/>
<text text-anchor="middle" x="1365" y="-355" font-family="Helvetica,sans-Serif" font-size="10.00" fill="#000000">portage://dev&#45;lang/php&#45;7.3.18</text>
</a>
</g>
</g>
<!-- dependency3018&#45;&gt;choice10010111845108971101034711210411245554651464956 -->
<g id="edge19" class="edge">
<title>dependency3018:e&#45;&gt;choice10010111845108971101034711210411245554651464956:w</title>
<path fill="none" stroke="#000000" stroke-dasharray="1,5" d="M1113,-412C1163.1019,-412 1167.0118,-364.9337 1210.9789,-358.6828"/>
<polygon fill="#000000" stroke="#000000" points="1221,-358 1211.3291,-363.1694 1216.0116,-358.3399 1211.0231,-358.6798 1211.0231,-358.6798 1211.0231,-358.6798 1216.0116,-358.3399 1210.7172,-354.1902 1221,-358 1221,-358"/>
</g>
<!-- choice10010111845108971101034711210411245554651464955 -->
<g id="node21" class="node">
<title>choice10010111845108971101034711210411245554651464955</title>
<g id="a_node21"><a xlink:href="../dev-lang/php-7.3.17.svg" xlink:title="portage://dev&#45;lang/php&#45;7.3.17">
<ellipse fill="none" stroke="#ff0000" cx="1365" cy="-304" rx="144" ry="18"/>
<text text-anchor="middle" x="1365" y="-301" font-family="Helvetica,sans-Serif" font-size="10.00" fill="#000000">portage://dev&#45;lang/php&#45;7.3.17</text>
</a>
</g>
</g>
<!-- dependency3018&#45;&gt;choice10010111845108971101034711210411245554651464955 -->
<g id="edge20" class="edge">
<title>dependency3018:e&#45;&gt;choice10010111845108971101034711210411245554651464955:w</title>
<path fill="none" stroke="#000000" stroke-dasharray="1,5" d="M1113,-412C1177.3025,-412 1155.7801,-315.0903 1211.0307,-304.8693"/>
<polygon fill="#000000" stroke="#000000" points="1221,-304 1211.4288,-309.3518 1216.0189,-304.4344 1211.0378,-304.8688 1211.0378,-304.8688 1211.0378,-304.8688 1216.0189,-304.4344 1210.6468,-300.3858 1221,-304 1221,-304"/>
</g>
<!-- choice10010111845108971101034711210411245554650465149 -->
<g id="node22" class="node">
<title>choice10010111845108971101034711210411245554650465149</title>
<g id="a_node22"><a xlink:href="../dev-lang/php-7.2.31.svg" xlink:title="portage://dev&#45;lang/php&#45;7.2.31">
<ellipse fill="none" stroke="#ff0000" cx="1365" cy="-250" rx="144" ry="18"/>
<text text-anchor="middle" x="1365" y="-247" font-family="Helvetica,sans-Serif" font-size="10.00" fill="#000000">portage://dev&#45;lang/php&#45;7.2.31</text>
</a>
</g>
</g>
<!-- dependency3018&#45;&gt;choice10010111845108971101034711210411245554650465149 -->
<g id="edge21" class="edge">
<title>dependency3018:e&#45;&gt;choice10010111845108971101034711210411245554650465149:w</title>
<path fill="none" stroke="#000000" stroke-dasharray="1,5" d="M1113,-412C1195.815,-412 1139.7785,-263.6228 1210.661,-250.8716"/>
<polygon fill="#000000" stroke="#000000" points="1221,-250 1211.4134,-255.3242 1216.0177,-250.4201 1211.0353,-250.8401 1211.0353,-250.8401 1211.0353,-250.8401 1216.0177,-250.4201 1210.6573,-246.356 1221,-250 1221,-250"/>
</g>
<!-- choice10010111845108971101034711210411245554650465148 -->
<g id="node23" class="node">
<title>choice10010111845108971101034711210411245554650465148</title>
<g id="a_node23"><a xlink:href="../dev-lang/php-7.2.30.svg" xlink:title="portage://dev&#45;lang/php&#45;7.2.30">
<ellipse fill="none" stroke="#ff0000" cx="1365" cy="-196" rx="144" ry="18"/>
<text text-anchor="middle" x="1365" y="-193" font-family="Helvetica,sans-Serif" font-size="10.00" fill="#000000">portage://dev&#45;lang/php&#45;7.2.30</text>
</a>
</g>
</g>
<!-- dependency3018&#45;&gt;choice10010111845108971101034711210411245554650465148 -->
<g id="edge22" class="edge">
<title>dependency3018:e&#45;&gt;choice10010111845108971101034711210411245554650465148:w</title>
<path fill="none" stroke="#000000" stroke-dasharray="1,5" d="M1113,-412C1216.7675,-412 1120.5159,-210.1056 1211.0009,-196.6986"/>
<polygon fill="#000000" stroke="#000000" points="1221,-196 1211.338,-201.1861 1216.0122,-196.3485 1211.0243,-196.697 1211.0243,-196.697 1211.0243,-196.697 1216.0122,-196.3485 1210.7107,-192.208 1221,-196 1221,-196"/>
</g>
<!-- choice1091011001059745103102120471051099710310110997103105991074557575757 -->
<g id="node24" class="node">
<title>choice1091011001059745103102120471051099710310110997103105991074557575757</title>
<g id="a_node24"><a xlink:href="../media-gfx/imagemagick-9999.svg" xlink:title="portage://media&#45;gfx/imagemagick&#45;9999">
<ellipse fill="none" stroke="#ff0000" cx="1365" cy="-520" rx="144" ry="18"/>
<text text-anchor="middle" x="1365" y="-517" font-family="Helvetica,sans-Serif" font-size="10.00" fill="#000000">portage://media&#45;gfx/imagemagick&#45;9999</text>
</a>
</g>
</g>
<!-- dependency3019&#45;&gt;choice1091011001059745103102120471051099710310110997103105991074557575757 -->
<g id="edge23" class="edge">
<title>dependency3019:e&#45;&gt;choice1091011001059745103102120471051099710310110997103105991074557575757:w</title>
<path fill="none" stroke="#000000" stroke-dasharray="1,5" d="M1113,-536C1157.9225,-536 1170.6434,-522.2869 1210.786,-520.2513"/>
<polygon fill="#000000" stroke="#000000" points="1221,-520 1211.1138,-524.7447 1216.0015,-520.123 1211.003,-520.2461 1211.003,-520.2461 1211.003,-520.2461 1216.0015,-520.123 1210.8923,-515.7474 1221,-520 1221,-520"/>
</g>
<!-- choice109101100105974510310212047105109971031011099710310599107455546484649484657 -->
<g id="node25" class="node">
<title>choice109101100105974510310212047105109971031011099710310599107455546484649484657</title>
<g id="a_node25"><a xlink:href="../media-gfx/imagemagick-7.0.10.9.svg" xlink:title="portage://media&#45;gfx/imagemagick&#45;7.0.10.9">
<ellipse fill="none" stroke="#ff0000" cx="1365" cy="-736" rx="144" ry="18"/>
<text text-anchor="middle" x="1365" y="-733" font-family="Helvetica,sans-Serif" font-size="10.00" fill="#000000">portage://media&#45;gfx/imagemagick&#45;7.0.10.9</text>
</a>
</g>
</g>
<!-- dependency3019&#45;&gt;choice109101100105974510310212047105109971031011099710310599107455546484649484657 -->
<g id="edge24" class="edge">
<title>dependency3019:e&#45;&gt;choice109101100105974510310212047105109971031011099710310599107455546484649484657:w</title>
<path fill="none" stroke="#000000" stroke-dasharray="1,5" d="M1113,-536C1210.3708,-536 1126.5204,-721.808 1210.7951,-735.2355"/>
<polygon fill="#000000" stroke="#000000" points="1221,-736 1210.6917,-739.7403 1216.014,-735.6264 1211.0279,-735.2529 1211.0279,-735.2529 1211.0279,-735.2529 1216.014,-735.6264 1211.3641,-730.7654 1221,-736 1221,-736"/>
</g>
<!-- choice1091011001059745103102120471051099710310110997103105991074555464846494846554511449 -->
<g id="node26" class="node">
<title>choice1091011001059745103102120471051099710310110997103105991074555464846494846554511449</title>
<g id="a_node26"><a xlink:href="../media-gfx/imagemagick-7.0.10.7-r1.svg" xlink:title="portage://media&#45;gfx/imagemagick&#45;7.0.10.7&#45;r1">
<ellipse fill="none" stroke="#ff0000" cx="1365" cy="-682" rx="144" ry="18"/>
<text text-anchor="middle" x="1365" y="-679" font-family="Helvetica,sans-Serif" font-size="10.00" fill="#000000">portage://media&#45;gfx/imagemagick&#45;7.0.10.7&#45;r1</text>
</a>
</g>
</g>
<!-- dependency3019&#45;&gt;choice1091011001059745103102120471051099710310110997103105991074555464846494846554511449 -->
<g id="edge25" class="edge">
<title>dependency3019:e&#45;&gt;choice1091011001059745103102120471051099710310110997103105991074555464846494846554511449:w</title>
<path fill="none" stroke="#000000" stroke-dasharray="1,5" d="M1113,-536C1190.0871,-536 1144.8164,-669.1774 1210.9104,-681.1426"/>
<polygon fill="#000000" stroke="#000000" points="1221,-682 1210.6548,-685.637 1216.018,-681.5766 1211.0359,-681.1532 1211.0359,-681.1532 1211.0359,-681.1532 1216.018,-681.5766 1211.417,-676.6693 1221,-682 1221,-682"/>
</g>
<!-- choice109101100105974510310212047105109971031011099710310599107455446574649494657 -->
<g id="node27" class="node">
<title>choice109101100105974510310212047105109971031011099710310599107455446574649494657</title>
<g id="a_node27"><a xlink:href="../media-gfx/imagemagick-6.9.11.9.svg" xlink:title="portage://media&#45;gfx/imagemagick&#45;6.9.11.9">
<ellipse fill="none" stroke="#ff0000" cx="1365" cy="-628" rx="144" ry="18"/>
<text text-anchor="middle" x="1365" y="-625" font-family="Helvetica,sans-Serif" font-size="10.00" fill="#000000">portage://media&#45;gfx/imagemagick&#45;6.9.11.9</text>
</a>
</g>
</g>
<!-- dependency3019&#45;&gt;choice109101100105974510310212047105109971031011099710310599107455446574649494657 -->
<g id="edge26" class="edge">
<title>dependency3019:e&#45;&gt;choice109101100105974510310212047105109971031011099710310599107455446574649494657:w</title>
<path fill="none" stroke="#000000" stroke-dasharray="1,5" d="M1113,-536C1172.3601,-536 1159.7888,-617.5346 1210.7195,-627.0894"/>
<polygon fill="#000000" stroke="#000000" points="1221,-628 1210.6419,-631.6001 1216.0195,-627.5588 1211.039,-627.1177 1211.039,-627.1177 1211.039,-627.1177 1216.0195,-627.5588 1211.436,-622.6352 1221,-628 1221,-628"/>
</g>
<!-- choice109101100105974510310212047105109971031011099710310599107455446574649494655 -->
<g id="node28" class="node">
<title>choice109101100105974510310212047105109971031011099710310599107455446574649494655</title>
<g id="a_node28"><a xlink:href="../media-gfx/imagemagick-6.9.11.7.svg" xlink:title="portage://media&#45;gfx/imagemagick&#45;6.9.11.7">
<ellipse fill="none" stroke="#ff0000" cx="1365" cy="-574" rx="144" ry="18"/>
<text text-anchor="middle" x="1365" y="-571" font-family="Helvetica,sans-Serif" font-size="10.00" fill="#000000">portage://media&#45;gfx/imagemagick&#45;6.9.11.7</text>
</a>
</g>
</g>
<!-- dependency3019&#45;&gt;choice109101100105974510310212047105109971031011099710310599107455446574649494655 -->
<g id="edge27" class="edge">
<title>dependency3019:e&#45;&gt;choice109101100105974510310212047105109971031011099710310599107455446574649494655:w</title>
<path fill="none" stroke="#000000" stroke-dasharray="1,5" d="M1113,-536C1160.3067,-536 1169.0185,-568.8441 1210.8978,-573.4628"/>
<polygon fill="#000000" stroke="#000000" points="1221,-574 1210.7751,-577.9626 1216.0071,-573.7345 1211.0141,-573.4689 1211.0141,-573.4689 1211.0141,-573.4689 1216.0071,-573.7345 1211.2531,-568.9753 1221,-574 1221,-574"/>
</g>
<!-- dependency3020&#45;&gt;choice97112112459710010910511047119101989711211245991111101021051034557575757 -->
<g id="edge28" class="edge">
<title>dependency3020:e&#45;&gt;choice97112112459710010910511047119101989711211245991111101021051034557575757:w</title>
<path fill="none" stroke="#000000" stroke-dasharray="1,5" d="M1113,-666C1182.3725,-666 1151.5057,-777.726 1210.6977,-789.0732"/>
<polygon fill="#000000" stroke="#000000" points="1221,-790 1210.637,-793.5858 1216.0201,-789.552 1211.0402,-789.1039 1211.0402,-789.1039 1211.0402,-789.1039 1216.0201,-789.552 1211.4435,-784.622 1221,-790 1221,-790"/>
</g>
<!-- dependency3020&#45;&gt;choice971121124597100109105110471191019897112112459911111010210510345494653534511449 -->
<g id="edge29" class="edge">
<title>dependency3020:e&#45;&gt;choice971121124597100109105110471191019897112112459911111010210510345494653534511449:w</title>
<path fill="none" stroke="#000000" stroke-dasharray="1,5" d="M1113,-666C1201.9195,-666 1134.228,-830.3654 1210.9123,-843.2064"/>
<polygon fill="#000000" stroke="#000000" points="1221,-844 1210.6778,-847.7018 1216.0154,-843.6078 1211.0308,-843.2156 1211.0308,-843.2156 1211.0308,-843.2156 1216.0154,-843.6078 1211.3838,-838.7295 1221,-844 1221,-844"/>
</g>
<!-- dependency3021&#45;&gt;choice100101118451089711010347112104112455546524654 -->
<g id="edge30" class="edge">
<title>dependency3021:e&#45;&gt;choice100101118451089711010347112104112455546524654:w</title>
<path fill="none" stroke="#000000" stroke-dasharray="1,5" d="M1113,-282C1204.12,-282 1132.2854,-451.9058 1210.6746,-465.1796"/>
<polygon fill="#000000" stroke="#000000" points="1221,-466 1210.675,-469.6938 1216.0157,-465.604 1211.0314,-465.2079 1211.0314,-465.2079 1211.0314,-465.2079 1216.0157,-465.604 1211.3879,-460.722 1221,-466 1221,-466"/>
</g>
<!-- dependency3021&#45;&gt;choice100101118451089711010347112104112455546524653 -->
<g id="edge31" class="edge">
<title>dependency3021:e&#45;&gt;choice100101118451089711010347112104112455546524653:w</title>
<path fill="none" stroke="#000000" stroke-dasharray="1,5" d="M1113,-282C1184.4473,-282 1149.7292,-399.6146 1210.8088,-411.1004"/>
<polygon fill="#000000" stroke="#000000" points="1221,-412 1210.643,-415.6032 1216.0194,-411.5603 1211.0387,-411.1206 1211.0387,-411.1206 1211.0387,-411.1206 1216.0194,-411.5603 1211.4344,-406.6381 1221,-412 1221,-412"/>
</g>
<!-- dependency3021&#45;&gt;choice10010111845108971101034711210411245554651464956 -->
<g id="edge32" class="edge">
<title>dependency3021:e&#45;&gt;choice10010111845108971101034711210411245554651464956:w</title>
<path fill="none" stroke="#000000" stroke-dasharray="1,5" d="M1113,-282C1168.0252,-282 1163.2139,-348.7969 1210.7595,-357.1465"/>
<polygon fill="#000000" stroke="#000000" points="1221,-358 1210.6607,-361.6538 1216.0173,-357.5847 1211.0346,-357.1693 1211.0346,-357.1693 1211.0346,-357.1693 1216.0173,-357.5847 1211.4084,-352.6849 1221,-358 1221,-358"/>
</g>
<!-- dependency3021&#45;&gt;choice10010111845108971101034711210411245554651464955 -->
<g id="edge33" class="edge">
<title>dependency3021:e&#45;&gt;choice10010111845108971101034711210411245554651464955:w</title>
<path fill="none" stroke="#000000" stroke-dasharray="1,5" d="M1113,-282C1158.4458,-282 1170.3614,-300.9352 1210.961,-303.6719"/>
<polygon fill="#000000" stroke="#000000" points="1221,-304 1210.8583,-308.1709 1216.0027,-303.8366 1211.0053,-303.6733 1211.0053,-303.6733 1211.0053,-303.6733 1216.0027,-303.8366 1211.1524,-299.1757 1221,-304 1221,-304"/>
</g>
<!-- dependency3021&#45;&gt;choice10010111845108971101034711210411245554650465149 -->
<g id="edge34" class="edge">
<title>dependency3021:e&#45;&gt;choice10010111845108971101034711210411245554650465149:w</title>
<path fill="none" stroke="#000000" stroke-dasharray="1,5" d="M1113,-282C1159.4449,-282 1169.5789,-254.4579 1210.7757,-250.4772"/>
<polygon fill="#000000" stroke="#000000" points="1221,-250 1211.2207,-254.9614 1216.0054,-250.2332 1211.0109,-250.4663 1211.0109,-250.4663 1211.0109,-250.4663 1216.0054,-250.2332 1210.801,-245.9712 1221,-250 1221,-250"/>
</g>
<!-- dependency3021&#45;&gt;choice10010111845108971101034711210411245554650465148 -->
<g id="edge35" class="edge">
<title>dependency3021:e&#45;&gt;choice10010111845108971101034711210411245554650465148:w</title>
<path fill="none" stroke="#000000" stroke-dasharray="1,5" d="M1113,-282C1170.7638,-282 1161.1045,-205.7829 1210.9672,-196.8512"/>
<polygon fill="#000000" stroke="#000000" points="1221,-196 1211.4162,-201.3293 1216.0179,-196.4227 1211.0358,-196.8454 1211.0358,-196.8454 1211.0358,-196.8454 1216.0179,-196.4227 1210.6553,-192.3615 1221,-196 1221,-196"/>
</g>
<!-- choice11810511411611797108471041161161121004511210411245554652 -->
<g id="node29" class="node">
<title>choice11810511411611797108471041161161121004511210411245554652</title>
<g id="a_node29"><a xlink:href="../virtual/httpd-php-7.4.svg" xlink:title="portage://virtual/httpd&#45;php&#45;7.4">
<ellipse fill="none" stroke="#ff0000" cx="1365" cy="-142" rx="144" ry="18"/>
<text text-anchor="middle" x="1365" y="-139" font-family="Helvetica,sans-Serif" font-size="10.00" fill="#000000">portage://virtual/httpd&#45;php&#45;7.4</text>
</a>
</g>
</g>
<!-- dependency3022&#45;&gt;choice11810511411611797108471041161161121004511210411245554652 -->
<g id="edge36" class="edge">
<title>dependency3022:e&#45;&gt;choice11810511411611797108471041161161121004511210411245554652:w</title>
<path fill="none" stroke="#000000" stroke-dasharray="1,5" d="M1113,-142C1157.4375,-142 1171.0204,-142 1210.878,-142"/>
<polygon fill="#000000" stroke="#000000" points="1221,-142 1211,-146.5001 1216,-142 1211,-142.0001 1211,-142.0001 1211,-142.0001 1216,-142 1211,-137.5001 1221,-142 1221,-142"/>
</g>
<!-- choice11810511411611797108471041161161121004511210411245554651 -->
<g id="node30" class="node">
<title>choice11810511411611797108471041161161121004511210411245554651</title>
<g id="a_node30"><a xlink:href="../virtual/httpd-php-7.3.svg" xlink:title="portage://virtual/httpd&#45;php&#45;7.3">
<ellipse fill="none" stroke="#ff0000" cx="1365" cy="-88" rx="144" ry="18"/>
<text text-anchor="middle" x="1365" y="-85" font-family="Helvetica,sans-Serif" font-size="10.00" fill="#000000">portage://virtual/httpd&#45;php&#45;7.3</text>
</a>
</g>
</g>
<!-- dependency3022&#45;&gt;choice11810511411611797108471041161161121004511210411245554651 -->
<g id="edge37" class="edge">
<title>dependency3022:e&#45;&gt;choice11810511411611797108471041161161121004511210411245554651:w</title>
<path fill="none" stroke="#000000" stroke-dasharray="1,5" d="M1113,-142C1163.1019,-142 1167.0118,-94.9337 1210.9789,-88.6828"/>
<polygon fill="#000000" stroke="#000000" points="1221,-88 1211.3291,-93.1694 1216.0116,-88.3399 1211.0231,-88.6798 1211.0231,-88.6798 1211.0231,-88.6798 1216.0116,-88.3399 1210.7172,-84.1902 1221,-88 1221,-88"/>
</g>
<!-- choice11810511411611797108471041161161121004511210411245554650 -->
<g id="node31" class="node">
<title>choice11810511411611797108471041161161121004511210411245554650</title>
<g id="a_node31"><a xlink:href="../virtual/httpd-php-7.2.svg" xlink:title="portage://virtual/httpd&#45;php&#45;7.2">
<ellipse fill="none" stroke="#ff0000" cx="1365" cy="-34" rx="144" ry="18"/>
<text text-anchor="middle" x="1365" y="-31" font-family="Helvetica,sans-Serif" font-size="10.00" fill="#000000">portage://virtual/httpd&#45;php&#45;7.2</text>
</a>
</g>
</g>
<!-- dependency3022&#45;&gt;choice11810511411611797108471041161161121004511210411245554650 -->
<g id="edge38" class="edge">
<title>dependency3022:e&#45;&gt;choice11810511411611797108471041161161121004511210411245554650:w</title>
<path fill="none" stroke="#000000" stroke-dasharray="1,5" d="M1113,-142C1177.3025,-142 1155.7801,-45.0903 1211.0307,-34.8693"/>
<polygon fill="#000000" stroke="#000000" points="1221,-34 1211.4288,-39.3518 1216.0189,-34.4344 1211.0378,-34.8688 1211.0378,-34.8688 1211.0378,-34.8688 1216.0189,-34.4344 1210.6468,-30.3858 1221,-34 1221,-34"/>
</g>
</g>
</svg>
