<?xml version="1.0" encoding="UTF-8" standalone="no"?>
<!DOCTYPE svg PUBLIC "-//W3C//DTD SVG 1.1//EN"
 "http://www.w3.org/Graphics/SVG/1.1/DTD/svg11.dtd">
<!-- Generated by graphviz version 9.0.0 (20230911.1827)
 -->
<!-- Title: prolog Pages: 1 -->
<svg width="1332pt" height="1067pt"
 viewBox="0.00 0.00 1332.00 1067.00" xmlns="http://www.w3.org/2000/svg" xmlns:xlink="http://www.w3.org/1999/xlink">
<g id="graph0" class="graph" transform="scale(1 1) rotate(0) translate(4 1063)">
<title>prolog</title>
<polygon fill="white" stroke="none" points="-4,4 -4,-1063 1328,-1063 1328,4 -4,4"/>
<g id="clust2" class="cluster">
<title>cluster_midcol</title>
<polygon fill="none" stroke="gray" points="8,-117 8,-847 928,-847 928,-117 8,-117"/>
<text text-anchor="start" x="438" y="-834.5" font-family="Helvetica,sans-Serif" font-style="italic" font-size="10.00">dependencies</text>
</g>
<g id="clust5" class="cluster">
<title>cluster_run</title>
<polygon fill="#eeeeee" stroke="gray" points="16,-125 16,-820 920,-820 920,-125 16,-125"/>
<text text-anchor="start" x="461.25" y="-807.5" font-family="Helvetica,sans-Serif" font-style="italic" font-size="10.00">run</text>
</g>
<g id="clust12" class="cluster">
<title>cluster_choices</title>
<polygon fill="none" stroke="gray" points="1012,-8 1012,-1051 1316,-1051 1316,-8 1012,-8"/>
<text text-anchor="start" x="1140.38" y="-1038.5" font-family="Helvetica,sans-Serif" font-style="italic" font-size="10.00">candidates</text>
</g>
<!-- id -->
<g id="node1" class="node">
<title>id</title>
<g id="a_node1"><a xlink:href="../www-apps/kibana-bin-7.5.1.svg" xlink:title="portage://www&#45;apps/kibana&#45;bin&#45;7.5.1">
<ellipse fill="none" stroke="red" cx="168" cy="-445" rx="144" ry="18"/>
<text text-anchor="middle" x="168" y="-441.12" font-family="Helvetica,sans-Serif" font-size="10.00">portage://www&#45;apps/kibana&#45;bin&#45;7.5.1</text>
</a>
</g>
</g>
<!-- dependency21932 -->
<g id="node2" class="node">
<title>dependency21932</title>
<polygon fill="none" stroke="red" points="428,-283 428,-325 517,-325 517,-283 428,-283"/>
<text text-anchor="start" x="438.75" y="-300.12" font-family="Helvetica,sans-Serif" font-size="10.00">use_conditional</text>
<polygon fill="none" stroke="red" points="517,-304 517,-325 560,-325 560,-304 517,-304"/>
<text text-anchor="start" x="521.62" y="-310.5" font-family="Helvetica,sans-Serif" font-size="10.00">positive</text>
<polygon fill="none" stroke="red" points="517,-283 517,-304 560,-304 560,-283 517,-283"/>
<text text-anchor="start" x="523.88" y="-289.5" font-family="Helvetica,sans-Serif" font-size="10.00">x&#45;pack</text>
</g>
<!-- id&#45;&gt;dependency21932 -->
<g id="edge3" class="edge">
<title>id:e&#45;&gt;dependency21932:w</title>
<path fill="none" stroke="black" d="M312,-445C387.85,-445 344.76,-314.8 411.32,-304.63"/>
<ellipse fill="none" stroke="black" cx="415.51" cy="-304.33" rx="4" ry="4"/>
</g>
<!-- dependency21935 -->
<g id="node5" class="node">
<title>dependency21935</title>
<polygon fill="none" stroke="blue" points="684,-419 684,-513 788,-513 788,-419 684,-419"/>
<text text-anchor="start" x="715" y="-462.12" font-family="Helvetica,sans-Serif" font-size="10.00">pack_dep</text>
<polygon fill="none" stroke="blue" points="788,-492 788,-513 898,-513 898,-492 788,-492"/>
<text text-anchor="start" x="837.75" y="-498.5" font-family="Helvetica,sans-Serif" font-size="10.00">no</text>
<polygon fill="none" stroke="blue" points="788,-471 788,-492 898,-492 898,-471 788,-471"/>
<text text-anchor="start" x="820.12" y="-477.5" font-family="Helvetica,sans-Serif" font-size="10.00">acct&#45;group</text>
<polygon fill="none" stroke="blue" points="788,-450 788,-471 898,-471 898,-450 788,-450"/>
<text text-anchor="start" x="828.75" y="-456.5" font-family="Helvetica,sans-Serif" font-size="10.00">kibana</text>
<polygon fill="none" stroke="blue" points="788,-429 788,-450 898,-450 898,-429 788,-429"/>
<text text-anchor="start" x="832.5" y="-435.5" font-family="Helvetica,sans-Serif" font-size="10.00">none</text>
<polygon fill="none" stroke="blue" points="788,-419 788,-429 898,-429 898,-419 788,-419"/>
</g>
<!-- id&#45;&gt;dependency21935 -->
<g id="edge4" class="edge">
<title>id:e&#45;&gt;dependency21935:w</title>
<path fill="none" stroke="black" d="M495,-586C586.23,-606.48 579.99,-474.66 667.26,-466.4"/>
<ellipse fill="none" stroke="black" cx="671.5" cy="-466.21" rx="4" ry="4"/>
<path fill="none" stroke="black" d="M312,-445C413.97,-445 393.5,-563.67 493,-586"/>
</g>
<!-- dependency21936 -->
<g id="node6" class="node">
<title>dependency21936</title>
<polygon fill="none" stroke="blue" points="684,-539 684,-633 788,-633 788,-539 684,-539"/>
<text text-anchor="start" x="715" y="-582.12" font-family="Helvetica,sans-Serif" font-size="10.00">pack_dep</text>
<polygon fill="none" stroke="blue" points="788,-612 788,-633 898,-633 898,-612 788,-612"/>
<text text-anchor="start" x="837.75" y="-618.5" font-family="Helvetica,sans-Serif" font-size="10.00">no</text>
<polygon fill="none" stroke="blue" points="788,-591 788,-612 898,-612 898,-591 788,-591"/>
<text text-anchor="start" x="822.75" y="-597.5" font-family="Helvetica,sans-Serif" font-size="10.00">acct&#45;user</text>
<polygon fill="none" stroke="blue" points="788,-570 788,-591 898,-591 898,-570 788,-570"/>
<text text-anchor="start" x="828.75" y="-576.5" font-family="Helvetica,sans-Serif" font-size="10.00">kibana</text>
<polygon fill="none" stroke="blue" points="788,-549 788,-570 898,-570 898,-549 788,-549"/>
<text text-anchor="start" x="832.5" y="-555.5" font-family="Helvetica,sans-Serif" font-size="10.00">none</text>
<polygon fill="none" stroke="blue" points="788,-539 788,-549 898,-549 898,-539 788,-539"/>
</g>
<!-- id&#45;&gt;dependency21936 -->
<g id="edge5" class="edge">
<title>id:e&#45;&gt;dependency21936:w</title>
<path fill="none" stroke="black" d="M495,-586C570.58,-602.96 593.84,-587.26 667.28,-586.07"/>
<ellipse fill="none" stroke="black" cx="671.5" cy="-586.04" rx="4" ry="4"/>
</g>
<!-- dependency21937 -->
<g id="node7" class="node">
<title>dependency21937</title>
<polygon fill="none" stroke="blue" points="684,-683.5 684,-788.5 788,-788.5 788,-683.5 684,-683.5"/>
<text text-anchor="start" x="715" y="-732.12" font-family="Helvetica,sans-Serif" font-size="10.00">pack_dep</text>
<polygon fill="none" stroke="blue" points="788,-767.5 788,-788.5 898,-788.5 898,-767.5 788,-767.5"/>
<text text-anchor="start" x="837.75" y="-774" font-family="Helvetica,sans-Serif" font-size="10.00">no</text>
<polygon fill="none" stroke="blue" points="788,-746.5 788,-767.5 898,-767.5 898,-746.5 788,-746.5"/>
<text text-anchor="start" x="827.25" y="-753" font-family="Helvetica,sans-Serif" font-size="10.00">net&#45;libs</text>
<polygon fill="none" stroke="blue" points="788,-725.5 788,-746.5 898,-746.5 898,-725.5 788,-725.5"/>
<text text-anchor="start" x="828.75" y="-732" font-family="Helvetica,sans-Serif" font-size="10.00">nodejs</text>
<polygon fill="none" stroke="blue" points="788,-704.5 788,-725.5 898,-725.5 898,-704.5 788,-704.5"/>
<text text-anchor="start" x="816.38" y="-711" font-family="Helvetica,sans-Serif" font-size="10.00">greaterequal</text>
<polygon fill="none" stroke="blue" points="788,-683.5 788,-704.5 898,-704.5 898,-683.5 788,-683.5"/>
<text text-anchor="start" x="826.88" y="-690" font-family="Helvetica,sans-Serif" font-size="10.00">10.15.2</text>
</g>
<!-- id&#45;&gt;dependency21937 -->
<g id="edge6" class="edge">
<title>id:e&#45;&gt;dependency21937:w</title>
<path fill="none" stroke="black" d="M495,-586C593.96,-608.21 572.9,-728.64 667.15,-735.68"/>
<ellipse fill="none" stroke="black" cx="671.5" cy="-735.84" rx="4" ry="4"/>
</g>
<!-- dependency21933 -->
<g id="node3" class="node">
<title>dependency21933</title>
<polygon fill="none" stroke="blue" points="684,-137 684,-231 788,-231 788,-137 684,-137"/>
<text text-anchor="start" x="715" y="-180.12" font-family="Helvetica,sans-Serif" font-size="10.00">pack_dep</text>
<polygon fill="none" stroke="blue" points="788,-210 788,-231 898,-231 898,-210 788,-210"/>
<text text-anchor="start" x="837.75" y="-216.5" font-family="Helvetica,sans-Serif" font-size="10.00">no</text>
<polygon fill="none" stroke="blue" points="788,-189 788,-210 898,-210 898,-189 788,-189"/>
<text text-anchor="start" x="826.12" y="-195.5" font-family="Helvetica,sans-Serif" font-size="10.00">dev&#45;libs</text>
<polygon fill="none" stroke="blue" points="788,-168 788,-189 898,-189 898,-168 788,-168"/>
<text text-anchor="start" x="831" y="-174.5" font-family="Helvetica,sans-Serif" font-size="10.00">expat</text>
<polygon fill="none" stroke="blue" points="788,-147 788,-168 898,-168 898,-147 788,-147"/>
<text text-anchor="start" x="832.5" y="-153.5" font-family="Helvetica,sans-Serif" font-size="10.00">none</text>
<polygon fill="none" stroke="blue" points="788,-137 788,-147 898,-147 898,-137 788,-137"/>
</g>
<!-- dependency21932&#45;&gt;dependency21933 -->
<g id="edge1" class="edge">
<title>dependency21932:e&#45;&gt;dependency21933:w</title>
<path fill="none" stroke="black" stroke-dasharray="5,2" d="M568,-304C635.83,-304 607.81,-196.77 665.16,-185.04"/>
<polygon fill="black" stroke="black" points="674.79,-184.12 665.26,-189.55 671.02,-184.48 664.83,-185.07 664.83,-185.07 664.83,-185.07 671.02,-184.48 664.4,-180.59 674.79,-184.12"/>
</g>
<!-- dependency21934 -->
<g id="node4" class="node">
<title>dependency21934</title>
<polygon fill="none" stroke="blue" points="684,-257 684,-351 788,-351 788,-257 684,-257"/>
<text text-anchor="start" x="715" y="-300.12" font-family="Helvetica,sans-Serif" font-size="10.00">pack_dep</text>
<polygon fill="none" stroke="blue" points="788,-330 788,-351 898,-351 898,-330 788,-330"/>
<text text-anchor="start" x="837.75" y="-336.5" font-family="Helvetica,sans-Serif" font-size="10.00">no</text>
<polygon fill="none" stroke="blue" points="788,-309 788,-330 898,-330 898,-309 788,-309"/>
<text text-anchor="start" x="826.12" y="-315.5" font-family="Helvetica,sans-Serif" font-size="10.00">dev&#45;libs</text>
<polygon fill="none" stroke="blue" points="788,-288 788,-309 898,-309 898,-288 788,-288"/>
<text text-anchor="start" x="835.12" y="-294.5" font-family="Helvetica,sans-Serif" font-size="10.00">nss</text>
<polygon fill="none" stroke="blue" points="788,-267 788,-288 898,-288 898,-267 788,-267"/>
<text text-anchor="start" x="832.5" y="-273.5" font-family="Helvetica,sans-Serif" font-size="10.00">none</text>
<polygon fill="none" stroke="blue" points="788,-257 788,-267 898,-267 898,-257 788,-257"/>
</g>
<!-- dependency21932&#45;&gt;dependency21934 -->
<g id="edge2" class="edge">
<title>dependency21932:e&#45;&gt;dependency21934:w</title>
<path fill="none" stroke="black" stroke-dasharray="5,2" d="M568,-304C612.06,-304 625.79,-304 664.87,-304"/>
<polygon fill="black" stroke="black" points="674.78,-304 664.78,-308.5 671,-304 664.78,-304 664.78,-304 664.78,-304 671,-304 664.78,-299.5 674.78,-304"/>
</g>
<!-- choice10010111845108105981154710112011297116455046504657 -->
<g id="node8" class="node">
<title>choice10010111845108105981154710112011297116455046504657</title>
<g id="a_node8"><a xlink:href="../dev-libs/expat-2.2.9.svg" xlink:title="portage://dev&#45;libs/expat&#45;2.2.9">
<ellipse fill="none" stroke="red" cx="1164" cy="-88" rx="144" ry="18"/>
<text text-anchor="middle" x="1164" y="-84.12" font-family="Helvetica,sans-Serif" font-size="10.00">portage://dev&#45;libs/expat&#45;2.2.9</text>
</a>
</g>
</g>
<!-- dependency21933&#45;&gt;choice10010111845108105981154710112011297116455046504657 -->
<g id="edge7" class="edge">
<title>dependency21933:e&#45;&gt;choice10010111845108105981154710112011297116455046504657:w</title>
<path fill="none" stroke="black" stroke-dasharray="1,5" d="M913,-184C972.59,-184 957.75,-99.62 1008.03,-89.08"/>
<polygon fill="black" stroke="black" points="1017.79,-88.12 1008.28,-93.58 1014.02,-88.49 1007.84,-89.1 1007.84,-89.1 1007.84,-89.1 1014.02,-88.49 1007.4,-84.62 1017.79,-88.12"/>
</g>
<!-- choice10010111845108105981154710112011297116455046504656 -->
<g id="node9" class="node">
<title>choice10010111845108105981154710112011297116455046504656</title>
<g id="a_node9"><a xlink:href="../dev-libs/expat-2.2.8.svg" xlink:title="portage://dev&#45;libs/expat&#45;2.2.8">
<ellipse fill="none" stroke="red" cx="1164" cy="-34" rx="144" ry="18"/>
<text text-anchor="middle" x="1164" y="-30.12" font-family="Helvetica,sans-Serif" font-size="10.00">portage://dev&#45;libs/expat&#45;2.2.8</text>
</a>
</g>
</g>
<!-- dependency21933&#45;&gt;choice10010111845108105981154710112011297116455046504656 -->
<g id="edge8" class="edge">
<title>dependency21933:e&#45;&gt;choice10010111845108105981154710112011297116455046504656:w</title>
<path fill="none" stroke="black" stroke-dasharray="1,5" d="M913,-184C990.65,-184 942.63,-48.29 1008,-35.04"/>
<polygon fill="black" stroke="black" points="1017.79,-34.11 1008.25,-39.53 1014.02,-34.47 1007.83,-35.05 1007.83,-35.05 1007.83,-35.05 1014.02,-34.47 1007.41,-30.57 1017.79,-34.11"/>
</g>
<!-- choice1001011184510810598115471101151154551465348 -->
<g id="node10" class="node">
<title>choice1001011184510810598115471101151154551465348</title>
<g id="a_node10"><a xlink:href="../dev-libs/nss-3.50.svg" xlink:title="portage://dev&#45;libs/nss&#45;3.50">
<ellipse fill="none" stroke="red" cx="1164" cy="-304" rx="144" ry="18"/>
<text text-anchor="middle" x="1164" y="-300.12" font-family="Helvetica,sans-Serif" font-size="10.00">portage://dev&#45;libs/nss&#45;3.50</text>
</a>
</g>
</g>
<!-- dependency21934&#45;&gt;choice1001011184510810598115471101151154551465348 -->
<g id="edge9" class="edge">
<title>dependency21934:e&#45;&gt;choice1001011184510810598115471101151154551465348:w</title>
<path fill="none" stroke="black" stroke-dasharray="1,5" d="M913,-304C956.25,-304 969.72,-304 1008.08,-304"/>
<polygon fill="black" stroke="black" points="1017.78,-304 1007.78,-308.5 1014,-304 1007.78,-304 1007.78,-304 1007.78,-304 1014,-304 1007.78,-299.5 1017.78,-304"/>
</g>
<!-- choice10010111845108105981154711011511545514652574650 -->
<g id="node11" class="node">
<title>choice10010111845108105981154711011511545514652574650</title>
<g id="a_node11"><a xlink:href="../dev-libs/nss-3.49.2.svg" xlink:title="portage://dev&#45;libs/nss&#45;3.49.2">
<ellipse fill="none" stroke="red" cx="1164" cy="-250" rx="144" ry="18"/>
<text text-anchor="middle" x="1164" y="-246.12" font-family="Helvetica,sans-Serif" font-size="10.00">portage://dev&#45;libs/nss&#45;3.49.2</text>
</a>
</g>
</g>
<!-- dependency21934&#45;&gt;choice10010111845108105981154711011511545514652574650 -->
<g id="edge10" class="edge">
<title>dependency21934:e&#45;&gt;choice10010111845108105981154711011511545514652574650:w</title>
<path fill="none" stroke="black" stroke-dasharray="1,5" d="M913,-304C961.95,-304 965.8,-257.72 1008.05,-250.85"/>
<polygon fill="black" stroke="black" points="1017.79,-250.09 1008.16,-255.35 1014.01,-250.39 1007.82,-250.87 1007.82,-250.87 1007.82,-250.87 1014.01,-250.39 1007.47,-246.38 1017.79,-250.09"/>
</g>
<!-- choice10010111845108105981154711011511545514652574649 -->
<g id="node12" class="node">
<title>choice10010111845108105981154711011511545514652574649</title>
<g id="a_node12"><a xlink:href="../dev-libs/nss-3.49.1.svg" xlink:title="portage://dev&#45;libs/nss&#45;3.49.1">
<ellipse fill="none" stroke="red" cx="1164" cy="-196" rx="144" ry="18"/>
<text text-anchor="middle" x="1164" y="-192.12" font-family="Helvetica,sans-Serif" font-size="10.00">portage://dev&#45;libs/nss&#45;3.49.1</text>
</a>
</g>
</g>
<!-- dependency21934&#45;&gt;choice10010111845108105981154711011511545514652574649 -->
<g id="edge11" class="edge">
<title>dependency21934:e&#45;&gt;choice10010111845108105981154711011511545514652574649:w</title>
<path fill="none" stroke="black" stroke-dasharray="1,5" d="M913,-304C976.32,-304 954.76,-208.29 1008.13,-197.07"/>
<polygon fill="black" stroke="black" points="1017.79,-196.12 1008.28,-201.58 1014.02,-196.49 1007.84,-197.1 1007.84,-197.1 1007.84,-197.1 1014.02,-196.49 1007.4,-192.62 1017.79,-196.12"/>
</g>
<!-- choice1001011184510810598115471101151154551465257 -->
<g id="node13" class="node">
<title>choice1001011184510810598115471101151154551465257</title>
<g id="a_node13"><a xlink:href="../dev-libs/nss-3.49.svg" xlink:title="portage://dev&#45;libs/nss&#45;3.49">
<ellipse fill="none" stroke="red" cx="1164" cy="-142" rx="144" ry="18"/>
<text text-anchor="middle" x="1164" y="-138.12" font-family="Helvetica,sans-Serif" font-size="10.00">portage://dev&#45;libs/nss&#45;3.49</text>
</a>
</g>
</g>
<!-- dependency21934&#45;&gt;choice1001011184510810598115471101151154551465257 -->
<g id="edge12" class="edge">
<title>dependency21934:e&#45;&gt;choice1001011184510810598115471101151154551465257:w</title>
<path fill="none" stroke="black" stroke-dasharray="1,5" d="M913,-304C995.01,-304 938.82,-156.83 1007.87,-143.03"/>
<polygon fill="black" stroke="black" points="1017.79,-142.11 1008.25,-147.52 1014.02,-142.46 1007.83,-143.04 1007.83,-143.04 1007.83,-143.04 1014.02,-142.46 1007.41,-138.56 1017.79,-142.11"/>
</g>
<!-- choice10010111845108105981154711011511545514652564511449 -->
<g id="node14" class="node">
<title>choice10010111845108105981154711011511545514652564511449</title>
<g id="a_node14"><a xlink:href="../dev-libs/nss-3.48-r1.svg" xlink:title="portage://dev&#45;libs/nss&#45;3.48&#45;r1">
<ellipse fill="none" stroke="red" cx="1164" cy="-412" rx="144" ry="18"/>
<text text-anchor="middle" x="1164" y="-408.12" font-family="Helvetica,sans-Serif" font-size="10.00">portage://dev&#45;libs/nss&#45;3.48&#45;r1</text>
</a>
</g>
</g>
<!-- dependency21934&#45;&gt;choice10010111845108105981154711011511545514652564511449 -->
<g id="edge13" class="edge">
<title>dependency21934:e&#45;&gt;choice10010111845108105981154711011511545514652564511449:w</title>
<path fill="none" stroke="black" stroke-dasharray="1,5" d="M913,-304C976.32,-304 954.76,-399.71 1008.13,-410.93"/>
<polygon fill="black" stroke="black" points="1017.79,-411.88 1007.4,-415.38 1014.02,-411.51 1007.84,-410.9 1007.84,-410.9 1007.84,-410.9 1014.02,-411.51 1008.28,-406.42 1017.79,-411.88"/>
</g>
<!-- choice100101118451081059811547110115115455146525546494511449 -->
<g id="node15" class="node">
<title>choice100101118451081059811547110115115455146525546494511449</title>
<g id="a_node15"><a xlink:href="../dev-libs/nss-3.47.1-r1.svg" xlink:title="portage://dev&#45;libs/nss&#45;3.47.1&#45;r1">
<ellipse fill="none" stroke="red" cx="1164" cy="-358" rx="144" ry="18"/>
<text text-anchor="middle" x="1164" y="-354.12" font-family="Helvetica,sans-Serif" font-size="10.00">portage://dev&#45;libs/nss&#45;3.47.1&#45;r1</text>
</a>
</g>
</g>
<!-- dependency21934&#45;&gt;choice100101118451081059811547110115115455146525546494511449 -->
<g id="edge14" class="edge">
<title>dependency21934:e&#45;&gt;choice100101118451081059811547110115115455146525546494511449:w</title>
<path fill="none" stroke="black" stroke-dasharray="1,5" d="M913,-304C961.95,-304 965.8,-350.28 1008.05,-357.15"/>
<polygon fill="black" stroke="black" points="1017.79,-357.91 1007.47,-361.62 1014.01,-357.61 1007.82,-357.13 1007.82,-357.13 1007.82,-357.13 1014.01,-357.61 1008.16,-352.65 1017.79,-357.91"/>
</g>
<!-- choice97999911645103114111117112471071059897110974548 -->
<g id="node16" class="node">
<title>choice97999911645103114111117112471071059897110974548</title>
<g id="a_node16"><a xlink:href="../acct-group/kibana-0.svg" xlink:title="portage://acct&#45;group/kibana&#45;0">
<ellipse fill="none" stroke="red" cx="1164" cy="-466" rx="144" ry="18"/>
<text text-anchor="middle" x="1164" y="-462.12" font-family="Helvetica,sans-Serif" font-size="10.00">portage://acct&#45;group/kibana&#45;0</text>
</a>
</g>
</g>
<!-- dependency21935&#45;&gt;choice97999911645103114111117112471071059897110974548 -->
<g id="edge15" class="edge">
<title>dependency21935:e&#45;&gt;choice97999911645103114111117112471071059897110974548:w</title>
<path fill="none" stroke="black" stroke-dasharray="1,5" d="M913,-466C956.25,-466 969.72,-466 1008.08,-466"/>
<polygon fill="black" stroke="black" points="1017.78,-466 1007.78,-470.5 1014,-466 1007.78,-466 1007.78,-466 1007.78,-466 1014,-466 1007.78,-461.5 1017.78,-466"/>
</g>
<!-- choice97999911645117115101114471071059897110974548 -->
<g id="node17" class="node">
<title>choice97999911645117115101114471071059897110974548</title>
<g id="a_node17"><a xlink:href="../acct-user/kibana-0.svg" xlink:title="portage://acct&#45;user/kibana&#45;0">
<ellipse fill="none" stroke="red" cx="1164" cy="-520" rx="144" ry="18"/>
<text text-anchor="middle" x="1164" y="-516.12" font-family="Helvetica,sans-Serif" font-size="10.00">portage://acct&#45;user/kibana&#45;0</text>
</a>
</g>
</g>
<!-- dependency21936&#45;&gt;choice97999911645117115101114471071059897110974548 -->
<g id="edge16" class="edge">
<title>dependency21936:e&#45;&gt;choice97999911645117115101114471071059897110974548:w</title>
<path fill="none" stroke="black" stroke-dasharray="1,5" d="M913,-586C964.49,-586 963.91,-529.19 1007.87,-520.98"/>
<polygon fill="black" stroke="black" points="1017.79,-520.11 1008.22,-525.47 1014.02,-520.44 1007.83,-520.99 1007.83,-520.99 1007.83,-520.99 1014.02,-520.44 1007.43,-516.51 1017.79,-520.11"/>
</g>
<!-- choice110101116451081059811547110111100101106115455757575757575757 -->
<g id="node18" class="node">
<title>choice110101116451081059811547110111100101106115455757575757575757</title>
<g id="a_node18"><a xlink:href="../net-libs/nodejs-99999999.svg" xlink:title="portage://net&#45;libs/nodejs&#45;99999999">
<ellipse fill="none" stroke="red" cx="1164" cy="-952" rx="144" ry="18"/>
<text text-anchor="middle" x="1164" y="-948.12" font-family="Helvetica,sans-Serif" font-size="10.00">portage://net&#45;libs/nodejs&#45;99999999</text>
</a>
</g>
</g>
<!-- dependency21937&#45;&gt;choice110101116451081059811547110111100101106115455757575757575757 -->
<g id="edge17" class="edge">
<title>dependency21937:e&#45;&gt;choice110101116451081059811547110111100101106115455757575757575757:w</title>
<path fill="none" stroke="black" stroke-dasharray="1,5" d="M913,-736C1015.97,-736 919.77,-936.27 1007.96,-951.13"/>
<polygon fill="black" stroke="black" points="1017.79,-951.9 1007.46,-955.6 1014.02,-951.61 1007.82,-951.12 1007.82,-951.12 1007.82,-951.12 1014.02,-951.61 1008.17,-946.63 1017.79,-951.9"/>
</g>
<!-- choice11010111645108105981154711011110010110611545564649504648 -->
<g id="node19" class="node">
<title>choice11010111645108105981154711011110010110611545564649504648</title>
<g id="a_node19"><a xlink:href="../net-libs/nodejs-8.12.0.svg" xlink:title="portage://net&#45;libs/nodejs&#45;8.12.0">
<ellipse fill="none" stroke="red" cx="1164" cy="-898" rx="144" ry="18"/>
<text text-anchor="middle" x="1164" y="-894.12" font-family="Helvetica,sans-Serif" font-size="10.00">portage://net&#45;libs/nodejs&#45;8.12.0</text>
</a>
</g>
</g>
<!-- dependency21937&#45;&gt;choice11010111645108105981154711011110010110611545564649504648 -->
<g id="edge18" class="edge">
<title>dependency21937:e&#45;&gt;choice11010111645108105981154711011110010110611545564649504648:w</title>
<path fill="none" stroke="black" stroke-dasharray="1,5" d="M913,-736C995.01,-736 938.82,-883.17 1007.87,-896.97"/>
<polygon fill="black" stroke="black" points="1017.79,-897.89 1007.41,-901.44 1014.02,-897.54 1007.83,-896.96 1007.83,-896.96 1007.83,-896.96 1014.02,-897.54 1008.25,-892.48 1017.79,-897.89"/>
</g>
<!-- choice11010111645108105981154711011110010110611545495146574648 -->
<g id="node20" class="node">
<title>choice11010111645108105981154711011110010110611545495146574648</title>
<g id="a_node20"><a xlink:href="../net-libs/nodejs-13.9.0.svg" xlink:title="portage://net&#45;libs/nodejs&#45;13.9.0">
<ellipse fill="none" stroke="red" cx="1164" cy="-844" rx="144" ry="18"/>
<text text-anchor="middle" x="1164" y="-840.12" font-family="Helvetica,sans-Serif" font-size="10.00">portage://net&#45;libs/nodejs&#45;13.9.0</text>
</a>
</g>
</g>
<!-- dependency21937&#45;&gt;choice11010111645108105981154711011110010110611545495146574648 -->
<g id="edge19" class="edge">
<title>dependency21937:e&#45;&gt;choice11010111645108105981154711011110010110611545495146574648:w</title>
<path fill="none" stroke="black" stroke-dasharray="1,5" d="M913,-736C976.32,-736 954.76,-831.71 1008.13,-842.93"/>
<polygon fill="black" stroke="black" points="1017.79,-843.88 1007.4,-847.38 1014.02,-843.51 1007.84,-842.9 1007.84,-842.9 1007.84,-842.9 1014.02,-843.51 1008.28,-838.42 1017.79,-843.88"/>
</g>
<!-- choice11010111645108105981154711011110010110611545495146564648 -->
<g id="node21" class="node">
<title>choice11010111645108105981154711011110010110611545495146564648</title>
<g id="a_node21"><a xlink:href="../net-libs/nodejs-13.8.0.svg" xlink:title="portage://net&#45;libs/nodejs&#45;13.8.0">
<ellipse fill="none" stroke="red" cx="1164" cy="-790" rx="144" ry="18"/>
<text text-anchor="middle" x="1164" y="-786.12" font-family="Helvetica,sans-Serif" font-size="10.00">portage://net&#45;libs/nodejs&#45;13.8.0</text>
</a>
</g>
</g>
<!-- dependency21937&#45;&gt;choice11010111645108105981154711011110010110611545495146564648 -->
<g id="edge20" class="edge">
<title>dependency21937:e&#45;&gt;choice11010111645108105981154711011110010110611545495146564648:w</title>
<path fill="none" stroke="black" stroke-dasharray="1,5" d="M913,-736C961.95,-736 965.8,-782.28 1008.05,-789.15"/>
<polygon fill="black" stroke="black" points="1017.79,-789.91 1007.47,-793.62 1014.01,-789.61 1007.82,-789.13 1007.82,-789.13 1007.82,-789.13 1014.01,-789.61 1008.16,-784.65 1017.79,-789.91"/>
</g>
<!-- choice1101011164510810598115471101111001011061154549504649544649 -->
<g id="node22" class="node">
<title>choice1101011164510810598115471101111001011061154549504649544649</title>
<g id="a_node22"><a xlink:href="../net-libs/nodejs-12.16.1.svg" xlink:title="portage://net&#45;libs/nodejs&#45;12.16.1">
<ellipse fill="none" stroke="red" cx="1164" cy="-736" rx="144" ry="18"/>
<text text-anchor="middle" x="1164" y="-732.12" font-family="Helvetica,sans-Serif" font-size="10.00">portage://net&#45;libs/nodejs&#45;12.16.1</text>
</a>
</g>
</g>
<!-- dependency21937&#45;&gt;choice1101011164510810598115471101111001011061154549504649544649 -->
<g id="edge21" class="edge">
<title>dependency21937:e&#45;&gt;choice1101011164510810598115471101111001011061154549504649544649:w</title>
<path fill="none" stroke="black" stroke-dasharray="1,5" d="M913,-736C956.25,-736 969.72,-736 1008.08,-736"/>
<polygon fill="black" stroke="black" points="1017.78,-736 1007.78,-740.5 1014,-736 1007.78,-736 1007.78,-736 1007.78,-736 1014,-736 1007.78,-731.5 1017.78,-736"/>
</g>
<!-- choice1101011164510810598115471101111001011061154549504649544648 -->
<g id="node23" class="node">
<title>choice1101011164510810598115471101111001011061154549504649544648</title>
<g id="a_node23"><a xlink:href="../net-libs/nodejs-12.16.0.svg" xlink:title="portage://net&#45;libs/nodejs&#45;12.16.0">
<ellipse fill="none" stroke="red" cx="1164" cy="-682" rx="144" ry="18"/>
<text text-anchor="middle" x="1164" y="-678.12" font-family="Helvetica,sans-Serif" font-size="10.00">portage://net&#45;libs/nodejs&#45;12.16.0</text>
</a>
</g>
</g>
<!-- dependency21937&#45;&gt;choice1101011164510810598115471101111001011061154549504649544648 -->
<g id="edge22" class="edge">
<title>dependency21937:e&#45;&gt;choice1101011164510810598115471101111001011061154549504649544648:w</title>
<path fill="none" stroke="black" stroke-dasharray="1,5" d="M913,-736C961.95,-736 965.8,-689.72 1008.05,-682.85"/>
<polygon fill="black" stroke="black" points="1017.79,-682.09 1008.16,-687.35 1014.01,-682.39 1007.82,-682.87 1007.82,-682.87 1007.82,-682.87 1014.01,-682.39 1007.47,-678.38 1017.79,-682.09"/>
</g>
<!-- choice1101011164510810598115471101111001011061154549504649524648 -->
<g id="node24" class="node">
<title>choice1101011164510810598115471101111001011061154549504649524648</title>
<g id="a_node24"><a xlink:href="../net-libs/nodejs-12.14.0.svg" xlink:title="portage://net&#45;libs/nodejs&#45;12.14.0">
<ellipse fill="none" stroke="red" cx="1164" cy="-628" rx="144" ry="18"/>
<text text-anchor="middle" x="1164" y="-624.12" font-family="Helvetica,sans-Serif" font-size="10.00">portage://net&#45;libs/nodejs&#45;12.14.0</text>
</a>
</g>
</g>
<!-- dependency21937&#45;&gt;choice1101011164510810598115471101111001011061154549504649524648 -->
<g id="edge23" class="edge">
<title>dependency21937:e&#45;&gt;choice1101011164510810598115471101111001011061154549504649524648:w</title>
<path fill="none" stroke="black" stroke-dasharray="1,5" d="M913,-736C976.32,-736 954.76,-640.29 1008.13,-629.07"/>
<polygon fill="black" stroke="black" points="1017.79,-628.12 1008.28,-633.58 1014.02,-628.49 1007.84,-629.1 1007.84,-629.1 1007.84,-629.1 1014.02,-628.49 1007.4,-624.62 1017.79,-628.12"/>
</g>
<!-- choice1101011164510810598115471101111001011061154549484649574648 -->
<g id="node25" class="node">
<title>choice1101011164510810598115471101111001011061154549484649574648</title>
<g id="a_node25"><a xlink:href="../net-libs/nodejs-10.19.0.svg" xlink:title="portage://net&#45;libs/nodejs&#45;10.19.0">
<ellipse fill="none" stroke="red" cx="1164" cy="-574" rx="144" ry="18"/>
<text text-anchor="middle" x="1164" y="-570.12" font-family="Helvetica,sans-Serif" font-size="10.00">portage://net&#45;libs/nodejs&#45;10.19.0</text>
</a>
</g>
</g>
<!-- dependency21937&#45;&gt;choice1101011164510810598115471101111001011061154549484649574648 -->
<g id="edge24" class="edge">
<title>dependency21937:e&#45;&gt;choice1101011164510810598115471101111001011061154549484649574648:w</title>
<path fill="none" stroke="black" stroke-dasharray="1,5" d="M913,-736C995.01,-736 938.82,-588.83 1007.87,-575.03"/>
<polygon fill="black" stroke="black" points="1017.79,-574.11 1008.25,-579.52 1014.02,-574.46 1007.83,-575.04 1007.83,-575.04 1007.83,-575.04 1014.02,-574.46 1007.41,-570.56 1017.79,-574.11"/>
</g>
<!-- choice1101011164510810598115471101111001011061154549484649564648 -->
<g id="node26" class="node">
<title>choice1101011164510810598115471101111001011061154549484649564648</title>
<g id="a_node26"><a xlink:href="../net-libs/nodejs-10.18.0.svg" xlink:title="portage://net&#45;libs/nodejs&#45;10.18.0">
<ellipse fill="none" stroke="red" cx="1164" cy="-1006" rx="144" ry="18"/>
<text text-anchor="middle" x="1164" y="-1002.12" font-family="Helvetica,sans-Serif" font-size="10.00">portage://net&#45;libs/nodejs&#45;10.18.0</text>
</a>
</g>
</g>
<!-- dependency21937&#45;&gt;choice1101011164510810598115471101111001011061154549484649564648 -->
<g id="edge25" class="edge">
<title>dependency21937:e&#45;&gt;choice1101011164510810598115471101111001011061154549484649564648:w</title>
<path fill="none" stroke="black" stroke-dasharray="1,5" d="M913,-736C1038.01,-736 899.02,-989.9 1008.05,-1005.27"/>
<polygon fill="black" stroke="black" points="1017.78,-1005.92 1007.51,-1009.75 1014.01,-1005.67 1007.81,-1005.26 1007.81,-1005.26 1007.81,-1005.26 1014.01,-1005.67 1008.1,-1000.77 1017.78,-1005.92"/>
</g>
</g>
</svg>
