<?xml version="1.0" encoding="UTF-8" standalone="no"?>
<!DOCTYPE svg PUBLIC "-//W3C//DTD SVG 1.1//EN"
 "http://www.w3.org/Graphics/SVG/1.1/DTD/svg11.dtd">
<!-- Generated by graphviz version 2.40.1 (20161225.0304)
 -->
<!-- Title: prolog Pages: 1 -->
<svg width="1482pt" height="1120pt"
 viewBox="0.00 0.00 1482.00 1120.00" xmlns="http://www.w3.org/2000/svg" xmlns:xlink="http://www.w3.org/1999/xlink">
<g id="graph0" class="graph" transform="scale(1 1) rotate(0) translate(4 1116)">
<title>prolog</title>
<polygon fill="#ffffff" stroke="transparent" points="-4,4 -4,-1116 1478,-1116 1478,4 -4,4"/>
<g id="clust1" class="cluster">
<title>cluster_leftcol</title>
<polygon fill="none" stroke="#c0c0c0" points="8,-561 8,-633 312,-633 312,-561 8,-561"/>
<text text-anchor="start" x="146.663" y="-621" font-family="Helvetica,sans-Serif" font-style="italic" font-size="10.00" fill="#000000">ebuild</text>
</g>
<g id="clust2" class="cluster">
<title>cluster_midcol</title>
<polygon fill="none" stroke="#c0c0c0" points="396,-8 396,-1104 1078,-1104 1078,-8 396,-8"/>
<text text-anchor="start" x="705.875" y="-1092" font-family="Helvetica,sans-Serif" font-style="italic" font-size="10.00" fill="#000000">dependencies</text>
</g>
<g id="clust3" class="cluster">
<title>cluster_compile</title>
<polygon fill="#eeeeee" stroke="#c0c0c0" points="611,-674 611,-1076 1070,-1076 1070,-674 611,-674"/>
<text text-anchor="start" x="823.278" y="-1064" font-family="Helvetica,sans-Serif" font-style="italic" font-size="10.00" fill="#000000">compile</text>
</g>
<g id="clust9" class="cluster">
<title>cluster_run</title>
<polygon fill="#eeeeee" stroke="#c0c0c0" points="404,-16 404,-666 1070,-666 1070,-16 404,-16"/>
<text text-anchor="start" x="729.7765" y="-654" font-family="Helvetica,sans-Serif" font-style="italic" font-size="10.00" fill="#000000">run</text>
</g>
<g id="clust18" class="cluster">
<title>cluster_choices</title>
<polygon fill="none" stroke="#c0c0c0" points="1162,-67 1162,-971 1466,-971 1466,-67 1162,-67"/>
<text text-anchor="start" x="1289.824" y="-959" font-family="Helvetica,sans-Serif" font-style="italic" font-size="10.00" fill="#000000">candidates</text>
</g>
<!-- id -->
<g id="node1" class="node">
<title>id</title>
<g id="a_node1"><a xlink:href="../www-apps/phpBB-3.2.8.svg" xlink:title="portage://www&#45;apps/phpBB&#45;3.2.8">
<ellipse fill="none" stroke="#ff0000" cx="160" cy="-587" rx="144" ry="18"/>
<text text-anchor="middle" x="160" y="-584" font-family="Helvetica,sans-Serif" font-size="10.00" fill="#000000">portage://www&#45;apps/phpBB&#45;3.2.8</text>
</a>
</g>
</g>
<!-- dependency2457 -->
<g id="node2" class="node">
<title>dependency2457</title>
<polygon fill="none" stroke="#ff0000" points="627.5,-854 627.5,-888 710.5,-888 710.5,-854 627.5,-854"/>
<text text-anchor="start" x="638.4305" y="-868" font-family="Helvetica,sans-Serif" font-size="10.00" fill="#000000">any_of_group</text>
</g>
<!-- id&#45;&gt;dependency2457 -->
<g id="edge3" class="edge">
<title>id:e&#45;&gt;dependency2457:w</title>
<path fill="none" stroke="#000000" d="M304,-587C304.3341,-587 563.1679,-821.2525 610.9609,-864.2599"/>
<polygon fill="#000000" stroke="#000000" points="618.5,-871 608.0457,-867.6898 614.7725,-867.6675 611.0449,-864.335 611.0449,-864.335 611.0449,-864.335 614.7725,-867.6675 614.0442,-860.9802 618.5,-871 618.5,-871"/>
</g>
<!-- dependency2460 -->
<g id="node5" class="node">
<title>dependency2460</title>
<polygon fill="none" stroke="#0000ff" points="834,-686 834,-796 939,-796 939,-686 834,-686"/>
<text text-anchor="start" x="864.823" y="-738" font-family="Helvetica,sans-Serif" font-size="10.00" fill="#000000">pack_dep</text>
<polygon fill="none" stroke="#0000ff" points="939,-774 939,-796 1049,-796 1049,-774 939,-774"/>
<text text-anchor="start" x="988.441" y="-782" font-family="Helvetica,sans-Serif" font-size="10.00" fill="#000000">no</text>
<polygon fill="none" stroke="#0000ff" points="939,-752 939,-774 1049,-774 1049,-752 939,-752"/>
<text text-anchor="start" x="970.3845" y="-760" font-family="Helvetica,sans-Serif" font-size="10.00" fill="#000000">app&#45;admin</text>
<polygon fill="none" stroke="#0000ff" points="939,-730 939,-752 1049,-752 1049,-730 939,-730"/>
<text text-anchor="start" x="961.491" y="-738" font-family="Helvetica,sans-Serif" font-size="10.00" fill="#000000">webapp&#45;config</text>
<polygon fill="none" stroke="#0000ff" points="939,-708 939,-730 1049,-730 1049,-708 939,-708"/>
<text text-anchor="start" x="965.936" y="-716" font-family="Helvetica,sans-Serif" font-size="10.00" fill="#000000">greaterequal</text>
<polygon fill="none" stroke="#0000ff" points="939,-686 939,-708 1049,-708 1049,-686 939,-686"/>
<text text-anchor="start" x="977.3235" y="-694" font-family="Helvetica,sans-Serif" font-size="10.00" fill="#000000">1.50.15</text>
</g>
<!-- id&#45;&gt;dependency2460 -->
<g id="edge4" class="edge">
<title>id:e&#45;&gt;dependency2460:w</title>
<path fill="none" stroke="#000000" d="M668.5,-508C691.6737,-512.2765 700.5181,-511.1984 718,-527 794.4112,-596.0669 724.4417,-731.6115 815.9844,-740.5363"/>
<polygon fill="#000000" stroke="#000000" points="826,-741 815.8026,-745.0326 821.0053,-740.7687 816.0107,-740.5374 816.0107,-740.5374 816.0107,-740.5374 821.0053,-740.7687 816.2188,-736.0423 826,-741 826,-741"/>
</g>
<!-- dependency2461 -->
<g id="node6" class="node">
<title>dependency2461</title>
<polygon fill="none" stroke="#ff0000" points="420.5,-570 420.5,-604 503.5,-604 503.5,-570 420.5,-570"/>
<text text-anchor="start" x="431.4305" y="-584" font-family="Helvetica,sans-Serif" font-size="10.00" fill="#000000">any_of_group</text>
</g>
<!-- id&#45;&gt;dependency2461 -->
<g id="edge11" class="edge">
<title>id:e&#45;&gt;dependency2461:w</title>
<path fill="none" stroke="#000000" d="M304,-587C348.9783,-587 362.1995,-587 403.4562,-587"/>
<ellipse fill="none" stroke="#000000" cx="407.5" cy="-587" rx="4" ry="4"/>
</g>
<!-- dependency2468 -->
<g id="node13" class="node">
<title>dependency2468</title>
<polygon fill="none" stroke="#0000ff" points="834,-524 834,-634 939,-634 939,-524 834,-524"/>
<text text-anchor="start" x="864.823" y="-576" font-family="Helvetica,sans-Serif" font-size="10.00" fill="#000000">pack_dep</text>
<polygon fill="none" stroke="#0000ff" points="939,-612 939,-634 1049,-634 1049,-612 939,-612"/>
<text text-anchor="start" x="988.441" y="-620" font-family="Helvetica,sans-Serif" font-size="10.00" fill="#000000">no</text>
<polygon fill="none" stroke="#0000ff" points="939,-590 939,-612 1049,-612 1049,-590 939,-590"/>
<text text-anchor="start" x="970.3845" y="-598" font-family="Helvetica,sans-Serif" font-size="10.00" fill="#000000">app&#45;admin</text>
<polygon fill="none" stroke="#0000ff" points="939,-568 939,-590 1049,-590 1049,-568 939,-568"/>
<text text-anchor="start" x="961.491" y="-576" font-family="Helvetica,sans-Serif" font-size="10.00" fill="#000000">webapp&#45;config</text>
<polygon fill="none" stroke="#0000ff" points="939,-546 939,-568 1049,-568 1049,-546 939,-546"/>
<text text-anchor="start" x="965.936" y="-554" font-family="Helvetica,sans-Serif" font-size="10.00" fill="#000000">greaterequal</text>
<polygon fill="none" stroke="#0000ff" points="939,-524 939,-546 1049,-546 1049,-524 939,-524"/>
<text text-anchor="start" x="977.3235" y="-532" font-family="Helvetica,sans-Serif" font-size="10.00" fill="#000000">1.50.15</text>
</g>
<!-- id&#45;&gt;dependency2468 -->
<g id="edge12" class="edge">
<title>id:e&#45;&gt;dependency2468:w</title>
<path fill="none" stroke="#000000" d="M668.5,-508C691.3202,-513.8776 696.3657,-517.6585 718,-527 764.3301,-547.005 771.9927,-575.7701 817.9545,-578.7483"/>
<ellipse fill="none" stroke="#000000" cx="822.002" cy="-578.8749" rx="4" ry="4"/>
<path fill="none" stroke="#000000" d="M304,-587C347.0079,-587 354.2928,-567.4971 396,-557 515.332,-526.9658 549.3356,-477.3078 668.5,-508"/>
</g>
<!-- dependency2458 -->
<g id="node3" class="node">
<title>dependency2458</title>
<polygon fill="none" stroke="#0000ff" points="834,-822 834,-920 939,-920 939,-822 834,-822"/>
<text text-anchor="start" x="864.823" y="-868" font-family="Helvetica,sans-Serif" font-size="10.00" fill="#000000">pack_dep</text>
<polygon fill="none" stroke="#0000ff" points="939,-898 939,-920 1049,-920 1049,-898 939,-898"/>
<text text-anchor="start" x="988.441" y="-906" font-family="Helvetica,sans-Serif" font-size="10.00" fill="#000000">no</text>
<polygon fill="none" stroke="#0000ff" points="939,-876 939,-898 1049,-898 1049,-876 939,-876"/>
<text text-anchor="start" x="980.668" y="-884" font-family="Helvetica,sans-Serif" font-size="10.00" fill="#000000">virtual</text>
<polygon fill="none" stroke="#0000ff" points="939,-854 939,-876 1049,-876 1049,-854 939,-854"/>
<text text-anchor="start" x="974.829" y="-862" font-family="Helvetica,sans-Serif" font-size="10.00" fill="#000000">httpd&#45;cgi</text>
<polygon fill="none" stroke="#0000ff" points="939,-832 939,-854 1049,-854 1049,-832 939,-832"/>
<text text-anchor="start" x="982.882" y="-840" font-family="Helvetica,sans-Serif" font-size="10.00" fill="#000000">none</text>
<polygon fill="none" stroke="#0000ff" points="939,-822 939,-832 1049,-832 1049,-822 939,-822"/>
</g>
<!-- dependency2457&#45;&gt;dependency2458 -->
<g id="edge1" class="edge">
<title>dependency2457:e&#45;&gt;dependency2458:w</title>
<path fill="none" stroke="#000000" stroke-dasharray="1,5" d="M718,-871C762.4375,-871 776.0204,-871 815.878,-871"/>
<polygon fill="none" stroke="#000000" points="826,-874.5 816,-871.0001 826,-867.5 826,-874.5"/>
</g>
<!-- dependency2459 -->
<g id="node4" class="node">
<title>dependency2459</title>
<polygon fill="none" stroke="#0000ff" points="834,-946 834,-1044 939,-1044 939,-946 834,-946"/>
<text text-anchor="start" x="864.823" y="-992" font-family="Helvetica,sans-Serif" font-size="10.00" fill="#000000">pack_dep</text>
<polygon fill="none" stroke="#0000ff" points="939,-1022 939,-1044 1049,-1044 1049,-1022 939,-1022"/>
<text text-anchor="start" x="988.441" y="-1030" font-family="Helvetica,sans-Serif" font-size="10.00" fill="#000000">no</text>
<polygon fill="none" stroke="#0000ff" points="939,-1000 939,-1022 1049,-1022 1049,-1000 939,-1000"/>
<text text-anchor="start" x="980.668" y="-1008" font-family="Helvetica,sans-Serif" font-size="10.00" fill="#000000">virtual</text>
<polygon fill="none" stroke="#0000ff" points="939,-978 939,-1000 1049,-1000 1049,-978 939,-978"/>
<text text-anchor="start" x="966.7705" y="-986" font-family="Helvetica,sans-Serif" font-size="10.00" fill="#000000">httpd&#45;fastcgi</text>
<polygon fill="none" stroke="#0000ff" points="939,-956 939,-978 1049,-978 1049,-956 939,-956"/>
<text text-anchor="start" x="982.882" y="-964" font-family="Helvetica,sans-Serif" font-size="10.00" fill="#000000">none</text>
<polygon fill="none" stroke="#0000ff" points="939,-946 939,-956 1049,-956 1049,-946 939,-946"/>
</g>
<!-- dependency2457&#45;&gt;dependency2459 -->
<g id="edge2" class="edge">
<title>dependency2457:e&#45;&gt;dependency2459:w</title>
<path fill="none" stroke="#000000" stroke-dasharray="1,5" d="M718,-871C787.3725,-871 756.5057,-982.726 815.6977,-994.0732"/>
<polygon fill="none" stroke="#000000" points="825.6864,-998.4859 816.0402,-994.1039 826.3136,-991.5141 825.6864,-998.4859"/>
</g>
<!-- choice1181051141161179710847104116116112100459910310545484511450 -->
<g id="node14" class="node">
<title>choice1181051141161179710847104116116112100459910310545484511450</title>
<g id="a_node14"><a xlink:href="../virtual/httpd-cgi-0-r2.svg" xlink:title="portage://virtual/httpd&#45;cgi&#45;0&#45;r2">
<ellipse fill="none" stroke="#ff0000" cx="1314" cy="-817" rx="144" ry="18"/>
<text text-anchor="middle" x="1314" y="-814" font-family="Helvetica,sans-Serif" font-size="10.00" fill="#000000">portage://virtual/httpd&#45;cgi&#45;0&#45;r2</text>
</a>
</g>
</g>
<!-- dependency2458&#45;&gt;choice1181051141161179710847104116116112100459910310545484511450 -->
<g id="edge13" class="edge">
<title>dependency2458:e&#45;&gt;choice1181051141161179710847104116116112100459910310545484511450:w</title>
<path fill="none" stroke="#000000" stroke-dasharray="1,5" d="M1062,-871C1112.1019,-871 1116.0118,-823.9337 1159.9789,-817.6828"/>
<polygon fill="#000000" stroke="#000000" points="1170,-817 1160.3291,-822.1694 1165.0116,-817.3399 1160.0231,-817.6798 1160.0231,-817.6798 1160.0231,-817.6798 1165.0116,-817.3399 1159.7172,-813.1902 1170,-817 1170,-817"/>
</g>
<!-- choice1181051141161179710847104116116112100459910310545484511449 -->
<g id="node15" class="node">
<title>choice1181051141161179710847104116116112100459910310545484511449</title>
<g id="a_node15"><a xlink:href="../virtual/httpd-cgi-0-r1.svg" xlink:title="portage://virtual/httpd&#45;cgi&#45;0&#45;r1">
<ellipse fill="none" stroke="#ff0000" cx="1314" cy="-871" rx="144" ry="18"/>
<text text-anchor="middle" x="1314" y="-868" font-family="Helvetica,sans-Serif" font-size="10.00" fill="#000000">portage://virtual/httpd&#45;cgi&#45;0&#45;r1</text>
</a>
</g>
</g>
<!-- dependency2458&#45;&gt;choice1181051141161179710847104116116112100459910310545484511449 -->
<g id="edge14" class="edge">
<title>dependency2458:e&#45;&gt;choice1181051141161179710847104116116112100459910310545484511449:w</title>
<path fill="none" stroke="#000000" stroke-dasharray="1,5" d="M1062,-871C1106.4375,-871 1120.0204,-871 1159.878,-871"/>
<polygon fill="#000000" stroke="#000000" points="1170,-871 1160,-875.5001 1165,-871 1160,-871.0001 1160,-871.0001 1160,-871.0001 1165,-871 1160,-866.5001 1170,-871 1170,-871"/>
</g>
<!-- choice118105114116117971084710411611611210045102971151169910310545484511449 -->
<g id="node16" class="node">
<title>choice118105114116117971084710411611611210045102971151169910310545484511449</title>
<g id="a_node16"><a xlink:href="../virtual/httpd-fastcgi-0-r1.svg" xlink:title="portage://virtual/httpd&#45;fastcgi&#45;0&#45;r1">
<ellipse fill="none" stroke="#ff0000" cx="1314" cy="-925" rx="144" ry="18"/>
<text text-anchor="middle" x="1314" y="-922" font-family="Helvetica,sans-Serif" font-size="10.00" fill="#000000">portage://virtual/httpd&#45;fastcgi&#45;0&#45;r1</text>
</a>
</g>
</g>
<!-- dependency2459&#45;&gt;choice118105114116117971084710411611611210045102971151169910310545484511449 -->
<g id="edge15" class="edge">
<title>dependency2459:e&#45;&gt;choice118105114116117971084710411611611210045102971151169910310545484511449:w</title>
<path fill="none" stroke="#000000" stroke-dasharray="1,5" d="M1062,-995C1115.6255,-995 1113.3512,-933.4766 1159.9892,-925.7861"/>
<polygon fill="#000000" stroke="#000000" points="1170,-925 1160.383,-930.2692 1165.0153,-925.3915 1160.0307,-925.783 1160.0307,-925.783 1160.0307,-925.783 1165.0153,-925.3915 1159.6784,-921.2968 1170,-925 1170,-925"/>
</g>
<!-- choice97112112459710010910511047119101989711211245991111101021051034557575757 -->
<g id="node17" class="node">
<title>choice97112112459710010910511047119101989711211245991111101021051034557575757</title>
<g id="a_node17"><a xlink:href="../app-admin/webapp-config-9999.svg" xlink:title="portage://app&#45;admin/webapp&#45;config&#45;9999">
<ellipse fill="none" stroke="#ff0000" cx="1314" cy="-606" rx="144" ry="18"/>
<text text-anchor="middle" x="1314" y="-603" font-family="Helvetica,sans-Serif" font-size="10.00" fill="#000000">portage://app&#45;admin/webapp&#45;config&#45;9999</text>
</a>
</g>
</g>
<!-- dependency2460&#45;&gt;choice97112112459710010910511047119101989711211245991111101021051034557575757 -->
<g id="edge16" class="edge">
<title>dependency2460:e&#45;&gt;choice97112112459710010910511047119101989711211245991111101021051034557575757:w</title>
<path fill="none" stroke="#000000" stroke-dasharray="1,5" d="M1062,-741C1135.2357,-741 1097.1753,-618.3596 1159.9771,-606.8621"/>
<polygon fill="#000000" stroke="#000000" points="1170,-606 1160.4225,-611.3405 1165.0184,-606.4285 1160.0368,-606.857 1160.0368,-606.857 1160.0368,-606.857 1165.0184,-606.4285 1159.6511,-602.3736 1170,-606 1170,-606"/>
</g>
<!-- choice971121124597100109105110471191019897112112459911111010210510345494653534511449 -->
<g id="node18" class="node">
<title>choice971121124597100109105110471191019897112112459911111010210510345494653534511449</title>
<g id="a_node18"><a xlink:href="../app-admin/webapp-config-1.55-r1.svg" xlink:title="portage://app&#45;admin/webapp&#45;config&#45;1.55&#45;r1">
<ellipse fill="none" stroke="#ff0000" cx="1314" cy="-687" rx="144" ry="18"/>
<text text-anchor="middle" x="1314" y="-684" font-family="Helvetica,sans-Serif" font-size="10.00" fill="#000000">portage://app&#45;admin/webapp&#45;config&#45;1.55&#45;r1</text>
</a>
</g>
</g>
<!-- dependency2460&#45;&gt;choice971121124597100109105110471191019897112112459911111010210510345494653534511449 -->
<g id="edge17" class="edge">
<title>dependency2460:e&#45;&gt;choice971121124597100109105110471191019897112112459911111010210510345494653534511449:w</title>
<path fill="none" stroke="#000000" stroke-dasharray="1,5" d="M1062,-741C1112.1019,-741 1116.0118,-693.9337 1159.9789,-687.6828"/>
<polygon fill="#000000" stroke="#000000" points="1170,-687 1160.3291,-692.1694 1165.0116,-687.3399 1160.0231,-687.6798 1160.0231,-687.6798 1160.0231,-687.6798 1165.0116,-687.3399 1159.7172,-683.1902 1170,-687 1170,-687"/>
</g>
<!-- dependency2462 -->
<g id="node7" class="node">
<title>dependency2462</title>
<polygon fill="none" stroke="#ff0000" points="630.5,-600 630.5,-634 707.5,-634 707.5,-600 630.5,-600"/>
<text text-anchor="start" x="641.491" y="-614" font-family="Helvetica,sans-Serif" font-size="10.00" fill="#000000">all_of_group</text>
</g>
<!-- dependency2461&#45;&gt;dependency2462 -->
<g id="edge7" class="edge">
<title>dependency2461:e&#45;&gt;dependency2462:w</title>
<path fill="none" stroke="#000000" stroke-dasharray="1,5" d="M511,-587C558.3108,-587 569.1761,-612.9296 611.3617,-616.5759"/>
<polygon fill="none" stroke="#000000" points="621.3537,-620.4969 611.5087,-616.582 621.6463,-613.5031 621.3537,-620.4969"/>
</g>
<!-- dependency2465 -->
<g id="node10" class="node">
<title>dependency2465</title>
<polygon fill="none" stroke="#ff0000" points="630.5,-540 630.5,-574 707.5,-574 707.5,-540 630.5,-540"/>
<text text-anchor="start" x="641.491" y="-554" font-family="Helvetica,sans-Serif" font-size="10.00" fill="#000000">all_of_group</text>
</g>
<!-- dependency2461&#45;&gt;dependency2465 -->
<g id="edge10" class="edge">
<title>dependency2461:e&#45;&gt;dependency2465:w</title>
<path fill="none" stroke="#000000" stroke-dasharray="1,5" d="M511,-587C558.3108,-587 569.1761,-561.0704 611.3617,-557.4241"/>
<polygon fill="none" stroke="#000000" points="621.6463,-560.4969 611.5087,-557.418 621.3537,-553.5031 621.6463,-560.4969"/>
</g>
<!-- dependency2463 -->
<g id="node8" class="node">
<title>dependency2463</title>
<polygon fill="none" stroke="#0000ff" points="834,-152 834,-250 939,-250 939,-152 834,-152"/>
<text text-anchor="start" x="864.823" y="-198" font-family="Helvetica,sans-Serif" font-size="10.00" fill="#000000">pack_dep</text>
<polygon fill="none" stroke="#0000ff" points="939,-228 939,-250 1049,-250 1049,-228 939,-228"/>
<text text-anchor="start" x="988.441" y="-236" font-family="Helvetica,sans-Serif" font-size="10.00" fill="#000000">no</text>
<polygon fill="none" stroke="#0000ff" points="939,-206 939,-228 1049,-228 1049,-206 939,-206"/>
<text text-anchor="start" x="980.668" y="-214" font-family="Helvetica,sans-Serif" font-size="10.00" fill="#000000">virtual</text>
<polygon fill="none" stroke="#0000ff" points="939,-184 939,-206 1049,-206 1049,-184 939,-184"/>
<text text-anchor="start" x="972.8795" y="-192" font-family="Helvetica,sans-Serif" font-size="10.00" fill="#000000">httpd&#45;php</text>
<polygon fill="none" stroke="#0000ff" points="939,-162 939,-184 1049,-184 1049,-162 939,-162"/>
<text text-anchor="start" x="982.882" y="-170" font-family="Helvetica,sans-Serif" font-size="10.00" fill="#000000">none</text>
<polygon fill="none" stroke="#0000ff" points="939,-152 939,-162 1049,-162 1049,-152 939,-152"/>
</g>
<!-- dependency2462&#45;&gt;dependency2463 -->
<g id="edge5" class="edge">
<title>dependency2462:e&#45;&gt;dependency2463:w</title>
<path fill="none" stroke="#000000" d="M715.5,-617C903.2508,-617 644.6377,-216.2943 815.8241,-201.4243"/>
<polygon fill="#000000" stroke="#000000" points="826.1459,-204.497 816.0087,-201.4167 825.8541,-197.503 826.1459,-204.497"/>
</g>
<!-- dependency2464 -->
<g id="node9" class="node">
<title>dependency2464</title>
<polygon fill="none" stroke="#0000ff" points="834,-400 834,-498 939,-498 939,-400 834,-400"/>
<text text-anchor="start" x="864.823" y="-446" font-family="Helvetica,sans-Serif" font-size="10.00" fill="#000000">pack_dep</text>
<polygon fill="none" stroke="#0000ff" points="939,-476 939,-498 1049,-498 1049,-476 939,-476"/>
<text text-anchor="start" x="988.441" y="-484" font-family="Helvetica,sans-Serif" font-size="10.00" fill="#000000">no</text>
<polygon fill="none" stroke="#0000ff" points="939,-454 939,-476 1049,-476 1049,-454 939,-454"/>
<text text-anchor="start" x="974.8285" y="-462" font-family="Helvetica,sans-Serif" font-size="10.00" fill="#000000">dev&#45;lang</text>
<polygon fill="none" stroke="#0000ff" points="939,-432 939,-454 1049,-454 1049,-432 939,-432"/>
<text text-anchor="start" x="985.6615" y="-440" font-family="Helvetica,sans-Serif" font-size="10.00" fill="#000000">php</text>
<polygon fill="none" stroke="#0000ff" points="939,-410 939,-432 1049,-432 1049,-410 939,-410"/>
<text text-anchor="start" x="982.882" y="-418" font-family="Helvetica,sans-Serif" font-size="10.00" fill="#000000">none</text>
<polygon fill="none" stroke="#0000ff" points="939,-400 939,-410 1049,-410 1049,-400 939,-400"/>
</g>
<!-- dependency2462&#45;&gt;dependency2464 -->
<g id="edge6" class="edge">
<title>dependency2462:e&#45;&gt;dependency2464:w</title>
<path fill="none" stroke="#000000" d="M715.5,-617C801.2045,-617 741.9626,-462.4986 815.777,-449.8247"/>
<polygon fill="#000000" stroke="#000000" points="826.2815,-452.4887 816.0324,-449.8042 825.7185,-445.5113 826.2815,-452.4887"/>
</g>
<!-- choice11810511411611797108471041161161121004511210411245554652 -->
<g id="node19" class="node">
<title>choice11810511411611797108471041161161121004511210411245554652</title>
<g id="a_node19"><a xlink:href="../virtual/httpd-php-7.4.svg" xlink:title="portage://virtual/httpd&#45;php&#45;7.4">
<ellipse fill="none" stroke="#ff0000" cx="1314" cy="-93" rx="144" ry="18"/>
<text text-anchor="middle" x="1314" y="-90" font-family="Helvetica,sans-Serif" font-size="10.00" fill="#000000">portage://virtual/httpd&#45;php&#45;7.4</text>
</a>
</g>
</g>
<!-- dependency2463&#45;&gt;choice11810511411611797108471041161161121004511210411245554652 -->
<g id="edge18" class="edge">
<title>dependency2463:e&#45;&gt;choice11810511411611797108471041161161121004511210411245554652:w</title>
<path fill="none" stroke="#000000" stroke-dasharray="1,5" d="M1062,-201C1126.3025,-201 1104.7801,-104.0903 1160.0307,-93.8693"/>
<polygon fill="#000000" stroke="#000000" points="1170,-93 1160.4288,-98.3518 1165.0189,-93.4344 1160.0378,-93.8688 1160.0378,-93.8688 1160.0378,-93.8688 1165.0189,-93.4344 1159.6468,-89.3858 1170,-93 1170,-93"/>
</g>
<!-- choice11810511411611797108471041161161121004511210411245554651 -->
<g id="node20" class="node">
<title>choice11810511411611797108471041161161121004511210411245554651</title>
<g id="a_node20"><a xlink:href="../virtual/httpd-php-7.3.svg" xlink:title="portage://virtual/httpd&#45;php&#45;7.3">
<ellipse fill="none" stroke="#ff0000" cx="1314" cy="-201" rx="144" ry="18"/>
<text text-anchor="middle" x="1314" y="-198" font-family="Helvetica,sans-Serif" font-size="10.00" fill="#000000">portage://virtual/httpd&#45;php&#45;7.3</text>
</a>
</g>
</g>
<!-- dependency2463&#45;&gt;choice11810511411611797108471041161161121004511210411245554651 -->
<g id="edge19" class="edge">
<title>dependency2463:e&#45;&gt;choice11810511411611797108471041161161121004511210411245554651:w</title>
<path fill="none" stroke="#000000" stroke-dasharray="1,5" d="M1062,-201C1106.4375,-201 1120.0204,-201 1159.878,-201"/>
<polygon fill="#000000" stroke="#000000" points="1170,-201 1160,-205.5001 1165,-201 1160,-201.0001 1160,-201.0001 1160,-201.0001 1165,-201 1160,-196.5001 1170,-201 1170,-201"/>
</g>
<!-- choice11810511411611797108471041161161121004511210411245554650 -->
<g id="node21" class="node">
<title>choice11810511411611797108471041161161121004511210411245554650</title>
<g id="a_node21"><a xlink:href="../virtual/httpd-php-7.2.svg" xlink:title="portage://virtual/httpd&#45;php&#45;7.2">
<ellipse fill="none" stroke="#ff0000" cx="1314" cy="-147" rx="144" ry="18"/>
<text text-anchor="middle" x="1314" y="-144" font-family="Helvetica,sans-Serif" font-size="10.00" fill="#000000">portage://virtual/httpd&#45;php&#45;7.2</text>
</a>
</g>
</g>
<!-- dependency2463&#45;&gt;choice11810511411611797108471041161161121004511210411245554650 -->
<g id="edge20" class="edge">
<title>dependency2463:e&#45;&gt;choice11810511411611797108471041161161121004511210411245554650:w</title>
<path fill="none" stroke="#000000" stroke-dasharray="1,5" d="M1062,-201C1112.1019,-201 1116.0118,-153.9337 1159.9789,-147.6828"/>
<polygon fill="#000000" stroke="#000000" points="1170,-147 1160.3291,-152.1694 1165.0116,-147.3399 1160.0231,-147.6798 1160.0231,-147.6798 1160.0231,-147.6798 1165.0116,-147.3399 1159.7172,-143.1902 1170,-147 1170,-147"/>
</g>
<!-- choice100101118451089711010347112104112455546524653 -->
<g id="node22" class="node">
<title>choice100101118451089711010347112104112455546524653</title>
<g id="a_node22"><a xlink:href="../dev-lang/php-7.4.5.svg" xlink:title="portage://dev&#45;lang/php&#45;7.4.5">
<ellipse fill="none" stroke="#ff0000" cx="1314" cy="-441" rx="144" ry="18"/>
<text text-anchor="middle" x="1314" y="-438" font-family="Helvetica,sans-Serif" font-size="10.00" fill="#000000">portage://dev&#45;lang/php&#45;7.4.5</text>
</a>
</g>
</g>
<!-- dependency2464&#45;&gt;choice100101118451089711010347112104112455546524653 -->
<g id="edge21" class="edge">
<title>dependency2464:e&#45;&gt;choice100101118451089711010347112104112455546524653:w</title>
<path fill="none" stroke="#000000" stroke-dasharray="1,5" d="M1062,-449C1106.5592,-449 1119.9258,-442.1434 1159.8549,-441.1257"/>
<polygon fill="#000000" stroke="#000000" points="1170,-441 1160.0565,-445.6236 1165.0004,-441.062 1160.0008,-441.124 1160.0008,-441.124 1160.0008,-441.124 1165.0004,-441.062 1159.945,-436.6243 1170,-441 1170,-441"/>
</g>
<!-- choice10010111845108971101034711210411245554651464955 -->
<g id="node23" class="node">
<title>choice10010111845108971101034711210411245554651464955</title>
<g id="a_node23"><a xlink:href="../dev-lang/php-7.3.17.svg" xlink:title="portage://dev&#45;lang/php&#45;7.3.17">
<ellipse fill="none" stroke="#ff0000" cx="1314" cy="-383" rx="144" ry="18"/>
<text text-anchor="middle" x="1314" y="-380" font-family="Helvetica,sans-Serif" font-size="10.00" fill="#000000">portage://dev&#45;lang/php&#45;7.3.17</text>
</a>
</g>
</g>
<!-- dependency2464&#45;&gt;choice10010111845108971101034711210411245554651464955 -->
<g id="edge22" class="edge">
<title>dependency2464:e&#45;&gt;choice10010111845108971101034711210411245554651464955:w</title>
<path fill="none" stroke="#000000" stroke-dasharray="1,5" d="M1062,-449C1114.6277,-449 1114.0751,-391.2336 1159.8476,-383.7872"/>
<polygon fill="#000000" stroke="#000000" points="1170,-383 1160.3778,-388.2597 1165.015,-383.3866 1160.0299,-383.7731 1160.0299,-383.7731 1160.0299,-383.7731 1165.015,-383.3866 1159.682,-379.2866 1170,-383 1170,-383"/>
</g>
<!-- choice10010111845108971101034711210411245554650465148 -->
<g id="node24" class="node">
<title>choice10010111845108971101034711210411245554650465148</title>
<g id="a_node24"><a xlink:href="../dev-lang/php-7.2.30.svg" xlink:title="portage://dev&#45;lang/php&#45;7.2.30">
<ellipse fill="none" stroke="#ff0000" cx="1314" cy="-327" rx="144" ry="18"/>
<text text-anchor="middle" x="1314" y="-324" font-family="Helvetica,sans-Serif" font-size="10.00" fill="#000000">portage://dev&#45;lang/php&#45;7.2.30</text>
</a>
</g>
</g>
<!-- dependency2464&#45;&gt;choice10010111845108971101034711210411245554650465148 -->
<g id="edge23" class="edge">
<title>dependency2464:e&#45;&gt;choice10010111845108971101034711210411245554650465148:w</title>
<path fill="none" stroke="#000000" stroke-dasharray="1,5" d="M1062,-449C1130.7384,-449 1101.0432,-339.076 1159.7845,-327.9119"/>
<polygon fill="#000000" stroke="#000000" points="1170,-327 1160.4397,-332.3714 1165.0198,-327.4446 1160.0396,-327.8892 1160.0396,-327.8892 1160.0396,-327.8892 1165.0198,-327.4446 1159.6395,-323.407 1170,-327 1170,-327"/>
</g>
<!-- dependency2466 -->
<g id="node11" class="node">
<title>dependency2466</title>
<polygon fill="none" stroke="#0000ff" points="834,-28 834,-126 939,-126 939,-28 834,-28"/>
<text text-anchor="start" x="864.823" y="-74" font-family="Helvetica,sans-Serif" font-size="10.00" fill="#000000">pack_dep</text>
<polygon fill="none" stroke="#0000ff" points="939,-104 939,-126 1049,-126 1049,-104 939,-104"/>
<text text-anchor="start" x="988.441" y="-112" font-family="Helvetica,sans-Serif" font-size="10.00" fill="#000000">no</text>
<polygon fill="none" stroke="#0000ff" points="939,-82 939,-104 1049,-104 1049,-82 939,-82"/>
<text text-anchor="start" x="980.668" y="-90" font-family="Helvetica,sans-Serif" font-size="10.00" fill="#000000">virtual</text>
<polygon fill="none" stroke="#0000ff" points="939,-60 939,-82 1049,-82 1049,-60 939,-60"/>
<text text-anchor="start" x="972.8795" y="-68" font-family="Helvetica,sans-Serif" font-size="10.00" fill="#000000">httpd&#45;php</text>
<polygon fill="none" stroke="#0000ff" points="939,-38 939,-60 1049,-60 1049,-38 939,-38"/>
<text text-anchor="start" x="982.882" y="-46" font-family="Helvetica,sans-Serif" font-size="10.00" fill="#000000">none</text>
<polygon fill="none" stroke="#0000ff" points="939,-28 939,-38 1049,-38 1049,-28 939,-28"/>
</g>
<!-- dependency2465&#45;&gt;dependency2466 -->
<g id="edge8" class="edge">
<title>dependency2465:e&#45;&gt;dependency2466:w</title>
<path fill="none" stroke="#000000" d="M715.5,-557C930.8858,-557 617.4935,-92.3441 815.8387,-77.3699"/>
<polygon fill="#000000" stroke="#000000" points="826.1273,-80.4977 816.0066,-77.3638 825.8727,-73.5023 826.1273,-80.4977"/>
</g>
<!-- dependency2467 -->
<g id="node12" class="node">
<title>dependency2467</title>
<polygon fill="none" stroke="#0000ff" points="834,-276 834,-374 939,-374 939,-276 834,-276"/>
<text text-anchor="start" x="864.823" y="-322" font-family="Helvetica,sans-Serif" font-size="10.00" fill="#000000">pack_dep</text>
<polygon fill="none" stroke="#0000ff" points="939,-352 939,-374 1049,-374 1049,-352 939,-352"/>
<text text-anchor="start" x="988.441" y="-360" font-family="Helvetica,sans-Serif" font-size="10.00" fill="#000000">no</text>
<polygon fill="none" stroke="#0000ff" points="939,-330 939,-352 1049,-352 1049,-330 939,-330"/>
<text text-anchor="start" x="974.8285" y="-338" font-family="Helvetica,sans-Serif" font-size="10.00" fill="#000000">dev&#45;lang</text>
<polygon fill="none" stroke="#0000ff" points="939,-308 939,-330 1049,-330 1049,-308 939,-308"/>
<text text-anchor="start" x="985.6615" y="-316" font-family="Helvetica,sans-Serif" font-size="10.00" fill="#000000">php</text>
<polygon fill="none" stroke="#0000ff" points="939,-286 939,-308 1049,-308 1049,-286 939,-286"/>
<text text-anchor="start" x="982.882" y="-294" font-family="Helvetica,sans-Serif" font-size="10.00" fill="#000000">none</text>
<polygon fill="none" stroke="#0000ff" points="939,-276 939,-286 1049,-286 1049,-276 939,-276"/>
</g>
<!-- dependency2465&#45;&gt;dependency2467 -->
<g id="edge9" class="edge">
<title>dependency2465:e&#45;&gt;dependency2467:w</title>
<path fill="none" stroke="#000000" d="M715.5,-557C826.1404,-557 718.9338,-339.2734 815.9588,-325.6655"/>
<polygon fill="#000000" stroke="#000000" points="826.2315,-328.4923 816.0219,-325.6614 825.7685,-321.5077 826.2315,-328.4923"/>
</g>
<!-- dependency2466&#45;&gt;choice11810511411611797108471041161161121004511210411245554652 -->
<g id="edge24" class="edge">
<title>dependency2466:e&#45;&gt;choice11810511411611797108471041161161121004511210411245554652:w</title>
<path fill="none" stroke="#000000" stroke-dasharray="1,5" d="M1062,-77C1106.9225,-77 1119.6434,-90.7131 1159.786,-92.7487"/>
<polygon fill="#000000" stroke="#000000" points="1170,-93 1159.8923,-97.2526 1165.0015,-92.877 1160.003,-92.7539 1160.003,-92.7539 1160.003,-92.7539 1165.0015,-92.877 1160.1138,-88.2553 1170,-93 1170,-93"/>
</g>
<!-- dependency2466&#45;&gt;choice11810511411611797108471041161161121004511210411245554651 -->
<g id="edge25" class="edge">
<title>dependency2466:e&#45;&gt;choice11810511411611797108471041161161121004511210411245554651:w</title>
<path fill="none" stroke="#000000" stroke-dasharray="1,5" d="M1062,-77C1131.3725,-77 1100.5057,-188.726 1159.6977,-200.0732"/>
<polygon fill="#000000" stroke="#000000" points="1170,-201 1159.637,-204.5858 1165.0201,-200.552 1160.0402,-200.1039 1160.0402,-200.1039 1160.0402,-200.1039 1165.0201,-200.552 1160.4435,-195.622 1170,-201 1170,-201"/>
</g>
<!-- dependency2466&#45;&gt;choice11810511411611797108471041161161121004511210411245554650 -->
<g id="edge26" class="edge">
<title>dependency2466:e&#45;&gt;choice11810511411611797108471041161161121004511210411245554650:w</title>
<path fill="none" stroke="#000000" stroke-dasharray="1,5" d="M1062,-77C1115.6255,-77 1113.3512,-138.5234 1159.9892,-146.2139"/>
<polygon fill="#000000" stroke="#000000" points="1170,-147 1159.6784,-150.7032 1165.0153,-146.6085 1160.0307,-146.217 1160.0307,-146.217 1160.0307,-146.217 1165.0153,-146.6085 1160.383,-141.7308 1170,-147 1170,-147"/>
</g>
<!-- dependency2467&#45;&gt;choice100101118451089711010347112104112455546524653 -->
<g id="edge27" class="edge">
<title>dependency2467:e&#45;&gt;choice100101118451089711010347112104112455546524653:w</title>
<path fill="none" stroke="#000000" stroke-dasharray="1,5" d="M1062,-325C1128.7266,-325 1102.7395,-429.0882 1159.6877,-440.0663"/>
<polygon fill="#000000" stroke="#000000" points="1170,-441 1159.6349,-444.5798 1165.0204,-440.5491 1160.0407,-440.0981 1160.0407,-440.0981 1160.0407,-440.0981 1165.0204,-440.5491 1160.4466,-435.6165 1170,-441 1170,-441"/>
</g>
<!-- dependency2467&#45;&gt;choice10010111845108971101034711210411245554651464955 -->
<g id="edge28" class="edge">
<title>dependency2467:e&#45;&gt;choice10010111845108971101034711210411245554651464955:w</title>
<path fill="none" stroke="#000000" stroke-dasharray="1,5" d="M1062,-325C1112.8658,-325 1115.4001,-375.5526 1159.8469,-382.2667"/>
<polygon fill="#000000" stroke="#000000" points="1170,-383 1159.7018,-386.7678 1165.013,-382.6398 1160.026,-382.2795 1160.026,-382.2795 1160.026,-382.2795 1165.013,-382.6398 1160.3502,-377.7912 1170,-383 1170,-383"/>
</g>
<!-- dependency2467&#45;&gt;choice10010111845108971101034711210411245554650465148 -->
<g id="edge29" class="edge">
<title>dependency2467:e&#45;&gt;choice10010111845108971101034711210411245554650465148:w</title>
<path fill="none" stroke="#000000" stroke-dasharray="1,5" d="M1062,-325C1106.4451,-325 1120.0145,-326.7141 1159.8765,-326.9686"/>
<polygon fill="#000000" stroke="#000000" points="1170,-327 1159.986,-331.4688 1165,-326.9844 1160,-326.9689 1160,-326.9689 1160,-326.9689 1165,-326.9844 1160.0141,-322.4689 1170,-327 1170,-327"/>
</g>
<!-- dependency2468&#45;&gt;choice97112112459710010910511047119101989711211245991111101021051034557575757 -->
<g id="edge30" class="edge">
<title>dependency2468:e&#45;&gt;choice97112112459710010910511047119101989711211245991111101021051034557575757:w</title>
<path fill="none" stroke="#000000" stroke-dasharray="1,5" d="M1062,-579C1107.9018,-579 1119.0042,-602.2387 1159.8764,-605.5974"/>
<polygon fill="#000000" stroke="#000000" points="1170,-606 1159.829,-610.099 1165.0039,-605.8013 1160.0079,-605.6025 1160.0079,-605.6025 1160.0079,-605.6025 1165.0039,-605.8013 1160.1868,-601.1061 1170,-606 1170,-606"/>
</g>
<!-- dependency2468&#45;&gt;choice971121124597100109105110471191019897112112459911111010210510345494653534511449 -->
<g id="edge31" class="edge">
<title>dependency2468:e&#45;&gt;choice971121124597100109105110471191019897112112459911111010210510345494653534511449:w</title>
<path fill="none" stroke="#000000" stroke-dasharray="1,5" d="M1062,-579C1126.3025,-579 1104.7801,-675.9097 1160.0307,-686.1307"/>
<polygon fill="#000000" stroke="#000000" points="1170,-687 1159.6468,-690.6142 1165.0189,-686.5656 1160.0378,-686.1312 1160.0378,-686.1312 1160.0378,-686.1312 1165.0189,-686.5656 1160.4288,-681.6482 1170,-687 1170,-687"/>
</g>
</g>
</svg>
