<?xml version="1.0" encoding="UTF-8" standalone="no"?>
<!DOCTYPE svg PUBLIC "-//W3C//DTD SVG 1.1//EN"
 "http://www.w3.org/Graphics/SVG/1.1/DTD/svg11.dtd">
<!-- Generated by graphviz version 9.0.0 (20230911.1827)
 -->
<!-- Title: prolog Pages: 1 -->
<svg width="1405pt" height="948pt"
 viewBox="0.00 0.00 1405.00 948.00" xmlns="http://www.w3.org/2000/svg" xmlns:xlink="http://www.w3.org/1999/xlink">
<g id="graph0" class="graph" transform="scale(1 1) rotate(0) translate(4 944)">
<title>prolog</title>
<polygon fill="white" stroke="none" points="-4,4 -4,-944 1401,-944 1401,4 -4,4"/>
<g id="clust1" class="cluster">
<title>cluster_leftcol</title>
<polygon fill="none" stroke="gray" points="8,-349 8,-420 312,-420 312,-349 8,-349"/>
<text text-anchor="start" x="147.25" y="-407.5" font-family="Helvetica,sans-Serif" font-style="italic" font-size="10.00">ebuild</text>
</g>
<g id="clust2" class="cluster">
<title>cluster_midcol</title>
<polygon fill="none" stroke="gray" points="396,-8 396,-862 1001,-862 1001,-8 396,-8"/>
<text text-anchor="start" x="668.5" y="-849.5" font-family="Helvetica,sans-Serif" font-style="italic" font-size="10.00">dependencies</text>
</g>
<g id="clust9" class="cluster">
<title>cluster_run</title>
<polygon fill="#eeeeee" stroke="gray" points="404,-16 404,-427 993,-427 993,-16 404,-16"/>
<text text-anchor="start" x="691.75" y="-414.5" font-family="Helvetica,sans-Serif" font-style="italic" font-size="10.00">run</text>
</g>
<g id="clust3" class="cluster">
<title>cluster_compile</title>
<polygon fill="#eeeeee" stroke="gray" points="404,-435 404,-835 993,-835 993,-435 404,-435"/>
<text text-anchor="start" x="681.62" y="-822.5" font-family="Helvetica,sans-Serif" font-style="italic" font-size="10.00">compile</text>
</g>
<g id="clust14" class="cluster">
<title>cluster_choices</title>
<polygon fill="none" stroke="gray" points="1085,-51 1085,-932 1389,-932 1389,-51 1085,-51"/>
<text text-anchor="start" x="1213.38" y="-919.5" font-family="Helvetica,sans-Serif" font-style="italic" font-size="10.00">candidates</text>
</g>
<!-- id -->
<g id="node1" class="node">
<title>id</title>
<g id="a_node1"><a xlink:href="../www-apps/trac-accountmanager-0.4.2-r1.svg" xlink:title="portage://www&#45;apps/trac&#45;accountmanager&#45;0.4.2&#45;r1">
<ellipse fill="none" stroke="red" cx="160" cy="-375" rx="144" ry="18"/>
<text text-anchor="middle" x="160" y="-371.12" font-family="Helvetica,sans-Serif" font-size="10.00">portage://www&#45;apps/trac&#45;accountmanager&#45;0.4.2&#45;r1</text>
</a>
</g>
</g>
<!-- dependency31043 -->
<g id="node2" class="node">
<title>dependency31043</title>
<polygon fill="none" stroke="red" points="420,-528 420,-570 509,-570 509,-528 420,-528"/>
<text text-anchor="start" x="430.75" y="-545.12" font-family="Helvetica,sans-Serif" font-size="10.00">use_conditional</text>
<polygon fill="none" stroke="red" points="509,-549 509,-570 633,-570 633,-549 509,-549"/>
<text text-anchor="start" x="554.12" y="-555.5" font-family="Helvetica,sans-Serif" font-size="10.00">positive</text>
<polygon fill="none" stroke="red" points="509,-528 509,-549 633,-549 633,-528 509,-528"/>
<text text-anchor="start" x="513.62" y="-534.5" font-family="Helvetica,sans-Serif" font-size="10.00">python_targets_python2_7</text>
</g>
<!-- id&#45;&gt;dependency31043 -->
<g id="edge2" class="edge">
<title>id:e&#45;&gt;dependency31043:w</title>
<path fill="none" stroke="black" d="M305,-375C391.77,-375 326.96,-534.37 400.7,-548.06"/>
<polygon fill="black" stroke="black" points="410.29,-548.89 399.93,-552.51 406.52,-548.57 400.32,-548.03 400.32,-548.03 400.32,-548.03 406.52,-548.57 400.71,-543.55 410.29,-548.89"/>
</g>
<!-- dependency31045 -->
<g id="node4" class="node">
<title>dependency31045</title>
<polygon fill="none" stroke="blue" points="757,-447.5 757,-552.5 861,-552.5 861,-447.5 757,-447.5"/>
<text text-anchor="start" x="788" y="-496.12" font-family="Helvetica,sans-Serif" font-size="10.00">pack_dep</text>
<polygon fill="none" stroke="blue" points="861,-531.5 861,-552.5 971,-552.5 971,-531.5 861,-531.5"/>
<text text-anchor="start" x="910.75" y="-538" font-family="Helvetica,sans-Serif" font-size="10.00">no</text>
<polygon fill="none" stroke="blue" points="861,-510.5 861,-531.5 971,-531.5 971,-510.5 861,-510.5"/>
<text text-anchor="start" x="897.62" y="-517" font-family="Helvetica,sans-Serif" font-size="10.00">dev&#45;lang</text>
<polygon fill="none" stroke="blue" points="861,-489.5 861,-510.5 971,-510.5 971,-489.5 861,-489.5"/>
<text text-anchor="start" x="889.38" y="-496" font-family="Helvetica,sans-Serif" font-size="10.00">python&#45;exec</text>
<polygon fill="none" stroke="blue" points="861,-468.5 861,-489.5 971,-489.5 971,-468.5 861,-468.5"/>
<text text-anchor="start" x="889.38" y="-475" font-family="Helvetica,sans-Serif" font-size="10.00">greaterequal</text>
<polygon fill="none" stroke="blue" points="861,-447.5 861,-468.5 971,-468.5 971,-447.5 861,-447.5"/>
<text text-anchor="start" x="913.38" y="-454" font-family="Helvetica,sans-Serif" font-size="10.00">2</text>
</g>
<!-- id&#45;&gt;dependency31045 -->
<g id="edge3" class="edge">
<title>id:e&#45;&gt;dependency31045:w</title>
<path fill="none" stroke="black" d="M527.5,-322C578.63,-323.19 597.94,-313.4 641,-341 709.55,-384.94 667.93,-489.56 737.85,-499.27"/>
<polygon fill="black" stroke="black" points="747.78,-499.92 737.51,-503.76 744.01,-499.68 737.81,-499.27 737.81,-499.27 737.81,-499.27 744.01,-499.68 738.1,-494.78 747.78,-499.92"/>
</g>
<!-- dependency31046 -->
<g id="node5" class="node">
<title>dependency31046</title>
<polygon fill="none" stroke="blue" points="757,-710 757,-804 861,-804 861,-710 757,-710"/>
<text text-anchor="start" x="788" y="-753.12" font-family="Helvetica,sans-Serif" font-size="10.00">pack_dep</text>
<polygon fill="none" stroke="blue" points="861,-783 861,-804 971,-804 971,-783 861,-783"/>
<text text-anchor="start" x="910.75" y="-789.5" font-family="Helvetica,sans-Serif" font-size="10.00">no</text>
<polygon fill="none" stroke="blue" points="861,-762 861,-783 971,-783 971,-762 861,-762"/>
<text text-anchor="start" x="892" y="-768.5" font-family="Helvetica,sans-Serif" font-size="10.00">dev&#45;python</text>
<polygon fill="none" stroke="blue" points="861,-741 861,-762 971,-762 971,-741 861,-741"/>
<text text-anchor="start" x="893.5" y="-747.5" font-family="Helvetica,sans-Serif" font-size="10.00">setuptools</text>
<polygon fill="none" stroke="blue" points="861,-720 861,-741 971,-741 971,-720 861,-720"/>
<text text-anchor="start" x="905.5" y="-726.5" font-family="Helvetica,sans-Serif" font-size="10.00">none</text>
<polygon fill="none" stroke="blue" points="861,-710 861,-720 971,-720 971,-710 861,-710"/>
</g>
<!-- id&#45;&gt;dependency31046 -->
<g id="edge4" class="edge">
<title>id:e&#45;&gt;dependency31046:w</title>
<path fill="none" stroke="black" d="M527.5,-322C578.63,-323.19 603.28,-306.46 641,-341 779.07,-467.41 566.8,-745.57 738.02,-756.66"/>
<polygon fill="black" stroke="black" points="747.78,-756.96 737.65,-761.15 744,-756.84 737.79,-756.65 737.79,-756.65 737.79,-756.65 744,-756.84 737.93,-752.15 747.78,-756.96"/>
</g>
<!-- dependency31047 -->
<g id="node6" class="node">
<title>dependency31047</title>
<polygon fill="none" stroke="red" points="420,-354 420,-396 509,-396 509,-354 420,-354"/>
<text text-anchor="start" x="430.75" y="-371.12" font-family="Helvetica,sans-Serif" font-size="10.00">use_conditional</text>
<polygon fill="none" stroke="red" points="509,-375 509,-396 633,-396 633,-375 509,-375"/>
<text text-anchor="start" x="554.12" y="-381.5" font-family="Helvetica,sans-Serif" font-size="10.00">positive</text>
<polygon fill="none" stroke="red" points="509,-354 509,-375 633,-375 633,-354 509,-354"/>
<text text-anchor="start" x="513.62" y="-360.5" font-family="Helvetica,sans-Serif" font-size="10.00">python_targets_python2_7</text>
</g>
<!-- id&#45;&gt;dependency31047 -->
<g id="edge6" class="edge">
<title>id:e&#45;&gt;dependency31047:w</title>
<path fill="none" stroke="black" d="M305,-375C349.19,-375 362.44,-375 402.52,-375"/>
<ellipse fill="none" stroke="black" cx="407" cy="-375" rx="4" ry="4"/>
</g>
<!-- dependency31049 -->
<g id="node8" class="node">
<title>dependency31049</title>
<polygon fill="none" stroke="blue" points="757,-159.5 757,-264.5 861,-264.5 861,-159.5 757,-159.5"/>
<text text-anchor="start" x="788" y="-208.12" font-family="Helvetica,sans-Serif" font-size="10.00">pack_dep</text>
<polygon fill="none" stroke="blue" points="861,-243.5 861,-264.5 971,-264.5 971,-243.5 861,-243.5"/>
<text text-anchor="start" x="910.75" y="-250" font-family="Helvetica,sans-Serif" font-size="10.00">no</text>
<polygon fill="none" stroke="blue" points="861,-222.5 861,-243.5 971,-243.5 971,-222.5 861,-222.5"/>
<text text-anchor="start" x="897.62" y="-229" font-family="Helvetica,sans-Serif" font-size="10.00">dev&#45;lang</text>
<polygon fill="none" stroke="blue" points="861,-201.5 861,-222.5 971,-222.5 971,-201.5 861,-201.5"/>
<text text-anchor="start" x="889.38" y="-208" font-family="Helvetica,sans-Serif" font-size="10.00">python&#45;exec</text>
<polygon fill="none" stroke="blue" points="861,-180.5 861,-201.5 971,-201.5 971,-180.5 861,-180.5"/>
<text text-anchor="start" x="889.38" y="-187" font-family="Helvetica,sans-Serif" font-size="10.00">greaterequal</text>
<polygon fill="none" stroke="blue" points="861,-159.5 861,-180.5 971,-180.5 971,-159.5 861,-159.5"/>
<text text-anchor="start" x="913.38" y="-166" font-family="Helvetica,sans-Serif" font-size="10.00">2</text>
</g>
<!-- id&#45;&gt;dependency31049 -->
<g id="edge7" class="edge">
<title>id:e&#45;&gt;dependency31049:w</title>
<path fill="none" stroke="black" d="M527.5,-322C634.38,-324.48 638.91,-218.07 740.22,-212.25"/>
<ellipse fill="none" stroke="black" cx="744.5" cy="-212.13" rx="4" ry="4"/>
</g>
<!-- dependency31050 -->
<g id="node9" class="node">
<title>dependency31050</title>
<polygon fill="none" stroke="blue" points="757,-28.5 757,-133.5 861,-133.5 861,-28.5 757,-28.5"/>
<text text-anchor="start" x="788" y="-77.12" font-family="Helvetica,sans-Serif" font-size="10.00">pack_dep</text>
<polygon fill="none" stroke="blue" points="861,-112.5 861,-133.5 971,-133.5 971,-112.5 861,-112.5"/>
<text text-anchor="start" x="910.75" y="-119" font-family="Helvetica,sans-Serif" font-size="10.00">no</text>
<polygon fill="none" stroke="blue" points="861,-91.5 861,-112.5 971,-112.5 971,-91.5 861,-91.5"/>
<text text-anchor="start" x="892.75" y="-98" font-family="Helvetica,sans-Serif" font-size="10.00">www&#45;apps</text>
<polygon fill="none" stroke="blue" points="861,-70.5 861,-91.5 971,-91.5 971,-70.5 861,-70.5"/>
<text text-anchor="start" x="907.75" y="-77" font-family="Helvetica,sans-Serif" font-size="10.00">trac</text>
<polygon fill="none" stroke="blue" points="861,-49.5 861,-70.5 971,-70.5 971,-49.5 861,-49.5"/>
<text text-anchor="start" x="889.38" y="-56" font-family="Helvetica,sans-Serif" font-size="10.00">greaterequal</text>
<polygon fill="none" stroke="blue" points="861,-28.5 861,-49.5 971,-49.5 971,-28.5 861,-28.5"/>
<text text-anchor="start" x="906.62" y="-35" font-family="Helvetica,sans-Serif" font-size="10.00">0.12</text>
</g>
<!-- id&#45;&gt;dependency31050 -->
<g id="edge8" class="edge">
<title>id:e&#45;&gt;dependency31050:w</title>
<path fill="none" stroke="black" d="M527.5,-322C669.96,-325.31 606.28,-90.92 740.32,-81.3"/>
<ellipse fill="none" stroke="black" cx="744.5" cy="-81.16" rx="4" ry="4"/>
<path fill="none" stroke="black" d="M305,-375C348.18,-375 354.18,-351.75 396,-341 452.34,-326.52 467.34,-320.65 525.5,-322"/>
</g>
<!-- dependency31044 -->
<g id="node3" class="node">
<title>dependency31044</title>
<polygon fill="none" stroke="blue" points="757,-578.5 757,-683.5 861,-683.5 861,-578.5 757,-578.5"/>
<text text-anchor="start" x="788" y="-627.12" font-family="Helvetica,sans-Serif" font-size="10.00">pack_dep</text>
<polygon fill="none" stroke="blue" points="861,-662.5 861,-683.5 971,-683.5 971,-662.5 861,-662.5"/>
<text text-anchor="start" x="910.75" y="-669" font-family="Helvetica,sans-Serif" font-size="10.00">no</text>
<polygon fill="none" stroke="blue" points="861,-641.5 861,-662.5 971,-662.5 971,-641.5 861,-641.5"/>
<text text-anchor="start" x="897.62" y="-648" font-family="Helvetica,sans-Serif" font-size="10.00">dev&#45;lang</text>
<polygon fill="none" stroke="blue" points="861,-620.5 861,-641.5 971,-641.5 971,-620.5 861,-620.5"/>
<text text-anchor="start" x="901.38" y="-627" font-family="Helvetica,sans-Serif" font-size="10.00">python</text>
<polygon fill="none" stroke="blue" points="861,-599.5 861,-620.5 971,-620.5 971,-599.5 861,-599.5"/>
<text text-anchor="start" x="889.38" y="-606" font-family="Helvetica,sans-Serif" font-size="10.00">greaterequal</text>
<polygon fill="none" stroke="blue" points="861,-578.5 861,-599.5 971,-599.5 971,-578.5 861,-578.5"/>
<text text-anchor="start" x="899.5" y="-585" font-family="Helvetica,sans-Serif" font-size="10.00">2.7.5&#45;r2</text>
</g>
<!-- dependency31043&#45;&gt;dependency31044 -->
<g id="edge1" class="edge">
<title>dependency31043:e&#45;&gt;dependency31044:w</title>
<path fill="none" stroke="black" stroke-dasharray="5,2" d="M641,-549C697.27,-549 690.08,-620.47 737.91,-629.96"/>
<polygon fill="black" stroke="black" points="747.79,-630.89 737.41,-634.44 744.02,-630.53 737.83,-629.96 737.83,-629.96 737.83,-629.96 744.02,-630.53 738.25,-625.47 747.79,-630.89"/>
</g>
<!-- choice10010111845108971101034711212111610411111045514657464895971081121049750 -->
<g id="node10" class="node">
<title>choice10010111845108971101034711212111610411111045514657464895971081121049750</title>
<g id="a_node10"><a xlink:href="../dev-lang/python-3.9.0_alpha2.svg" xlink:title="portage://dev&#45;lang/python&#45;3.9.0_alpha2">
<ellipse fill="none" stroke="red" cx="1237" cy="-455" rx="144" ry="18"/>
<text text-anchor="middle" x="1237" y="-451.12" font-family="Helvetica,sans-Serif" font-size="10.00">portage://dev&#45;lang/python&#45;3.9.0_alpha2</text>
</a>
</g>
</g>
<!-- dependency31044&#45;&gt;choice10010111845108971101034711212111610411111045514657464895971081121049750 -->
<g id="edge9" class="edge">
<title>dependency31044:e&#45;&gt;choice10010111845108971101034711212111610411111045514657464895971081121049750:w</title>
<path fill="none" stroke="black" stroke-dasharray="1,5" d="M986,-631C1073.39,-631 1006.96,-469.8 1081.13,-455.95"/>
<polygon fill="black" stroke="black" points="1090.79,-455.11 1081.21,-460.46 1087.02,-455.43 1080.82,-455.97 1080.82,-455.97 1080.82,-455.97 1087.02,-455.43 1080.43,-451.49 1090.79,-455.11"/>
</g>
<!-- choice100101118451089711010347112121116104111110455146564649 -->
<g id="node11" class="node">
<title>choice100101118451089711010347112121116104111110455146564649</title>
<g id="a_node11"><a xlink:href="../dev-lang/python-3.8.1.svg" xlink:title="portage://dev&#45;lang/python&#45;3.8.1">
<ellipse fill="none" stroke="red" cx="1237" cy="-401" rx="144" ry="18"/>
<text text-anchor="middle" x="1237" y="-397.12" font-family="Helvetica,sans-Serif" font-size="10.00">portage://dev&#45;lang/python&#45;3.8.1</text>
</a>
</g>
</g>
<!-- dependency31044&#45;&gt;choice100101118451089711010347112121116104111110455146564649 -->
<g id="edge10" class="edge">
<title>dependency31044:e&#45;&gt;choice100101118451089711010347112121116104111110455146564649:w</title>
<path fill="none" stroke="black" stroke-dasharray="1,5" d="M986,-631C1094.6,-631 987.53,-416.89 1080.97,-401.83"/>
<polygon fill="black" stroke="black" points="1090.79,-401.09 1081.15,-406.33 1087.01,-401.38 1080.81,-401.84 1080.81,-401.84 1080.81,-401.84 1087.01,-401.38 1080.47,-397.36 1090.79,-401.09"/>
</g>
<!-- choice100101118451089711010347112121116104111110455146554654 -->
<g id="node12" class="node">
<title>choice100101118451089711010347112121116104111110455146554654</title>
<g id="a_node12"><a xlink:href="../dev-lang/python-3.7.6.svg" xlink:title="portage://dev&#45;lang/python&#45;3.7.6">
<ellipse fill="none" stroke="red" cx="1237" cy="-347" rx="144" ry="18"/>
<text text-anchor="middle" x="1237" y="-343.12" font-family="Helvetica,sans-Serif" font-size="10.00">portage://dev&#45;lang/python&#45;3.7.6</text>
</a>
</g>
</g>
<!-- dependency31044&#45;&gt;choice100101118451089711010347112121116104111110455146554654 -->
<g id="edge11" class="edge">
<title>dependency31044:e&#45;&gt;choice100101118451089711010347112121116104111110455146554654:w</title>
<path fill="none" stroke="black" stroke-dasharray="1,5" d="M986,-631C1116.78,-631 966.59,-363.4 1080.91,-347.72"/>
<polygon fill="black" stroke="black" points="1090.78,-347.08 1081.1,-352.21 1087.01,-347.32 1080.8,-347.72 1080.8,-347.72 1080.8,-347.72 1087.01,-347.32 1080.51,-343.23 1090.78,-347.08"/>
</g>
<!-- choice1001011184510897110103471121211161041111104551465546534511449 -->
<g id="node13" class="node">
<title>choice1001011184510897110103471121211161041111104551465546534511449</title>
<g id="a_node13"><a xlink:href="../dev-lang/python-3.7.5-r1.svg" xlink:title="portage://dev&#45;lang/python&#45;3.7.5&#45;r1">
<ellipse fill="none" stroke="red" cx="1237" cy="-293" rx="144" ry="18"/>
<text text-anchor="middle" x="1237" y="-289.12" font-family="Helvetica,sans-Serif" font-size="10.00">portage://dev&#45;lang/python&#45;3.7.5&#45;r1</text>
</a>
</g>
</g>
<!-- dependency31044&#45;&gt;choice1001011184510897110103471121211161041111104551465546534511449 -->
<g id="edge12" class="edge">
<title>dependency31044:e&#45;&gt;choice1001011184510897110103471121211161041111104551465546534511449:w</title>
<path fill="none" stroke="black" stroke-dasharray="1,5" d="M986,-631C1139.59,-631 944.54,-309.3 1081.11,-293.59"/>
<polygon fill="black" stroke="black" points="1090.78,-293.07 1081.04,-298.11 1087.01,-293.27 1080.8,-293.61 1080.8,-293.61 1080.8,-293.61 1087.01,-293.27 1080.55,-289.12 1090.78,-293.07"/>
</g>
<!-- choice100101118451089711010347112121116104111110455146544657 -->
<g id="node14" class="node">
<title>choice100101118451089711010347112121116104111110455146544657</title>
<g id="a_node14"><a xlink:href="../dev-lang/python-3.6.9.svg" xlink:title="portage://dev&#45;lang/python&#45;3.6.9">
<ellipse fill="none" stroke="red" cx="1237" cy="-671" rx="144" ry="18"/>
<text text-anchor="middle" x="1237" y="-667.12" font-family="Helvetica,sans-Serif" font-size="10.00">portage://dev&#45;lang/python&#45;3.6.9</text>
</a>
</g>
</g>
<!-- dependency31044&#45;&gt;choice100101118451089711010347112121116104111110455146544657 -->
<g id="edge13" class="edge">
<title>dependency31044:e&#45;&gt;choice100101118451089711010347112121116104111110455146544657:w</title>
<path fill="none" stroke="black" stroke-dasharray="1,5" d="M986,-631C1032.42,-631 1040.54,-664.99 1080.98,-670.31"/>
<polygon fill="black" stroke="black" points="1090.78,-670.92 1080.52,-674.79 1087.01,-670.69 1080.8,-670.29 1080.8,-670.29 1080.8,-670.29 1087.01,-670.69 1081.09,-665.8 1090.78,-670.92"/>
</g>
<!-- choice10010111845108971101034711212111610411111045514654464948 -->
<g id="node15" class="node">
<title>choice10010111845108971101034711212111610411111045514654464948</title>
<g id="a_node15"><a xlink:href="../dev-lang/python-3.6.10.svg" xlink:title="portage://dev&#45;lang/python&#45;3.6.10">
<ellipse fill="none" stroke="red" cx="1237" cy="-617" rx="144" ry="18"/>
<text text-anchor="middle" x="1237" y="-613.12" font-family="Helvetica,sans-Serif" font-size="10.00">portage://dev&#45;lang/python&#45;3.6.10</text>
</a>
</g>
</g>
<!-- dependency31044&#45;&gt;choice10010111845108971101034711212111610411111045514654464948 -->
<g id="edge14" class="edge">
<title>dependency31044:e&#45;&gt;choice10010111845108971101034711212111610411111045514654464948:w</title>
<path fill="none" stroke="black" stroke-dasharray="1,5" d="M986,-631C1029.62,-631 1042.44,-619.2 1081,-617.27"/>
<polygon fill="black" stroke="black" points="1090.78,-617.03 1080.89,-621.77 1087,-617.12 1080.78,-617.27 1080.78,-617.27 1080.78,-617.27 1087,-617.12 1080.68,-612.77 1090.78,-617.03"/>
</g>
<!-- choice100101118451089711010347112121116104111110455046554649554511449 -->
<g id="node16" class="node">
<title>choice100101118451089711010347112121116104111110455046554649554511449</title>
<g id="a_node16"><a xlink:href="../dev-lang/python-2.7.17-r1.svg" xlink:title="portage://dev&#45;lang/python&#45;2.7.17&#45;r1">
<ellipse fill="none" stroke="red" cx="1237" cy="-563" rx="144" ry="18"/>
<text text-anchor="middle" x="1237" y="-559.12" font-family="Helvetica,sans-Serif" font-size="10.00">portage://dev&#45;lang/python&#45;2.7.17&#45;r1</text>
</a>
</g>
</g>
<!-- dependency31044&#45;&gt;choice100101118451089711010347112121116104111110455046554649554511449 -->
<g id="edge15" class="edge">
<title>dependency31044:e&#45;&gt;choice100101118451089711010347112121116104111110455046554649554511449:w</title>
<path fill="none" stroke="black" stroke-dasharray="1,5" d="M986,-631C1038.04,-631 1036.56,-572.23 1081.07,-563.96"/>
<polygon fill="black" stroke="black" points="1090.79,-563.11 1081.22,-568.47 1087.02,-563.44 1080.82,-563.98 1080.82,-563.98 1080.82,-563.98 1087.02,-563.44 1080.43,-559.5 1090.79,-563.11"/>
</g>
<!-- choice10010111845108971101034711212111610411111045504655464955 -->
<g id="node17" class="node">
<title>choice10010111845108971101034711212111610411111045504655464955</title>
<g id="a_node17"><a xlink:href="../dev-lang/python-2.7.17.svg" xlink:title="portage://dev&#45;lang/python&#45;2.7.17">
<ellipse fill="none" stroke="red" cx="1237" cy="-509" rx="144" ry="18"/>
<text text-anchor="middle" x="1237" y="-505.12" font-family="Helvetica,sans-Serif" font-size="10.00">portage://dev&#45;lang/python&#45;2.7.17</text>
</a>
</g>
</g>
<!-- dependency31044&#45;&gt;choice10010111845108971101034711212111610411111045504655464955 -->
<g id="edge16" class="edge">
<title>dependency31044:e&#45;&gt;choice10010111845108971101034711212111610411111045504655464955:w</title>
<path fill="none" stroke="black" stroke-dasharray="1,5" d="M986,-631C1053.9,-631 1023.96,-521.98 1081.16,-510.05"/>
<polygon fill="black" stroke="black" points="1090.79,-509.12 1081.27,-514.57 1087.02,-509.48 1080.83,-510.09 1080.83,-510.09 1080.83,-510.09 1087.02,-509.48 1080.4,-505.61 1090.79,-509.12"/>
</g>
<!-- choice10010111845108971101034711212111610411111045101120101994557575757 -->
<g id="node18" class="node">
<title>choice10010111845108971101034711212111610411111045101120101994557575757</title>
<g id="a_node18"><a xlink:href="../dev-lang/python-exec-9999.svg" xlink:title="portage://dev&#45;lang/python&#45;exec&#45;9999">
<ellipse fill="none" stroke="red" cx="1237" cy="-239" rx="144" ry="18"/>
<text text-anchor="middle" x="1237" y="-235.12" font-family="Helvetica,sans-Serif" font-size="10.00">portage://dev&#45;lang/python&#45;exec&#45;9999</text>
</a>
</g>
</g>
<!-- dependency31045&#45;&gt;choice10010111845108971101034711212111610411111045101120101994557575757 -->
<g id="edge17" class="edge">
<title>dependency31045:e&#45;&gt;choice10010111845108971101034711212111610411111045101120101994557575757:w</title>
<path fill="none" stroke="black" stroke-dasharray="1,5" d="M986,-500C1107.29,-500 975.56,-255.06 1081.04,-239.75"/>
<polygon fill="black" stroke="black" points="1090.78,-239.08 1081.11,-244.25 1087.01,-239.34 1080.81,-239.76 1080.81,-239.76 1080.81,-239.76 1087.01,-239.34 1080.5,-235.27 1090.78,-239.08"/>
</g>
<!-- choice10010111845108971101034711212111610411111045101120101994550465246544511449 -->
<g id="node19" class="node">
<title>choice10010111845108971101034711212111610411111045101120101994550465246544511449</title>
<g id="a_node19"><a xlink:href="../dev-lang/python-exec-2.4.6-r1.svg" xlink:title="portage://dev&#45;lang/python&#45;exec&#45;2.4.6&#45;r1">
<ellipse fill="none" stroke="red" cx="1237" cy="-185" rx="144" ry="18"/>
<text text-anchor="middle" x="1237" y="-181.12" font-family="Helvetica,sans-Serif" font-size="10.00">portage://dev&#45;lang/python&#45;exec&#45;2.4.6&#45;r1</text>
</a>
</g>
</g>
<!-- dependency31045&#45;&gt;choice10010111845108971101034711212111610411111045101120101994550465246544511449 -->
<g id="edge18" class="edge">
<title>dependency31045:e&#45;&gt;choice10010111845108971101034711212111610411111045101120101994550465246544511449:w</title>
<path fill="none" stroke="black" stroke-dasharray="1,5" d="M986,-500C1129.82,-500 954.04,-201.39 1081.01,-185.65"/>
<polygon fill="black" stroke="black" points="1090.78,-185.07 1081.06,-190.15 1087.01,-185.29 1080.8,-185.66 1080.8,-185.66 1080.8,-185.66 1087.01,-185.29 1080.54,-181.17 1090.78,-185.07"/>
</g>
<!-- choice100101118451121211161041111104711510111611711211611111110811545525346504648 -->
<g id="node20" class="node">
<title>choice100101118451121211161041111104711510111611711211611111110811545525346504648</title>
<g id="a_node20"><a xlink:href="../dev-python/setuptools-45.2.0.svg" xlink:title="portage://dev&#45;python/setuptools&#45;45.2.0">
<ellipse fill="none" stroke="red" cx="1237" cy="-887" rx="144" ry="18"/>
<text text-anchor="middle" x="1237" y="-883.12" font-family="Helvetica,sans-Serif" font-size="10.00">portage://dev&#45;python/setuptools&#45;45.2.0</text>
</a>
</g>
</g>
<!-- dependency31046&#45;&gt;choice100101118451121211161041111104711510111611711211611111110811545525346504648 -->
<g id="edge19" class="edge">
<title>dependency31046:e&#45;&gt;choice100101118451121211161041111104711510111611711211611111110811545525346504648:w</title>
<path fill="none" stroke="black" stroke-dasharray="1,5" d="M986,-757C1056.62,-757 1021.67,-873.65 1081.15,-885.95"/>
<polygon fill="black" stroke="black" points="1090.79,-886.88 1080.4,-890.4 1087.02,-886.52 1080.83,-885.92 1080.83,-885.92 1080.83,-885.92 1087.02,-886.52 1081.27,-881.44 1090.79,-886.88"/>
</g>
<!-- choice100101118451121211161041111104711510111611711211611111110811545525346494648 -->
<g id="node21" class="node">
<title>choice100101118451121211161041111104711510111611711211611111110811545525346494648</title>
<g id="a_node21"><a xlink:href="../dev-python/setuptools-45.1.0.svg" xlink:title="portage://dev&#45;python/setuptools&#45;45.1.0">
<ellipse fill="none" stroke="red" cx="1237" cy="-833" rx="144" ry="18"/>
<text text-anchor="middle" x="1237" y="-829.12" font-family="Helvetica,sans-Serif" font-size="10.00">portage://dev&#45;python/setuptools&#45;45.1.0</text>
</a>
</g>
</g>
<!-- dependency31046&#45;&gt;choice100101118451121211161041111104711510111611711211611111110811545525346494648 -->
<g id="edge20" class="edge">
<title>dependency31046:e&#45;&gt;choice100101118451121211161041111104711510111611711211611111110811545525346494648:w</title>
<path fill="none" stroke="black" stroke-dasharray="1,5" d="M986,-757C1040.01,-757 1035.07,-822.96 1081.02,-831.98"/>
<polygon fill="black" stroke="black" points="1090.79,-832.89 1080.41,-836.45 1087.02,-832.54 1080.83,-831.97 1080.83,-831.97 1080.83,-831.97 1087.02,-832.54 1081.24,-827.48 1090.79,-832.89"/>
</g>
<!-- choice100101118451121211161041111104711510111611711211611111110811545525246484648 -->
<g id="node22" class="node">
<title>choice100101118451121211161041111104711510111611711211611111110811545525246484648</title>
<g id="a_node22"><a xlink:href="../dev-python/setuptools-44.0.0.svg" xlink:title="portage://dev&#45;python/setuptools&#45;44.0.0">
<ellipse fill="none" stroke="red" cx="1237" cy="-779" rx="144" ry="18"/>
<text text-anchor="middle" x="1237" y="-775.12" font-family="Helvetica,sans-Serif" font-size="10.00">portage://dev&#45;python/setuptools&#45;44.0.0</text>
</a>
</g>
</g>
<!-- dependency31046&#45;&gt;choice100101118451121211161041111104711510111611711211611111110811545525246484648 -->
<g id="edge21" class="edge">
<title>dependency31046:e&#45;&gt;choice100101118451121211161041111104711510111611711211611111110811545525246484648:w</title>
<path fill="none" stroke="black" stroke-dasharray="1,5" d="M986,-757C1030.17,-757 1042.02,-775.54 1080.89,-778.58"/>
<polygon fill="black" stroke="black" points="1090.78,-778.95 1080.62,-783.07 1087,-778.81 1080.79,-778.58 1080.79,-778.58 1080.79,-778.58 1087,-778.81 1080.96,-774.08 1090.78,-778.95"/>
</g>
<!-- choice100101118451121211161041111104711510111611711211611111110811545525046484650 -->
<g id="node23" class="node">
<title>choice100101118451121211161041111104711510111611711211611111110811545525046484650</title>
<g id="a_node23"><a xlink:href="../dev-python/setuptools-42.0.2.svg" xlink:title="portage://dev&#45;python/setuptools&#45;42.0.2">
<ellipse fill="none" stroke="red" cx="1237" cy="-725" rx="144" ry="18"/>
<text text-anchor="middle" x="1237" y="-721.12" font-family="Helvetica,sans-Serif" font-size="10.00">portage://dev&#45;python/setuptools&#45;42.0.2</text>
</a>
</g>
</g>
<!-- dependency31046&#45;&gt;choice100101118451121211161041111104711510111611711211611111110811545525046484650 -->
<g id="edge22" class="edge">
<title>dependency31046:e&#45;&gt;choice100101118451121211161041111104711510111611711211611111110811545525046484650:w</title>
<path fill="none" stroke="black" stroke-dasharray="1,5" d="M986,-757C1031.27,-757 1041.31,-729.92 1080.94,-725.58"/>
<polygon fill="black" stroke="black" points="1090.78,-725.06 1081.03,-730.08 1087.01,-725.26 1080.8,-725.59 1080.8,-725.59 1080.8,-725.59 1087.01,-725.26 1080.56,-721.1 1090.78,-725.06"/>
</g>
<!-- dependency31048 -->
<g id="node7" class="node">
<title>dependency31048</title>
<polygon fill="none" stroke="blue" points="757,-290.5 757,-395.5 861,-395.5 861,-290.5 757,-290.5"/>
<text text-anchor="start" x="788" y="-339.12" font-family="Helvetica,sans-Serif" font-size="10.00">pack_dep</text>
<polygon fill="none" stroke="blue" points="861,-374.5 861,-395.5 971,-395.5 971,-374.5 861,-374.5"/>
<text text-anchor="start" x="910.75" y="-381" font-family="Helvetica,sans-Serif" font-size="10.00">no</text>
<polygon fill="none" stroke="blue" points="861,-353.5 861,-374.5 971,-374.5 971,-353.5 861,-353.5"/>
<text text-anchor="start" x="897.62" y="-360" font-family="Helvetica,sans-Serif" font-size="10.00">dev&#45;lang</text>
<polygon fill="none" stroke="blue" points="861,-332.5 861,-353.5 971,-353.5 971,-332.5 861,-332.5"/>
<text text-anchor="start" x="901.38" y="-339" font-family="Helvetica,sans-Serif" font-size="10.00">python</text>
<polygon fill="none" stroke="blue" points="861,-311.5 861,-332.5 971,-332.5 971,-311.5 861,-311.5"/>
<text text-anchor="start" x="889.38" y="-318" font-family="Helvetica,sans-Serif" font-size="10.00">greaterequal</text>
<polygon fill="none" stroke="blue" points="861,-290.5 861,-311.5 971,-311.5 971,-290.5 861,-290.5"/>
<text text-anchor="start" x="899.5" y="-297" font-family="Helvetica,sans-Serif" font-size="10.00">2.7.5&#45;r2</text>
</g>
<!-- dependency31047&#45;&gt;dependency31048 -->
<g id="edge5" class="edge">
<title>dependency31047:e&#45;&gt;dependency31048:w</title>
<path fill="none" stroke="black" stroke-dasharray="5,2" d="M641,-375C687.15,-375 697.45,-347.8 738,-343.56"/>
<polygon fill="black" stroke="black" points="747.78,-343.06 738.02,-348.06 744.01,-343.25 737.8,-343.57 737.8,-343.57 737.8,-343.57 744.01,-343.25 737.57,-339.07 747.78,-343.06"/>
</g>
<!-- dependency31048&#45;&gt;choice10010111845108971101034711212111610411111045514657464895971081121049750 -->
<g id="edge23" class="edge">
<title>dependency31048:e&#45;&gt;choice10010111845108971101034711212111610411111045514657464895971081121049750:w</title>
<path fill="none" stroke="black" stroke-dasharray="1,5" d="M986,-343C1050.52,-343 1026.76,-442.26 1080.94,-453.89"/>
<polygon fill="black" stroke="black" points="1090.79,-454.88 1080.39,-458.36 1087.02,-454.5 1080.84,-453.88 1080.84,-453.88 1080.84,-453.88 1087.02,-454.5 1081.29,-449.4 1090.79,-454.88"/>
</g>
<!-- dependency31048&#45;&gt;choice100101118451089711010347112121116104111110455146564649 -->
<g id="edge24" class="edge">
<title>dependency31048:e&#45;&gt;choice100101118451089711010347112121116104111110455146564649:w</title>
<path fill="none" stroke="black" stroke-dasharray="1,5" d="M986,-343C1035.72,-343 1038.2,-392.71 1080.91,-400.09"/>
<polygon fill="black" stroke="black" points="1090.79,-400.9 1080.45,-404.57 1087.02,-400.59 1080.82,-400.08 1080.82,-400.08 1080.82,-400.08 1087.02,-400.59 1081.19,-395.6 1090.79,-400.9"/>
</g>
<!-- dependency31048&#45;&gt;choice100101118451089711010347112121116104111110455146554654 -->
<g id="edge25" class="edge">
<title>dependency31048:e&#45;&gt;choice100101118451089711010347112121116104111110455146554654:w</title>
<path fill="none" stroke="black" stroke-dasharray="1,5" d="M986,-343C1029.28,-343 1042.7,-346.37 1081.07,-346.92"/>
<polygon fill="black" stroke="black" points="1090.78,-346.99 1080.75,-351.42 1087,-346.97 1080.78,-346.92 1080.78,-346.92 1080.78,-346.92 1087,-346.97 1080.81,-342.42 1090.78,-346.99"/>
</g>
<!-- dependency31048&#45;&gt;choice1001011184510897110103471121211161041111104551465546534511449 -->
<g id="edge26" class="edge">
<title>dependency31048:e&#45;&gt;choice1001011184510897110103471121211161041111104551465546534511449:w</title>
<path fill="none" stroke="black" stroke-dasharray="1,5" d="M986,-343C1034.12,-343 1039.34,-300.33 1080.93,-293.83"/>
<polygon fill="black" stroke="black" points="1090.78,-293.09 1081.15,-298.32 1087.01,-293.37 1080.81,-293.83 1080.81,-293.83 1080.81,-293.83 1087.01,-293.37 1080.48,-289.35 1090.78,-293.09"/>
</g>
<!-- dependency31048&#45;&gt;choice100101118451089711010347112121116104111110455146544657 -->
<g id="edge27" class="edge">
<title>dependency31048:e&#45;&gt;choice100101118451089711010347112121116104111110455146544657:w</title>
<path fill="none" stroke="black" stroke-dasharray="1,5" d="M986,-343C1135.31,-343 948.75,-654.56 1081,-670.38"/>
<polygon fill="black" stroke="black" points="1090.78,-670.93 1080.54,-674.86 1087.01,-670.72 1080.8,-670.36 1080.8,-670.36 1080.8,-670.36 1087.01,-670.72 1081.05,-665.87 1090.78,-670.93"/>
</g>
<!-- dependency31048&#45;&gt;choice10010111845108971101034711212111610411111045514654464948 -->
<g id="edge28" class="edge">
<title>dependency31048:e&#45;&gt;choice10010111845108971101034711212111610411111045514654464948:w</title>
<path fill="none" stroke="black" stroke-dasharray="1,5" d="M986,-343C1112.62,-343 970.56,-600.66 1080.91,-616.26"/>
<polygon fill="black" stroke="black" points="1090.78,-616.92 1080.51,-620.74 1087.01,-616.67 1080.81,-616.25 1080.81,-616.25 1080.81,-616.25 1087.01,-616.67 1081.11,-611.76 1090.78,-616.92"/>
</g>
<!-- dependency31048&#45;&gt;choice100101118451089711010347112121116104111110455046554649554511449 -->
<g id="edge29" class="edge">
<title>dependency31048:e&#45;&gt;choice100101118451089711010347112121116104111110455046554649554511449:w</title>
<path fill="none" stroke="black" stroke-dasharray="1,5" d="M986,-343C1090.61,-343 991.2,-547.39 1081.07,-562.16"/>
<polygon fill="black" stroke="black" points="1090.79,-562.91 1080.47,-566.63 1087.01,-562.62 1080.81,-562.14 1080.81,-562.14 1080.81,-562.14 1087.01,-562.62 1081.16,-557.65 1090.79,-562.91"/>
</g>
<!-- dependency31048&#45;&gt;choice10010111845108971101034711212111610411111045504655464955 -->
<g id="edge30" class="edge">
<title>dependency31048:e&#45;&gt;choice10010111845108971101034711212111610411111045504655464955:w</title>
<path fill="none" stroke="black" stroke-dasharray="1,5" d="M986,-343C1069.6,-343 1010.35,-494.42 1081.12,-508.03"/>
<polygon fill="black" stroke="black" points="1090.79,-508.89 1080.42,-512.48 1087.02,-508.55 1080.83,-508 1080.83,-508 1080.83,-508 1087.02,-508.55 1081.23,-503.52 1090.79,-508.89"/>
</g>
<!-- dependency31049&#45;&gt;choice10010111845108971101034711212111610411111045101120101994557575757 -->
<g id="edge31" class="edge">
<title>dependency31049:e&#45;&gt;choice10010111845108971101034711212111610411111045101120101994557575757:w</title>
<path fill="none" stroke="black" stroke-dasharray="1,5" d="M986,-212C1030.63,-212 1041.68,-234.75 1080.8,-238.48"/>
<polygon fill="black" stroke="black" points="1090.78,-238.94 1080.59,-242.98 1087.01,-238.77 1080.79,-238.48 1080.79,-238.48 1080.79,-238.48 1087.01,-238.77 1081,-233.99 1090.78,-238.94"/>
</g>
<!-- dependency31049&#45;&gt;choice10010111845108971101034711212111610411111045101120101994550465246544511449 -->
<g id="edge32" class="edge">
<title>dependency31049:e&#45;&gt;choice10010111845108971101034711212111610411111045101120101994550465246544511449:w</title>
<path fill="none" stroke="black" stroke-dasharray="1,5" d="M986,-212C1030.63,-212 1041.68,-189.25 1080.8,-185.52"/>
<polygon fill="black" stroke="black" points="1090.78,-185.06 1081,-190.01 1087.01,-185.23 1080.79,-185.52 1080.79,-185.52 1080.79,-185.52 1087.01,-185.23 1080.59,-181.02 1090.78,-185.06"/>
</g>
<!-- choice11911911945971121121154711611497994549465046494511449 -->
<g id="node24" class="node">
<title>choice11911911945971121121154711611497994549465046494511449</title>
<g id="a_node24"><a xlink:href="../www-apps/trac-1.2.1-r1.svg" xlink:title="portage://www&#45;apps/trac&#45;1.2.1&#45;r1">
<ellipse fill="none" stroke="red" cx="1237" cy="-131" rx="144" ry="18"/>
<text text-anchor="middle" x="1237" y="-127.12" font-family="Helvetica,sans-Serif" font-size="10.00">portage://www&#45;apps/trac&#45;1.2.1&#45;r1</text>
</a>
</g>
</g>
<!-- dependency31050&#45;&gt;choice11911911945971121121154711611497994549465046494511449 -->
<g id="edge33" class="edge">
<title>dependency31050:e&#45;&gt;choice11911911945971121121154711611497994549465046494511449:w</title>
<path fill="none" stroke="black" stroke-dasharray="1,5" d="M986,-81C1034.12,-81 1039.34,-123.67 1080.93,-130.17"/>
<polygon fill="black" stroke="black" points="1090.78,-130.91 1080.48,-134.65 1087.01,-130.63 1080.81,-130.17 1080.81,-130.17 1080.81,-130.17 1087.01,-130.63 1081.15,-125.68 1090.78,-130.91"/>
</g>
<!-- choice11911911945971121121154711611497994549464846574511449 -->
<g id="node25" class="node">
<title>choice11911911945971121121154711611497994549464846574511449</title>
<g id="a_node25"><a xlink:href="../www-apps/trac-1.0.9-r1.svg" xlink:title="portage://www&#45;apps/trac&#45;1.0.9&#45;r1">
<ellipse fill="none" stroke="red" cx="1237" cy="-77" rx="144" ry="18"/>
<text text-anchor="middle" x="1237" y="-73.12" font-family="Helvetica,sans-Serif" font-size="10.00">portage://www&#45;apps/trac&#45;1.0.9&#45;r1</text>
</a>
</g>
</g>
<!-- dependency31050&#45;&gt;choice11911911945971121121154711611497994549464846574511449 -->
<g id="edge34" class="edge">
<title>dependency31050:e&#45;&gt;choice11911911945971121121154711611497994549464846574511449:w</title>
<path fill="none" stroke="black" stroke-dasharray="1,5" d="M986,-81C1029.28,-81 1042.7,-77.63 1081.07,-77.08"/>
<polygon fill="black" stroke="black" points="1090.78,-77.01 1080.81,-81.58 1087,-77.03 1080.78,-77.08 1080.78,-77.08 1080.78,-77.08 1087,-77.03 1080.75,-72.58 1090.78,-77.01"/>
</g>
</g>
</svg>
