<?xml version="1.0" encoding="UTF-8" standalone="no"?>
<!DOCTYPE svg PUBLIC "-//W3C//DTD SVG 1.1//EN"
 "http://www.w3.org/Graphics/SVG/1.1/DTD/svg11.dtd">
<!-- Generated by graphviz version 2.39.20160721.2101 (20160721.2101)
 -->
<!-- Title: prolog Pages: 1 -->
<svg width="1326pt" height="690pt"
 viewBox="0.00 0.00 1326.00 690.00" xmlns="http://www.w3.org/2000/svg" xmlns:xlink="http://www.w3.org/1999/xlink">
<g id="graph0" class="graph" transform="scale(1 1) rotate(0) translate(4 686)">
<title>prolog</title>
<polygon fill="white" stroke="transparent" points="-4,4 -4,-686 1322,-686 1322,4 -4,4"/>
<g id="clust1" class="cluster">
<title>cluster_leftcol</title>
<polygon fill="none" stroke="gray" points="8,-318 8,-390 312,-390 312,-318 8,-318"/>
<text text-anchor="start" x="146.663" y="-378" font-family="Helvetica,sans-Serif" font-style="italic" font-size="10.00">ebuild</text>
</g>
<g id="clust2" class="cluster">
<title>cluster_midcol</title>
<polygon fill="none" stroke="gray" points="396,-181 396,-645 922,-645 922,-181 396,-181"/>
<text text-anchor="start" x="627.875" y="-633" font-family="Helvetica,sans-Serif" font-style="italic" font-size="10.00">dependencies</text>
</g>
<g id="clust4" class="cluster">
<title>cluster_compileandrun</title>
<polygon fill="#eeeeee" stroke="gray" points="662,-351 662,-617 914,-617 914,-351 662,-351"/>
<text text-anchor="start" x="752.437" y="-605" font-family="Helvetica,sans-Serif" font-style="italic" font-size="10.00">compile and run</text>
</g>
<g id="clust7" class="cluster">
<title>cluster_run</title>
<polygon fill="#eeeeee" stroke="gray" points="404,-189 404,-331 914,-331 914,-189 404,-189"/>
<text text-anchor="start" x="651.777" y="-319" font-family="Helvetica,sans-Serif" font-style="italic" font-size="10.00">run</text>
</g>
<g id="clust10" class="cluster">
<title>cluster_choices</title>
<polygon fill="none" stroke="gray" points="1006,-8 1006,-674 1310,-674 1310,-8 1006,-8"/>
<text text-anchor="start" x="1133.82" y="-662" font-family="Helvetica,sans-Serif" font-style="italic" font-size="10.00">candidates</text>
</g>
<!-- id -->
<g id="node1" class="node">
<title>id</title>
<g id="a_node1"><a xlink:href="../net-analyzer/arpwatch-2.1.15-r10.svg" xlink:title="net&#45;analyzer/arpwatch&#45;2.1.15&#45;r10">
<ellipse fill="none" stroke="red" cx="160" cy="-344" rx="144" ry="18"/>
<text text-anchor="middle" x="160" y="-341" font-family="Helvetica,sans-Serif" font-size="10.00">net&#45;analyzer/arpwatch&#45;2.1.15&#45;r10</text>
</a>
</g>
</g>
<!-- dependency398709 -->
<g id="node2" class="node">
<title>dependency398709</title>
<polygon fill="none" stroke="blue" points="678,-487 678,-585 783,-585 783,-487 678,-487"/>
<text text-anchor="start" x="708.823" y="-533" font-family="Helvetica,sans-Serif" font-size="10.00">pack_dep</text>
<polygon fill="none" stroke="blue" points="783,-563 783,-585 893,-585 893,-563 783,-563"/>
<text text-anchor="start" x="832.441" y="-571" font-family="Helvetica,sans-Serif" font-size="10.00">no</text>
<polygon fill="none" stroke="blue" points="783,-541 783,-563 893,-563 893,-541 783,-541"/>
<text text-anchor="start" x="821.889" y="-549" font-family="Helvetica,sans-Serif" font-size="10.00">net&#45;libs</text>
<polygon fill="none" stroke="blue" points="783,-519 783,-541 893,-541 893,-519 783,-519"/>
<text text-anchor="start" x="822.163" y="-527" font-family="Helvetica,sans-Serif" font-size="10.00">libpcap</text>
<polygon fill="none" stroke="blue" points="783,-497 783,-519 893,-519 893,-497 783,-497"/>
<text text-anchor="start" x="826.882" y="-505" font-family="Helvetica,sans-Serif" font-size="10.00">none</text>
<polygon fill="none" stroke="blue" points="783,-487 783,-497 893,-497 893,-487 783,-487"/>
</g>
<!-- id&#45;&gt;dependency398709 -->
<g id="edge1" class="edge">
<title>id:e&#45;&gt;dependency398709:w</title>
<path fill="none" stroke="black" d="M487,-474C564.918,-488.92 581.763,-529.187 651.585,-535.235"/>
<ellipse fill="none" stroke="black" cx="666.003" cy="-535.834" rx="4" ry="4"/>
<polygon fill="black" stroke="black" points="662.007,-535.668 651.829,-539.749 657.011,-535.461 652.015,-535.253 652.015,-535.253 652.015,-535.253 657.011,-535.461 652.202,-530.757 662.007,-535.668 662.007,-535.668"/>
</g>
<!-- dependency398710 -->
<g id="node3" class="node">
<title>dependency398710</title>
<polygon fill="none" stroke="blue" points="678,-363 678,-461 783,-461 783,-363 678,-363"/>
<text text-anchor="start" x="708.823" y="-409" font-family="Helvetica,sans-Serif" font-size="10.00">pack_dep</text>
<polygon fill="none" stroke="blue" points="783,-439 783,-461 893,-461 893,-439 783,-439"/>
<text text-anchor="start" x="832.441" y="-447" font-family="Helvetica,sans-Serif" font-size="10.00">no</text>
<polygon fill="none" stroke="blue" points="783,-417 783,-439 893,-439 893,-417 783,-417"/>
<text text-anchor="start" x="821.337" y="-425" font-family="Helvetica,sans-Serif" font-size="10.00">sys&#45;libs</text>
<polygon fill="none" stroke="blue" points="783,-395 783,-417 893,-417 893,-395 783,-395"/>
<text text-anchor="start" x="820.497" y="-403" font-family="Helvetica,sans-Serif" font-size="10.00">ncurses</text>
<polygon fill="none" stroke="blue" points="783,-373 783,-395 893,-395 893,-373 783,-373"/>
<text text-anchor="start" x="826.882" y="-381" font-family="Helvetica,sans-Serif" font-size="10.00">none</text>
<polygon fill="none" stroke="blue" points="783,-363 783,-373 893,-373 893,-363 783,-363"/>
</g>
<!-- id&#45;&gt;dependency398710 -->
<g id="edge2" class="edge">
<title>id:e&#45;&gt;dependency398710:w</title>
<path fill="none" stroke="black" d="M487,-474C565.082,-488.952 581.834,-423.081 652.028,-413.221"/>
<ellipse fill="none" stroke="black" cx="666.009" cy="-412.271" rx="4" ry="4"/>
<polygon fill="black" stroke="black" points="662.018,-412.542 652.346,-417.71 657.03,-412.881 652.041,-413.22 652.041,-413.22 652.041,-413.22 657.03,-412.881 651.736,-408.731 662.018,-412.542 662.018,-412.542"/>
<path fill="none" stroke="black" d="M304,-344C403.767,-344 389.014,-455.237 487,-474"/>
</g>
<!-- dependency398711 -->
<g id="node4" class="node">
<title>dependency398711</title>
<polygon fill="none" stroke="red" points="420,-241 420,-285 511,-285 511,-241 420,-241"/>
<text text-anchor="start" x="430.767" y="-260" font-family="Helvetica,sans-Serif" font-size="10.00">use_conditional</text>
<polygon fill="none" stroke="red" points="511,-263 511,-285 554,-285 554,-263 511,-263"/>
<text text-anchor="start" x="515.553" y="-271" font-family="Helvetica,sans-Serif" font-size="10.00">positive</text>
<polygon fill="none" stroke="red" points="511,-241 511,-263 554,-263 554,-241 511,-241"/>
<text text-anchor="start" x="516.942" y="-249" font-family="Helvetica,sans-Serif" font-size="10.00">selinux</text>
</g>
<!-- id&#45;&gt;dependency398711 -->
<g id="edge4" class="edge">
<title>id:e&#45;&gt;dependency398711:w</title>
<path fill="none" stroke="black" d="M304,-344C361.07,-344 353,-270.717 403.709,-263.56"/>
<ellipse fill="none" stroke="black" cx="408.009" cy="-263.27" rx="4" ry="4"/>
</g>
<!-- choice110101116451081059811547108105981129997112454946564649 -->
<g id="node6" class="node">
<title>choice110101116451081059811547108105981129997112454946564649</title>
<g id="a_node6"><a xlink:href="../net-libs/libpcap-1.8.1.svg" xlink:title="net&#45;libs/libpcap&#45;1.8.1">
<ellipse fill="none" stroke="red" cx="1158" cy="-628" rx="144" ry="18"/>
<text text-anchor="middle" x="1158" y="-625" font-family="Helvetica,sans-Serif" font-size="10.00">net&#45;libs/libpcap&#45;1.8.1</text>
</a>
</g>
</g>
<!-- dependency398709&#45;&gt;choice110101116451081059811547108105981129997112454946564649 -->
<g id="edge5" class="edge">
<title>dependency398709:e&#45;&gt;choice110101116451081059811547108105981129997112454946564649:w</title>
<path fill="none" stroke="black" stroke-dasharray="1,5" d="M906,-536C965.36,-536 952.789,-617.535 1003.72,-627.089"/>
<polygon fill="black" stroke="black" points="1014,-628 1003.64,-631.6 1009.02,-627.559 1004.04,-627.118 1004.04,-627.118 1004.04,-627.118 1009.02,-627.559 1004.44,-622.635 1014,-628 1014,-628"/>
</g>
<!-- choice1101011164510810598115471081059811299971124549465646494511449 -->
<g id="node7" class="node">
<title>choice1101011164510810598115471081059811299971124549465646494511449</title>
<g id="a_node7"><a xlink:href="../net-libs/libpcap-1.8.1-r1.svg" xlink:title="net&#45;libs/libpcap&#45;1.8.1&#45;r1">
<ellipse fill="none" stroke="red" cx="1158" cy="-574" rx="144" ry="18"/>
<text text-anchor="middle" x="1158" y="-571" font-family="Helvetica,sans-Serif" font-size="10.00">net&#45;libs/libpcap&#45;1.8.1&#45;r1</text>
</a>
</g>
</g>
<!-- dependency398709&#45;&gt;choice1101011164510810598115471081059811299971124549465646494511449 -->
<g id="edge6" class="edge">
<title>dependency398709:e&#45;&gt;choice1101011164510810598115471081059811299971124549465646494511449:w</title>
<path fill="none" stroke="black" stroke-dasharray="1,5" d="M906,-536C953.307,-536 962.018,-568.844 1003.9,-573.463"/>
<polygon fill="black" stroke="black" points="1014,-574 1003.78,-577.963 1009.01,-573.734 1004.01,-573.469 1004.01,-573.469 1004.01,-573.469 1009.01,-573.734 1004.25,-568.975 1014,-574 1014,-574"/>
</g>
<!-- choice1101011164510810598115471081059811299971124557575757 -->
<g id="node8" class="node">
<title>choice1101011164510810598115471081059811299971124557575757</title>
<g id="a_node8"><a xlink:href="../net-libs/libpcap-9999.svg" xlink:title="net&#45;libs/libpcap&#45;9999">
<ellipse fill="none" stroke="red" cx="1158" cy="-520" rx="144" ry="18"/>
<text text-anchor="middle" x="1158" y="-517" font-family="Helvetica,sans-Serif" font-size="10.00">net&#45;libs/libpcap&#45;9999</text>
</a>
</g>
</g>
<!-- dependency398709&#45;&gt;choice1101011164510810598115471081059811299971124557575757 -->
<g id="edge7" class="edge">
<title>dependency398709:e&#45;&gt;choice1101011164510810598115471081059811299971124557575757:w</title>
<path fill="none" stroke="black" stroke-dasharray="1,5" d="M906,-536C950.923,-536 963.643,-522.287 1003.79,-520.251"/>
<polygon fill="black" stroke="black" points="1014,-520 1004.11,-524.745 1009,-520.123 1004,-520.246 1004,-520.246 1004,-520.246 1009,-520.123 1003.89,-515.747 1014,-520 1014,-520"/>
</g>
<!-- choice115121115451081059811547110991171141151011154553465745114494849 -->
<g id="node9" class="node">
<title>choice115121115451081059811547110991171141151011154553465745114494849</title>
<g id="a_node9"><a xlink:href="../sys-libs/ncurses-5.9-r101.svg" xlink:title="sys&#45;libs/ncurses&#45;5.9&#45;r101">
<ellipse fill="none" stroke="red" cx="1158" cy="-466" rx="144" ry="18"/>
<text text-anchor="middle" x="1158" y="-463" font-family="Helvetica,sans-Serif" font-size="10.00">sys&#45;libs/ncurses&#45;5.9&#45;r101</text>
</a>
</g>
</g>
<!-- dependency398710&#45;&gt;choice115121115451081059811547110991171141151011154553465745114494849 -->
<g id="edge8" class="edge">
<title>dependency398710:e&#45;&gt;choice115121115451081059811547110991171141151011154553465745114494849:w</title>
<path fill="none" stroke="black" stroke-dasharray="1,5" d="M906,-412C956.102,-412 960.012,-459.066 1003.98,-465.317"/>
<polygon fill="black" stroke="black" points="1014,-466 1003.72,-469.81 1009.01,-465.66 1004.02,-465.32 1004.02,-465.32 1004.02,-465.32 1009.01,-465.66 1004.33,-460.831 1014,-466 1014,-466"/>
</g>
<!-- choice11512111545108105981154711099117114115101115455446484511449 -->
<g id="node10" class="node">
<title>choice11512111545108105981154711099117114115101115455446484511449</title>
<g id="a_node10"><a xlink:href="../sys-libs/ncurses-6.0-r1.svg" xlink:title="sys&#45;libs/ncurses&#45;6.0&#45;r1">
<ellipse fill="none" stroke="red" cx="1158" cy="-412" rx="144" ry="18"/>
<text text-anchor="middle" x="1158" y="-409" font-family="Helvetica,sans-Serif" font-size="10.00">sys&#45;libs/ncurses&#45;6.0&#45;r1</text>
</a>
</g>
</g>
<!-- dependency398710&#45;&gt;choice11512111545108105981154711099117114115101115455446484511449 -->
<g id="edge9" class="edge">
<title>dependency398710:e&#45;&gt;choice11512111545108105981154711099117114115101115455446484511449:w</title>
<path fill="none" stroke="black" stroke-dasharray="1,5" d="M906,-412C950.438,-412 964.02,-412 1003.88,-412"/>
<polygon fill="black" stroke="black" points="1014,-412 1004,-416.5 1009,-412 1004,-412 1004,-412 1004,-412 1009,-412 1004,-407.5 1014,-412 1014,-412"/>
</g>
<!-- dependency398712 -->
<g id="node5" class="node">
<title>dependency398712</title>
<polygon fill="none" stroke="blue" points="678,-201 678,-299 783,-299 783,-201 678,-201"/>
<text text-anchor="start" x="708.823" y="-247" font-family="Helvetica,sans-Serif" font-size="10.00">pack_dep</text>
<polygon fill="none" stroke="blue" points="783,-277 783,-299 893,-299 893,-277 783,-277"/>
<text text-anchor="start" x="832.441" y="-285" font-family="Helvetica,sans-Serif" font-size="10.00">no</text>
<polygon fill="none" stroke="blue" points="783,-255 783,-277 893,-277 893,-255 783,-255"/>
<text text-anchor="start" x="815.778" y="-263" font-family="Helvetica,sans-Serif" font-size="10.00">sec&#45;policy</text>
<polygon fill="none" stroke="blue" points="783,-233 783,-255 893,-255 893,-233 783,-233"/>
<text text-anchor="start" x="800.496" y="-241" font-family="Helvetica,sans-Serif" font-size="10.00">selinux&#45;arpwatch</text>
<polygon fill="none" stroke="blue" points="783,-211 783,-233 893,-233 893,-211 783,-211"/>
<text text-anchor="start" x="826.882" y="-219" font-family="Helvetica,sans-Serif" font-size="10.00">none</text>
<polygon fill="none" stroke="blue" points="783,-201 783,-211 893,-211 893,-201 783,-201"/>
</g>
<!-- dependency398711&#45;&gt;dependency398712 -->
<g id="edge3" class="edge">
<title>dependency398711:e&#45;&gt;dependency398712:w</title>
<path fill="none" stroke="black" stroke-dasharray="5,2" d="M562,-263C606.758,-263 619.771,-251.858 659.817,-250.204"/>
<polygon fill="black" stroke="black" points="670,-250 660.092,-254.7 665.001,-250.1 660.002,-250.201 660.002,-250.201 660.002,-250.201 665.001,-250.1 659.912,-245.701 670,-250 670,-250"/>
</g>
<!-- choice115101994511211110810599121471151011081051101171204597114112119971169910445504650484955485048524511449 -->
<g id="node11" class="node">
<title>choice115101994511211110810599121471151011081051101171204597114112119971169910445504650484955485048524511449</title>
<g id="a_node11"><a xlink:href="../sec-policy/selinux-arpwatch-2.20170204-r1.svg" xlink:title="sec&#45;policy/selinux&#45;arpwatch&#45;2.20170204&#45;r1">
<ellipse fill="none" stroke="red" cx="1158" cy="-358" rx="144" ry="18"/>
<text text-anchor="middle" x="1158" y="-355" font-family="Helvetica,sans-Serif" font-size="10.00">sec&#45;policy/selinux&#45;arpwatch&#45;2.20170204&#45;r1</text>
</a>
</g>
</g>
<!-- dependency398712&#45;&gt;choice115101994511211110810599121471151011081051101171204597114112119971169910445504650484955485048524511449 -->
<g id="edge10" class="edge">
<title>dependency398712:e&#45;&gt;choice115101994511211110810599121471151011081051101171204597114112119971169910445504650484955485048524511449:w</title>
<path fill="none" stroke="black" stroke-dasharray="1,5" d="M906,-250C970.303,-250 948.78,-346.91 1004.03,-357.131"/>
<polygon fill="black" stroke="black" points="1014,-358 1003.65,-361.614 1009.02,-357.566 1004.04,-357.131 1004.04,-357.131 1004.04,-357.131 1009.02,-357.566 1004.43,-352.648 1014,-358 1014,-358"/>
</g>
<!-- choice115101994511211110810599121471151011081051101171204597114112119971169910445504650484955485048524511450 -->
<g id="node12" class="node">
<title>choice115101994511211110810599121471151011081051101171204597114112119971169910445504650484955485048524511450</title>
<g id="a_node12"><a xlink:href="../sec-policy/selinux-arpwatch-2.20170204-r2.svg" xlink:title="sec&#45;policy/selinux&#45;arpwatch&#45;2.20170204&#45;r2">
<ellipse fill="none" stroke="red" cx="1158" cy="-304" rx="144" ry="18"/>
<text text-anchor="middle" x="1158" y="-301" font-family="Helvetica,sans-Serif" font-size="10.00">sec&#45;policy/selinux&#45;arpwatch&#45;2.20170204&#45;r2</text>
</a>
</g>
</g>
<!-- dependency398712&#45;&gt;choice115101994511211110810599121471151011081051101171204597114112119971169910445504650484955485048524511450 -->
<g id="edge11" class="edge">
<title>dependency398712:e&#45;&gt;choice115101994511211110810599121471151011081051101171204597114112119971169910445504650484955485048524511450:w</title>
<path fill="none" stroke="black" stroke-dasharray="1,5" d="M906,-250C956.102,-250 960.012,-297.066 1003.98,-303.317"/>
<polygon fill="black" stroke="black" points="1014,-304 1003.72,-307.81 1009.01,-303.66 1004.02,-303.32 1004.02,-303.32 1004.02,-303.32 1009.01,-303.66 1004.33,-298.831 1014,-304 1014,-304"/>
</g>
<!-- choice115101994511211110810599121471151011081051101171204597114112119971169910445504650484955485048524511451 -->
<g id="node13" class="node">
<title>choice115101994511211110810599121471151011081051101171204597114112119971169910445504650484955485048524511451</title>
<g id="a_node13"><a xlink:href="../sec-policy/selinux-arpwatch-2.20170204-r3.svg" xlink:title="sec&#45;policy/selinux&#45;arpwatch&#45;2.20170204&#45;r3">
<ellipse fill="none" stroke="red" cx="1158" cy="-250" rx="144" ry="18"/>
<text text-anchor="middle" x="1158" y="-247" font-family="Helvetica,sans-Serif" font-size="10.00">sec&#45;policy/selinux&#45;arpwatch&#45;2.20170204&#45;r3</text>
</a>
</g>
</g>
<!-- dependency398712&#45;&gt;choice115101994511211110810599121471151011081051101171204597114112119971169910445504650484955485048524511451 -->
<g id="edge12" class="edge">
<title>dependency398712:e&#45;&gt;choice115101994511211110810599121471151011081051101171204597114112119971169910445504650484955485048524511451:w</title>
<path fill="none" stroke="black" stroke-dasharray="1,5" d="M906,-250C950.438,-250 964.02,-250 1003.88,-250"/>
<polygon fill="black" stroke="black" points="1014,-250 1004,-254.5 1009,-250 1004,-250 1004,-250 1004,-250 1009,-250 1004,-245.5 1014,-250 1014,-250"/>
</g>
<!-- choice115101994511211110810599121471151011081051101171204597114112119971169910445504650484955485048524511452 -->
<g id="node14" class="node">
<title>choice115101994511211110810599121471151011081051101171204597114112119971169910445504650484955485048524511452</title>
<g id="a_node14"><a xlink:href="../sec-policy/selinux-arpwatch-2.20170204-r4.svg" xlink:title="sec&#45;policy/selinux&#45;arpwatch&#45;2.20170204&#45;r4">
<ellipse fill="none" stroke="red" cx="1158" cy="-196" rx="144" ry="18"/>
<text text-anchor="middle" x="1158" y="-193" font-family="Helvetica,sans-Serif" font-size="10.00">sec&#45;policy/selinux&#45;arpwatch&#45;2.20170204&#45;r4</text>
</a>
</g>
</g>
<!-- dependency398712&#45;&gt;choice115101994511211110810599121471151011081051101171204597114112119971169910445504650484955485048524511452 -->
<g id="edge13" class="edge">
<title>dependency398712:e&#45;&gt;choice115101994511211110810599121471151011081051101171204597114112119971169910445504650484955485048524511452:w</title>
<path fill="none" stroke="black" stroke-dasharray="1,5" d="M906,-250C956.102,-250 960.012,-202.934 1003.98,-196.683"/>
<polygon fill="black" stroke="black" points="1014,-196 1004.33,-201.169 1009.01,-196.34 1004.02,-196.68 1004.02,-196.68 1004.02,-196.68 1009.01,-196.34 1003.72,-192.19 1014,-196 1014,-196"/>
</g>
<!-- choice115101994511211110810599121471151011081051101171204597114112119971169910445504650484955485648534511450 -->
<g id="node15" class="node">
<title>choice115101994511211110810599121471151011081051101171204597114112119971169910445504650484955485648534511450</title>
<g id="a_node15"><a xlink:href="../sec-policy/selinux-arpwatch-2.20170805-r2.svg" xlink:title="sec&#45;policy/selinux&#45;arpwatch&#45;2.20170805&#45;r2">
<ellipse fill="none" stroke="red" cx="1158" cy="-142" rx="144" ry="18"/>
<text text-anchor="middle" x="1158" y="-139" font-family="Helvetica,sans-Serif" font-size="10.00">sec&#45;policy/selinux&#45;arpwatch&#45;2.20170805&#45;r2</text>
</a>
</g>
</g>
<!-- dependency398712&#45;&gt;choice115101994511211110810599121471151011081051101171204597114112119971169910445504650484955485648534511450 -->
<g id="edge14" class="edge">
<title>dependency398712:e&#45;&gt;choice115101994511211110810599121471151011081051101171204597114112119971169910445504650484955485648534511450:w</title>
<path fill="none" stroke="black" stroke-dasharray="1,5" d="M906,-250C970.303,-250 948.78,-153.09 1004.03,-142.869"/>
<polygon fill="black" stroke="black" points="1014,-142 1004.43,-147.352 1009.02,-142.434 1004.04,-142.869 1004.04,-142.869 1004.04,-142.869 1009.02,-142.434 1003.65,-138.386 1014,-142 1014,-142"/>
</g>
<!-- choice115101994511211110810599121471151011081051101171204597114112119971169910445504650484955485648534511451 -->
<g id="node16" class="node">
<title>choice115101994511211110810599121471151011081051101171204597114112119971169910445504650484955485648534511451</title>
<g id="a_node16"><a xlink:href="../sec-policy/selinux-arpwatch-2.20170805-r3.svg" xlink:title="sec&#45;policy/selinux&#45;arpwatch&#45;2.20170805&#45;r3">
<ellipse fill="none" stroke="red" cx="1158" cy="-88" rx="144" ry="18"/>
<text text-anchor="middle" x="1158" y="-85" font-family="Helvetica,sans-Serif" font-size="10.00">sec&#45;policy/selinux&#45;arpwatch&#45;2.20170805&#45;r3</text>
</a>
</g>
</g>
<!-- dependency398712&#45;&gt;choice115101994511211110810599121471151011081051101171204597114112119971169910445504650484955485648534511451 -->
<g id="edge15" class="edge">
<title>dependency398712:e&#45;&gt;choice115101994511211110810599121471151011081051101171204597114112119971169910445504650484955485648534511451:w</title>
<path fill="none" stroke="black" stroke-dasharray="1,5" d="M906,-250C988.815,-250 932.779,-101.623 1003.66,-88.8716"/>
<polygon fill="black" stroke="black" points="1014,-88 1004.41,-93.3242 1009.02,-88.4201 1004.04,-88.8401 1004.04,-88.8401 1004.04,-88.8401 1009.02,-88.4201 1003.66,-84.356 1014,-88 1014,-88"/>
</g>
<!-- choice11510199451121111081059912147115101108105110117120459711411211997116991044557575757 -->
<g id="node17" class="node">
<title>choice11510199451121111081059912147115101108105110117120459711411211997116991044557575757</title>
<g id="a_node17"><a xlink:href="../sec-policy/selinux-arpwatch-9999.svg" xlink:title="sec&#45;policy/selinux&#45;arpwatch&#45;9999">
<ellipse fill="none" stroke="red" cx="1158" cy="-34" rx="144" ry="18"/>
<text text-anchor="middle" x="1158" y="-31" font-family="Helvetica,sans-Serif" font-size="10.00">sec&#45;policy/selinux&#45;arpwatch&#45;9999</text>
</a>
</g>
</g>
<!-- dependency398712&#45;&gt;choice11510199451121111081059912147115101108105110117120459711411211997116991044557575757 -->
<g id="edge16" class="edge">
<title>dependency398712:e&#45;&gt;choice11510199451121111081059912147115101108105110117120459711411211997116991044557575757:w</title>
<path fill="none" stroke="black" stroke-dasharray="1,5" d="M906,-250C1009.77,-250 913.516,-48.1056 1004,-34.6986"/>
<polygon fill="black" stroke="black" points="1014,-34 1004.34,-39.1861 1009.01,-34.3485 1004.02,-34.697 1004.02,-34.697 1004.02,-34.697 1009.01,-34.3485 1003.71,-30.208 1014,-34 1014,-34"/>
</g>
</g>
</svg>
