<?xml version="1.0" encoding="UTF-8" standalone="no"?>
<!DOCTYPE svg PUBLIC "-//W3C//DTD SVG 1.1//EN"
 "http://www.w3.org/Graphics/SVG/1.1/DTD/svg11.dtd">
<!-- Generated by graphviz version 9.0.0 (20230911.1827)
 -->
<!-- Title: prolog Pages: 1 -->
<svg width="1076pt" height="1020pt"
 viewBox="0.00 0.00 1076.00 1020.00" xmlns="http://www.w3.org/2000/svg" xmlns:xlink="http://www.w3.org/1999/xlink">
<g id="graph0" class="graph" transform="scale(1 1) rotate(0) translate(4 1016)">
<title>prolog</title>
<polygon fill="white" stroke="none" points="-4,4 -4,-1016 1072,-1016 1072,4 -4,4"/>
<g id="clust2" class="cluster">
<title>cluster_midcol</title>
<polygon fill="none" stroke="gray" points="8,-8 8,-1004 672,-1004 672,-8 8,-8"/>
<text text-anchor="start" x="310" y="-991.5" font-family="Helvetica,sans-Serif" font-style="italic" font-size="10.00">dependencies</text>
</g>
<g id="clust3" class="cluster">
<title>cluster_compile</title>
<polygon fill="#eeeeee" stroke="gray" points="16,-16 16,-427 664,-427 664,-16 16,-16"/>
<text text-anchor="start" x="323.12" y="-414.5" font-family="Helvetica,sans-Serif" font-style="italic" font-size="10.00">compile</text>
</g>
<g id="clust8" class="cluster">
<title>cluster_run</title>
<polygon fill="#eeeeee" stroke="gray" points="412,-435 412,-977 664,-977 664,-435 412,-435"/>
<text text-anchor="start" x="531.25" y="-964.5" font-family="Helvetica,sans-Serif" font-style="italic" font-size="10.00">run</text>
</g>
<g id="clust13" class="cluster">
<title>cluster_choices</title>
<polygon fill="none" stroke="gray" points="756,-10 756,-999 1060,-999 1060,-10 756,-10"/>
<text text-anchor="start" x="884.38" y="-986.5" font-family="Helvetica,sans-Serif" font-style="italic" font-size="10.00">candidates</text>
</g>
<!-- id -->
<g id="node1" class="node">
<title>id</title>
<g id="a_node1"><a xlink:href="../net-analyzer/cacti-spine-9999.svg" xlink:title="portage://net&#45;analyzer/cacti&#45;spine&#45;9999">
<ellipse fill="none" stroke="red" cx="168" cy="-382" rx="144" ry="18"/>
<text text-anchor="middle" x="168" y="-378.12" font-family="Helvetica,sans-Serif" font-size="10.00">portage://net&#45;analyzer/cacti&#45;spine&#45;9999</text>
</a>
</g>
</g>
<!-- dependency328722 -->
<g id="node2" class="node">
<title>dependency328722</title>
<polygon fill="none" stroke="blue" points="428,-28.5 428,-133.5 532,-133.5 532,-28.5 428,-28.5"/>
<text text-anchor="start" x="459" y="-77.12" font-family="Helvetica,sans-Serif" font-size="10.00">pack_dep</text>
<polygon fill="none" stroke="blue" points="532,-112.5 532,-133.5 642,-133.5 642,-112.5 532,-112.5"/>
<text text-anchor="start" x="581.75" y="-119" font-family="Helvetica,sans-Serif" font-size="10.00">no</text>
<polygon fill="none" stroke="blue" points="532,-91.5 532,-112.5 642,-112.5 642,-91.5 532,-91.5"/>
<text text-anchor="start" x="572.38" y="-98" font-family="Helvetica,sans-Serif" font-size="10.00">dev&#45;db</text>
<polygon fill="none" stroke="blue" points="532,-70.5 532,-91.5 642,-91.5 642,-70.5 532,-70.5"/>
<text text-anchor="start" x="546.88" y="-77" font-family="Helvetica,sans-Serif" font-size="10.00">mysql&#45;connector&#45;c</text>
<polygon fill="none" stroke="blue" points="532,-49.5 532,-70.5 642,-70.5 642,-49.5 532,-49.5"/>
<text text-anchor="start" x="576.5" y="-56" font-family="Helvetica,sans-Serif" font-size="10.00">none</text>
<polygon fill="none" stroke="blue" points="532,-28.5 532,-49.5 642,-49.5 642,-28.5 532,-28.5"/>
<text text-anchor="start" x="581" y="-35" font-family="Helvetica,sans-Serif" font-size="10.00">[,,]</text>
</g>
<!-- id&#45;&gt;dependency328722 -->
<g id="edge1" class="edge">
<title>id:e&#45;&gt;dependency328722:w</title>
<path fill="none" stroke="black" d="M312,-382C450.1,-382 286.46,-97.24 408.06,-81.66"/>
<polygon fill="black" stroke="black" points="417.78,-81.07 408.07,-86.17 414.01,-81.3 407.8,-81.68 407.8,-81.68 407.8,-81.68 414.01,-81.3 407.53,-77.19 417.78,-81.07"/>
</g>
<!-- dependency328723 -->
<g id="node3" class="node">
<title>dependency328723</title>
<polygon fill="none" stroke="blue" points="428,-290.5 428,-395.5 532,-395.5 532,-290.5 428,-290.5"/>
<text text-anchor="start" x="459" y="-339.12" font-family="Helvetica,sans-Serif" font-size="10.00">pack_dep</text>
<polygon fill="none" stroke="blue" points="532,-374.5 532,-395.5 642,-395.5 642,-374.5 532,-374.5"/>
<text text-anchor="start" x="581.75" y="-381" font-family="Helvetica,sans-Serif" font-size="10.00">no</text>
<polygon fill="none" stroke="blue" points="532,-353.5 532,-374.5 642,-374.5 642,-353.5 532,-353.5"/>
<text text-anchor="start" x="570.12" y="-360" font-family="Helvetica,sans-Serif" font-size="10.00">dev&#45;libs</text>
<polygon fill="none" stroke="blue" points="532,-332.5 532,-353.5 642,-353.5 642,-332.5 532,-332.5"/>
<text text-anchor="start" x="570.12" y="-339" font-family="Helvetica,sans-Serif" font-size="10.00">openssl</text>
<polygon fill="none" stroke="blue" points="532,-311.5 532,-332.5 642,-332.5 642,-311.5 532,-311.5"/>
<text text-anchor="start" x="576.5" y="-318" font-family="Helvetica,sans-Serif" font-size="10.00">none</text>
<polygon fill="none" stroke="blue" points="532,-290.5 532,-311.5 642,-311.5 642,-290.5 532,-290.5"/>
<text text-anchor="start" x="581" y="-297" font-family="Helvetica,sans-Serif" font-size="10.00">[,,]</text>
</g>
<!-- id&#45;&gt;dependency328723 -->
<g id="edge2" class="edge">
<title>id:e&#45;&gt;dependency328723:w</title>
<path fill="none" stroke="black" d="M312,-382C358.66,-382 367.21,-348.86 407.92,-343.68"/>
<polygon fill="black" stroke="black" points="417.78,-343.07 408.08,-348.18 414.01,-343.3 407.8,-343.68 407.8,-343.68 407.8,-343.68 414.01,-343.3 407.53,-339.19 417.78,-343.07"/>
</g>
<!-- dependency328724 -->
<g id="node4" class="node">
<title>dependency328724</title>
<polygon fill="none" stroke="blue" points="428,-159.5 428,-264.5 532,-264.5 532,-159.5 428,-159.5"/>
<text text-anchor="start" x="459" y="-208.12" font-family="Helvetica,sans-Serif" font-size="10.00">pack_dep</text>
<polygon fill="none" stroke="blue" points="532,-243.5 532,-264.5 642,-264.5 642,-243.5 532,-243.5"/>
<text text-anchor="start" x="581.75" y="-250" font-family="Helvetica,sans-Serif" font-size="10.00">no</text>
<polygon fill="none" stroke="blue" points="532,-222.5 532,-243.5 642,-243.5 642,-222.5 532,-222.5"/>
<text text-anchor="start" x="560.38" y="-229" font-family="Helvetica,sans-Serif" font-size="10.00">net&#45;analyzer</text>
<polygon fill="none" stroke="blue" points="532,-201.5 532,-222.5 642,-222.5 642,-201.5 532,-201.5"/>
<text text-anchor="start" x="566.75" y="-208" font-family="Helvetica,sans-Serif" font-size="10.00">net&#45;snmp</text>
<polygon fill="none" stroke="blue" points="532,-180.5 532,-201.5 642,-201.5 642,-180.5 532,-180.5"/>
<text text-anchor="start" x="576.5" y="-187" font-family="Helvetica,sans-Serif" font-size="10.00">none</text>
<polygon fill="none" stroke="blue" points="532,-159.5 532,-180.5 642,-180.5 642,-159.5 532,-159.5"/>
<text text-anchor="start" x="581" y="-166" font-family="Helvetica,sans-Serif" font-size="10.00">[,,]</text>
</g>
<!-- id&#45;&gt;dependency328724 -->
<g id="edge3" class="edge">
<title>id:e&#45;&gt;dependency328724:w</title>
<path fill="none" stroke="black" d="M312,-382C397.27,-382 335.83,-226.93 407.91,-213"/>
<polygon fill="black" stroke="black" points="417.79,-212.11 408.23,-217.49 414.02,-212.45 407.83,-213.01 407.83,-213.01 407.83,-213.01 414.02,-212.45 407.42,-208.52 417.79,-212.11"/>
</g>
<!-- dependency328725 -->
<g id="node5" class="node">
<title>dependency328725</title>
<polygon fill="none" stroke="blue" points="428,-447.5 428,-552.5 532,-552.5 532,-447.5 428,-447.5"/>
<text text-anchor="start" x="459" y="-496.12" font-family="Helvetica,sans-Serif" font-size="10.00">pack_dep</text>
<polygon fill="none" stroke="blue" points="532,-531.5 532,-552.5 642,-552.5 642,-531.5 532,-531.5"/>
<text text-anchor="start" x="581.75" y="-538" font-family="Helvetica,sans-Serif" font-size="10.00">no</text>
<polygon fill="none" stroke="blue" points="532,-510.5 532,-531.5 642,-531.5 642,-510.5 532,-510.5"/>
<text text-anchor="start" x="572.38" y="-517" font-family="Helvetica,sans-Serif" font-size="10.00">dev&#45;db</text>
<polygon fill="none" stroke="blue" points="532,-489.5 532,-510.5 642,-510.5 642,-489.5 532,-489.5"/>
<text text-anchor="start" x="546.88" y="-496" font-family="Helvetica,sans-Serif" font-size="10.00">mysql&#45;connector&#45;c</text>
<polygon fill="none" stroke="blue" points="532,-468.5 532,-489.5 642,-489.5 642,-468.5 532,-468.5"/>
<text text-anchor="start" x="576.5" y="-475" font-family="Helvetica,sans-Serif" font-size="10.00">none</text>
<polygon fill="none" stroke="blue" points="532,-447.5 532,-468.5 642,-468.5 642,-447.5 532,-447.5"/>
<text text-anchor="start" x="581" y="-454" font-family="Helvetica,sans-Serif" font-size="10.00">[,,]</text>
</g>
<!-- id&#45;&gt;dependency328725 -->
<g id="edge4" class="edge">
<title>id:e&#45;&gt;dependency328725:w</title>
<path fill="none" stroke="black" d="M312,-382C379.61,-382 351.1,-489.64 410.08,-499.31"/>
<ellipse fill="none" stroke="black" cx="414.51" cy="-499.65" rx="4" ry="4"/>
</g>
<!-- dependency328726 -->
<g id="node6" class="node">
<title>dependency328726</title>
<polygon fill="none" stroke="blue" points="428,-709.5 428,-814.5 532,-814.5 532,-709.5 428,-709.5"/>
<text text-anchor="start" x="459" y="-758.12" font-family="Helvetica,sans-Serif" font-size="10.00">pack_dep</text>
<polygon fill="none" stroke="blue" points="532,-793.5 532,-814.5 642,-814.5 642,-793.5 532,-793.5"/>
<text text-anchor="start" x="581.75" y="-800" font-family="Helvetica,sans-Serif" font-size="10.00">no</text>
<polygon fill="none" stroke="blue" points="532,-772.5 532,-793.5 642,-793.5 642,-772.5 532,-772.5"/>
<text text-anchor="start" x="570.12" y="-779" font-family="Helvetica,sans-Serif" font-size="10.00">dev&#45;libs</text>
<polygon fill="none" stroke="blue" points="532,-751.5 532,-772.5 642,-772.5 642,-751.5 532,-751.5"/>
<text text-anchor="start" x="570.12" y="-758" font-family="Helvetica,sans-Serif" font-size="10.00">openssl</text>
<polygon fill="none" stroke="blue" points="532,-730.5 532,-751.5 642,-751.5 642,-730.5 532,-730.5"/>
<text text-anchor="start" x="576.5" y="-737" font-family="Helvetica,sans-Serif" font-size="10.00">none</text>
<polygon fill="none" stroke="blue" points="532,-709.5 532,-730.5 642,-730.5 642,-709.5 532,-709.5"/>
<text text-anchor="start" x="581" y="-716" font-family="Helvetica,sans-Serif" font-size="10.00">[,,]</text>
</g>
<!-- id&#45;&gt;dependency328726 -->
<g id="edge5" class="edge">
<title>id:e&#45;&gt;dependency328726:w</title>
<path fill="none" stroke="black" d="M312,-382C484.37,-382 251.99,-748.76 410.13,-761.65"/>
<ellipse fill="none" stroke="black" cx="414.5" cy="-761.82" rx="4" ry="4"/>
</g>
<!-- dependency328727 -->
<g id="node7" class="node">
<title>dependency328727</title>
<polygon fill="none" stroke="blue" points="428,-840.5 428,-945.5 532,-945.5 532,-840.5 428,-840.5"/>
<text text-anchor="start" x="459" y="-889.12" font-family="Helvetica,sans-Serif" font-size="10.00">pack_dep</text>
<polygon fill="none" stroke="blue" points="532,-924.5 532,-945.5 642,-945.5 642,-924.5 532,-924.5"/>
<text text-anchor="start" x="581.75" y="-931" font-family="Helvetica,sans-Serif" font-size="10.00">no</text>
<polygon fill="none" stroke="blue" points="532,-903.5 532,-924.5 642,-924.5 642,-903.5 532,-903.5"/>
<text text-anchor="start" x="560.38" y="-910" font-family="Helvetica,sans-Serif" font-size="10.00">net&#45;analyzer</text>
<polygon fill="none" stroke="blue" points="532,-882.5 532,-903.5 642,-903.5 642,-882.5 532,-882.5"/>
<text text-anchor="start" x="576.5" y="-889" font-family="Helvetica,sans-Serif" font-size="10.00">cacti</text>
<polygon fill="none" stroke="blue" points="532,-861.5 532,-882.5 642,-882.5 642,-861.5 532,-861.5"/>
<text text-anchor="start" x="572" y="-868" font-family="Helvetica,sans-Serif" font-size="10.00">greater</text>
<polygon fill="none" stroke="blue" points="532,-840.5 532,-861.5 642,-861.5 642,-840.5 532,-840.5"/>
<text text-anchor="start" x="557.75" y="-847" font-family="Helvetica,sans-Serif" font-size="10.00">[0.8.8,,,0.8.8]</text>
</g>
<!-- id&#45;&gt;dependency328727 -->
<g id="edge6" class="edge">
<title>id:e&#45;&gt;dependency328727:w</title>
<path fill="none" stroke="black" d="M312,-382C540.98,-382 196.28,-879.62 410.13,-892.74"/>
<ellipse fill="none" stroke="black" cx="414.5" cy="-892.87" rx="4" ry="4"/>
</g>
<!-- dependency328728 -->
<g id="node8" class="node">
<title>dependency328728</title>
<polygon fill="none" stroke="blue" points="428,-578.5 428,-683.5 532,-683.5 532,-578.5 428,-578.5"/>
<text text-anchor="start" x="459" y="-627.12" font-family="Helvetica,sans-Serif" font-size="10.00">pack_dep</text>
<polygon fill="none" stroke="blue" points="532,-662.5 532,-683.5 642,-683.5 642,-662.5 532,-662.5"/>
<text text-anchor="start" x="581.75" y="-669" font-family="Helvetica,sans-Serif" font-size="10.00">no</text>
<polygon fill="none" stroke="blue" points="532,-641.5 532,-662.5 642,-662.5 642,-641.5 532,-641.5"/>
<text text-anchor="start" x="560.38" y="-648" font-family="Helvetica,sans-Serif" font-size="10.00">net&#45;analyzer</text>
<polygon fill="none" stroke="blue" points="532,-620.5 532,-641.5 642,-641.5 642,-620.5 532,-620.5"/>
<text text-anchor="start" x="566.75" y="-627" font-family="Helvetica,sans-Serif" font-size="10.00">net&#45;snmp</text>
<polygon fill="none" stroke="blue" points="532,-599.5 532,-620.5 642,-620.5 642,-599.5 532,-599.5"/>
<text text-anchor="start" x="576.5" y="-606" font-family="Helvetica,sans-Serif" font-size="10.00">none</text>
<polygon fill="none" stroke="blue" points="532,-578.5 532,-599.5 642,-599.5 642,-578.5 532,-578.5"/>
<text text-anchor="start" x="581" y="-585" font-family="Helvetica,sans-Serif" font-size="10.00">[,,]</text>
</g>
<!-- id&#45;&gt;dependency328728 -->
<g id="edge7" class="edge">
<title>id:e&#45;&gt;dependency328728:w</title>
<path fill="none" stroke="black" d="M312,-382C429.39,-382 305.18,-618.52 410.31,-630.53"/>
<ellipse fill="none" stroke="black" cx="414.51" cy="-630.76" rx="4" ry="4"/>
</g>
<!-- choice1001011184510098471091211151131084599111110110101991161111144599455646484651504511449 -->
<g id="node9" class="node">
<title>choice1001011184510098471091211151131084599111110110101991161111144599455646484651504511449</title>
<g id="a_node9"><a xlink:href="../dev-db/mysql-connector-c-8.0.32-r1.svg" xlink:title="portage://dev&#45;db/mysql&#45;connector&#45;c&#45;8.0.32&#45;r1">
<ellipse fill="none" stroke="red" cx="908" cy="-36" rx="144" ry="18"/>
<text text-anchor="middle" x="908" y="-32.12" font-family="Helvetica,sans-Serif" font-size="10.00">portage://dev&#45;db/mysql&#45;connector&#45;c&#45;8.0.32&#45;r1</text>
</a>
</g>
</g>
<!-- dependency328722&#45;&gt;choice1001011184510098471091211151131084599111110110101991161111144599455646484651504511449 -->
<g id="edge8" class="edge">
<title>dependency328722:e&#45;&gt;choice1001011184510098471091211151131084599111110110101991161111144599455646484651504511449:w</title>
<path fill="none" stroke="black" stroke-dasharray="1,5" d="M657,-81C704.18,-81 710.96,-42.76 751.83,-36.78"/>
<polygon fill="black" stroke="black" points="761.78,-36.08 752.12,-41.27 758.01,-36.35 751.81,-36.78 751.81,-36.78 751.81,-36.78 758.01,-36.35 751.49,-32.29 761.78,-36.08"/>
</g>
<!-- choice100101118451009847109121115113108459911111011010199116111114459945564648465154 -->
<g id="node10" class="node">
<title>choice100101118451009847109121115113108459911111011010199116111114459945564648465154</title>
<g id="a_node10"><a xlink:href="../dev-db/mysql-connector-c-8.0.36.svg" xlink:title="portage://dev&#45;db/mysql&#45;connector&#45;c&#45;8.0.36">
<ellipse fill="none" stroke="red" cx="908" cy="-90" rx="144" ry="18"/>
<text text-anchor="middle" x="908" y="-86.12" font-family="Helvetica,sans-Serif" font-size="10.00">portage://dev&#45;db/mysql&#45;connector&#45;c&#45;8.0.36</text>
</a>
</g>
</g>
<!-- dependency328722&#45;&gt;choice100101118451009847109121115113108459911111011010199116111114459945564648465154 -->
<g id="edge9" class="edge">
<title>dependency328722:e&#45;&gt;choice100101118451009847109121115113108459911111011010199116111114459945564648465154:w</title>
<path fill="none" stroke="black" stroke-dasharray="1,5" d="M657,-81C700.4,-81 713.6,-88.58 752.05,-89.83"/>
<polygon fill="black" stroke="black" points="761.78,-89.98 751.71,-94.32 758,-89.92 751.78,-89.82 751.78,-89.82 751.78,-89.82 758,-89.92 751.85,-85.32 761.78,-89.98"/>
</g>
<!-- choice1001011184510810598115471111121011101151151084549464846501174511449 -->
<g id="node11" class="node">
<title>choice1001011184510810598115471111121011101151151084549464846501174511449</title>
<g id="a_node11"><a xlink:href="../dev-libs/openssl-1.0.2u-r1.svg" xlink:title="portage://dev&#45;libs/openssl&#45;1.0.2u&#45;r1">
<ellipse fill="none" stroke="red" cx="908" cy="-576" rx="144" ry="18"/>
<text text-anchor="middle" x="908" y="-572.12" font-family="Helvetica,sans-Serif" font-size="10.00">portage://dev&#45;libs/openssl&#45;1.0.2u&#45;r1</text>
</a>
</g>
</g>
<!-- dependency328723&#45;&gt;choice1001011184510810598115471111121011101151151084549464846501174511449 -->
<g id="edge10" class="edge">
<title>dependency328723:e&#45;&gt;choice1001011184510810598115471111121011101151151084549464846501174511449:w</title>
<path fill="none" stroke="black" stroke-dasharray="1,5" d="M657,-343C766.77,-343 657.49,-559.91 751.85,-575.16"/>
<polygon fill="black" stroke="black" points="761.79,-575.91 751.47,-579.64 758.01,-575.62 751.81,-575.15 751.81,-575.15 751.81,-575.15 758.01,-575.62 752.15,-570.67 761.79,-575.91"/>
</g>
<!-- choice100101118451081059811547111112101110115115108454946494649119 -->
<g id="node12" class="node">
<title>choice100101118451081059811547111112101110115115108454946494649119</title>
<g id="a_node12"><a xlink:href="../dev-libs/openssl-1.1.1w.svg" xlink:title="portage://dev&#45;libs/openssl&#45;1.1.1w">
<ellipse fill="none" stroke="red" cx="908" cy="-522" rx="144" ry="18"/>
<text text-anchor="middle" x="908" y="-518.12" font-family="Helvetica,sans-Serif" font-size="10.00">portage://dev&#45;libs/openssl&#45;1.1.1w</text>
</a>
</g>
</g>
<!-- dependency328723&#45;&gt;choice100101118451081059811547111112101110115115108454946494649119 -->
<g id="edge11" class="edge">
<title>dependency328723:e&#45;&gt;choice100101118451081059811547111112101110115115108454946494649119:w</title>
<path fill="none" stroke="black" stroke-dasharray="1,5" d="M657,-343C745.49,-343 677.01,-506.95 752,-521.04"/>
<polygon fill="black" stroke="black" points="761.79,-521.89 751.43,-525.5 758.02,-521.56 751.82,-521.02 751.82,-521.02 751.82,-521.02 758.02,-521.56 752.22,-516.54 761.79,-521.89"/>
</g>
<!-- choice100101118451081059811547111112101110115115108455146484649514511450 -->
<g id="node13" class="node">
<title>choice100101118451081059811547111112101110115115108455146484649514511450</title>
<g id="a_node13"><a xlink:href="../dev-libs/openssl-3.0.13-r2.svg" xlink:title="portage://dev&#45;libs/openssl&#45;3.0.13&#45;r2">
<ellipse fill="none" stroke="red" cx="908" cy="-468" rx="144" ry="18"/>
<text text-anchor="middle" x="908" y="-464.12" font-family="Helvetica,sans-Serif" font-size="10.00">portage://dev&#45;libs/openssl&#45;3.0.13&#45;r2</text>
</a>
</g>
</g>
<!-- dependency328723&#45;&gt;choice100101118451081059811547111112101110115115108455146484649514511450 -->
<g id="edge12" class="edge">
<title>dependency328723:e&#45;&gt;choice100101118451081059811547111112101110115115108455146484649514511450:w</title>
<path fill="none" stroke="black" stroke-dasharray="1,5" d="M657,-343C725.86,-343 694.16,-454.7 752.02,-466.92"/>
<polygon fill="black" stroke="black" points="761.79,-467.88 751.39,-471.38 758.02,-467.51 751.84,-466.9 751.84,-466.9 751.84,-466.9 758.02,-467.51 752.28,-462.42 761.79,-467.88"/>
</g>
<!-- choice10010111845108105981154711111210111011511510845514648464952 -->
<g id="node14" class="node">
<title>choice10010111845108105981154711111210111011511510845514648464952</title>
<g id="a_node14"><a xlink:href="../dev-libs/openssl-3.0.14.svg" xlink:title="portage://dev&#45;libs/openssl&#45;3.0.14">
<ellipse fill="none" stroke="red" cx="908" cy="-414" rx="144" ry="18"/>
<text text-anchor="middle" x="908" y="-410.12" font-family="Helvetica,sans-Serif" font-size="10.00">portage://dev&#45;libs/openssl&#45;3.0.14</text>
</a>
</g>
</g>
<!-- dependency328723&#45;&gt;choice10010111845108105981154711111210111011511510845514648464952 -->
<g id="edge13" class="edge">
<title>dependency328723:e&#45;&gt;choice10010111845108105981154711111210111011511510845514648464952:w</title>
<path fill="none" stroke="black" stroke-dasharray="1,5" d="M657,-343C709.72,-343 707.02,-404.37 751.95,-413"/>
<polygon fill="black" stroke="black" points="761.79,-413.89 751.42,-417.47 758.02,-413.55 751.83,-412.99 751.83,-412.99 751.83,-412.99 758.02,-413.55 752.23,-408.5 761.79,-413.89"/>
</g>
<!-- choice1001011184510810598115471111121011101151151084551464946534511450 -->
<g id="node15" class="node">
<title>choice1001011184510810598115471111121011101151151084551464946534511450</title>
<g id="a_node15"><a xlink:href="../dev-libs/openssl-3.1.5-r2.svg" xlink:title="portage://dev&#45;libs/openssl&#45;3.1.5&#45;r2">
<ellipse fill="none" stroke="red" cx="908" cy="-360" rx="144" ry="18"/>
<text text-anchor="middle" x="908" y="-356.12" font-family="Helvetica,sans-Serif" font-size="10.00">portage://dev&#45;libs/openssl&#45;3.1.5&#45;r2</text>
</a>
</g>
</g>
<!-- dependency328723&#45;&gt;choice1001011184510810598115471111121011101151151084551464946534511450 -->
<g id="edge14" class="edge">
<title>dependency328723:e&#45;&gt;choice1001011184510810598115471111121011101151151084551464946534511450:w</title>
<path fill="none" stroke="black" stroke-dasharray="1,5" d="M657,-343C700.8,-343 713.3,-357.33 751.97,-359.68"/>
<polygon fill="black" stroke="black" points="761.78,-359.96 751.65,-364.17 758,-359.85 751.79,-359.67 751.79,-359.67 751.79,-359.67 758,-359.85 751.92,-355.17 761.78,-359.96"/>
</g>
<!-- choice100101118451081059811547111112101110115115108455146494654 -->
<g id="node16" class="node">
<title>choice100101118451081059811547111112101110115115108455146494654</title>
<g id="a_node16"><a xlink:href="../dev-libs/openssl-3.1.6.svg" xlink:title="portage://dev&#45;libs/openssl&#45;3.1.6">
<ellipse fill="none" stroke="red" cx="908" cy="-846" rx="144" ry="18"/>
<text text-anchor="middle" x="908" y="-842.12" font-family="Helvetica,sans-Serif" font-size="10.00">portage://dev&#45;libs/openssl&#45;3.1.6</text>
</a>
</g>
</g>
<!-- dependency328723&#45;&gt;choice100101118451081059811547111112101110115115108455146494654 -->
<g id="edge15" class="edge">
<title>dependency328723:e&#45;&gt;choice100101118451081059811547111112101110115115108455146494654:w</title>
<path fill="none" stroke="black" stroke-dasharray="1,5" d="M657,-343C881.67,-343 546.03,-829.44 752.1,-845.59"/>
<polygon fill="black" stroke="black" points="761.78,-845.95 751.62,-850.07 758,-845.81 751.79,-845.58 751.79,-845.58 751.79,-845.58 758,-845.81 751.96,-841.08 761.78,-845.95"/>
</g>
<!-- choice1001011184510810598115471111121011101151151084551465046494511450 -->
<g id="node17" class="node">
<title>choice1001011184510810598115471111121011101151151084551465046494511450</title>
<g id="a_node17"><a xlink:href="../dev-libs/openssl-3.2.1-r2.svg" xlink:title="portage://dev&#45;libs/openssl&#45;3.2.1&#45;r2">
<ellipse fill="none" stroke="red" cx="908" cy="-792" rx="144" ry="18"/>
<text text-anchor="middle" x="908" y="-788.12" font-family="Helvetica,sans-Serif" font-size="10.00">portage://dev&#45;libs/openssl&#45;3.2.1&#45;r2</text>
</a>
</g>
</g>
<!-- dependency328723&#45;&gt;choice1001011184510810598115471111121011101151151084551465046494511450 -->
<g id="edge16" class="edge">
<title>dependency328723:e&#45;&gt;choice1001011184510810598115471111121011101151151084551465046494511450:w</title>
<path fill="none" stroke="black" stroke-dasharray="1,5" d="M657,-343C858.14,-343 569.36,-775.06 751.83,-791.52"/>
<polygon fill="black" stroke="black" points="761.78,-791.95 751.6,-796.01 758,-791.78 751.79,-791.52 751.79,-791.52 751.79,-791.52 758,-791.78 751.99,-787.02 761.78,-791.95"/>
</g>
<!-- choice100101118451081059811547111112101110115115108455146504650 -->
<g id="node18" class="node">
<title>choice100101118451081059811547111112101110115115108455146504650</title>
<g id="a_node18"><a xlink:href="../dev-libs/openssl-3.2.2.svg" xlink:title="portage://dev&#45;libs/openssl&#45;3.2.2">
<ellipse fill="none" stroke="red" cx="908" cy="-738" rx="144" ry="18"/>
<text text-anchor="middle" x="908" y="-734.12" font-family="Helvetica,sans-Serif" font-size="10.00">portage://dev&#45;libs/openssl&#45;3.2.2</text>
</a>
</g>
</g>
<!-- dependency328723&#45;&gt;choice100101118451081059811547111112101110115115108455146504650 -->
<g id="edge17" class="edge">
<title>dependency328723:e&#45;&gt;choice100101118451081059811547111112101110115115108455146504650:w</title>
<path fill="none" stroke="black" stroke-dasharray="1,5" d="M657,-343C834.86,-343 592.1,-721.21 751.88,-737.46"/>
<polygon fill="black" stroke="black" points="761.78,-737.94 751.58,-741.95 758.01,-737.76 751.79,-737.46 751.79,-737.46 751.79,-737.46 758.01,-737.76 752.01,-732.96 761.78,-737.94"/>
</g>
<!-- choice100101118451081059811547111112101110115115108455146514648 -->
<g id="node19" class="node">
<title>choice100101118451081059811547111112101110115115108455146514648</title>
<g id="a_node19"><a xlink:href="../dev-libs/openssl-3.3.0.svg" xlink:title="portage://dev&#45;libs/openssl&#45;3.3.0">
<ellipse fill="none" stroke="red" cx="908" cy="-684" rx="144" ry="18"/>
<text text-anchor="middle" x="908" y="-680.12" font-family="Helvetica,sans-Serif" font-size="10.00">portage://dev&#45;libs/openssl&#45;3.3.0</text>
</a>
</g>
</g>
<!-- dependency328723&#45;&gt;choice100101118451081059811547111112101110115115108455146514648 -->
<g id="edge18" class="edge">
<title>dependency328723:e&#45;&gt;choice100101118451081059811547111112101110115115108455146514648:w</title>
<path fill="none" stroke="black" stroke-dasharray="1,5" d="M657,-343C811.83,-343 614.39,-667.55 752.03,-683.4"/>
<polygon fill="black" stroke="black" points="761.78,-683.93 751.55,-687.88 758.01,-683.73 751.8,-683.39 751.8,-683.39 751.8,-683.39 758.01,-683.73 752.04,-678.89 761.78,-683.93"/>
</g>
<!-- choice100101118451081059811547111112101110115115108455146514649 -->
<g id="node20" class="node">
<title>choice100101118451081059811547111112101110115115108455146514649</title>
<g id="a_node20"><a xlink:href="../dev-libs/openssl-3.3.1.svg" xlink:title="portage://dev&#45;libs/openssl&#45;3.3.1">
<ellipse fill="none" stroke="red" cx="908" cy="-630" rx="144" ry="18"/>
<text text-anchor="middle" x="908" y="-626.12" font-family="Helvetica,sans-Serif" font-size="10.00">portage://dev&#45;libs/openssl&#45;3.3.1</text>
</a>
</g>
</g>
<!-- dependency328723&#45;&gt;choice100101118451081059811547111112101110115115108455146514649 -->
<g id="edge19" class="edge">
<title>dependency328723:e&#45;&gt;choice100101118451081059811547111112101110115115108455146514649:w</title>
<path fill="none" stroke="black" stroke-dasharray="1,5" d="M657,-343C788.99,-343 636.49,-613.43 751.81,-629.28"/>
<polygon fill="black" stroke="black" points="761.78,-629.92 751.51,-633.77 758.01,-629.68 751.81,-629.27 751.81,-629.27 751.81,-629.27 758.01,-629.68 752.1,-624.78 761.78,-629.92"/>
</g>
<!-- choice11010111645971109710812112210111447110101116451151101091124553465746514511451 -->
<g id="node21" class="node">
<title>choice11010111645971109710812112210111447110101116451151101091124553465746514511451</title>
<g id="a_node21"><a xlink:href="../net-analyzer/net-snmp-5.9.3-r3.svg" xlink:title="portage://net&#45;analyzer/net&#45;snmp&#45;5.9.3&#45;r3">
<ellipse fill="none" stroke="red" cx="908" cy="-144" rx="144" ry="18"/>
<text text-anchor="middle" x="908" y="-140.12" font-family="Helvetica,sans-Serif" font-size="10.00">portage://net&#45;analyzer/net&#45;snmp&#45;5.9.3&#45;r3</text>
</a>
</g>
</g>
<!-- dependency328724&#45;&gt;choice11010111645971109710812112210111447110101116451151101091124553465746514511451 -->
<g id="edge20" class="edge">
<title>dependency328724:e&#45;&gt;choice11010111645971109710812112210111447110101116451151101091124553465746514511451:w</title>
<path fill="none" stroke="black" stroke-dasharray="1,5" d="M657,-212C709.04,-212 707.56,-153.23 752.07,-144.96"/>
<polygon fill="black" stroke="black" points="761.79,-144.11 752.22,-149.47 758.02,-144.44 751.82,-144.98 751.82,-144.98 751.82,-144.98 758.02,-144.44 751.43,-140.5 761.79,-144.11"/>
</g>
<!-- choice1101011164597110971081211221011144711010111645115110109112455346574652 -->
<g id="node22" class="node">
<title>choice1101011164597110971081211221011144711010111645115110109112455346574652</title>
<g id="a_node22"><a xlink:href="../net-analyzer/net-snmp-5.9.4.svg" xlink:title="portage://net&#45;analyzer/net&#45;snmp&#45;5.9.4">
<ellipse fill="none" stroke="red" cx="908" cy="-306" rx="144" ry="18"/>
<text text-anchor="middle" x="908" y="-302.12" font-family="Helvetica,sans-Serif" font-size="10.00">portage://net&#45;analyzer/net&#45;snmp&#45;5.9.4</text>
</a>
</g>
</g>
<!-- dependency328724&#45;&gt;choice1101011164597110971081211221011144711010111645115110109112455346574652 -->
<g id="edge21" class="edge">
<title>dependency328724:e&#45;&gt;choice1101011164597110971081211221011144711010111645115110109112455346574652:w</title>
<path fill="none" stroke="black" stroke-dasharray="1,5" d="M657,-212C716.03,-212 702.2,-294.62 752.12,-304.94"/>
<polygon fill="black" stroke="black" points="761.79,-305.88 751.4,-309.39 758.02,-305.52 751.83,-304.92 751.83,-304.92 751.83,-304.92 758.02,-305.52 752.27,-300.44 761.79,-305.88"/>
</g>
<!-- choice11010111645971109710812112210111447110101116451151101091124553465746524511449 -->
<g id="node23" class="node">
<title>choice11010111645971109710812112210111447110101116451151101091124553465746524511449</title>
<g id="a_node23"><a xlink:href="../net-analyzer/net-snmp-5.9.4-r1.svg" xlink:title="portage://net&#45;analyzer/net&#45;snmp&#45;5.9.4&#45;r1">
<ellipse fill="none" stroke="red" cx="908" cy="-252" rx="144" ry="18"/>
<text text-anchor="middle" x="908" y="-248.12" font-family="Helvetica,sans-Serif" font-size="10.00">portage://net&#45;analyzer/net&#45;snmp&#45;5.9.4&#45;r1</text>
</a>
</g>
</g>
<!-- dependency328724&#45;&gt;choice11010111645971109710812112210111447110101116451151101091124553465746524511449 -->
<g id="edge22" class="edge">
<title>dependency328724:e&#45;&gt;choice11010111645971109710812112210111447110101116451151101091124553465746524511449:w</title>
<path fill="none" stroke="black" stroke-dasharray="1,5" d="M657,-212C703.42,-212 711.54,-245.99 751.98,-251.31"/>
<polygon fill="black" stroke="black" points="761.78,-251.92 751.52,-255.79 758.01,-251.69 751.8,-251.29 751.8,-251.29 751.8,-251.29 758.01,-251.69 752.09,-246.8 761.78,-251.92"/>
</g>
<!-- choice11010111645971109710812112210111447110101116451151101091124557575757 -->
<g id="node24" class="node">
<title>choice11010111645971109710812112210111447110101116451151101091124557575757</title>
<g id="a_node24"><a xlink:href="../net-analyzer/net-snmp-9999.svg" xlink:title="portage://net&#45;analyzer/net&#45;snmp&#45;9999">
<ellipse fill="none" stroke="red" cx="908" cy="-198" rx="144" ry="18"/>
<text text-anchor="middle" x="908" y="-194.12" font-family="Helvetica,sans-Serif" font-size="10.00">portage://net&#45;analyzer/net&#45;snmp&#45;9999</text>
</a>
</g>
</g>
<!-- dependency328724&#45;&gt;choice11010111645971109710812112210111447110101116451151101091124557575757 -->
<g id="edge23" class="edge">
<title>dependency328724:e&#45;&gt;choice11010111645971109710812112210111447110101116451151101091124557575757:w</title>
<path fill="none" stroke="black" stroke-dasharray="1,5" d="M657,-212C700.62,-212 713.44,-200.2 752,-198.27"/>
<polygon fill="black" stroke="black" points="761.78,-198.03 751.89,-202.77 758,-198.12 751.78,-198.27 751.78,-198.27 751.78,-198.27 758,-198.12 751.68,-193.77 761.78,-198.03"/>
</g>
<!-- dependency328725&#45;&gt;choice1001011184510098471091211151131084599111110110101991161111144599455646484651504511449 -->
<g id="edge24" class="edge">
<title>dependency328725:e&#45;&gt;choice1001011184510098471091211151131084599111110110101991161111144599455646484651504511449:w</title>
<path fill="none" stroke="black" stroke-dasharray="1,5" d="M657,-500C864.71,-500 562.75,-52.61 752.05,-36.45"/>
<polygon fill="black" stroke="black" points="761.78,-36.05 751.98,-40.96 758,-36.2 751.79,-36.46 751.79,-36.46 751.79,-36.46 758,-36.2 751.61,-31.96 761.78,-36.05"/>
</g>
<!-- dependency328725&#45;&gt;choice100101118451009847109121115113108459911111011010199116111114459945564648465154 -->
<g id="edge25" class="edge">
<title>dependency328725:e&#45;&gt;choice100101118451009847109121115113108459911111011010199116111114459945564648465154:w</title>
<path fill="none" stroke="black" stroke-dasharray="1,5" d="M657,-500C841.35,-500 585.69,-106.64 751.99,-90.51"/>
<polygon fill="black" stroke="black" points="761.78,-90.06 752,-95.01 758.01,-90.23 751.79,-90.52 751.79,-90.52 751.79,-90.52 758.01,-90.23 751.59,-86.02 761.78,-90.06"/>
</g>
<!-- dependency328726&#45;&gt;choice1001011184510810598115471111121011101151151084549464846501174511449 -->
<g id="edge26" class="edge">
<title>dependency328726:e&#45;&gt;choice1001011184510810598115471111121011101151151084549464846501174511449:w</title>
<path fill="none" stroke="black" stroke-dasharray="1,5" d="M657,-762C748.25,-762 674.46,-590.94 752.17,-576.91"/>
<polygon fill="black" stroke="black" points="761.79,-576.1 752.2,-581.43 758.02,-576.42 751.82,-576.94 751.82,-576.94 751.82,-576.94 758.02,-576.42 751.44,-572.46 761.79,-576.1"/>
</g>
<!-- dependency328726&#45;&gt;choice100101118451081059811547111112101110115115108454946494649119 -->
<g id="edge27" class="edge">
<title>dependency328726:e&#45;&gt;choice100101118451081059811547111112101110115115108454946494649119:w</title>
<path fill="none" stroke="black" stroke-dasharray="1,5" d="M657,-762C769.62,-762 654.8,-538.13 751.88,-522.82"/>
<polygon fill="black" stroke="black" points="761.78,-522.09 752.14,-527.31 758.01,-522.37 751.81,-522.83 751.81,-522.83 751.81,-522.83 758.01,-522.37 751.48,-518.34 761.78,-522.09"/>
</g>
<!-- dependency328726&#45;&gt;choice100101118451081059811547111112101110115115108455146484649514511450 -->
<g id="edge28" class="edge">
<title>dependency328726:e&#45;&gt;choice100101118451081059811547111112101110115115108455146484649514511450:w</title>
<path fill="none" stroke="black" stroke-dasharray="1,5" d="M657,-762C791.97,-762 633.58,-484.42 751.93,-468.69"/>
<polygon fill="black" stroke="black" points="761.78,-468.08 752.09,-473.19 758.01,-468.31 751.8,-468.7 751.8,-468.7 751.8,-468.7 758.01,-468.31 751.52,-464.21 761.78,-468.08"/>
</g>
<!-- dependency328726&#45;&gt;choice10010111845108105981154711111210111011511510845514648464952 -->
<g id="edge29" class="edge">
<title>dependency328726:e&#45;&gt;choice10010111845108105981154711111210111011511510845514648464952:w</title>
<path fill="none" stroke="black" stroke-dasharray="1,5" d="M657,-762C814.74,-762 611.71,-430.78 751.82,-414.61"/>
<polygon fill="black" stroke="black" points="761.78,-414.07 752.04,-419.11 758.01,-414.27 751.8,-414.61 751.8,-414.61 751.8,-414.61 758.01,-414.27 751.55,-410.12 761.78,-414.07"/>
</g>
<!-- dependency328726&#45;&gt;choice1001011184510810598115471111121011101151151084551464946534511450 -->
<g id="edge30" class="edge">
<title>dependency328726:e&#45;&gt;choice1001011184510810598115471111121011101151151084551464946534511450:w</title>
<path fill="none" stroke="black" stroke-dasharray="1,5" d="M657,-762C837.98,-762 588.85,-376.32 752.19,-360.5"/>
<polygon fill="black" stroke="black" points="761.78,-360.06 752,-365.01 758.01,-360.23 751.79,-360.52 751.79,-360.52 751.79,-360.52 758.01,-360.23 751.59,-356.02 761.78,-360.06"/>
</g>
<!-- dependency328726&#45;&gt;choice100101118451081059811547111112101110115115108455146494654 -->
<g id="edge31" class="edge">
<title>dependency328726:e&#45;&gt;choice100101118451081059811547111112101110115115108455146494654:w</title>
<path fill="none" stroke="black" stroke-dasharray="1,5" d="M657,-762C713.12,-762 704.45,-835.21 751.96,-844.94"/>
<polygon fill="black" stroke="black" points="761.79,-845.88 751.4,-849.4 758.02,-845.52 751.83,-844.93 751.83,-844.93 751.83,-844.93 758.02,-845.52 752.26,-840.45 761.79,-845.88"/>
</g>
<!-- dependency328726&#45;&gt;choice1001011184510810598115471111121011101151151084551465046494511450 -->
<g id="edge32" class="edge">
<title>dependency328726:e&#45;&gt;choice1001011184510810598115471111121011101151151084551465046494511450:w</title>
<path fill="none" stroke="black" stroke-dasharray="1,5" d="M657,-762C702.04,-762 712.48,-787.39 751.98,-791.45"/>
<polygon fill="black" stroke="black" points="761.78,-791.94 751.57,-795.94 758.01,-791.75 751.8,-791.44 751.8,-791.44 751.8,-791.44 758.01,-791.75 752.02,-786.95 761.78,-791.94"/>
</g>
<!-- dependency328726&#45;&gt;choice100101118451081059811547111112101110115115108455146504650 -->
<g id="edge33" class="edge">
<title>dependency328726:e&#45;&gt;choice100101118451081059811547111112101110115115108455146504650:w</title>
<path fill="none" stroke="black" stroke-dasharray="1,5" d="M657,-762C701.34,-762 712.89,-741.78 751.86,-738.46"/>
<polygon fill="black" stroke="black" points="761.78,-738.05 751.98,-742.96 758,-738.21 751.79,-738.46 751.79,-738.46 751.79,-738.46 758,-738.21 751.61,-733.96 761.78,-738.05"/>
</g>
<!-- dependency328726&#45;&gt;choice100101118451081059811547111112101110115115108455146514648 -->
<g id="edge34" class="edge">
<title>dependency328726:e&#45;&gt;choice100101118451081059811547111112101110115115108455146514648:w</title>
<path fill="none" stroke="black" stroke-dasharray="1,5" d="M657,-762C711.49,-762 705.69,-694.3 751.93,-685.04"/>
<polygon fill="black" stroke="black" points="761.79,-684.11 752.25,-689.53 758.02,-684.47 751.83,-685.05 751.83,-685.05 751.83,-685.05 758.02,-684.47 751.41,-680.57 761.79,-684.11"/>
</g>
<!-- dependency328726&#45;&gt;choice100101118451081059811547111112101110115115108455146514649 -->
<g id="edge35" class="edge">
<title>dependency328726:e&#45;&gt;choice100101118451081059811547111112101110115115108455146514649:w</title>
<path fill="none" stroke="black" stroke-dasharray="1,5" d="M657,-762C728.27,-762 692.12,-643.55 752.06,-631.06"/>
<polygon fill="black" stroke="black" points="761.79,-630.12 752.27,-635.56 758.02,-630.48 751.83,-631.08 751.83,-631.08 751.83,-631.08 758.02,-630.48 751.4,-626.61 761.79,-630.12"/>
</g>
<!-- choice1101011164597110971081211221011144799979911610545494650465049 -->
<g id="node25" class="node">
<title>choice1101011164597110971081211221011144799979911610545494650465049</title>
<g id="a_node25"><a xlink:href="../net-analyzer/cacti-1.2.21.svg" xlink:title="portage://net&#45;analyzer/cacti&#45;1.2.21">
<ellipse fill="none" stroke="red" cx="908" cy="-954" rx="144" ry="18"/>
<text text-anchor="middle" x="908" y="-950.12" font-family="Helvetica,sans-Serif" font-size="10.00">portage://net&#45;analyzer/cacti&#45;1.2.21</text>
</a>
</g>
</g>
<!-- dependency328727&#45;&gt;choice1101011164597110971081211221011144799979911610545494650465049 -->
<g id="edge36" class="edge">
<title>dependency328727:e&#45;&gt;choice1101011164597110971081211221011144799979911610545494650465049:w</title>
<path fill="none" stroke="black" stroke-dasharray="1,5" d="M657,-893C707.43,-893 708.74,-945.5 752.07,-953.09"/>
<polygon fill="black" stroke="black" points="761.79,-953.9 751.45,-957.55 758.02,-953.59 751.82,-953.07 751.82,-953.07 751.82,-953.07 758.02,-953.59 752.19,-948.59 761.79,-953.9"/>
</g>
<!-- choice1101011164597110971081211221011144799979911610545494650465054 -->
<g id="node26" class="node">
<title>choice1101011164597110971081211221011144799979911610545494650465054</title>
<g id="a_node26"><a xlink:href="../net-analyzer/cacti-1.2.26.svg" xlink:title="portage://net&#45;analyzer/cacti&#45;1.2.26">
<ellipse fill="none" stroke="red" cx="908" cy="-900" rx="144" ry="18"/>
<text text-anchor="middle" x="908" y="-896.12" font-family="Helvetica,sans-Serif" font-size="10.00">portage://net&#45;analyzer/cacti&#45;1.2.26</text>
</a>
</g>
</g>
<!-- dependency328727&#45;&gt;choice1101011164597110971081211221011144799979911610545494650465054 -->
<g id="edge37" class="edge">
<title>dependency328727:e&#45;&gt;choice1101011164597110971081211221011144799979911610545494650465054:w</title>
<path fill="none" stroke="black" stroke-dasharray="1,5" d="M657,-893C700.34,-893 713.65,-898.9 752.06,-899.87"/>
<polygon fill="black" stroke="black" points="761.78,-899.99 751.73,-904.36 758,-899.94 751.78,-899.86 751.78,-899.86 751.78,-899.86 758,-899.94 751.84,-895.36 761.78,-899.99"/>
</g>
<!-- dependency328728&#45;&gt;choice11010111645971109710812112210111447110101116451151101091124553465746514511451 -->
<g id="edge38" class="edge">
<title>dependency328728:e&#45;&gt;choice11010111645971109710812112210111447110101116451151101091124553465746514511451:w</title>
<path fill="none" stroke="black" stroke-dasharray="1,5" d="M657,-631C874.62,-631 553.16,-160.97 751.83,-144.45"/>
<polygon fill="black" stroke="black" points="761.78,-144.05 751.97,-148.94 758,-144.2 751.79,-144.45 751.79,-144.45 751.79,-144.45 758,-144.2 751.61,-139.95 761.78,-144.05"/>
</g>
<!-- dependency328728&#45;&gt;choice1101011164597110971081211221011144711010111645115110109112455346574652 -->
<g id="edge39" class="edge">
<title>dependency328728:e&#45;&gt;choice1101011164597110971081211221011144711010111645115110109112455346574652:w</title>
<path fill="none" stroke="black" stroke-dasharray="1,5" d="M657,-631C805.08,-631 620.89,-322.29 752.09,-306.62"/>
<polygon fill="black" stroke="black" points="761.78,-306.07 752.05,-311.13 758.01,-306.28 751.8,-306.63 751.8,-306.63 751.8,-306.63 758.01,-306.28 751.54,-302.14 761.78,-306.07"/>
</g>
<!-- dependency328728&#45;&gt;choice11010111645971109710812112210111447110101116451151101091124553465746524511449 -->
<g id="edge40" class="edge">
<title>dependency328728:e&#45;&gt;choice11010111645971109710812112210111447110101116451151101091124553465746524511449:w</title>
<path fill="none" stroke="black" stroke-dasharray="1,5" d="M657,-631C827.98,-631 598.83,-268.83 751.84,-252.57"/>
<polygon fill="black" stroke="black" points="761.78,-252.06 752.02,-257.06 758.01,-252.25 751.8,-252.57 751.8,-252.57 751.8,-252.57 758.01,-252.25 751.57,-248.07 761.78,-252.06"/>
</g>
<!-- dependency328728&#45;&gt;choice11010111645971109710812112210111447110101116451151101091124557575757 -->
<g id="edge41" class="edge">
<title>dependency328728:e&#45;&gt;choice11010111645971109710812112210111447110101116451151101091124557575757:w</title>
<path fill="none" stroke="black" stroke-dasharray="1,5" d="M657,-631C851.26,-631 576.02,-214.75 751.94,-198.49"/>
<polygon fill="black" stroke="black" points="761.78,-198.05 751.99,-202.99 758,-198.22 751.79,-198.5 751.79,-198.5 751.79,-198.5 758,-198.22 751.59,-194 761.78,-198.05"/>
</g>
</g>
</svg>
