<?xml version="1.0" encoding="UTF-8" standalone="no"?>
<!DOCTYPE svg PUBLIC "-//W3C//DTD SVG 1.1//EN"
 "http://www.w3.org/Graphics/SVG/1.1/DTD/svg11.dtd">
<!-- Generated by graphviz version 2.41.20171026.1811 (20171026.1811)
 -->
<!-- Title: prolog Pages: 1 -->
<svg width="1068pt" height="688pt"
 viewBox="0.00 0.00 1068.00 688.00" xmlns="http://www.w3.org/2000/svg" xmlns:xlink="http://www.w3.org/1999/xlink">
<g id="graph0" class="graph" transform="scale(1 1) rotate(0) translate(4 684)">
<title>prolog</title>
<polygon fill="white" stroke="transparent" points="-4,4 -4,-684 1064,-684 1064,4 -4,4"/>
<g id="clust1" class="cluster">
<title>cluster_leftcol</title>
<polygon fill="none" stroke="gray" points="8,-305 8,-375 312,-375 312,-305 8,-305"/>
<text text-anchor="start" x="146.66" y="-364" font-family="Helvetica,sans-Serif" font-style="italic" font-size="10.00">ebuild</text>
</g>
<g id="clust2" class="cluster">
<title>cluster_midcol</title>
<polygon fill="none" stroke="gray" points="396,-131 396,-567 664,-567 664,-131 396,-131"/>
<text text-anchor="start" x="498.86" y="-556" font-family="Helvetica,sans-Serif" font-style="italic" font-size="10.00">dependencies</text>
</g>
<g id="clust4" class="cluster">
<title>cluster_compileandrun</title>
<polygon fill="#eeeeee" stroke="gray" points="404,-409 404,-541 656,-541 656,-409 404,-409"/>
<text text-anchor="start" x="494.42" y="-530" font-family="Helvetica,sans-Serif" font-style="italic" font-size="10.00">compile and run</text>
</g>
<g id="clust6" class="cluster">
<title>cluster_run</title>
<polygon fill="#eeeeee" stroke="gray" points="404,-139 404,-271 656,-271 656,-139 404,-139"/>
<text text-anchor="start" x="522.77" y="-260" font-family="Helvetica,sans-Serif" font-style="italic" font-size="10.00">run</text>
</g>
<g id="clust8" class="cluster">
<title>cluster_choices</title>
<polygon fill="none" stroke="gray" points="748,-8 748,-672 1052,-672 1052,-8 748,-8"/>
<text text-anchor="start" x="875.82" y="-661" font-family="Helvetica,sans-Serif" font-style="italic" font-size="10.00">candidates</text>
</g>
<!-- id -->
<g id="node1" class="node">
<title>id</title>
<g id="a_node1"><a xlink:href="../net-analyzer/ipv6toolkit-2.0_p20160422.svg" xlink:title="net&#45;analyzer/ipv6toolkit&#45;2.0_p20160422">
<ellipse fill="none" stroke="red" cx="160" cy="-331" rx="144" ry="18"/>
<text text-anchor="middle" x="160" y="-328" font-family="Helvetica,sans-Serif" font-size="10.00">net&#45;analyzer/ipv6toolkit&#45;2.0_p20160422</text>
</a>
</g>
</g>
<!-- dependency48 -->
<g id="node2" class="node">
<title>dependency48</title>
<polygon fill="none" stroke="blue" points="420,-421 420,-511 525,-511 525,-421 420,-421"/>
<text text-anchor="start" x="450.82" y="-463" font-family="Helvetica,sans-Serif" font-size="10.00">pack_dep</text>
<polygon fill="none" stroke="blue" points="525,-491 525,-511 635,-511 635,-491 525,-491"/>
<text text-anchor="start" x="574.44" y="-498" font-family="Helvetica,sans-Serif" font-size="10.00">no</text>
<polygon fill="none" stroke="blue" points="525,-471 525,-491 635,-491 635,-471 525,-471"/>
<text text-anchor="start" x="563.88" y="-478" font-family="Helvetica,sans-Serif" font-size="10.00">net&#45;libs</text>
<polygon fill="none" stroke="blue" points="525,-451 525,-471 635,-471 635,-451 525,-451"/>
<text text-anchor="start" x="564.16" y="-458" font-family="Helvetica,sans-Serif" font-size="10.00">libpcap</text>
<polygon fill="none" stroke="blue" points="525,-431 525,-451 635,-451 635,-431 525,-431"/>
<text text-anchor="start" x="568.88" y="-438" font-family="Helvetica,sans-Serif" font-size="10.00">none</text>
<polygon fill="none" stroke="blue" points="525,-421 525,-431 635,-431 635,-421 525,-421"/>
</g>
<!-- id&#45;&gt;dependency48 -->
<g id="edge1" class="edge">
<title>id:e&#45;&gt;dependency48:w</title>
<path fill="none" stroke="black" d="M305,-331C374.43,-331 342.09,-442.83 393.24,-462.93"/>
<ellipse fill="none" stroke="black" cx="407.06" cy="-465.32" rx="4" ry="4"/>
<polygon fill="black" stroke="black" points="403.12,-464.64 392.5,-467.37 398.19,-463.78 393.26,-462.93 393.26,-462.93 393.26,-462.93 398.19,-463.78 394.03,-458.5 403.12,-464.64 403.12,-464.64"/>
</g>
<!-- dependency49 -->
<g id="node3" class="node">
<title>dependency49</title>
<polygon fill="none" stroke="blue" points="420,-151 420,-241 525,-241 525,-151 420,-151"/>
<text text-anchor="start" x="450.82" y="-193" font-family="Helvetica,sans-Serif" font-size="10.00">pack_dep</text>
<polygon fill="none" stroke="blue" points="525,-221 525,-241 635,-241 635,-221 525,-221"/>
<text text-anchor="start" x="574.44" y="-228" font-family="Helvetica,sans-Serif" font-size="10.00">no</text>
<polygon fill="none" stroke="blue" points="525,-201 525,-221 635,-221 635,-201 525,-201"/>
<text text-anchor="start" x="559.99" y="-208" font-family="Helvetica,sans-Serif" font-size="10.00">sys&#45;apps</text>
<polygon fill="none" stroke="blue" points="525,-181 525,-201 635,-201 635,-181 525,-181"/>
<text text-anchor="start" x="567.22" y="-188" font-family="Helvetica,sans-Serif" font-size="10.00">hwids</text>
<polygon fill="none" stroke="blue" points="525,-161 525,-181 635,-181 635,-161 525,-161"/>
<text text-anchor="start" x="568.88" y="-168" font-family="Helvetica,sans-Serif" font-size="10.00">none</text>
<polygon fill="none" stroke="blue" points="525,-151 525,-161 635,-161 635,-151 525,-151"/>
</g>
<!-- id&#45;&gt;dependency49 -->
<g id="edge2" class="edge">
<title>id:e&#45;&gt;dependency49:w</title>
<path fill="none" stroke="black" d="M305,-331C378.45,-331 338,-205.83 403,-196.54"/>
<ellipse fill="none" stroke="black" cx="407.01" cy="-196.27" rx="4" ry="4"/>
</g>
<!-- choice1101011164510810598115471081059811299971124549465646494511449 -->
<g id="node4" class="node">
<title>choice1101011164510810598115471081059811299971124549465646494511449</title>
<g id="a_node4"><a xlink:href="../net-libs/libpcap-1.8.1-r1.svg" xlink:title="net&#45;libs/libpcap&#45;1.8.1&#45;r1">
<ellipse fill="none" stroke="red" cx="900" cy="-628" rx="144" ry="18"/>
<text text-anchor="middle" x="900" y="-625" font-family="Helvetica,sans-Serif" font-size="10.00">net&#45;libs/libpcap&#45;1.8.1&#45;r1</text>
</a>
</g>
</g>
<!-- dependency48&#45;&gt;choice1101011164510810598115471081059811299971124549465646494511449 -->
<g id="edge3" class="edge">
<title>dependency48:e&#45;&gt;choice1101011164510810598115471081059811299971124549465646494511449:w</title>
<path fill="none" stroke="black" stroke-dasharray="1,5" d="M649,-466C731.35,-466 674.36,-614.38 744.73,-627.13"/>
<polygon fill="black" stroke="black" points="755,-628 744.66,-631.64 750.02,-627.58 745.04,-627.15 745.04,-627.15 745.04,-627.15 750.02,-627.58 745.42,-622.67 755,-628 755,-628"/>
</g>
<!-- choice110101116451081059811547108105981129997112454946574648951149950 -->
<g id="node5" class="node">
<title>choice110101116451081059811547108105981129997112454946574648951149950</title>
<g id="a_node5"><a xlink:href="../net-libs/libpcap-1.9.0_rc2.svg" xlink:title="net&#45;libs/libpcap&#45;1.9.0_rc2">
<ellipse fill="none" stroke="red" cx="900" cy="-574" rx="144" ry="18"/>
<text text-anchor="middle" x="900" y="-571" font-family="Helvetica,sans-Serif" font-size="10.00">net&#45;libs/libpcap&#45;1.9.0_rc2</text>
</a>
</g>
</g>
<!-- dependency48&#45;&gt;choice110101116451081059811547108105981129997112454946574648951149950 -->
<g id="edge4" class="edge">
<title>dependency48:e&#45;&gt;choice110101116451081059811547108105981129997112454946574648951149950:w</title>
<path fill="none" stroke="black" stroke-dasharray="1,5" d="M649,-466C712.58,-466 690.58,-562.51 744.79,-573.07"/>
<polygon fill="black" stroke="black" points="755,-574 744.63,-577.57 750.02,-573.54 745.04,-573.09 745.04,-573.09 745.04,-573.09 750.02,-573.54 745.45,-568.61 755,-574 755,-574"/>
</g>
<!-- choice110101116451081059811547108105981129997112454946564649 -->
<g id="node6" class="node">
<title>choice110101116451081059811547108105981129997112454946564649</title>
<g id="a_node6"><a xlink:href="../net-libs/libpcap-1.8.1.svg" xlink:title="net&#45;libs/libpcap&#45;1.8.1">
<ellipse fill="none" stroke="red" cx="900" cy="-520" rx="144" ry="18"/>
<text text-anchor="middle" x="900" y="-517" font-family="Helvetica,sans-Serif" font-size="10.00">net&#45;libs/libpcap&#45;1.8.1</text>
</a>
</g>
</g>
<!-- dependency48&#45;&gt;choice110101116451081059811547108105981129997112454946564649 -->
<g id="edge5" class="edge">
<title>dependency48:e&#45;&gt;choice110101116451081059811547108105981129997112454946564649:w</title>
<path fill="none" stroke="black" stroke-dasharray="1,5" d="M649,-466C698.26,-466 701.85,-512.87 744.86,-519.28"/>
<polygon fill="black" stroke="black" points="755,-520 744.71,-523.78 750.01,-519.64 745.03,-519.29 745.03,-519.29 745.03,-519.29 750.01,-519.64 745.35,-514.8 755,-520 755,-520"/>
</g>
<!-- choice1101011164510810598115471081059811299971124549465646494511450 -->
<g id="node7" class="node">
<title>choice1101011164510810598115471081059811299971124549465646494511450</title>
<g id="a_node7"><a xlink:href="../net-libs/libpcap-1.8.1-r2.svg" xlink:title="net&#45;libs/libpcap&#45;1.8.1&#45;r2">
<ellipse fill="none" stroke="red" cx="900" cy="-466" rx="144" ry="18"/>
<text text-anchor="middle" x="900" y="-463" font-family="Helvetica,sans-Serif" font-size="10.00">net&#45;libs/libpcap&#45;1.8.1&#45;r2</text>
</a>
</g>
</g>
<!-- dependency48&#45;&gt;choice1101011164510810598115471081059811299971124549465646494511450 -->
<g id="edge6" class="edge">
<title>dependency48:e&#45;&gt;choice1101011164510810598115471081059811299971124549465646494511450:w</title>
<path fill="none" stroke="black" stroke-dasharray="1,5" d="M649,-466C692.43,-466 705.83,-466 744.57,-466"/>
<polygon fill="black" stroke="black" points="755,-466 745,-470.5 750,-466 745,-466 745,-466 745,-466 750,-466 745,-461.5 755,-466 755,-466"/>
</g>
<!-- choice110101116451081059811547108105981129997112454946574648 -->
<g id="node8" class="node">
<title>choice110101116451081059811547108105981129997112454946574648</title>
<g id="a_node8"><a xlink:href="../net-libs/libpcap-1.9.0.svg" xlink:title="net&#45;libs/libpcap&#45;1.9.0">
<ellipse fill="none" stroke="red" cx="900" cy="-412" rx="144" ry="18"/>
<text text-anchor="middle" x="900" y="-409" font-family="Helvetica,sans-Serif" font-size="10.00">net&#45;libs/libpcap&#45;1.9.0</text>
</a>
</g>
</g>
<!-- dependency48&#45;&gt;choice110101116451081059811547108105981129997112454946574648 -->
<g id="edge7" class="edge">
<title>dependency48:e&#45;&gt;choice110101116451081059811547108105981129997112454946574648:w</title>
<path fill="none" stroke="black" stroke-dasharray="1,5" d="M649,-466C698.26,-466 701.85,-419.13 744.86,-412.72"/>
<polygon fill="black" stroke="black" points="755,-412 745.35,-417.2 750.01,-412.36 745.03,-412.71 745.03,-412.71 745.03,-412.71 750.01,-412.36 744.71,-408.22 755,-412 755,-412"/>
</g>
<!-- choice1101011164510810598115471081059811299971124557575757 -->
<g id="node9" class="node">
<title>choice1101011164510810598115471081059811299971124557575757</title>
<g id="a_node9"><a xlink:href="../net-libs/libpcap-9999.svg" xlink:title="net&#45;libs/libpcap&#45;9999">
<ellipse fill="none" stroke="red" cx="900" cy="-358" rx="144" ry="18"/>
<text text-anchor="middle" x="900" y="-355" font-family="Helvetica,sans-Serif" font-size="10.00">net&#45;libs/libpcap&#45;9999</text>
</a>
</g>
</g>
<!-- dependency48&#45;&gt;choice1101011164510810598115471081059811299971124557575757 -->
<g id="edge8" class="edge">
<title>dependency48:e&#45;&gt;choice1101011164510810598115471081059811299971124557575757:w</title>
<path fill="none" stroke="black" stroke-dasharray="1,5" d="M649,-466C712.58,-466 690.58,-369.49 744.79,-358.93"/>
<polygon fill="black" stroke="black" points="755,-358 745.45,-363.39 750.02,-358.46 745.04,-358.91 745.04,-358.91 745.04,-358.91 750.02,-358.46 744.63,-354.43 755,-358 755,-358"/>
</g>
<!-- choice115121115459711211211547104119105100115455048495548515056 -->
<g id="node10" class="node">
<title>choice115121115459711211211547104119105100115455048495548515056</title>
<g id="a_node10"><a xlink:href="../sys-apps/hwids-20170328.svg" xlink:title="sys&#45;apps/hwids&#45;20170328">
<ellipse fill="none" stroke="red" cx="900" cy="-304" rx="144" ry="18"/>
<text text-anchor="middle" x="900" y="-301" font-family="Helvetica,sans-Serif" font-size="10.00">sys&#45;apps/hwids&#45;20170328</text>
</a>
</g>
</g>
<!-- dependency49&#45;&gt;choice115121115459711211211547104119105100115455048495548515056 -->
<g id="edge9" class="edge">
<title>dependency49:e&#45;&gt;choice115121115459711211211547104119105100115455048495548515056:w</title>
<path fill="none" stroke="black" stroke-dasharray="1,5" d="M649,-196C712.58,-196 690.58,-292.51 744.79,-303.07"/>
<polygon fill="black" stroke="black" points="755,-304 744.63,-307.57 750.02,-303.54 745.04,-303.09 745.04,-303.09 745.04,-303.09 750.02,-303.54 745.45,-298.61 755,-304 755,-304"/>
</g>
<!-- choice115121115459711211211547104119105100115455048495548554953 -->
<g id="node11" class="node">
<title>choice115121115459711211211547104119105100115455048495548554953</title>
<g id="a_node11"><a xlink:href="../sys-apps/hwids-20170715.svg" xlink:title="sys&#45;apps/hwids&#45;20170715">
<ellipse fill="none" stroke="red" cx="900" cy="-250" rx="144" ry="18"/>
<text text-anchor="middle" x="900" y="-247" font-family="Helvetica,sans-Serif" font-size="10.00">sys&#45;apps/hwids&#45;20170715</text>
</a>
</g>
</g>
<!-- dependency49&#45;&gt;choice115121115459711211211547104119105100115455048495548554953 -->
<g id="edge10" class="edge">
<title>dependency49:e&#45;&gt;choice115121115459711211211547104119105100115455048495548554953:w</title>
<path fill="none" stroke="black" stroke-dasharray="1,5" d="M649,-196C698.26,-196 701.85,-242.87 744.86,-249.28"/>
<polygon fill="black" stroke="black" points="755,-250 744.71,-253.78 750.01,-249.64 745.03,-249.29 745.03,-249.29 745.03,-249.29 750.01,-249.64 745.35,-244.8 755,-250 755,-250"/>
</g>
<!-- choice115121115459711211211547104119105100115455048495549484851 -->
<g id="node12" class="node">
<title>choice115121115459711211211547104119105100115455048495549484851</title>
<g id="a_node12"><a xlink:href="../sys-apps/hwids-20171003.svg" xlink:title="sys&#45;apps/hwids&#45;20171003">
<ellipse fill="none" stroke="red" cx="900" cy="-196" rx="144" ry="18"/>
<text text-anchor="middle" x="900" y="-193" font-family="Helvetica,sans-Serif" font-size="10.00">sys&#45;apps/hwids&#45;20171003</text>
</a>
</g>
</g>
<!-- dependency49&#45;&gt;choice115121115459711211211547104119105100115455048495549484851 -->
<g id="edge11" class="edge">
<title>dependency49:e&#45;&gt;choice115121115459711211211547104119105100115455048495549484851:w</title>
<path fill="none" stroke="black" stroke-dasharray="1,5" d="M649,-196C692.43,-196 705.83,-196 744.57,-196"/>
<polygon fill="black" stroke="black" points="755,-196 745,-200.5 750,-196 745,-196 745,-196 745,-196 750,-196 745,-191.5 755,-196 755,-196"/>
</g>
<!-- choice115121115459711211211547104119105100115455048495648514953 -->
<g id="node13" class="node">
<title>choice115121115459711211211547104119105100115455048495648514953</title>
<g id="a_node13"><a xlink:href="../sys-apps/hwids-20180315.svg" xlink:title="sys&#45;apps/hwids&#45;20180315">
<ellipse fill="none" stroke="red" cx="900" cy="-142" rx="144" ry="18"/>
<text text-anchor="middle" x="900" y="-139" font-family="Helvetica,sans-Serif" font-size="10.00">sys&#45;apps/hwids&#45;20180315</text>
</a>
</g>
</g>
<!-- dependency49&#45;&gt;choice115121115459711211211547104119105100115455048495648514953 -->
<g id="edge12" class="edge">
<title>dependency49:e&#45;&gt;choice115121115459711211211547104119105100115455048495648514953:w</title>
<path fill="none" stroke="black" stroke-dasharray="1,5" d="M649,-196C698.26,-196 701.85,-149.13 744.86,-142.72"/>
<polygon fill="black" stroke="black" points="755,-142 745.35,-147.2 750.01,-142.36 745.03,-142.71 745.03,-142.71 745.03,-142.71 750.01,-142.36 744.71,-138.22 755,-142 755,-142"/>
</g>
<!-- choice115121115459711211211547104119105100115455048495648534956 -->
<g id="node14" class="node">
<title>choice115121115459711211211547104119105100115455048495648534956</title>
<g id="a_node14"><a xlink:href="../sys-apps/hwids-20180518.svg" xlink:title="sys&#45;apps/hwids&#45;20180518">
<ellipse fill="none" stroke="red" cx="900" cy="-88" rx="144" ry="18"/>
<text text-anchor="middle" x="900" y="-85" font-family="Helvetica,sans-Serif" font-size="10.00">sys&#45;apps/hwids&#45;20180518</text>
</a>
</g>
</g>
<!-- dependency49&#45;&gt;choice115121115459711211211547104119105100115455048495648534956 -->
<g id="edge13" class="edge">
<title>dependency49:e&#45;&gt;choice115121115459711211211547104119105100115455048495648534956:w</title>
<path fill="none" stroke="black" stroke-dasharray="1,5" d="M649,-196C712.58,-196 690.58,-99.49 744.79,-88.93"/>
<polygon fill="black" stroke="black" points="755,-88 745.45,-93.39 750.02,-88.46 745.04,-88.91 745.04,-88.91 745.04,-88.91 750.02,-88.46 744.63,-84.43 755,-88 755,-88"/>
</g>
<!-- choice115121115459711211211547104119105100115455757575757575757 -->
<g id="node15" class="node">
<title>choice115121115459711211211547104119105100115455757575757575757</title>
<g id="a_node15"><a xlink:href="../sys-apps/hwids-99999999.svg" xlink:title="sys&#45;apps/hwids&#45;99999999">
<ellipse fill="none" stroke="red" cx="900" cy="-34" rx="144" ry="18"/>
<text text-anchor="middle" x="900" y="-31" font-family="Helvetica,sans-Serif" font-size="10.00">sys&#45;apps/hwids&#45;99999999</text>
</a>
</g>
</g>
<!-- dependency49&#45;&gt;choice115121115459711211211547104119105100115455757575757575757 -->
<g id="edge14" class="edge">
<title>dependency49:e&#45;&gt;choice115121115459711211211547104119105100115455757575757575757:w</title>
<path fill="none" stroke="black" stroke-dasharray="1,5" d="M649,-196C731.35,-196 674.36,-47.62 744.73,-34.87"/>
<polygon fill="black" stroke="black" points="755,-34 745.42,-39.33 750.02,-34.42 745.04,-34.85 745.04,-34.85 745.04,-34.85 750.02,-34.42 744.66,-30.36 755,-34 755,-34"/>
</g>
</g>
</svg>
