<?xml version="1.0" encoding="UTF-8" standalone="no"?>
<!DOCTYPE svg PUBLIC "-//W3C//DTD SVG 1.1//EN"
 "http://www.w3.org/Graphics/SVG/1.1/DTD/svg11.dtd">
<!-- Generated by graphviz version 2.41.20171026.1811 (20171026.1811)
 -->
<!-- Title: prolog Pages: 1 -->
<svg width="1331pt" height="1146pt"
 viewBox="0.00 0.00 1331.00 1146.00" xmlns="http://www.w3.org/2000/svg" xmlns:xlink="http://www.w3.org/1999/xlink">
<g id="graph0" class="graph" transform="scale(1 1) rotate(0) translate(4 1142)">
<title>prolog</title>
<polygon fill="white" stroke="transparent" points="-4,4 -4,-1142 1327,-1142 1327,4 -4,4"/>
<g id="clust1" class="cluster">
<title>cluster_leftcol</title>
<polygon fill="none" stroke="gray" points="8,-498 8,-568 312,-568 312,-498 8,-498"/>
<text text-anchor="start" x="146.66" y="-557" font-family="Helvetica,sans-Serif" font-style="italic" font-size="10.00">ebuild</text>
</g>
<g id="clust2" class="cluster">
<title>cluster_midcol</title>
<polygon fill="none" stroke="gray" points="396,-221 396,-1130 927,-1130 927,-221 396,-221"/>
<text text-anchor="start" x="630.36" y="-1119" font-family="Helvetica,sans-Serif" font-style="italic" font-size="10.00">dependencies</text>
</g>
<g id="clust3" class="cluster">
<title>cluster_compile</title>
<polygon fill="#eeeeee" stroke="gray" points="667,-720 667,-1104 919,-1104 919,-720 667,-720"/>
<text text-anchor="start" x="775.77" y="-1093" font-family="Helvetica,sans-Serif" font-style="italic" font-size="10.00">compile</text>
</g>
<g id="clust7" class="cluster">
<title>cluster_compileandrun</title>
<polygon fill="#eeeeee" stroke="gray" points="404,-229 404,-712 919,-712 919,-229 404,-229"/>
<text text-anchor="start" x="625.92" y="-701" font-family="Helvetica,sans-Serif" font-style="italic" font-size="10.00">compile and run</text>
</g>
<g id="clust13" class="cluster">
<title>cluster_choices</title>
<polygon fill="none" stroke="gray" points="1011,-8 1011,-1104 1315,-1104 1315,-8 1011,-8"/>
<text text-anchor="start" x="1138.82" y="-1093" font-family="Helvetica,sans-Serif" font-style="italic" font-size="10.00">candidates</text>
</g>
<!-- id -->
<g id="node1" class="node">
<title>id</title>
<g id="a_node1"><a xlink:href="../sys-freebsd/freebsd-pam-modules-9.1-r1.svg" xlink:title="sys&#45;freebsd/freebsd&#45;pam&#45;modules&#45;9.1&#45;r1">
<ellipse fill="none" stroke="red" cx="160" cy="-524" rx="144" ry="18"/>
<text text-anchor="middle" x="160" y="-521" font-family="Helvetica,sans-Serif" font-size="10.00">sys&#45;freebsd/freebsd&#45;pam&#45;modules&#45;9.1&#45;r1</text>
</a>
</g>
</g>
<!-- dependency7707 -->
<g id="node2" class="node">
<title>dependency7707</title>
<polygon fill="none" stroke="blue" points="683,-974 683,-1074 788,-1074 788,-974 683,-974"/>
<text text-anchor="start" x="713.82" y="-1021" font-family="Helvetica,sans-Serif" font-size="10.00">pack_dep</text>
<polygon fill="none" stroke="blue" points="788,-1054 788,-1074 898,-1074 898,-1054 788,-1054"/>
<text text-anchor="start" x="837.44" y="-1061" font-family="Helvetica,sans-Serif" font-size="10.00">no</text>
<polygon fill="none" stroke="blue" points="788,-1034 788,-1054 898,-1054 898,-1034 788,-1034"/>
<text text-anchor="start" x="817.16" y="-1041" font-family="Helvetica,sans-Serif" font-size="10.00">sys&#45;freebsd</text>
<polygon fill="none" stroke="blue" points="788,-1014 788,-1034 898,-1034 898,-1014 788,-1014"/>
<text text-anchor="start" x="806.88" y="-1021" font-family="Helvetica,sans-Serif" font-size="10.00">freebsd&#45;mk&#45;defs</text>
<polygon fill="none" stroke="blue" points="788,-994 788,-1014 898,-1014 898,-994 788,-994"/>
<text text-anchor="start" x="830.77" y="-1001" font-family="Helvetica,sans-Serif" font-size="10.00">equal</text>
<polygon fill="none" stroke="blue" points="788,-974 788,-994 898,-994 898,-974 788,-974"/>
<text text-anchor="start" x="834.1" y="-981" font-family="Helvetica,sans-Serif" font-size="10.00">9.1*</text>
</g>
<!-- id&#45;&gt;dependency7707 -->
<g id="edge1" class="edge">
<title>id:e&#45;&gt;dependency7707:w</title>
<path fill="none" stroke="black" d="M490.5,-898C577.38,-937.53 575.34,-1018.08 663.94,-1023.69"/>
<polygon fill="black" stroke="black" points="674,-1024 663.87,-1028.19 669,-1023.85 664,-1023.69 664,-1023.69 664,-1023.69 669,-1023.85 664.14,-1019.19 674,-1024 674,-1024"/>
</g>
<!-- dependency7708 -->
<g id="node3" class="node">
<title>dependency7708</title>
<polygon fill="none" stroke="blue" points="683,-848 683,-948 788,-948 788,-848 683,-848"/>
<text text-anchor="start" x="713.82" y="-895" font-family="Helvetica,sans-Serif" font-size="10.00">pack_dep</text>
<polygon fill="none" stroke="blue" points="788,-928 788,-948 898,-948 898,-928 788,-928"/>
<text text-anchor="start" x="837.44" y="-935" font-family="Helvetica,sans-Serif" font-size="10.00">no</text>
<polygon fill="none" stroke="blue" points="788,-908 788,-928 898,-928 898,-908 788,-908"/>
<text text-anchor="start" x="817.16" y="-915" font-family="Helvetica,sans-Serif" font-size="10.00">sys&#45;freebsd</text>
<polygon fill="none" stroke="blue" points="788,-888 788,-908 898,-908 898,-888 788,-888"/>
<text text-anchor="start" x="807.15" y="-895" font-family="Helvetica,sans-Serif" font-size="10.00">freebsd&#45;sources</text>
<polygon fill="none" stroke="blue" points="788,-868 788,-888 898,-888 898,-868 788,-868"/>
<text text-anchor="start" x="830.77" y="-875" font-family="Helvetica,sans-Serif" font-size="10.00">equal</text>
<polygon fill="none" stroke="blue" points="788,-848 788,-868 898,-868 898,-848 788,-848"/>
<text text-anchor="start" x="834.1" y="-855" font-family="Helvetica,sans-Serif" font-size="10.00">9.1*</text>
</g>
<!-- id&#45;&gt;dependency7708 -->
<g id="edge2" class="edge">
<title>id:e&#45;&gt;dependency7708:w</title>
<path fill="none" stroke="black" d="M490.5,-898C561.54,-930.33 589.98,-900.78 663.78,-898.18"/>
<polygon fill="black" stroke="black" points="674,-898 664.08,-902.67 669,-898.09 664,-898.18 664,-898.18 664,-898.18 669,-898.09 663.92,-893.68 674,-898 674,-898"/>
</g>
<!-- dependency7709 -->
<g id="node4" class="node">
<title>dependency7709</title>
<polygon fill="none" stroke="blue" points="683,-732 683,-822 788,-822 788,-732 683,-732"/>
<text text-anchor="start" x="713.82" y="-774" font-family="Helvetica,sans-Serif" font-size="10.00">pack_dep</text>
<polygon fill="none" stroke="blue" points="788,-802 788,-822 898,-822 898,-802 788,-802"/>
<text text-anchor="start" x="837.44" y="-809" font-family="Helvetica,sans-Serif" font-size="10.00">no</text>
<polygon fill="none" stroke="blue" points="788,-782 788,-802 898,-802 898,-782 788,-782"/>
<text text-anchor="start" x="829.66" y="-789" font-family="Helvetica,sans-Serif" font-size="10.00">virtual</text>
<polygon fill="none" stroke="blue" points="788,-762 788,-782 898,-782 898,-762 788,-762"/>
<text text-anchor="start" x="827.99" y="-769" font-family="Helvetica,sans-Serif" font-size="10.00">pmake</text>
<polygon fill="none" stroke="blue" points="788,-742 788,-762 898,-762 898,-742 788,-742"/>
<text text-anchor="start" x="831.88" y="-749" font-family="Helvetica,sans-Serif" font-size="10.00">none</text>
<polygon fill="none" stroke="blue" points="788,-732 788,-742 898,-742 898,-732 788,-732"/>
</g>
<!-- id&#45;&gt;dependency7709 -->
<g id="edge3" class="edge">
<title>id:e&#45;&gt;dependency7709:w</title>
<path fill="none" stroke="black" d="M490.5,-898C576.2,-937 576.41,-788.4 663.8,-777.62"/>
<polygon fill="black" stroke="black" points="674,-777 664.29,-782.09 669.01,-777.3 664.02,-777.6 664.02,-777.6 664.02,-777.6 669.01,-777.3 663.75,-773.11 674,-777 674,-777"/>
<path fill="none" stroke="black" d="M305,-524C399.43,-524 354.38,-631.23 396,-716 435.99,-797.45 405.91,-860.42 488.5,-898"/>
</g>
<!-- dependency7710 -->
<g id="node5" class="node">
<title>dependency7710</title>
<polygon fill="none" stroke="red" points="420.5,-504 420.5,-544 511.5,-544 511.5,-504 420.5,-504"/>
<text text-anchor="start" x="431.25" y="-521" font-family="Helvetica,sans-Serif" font-size="10.00">use_conditional</text>
<polygon fill="none" stroke="red" points="511.5,-524 511.5,-544 559.5,-544 559.5,-524 511.5,-524"/>
<text text-anchor="start" x="518.55" y="-531" font-family="Helvetica,sans-Serif" font-size="10.00">positive</text>
<polygon fill="none" stroke="red" points="511.5,-504 511.5,-524 559.5,-524 559.5,-504 511.5,-504"/>
<text text-anchor="start" x="516.05" y="-511" font-family="Helvetica,sans-Serif" font-size="10.00">kerberos</text>
</g>
<!-- id&#45;&gt;dependency7710 -->
<g id="edge6" class="edge">
<title>id:e&#45;&gt;dependency7710:w</title>
<path fill="none" stroke="black" d="M305,-524C345.11,-524 359.49,-524 392.16,-524"/>
<ellipse fill="none" stroke="black" cx="406.5" cy="-524" rx="4" ry="4"/>
<polygon fill="black" stroke="black" points="402.5,-524 392.5,-528.5 397.5,-524 392.5,-524 392.5,-524 392.5,-524 397.5,-524 392.5,-519.5 402.5,-524 402.5,-524"/>
</g>
<!-- dependency7713 -->
<g id="node8" class="node">
<title>dependency7713</title>
<polygon fill="none" stroke="blue" points="683,-241 683,-341 788,-341 788,-241 683,-241"/>
<text text-anchor="start" x="713.82" y="-288" font-family="Helvetica,sans-Serif" font-size="10.00">pack_dep</text>
<polygon fill="none" stroke="blue" points="788,-321 788,-341 898,-341 898,-321 788,-321"/>
<text text-anchor="start" x="837.44" y="-328" font-family="Helvetica,sans-Serif" font-size="10.00">no</text>
<polygon fill="none" stroke="blue" points="788,-301 788,-321 898,-321 898,-301 788,-301"/>
<text text-anchor="start" x="824.1" y="-308" font-family="Helvetica,sans-Serif" font-size="10.00">sys&#45;auth</text>
<polygon fill="none" stroke="blue" points="788,-281 788,-301 898,-301 898,-281 788,-281"/>
<text text-anchor="start" x="822.15" y="-288" font-family="Helvetica,sans-Serif" font-size="10.00">openpam</text>
<polygon fill="none" stroke="blue" points="788,-261 788,-281 898,-281 898,-261 788,-261"/>
<text text-anchor="start" x="814.92" y="-268" font-family="Helvetica,sans-Serif" font-size="10.00">greaterequal</text>
<polygon fill="none" stroke="blue" points="788,-241 788,-261 898,-261 898,-241 788,-241"/>
<text text-anchor="start" x="814.64" y="-248" font-family="Helvetica,sans-Serif" font-size="10.00">20050201&#45;r1</text>
</g>
<!-- id&#45;&gt;dependency7713 -->
<g id="edge7" class="edge">
<title>id:e&#45;&gt;dependency7713:w</title>
<path fill="none" stroke="black" d="M305,-524C396.2,-524 556.44,-317.93 655.87,-293.38"/>
<ellipse fill="none" stroke="black" cx="670.03" cy="-291.52" rx="4" ry="4"/>
<polygon fill="black" stroke="black" points="666.07,-292.04 656.74,-297.81 661.11,-292.69 656.15,-293.34 656.15,-293.34 656.15,-293.34 661.11,-292.69 655.57,-288.88 666.07,-292.04 666.07,-292.04"/>
</g>
<!-- choice1151211154510211410110198115100471021141011019811510045109107451001011021154549494649 -->
<g id="node9" class="node">
<title>choice1151211154510211410110198115100471021141011019811510045109107451001011021154549494649</title>
<g id="a_node9"><a xlink:href="../sys-freebsd/freebsd-mk-defs-11.1.svg" xlink:title="sys&#45;freebsd/freebsd&#45;mk&#45;defs&#45;11.1">
<ellipse fill="none" stroke="red" cx="1163" cy="-1060" rx="144" ry="18"/>
<text text-anchor="middle" x="1163" y="-1057" font-family="Helvetica,sans-Serif" font-size="10.00">sys&#45;freebsd/freebsd&#45;mk&#45;defs&#45;11.1</text>
</a>
</g>
</g>
<!-- dependency7707&#45;&gt;choice1151211154510211410110198115100471021141011019811510045109107451001011021154549494649 -->
<g id="edge8" class="edge">
<title>dependency7707:e&#45;&gt;choice1151211154510211410110198115100471021141011019811510045109107451001011021154549494649:w</title>
<path fill="none" stroke="black" stroke-dasharray="1,5" d="M912,-1024C958.16,-1024 967.08,-1054.98 1007.86,-1059.46"/>
<polygon fill="black" stroke="black" points="1018,-1060 1007.78,-1063.97 1013.01,-1059.74 1008.01,-1059.47 1008.01,-1059.47 1008.01,-1059.47 1013.01,-1059.74 1008.25,-1054.98 1018,-1060 1018,-1060"/>
</g>
<!-- choice11512111545102114101101981151004710211410110198115100451091074510010110211545574649 -->
<g id="node10" class="node">
<title>choice11512111545102114101101981151004710211410110198115100451091074510010110211545574649</title>
<g id="a_node10"><a xlink:href="../sys-freebsd/freebsd-mk-defs-9.1.svg" xlink:title="sys&#45;freebsd/freebsd&#45;mk&#45;defs&#45;9.1">
<ellipse fill="none" stroke="red" cx="1163" cy="-1006" rx="144" ry="18"/>
<text text-anchor="middle" x="1163" y="-1003" font-family="Helvetica,sans-Serif" font-size="10.00">sys&#45;freebsd/freebsd&#45;mk&#45;defs&#45;9.1</text>
</a>
</g>
</g>
<!-- dependency7707&#45;&gt;choice11512111545102114101101981151004710211410110198115100451091074510010110211545574649 -->
<g id="edge9" class="edge">
<title>dependency7707:e&#45;&gt;choice11512111545102114101101981151004710211410110198115100451091074510010110211545574649:w</title>
<path fill="none" stroke="black" stroke-dasharray="1,5" d="M912,-1024C956.24,-1024 968.46,-1008.57 1007.95,-1006.28"/>
<polygon fill="black" stroke="black" points="1018,-1006 1008.13,-1010.78 1013,-1006.14 1008,-1006.28 1008,-1006.28 1008,-1006.28 1013,-1006.14 1007.88,-1001.78 1018,-1006 1018,-1006"/>
</g>
<!-- choice11512111545102114101101981151004710211410110198115100451151111171149910111545494946499511250 -->
<g id="node11" class="node">
<title>choice11512111545102114101101981151004710211410110198115100451151111171149910111545494946499511250</title>
<g id="a_node11"><a xlink:href="../sys-freebsd/freebsd-sources-11.1_p2.svg" xlink:title="sys&#45;freebsd/freebsd&#45;sources&#45;11.1_p2">
<ellipse fill="none" stroke="red" cx="1163" cy="-844" rx="144" ry="18"/>
<text text-anchor="middle" x="1163" y="-841" font-family="Helvetica,sans-Serif" font-size="10.00">sys&#45;freebsd/freebsd&#45;sources&#45;11.1_p2</text>
</a>
</g>
</g>
<!-- dependency7708&#45;&gt;choice11512111545102114101101981151004710211410110198115100451151111171149910111545494946499511250 -->
<g id="edge10" class="edge">
<title>dependency7708:e&#45;&gt;choice11512111545102114101101981151004710211410110198115100451151111171149910111545494946499511250:w</title>
<path fill="none" stroke="black" stroke-dasharray="1,5" d="M912,-898C961.26,-898 964.85,-851.13 1007.86,-844.72"/>
<polygon fill="black" stroke="black" points="1018,-844 1008.35,-849.2 1013.01,-844.36 1008.03,-844.71 1008.03,-844.71 1008.03,-844.71 1013.01,-844.36 1007.71,-840.22 1018,-844 1018,-844"/>
</g>
<!-- choice115121115451021141011019811510047102114101101981151004511511111711499101115455746494511451 -->
<g id="node12" class="node">
<title>choice115121115451021141011019811510047102114101101981151004511511111711499101115455746494511451</title>
<g id="a_node12"><a xlink:href="../sys-freebsd/freebsd-sources-9.1-r3.svg" xlink:title="sys&#45;freebsd/freebsd&#45;sources&#45;9.1&#45;r3">
<ellipse fill="none" stroke="red" cx="1163" cy="-952" rx="144" ry="18"/>
<text text-anchor="middle" x="1163" y="-949" font-family="Helvetica,sans-Serif" font-size="10.00">sys&#45;freebsd/freebsd&#45;sources&#45;9.1&#45;r3</text>
</a>
</g>
</g>
<!-- dependency7708&#45;&gt;choice115121115451021141011019811510047102114101101981151004511511111711499101115455746494511451 -->
<g id="edge11" class="edge">
<title>dependency7708:e&#45;&gt;choice115121115451021141011019811510047102114101101981151004511511111711499101115455746494511451:w</title>
<path fill="none" stroke="black" stroke-dasharray="1,5" d="M912,-898C961.26,-898 964.85,-944.87 1007.86,-951.28"/>
<polygon fill="black" stroke="black" points="1018,-952 1007.71,-955.78 1013.01,-951.64 1008.03,-951.29 1008.03,-951.29 1008.03,-951.29 1013.01,-951.64 1008.35,-946.8 1018,-952 1018,-952"/>
</g>
<!-- choice115121115451021141011019811510047102114101101981151004511511111711499101115455746494511457 -->
<g id="node13" class="node">
<title>choice115121115451021141011019811510047102114101101981151004511511111711499101115455746494511457</title>
<g id="a_node13"><a xlink:href="../sys-freebsd/freebsd-sources-9.1-r9.svg" xlink:title="sys&#45;freebsd/freebsd&#45;sources&#45;9.1&#45;r9">
<ellipse fill="none" stroke="red" cx="1163" cy="-898" rx="144" ry="18"/>
<text text-anchor="middle" x="1163" y="-895" font-family="Helvetica,sans-Serif" font-size="10.00">sys&#45;freebsd/freebsd&#45;sources&#45;9.1&#45;r9</text>
</a>
</g>
</g>
<!-- dependency7708&#45;&gt;choice115121115451021141011019811510047102114101101981151004511511111711499101115455746494511457 -->
<g id="edge12" class="edge">
<title>dependency7708:e&#45;&gt;choice115121115451021141011019811510047102114101101981151004511511111711499101115455746494511457:w</title>
<path fill="none" stroke="black" stroke-dasharray="1,5" d="M912,-898C955.43,-898 968.83,-898 1007.57,-898"/>
<polygon fill="black" stroke="black" points="1018,-898 1008,-902.5 1013,-898 1008,-898 1008,-898 1008,-898 1013,-898 1008,-893.5 1018,-898 1018,-898"/>
</g>
<!-- choice1181051141161179710847112109971071014549 -->
<g id="node14" class="node">
<title>choice1181051141161179710847112109971071014549</title>
<g id="a_node14"><a xlink:href="../virtual/pmake-1.svg" xlink:title="virtual/pmake&#45;1">
<ellipse fill="none" stroke="red" cx="1163" cy="-790" rx="144" ry="18"/>
<text text-anchor="middle" x="1163" y="-787" font-family="Helvetica,sans-Serif" font-size="10.00">virtual/pmake&#45;1</text>
</a>
</g>
</g>
<!-- dependency7709&#45;&gt;choice1181051141161179710847112109971071014549 -->
<g id="edge13" class="edge">
<title>dependency7709:e&#45;&gt;choice1181051141161179710847112109971071014549:w</title>
<path fill="none" stroke="black" stroke-dasharray="1,5" d="M912,-777C955.76,-777 968.58,-788.05 1007.51,-789.77"/>
<polygon fill="black" stroke="black" points="1018,-790 1007.91,-794.28 1013,-789.89 1008,-789.78 1008,-789.78 1008,-789.78 1013,-789.89 1008.1,-785.29 1018,-790 1018,-790"/>
</g>
<!-- dependency7711 -->
<g id="node6" class="node">
<title>dependency7711</title>
<polygon fill="none" stroke="blue" points="683,-367 683,-457 788,-457 788,-367 683,-367"/>
<text text-anchor="start" x="713.82" y="-409" font-family="Helvetica,sans-Serif" font-size="10.00">pack_dep</text>
<polygon fill="none" stroke="blue" points="788,-437 788,-457 898,-457 898,-437 788,-437"/>
<text text-anchor="start" x="837.44" y="-444" font-family="Helvetica,sans-Serif" font-size="10.00">no</text>
<polygon fill="none" stroke="blue" points="788,-417 788,-437 898,-437 898,-417 788,-417"/>
<text text-anchor="start" x="825.77" y="-424" font-family="Helvetica,sans-Serif" font-size="10.00">dev&#45;libs</text>
<polygon fill="none" stroke="blue" points="788,-397 788,-417 898,-417 898,-397 788,-397"/>
<text text-anchor="start" x="825.77" y="-404" font-family="Helvetica,sans-Serif" font-size="10.00">openssl</text>
<polygon fill="none" stroke="blue" points="788,-377 788,-397 898,-397 898,-377 788,-377"/>
<text text-anchor="start" x="831.88" y="-384" font-family="Helvetica,sans-Serif" font-size="10.00">none</text>
<polygon fill="none" stroke="blue" points="788,-367 788,-377 898,-377 898,-367 788,-367"/>
</g>
<!-- dependency7710&#45;&gt;dependency7711 -->
<g id="edge4" class="edge">
<title>dependency7710:e&#45;&gt;dependency7711:w</title>
<path fill="none" stroke="black" stroke-dasharray="5,2" d="M567,-524C632.21,-524 608.12,-423.5 663.91,-412.9"/>
<polygon fill="black" stroke="black" points="674,-412 664.44,-417.37 669.02,-412.45 664.04,-412.89 664.04,-412.89 664.04,-412.89 669.02,-412.45 663.64,-408.41 674,-412 674,-412"/>
</g>
<!-- dependency7712 -->
<g id="node7" class="node">
<title>dependency7712</title>
<polygon fill="none" stroke="blue" points="683,-592 683,-682 788,-682 788,-592 683,-592"/>
<text text-anchor="start" x="713.82" y="-634" font-family="Helvetica,sans-Serif" font-size="10.00">pack_dep</text>
<polygon fill="none" stroke="blue" points="788,-662 788,-682 898,-682 898,-662 788,-662"/>
<text text-anchor="start" x="837.44" y="-669" font-family="Helvetica,sans-Serif" font-size="10.00">no</text>
<polygon fill="none" stroke="blue" points="788,-642 788,-662 898,-662 898,-642 788,-642"/>
<text text-anchor="start" x="829.66" y="-649" font-family="Helvetica,sans-Serif" font-size="10.00">virtual</text>
<polygon fill="none" stroke="blue" points="788,-622 788,-642 898,-642 898,-622 788,-622"/>
<text text-anchor="start" x="833.27" y="-629" font-family="Helvetica,sans-Serif" font-size="10.00">krb5</text>
<polygon fill="none" stroke="blue" points="788,-602 788,-622 898,-622 898,-602 788,-602"/>
<text text-anchor="start" x="831.88" y="-609" font-family="Helvetica,sans-Serif" font-size="10.00">none</text>
<polygon fill="none" stroke="blue" points="788,-592 788,-602 898,-602 898,-592 788,-592"/>
</g>
<!-- dependency7710&#45;&gt;dependency7712 -->
<g id="edge5" class="edge">
<title>dependency7710:e&#45;&gt;dependency7712:w</title>
<path fill="none" stroke="black" stroke-dasharray="5,2" d="M567,-524C632.52,-524 607.86,-625.4 663.87,-636.09"/>
<polygon fill="black" stroke="black" points="674,-637 663.64,-640.59 669.02,-636.55 664.04,-636.11 664.04,-636.11 664.04,-636.11 669.02,-636.55 664.44,-631.62 674,-637 674,-637"/>
</g>
<!-- choice1001011184510810598115471111121011101151151084549464946481034511451 -->
<g id="node15" class="node">
<title>choice1001011184510810598115471111121011101151151084549464946481034511451</title>
<g id="a_node15"><a xlink:href="../dev-libs/openssl-1.1.0g-r3.svg" xlink:title="dev&#45;libs/openssl&#45;1.1.0g&#45;r3">
<ellipse fill="none" stroke="red" cx="1163" cy="-196" rx="144" ry="18"/>
<text text-anchor="middle" x="1163" y="-193" font-family="Helvetica,sans-Serif" font-size="10.00">dev&#45;libs/openssl&#45;1.1.0g&#45;r3</text>
</a>
</g>
</g>
<!-- dependency7711&#45;&gt;choice1001011184510810598115471111121011101151151084549464946481034511451 -->
<g id="edge14" class="edge">
<title>dependency7711:e&#45;&gt;choice1001011184510810598115471111121011101151151084549464946481034511451:w</title>
<path fill="none" stroke="black" stroke-dasharray="1,5" d="M912,-412C1015.28,-412 918.19,-210.51 1007.77,-196.74"/>
<polygon fill="black" stroke="black" points="1018,-196 1008.35,-201.21 1013.01,-196.36 1008.03,-196.72 1008.03,-196.72 1008.03,-196.72 1013.01,-196.36 1007.7,-192.23 1018,-196 1018,-196"/>
</g>
<!-- choice100101118451081059811547111112101110115115108454946494648104 -->
<g id="node16" class="node">
<title>choice100101118451081059811547111112101110115115108454946494648104</title>
<g id="a_node16"><a xlink:href="../dev-libs/openssl-1.1.0h.svg" xlink:title="dev&#45;libs/openssl&#45;1.1.0h">
<ellipse fill="none" stroke="red" cx="1163" cy="-142" rx="144" ry="18"/>
<text text-anchor="middle" x="1163" y="-139" font-family="Helvetica,sans-Serif" font-size="10.00">dev&#45;libs/openssl&#45;1.1.0h</text>
</a>
</g>
</g>
<!-- dependency7711&#45;&gt;choice100101118451081059811547111112101110115115108454946494648104 -->
<g id="edge15" class="edge">
<title>dependency7711:e&#45;&gt;choice100101118451081059811547111112101110115115108454946494648104:w</title>
<path fill="none" stroke="black" stroke-dasharray="1,5" d="M912,-412C1037.27,-412 897.46,-157.08 1007.71,-142.64"/>
<polygon fill="black" stroke="black" points="1018,-142 1008.3,-147.11 1013.01,-142.31 1008.02,-142.62 1008.02,-142.62 1008.02,-142.62 1013.01,-142.31 1007.74,-138.13 1018,-142 1018,-142"/>
</g>
<!-- choice1001011184510810598115471111121011101151151084549464946499511211410153 -->
<g id="node17" class="node">
<title>choice1001011184510810598115471111121011101151151084549464946499511211410153</title>
<g id="a_node17"><a xlink:href="../dev-libs/openssl-1.1.1_pre5.svg" xlink:title="dev&#45;libs/openssl&#45;1.1.1_pre5">
<ellipse fill="none" stroke="red" cx="1163" cy="-628" rx="144" ry="18"/>
<text text-anchor="middle" x="1163" y="-625" font-family="Helvetica,sans-Serif" font-size="10.00">dev&#45;libs/openssl&#45;1.1.1_pre5</text>
</a>
</g>
</g>
<!-- dependency7711&#45;&gt;choice1001011184510810598115471111121011101151151084549464946499511211410153 -->
<g id="edge16" class="edge">
<title>dependency7711:e&#45;&gt;choice1001011184510810598115471111121011101151151084549464946499511211410153:w</title>
<path fill="none" stroke="black" stroke-dasharray="1,5" d="M912,-412C1015.28,-412 918.19,-613.49 1007.77,-627.26"/>
<polygon fill="black" stroke="black" points="1018,-628 1007.7,-631.77 1013.01,-627.64 1008.03,-627.28 1008.03,-627.28 1008.03,-627.28 1013.01,-627.64 1008.35,-622.79 1018,-628 1018,-628"/>
</g>
<!-- choice1001011184510810598115471111121011101151151084548465746561229511256 -->
<g id="node18" class="node">
<title>choice1001011184510810598115471111121011101151151084548465746561229511256</title>
<g id="a_node18"><a xlink:href="../dev-libs/openssl-0.9.8z_p8.svg" xlink:title="dev&#45;libs/openssl&#45;0.9.8z_p8">
<ellipse fill="none" stroke="red" cx="1163" cy="-574" rx="144" ry="18"/>
<text text-anchor="middle" x="1163" y="-571" font-family="Helvetica,sans-Serif" font-size="10.00">dev&#45;libs/openssl&#45;0.9.8z_p8</text>
</a>
</g>
</g>
<!-- dependency7711&#45;&gt;choice1001011184510810598115471111121011101151151084548465746561229511256 -->
<g id="edge17" class="edge">
<title>dependency7711:e&#45;&gt;choice1001011184510810598115471111121011101151151084548465746561229511256:w</title>
<path fill="none" stroke="black" stroke-dasharray="1,5" d="M912,-412C994.35,-412 937.36,-560.38 1007.73,-573.13"/>
<polygon fill="black" stroke="black" points="1018,-574 1007.66,-577.64 1013.02,-573.58 1008.04,-573.15 1008.04,-573.15 1008.04,-573.15 1013.02,-573.58 1008.42,-568.67 1018,-574 1018,-574"/>
</g>
<!-- choice10010111845108105981154711111210111011511510845484657465612295112564511449 -->
<g id="node19" class="node">
<title>choice10010111845108105981154711111210111011511510845484657465612295112564511449</title>
<g id="a_node19"><a xlink:href="../dev-libs/openssl-0.9.8z_p8-r1.svg" xlink:title="dev&#45;libs/openssl&#45;0.9.8z_p8&#45;r1">
<ellipse fill="none" stroke="red" cx="1163" cy="-520" rx="144" ry="18"/>
<text text-anchor="middle" x="1163" y="-517" font-family="Helvetica,sans-Serif" font-size="10.00">dev&#45;libs/openssl&#45;0.9.8z_p8&#45;r1</text>
</a>
</g>
</g>
<!-- dependency7711&#45;&gt;choice10010111845108105981154711111210111011511510845484657465612295112564511449 -->
<g id="edge18" class="edge">
<title>dependency7711:e&#45;&gt;choice10010111845108105981154711111210111011511510845484657465612295112564511449:w</title>
<path fill="none" stroke="black" stroke-dasharray="1,5" d="M912,-412C975.58,-412 953.58,-508.51 1007.79,-519.07"/>
<polygon fill="black" stroke="black" points="1018,-520 1007.63,-523.57 1013.02,-519.54 1008.04,-519.09 1008.04,-519.09 1008.04,-519.09 1013.02,-519.54 1008.45,-514.61 1018,-520 1018,-520"/>
</g>
<!-- choice100101118451081059811547111112101110115115108454946484650110 -->
<g id="node20" class="node">
<title>choice100101118451081059811547111112101110115115108454946484650110</title>
<g id="a_node20"><a xlink:href="../dev-libs/openssl-1.0.2n.svg" xlink:title="dev&#45;libs/openssl&#45;1.0.2n">
<ellipse fill="none" stroke="red" cx="1163" cy="-466" rx="144" ry="18"/>
<text text-anchor="middle" x="1163" y="-463" font-family="Helvetica,sans-Serif" font-size="10.00">dev&#45;libs/openssl&#45;1.0.2n</text>
</a>
</g>
</g>
<!-- dependency7711&#45;&gt;choice100101118451081059811547111112101110115115108454946484650110 -->
<g id="edge19" class="edge">
<title>dependency7711:e&#45;&gt;choice100101118451081059811547111112101110115115108454946484650110:w</title>
<path fill="none" stroke="black" stroke-dasharray="1,5" d="M912,-412C961.26,-412 964.85,-458.87 1007.86,-465.28"/>
<polygon fill="black" stroke="black" points="1018,-466 1007.71,-469.78 1013.01,-465.64 1008.03,-465.29 1008.03,-465.29 1008.03,-465.29 1013.01,-465.64 1008.35,-460.8 1018,-466 1018,-466"/>
</g>
<!-- choice100101118451081059811547111112101110115115108454946484650111 -->
<g id="node21" class="node">
<title>choice100101118451081059811547111112101110115115108454946484650111</title>
<g id="a_node21"><a xlink:href="../dev-libs/openssl-1.0.2o.svg" xlink:title="dev&#45;libs/openssl&#45;1.0.2o">
<ellipse fill="none" stroke="red" cx="1163" cy="-412" rx="144" ry="18"/>
<text text-anchor="middle" x="1163" y="-409" font-family="Helvetica,sans-Serif" font-size="10.00">dev&#45;libs/openssl&#45;1.0.2o</text>
</a>
</g>
</g>
<!-- dependency7711&#45;&gt;choice100101118451081059811547111112101110115115108454946484650111 -->
<g id="edge20" class="edge">
<title>dependency7711:e&#45;&gt;choice100101118451081059811547111112101110115115108454946484650111:w</title>
<path fill="none" stroke="black" stroke-dasharray="1,5" d="M912,-412C955.43,-412 968.83,-412 1007.57,-412"/>
<polygon fill="black" stroke="black" points="1018,-412 1008,-416.5 1013,-412 1008,-412 1008,-412 1008,-412 1013,-412 1008,-407.5 1018,-412 1018,-412"/>
</g>
<!-- choice1001011184510810598115471111121011101151151084549464846501114511449 -->
<g id="node22" class="node">
<title>choice1001011184510810598115471111121011101151151084549464846501114511449</title>
<g id="a_node22"><a xlink:href="../dev-libs/openssl-1.0.2o-r1.svg" xlink:title="dev&#45;libs/openssl&#45;1.0.2o&#45;r1">
<ellipse fill="none" stroke="red" cx="1163" cy="-358" rx="144" ry="18"/>
<text text-anchor="middle" x="1163" y="-355" font-family="Helvetica,sans-Serif" font-size="10.00">dev&#45;libs/openssl&#45;1.0.2o&#45;r1</text>
</a>
</g>
</g>
<!-- dependency7711&#45;&gt;choice1001011184510810598115471111121011101151151084549464846501114511449 -->
<g id="edge21" class="edge">
<title>dependency7711:e&#45;&gt;choice1001011184510810598115471111121011101151151084549464846501114511449:w</title>
<path fill="none" stroke="black" stroke-dasharray="1,5" d="M912,-412C961.26,-412 964.85,-365.13 1007.86,-358.72"/>
<polygon fill="black" stroke="black" points="1018,-358 1008.35,-363.2 1013.01,-358.36 1008.03,-358.71 1008.03,-358.71 1008.03,-358.71 1013.01,-358.36 1007.71,-354.22 1018,-358 1018,-358"/>
</g>
<!-- choice1001011184510810598115471111121011101151151084549464946481044511449 -->
<g id="node23" class="node">
<title>choice1001011184510810598115471111121011101151151084549464946481044511449</title>
<g id="a_node23"><a xlink:href="../dev-libs/openssl-1.1.0h-r1.svg" xlink:title="dev&#45;libs/openssl&#45;1.1.0h&#45;r1">
<ellipse fill="none" stroke="red" cx="1163" cy="-304" rx="144" ry="18"/>
<text text-anchor="middle" x="1163" y="-301" font-family="Helvetica,sans-Serif" font-size="10.00">dev&#45;libs/openssl&#45;1.1.0h&#45;r1</text>
</a>
</g>
</g>
<!-- dependency7711&#45;&gt;choice1001011184510810598115471111121011101151151084549464946481044511449 -->
<g id="edge22" class="edge">
<title>dependency7711:e&#45;&gt;choice1001011184510810598115471111121011101151151084549464946481044511449:w</title>
<path fill="none" stroke="black" stroke-dasharray="1,5" d="M912,-412C975.58,-412 953.58,-315.49 1007.79,-304.93"/>
<polygon fill="black" stroke="black" points="1018,-304 1008.45,-309.39 1013.02,-304.46 1008.04,-304.91 1008.04,-304.91 1008.04,-304.91 1013.02,-304.46 1007.63,-300.43 1018,-304 1018,-304"/>
</g>
<!-- choice1001011184510810598115471111121011101151151084549464946499511211410154 -->
<g id="node24" class="node">
<title>choice1001011184510810598115471111121011101151151084549464946499511211410154</title>
<g id="a_node24"><a xlink:href="../dev-libs/openssl-1.1.1_pre6.svg" xlink:title="dev&#45;libs/openssl&#45;1.1.1_pre6">
<ellipse fill="none" stroke="red" cx="1163" cy="-250" rx="144" ry="18"/>
<text text-anchor="middle" x="1163" y="-247" font-family="Helvetica,sans-Serif" font-size="10.00">dev&#45;libs/openssl&#45;1.1.1_pre6</text>
</a>
</g>
</g>
<!-- dependency7711&#45;&gt;choice1001011184510810598115471111121011101151151084549464946499511211410154 -->
<g id="edge23" class="edge">
<title>dependency7711:e&#45;&gt;choice1001011184510810598115471111121011101151151084549464946499511211410154:w</title>
<path fill="none" stroke="black" stroke-dasharray="1,5" d="M912,-412C994.35,-412 937.36,-263.62 1007.73,-250.87"/>
<polygon fill="black" stroke="black" points="1018,-250 1008.42,-255.33 1013.02,-250.42 1008.04,-250.85 1008.04,-250.85 1008.04,-250.85 1013.02,-250.42 1007.66,-246.36 1018,-250 1018,-250"/>
</g>
<!-- choice118105114116117971084710711498534548 -->
<g id="node25" class="node">
<title>choice118105114116117971084710711498534548</title>
<g id="a_node25"><a xlink:href="../virtual/krb5-0.svg" xlink:title="virtual/krb5&#45;0">
<ellipse fill="none" stroke="red" cx="1163" cy="-736" rx="144" ry="18"/>
<text text-anchor="middle" x="1163" y="-733" font-family="Helvetica,sans-Serif" font-size="10.00">virtual/krb5&#45;0</text>
</a>
</g>
</g>
<!-- dependency7712&#45;&gt;choice118105114116117971084710711498534548 -->
<g id="edge24" class="edge">
<title>dependency7712:e&#45;&gt;choice118105114116117971084710711498534548:w</title>
<path fill="none" stroke="black" stroke-dasharray="1,5" d="M912,-637C972.81,-637 955.85,-725.1 1007.86,-735.08"/>
<polygon fill="black" stroke="black" points="1018,-736 1007.64,-739.58 1013.02,-735.55 1008.04,-735.1 1008.04,-735.1 1008.04,-735.1 1013.02,-735.55 1008.45,-730.62 1018,-736 1018,-736"/>
</g>
<!-- choice1181051141161179710847107114985345484511449 -->
<g id="node26" class="node">
<title>choice1181051141161179710847107114985345484511449</title>
<g id="a_node26"><a xlink:href="../virtual/krb5-0-r1.svg" xlink:title="virtual/krb5&#45;0&#45;r1">
<ellipse fill="none" stroke="red" cx="1163" cy="-682" rx="144" ry="18"/>
<text text-anchor="middle" x="1163" y="-679" font-family="Helvetica,sans-Serif" font-size="10.00">virtual/krb5&#45;0&#45;r1</text>
</a>
</g>
</g>
<!-- dependency7712&#45;&gt;choice1181051141161179710847107114985345484511449 -->
<g id="edge25" class="edge">
<title>dependency7712:e&#45;&gt;choice1181051141161179710847107114985345484511449:w</title>
<path fill="none" stroke="black" stroke-dasharray="1,5" d="M912,-637C959.58,-637 966.07,-675.89 1007.88,-681.36"/>
<polygon fill="black" stroke="black" points="1018,-682 1007.74,-685.86 1013.01,-681.69 1008.02,-681.37 1008.02,-681.37 1008.02,-681.37 1013.01,-681.69 1008.3,-676.88 1018,-682 1018,-682"/>
</g>
<!-- choice115121115459711711610447111112101110112971094550484952485749504511449 -->
<g id="node27" class="node">
<title>choice115121115459711711610447111112101110112971094550484952485749504511449</title>
<g id="a_node27"><a xlink:href="../sys-auth/openpam-20140912-r1.svg" xlink:title="sys&#45;auth/openpam&#45;20140912&#45;r1">
<ellipse fill="none" stroke="red" cx="1163" cy="-88" rx="144" ry="18"/>
<text text-anchor="middle" x="1163" y="-85" font-family="Helvetica,sans-Serif" font-size="10.00">sys&#45;auth/openpam&#45;20140912&#45;r1</text>
</a>
</g>
</g>
<!-- dependency7713&#45;&gt;choice115121115459711711610447111112101110112971094550484952485749504511449 -->
<g id="edge26" class="edge">
<title>dependency7713:e&#45;&gt;choice115121115459711711610447111112101110112971094550484952485749504511449:w</title>
<path fill="none" stroke="black" stroke-dasharray="1,5" d="M912,-291C1010.2,-291 922.83,-102.02 1007.99,-88.74"/>
<polygon fill="black" stroke="black" points="1018,-88 1008.36,-93.22 1013.01,-88.37 1008.03,-88.73 1008.03,-88.73 1008.03,-88.73 1013.01,-88.37 1007.7,-84.24 1018,-88 1018,-88"/>
</g>
<!-- choice115121115459711711610447111112101110112971094550484952485749504511450 -->
<g id="node28" class="node">
<title>choice115121115459711711610447111112101110112971094550484952485749504511450</title>
<g id="a_node28"><a xlink:href="../sys-auth/openpam-20140912-r2.svg" xlink:title="sys&#45;auth/openpam&#45;20140912&#45;r2">
<ellipse fill="none" stroke="red" cx="1163" cy="-34" rx="144" ry="18"/>
<text text-anchor="middle" x="1163" y="-31" font-family="Helvetica,sans-Serif" font-size="10.00">sys&#45;auth/openpam&#45;20140912&#45;r2</text>
</a>
</g>
</g>
<!-- dependency7713&#45;&gt;choice115121115459711711610447111112101110112971094550484952485749504511450 -->
<g id="edge27" class="edge">
<title>dependency7713:e&#45;&gt;choice115121115459711711610447111112101110112971094550484952485749504511450:w</title>
<path fill="none" stroke="black" stroke-dasharray="1,5" d="M912,-291C1031.94,-291 902.48,-48.84 1007.81,-34.65"/>
<polygon fill="black" stroke="black" points="1018,-34 1008.31,-39.13 1013.01,-34.32 1008.02,-34.64 1008.02,-34.64 1008.02,-34.64 1013.01,-34.32 1007.73,-30.14 1018,-34 1018,-34"/>
</g>
</g>
</svg>
