<?xml version="1.0" encoding="UTF-8" standalone="no"?>
<!DOCTYPE svg PUBLIC "-//W3C//DTD SVG 1.1//EN"
 "http://www.w3.org/Graphics/SVG/1.1/DTD/svg11.dtd">
<!-- Generated by graphviz version 2.44.1 (20200629.0846)
 -->
<!-- Title: prolog Pages: 1 -->
<svg width="1326pt" height="213pt"
 viewBox="0.00 0.00 1326.00 213.00" xmlns="http://www.w3.org/2000/svg" xmlns:xlink="http://www.w3.org/1999/xlink">
<g id="graph0" class="graph" transform="scale(1 1) rotate(0) translate(4 209)">
<title>prolog</title>
<polygon fill="white" stroke="transparent" points="-4,4 -4,-209 1322,-209 1322,4 -4,4"/>
<g id="clust1" class="cluster">
<title>cluster_leftcol</title>
<polygon fill="none" stroke="gray" points="8,-62 8,-134 312,-134 312,-62 8,-62"/>
<text text-anchor="start" x="146.66" y="-122" font-family="Helvetica,sans-Serif" font-style="italic" font-size="10.00">ebuild</text>
</g>
<g id="clust2" class="cluster">
<title>cluster_midcol</title>
<polygon fill="none" stroke="gray" points="396,-19 396,-197 922,-197 922,-19 396,-19"/>
<text text-anchor="start" x="627.88" y="-185" font-family="Helvetica,sans-Serif" font-style="italic" font-size="10.00">dependencies</text>
</g>
<g id="clust3" class="cluster">
<title>cluster_compile</title>
<polygon fill="#eeeeee" stroke="gray" points="404,-27 404,-169 914,-169 914,-27 404,-27"/>
<text text-anchor="start" x="641.78" y="-157" font-family="Helvetica,sans-Serif" font-style="italic" font-size="10.00">compile</text>
</g>
<g id="clust8" class="cluster">
<title>cluster_choices</title>
<polygon fill="none" stroke="gray" points="1006,-8 1006,-188 1310,-188 1310,-8 1006,-8"/>
<text text-anchor="start" x="1133.82" y="-176" font-family="Helvetica,sans-Serif" font-style="italic" font-size="10.00">candidates</text>
</g>
<!-- id -->
<g id="node1" class="node">
<title>id</title>
<g id="a_node1"><a xlink:href="../app-doc/clsync-docs-0.4.2.svg" xlink:title="portage://app&#45;doc/clsync&#45;docs&#45;0.4.2">
<ellipse fill="none" stroke="red" cx="160" cy="-88" rx="144" ry="18"/>
<text text-anchor="middle" x="160" y="-85" font-family="Helvetica,sans-Serif" font-size="10.00">portage://app&#45;doc/clsync&#45;docs&#45;0.4.2</text>
</a>
</g>
</g>
<!-- dependency640082 -->
<g id="node2" class="node">
<title>dependency640082</title>
<polygon fill="none" stroke="red" points="420,-66 420,-110 511,-110 511,-66 420,-66"/>
<text text-anchor="start" x="430.77" y="-85" font-family="Helvetica,sans-Serif" font-size="10.00">use_conditional</text>
<polygon fill="none" stroke="red" points="511,-88 511,-110 554,-110 554,-88 511,-88"/>
<text text-anchor="start" x="515.55" y="-96" font-family="Helvetica,sans-Serif" font-size="10.00">positive</text>
<polygon fill="none" stroke="red" points="511,-66 511,-88 554,-88 554,-66 511,-66"/>
<text text-anchor="start" x="525.83" y="-74" font-family="Helvetica,sans-Serif" font-size="10.00">api</text>
</g>
<!-- id&#45;&gt;dependency640082 -->
<g id="edge2" class="edge">
<title>id:e&#45;&gt;dependency640082:w</title>
<path fill="none" stroke="black" d="M305,-88C348.43,-88 361.83,-88 400.57,-88"/>
<polygon fill="black" stroke="black" points="411,-88 401,-92.5 406,-88 401,-88 401,-88 401,-88 406,-88 401,-83.5 411,-88 411,-88"/>
</g>
<!-- dependency640083 -->
<g id="node3" class="node">
<title>dependency640083</title>
<polygon fill="none" stroke="blue" points="678,-39 678,-137 783,-137 783,-39 678,-39"/>
<text text-anchor="start" x="708.82" y="-85" font-family="Helvetica,sans-Serif" font-size="10.00">pack_dep</text>
<polygon fill="none" stroke="blue" points="783,-115 783,-137 893,-137 893,-115 783,-115"/>
<text text-anchor="start" x="832.44" y="-123" font-family="Helvetica,sans-Serif" font-size="10.00">no</text>
<polygon fill="none" stroke="blue" points="783,-93 783,-115 893,-115 893,-93 783,-93"/>
<text text-anchor="start" x="819.94" y="-101" font-family="Helvetica,sans-Serif" font-size="10.00">app&#45;doc</text>
<polygon fill="none" stroke="blue" points="783,-71 783,-93 893,-93 893,-71 783,-71"/>
<text text-anchor="start" x="819.1" y="-79" font-family="Helvetica,sans-Serif" font-size="10.00">doxygen</text>
<polygon fill="none" stroke="blue" points="783,-49 783,-71 893,-71 893,-49 783,-49"/>
<text text-anchor="start" x="826.88" y="-57" font-family="Helvetica,sans-Serif" font-size="10.00">none</text>
<polygon fill="none" stroke="blue" points="783,-39 783,-49 893,-49 893,-39 783,-39"/>
</g>
<!-- dependency640082&#45;&gt;dependency640083 -->
<g id="edge1" class="edge">
<title>dependency640082:e&#45;&gt;dependency640083:w</title>
<path fill="none" stroke="black" stroke-dasharray="5,2" d="M562,-88C606.44,-88 620.02,-88 659.88,-88"/>
<polygon fill="black" stroke="black" points="670,-88 660,-92.5 665,-88 660,-88 660,-88 660,-88 665,-88 660,-83.5 670,-88 670,-88"/>
</g>
<!-- choice971121124510011199471001111201211031011104557575757 -->
<g id="node4" class="node">
<title>choice971121124510011199471001111201211031011104557575757</title>
<g id="a_node4"><a xlink:href="../app-doc/doxygen-9999.svg" xlink:title="portage://app&#45;doc/doxygen&#45;9999">
<ellipse fill="none" stroke="red" cx="1158" cy="-142" rx="144" ry="18"/>
<text text-anchor="middle" x="1158" y="-139" font-family="Helvetica,sans-Serif" font-size="10.00">portage://app&#45;doc/doxygen&#45;9999</text>
</a>
</g>
</g>
<!-- dependency640083&#45;&gt;choice971121124510011199471001111201211031011104557575757 -->
<g id="edge3" class="edge">
<title>dependency640083:e&#45;&gt;choice971121124510011199471001111201211031011104557575757:w</title>
<path fill="none" stroke="black" stroke-dasharray="1,5" d="M907,-88C956.26,-88 959.85,-134.87 1002.86,-141.28"/>
<polygon fill="black" stroke="black" points="1013,-142 1002.71,-145.78 1008.01,-141.64 1003.03,-141.29 1003.03,-141.29 1003.03,-141.29 1008.01,-141.64 1003.35,-136.8 1013,-142 1013,-142"/>
</g>
<!-- choice97112112451001119947100111120121103101110454946564649544511449 -->
<g id="node5" class="node">
<title>choice97112112451001119947100111120121103101110454946564649544511449</title>
<g id="a_node5"><a xlink:href="../app-doc/doxygen-1.8.16-r1.svg" xlink:title="portage://app&#45;doc/doxygen&#45;1.8.16&#45;r1">
<ellipse fill="none" stroke="red" cx="1158" cy="-88" rx="144" ry="18"/>
<text text-anchor="middle" x="1158" y="-85" font-family="Helvetica,sans-Serif" font-size="10.00">portage://app&#45;doc/doxygen&#45;1.8.16&#45;r1</text>
</a>
</g>
</g>
<!-- dependency640083&#45;&gt;choice97112112451001119947100111120121103101110454946564649544511449 -->
<g id="edge4" class="edge">
<title>dependency640083:e&#45;&gt;choice97112112451001119947100111120121103101110454946564649544511449:w</title>
<path fill="none" stroke="black" stroke-dasharray="1,5" d="M907,-88C950.43,-88 963.83,-88 1002.57,-88"/>
<polygon fill="black" stroke="black" points="1013,-88 1003,-92.5 1008,-88 1003,-88 1003,-88 1003,-88 1008,-88 1003,-83.5 1013,-88 1013,-88"/>
</g>
<!-- choice9711211245100111994710011112012110310111045494656464953 -->
<g id="node6" class="node">
<title>choice9711211245100111994710011112012110310111045494656464953</title>
<g id="a_node6"><a xlink:href="../app-doc/doxygen-1.8.15.svg" xlink:title="portage://app&#45;doc/doxygen&#45;1.8.15">
<ellipse fill="none" stroke="red" cx="1158" cy="-34" rx="144" ry="18"/>
<text text-anchor="middle" x="1158" y="-31" font-family="Helvetica,sans-Serif" font-size="10.00">portage://app&#45;doc/doxygen&#45;1.8.15</text>
</a>
</g>
</g>
<!-- dependency640083&#45;&gt;choice9711211245100111994710011112012110310111045494656464953 -->
<g id="edge5" class="edge">
<title>dependency640083:e&#45;&gt;choice9711211245100111994710011112012110310111045494656464953:w</title>
<path fill="none" stroke="black" stroke-dasharray="1,5" d="M907,-88C956.26,-88 959.85,-41.13 1002.86,-34.72"/>
<polygon fill="black" stroke="black" points="1013,-34 1003.35,-39.2 1008.01,-34.36 1003.03,-34.71 1003.03,-34.71 1003.03,-34.71 1008.01,-34.36 1002.71,-30.22 1013,-34 1013,-34"/>
</g>
</g>
</svg>
