<?xml version="1.0" encoding="UTF-8" standalone="no"?>
<!DOCTYPE svg PUBLIC "-//W3C//DTD SVG 1.1//EN"
 "http://www.w3.org/Graphics/SVG/1.1/DTD/svg11.dtd">
<!-- Generated by graphviz version 2.41.20171026.1811 (20171026.1811)
 -->
<!-- Title: prolog Pages: 1 -->
<svg width="1335pt" height="364pt"
 viewBox="0.00 0.00 1335.00 364.00" xmlns="http://www.w3.org/2000/svg" xmlns:xlink="http://www.w3.org/1999/xlink">
<g id="graph0" class="graph" transform="scale(1 1) rotate(0) translate(4 360)">
<title>prolog</title>
<polygon fill="white" stroke="transparent" points="-4,4 -4,-360 1331,-360 1331,4 -4,4"/>
<g id="clust1" class="cluster">
<title>cluster_leftcol</title>
<polygon fill="none" stroke="gray" points="8,-149 8,-219 312,-219 312,-149 8,-149"/>
<text text-anchor="start" x="146.66" y="-208" font-family="Helvetica,sans-Serif" font-style="italic" font-size="10.00">ebuild</text>
</g>
<g id="clust2" class="cluster">
<title>cluster_midcol</title>
<polygon fill="none" stroke="gray" points="396,-37 396,-329 931,-329 931,-37 396,-37"/>
<text text-anchor="start" x="632.36" y="-318" font-family="Helvetica,sans-Serif" font-style="italic" font-size="10.00">dependencies</text>
</g>
<g id="clust4" class="cluster">
<title>cluster_compileandrun</title>
<polygon fill="#eeeeee" stroke="gray" points="404,-45 404,-303 923,-303 923,-45 404,-45"/>
<text text-anchor="start" x="627.92" y="-292" font-family="Helvetica,sans-Serif" font-style="italic" font-size="10.00">compile and run</text>
</g>
<g id="clust9" class="cluster">
<title>cluster_choices</title>
<polygon fill="none" stroke="gray" points="1015,-8 1015,-348 1319,-348 1319,-8 1015,-8"/>
<text text-anchor="start" x="1142.82" y="-337" font-family="Helvetica,sans-Serif" font-style="italic" font-size="10.00">candidates</text>
</g>
<!-- id -->
<g id="node1" class="node">
<title>id</title>
<g id="a_node1"><a xlink:href="../net-dns/ldns-utils-1.7.0.svg" xlink:title="net&#45;dns/ldns&#45;utils&#45;1.7.0">
<ellipse fill="none" stroke="red" cx="160" cy="-175" rx="144" ry="18"/>
<text text-anchor="middle" x="160" y="-172" font-family="Helvetica,sans-Serif" font-size="10.00">net&#45;dns/ldns&#45;utils&#45;1.7.0</text>
</a>
</g>
</g>
<!-- dependency407944 -->
<g id="node2" class="node">
<title>dependency407944</title>
<polygon fill="none" stroke="red" points="420.5,-190 420.5,-230 511.5,-230 511.5,-190 420.5,-190"/>
<text text-anchor="start" x="431.25" y="-207" font-family="Helvetica,sans-Serif" font-size="10.00">use_conditional</text>
<polygon fill="none" stroke="red" points="511.5,-210 511.5,-230 563.5,-230 563.5,-210 511.5,-210"/>
<text text-anchor="start" x="520.55" y="-217" font-family="Helvetica,sans-Serif" font-size="10.00">positive</text>
<polygon fill="none" stroke="red" points="511.5,-190 511.5,-210 563.5,-210 563.5,-190 511.5,-190"/>
<text text-anchor="start" x="516.1" y="-197" font-family="Helvetica,sans-Serif" font-size="10.00">examples</text>
</g>
<!-- id&#45;&gt;dependency407944 -->
<g id="edge2" class="edge">
<title>id:e&#45;&gt;dependency407944:w</title>
<path fill="none" stroke="black" d="M305,-175C347.65,-175 358.47,-201.08 392.41,-208.22"/>
<ellipse fill="none" stroke="black" cx="406.52" cy="-209.61" rx="4" ry="4"/>
<polygon fill="black" stroke="black" points="402.54,-209.21 392.15,-212.71 397.56,-208.72 392.59,-208.23 392.59,-208.23 392.59,-208.23 397.56,-208.72 393.03,-203.75 402.54,-209.21 402.54,-209.21"/>
</g>
<!-- dependency407946 -->
<g id="node4" class="node">
<title>dependency407946</title>
<polygon fill="none" stroke="blue" points="687,-57 687,-157 792,-157 792,-57 687,-57"/>
<text text-anchor="start" x="717.82" y="-104" font-family="Helvetica,sans-Serif" font-size="10.00">pack_dep</text>
<polygon fill="none" stroke="blue" points="792,-137 792,-157 902,-157 902,-137 792,-137"/>
<text text-anchor="start" x="841.44" y="-144" font-family="Helvetica,sans-Serif" font-size="10.00">no</text>
<polygon fill="none" stroke="blue" points="792,-117 792,-137 902,-137 902,-117 792,-117"/>
<text text-anchor="start" x="830.88" y="-124" font-family="Helvetica,sans-Serif" font-size="10.00">net&#45;libs</text>
<polygon fill="none" stroke="blue" points="792,-97 792,-117 902,-117 902,-97 792,-97"/>
<text text-anchor="start" x="837.83" y="-104" font-family="Helvetica,sans-Serif" font-size="10.00">ldns</text>
<polygon fill="none" stroke="blue" points="792,-77 792,-97 902,-97 902,-77 792,-77"/>
<text text-anchor="start" x="818.92" y="-84" font-family="Helvetica,sans-Serif" font-size="10.00">greaterequal</text>
<polygon fill="none" stroke="blue" points="792,-57 792,-77 902,-77 902,-57 792,-57"/>
<text text-anchor="start" x="835.88" y="-64" font-family="Helvetica,sans-Serif" font-size="10.00">1.7.0</text>
</g>
<!-- id&#45;&gt;dependency407946 -->
<g id="edge3" class="edge">
<title>id:e&#45;&gt;dependency407946:w</title>
<path fill="none" stroke="black" d="M305,-175C467.68,-175 507.19,-111.95 660.73,-107.27"/>
<ellipse fill="none" stroke="black" cx="675" cy="-107.06" rx="4" ry="4"/>
<polygon fill="black" stroke="black" points="671,-107.12 661.07,-111.77 666,-107.19 661,-107.27 661,-107.27 661,-107.27 666,-107.19 660.93,-102.77 671,-107.12 671,-107.12"/>
</g>
<!-- dependency407945 -->
<g id="node3" class="node">
<title>dependency407945</title>
<polygon fill="none" stroke="blue" points="687,-183 687,-273 792,-273 792,-183 687,-183"/>
<text text-anchor="start" x="717.82" y="-225" font-family="Helvetica,sans-Serif" font-size="10.00">pack_dep</text>
<polygon fill="none" stroke="blue" points="792,-253 792,-273 902,-273 902,-253 792,-253"/>
<text text-anchor="start" x="841.44" y="-260" font-family="Helvetica,sans-Serif" font-size="10.00">no</text>
<polygon fill="none" stroke="blue" points="792,-233 792,-253 902,-253 902,-233 792,-233"/>
<text text-anchor="start" x="830.88" y="-240" font-family="Helvetica,sans-Serif" font-size="10.00">net&#45;libs</text>
<polygon fill="none" stroke="blue" points="792,-213 792,-233 902,-233 902,-213 792,-213"/>
<text text-anchor="start" x="831.16" y="-220" font-family="Helvetica,sans-Serif" font-size="10.00">libpcap</text>
<polygon fill="none" stroke="blue" points="792,-193 792,-213 902,-213 902,-193 792,-193"/>
<text text-anchor="start" x="835.88" y="-200" font-family="Helvetica,sans-Serif" font-size="10.00">none</text>
<polygon fill="none" stroke="blue" points="792,-183 792,-193 902,-193 902,-183 792,-183"/>
</g>
<!-- dependency407944&#45;&gt;dependency407945 -->
<g id="edge1" class="edge">
<title>dependency407944:e&#45;&gt;dependency407945:w</title>
<path fill="none" stroke="black" stroke-dasharray="5,2" d="M571,-210C616.05,-210 628.54,-225.43 668.76,-227.72"/>
<polygon fill="black" stroke="black" points="679,-228 668.88,-232.22 674,-227.86 669,-227.72 669,-227.72 669,-227.72 674,-227.86 669.13,-223.23 679,-228 679,-228"/>
</g>
<!-- choice110101116451081059811547108105981129997112454946564649 -->
<g id="node5" class="node">
<title>choice110101116451081059811547108105981129997112454946564649</title>
<g id="a_node5"><a xlink:href="../net-libs/libpcap-1.8.1.svg" xlink:title="net&#45;libs/libpcap&#45;1.8.1">
<ellipse fill="none" stroke="red" cx="1167" cy="-304" rx="144" ry="18"/>
<text text-anchor="middle" x="1167" y="-301" font-family="Helvetica,sans-Serif" font-size="10.00">net&#45;libs/libpcap&#45;1.8.1</text>
</a>
</g>
</g>
<!-- dependency407945&#45;&gt;choice110101116451081059811547108105981129997112454946564649 -->
<g id="edge4" class="edge">
<title>dependency407945:e&#45;&gt;choice110101116451081059811547108105981129997112454946564649:w</title>
<path fill="none" stroke="black" stroke-dasharray="1,5" d="M916,-228C970.35,-228 965.01,-294.8 1011.89,-303.15"/>
<polygon fill="black" stroke="black" points="1022,-304 1011.66,-307.64 1017.02,-303.58 1012.04,-303.16 1012.04,-303.16 1012.04,-303.16 1017.02,-303.58 1012.41,-298.67 1022,-304 1022,-304"/>
</g>
<!-- choice1101011164510810598115471081059811299971124549465646494511449 -->
<g id="node6" class="node">
<title>choice1101011164510810598115471081059811299971124549465646494511449</title>
<g id="a_node6"><a xlink:href="../net-libs/libpcap-1.8.1-r1.svg" xlink:title="net&#45;libs/libpcap&#45;1.8.1&#45;r1">
<ellipse fill="none" stroke="red" cx="1167" cy="-250" rx="144" ry="18"/>
<text text-anchor="middle" x="1167" y="-247" font-family="Helvetica,sans-Serif" font-size="10.00">net&#45;libs/libpcap&#45;1.8.1&#45;r1</text>
</a>
</g>
</g>
<!-- dependency407945&#45;&gt;choice1101011164510810598115471081059811299971124549465646494511449 -->
<g id="edge5" class="edge">
<title>dependency407945:e&#45;&gt;choice1101011164510810598115471081059811299971124549465646494511449:w</title>
<path fill="none" stroke="black" stroke-dasharray="1,5" d="M916,-228C960.54,-228 972.22,-246.86 1011.89,-249.65"/>
<polygon fill="black" stroke="black" points="1022,-250 1011.85,-254.16 1017,-249.83 1012.01,-249.66 1012.01,-249.66 1012.01,-249.66 1017,-249.83 1012.16,-245.16 1022,-250 1022,-250"/>
</g>
<!-- choice1101011164510810598115471081059811299971124557575757 -->
<g id="node7" class="node">
<title>choice1101011164510810598115471081059811299971124557575757</title>
<g id="a_node7"><a xlink:href="../net-libs/libpcap-9999.svg" xlink:title="net&#45;libs/libpcap&#45;9999">
<ellipse fill="none" stroke="red" cx="1167" cy="-196" rx="144" ry="18"/>
<text text-anchor="middle" x="1167" y="-193" font-family="Helvetica,sans-Serif" font-size="10.00">net&#45;libs/libpcap&#45;9999</text>
</a>
</g>
</g>
<!-- dependency407945&#45;&gt;choice1101011164510810598115471081059811299971124557575757 -->
<g id="edge6" class="edge">
<title>dependency407945:e&#45;&gt;choice1101011164510810598115471081059811299971124557575757:w</title>
<path fill="none" stroke="black" stroke-dasharray="1,5" d="M916,-228C961.65,-228 971.48,-200.46 1011.95,-196.48"/>
<polygon fill="black" stroke="black" points="1022,-196 1012.22,-200.97 1017.01,-196.24 1012.01,-196.47 1012.01,-196.47 1012.01,-196.47 1017.01,-196.24 1011.8,-191.98 1022,-196 1022,-196"/>
</g>
<!-- choice11010111645108105981154710810011011545494654464955 -->
<g id="node8" class="node">
<title>choice11010111645108105981154710810011011545494654464955</title>
<g id="a_node8"><a xlink:href="../net-libs/ldns-1.6.17.svg" xlink:title="net&#45;libs/ldns&#45;1.6.17">
<ellipse fill="none" stroke="red" cx="1167" cy="-142" rx="144" ry="18"/>
<text text-anchor="middle" x="1167" y="-139" font-family="Helvetica,sans-Serif" font-size="10.00">net&#45;libs/ldns&#45;1.6.17</text>
</a>
</g>
</g>
<!-- dependency407946&#45;&gt;choice11010111645108105981154710810011011545494654464955 -->
<g id="edge7" class="edge">
<title>dependency407946:e&#45;&gt;choice11010111645108105981154710810011011545494654464955:w</title>
<path fill="none" stroke="black" stroke-dasharray="1,5" d="M916,-107C962.03,-107 971.18,-137.12 1011.88,-141.48"/>
<polygon fill="black" stroke="black" points="1022,-142 1011.78,-145.98 1017.01,-141.74 1012.01,-141.48 1012.01,-141.48 1012.01,-141.48 1017.01,-141.74 1012.25,-136.99 1022,-142 1022,-142"/>
</g>
<!-- choice110101116451081059811547108100110115454946544649554511449 -->
<g id="node9" class="node">
<title>choice110101116451081059811547108100110115454946544649554511449</title>
<g id="a_node9"><a xlink:href="../net-libs/ldns-1.6.17-r1.svg" xlink:title="net&#45;libs/ldns&#45;1.6.17&#45;r1">
<ellipse fill="none" stroke="red" cx="1167" cy="-88" rx="144" ry="18"/>
<text text-anchor="middle" x="1167" y="-85" font-family="Helvetica,sans-Serif" font-size="10.00">net&#45;libs/ldns&#45;1.6.17&#45;r1</text>
</a>
</g>
</g>
<!-- dependency407946&#45;&gt;choice110101116451081059811547108100110115454946544649554511449 -->
<g id="edge8" class="edge">
<title>dependency407946:e&#45;&gt;choice110101116451081059811547108100110115454946544649554511449:w</title>
<path fill="none" stroke="black" stroke-dasharray="1,5" d="M916,-107C960.31,-107 972.41,-90.72 1011.93,-88.3"/>
<polygon fill="black" stroke="black" points="1022,-88 1012.14,-92.79 1017,-88.15 1012,-88.3 1012,-88.3 1012,-88.3 1017,-88.15 1011.87,-83.8 1022,-88 1022,-88"/>
</g>
<!-- choice110101116451081059811547108100110115454946554648 -->
<g id="node10" class="node">
<title>choice110101116451081059811547108100110115454946554648</title>
<g id="a_node10"><a xlink:href="../net-libs/ldns-1.7.0.svg" xlink:title="net&#45;libs/ldns&#45;1.7.0">
<ellipse fill="none" stroke="red" cx="1167" cy="-34" rx="144" ry="18"/>
<text text-anchor="middle" x="1167" y="-31" font-family="Helvetica,sans-Serif" font-size="10.00">net&#45;libs/ldns&#45;1.7.0</text>
</a>
</g>
</g>
<!-- dependency407946&#45;&gt;choice110101116451081059811547108100110115454946554648 -->
<g id="edge9" class="edge">
<title>dependency407946:e&#45;&gt;choice110101116451081059811547108100110115454946554648:w</title>
<path fill="none" stroke="black" stroke-dasharray="1,5" d="M916,-107C969.63,-107 965.59,-42.84 1012.01,-34.82"/>
<polygon fill="black" stroke="black" points="1022,-34 1012.4,-39.3 1017.02,-34.41 1012.03,-34.82 1012.03,-34.82 1012.03,-34.82 1017.02,-34.41 1011.67,-30.33 1022,-34 1022,-34"/>
</g>
</g>
</svg>
