<?xml version="1.0" encoding="UTF-8" standalone="no"?>
<!DOCTYPE svg PUBLIC "-//W3C//DTD SVG 1.1//EN"
 "http://www.w3.org/Graphics/SVG/1.1/DTD/svg11.dtd">
<!-- Generated by graphviz version 2.41.20171026.1811 (20171026.1811)
 -->
<!-- Title: prolog Pages: 1 -->
<svg width="1734pt" height="1284pt"
 viewBox="0.00 0.00 1734.00 1284.00" xmlns="http://www.w3.org/2000/svg" xmlns:xlink="http://www.w3.org/1999/xlink">
<g id="graph0" class="graph" transform="scale(1 1) rotate(0) translate(4 1280)">
<title>prolog</title>
<polygon fill="white" stroke="transparent" points="-4,4 -4,-1280 1730,-1280 1730,4 -4,4"/>
<g id="clust1" class="cluster">
<title>cluster_leftcol</title>
<polygon fill="none" stroke="gray" points="8,-355 8,-427 312,-427 312,-355 8,-355"/>
<text text-anchor="start" x="146.66" y="-415" font-family="Helvetica,sans-Serif" font-style="italic" font-size="10.00">ebuild</text>
</g>
<g id="clust2" class="cluster">
<title>cluster_midcol</title>
<polygon fill="none" stroke="gray" points="396,-73 396,-975 1330,-975 1330,-73 396,-73"/>
<text text-anchor="start" x="831.88" y="-963" font-family="Helvetica,sans-Serif" font-style="italic" font-size="10.00">dependencies</text>
</g>
<g id="clust3" class="cluster">
<title>cluster_compile</title>
<polygon fill="#eeeeee" stroke="gray" points="404,-533 404,-947 1322,-947 1322,-533 404,-533"/>
<text text-anchor="start" x="845.78" y="-935" font-family="Helvetica,sans-Serif" font-style="italic" font-size="10.00">compile</text>
</g>
<g id="clust11" class="cluster">
<title>cluster_compileandrun</title>
<polygon fill="#eeeeee" stroke="gray" points="404,-81 404,-223 1322,-223 1322,-81 404,-81"/>
<text text-anchor="start" x="827.44" y="-211" font-family="Helvetica,sans-Serif" font-style="italic" font-size="10.00">compile and run</text>
</g>
<g id="clust15" class="cluster">
<title>cluster_choices</title>
<polygon fill="none" stroke="gray" points="1414,-8 1414,-1268 1718,-1268 1718,-8 1414,-8"/>
<text text-anchor="start" x="1541.82" y="-1256" font-family="Helvetica,sans-Serif" font-style="italic" font-size="10.00">candidates</text>
</g>
<!-- id -->
<g id="node1" class="node">
<title>id</title>
<g id="a_node1"><a xlink:href="../net-dns/rbldnsd-0.998.svg" xlink:title="net&#45;dns/rbldnsd&#45;0.998">
<ellipse fill="none" stroke="red" cx="160" cy="-381" rx="144" ry="18"/>
<text text-anchor="middle" x="160" y="-378" font-family="Helvetica,sans-Serif" font-size="10.00">net&#45;dns/rbldnsd&#45;0.998</text>
</a>
</g>
</g>
<!-- dependency1651232 -->
<g id="node2" class="node">
<title>dependency1651232</title>
<polygon fill="none" stroke="red" points="420,-578 420,-622 511,-622 511,-578 420,-578"/>
<text text-anchor="start" x="430.77" y="-597" font-family="Helvetica,sans-Serif" font-size="10.00">use_conditional</text>
<polygon fill="none" stroke="red" points="511,-600 511,-622 554,-622 554,-600 511,-600"/>
<text text-anchor="start" x="515.55" y="-608" font-family="Helvetica,sans-Serif" font-size="10.00">positive</text>
<polygon fill="none" stroke="red" points="511,-578 511,-600 554,-600 554,-578 511,-578"/>
<text text-anchor="start" x="524.44" y="-586" font-family="Helvetica,sans-Serif" font-size="10.00">test</text>
</g>
<!-- id&#45;&gt;dependency1651232 -->
<g id="edge7" class="edge">
<title>id:e&#45;&gt;dependency1651232:w</title>
<path fill="none" stroke="black" d="M305,-381C409.54,-381 309.95,-585.7 400.94,-599.29"/>
<polygon fill="black" stroke="black" points="411,-600 400.71,-603.79 406.01,-599.65 401.02,-599.3 401.02,-599.3 401.02,-599.3 406.01,-599.65 401.34,-594.81 411,-600 411,-600"/>
</g>
<!-- dependency1651239 -->
<g id="node9" class="node">
<title>dependency1651239</title>
<polygon fill="none" stroke="red" points="420,-140 420,-184 511,-184 511,-140 420,-140"/>
<text text-anchor="start" x="430.77" y="-159" font-family="Helvetica,sans-Serif" font-size="10.00">use_conditional</text>
<polygon fill="none" stroke="red" points="511,-162 511,-184 554,-184 554,-162 511,-162"/>
<text text-anchor="start" x="515.55" y="-170" font-family="Helvetica,sans-Serif" font-size="10.00">positive</text>
<polygon fill="none" stroke="red" points="511,-140 511,-162 554,-162 554,-140 511,-140"/>
<text text-anchor="start" x="525" y="-148" font-family="Helvetica,sans-Serif" font-size="10.00">zlib</text>
</g>
<!-- id&#45;&gt;dependency1651239 -->
<g id="edge9" class="edge">
<title>id:e&#45;&gt;dependency1651239:w</title>
<path fill="none" stroke="black" d="M305,-381C406.17,-381 316.17,-189.32 392.7,-164.61"/>
<ellipse fill="none" stroke="black" cx="407.04" cy="-162.57" rx="4" ry="4"/>
<polygon fill="black" stroke="black" points="403.08,-163.13 393.82,-169 398.13,-163.84 393.18,-164.54 393.18,-164.54 393.18,-164.54 398.13,-163.84 392.54,-160.09 403.08,-163.13 403.08,-163.13"/>
</g>
<!-- dependency1651233 -->
<g id="node3" class="node">
<title>dependency1651233</title>
<polygon fill="none" stroke="red" points="678.5,-583 678.5,-617 761.5,-617 761.5,-583 678.5,-583"/>
<text text-anchor="start" x="689.43" y="-597" font-family="Helvetica,sans-Serif" font-size="10.00">any_of_group</text>
</g>
<!-- dependency1651232&#45;&gt;dependency1651233 -->
<g id="edge2" class="edge">
<title>dependency1651232:e&#45;&gt;dependency1651233:w</title>
<path fill="none" stroke="black" stroke-dasharray="5,2" d="M562,-600C606.44,-600 620.02,-600 659.88,-600"/>
<polygon fill="black" stroke="black" points="670,-600 660,-604.5 665,-600 660,-600 660,-600 660,-600 665,-600 660,-595.5 670,-600 670,-600"/>
</g>
<!-- dependency1651235 -->
<g id="node5" class="node">
<title>dependency1651235</title>
<polygon fill="none" stroke="red" points="678.5,-681 678.5,-715 761.5,-715 761.5,-681 678.5,-681"/>
<text text-anchor="start" x="689.43" y="-695" font-family="Helvetica,sans-Serif" font-size="10.00">any_of_group</text>
</g>
<!-- dependency1651232&#45;&gt;dependency1651235 -->
<g id="edge6" class="edge">
<title>dependency1651232:e&#45;&gt;dependency1651235:w</title>
<path fill="none" stroke="black" stroke-dasharray="5,2" d="M562,-600C623.14,-600 607.36,-687.21 659.79,-697.09"/>
<polygon fill="black" stroke="black" points="670,-698 659.64,-701.6 665.02,-697.56 660.04,-697.11 660.04,-697.11 660.04,-697.11 665.02,-697.56 660.44,-692.63 670,-698 670,-698"/>
</g>
<!-- dependency1651234 -->
<g id="node4" class="node">
<title>dependency1651234</title>
<polygon fill="none" stroke="blue" points="1086,-545 1086,-655 1191,-655 1191,-545 1086,-545"/>
<text text-anchor="start" x="1116.82" y="-597" font-family="Helvetica,sans-Serif" font-size="10.00">pack_dep</text>
<polygon fill="none" stroke="blue" points="1191,-633 1191,-655 1301,-655 1301,-633 1191,-633"/>
<text text-anchor="start" x="1240.44" y="-641" font-family="Helvetica,sans-Serif" font-size="10.00">no</text>
<polygon fill="none" stroke="blue" points="1191,-611 1191,-633 1301,-633 1301,-611 1191,-611"/>
<text text-anchor="start" x="1226.83" y="-619" font-family="Helvetica,sans-Serif" font-size="10.00">dev&#45;lang</text>
<polygon fill="none" stroke="blue" points="1191,-589 1191,-611 1301,-611 1301,-589 1191,-589"/>
<text text-anchor="start" x="1230.99" y="-597" font-family="Helvetica,sans-Serif" font-size="10.00">python</text>
<polygon fill="none" stroke="blue" points="1191,-567 1191,-589 1301,-589 1301,-567 1191,-567"/>
<text text-anchor="start" x="1217.94" y="-575" font-family="Helvetica,sans-Serif" font-size="10.00">greaterequal</text>
<polygon fill="none" stroke="blue" points="1191,-545 1191,-567 1301,-567 1301,-545 1191,-545"/>
<text text-anchor="start" x="1228.77" y="-553" font-family="Helvetica,sans-Serif" font-size="10.00">2.7.5&#45;r2</text>
</g>
<!-- dependency1651233&#45;&gt;dependency1651234 -->
<g id="edge1" class="edge">
<title>dependency1651233:e&#45;&gt;dependency1651234:w</title>
<path fill="none" stroke="black" stroke-dasharray="1,5" d="M769,-600C902.85,-600 938.86,-600 1067.73,-600"/>
<polygon fill="none" stroke="black" points="1078,-603.5 1068,-600 1078,-596.5 1078,-603.5"/>
</g>
<!-- choice10010111845108971101034711212111610411111045504655464953 -->
<g id="node11" class="node">
<title>choice10010111845108971101034711212111610411111045504655464953</title>
<g id="a_node11"><a xlink:href="../dev-lang/python-2.7.15.svg" xlink:title="dev&#45;lang/python&#45;2.7.15">
<ellipse fill="none" stroke="red" cx="1566" cy="-628" rx="144" ry="18"/>
<text text-anchor="middle" x="1566" y="-625" font-family="Helvetica,sans-Serif" font-size="10.00">dev&#45;lang/python&#45;2.7.15</text>
</a>
</g>
</g>
<!-- dependency1651234&#45;&gt;choice10010111845108971101034711212111610411111045504655464953 -->
<g id="edge10" class="edge">
<title>dependency1651234:e&#45;&gt;choice10010111845108971101034711212111610411111045504655464953:w</title>
<path fill="none" stroke="black" stroke-dasharray="1,5" d="M1315,-600C1360.11,-600 1370.78,-624 1410.78,-627.56"/>
<polygon fill="black" stroke="black" points="1421,-628 1410.82,-632.07 1416,-627.78 1411.01,-627.57 1411.01,-627.57 1411.01,-627.57 1416,-627.78 1411.2,-623.07 1421,-628 1421,-628"/>
</g>
<!-- choice10010111845108971101034711212111610411111045504655464954 -->
<g id="node12" class="node">
<title>choice10010111845108971101034711212111610411111045504655464954</title>
<g id="a_node12"><a xlink:href="../dev-lang/python-2.7.16.svg" xlink:title="dev&#45;lang/python&#45;2.7.16">
<ellipse fill="none" stroke="red" cx="1566" cy="-574" rx="144" ry="18"/>
<text text-anchor="middle" x="1566" y="-571" font-family="Helvetica,sans-Serif" font-size="10.00">dev&#45;lang/python&#45;2.7.16</text>
</a>
</g>
</g>
<!-- dependency1651234&#45;&gt;choice10010111845108971101034711212111610411111045504655464954 -->
<g id="edge11" class="edge">
<title>dependency1651234:e&#45;&gt;choice10010111845108971101034711212111610411111045504655464954:w</title>
<path fill="none" stroke="black" stroke-dasharray="1,5" d="M1315,-600C1359.91,-600 1370.94,-577.72 1410.82,-574.41"/>
<polygon fill="black" stroke="black" points="1421,-574 1411.19,-578.9 1416,-574.2 1411.01,-574.4 1411.01,-574.4 1411.01,-574.4 1416,-574.2 1410.83,-569.9 1421,-574 1421,-574"/>
</g>
<!-- choice1001011184510897110103471121211161041111104551465246534511449 -->
<g id="node13" class="node">
<title>choice1001011184510897110103471121211161041111104551465246534511449</title>
<g id="a_node13"><a xlink:href="../dev-lang/python-3.4.5-r1.svg" xlink:title="dev&#45;lang/python&#45;3.4.5&#45;r1">
<ellipse fill="none" stroke="red" cx="1566" cy="-520" rx="144" ry="18"/>
<text text-anchor="middle" x="1566" y="-517" font-family="Helvetica,sans-Serif" font-size="10.00">dev&#45;lang/python&#45;3.4.5&#45;r1</text>
</a>
</g>
</g>
<!-- dependency1651234&#45;&gt;choice1001011184510897110103471121211161041111104551465246534511449 -->
<g id="edge12" class="edge">
<title>dependency1651234:e&#45;&gt;choice1001011184510897110103471121211161041111104551465246534511449:w</title>
<path fill="none" stroke="black" stroke-dasharray="1,5" d="M1315,-600C1370.45,-600 1363.18,-529.39 1411.03,-520.84"/>
<polygon fill="black" stroke="black" points="1421,-520 1411.42,-525.33 1416.02,-520.42 1411.04,-520.84 1411.04,-520.84 1411.04,-520.84 1416.02,-520.42 1410.66,-516.36 1421,-520 1421,-520"/>
</g>
<!-- choice1001011184510897110103471121211161041111104551465246544511449 -->
<g id="node14" class="node">
<title>choice1001011184510897110103471121211161041111104551465246544511449</title>
<g id="a_node14"><a xlink:href="../dev-lang/python-3.4.6-r1.svg" xlink:title="dev&#45;lang/python&#45;3.4.6&#45;r1">
<ellipse fill="none" stroke="red" cx="1566" cy="-466" rx="144" ry="18"/>
<text text-anchor="middle" x="1566" y="-463" font-family="Helvetica,sans-Serif" font-size="10.00">dev&#45;lang/python&#45;3.4.6&#45;r1</text>
</a>
</g>
</g>
<!-- dependency1651234&#45;&gt;choice1001011184510897110103471121211161041111104551465246544511449 -->
<g id="edge13" class="edge">
<title>dependency1651234:e&#45;&gt;choice1001011184510897110103471121211161041111104551465246544511449:w</title>
<path fill="none" stroke="black" stroke-dasharray="1,5" d="M1315,-600C1387.23,-600 1349.25,-478.77 1410.72,-466.93"/>
<polygon fill="black" stroke="black" points="1421,-466 1411.44,-471.38 1416.02,-466.45 1411.04,-466.9 1411.04,-466.9 1411.04,-466.9 1416.02,-466.45 1410.64,-462.42 1421,-466 1421,-466"/>
</g>
<!-- choice100101118451089711010347112121116104111110455146524656 -->
<g id="node15" class="node">
<title>choice100101118451089711010347112121116104111110455146524656</title>
<g id="a_node15"><a xlink:href="../dev-lang/python-3.4.8.svg" xlink:title="dev&#45;lang/python&#45;3.4.8">
<ellipse fill="none" stroke="red" cx="1566" cy="-412" rx="144" ry="18"/>
<text text-anchor="middle" x="1566" y="-409" font-family="Helvetica,sans-Serif" font-size="10.00">dev&#45;lang/python&#45;3.4.8</text>
</a>
</g>
</g>
<!-- dependency1651234&#45;&gt;choice100101118451089711010347112121116104111110455146524656 -->
<g id="edge14" class="edge">
<title>dependency1651234:e&#45;&gt;choice100101118451089711010347112121116104111110455146524656:w</title>
<path fill="none" stroke="black" stroke-dasharray="1,5" d="M1315,-600C1407.17,-600 1331.51,-426.4 1410.57,-412.84"/>
<polygon fill="black" stroke="black" points="1421,-412 1411.39,-417.29 1416.02,-412.4 1411.03,-412.8 1411.03,-412.8 1411.03,-412.8 1416.02,-412.4 1410.67,-408.32 1421,-412 1421,-412"/>
</g>
<!-- choice1001011184510897110103471121211161041111104551465246564511449 -->
<g id="node16" class="node">
<title>choice1001011184510897110103471121211161041111104551465246564511449</title>
<g id="a_node16"><a xlink:href="../dev-lang/python-3.4.8-r1.svg" xlink:title="dev&#45;lang/python&#45;3.4.8&#45;r1">
<ellipse fill="none" stroke="red" cx="1566" cy="-358" rx="144" ry="18"/>
<text text-anchor="middle" x="1566" y="-355" font-family="Helvetica,sans-Serif" font-size="10.00">dev&#45;lang/python&#45;3.4.8&#45;r1</text>
</a>
</g>
</g>
<!-- dependency1651234&#45;&gt;choice1001011184510897110103471121211161041111104551465246564511449 -->
<g id="edge15" class="edge">
<title>dependency1651234:e&#45;&gt;choice1001011184510897110103471121211161041111104551465246564511449:w</title>
<path fill="none" stroke="black" stroke-dasharray="1,5" d="M1315,-600C1428.87,-600 1311.15,-372.43 1411,-358.65"/>
<polygon fill="black" stroke="black" points="1421,-358 1411.31,-363.14 1416.01,-358.33 1411.02,-358.65 1411.02,-358.65 1411.02,-358.65 1416.01,-358.33 1410.73,-354.16 1421,-358 1421,-358"/>
</g>
<!-- choice1001011184510897110103471121211161041111104551465346524511449 -->
<g id="node17" class="node">
<title>choice1001011184510897110103471121211161041111104551465346524511449</title>
<g id="a_node17"><a xlink:href="../dev-lang/python-3.5.4-r1.svg" xlink:title="dev&#45;lang/python&#45;3.5.4&#45;r1">
<ellipse fill="none" stroke="red" cx="1566" cy="-304" rx="144" ry="18"/>
<text text-anchor="middle" x="1566" y="-301" font-family="Helvetica,sans-Serif" font-size="10.00">dev&#45;lang/python&#45;3.5.4&#45;r1</text>
</a>
</g>
</g>
<!-- dependency1651234&#45;&gt;choice1001011184510897110103471121211161041111104551465346524511449 -->
<g id="edge16" class="edge">
<title>dependency1651234:e&#45;&gt;choice1001011184510897110103471121211161041111104551465346524511449:w</title>
<path fill="none" stroke="black" stroke-dasharray="1,5" d="M1315,-600C1451.19,-600 1289.87,-318.84 1410.95,-304.56"/>
<polygon fill="black" stroke="black" points="1421,-304 1411.27,-309.05 1416.01,-304.28 1411.02,-304.56 1411.02,-304.56 1411.02,-304.56 1416.01,-304.28 1410.76,-300.07 1421,-304 1421,-304"/>
</g>
<!-- choice100101118451089711010347112121116104111110455146534653 -->
<g id="node18" class="node">
<title>choice100101118451089711010347112121116104111110455146534653</title>
<g id="a_node18"><a xlink:href="../dev-lang/python-3.5.5.svg" xlink:title="dev&#45;lang/python&#45;3.5.5">
<ellipse fill="none" stroke="red" cx="1566" cy="-250" rx="144" ry="18"/>
<text text-anchor="middle" x="1566" y="-247" font-family="Helvetica,sans-Serif" font-size="10.00">dev&#45;lang/python&#45;3.5.5</text>
</a>
</g>
</g>
<!-- dependency1651234&#45;&gt;choice100101118451089711010347112121116104111110455146534653 -->
<g id="edge17" class="edge">
<title>dependency1651234:e&#45;&gt;choice100101118451089711010347112121116104111110455146534653:w</title>
<path fill="none" stroke="black" stroke-dasharray="1,5" d="M1315,-600C1473.88,-600 1268.12,-265.55 1410.62,-250.52"/>
<polygon fill="black" stroke="black" points="1421,-250 1411.24,-255 1416.01,-250.25 1411.01,-250.5 1411.01,-250.5 1411.01,-250.5 1416.01,-250.25 1410.79,-246.01 1421,-250 1421,-250"/>
</g>
<!-- choice1001011184510897110103471121211161041111104551465346534511449 -->
<g id="node19" class="node">
<title>choice1001011184510897110103471121211161041111104551465346534511449</title>
<g id="a_node19"><a xlink:href="../dev-lang/python-3.5.5-r1.svg" xlink:title="dev&#45;lang/python&#45;3.5.5&#45;r1">
<ellipse fill="none" stroke="red" cx="1566" cy="-196" rx="144" ry="18"/>
<text text-anchor="middle" x="1566" y="-193" font-family="Helvetica,sans-Serif" font-size="10.00">dev&#45;lang/python&#45;3.5.5&#45;r1</text>
</a>
</g>
</g>
<!-- dependency1651234&#45;&gt;choice1001011184510897110103471121211161041111104551465346534511449 -->
<g id="edge18" class="edge">
<title>dependency1651234:e&#45;&gt;choice1001011184510897110103471121211161041111104551465346534511449:w</title>
<path fill="none" stroke="black" stroke-dasharray="1,5" d="M1315,-600C1497.01,-600 1245.56,-211.63 1410.63,-196.46"/>
<polygon fill="black" stroke="black" points="1421,-196 1411.21,-200.94 1416,-196.22 1411.01,-196.44 1411.01,-196.44 1411.01,-196.44 1416,-196.22 1410.81,-191.94 1421,-196 1421,-196"/>
</g>
<!-- choice100101118451089711010347112121116104111110455146534654 -->
<g id="node20" class="node">
<title>choice100101118451089711010347112121116104111110455146534654</title>
<g id="a_node20"><a xlink:href="../dev-lang/python-3.5.6.svg" xlink:title="dev&#45;lang/python&#45;3.5.6">
<ellipse fill="none" stroke="red" cx="1566" cy="-1114" rx="144" ry="18"/>
<text text-anchor="middle" x="1566" y="-1111" font-family="Helvetica,sans-Serif" font-size="10.00">dev&#45;lang/python&#45;3.5.6</text>
</a>
</g>
</g>
<!-- dependency1651234&#45;&gt;choice100101118451089711010347112121116104111110455146534654 -->
<g id="edge19" class="edge">
<title>dependency1651234:e&#45;&gt;choice100101118451089711010347112121116104111110455146534654:w</title>
<path fill="none" stroke="black" stroke-dasharray="1,5" d="M1315,-600C1544.72,-600 1198.53,-1098.56 1410.81,-1113.65"/>
<polygon fill="black" stroke="black" points="1421,-1114 1410.85,-1118.15 1416,-1113.83 1411.01,-1113.66 1411.01,-1113.66 1411.01,-1113.66 1416,-1113.83 1411.16,-1109.16 1421,-1114 1421,-1114"/>
</g>
<!-- choice1001011184510897110103471121211161041111104551465446514511449 -->
<g id="node21" class="node">
<title>choice1001011184510897110103471121211161041111104551465446514511449</title>
<g id="a_node21"><a xlink:href="../dev-lang/python-3.6.3-r1.svg" xlink:title="dev&#45;lang/python&#45;3.6.3&#45;r1">
<ellipse fill="none" stroke="red" cx="1566" cy="-1060" rx="144" ry="18"/>
<text text-anchor="middle" x="1566" y="-1057" font-family="Helvetica,sans-Serif" font-size="10.00">dev&#45;lang/python&#45;3.6.3&#45;r1</text>
</a>
</g>
</g>
<!-- dependency1651234&#45;&gt;choice1001011184510897110103471121211161041111104551465446514511449 -->
<g id="edge20" class="edge">
<title>dependency1651234:e&#45;&gt;choice1001011184510897110103471121211161041111104551465446514511449:w</title>
<path fill="none" stroke="black" stroke-dasharray="1,5" d="M1315,-600C1521.32,-600 1221.47,-1044.85 1410.98,-1059.62"/>
<polygon fill="black" stroke="black" points="1421,-1060 1410.84,-1064.12 1416,-1059.81 1411.01,-1059.62 1411.01,-1059.62 1411.01,-1059.62 1416,-1059.81 1411.18,-1055.13 1421,-1060 1421,-1060"/>
</g>
<!-- choice100101118451089711010347112121116104111110455146544652 -->
<g id="node22" class="node">
<title>choice100101118451089711010347112121116104111110455146544652</title>
<g id="a_node22"><a xlink:href="../dev-lang/python-3.6.4.svg" xlink:title="dev&#45;lang/python&#45;3.6.4">
<ellipse fill="none" stroke="red" cx="1566" cy="-1006" rx="144" ry="18"/>
<text text-anchor="middle" x="1566" y="-1003" font-family="Helvetica,sans-Serif" font-size="10.00">dev&#45;lang/python&#45;3.6.4</text>
</a>
</g>
</g>
<!-- dependency1651234&#45;&gt;choice100101118451089711010347112121116104111110455146544652 -->
<g id="edge21" class="edge">
<title>dependency1651234:e&#45;&gt;choice100101118451089711010347112121116104111110455146544652:w</title>
<path fill="none" stroke="black" stroke-dasharray="1,5" d="M1315,-600C1497.85,-600 1244.76,-990.3 1410.58,-1005.54"/>
<polygon fill="black" stroke="black" points="1421,-1006 1410.81,-1010.06 1416,-1005.78 1411.01,-1005.56 1411.01,-1005.56 1411.01,-1005.56 1416,-1005.78 1411.21,-1001.06 1421,-1006 1421,-1006"/>
</g>
<!-- choice100101118451089711010347112121116104111110455146544653 -->
<g id="node23" class="node">
<title>choice100101118451089711010347112121116104111110455146544653</title>
<g id="a_node23"><a xlink:href="../dev-lang/python-3.6.5.svg" xlink:title="dev&#45;lang/python&#45;3.6.5">
<ellipse fill="none" stroke="red" cx="1566" cy="-952" rx="144" ry="18"/>
<text text-anchor="middle" x="1566" y="-949" font-family="Helvetica,sans-Serif" font-size="10.00">dev&#45;lang/python&#45;3.6.5</text>
</a>
</g>
</g>
<!-- dependency1651234&#45;&gt;choice100101118451089711010347112121116104111110455146544653 -->
<g id="edge22" class="edge">
<title>dependency1651234:e&#45;&gt;choice100101118451089711010347112121116104111110455146544653:w</title>
<path fill="none" stroke="black" stroke-dasharray="1,5" d="M1315,-600C1474.87,-600 1266.92,-937.04 1410.99,-951.52"/>
<polygon fill="black" stroke="black" points="1421,-952 1410.8,-956.02 1416.01,-951.76 1411.01,-951.52 1411.01,-951.52 1411.01,-951.52 1416.01,-951.76 1411.23,-947.03 1421,-952 1421,-952"/>
</g>
<!-- choice1001011184510897110103471121211161041111104551465446534511449 -->
<g id="node24" class="node">
<title>choice1001011184510897110103471121211161041111104551465446534511449</title>
<g id="a_node24"><a xlink:href="../dev-lang/python-3.6.5-r1.svg" xlink:title="dev&#45;lang/python&#45;3.6.5&#45;r1">
<ellipse fill="none" stroke="red" cx="1566" cy="-898" rx="144" ry="18"/>
<text text-anchor="middle" x="1566" y="-895" font-family="Helvetica,sans-Serif" font-size="10.00">dev&#45;lang/python&#45;3.6.5&#45;r1</text>
</a>
</g>
</g>
<!-- dependency1651234&#45;&gt;choice1001011184510897110103471121211161041111104551465446534511449 -->
<g id="edge23" class="edge">
<title>dependency1651234:e&#45;&gt;choice1001011184510897110103471121211161041111104551465446534511449:w</title>
<path fill="none" stroke="black" stroke-dasharray="1,5" d="M1315,-600C1452,-600 1289.12,-883.06 1410.89,-897.43"/>
<polygon fill="black" stroke="black" points="1421,-898 1410.76,-901.93 1416.01,-897.72 1411.02,-897.44 1411.02,-897.44 1411.02,-897.44 1416.01,-897.72 1411.27,-892.95 1421,-898 1421,-898"/>
</g>
<!-- choice100101118451089711010347112121116104111110455146544654 -->
<g id="node25" class="node">
<title>choice100101118451089711010347112121116104111110455146544654</title>
<g id="a_node25"><a xlink:href="../dev-lang/python-3.6.6.svg" xlink:title="dev&#45;lang/python&#45;3.6.6">
<ellipse fill="none" stroke="red" cx="1566" cy="-844" rx="144" ry="18"/>
<text text-anchor="middle" x="1566" y="-841" font-family="Helvetica,sans-Serif" font-size="10.00">dev&#45;lang/python&#45;3.6.6</text>
</a>
</g>
</g>
<!-- dependency1651234&#45;&gt;choice100101118451089711010347112121116104111110455146544654 -->
<g id="edge24" class="edge">
<title>dependency1651234:e&#45;&gt;choice100101118451089711010347112121116104111110455146544654:w</title>
<path fill="none" stroke="black" stroke-dasharray="1,5" d="M1315,-600C1429.66,-600 1310.44,-829.45 1410.93,-843.34"/>
<polygon fill="black" stroke="black" points="1421,-844 1410.73,-847.84 1416.01,-843.67 1411.02,-843.35 1411.02,-843.35 1411.02,-843.35 1416.01,-843.67 1411.31,-838.86 1421,-844 1421,-844"/>
</g>
<!-- choice100101118451089711010347112121116104111110455146544656 -->
<g id="node26" class="node">
<title>choice100101118451089711010347112121116104111110455146544656</title>
<g id="a_node26"><a xlink:href="../dev-lang/python-3.6.8.svg" xlink:title="dev&#45;lang/python&#45;3.6.8">
<ellipse fill="none" stroke="red" cx="1566" cy="-790" rx="144" ry="18"/>
<text text-anchor="middle" x="1566" y="-787" font-family="Helvetica,sans-Serif" font-size="10.00">dev&#45;lang/python&#45;3.6.8</text>
</a>
</g>
</g>
<!-- dependency1651234&#45;&gt;choice100101118451089711010347112121116104111110455146544656 -->
<g id="edge25" class="edge">
<title>dependency1651234:e&#45;&gt;choice100101118451089711010347112121116104111110455146544656:w</title>
<path fill="none" stroke="black" stroke-dasharray="1,5" d="M1315,-600C1408.11,-600 1330.54,-776.16 1410.98,-789.23"/>
<polygon fill="black" stroke="black" points="1421,-790 1410.69,-793.73 1416.01,-789.62 1411.03,-789.24 1411.03,-789.24 1411.03,-789.24 1416.01,-789.62 1411.37,-784.75 1421,-790 1421,-790"/>
</g>
<!-- choice100101118451089711010347112121116104111110455146554648 -->
<g id="node27" class="node">
<title>choice100101118451089711010347112121116104111110455146554648</title>
<g id="a_node27"><a xlink:href="../dev-lang/python-3.7.0.svg" xlink:title="dev&#45;lang/python&#45;3.7.0">
<ellipse fill="none" stroke="red" cx="1566" cy="-736" rx="144" ry="18"/>
<text text-anchor="middle" x="1566" y="-733" font-family="Helvetica,sans-Serif" font-size="10.00">dev&#45;lang/python&#45;3.7.0</text>
</a>
</g>
</g>
<!-- dependency1651234&#45;&gt;choice100101118451089711010347112121116104111110455146554648 -->
<g id="edge26" class="edge">
<title>dependency1651234:e&#45;&gt;choice100101118451089711010347112121116104111110455146554648:w</title>
<path fill="none" stroke="black" stroke-dasharray="1,5" d="M1315,-600C1388.04,-600 1348.52,-723.55 1411.01,-735.13"/>
<polygon fill="black" stroke="black" points="1421,-736 1410.65,-739.62 1416.02,-735.57 1411.04,-735.13 1411.04,-735.13 1411.04,-735.13 1416.02,-735.57 1411.43,-730.65 1421,-736 1421,-736"/>
</g>
<!-- choice100101118451089711010347112121116104111110455146554650 -->
<g id="node28" class="node">
<title>choice100101118451089711010347112121116104111110455146554650</title>
<g id="a_node28"><a xlink:href="../dev-lang/python-3.7.2.svg" xlink:title="dev&#45;lang/python&#45;3.7.2">
<ellipse fill="none" stroke="red" cx="1566" cy="-682" rx="144" ry="18"/>
<text text-anchor="middle" x="1566" y="-679" font-family="Helvetica,sans-Serif" font-size="10.00">dev&#45;lang/python&#45;3.7.2</text>
</a>
</g>
</g>
<!-- dependency1651234&#45;&gt;choice100101118451089711010347112121116104111110455146554650 -->
<g id="edge27" class="edge">
<title>dependency1651234:e&#45;&gt;choice100101118451089711010347112121116104111110455146554650:w</title>
<path fill="none" stroke="black" stroke-dasharray="1,5" d="M1315,-600C1370.96,-600 1362.76,-672.37 1410.95,-681.13"/>
<polygon fill="black" stroke="black" points="1421,-682 1410.65,-685.63 1416.02,-681.57 1411.04,-681.14 1411.04,-681.14 1411.04,-681.14 1416.02,-681.57 1411.42,-676.66 1421,-682 1421,-682"/>
</g>
<!-- dependency1651236 -->
<g id="node6" class="node">
<title>dependency1651236</title>
<polygon fill="none" stroke="red" points="885.5,-719 885.5,-753 962.5,-753 962.5,-719 885.5,-719"/>
<text text-anchor="start" x="896.49" y="-733" font-family="Helvetica,sans-Serif" font-size="10.00">all_of_group</text>
</g>
<!-- dependency1651235&#45;&gt;dependency1651236 -->
<g id="edge5" class="edge">
<title>dependency1651235:e&#45;&gt;dependency1651236:w</title>
<path fill="none" stroke="black" stroke-dasharray="1,5" d="M769,-698C816.31,-698 825.02,-730.84 866.9,-735.46"/>
<polygon fill="none" stroke="black" points="876.81,-739.5 867.01,-735.47 877.19,-732.5 876.81,-739.5"/>
</g>
<!-- dependency1651237 -->
<g id="node7" class="node">
<title>dependency1651237</title>
<polygon fill="none" stroke="blue" points="1086,-681 1086,-791 1191,-791 1191,-681 1086,-681"/>
<text text-anchor="start" x="1116.82" y="-733" font-family="Helvetica,sans-Serif" font-size="10.00">pack_dep</text>
<polygon fill="none" stroke="blue" points="1191,-769 1191,-791 1301,-791 1301,-769 1191,-769"/>
<text text-anchor="start" x="1240.44" y="-777" font-family="Helvetica,sans-Serif" font-size="10.00">no</text>
<polygon fill="none" stroke="blue" points="1191,-747 1191,-769 1301,-769 1301,-747 1191,-747"/>
<text text-anchor="start" x="1226.83" y="-755" font-family="Helvetica,sans-Serif" font-size="10.00">dev&#45;lang</text>
<polygon fill="none" stroke="blue" points="1191,-725 1191,-747 1301,-747 1301,-725 1191,-725"/>
<text text-anchor="start" x="1230.99" y="-733" font-family="Helvetica,sans-Serif" font-size="10.00">python</text>
<polygon fill="none" stroke="blue" points="1191,-703 1191,-725 1301,-725 1301,-703 1191,-703"/>
<text text-anchor="start" x="1217.94" y="-711" font-family="Helvetica,sans-Serif" font-size="10.00">greaterequal</text>
<polygon fill="none" stroke="blue" points="1191,-681 1191,-703 1301,-703 1301,-681 1191,-681"/>
<text text-anchor="start" x="1228.77" y="-689" font-family="Helvetica,sans-Serif" font-size="10.00">2.7.5&#45;r2</text>
</g>
<!-- dependency1651236&#45;&gt;dependency1651237 -->
<g id="edge3" class="edge">
<title>dependency1651236:e&#45;&gt;dependency1651237:w</title>
<path fill="none" stroke="black" d="M970,-736C1014.44,-736 1028.02,-736 1067.88,-736"/>
<polygon fill="black" stroke="black" points="1078,-739.5 1068,-736 1078,-732.5 1078,-739.5"/>
</g>
<!-- dependency1651238 -->
<g id="node8" class="node">
<title>dependency1651238</title>
<polygon fill="none" stroke="blue" points="1086,-817 1086,-915 1191,-915 1191,-817 1086,-817"/>
<text text-anchor="start" x="1116.82" y="-863" font-family="Helvetica,sans-Serif" font-size="10.00">pack_dep</text>
<polygon fill="none" stroke="blue" points="1191,-893 1191,-915 1301,-915 1301,-893 1191,-893"/>
<text text-anchor="start" x="1240.44" y="-901" font-family="Helvetica,sans-Serif" font-size="10.00">no</text>
<polygon fill="none" stroke="blue" points="1191,-871 1191,-893 1301,-893 1301,-871 1191,-871"/>
<text text-anchor="start" x="1221.27" y="-879" font-family="Helvetica,sans-Serif" font-size="10.00">dev&#45;python</text>
<polygon fill="none" stroke="blue" points="1191,-849 1191,-871 1301,-871 1301,-849 1191,-849"/>
<text text-anchor="start" x="1232.66" y="-857" font-family="Helvetica,sans-Serif" font-size="10.00">pydns</text>
<polygon fill="none" stroke="blue" points="1191,-827 1191,-849 1301,-849 1301,-827 1191,-827"/>
<text text-anchor="start" x="1234.88" y="-835" font-family="Helvetica,sans-Serif" font-size="10.00">none</text>
<polygon fill="none" stroke="blue" points="1191,-817 1191,-827 1301,-827 1301,-817 1191,-817"/>
</g>
<!-- dependency1651236&#45;&gt;dependency1651238 -->
<g id="edge4" class="edge">
<title>dependency1651236:e&#45;&gt;dependency1651238:w</title>
<path fill="none" stroke="black" d="M970,-736C1041.45,-736 1006.73,-853.61 1067.81,-865.1"/>
<polygon fill="black" stroke="black" points="1077.69,-869.49 1068.04,-865.12 1078.31,-862.51 1077.69,-869.49"/>
</g>
<!-- dependency1651237&#45;&gt;choice10010111845108971101034711212111610411111045504655464953 -->
<g id="edge28" class="edge">
<title>dependency1651237:e&#45;&gt;choice10010111845108971101034711212111610411111045504655464953:w</title>
<path fill="none" stroke="black" stroke-dasharray="1,5" d="M1315,-736C1378.58,-736 1356.58,-639.49 1410.79,-628.93"/>
<polygon fill="black" stroke="black" points="1421,-628 1411.45,-633.39 1416.02,-628.46 1411.04,-628.91 1411.04,-628.91 1411.04,-628.91 1416.02,-628.46 1410.63,-624.43 1421,-628 1421,-628"/>
</g>
<!-- dependency1651237&#45;&gt;choice10010111845108971101034711212111610411111045504655464954 -->
<g id="edge29" class="edge">
<title>dependency1651237:e&#45;&gt;choice10010111845108971101034711212111610411111045504655464954:w</title>
<path fill="none" stroke="black" stroke-dasharray="1,5" d="M1315,-736C1397.35,-736 1340.36,-587.62 1410.73,-574.87"/>
<polygon fill="black" stroke="black" points="1421,-574 1411.42,-579.33 1416.02,-574.42 1411.04,-574.85 1411.04,-574.85 1411.04,-574.85 1416.02,-574.42 1410.66,-570.36 1421,-574 1421,-574"/>
</g>
<!-- dependency1651237&#45;&gt;choice1001011184510897110103471121211161041111104551465246534511449 -->
<g id="edge30" class="edge">
<title>dependency1651237:e&#45;&gt;choice1001011184510897110103471121211161041111104551465246534511449:w</title>
<path fill="none" stroke="black" stroke-dasharray="1,5" d="M1315,-736C1418.28,-736 1321.19,-534.51 1410.77,-520.74"/>
<polygon fill="black" stroke="black" points="1421,-520 1411.35,-525.21 1416.01,-520.36 1411.03,-520.72 1411.03,-520.72 1411.03,-520.72 1416.01,-520.36 1410.7,-516.23 1421,-520 1421,-520"/>
</g>
<!-- dependency1651237&#45;&gt;choice1001011184510897110103471121211161041111104551465246544511449 -->
<g id="edge31" class="edge">
<title>dependency1651237:e&#45;&gt;choice1001011184510897110103471121211161041111104551465246544511449:w</title>
<path fill="none" stroke="black" stroke-dasharray="1,5" d="M1315,-736C1440.27,-736 1300.46,-481.08 1410.71,-466.64"/>
<polygon fill="black" stroke="black" points="1421,-466 1411.3,-471.11 1416.01,-466.31 1411.02,-466.62 1411.02,-466.62 1411.02,-466.62 1416.01,-466.31 1410.74,-462.13 1421,-466 1421,-466"/>
</g>
<!-- dependency1651237&#45;&gt;choice100101118451089711010347112121116104111110455146524656 -->
<g id="edge32" class="edge">
<title>dependency1651237:e&#45;&gt;choice100101118451089711010347112121116104111110455146524656:w</title>
<path fill="none" stroke="black" stroke-dasharray="1,5" d="M1315,-736C1462.96,-736 1278.53,-427.01 1410.91,-412.53"/>
<polygon fill="black" stroke="black" points="1421,-412 1411.25,-417.01 1416.01,-412.26 1411.01,-412.52 1411.01,-412.52 1411.01,-412.52 1416.01,-412.26 1410.78,-408.03 1421,-412 1421,-412"/>
</g>
<!-- dependency1651237&#45;&gt;choice1001011184510897110103471121211161041111104551465246564511449 -->
<g id="edge33" class="edge">
<title>dependency1651237:e&#45;&gt;choice1001011184510897110103471121211161041111104551465246564511449:w</title>
<path fill="none" stroke="black" stroke-dasharray="1,5" d="M1315,-736C1485.9,-736 1256.31,-373.34 1410.78,-358.47"/>
<polygon fill="black" stroke="black" points="1421,-358 1411.22,-362.96 1416.01,-358.23 1411.01,-358.46 1411.01,-358.46 1411.01,-358.46 1416.01,-358.23 1410.8,-353.96 1421,-358 1421,-358"/>
</g>
<!-- dependency1651237&#45;&gt;choice1001011184510897110103471121211161041111104551465346524511449 -->
<g id="edge34" class="edge">
<title>dependency1651237:e&#45;&gt;choice1001011184510897110103471121211161041111104551465346524511449:w</title>
<path fill="none" stroke="black" stroke-dasharray="1,5" d="M1315,-736C1509.12,-736 1233.6,-319.47 1410.76,-304.42"/>
<polygon fill="black" stroke="black" points="1421,-304 1411.19,-308.9 1416,-304.2 1411.01,-304.41 1411.01,-304.41 1411.01,-304.41 1416,-304.2 1410.82,-299.91 1421,-304 1421,-304"/>
</g>
<!-- dependency1651237&#45;&gt;choice100101118451089711010347112121116104111110455146534653 -->
<g id="edge35" class="edge">
<title>dependency1651237:e&#45;&gt;choice100101118451089711010347112121116104111110455146534653:w</title>
<path fill="none" stroke="black" stroke-dasharray="1,5" d="M1315,-736C1532.52,-736 1210.61,-265.54 1410.74,-250.37"/>
<polygon fill="black" stroke="black" points="1421,-250 1411.17,-254.86 1416,-250.18 1411.01,-250.36 1411.01,-250.36 1411.01,-250.36 1416,-250.18 1410.84,-245.87 1421,-250 1421,-250"/>
</g>
<!-- dependency1651237&#45;&gt;choice1001011184510897110103471121211161041111104551465346534511449 -->
<g id="edge36" class="edge">
<title>dependency1651237:e&#45;&gt;choice1001011184510897110103471121211161041111104551465346534511449:w</title>
<path fill="none" stroke="black" stroke-dasharray="1,5" d="M1315,-736C1556.12,-736 1187.15,-211.18 1410.98,-196.32"/>
<polygon fill="black" stroke="black" points="1421,-196 1411.15,-200.82 1416,-196.16 1411.01,-196.32 1411.01,-196.32 1411.01,-196.32 1416,-196.16 1410.86,-191.82 1421,-196 1421,-196"/>
</g>
<!-- dependency1651237&#45;&gt;choice100101118451089711010347112121116104111110455146534654 -->
<g id="edge37" class="edge">
<title>dependency1651237:e&#45;&gt;choice100101118451089711010347112121116104111110455146534654:w</title>
<path fill="none" stroke="black" stroke-dasharray="1,5" d="M1315,-736C1485.9,-736 1256.31,-1098.66 1410.78,-1113.53"/>
<polygon fill="black" stroke="black" points="1421,-1114 1410.8,-1118.04 1416.01,-1113.77 1411.01,-1113.54 1411.01,-1113.54 1411.01,-1113.54 1416.01,-1113.77 1411.22,-1109.04 1421,-1114 1421,-1114"/>
</g>
<!-- dependency1651237&#45;&gt;choice1001011184510897110103471121211161041111104551465446514511449 -->
<g id="edge38" class="edge">
<title>dependency1651237:e&#45;&gt;choice1001011184510897110103471121211161041111104551465446514511449:w</title>
<path fill="none" stroke="black" stroke-dasharray="1,5" d="M1315,-736C1462.96,-736 1278.53,-1044.99 1410.91,-1059.47"/>
<polygon fill="black" stroke="black" points="1421,-1060 1410.78,-1063.97 1416.01,-1059.74 1411.01,-1059.48 1411.01,-1059.48 1411.01,-1059.48 1416.01,-1059.74 1411.25,-1054.99 1421,-1060 1421,-1060"/>
</g>
<!-- dependency1651237&#45;&gt;choice100101118451089711010347112121116104111110455146544652 -->
<g id="edge39" class="edge">
<title>dependency1651237:e&#45;&gt;choice100101118451089711010347112121116104111110455146544652:w</title>
<path fill="none" stroke="black" stroke-dasharray="1,5" d="M1315,-736C1440.27,-736 1300.46,-990.92 1410.71,-1005.36"/>
<polygon fill="black" stroke="black" points="1421,-1006 1410.74,-1009.87 1416.01,-1005.69 1411.02,-1005.38 1411.02,-1005.38 1411.02,-1005.38 1416.01,-1005.69 1411.3,-1000.89 1421,-1006 1421,-1006"/>
</g>
<!-- dependency1651237&#45;&gt;choice100101118451089711010347112121116104111110455146544653 -->
<g id="edge40" class="edge">
<title>dependency1651237:e&#45;&gt;choice100101118451089711010347112121116104111110455146544653:w</title>
<path fill="none" stroke="black" stroke-dasharray="1,5" d="M1315,-736C1418.28,-736 1321.19,-937.49 1410.77,-951.26"/>
<polygon fill="black" stroke="black" points="1421,-952 1410.7,-955.77 1416.01,-951.64 1411.03,-951.28 1411.03,-951.28 1411.03,-951.28 1416.01,-951.64 1411.35,-946.79 1421,-952 1421,-952"/>
</g>
<!-- dependency1651237&#45;&gt;choice1001011184510897110103471121211161041111104551465446534511449 -->
<g id="edge41" class="edge">
<title>dependency1651237:e&#45;&gt;choice1001011184510897110103471121211161041111104551465446534511449:w</title>
<path fill="none" stroke="black" stroke-dasharray="1,5" d="M1315,-736C1397.35,-736 1340.36,-884.38 1410.73,-897.13"/>
<polygon fill="black" stroke="black" points="1421,-898 1410.66,-901.64 1416.02,-897.58 1411.04,-897.15 1411.04,-897.15 1411.04,-897.15 1416.02,-897.58 1411.42,-892.67 1421,-898 1421,-898"/>
</g>
<!-- dependency1651237&#45;&gt;choice100101118451089711010347112121116104111110455146544654 -->
<g id="edge42" class="edge">
<title>dependency1651237:e&#45;&gt;choice100101118451089711010347112121116104111110455146544654:w</title>
<path fill="none" stroke="black" stroke-dasharray="1,5" d="M1315,-736C1378.58,-736 1356.58,-832.51 1410.79,-843.07"/>
<polygon fill="black" stroke="black" points="1421,-844 1410.63,-847.57 1416.02,-843.54 1411.04,-843.09 1411.04,-843.09 1411.04,-843.09 1416.02,-843.54 1411.45,-838.61 1421,-844 1421,-844"/>
</g>
<!-- dependency1651237&#45;&gt;choice100101118451089711010347112121116104111110455146544656 -->
<g id="edge43" class="edge">
<title>dependency1651237:e&#45;&gt;choice100101118451089711010347112121116104111110455146544656:w</title>
<path fill="none" stroke="black" stroke-dasharray="1,5" d="M1315,-736C1364.26,-736 1367.85,-782.87 1410.86,-789.28"/>
<polygon fill="black" stroke="black" points="1421,-790 1410.71,-793.78 1416.01,-789.64 1411.03,-789.29 1411.03,-789.29 1411.03,-789.29 1416.01,-789.64 1411.35,-784.8 1421,-790 1421,-790"/>
</g>
<!-- dependency1651237&#45;&gt;choice100101118451089711010347112121116104111110455146554648 -->
<g id="edge44" class="edge">
<title>dependency1651237:e&#45;&gt;choice100101118451089711010347112121116104111110455146554648:w</title>
<path fill="none" stroke="black" stroke-dasharray="1,5" d="M1315,-736C1358.43,-736 1371.83,-736 1410.57,-736"/>
<polygon fill="black" stroke="black" points="1421,-736 1411,-740.5 1416,-736 1411,-736 1411,-736 1411,-736 1416,-736 1411,-731.5 1421,-736 1421,-736"/>
</g>
<!-- dependency1651237&#45;&gt;choice100101118451089711010347112121116104111110455146554650 -->
<g id="edge45" class="edge">
<title>dependency1651237:e&#45;&gt;choice100101118451089711010347112121116104111110455146554650:w</title>
<path fill="none" stroke="black" stroke-dasharray="1,5" d="M1315,-736C1364.26,-736 1367.85,-689.13 1410.86,-682.72"/>
<polygon fill="black" stroke="black" points="1421,-682 1411.35,-687.2 1416.01,-682.36 1411.03,-682.71 1411.03,-682.71 1411.03,-682.71 1416.01,-682.36 1410.71,-678.22 1421,-682 1421,-682"/>
</g>
<!-- choice10010111845112121116104111110471121211001101154550465146544511449 -->
<g id="node29" class="node">
<title>choice10010111845112121116104111110471121211001101154550465146544511449</title>
<g id="a_node29"><a xlink:href="../dev-python/pydns-2.3.6-r1.svg" xlink:title="dev&#45;python/pydns&#45;2.3.6&#45;r1">
<ellipse fill="none" stroke="red" cx="1566" cy="-1222" rx="144" ry="18"/>
<text text-anchor="middle" x="1566" y="-1219" font-family="Helvetica,sans-Serif" font-size="10.00">dev&#45;python/pydns&#45;2.3.6&#45;r1</text>
</a>
</g>
</g>
<!-- dependency1651238&#45;&gt;choice10010111845112121116104111110471121211001101154550465146544511449 -->
<g id="edge46" class="edge">
<title>dependency1651238:e&#45;&gt;choice10010111845112121116104111110471121211001101154550465146544511449:w</title>
<path fill="none" stroke="black" stroke-dasharray="1,5" d="M1315,-866C1476.54,-866 1265.37,-1206.87 1410.89,-1221.51"/>
<polygon fill="black" stroke="black" points="1421,-1222 1410.8,-1226.01 1416.01,-1221.76 1411.01,-1221.52 1411.01,-1221.52 1411.01,-1221.52 1416.01,-1221.76 1411.23,-1217.02 1421,-1222 1421,-1222"/>
</g>
<!-- choice1001011184511212111610411111047112121100110115455146494649 -->
<g id="node30" class="node">
<title>choice1001011184511212111610411111047112121100110115455146494649</title>
<g id="a_node30"><a xlink:href="../dev-python/pydns-3.1.1.svg" xlink:title="dev&#45;python/pydns&#45;3.1.1">
<ellipse fill="none" stroke="red" cx="1566" cy="-1168" rx="144" ry="18"/>
<text text-anchor="middle" x="1566" y="-1165" font-family="Helvetica,sans-Serif" font-size="10.00">dev&#45;python/pydns&#45;3.1.1</text>
</a>
</g>
</g>
<!-- dependency1651238&#45;&gt;choice1001011184511212111610411111047112121100110115455146494649 -->
<g id="edge47" class="edge">
<title>dependency1651238:e&#45;&gt;choice1001011184511212111610411111047112121100110115455146494649:w</title>
<path fill="none" stroke="black" stroke-dasharray="1,5" d="M1315,-866C1453.64,-866 1287.61,-1152.86 1410.77,-1167.43"/>
<polygon fill="black" stroke="black" points="1421,-1168 1410.76,-1171.93 1416.01,-1167.72 1411.02,-1167.44 1411.02,-1167.44 1411.02,-1167.44 1416.01,-1167.72 1411.27,-1162.95 1421,-1168 1421,-1168"/>
</g>
<!-- dependency1651240 -->
<g id="node10" class="node">
<title>dependency1651240</title>
<polygon fill="none" stroke="blue" points="1086,-93 1086,-191 1191,-191 1191,-93 1086,-93"/>
<text text-anchor="start" x="1116.82" y="-139" font-family="Helvetica,sans-Serif" font-size="10.00">pack_dep</text>
<polygon fill="none" stroke="blue" points="1191,-169 1191,-191 1301,-191 1301,-169 1191,-169"/>
<text text-anchor="start" x="1240.44" y="-177" font-family="Helvetica,sans-Serif" font-size="10.00">no</text>
<polygon fill="none" stroke="blue" points="1191,-147 1191,-169 1301,-169 1301,-147 1191,-147"/>
<text text-anchor="start" x="1229.34" y="-155" font-family="Helvetica,sans-Serif" font-size="10.00">sys&#45;libs</text>
<polygon fill="none" stroke="blue" points="1191,-125 1191,-147 1301,-147 1301,-125 1191,-125"/>
<text text-anchor="start" x="1238.5" y="-133" font-family="Helvetica,sans-Serif" font-size="10.00">zlib</text>
<polygon fill="none" stroke="blue" points="1191,-103 1191,-125 1301,-125 1301,-103 1191,-103"/>
<text text-anchor="start" x="1234.88" y="-111" font-family="Helvetica,sans-Serif" font-size="10.00">none</text>
<polygon fill="none" stroke="blue" points="1191,-93 1191,-103 1301,-103 1301,-93 1191,-93"/>
</g>
<!-- dependency1651239&#45;&gt;dependency1651240 -->
<g id="edge8" class="edge">
<title>dependency1651239:e&#45;&gt;dependency1651240:w</title>
<path fill="none" stroke="black" stroke-dasharray="5,2" d="M562,-162C788.03,-162 846.73,-142.6 1067.7,-142.01"/>
<polygon fill="black" stroke="black" points="1078,-142 1068.01,-146.51 1073,-142.01 1068,-142.01 1068,-142.01 1068,-142.01 1073,-142.01 1067.99,-137.51 1078,-142 1078,-142"/>
</g>
<!-- choice1151211154510810598115471221081059845494650464949 -->
<g id="node31" class="node">
<title>choice1151211154510810598115471221081059845494650464949</title>
<g id="a_node31"><a xlink:href="../sys-libs/zlib-1.2.11.svg" xlink:title="sys&#45;libs/zlib&#45;1.2.11">
<ellipse fill="none" stroke="red" cx="1566" cy="-88" rx="144" ry="18"/>
<text text-anchor="middle" x="1566" y="-85" font-family="Helvetica,sans-Serif" font-size="10.00">sys&#45;libs/zlib&#45;1.2.11</text>
</a>
</g>
</g>
<!-- dependency1651240&#45;&gt;choice1151211154510810598115471221081059845494650464949 -->
<g id="edge48" class="edge">
<title>dependency1651240:e&#45;&gt;choice1151211154510810598115471221081059845494650464949:w</title>
<path fill="none" stroke="black" stroke-dasharray="1,5" d="M1315,-142C1364.26,-142 1367.85,-95.13 1410.86,-88.72"/>
<polygon fill="black" stroke="black" points="1421,-88 1411.35,-93.2 1416.01,-88.36 1411.03,-88.71 1411.03,-88.71 1411.03,-88.71 1416.01,-88.36 1410.71,-84.22 1421,-88 1421,-88"/>
</g>
<!-- choice11512111545108105981154712210810598454946504649494511449 -->
<g id="node32" class="node">
<title>choice11512111545108105981154712210810598454946504649494511449</title>
<g id="a_node32"><a xlink:href="../sys-libs/zlib-1.2.11-r1.svg" xlink:title="sys&#45;libs/zlib&#45;1.2.11&#45;r1">
<ellipse fill="none" stroke="red" cx="1566" cy="-34" rx="144" ry="18"/>
<text text-anchor="middle" x="1566" y="-31" font-family="Helvetica,sans-Serif" font-size="10.00">sys&#45;libs/zlib&#45;1.2.11&#45;r1</text>
</a>
</g>
</g>
<!-- dependency1651240&#45;&gt;choice11512111545108105981154712210810598454946504649494511449 -->
<g id="edge49" class="edge">
<title>dependency1651240:e&#45;&gt;choice11512111545108105981154712210810598454946504649494511449:w</title>
<path fill="none" stroke="black" stroke-dasharray="1,5" d="M1315,-142C1378.58,-142 1356.58,-45.49 1410.79,-34.93"/>
<polygon fill="black" stroke="black" points="1421,-34 1411.45,-39.39 1416.02,-34.46 1411.04,-34.91 1411.04,-34.91 1411.04,-34.91 1416.02,-34.46 1410.63,-30.43 1421,-34 1421,-34"/>
</g>
<!-- choice11512111545108105981154712210810598454946504649494511450 -->
<g id="node33" class="node">
<title>choice11512111545108105981154712210810598454946504649494511450</title>
<g id="a_node33"><a xlink:href="../sys-libs/zlib-1.2.11-r2.svg" xlink:title="sys&#45;libs/zlib&#45;1.2.11&#45;r2">
<ellipse fill="none" stroke="red" cx="1566" cy="-142" rx="144" ry="18"/>
<text text-anchor="middle" x="1566" y="-139" font-family="Helvetica,sans-Serif" font-size="10.00">sys&#45;libs/zlib&#45;1.2.11&#45;r2</text>
</a>
</g>
</g>
<!-- dependency1651240&#45;&gt;choice11512111545108105981154712210810598454946504649494511450 -->
<g id="edge50" class="edge">
<title>dependency1651240:e&#45;&gt;choice11512111545108105981154712210810598454946504649494511450:w</title>
<path fill="none" stroke="black" stroke-dasharray="1,5" d="M1315,-142C1358.43,-142 1371.83,-142 1410.57,-142"/>
<polygon fill="black" stroke="black" points="1421,-142 1411,-146.5 1416,-142 1411,-142 1411,-142 1411,-142 1416,-142 1411,-137.5 1421,-142 1421,-142"/>
</g>
</g>
</svg>
