<?xml version="1.0" encoding="UTF-8" standalone="no"?>
<!DOCTYPE svg PUBLIC "-//W3C//DTD SVG 1.1//EN"
 "http://www.w3.org/Graphics/SVG/1.1/DTD/svg11.dtd">
<!-- Generated by graphviz version 12.0.0 (20240704.0754)
 -->
<!-- Title: prolog Pages: 1 -->
<svg width="1273pt" height="959pt"
 viewBox="0.00 0.00 1272.50 959.00" xmlns="http://www.w3.org/2000/svg" xmlns:xlink="http://www.w3.org/1999/xlink">
<g id="graph0" class="graph" transform="scale(1 1) rotate(0) translate(4 955)">
<title>prolog</title>
<polygon fill="white" stroke="none" points="-4,4 -4,-955 1268.5,-955 1268.5,4 -4,4"/>
<g id="clust1" class="cluster">
<title>cluster_leftcol</title>
<polygon fill="none" stroke="gray" points="8,-494 8,-565 312,-565 312,-494 8,-494"/>
<text text-anchor="start" x="147.25" y="-552.5" font-family="Helvetica,sans-Serif" font-style="italic" font-size="10.00">ebuild</text>
</g>
<g id="clust2" class="cluster">
<title>cluster_midcol</title>
<polygon fill="none" stroke="gray" points="396,-177 396,-847 868.5,-847 868.5,-177 396,-177"/>
<text text-anchor="start" x="602.25" y="-834.5" font-family="Helvetica,sans-Serif" font-style="italic" font-size="10.00">dependencies</text>
</g>
<g id="clust5" class="cluster">
<title>cluster_run</title>
<polygon fill="#eeeeee" stroke="gray" points="404,-185 404,-820 860.5,-820 860.5,-185 404,-185"/>
<text text-anchor="start" x="625.5" y="-807.5" font-family="Helvetica,sans-Serif" font-style="italic" font-size="10.00">run</text>
</g>
<g id="clust10" class="cluster">
<title>cluster_choices</title>
<polygon fill="none" stroke="gray" points="952.5,-8 952.5,-943 1256.5,-943 1256.5,-8 952.5,-8"/>
<text text-anchor="start" x="1080.88" y="-930.5" font-family="Helvetica,sans-Serif" font-style="italic" font-size="10.00">candidates</text>
</g>
<!-- id -->
<g id="node1" class="node">
<title>id</title>
<g id="a_node1"><a xlink:href="../media-tv/tvbrowser-bin-4.2.7.svg" xlink:title="portage://media&#45;tv/tvbrowser&#45;bin&#45;4.2.7">
<ellipse fill="none" stroke="red" cx="160" cy="-520" rx="144" ry="18"/>
<text text-anchor="middle" x="160" y="-516.12" font-family="Helvetica,sans-Serif" font-size="10.00">portage://media&#45;tv/tvbrowser&#45;bin&#45;4.2.7</text>
</a>
</g>
</g>
<!-- dependency324927 -->
<g id="node2" class="node">
<title>dependency324927</title>
<polygon fill="none" stroke="red" points="420,-503.38 420,-536.62 500.5,-536.62 500.5,-503.38 420,-503.38"/>
<text text-anchor="start" x="431" y="-516.12" font-family="Helvetica,sans-Serif" font-size="10.00">any_of_group</text>
</g>
<!-- id&#45;&gt;dependency324927 -->
<g id="edge4" class="edge">
<title>id:e&#45;&gt;dependency324927:w</title>
<path fill="none" stroke="black" d="M305.23,-520C349.14,-520 362.3,-520 402.12,-520"/>
<ellipse fill="none" stroke="black" cx="406.55" cy="-520" rx="4" ry="4"/>
</g>
<!-- dependency324928 -->
<g id="node3" class="node">
<title>dependency324928</title>
<polygon fill="none" stroke="blue" points="624.5,-197.5 624.5,-302.5 728.5,-302.5 728.5,-197.5 624.5,-197.5"/>
<text text-anchor="start" x="655.5" y="-246.12" font-family="Helvetica,sans-Serif" font-size="10.00">pack_dep</text>
<polygon fill="none" stroke="blue" points="728.5,-281.5 728.5,-302.5 838.5,-302.5 838.5,-281.5 728.5,-281.5"/>
<text text-anchor="start" x="776.75" y="-288" font-family="Helvetica,sans-Serif" font-size="10.00">run</text>
<polygon fill="none" stroke="blue" points="728.5,-260.5 728.5,-281.5 838.5,-281.5 838.5,-260.5 728.5,-260.5"/>
<text text-anchor="start" x="765.12" y="-267" font-family="Helvetica,sans-Serif" font-size="10.00">dev&#45;java</text>
<polygon fill="none" stroke="blue" points="728.5,-239.5 728.5,-260.5 838.5,-260.5 838.5,-239.5 728.5,-239.5"/>
<text text-anchor="start" x="766.62" y="-246" font-family="Helvetica,sans-Serif" font-size="10.00">openjdk</text>
<polygon fill="none" stroke="blue" points="728.5,-218.5 728.5,-239.5 838.5,-239.5 838.5,-218.5 728.5,-218.5"/>
<text text-anchor="start" x="773" y="-225" font-family="Helvetica,sans-Serif" font-size="10.00">none</text>
<polygon fill="none" stroke="blue" points="728.5,-197.5 728.5,-218.5 838.5,-218.5 838.5,-197.5 728.5,-197.5"/>
<text text-anchor="start" x="777.5" y="-204" font-family="Helvetica,sans-Serif" font-size="10.00">[,,]</text>
</g>
<!-- dependency324927&#45;&gt;dependency324928 -->
<g id="edge1" class="edge">
<title>dependency324927:e&#45;&gt;dependency324928:w</title>
<path fill="none" stroke="black" stroke-dasharray="1,5" d="M508.5,-520C634.08,-520 495.56,-265.08 606.18,-250.64"/>
<polygon fill="none" stroke="black" points="616.22,-253.52 606.02,-250.65 615.79,-246.54 616.22,-253.52"/>
</g>
<!-- dependency324929 -->
<g id="node4" class="node">
<title>dependency324929</title>
<polygon fill="none" stroke="blue" points="624.5,-467.5 624.5,-572.5 728.5,-572.5 728.5,-467.5 624.5,-467.5"/>
<text text-anchor="start" x="655.5" y="-516.12" font-family="Helvetica,sans-Serif" font-size="10.00">pack_dep</text>
<polygon fill="none" stroke="blue" points="728.5,-551.5 728.5,-572.5 838.5,-572.5 838.5,-551.5 728.5,-551.5"/>
<text text-anchor="start" x="776.75" y="-558" font-family="Helvetica,sans-Serif" font-size="10.00">run</text>
<polygon fill="none" stroke="blue" points="728.5,-530.5 728.5,-551.5 838.5,-551.5 838.5,-530.5 728.5,-530.5"/>
<text text-anchor="start" x="765.12" y="-537" font-family="Helvetica,sans-Serif" font-size="10.00">dev&#45;java</text>
<polygon fill="none" stroke="blue" points="728.5,-509.5 728.5,-530.5 838.5,-530.5 838.5,-509.5 728.5,-509.5"/>
<text text-anchor="start" x="758.75" y="-516" font-family="Helvetica,sans-Serif" font-size="10.00">openjdk&#45;bin</text>
<polygon fill="none" stroke="blue" points="728.5,-488.5 728.5,-509.5 838.5,-509.5 838.5,-488.5 728.5,-488.5"/>
<text text-anchor="start" x="773" y="-495" font-family="Helvetica,sans-Serif" font-size="10.00">none</text>
<polygon fill="none" stroke="blue" points="728.5,-467.5 728.5,-488.5 838.5,-488.5 838.5,-467.5 728.5,-467.5"/>
<text text-anchor="start" x="777.5" y="-474" font-family="Helvetica,sans-Serif" font-size="10.00">[,,]</text>
</g>
<!-- dependency324927&#45;&gt;dependency324929 -->
<g id="edge2" class="edge">
<title>dependency324927:e&#45;&gt;dependency324929:w</title>
<path fill="none" stroke="black" stroke-dasharray="1,5" d="M508.5,-520C552.84,-520 566.46,-520 606.13,-520"/>
<polygon fill="none" stroke="black" points="616,-523.5 606,-520 616,-516.5 616,-523.5"/>
</g>
<!-- dependency324930 -->
<g id="node5" class="node">
<title>dependency324930</title>
<polygon fill="none" stroke="blue" points="624.5,-683.5 624.5,-788.5 728.5,-788.5 728.5,-683.5 624.5,-683.5"/>
<text text-anchor="start" x="655.5" y="-732.12" font-family="Helvetica,sans-Serif" font-size="10.00">pack_dep</text>
<polygon fill="none" stroke="blue" points="728.5,-767.5 728.5,-788.5 838.5,-788.5 838.5,-767.5 728.5,-767.5"/>
<text text-anchor="start" x="776.75" y="-774" font-family="Helvetica,sans-Serif" font-size="10.00">run</text>
<polygon fill="none" stroke="blue" points="728.5,-746.5 728.5,-767.5 838.5,-767.5 838.5,-746.5 728.5,-746.5"/>
<text text-anchor="start" x="765.12" y="-753" font-family="Helvetica,sans-Serif" font-size="10.00">dev&#45;java</text>
<polygon fill="none" stroke="blue" points="728.5,-725.5 728.5,-746.5 838.5,-746.5 838.5,-725.5 728.5,-725.5"/>
<text text-anchor="start" x="752" y="-732" font-family="Helvetica,sans-Serif" font-size="10.00">openjdk&#45;jre&#45;bin</text>
<polygon fill="none" stroke="blue" points="728.5,-704.5 728.5,-725.5 838.5,-725.5 838.5,-704.5 728.5,-704.5"/>
<text text-anchor="start" x="773" y="-711" font-family="Helvetica,sans-Serif" font-size="10.00">none</text>
<polygon fill="none" stroke="blue" points="728.5,-683.5 728.5,-704.5 838.5,-704.5 838.5,-683.5 728.5,-683.5"/>
<text text-anchor="start" x="777.5" y="-690" font-family="Helvetica,sans-Serif" font-size="10.00">[,,]</text>
</g>
<!-- dependency324927&#45;&gt;dependency324930 -->
<g id="edge3" class="edge">
<title>dependency324927:e&#45;&gt;dependency324930:w</title>
<path fill="none" stroke="black" stroke-dasharray="1,5" d="M508.5,-520C612.06,-520 516.4,-721.08 605.95,-735.22"/>
<polygon fill="none" stroke="black" points="615.74,-739.45 606.03,-735.22 616.26,-732.47 615.74,-739.45"/>
</g>
<!-- choice10010111845106971189747111112101110106100107455049464846529511255 -->
<g id="node6" class="node">
<title>choice10010111845106971189747111112101110106100107455049464846529511255</title>
<g id="a_node6"><a xlink:href="../dev-java/openjdk-21.0.4_p7.svg" xlink:title="portage://dev&#45;java/openjdk&#45;21.0.4_p7">
<ellipse fill="none" stroke="red" cx="1104.5" cy="-34" rx="144" ry="18"/>
<text text-anchor="middle" x="1104.5" y="-30.12" font-family="Helvetica,sans-Serif" font-size="10.00">portage://dev&#45;java/openjdk&#45;21.0.4_p7</text>
</a>
</g>
</g>
<!-- dependency324928&#45;&gt;choice10010111845106971189747111112101110106100107455049464846529511255 -->
<g id="edge5" class="edge">
<title>dependency324928:e&#45;&gt;choice10010111845106971189747111112101110106100107455049464846529511255:w</title>
<path fill="none" stroke="black" stroke-dasharray="1,5" d="M853.39,-250C956.33,-250 860.07,-49.73 948.23,-34.87"/>
<polygon fill="black" stroke="black" points="958.05,-34.1 948.44,-39.37 954.28,-34.39 948.08,-34.88 948.08,-34.88 948.08,-34.88 954.28,-34.39 947.73,-30.4 958.05,-34.1"/>
</g>
<!-- choice1001011184510697118974711111210111010610010745495546484649509511255 -->
<g id="node7" class="node">
<title>choice1001011184510697118974711111210111010610010745495546484649509511255</title>
<g id="a_node7"><a xlink:href="../dev-java/openjdk-17.0.12_p7.svg" xlink:title="portage://dev&#45;java/openjdk&#45;17.0.12_p7">
<ellipse fill="none" stroke="red" cx="1104.5" cy="-88" rx="144" ry="18"/>
<text text-anchor="middle" x="1104.5" y="-84.12" font-family="Helvetica,sans-Serif" font-size="10.00">portage://dev&#45;java/openjdk&#45;17.0.12_p7</text>
</a>
</g>
</g>
<!-- dependency324928&#45;&gt;choice1001011184510697118974711111210111010610010745495546484649509511255 -->
<g id="edge6" class="edge">
<title>dependency324928:e&#45;&gt;choice1001011184510697118974711111210111010610010745495546484649509511255:w</title>
<path fill="none" stroke="black" stroke-dasharray="1,5" d="M853.39,-250C935.37,-250 879.12,-102.83 948.14,-89.03"/>
<polygon fill="black" stroke="black" points="958.05,-88.11 948.51,-93.52 954.29,-88.46 948.1,-89.04 948.1,-89.04 948.1,-89.04 954.29,-88.46 947.68,-84.56 958.05,-88.11"/>
</g>
<!-- choice1001011184510697118974711111210111010610010745495546484649499511257 -->
<g id="node8" class="node">
<title>choice1001011184510697118974711111210111010610010745495546484649499511257</title>
<g id="a_node8"><a xlink:href="../dev-java/openjdk-17.0.11_p9.svg" xlink:title="portage://dev&#45;java/openjdk&#45;17.0.11_p9">
<ellipse fill="none" stroke="red" cx="1104.5" cy="-142" rx="144" ry="18"/>
<text text-anchor="middle" x="1104.5" y="-138.12" font-family="Helvetica,sans-Serif" font-size="10.00">portage://dev&#45;java/openjdk&#45;17.0.11_p9</text>
</a>
</g>
</g>
<!-- dependency324928&#45;&gt;choice1001011184510697118974711111210111010610010745495546484649499511257 -->
<g id="edge7" class="edge">
<title>dependency324928:e&#45;&gt;choice1001011184510697118974711111210111010610010745495546484649499511257:w</title>
<path fill="none" stroke="black" stroke-dasharray="1,5" d="M853.39,-250C916.67,-250 895.07,-154.29 948.4,-143.07"/>
<polygon fill="black" stroke="black" points="958.05,-142.12 948.54,-147.58 954.29,-142.49 948.1,-143.1 948.1,-143.1 948.1,-143.1 954.29,-142.49 947.66,-138.62 958.05,-142.12"/>
</g>
<!-- choice1001011184510697118974711111210111010610010745494946484650529511256 -->
<g id="node9" class="node">
<title>choice1001011184510697118974711111210111010610010745494946484650529511256</title>
<g id="a_node9"><a xlink:href="../dev-java/openjdk-11.0.24_p8.svg" xlink:title="portage://dev&#45;java/openjdk&#45;11.0.24_p8">
<ellipse fill="none" stroke="red" cx="1104.5" cy="-196" rx="144" ry="18"/>
<text text-anchor="middle" x="1104.5" y="-192.12" font-family="Helvetica,sans-Serif" font-size="10.00">portage://dev&#45;java/openjdk&#45;11.0.24_p8</text>
</a>
</g>
</g>
<!-- dependency324928&#45;&gt;choice1001011184510697118974711111210111010610010745494946484650529511256 -->
<g id="edge8" class="edge">
<title>dependency324928:e&#45;&gt;choice1001011184510697118974711111210111010610010745494946484650529511256:w</title>
<path fill="none" stroke="black" stroke-dasharray="1,5" d="M853.39,-250C902.29,-250 906.12,-203.72 948.33,-196.85"/>
<polygon fill="black" stroke="black" points="958.05,-196.09 948.43,-201.35 954.28,-196.39 948.08,-196.87 948.08,-196.87 948.08,-196.87 954.28,-196.39 947.73,-192.38 958.05,-196.09"/>
</g>
<!-- choice10010111845106971189747111112101110106100107454949464846505195112574511449 -->
<g id="node10" class="node">
<title>choice10010111845106971189747111112101110106100107454949464846505195112574511449</title>
<g id="a_node10"><a xlink:href="../dev-java/openjdk-11.0.23_p9-r1.svg" xlink:title="portage://dev&#45;java/openjdk&#45;11.0.23_p9&#45;r1">
<ellipse fill="none" stroke="red" cx="1104.5" cy="-250" rx="144" ry="18"/>
<text text-anchor="middle" x="1104.5" y="-246.12" font-family="Helvetica,sans-Serif" font-size="10.00">portage://dev&#45;java/openjdk&#45;11.0.23_p9&#45;r1</text>
</a>
</g>
</g>
<!-- dependency324928&#45;&gt;choice10010111845106971189747111112101110106100107454949464846505195112574511449 -->
<g id="edge9" class="edge">
<title>dependency324928:e&#45;&gt;choice10010111845106971189747111112101110106100107454949464846505195112574511449:w</title>
<path fill="none" stroke="black" stroke-dasharray="1,5" d="M853.39,-250C896.58,-250 910.04,-250 948.36,-250"/>
<polygon fill="black" stroke="black" points="958.05,-250 948.05,-254.5 954.27,-250 948.05,-250 948.05,-250 948.05,-250 954.27,-250 948.05,-245.5 958.05,-250"/>
</g>
<!-- choice10010111845106971189747111112101110106100107455646524950951124856 -->
<g id="node11" class="node">
<title>choice10010111845106971189747111112101110106100107455646524950951124856</title>
<g id="a_node11"><a xlink:href="../dev-java/openjdk-8.412_p08.svg" xlink:title="portage://dev&#45;java/openjdk&#45;8.412_p08">
<ellipse fill="none" stroke="red" cx="1104.5" cy="-304" rx="144" ry="18"/>
<text text-anchor="middle" x="1104.5" y="-300.12" font-family="Helvetica,sans-Serif" font-size="10.00">portage://dev&#45;java/openjdk&#45;8.412_p08</text>
</a>
</g>
</g>
<!-- dependency324928&#45;&gt;choice10010111845106971189747111112101110106100107455646524950951124856 -->
<g id="edge10" class="edge">
<title>dependency324928:e&#45;&gt;choice10010111845106971189747111112101110106100107455646524950951124856:w</title>
<path fill="none" stroke="black" stroke-dasharray="1,5" d="M853.39,-250C902.29,-250 906.12,-296.28 948.33,-303.15"/>
<polygon fill="black" stroke="black" points="958.05,-303.91 947.73,-307.62 954.28,-303.61 948.08,-303.13 948.08,-303.13 948.08,-303.13 954.28,-303.61 948.43,-298.65 958.05,-303.91"/>
</g>
<!-- choice1001011184510697118974711111210111010610010745981051104550529511255959810111697 -->
<g id="node12" class="node">
<title>choice1001011184510697118974711111210111010610010745981051104550529511255959810111697</title>
<g id="a_node12"><a xlink:href="../dev-java/openjdk-bin-24_p7_beta.svg" xlink:title="portage://dev&#45;java/openjdk&#45;bin&#45;24_p7_beta">
<ellipse fill="none" stroke="red" cx="1104.5" cy="-358" rx="144" ry="18"/>
<text text-anchor="middle" x="1104.5" y="-354.12" font-family="Helvetica,sans-Serif" font-size="10.00">portage://dev&#45;java/openjdk&#45;bin&#45;24_p7_beta</text>
</a>
</g>
</g>
<!-- dependency324929&#45;&gt;choice1001011184510697118974711111210111010610010745981051104550529511255959810111697 -->
<g id="edge11" class="edge">
<title>dependency324929:e&#45;&gt;choice1001011184510697118974711111210111010610010745981051104550529511255959810111697:w</title>
<path fill="none" stroke="black" stroke-dasharray="1,5" d="M853.39,-520C935.37,-520 879.12,-372.83 948.14,-359.03"/>
<polygon fill="black" stroke="black" points="958.05,-358.11 948.51,-363.52 954.29,-358.46 948.1,-359.04 948.1,-359.04 948.1,-359.04 954.29,-358.46 947.68,-354.56 958.05,-358.11"/>
</g>
<!-- choice100101118451069711897471111121011101061001074598105110455049464846529511255 -->
<g id="node13" class="node">
<title>choice100101118451069711897471111121011101061001074598105110455049464846529511255</title>
<g id="a_node13"><a xlink:href="../dev-java/openjdk-bin-21.0.4_p7.svg" xlink:title="portage://dev&#45;java/openjdk&#45;bin&#45;21.0.4_p7">
<ellipse fill="none" stroke="red" cx="1104.5" cy="-412" rx="144" ry="18"/>
<text text-anchor="middle" x="1104.5" y="-408.12" font-family="Helvetica,sans-Serif" font-size="10.00">portage://dev&#45;java/openjdk&#45;bin&#45;21.0.4_p7</text>
</a>
</g>
</g>
<!-- dependency324929&#45;&gt;choice100101118451069711897471111121011101061001074598105110455049464846529511255 -->
<g id="edge12" class="edge">
<title>dependency324929:e&#45;&gt;choice100101118451069711897471111121011101061001074598105110455049464846529511255:w</title>
<path fill="none" stroke="black" stroke-dasharray="1,5" d="M853.39,-520C916.67,-520 895.07,-424.29 948.4,-413.07"/>
<polygon fill="black" stroke="black" points="958.05,-412.12 948.54,-417.58 954.29,-412.49 948.1,-413.1 948.1,-413.1 948.1,-413.1 954.29,-412.49 947.66,-408.62 958.05,-412.12"/>
</g>
<!-- choice10010111845106971189747111112101110106100107459810511045495546484649509511255 -->
<g id="node14" class="node">
<title>choice10010111845106971189747111112101110106100107459810511045495546484649509511255</title>
<g id="a_node14"><a xlink:href="../dev-java/openjdk-bin-17.0.12_p7.svg" xlink:title="portage://dev&#45;java/openjdk&#45;bin&#45;17.0.12_p7">
<ellipse fill="none" stroke="red" cx="1104.5" cy="-466" rx="144" ry="18"/>
<text text-anchor="middle" x="1104.5" y="-462.12" font-family="Helvetica,sans-Serif" font-size="10.00">portage://dev&#45;java/openjdk&#45;bin&#45;17.0.12_p7</text>
</a>
</g>
</g>
<!-- dependency324929&#45;&gt;choice10010111845106971189747111112101110106100107459810511045495546484649509511255 -->
<g id="edge13" class="edge">
<title>dependency324929:e&#45;&gt;choice10010111845106971189747111112101110106100107459810511045495546484649509511255:w</title>
<path fill="none" stroke="black" stroke-dasharray="1,5" d="M853.39,-520C902.29,-520 906.12,-473.72 948.33,-466.85"/>
<polygon fill="black" stroke="black" points="958.05,-466.09 948.43,-471.35 954.28,-466.39 948.08,-466.87 948.08,-466.87 948.08,-466.87 954.28,-466.39 947.73,-462.38 958.05,-466.09"/>
</g>
<!-- choice10010111845106971189747111112101110106100107459810511045495546484649499511257 -->
<g id="node15" class="node">
<title>choice10010111845106971189747111112101110106100107459810511045495546484649499511257</title>
<g id="a_node15"><a xlink:href="../dev-java/openjdk-bin-17.0.11_p9.svg" xlink:title="portage://dev&#45;java/openjdk&#45;bin&#45;17.0.11_p9">
<ellipse fill="none" stroke="red" cx="1104.5" cy="-520" rx="144" ry="18"/>
<text text-anchor="middle" x="1104.5" y="-516.12" font-family="Helvetica,sans-Serif" font-size="10.00">portage://dev&#45;java/openjdk&#45;bin&#45;17.0.11_p9</text>
</a>
</g>
</g>
<!-- dependency324929&#45;&gt;choice10010111845106971189747111112101110106100107459810511045495546484649499511257 -->
<g id="edge14" class="edge">
<title>dependency324929:e&#45;&gt;choice10010111845106971189747111112101110106100107459810511045495546484649499511257:w</title>
<path fill="none" stroke="black" stroke-dasharray="1,5" d="M853.39,-520C896.58,-520 910.04,-520 948.36,-520"/>
<polygon fill="black" stroke="black" points="958.05,-520 948.05,-524.5 954.27,-520 948.05,-520 948.05,-520 948.05,-520 954.27,-520 948.05,-515.5 958.05,-520"/>
</g>
<!-- choice10010111845106971189747111112101110106100107459810511045494946484650529511256 -->
<g id="node16" class="node">
<title>choice10010111845106971189747111112101110106100107459810511045494946484650529511256</title>
<g id="a_node16"><a xlink:href="../dev-java/openjdk-bin-11.0.24_p8.svg" xlink:title="portage://dev&#45;java/openjdk&#45;bin&#45;11.0.24_p8">
<ellipse fill="none" stroke="red" cx="1104.5" cy="-574" rx="144" ry="18"/>
<text text-anchor="middle" x="1104.5" y="-570.12" font-family="Helvetica,sans-Serif" font-size="10.00">portage://dev&#45;java/openjdk&#45;bin&#45;11.0.24_p8</text>
</a>
</g>
</g>
<!-- dependency324929&#45;&gt;choice10010111845106971189747111112101110106100107459810511045494946484650529511256 -->
<g id="edge15" class="edge">
<title>dependency324929:e&#45;&gt;choice10010111845106971189747111112101110106100107459810511045494946484650529511256:w</title>
<path fill="none" stroke="black" stroke-dasharray="1,5" d="M853.39,-520C902.29,-520 906.12,-566.28 948.33,-573.15"/>
<polygon fill="black" stroke="black" points="958.05,-573.91 947.73,-577.62 954.28,-573.61 948.08,-573.13 948.08,-573.13 948.08,-573.13 954.28,-573.61 948.43,-568.65 958.05,-573.91"/>
</g>
<!-- choice10010111845106971189747111112101110106100107459810511045494946484650519511257 -->
<g id="node17" class="node">
<title>choice10010111845106971189747111112101110106100107459810511045494946484650519511257</title>
<g id="a_node17"><a xlink:href="../dev-java/openjdk-bin-11.0.23_p9.svg" xlink:title="portage://dev&#45;java/openjdk&#45;bin&#45;11.0.23_p9">
<ellipse fill="none" stroke="red" cx="1104.5" cy="-628" rx="144" ry="18"/>
<text text-anchor="middle" x="1104.5" y="-624.12" font-family="Helvetica,sans-Serif" font-size="10.00">portage://dev&#45;java/openjdk&#45;bin&#45;11.0.23_p9</text>
</a>
</g>
</g>
<!-- dependency324929&#45;&gt;choice10010111845106971189747111112101110106100107459810511045494946484650519511257 -->
<g id="edge16" class="edge">
<title>dependency324929:e&#45;&gt;choice10010111845106971189747111112101110106100107459810511045494946484650519511257:w</title>
<path fill="none" stroke="black" stroke-dasharray="1,5" d="M853.39,-520C916.67,-520 895.07,-615.71 948.4,-626.93"/>
<polygon fill="black" stroke="black" points="958.05,-627.88 947.66,-631.38 954.29,-627.51 948.1,-626.9 948.1,-626.9 948.1,-626.9 954.29,-627.51 948.54,-622.42 958.05,-627.88"/>
</g>
<!-- choice100101118451069711897471111121011101061001074598105110455646524950951124856 -->
<g id="node18" class="node">
<title>choice100101118451069711897471111121011101061001074598105110455646524950951124856</title>
<g id="a_node18"><a xlink:href="../dev-java/openjdk-bin-8.412_p08.svg" xlink:title="portage://dev&#45;java/openjdk&#45;bin&#45;8.412_p08">
<ellipse fill="none" stroke="red" cx="1104.5" cy="-682" rx="144" ry="18"/>
<text text-anchor="middle" x="1104.5" y="-678.12" font-family="Helvetica,sans-Serif" font-size="10.00">portage://dev&#45;java/openjdk&#45;bin&#45;8.412_p08</text>
</a>
</g>
</g>
<!-- dependency324929&#45;&gt;choice100101118451069711897471111121011101061001074598105110455646524950951124856 -->
<g id="edge17" class="edge">
<title>dependency324929:e&#45;&gt;choice100101118451069711897471111121011101061001074598105110455646524950951124856:w</title>
<path fill="none" stroke="black" stroke-dasharray="1,5" d="M853.39,-520C935.37,-520 879.12,-667.17 948.14,-680.97"/>
<polygon fill="black" stroke="black" points="958.05,-681.89 947.68,-685.44 954.29,-681.54 948.1,-680.96 948.1,-680.96 948.1,-680.96 954.29,-681.54 948.51,-676.48 958.05,-681.89"/>
</g>
<!-- choice10010111845106971189747111112101110106100107451061141014598105110455049464846519511257 -->
<g id="node19" class="node">
<title>choice10010111845106971189747111112101110106100107451061141014598105110455049464846519511257</title>
<g id="a_node19"><a xlink:href="../dev-java/openjdk-jre-bin-21.0.3_p9.svg" xlink:title="portage://dev&#45;java/openjdk&#45;jre&#45;bin&#45;21.0.3_p9">
<ellipse fill="none" stroke="red" cx="1104.5" cy="-736" rx="144" ry="18"/>
<text text-anchor="middle" x="1104.5" y="-732.12" font-family="Helvetica,sans-Serif" font-size="10.00">portage://dev&#45;java/openjdk&#45;jre&#45;bin&#45;21.0.3_p9</text>
</a>
</g>
</g>
<!-- dependency324930&#45;&gt;choice10010111845106971189747111112101110106100107451061141014598105110455049464846519511257 -->
<g id="edge18" class="edge">
<title>dependency324930:e&#45;&gt;choice10010111845106971189747111112101110106100107451061141014598105110455049464846519511257:w</title>
<path fill="none" stroke="black" stroke-dasharray="1,5" d="M853.39,-736C896.58,-736 910.04,-736 948.36,-736"/>
<polygon fill="black" stroke="black" points="958.05,-736 948.05,-740.5 954.27,-736 948.05,-736 948.05,-736 948.05,-736 954.27,-736 948.05,-731.5 958.05,-736"/>
</g>
<!-- choice1001011184510697118974711111210111010610010745106114101459810511045495546484649499511257 -->
<g id="node20" class="node">
<title>choice1001011184510697118974711111210111010610010745106114101459810511045495546484649499511257</title>
<g id="a_node20"><a xlink:href="../dev-java/openjdk-jre-bin-17.0.11_p9.svg" xlink:title="portage://dev&#45;java/openjdk&#45;jre&#45;bin&#45;17.0.11_p9">
<ellipse fill="none" stroke="red" cx="1104.5" cy="-790" rx="144" ry="18"/>
<text text-anchor="middle" x="1104.5" y="-786.12" font-family="Helvetica,sans-Serif" font-size="10.00">portage://dev&#45;java/openjdk&#45;jre&#45;bin&#45;17.0.11_p9</text>
</a>
</g>
</g>
<!-- dependency324930&#45;&gt;choice1001011184510697118974711111210111010610010745106114101459810511045495546484649499511257 -->
<g id="edge19" class="edge">
<title>dependency324930:e&#45;&gt;choice1001011184510697118974711111210111010610010745106114101459810511045495546484649499511257:w</title>
<path fill="none" stroke="black" stroke-dasharray="1,5" d="M853.39,-736C902.29,-736 906.12,-782.28 948.33,-789.15"/>
<polygon fill="black" stroke="black" points="958.05,-789.91 947.73,-793.62 954.28,-789.61 948.08,-789.13 948.08,-789.13 948.08,-789.13 954.28,-789.61 948.43,-784.65 958.05,-789.91"/>
</g>
<!-- choice1001011184510697118974711111210111010610010745106114101459810511045494946484650519511257 -->
<g id="node21" class="node">
<title>choice1001011184510697118974711111210111010610010745106114101459810511045494946484650519511257</title>
<g id="a_node21"><a xlink:href="../dev-java/openjdk-jre-bin-11.0.23_p9.svg" xlink:title="portage://dev&#45;java/openjdk&#45;jre&#45;bin&#45;11.0.23_p9">
<ellipse fill="none" stroke="red" cx="1104.5" cy="-844" rx="144" ry="18"/>
<text text-anchor="middle" x="1104.5" y="-840.12" font-family="Helvetica,sans-Serif" font-size="10.00">portage://dev&#45;java/openjdk&#45;jre&#45;bin&#45;11.0.23_p9</text>
</a>
</g>
</g>
<!-- dependency324930&#45;&gt;choice1001011184510697118974711111210111010610010745106114101459810511045494946484650519511257 -->
<g id="edge20" class="edge">
<title>dependency324930:e&#45;&gt;choice1001011184510697118974711111210111010610010745106114101459810511045494946484650519511257:w</title>
<path fill="none" stroke="black" stroke-dasharray="1,5" d="M853.39,-736C916.67,-736 895.07,-831.71 948.4,-842.93"/>
<polygon fill="black" stroke="black" points="958.05,-843.88 947.66,-847.38 954.29,-843.51 948.1,-842.9 948.1,-842.9 948.1,-842.9 954.29,-843.51 948.54,-838.42 958.05,-843.88"/>
</g>
<!-- choice10010111845106971189747111112101110106100107451061141014598105110455646524950951124856 -->
<g id="node22" class="node">
<title>choice10010111845106971189747111112101110106100107451061141014598105110455646524950951124856</title>
<g id="a_node22"><a xlink:href="../dev-java/openjdk-jre-bin-8.412_p08.svg" xlink:title="portage://dev&#45;java/openjdk&#45;jre&#45;bin&#45;8.412_p08">
<ellipse fill="none" stroke="red" cx="1104.5" cy="-898" rx="144" ry="18"/>
<text text-anchor="middle" x="1104.5" y="-894.12" font-family="Helvetica,sans-Serif" font-size="10.00">portage://dev&#45;java/openjdk&#45;jre&#45;bin&#45;8.412_p08</text>
</a>
</g>
</g>
<!-- dependency324930&#45;&gt;choice10010111845106971189747111112101110106100107451061141014598105110455646524950951124856 -->
<g id="edge21" class="edge">
<title>dependency324930:e&#45;&gt;choice10010111845106971189747111112101110106100107451061141014598105110455646524950951124856:w</title>
<path fill="none" stroke="black" stroke-dasharray="1,5" d="M853.39,-736C935.37,-736 879.12,-883.17 948.14,-896.97"/>
<polygon fill="black" stroke="black" points="958.05,-897.89 947.68,-901.44 954.29,-897.54 948.1,-896.96 948.1,-896.96 948.1,-896.96 954.29,-897.54 948.51,-892.48 958.05,-897.89"/>
</g>
</g>
</svg>
