<?xml version="1.0" encoding="UTF-8" standalone="no"?>
<!DOCTYPE svg PUBLIC "-//W3C//DTD SVG 1.1//EN"
 "http://www.w3.org/Graphics/SVG/1.1/DTD/svg11.dtd">
<!-- Generated by graphviz version 9.0.0 (20230911.1827)
 -->
<!-- Title: prolog Pages: 1 -->
<svg width="988pt" height="2028pt"
 viewBox="0.00 0.00 988.00 2028.00" xmlns="http://www.w3.org/2000/svg" xmlns:xlink="http://www.w3.org/1999/xlink">
<g id="graph0" class="graph" transform="scale(1 1) rotate(0) translate(4 2024)">
<title>prolog</title>
<polygon fill="white" stroke="none" points="-4,4 -4,-2024 984,-2024 984,4 -4,4"/>
<g id="clust20" class="cluster">
<title>cluster_choices</title>
<polygon fill="none" stroke="gray" points="668,-8 668,-2012 972,-2012 972,-8 668,-8"/>
<text text-anchor="start" x="796.38" y="-1999.5" font-family="Helvetica,sans-Serif" font-style="italic" font-size="10.00">candidates</text>
</g>
<g id="clust2" class="cluster">
<title>cluster_midcol</title>
<polygon fill="none" stroke="gray" points="8,-594 8,-875 584,-875 584,-594 8,-594"/>
<text text-anchor="start" x="266" y="-862.5" font-family="Helvetica,sans-Serif" font-style="italic" font-size="10.00">dependencies</text>
</g>
<g id="clust13" class="cluster">
<title>cluster_run</title>
<polygon fill="#eeeeee" stroke="gray" points="16,-602 16,-687 576,-687 576,-602 16,-602"/>
<text text-anchor="start" x="289.25" y="-674.5" font-family="Helvetica,sans-Serif" font-style="italic" font-size="10.00">run</text>
</g>
<g id="clust3" class="cluster">
<title>cluster_compile</title>
<polygon fill="#eeeeee" stroke="gray" points="412,-695 412,-848 576,-848 576,-695 412,-695"/>
<text text-anchor="start" x="477.12" y="-835.5" font-family="Helvetica,sans-Serif" font-style="italic" font-size="10.00">compile</text>
</g>
<!-- id -->
<g id="node1" class="node">
<title>id</title>
<g id="a_node1"><a xlink:href="../media-gfx/openmesh-7.1-r1.svg" xlink:title="portage://media&#45;gfx/openmesh&#45;7.1&#45;r1">
<ellipse fill="none" stroke="red" cx="168" cy="-642" rx="144" ry="18"/>
<text text-anchor="middle" x="168" y="-638.12" font-family="Helvetica,sans-Serif" font-size="10.00">portage://media&#45;gfx/openmesh&#45;7.1&#45;r1</text>
</a>
</g>
</g>
<!-- dependency286244 -->
<g id="node2" class="node">
<title>dependency286244</title>
<polygon fill="none" stroke="red" points="428,-775 428,-817 517,-817 517,-775 428,-775"/>
<text text-anchor="start" x="438.75" y="-792.12" font-family="Helvetica,sans-Serif" font-size="10.00">use_conditional</text>
<polygon fill="none" stroke="red" points="517,-796 517,-817 560,-817 560,-796 517,-796"/>
<text text-anchor="start" x="521.62" y="-802.5" font-family="Helvetica,sans-Serif" font-size="10.00">positive</text>
<polygon fill="none" stroke="red" points="517,-775 517,-796 560,-796 560,-775 517,-775"/>
<text text-anchor="start" x="531.75" y="-781.5" font-family="Helvetica,sans-Serif" font-size="10.00">qt5</text>
</g>
<!-- id&#45;&gt;dependency286244 -->
<g id="edge6" class="edge">
<title>id:e&#45;&gt;dependency286244:w</title>
<path fill="none" stroke="black" d="M312,-642C391.44,-642 340.94,-781.9 408.19,-795.02"/>
<polygon fill="black" stroke="black" points="417.79,-795.89 407.42,-799.46 414.02,-795.55 407.83,-794.98 407.83,-794.98 407.83,-794.98 414.02,-795.55 408.24,-790.5 417.79,-795.89"/>
</g>
<!-- dependency286250 -->
<g id="node8" class="node">
<title>dependency286250</title>
<polygon fill="none" stroke="red" points="428,-707 428,-749 517,-749 517,-707 428,-707"/>
<text text-anchor="start" x="438.75" y="-724.12" font-family="Helvetica,sans-Serif" font-size="10.00">use_conditional</text>
<polygon fill="none" stroke="red" points="517,-728 517,-749 560,-749 560,-728 517,-728"/>
<text text-anchor="start" x="521.62" y="-734.5" font-family="Helvetica,sans-Serif" font-size="10.00">positive</text>
<polygon fill="none" stroke="red" points="517,-707 517,-728 560,-728 560,-707 517,-707"/>
<text text-anchor="start" x="530.25" y="-713.5" font-family="Helvetica,sans-Serif" font-size="10.00">test</text>
</g>
<!-- id&#45;&gt;dependency286250 -->
<g id="edge8" class="edge">
<title>id:e&#45;&gt;dependency286250:w</title>
<path fill="none" stroke="black" d="M312,-642C369.08,-642 359.61,-717.27 408.11,-726.97"/>
<polygon fill="black" stroke="black" points="417.79,-727.89 407.41,-731.43 414.02,-727.53 407.83,-726.95 407.83,-726.95 407.83,-726.95 414.02,-727.53 408.25,-722.47 417.79,-727.89"/>
</g>
<!-- dependency286252 -->
<g id="node10" class="node">
<title>dependency286252</title>
<polygon fill="none" stroke="red" points="428,-614 428,-656 517,-656 517,-614 428,-614"/>
<text text-anchor="start" x="438.75" y="-631.12" font-family="Helvetica,sans-Serif" font-size="10.00">use_conditional</text>
<polygon fill="none" stroke="red" points="517,-635 517,-656 560,-656 560,-635 517,-635"/>
<text text-anchor="start" x="521.62" y="-641.5" font-family="Helvetica,sans-Serif" font-size="10.00">positive</text>
<polygon fill="none" stroke="red" points="517,-614 517,-635 560,-635 560,-614 517,-614"/>
<text text-anchor="start" x="531.75" y="-620.5" font-family="Helvetica,sans-Serif" font-size="10.00">qt5</text>
</g>
<!-- id&#45;&gt;dependency286252 -->
<g id="edge14" class="edge">
<title>id:e&#45;&gt;dependency286252:w</title>
<path fill="none" stroke="black" d="M312,-642C356.59,-642 369.69,-635.87 410.21,-635.08"/>
<ellipse fill="none" stroke="black" cx="414.5" cy="-635.04" rx="4" ry="4"/>
</g>
<!-- dependency286245 -->
<g id="node3" class="node">
<title>dependency286245</title>
<polygon fill="none" stroke="blue" points="710,-1821.5 710,-1926.5 814,-1926.5 814,-1821.5 710,-1821.5"/>
<text text-anchor="start" x="741" y="-1870.12" font-family="Helvetica,sans-Serif" font-size="10.00">pack_dep</text>
<polygon fill="none" stroke="blue" points="814,-1905.5 814,-1926.5 924,-1926.5 924,-1905.5 814,-1905.5"/>
<text text-anchor="start" x="863.75" y="-1912" font-family="Helvetica,sans-Serif" font-size="10.00">no</text>
<polygon fill="none" stroke="blue" points="814,-1884.5 814,-1905.5 924,-1905.5 924,-1884.5 814,-1884.5"/>
<text text-anchor="start" x="855.5" y="-1891" font-family="Helvetica,sans-Serif" font-size="10.00">dev&#45;qt</text>
<polygon fill="none" stroke="blue" points="814,-1863.5 814,-1884.5 924,-1884.5 924,-1863.5 814,-1863.5"/>
<text text-anchor="start" x="855.5" y="-1870" font-family="Helvetica,sans-Serif" font-size="10.00">qtcore</text>
<polygon fill="none" stroke="blue" points="814,-1842.5 814,-1863.5 924,-1863.5 924,-1842.5 814,-1842.5"/>
<text text-anchor="start" x="858.5" y="-1849" font-family="Helvetica,sans-Serif" font-size="10.00">none</text>
<polygon fill="none" stroke="blue" points="814,-1821.5 814,-1842.5 924,-1842.5 924,-1821.5 814,-1821.5"/>
<text text-anchor="start" x="863" y="-1828" font-family="Helvetica,sans-Serif" font-size="10.00">[,,]</text>
</g>
<!-- dependency286244&#45;&gt;dependency286245 -->
<g id="edge1" class="edge">
<title>dependency286244:e&#45;&gt;dependency286245:w</title>
<path fill="none" stroke="black" stroke-dasharray="5,2" d="M569,-796C806.57,-796 470.47,-1840.58 690.12,-1873.22"/>
<polygon fill="black" stroke="black" points="699.78,-1873.91 689.49,-1877.69 696.01,-1873.64 689.81,-1873.2 689.81,-1873.2 689.81,-1873.2 696.01,-1873.64 690.13,-1868.71 699.78,-1873.91"/>
</g>
<!-- dependency286246 -->
<g id="node4" class="node">
<title>dependency286246</title>
<polygon fill="none" stroke="blue" points="710,-1635.5 710,-1740.5 814,-1740.5 814,-1635.5 710,-1635.5"/>
<text text-anchor="start" x="741" y="-1684.12" font-family="Helvetica,sans-Serif" font-size="10.00">pack_dep</text>
<polygon fill="none" stroke="blue" points="814,-1719.5 814,-1740.5 924,-1740.5 924,-1719.5 814,-1719.5"/>
<text text-anchor="start" x="863.75" y="-1726" font-family="Helvetica,sans-Serif" font-size="10.00">no</text>
<polygon fill="none" stroke="blue" points="814,-1698.5 814,-1719.5 924,-1719.5 924,-1698.5 814,-1698.5"/>
<text text-anchor="start" x="855.5" y="-1705" font-family="Helvetica,sans-Serif" font-size="10.00">dev&#45;qt</text>
<polygon fill="none" stroke="blue" points="814,-1677.5 814,-1698.5 924,-1698.5 924,-1677.5 814,-1677.5"/>
<text text-anchor="start" x="858.5" y="-1684" font-family="Helvetica,sans-Serif" font-size="10.00">qtgui</text>
<polygon fill="none" stroke="blue" points="814,-1656.5 814,-1677.5 924,-1677.5 924,-1656.5 814,-1656.5"/>
<text text-anchor="start" x="858.5" y="-1663" font-family="Helvetica,sans-Serif" font-size="10.00">none</text>
<polygon fill="none" stroke="blue" points="814,-1635.5 814,-1656.5 924,-1656.5 924,-1635.5 814,-1635.5"/>
<text text-anchor="start" x="863" y="-1642" font-family="Helvetica,sans-Serif" font-size="10.00">[,,]</text>
</g>
<!-- dependency286244&#45;&gt;dependency286246 -->
<g id="edge2" class="edge">
<title>dependency286244:e&#45;&gt;dependency286246:w</title>
<path fill="none" stroke="black" stroke-dasharray="5,2" d="M569,-796C765.57,-796 510.69,-1654.35 690.06,-1687.04"/>
<polygon fill="black" stroke="black" points="699.79,-1687.89 689.43,-1691.5 696.02,-1687.56 689.82,-1687.02 689.82,-1687.02 689.82,-1687.02 696.02,-1687.56 690.22,-1682.54 699.79,-1687.89"/>
</g>
<!-- dependency286247 -->
<g id="node5" class="node">
<title>dependency286247</title>
<polygon fill="none" stroke="blue" points="710,-1449.5 710,-1554.5 814,-1554.5 814,-1449.5 710,-1449.5"/>
<text text-anchor="start" x="741" y="-1498.12" font-family="Helvetica,sans-Serif" font-size="10.00">pack_dep</text>
<polygon fill="none" stroke="blue" points="814,-1533.5 814,-1554.5 924,-1554.5 924,-1533.5 814,-1533.5"/>
<text text-anchor="start" x="863.75" y="-1540" font-family="Helvetica,sans-Serif" font-size="10.00">no</text>
<polygon fill="none" stroke="blue" points="814,-1512.5 814,-1533.5 924,-1533.5 924,-1512.5 814,-1512.5"/>
<text text-anchor="start" x="855.5" y="-1519" font-family="Helvetica,sans-Serif" font-size="10.00">dev&#45;qt</text>
<polygon fill="none" stroke="blue" points="814,-1491.5 814,-1512.5 924,-1512.5 924,-1491.5 814,-1491.5"/>
<text text-anchor="start" x="850.62" y="-1498" font-family="Helvetica,sans-Serif" font-size="10.00">qtopengl</text>
<polygon fill="none" stroke="blue" points="814,-1470.5 814,-1491.5 924,-1491.5 924,-1470.5 814,-1470.5"/>
<text text-anchor="start" x="858.5" y="-1477" font-family="Helvetica,sans-Serif" font-size="10.00">none</text>
<polygon fill="none" stroke="blue" points="814,-1449.5 814,-1470.5 924,-1470.5 924,-1449.5 814,-1449.5"/>
<text text-anchor="start" x="863" y="-1456" font-family="Helvetica,sans-Serif" font-size="10.00">[,,]</text>
</g>
<!-- dependency286244&#45;&gt;dependency286247 -->
<g id="edge3" class="edge">
<title>dependency286244:e&#45;&gt;dependency286247:w</title>
<path fill="none" stroke="black" stroke-dasharray="5,2" d="M569,-796C724.71,-796 550.33,-1467.95 689.92,-1500.76"/>
<polygon fill="black" stroke="black" points="699.79,-1501.86 689.35,-1505.22 696.03,-1501.44 689.85,-1500.75 689.85,-1500.75 689.85,-1500.75 696.03,-1501.44 690.35,-1496.28 699.79,-1501.86"/>
</g>
<!-- dependency286248 -->
<g id="node6" class="node">
<title>dependency286248</title>
<polygon fill="none" stroke="blue" points="710,-1263.5 710,-1368.5 814,-1368.5 814,-1263.5 710,-1263.5"/>
<text text-anchor="start" x="741" y="-1312.12" font-family="Helvetica,sans-Serif" font-size="10.00">pack_dep</text>
<polygon fill="none" stroke="blue" points="814,-1347.5 814,-1368.5 924,-1368.5 924,-1347.5 814,-1347.5"/>
<text text-anchor="start" x="863.75" y="-1354" font-family="Helvetica,sans-Serif" font-size="10.00">no</text>
<polygon fill="none" stroke="blue" points="814,-1326.5 814,-1347.5 924,-1347.5 924,-1326.5 814,-1326.5"/>
<text text-anchor="start" x="855.5" y="-1333" font-family="Helvetica,sans-Serif" font-size="10.00">dev&#45;qt</text>
<polygon fill="none" stroke="blue" points="814,-1305.5 814,-1326.5 924,-1326.5 924,-1305.5 814,-1305.5"/>
<text text-anchor="start" x="848" y="-1312" font-family="Helvetica,sans-Serif" font-size="10.00">qtwidgets</text>
<polygon fill="none" stroke="blue" points="814,-1284.5 814,-1305.5 924,-1305.5 924,-1284.5 814,-1284.5"/>
<text text-anchor="start" x="858.5" y="-1291" font-family="Helvetica,sans-Serif" font-size="10.00">none</text>
<polygon fill="none" stroke="blue" points="814,-1263.5 814,-1284.5 924,-1284.5 924,-1263.5 814,-1263.5"/>
<text text-anchor="start" x="863" y="-1270" font-family="Helvetica,sans-Serif" font-size="10.00">[,,]</text>
</g>
<!-- dependency286244&#45;&gt;dependency286248 -->
<g id="edge4" class="edge">
<title>dependency286244:e&#45;&gt;dependency286248:w</title>
<path fill="none" stroke="black" stroke-dasharray="5,2" d="M569,-796C803.6,-796 473.52,-1299.38 689.92,-1315.6"/>
<polygon fill="black" stroke="black" points="699.78,-1315.96 689.63,-1320.09 696,-1315.82 689.79,-1315.59 689.79,-1315.59 689.79,-1315.59 696,-1315.82 689.95,-1311.1 699.78,-1315.96"/>
</g>
<!-- dependency286249 -->
<g id="node7" class="node">
<title>dependency286249</title>
<polygon fill="none" stroke="blue" points="710,-1023.5 710,-1128.5 814,-1128.5 814,-1023.5 710,-1023.5"/>
<text text-anchor="start" x="741" y="-1072.12" font-family="Helvetica,sans-Serif" font-size="10.00">pack_dep</text>
<polygon fill="none" stroke="blue" points="814,-1107.5 814,-1128.5 924,-1128.5 924,-1107.5 814,-1107.5"/>
<text text-anchor="start" x="863.75" y="-1114" font-family="Helvetica,sans-Serif" font-size="10.00">no</text>
<polygon fill="none" stroke="blue" points="814,-1086.5 814,-1107.5 924,-1107.5 924,-1086.5 814,-1086.5"/>
<text text-anchor="start" x="846.88" y="-1093" font-family="Helvetica,sans-Serif" font-size="10.00">media&#45;libs</text>
<polygon fill="none" stroke="blue" points="814,-1065.5 814,-1086.5 924,-1086.5 924,-1065.5 814,-1065.5"/>
<text text-anchor="start" x="852.88" y="-1072" font-family="Helvetica,sans-Serif" font-size="10.00">freeglut</text>
<polygon fill="none" stroke="blue" points="814,-1044.5 814,-1065.5 924,-1065.5 924,-1044.5 814,-1044.5"/>
<text text-anchor="start" x="858.5" y="-1051" font-family="Helvetica,sans-Serif" font-size="10.00">none</text>
<polygon fill="none" stroke="blue" points="814,-1023.5 814,-1044.5 924,-1044.5 924,-1023.5 814,-1023.5"/>
<text text-anchor="start" x="863" y="-1030" font-family="Helvetica,sans-Serif" font-size="10.00">[,,]</text>
</g>
<!-- dependency286244&#45;&gt;dependency286249 -->
<g id="edge5" class="edge">
<title>dependency286244:e&#45;&gt;dependency286249:w</title>
<path fill="none" stroke="black" stroke-dasharray="5,2" d="M569,-796C702.68,-796 571.3,-1060.37 689.97,-1075.34"/>
<polygon fill="black" stroke="black" points="699.78,-1075.93 689.53,-1079.82 696.01,-1075.7 689.8,-1075.33 689.8,-1075.33 689.8,-1075.33 696.01,-1075.7 690.07,-1070.84 699.78,-1075.93"/>
</g>
<!-- choice1001011184511311647113116991111141014553464953464952 -->
<g id="node16" class="node">
<title>choice1001011184511311647113116991111141014553464953464952</title>
<g id="a_node16"><a xlink:href="../dev-qt/qtcore-5.15.14.svg" xlink:title="portage://dev&#45;qt/qtcore&#45;5.15.14">
<ellipse fill="none" stroke="red" cx="820" cy="-1967" rx="144" ry="18"/>
<text text-anchor="middle" x="820" y="-1963.12" font-family="Helvetica,sans-Serif" font-size="10.00">portage://dev&#45;qt/qtcore&#45;5.15.14</text>
</a>
</g>
</g>
<!-- dependency286245&#45;&gt;choice1001011184511311647113116991111141014553464953464952 -->
<g id="edge15" class="edge">
<title>dependency286245:e&#45;&gt;choice1001011184511311647113116991111141014553464953464952:w</title>
<path fill="none" stroke="black" stroke-dasharray="1,5" d="M671.37,-1956.45C672.4,-1953.7 674.07,-1950.96 676,-1949 716.96,-1907.42 897.83,-1972.85 938,-1930.5 955.28,-1912.28 964.12,-1874 939,-1874"/>
<polygon fill="black" stroke="black" points="674.6,-1965.85 667.09,-1957.86 673.37,-1962.27 671.34,-1956.39 671.34,-1956.39 671.34,-1956.39 673.37,-1962.27 675.6,-1954.93 674.6,-1965.85"/>
</g>
<!-- choice10010111845113116471131161031171054553464953464952 -->
<g id="node17" class="node">
<title>choice10010111845113116471131161031171054553464953464952</title>
<g id="a_node17"><a xlink:href="../dev-qt/qtgui-5.15.14.svg" xlink:title="portage://dev&#45;qt/qtgui&#45;5.15.14">
<ellipse fill="none" stroke="red" cx="820" cy="-1781" rx="144" ry="18"/>
<text text-anchor="middle" x="820" y="-1777.12" font-family="Helvetica,sans-Serif" font-size="10.00">portage://dev&#45;qt/qtgui&#45;5.15.14</text>
</a>
</g>
</g>
<!-- dependency286246&#45;&gt;choice10010111845113116471131161031171054553464953464952 -->
<g id="edge16" class="edge">
<title>dependency286246:e&#45;&gt;choice10010111845113116471131161031171054553464953464952:w</title>
<path fill="none" stroke="black" stroke-dasharray="1,5" d="M671.37,-1770.45C672.4,-1767.7 674.07,-1764.96 676,-1763 716.96,-1721.42 897.83,-1786.85 938,-1744.5 955.28,-1726.28 964.12,-1688 939,-1688"/>
<polygon fill="black" stroke="black" points="674.6,-1779.85 667.09,-1771.86 673.37,-1776.27 671.34,-1770.39 671.34,-1770.39 671.34,-1770.39 673.37,-1776.27 675.6,-1768.93 674.6,-1779.85"/>
</g>
<!-- choice10010111845113116471131161111121011101031084553464953464952 -->
<g id="node18" class="node">
<title>choice10010111845113116471131161111121011101031084553464953464952</title>
<g id="a_node18"><a xlink:href="../dev-qt/qtopengl-5.15.14.svg" xlink:title="portage://dev&#45;qt/qtopengl&#45;5.15.14">
<ellipse fill="none" stroke="red" cx="820" cy="-1595" rx="144" ry="18"/>
<text text-anchor="middle" x="820" y="-1591.12" font-family="Helvetica,sans-Serif" font-size="10.00">portage://dev&#45;qt/qtopengl&#45;5.15.14</text>
</a>
</g>
</g>
<!-- dependency286247&#45;&gt;choice10010111845113116471131161111121011101031084553464953464952 -->
<g id="edge17" class="edge">
<title>dependency286247:e&#45;&gt;choice10010111845113116471131161111121011101031084553464953464952:w</title>
<path fill="none" stroke="black" stroke-dasharray="1,5" d="M671.37,-1584.45C672.4,-1581.7 674.07,-1578.96 676,-1577 716.96,-1535.42 897.83,-1600.85 938,-1558.5 955.28,-1540.28 964.12,-1502 939,-1502"/>
<polygon fill="black" stroke="black" points="674.6,-1593.85 667.09,-1585.86 673.37,-1590.27 671.34,-1584.39 671.34,-1584.39 671.34,-1584.39 673.37,-1590.27 675.6,-1582.93 674.6,-1593.85"/>
</g>
<!-- choice10010111845113116471131161191051001031011161154553464953464952 -->
<g id="node19" class="node">
<title>choice10010111845113116471131161191051001031011161154553464953464952</title>
<g id="a_node19"><a xlink:href="../dev-qt/qtwidgets-5.15.14.svg" xlink:title="portage://dev&#45;qt/qtwidgets&#45;5.15.14">
<ellipse fill="none" stroke="red" cx="820" cy="-1409" rx="144" ry="18"/>
<text text-anchor="middle" x="820" y="-1405.12" font-family="Helvetica,sans-Serif" font-size="10.00">portage://dev&#45;qt/qtwidgets&#45;5.15.14</text>
</a>
</g>
</g>
<!-- dependency286248&#45;&gt;choice10010111845113116471131161191051001031011161154553464953464952 -->
<g id="edge18" class="edge">
<title>dependency286248:e&#45;&gt;choice10010111845113116471131161191051001031011161154553464953464952:w</title>
<path fill="none" stroke="black" stroke-dasharray="1,5" d="M671.37,-1398.45C672.4,-1395.7 674.07,-1392.96 676,-1391 716.96,-1349.42 897.83,-1414.85 938,-1372.5 955.28,-1354.28 964.12,-1316 939,-1316"/>
<polygon fill="black" stroke="black" points="674.6,-1407.85 667.09,-1399.86 673.37,-1404.27 671.34,-1398.39 671.34,-1398.39 671.34,-1398.39 673.37,-1404.27 675.6,-1396.93 674.6,-1407.85"/>
</g>
<!-- choice10910110010597451081059811547102114101101103108117116455146524648 -->
<g id="node20" class="node">
<title>choice10910110010597451081059811547102114101101103108117116455146524648</title>
<g id="a_node20"><a xlink:href="../media-libs/freeglut-3.4.0.svg" xlink:title="portage://media&#45;libs/freeglut&#45;3.4.0">
<ellipse fill="none" stroke="red" cx="820" cy="-1223" rx="144" ry="18"/>
<text text-anchor="middle" x="820" y="-1219.12" font-family="Helvetica,sans-Serif" font-size="10.00">portage://media&#45;libs/freeglut&#45;3.4.0</text>
</a>
</g>
</g>
<!-- dependency286249&#45;&gt;choice10910110010597451081059811547102114101101103108117116455146524648 -->
<g id="edge19" class="edge">
<title>dependency286249:e&#45;&gt;choice10910110010597451081059811547102114101101103108117116455146524648:w</title>
<path fill="none" stroke="black" stroke-dasharray="1,5" d="M939,-1076C964.12,-1076 955.6,-1114.59 938,-1132.5 913.66,-1157.27 647.83,-1123.99 626,-1151 603.95,-1178.28 630.32,-1215.25 664.27,-1221.94"/>
<polygon fill="black" stroke="black" points="673.79,-1222.88 663.39,-1226.38 670.02,-1222.51 663.84,-1221.9 663.84,-1221.9 663.84,-1221.9 670.02,-1222.51 664.28,-1217.42 673.79,-1222.88"/>
</g>
<!-- choice10910110010597451081059811547102114101101103108117116455146544648 -->
<g id="node21" class="node">
<title>choice10910110010597451081059811547102114101101103108117116455146544648</title>
<g id="a_node21"><a xlink:href="../media-libs/freeglut-3.6.0.svg" xlink:title="portage://media&#45;libs/freeglut&#45;3.6.0">
<ellipse fill="none" stroke="red" cx="820" cy="-1169" rx="144" ry="18"/>
<text text-anchor="middle" x="820" y="-1165.12" font-family="Helvetica,sans-Serif" font-size="10.00">portage://media&#45;libs/freeglut&#45;3.6.0</text>
</a>
</g>
</g>
<!-- dependency286249&#45;&gt;choice10910110010597451081059811547102114101101103108117116455146544648 -->
<g id="edge20" class="edge">
<title>dependency286249:e&#45;&gt;choice10910110010597451081059811547102114101101103108117116455146544648:w</title>
<path fill="none" stroke="black" stroke-dasharray="1,5" d="M671.37,-1158.45C672.4,-1155.7 674.07,-1152.96 676,-1151 716.96,-1109.42 897.83,-1174.85 938,-1132.5 955.28,-1114.28 964.12,-1076 939,-1076"/>
<polygon fill="black" stroke="black" points="674.6,-1167.85 667.09,-1159.86 673.37,-1164.27 671.34,-1158.39 671.34,-1158.39 671.34,-1158.39 673.37,-1164.27 675.6,-1156.93 674.6,-1167.85"/>
</g>
<!-- dependency286251 -->
<g id="node9" class="node">
<title>dependency286251</title>
<polygon fill="none" stroke="blue" points="710,-675.5 710,-780.5 814,-780.5 814,-675.5 710,-675.5"/>
<text text-anchor="start" x="741" y="-724.12" font-family="Helvetica,sans-Serif" font-size="10.00">pack_dep</text>
<polygon fill="none" stroke="blue" points="814,-759.5 814,-780.5 924,-780.5 924,-759.5 814,-759.5"/>
<text text-anchor="start" x="863.75" y="-766" font-family="Helvetica,sans-Serif" font-size="10.00">no</text>
<polygon fill="none" stroke="blue" points="814,-738.5 814,-759.5 924,-759.5 924,-738.5 814,-738.5"/>
<text text-anchor="start" x="851.75" y="-745" font-family="Helvetica,sans-Serif" font-size="10.00">dev&#45;cpp</text>
<polygon fill="none" stroke="blue" points="814,-717.5 814,-738.5 924,-738.5 924,-717.5 814,-717.5"/>
<text text-anchor="start" x="858.12" y="-724" font-family="Helvetica,sans-Serif" font-size="10.00">gtest</text>
<polygon fill="none" stroke="blue" points="814,-696.5 814,-717.5 924,-717.5 924,-696.5 814,-696.5"/>
<text text-anchor="start" x="858.5" y="-703" font-family="Helvetica,sans-Serif" font-size="10.00">none</text>
<polygon fill="none" stroke="blue" points="814,-675.5 814,-696.5 924,-696.5 924,-675.5 814,-675.5"/>
<text text-anchor="start" x="863" y="-682" font-family="Helvetica,sans-Serif" font-size="10.00">[,,]</text>
</g>
<!-- dependency286250&#45;&gt;dependency286251 -->
<g id="edge7" class="edge">
<title>dependency286250:e&#45;&gt;dependency286251:w</title>
<path fill="none" stroke="black" stroke-dasharray="5,2" d="M569,-728C623.77,-728 640.19,-728 689.87,-728"/>
<polygon fill="black" stroke="black" points="699.78,-728 689.78,-732.5 696,-728 689.78,-728 689.78,-728 689.78,-728 696,-728 689.78,-723.5 699.78,-728"/>
</g>
<!-- choice10010111845991121124710311610111511645494649514648 -->
<g id="node22" class="node">
<title>choice10010111845991121124710311610111511645494649514648</title>
<g id="a_node22"><a xlink:href="../dev-cpp/gtest-1.13.0.svg" xlink:title="portage://dev&#45;cpp/gtest&#45;1.13.0">
<ellipse fill="none" stroke="red" cx="820" cy="-983" rx="144" ry="18"/>
<text text-anchor="middle" x="820" y="-979.12" font-family="Helvetica,sans-Serif" font-size="10.00">portage://dev&#45;cpp/gtest&#45;1.13.0</text>
</a>
</g>
</g>
<!-- dependency286251&#45;&gt;choice10010111845991121124710311610111511645494649514648 -->
<g id="edge21" class="edge">
<title>dependency286251:e&#45;&gt;choice10010111845991121124710311610111511645494649514648:w</title>
<path fill="none" stroke="black" stroke-dasharray="1,5" d="M939,-728C964.12,-728 955.6,-766.59 938,-784.5 913.66,-809.27 647.83,-775.99 626,-803 576.22,-864.58 590.59,-972.72 664.22,-982.32"/>
<polygon fill="black" stroke="black" points="673.78,-982.92 663.52,-986.78 670.01,-982.68 663.8,-982.29 663.8,-982.29 663.8,-982.29 670.01,-982.68 664.09,-977.8 673.78,-982.92"/>
</g>
<!-- choice10010111845991121124710311610111511645494649524648 -->
<g id="node23" class="node">
<title>choice10010111845991121124710311610111511645494649524648</title>
<g id="a_node23"><a xlink:href="../dev-cpp/gtest-1.14.0.svg" xlink:title="portage://dev&#45;cpp/gtest&#45;1.14.0">
<ellipse fill="none" stroke="red" cx="820" cy="-929" rx="144" ry="18"/>
<text text-anchor="middle" x="820" y="-925.12" font-family="Helvetica,sans-Serif" font-size="10.00">portage://dev&#45;cpp/gtest&#45;1.14.0</text>
</a>
</g>
</g>
<!-- dependency286251&#45;&gt;choice10010111845991121124710311610111511645494649524648 -->
<g id="edge22" class="edge">
<title>dependency286251:e&#45;&gt;choice10010111845991121124710311610111511645494649524648:w</title>
<path fill="none" stroke="black" stroke-dasharray="1,5" d="M939,-728C964.12,-728 955.6,-766.59 938,-784.5 913.66,-809.27 647.83,-775.99 626,-803 590.59,-846.81 611.83,-919.22 664.13,-928.1"/>
<polygon fill="black" stroke="black" points="673.79,-928.9 663.45,-932.56 670.02,-928.59 663.82,-928.07 663.82,-928.07 663.82,-928.07 670.02,-928.59 664.19,-923.59 673.79,-928.9"/>
</g>
<!-- choice100101118459911211247103116101115116454946495246484511449 -->
<g id="node24" class="node">
<title>choice100101118459911211247103116101115116454946495246484511449</title>
<g id="a_node24"><a xlink:href="../dev-cpp/gtest-1.14.0-r1.svg" xlink:title="portage://dev&#45;cpp/gtest&#45;1.14.0&#45;r1">
<ellipse fill="none" stroke="red" cx="820" cy="-875" rx="144" ry="18"/>
<text text-anchor="middle" x="820" y="-871.12" font-family="Helvetica,sans-Serif" font-size="10.00">portage://dev&#45;cpp/gtest&#45;1.14.0&#45;r1</text>
</a>
</g>
</g>
<!-- dependency286251&#45;&gt;choice100101118459911211247103116101115116454946495246484511449 -->
<g id="edge23" class="edge">
<title>dependency286251:e&#45;&gt;choice100101118459911211247103116101115116454946495246484511449:w</title>
<path fill="none" stroke="black" stroke-dasharray="1,5" d="M939,-728C964.12,-728 955.6,-766.59 938,-784.5 913.66,-809.27 647.83,-775.99 626,-803 603.95,-830.28 630.32,-867.25 664.27,-873.94"/>
<polygon fill="black" stroke="black" points="673.79,-874.88 663.39,-878.38 670.02,-874.51 663.84,-873.9 663.84,-873.9 663.84,-873.9 670.02,-874.51 664.28,-869.42 673.79,-874.88"/>
</g>
<!-- choice1001011184599112112471031161011151164557575757 -->
<g id="node25" class="node">
<title>choice1001011184599112112471031161011151164557575757</title>
<g id="a_node25"><a xlink:href="../dev-cpp/gtest-9999.svg" xlink:title="portage://dev&#45;cpp/gtest&#45;9999">
<ellipse fill="none" stroke="red" cx="820" cy="-821" rx="144" ry="18"/>
<text text-anchor="middle" x="820" y="-817.12" font-family="Helvetica,sans-Serif" font-size="10.00">portage://dev&#45;cpp/gtest&#45;9999</text>
</a>
</g>
</g>
<!-- dependency286251&#45;&gt;choice1001011184599112112471031161011151164557575757 -->
<g id="edge24" class="edge">
<title>dependency286251:e&#45;&gt;choice1001011184599112112471031161011151164557575757:w</title>
<path fill="none" stroke="black" stroke-dasharray="1,5" d="M671.37,-810.45C672.4,-807.7 674.07,-804.96 676,-803 716.96,-761.42 897.83,-826.85 938,-784.5 955.28,-766.28 964.12,-728 939,-728"/>
<polygon fill="black" stroke="black" points="674.6,-819.85 667.09,-811.86 673.37,-816.27 671.34,-810.39 671.34,-810.39 671.34,-810.39 673.37,-816.27 675.6,-808.93 674.6,-819.85"/>
</g>
<!-- dependency286253 -->
<g id="node11" class="node">
<title>dependency286253</title>
<polygon fill="none" stroke="blue" points="710,-544.5 710,-649.5 814,-649.5 814,-544.5 710,-544.5"/>
<text text-anchor="start" x="741" y="-593.12" font-family="Helvetica,sans-Serif" font-size="10.00">pack_dep</text>
<polygon fill="none" stroke="blue" points="814,-628.5 814,-649.5 924,-649.5 924,-628.5 814,-628.5"/>
<text text-anchor="start" x="863.75" y="-635" font-family="Helvetica,sans-Serif" font-size="10.00">no</text>
<polygon fill="none" stroke="blue" points="814,-607.5 814,-628.5 924,-628.5 924,-607.5 814,-607.5"/>
<text text-anchor="start" x="855.5" y="-614" font-family="Helvetica,sans-Serif" font-size="10.00">dev&#45;qt</text>
<polygon fill="none" stroke="blue" points="814,-586.5 814,-607.5 924,-607.5 924,-586.5 814,-586.5"/>
<text text-anchor="start" x="855.5" y="-593" font-family="Helvetica,sans-Serif" font-size="10.00">qtcore</text>
<polygon fill="none" stroke="blue" points="814,-565.5 814,-586.5 924,-586.5 924,-565.5 814,-565.5"/>
<text text-anchor="start" x="858.5" y="-572" font-family="Helvetica,sans-Serif" font-size="10.00">none</text>
<polygon fill="none" stroke="blue" points="814,-544.5 814,-565.5 924,-565.5 924,-544.5 814,-544.5"/>
<text text-anchor="start" x="863" y="-551" font-family="Helvetica,sans-Serif" font-size="10.00">[,,]</text>
</g>
<!-- dependency286252&#45;&gt;dependency286253 -->
<g id="edge9" class="edge">
<title>dependency286252:e&#45;&gt;dependency286253:w</title>
<path fill="none" stroke="black" stroke-dasharray="5,2" d="M569,-635C626.11,-635 638.46,-601.74 689.81,-597.45"/>
<polygon fill="black" stroke="black" points="699.78,-597.05 689.97,-601.95 696,-597.2 689.79,-597.45 689.79,-597.45 689.79,-597.45 696,-597.2 689.61,-592.96 699.78,-597.05"/>
</g>
<!-- dependency286254 -->
<g id="node12" class="node">
<title>dependency286254</title>
<polygon fill="none" stroke="blue" points="710,-413.5 710,-518.5 814,-518.5 814,-413.5 710,-413.5"/>
<text text-anchor="start" x="741" y="-462.12" font-family="Helvetica,sans-Serif" font-size="10.00">pack_dep</text>
<polygon fill="none" stroke="blue" points="814,-497.5 814,-518.5 924,-518.5 924,-497.5 814,-497.5"/>
<text text-anchor="start" x="863.75" y="-504" font-family="Helvetica,sans-Serif" font-size="10.00">no</text>
<polygon fill="none" stroke="blue" points="814,-476.5 814,-497.5 924,-497.5 924,-476.5 814,-476.5"/>
<text text-anchor="start" x="855.5" y="-483" font-family="Helvetica,sans-Serif" font-size="10.00">dev&#45;qt</text>
<polygon fill="none" stroke="blue" points="814,-455.5 814,-476.5 924,-476.5 924,-455.5 814,-455.5"/>
<text text-anchor="start" x="858.5" y="-462" font-family="Helvetica,sans-Serif" font-size="10.00">qtgui</text>
<polygon fill="none" stroke="blue" points="814,-434.5 814,-455.5 924,-455.5 924,-434.5 814,-434.5"/>
<text text-anchor="start" x="858.5" y="-441" font-family="Helvetica,sans-Serif" font-size="10.00">none</text>
<polygon fill="none" stroke="blue" points="814,-413.5 814,-434.5 924,-434.5 924,-413.5 814,-413.5"/>
<text text-anchor="start" x="863" y="-420" font-family="Helvetica,sans-Serif" font-size="10.00">[,,]</text>
</g>
<!-- dependency286252&#45;&gt;dependency286254 -->
<g id="edge10" class="edge">
<title>dependency286252:e&#45;&gt;dependency286254:w</title>
<path fill="none" stroke="black" stroke-dasharray="5,2" d="M569,-635C660.4,-635 610.24,-479.58 690.03,-466.83"/>
<polygon fill="black" stroke="black" points="699.79,-466.09 690.15,-471.33 696.01,-466.38 689.81,-466.85 689.81,-466.85 689.81,-466.85 696.01,-466.38 689.47,-462.36 699.79,-466.09"/>
</g>
<!-- dependency286255 -->
<g id="node13" class="node">
<title>dependency286255</title>
<polygon fill="none" stroke="blue" points="710,-282.5 710,-387.5 814,-387.5 814,-282.5 710,-282.5"/>
<text text-anchor="start" x="741" y="-331.12" font-family="Helvetica,sans-Serif" font-size="10.00">pack_dep</text>
<polygon fill="none" stroke="blue" points="814,-366.5 814,-387.5 924,-387.5 924,-366.5 814,-366.5"/>
<text text-anchor="start" x="863.75" y="-373" font-family="Helvetica,sans-Serif" font-size="10.00">no</text>
<polygon fill="none" stroke="blue" points="814,-345.5 814,-366.5 924,-366.5 924,-345.5 814,-345.5"/>
<text text-anchor="start" x="855.5" y="-352" font-family="Helvetica,sans-Serif" font-size="10.00">dev&#45;qt</text>
<polygon fill="none" stroke="blue" points="814,-324.5 814,-345.5 924,-345.5 924,-324.5 814,-324.5"/>
<text text-anchor="start" x="850.62" y="-331" font-family="Helvetica,sans-Serif" font-size="10.00">qtopengl</text>
<polygon fill="none" stroke="blue" points="814,-303.5 814,-324.5 924,-324.5 924,-303.5 814,-303.5"/>
<text text-anchor="start" x="858.5" y="-310" font-family="Helvetica,sans-Serif" font-size="10.00">none</text>
<polygon fill="none" stroke="blue" points="814,-282.5 814,-303.5 924,-303.5 924,-282.5 814,-282.5"/>
<text text-anchor="start" x="863" y="-289" font-family="Helvetica,sans-Serif" font-size="10.00">[,,]</text>
</g>
<!-- dependency286252&#45;&gt;dependency286255 -->
<g id="edge11" class="edge">
<title>dependency286252:e&#45;&gt;dependency286255:w</title>
<path fill="none" stroke="black" stroke-dasharray="5,2" d="M569,-635C710.83,-635 563.52,-350.61 690.1,-335.61"/>
<polygon fill="black" stroke="black" points="699.78,-335.07 690.05,-340.12 696.01,-335.28 689.8,-335.63 689.8,-335.63 689.8,-335.63 696.01,-335.28 689.55,-331.14 699.78,-335.07"/>
</g>
<!-- dependency286256 -->
<g id="node14" class="node">
<title>dependency286256</title>
<polygon fill="none" stroke="blue" points="710,-151.5 710,-256.5 814,-256.5 814,-151.5 710,-151.5"/>
<text text-anchor="start" x="741" y="-200.12" font-family="Helvetica,sans-Serif" font-size="10.00">pack_dep</text>
<polygon fill="none" stroke="blue" points="814,-235.5 814,-256.5 924,-256.5 924,-235.5 814,-235.5"/>
<text text-anchor="start" x="863.75" y="-242" font-family="Helvetica,sans-Serif" font-size="10.00">no</text>
<polygon fill="none" stroke="blue" points="814,-214.5 814,-235.5 924,-235.5 924,-214.5 814,-214.5"/>
<text text-anchor="start" x="855.5" y="-221" font-family="Helvetica,sans-Serif" font-size="10.00">dev&#45;qt</text>
<polygon fill="none" stroke="blue" points="814,-193.5 814,-214.5 924,-214.5 924,-193.5 814,-193.5"/>
<text text-anchor="start" x="848" y="-200" font-family="Helvetica,sans-Serif" font-size="10.00">qtwidgets</text>
<polygon fill="none" stroke="blue" points="814,-172.5 814,-193.5 924,-193.5 924,-172.5 814,-172.5"/>
<text text-anchor="start" x="858.5" y="-179" font-family="Helvetica,sans-Serif" font-size="10.00">none</text>
<polygon fill="none" stroke="blue" points="814,-151.5 814,-172.5 924,-172.5 924,-151.5 814,-151.5"/>
<text text-anchor="start" x="863" y="-158" font-family="Helvetica,sans-Serif" font-size="10.00">[,,]</text>
</g>
<!-- dependency286252&#45;&gt;dependency286256 -->
<g id="edge12" class="edge">
<title>dependency286252:e&#45;&gt;dependency286256:w</title>
<path fill="none" stroke="black" stroke-dasharray="5,2" d="M569,-635C765.52,-635 510.72,-220.26 690.06,-204.46"/>
<polygon fill="black" stroke="black" points="699.78,-204.05 689.98,-208.97 696,-204.21 689.79,-204.47 689.79,-204.47 689.79,-204.47 696,-204.21 689.6,-199.98 699.78,-204.05"/>
</g>
<!-- dependency286257 -->
<g id="node15" class="node">
<title>dependency286257</title>
<polygon fill="none" stroke="blue" points="710,-20.5 710,-125.5 814,-125.5 814,-20.5 710,-20.5"/>
<text text-anchor="start" x="741" y="-69.12" font-family="Helvetica,sans-Serif" font-size="10.00">pack_dep</text>
<polygon fill="none" stroke="blue" points="814,-104.5 814,-125.5 924,-125.5 924,-104.5 814,-104.5"/>
<text text-anchor="start" x="863.75" y="-111" font-family="Helvetica,sans-Serif" font-size="10.00">no</text>
<polygon fill="none" stroke="blue" points="814,-83.5 814,-104.5 924,-104.5 924,-83.5 814,-83.5"/>
<text text-anchor="start" x="846.88" y="-90" font-family="Helvetica,sans-Serif" font-size="10.00">media&#45;libs</text>
<polygon fill="none" stroke="blue" points="814,-62.5 814,-83.5 924,-83.5 924,-62.5 814,-62.5"/>
<text text-anchor="start" x="852.88" y="-69" font-family="Helvetica,sans-Serif" font-size="10.00">freeglut</text>
<polygon fill="none" stroke="blue" points="814,-41.5 814,-62.5 924,-62.5 924,-41.5 814,-41.5"/>
<text text-anchor="start" x="858.5" y="-48" font-family="Helvetica,sans-Serif" font-size="10.00">none</text>
<polygon fill="none" stroke="blue" points="814,-20.5 814,-41.5 924,-41.5 924,-20.5 814,-20.5"/>
<text text-anchor="start" x="863" y="-27" font-family="Helvetica,sans-Serif" font-size="10.00">[,,]</text>
</g>
<!-- dependency286252&#45;&gt;dependency286257 -->
<g id="edge13" class="edge">
<title>dependency286252:e&#45;&gt;dependency286257:w</title>
<path fill="none" stroke="black" stroke-dasharray="5,2" d="M569,-635C821.82,-635 455.45,-89.34 690.13,-73.36"/>
<polygon fill="black" stroke="black" points="699.78,-73.04 689.94,-77.87 696,-73.16 689.79,-73.37 689.79,-73.37 689.79,-73.37 696,-73.16 689.64,-68.87 699.78,-73.04"/>
</g>
<!-- dependency286253&#45;&gt;choice1001011184511311647113116991111141014553464953464952 -->
<g id="edge25" class="edge">
<title>dependency286253:e&#45;&gt;choice1001011184511311647113116991111141014553464953464952:w</title>
<path fill="none" stroke="black" stroke-dasharray="1,5" d="M939,-597C964.12,-597 955.6,-635.59 938,-653.5 913.66,-678.27 647.83,-644.99 626,-672 582.03,-726.39 594.41,-1868.59 626,-1931 636.39,-1951.53 645.02,-1963.2 664.04,-1966.21"/>
<polygon fill="black" stroke="black" points="673.78,-1966.91 663.49,-1970.68 670.01,-1966.64 663.81,-1966.2 663.81,-1966.2 663.81,-1966.2 670.01,-1966.64 664.13,-1961.71 673.78,-1966.91"/>
</g>
<!-- dependency286254&#45;&gt;choice10010111845113116471131161031171054553464953464952 -->
<g id="edge26" class="edge">
<title>dependency286254:e&#45;&gt;choice10010111845113116471131161031171054553464953464952:w</title>
<path fill="none" stroke="black" stroke-dasharray="1,5" d="M939,-466C964.12,-466 955.6,-504.59 938,-522.5 913.66,-547.27 647.83,-513.99 626,-541 583.95,-593.02 595.79,-1685.32 626,-1745 636.39,-1765.53 645.02,-1777.2 664.04,-1780.21"/>
<polygon fill="black" stroke="black" points="673.78,-1780.91 663.49,-1784.68 670.01,-1780.64 663.81,-1780.2 663.81,-1780.2 663.81,-1780.2 670.01,-1780.64 664.13,-1775.71 673.78,-1780.91"/>
</g>
<!-- dependency286255&#45;&gt;choice10010111845113116471131161111121011101031084553464953464952 -->
<g id="edge27" class="edge">
<title>dependency286255:e&#45;&gt;choice10010111845113116471131161111121011101031084553464953464952:w</title>
<path fill="none" stroke="black" stroke-dasharray="1,5" d="M939,-335C964.12,-335 955.6,-373.59 938,-391.5 913.66,-416.27 647.83,-382.99 626,-410 585.87,-459.64 597.17,-1502.05 626,-1559 636.39,-1579.53 645.02,-1591.2 664.04,-1594.21"/>
<polygon fill="black" stroke="black" points="673.78,-1594.91 663.49,-1598.68 670.01,-1594.64 663.81,-1594.2 663.81,-1594.2 663.81,-1594.2 670.01,-1594.64 664.13,-1589.71 673.78,-1594.91"/>
</g>
<!-- dependency286256&#45;&gt;choice10010111845113116471131161191051001031011161154553464953464952 -->
<g id="edge28" class="edge">
<title>dependency286256:e&#45;&gt;choice10010111845113116471131161191051001031011161154553464953464952:w</title>
<path fill="none" stroke="black" stroke-dasharray="1,5" d="M939,-204C964.12,-204 955.6,-242.59 938,-260.5 913.66,-285.27 647.83,-251.99 626,-279 587.79,-326.26 598.55,-1318.77 626,-1373 636.39,-1393.53 645.02,-1405.2 664.04,-1408.21"/>
<polygon fill="black" stroke="black" points="673.78,-1408.91 663.49,-1412.68 670.01,-1408.64 663.81,-1408.2 663.81,-1408.2 663.81,-1408.2 670.01,-1408.64 664.13,-1403.71 673.78,-1408.91"/>
</g>
<!-- dependency286257&#45;&gt;choice10910110010597451081059811547102114101101103108117116455146524648 -->
<g id="edge29" class="edge">
<title>dependency286257:e&#45;&gt;choice10910110010597451081059811547102114101101103108117116455146524648:w</title>
<path fill="none" stroke="black" stroke-dasharray="1,5" d="M939,-73C964.12,-73 955.6,-111.59 938,-129.5 913.66,-154.27 647.83,-120.99 626,-148 589.71,-192.89 599.93,-1135.5 626,-1187 636.39,-1207.53 645.02,-1219.2 664.04,-1222.21"/>
<polygon fill="black" stroke="black" points="673.78,-1222.91 663.49,-1226.68 670.01,-1222.64 663.81,-1222.2 663.81,-1222.2 663.81,-1222.2 670.01,-1222.64 664.13,-1217.71 673.78,-1222.91"/>
</g>
<!-- dependency286257&#45;&gt;choice10910110010597451081059811547102114101101103108117116455146544648 -->
<g id="edge30" class="edge">
<title>dependency286257:e&#45;&gt;choice10910110010597451081059811547102114101101103108117116455146544648:w</title>
<path fill="none" stroke="black" stroke-dasharray="1,5" d="M939,-73C964.12,-73 955.6,-111.59 938,-129.5 913.66,-154.27 647.83,-120.99 626,-148 591.6,-190.56 601.29,-1084.18 626,-1133 636.39,-1153.53 645.02,-1165.2 664.04,-1168.21"/>
<polygon fill="black" stroke="black" points="673.78,-1168.91 663.49,-1172.68 670.01,-1168.64 663.81,-1168.2 663.81,-1168.2 663.81,-1168.2 670.01,-1168.64 664.13,-1163.71 673.78,-1168.91"/>
</g>
</g>
</svg>
