<?xml version="1.0" encoding="UTF-8" standalone="no"?>
<!DOCTYPE svg PUBLIC "-//W3C//DTD SVG 1.1//EN"
 "http://www.w3.org/Graphics/SVG/1.1/DTD/svg11.dtd">
<!-- Generated by graphviz version 2.41.20171026.1811 (20171026.1811)
 -->
<!-- Title: prolog Pages: 1 -->
<svg width="1326pt" height="911pt"
 viewBox="0.00 0.00 1326.00 911.00" xmlns="http://www.w3.org/2000/svg" xmlns:xlink="http://www.w3.org/1999/xlink">
<g id="graph0" class="graph" transform="scale(1 1) rotate(0) translate(4 907)">
<title>prolog</title>
<polygon fill="white" stroke="transparent" points="-4,4 -4,-907 1322,-907 1322,4 -4,4"/>
<g id="clust1" class="cluster">
<title>cluster_leftcol</title>
<polygon fill="none" stroke="gray" points="8,-591 8,-663 312,-663 312,-591 8,-591"/>
<text text-anchor="start" x="146.66" y="-651" font-family="Helvetica,sans-Serif" font-style="italic" font-size="10.00">ebuild</text>
</g>
<g id="clust2" class="cluster">
<title>cluster_midcol</title>
<polygon fill="none" stroke="gray" points="396,-8 396,-850 922,-850 922,-8 396,-8"/>
<text text-anchor="start" x="627.88" y="-838" font-family="Helvetica,sans-Serif" font-style="italic" font-size="10.00">dependencies</text>
</g>
<g id="clust4" class="cluster">
<title>cluster_compileandrun</title>
<polygon fill="#eeeeee" stroke="gray" points="404,-16 404,-822 914,-822 914,-16 404,-16"/>
<text text-anchor="start" x="623.44" y="-810" font-family="Helvetica,sans-Serif" font-style="italic" font-size="10.00">compile and run</text>
</g>
<g id="clust14" class="cluster">
<title>cluster_choices</title>
<polygon fill="none" stroke="gray" points="1006,-13 1006,-895 1310,-895 1310,-13 1006,-13"/>
<text text-anchor="start" x="1133.82" y="-883" font-family="Helvetica,sans-Serif" font-style="italic" font-size="10.00">candidates</text>
</g>
<!-- id -->
<g id="node1" class="node">
<title>id</title>
<g id="a_node1"><a xlink:href="../media-gfx/phototonic-2.1.svg" xlink:title="portage://media&#45;gfx/phototonic&#45;2.1">
<ellipse fill="none" stroke="red" cx="160" cy="-617" rx="144" ry="18"/>
<text text-anchor="middle" x="160" y="-614" font-family="Helvetica,sans-Serif" font-size="10.00">portage://media&#45;gfx/phototonic&#45;2.1</text>
</a>
</g>
</g>
<!-- dependency315851 -->
<g id="node2" class="node">
<title>dependency315851</title>
<polygon fill="none" stroke="red" points="420,-692 420,-736 511,-736 511,-692 420,-692"/>
<text text-anchor="start" x="430.77" y="-711" font-family="Helvetica,sans-Serif" font-size="10.00">use_conditional</text>
<polygon fill="none" stroke="red" points="511,-714 511,-736 554,-736 554,-714 511,-714"/>
<text text-anchor="start" x="515.55" y="-722" font-family="Helvetica,sans-Serif" font-size="10.00">positive</text>
<polygon fill="none" stroke="red" points="511,-692 511,-714 554,-714 554,-692 511,-692"/>
<text text-anchor="start" x="524.72" y="-700" font-family="Helvetica,sans-Serif" font-size="10.00">svg</text>
</g>
<!-- id&#45;&gt;dependency315851 -->
<g id="edge2" class="edge">
<title>id:e&#45;&gt;dependency315851:w</title>
<path fill="none" stroke="black" d="M305,-617C362,-617 350.82,-694.28 393.17,-710.88"/>
<ellipse fill="none" stroke="black" cx="407.06" cy="-713.31" rx="4" ry="4"/>
<polygon fill="black" stroke="black" points="403.12,-712.62 392.49,-715.33 398.19,-711.76 393.27,-710.9 393.27,-710.9 393.27,-710.9 398.19,-711.76 394.04,-706.47 403.12,-712.62 403.12,-712.62"/>
</g>
<!-- dependency315853 -->
<g id="node4" class="node">
<title>dependency315853</title>
<polygon fill="none" stroke="red" points="420,-595 420,-639 511,-639 511,-595 420,-595"/>
<text text-anchor="start" x="430.77" y="-614" font-family="Helvetica,sans-Serif" font-size="10.00">use_conditional</text>
<polygon fill="none" stroke="red" points="511,-617 511,-639 554,-639 554,-617 511,-617"/>
<text text-anchor="start" x="515.55" y="-625" font-family="Helvetica,sans-Serif" font-size="10.00">positive</text>
<polygon fill="none" stroke="red" points="511,-595 511,-617 554,-617 554,-595 511,-595"/>
<text text-anchor="start" x="527.22" y="-603" font-family="Helvetica,sans-Serif" font-size="10.00">tiff</text>
</g>
<!-- id&#45;&gt;dependency315853 -->
<g id="edge4" class="edge">
<title>id:e&#45;&gt;dependency315853:w</title>
<path fill="none" stroke="black" d="M305,-617C345.3,-617 359.75,-617 392.57,-617"/>
<ellipse fill="none" stroke="black" cx="407" cy="-617" rx="4" ry="4"/>
<polygon fill="black" stroke="black" points="403,-617 393,-621.5 398,-617 393,-617 393,-617 393,-617 398,-617 393,-612.5 403,-617 403,-617"/>
</g>
<!-- dependency315855 -->
<g id="node6" class="node">
<title>dependency315855</title>
<polygon fill="none" stroke="blue" points="678,-422 678,-520 783,-520 783,-422 678,-422"/>
<text text-anchor="start" x="708.82" y="-468" font-family="Helvetica,sans-Serif" font-size="10.00">pack_dep</text>
<polygon fill="none" stroke="blue" points="783,-498 783,-520 893,-520 893,-498 783,-498"/>
<text text-anchor="start" x="832.44" y="-506" font-family="Helvetica,sans-Serif" font-size="10.00">no</text>
<polygon fill="none" stroke="blue" points="783,-476 783,-498 893,-498 893,-476 783,-476"/>
<text text-anchor="start" x="824.11" y="-484" font-family="Helvetica,sans-Serif" font-size="10.00">dev&#45;qt</text>
<polygon fill="none" stroke="blue" points="783,-454 783,-476 893,-476 893,-454 783,-454"/>
<text text-anchor="start" x="824.11" y="-462" font-family="Helvetica,sans-Serif" font-size="10.00">qtcore</text>
<polygon fill="none" stroke="blue" points="783,-432 783,-454 893,-454 893,-432 783,-432"/>
<text text-anchor="start" x="826.88" y="-440" font-family="Helvetica,sans-Serif" font-size="10.00">none</text>
<polygon fill="none" stroke="blue" points="783,-422 783,-432 893,-432 893,-422 783,-422"/>
</g>
<!-- id&#45;&gt;dependency315855 -->
<g id="edge5" class="edge">
<title>id:e&#45;&gt;dependency315855:w</title>
<path fill="none" stroke="black" d="M488,-325C575.23,-282.08 567.72,-447.96 651.89,-468.86"/>
<ellipse fill="none" stroke="black" cx="666.03" cy="-470.53" rx="4" ry="4"/>
<polygon fill="black" stroke="black" points="662.06,-470.06 651.6,-473.35 657.09,-469.47 652.12,-468.89 652.12,-468.89 652.12,-468.89 657.09,-469.47 652.65,-464.42 662.06,-470.06 662.06,-470.06"/>
</g>
<!-- dependency315856 -->
<g id="node7" class="node">
<title>dependency315856</title>
<polygon fill="none" stroke="blue" points="678,-276 678,-374 783,-374 783,-276 678,-276"/>
<text text-anchor="start" x="708.82" y="-322" font-family="Helvetica,sans-Serif" font-size="10.00">pack_dep</text>
<polygon fill="none" stroke="blue" points="783,-352 783,-374 893,-374 893,-352 783,-352"/>
<text text-anchor="start" x="832.44" y="-360" font-family="Helvetica,sans-Serif" font-size="10.00">no</text>
<polygon fill="none" stroke="blue" points="783,-330 783,-352 893,-352 893,-330 783,-330"/>
<text text-anchor="start" x="824.11" y="-338" font-family="Helvetica,sans-Serif" font-size="10.00">dev&#45;qt</text>
<polygon fill="none" stroke="blue" points="783,-308 783,-330 893,-330 893,-308 783,-308"/>
<text text-anchor="start" x="827.16" y="-316" font-family="Helvetica,sans-Serif" font-size="10.00">qtgui</text>
<polygon fill="none" stroke="blue" points="783,-286 783,-308 893,-308 893,-286 783,-286"/>
<text text-anchor="start" x="826.88" y="-294" font-family="Helvetica,sans-Serif" font-size="10.00">none</text>
<polygon fill="none" stroke="blue" points="783,-276 783,-286 893,-286 893,-276 783,-276"/>
</g>
<!-- id&#45;&gt;dependency315856 -->
<g id="edge6" class="edge">
<title>id:e&#45;&gt;dependency315856:w</title>
<path fill="none" stroke="black" d="M488,-325C554.91,-292.08 584.38,-319.86 651.95,-324.4"/>
<ellipse fill="none" stroke="black" cx="666" cy="-324.87" rx="4" ry="4"/>
<polygon fill="black" stroke="black" points="662,-324.73 651.86,-328.9 657.01,-324.57 652.01,-324.4 652.01,-324.4 652.01,-324.4 657.01,-324.57 652.16,-319.9 662,-324.73 662,-324.73"/>
</g>
<!-- dependency315857 -->
<g id="node8" class="node">
<title>dependency315857</title>
<polygon fill="none" stroke="blue" points="678,-152 678,-250 783,-250 783,-152 678,-152"/>
<text text-anchor="start" x="708.82" y="-198" font-family="Helvetica,sans-Serif" font-size="10.00">pack_dep</text>
<polygon fill="none" stroke="blue" points="783,-228 783,-250 893,-250 893,-228 783,-228"/>
<text text-anchor="start" x="832.44" y="-236" font-family="Helvetica,sans-Serif" font-size="10.00">no</text>
<polygon fill="none" stroke="blue" points="783,-206 783,-228 893,-228 893,-206 783,-206"/>
<text text-anchor="start" x="824.11" y="-214" font-family="Helvetica,sans-Serif" font-size="10.00">dev&#45;qt</text>
<polygon fill="none" stroke="blue" points="783,-184 783,-206 893,-206 893,-184 783,-184"/>
<text text-anchor="start" x="816.88" y="-192" font-family="Helvetica,sans-Serif" font-size="10.00">qtwidgets</text>
<polygon fill="none" stroke="blue" points="783,-162 783,-184 893,-184 893,-162 783,-162"/>
<text text-anchor="start" x="826.88" y="-170" font-family="Helvetica,sans-Serif" font-size="10.00">none</text>
<polygon fill="none" stroke="blue" points="783,-152 783,-162 893,-162 893,-152 783,-152"/>
</g>
<!-- id&#45;&gt;dependency315857 -->
<g id="edge7" class="edge">
<title>id:e&#45;&gt;dependency315857:w</title>
<path fill="none" stroke="black" d="M488,-325C569.99,-284.66 572.21,-211.56 651.79,-202.03"/>
<ellipse fill="none" stroke="black" cx="666.01" cy="-201.23" rx="4" ry="4"/>
<polygon fill="black" stroke="black" points="662.01,-201.45 652.28,-206.51 657.02,-201.74 652.03,-202.02 652.03,-202.02 652.03,-202.02 657.02,-201.74 651.77,-197.53 662.01,-201.45 662.01,-201.45"/>
</g>
<!-- dependency315858 -->
<g id="node9" class="node">
<title>dependency315858</title>
<polygon fill="none" stroke="blue" points="678,-28 678,-126 783,-126 783,-28 678,-28"/>
<text text-anchor="start" x="708.82" y="-74" font-family="Helvetica,sans-Serif" font-size="10.00">pack_dep</text>
<polygon fill="none" stroke="blue" points="783,-104 783,-126 893,-126 893,-104 783,-104"/>
<text text-anchor="start" x="832.44" y="-112" font-family="Helvetica,sans-Serif" font-size="10.00">no</text>
<polygon fill="none" stroke="blue" points="783,-82 783,-104 893,-104 893,-82 783,-82"/>
<text text-anchor="start" x="816.05" y="-90" font-family="Helvetica,sans-Serif" font-size="10.00">media&#45;gfx</text>
<polygon fill="none" stroke="blue" points="783,-60 783,-82 893,-82 893,-60 783,-60"/>
<text text-anchor="start" x="826.33" y="-68" font-family="Helvetica,sans-Serif" font-size="10.00">exiv2</text>
<polygon fill="none" stroke="blue" points="783,-38 783,-60 893,-60 893,-38 783,-38"/>
<text text-anchor="start" x="826.88" y="-46" font-family="Helvetica,sans-Serif" font-size="10.00">none</text>
<polygon fill="none" stroke="blue" points="783,-28 783,-38 893,-38 893,-28 783,-28"/>
</g>
<!-- id&#45;&gt;dependency315858 -->
<g id="edge8" class="edge">
<title>id:e&#45;&gt;dependency315858:w</title>
<path fill="none" stroke="black" d="M488,-325C604.8,-267.53 540.23,-94.67 651.8,-78.25"/>
<ellipse fill="none" stroke="black" cx="666.01" cy="-77.28" rx="4" ry="4"/>
<polygon fill="black" stroke="black" points="662.02,-77.55 652.35,-82.73 657.03,-77.89 652.04,-78.24 652.04,-78.24 652.04,-78.24 657.03,-77.89 651.73,-73.75 662.02,-77.55 662.02,-77.55"/>
<path fill="none" stroke="black" d="M305,-617C457.69,-617 349,-392.41 486,-325"/>
</g>
<!-- dependency315852 -->
<g id="node3" class="node">
<title>dependency315852</title>
<polygon fill="none" stroke="blue" points="678,-692 678,-790 783,-790 783,-692 678,-692"/>
<text text-anchor="start" x="708.82" y="-738" font-family="Helvetica,sans-Serif" font-size="10.00">pack_dep</text>
<polygon fill="none" stroke="blue" points="783,-768 783,-790 893,-790 893,-768 783,-768"/>
<text text-anchor="start" x="832.44" y="-776" font-family="Helvetica,sans-Serif" font-size="10.00">no</text>
<polygon fill="none" stroke="blue" points="783,-746 783,-768 893,-768 893,-746 783,-746"/>
<text text-anchor="start" x="824.11" y="-754" font-family="Helvetica,sans-Serif" font-size="10.00">dev&#45;qt</text>
<polygon fill="none" stroke="blue" points="783,-724 783,-746 893,-746 893,-724 783,-724"/>
<text text-anchor="start" x="826.05" y="-732" font-family="Helvetica,sans-Serif" font-size="10.00">qtsvg</text>
<polygon fill="none" stroke="blue" points="783,-702 783,-724 893,-724 893,-702 783,-702"/>
<text text-anchor="start" x="826.88" y="-710" font-family="Helvetica,sans-Serif" font-size="10.00">none</text>
<polygon fill="none" stroke="blue" points="783,-692 783,-702 893,-702 893,-692 783,-692"/>
</g>
<!-- dependency315851&#45;&gt;dependency315852 -->
<g id="edge1" class="edge">
<title>dependency315851:e&#45;&gt;dependency315852:w</title>
<path fill="none" stroke="black" stroke-dasharray="5,2" d="M562,-714C607.9,-714 619,-737.24 659.88,-740.6"/>
<polygon fill="black" stroke="black" points="670,-741 659.83,-745.1 665,-740.8 660.01,-740.6 660.01,-740.6 660.01,-740.6 665,-740.8 660.19,-736.11 670,-741 670,-741"/>
</g>
<!-- choiceportage100101118451131164711311611511810345534649504651 -->
<g id="node10" class="node">
<title>choiceportage100101118451131164711311611511810345534649504651</title>
<g id="a_node10"><a xlink:href="../dev-qt/qtsvg-5.12.3.svg" xlink:title="portage://dev&#45;qt/qtsvg&#45;5.12.3">
<ellipse fill="none" stroke="red" cx="1158" cy="-849" rx="144" ry="18"/>
<text text-anchor="middle" x="1158" y="-846" font-family="Helvetica,sans-Serif" font-size="10.00">portage://dev&#45;qt/qtsvg&#45;5.12.3</text>
</a>
</g>
</g>
<!-- dependency315852&#45;&gt;choiceportage100101118451131164711311611511810345534649504651 -->
<g id="edge9" class="edge">
<title>dependency315852:e&#45;&gt;choiceportage100101118451131164711311611511810345534649504651:w</title>
<path fill="none" stroke="black" stroke-dasharray="1,5" d="M907,-741C970.58,-741 948.58,-837.51 1002.79,-848.07"/>
<polygon fill="black" stroke="black" points="1013,-849 1002.63,-852.57 1008.02,-848.54 1003.04,-848.09 1003.04,-848.09 1003.04,-848.09 1008.02,-848.54 1003.45,-843.61 1013,-849 1013,-849"/>
</g>
<!-- choiceportage100101118451131164711311611511810345534649504653 -->
<g id="node11" class="node">
<title>choiceportage100101118451131164711311611511810345534649504653</title>
<g id="a_node11"><a xlink:href="../dev-qt/qtsvg-5.12.5.svg" xlink:title="portage://dev&#45;qt/qtsvg&#45;5.12.5">
<ellipse fill="none" stroke="red" cx="1158" cy="-795" rx="144" ry="18"/>
<text text-anchor="middle" x="1158" y="-792" font-family="Helvetica,sans-Serif" font-size="10.00">portage://dev&#45;qt/qtsvg&#45;5.12.5</text>
</a>
</g>
</g>
<!-- dependency315852&#45;&gt;choiceportage100101118451131164711311611511810345534649504653 -->
<g id="edge10" class="edge">
<title>dependency315852:e&#45;&gt;choiceportage100101118451131164711311611511810345534649504653:w</title>
<path fill="none" stroke="black" stroke-dasharray="1,5" d="M907,-741C956.26,-741 959.85,-787.87 1002.86,-794.28"/>
<polygon fill="black" stroke="black" points="1013,-795 1002.71,-798.78 1008.01,-794.64 1003.03,-794.29 1003.03,-794.29 1003.03,-794.29 1008.01,-794.64 1003.35,-789.8 1013,-795 1013,-795"/>
</g>
<!-- choiceportage100101118451131164711311611511810345534649514650 -->
<g id="node12" class="node">
<title>choiceportage100101118451131164711311611511810345534649514650</title>
<g id="a_node12"><a xlink:href="../dev-qt/qtsvg-5.13.2.svg" xlink:title="portage://dev&#45;qt/qtsvg&#45;5.13.2">
<ellipse fill="none" stroke="red" cx="1158" cy="-741" rx="144" ry="18"/>
<text text-anchor="middle" x="1158" y="-738" font-family="Helvetica,sans-Serif" font-size="10.00">portage://dev&#45;qt/qtsvg&#45;5.13.2</text>
</a>
</g>
</g>
<!-- dependency315852&#45;&gt;choiceportage100101118451131164711311611511810345534649514650 -->
<g id="edge11" class="edge">
<title>dependency315852:e&#45;&gt;choiceportage100101118451131164711311611511810345534649514650:w</title>
<path fill="none" stroke="black" stroke-dasharray="1,5" d="M907,-741C950.43,-741 963.83,-741 1002.57,-741"/>
<polygon fill="black" stroke="black" points="1013,-741 1003,-745.5 1008,-741 1003,-741 1003,-741 1003,-741 1008,-741 1003,-736.5 1013,-741 1013,-741"/>
</g>
<!-- dependency315854 -->
<g id="node5" class="node">
<title>dependency315854</title>
<polygon fill="none" stroke="blue" points="678,-568 678,-666 783,-666 783,-568 678,-568"/>
<text text-anchor="start" x="708.82" y="-614" font-family="Helvetica,sans-Serif" font-size="10.00">pack_dep</text>
<polygon fill="none" stroke="blue" points="783,-644 783,-666 893,-666 893,-644 783,-644"/>
<text text-anchor="start" x="832.44" y="-652" font-family="Helvetica,sans-Serif" font-size="10.00">no</text>
<polygon fill="none" stroke="blue" points="783,-622 783,-644 893,-644 893,-622 783,-622"/>
<text text-anchor="start" x="824.11" y="-630" font-family="Helvetica,sans-Serif" font-size="10.00">dev&#45;qt</text>
<polygon fill="none" stroke="blue" points="783,-600 783,-622 893,-622 893,-600 783,-600"/>
<text text-anchor="start" x="803.55" y="-608" font-family="Helvetica,sans-Serif" font-size="10.00">qtimageformats</text>
<polygon fill="none" stroke="blue" points="783,-578 783,-600 893,-600 893,-578 783,-578"/>
<text text-anchor="start" x="826.88" y="-586" font-family="Helvetica,sans-Serif" font-size="10.00">none</text>
<polygon fill="none" stroke="blue" points="783,-568 783,-578 893,-578 893,-568 783,-568"/>
</g>
<!-- dependency315853&#45;&gt;dependency315854 -->
<g id="edge3" class="edge">
<title>dependency315853:e&#45;&gt;dependency315854:w</title>
<path fill="none" stroke="black" stroke-dasharray="5,2" d="M562,-617C606.44,-617 620.02,-617 659.88,-617"/>
<polygon fill="black" stroke="black" points="670,-617 660,-621.5 665,-617 660,-617 660,-617 660,-617 665,-617 660,-612.5 670,-617 670,-617"/>
</g>
<!-- choiceportage1001011184511311647113116105109971031011021111141099711611545534649504651 -->
<g id="node13" class="node">
<title>choiceportage1001011184511311647113116105109971031011021111141099711611545534649504651</title>
<g id="a_node13"><a xlink:href="../dev-qt/qtimageformats-5.12.3.svg" xlink:title="portage://dev&#45;qt/qtimageformats&#45;5.12.3">
<ellipse fill="none" stroke="red" cx="1158" cy="-687" rx="144" ry="18"/>
<text text-anchor="middle" x="1158" y="-684" font-family="Helvetica,sans-Serif" font-size="10.00">portage://dev&#45;qt/qtimageformats&#45;5.12.3</text>
</a>
</g>
</g>
<!-- dependency315854&#45;&gt;choiceportage1001011184511311647113116105109971031011021111141099711611545534649504651 -->
<g id="edge12" class="edge">
<title>dependency315854:e&#45;&gt;choiceportage1001011184511311647113116105109971031011021111141099711611545534649504651:w</title>
<path fill="none" stroke="black" stroke-dasharray="1,5" d="M907,-617C959.82,-617 957.17,-678.27 1002.84,-686.17"/>
<polygon fill="black" stroke="black" points="1013,-687 1002.67,-690.67 1008.02,-686.59 1003.03,-686.18 1003.03,-686.18 1003.03,-686.18 1008.02,-686.59 1003.4,-681.7 1013,-687 1013,-687"/>
</g>
<!-- choiceportage1001011184511311647113116105109971031011021111141099711611545534649504653 -->
<g id="node14" class="node">
<title>choiceportage1001011184511311647113116105109971031011021111141099711611545534649504653</title>
<g id="a_node14"><a xlink:href="../dev-qt/qtimageformats-5.12.5.svg" xlink:title="portage://dev&#45;qt/qtimageformats&#45;5.12.5">
<ellipse fill="none" stroke="red" cx="1158" cy="-633" rx="144" ry="18"/>
<text text-anchor="middle" x="1158" y="-630" font-family="Helvetica,sans-Serif" font-size="10.00">portage://dev&#45;qt/qtimageformats&#45;5.12.5</text>
</a>
</g>
</g>
<!-- dependency315854&#45;&gt;choiceportage1001011184511311647113116105109971031011021111141099711611545534649504653 -->
<g id="edge13" class="edge">
<title>dependency315854:e&#45;&gt;choiceportage1001011184511311647113116105109971031011021111141099711611545534649504653:w</title>
<path fill="none" stroke="black" stroke-dasharray="1,5" d="M907,-617C951.11,-617 963.56,-630.71 1002.97,-632.75"/>
<polygon fill="black" stroke="black" points="1013,-633 1002.89,-637.25 1008,-632.87 1003,-632.75 1003,-632.75 1003,-632.75 1008,-632.87 1003.12,-628.25 1013,-633 1013,-633"/>
</g>
<!-- choiceportage1001011184511311647113116105109971031011021111141099711611545534649514650 -->
<g id="node15" class="node">
<title>choiceportage1001011184511311647113116105109971031011021111141099711611545534649514650</title>
<g id="a_node15"><a xlink:href="../dev-qt/qtimageformats-5.13.2.svg" xlink:title="portage://dev&#45;qt/qtimageformats&#45;5.13.2">
<ellipse fill="none" stroke="red" cx="1158" cy="-579" rx="144" ry="18"/>
<text text-anchor="middle" x="1158" y="-576" font-family="Helvetica,sans-Serif" font-size="10.00">portage://dev&#45;qt/qtimageformats&#45;5.13.2</text>
</a>
</g>
</g>
<!-- dependency315854&#45;&gt;choiceportage1001011184511311647113116105109971031011021111141099711611545534649514650 -->
<g id="edge14" class="edge">
<title>dependency315854:e&#45;&gt;choiceportage1001011184511311647113116105109971031011021111141099711611545534649514650:w</title>
<path fill="none" stroke="black" stroke-dasharray="1,5" d="M907,-617C953.43,-617 961.87,-584.29 1002.81,-579.57"/>
<polygon fill="black" stroke="black" points="1013,-579 1003.27,-584.05 1008.01,-579.28 1003.02,-579.56 1003.02,-579.56 1003.02,-579.56 1008.01,-579.28 1002.77,-575.06 1013,-579 1013,-579"/>
</g>
<!-- choiceportage10010111845113116471131169911111410145534649504651 -->
<g id="node16" class="node">
<title>choiceportage10010111845113116471131169911111410145534649504651</title>
<g id="a_node16"><a xlink:href="../dev-qt/qtcore-5.12.3.svg" xlink:title="portage://dev&#45;qt/qtcore&#45;5.12.3">
<ellipse fill="none" stroke="red" cx="1158" cy="-525" rx="144" ry="18"/>
<text text-anchor="middle" x="1158" y="-522" font-family="Helvetica,sans-Serif" font-size="10.00">portage://dev&#45;qt/qtcore&#45;5.12.3</text>
</a>
</g>
</g>
<!-- dependency315855&#45;&gt;choiceportage10010111845113116471131169911111410145534649504651 -->
<g id="edge15" class="edge">
<title>dependency315855:e&#45;&gt;choiceportage10010111845113116471131169911111410145534649504651:w</title>
<path fill="none" stroke="black" stroke-dasharray="1,5" d="M907,-471C956.26,-471 959.85,-517.87 1002.86,-524.28"/>
<polygon fill="black" stroke="black" points="1013,-525 1002.71,-528.78 1008.01,-524.64 1003.03,-524.29 1003.03,-524.29 1003.03,-524.29 1008.01,-524.64 1003.35,-519.8 1013,-525 1013,-525"/>
</g>
<!-- choiceportage100101118451131164711311699111114101455346495046534511449 -->
<g id="node17" class="node">
<title>choiceportage100101118451131164711311699111114101455346495046534511449</title>
<g id="a_node17"><a xlink:href="../dev-qt/qtcore-5.12.5-r1.svg" xlink:title="portage://dev&#45;qt/qtcore&#45;5.12.5&#45;r1">
<ellipse fill="none" stroke="red" cx="1158" cy="-471" rx="144" ry="18"/>
<text text-anchor="middle" x="1158" y="-468" font-family="Helvetica,sans-Serif" font-size="10.00">portage://dev&#45;qt/qtcore&#45;5.12.5&#45;r1</text>
</a>
</g>
</g>
<!-- dependency315855&#45;&gt;choiceportage100101118451131164711311699111114101455346495046534511449 -->
<g id="edge16" class="edge">
<title>dependency315855:e&#45;&gt;choiceportage100101118451131164711311699111114101455346495046534511449:w</title>
<path fill="none" stroke="black" stroke-dasharray="1,5" d="M907,-471C950.43,-471 963.83,-471 1002.57,-471"/>
<polygon fill="black" stroke="black" points="1013,-471 1003,-475.5 1008,-471 1003,-471 1003,-471 1003,-471 1008,-471 1003,-466.5 1013,-471 1013,-471"/>
</g>
<!-- choiceportage10010111845113116471131169911111410145534649514650 -->
<g id="node18" class="node">
<title>choiceportage10010111845113116471131169911111410145534649514650</title>
<g id="a_node18"><a xlink:href="../dev-qt/qtcore-5.13.2.svg" xlink:title="portage://dev&#45;qt/qtcore&#45;5.13.2">
<ellipse fill="none" stroke="red" cx="1158" cy="-417" rx="144" ry="18"/>
<text text-anchor="middle" x="1158" y="-414" font-family="Helvetica,sans-Serif" font-size="10.00">portage://dev&#45;qt/qtcore&#45;5.13.2</text>
</a>
</g>
</g>
<!-- dependency315855&#45;&gt;choiceportage10010111845113116471131169911111410145534649514650 -->
<g id="edge17" class="edge">
<title>dependency315855:e&#45;&gt;choiceportage10010111845113116471131169911111410145534649514650:w</title>
<path fill="none" stroke="black" stroke-dasharray="1,5" d="M907,-471C956.26,-471 959.85,-424.13 1002.86,-417.72"/>
<polygon fill="black" stroke="black" points="1013,-417 1003.35,-422.2 1008.01,-417.36 1003.03,-417.71 1003.03,-417.71 1003.03,-417.71 1008.01,-417.36 1002.71,-413.22 1013,-417 1013,-417"/>
</g>
<!-- choiceportage1001011184511311647113116103117105455346495046514511449 -->
<g id="node19" class="node">
<title>choiceportage1001011184511311647113116103117105455346495046514511449</title>
<g id="a_node19"><a xlink:href="../dev-qt/qtgui-5.12.3-r1.svg" xlink:title="portage://dev&#45;qt/qtgui&#45;5.12.3&#45;r1">
<ellipse fill="none" stroke="red" cx="1158" cy="-363" rx="144" ry="18"/>
<text text-anchor="middle" x="1158" y="-360" font-family="Helvetica,sans-Serif" font-size="10.00">portage://dev&#45;qt/qtgui&#45;5.12.3&#45;r1</text>
</a>
</g>
</g>
<!-- dependency315856&#45;&gt;choiceportage1001011184511311647113116103117105455346495046514511449 -->
<g id="edge18" class="edge">
<title>dependency315856:e&#45;&gt;choiceportage1001011184511311647113116103117105455346495046514511449:w</title>
<path fill="none" stroke="black" stroke-dasharray="1,5" d="M907,-325C953.43,-325 961.87,-357.71 1002.81,-362.43"/>
<polygon fill="black" stroke="black" points="1013,-363 1002.77,-366.94 1008.01,-362.72 1003.02,-362.44 1003.02,-362.44 1003.02,-362.44 1008.01,-362.72 1003.27,-357.95 1013,-363 1013,-363"/>
</g>
<!-- choiceportage100101118451131164711311610311710545534649504653 -->
<g id="node20" class="node">
<title>choiceportage100101118451131164711311610311710545534649504653</title>
<g id="a_node20"><a xlink:href="../dev-qt/qtgui-5.12.5.svg" xlink:title="portage://dev&#45;qt/qtgui&#45;5.12.5">
<ellipse fill="none" stroke="red" cx="1158" cy="-309" rx="144" ry="18"/>
<text text-anchor="middle" x="1158" y="-306" font-family="Helvetica,sans-Serif" font-size="10.00">portage://dev&#45;qt/qtgui&#45;5.12.5</text>
</a>
</g>
</g>
<!-- dependency315856&#45;&gt;choiceportage100101118451131164711311610311710545534649504653 -->
<g id="edge19" class="edge">
<title>dependency315856:e&#45;&gt;choiceportage100101118451131164711311610311710545534649504653:w</title>
<path fill="none" stroke="black" stroke-dasharray="1,5" d="M907,-325C951.11,-325 963.56,-311.29 1002.97,-309.25"/>
<polygon fill="black" stroke="black" points="1013,-309 1003.12,-313.75 1008,-309.13 1003,-309.25 1003,-309.25 1003,-309.25 1008,-309.13 1002.89,-304.75 1013,-309 1013,-309"/>
</g>
<!-- choiceportage100101118451131164711311610311710545534649514650 -->
<g id="node21" class="node">
<title>choiceportage100101118451131164711311610311710545534649514650</title>
<g id="a_node21"><a xlink:href="../dev-qt/qtgui-5.13.2.svg" xlink:title="portage://dev&#45;qt/qtgui&#45;5.13.2">
<ellipse fill="none" stroke="red" cx="1158" cy="-255" rx="144" ry="18"/>
<text text-anchor="middle" x="1158" y="-252" font-family="Helvetica,sans-Serif" font-size="10.00">portage://dev&#45;qt/qtgui&#45;5.13.2</text>
</a>
</g>
</g>
<!-- dependency315856&#45;&gt;choiceportage100101118451131164711311610311710545534649514650 -->
<g id="edge20" class="edge">
<title>dependency315856:e&#45;&gt;choiceportage100101118451131164711311610311710545534649514650:w</title>
<path fill="none" stroke="black" stroke-dasharray="1,5" d="M907,-325C959.82,-325 957.17,-263.73 1002.84,-255.83"/>
<polygon fill="black" stroke="black" points="1013,-255 1003.4,-260.3 1008.02,-255.41 1003.03,-255.82 1003.03,-255.82 1003.03,-255.82 1008.02,-255.41 1002.67,-251.33 1013,-255 1013,-255"/>
</g>
<!-- choiceportage100101118451131164711311611910510010310111611545534649504651 -->
<g id="node22" class="node">
<title>choiceportage100101118451131164711311611910510010310111611545534649504651</title>
<g id="a_node22"><a xlink:href="../dev-qt/qtwidgets-5.12.3.svg" xlink:title="portage://dev&#45;qt/qtwidgets&#45;5.12.3">
<ellipse fill="none" stroke="red" cx="1158" cy="-201" rx="144" ry="18"/>
<text text-anchor="middle" x="1158" y="-198" font-family="Helvetica,sans-Serif" font-size="10.00">portage://dev&#45;qt/qtwidgets&#45;5.12.3</text>
</a>
</g>
</g>
<!-- dependency315857&#45;&gt;choiceportage100101118451131164711311611910510010310111611545534649504651 -->
<g id="edge21" class="edge">
<title>dependency315857:e&#45;&gt;choiceportage100101118451131164711311611910510010310111611545534649504651:w</title>
<path fill="none" stroke="black" stroke-dasharray="1,5" d="M907,-201C950.43,-201 963.83,-201 1002.57,-201"/>
<polygon fill="black" stroke="black" points="1013,-201 1003,-205.5 1008,-201 1003,-201 1003,-201 1003,-201 1008,-201 1003,-196.5 1013,-201 1013,-201"/>
</g>
<!-- choiceportage1001011184511311647113116119105100103101116115455346495046534511449 -->
<g id="node23" class="node">
<title>choiceportage1001011184511311647113116119105100103101116115455346495046534511449</title>
<g id="a_node23"><a xlink:href="../dev-qt/qtwidgets-5.12.5-r1.svg" xlink:title="portage://dev&#45;qt/qtwidgets&#45;5.12.5&#45;r1">
<ellipse fill="none" stroke="red" cx="1158" cy="-147" rx="144" ry="18"/>
<text text-anchor="middle" x="1158" y="-144" font-family="Helvetica,sans-Serif" font-size="10.00">portage://dev&#45;qt/qtwidgets&#45;5.12.5&#45;r1</text>
</a>
</g>
</g>
<!-- dependency315857&#45;&gt;choiceportage1001011184511311647113116119105100103101116115455346495046534511449 -->
<g id="edge22" class="edge">
<title>dependency315857:e&#45;&gt;choiceportage1001011184511311647113116119105100103101116115455346495046534511449:w</title>
<path fill="none" stroke="black" stroke-dasharray="1,5" d="M907,-201C956.26,-201 959.85,-154.13 1002.86,-147.72"/>
<polygon fill="black" stroke="black" points="1013,-147 1003.35,-152.2 1008.01,-147.36 1003.03,-147.71 1003.03,-147.71 1003.03,-147.71 1008.01,-147.36 1002.71,-143.22 1013,-147 1013,-147"/>
</g>
<!-- choiceportage100101118451131164711311611910510010310111611545534649514650 -->
<g id="node24" class="node">
<title>choiceportage100101118451131164711311611910510010310111611545534649514650</title>
<g id="a_node24"><a xlink:href="../dev-qt/qtwidgets-5.13.2.svg" xlink:title="portage://dev&#45;qt/qtwidgets&#45;5.13.2">
<ellipse fill="none" stroke="red" cx="1158" cy="-93" rx="144" ry="18"/>
<text text-anchor="middle" x="1158" y="-90" font-family="Helvetica,sans-Serif" font-size="10.00">portage://dev&#45;qt/qtwidgets&#45;5.13.2</text>
</a>
</g>
</g>
<!-- dependency315857&#45;&gt;choiceportage100101118451131164711311611910510010310111611545534649514650 -->
<g id="edge23" class="edge">
<title>dependency315857:e&#45;&gt;choiceportage100101118451131164711311611910510010310111611545534649514650:w</title>
<path fill="none" stroke="black" stroke-dasharray="1,5" d="M907,-201C970.58,-201 948.58,-104.49 1002.79,-93.93"/>
<polygon fill="black" stroke="black" points="1013,-93 1003.45,-98.39 1008.02,-93.46 1003.04,-93.91 1003.04,-93.91 1003.04,-93.91 1008.02,-93.46 1002.63,-89.43 1013,-93 1013,-93"/>
</g>
<!-- choiceportage1091011001059745103102120471011201051185045484650554650 -->
<g id="node25" class="node">
<title>choiceportage1091011001059745103102120471011201051185045484650554650</title>
<g id="a_node25"><a xlink:href="../media-gfx/exiv2-0.27.2.svg" xlink:title="portage://media&#45;gfx/exiv2&#45;0.27.2">
<ellipse fill="none" stroke="red" cx="1158" cy="-39" rx="144" ry="18"/>
<text text-anchor="middle" x="1158" y="-36" font-family="Helvetica,sans-Serif" font-size="10.00">portage://media&#45;gfx/exiv2&#45;0.27.2</text>
</a>
</g>
</g>
<!-- dependency315858&#45;&gt;choiceportage1091011001059745103102120471011201051185045484650554650 -->
<g id="edge24" class="edge">
<title>dependency315858:e&#45;&gt;choiceportage1091011001059745103102120471011201051185045484650554650:w</title>
<path fill="none" stroke="black" stroke-dasharray="1,5" d="M907,-77C953.43,-77 961.87,-44.29 1002.81,-39.57"/>
<polygon fill="black" stroke="black" points="1013,-39 1003.27,-44.05 1008.01,-39.28 1003.02,-39.56 1003.02,-39.56 1003.02,-39.56 1008.01,-39.28 1002.77,-35.06 1013,-39 1013,-39"/>
</g>
</g>
</svg>
