<?xml version="1.0" encoding="UTF-8" standalone="no"?>
<!DOCTYPE svg PUBLIC "-//W3C//DTD SVG 1.1//EN"
 "http://www.w3.org/Graphics/SVG/1.1/DTD/svg11.dtd">
<!-- Generated by graphviz version 2.41.20171026.1811 (20171026.1811)
 -->
<!-- Title: prolog Pages: 1 -->
<svg width="1068pt" height="1122pt"
 viewBox="0.00 0.00 1068.00 1122.00" xmlns="http://www.w3.org/2000/svg" xmlns:xlink="http://www.w3.org/1999/xlink">
<g id="graph0" class="graph" transform="scale(1 1) rotate(0) translate(4 1118)">
<title>prolog</title>
<polygon fill="white" stroke="transparent" points="-4,4 -4,-1118 1064,-1118 1064,4 -4,4"/>
<g id="clust1" class="cluster">
<title>cluster_leftcol</title>
<polygon fill="none" stroke="gray" points="8,-511 8,-583 312,-583 312,-511 8,-511"/>
<text text-anchor="start" x="146.66" y="-571" font-family="Helvetica,sans-Serif" font-style="italic" font-size="10.00">ebuild</text>
</g>
<g id="clust2" class="cluster">
<title>cluster_midcol</title>
<polygon fill="none" stroke="gray" points="396,-8 396,-1106 664,-1106 664,-8 396,-8"/>
<text text-anchor="start" x="498.88" y="-1094" font-family="Helvetica,sans-Serif" font-style="italic" font-size="10.00">dependencies</text>
</g>
<g id="clust3" class="cluster">
<title>cluster_compile</title>
<polygon fill="#eeeeee" stroke="gray" points="404,-688 404,-1078 656,-1078 656,-688 404,-688"/>
<text text-anchor="start" x="512.78" y="-1066" font-family="Helvetica,sans-Serif" font-style="italic" font-size="10.00">compile</text>
</g>
<g id="clust7" class="cluster">
<title>cluster_compileandrun</title>
<polygon fill="#eeeeee" stroke="gray" points="404,-414 404,-680 656,-680 656,-414 404,-414"/>
<text text-anchor="start" x="494.44" y="-668" font-family="Helvetica,sans-Serif" font-style="italic" font-size="10.00">compile and run</text>
</g>
<g id="clust10" class="cluster">
<title>cluster_run</title>
<polygon fill="#eeeeee" stroke="gray" points="404,-16 404,-406 656,-406 656,-16 404,-16"/>
<text text-anchor="start" x="522.78" y="-394" font-family="Helvetica,sans-Serif" font-style="italic" font-size="10.00">run</text>
</g>
<g id="clust14" class="cluster">
<title>cluster_choices</title>
<polygon fill="none" stroke="gray" points="748,-13 748,-973 1052,-973 1052,-13 748,-13"/>
<text text-anchor="start" x="875.82" y="-961" font-family="Helvetica,sans-Serif" font-style="italic" font-size="10.00">candidates</text>
</g>
<!-- id -->
<g id="node1" class="node">
<title>id</title>
<g id="a_node1"><a xlink:href="../media-gfx/pinta-1.6-r2.svg" xlink:title="media&#45;gfx/pinta&#45;1.6&#45;r2">
<ellipse fill="none" stroke="red" cx="160" cy="-537" rx="144" ry="18"/>
<text text-anchor="middle" x="160" y="-534" font-family="Helvetica,sans-Serif" font-size="10.00">media&#45;gfx/pinta&#45;1.6&#45;r2</text>
</a>
</g>
</g>
<!-- dependency1607119 -->
<g id="node2" class="node">
<title>dependency1607119</title>
<polygon fill="none" stroke="blue" points="420,-948 420,-1046 525,-1046 525,-948 420,-948"/>
<text text-anchor="start" x="450.82" y="-994" font-family="Helvetica,sans-Serif" font-size="10.00">pack_dep</text>
<polygon fill="none" stroke="blue" points="525,-1024 525,-1046 635,-1046 635,-1024 525,-1024"/>
<text text-anchor="start" x="574.44" y="-1032" font-family="Helvetica,sans-Serif" font-size="10.00">no</text>
<polygon fill="none" stroke="blue" points="525,-1002 525,-1024 635,-1024 635,-1002 525,-1002"/>
<text text-anchor="start" x="563.89" y="-1010" font-family="Helvetica,sans-Serif" font-size="10.00">dev&#45;util</text>
<polygon fill="none" stroke="blue" points="525,-980 525,-1002 635,-1002 635,-980 525,-980"/>
<text text-anchor="start" x="565.55" y="-988" font-family="Helvetica,sans-Serif" font-size="10.00">intltool</text>
<polygon fill="none" stroke="blue" points="525,-958 525,-980 635,-980 635,-958 525,-958"/>
<text text-anchor="start" x="568.88" y="-966" font-family="Helvetica,sans-Serif" font-size="10.00">none</text>
<polygon fill="none" stroke="blue" points="525,-948 525,-958 635,-958 635,-948 525,-948"/>
</g>
<!-- id&#45;&gt;dependency1607119 -->
<g id="edge1" class="edge">
<title>id:e&#45;&gt;dependency1607119:w</title>
<path fill="none" stroke="black" d="M305,-537C511.32,-537 211.47,-981.85 400.98,-996.62"/>
<polygon fill="black" stroke="black" points="411,-997 400.84,-1001.12 406,-996.81 401.01,-996.62 401.01,-996.62 401.01,-996.62 406,-996.81 401.18,-992.13 411,-997 411,-997"/>
</g>
<!-- dependency1607120 -->
<g id="node3" class="node">
<title>dependency1607120</title>
<polygon fill="none" stroke="blue" points="420,-824 420,-922 525,-922 525,-824 420,-824"/>
<text text-anchor="start" x="450.82" y="-870" font-family="Helvetica,sans-Serif" font-size="10.00">pack_dep</text>
<polygon fill="none" stroke="blue" points="525,-900 525,-922 635,-922 635,-900 525,-900"/>
<text text-anchor="start" x="574.44" y="-908" font-family="Helvetica,sans-Serif" font-size="10.00">no</text>
<polygon fill="none" stroke="blue" points="525,-878 525,-900 635,-900 635,-878 525,-878"/>
<text text-anchor="start" x="558.89" y="-886" font-family="Helvetica,sans-Serif" font-size="10.00">sys&#45;devel</text>
<polygon fill="none" stroke="blue" points="525,-856 525,-878 635,-878 635,-856 525,-856"/>
<text text-anchor="start" x="564.99" y="-864" font-family="Helvetica,sans-Serif" font-size="10.00">gettext</text>
<polygon fill="none" stroke="blue" points="525,-834 525,-856 635,-856 635,-834 525,-834"/>
<text text-anchor="start" x="568.88" y="-842" font-family="Helvetica,sans-Serif" font-size="10.00">none</text>
<polygon fill="none" stroke="blue" points="525,-824 525,-834 635,-834 635,-824 525,-824"/>
</g>
<!-- id&#45;&gt;dependency1607120 -->
<g id="edge2" class="edge">
<title>id:e&#45;&gt;dependency1607120:w</title>
<path fill="none" stroke="black" d="M305,-537C458.07,-537 263.53,-858.08 400.99,-872.5"/>
<polygon fill="black" stroke="black" points="411,-873 400.79,-876.99 406.01,-872.75 401.01,-872.5 401.01,-872.5 401.01,-872.5 406.01,-872.75 401.24,-868.01 411,-873 411,-873"/>
</g>
<!-- dependency1607121 -->
<g id="node4" class="node">
<title>dependency1607121</title>
<polygon fill="none" stroke="blue" points="420,-700 420,-798 525,-798 525,-700 420,-700"/>
<text text-anchor="start" x="450.82" y="-746" font-family="Helvetica,sans-Serif" font-size="10.00">pack_dep</text>
<polygon fill="none" stroke="blue" points="525,-776 525,-798 635,-798 635,-776 525,-776"/>
<text text-anchor="start" x="574.44" y="-784" font-family="Helvetica,sans-Serif" font-size="10.00">no</text>
<polygon fill="none" stroke="blue" points="525,-754 525,-776 635,-776 635,-754 525,-754"/>
<text text-anchor="start" x="566.67" y="-762" font-family="Helvetica,sans-Serif" font-size="10.00">virtual</text>
<polygon fill="none" stroke="blue" points="525,-732 525,-754 635,-754 635,-732 525,-732"/>
<text text-anchor="start" x="558.6" y="-740" font-family="Helvetica,sans-Serif" font-size="10.00">pkgconfig</text>
<polygon fill="none" stroke="blue" points="525,-710 525,-732 635,-732 635,-710 525,-710"/>
<text text-anchor="start" x="568.88" y="-718" font-family="Helvetica,sans-Serif" font-size="10.00">none</text>
<polygon fill="none" stroke="blue" points="525,-700 525,-710 635,-710 635,-700 525,-700"/>
</g>
<!-- id&#45;&gt;dependency1607121 -->
<g id="edge3" class="edge">
<title>id:e&#45;&gt;dependency1607121:w</title>
<path fill="none" stroke="black" d="M305,-537C406.74,-537 312.57,-734.76 400.92,-748.27"/>
<polygon fill="black" stroke="black" points="411,-749 400.7,-752.77 406.01,-748.64 401.03,-748.28 401.03,-748.28 401.03,-748.28 406.01,-748.64 401.35,-743.79 411,-749 411,-749"/>
</g>
<!-- dependency1607122 -->
<g id="node5" class="node">
<title>dependency1607122</title>
<polygon fill="none" stroke="blue" points="420,-550 420,-648 525,-648 525,-550 420,-550"/>
<text text-anchor="start" x="450.82" y="-596" font-family="Helvetica,sans-Serif" font-size="10.00">pack_dep</text>
<polygon fill="none" stroke="blue" points="525,-626 525,-648 635,-648 635,-626 525,-626"/>
<text text-anchor="start" x="574.44" y="-634" font-family="Helvetica,sans-Serif" font-size="10.00">no</text>
<polygon fill="none" stroke="blue" points="525,-604 525,-626 635,-626 635,-604 525,-604"/>
<text text-anchor="start" x="556.38" y="-612" font-family="Helvetica,sans-Serif" font-size="10.00">dev&#45;dotnet</text>
<polygon fill="none" stroke="blue" points="525,-582 525,-604 635,-604 635,-582 525,-582"/>
<text text-anchor="start" x="551.11" y="-590" font-family="Helvetica,sans-Serif" font-size="10.00">mono&#45;addins</text>
<polygon fill="none" stroke="blue" points="525,-560 525,-582 635,-582 635,-560 525,-560"/>
<text text-anchor="start" x="568.88" y="-568" font-family="Helvetica,sans-Serif" font-size="10.00">none</text>
<polygon fill="none" stroke="blue" points="525,-550 525,-560 635,-560 635,-550 525,-550"/>
</g>
<!-- id&#45;&gt;dependency1607122 -->
<g id="edge4" class="edge">
<title>id:e&#45;&gt;dependency1607122:w</title>
<path fill="none" stroke="black" d="M305,-537C352.76,-537 356.31,-584.47 393.01,-596.34"/>
<ellipse fill="none" stroke="black" cx="407.04" cy="-598.41" rx="4" ry="4"/>
<polygon fill="black" stroke="black" points="403.09,-597.83 392.53,-600.81 398.14,-597.1 393.19,-596.36 393.19,-596.36 393.19,-596.36 398.14,-597.1 393.85,-591.91 403.09,-597.83 403.09,-597.83"/>
</g>
<!-- dependency1607123 -->
<g id="node6" class="node">
<title>dependency1607123</title>
<polygon fill="none" stroke="blue" points="420,-426 420,-524 525,-524 525,-426 420,-426"/>
<text text-anchor="start" x="450.82" y="-472" font-family="Helvetica,sans-Serif" font-size="10.00">pack_dep</text>
<polygon fill="none" stroke="blue" points="525,-502 525,-524 635,-524 635,-502 525,-502"/>
<text text-anchor="start" x="574.44" y="-510" font-family="Helvetica,sans-Serif" font-size="10.00">no</text>
<polygon fill="none" stroke="blue" points="525,-480 525,-502 635,-502 635,-480 525,-480"/>
<text text-anchor="start" x="560.83" y="-488" font-family="Helvetica,sans-Serif" font-size="10.00">dev&#45;lang</text>
<polygon fill="none" stroke="blue" points="525,-458 525,-480 635,-480 635,-458 525,-458"/>
<text text-anchor="start" x="567.5" y="-466" font-family="Helvetica,sans-Serif" font-size="10.00">mono</text>
<polygon fill="none" stroke="blue" points="525,-436 525,-458 635,-458 635,-436 525,-436"/>
<text text-anchor="start" x="568.88" y="-444" font-family="Helvetica,sans-Serif" font-size="10.00">none</text>
<polygon fill="none" stroke="blue" points="525,-426 525,-436 635,-436 635,-426 525,-426"/>
</g>
<!-- id&#45;&gt;dependency1607123 -->
<g id="edge5" class="edge">
<title>id:e&#45;&gt;dependency1607123:w</title>
<path fill="none" stroke="black" d="M305,-537C352.76,-537 356.31,-489.53 393.01,-477.66"/>
<ellipse fill="none" stroke="black" cx="407.04" cy="-475.59" rx="4" ry="4"/>
<polygon fill="black" stroke="black" points="403.09,-476.17 393.85,-482.09 398.14,-476.9 393.19,-477.64 393.19,-477.64 393.19,-477.64 398.14,-476.9 392.53,-473.19 403.09,-476.17 403.09,-476.17"/>
</g>
<!-- dependency1607124 -->
<g id="node7" class="node">
<title>dependency1607124</title>
<polygon fill="none" stroke="blue" points="420,-276 420,-374 525,-374 525,-276 420,-276"/>
<text text-anchor="start" x="450.82" y="-322" font-family="Helvetica,sans-Serif" font-size="10.00">pack_dep</text>
<polygon fill="none" stroke="blue" points="525,-352 525,-374 635,-374 635,-352 525,-352"/>
<text text-anchor="start" x="574.44" y="-360" font-family="Helvetica,sans-Serif" font-size="10.00">no</text>
<polygon fill="none" stroke="blue" points="525,-330 525,-352 635,-352 635,-330 525,-330"/>
<text text-anchor="start" x="562.78" y="-338" font-family="Helvetica,sans-Serif" font-size="10.00">x11&#45;libs</text>
<polygon fill="none" stroke="blue" points="525,-308 525,-330 635,-330 635,-308 525,-308"/>
<text text-anchor="start" x="569.17" y="-316" font-family="Helvetica,sans-Serif" font-size="10.00">cairo</text>
<polygon fill="none" stroke="blue" points="525,-286 525,-308 635,-308 635,-286 525,-286"/>
<text text-anchor="start" x="568.88" y="-294" font-family="Helvetica,sans-Serif" font-size="10.00">none</text>
<polygon fill="none" stroke="blue" points="525,-276 525,-286 635,-286 635,-276 525,-276"/>
</g>
<!-- id&#45;&gt;dependency1607124 -->
<g id="edge6" class="edge">
<title>id:e&#45;&gt;dependency1607124:w</title>
<path fill="none" stroke="black" d="M305,-537C407.46,-537 311.22,-336.44 402.82,-325.47"/>
<ellipse fill="none" stroke="black" cx="407.01" cy="-325.23" rx="4" ry="4"/>
</g>
<!-- dependency1607125 -->
<g id="node8" class="node">
<title>dependency1607125</title>
<polygon fill="none" stroke="blue" points="420,-152 420,-250 525,-250 525,-152 420,-152"/>
<text text-anchor="start" x="450.82" y="-198" font-family="Helvetica,sans-Serif" font-size="10.00">pack_dep</text>
<polygon fill="none" stroke="blue" points="525,-228 525,-250 635,-250 635,-228 525,-228"/>
<text text-anchor="start" x="574.44" y="-236" font-family="Helvetica,sans-Serif" font-size="10.00">no</text>
<polygon fill="none" stroke="blue" points="525,-206 525,-228 635,-228 635,-206 525,-206"/>
<text text-anchor="start" x="562.78" y="-214" font-family="Helvetica,sans-Serif" font-size="10.00">x11&#45;libs</text>
<polygon fill="none" stroke="blue" points="525,-184 525,-206 635,-206 635,-184 525,-184"/>
<text text-anchor="start" x="556.94" y="-192" font-family="Helvetica,sans-Serif" font-size="10.00">gdk&#45;pixbuf</text>
<polygon fill="none" stroke="blue" points="525,-162 525,-184 635,-184 635,-162 525,-162"/>
<text text-anchor="start" x="568.88" y="-170" font-family="Helvetica,sans-Serif" font-size="10.00">none</text>
<polygon fill="none" stroke="blue" points="525,-152 525,-162 635,-162 635,-152 525,-152"/>
</g>
<!-- id&#45;&gt;dependency1607125 -->
<g id="edge7" class="edge">
<title>id:e&#45;&gt;dependency1607125:w</title>
<path fill="none" stroke="black" d="M305,-537C458.68,-537 261.97,-213.35 402.65,-201.34"/>
<ellipse fill="none" stroke="black" cx="407" cy="-201.16" rx="4" ry="4"/>
</g>
<!-- dependency1607126 -->
<g id="node9" class="node">
<title>dependency1607126</title>
<polygon fill="none" stroke="blue" points="420,-28 420,-126 525,-126 525,-28 420,-28"/>
<text text-anchor="start" x="450.82" y="-74" font-family="Helvetica,sans-Serif" font-size="10.00">pack_dep</text>
<polygon fill="none" stroke="blue" points="525,-104 525,-126 635,-126 635,-104 525,-104"/>
<text text-anchor="start" x="574.44" y="-112" font-family="Helvetica,sans-Serif" font-size="10.00">no</text>
<polygon fill="none" stroke="blue" points="525,-82 525,-104 635,-104 635,-82 525,-82"/>
<text text-anchor="start" x="553.88" y="-90" font-family="Helvetica,sans-Serif" font-size="10.00">x11&#45;themes</text>
<polygon fill="none" stroke="blue" points="525,-60 525,-82 635,-82 635,-60 525,-60"/>
<text text-anchor="start" x="536.38" y="-68" font-family="Helvetica,sans-Serif" font-size="10.00">adwaita&#45;icon&#45;theme</text>
<polygon fill="none" stroke="blue" points="525,-38 525,-60 635,-60 635,-38 525,-38"/>
<text text-anchor="start" x="568.88" y="-46" font-family="Helvetica,sans-Serif" font-size="10.00">none</text>
<polygon fill="none" stroke="blue" points="525,-28 525,-38 635,-38 635,-28 525,-28"/>
</g>
<!-- id&#45;&gt;dependency1607126 -->
<g id="edge8" class="edge">
<title>id:e&#45;&gt;dependency1607126:w</title>
<path fill="none" stroke="black" d="M305,-537C512.04,-537 209.38,-89.05 402.97,-77.24"/>
<ellipse fill="none" stroke="black" cx="407" cy="-77.12" rx="4" ry="4"/>
</g>
<!-- choice1001011184511711610510847105110116108116111111108454846534946484511450 -->
<g id="node10" class="node">
<title>choice1001011184511711610510847105110116108116111111108454846534946484511450</title>
<g id="a_node10"><a xlink:href="../dev-util/intltool-0.51.0-r2.svg" xlink:title="dev&#45;util/intltool&#45;0.51.0&#45;r2">
<ellipse fill="none" stroke="red" cx="900" cy="-927" rx="144" ry="18"/>
<text text-anchor="middle" x="900" y="-924" font-family="Helvetica,sans-Serif" font-size="10.00">dev&#45;util/intltool&#45;0.51.0&#45;r2</text>
</a>
</g>
</g>
<!-- dependency1607119&#45;&gt;choice1001011184511711610510847105110116108116111111108454846534946484511450 -->
<g id="edge9" class="edge">
<title>dependency1607119:e&#45;&gt;choice1001011184511711610510847105110116108116111111108454846534946484511450:w</title>
<path fill="none" stroke="black" stroke-dasharray="1,5" d="M649,-997C701.82,-997 699.17,-935.73 744.84,-927.83"/>
<polygon fill="black" stroke="black" points="755,-927 745.4,-932.3 750.02,-927.41 745.03,-927.82 745.03,-927.82 745.03,-927.82 750.02,-927.41 744.67,-923.33 755,-927 755,-927"/>
</g>
<!-- choice1151211154510010111810110847103101116116101120116454846495746564649 -->
<g id="node11" class="node">
<title>choice1151211154510010111810110847103101116116101120116454846495746564649</title>
<g id="a_node11"><a xlink:href="../sys-devel/gettext-0.19.8.1.svg" xlink:title="sys&#45;devel/gettext&#45;0.19.8.1">
<ellipse fill="none" stroke="red" cx="900" cy="-873" rx="144" ry="18"/>
<text text-anchor="middle" x="900" y="-870" font-family="Helvetica,sans-Serif" font-size="10.00">sys&#45;devel/gettext&#45;0.19.8.1</text>
</a>
</g>
</g>
<!-- dependency1607120&#45;&gt;choice1151211154510010111810110847103101116116101120116454846495746564649 -->
<g id="edge10" class="edge">
<title>dependency1607120:e&#45;&gt;choice1151211154510010111810110847103101116116101120116454846495746564649:w</title>
<path fill="none" stroke="black" stroke-dasharray="1,5" d="M649,-873C692.43,-873 705.83,-873 744.57,-873"/>
<polygon fill="black" stroke="black" points="755,-873 745,-877.5 750,-873 745,-873 745,-873 745,-873 750,-873 745,-868.5 755,-873 755,-873"/>
</g>
<!-- choice11810511411611797108471121071039911111010210510345484511449 -->
<g id="node12" class="node">
<title>choice11810511411611797108471121071039911111010210510345484511449</title>
<g id="a_node12"><a xlink:href="../virtual/pkgconfig-0-r1.svg" xlink:title="virtual/pkgconfig&#45;0&#45;r1">
<ellipse fill="none" stroke="red" cx="900" cy="-801" rx="144" ry="18"/>
<text text-anchor="middle" x="900" y="-798" font-family="Helvetica,sans-Serif" font-size="10.00">virtual/pkgconfig&#45;0&#45;r1</text>
</a>
</g>
</g>
<!-- dependency1607121&#45;&gt;choice11810511411611797108471121071039911111010210510345484511449 -->
<g id="edge11" class="edge">
<title>dependency1607121:e&#45;&gt;choice11810511411611797108471121071039911111010210510345484511449:w</title>
<path fill="none" stroke="black" stroke-dasharray="1,5" d="M649,-749C697.89,-749 702.14,-794.13 744.93,-800.3"/>
<polygon fill="black" stroke="black" points="755,-801 744.71,-804.8 750.01,-800.66 745.02,-800.31 745.02,-800.31 745.02,-800.31 750.01,-800.66 745.33,-795.82 755,-801 755,-801"/>
</g>
<!-- choice1181051141161179710847112107103991111101021051034549 -->
<g id="node13" class="node">
<title>choice1181051141161179710847112107103991111101021051034549</title>
<g id="a_node13"><a xlink:href="../virtual/pkgconfig-1.svg" xlink:title="virtual/pkgconfig&#45;1">
<ellipse fill="none" stroke="red" cx="900" cy="-747" rx="144" ry="18"/>
<text text-anchor="middle" x="900" y="-744" font-family="Helvetica,sans-Serif" font-size="10.00">virtual/pkgconfig&#45;1</text>
</a>
</g>
</g>
<!-- dependency1607121&#45;&gt;choice1181051141161179710847112107103991111101021051034549 -->
<g id="edge12" class="edge">
<title>dependency1607121:e&#45;&gt;choice1181051141161179710847112107103991111101021051034549:w</title>
<path fill="none" stroke="black" stroke-dasharray="1,5" d="M649,-749C692.44,-749 705.83,-747.3 744.57,-747.03"/>
<polygon fill="black" stroke="black" points="755,-747 745.02,-751.53 750,-747.02 745,-747.03 745,-747.03 745,-747.03 750,-747.02 744.99,-742.53 755,-747 755,-747"/>
</g>
<!-- choice10010111845100111116110101116471091111101114597100100105110115454846544650 -->
<g id="node14" class="node">
<title>choice10010111845100111116110101116471091111101114597100100105110115454846544650</title>
<g id="a_node14"><a xlink:href="../dev-dotnet/mono-addins-0.6.2.svg" xlink:title="dev&#45;dotnet/mono&#45;addins&#45;0.6.2">
<ellipse fill="none" stroke="red" cx="900" cy="-691" rx="144" ry="18"/>
<text text-anchor="middle" x="900" y="-688" font-family="Helvetica,sans-Serif" font-size="10.00">dev&#45;dotnet/mono&#45;addins&#45;0.6.2</text>
</a>
</g>
</g>
<!-- dependency1607122&#45;&gt;choice10010111845100111116110101116471091111101114597100100105110115454846544650 -->
<g id="edge13" class="edge">
<title>dependency1607122:e&#45;&gt;choice10010111845100111116110101116471091111101114597100100105110115454846544650:w</title>
<path fill="none" stroke="black" stroke-dasharray="1,5" d="M649,-599C707.73,-599 694.54,-680.53 744.84,-690.09"/>
<polygon fill="black" stroke="black" points="755,-691 744.64,-694.59 750.02,-690.55 745.04,-690.11 745.04,-690.11 745.04,-690.11 750.02,-690.55 745.44,-685.63 755,-691 755,-691"/>
</g>
<!-- choice10010111845100111116110101116471091111101114597100100105110115454946484511449 -->
<g id="node15" class="node">
<title>choice10010111845100111116110101116471091111101114597100100105110115454946484511449</title>
<g id="a_node15"><a xlink:href="../dev-dotnet/mono-addins-1.0-r1.svg" xlink:title="dev&#45;dotnet/mono&#45;addins&#45;1.0&#45;r1">
<ellipse fill="none" stroke="red" cx="900" cy="-637" rx="144" ry="18"/>
<text text-anchor="middle" x="900" y="-634" font-family="Helvetica,sans-Serif" font-size="10.00">dev&#45;dotnet/mono&#45;addins&#45;1.0&#45;r1</text>
</a>
</g>
</g>
<!-- dependency1607122&#45;&gt;choice10010111845100111116110101116471091111101114597100100105110115454946484511449 -->
<g id="edge14" class="edge">
<title>dependency1607122:e&#45;&gt;choice10010111845100111116110101116471091111101114597100100105110115454946484511449:w</title>
<path fill="none" stroke="black" stroke-dasharray="1,5" d="M649,-599C695.43,-599 703.87,-631.71 744.81,-636.43"/>
<polygon fill="black" stroke="black" points="755,-637 744.77,-640.94 750.01,-636.72 745.02,-636.44 745.02,-636.44 745.02,-636.44 750.01,-636.72 745.27,-631.95 755,-637 755,-637"/>
</g>
<!-- choice1001011184510897110103471091111101114552465246494648 -->
<g id="node16" class="node">
<title>choice1001011184510897110103471091111101114552465246494648</title>
<g id="a_node16"><a xlink:href="../dev-lang/mono-4.4.1.0.svg" xlink:title="dev&#45;lang/mono&#45;4.4.1.0">
<ellipse fill="none" stroke="red" cx="900" cy="-583" rx="144" ry="18"/>
<text text-anchor="middle" x="900" y="-580" font-family="Helvetica,sans-Serif" font-size="10.00">dev&#45;lang/mono&#45;4.4.1.0</text>
</a>
</g>
</g>
<!-- dependency1607123&#45;&gt;choice1001011184510897110103471091111101114552465246494648 -->
<g id="edge15" class="edge">
<title>dependency1607123:e&#45;&gt;choice1001011184510897110103471091111101114552465246494648:w</title>
<path fill="none" stroke="black" stroke-dasharray="1,5" d="M649,-475C712.58,-475 690.58,-571.51 744.79,-582.07"/>
<polygon fill="black" stroke="black" points="755,-583 744.63,-586.57 750.02,-582.54 745.04,-582.09 745.04,-582.09 745.04,-582.09 750.02,-582.54 745.45,-577.61 755,-583 755,-583"/>
</g>
<!-- choice10010111845108971101034710911111011145524656464846535052 -->
<g id="node17" class="node">
<title>choice10010111845108971101034710911111011145524656464846535052</title>
<g id="a_node17"><a xlink:href="../dev-lang/mono-4.8.0.524.svg" xlink:title="dev&#45;lang/mono&#45;4.8.0.524">
<ellipse fill="none" stroke="red" cx="900" cy="-529" rx="144" ry="18"/>
<text text-anchor="middle" x="900" y="-526" font-family="Helvetica,sans-Serif" font-size="10.00">dev&#45;lang/mono&#45;4.8.0.524</text>
</a>
</g>
</g>
<!-- dependency1607123&#45;&gt;choice10010111845108971101034710911111011145524656464846535052 -->
<g id="edge16" class="edge">
<title>dependency1607123:e&#45;&gt;choice10010111845108971101034710911111011145524656464846535052:w</title>
<path fill="none" stroke="black" stroke-dasharray="1,5" d="M649,-475C698.26,-475 701.85,-521.87 744.86,-528.28"/>
<polygon fill="black" stroke="black" points="755,-529 744.71,-532.78 750.01,-528.64 745.03,-528.29 745.03,-528.29 745.03,-528.29 750.01,-528.64 745.35,-523.8 755,-529 755,-529"/>
</g>
<!-- choice1001011184510897110103471091111101114553464952464846495555 -->
<g id="node18" class="node">
<title>choice1001011184510897110103471091111101114553464952464846495555</title>
<g id="a_node18"><a xlink:href="../dev-lang/mono-5.14.0.177.svg" xlink:title="dev&#45;lang/mono&#45;5.14.0.177">
<ellipse fill="none" stroke="red" cx="900" cy="-475" rx="144" ry="18"/>
<text text-anchor="middle" x="900" y="-472" font-family="Helvetica,sans-Serif" font-size="10.00">dev&#45;lang/mono&#45;5.14.0.177</text>
</a>
</g>
</g>
<!-- dependency1607123&#45;&gt;choice1001011184510897110103471091111101114553464952464846495555 -->
<g id="edge17" class="edge">
<title>dependency1607123:e&#45;&gt;choice1001011184510897110103471091111101114553464952464846495555:w</title>
<path fill="none" stroke="black" stroke-dasharray="1,5" d="M649,-475C692.43,-475 705.83,-475 744.57,-475"/>
<polygon fill="black" stroke="black" points="755,-475 745,-479.5 750,-475 745,-475 745,-475 745,-475 750,-475 745,-470.5 755,-475 755,-475"/>
</g>
<!-- choice1001011184510897110103471091111101114553464954464846505048 -->
<g id="node19" class="node">
<title>choice1001011184510897110103471091111101114553464954464846505048</title>
<g id="a_node19"><a xlink:href="../dev-lang/mono-5.16.0.220.svg" xlink:title="dev&#45;lang/mono&#45;5.16.0.220">
<ellipse fill="none" stroke="red" cx="900" cy="-421" rx="144" ry="18"/>
<text text-anchor="middle" x="900" y="-418" font-family="Helvetica,sans-Serif" font-size="10.00">dev&#45;lang/mono&#45;5.16.0.220</text>
</a>
</g>
</g>
<!-- dependency1607123&#45;&gt;choice1001011184510897110103471091111101114553464954464846505048 -->
<g id="edge18" class="edge">
<title>dependency1607123:e&#45;&gt;choice1001011184510897110103471091111101114553464954464846505048:w</title>
<path fill="none" stroke="black" stroke-dasharray="1,5" d="M649,-475C698.26,-475 701.85,-428.13 744.86,-421.72"/>
<polygon fill="black" stroke="black" points="755,-421 745.35,-426.2 750.01,-421.36 745.03,-421.71 745.03,-421.71 745.03,-421.71 750.01,-421.36 744.71,-417.22 755,-421 755,-421"/>
</g>
<!-- choice1001011184510897110103471091111101114553464956464846505456 -->
<g id="node20" class="node">
<title>choice1001011184510897110103471091111101114553464956464846505456</title>
<g id="a_node20"><a xlink:href="../dev-lang/mono-5.18.0.268.svg" xlink:title="dev&#45;lang/mono&#45;5.18.0.268">
<ellipse fill="none" stroke="red" cx="900" cy="-367" rx="144" ry="18"/>
<text text-anchor="middle" x="900" y="-364" font-family="Helvetica,sans-Serif" font-size="10.00">dev&#45;lang/mono&#45;5.18.0.268</text>
</a>
</g>
</g>
<!-- dependency1607123&#45;&gt;choice1001011184510897110103471091111101114553464956464846505456 -->
<g id="edge19" class="edge">
<title>dependency1607123:e&#45;&gt;choice1001011184510897110103471091111101114553464956464846505456:w</title>
<path fill="none" stroke="black" stroke-dasharray="1,5" d="M649,-475C712.58,-475 690.58,-378.49 744.79,-367.93"/>
<polygon fill="black" stroke="black" points="755,-367 745.45,-372.39 750.02,-367.46 745.04,-367.91 745.04,-367.91 745.04,-367.91 750.02,-367.46 744.63,-363.43 755,-367 755,-367"/>
</g>
<!-- choice12049494510810598115479997105114111454946495446484511450 -->
<g id="node21" class="node">
<title>choice12049494510810598115479997105114111454946495446484511450</title>
<g id="a_node21"><a xlink:href="../x11-libs/cairo-1.16.0-r2.svg" xlink:title="x11&#45;libs/cairo&#45;1.16.0&#45;r2">
<ellipse fill="none" stroke="red" cx="900" cy="-313" rx="144" ry="18"/>
<text text-anchor="middle" x="900" y="-310" font-family="Helvetica,sans-Serif" font-size="10.00">x11&#45;libs/cairo&#45;1.16.0&#45;r2</text>
</a>
</g>
</g>
<!-- dependency1607124&#45;&gt;choice12049494510810598115479997105114111454946495446484511450 -->
<g id="edge20" class="edge">
<title>dependency1607124:e&#45;&gt;choice12049494510810598115479997105114111454946495446484511450:w</title>
<path fill="none" stroke="black" stroke-dasharray="1,5" d="M649,-325C692.71,-325 705.62,-314.8 744.52,-313.21"/>
<polygon fill="black" stroke="black" points="755,-313 745.09,-317.7 750,-313.1 745,-313.2 745,-313.2 745,-313.2 750,-313.1 744.91,-308.7 755,-313 755,-313"/>
</g>
<!-- choice120494945108105981154799971051141114557575757 -->
<g id="node22" class="node">
<title>choice120494945108105981154799971051141114557575757</title>
<g id="a_node22"><a xlink:href="../x11-libs/cairo-9999.svg" xlink:title="x11&#45;libs/cairo&#45;9999">
<ellipse fill="none" stroke="red" cx="900" cy="-259" rx="144" ry="18"/>
<text text-anchor="middle" x="900" y="-256" font-family="Helvetica,sans-Serif" font-size="10.00">x11&#45;libs/cairo&#45;9999</text>
</a>
</g>
</g>
<!-- dependency1607124&#45;&gt;choice120494945108105981154799971051141114557575757 -->
<g id="edge21" class="edge">
<title>dependency1607124:e&#45;&gt;choice120494945108105981154799971051141114557575757:w</title>
<path fill="none" stroke="black" stroke-dasharray="1,5" d="M649,-325C700.92,-325 699.9,-267.23 744.99,-259.79"/>
<polygon fill="black" stroke="black" points="755,-259 745.38,-264.27 750.02,-259.39 745.03,-259.78 745.03,-259.78 745.03,-259.78 750.02,-259.39 744.68,-255.3 755,-259 755,-259"/>
</g>
<!-- choice120494945108105981154710310010745112105120981171024550465154464950 -->
<g id="node23" class="node">
<title>choice120494945108105981154710310010745112105120981171024550465154464950</title>
<g id="a_node23"><a xlink:href="../x11-libs/gdk-pixbuf-2.36.12.svg" xlink:title="x11&#45;libs/gdk&#45;pixbuf&#45;2.36.12">
<ellipse fill="none" stroke="red" cx="900" cy="-201" rx="144" ry="18"/>
<text text-anchor="middle" x="900" y="-198" font-family="Helvetica,sans-Serif" font-size="10.00">x11&#45;libs/gdk&#45;pixbuf&#45;2.36.12</text>
</a>
</g>
</g>
<!-- dependency1607125&#45;&gt;choice120494945108105981154710310010745112105120981171024550465154464950 -->
<g id="edge22" class="edge">
<title>dependency1607125:e&#45;&gt;choice120494945108105981154710310010745112105120981171024550465154464950:w</title>
<path fill="none" stroke="black" stroke-dasharray="1,5" d="M649,-201C692.43,-201 705.83,-201 744.57,-201"/>
<polygon fill="black" stroke="black" points="755,-201 745,-205.5 750,-201 745,-201 745,-201 745,-201 750,-201 745,-196.5 755,-201 755,-201"/>
</g>
<!-- choice1204949451161041011091011154797100119971051169745105991111104511610410110910145514650524648 -->
<g id="node24" class="node">
<title>choice1204949451161041011091011154797100119971051169745105991111104511610410110910145514650524648</title>
<g id="a_node24"><a xlink:href="../x11-themes/adwaita-icon-theme-3.24.0.svg" xlink:title="x11&#45;themes/adwaita&#45;icon&#45;theme&#45;3.24.0">
<ellipse fill="none" stroke="red" cx="900" cy="-147" rx="144" ry="18"/>
<text text-anchor="middle" x="900" y="-144" font-family="Helvetica,sans-Serif" font-size="10.00">x11&#45;themes/adwaita&#45;icon&#45;theme&#45;3.24.0</text>
</a>
</g>
</g>
<!-- dependency1607126&#45;&gt;choice1204949451161041011091011154797100119971051169745105991111104511610410110910145514650524648 -->
<g id="edge23" class="edge">
<title>dependency1607126:e&#45;&gt;choice1204949451161041011091011154797100119971051169745105991111104511610410110910145514650524648:w</title>
<path fill="none" stroke="black" stroke-dasharray="1,5" d="M649,-77C701.82,-77 699.17,-138.27 744.84,-146.17"/>
<polygon fill="black" stroke="black" points="755,-147 744.67,-150.67 750.02,-146.59 745.03,-146.18 745.03,-146.18 745.03,-146.18 750.02,-146.59 745.4,-141.7 755,-147 755,-147"/>
</g>
<!-- choice1204949451161041011091011154797100119971051169745105991111104511610410110910145514650544649 -->
<g id="node25" class="node">
<title>choice1204949451161041011091011154797100119971051169745105991111104511610410110910145514650544649</title>
<g id="a_node25"><a xlink:href="../x11-themes/adwaita-icon-theme-3.26.1.svg" xlink:title="x11&#45;themes/adwaita&#45;icon&#45;theme&#45;3.26.1">
<ellipse fill="none" stroke="red" cx="900" cy="-93" rx="144" ry="18"/>
<text text-anchor="middle" x="900" y="-90" font-family="Helvetica,sans-Serif" font-size="10.00">x11&#45;themes/adwaita&#45;icon&#45;theme&#45;3.26.1</text>
</a>
</g>
</g>
<!-- dependency1607126&#45;&gt;choice1204949451161041011091011154797100119971051169745105991111104511610410110910145514650544649 -->
<g id="edge24" class="edge">
<title>dependency1607126:e&#45;&gt;choice1204949451161041011091011154797100119971051169745105991111104511610410110910145514650544649:w</title>
<path fill="none" stroke="black" stroke-dasharray="1,5" d="M649,-77C693.11,-77 705.56,-90.71 744.97,-92.75"/>
<polygon fill="black" stroke="black" points="755,-93 744.89,-97.25 750,-92.87 745,-92.75 745,-92.75 745,-92.75 750,-92.87 745.12,-88.25 755,-93 755,-93"/>
</g>
<!-- choice1204949451161041011091011154797100119971051169745105991111104511610410110910145514651484649 -->
<g id="node26" class="node">
<title>choice1204949451161041011091011154797100119971051169745105991111104511610410110910145514651484649</title>
<g id="a_node26"><a xlink:href="../x11-themes/adwaita-icon-theme-3.30.1.svg" xlink:title="x11&#45;themes/adwaita&#45;icon&#45;theme&#45;3.30.1">
<ellipse fill="none" stroke="red" cx="900" cy="-39" rx="144" ry="18"/>
<text text-anchor="middle" x="900" y="-36" font-family="Helvetica,sans-Serif" font-size="10.00">x11&#45;themes/adwaita&#45;icon&#45;theme&#45;3.30.1</text>
</a>
</g>
</g>
<!-- dependency1607126&#45;&gt;choice1204949451161041011091011154797100119971051169745105991111104511610410110910145514651484649 -->
<g id="edge25" class="edge">
<title>dependency1607126:e&#45;&gt;choice1204949451161041011091011154797100119971051169745105991111104511610410110910145514651484649:w</title>
<path fill="none" stroke="black" stroke-dasharray="1,5" d="M649,-77C695.43,-77 703.87,-44.29 744.81,-39.57"/>
<polygon fill="black" stroke="black" points="755,-39 745.27,-44.05 750.01,-39.28 745.02,-39.56 745.02,-39.56 745.02,-39.56 750.01,-39.28 744.77,-35.06 755,-39 755,-39"/>
</g>
</g>
</svg>
