<?xml version="1.0" encoding="UTF-8" standalone="no"?>
<!DOCTYPE svg PUBLIC "-//W3C//DTD SVG 1.1//EN"
 "http://www.w3.org/Graphics/SVG/1.1/DTD/svg11.dtd">
<!-- Generated by graphviz version 2.39.20160721.2101 (20160721.2101)
 -->
<!-- Title: prolog Pages: 1 -->
<svg width="1068pt" height="747pt"
 viewBox="0.00 0.00 1068.00 747.00" xmlns="http://www.w3.org/2000/svg" xmlns:xlink="http://www.w3.org/1999/xlink">
<g id="graph0" class="graph" transform="scale(1 1) rotate(0) translate(4 743)">
<title>prolog</title>
<polygon fill="white" stroke="transparent" points="-4,4 -4,-743 1064,-743 1064,4 -4,4"/>
<g id="clust1" class="cluster">
<title>cluster_leftcol</title>
<polygon fill="none" stroke="gray" points="8,-348 8,-420 312,-420 312,-348 8,-348"/>
<text text-anchor="start" x="146.663" y="-408" font-family="Helvetica,sans-Serif" font-style="italic" font-size="10.00">ebuild</text>
</g>
<g id="clust2" class="cluster">
<title>cluster_midcol</title>
<polygon fill="none" stroke="gray" points="396,-57 396,-731 664,-731 664,-57 396,-57"/>
<text text-anchor="start" x="498.875" y="-719" font-family="Helvetica,sans-Serif" font-style="italic" font-size="10.00">dependencies</text>
</g>
<g id="clust4" class="cluster">
<title>cluster_compileandrun</title>
<polygon fill="#eeeeee" stroke="gray" points="404,-65 404,-703 656,-703 656,-65 404,-65"/>
<text text-anchor="start" x="494.437" y="-691" font-family="Helvetica,sans-Serif" font-style="italic" font-size="10.00">compile and run</text>
</g>
<g id="clust11" class="cluster">
<title>cluster_choices</title>
<polygon fill="none" stroke="gray" points="748,-8 748,-620 1052,-620 1052,-8 748,-8"/>
<text text-anchor="start" x="875.824" y="-608" font-family="Helvetica,sans-Serif" font-style="italic" font-size="10.00">candidates</text>
</g>
<!-- id -->
<g id="node1" class="node">
<title>id</title>
<g id="a_node1"><a xlink:href="../games-board/mt_ncurses_client-0.1.98-r1.svg" xlink:title="games&#45;board/mt_ncurses_client&#45;0.1.98&#45;r1">
<ellipse fill="none" stroke="red" cx="160" cy="-374" rx="144" ry="18"/>
<text text-anchor="middle" x="160" y="-371" font-family="Helvetica,sans-Serif" font-size="10.00">games&#45;board/mt_ncurses_client&#45;0.1.98&#45;r1</text>
</a>
</g>
</g>
<!-- dependency295709 -->
<g id="node2" class="node">
<title>dependency295709</title>
<polygon fill="none" stroke="blue" points="420,-573 420,-671 525,-671 525,-573 420,-573"/>
<text text-anchor="start" x="450.823" y="-619" font-family="Helvetica,sans-Serif" font-size="10.00">pack_dep</text>
<polygon fill="none" stroke="blue" points="525,-649 525,-671 635,-671 635,-649 525,-649"/>
<text text-anchor="start" x="574.441" y="-657" font-family="Helvetica,sans-Serif" font-size="10.00">no</text>
<polygon fill="none" stroke="blue" points="525,-627 525,-649 635,-649 635,-627 525,-627"/>
<text text-anchor="start" x="555.274" y="-635" font-family="Helvetica,sans-Serif" font-size="10.00">dev&#45;games</text>
<polygon fill="none" stroke="blue" points="525,-605 525,-627 635,-627 635,-605 525,-605"/>
<text text-anchor="start" x="551.112" y="-613" font-family="Helvetica,sans-Serif" font-size="10.00">libmaitretarot</text>
<polygon fill="none" stroke="blue" points="525,-583 525,-605 635,-605 635,-583 525,-583"/>
<text text-anchor="start" x="568.882" y="-591" font-family="Helvetica,sans-Serif" font-size="10.00">none</text>
<polygon fill="none" stroke="blue" points="525,-573 525,-583 635,-583 635,-573 525,-573"/>
</g>
<!-- id&#45;&gt;dependency295709 -->
<g id="edge1" class="edge">
<title>id:e&#45;&gt;dependency295709:w</title>
<path fill="none" stroke="black" d="M304,-374C417.411,-374 305.972,-594.702 393.912,-619.703"/>
<ellipse fill="none" stroke="black" cx="408.032" cy="-621.496" rx="4" ry="4"/>
<polygon fill="black" stroke="black" points="404.064,-620.992 393.577,-624.197 399.104,-620.362 394.143,-619.733 394.143,-619.733 394.143,-619.733 399.104,-620.362 394.71,-615.268 404.064,-620.992 404.064,-620.992"/>
</g>
<!-- dependency295710 -->
<g id="node3" class="node">
<title>dependency295710</title>
<polygon fill="none" stroke="blue" points="420,-449 420,-547 525,-547 525,-449 420,-449"/>
<text text-anchor="start" x="450.823" y="-495" font-family="Helvetica,sans-Serif" font-size="10.00">pack_dep</text>
<polygon fill="none" stroke="blue" points="525,-525 525,-547 635,-547 635,-525 525,-525"/>
<text text-anchor="start" x="574.441" y="-533" font-family="Helvetica,sans-Serif" font-size="10.00">no</text>
<polygon fill="none" stroke="blue" points="525,-503 525,-525 635,-525 635,-503 525,-503"/>
<text text-anchor="start" x="555.274" y="-511" font-family="Helvetica,sans-Serif" font-size="10.00">dev&#45;games</text>
<polygon fill="none" stroke="blue" points="525,-481 525,-503 635,-503 635,-481 525,-481"/>
<text text-anchor="start" x="555" y="-489" font-family="Helvetica,sans-Serif" font-size="10.00">libmt_client</text>
<polygon fill="none" stroke="blue" points="525,-459 525,-481 635,-481 635,-459 525,-459"/>
<text text-anchor="start" x="568.882" y="-467" font-family="Helvetica,sans-Serif" font-size="10.00">none</text>
<polygon fill="none" stroke="blue" points="525,-449 525,-459 635,-459 635,-449 525,-449"/>
</g>
<!-- id&#45;&gt;dependency295710 -->
<g id="edge2" class="edge">
<title>id:e&#45;&gt;dependency295710:w</title>
<path fill="none" stroke="black" d="M304,-374C370.232,-374 345.095,-475.84 394.195,-494.935"/>
<ellipse fill="none" stroke="black" cx="408.058" cy="-497.321" rx="4" ry="4"/>
<polygon fill="black" stroke="black" points="404.116,-496.643 393.497,-499.381 399.188,-495.794 394.261,-494.946 394.261,-494.946 394.261,-494.946 399.188,-495.794 395.024,-490.511 404.116,-496.643 404.116,-496.643"/>
</g>
<!-- dependency295711 -->
<g id="node4" class="node">
<title>dependency295711</title>
<polygon fill="none" stroke="blue" points="420,-325 420,-423 525,-423 525,-325 420,-325"/>
<text text-anchor="start" x="450.823" y="-371" font-family="Helvetica,sans-Serif" font-size="10.00">pack_dep</text>
<polygon fill="none" stroke="blue" points="525,-401 525,-423 635,-423 635,-401 525,-401"/>
<text text-anchor="start" x="574.441" y="-409" font-family="Helvetica,sans-Serif" font-size="10.00">no</text>
<polygon fill="none" stroke="blue" points="525,-379 525,-401 635,-401 635,-379 525,-379"/>
<text text-anchor="start" x="562.778" y="-387" font-family="Helvetica,sans-Serif" font-size="10.00">dev&#45;libs</text>
<polygon fill="none" stroke="blue" points="525,-357 525,-379 635,-379 635,-357 525,-357"/>
<text text-anchor="start" x="572.222" y="-365" font-family="Helvetica,sans-Serif" font-size="10.00">glib</text>
<polygon fill="none" stroke="blue" points="525,-335 525,-357 635,-357 635,-335 525,-335"/>
<text text-anchor="start" x="568.882" y="-343" font-family="Helvetica,sans-Serif" font-size="10.00">none</text>
<polygon fill="none" stroke="blue" points="525,-325 525,-335 635,-335 635,-325 525,-325"/>
</g>
<!-- id&#45;&gt;dependency295711 -->
<g id="edge3" class="edge">
<title>id:e&#45;&gt;dependency295711:w</title>
<path fill="none" stroke="black" d="M304,-374C345.25,-374 359.913,-374 393.686,-374"/>
<ellipse fill="none" stroke="black" cx="408" cy="-374" rx="4" ry="4"/>
<polygon fill="black" stroke="black" points="404,-374 394,-378.5 399,-374 394,-374 394,-374 394,-374 399,-374 394,-369.5 404,-374 404,-374"/>
</g>
<!-- dependency295712 -->
<g id="node5" class="node">
<title>dependency295712</title>
<polygon fill="none" stroke="blue" points="420,-201 420,-299 525,-299 525,-201 420,-201"/>
<text text-anchor="start" x="450.823" y="-247" font-family="Helvetica,sans-Serif" font-size="10.00">pack_dep</text>
<polygon fill="none" stroke="blue" points="525,-277 525,-299 635,-299 635,-277 525,-277"/>
<text text-anchor="start" x="574.441" y="-285" font-family="Helvetica,sans-Serif" font-size="10.00">no</text>
<polygon fill="none" stroke="blue" points="525,-255 525,-277 635,-277 635,-255 525,-255"/>
<text text-anchor="start" x="562.778" y="-263" font-family="Helvetica,sans-Serif" font-size="10.00">dev&#45;libs</text>
<polygon fill="none" stroke="blue" points="525,-233 525,-255 635,-255 635,-233 525,-233"/>
<text text-anchor="start" x="564.448" y="-241" font-family="Helvetica,sans-Serif" font-size="10.00">libxml2</text>
<polygon fill="none" stroke="blue" points="525,-211 525,-233 635,-233 635,-211 525,-211"/>
<text text-anchor="start" x="568.882" y="-219" font-family="Helvetica,sans-Serif" font-size="10.00">none</text>
<polygon fill="none" stroke="blue" points="525,-201 525,-211 635,-211 635,-201 525,-201"/>
</g>
<!-- id&#45;&gt;dependency295712 -->
<g id="edge4" class="edge">
<title>id:e&#45;&gt;dependency295712:w</title>
<path fill="none" stroke="black" d="M304,-374C370.232,-374 345.095,-272.16 394.195,-253.065"/>
<ellipse fill="none" stroke="black" cx="408.058" cy="-250.679" rx="4" ry="4"/>
<polygon fill="black" stroke="black" points="404.116,-251.357 395.024,-257.489 399.188,-252.206 394.261,-253.054 394.261,-253.054 394.261,-253.054 399.188,-252.206 393.497,-248.619 404.116,-251.357 404.116,-251.357"/>
</g>
<!-- dependency295713 -->
<g id="node6" class="node">
<title>dependency295713</title>
<polygon fill="none" stroke="blue" points="420,-77 420,-175 525,-175 525,-77 420,-77"/>
<text text-anchor="start" x="450.823" y="-123" font-family="Helvetica,sans-Serif" font-size="10.00">pack_dep</text>
<polygon fill="none" stroke="blue" points="525,-153 525,-175 635,-175 635,-153 525,-153"/>
<text text-anchor="start" x="574.441" y="-161" font-family="Helvetica,sans-Serif" font-size="10.00">no</text>
<polygon fill="none" stroke="blue" points="525,-131 525,-153 635,-153 635,-131 525,-131"/>
<text text-anchor="start" x="563.337" y="-139" font-family="Helvetica,sans-Serif" font-size="10.00">sys&#45;libs</text>
<polygon fill="none" stroke="blue" points="525,-109 525,-131 635,-131 635,-109 525,-109"/>
<text text-anchor="start" x="562.497" y="-117" font-family="Helvetica,sans-Serif" font-size="10.00">ncurses</text>
<polygon fill="none" stroke="blue" points="525,-87 525,-109 635,-109 635,-87 525,-87"/>
<text text-anchor="start" x="568.882" y="-95" font-family="Helvetica,sans-Serif" font-size="10.00">none</text>
<polygon fill="none" stroke="blue" points="525,-77 525,-87 635,-87 635,-77 525,-77"/>
</g>
<!-- id&#45;&gt;dependency295713 -->
<g id="edge5" class="edge">
<title>id:e&#45;&gt;dependency295713:w</title>
<path fill="none" stroke="black" d="M304,-374C417.411,-374 305.972,-153.298 393.912,-128.297"/>
<ellipse fill="none" stroke="black" cx="408.032" cy="-126.504" rx="4" ry="4"/>
<polygon fill="black" stroke="black" points="404.064,-127.008 394.71,-132.732 399.104,-127.638 394.143,-128.267 394.143,-128.267 394.143,-128.267 399.104,-127.638 393.577,-123.803 404.064,-127.008 404.064,-127.008"/>
</g>
<!-- choice10010111845103971091011154710810598109971051161141011169711411111645484649465756 -->
<g id="node7" class="node">
<title>choice10010111845103971091011154710810598109971051161141011169711411111645484649465756</title>
<g id="a_node7"><a xlink:href="../dev-games/libmaitretarot-0.1.98.svg" xlink:title="dev&#45;games/libmaitretarot&#45;0.1.98">
<ellipse fill="none" stroke="red" cx="900" cy="-574" rx="144" ry="18"/>
<text text-anchor="middle" x="900" y="-571" font-family="Helvetica,sans-Serif" font-size="10.00">dev&#45;games/libmaitretarot&#45;0.1.98</text>
</a>
</g>
</g>
<!-- dependency295709&#45;&gt;choice10010111845103971091011154710810598109971051161141011169711411111645484649465756 -->
<g id="edge6" class="edge">
<title>dependency295709:e&#45;&gt;choice10010111845103971091011154710810598109971051161141011169711411111645484649465756:w</title>
<path fill="none" stroke="black" stroke-dasharray="1,5" d="M648,-622C696.937,-622 702.838,-580.338 745.891,-574.642"/>
<polygon fill="black" stroke="black" points="756,-574 746.305,-579.125 751.01,-574.317 746.02,-574.634 746.02,-574.634 746.02,-574.634 751.01,-574.317 745.735,-570.143 756,-574 756,-574"/>
</g>
<!-- choice10010111845103971091011154710810598109116959910810510111011645484649465756 -->
<g id="node8" class="node">
<title>choice10010111845103971091011154710810598109116959910810510111011645484649465756</title>
<g id="a_node8"><a xlink:href="../dev-games/libmt_client-0.1.98.svg" xlink:title="dev&#45;games/libmt_client&#45;0.1.98">
<ellipse fill="none" stroke="red" cx="900" cy="-520" rx="144" ry="18"/>
<text text-anchor="middle" x="900" y="-517" font-family="Helvetica,sans-Serif" font-size="10.00">dev&#45;games/libmt_client&#45;0.1.98</text>
</a>
</g>
</g>
<!-- dependency295710&#45;&gt;choice10010111845103971091011154710810598109116959910810510111011645484649465756 -->
<g id="edge7" class="edge">
<title>dependency295710:e&#45;&gt;choice10010111845103971091011154710810598109116959910810510111011645484649465756:w</title>
<path fill="none" stroke="black" stroke-dasharray="1,5" d="M648,-498C693.446,-498 705.361,-516.935 745.961,-519.672"/>
<polygon fill="black" stroke="black" points="756,-520 745.858,-524.171 751.003,-519.837 746.005,-519.673 746.005,-519.673 746.005,-519.673 751.003,-519.837 746.152,-515.176 756,-520 756,-520"/>
</g>
<!-- choice10010111845108105981154710310810598455046534846514511449 -->
<g id="node9" class="node">
<title>choice10010111845108105981154710310810598455046534846514511449</title>
<g id="a_node9"><a xlink:href="../dev-libs/glib-2.50.3-r1.svg" xlink:title="dev&#45;libs/glib&#45;2.50.3&#45;r1">
<ellipse fill="none" stroke="red" cx="900" cy="-466" rx="144" ry="18"/>
<text text-anchor="middle" x="900" y="-463" font-family="Helvetica,sans-Serif" font-size="10.00">dev&#45;libs/glib&#45;2.50.3&#45;r1</text>
</a>
</g>
</g>
<!-- dependency295711&#45;&gt;choice10010111845108105981154710310810598455046534846514511449 -->
<g id="edge8" class="edge">
<title>dependency295711:e&#45;&gt;choice10010111845108105981154710310810598455046534846514511449:w</title>
<path fill="none" stroke="black" stroke-dasharray="1,5" d="M648,-374C707.36,-374 694.789,-455.535 745.719,-465.089"/>
<polygon fill="black" stroke="black" points="756,-466 745.642,-469.6 751.019,-465.559 746.039,-465.118 746.039,-465.118 746.039,-465.118 751.019,-465.559 746.436,-460.635 756,-466 756,-466"/>
</g>
<!-- choice1001011184510810598115471031081059845504653504651 -->
<g id="node10" class="node">
<title>choice1001011184510810598115471031081059845504653504651</title>
<g id="a_node10"><a xlink:href="../dev-libs/glib-2.52.3.svg" xlink:title="dev&#45;libs/glib&#45;2.52.3">
<ellipse fill="none" stroke="red" cx="900" cy="-412" rx="144" ry="18"/>
<text text-anchor="middle" x="900" y="-409" font-family="Helvetica,sans-Serif" font-size="10.00">dev&#45;libs/glib&#45;2.52.3</text>
</a>
</g>
</g>
<!-- dependency295711&#45;&gt;choice1001011184510810598115471031081059845504653504651 -->
<g id="edge9" class="edge">
<title>dependency295711:e&#45;&gt;choice1001011184510810598115471031081059845504653504651:w</title>
<path fill="none" stroke="black" stroke-dasharray="1,5" d="M648,-374C695.307,-374 704.018,-406.844 745.898,-411.463"/>
<polygon fill="black" stroke="black" points="756,-412 745.775,-415.963 751.007,-411.734 746.014,-411.469 746.014,-411.469 746.014,-411.469 751.007,-411.734 746.253,-406.975 756,-412 756,-412"/>
</g>
<!-- choice10010111845108105981154710810598120109108504550465746524511449 -->
<g id="node11" class="node">
<title>choice10010111845108105981154710810598120109108504550465746524511449</title>
<g id="a_node11"><a xlink:href="../dev-libs/libxml2-2.9.4-r1.svg" xlink:title="dev&#45;libs/libxml2&#45;2.9.4&#45;r1">
<ellipse fill="none" stroke="red" cx="900" cy="-358" rx="144" ry="18"/>
<text text-anchor="middle" x="900" y="-355" font-family="Helvetica,sans-Serif" font-size="10.00">dev&#45;libs/libxml2&#45;2.9.4&#45;r1</text>
</a>
</g>
</g>
<!-- dependency295712&#45;&gt;choice10010111845108105981154710810598120109108504550465746524511449 -->
<g id="edge10" class="edge">
<title>dependency295712:e&#45;&gt;choice10010111845108105981154710810598120109108504550465746524511449:w</title>
<path fill="none" stroke="black" stroke-dasharray="1,5" d="M648,-250C712.303,-250 690.78,-346.91 746.031,-357.131"/>
<polygon fill="black" stroke="black" points="756,-358 745.647,-361.614 751.019,-357.566 746.038,-357.131 746.038,-357.131 746.038,-357.131 751.019,-357.566 746.429,-352.648 756,-358 756,-358"/>
</g>
<!-- choice10010111845108105981154710810598120109108504550465746524511450 -->
<g id="node12" class="node">
<title>choice10010111845108105981154710810598120109108504550465746524511450</title>
<g id="a_node12"><a xlink:href="../dev-libs/libxml2-2.9.4-r2.svg" xlink:title="dev&#45;libs/libxml2&#45;2.9.4&#45;r2">
<ellipse fill="none" stroke="red" cx="900" cy="-304" rx="144" ry="18"/>
<text text-anchor="middle" x="900" y="-301" font-family="Helvetica,sans-Serif" font-size="10.00">dev&#45;libs/libxml2&#45;2.9.4&#45;r2</text>
</a>
</g>
</g>
<!-- dependency295712&#45;&gt;choice10010111845108105981154710810598120109108504550465746524511450 -->
<g id="edge11" class="edge">
<title>dependency295712:e&#45;&gt;choice10010111845108105981154710810598120109108504550465746524511450:w</title>
<path fill="none" stroke="black" stroke-dasharray="1,5" d="M648,-250C698.102,-250 702.012,-297.066 745.979,-303.317"/>
<polygon fill="black" stroke="black" points="756,-304 745.717,-307.81 751.012,-303.66 746.023,-303.32 746.023,-303.32 746.023,-303.32 751.012,-303.66 746.329,-298.831 756,-304 756,-304"/>
</g>
<!-- choice10010111845108105981154710810598120109108504550465746524511451 -->
<g id="node13" class="node">
<title>choice10010111845108105981154710810598120109108504550465746524511451</title>
<g id="a_node13"><a xlink:href="../dev-libs/libxml2-2.9.4-r3.svg" xlink:title="dev&#45;libs/libxml2&#45;2.9.4&#45;r3">
<ellipse fill="none" stroke="red" cx="900" cy="-250" rx="144" ry="18"/>
<text text-anchor="middle" x="900" y="-247" font-family="Helvetica,sans-Serif" font-size="10.00">dev&#45;libs/libxml2&#45;2.9.4&#45;r3</text>
</a>
</g>
</g>
<!-- dependency295712&#45;&gt;choice10010111845108105981154710810598120109108504550465746524511451 -->
<g id="edge12" class="edge">
<title>dependency295712:e&#45;&gt;choice10010111845108105981154710810598120109108504550465746524511451:w</title>
<path fill="none" stroke="black" stroke-dasharray="1,5" d="M648,-250C692.438,-250 706.02,-250 745.878,-250"/>
<polygon fill="black" stroke="black" points="756,-250 746,-254.5 751,-250 746,-250 746,-250 746,-250 751,-250 746,-245.5 756,-250 756,-250"/>
</g>
<!-- choice1001011184510810598115471081059812010910850455046574653 -->
<g id="node14" class="node">
<title>choice1001011184510810598115471081059812010910850455046574653</title>
<g id="a_node14"><a xlink:href="../dev-libs/libxml2-2.9.5.svg" xlink:title="dev&#45;libs/libxml2&#45;2.9.5">
<ellipse fill="none" stroke="red" cx="900" cy="-196" rx="144" ry="18"/>
<text text-anchor="middle" x="900" y="-193" font-family="Helvetica,sans-Serif" font-size="10.00">dev&#45;libs/libxml2&#45;2.9.5</text>
</a>
</g>
</g>
<!-- dependency295712&#45;&gt;choice1001011184510810598115471081059812010910850455046574653 -->
<g id="edge13" class="edge">
<title>dependency295712:e&#45;&gt;choice1001011184510810598115471081059812010910850455046574653:w</title>
<path fill="none" stroke="black" stroke-dasharray="1,5" d="M648,-250C698.102,-250 702.012,-202.934 745.979,-196.683"/>
<polygon fill="black" stroke="black" points="756,-196 746.329,-201.169 751.012,-196.34 746.023,-196.68 746.023,-196.68 746.023,-196.68 751.012,-196.34 745.717,-192.19 756,-196 756,-196"/>
</g>
<!-- choice1001011184510810598115471081059812010910850455046574654 -->
<g id="node15" class="node">
<title>choice1001011184510810598115471081059812010910850455046574654</title>
<g id="a_node15"><a xlink:href="../dev-libs/libxml2-2.9.6.svg" xlink:title="dev&#45;libs/libxml2&#45;2.9.6">
<ellipse fill="none" stroke="red" cx="900" cy="-142" rx="144" ry="18"/>
<text text-anchor="middle" x="900" y="-139" font-family="Helvetica,sans-Serif" font-size="10.00">dev&#45;libs/libxml2&#45;2.9.6</text>
</a>
</g>
</g>
<!-- dependency295712&#45;&gt;choice1001011184510810598115471081059812010910850455046574654 -->
<g id="edge14" class="edge">
<title>dependency295712:e&#45;&gt;choice1001011184510810598115471081059812010910850455046574654:w</title>
<path fill="none" stroke="black" stroke-dasharray="1,5" d="M648,-250C712.303,-250 690.78,-153.09 746.031,-142.869"/>
<polygon fill="black" stroke="black" points="756,-142 746.429,-147.352 751.019,-142.434 746.038,-142.869 746.038,-142.869 746.038,-142.869 751.019,-142.434 745.647,-138.386 756,-142 756,-142"/>
</g>
<!-- choice115121115451081059811547110991171141151011154553465745114494849 -->
<g id="node16" class="node">
<title>choice115121115451081059811547110991171141151011154553465745114494849</title>
<g id="a_node16"><a xlink:href="../sys-libs/ncurses-5.9-r101.svg" xlink:title="sys&#45;libs/ncurses&#45;5.9&#45;r101">
<ellipse fill="none" stroke="red" cx="900" cy="-88" rx="144" ry="18"/>
<text text-anchor="middle" x="900" y="-85" font-family="Helvetica,sans-Serif" font-size="10.00">sys&#45;libs/ncurses&#45;5.9&#45;r101</text>
</a>
</g>
</g>
<!-- dependency295713&#45;&gt;choice115121115451081059811547110991171141151011154553465745114494849 -->
<g id="edge15" class="edge">
<title>dependency295713:e&#45;&gt;choice115121115451081059811547110991171141151011154553465745114494849:w</title>
<path fill="none" stroke="black" stroke-dasharray="1,5" d="M648,-126C695.307,-126 704.018,-93.1559 745.898,-88.5372"/>
<polygon fill="black" stroke="black" points="756,-88 746.253,-93.0247 751.007,-88.2655 746.014,-88.5311 746.014,-88.5311 746.014,-88.5311 751.007,-88.2655 745.775,-84.0374 756,-88 756,-88"/>
</g>
<!-- choice11512111545108105981154711099117114115101115455446484511449 -->
<g id="node17" class="node">
<title>choice11512111545108105981154711099117114115101115455446484511449</title>
<g id="a_node17"><a xlink:href="../sys-libs/ncurses-6.0-r1.svg" xlink:title="sys&#45;libs/ncurses&#45;6.0&#45;r1">
<ellipse fill="none" stroke="red" cx="900" cy="-34" rx="144" ry="18"/>
<text text-anchor="middle" x="900" y="-31" font-family="Helvetica,sans-Serif" font-size="10.00">sys&#45;libs/ncurses&#45;6.0&#45;r1</text>
</a>
</g>
</g>
<!-- dependency295713&#45;&gt;choice11512111545108105981154711099117114115101115455446484511449 -->
<g id="edge16" class="edge">
<title>dependency295713:e&#45;&gt;choice11512111545108105981154711099117114115101115455446484511449:w</title>
<path fill="none" stroke="black" stroke-dasharray="1,5" d="M648,-126C707.36,-126 694.789,-44.4654 745.719,-34.9106"/>
<polygon fill="black" stroke="black" points="756,-34 746.436,-39.3648 751.019,-34.4412 746.039,-34.8823 746.039,-34.8823 746.039,-34.8823 751.019,-34.4412 745.642,-30.3999 756,-34 756,-34"/>
</g>
</g>
</svg>
