<?xml version="1.0" encoding="UTF-8" standalone="no"?>
<!DOCTYPE svg PUBLIC "-//W3C//DTD SVG 1.1//EN"
 "http://www.w3.org/Graphics/SVG/1.1/DTD/svg11.dtd">
<!-- Generated by graphviz version 9.0.0 (20230911.1827)
 -->
<!-- Title: prolog Pages: 1 -->
<svg width="1076pt" height="988pt"
 viewBox="0.00 0.00 1076.00 988.00" xmlns="http://www.w3.org/2000/svg" xmlns:xlink="http://www.w3.org/1999/xlink">
<g id="graph0" class="graph" transform="scale(1 1) rotate(0) translate(4 984)">
<title>prolog</title>
<polygon fill="white" stroke="none" points="-4,4 -4,-984 1072,-984 1072,4 -4,4"/>
<g id="clust2" class="cluster">
<title>cluster_midcol</title>
<polygon fill="none" stroke="gray" points="8,-8 8,-972 672,-972 672,-8 8,-8"/>
<text text-anchor="start" x="310" y="-959.5" font-family="Helvetica,sans-Serif" font-style="italic" font-size="10.00">dependencies</text>
</g>
<g id="clust3" class="cluster">
<title>cluster_compile</title>
<polygon fill="#eeeeee" stroke="gray" points="16,-16 16,-296 664,-296 664,-16 16,-16"/>
<text text-anchor="start" x="323.12" y="-283.5" font-family="Helvetica,sans-Serif" font-style="italic" font-size="10.00">compile</text>
</g>
<g id="clust7" class="cluster">
<title>cluster_run</title>
<polygon fill="#eeeeee" stroke="gray" points="412,-304 412,-945 664,-945 664,-304 412,-304"/>
<text text-anchor="start" x="531.25" y="-932.5" font-family="Helvetica,sans-Serif" font-style="italic" font-size="10.00">run</text>
</g>
<g id="clust13" class="cluster">
<title>cluster_choices</title>
<polygon fill="none" stroke="gray" points="756,-55 756,-930 1060,-930 1060,-55 756,-55"/>
<text text-anchor="start" x="884.38" y="-917.5" font-family="Helvetica,sans-Serif" font-style="italic" font-size="10.00">candidates</text>
</g>
<!-- id -->
<g id="node1" class="node">
<title>id</title>
<g id="a_node1"><a xlink:href="../sci-astronomy/gasgano-2.4.8.svg" xlink:title="portage://sci&#45;astronomy/gasgano&#45;2.4.8">
<ellipse fill="none" stroke="red" cx="168" cy="-251" rx="144" ry="18"/>
<text text-anchor="middle" x="168" y="-247.12" font-family="Helvetica,sans-Serif" font-size="10.00">portage://sci&#45;astronomy/gasgano&#45;2.4.8</text>
</a>
</g>
</g>
<!-- dependency83355 -->
<g id="node2" class="node">
<title>dependency83355</title>
<polygon fill="none" stroke="blue" points="428,-159.5 428,-264.5 532,-264.5 532,-159.5 428,-159.5"/>
<text text-anchor="start" x="459" y="-208.12" font-family="Helvetica,sans-Serif" font-size="10.00">pack_dep</text>
<polygon fill="none" stroke="blue" points="532,-243.5 532,-264.5 642,-264.5 642,-243.5 532,-243.5"/>
<text text-anchor="start" x="581.75" y="-250" font-family="Helvetica,sans-Serif" font-size="10.00">no</text>
<polygon fill="none" stroke="blue" points="532,-222.5 532,-243.5 642,-243.5 642,-222.5 532,-222.5"/>
<text text-anchor="start" x="568.62" y="-229" font-family="Helvetica,sans-Serif" font-size="10.00">dev&#45;java</text>
<polygon fill="none" stroke="blue" points="532,-201.5 532,-222.5 642,-222.5 642,-201.5 532,-201.5"/>
<text text-anchor="start" x="563.38" y="-208" font-family="Helvetica,sans-Serif" font-size="10.00">java&#45;config</text>
<polygon fill="none" stroke="blue" points="532,-180.5 532,-201.5 642,-201.5 642,-180.5 532,-180.5"/>
<text text-anchor="start" x="560.38" y="-187" font-family="Helvetica,sans-Serif" font-size="10.00">greaterequal</text>
<polygon fill="none" stroke="blue" points="532,-159.5 532,-180.5 642,-180.5 642,-159.5 532,-159.5"/>
<text text-anchor="start" x="570.5" y="-166" font-family="Helvetica,sans-Serif" font-size="10.00">2.2.0&#45;r3</text>
</g>
<!-- id&#45;&gt;dependency83355 -->
<g id="edge1" class="edge">
<title>id:e&#45;&gt;dependency83355:w</title>
<path fill="none" stroke="black" d="M312,-251C358.66,-251 367.21,-217.86 407.92,-212.68"/>
<polygon fill="black" stroke="black" points="417.78,-212.07 408.08,-217.18 414.01,-212.3 407.8,-212.68 407.8,-212.68 407.8,-212.68 414.01,-212.3 407.53,-208.19 417.78,-212.07"/>
</g>
<!-- dependency83356 -->
<g id="node3" class="node">
<title>dependency83356</title>
<polygon fill="none" stroke="blue" points="428,-28.5 428,-133.5 532,-133.5 532,-28.5 428,-28.5"/>
<text text-anchor="start" x="459" y="-77.12" font-family="Helvetica,sans-Serif" font-size="10.00">pack_dep</text>
<polygon fill="none" stroke="blue" points="532,-112.5 532,-133.5 642,-133.5 642,-112.5 532,-112.5"/>
<text text-anchor="start" x="581.75" y="-119" font-family="Helvetica,sans-Serif" font-size="10.00">no</text>
<polygon fill="none" stroke="blue" points="532,-91.5 532,-112.5 642,-112.5 642,-91.5 532,-91.5"/>
<text text-anchor="start" x="573.88" y="-98" font-family="Helvetica,sans-Serif" font-size="10.00">virtual</text>
<polygon fill="none" stroke="blue" points="532,-70.5 532,-91.5 642,-91.5 642,-70.5 532,-70.5"/>
<text text-anchor="start" x="580.62" y="-77" font-family="Helvetica,sans-Serif" font-size="10.00">jdk</text>
<polygon fill="none" stroke="blue" points="532,-49.5 532,-70.5 642,-70.5 642,-49.5 532,-49.5"/>
<text text-anchor="start" x="560.38" y="-56" font-family="Helvetica,sans-Serif" font-size="10.00">greaterequal</text>
<polygon fill="none" stroke="blue" points="532,-28.5 532,-49.5 642,-49.5 642,-28.5 532,-28.5"/>
<text text-anchor="start" x="580.25" y="-35" font-family="Helvetica,sans-Serif" font-size="10.00">1.7</text>
</g>
<!-- id&#45;&gt;dependency83356 -->
<g id="edge2" class="edge">
<title>id:e&#45;&gt;dependency83356:w</title>
<path fill="none" stroke="black" d="M312,-251C397.27,-251 335.83,-95.93 407.91,-82"/>
<polygon fill="black" stroke="black" points="417.79,-81.11 408.23,-86.49 414.02,-81.45 407.83,-82.01 407.83,-82.01 407.83,-82.01 414.02,-81.45 407.42,-77.52 417.79,-81.11"/>
</g>
<!-- dependency83357 -->
<g id="node4" class="node">
<title>dependency83357</title>
<polygon fill="none" stroke="blue" points="428,-568 428,-662 532,-662 532,-568 428,-568"/>
<text text-anchor="start" x="459" y="-611.12" font-family="Helvetica,sans-Serif" font-size="10.00">pack_dep</text>
<polygon fill="none" stroke="blue" points="532,-641 532,-662 642,-662 642,-641 532,-641"/>
<text text-anchor="start" x="581.75" y="-647.5" font-family="Helvetica,sans-Serif" font-size="10.00">no</text>
<polygon fill="none" stroke="blue" points="532,-620 532,-641 642,-641 642,-620 532,-620"/>
<text text-anchor="start" x="568.62" y="-626.5" font-family="Helvetica,sans-Serif" font-size="10.00">dev&#45;java</text>
<polygon fill="none" stroke="blue" points="532,-599 532,-620 642,-620 642,-599 532,-599"/>
<text text-anchor="start" x="563" y="-605.5" font-family="Helvetica,sans-Serif" font-size="10.00">gnu&#45;regexp</text>
<polygon fill="none" stroke="blue" points="532,-578 532,-599 642,-599 642,-578 532,-578"/>
<text text-anchor="start" x="576.5" y="-584.5" font-family="Helvetica,sans-Serif" font-size="10.00">none</text>
<polygon fill="none" stroke="blue" points="532,-568 532,-578 642,-578 642,-568 532,-568"/>
</g>
<!-- id&#45;&gt;dependency83357 -->
<g id="edge3" class="edge">
<title>id:e&#45;&gt;dependency83357:w</title>
<path fill="none" stroke="black" d="M312,-251C477.49,-251 258.78,-601.62 410.02,-614.63"/>
<ellipse fill="none" stroke="black" cx="414.5" cy="-614.81" rx="4" ry="4"/>
</g>
<!-- dependency83358 -->
<g id="node5" class="node">
<title>dependency83358</title>
<polygon fill="none" stroke="blue" points="428,-448 428,-542 532,-542 532,-448 428,-448"/>
<text text-anchor="start" x="459" y="-491.12" font-family="Helvetica,sans-Serif" font-size="10.00">pack_dep</text>
<polygon fill="none" stroke="blue" points="532,-521 532,-542 642,-542 642,-521 532,-521"/>
<text text-anchor="start" x="581.75" y="-527.5" font-family="Helvetica,sans-Serif" font-size="10.00">no</text>
<polygon fill="none" stroke="blue" points="532,-500 532,-521 642,-521 642,-500 532,-500"/>
<text text-anchor="start" x="568.62" y="-506.5" font-family="Helvetica,sans-Serif" font-size="10.00">dev&#45;java</text>
<polygon fill="none" stroke="blue" points="532,-479 532,-500 642,-500 642,-479 532,-479"/>
<text text-anchor="start" x="582.12" y="-485.5" font-family="Helvetica,sans-Serif" font-size="10.00">jal</text>
<polygon fill="none" stroke="blue" points="532,-458 532,-479 642,-479 642,-458 532,-458"/>
<text text-anchor="start" x="576.5" y="-464.5" font-family="Helvetica,sans-Serif" font-size="10.00">none</text>
<polygon fill="none" stroke="blue" points="532,-448 532,-458 642,-458 642,-448 532,-448"/>
</g>
<!-- id&#45;&gt;dependency83358 -->
<g id="edge4" class="edge">
<title>id:e&#45;&gt;dependency83358:w</title>
<path fill="none" stroke="black" d="M312,-251C427.29,-251 307.26,-482.3 410.14,-494.5"/>
<ellipse fill="none" stroke="black" cx="414.51" cy="-494.75" rx="4" ry="4"/>
</g>
<!-- dependency83359 -->
<g id="node6" class="node">
<title>dependency83359</title>
<polygon fill="none" stroke="blue" points="428,-316.5 428,-421.5 532,-421.5 532,-316.5 428,-316.5"/>
<text text-anchor="start" x="459" y="-365.12" font-family="Helvetica,sans-Serif" font-size="10.00">pack_dep</text>
<polygon fill="none" stroke="blue" points="532,-400.5 532,-421.5 642,-421.5 642,-400.5 532,-400.5"/>
<text text-anchor="start" x="581.75" y="-407" font-family="Helvetica,sans-Serif" font-size="10.00">no</text>
<polygon fill="none" stroke="blue" points="532,-379.5 532,-400.5 642,-400.5 642,-379.5 532,-379.5"/>
<text text-anchor="start" x="568.62" y="-386" font-family="Helvetica,sans-Serif" font-size="10.00">dev&#45;java</text>
<polygon fill="none" stroke="blue" points="532,-358.5 532,-379.5 642,-379.5 642,-358.5 532,-358.5"/>
<text text-anchor="start" x="563.38" y="-365" font-family="Helvetica,sans-Serif" font-size="10.00">java&#45;config</text>
<polygon fill="none" stroke="blue" points="532,-337.5 532,-358.5 642,-358.5 642,-337.5 532,-337.5"/>
<text text-anchor="start" x="560.38" y="-344" font-family="Helvetica,sans-Serif" font-size="10.00">greaterequal</text>
<polygon fill="none" stroke="blue" points="532,-316.5 532,-337.5 642,-337.5 642,-316.5 532,-316.5"/>
<text text-anchor="start" x="570.5" y="-323" font-family="Helvetica,sans-Serif" font-size="10.00">2.2.0&#45;r3</text>
</g>
<!-- id&#45;&gt;dependency83359 -->
<g id="edge5" class="edge">
<title>id:e&#45;&gt;dependency83359:w</title>
<path fill="none" stroke="black" d="M312,-251C379.61,-251 351.1,-358.64 410.08,-368.31"/>
<ellipse fill="none" stroke="black" cx="414.51" cy="-368.65" rx="4" ry="4"/>
</g>
<!-- dependency83360 -->
<g id="node7" class="node">
<title>dependency83360</title>
<polygon fill="none" stroke="blue" points="428,-820 428,-914 532,-914 532,-820 428,-820"/>
<text text-anchor="start" x="459" y="-863.12" font-family="Helvetica,sans-Serif" font-size="10.00">pack_dep</text>
<polygon fill="none" stroke="blue" points="532,-893 532,-914 642,-914 642,-893 532,-893"/>
<text text-anchor="start" x="581.75" y="-899.5" font-family="Helvetica,sans-Serif" font-size="10.00">no</text>
<polygon fill="none" stroke="blue" points="532,-872 532,-893 642,-893 642,-872 532,-872"/>
<text text-anchor="start" x="568.62" y="-878.5" font-family="Helvetica,sans-Serif" font-size="10.00">dev&#45;java</text>
<polygon fill="none" stroke="blue" points="532,-851 532,-872 642,-872 642,-851 532,-851"/>
<text text-anchor="start" x="578" y="-857.5" font-family="Helvetica,sans-Serif" font-size="10.00">junit</text>
<polygon fill="none" stroke="blue" points="532,-830 532,-851 642,-851 642,-830 532,-830"/>
<text text-anchor="start" x="576.5" y="-836.5" font-family="Helvetica,sans-Serif" font-size="10.00">none</text>
<polygon fill="none" stroke="blue" points="532,-820 532,-830 642,-830 642,-820 532,-820"/>
</g>
<!-- id&#45;&gt;dependency83360 -->
<g id="edge6" class="edge">
<title>id:e&#45;&gt;dependency83360:w</title>
<path fill="none" stroke="black" d="M312,-251C586.89,-251 150.68,-853.84 410.29,-866.79"/>
<ellipse fill="none" stroke="black" cx="414.5" cy="-866.89" rx="4" ry="4"/>
</g>
<!-- dependency83361 -->
<g id="node8" class="node">
<title>dependency83361</title>
<polygon fill="none" stroke="blue" points="428,-688.5 428,-793.5 532,-793.5 532,-688.5 428,-688.5"/>
<text text-anchor="start" x="459" y="-737.12" font-family="Helvetica,sans-Serif" font-size="10.00">pack_dep</text>
<polygon fill="none" stroke="blue" points="532,-772.5 532,-793.5 642,-793.5 642,-772.5 532,-772.5"/>
<text text-anchor="start" x="581.75" y="-779" font-family="Helvetica,sans-Serif" font-size="10.00">no</text>
<polygon fill="none" stroke="blue" points="532,-751.5 532,-772.5 642,-772.5 642,-751.5 532,-751.5"/>
<text text-anchor="start" x="573.88" y="-758" font-family="Helvetica,sans-Serif" font-size="10.00">virtual</text>
<polygon fill="none" stroke="blue" points="532,-730.5 532,-751.5 642,-751.5 642,-730.5 532,-730.5"/>
<text text-anchor="start" x="581.75" y="-737" font-family="Helvetica,sans-Serif" font-size="10.00">jre</text>
<polygon fill="none" stroke="blue" points="532,-709.5 532,-730.5 642,-730.5 642,-709.5 532,-709.5"/>
<text text-anchor="start" x="560.38" y="-716" font-family="Helvetica,sans-Serif" font-size="10.00">greaterequal</text>
<polygon fill="none" stroke="blue" points="532,-688.5 532,-709.5 642,-709.5 642,-688.5 532,-688.5"/>
<text text-anchor="start" x="580.25" y="-695" font-family="Helvetica,sans-Serif" font-size="10.00">1.7</text>
</g>
<!-- id&#45;&gt;dependency83361 -->
<g id="edge7" class="edge">
<title>id:e&#45;&gt;dependency83361:w</title>
<path fill="none" stroke="black" d="M312,-251C531.86,-251 205.25,-727.69 410.17,-740.73"/>
<ellipse fill="none" stroke="black" cx="414.5" cy="-740.86" rx="4" ry="4"/>
</g>
<!-- choice10010111845106971189747106971189745991111101021051034550465046484511452 -->
<g id="node9" class="node">
<title>choice10010111845106971189747106971189745991111101021051034550465046484511452</title>
<g id="a_node9"><a xlink:href="../dev-java/java-config-2.2.0-r4.svg" xlink:title="portage://dev&#45;java/java&#45;config&#45;2.2.0&#45;r4">
<ellipse fill="none" stroke="red" cx="908" cy="-306" rx="144" ry="18"/>
<text text-anchor="middle" x="908" y="-302.12" font-family="Helvetica,sans-Serif" font-size="10.00">portage://dev&#45;java/java&#45;config&#45;2.2.0&#45;r4</text>
</a>
</g>
</g>
<!-- dependency83355&#45;&gt;choice10010111845106971189747106971189745991111101021051034550465046484511452 -->
<g id="edge8" class="edge">
<title>dependency83355:e&#45;&gt;choice10010111845106971189747106971189745991111101021051034550465046484511452:w</title>
<path fill="none" stroke="black" stroke-dasharray="1,5" d="M657,-212C716.03,-212 702.2,-294.62 752.12,-304.94"/>
<polygon fill="black" stroke="black" points="761.79,-305.88 751.4,-309.39 758.02,-305.52 751.83,-304.92 751.83,-304.92 751.83,-304.92 758.02,-305.52 752.27,-300.44 761.79,-305.88"/>
</g>
<!-- choice1181051141161179710847106100107454949 -->
<g id="node10" class="node">
<title>choice1181051141161179710847106100107454949</title>
<g id="a_node10"><a xlink:href="../virtual/jdk-11.svg" xlink:title="portage://virtual/jdk&#45;11">
<ellipse fill="none" stroke="red" cx="908" cy="-135" rx="144" ry="18"/>
<text text-anchor="middle" x="908" y="-131.12" font-family="Helvetica,sans-Serif" font-size="10.00">portage://virtual/jdk&#45;11</text>
</a>
</g>
</g>
<!-- dependency83356&#45;&gt;choice1181051141161179710847106100107454949 -->
<g id="edge9" class="edge">
<title>dependency83356:e&#45;&gt;choice1181051141161179710847106100107454949:w</title>
<path fill="none" stroke="black" stroke-dasharray="1,5" d="M657,-81C705.95,-81 709.8,-127.28 752.05,-134.15"/>
<polygon fill="black" stroke="black" points="761.79,-134.91 751.47,-138.62 758.01,-134.61 751.82,-134.13 751.82,-134.13 751.82,-134.13 758.01,-134.61 752.16,-129.65 761.79,-134.91"/>
</g>
<!-- choice11810511411611797108471061001074549465646484511452 -->
<g id="node11" class="node">
<title>choice11810511411611797108471061001074549465646484511452</title>
<g id="a_node11"><a xlink:href="../virtual/jdk-1.8.0-r4.svg" xlink:title="portage://virtual/jdk&#45;1.8.0&#45;r4">
<ellipse fill="none" stroke="red" cx="908" cy="-189" rx="144" ry="18"/>
<text text-anchor="middle" x="908" y="-185.12" font-family="Helvetica,sans-Serif" font-size="10.00">portage://virtual/jdk&#45;1.8.0&#45;r4</text>
</a>
</g>
</g>
<!-- dependency83356&#45;&gt;choice11810511411611797108471061001074549465646484511452 -->
<g id="edge10" class="edge">
<title>dependency83356:e&#45;&gt;choice11810511411611797108471061001074549465646484511452:w</title>
<path fill="none" stroke="black" stroke-dasharray="1,5" d="M657,-81C720.32,-81 698.76,-176.71 752.13,-187.93"/>
<polygon fill="black" stroke="black" points="761.79,-188.88 751.4,-192.38 758.02,-188.51 751.84,-187.9 751.84,-187.9 751.84,-187.9 758.02,-188.51 752.28,-183.42 761.79,-188.88"/>
</g>
<!-- choice11810511411611797108471061001074549465646484511451 -->
<g id="node12" class="node">
<title>choice11810511411611797108471061001074549465646484511451</title>
<g id="a_node12"><a xlink:href="../virtual/jdk-1.8.0-r3.svg" xlink:title="portage://virtual/jdk&#45;1.8.0&#45;r3">
<ellipse fill="none" stroke="red" cx="908" cy="-81" rx="144" ry="18"/>
<text text-anchor="middle" x="908" y="-77.12" font-family="Helvetica,sans-Serif" font-size="10.00">portage://virtual/jdk&#45;1.8.0&#45;r3</text>
</a>
</g>
</g>
<!-- dependency83356&#45;&gt;choice11810511411611797108471061001074549465646484511451 -->
<g id="edge11" class="edge">
<title>dependency83356:e&#45;&gt;choice11810511411611797108471061001074549465646484511451:w</title>
<path fill="none" stroke="black" stroke-dasharray="1,5" d="M657,-81C700.25,-81 713.72,-81 752.08,-81"/>
<polygon fill="black" stroke="black" points="761.78,-81 751.78,-85.5 758,-81 751.78,-81 751.78,-81 751.78,-81 758,-81 751.78,-76.5 761.78,-81"/>
</g>
<!-- choice10010111845106971189747103110117451141011031011201124549464946524511451 -->
<g id="node13" class="node">
<title>choice10010111845106971189747103110117451141011031011201124549464946524511451</title>
<g id="a_node13"><a xlink:href="../dev-java/gnu-regexp-1.1.4-r3.svg" xlink:title="portage://dev&#45;java/gnu&#45;regexp&#45;1.1.4&#45;r3">
<ellipse fill="none" stroke="red" cx="908" cy="-615" rx="144" ry="18"/>
<text text-anchor="middle" x="908" y="-611.12" font-family="Helvetica,sans-Serif" font-size="10.00">portage://dev&#45;java/gnu&#45;regexp&#45;1.1.4&#45;r3</text>
</a>
</g>
</g>
<!-- dependency83357&#45;&gt;choice10010111845106971189747103110117451141011031011201124549464946524511451 -->
<g id="edge12" class="edge">
<title>dependency83357:e&#45;&gt;choice10010111845106971189747103110117451141011031011201124549464946524511451:w</title>
<path fill="none" stroke="black" stroke-dasharray="1,5" d="M657,-615C700.25,-615 713.72,-615 752.08,-615"/>
<polygon fill="black" stroke="black" points="761.78,-615 751.78,-619.5 758,-615 751.78,-615 751.78,-615 751.78,-615 758,-615 751.78,-610.5 761.78,-615"/>
</g>
<!-- choice10010111845106971189747106971084550484851494949554511453 -->
<g id="node14" class="node">
<title>choice10010111845106971189747106971084550484851494949554511453</title>
<g id="a_node14"><a xlink:href="../dev-java/jal-20031117-r5.svg" xlink:title="portage://dev&#45;java/jal&#45;20031117&#45;r5">
<ellipse fill="none" stroke="red" cx="908" cy="-495" rx="144" ry="18"/>
<text text-anchor="middle" x="908" y="-491.12" font-family="Helvetica,sans-Serif" font-size="10.00">portage://dev&#45;java/jal&#45;20031117&#45;r5</text>
</a>
</g>
</g>
<!-- dependency83358&#45;&gt;choice10010111845106971189747106971084550484851494949554511453 -->
<g id="edge13" class="edge">
<title>dependency83358:e&#45;&gt;choice10010111845106971189747106971084550484851494949554511453:w</title>
<path fill="none" stroke="black" stroke-dasharray="1,5" d="M657,-495C700.25,-495 713.72,-495 752.08,-495"/>
<polygon fill="black" stroke="black" points="761.78,-495 751.78,-499.5 758,-495 751.78,-495 751.78,-495 751.78,-495 758,-495 751.78,-490.5 761.78,-495"/>
</g>
<!-- dependency83359&#45;&gt;choice10010111845106971189747106971189745991111101021051034550465046484511452 -->
<g id="edge14" class="edge">
<title>dependency83359:e&#45;&gt;choice10010111845106971189747106971189745991111101021051034550465046484511452:w</title>
<path fill="none" stroke="black" stroke-dasharray="1,5" d="M657,-369C707.84,-369 708.41,-314.78 751.99,-306.94"/>
<polygon fill="black" stroke="black" points="761.79,-306.1 752.2,-311.44 758.02,-306.43 751.82,-306.95 751.82,-306.95 751.82,-306.95 758.02,-306.43 751.44,-302.47 761.79,-306.1"/>
</g>
<!-- choice1001011184510697118974710611711010511645524649504511449 -->
<g id="node15" class="node">
<title>choice1001011184510697118974710611711010511645524649504511449</title>
<g id="a_node15"><a xlink:href="../dev-java/junit-4.12-r1.svg" xlink:title="portage://dev&#45;java/junit&#45;4.12&#45;r1">
<ellipse fill="none" stroke="red" cx="908" cy="-885" rx="144" ry="18"/>
<text text-anchor="middle" x="908" y="-881.12" font-family="Helvetica,sans-Serif" font-size="10.00">portage://dev&#45;java/junit&#45;4.12&#45;r1</text>
</a>
</g>
</g>
<!-- dependency83360&#45;&gt;choice1001011184510697118974710611711010511645524649504511449 -->
<g id="edge15" class="edge">
<title>dependency83360:e&#45;&gt;choice1001011184510697118974710611711010511645524649504511449:w</title>
<path fill="none" stroke="black" stroke-dasharray="1,5" d="M657,-867C700.87,-867 713.25,-882.17 751.95,-884.66"/>
<polygon fill="black" stroke="black" points="761.78,-884.96 751.65,-889.15 758,-884.84 751.79,-884.65 751.79,-884.65 751.79,-884.65 758,-884.84 751.93,-880.15 761.78,-884.96"/>
</g>
<!-- choice100101118451069711897471061171101051164551465646504511450 -->
<g id="node16" class="node">
<title>choice100101118451069711897471061171101051164551465646504511450</title>
<g id="a_node16"><a xlink:href="../dev-java/junit-3.8.2-r2.svg" xlink:title="portage://dev&#45;java/junit&#45;3.8.2&#45;r2">
<ellipse fill="none" stroke="red" cx="908" cy="-831" rx="144" ry="18"/>
<text text-anchor="middle" x="908" y="-827.12" font-family="Helvetica,sans-Serif" font-size="10.00">portage://dev&#45;java/junit&#45;3.8.2&#45;r2</text>
</a>
</g>
</g>
<!-- dependency83360&#45;&gt;choice100101118451069711897471061171101051164551465646504511450 -->
<g id="edge16" class="edge">
<title>dependency83360:e&#45;&gt;choice100101118451069711897471061171101051164551465646504511450:w</title>
<path fill="none" stroke="black" stroke-dasharray="1,5" d="M657,-867C702.77,-867 711.93,-836.53 751.84,-831.66"/>
<polygon fill="black" stroke="black" points="761.78,-831.07 752.06,-836.15 758.01,-831.29 751.8,-831.66 751.8,-831.66 751.8,-831.66 758.01,-831.29 751.54,-827.17 761.78,-831.07"/>
</g>
<!-- choice11810511411611797108471061141014549494511449 -->
<g id="node17" class="node">
<title>choice11810511411611797108471061141014549494511449</title>
<g id="a_node17"><a xlink:href="../virtual/jre-11-r1.svg" xlink:title="portage://virtual/jre&#45;11&#45;r1">
<ellipse fill="none" stroke="red" cx="908" cy="-723" rx="144" ry="18"/>
<text text-anchor="middle" x="908" y="-719.12" font-family="Helvetica,sans-Serif" font-size="10.00">portage://virtual/jre&#45;11&#45;r1</text>
</a>
</g>
</g>
<!-- dependency83361&#45;&gt;choice11810511411611797108471061141014549494511449 -->
<g id="edge17" class="edge">
<title>dependency83361:e&#45;&gt;choice11810511411611797108471061141014549494511449:w</title>
<path fill="none" stroke="black" stroke-dasharray="1,5" d="M657,-741C700.87,-741 713.25,-725.83 751.95,-723.34"/>
<polygon fill="black" stroke="black" points="761.78,-723.04 751.93,-727.85 758,-723.16 751.79,-723.35 751.79,-723.35 751.79,-723.35 758,-723.16 751.65,-718.85 761.78,-723.04"/>
</g>
<!-- choice11810511411611797108471061141014549465646484511450 -->
<g id="node18" class="node">
<title>choice11810511411611797108471061141014549465646484511450</title>
<g id="a_node18"><a xlink:href="../virtual/jre-1.8.0-r2.svg" xlink:title="portage://virtual/jre&#45;1.8.0&#45;r2">
<ellipse fill="none" stroke="red" cx="908" cy="-669" rx="144" ry="18"/>
<text text-anchor="middle" x="908" y="-665.12" font-family="Helvetica,sans-Serif" font-size="10.00">portage://virtual/jre&#45;1.8.0&#45;r2</text>
</a>
</g>
</g>
<!-- dependency83361&#45;&gt;choice11810511411611797108471061141014549465646484511450 -->
<g id="edge18" class="edge">
<title>dependency83361:e&#45;&gt;choice11810511411611797108471061141014549465646484511450:w</title>
<path fill="none" stroke="black" stroke-dasharray="1,5" d="M657,-741C709.95,-741 706.84,-678.77 751.9,-670.02"/>
<polygon fill="black" stroke="black" points="761.79,-669.11 752.24,-674.51 758.02,-669.46 751.83,-670.02 751.83,-670.02 751.83,-670.02 758.02,-669.46 751.42,-665.54 761.79,-669.11"/>
</g>
<!-- choice11810511411611797108471061141014549465646484511449 -->
<g id="node19" class="node">
<title>choice11810511411611797108471061141014549465646484511449</title>
<g id="a_node19"><a xlink:href="../virtual/jre-1.8.0-r1.svg" xlink:title="portage://virtual/jre&#45;1.8.0&#45;r1">
<ellipse fill="none" stroke="red" cx="908" cy="-777" rx="144" ry="18"/>
<text text-anchor="middle" x="908" y="-773.12" font-family="Helvetica,sans-Serif" font-size="10.00">portage://virtual/jre&#45;1.8.0&#45;r1</text>
</a>
</g>
</g>
<!-- dependency83361&#45;&gt;choice11810511411611797108471061141014549465646484511449 -->
<g id="edge19" class="edge">
<title>dependency83361:e&#45;&gt;choice11810511411611797108471061141014549465646484511449:w</title>
<path fill="none" stroke="black" stroke-dasharray="1,5" d="M657,-741C702.77,-741 711.93,-771.47 751.84,-776.34"/>
<polygon fill="black" stroke="black" points="761.78,-776.93 751.54,-780.83 758.01,-776.71 751.8,-776.34 751.8,-776.34 751.8,-776.34 758.01,-776.71 752.06,-771.85 761.78,-776.93"/>
</g>
</g>
</svg>
