<?xml version="1.0" encoding="UTF-8" standalone="no"?>
<!DOCTYPE svg PUBLIC "-//W3C//DTD SVG 1.1//EN"
 "http://www.w3.org/Graphics/SVG/1.1/DTD/svg11.dtd">
<!-- Generated by graphviz version 2.41.20171026.1811 (20171026.1811)
 -->
<!-- Title: prolog Pages: 1 -->
<svg width="1068pt" height="642pt"
 viewBox="0.00 0.00 1068.00 642.00" xmlns="http://www.w3.org/2000/svg" xmlns:xlink="http://www.w3.org/1999/xlink">
<g id="graph0" class="graph" transform="scale(1 1) rotate(0) translate(4 638)">
<title>prolog</title>
<polygon fill="white" stroke="transparent" points="-4,4 -4,-638 1064,-638 1064,4 -4,4"/>
<g id="clust1" class="cluster">
<title>cluster_leftcol</title>
<polygon fill="none" stroke="gray" points="8,-249 8,-321 312,-321 312,-249 8,-249"/>
<text text-anchor="start" x="146.66" y="-309" font-family="Helvetica,sans-Serif" font-style="italic" font-size="10.00">ebuild</text>
</g>
<g id="clust2" class="cluster">
<title>cluster_midcol</title>
<polygon fill="none" stroke="gray" points="396,-8 396,-596 664,-596 664,-8 396,-8"/>
<text text-anchor="start" x="498.88" y="-584" font-family="Helvetica,sans-Serif" font-style="italic" font-size="10.00">dependencies</text>
</g>
<g id="clust3" class="cluster">
<title>cluster_compile</title>
<polygon fill="#eeeeee" stroke="gray" points="404,-426 404,-568 656,-568 656,-426 404,-426"/>
<text text-anchor="start" x="512.78" y="-556" font-family="Helvetica,sans-Serif" font-style="italic" font-size="10.00">compile</text>
</g>
<g id="clust5" class="cluster">
<title>cluster_compileandrun</title>
<polygon fill="#eeeeee" stroke="gray" points="404,-16 404,-418 656,-418 656,-16 404,-16"/>
<text text-anchor="start" x="494.44" y="-406" font-family="Helvetica,sans-Serif" font-style="italic" font-size="10.00">compile and run</text>
</g>
<g id="clust10" class="cluster">
<title>cluster_choices</title>
<polygon fill="none" stroke="gray" points="748,-68 748,-626 1052,-626 1052,-68 748,-68"/>
<text text-anchor="start" x="875.82" y="-614" font-family="Helvetica,sans-Serif" font-style="italic" font-size="10.00">candidates</text>
</g>
<!-- id -->
<g id="node1" class="node">
<title>id</title>
<g id="a_node1"><a xlink:href="../sci-astronomy/xephem-3.7.7.svg" xlink:title="sci&#45;astronomy/xephem&#45;3.7.7">
<ellipse fill="none" stroke="red" cx="160" cy="-275" rx="144" ry="18"/>
<text text-anchor="middle" x="160" y="-272" font-family="Helvetica,sans-Serif" font-size="10.00">sci&#45;astronomy/xephem&#45;3.7.7</text>
</a>
</g>
</g>
<!-- dependency1685565 -->
<g id="node2" class="node">
<title>dependency1685565</title>
<polygon fill="none" stroke="blue" points="420,-438 420,-536 525,-536 525,-438 420,-438"/>
<text text-anchor="start" x="450.82" y="-484" font-family="Helvetica,sans-Serif" font-size="10.00">pack_dep</text>
<polygon fill="none" stroke="blue" points="525,-514 525,-536 635,-536 635,-514 525,-514"/>
<text text-anchor="start" x="574.44" y="-522" font-family="Helvetica,sans-Serif" font-size="10.00">no</text>
<polygon fill="none" stroke="blue" points="525,-492 525,-514 635,-514 635,-492 525,-492"/>
<text text-anchor="start" x="560" y="-500" font-family="Helvetica,sans-Serif" font-size="10.00">sys&#45;apps</text>
<polygon fill="none" stroke="blue" points="525,-470 525,-492 635,-492 635,-470 525,-470"/>
<text text-anchor="start" x="570" y="-478" font-family="Helvetica,sans-Serif" font-size="10.00">groff</text>
<polygon fill="none" stroke="blue" points="525,-448 525,-470 635,-470 635,-448 525,-448"/>
<text text-anchor="start" x="568.88" y="-456" font-family="Helvetica,sans-Serif" font-size="10.00">none</text>
<polygon fill="none" stroke="blue" points="525,-438 525,-448 635,-448 635,-438 525,-438"/>
</g>
<!-- id&#45;&gt;dependency1685565 -->
<g id="edge1" class="edge">
<title>id:e&#45;&gt;dependency1685565:w</title>
<path fill="none" stroke="black" d="M305,-275C406.74,-275 312.57,-472.76 400.92,-486.27"/>
<polygon fill="black" stroke="black" points="411,-487 400.7,-490.77 406.01,-486.64 401.03,-486.28 401.03,-486.28 401.03,-486.28 406.01,-486.64 401.35,-481.79 411,-487 411,-487"/>
</g>
<!-- dependency1685566 -->
<g id="node3" class="node">
<title>dependency1685566</title>
<polygon fill="none" stroke="blue" points="420,-288 420,-386 525,-386 525,-288 420,-288"/>
<text text-anchor="start" x="450.82" y="-334" font-family="Helvetica,sans-Serif" font-size="10.00">pack_dep</text>
<polygon fill="none" stroke="blue" points="525,-364 525,-386 635,-386 635,-364 525,-364"/>
<text text-anchor="start" x="574.44" y="-372" font-family="Helvetica,sans-Serif" font-size="10.00">no</text>
<polygon fill="none" stroke="blue" points="525,-342 525,-364 635,-364 635,-342 525,-342"/>
<text text-anchor="start" x="557.22" y="-350" font-family="Helvetica,sans-Serif" font-size="10.00">media&#45;libs</text>
<polygon fill="none" stroke="blue" points="525,-320 525,-342 635,-342 635,-320 525,-320"/>
<text text-anchor="start" x="566.66" y="-328" font-family="Helvetica,sans-Serif" font-size="10.00">libpng</text>
<polygon fill="none" stroke="blue" points="525,-298 525,-320 635,-320 635,-298 525,-298"/>
<text text-anchor="start" x="568.88" y="-306" font-family="Helvetica,sans-Serif" font-size="10.00">none</text>
<polygon fill="none" stroke="blue" points="525,-288 525,-298 635,-298 635,-288 525,-288"/>
</g>
<!-- id&#45;&gt;dependency1685566 -->
<g id="edge2" class="edge">
<title>id:e&#45;&gt;dependency1685566:w</title>
<path fill="none" stroke="black" d="M305,-275C352.76,-275 356.31,-322.47 393.01,-334.34"/>
<ellipse fill="none" stroke="black" cx="407.04" cy="-336.41" rx="4" ry="4"/>
<polygon fill="black" stroke="black" points="403.09,-335.83 392.53,-338.81 398.14,-335.1 393.19,-334.36 393.19,-334.36 393.19,-334.36 398.14,-335.1 393.85,-329.91 403.09,-335.83 403.09,-335.83"/>
</g>
<!-- dependency1685567 -->
<g id="node4" class="node">
<title>dependency1685567</title>
<polygon fill="none" stroke="blue" points="420,-164 420,-262 525,-262 525,-164 420,-164"/>
<text text-anchor="start" x="450.82" y="-210" font-family="Helvetica,sans-Serif" font-size="10.00">pack_dep</text>
<polygon fill="none" stroke="blue" points="525,-240 525,-262 635,-262 635,-240 525,-240"/>
<text text-anchor="start" x="574.44" y="-248" font-family="Helvetica,sans-Serif" font-size="10.00">no</text>
<polygon fill="none" stroke="blue" points="525,-218 525,-240 635,-240 635,-218 525,-218"/>
<text text-anchor="start" x="566.67" y="-226" font-family="Helvetica,sans-Serif" font-size="10.00">virtual</text>
<polygon fill="none" stroke="blue" points="525,-196 525,-218 635,-218 635,-196 525,-196"/>
<text text-anchor="start" x="570.55" y="-204" font-family="Helvetica,sans-Serif" font-size="10.00">jpeg</text>
<polygon fill="none" stroke="blue" points="525,-174 525,-196 635,-196 635,-174 525,-174"/>
<text text-anchor="start" x="568.88" y="-182" font-family="Helvetica,sans-Serif" font-size="10.00">none</text>
<polygon fill="none" stroke="blue" points="525,-164 525,-174 635,-174 635,-164 525,-164"/>
</g>
<!-- id&#45;&gt;dependency1685567 -->
<g id="edge3" class="edge">
<title>id:e&#45;&gt;dependency1685567:w</title>
<path fill="none" stroke="black" d="M305,-275C352.76,-275 356.31,-227.53 393.01,-215.66"/>
<ellipse fill="none" stroke="black" cx="407.04" cy="-213.59" rx="4" ry="4"/>
<polygon fill="black" stroke="black" points="403.09,-214.17 393.85,-220.09 398.14,-214.9 393.19,-215.64 393.19,-215.64 393.19,-215.64 398.14,-214.9 392.53,-211.19 403.09,-214.17 403.09,-214.17"/>
</g>
<!-- dependency1685568 -->
<g id="node5" class="node">
<title>dependency1685568</title>
<polygon fill="none" stroke="blue" points="420,-28 420,-138 525,-138 525,-28 420,-28"/>
<text text-anchor="start" x="450.82" y="-80" font-family="Helvetica,sans-Serif" font-size="10.00">pack_dep</text>
<polygon fill="none" stroke="blue" points="525,-116 525,-138 635,-138 635,-116 525,-116"/>
<text text-anchor="start" x="574.44" y="-124" font-family="Helvetica,sans-Serif" font-size="10.00">no</text>
<polygon fill="none" stroke="blue" points="525,-94 525,-116 635,-116 635,-94 525,-94"/>
<text text-anchor="start" x="562.78" y="-102" font-family="Helvetica,sans-Serif" font-size="10.00">x11&#45;libs</text>
<polygon fill="none" stroke="blue" points="525,-72 525,-94 635,-94 635,-72 525,-72"/>
<text text-anchor="start" x="569.17" y="-80" font-family="Helvetica,sans-Serif" font-size="10.00">motif</text>
<polygon fill="none" stroke="blue" points="525,-50 525,-72 635,-72 635,-50 525,-50"/>
<text text-anchor="start" x="551.94" y="-58" font-family="Helvetica,sans-Serif" font-size="10.00">greaterequal</text>
<polygon fill="none" stroke="blue" points="525,-28 525,-50 635,-50 635,-28 525,-28"/>
<text text-anchor="start" x="573.05" y="-36" font-family="Helvetica,sans-Serif" font-size="10.00">2.3</text>
</g>
<!-- id&#45;&gt;dependency1685568 -->
<g id="edge4" class="edge">
<title>id:e&#45;&gt;dependency1685568:w</title>
<path fill="none" stroke="black" d="M305,-275C395.62,-275 325.11,-109.05 393.07,-85.71"/>
<ellipse fill="none" stroke="black" cx="407.05" cy="-83.6" rx="4" ry="4"/>
<polygon fill="black" stroke="black" points="403.09,-84.2 393.88,-90.14 398.15,-84.95 393.2,-85.69 393.2,-85.69 393.2,-85.69 398.15,-84.95 392.53,-81.25 403.09,-84.2 403.09,-84.2"/>
</g>
<!-- choice11512111545971121121154710311411110210245494650504650 -->
<g id="node6" class="node">
<title>choice11512111545971121121154710311411110210245494650504650</title>
<g id="a_node6"><a xlink:href="../sys-apps/groff-1.22.2.svg" xlink:title="sys&#45;apps/groff&#45;1.22.2">
<ellipse fill="none" stroke="red" cx="900" cy="-580" rx="144" ry="18"/>
<text text-anchor="middle" x="900" y="-577" font-family="Helvetica,sans-Serif" font-size="10.00">sys&#45;apps/groff&#45;1.22.2</text>
</a>
</g>
</g>
<!-- dependency1685565&#45;&gt;choice11512111545971121121154710311411110210245494650504650 -->
<g id="edge5" class="edge">
<title>dependency1685565:e&#45;&gt;choice11512111545971121121154710311411110210245494650504650:w</title>
<path fill="none" stroke="black" stroke-dasharray="1,5" d="M649,-487C708,-487 694.31,-569.42 744.8,-579.08"/>
<polygon fill="black" stroke="black" points="755,-580 744.64,-583.58 750.02,-579.55 745.04,-579.1 745.04,-579.1 745.04,-579.1 750.02,-579.55 745.44,-574.62 755,-580 755,-580"/>
</g>
<!-- choice11512111545971121121154710311411110210245494650504651 -->
<g id="node7" class="node">
<title>choice11512111545971121121154710311411110210245494650504651</title>
<g id="a_node7"><a xlink:href="../sys-apps/groff-1.22.3.svg" xlink:title="sys&#45;apps/groff&#45;1.22.3">
<ellipse fill="none" stroke="red" cx="900" cy="-526" rx="144" ry="18"/>
<text text-anchor="middle" x="900" y="-523" font-family="Helvetica,sans-Serif" font-size="10.00">sys&#45;apps/groff&#45;1.22.3</text>
</a>
</g>
</g>
<!-- dependency1685565&#45;&gt;choice11512111545971121121154710311411110210245494650504651 -->
<g id="edge6" class="edge">
<title>dependency1685565:e&#45;&gt;choice11512111545971121121154710311411110210245494650504651:w</title>
<path fill="none" stroke="black" stroke-dasharray="1,5" d="M649,-487C695.57,-487 703.76,-520.57 744.78,-525.42"/>
<polygon fill="black" stroke="black" points="755,-526 744.76,-529.92 750.01,-525.72 745.02,-525.43 745.02,-525.43 745.02,-525.43 750.01,-525.72 745.27,-520.94 755,-526 755,-526"/>
</g>
<!-- choice11512111545971121121154710311411110210245494650504652 -->
<g id="node8" class="node">
<title>choice11512111545971121121154710311411110210245494650504652</title>
<g id="a_node8"><a xlink:href="../sys-apps/groff-1.22.4.svg" xlink:title="sys&#45;apps/groff&#45;1.22.4">
<ellipse fill="none" stroke="red" cx="900" cy="-472" rx="144" ry="18"/>
<text text-anchor="middle" x="900" y="-469" font-family="Helvetica,sans-Serif" font-size="10.00">sys&#45;apps/groff&#45;1.22.4</text>
</a>
</g>
</g>
<!-- dependency1685565&#45;&gt;choice11512111545971121121154710311411110210245494650504652 -->
<g id="edge7" class="edge">
<title>dependency1685565:e&#45;&gt;choice11512111545971121121154710311411110210245494650504652:w</title>
<path fill="none" stroke="black" stroke-dasharray="1,5" d="M649,-487C693.05,-487 705.61,-474.14 744.98,-472.24"/>
<polygon fill="black" stroke="black" points="755,-472 745.11,-476.73 750,-472.12 745,-472.24 745,-472.24 745,-472.24 750,-472.12 744.9,-467.74 755,-472 755,-472"/>
</g>
<!-- choice109101100105974510810598115471081059811211010345494650465357 -->
<g id="node9" class="node">
<title>choice109101100105974510810598115471081059811211010345494650465357</title>
<g id="a_node9"><a xlink:href="../media-libs/libpng-1.2.59.svg" xlink:title="media&#45;libs/libpng&#45;1.2.59">
<ellipse fill="none" stroke="red" cx="900" cy="-418" rx="144" ry="18"/>
<text text-anchor="middle" x="900" y="-415" font-family="Helvetica,sans-Serif" font-size="10.00">media&#45;libs/libpng&#45;1.2.59</text>
</a>
</g>
</g>
<!-- dependency1685566&#45;&gt;choice109101100105974510810598115471081059811211010345494650465357 -->
<g id="edge8" class="edge">
<title>dependency1685566:e&#45;&gt;choice109101100105974510810598115471081059811211010345494650465357:w</title>
<path fill="none" stroke="black" stroke-dasharray="1,5" d="M649,-337C704.7,-337 696.97,-408.49 744.99,-417.15"/>
<polygon fill="black" stroke="black" points="755,-418 744.65,-421.63 750.02,-417.57 745.04,-417.15 745.04,-417.15 745.04,-417.15 750.02,-417.57 745.42,-412.67 755,-418 755,-418"/>
</g>
<!-- choice109101100105974510810598115471081059811211010345494653465148 -->
<g id="node10" class="node">
<title>choice109101100105974510810598115471081059811211010345494653465148</title>
<g id="a_node10"><a xlink:href="../media-libs/libpng-1.5.30.svg" xlink:title="media&#45;libs/libpng&#45;1.5.30">
<ellipse fill="none" stroke="red" cx="900" cy="-364" rx="144" ry="18"/>
<text text-anchor="middle" x="900" y="-361" font-family="Helvetica,sans-Serif" font-size="10.00">media&#45;libs/libpng&#45;1.5.30</text>
</a>
</g>
</g>
<!-- dependency1685566&#45;&gt;choice109101100105974510810598115471081059811211010345494653465148 -->
<g id="edge9" class="edge">
<title>dependency1685566:e&#45;&gt;choice109101100105974510810598115471081059811211010345494653465148:w</title>
<path fill="none" stroke="black" stroke-dasharray="1,5" d="M649,-337C694.01,-337 704.86,-360.14 744.8,-363.58"/>
<polygon fill="black" stroke="black" points="755,-364 744.82,-368.08 750,-363.79 745.01,-363.58 745.01,-363.58 745.01,-363.58 750,-363.79 745.2,-359.09 755,-364 755,-364"/>
</g>
<!-- choice1091011001059745108105981154710810598112110103454946544651534511449 -->
<g id="node11" class="node">
<title>choice1091011001059745108105981154710810598112110103454946544651534511449</title>
<g id="a_node11"><a xlink:href="../media-libs/libpng-1.6.35-r1.svg" xlink:title="media&#45;libs/libpng&#45;1.6.35&#45;r1">
<ellipse fill="none" stroke="red" cx="900" cy="-310" rx="144" ry="18"/>
<text text-anchor="middle" x="900" y="-307" font-family="Helvetica,sans-Serif" font-size="10.00">media&#45;libs/libpng&#45;1.6.35&#45;r1</text>
</a>
</g>
</g>
<!-- dependency1685566&#45;&gt;choice1091011001059745108105981154710810598112110103454946544651534511449 -->
<g id="edge10" class="edge">
<title>dependency1685566:e&#45;&gt;choice1091011001059745108105981154710810598112110103454946544651534511449:w</title>
<path fill="none" stroke="black" stroke-dasharray="1,5" d="M649,-337C694.01,-337 704.86,-313.86 744.8,-310.42"/>
<polygon fill="black" stroke="black" points="755,-310 745.2,-314.91 750,-310.21 745.01,-310.42 745.01,-310.42 745.01,-310.42 750,-310.21 744.82,-305.92 755,-310 755,-310"/>
</g>
<!-- choice109101100105974510810598115471081059811211010345494654465154 -->
<g id="node12" class="node">
<title>choice109101100105974510810598115471081059811211010345494654465154</title>
<g id="a_node12"><a xlink:href="../media-libs/libpng-1.6.36.svg" xlink:title="media&#45;libs/libpng&#45;1.6.36">
<ellipse fill="none" stroke="red" cx="900" cy="-256" rx="144" ry="18"/>
<text text-anchor="middle" x="900" y="-253" font-family="Helvetica,sans-Serif" font-size="10.00">media&#45;libs/libpng&#45;1.6.36</text>
</a>
</g>
</g>
<!-- dependency1685566&#45;&gt;choice109101100105974510810598115471081059811211010345494654465154 -->
<g id="edge11" class="edge">
<title>dependency1685566:e&#45;&gt;choice109101100105974510810598115471081059811211010345494654465154:w</title>
<path fill="none" stroke="black" stroke-dasharray="1,5" d="M649,-337C704.7,-337 696.97,-265.51 744.99,-256.85"/>
<polygon fill="black" stroke="black" points="755,-256 745.42,-261.33 750.02,-256.43 745.04,-256.85 745.04,-256.85 745.04,-256.85 750.02,-256.43 744.65,-252.37 755,-256 755,-256"/>
</g>
<!-- choice118105114116117971084710611210110345484511450 -->
<g id="node13" class="node">
<title>choice118105114116117971084710611210110345484511450</title>
<g id="a_node13"><a xlink:href="../virtual/jpeg-0-r2.svg" xlink:title="virtual/jpeg&#45;0&#45;r2">
<ellipse fill="none" stroke="red" cx="900" cy="-202" rx="144" ry="18"/>
<text text-anchor="middle" x="900" y="-199" font-family="Helvetica,sans-Serif" font-size="10.00">virtual/jpeg&#45;0&#45;r2</text>
</a>
</g>
</g>
<!-- dependency1685567&#45;&gt;choice118105114116117971084710611210110345484511450 -->
<g id="edge12" class="edge">
<title>dependency1685567:e&#45;&gt;choice118105114116117971084710611210110345484511450:w</title>
<path fill="none" stroke="black" stroke-dasharray="1,5" d="M649,-213C692.66,-213 705.65,-203.65 744.53,-202.19"/>
<polygon fill="black" stroke="black" points="755,-202 745.08,-206.68 750,-202.09 745,-202.18 745,-202.18 745,-202.18 750,-202.09 744.92,-197.68 755,-202 755,-202"/>
</g>
<!-- choice1181051141161179710847106112101103455450 -->
<g id="node14" class="node">
<title>choice1181051141161179710847106112101103455450</title>
<g id="a_node14"><a xlink:href="../virtual/jpeg-62.svg" xlink:title="virtual/jpeg&#45;62">
<ellipse fill="none" stroke="red" cx="900" cy="-148" rx="144" ry="18"/>
<text text-anchor="middle" x="900" y="-145" font-family="Helvetica,sans-Serif" font-size="10.00">virtual/jpeg&#45;62</text>
</a>
</g>
</g>
<!-- dependency1685567&#45;&gt;choice1181051141161179710847106112101103455450 -->
<g id="edge13" class="edge">
<title>dependency1685567:e&#45;&gt;choice1181051141161179710847106112101103455450:w</title>
<path fill="none" stroke="black" stroke-dasharray="1,5" d="M649,-213C700.7,-213 700.07,-156.11 745.03,-148.78"/>
<polygon fill="black" stroke="black" points="755,-148 745.38,-153.26 750.02,-148.39 745.03,-148.78 745.03,-148.78 745.03,-148.78 750.02,-148.39 744.68,-144.29 755,-148 755,-148"/>
</g>
<!-- choice12049494510810598115471091111161051024550465146564511449 -->
<g id="node15" class="node">
<title>choice12049494510810598115471091111161051024550465146564511449</title>
<g id="a_node15"><a xlink:href="../x11-libs/motif-2.3.8-r1.svg" xlink:title="x11&#45;libs/motif&#45;2.3.8&#45;r1">
<ellipse fill="none" stroke="red" cx="900" cy="-94" rx="144" ry="18"/>
<text text-anchor="middle" x="900" y="-91" font-family="Helvetica,sans-Serif" font-size="10.00">x11&#45;libs/motif&#45;2.3.8&#45;r1</text>
</a>
</g>
</g>
<!-- dependency1685568&#45;&gt;choice12049494510810598115471091111161051024550465146564511449 -->
<g id="edge14" class="edge">
<title>dependency1685568:e&#45;&gt;choice12049494510810598115471091111161051024550465146564511449:w</title>
<path fill="none" stroke="black" stroke-dasharray="1,5" d="M649,-83C692.66,-83 705.65,-92.35 744.53,-93.81"/>
<polygon fill="black" stroke="black" points="755,-94 744.92,-98.32 750,-93.91 745,-93.82 745,-93.82 745,-93.82 750,-93.91 745.08,-89.32 755,-94 755,-94"/>
</g>
</g>
</svg>
