<?xml version="1.0" encoding="UTF-8" standalone="no"?>
<!DOCTYPE svg PUBLIC "-//W3C//DTD SVG 1.1//EN"
 "http://www.w3.org/Graphics/SVG/1.1/DTD/svg11.dtd">
<!-- Generated by graphviz version 9.0.0 (20230911.1827)
 -->
<!-- Title: prolog Pages: 1 -->
<svg width="541pt" height="136pt"
 viewBox="0.00 0.00 540.50 136.00" xmlns="http://www.w3.org/2000/svg" xmlns:xlink="http://www.w3.org/1999/xlink">
<g id="graph0" class="graph" transform="scale(1 1) rotate(0) translate(4 132)">
<title>prolog</title>
<polygon fill="white" stroke="none" points="-4,4 -4,-132 536.5,-132 536.5,4 -4,4"/>
<g id="clust1" class="cluster">
<title>cluster_leftcol</title>
<polygon fill="none" stroke="gray" points="8,-19 8,-90 312,-90 312,-19 8,-19"/>
<text text-anchor="start" x="147.25" y="-77.5" font-family="Helvetica,sans-Serif" font-style="italic" font-size="10.00">ebuild</text>
</g>
<g id="clust2" class="cluster">
<title>cluster_midcol</title>
<polygon fill="none" stroke="gray" points="396,-8 396,-120 524.5,-120 524.5,-8 396,-8"/>
<text text-anchor="start" x="430.25" y="-107.5" font-family="Helvetica,sans-Serif" font-style="italic" font-size="10.00">dependencies</text>
</g>
<g id="clust5" class="cluster">
<title>cluster_run</title>
<polygon fill="#eeeeee" stroke="gray" points="404,-16 404,-93 516.5,-93 516.5,-16 404,-16"/>
<text text-anchor="start" x="453.5" y="-80.5" font-family="Helvetica,sans-Serif" font-style="italic" font-size="10.00">run</text>
</g>
<!-- id -->
<g id="node1" class="node">
<title>id</title>
<g id="a_node1"><a xlink:href="../virtual/editor-0-r3.svg" xlink:title="portage://virtual/editor&#45;0&#45;r3">
<ellipse fill="none" stroke="red" cx="160" cy="-45" rx="144" ry="18"/>
<text text-anchor="middle" x="160" y="-41.12" font-family="Helvetica,sans-Serif" font-size="10.00">portage://virtual/editor&#45;0&#45;r3</text>
</a>
</g>
</g>
<!-- dependency2209 -->
<g id="node2" class="node">
<title>dependency2209</title>
<polygon fill="none" stroke="red" points="420,-28.38 420,-61.62 500.5,-61.62 500.5,-28.38 420,-28.38"/>
<text text-anchor="start" x="431" y="-41.12" font-family="Helvetica,sans-Serif" font-size="10.00">any_of_group</text>
</g>
<!-- id&#45;&gt;dependency2209 -->
<g id="edge1" class="edge">
<title>id:e&#45;&gt;dependency2209:w</title>
<path fill="none" stroke="black" d="M305,-45C349.09,-45 362.3,-45 402.29,-45"/>
<ellipse fill="none" stroke="black" cx="406.75" cy="-45" rx="4" ry="4"/>
</g>
</g>
</svg>
