<?xml version="1.0" encoding="UTF-8" standalone="no"?>
<!DOCTYPE svg PUBLIC "-//W3C//DTD SVG 1.1//EN"
 "http://www.w3.org/Graphics/SVG/1.1/DTD/svg11.dtd">
<!-- Generated by graphviz version 2.40.1 (20161225.0304)
 -->
<!-- Title: prolog Pages: 1 -->
<svg width="1330pt" height="528pt"
 viewBox="0.00 0.00 1330.00 528.00" xmlns="http://www.w3.org/2000/svg" xmlns:xlink="http://www.w3.org/1999/xlink">
<g id="graph0" class="graph" transform="scale(1 1) rotate(0) translate(4 524)">
<title>prolog</title>
<polygon fill="#ffffff" stroke="transparent" points="-4,4 -4,-524 1326,-524 1326,4 -4,4"/>
<g id="clust1" class="cluster">
<title>cluster_leftcol</title>
<polygon fill="none" stroke="#c0c0c0" points="8,-183 8,-255 312,-255 312,-183 8,-183"/>
<text text-anchor="start" x="146.663" y="-243" font-family="Helvetica,sans-Serif" font-style="italic" font-size="10.00" fill="#000000">ebuild</text>
</g>
<g id="clust2" class="cluster">
<title>cluster_midcol</title>
<polygon fill="none" stroke="#c0c0c0" points="396,-67 396,-393 926,-393 926,-67 396,-67"/>
<text text-anchor="start" x="629.875" y="-381" font-family="Helvetica,sans-Serif" font-style="italic" font-size="10.00" fill="#000000">dependencies</text>
</g>
<g id="clust5" class="cluster">
<title>cluster_run</title>
<polygon fill="#eeeeee" stroke="#c0c0c0" points="404,-75 404,-365 918,-365 918,-75 404,-75"/>
<text text-anchor="start" x="653.7765" y="-353" font-family="Helvetica,sans-Serif" font-style="italic" font-size="10.00" fill="#000000">run</text>
</g>
<g id="clust10" class="cluster">
<title>cluster_choices</title>
<polygon fill="none" stroke="#c0c0c0" points="1010,-8 1010,-512 1314,-512 1314,-8 1010,-8"/>
<text text-anchor="start" x="1137.824" y="-500" font-family="Helvetica,sans-Serif" font-style="italic" font-size="10.00" fill="#000000">candidates</text>
</g>
<!-- id -->
<g id="node1" class="node">
<title>id</title>
<g id="a_node1"><a xlink:href="../virtual/ffmpeg-9-r2.svg" xlink:title="portage://virtual/ffmpeg&#45;9&#45;r2">
<ellipse fill="none" stroke="#ff0000" cx="160" cy="-209" rx="144" ry="18"/>
<text text-anchor="middle" x="160" y="-206" font-family="Helvetica,sans-Serif" font-size="10.00" fill="#000000">portage://virtual/ffmpeg&#45;9&#45;r2</text>
</a>
</g>
</g>
<!-- dependency20869 -->
<g id="node2" class="node">
<title>dependency20869</title>
<polygon fill="none" stroke="#ff0000" points="420,-239 420,-283 511,-283 511,-239 420,-239"/>
<text text-anchor="start" x="430.7665" y="-258" font-family="Helvetica,sans-Serif" font-size="10.00" fill="#000000">use_conditional</text>
<polygon fill="none" stroke="#ff0000" points="511,-261 511,-283 558,-283 558,-261 511,-261"/>
<text text-anchor="start" x="515.6035" y="-269" font-family="Helvetica,sans-Serif" font-size="10.00" fill="#000000">negative</text>
<polygon fill="none" stroke="#ff0000" points="511,-239 511,-261 558,-261 558,-239 511,-239"/>
<text text-anchor="start" x="524.222" y="-247" font-family="Helvetica,sans-Serif" font-size="10.00" fill="#000000">libav</text>
</g>
<!-- id&#45;&gt;dependency20869 -->
<g id="edge2" class="edge">
<title>id:e&#45;&gt;dependency20869:w</title>
<path fill="none" stroke="#000000" d="M304,-209C354.4647,-209 358.4287,-255.6602 403.989,-260.5814"/>
<ellipse fill="none" stroke="#000000" cx="408.0054" cy="-260.7912" rx="4" ry="4"/>
</g>
<!-- dependency20871 -->
<g id="node4" class="node">
<title>dependency20871</title>
<polygon fill="none" stroke="#ff0000" points="422,-136 422,-180 513,-180 513,-136 422,-136"/>
<text text-anchor="start" x="432.7665" y="-155" font-family="Helvetica,sans-Serif" font-size="10.00" fill="#000000">use_conditional</text>
<polygon fill="none" stroke="#ff0000" points="513,-158 513,-180 556,-180 556,-158 513,-158"/>
<text text-anchor="start" x="517.553" y="-166" font-family="Helvetica,sans-Serif" font-size="10.00" fill="#000000">positive</text>
<polygon fill="none" stroke="#ff0000" points="513,-136 513,-158 556,-158 556,-136 513,-136"/>
<text text-anchor="start" x="524.222" y="-144" font-family="Helvetica,sans-Serif" font-size="10.00" fill="#000000">libav</text>
</g>
<!-- id&#45;&gt;dependency20871 -->
<g id="edge4" class="edge">
<title>id:e&#45;&gt;dependency20871:w</title>
<path fill="none" stroke="#000000" d="M304,-209C355.0461,-209 359.7339,-163.2371 405.8906,-158.4105"/>
<ellipse fill="none" stroke="#000000" cx="410.0051" cy="-158.2023" rx="4" ry="4"/>
</g>
<!-- dependency20870 -->
<g id="node3" class="node">
<title>dependency20870</title>
<polygon fill="none" stroke="#0000ff" points="682,-223 682,-333 787,-333 787,-223 682,-223"/>
<text text-anchor="start" x="712.823" y="-275" font-family="Helvetica,sans-Serif" font-size="10.00" fill="#000000">pack_dep</text>
<polygon fill="none" stroke="#0000ff" points="787,-311 787,-333 897,-333 897,-311 787,-311"/>
<text text-anchor="start" x="836.441" y="-319" font-family="Helvetica,sans-Serif" font-size="10.00" fill="#000000">no</text>
<polygon fill="none" stroke="#0000ff" points="787,-289 787,-311 897,-311 897,-289 787,-289"/>
<text text-anchor="start" x="814.775" y="-297" font-family="Helvetica,sans-Serif" font-size="10.00" fill="#000000">media&#45;video</text>
<polygon fill="none" stroke="#0000ff" points="787,-267 787,-289 897,-289 897,-267 787,-267"/>
<text text-anchor="start" x="826.718" y="-275" font-family="Helvetica,sans-Serif" font-size="10.00" fill="#000000">ffmpeg</text>
<polygon fill="none" stroke="#0000ff" points="787,-245 787,-267 897,-267 897,-245 787,-245"/>
<text text-anchor="start" x="813.936" y="-253" font-family="Helvetica,sans-Serif" font-size="10.00" fill="#000000">greaterequal</text>
<polygon fill="none" stroke="#0000ff" points="787,-223 787,-245 897,-245 897,-223 787,-223"/>
<text text-anchor="start" x="824.774" y="-231" font-family="Helvetica,sans-Serif" font-size="10.00" fill="#000000">1.2.6&#45;r1</text>
</g>
<!-- dependency20869&#45;&gt;dependency20870 -->
<g id="edge1" class="edge">
<title>dependency20869:e&#45;&gt;dependency20870:w</title>
<path fill="none" stroke="#000000" stroke-dasharray="5,2" d="M566,-261C610.9846,-261 623.5951,-275.5702 663.7742,-277.733"/>
<polygon fill="#000000" stroke="#000000" points="674,-278 663.8859,-282.2373 669.0017,-277.8694 664.0034,-277.7389 664.0034,-277.7389 664.0034,-277.7389 669.0017,-277.8694 664.1209,-273.2404 674,-278 674,-278"/>
</g>
<!-- choice1091011001059745118105100101111471021021091121011034557575757 -->
<g id="node6" class="node">
<title>choice1091011001059745118105100101111471021021091121011034557575757</title>
<g id="a_node6"><a xlink:href="../media-video/ffmpeg-9999.svg" xlink:title="portage://media&#45;video/ffmpeg&#45;9999">
<ellipse fill="none" stroke="#ff0000" cx="1162" cy="-466" rx="144" ry="18"/>
<text text-anchor="middle" x="1162" y="-463" font-family="Helvetica,sans-Serif" font-size="10.00" fill="#000000">portage://media&#45;video/ffmpeg&#45;9999</text>
</a>
</g>
</g>
<!-- dependency20870&#45;&gt;choice1091011001059745118105100101111471021021091121011034557575757 -->
<g id="edge5" class="edge">
<title>dependency20870:e&#45;&gt;choice1091011001059745118105100101111471021021091121011034557575757:w</title>
<path fill="none" stroke="#000000" stroke-dasharray="1,5" d="M910,-278C1002.7855,-278 927.6772,-452.3058 1008.0019,-465.2425"/>
<polygon fill="#000000" stroke="#000000" points="1018,-466 1007.6886,-469.7316 1013.0143,-465.6222 1008.0286,-465.2445 1008.0286,-465.2445 1008.0286,-465.2445 1013.0143,-465.6222 1008.3686,-460.7573 1018,-466 1018,-466"/>
</g>
<!-- choice109101100105974511810510010111147102102109112101103455246504650 -->
<g id="node7" class="node">
<title>choice109101100105974511810510010111147102102109112101103455246504650</title>
<g id="a_node7"><a xlink:href="../media-video/ffmpeg-4.2.2.svg" xlink:title="portage://media&#45;video/ffmpeg&#45;4.2.2">
<ellipse fill="none" stroke="#ff0000" cx="1162" cy="-412" rx="144" ry="18"/>
<text text-anchor="middle" x="1162" y="-409" font-family="Helvetica,sans-Serif" font-size="10.00" fill="#000000">portage://media&#45;video/ffmpeg&#45;4.2.2</text>
</a>
</g>
</g>
<!-- dependency20870&#45;&gt;choice109101100105974511810510010111147102102109112101103455246504650 -->
<g id="edge6" class="edge">
<title>dependency20870:e&#45;&gt;choice109101100105974511810510010111147102102109112101103455246504650:w</title>
<path fill="none" stroke="#000000" stroke-dasharray="1,5" d="M910,-278C982.9054,-278 945.4592,-399.7319 1008.0192,-411.1443"/>
<polygon fill="#000000" stroke="#000000" points="1018,-412 1007.6521,-415.6293 1013.0183,-411.5729 1008.0365,-411.1457 1008.0365,-411.1457 1008.0365,-411.1457 1013.0183,-411.5729 1008.421,-406.6621 1018,-412 1018,-412"/>
</g>
<!-- choice109101100105974511810510010111147102102109112101103455246504649 -->
<g id="node8" class="node">
<title>choice109101100105974511810510010111147102102109112101103455246504649</title>
<g id="a_node8"><a xlink:href="../media-video/ffmpeg-4.2.1.svg" xlink:title="portage://media&#45;video/ffmpeg&#45;4.2.1">
<ellipse fill="none" stroke="#ff0000" cx="1162" cy="-358" rx="144" ry="18"/>
<text text-anchor="middle" x="1162" y="-355" font-family="Helvetica,sans-Serif" font-size="10.00" fill="#000000">portage://media&#45;video/ffmpeg&#45;4.2.1</text>
</a>
</g>
</g>
<!-- dependency20870&#45;&gt;choice109101100105974511810510010111147102102109112101103455246504649 -->
<g id="edge7" class="edge">
<title>dependency20870:e&#45;&gt;choice109101100105974511810510010111147102102109112101103455246504649:w</title>
<path fill="none" stroke="#000000" stroke-dasharray="1,5" d="M910,-278C966.1177,-278 959.3934,-348.6058 1007.9013,-357.1557"/>
<polygon fill="#000000" stroke="#000000" points="1018,-358 1007.6598,-361.6511 1013.0174,-357.5834 1008.0348,-357.1668 1008.0348,-357.1668 1008.0348,-357.1668 1013.0174,-357.5834 1008.4097,-352.6824 1018,-358 1018,-358"/>
</g>
<!-- choice109101100105974511810510010111147102102109112101103455246494652 -->
<g id="node9" class="node">
<title>choice109101100105974511810510010111147102102109112101103455246494652</title>
<g id="a_node9"><a xlink:href="../media-video/ffmpeg-4.1.4.svg" xlink:title="portage://media&#45;video/ffmpeg&#45;4.1.4">
<ellipse fill="none" stroke="#ff0000" cx="1162" cy="-304" rx="144" ry="18"/>
<text text-anchor="middle" x="1162" y="-301" font-family="Helvetica,sans-Serif" font-size="10.00" fill="#000000">portage://media&#45;video/ffmpeg&#45;4.1.4</text>
</a>
</g>
</g>
<!-- dependency20870&#45;&gt;choice109101100105974511810510010111147102102109112101103455246494652 -->
<g id="edge8" class="edge">
<title>dependency20870:e&#45;&gt;choice109101100105974511810510010111147102102109112101103455246494652:w</title>
<path fill="none" stroke="#000000" stroke-dasharray="1,5" d="M910,-278C955.8035,-278 967.0812,-300.378 1007.8946,-303.6123"/>
<polygon fill="#000000" stroke="#000000" points="1018,-304 1007.8348,-308.1132 1013.0037,-303.8083 1008.0074,-303.6165 1008.0074,-303.6165 1008.0074,-303.6165 1013.0037,-303.8083 1008.1799,-299.1198 1018,-304 1018,-304"/>
</g>
<!-- choice109101100105974511810510010111147102102109112101103455246494651 -->
<g id="node10" class="node">
<title>choice109101100105974511810510010111147102102109112101103455246494651</title>
<g id="a_node10"><a xlink:href="../media-video/ffmpeg-4.1.3.svg" xlink:title="portage://media&#45;video/ffmpeg&#45;4.1.3">
<ellipse fill="none" stroke="#ff0000" cx="1162" cy="-250" rx="144" ry="18"/>
<text text-anchor="middle" x="1162" y="-247" font-family="Helvetica,sans-Serif" font-size="10.00" fill="#000000">portage://media&#45;video/ffmpeg&#45;4.1.3</text>
</a>
</g>
</g>
<!-- dependency20870&#45;&gt;choice109101100105974511810510010111147102102109112101103455246494651 -->
<g id="edge9" class="edge">
<title>dependency20870:e&#45;&gt;choice109101100105974511810510010111147102102109112101103455246494651:w</title>
<path fill="none" stroke="#000000" stroke-dasharray="1,5" d="M910,-278C956.0035,-278 966.9245,-253.9007 1007.8575,-250.4175"/>
<polygon fill="#000000" stroke="#000000" points="1018,-250 1008.1936,-254.9076 1013.0042,-250.2057 1008.0085,-250.4114 1008.0085,-250.4114 1008.0085,-250.4114 1013.0042,-250.2057 1007.8233,-245.9152 1018,-250 1018,-250"/>
</g>
<!-- choice1091011001059745118105100101111471021021091121011034551465246544511449 -->
<g id="node11" class="node">
<title>choice1091011001059745118105100101111471021021091121011034551465246544511449</title>
<g id="a_node11"><a xlink:href="../media-video/ffmpeg-3.4.6-r1.svg" xlink:title="portage://media&#45;video/ffmpeg&#45;3.4.6&#45;r1">
<ellipse fill="none" stroke="#ff0000" cx="1162" cy="-196" rx="144" ry="18"/>
<text text-anchor="middle" x="1162" y="-193" font-family="Helvetica,sans-Serif" font-size="10.00" fill="#000000">portage://media&#45;video/ffmpeg&#45;3.4.6&#45;r1</text>
</a>
</g>
</g>
<!-- dependency20870&#45;&gt;choice1091011001059745118105100101111471021021091121011034551465246544511449 -->
<g id="edge10" class="edge">
<title>dependency20870:e&#45;&gt;choice1091011001059745118105100101111471021021091121011034551465246544511449:w</title>
<path fill="none" stroke="#000000" stroke-dasharray="1,5" d="M910,-278C966.6187,-278 958.9834,-205.6291 1007.8213,-196.8654"/>
<polygon fill="#000000" stroke="#000000" points="1018,-196 1008.4172,-201.3311 1013.018,-196.4236 1008.0359,-196.8473 1008.0359,-196.8473 1008.0359,-196.8473 1013.018,-196.4236 1007.6547,-192.3634 1018,-196 1018,-196"/>
</g>
<!-- dependency20872 -->
<g id="node5" class="node">
<title>dependency20872</title>
<polygon fill="none" stroke="#0000ff" points="682,-87 682,-197 787,-197 787,-87 682,-87"/>
<text text-anchor="start" x="712.823" y="-139" font-family="Helvetica,sans-Serif" font-size="10.00" fill="#000000">pack_dep</text>
<polygon fill="none" stroke="#0000ff" points="787,-175 787,-197 897,-197 897,-175 787,-175"/>
<text text-anchor="start" x="836.441" y="-183" font-family="Helvetica,sans-Serif" font-size="10.00" fill="#000000">no</text>
<polygon fill="none" stroke="#0000ff" points="787,-153 787,-175 897,-175 897,-153 787,-153"/>
<text text-anchor="start" x="814.775" y="-161" font-family="Helvetica,sans-Serif" font-size="10.00" fill="#000000">media&#45;video</text>
<polygon fill="none" stroke="#0000ff" points="787,-131 787,-153 897,-153 897,-131 787,-131"/>
<text text-anchor="start" x="831.722" y="-139" font-family="Helvetica,sans-Serif" font-size="10.00" fill="#000000">libav</text>
<polygon fill="none" stroke="#0000ff" points="787,-109 787,-131 897,-131 897,-109 787,-109"/>
<text text-anchor="start" x="813.936" y="-117" font-family="Helvetica,sans-Serif" font-size="10.00" fill="#000000">greaterequal</text>
<polygon fill="none" stroke="#0000ff" points="787,-87 787,-109 897,-109 897,-87 787,-87"/>
<text text-anchor="start" x="832.272" y="-95" font-family="Helvetica,sans-Serif" font-size="10.00" fill="#000000">9.12</text>
</g>
<!-- dependency20871&#45;&gt;dependency20872 -->
<g id="edge3" class="edge">
<title>dependency20871:e&#45;&gt;dependency20872:w</title>
<path fill="none" stroke="#000000" stroke-dasharray="5,2" d="M564,-158C609.8332,-158 622.7793,-144.2289 663.8593,-142.2386"/>
<polygon fill="#000000" stroke="#000000" points="674,-142 664.1087,-146.7341 669.0014,-142.1177 664.0028,-142.2353 664.0028,-142.2353 664.0028,-142.2353 669.0014,-142.1177 663.8969,-137.7366 674,-142 674,-142"/>
</g>
<!-- choice10910110010597451181051001011114710810598971184557575757 -->
<g id="node12" class="node">
<title>choice10910110010597451181051001011114710810598971184557575757</title>
<g id="a_node12"><a xlink:href="../media-video/libav-9999.svg" xlink:title="portage://media&#45;video/libav&#45;9999">
<ellipse fill="none" stroke="#ff0000" cx="1162" cy="-142" rx="144" ry="18"/>
<text text-anchor="middle" x="1162" y="-139" font-family="Helvetica,sans-Serif" font-size="10.00" fill="#000000">portage://media&#45;video/libav&#45;9999</text>
</a>
</g>
</g>
<!-- dependency20872&#45;&gt;choice10910110010597451181051001011114710810598971184557575757 -->
<g id="edge11" class="edge">
<title>dependency20872:e&#45;&gt;choice10910110010597451181051001011114710810598971184557575757:w</title>
<path fill="none" stroke="#000000" stroke-dasharray="1,5" d="M910,-142C954.4375,-142 968.0204,-142 1007.878,-142"/>
<polygon fill="#000000" stroke="#000000" points="1018,-142 1008,-146.5001 1013,-142 1008,-142.0001 1008,-142.0001 1008,-142.0001 1013,-142 1008,-137.5001 1018,-142 1018,-142"/>
</g>
<!-- choice1091011001059745118105100101111471081059897118454951951121141015048495549504957 -->
<g id="node13" class="node">
<title>choice1091011001059745118105100101111471081059897118454951951121141015048495549504957</title>
<g id="a_node13"><a xlink:href="../media-video/libav-13_pre20171219.svg" xlink:title="portage://media&#45;video/libav&#45;13_pre20171219">
<ellipse fill="none" stroke="#ff0000" cx="1162" cy="-88" rx="144" ry="18"/>
<text text-anchor="middle" x="1162" y="-85" font-family="Helvetica,sans-Serif" font-size="10.00" fill="#000000">portage://media&#45;video/libav&#45;13_pre20171219</text>
</a>
</g>
</g>
<!-- dependency20872&#45;&gt;choice1091011001059745118105100101111471081059897118454951951121141015048495549504957 -->
<g id="edge12" class="edge">
<title>dependency20872:e&#45;&gt;choice1091011001059745118105100101111471081059897118454951951121141015048495549504957:w</title>
<path fill="none" stroke="#000000" stroke-dasharray="1,5" d="M910,-142C960.1019,-142 964.0118,-94.9337 1007.9789,-88.6828"/>
<polygon fill="#000000" stroke="#000000" points="1018,-88 1008.3291,-93.1694 1013.0116,-88.3399 1008.0231,-88.6798 1008.0231,-88.6798 1008.0231,-88.6798 1013.0116,-88.3399 1007.7172,-84.1902 1018,-88 1018,-88"/>
</g>
<!-- choice10910110010597451181051001011114710810598971184549504651 -->
<g id="node14" class="node">
<title>choice10910110010597451181051001011114710810598971184549504651</title>
<g id="a_node14"><a xlink:href="../media-video/libav-12.3.svg" xlink:title="portage://media&#45;video/libav&#45;12.3">
<ellipse fill="none" stroke="#ff0000" cx="1162" cy="-34" rx="144" ry="18"/>
<text text-anchor="middle" x="1162" y="-31" font-family="Helvetica,sans-Serif" font-size="10.00" fill="#000000">portage://media&#45;video/libav&#45;12.3</text>
</a>
</g>
</g>
<!-- dependency20872&#45;&gt;choice10910110010597451181051001011114710810598971184549504651 -->
<g id="edge13" class="edge">
<title>dependency20872:e&#45;&gt;choice10910110010597451181051001011114710810598971184549504651:w</title>
<path fill="none" stroke="#000000" stroke-dasharray="1,5" d="M910,-142C974.3025,-142 952.7801,-45.0903 1008.0307,-34.8693"/>
<polygon fill="#000000" stroke="#000000" points="1018,-34 1008.4288,-39.3518 1013.0189,-34.4344 1008.0378,-34.8688 1008.0378,-34.8688 1008.0378,-34.8688 1013.0189,-34.4344 1007.6468,-30.3858 1018,-34 1018,-34"/>
</g>
</g>
</svg>
