<?xml version="1.0" encoding="UTF-8" standalone="no"?>
<!DOCTYPE svg PUBLIC "-//W3C//DTD SVG 1.1//EN"
 "http://www.w3.org/Graphics/SVG/1.1/DTD/svg11.dtd">
<!-- Generated by graphviz version 2.39.20160721.2101 (20160721.2101)
 -->
<!-- Title: prolog Pages: 1 -->
<svg width="1887pt" height="213pt"
 viewBox="0.00 0.00 1887.00 213.00" xmlns="http://www.w3.org/2000/svg" xmlns:xlink="http://www.w3.org/1999/xlink">
<g id="graph0" class="graph" transform="scale(1 1) rotate(0) translate(4 209)">
<title>prolog</title>
<polygon fill="white" stroke="transparent" points="-4,4 -4,-209 1883,-209 1883,4 -4,4"/>
<g id="clust1" class="cluster">
<title>cluster_leftcol</title>
<polygon fill="none" stroke="gray" points="8,-62 8,-134 312,-134 312,-62 8,-62"/>
<text text-anchor="start" x="146.663" y="-122" font-family="Helvetica,sans-Serif" font-style="italic" font-size="10.00">ebuild</text>
</g>
<g id="clust2" class="cluster">
<title>cluster_midcol</title>
<polygon fill="none" stroke="gray" points="396,-19 396,-197 1483,-197 1483,-19 396,-19"/>
<text text-anchor="start" x="908.375" y="-185" font-family="Helvetica,sans-Serif" font-style="italic" font-size="10.00">dependencies</text>
</g>
<g id="clust5" class="cluster">
<title>cluster_run</title>
<polygon fill="#eeeeee" stroke="gray" points="404,-27 404,-169 1475,-169 1475,-27 404,-27"/>
<text text-anchor="start" x="932.277" y="-157" font-family="Helvetica,sans-Serif" font-style="italic" font-size="10.00">run</text>
</g>
<g id="clust10" class="cluster">
<title>cluster_choices</title>
<polygon fill="none" stroke="gray" points="1567,-8 1567,-188 1871,-188 1871,-8 1567,-8"/>
<text text-anchor="start" x="1694.82" y="-176" font-family="Helvetica,sans-Serif" font-style="italic" font-size="10.00">candidates</text>
</g>
<!-- id -->
<g id="node1" class="node">
<title>id</title>
<g id="a_node1"><a xlink:href="../virtual/libintl-0-r2.svg" xlink:title="virtual/libintl&#45;0&#45;r2">
<ellipse fill="none" stroke="red" cx="160" cy="-88" rx="144" ry="18"/>
<text text-anchor="middle" x="160" y="-85" font-family="Helvetica,sans-Serif" font-size="10.00">virtual/libintl&#45;0&#45;r2</text>
</a>
</g>
</g>
<!-- dependency497606 -->
<g id="node2" class="node">
<title>dependency497606</title>
<polygon fill="none" stroke="red" points="420.5,-66 420.5,-110 511.5,-110 511.5,-66 420.5,-66"/>
<text text-anchor="start" x="431.267" y="-85" font-family="Helvetica,sans-Serif" font-size="10.00">use_conditional</text>
<polygon fill="none" stroke="red" points="511.5,-88 511.5,-110 567.5,-110 567.5,-88 511.5,-88"/>
<text text-anchor="start" x="520.604" y="-96" font-family="Helvetica,sans-Serif" font-size="10.00">negative</text>
<polygon fill="none" stroke="red" points="511.5,-66 511.5,-88 567.5,-88 567.5,-66 511.5,-66"/>
<text text-anchor="start" x="516.164" y="-74" font-family="Helvetica,sans-Serif" font-size="10.00">elibc_glibc</text>
</g>
<!-- id&#45;&gt;dependency497606 -->
<g id="edge4" class="edge">
<title>id:e&#45;&gt;dependency497606:w</title>
<path fill="none" stroke="black" d="M304,-88C348.978,-88 362.199,-88 403.456,-88"/>
<ellipse fill="none" stroke="black" cx="407.5" cy="-88" rx="4" ry="4"/>
</g>
<!-- dependency497607 -->
<g id="node3" class="node">
<title>dependency497607</title>
<polygon fill="none" stroke="red" points="691,-66 691,-110 782,-110 782,-66 691,-66"/>
<text text-anchor="start" x="701.766" y="-85" font-family="Helvetica,sans-Serif" font-size="10.00">use_conditional</text>
<polygon fill="none" stroke="red" points="782,-88 782,-110 843,-110 843,-88 782,-88"/>
<text text-anchor="start" x="793.604" y="-96" font-family="Helvetica,sans-Serif" font-size="10.00">negative</text>
<polygon fill="none" stroke="red" points="782,-66 782,-88 843,-88 843,-66 782,-66"/>
<text text-anchor="start" x="786.664" y="-74" font-family="Helvetica,sans-Serif" font-size="10.00">elibc_uclibc</text>
</g>
<!-- dependency497606&#45;&gt;dependency497607 -->
<g id="edge3" class="edge">
<title>dependency497606:e&#45;&gt;dependency497607:w</title>
<path fill="none" stroke="black" stroke-dasharray="5,2" d="M575,-88C619.438,-88 633.02,-88 672.878,-88"/>
<polygon fill="black" stroke="black" points="683,-88 673,-92.5001 678,-88 673,-88.0001 673,-88.0001 673,-88.0001 678,-88 673,-83.5001 683,-88 683,-88"/>
</g>
<!-- dependency497608 -->
<g id="node4" class="node">
<title>dependency497608</title>
<polygon fill="none" stroke="red" points="967,-66 967,-110 1058,-110 1058,-66 967,-66"/>
<text text-anchor="start" x="977.766" y="-85" font-family="Helvetica,sans-Serif" font-size="10.00">use_conditional</text>
<polygon fill="none" stroke="red" points="1058,-88 1058,-110 1115,-110 1115,-88 1058,-88"/>
<text text-anchor="start" x="1067.6" y="-96" font-family="Helvetica,sans-Serif" font-size="10.00">negative</text>
<polygon fill="none" stroke="red" points="1058,-66 1058,-88 1115,-88 1115,-66 1058,-66"/>
<text text-anchor="start" x="1062.89" y="-74" font-family="Helvetica,sans-Serif" font-size="10.00">elibc_musl</text>
</g>
<!-- dependency497607&#45;&gt;dependency497608 -->
<g id="edge2" class="edge">
<title>dependency497607:e&#45;&gt;dependency497608:w</title>
<path fill="none" stroke="black" stroke-dasharray="5,2" d="M851,-88C895.438,-88 909.02,-88 948.878,-88"/>
<polygon fill="black" stroke="black" points="959,-88 949,-92.5001 954,-88 949,-88.0001 949,-88.0001 949,-88.0001 954,-88 949,-83.5001 959,-88 959,-88"/>
</g>
<!-- dependency497609 -->
<g id="node5" class="node">
<title>dependency497609</title>
<polygon fill="none" stroke="blue" points="1239,-39 1239,-137 1344,-137 1344,-39 1239,-39"/>
<text text-anchor="start" x="1269.82" y="-85" font-family="Helvetica,sans-Serif" font-size="10.00">pack_dep</text>
<polygon fill="none" stroke="blue" points="1344,-115 1344,-137 1454,-137 1454,-115 1344,-115"/>
<text text-anchor="start" x="1393.44" y="-123" font-family="Helvetica,sans-Serif" font-size="10.00">no</text>
<polygon fill="none" stroke="blue" points="1344,-93 1344,-115 1454,-115 1454,-93 1344,-93"/>
<text text-anchor="start" x="1381.78" y="-101" font-family="Helvetica,sans-Serif" font-size="10.00">dev&#45;libs</text>
<polygon fill="none" stroke="blue" points="1344,-71 1344,-93 1454,-93 1454,-71 1344,-71"/>
<text text-anchor="start" x="1387.61" y="-79" font-family="Helvetica,sans-Serif" font-size="10.00">libintl</text>
<polygon fill="none" stroke="blue" points="1344,-49 1344,-71 1454,-71 1454,-49 1344,-49"/>
<text text-anchor="start" x="1387.88" y="-57" font-family="Helvetica,sans-Serif" font-size="10.00">none</text>
<polygon fill="none" stroke="blue" points="1344,-39 1344,-49 1454,-49 1454,-39 1344,-39"/>
</g>
<!-- dependency497608&#45;&gt;dependency497609 -->
<g id="edge1" class="edge">
<title>dependency497608:e&#45;&gt;dependency497609:w</title>
<path fill="none" stroke="black" stroke-dasharray="5,2" d="M1123,-88C1167.44,-88 1181.02,-88 1220.88,-88"/>
<polygon fill="black" stroke="black" points="1231,-88 1221,-92.5001 1226,-88 1221,-88.0001 1221,-88.0001 1221,-88.0001 1226,-88 1221,-83.5001 1231,-88 1231,-88"/>
</g>
<!-- choice1001011184510810598115471081059810511011610845484649574654 -->
<g id="node6" class="node">
<title>choice1001011184510810598115471081059810511011610845484649574654</title>
<g id="a_node6"><a xlink:href="../dev-libs/libintl-0.19.6.svg" xlink:title="dev&#45;libs/libintl&#45;0.19.6">
<ellipse fill="none" stroke="red" cx="1719" cy="-142" rx="144" ry="18"/>
<text text-anchor="middle" x="1719" y="-139" font-family="Helvetica,sans-Serif" font-size="10.00">dev&#45;libs/libintl&#45;0.19.6</text>
</a>
</g>
</g>
<!-- dependency497609&#45;&gt;choice1001011184510810598115471081059810511011610845484649574654 -->
<g id="edge5" class="edge">
<title>dependency497609:e&#45;&gt;choice1001011184510810598115471081059810511011610845484649574654:w</title>
<path fill="none" stroke="black" stroke-dasharray="1,5" d="M1467,-88C1517.1,-88 1521.01,-135.066 1564.98,-141.317"/>
<polygon fill="black" stroke="black" points="1575,-142 1564.72,-145.81 1570.01,-141.66 1565.02,-141.32 1565.02,-141.32 1565.02,-141.32 1570.01,-141.66 1565.33,-136.831 1575,-142 1575,-142"/>
</g>
<!-- choice1001011184510810598115471081059810511011610845484649574655 -->
<g id="node7" class="node">
<title>choice1001011184510810598115471081059810511011610845484649574655</title>
<g id="a_node7"><a xlink:href="../dev-libs/libintl-0.19.7.svg" xlink:title="dev&#45;libs/libintl&#45;0.19.7">
<ellipse fill="none" stroke="red" cx="1719" cy="-88" rx="144" ry="18"/>
<text text-anchor="middle" x="1719" y="-85" font-family="Helvetica,sans-Serif" font-size="10.00">dev&#45;libs/libintl&#45;0.19.7</text>
</a>
</g>
</g>
<!-- dependency497609&#45;&gt;choice1001011184510810598115471081059810511011610845484649574655 -->
<g id="edge6" class="edge">
<title>dependency497609:e&#45;&gt;choice1001011184510810598115471081059810511011610845484649574655:w</title>
<path fill="none" stroke="black" stroke-dasharray="1,5" d="M1467,-88C1511.44,-88 1525.02,-88 1564.88,-88"/>
<polygon fill="black" stroke="black" points="1575,-88 1565,-92.5001 1570,-88 1565,-88.0001 1565,-88.0001 1565,-88.0001 1570,-88 1565,-83.5001 1575,-88 1575,-88"/>
</g>
<!-- choice10010111845108105981154710810598105110116108454846495746564649 -->
<g id="node8" class="node">
<title>choice10010111845108105981154710810598105110116108454846495746564649</title>
<g id="a_node8"><a xlink:href="../dev-libs/libintl-0.19.8.1.svg" xlink:title="dev&#45;libs/libintl&#45;0.19.8.1">
<ellipse fill="none" stroke="red" cx="1719" cy="-34" rx="144" ry="18"/>
<text text-anchor="middle" x="1719" y="-31" font-family="Helvetica,sans-Serif" font-size="10.00">dev&#45;libs/libintl&#45;0.19.8.1</text>
</a>
</g>
</g>
<!-- dependency497609&#45;&gt;choice10010111845108105981154710810598105110116108454846495746564649 -->
<g id="edge7" class="edge">
<title>dependency497609:e&#45;&gt;choice10010111845108105981154710810598105110116108454846495746564649:w</title>
<path fill="none" stroke="black" stroke-dasharray="1,5" d="M1467,-88C1517.1,-88 1521.01,-40.9337 1564.98,-34.6828"/>
<polygon fill="black" stroke="black" points="1575,-34 1565.33,-39.1694 1570.01,-34.3399 1565.02,-34.6798 1565.02,-34.6798 1565.02,-34.6798 1570.01,-34.3399 1564.72,-30.1902 1575,-34 1575,-34"/>
</g>
</g>
</svg>
