<?xml version="1.0" encoding="UTF-8" standalone="no"?>
<!DOCTYPE svg PUBLIC "-//W3C//DTD SVG 1.1//EN"
 "http://www.w3.org/Graphics/SVG/1.1/DTD/svg11.dtd">
<!-- Generated by graphviz version 2.41.20171026.1811 (20171026.1811)
 -->
<!-- Title: prolog Pages: 1 -->
<svg width="1411pt" height="813pt"
 viewBox="0.00 0.00 1411.00 813.00" xmlns="http://www.w3.org/2000/svg" xmlns:xlink="http://www.w3.org/1999/xlink">
<g id="graph0" class="graph" transform="scale(1 1) rotate(0) translate(4 809)">
<title>prolog</title>
<polygon fill="white" stroke="transparent" points="-4,4 -4,-809 1407,-809 1407,4 -4,4"/>
<g id="clust1" class="cluster">
<title>cluster_leftcol</title>
<polygon fill="none" stroke="gray" points="8,-428 8,-498 312,-498 312,-428 8,-428"/>
<text text-anchor="start" x="146.66" y="-487" font-family="Helvetica,sans-Serif" font-style="italic" font-size="10.00">ebuild</text>
</g>
<g id="clust2" class="cluster">
<title>cluster_midcol</title>
<polygon fill="none" stroke="gray" points="396,-21 396,-797 1007,-797 1007,-21 396,-21"/>
<text text-anchor="start" x="670.36" y="-786" font-family="Helvetica,sans-Serif" font-style="italic" font-size="10.00">dependencies</text>
</g>
<g id="clust5" class="cluster">
<title>cluster_run</title>
<polygon fill="#eeeeee" stroke="gray" points="404,-29 404,-771 999,-771 999,-29 404,-29"/>
<text text-anchor="start" x="694.27" y="-760" font-family="Helvetica,sans-Serif" font-style="italic" font-size="10.00">run</text>
</g>
<g id="clust16" class="cluster">
<title>cluster_choices</title>
<polygon fill="none" stroke="gray" points="1091,-8 1091,-672 1395,-672 1395,-8 1091,-8"/>
<text text-anchor="start" x="1218.82" y="-661" font-family="Helvetica,sans-Serif" font-style="italic" font-size="10.00">candidates</text>
</g>
<!-- id -->
<g id="node1" class="node">
<title>id</title>
<g id="a_node1"><a xlink:href="../virtual/python-dnspython-2.svg" xlink:title="virtual/python&#45;dnspython&#45;2">
<ellipse fill="none" stroke="red" cx="160" cy="-454" rx="144" ry="18"/>
<text text-anchor="middle" x="160" y="-451" font-family="Helvetica,sans-Serif" font-size="10.00">virtual/python&#45;dnspython&#45;2</text>
</a>
</g>
</g>
<!-- dependency498957 -->
<g id="node2" class="node">
<title>dependency498957</title>
<polygon fill="none" stroke="red" points="420.5,-631 420.5,-671 511.5,-671 511.5,-631 420.5,-631"/>
<text text-anchor="start" x="431.25" y="-648" font-family="Helvetica,sans-Serif" font-size="10.00">use_conditional</text>
<polygon fill="none" stroke="red" points="511.5,-651 511.5,-671 639.5,-671 639.5,-651 511.5,-651"/>
<text text-anchor="start" x="558.55" y="-658" font-family="Helvetica,sans-Serif" font-size="10.00">positive</text>
<polygon fill="none" stroke="red" points="511.5,-631 511.5,-651 639.5,-651 639.5,-631 511.5,-631"/>
<text text-anchor="start" x="516.29" y="-638" font-family="Helvetica,sans-Serif" font-size="10.00">python_targets_python2_7</text>
</g>
<!-- id&#45;&gt;dependency498957 -->
<g id="edge2" class="edge">
<title>id:e&#45;&gt;dependency498957:w</title>
<path fill="none" stroke="black" d="M305,-454C401.41,-454 316.47,-639.63 402.26,-650.5"/>
<ellipse fill="none" stroke="black" cx="406.51" cy="-650.76" rx="4" ry="4"/>
</g>
<!-- dependency498959 -->
<g id="node4" class="node">
<title>dependency498959</title>
<polygon fill="none" stroke="red" points="420.5,-525 420.5,-565 511.5,-565 511.5,-525 420.5,-525"/>
<text text-anchor="start" x="431.25" y="-542" font-family="Helvetica,sans-Serif" font-size="10.00">use_conditional</text>
<polygon fill="none" stroke="red" points="511.5,-545 511.5,-565 639.5,-565 639.5,-545 511.5,-545"/>
<text text-anchor="start" x="558.55" y="-552" font-family="Helvetica,sans-Serif" font-size="10.00">positive</text>
<polygon fill="none" stroke="red" points="511.5,-525 511.5,-545 639.5,-545 639.5,-525 511.5,-525"/>
<text text-anchor="start" x="516.29" y="-532" font-family="Helvetica,sans-Serif" font-size="10.00">python_targets_python3_4</text>
</g>
<!-- id&#45;&gt;dependency498959 -->
<g id="edge4" class="edge">
<title>id:e&#45;&gt;dependency498959:w</title>
<path fill="none" stroke="black" d="M305,-454C364.02,-454 350.12,-536.67 402.3,-544.42"/>
<ellipse fill="none" stroke="black" cx="406.51" cy="-544.72" rx="4" ry="4"/>
</g>
<!-- dependency498961 -->
<g id="node6" class="node">
<title>dependency498961</title>
<polygon fill="none" stroke="red" points="420.5,-434 420.5,-474 511.5,-474 511.5,-434 420.5,-434"/>
<text text-anchor="start" x="431.25" y="-451" font-family="Helvetica,sans-Serif" font-size="10.00">use_conditional</text>
<polygon fill="none" stroke="red" points="511.5,-454 511.5,-474 639.5,-474 639.5,-454 511.5,-454"/>
<text text-anchor="start" x="558.55" y="-461" font-family="Helvetica,sans-Serif" font-size="10.00">positive</text>
<polygon fill="none" stroke="red" points="511.5,-434 511.5,-454 639.5,-454 639.5,-434 511.5,-434"/>
<text text-anchor="start" x="516.29" y="-441" font-family="Helvetica,sans-Serif" font-size="10.00">python_targets_python3_5</text>
</g>
<!-- id&#45;&gt;dependency498961 -->
<g id="edge6" class="edge">
<title>id:e&#45;&gt;dependency498961:w</title>
<path fill="none" stroke="black" d="M305,-454C349.05,-454 362.06,-454 402.35,-454"/>
<ellipse fill="none" stroke="black" cx="406.5" cy="-454" rx="4" ry="4"/>
</g>
<!-- dependency498963 -->
<g id="node8" class="node">
<title>dependency498963</title>
<polygon fill="none" stroke="red" points="420.5,-343 420.5,-383 511.5,-383 511.5,-343 420.5,-343"/>
<text text-anchor="start" x="431.25" y="-360" font-family="Helvetica,sans-Serif" font-size="10.00">use_conditional</text>
<polygon fill="none" stroke="red" points="511.5,-363 511.5,-383 639.5,-383 639.5,-363 511.5,-363"/>
<text text-anchor="start" x="558.55" y="-370" font-family="Helvetica,sans-Serif" font-size="10.00">positive</text>
<polygon fill="none" stroke="red" points="511.5,-343 511.5,-363 639.5,-363 639.5,-343 511.5,-343"/>
<text text-anchor="start" x="516.29" y="-350" font-family="Helvetica,sans-Serif" font-size="10.00">python_targets_python3_6</text>
</g>
<!-- id&#45;&gt;dependency498963 -->
<g id="edge8" class="edge">
<title>id:e&#45;&gt;dependency498963:w</title>
<path fill="none" stroke="black" d="M305,-454C364.02,-454 350.12,-371.33 402.3,-363.58"/>
<ellipse fill="none" stroke="black" cx="406.51" cy="-363.28" rx="4" ry="4"/>
</g>
<!-- dependency498965 -->
<g id="node10" class="node">
<title>dependency498965</title>
<polygon fill="none" stroke="blue" points="763,-167 763,-267 868,-267 868,-167 763,-167"/>
<text text-anchor="start" x="793.82" y="-214" font-family="Helvetica,sans-Serif" font-size="10.00">pack_dep</text>
<polygon fill="none" stroke="blue" points="868,-247 868,-267 978,-267 978,-247 868,-247"/>
<text text-anchor="start" x="917.44" y="-254" font-family="Helvetica,sans-Serif" font-size="10.00">no</text>
<polygon fill="none" stroke="blue" points="868,-227 868,-247 978,-247 978,-227 868,-227"/>
<text text-anchor="start" x="903.82" y="-234" font-family="Helvetica,sans-Serif" font-size="10.00">dev&#45;lang</text>
<polygon fill="none" stroke="blue" points="868,-207 868,-227 978,-227 978,-207 868,-207"/>
<text text-anchor="start" x="895.76" y="-214" font-family="Helvetica,sans-Serif" font-size="10.00">python&#45;exec</text>
<polygon fill="none" stroke="blue" points="868,-187 868,-207 978,-207 978,-187 868,-187"/>
<text text-anchor="start" x="894.92" y="-194" font-family="Helvetica,sans-Serif" font-size="10.00">greaterequal</text>
<polygon fill="none" stroke="blue" points="868,-167 868,-187 978,-187 978,-167 868,-167"/>
<text text-anchor="start" x="920.22" y="-174" font-family="Helvetica,sans-Serif" font-size="10.00">2</text>
</g>
<!-- id&#45;&gt;dependency498965 -->
<g id="edge9" class="edge">
<title>id:e&#45;&gt;dependency498965:w</title>
<path fill="none" stroke="black" d="M530.5,-217C620.78,-181.38 653.43,-215.05 746.96,-216.92"/>
<ellipse fill="none" stroke="black" cx="751" cy="-216.96" rx="4" ry="4"/>
</g>
<!-- dependency498966 -->
<g id="node11" class="node">
<title>dependency498966</title>
<polygon fill="none" stroke="blue" points="763,-41 763,-141 868,-141 868,-41 763,-41"/>
<text text-anchor="start" x="793.82" y="-88" font-family="Helvetica,sans-Serif" font-size="10.00">pack_dep</text>
<polygon fill="none" stroke="blue" points="868,-121 868,-141 978,-141 978,-121 868,-121"/>
<text text-anchor="start" x="917.44" y="-128" font-family="Helvetica,sans-Serif" font-size="10.00">no</text>
<polygon fill="none" stroke="blue" points="868,-101 868,-121 978,-121 978,-101 868,-101"/>
<text text-anchor="start" x="898.26" y="-108" font-family="Helvetica,sans-Serif" font-size="10.00">dev&#45;python</text>
<polygon fill="none" stroke="blue" points="868,-81 868,-101 978,-101 978,-81 868,-81"/>
<text text-anchor="start" x="899.93" y="-88" font-family="Helvetica,sans-Serif" font-size="10.00">dnspython</text>
<polygon fill="none" stroke="blue" points="868,-61 868,-81 978,-81 978,-61 868,-61"/>
<text text-anchor="start" x="894.92" y="-68" font-family="Helvetica,sans-Serif" font-size="10.00">greaterequal</text>
<polygon fill="none" stroke="blue" points="868,-41 868,-61 978,-61 978,-41 868,-41"/>
<text text-anchor="start" x="909.1" y="-48" font-family="Helvetica,sans-Serif" font-size="10.00">1.15.0</text>
</g>
<!-- id&#45;&gt;dependency498966 -->
<g id="edge10" class="edge">
<title>id:e&#45;&gt;dependency498966:w</title>
<path fill="none" stroke="black" d="M530.5,-217C634.33,-176.03 640.34,-95.08 746.81,-91.15"/>
<ellipse fill="none" stroke="black" cx="751" cy="-91.07" rx="4" ry="4"/>
<path fill="none" stroke="black" d="M305,-454C373.36,-454 349.46,-380.07 396,-330 448.69,-273.31 456.51,-245.41 528.5,-217"/>
</g>
<!-- dependency498958 -->
<g id="node3" class="node">
<title>dependency498958</title>
<polygon fill="none" stroke="blue" points="763,-641 763,-741 868,-741 868,-641 763,-641"/>
<text text-anchor="start" x="793.82" y="-688" font-family="Helvetica,sans-Serif" font-size="10.00">pack_dep</text>
<polygon fill="none" stroke="blue" points="868,-721 868,-741 978,-741 978,-721 868,-721"/>
<text text-anchor="start" x="917.44" y="-728" font-family="Helvetica,sans-Serif" font-size="10.00">no</text>
<polygon fill="none" stroke="blue" points="868,-701 868,-721 978,-721 978,-701 868,-701"/>
<text text-anchor="start" x="903.82" y="-708" font-family="Helvetica,sans-Serif" font-size="10.00">dev&#45;lang</text>
<polygon fill="none" stroke="blue" points="868,-681 868,-701 978,-701 978,-681 868,-681"/>
<text text-anchor="start" x="907.99" y="-688" font-family="Helvetica,sans-Serif" font-size="10.00">python</text>
<polygon fill="none" stroke="blue" points="868,-661 868,-681 978,-681 978,-661 868,-661"/>
<text text-anchor="start" x="894.92" y="-668" font-family="Helvetica,sans-Serif" font-size="10.00">greaterequal</text>
<polygon fill="none" stroke="blue" points="868,-641 868,-661 978,-661 978,-641 868,-641"/>
<text text-anchor="start" x="905.77" y="-648" font-family="Helvetica,sans-Serif" font-size="10.00">2.7.5&#45;r2</text>
</g>
<!-- dependency498957&#45;&gt;dependency498958 -->
<g id="edge1" class="edge">
<title>dependency498957:e&#45;&gt;dependency498958:w</title>
<path fill="none" stroke="black" stroke-dasharray="5,2" d="M647,-651C694.59,-651 702.8,-685.57 744.85,-690.43"/>
<polygon fill="black" stroke="black" points="755,-691 744.77,-694.94 750.01,-690.72 745.02,-690.44 745.02,-690.44 745.02,-690.44 750.01,-690.72 745.27,-685.95 755,-691 755,-691"/>
</g>
<!-- choice10010111845108971101034711212111610411111045504655464950 -->
<g id="node12" class="node">
<title>choice10010111845108971101034711212111610411111045504655464950</title>
<g id="a_node12"><a xlink:href="../dev-lang/python-2.7.12.svg" xlink:title="dev&#45;lang/python&#45;2.7.12">
<ellipse fill="none" stroke="red" cx="1243" cy="-520" rx="144" ry="18"/>
<text text-anchor="middle" x="1243" y="-517" font-family="Helvetica,sans-Serif" font-size="10.00">dev&#45;lang/python&#45;2.7.12</text>
</a>
</g>
</g>
<!-- dependency498958&#45;&gt;choice10010111845108971101034711212111610411111045504655464950 -->
<g id="edge11" class="edge">
<title>dependency498958:e&#45;&gt;choice10010111845108971101034711212111610411111045504655464950:w</title>
<path fill="none" stroke="black" stroke-dasharray="1,5" d="M992,-691C1077.75,-691 1014.28,-533.74 1087.79,-520.84"/>
<polygon fill="black" stroke="black" points="1098,-520 1088.4,-525.3 1093.02,-520.41 1088.03,-520.82 1088.03,-520.82 1088.03,-520.82 1093.02,-520.41 1087.66,-516.33 1098,-520 1098,-520"/>
</g>
<!-- choice10010111845108971101034711212111610411111045504655464952 -->
<g id="node13" class="node">
<title>choice10010111845108971101034711212111610411111045504655464952</title>
<g id="a_node13"><a xlink:href="../dev-lang/python-2.7.14.svg" xlink:title="dev&#45;lang/python&#45;2.7.14">
<ellipse fill="none" stroke="red" cx="1243" cy="-466" rx="144" ry="18"/>
<text text-anchor="middle" x="1243" y="-463" font-family="Helvetica,sans-Serif" font-size="10.00">dev&#45;lang/python&#45;2.7.14</text>
</a>
</g>
</g>
<!-- dependency498958&#45;&gt;choice10010111845108971101034711212111610411111045504655464952 -->
<g id="edge12" class="edge">
<title>dependency498958:e&#45;&gt;choice10010111845108971101034711212111610411111045504655464952:w</title>
<path fill="none" stroke="black" stroke-dasharray="1,5" d="M992,-691C1098.98,-691 994.64,-480.27 1088,-466.69"/>
<polygon fill="black" stroke="black" points="1098,-466 1088.33,-471.17 1093.01,-466.34 1088.02,-466.68 1088.02,-466.68 1088.02,-466.68 1093.01,-466.34 1087.72,-462.2 1098,-466 1098,-466"/>
</g>
<!-- choice100101118451089711010347112121116104111110455146524653 -->
<g id="node14" class="node">
<title>choice100101118451089711010347112121116104111110455146524653</title>
<g id="a_node14"><a xlink:href="../dev-lang/python-3.4.5.svg" xlink:title="dev&#45;lang/python&#45;3.4.5">
<ellipse fill="none" stroke="red" cx="1243" cy="-412" rx="144" ry="18"/>
<text text-anchor="middle" x="1243" y="-409" font-family="Helvetica,sans-Serif" font-size="10.00">dev&#45;lang/python&#45;3.4.5</text>
</a>
</g>
</g>
<!-- dependency498958&#45;&gt;choice100101118451089711010347112121116104111110455146524653 -->
<g id="edge13" class="edge">
<title>dependency498958:e&#45;&gt;choice100101118451089711010347112121116104111110455146524653:w</title>
<path fill="none" stroke="black" stroke-dasharray="1,5" d="M992,-691C1121.02,-691 973.85,-427.05 1087.76,-412.61"/>
<polygon fill="black" stroke="black" points="1098,-412 1088.29,-417.09 1093.01,-412.3 1088.02,-412.6 1088.02,-412.6 1088.02,-412.6 1093.01,-412.3 1087.75,-408.11 1098,-412 1098,-412"/>
</g>
<!-- choice100101118451089711010347112121116104111110455146524654 -->
<g id="node15" class="node">
<title>choice100101118451089711010347112121116104111110455146524654</title>
<g id="a_node15"><a xlink:href="../dev-lang/python-3.4.6.svg" xlink:title="dev&#45;lang/python&#45;3.4.6">
<ellipse fill="none" stroke="red" cx="1243" cy="-358" rx="144" ry="18"/>
<text text-anchor="middle" x="1243" y="-355" font-family="Helvetica,sans-Serif" font-size="10.00">dev&#45;lang/python&#45;3.4.6</text>
</a>
</g>
</g>
<!-- dependency498958&#45;&gt;choice100101118451089711010347112121116104111110455146524654 -->
<g id="edge14" class="edge">
<title>dependency498958:e&#45;&gt;choice100101118451089711010347112121116104111110455146524654:w</title>
<path fill="none" stroke="black" stroke-dasharray="1,5" d="M992,-691C1143.68,-691 952.08,-373.43 1087.66,-358.54"/>
<polygon fill="black" stroke="black" points="1098,-358 1088.25,-363.02 1093.01,-358.26 1088.01,-358.52 1088.01,-358.52 1088.01,-358.52 1093.01,-358.26 1087.78,-354.03 1098,-358 1098,-358"/>
</g>
<!-- choice100101118451089711010347112121116104111110455146534652 -->
<g id="node16" class="node">
<title>choice100101118451089711010347112121116104111110455146534652</title>
<g id="a_node16"><a xlink:href="../dev-lang/python-3.5.4.svg" xlink:title="dev&#45;lang/python&#45;3.5.4">
<ellipse fill="none" stroke="red" cx="1243" cy="-628" rx="144" ry="18"/>
<text text-anchor="middle" x="1243" y="-625" font-family="Helvetica,sans-Serif" font-size="10.00">dev&#45;lang/python&#45;3.5.4</text>
</a>
</g>
</g>
<!-- dependency498958&#45;&gt;choice100101118451089711010347112121116104111110455146534652 -->
<g id="edge15" class="edge">
<title>dependency498958:e&#45;&gt;choice100101118451089711010347112121116104111110455146534652:w</title>
<path fill="none" stroke="black" stroke-dasharray="1,5" d="M992,-691C1043.16,-691 1043.42,-636.09 1087.82,-628.8"/>
<polygon fill="black" stroke="black" points="1098,-628 1088.38,-633.27 1093.02,-628.39 1088.03,-628.78 1088.03,-628.78 1088.03,-628.78 1093.02,-628.39 1087.68,-624.29 1098,-628 1098,-628"/>
</g>
<!-- choice100101118451089711010347112121116104111110455146544651 -->
<g id="node17" class="node">
<title>choice100101118451089711010347112121116104111110455146544651</title>
<g id="a_node17"><a xlink:href="../dev-lang/python-3.6.3.svg" xlink:title="dev&#45;lang/python&#45;3.6.3">
<ellipse fill="none" stroke="red" cx="1243" cy="-574" rx="144" ry="18"/>
<text text-anchor="middle" x="1243" y="-571" font-family="Helvetica,sans-Serif" font-size="10.00">dev&#45;lang/python&#45;3.6.3</text>
</a>
</g>
</g>
<!-- dependency498958&#45;&gt;choice100101118451089711010347112121116104111110455146544651 -->
<g id="edge16" class="edge">
<title>dependency498958:e&#45;&gt;choice100101118451089711010347112121116104111110455146544651:w</title>
<path fill="none" stroke="black" stroke-dasharray="1,5" d="M992,-691C1058.47,-691 1031.16,-586.01 1087.74,-574.94"/>
<polygon fill="black" stroke="black" points="1098,-574 1088.45,-579.4 1093.02,-574.46 1088.04,-574.91 1088.04,-574.91 1088.04,-574.91 1093.02,-574.46 1087.63,-570.43 1098,-574 1098,-574"/>
</g>
<!-- dependency498960 -->
<g id="node5" class="node">
<title>dependency498960</title>
<polygon fill="none" stroke="blue" points="763,-525 763,-615 868,-615 868,-525 763,-525"/>
<text text-anchor="start" x="793.82" y="-567" font-family="Helvetica,sans-Serif" font-size="10.00">pack_dep</text>
<polygon fill="none" stroke="blue" points="868,-595 868,-615 978,-615 978,-595 868,-595"/>
<text text-anchor="start" x="917.44" y="-602" font-family="Helvetica,sans-Serif" font-size="10.00">no</text>
<polygon fill="none" stroke="blue" points="868,-575 868,-595 978,-595 978,-575 868,-575"/>
<text text-anchor="start" x="903.82" y="-582" font-family="Helvetica,sans-Serif" font-size="10.00">dev&#45;lang</text>
<polygon fill="none" stroke="blue" points="868,-555 868,-575 978,-575 978,-555 868,-555"/>
<text text-anchor="start" x="907.99" y="-562" font-family="Helvetica,sans-Serif" font-size="10.00">python</text>
<polygon fill="none" stroke="blue" points="868,-535 868,-555 978,-555 978,-535 868,-535"/>
<text text-anchor="start" x="911.88" y="-542" font-family="Helvetica,sans-Serif" font-size="10.00">none</text>
<polygon fill="none" stroke="blue" points="868,-525 868,-535 978,-535 978,-525 868,-525"/>
</g>
<!-- dependency498959&#45;&gt;dependency498960 -->
<g id="edge3" class="edge">
<title>dependency498959:e&#45;&gt;dependency498960:w</title>
<path fill="none" stroke="black" stroke-dasharray="5,2" d="M647,-545C692.71,-545 704.16,-566.52 744.91,-569.63"/>
<polygon fill="black" stroke="black" points="755,-570 744.84,-574.13 750,-569.82 745.01,-569.63 745.01,-569.63 745.01,-569.63 750,-569.82 745.17,-565.13 755,-570 755,-570"/>
</g>
<!-- dependency498960&#45;&gt;choice10010111845108971101034711212111610411111045504655464950 -->
<g id="edge17" class="edge">
<title>dependency498960:e&#45;&gt;choice10010111845108971101034711212111610411111045504655464950:w</title>
<path fill="none" stroke="black" stroke-dasharray="1,5" d="M992,-570C1040.53,-570 1045.43,-526.6 1087.99,-520.67"/>
<polygon fill="black" stroke="black" points="1098,-520 1088.32,-525.16 1093.01,-520.33 1088.02,-520.67 1088.02,-520.67 1088.02,-520.67 1093.01,-520.33 1087.72,-516.18 1098,-520 1098,-520"/>
</g>
<!-- dependency498960&#45;&gt;choice10010111845108971101034711212111610411111045504655464952 -->
<g id="edge18" class="edge">
<title>dependency498960:e&#45;&gt;choice10010111845108971101034711212111610411111045504655464952:w</title>
<path fill="none" stroke="black" stroke-dasharray="1,5" d="M992,-570C1054.39,-570 1034.57,-477.06 1087.97,-466.9"/>
<polygon fill="black" stroke="black" points="1098,-466 1088.44,-471.37 1093.02,-466.45 1088.04,-466.89 1088.04,-466.89 1088.04,-466.89 1093.02,-466.45 1087.64,-462.41 1098,-466 1098,-466"/>
</g>
<!-- dependency498960&#45;&gt;choice100101118451089711010347112121116104111110455146524653 -->
<g id="edge19" class="edge">
<title>dependency498960:e&#45;&gt;choice100101118451089711010347112121116104111110455146524653:w</title>
<path fill="none" stroke="black" stroke-dasharray="1,5" d="M992,-570C1072.93,-570 1018.59,-425.29 1087.89,-412.85"/>
<polygon fill="black" stroke="black" points="1098,-412 1088.41,-417.32 1093.02,-412.42 1088.04,-412.84 1088.04,-412.84 1088.04,-412.84 1093.02,-412.42 1087.66,-408.35 1098,-412 1098,-412"/>
</g>
<!-- dependency498960&#45;&gt;choice100101118451089711010347112121116104111110455146524654 -->
<g id="edge20" class="edge">
<title>dependency498960:e&#45;&gt;choice100101118451089711010347112121116104111110455146524654:w</title>
<path fill="none" stroke="black" stroke-dasharray="1,5" d="M992,-570C1093.74,-570 999.57,-372.24 1087.92,-358.73"/>
<polygon fill="black" stroke="black" points="1098,-358 1088.35,-363.21 1093.01,-358.36 1088.03,-358.72 1088.03,-358.72 1088.03,-358.72 1093.01,-358.36 1087.7,-354.23 1098,-358 1098,-358"/>
</g>
<!-- dependency498960&#45;&gt;choice100101118451089711010347112121116104111110455146534652 -->
<g id="edge21" class="edge">
<title>dependency498960:e&#45;&gt;choice100101118451089711010347112121116104111110455146534652:w</title>
<path fill="none" stroke="black" stroke-dasharray="1,5" d="M992,-570C1042.14,-570 1044.24,-620.55 1088,-627.27"/>
<polygon fill="black" stroke="black" points="1098,-628 1087.7,-631.76 1093.01,-627.63 1088.03,-627.27 1088.03,-627.27 1088.03,-627.27 1093.01,-627.63 1088.36,-622.78 1098,-628 1098,-628"/>
</g>
<!-- dependency498960&#45;&gt;choice100101118451089711010347112121116104111110455146544651 -->
<g id="edge22" class="edge">
<title>dependency498960:e&#45;&gt;choice100101118451089711010347112121116104111110455146544651:w</title>
<path fill="none" stroke="black" stroke-dasharray="1,5" d="M992,-570C1035.46,-570 1048.81,-573.4 1087.57,-573.93"/>
<polygon fill="black" stroke="black" points="1098,-574 1087.97,-578.43 1093,-573.97 1088,-573.93 1088,-573.93 1088,-573.93 1093,-573.97 1088.03,-569.43 1098,-574 1098,-574"/>
</g>
<!-- dependency498962 -->
<g id="node7" class="node">
<title>dependency498962</title>
<polygon fill="none" stroke="blue" points="763,-409 763,-499 868,-499 868,-409 763,-409"/>
<text text-anchor="start" x="793.82" y="-451" font-family="Helvetica,sans-Serif" font-size="10.00">pack_dep</text>
<polygon fill="none" stroke="blue" points="868,-479 868,-499 978,-499 978,-479 868,-479"/>
<text text-anchor="start" x="917.44" y="-486" font-family="Helvetica,sans-Serif" font-size="10.00">no</text>
<polygon fill="none" stroke="blue" points="868,-459 868,-479 978,-479 978,-459 868,-459"/>
<text text-anchor="start" x="903.82" y="-466" font-family="Helvetica,sans-Serif" font-size="10.00">dev&#45;lang</text>
<polygon fill="none" stroke="blue" points="868,-439 868,-459 978,-459 978,-439 868,-439"/>
<text text-anchor="start" x="907.99" y="-446" font-family="Helvetica,sans-Serif" font-size="10.00">python</text>
<polygon fill="none" stroke="blue" points="868,-419 868,-439 978,-439 978,-419 868,-419"/>
<text text-anchor="start" x="911.88" y="-426" font-family="Helvetica,sans-Serif" font-size="10.00">none</text>
<polygon fill="none" stroke="blue" points="868,-409 868,-419 978,-419 978,-409 868,-409"/>
</g>
<!-- dependency498961&#45;&gt;dependency498962 -->
<g id="edge5" class="edge">
<title>dependency498961:e&#45;&gt;dependency498962:w</title>
<path fill="none" stroke="black" stroke-dasharray="5,2" d="M647,-454C691.44,-454 705.02,-454 744.88,-454"/>
<polygon fill="black" stroke="black" points="755,-454 745,-458.5 750,-454 745,-454 745,-454 745,-454 750,-454 745,-449.5 755,-454 755,-454"/>
</g>
<!-- dependency498962&#45;&gt;choice10010111845108971101034711212111610411111045504655464950 -->
<g id="edge23" class="edge">
<title>dependency498962:e&#45;&gt;choice10010111845108971101034711212111610411111045504655464950:w</title>
<path fill="none" stroke="black" stroke-dasharray="1,5" d="M992,-454C1043.92,-454 1042.9,-511.77 1087.99,-519.21"/>
<polygon fill="black" stroke="black" points="1098,-520 1087.68,-523.7 1093.02,-519.61 1088.03,-519.22 1088.03,-519.22 1088.03,-519.22 1093.02,-519.61 1088.38,-514.73 1098,-520 1098,-520"/>
</g>
<!-- dependency498962&#45;&gt;choice10010111845108971101034711212111610411111045504655464952 -->
<g id="edge24" class="edge">
<title>dependency498962:e&#45;&gt;choice10010111845108971101034711212111610411111045504655464952:w</title>
<path fill="none" stroke="black" stroke-dasharray="1,5" d="M992,-454C1035.71,-454 1048.62,-464.2 1087.52,-465.79"/>
<polygon fill="black" stroke="black" points="1098,-466 1087.91,-470.3 1093,-465.9 1088,-465.8 1088,-465.8 1088,-465.8 1093,-465.9 1088.09,-461.3 1098,-466 1098,-466"/>
</g>
<!-- dependency498962&#45;&gt;choice100101118451089711010347112121116104111110455146524653 -->
<g id="edge25" class="edge">
<title>dependency498962:e&#45;&gt;choice100101118451089711010347112121116104111110455146524653:w</title>
<path fill="none" stroke="black" stroke-dasharray="1,5" d="M992,-454C1039.11,-454 1046.44,-417.7 1087.96,-412.59"/>
<polygon fill="black" stroke="black" points="1098,-412 1088.28,-417.08 1093.01,-412.3 1088.02,-412.59 1088.02,-412.59 1088.02,-412.59 1093.01,-412.3 1087.75,-408.1 1098,-412 1098,-412"/>
</g>
<!-- dependency498962&#45;&gt;choice100101118451089711010347112121116104111110455146524654 -->
<g id="edge26" class="edge">
<title>dependency498962:e&#45;&gt;choice100101118451089711010347112121116104111110455146524654:w</title>
<path fill="none" stroke="black" stroke-dasharray="1,5" d="M992,-454C1051.96,-454 1036.56,-368.57 1087.98,-358.89"/>
<polygon fill="black" stroke="black" points="1098,-358 1088.44,-363.37 1093.02,-358.44 1088.04,-358.88 1088.04,-358.88 1088.04,-358.88 1093.02,-358.44 1087.64,-354.4 1098,-358 1098,-358"/>
</g>
<!-- dependency498962&#45;&gt;choice100101118451089711010347112121116104111110455146534652 -->
<g id="edge27" class="edge">
<title>dependency498962:e&#45;&gt;choice100101118451089711010347112121116104111110455146534652:w</title>
<path fill="none" stroke="black" stroke-dasharray="1,5" d="M992,-454C1078.84,-454 1013.33,-614.02 1087.67,-627.15"/>
<polygon fill="black" stroke="black" points="1098,-628 1087.66,-631.66 1093.02,-627.59 1088.03,-627.18 1088.03,-627.18 1088.03,-627.18 1093.02,-627.59 1088.4,-622.69 1098,-628 1098,-628"/>
</g>
<!-- dependency498962&#45;&gt;choice100101118451089711010347112121116104111110455146544651 -->
<g id="edge28" class="edge">
<title>dependency498962:e&#45;&gt;choice100101118451089711010347112121116104111110455146544651:w</title>
<path fill="none" stroke="black" stroke-dasharray="1,5" d="M992,-454C1059.55,-454 1030.25,-562.12 1087.96,-573.1"/>
<polygon fill="black" stroke="black" points="1098,-574 1087.64,-577.59 1093.02,-573.55 1088.04,-573.11 1088.04,-573.11 1088.04,-573.11 1093.02,-573.55 1088.44,-568.63 1098,-574 1098,-574"/>
</g>
<!-- dependency498964 -->
<g id="node9" class="node">
<title>dependency498964</title>
<polygon fill="none" stroke="blue" points="763,-293 763,-383 868,-383 868,-293 763,-293"/>
<text text-anchor="start" x="793.82" y="-335" font-family="Helvetica,sans-Serif" font-size="10.00">pack_dep</text>
<polygon fill="none" stroke="blue" points="868,-363 868,-383 978,-383 978,-363 868,-363"/>
<text text-anchor="start" x="917.44" y="-370" font-family="Helvetica,sans-Serif" font-size="10.00">no</text>
<polygon fill="none" stroke="blue" points="868,-343 868,-363 978,-363 978,-343 868,-343"/>
<text text-anchor="start" x="903.82" y="-350" font-family="Helvetica,sans-Serif" font-size="10.00">dev&#45;lang</text>
<polygon fill="none" stroke="blue" points="868,-323 868,-343 978,-343 978,-323 868,-323"/>
<text text-anchor="start" x="907.99" y="-330" font-family="Helvetica,sans-Serif" font-size="10.00">python</text>
<polygon fill="none" stroke="blue" points="868,-303 868,-323 978,-323 978,-303 868,-303"/>
<text text-anchor="start" x="911.88" y="-310" font-family="Helvetica,sans-Serif" font-size="10.00">none</text>
<polygon fill="none" stroke="blue" points="868,-293 868,-303 978,-303 978,-293 868,-293"/>
</g>
<!-- dependency498963&#45;&gt;dependency498964 -->
<g id="edge7" class="edge">
<title>dependency498963:e&#45;&gt;dependency498964:w</title>
<path fill="none" stroke="black" stroke-dasharray="5,2" d="M647,-363C692.71,-363 704.16,-341.48 744.91,-338.37"/>
<polygon fill="black" stroke="black" points="755,-338 745.17,-342.87 750,-338.18 745.01,-338.37 745.01,-338.37 745.01,-338.37 750,-338.18 744.84,-333.87 755,-338 755,-338"/>
</g>
<!-- dependency498964&#45;&gt;choice10010111845108971101034711212111610411111045504655464950 -->
<g id="edge29" class="edge">
<title>dependency498964:e&#45;&gt;choice10010111845108971101034711212111610411111045504655464950:w</title>
<path fill="none" stroke="black" stroke-dasharray="1,5" d="M992,-338C1081.95,-338 1010.47,-506.06 1087.81,-519.19"/>
<polygon fill="black" stroke="black" points="1098,-520 1087.67,-523.69 1093.02,-519.6 1088.03,-519.21 1088.03,-519.21 1088.03,-519.21 1093.02,-519.6 1088.39,-514.72 1098,-520 1098,-520"/>
</g>
<!-- dependency498964&#45;&gt;choice10010111845108971101034711212111610411111045504655464952 -->
<g id="edge30" class="edge">
<title>dependency498964:e&#45;&gt;choice10010111845108971101034711212111610411111045504655464952:w</title>
<path fill="none" stroke="black" stroke-dasharray="1,5" d="M992,-338C1062.26,-338 1027.94,-453.81 1087.98,-465.11"/>
<polygon fill="black" stroke="black" points="1098,-466 1087.64,-469.6 1093.02,-465.56 1088.04,-465.12 1088.04,-465.12 1088.04,-465.12 1093.02,-465.56 1088.44,-460.64 1098,-466 1098,-466"/>
</g>
<!-- dependency498964&#45;&gt;choice100101118451089711010347112121116104111110455146524653 -->
<g id="edge31" class="edge">
<title>dependency498964:e&#45;&gt;choice100101118451089711010347112121116104111110455146524653:w</title>
<path fill="none" stroke="black" stroke-dasharray="1,5" d="M992,-338C1045.86,-338 1041.4,-403.04 1087.97,-411.17"/>
<polygon fill="black" stroke="black" points="1098,-412 1087.66,-415.66 1093.02,-411.59 1088.03,-411.17 1088.03,-411.17 1088.03,-411.17 1093.02,-411.59 1088.41,-406.69 1098,-412 1098,-412"/>
</g>
<!-- dependency498964&#45;&gt;choice100101118451089711010347112121116104111110455146524654 -->
<g id="edge32" class="edge">
<title>dependency498964:e&#45;&gt;choice100101118451089711010347112121116104111110455146524654:w</title>
<path fill="none" stroke="black" stroke-dasharray="1,5" d="M992,-338C1036.38,-338 1048.35,-355.14 1087.92,-357.69"/>
<polygon fill="black" stroke="black" points="1098,-358 1087.86,-362.19 1093,-357.84 1088,-357.69 1088,-357.69 1088,-357.69 1093,-357.84 1088.15,-353.19 1098,-358 1098,-358"/>
</g>
<!-- dependency498964&#45;&gt;choice100101118451089711010347112121116104111110455146534652 -->
<g id="edge33" class="edge">
<title>dependency498964:e&#45;&gt;choice100101118451089711010347112121116104111110455146534652:w</title>
<path fill="none" stroke="black" stroke-dasharray="1,5" d="M992,-338C1125.61,-338 969.44,-612.91 1087.77,-627.41"/>
<polygon fill="black" stroke="black" points="1098,-628 1087.76,-631.91 1093.01,-627.71 1088.02,-627.42 1088.02,-627.42 1088.02,-627.42 1093.01,-627.71 1088.28,-622.93 1098,-628 1098,-628"/>
</g>
<!-- dependency498964&#45;&gt;choice100101118451089711010347112121116104111110455146544651 -->
<g id="edge34" class="edge">
<title>dependency498964:e&#45;&gt;choice100101118451089711010347112121116104111110455146544651:w</title>
<path fill="none" stroke="black" stroke-dasharray="1,5" d="M992,-338C1103.39,-338 990.53,-559.48 1087.91,-573.32"/>
<polygon fill="black" stroke="black" points="1098,-574 1087.72,-577.82 1093.01,-573.67 1088.02,-573.33 1088.02,-573.33 1088.02,-573.33 1093.01,-573.67 1088.32,-568.84 1098,-574 1098,-574"/>
</g>
<!-- choice1001011184510897110103471121211161041111104510112010199455046524652 -->
<g id="node18" class="node">
<title>choice1001011184510897110103471121211161041111104510112010199455046524652</title>
<g id="a_node18"><a xlink:href="../dev-lang/python-exec-2.4.4.svg" xlink:title="dev&#45;lang/python&#45;exec&#45;2.4.4">
<ellipse fill="none" stroke="red" cx="1243" cy="-304" rx="144" ry="18"/>
<text text-anchor="middle" x="1243" y="-301" font-family="Helvetica,sans-Serif" font-size="10.00">dev&#45;lang/python&#45;exec&#45;2.4.4</text>
</a>
</g>
</g>
<!-- dependency498965&#45;&gt;choice1001011184510897110103471121211161041111104510112010199455046524652 -->
<g id="edge35" class="edge">
<title>dependency498965:e&#45;&gt;choice1001011184510897110103471121211161041111104510112010199455046524652:w</title>
<path fill="none" stroke="black" stroke-dasharray="1,5" d="M992,-217C1049.26,-217 1038.7,-293.78 1087.74,-303.08"/>
<polygon fill="black" stroke="black" points="1098,-304 1087.64,-307.59 1093.02,-303.55 1088.04,-303.11 1088.04,-303.11 1088.04,-303.11 1093.02,-303.55 1088.44,-298.63 1098,-304 1098,-304"/>
</g>
<!-- choice1001011184510897110103471121211161041111104510112010199455046524653 -->
<g id="node19" class="node">
<title>choice1001011184510897110103471121211161041111104510112010199455046524653</title>
<g id="a_node19"><a xlink:href="../dev-lang/python-exec-2.4.5.svg" xlink:title="dev&#45;lang/python&#45;exec&#45;2.4.5">
<ellipse fill="none" stroke="red" cx="1243" cy="-250" rx="144" ry="18"/>
<text text-anchor="middle" x="1243" y="-247" font-family="Helvetica,sans-Serif" font-size="10.00">dev&#45;lang/python&#45;exec&#45;2.4.5</text>
</a>
</g>
</g>
<!-- dependency498965&#45;&gt;choice1001011184510897110103471121211161041111104510112010199455046524653 -->
<g id="edge36" class="edge">
<title>dependency498965:e&#45;&gt;choice1001011184510897110103471121211161041111104510112010199455046524653:w</title>
<path fill="none" stroke="black" stroke-dasharray="1,5" d="M992,-217C1037.78,-217 1047.38,-245.4 1087.93,-249.51"/>
<polygon fill="black" stroke="black" points="1098,-250 1087.79,-254.01 1093.01,-249.76 1088.01,-249.51 1088.01,-249.51 1088.01,-249.51 1093.01,-249.76 1088.23,-245.02 1098,-250 1098,-250"/>
</g>
<!-- choice10010111845108971101034711212111610411111045101120101994557575757 -->
<g id="node20" class="node">
<title>choice10010111845108971101034711212111610411111045101120101994557575757</title>
<g id="a_node20"><a xlink:href="../dev-lang/python-exec-9999.svg" xlink:title="dev&#45;lang/python&#45;exec&#45;9999">
<ellipse fill="none" stroke="red" cx="1243" cy="-196" rx="144" ry="18"/>
<text text-anchor="middle" x="1243" y="-193" font-family="Helvetica,sans-Serif" font-size="10.00">dev&#45;lang/python&#45;exec&#45;9999</text>
</a>
</g>
</g>
<!-- dependency498965&#45;&gt;choice10010111845108971101034711212111610411111045101120101994557575757 -->
<g id="edge37" class="edge">
<title>dependency498965:e&#45;&gt;choice10010111845108971101034711212111610411111045101120101994557575757:w</title>
<path fill="none" stroke="black" stroke-dasharray="1,5" d="M992,-217C1036.46,-217 1048.29,-199 1087.9,-196.33"/>
<polygon fill="black" stroke="black" points="1098,-196 1088.15,-200.82 1093,-196.16 1088.01,-196.33 1088.01,-196.33 1088.01,-196.33 1093,-196.16 1087.86,-191.83 1098,-196 1098,-196"/>
</g>
<!-- choice10010111845112121116104111110471001101151121211161041111104549464950464845114504848 -->
<g id="node21" class="node">
<title>choice10010111845112121116104111110471001101151121211161041111104549464950464845114504848</title>
<g id="a_node21"><a xlink:href="../dev-python/dnspython-1.12.0-r200.svg" xlink:title="dev&#45;python/dnspython&#45;1.12.0&#45;r200">
<ellipse fill="none" stroke="red" cx="1243" cy="-142" rx="144" ry="18"/>
<text text-anchor="middle" x="1243" y="-139" font-family="Helvetica,sans-Serif" font-size="10.00">dev&#45;python/dnspython&#45;1.12.0&#45;r200</text>
</a>
</g>
</g>
<!-- dependency498966&#45;&gt;choice10010111845112121116104111110471001101151121211161041111104549464950464845114504848 -->
<g id="edge38" class="edge">
<title>dependency498966:e&#45;&gt;choice10010111845112121116104111110471001101151121211161041111104549464950464845114504848:w</title>
<path fill="none" stroke="black" stroke-dasharray="1,5" d="M992,-91C1040.71,-91 1045.29,-135.27 1087.96,-141.32"/>
<polygon fill="black" stroke="black" points="1098,-142 1087.72,-145.81 1093.01,-141.66 1088.02,-141.32 1088.02,-141.32 1088.02,-141.32 1093.01,-141.66 1088.33,-136.83 1098,-142 1098,-142"/>
</g>
<!-- choice10010111845112121116104111110471001101151121211161041111104549464950464845114514849 -->
<g id="node22" class="node">
<title>choice10010111845112121116104111110471001101151121211161041111104549464950464845114514849</title>
<g id="a_node22"><a xlink:href="../dev-python/dnspython-1.12.0-r301.svg" xlink:title="dev&#45;python/dnspython&#45;1.12.0&#45;r301">
<ellipse fill="none" stroke="red" cx="1243" cy="-88" rx="144" ry="18"/>
<text text-anchor="middle" x="1243" y="-85" font-family="Helvetica,sans-Serif" font-size="10.00">dev&#45;python/dnspython&#45;1.12.0&#45;r301</text>
</a>
</g>
</g>
<!-- dependency498966&#45;&gt;choice10010111845112121116104111110471001101151121211161041111104549464950464845114514849 -->
<g id="edge39" class="edge">
<title>dependency498966:e&#45;&gt;choice10010111845112121116104111110471001101151121211161041111104549464950464845114514849:w</title>
<path fill="none" stroke="black" stroke-dasharray="1,5" d="M992,-91C1035.45,-91 1048.82,-88.45 1087.57,-88.05"/>
<polygon fill="black" stroke="black" points="1098,-88 1088.02,-92.55 1093,-88.03 1088,-88.05 1088,-88.05 1088,-88.05 1093,-88.03 1087.98,-83.55 1098,-88 1098,-88"/>
</g>
<!-- choice1001011184511212111610411111047100110115112121116104111110454946495346484511449 -->
<g id="node23" class="node">
<title>choice1001011184511212111610411111047100110115112121116104111110454946495346484511449</title>
<g id="a_node23"><a xlink:href="../dev-python/dnspython-1.15.0-r1.svg" xlink:title="dev&#45;python/dnspython&#45;1.15.0&#45;r1">
<ellipse fill="none" stroke="red" cx="1243" cy="-34" rx="144" ry="18"/>
<text text-anchor="middle" x="1243" y="-31" font-family="Helvetica,sans-Serif" font-size="10.00">dev&#45;python/dnspython&#45;1.15.0&#45;r1</text>
</a>
</g>
</g>
<!-- dependency498966&#45;&gt;choice1001011184511212111610411111047100110115112121116104111110454946495346484511449 -->
<g id="edge40" class="edge">
<title>dependency498966:e&#45;&gt;choice1001011184511212111610411111047100110115112121116104111110454946495346484511449:w</title>
<path fill="none" stroke="black" stroke-dasharray="1,5" d="M992,-91C1041.83,-91 1044.39,-41.53 1087.76,-34.76"/>
<polygon fill="black" stroke="black" points="1098,-34 1088.36,-39.23 1093.01,-34.37 1088.03,-34.74 1088.03,-34.74 1088.03,-34.74 1093.01,-34.37 1087.69,-30.26 1098,-34 1098,-34"/>
</g>
</g>
</svg>
