<?xml version="1.0" encoding="UTF-8" standalone="no"?>
<!DOCTYPE svg PUBLIC "-//W3C//DTD SVG 1.1//EN"
 "http://www.w3.org/Graphics/SVG/1.1/DTD/svg11.dtd">
<!-- Generated by graphviz version 2.39.20160721.2101 (20160721.2101)
 -->
<!-- Title: prolog Pages: 1 -->
<svg width="1537pt" height="338pt"
 viewBox="0.00 0.00 1537.00 338.00" xmlns="http://www.w3.org/2000/svg" xmlns:xlink="http://www.w3.org/1999/xlink">
<g id="graph0" class="graph" transform="scale(1 1) rotate(0) translate(4 334)">
<title>prolog</title>
<polygon fill="white" stroke="transparent" points="-4,4 -4,-334 1533,-334 1533,4 -4,4"/>
<g id="clust1" class="cluster">
<title>cluster_leftcol</title>
<polygon fill="none" stroke="gray" points="8,-122 8,-194 312,-194 312,-122 8,-122"/>
<text text-anchor="start" x="146.663" y="-182" font-family="Helvetica,sans-Serif" font-style="italic" font-size="10.00">ebuild</text>
</g>
<g id="clust2" class="cluster">
<title>cluster_midcol</title>
<polygon fill="none" stroke="gray" points="396,-8 396,-322 1133,-322 1133,-8 396,-8"/>
<text text-anchor="start" x="733.375" y="-310" font-family="Helvetica,sans-Serif" font-style="italic" font-size="10.00">dependencies</text>
</g>
<g id="clust5" class="cluster">
<title>cluster_run</title>
<polygon fill="#eeeeee" stroke="gray" points="404,-16 404,-294 1125,-294 1125,-16 404,-16"/>
<text text-anchor="start" x="757.277" y="-282" font-family="Helvetica,sans-Serif" font-style="italic" font-size="10.00">run</text>
</g>
<g id="clust10" class="cluster">
<title>cluster_choices</title>
<polygon fill="none" stroke="gray" points="1217,-57 1217,-237 1521,-237 1521,-57 1217,-57"/>
<text text-anchor="start" x="1344.82" y="-225" font-family="Helvetica,sans-Serif" font-style="italic" font-size="10.00">candidates</text>
</g>
<!-- id -->
<g id="node1" class="node">
<title>id</title>
<g id="a_node1"><a xlink:href="../virtual/shadow-0.svg" xlink:title="virtual/shadow&#45;0">
<ellipse fill="none" stroke="red" cx="160" cy="-148" rx="144" ry="18"/>
<text text-anchor="middle" x="160" y="-145" font-family="Helvetica,sans-Serif" font-size="10.00">virtual/shadow&#45;0</text>
</a>
</g>
</g>
<!-- dependency499261 -->
<g id="node2" class="node">
<title>dependency499261</title>
<polygon fill="none" stroke="red" points="420,-126 420,-170 511,-170 511,-126 420,-126"/>
<text text-anchor="start" x="430.767" y="-145" font-family="Helvetica,sans-Serif" font-size="10.00">use_conditional</text>
<polygon fill="none" stroke="red" points="511,-148 511,-170 558,-170 558,-148 511,-148"/>
<text text-anchor="start" x="515.604" y="-156" font-family="Helvetica,sans-Serif" font-size="10.00">negative</text>
<polygon fill="none" stroke="red" points="511,-126 511,-148 558,-148 558,-126 511,-126"/>
<text text-anchor="start" x="522.278" y="-134" font-family="Helvetica,sans-Serif" font-size="10.00">prefix</text>
</g>
<!-- id&#45;&gt;dependency499261 -->
<g id="edge4" class="edge">
<title>id:e&#45;&gt;dependency499261:w</title>
<path fill="none" stroke="black" d="M304,-148C349.188,-148 362.47,-148 403.919,-148"/>
<ellipse fill="none" stroke="black" cx="408" cy="-148" rx="4" ry="4"/>
</g>
<!-- dependency499262 -->
<g id="node3" class="node">
<title>dependency499262</title>
<polygon fill="none" stroke="red" points="682.5,-131 682.5,-165 765.5,-165 765.5,-131 682.5,-131"/>
<text text-anchor="start" x="693.431" y="-145" font-family="Helvetica,sans-Serif" font-size="10.00">any_of_group</text>
</g>
<!-- dependency499261&#45;&gt;dependency499262 -->
<g id="edge3" class="edge">
<title>dependency499261:e&#45;&gt;dependency499262:w</title>
<path fill="none" stroke="black" stroke-dasharray="5,2" d="M566,-148C610.438,-148 624.02,-148 663.878,-148"/>
<polygon fill="black" stroke="black" points="674,-148 664,-152.5 669,-148 664,-148 664,-148 664,-148 669,-148 664,-143.5 674,-148 674,-148"/>
</g>
<!-- dependency499263 -->
<g id="node4" class="node">
<title>dependency499263</title>
<polygon fill="none" stroke="blue" points="889,-28 889,-138 994,-138 994,-28 889,-28"/>
<text text-anchor="start" x="919.823" y="-80" font-family="Helvetica,sans-Serif" font-size="10.00">pack_dep</text>
<polygon fill="none" stroke="blue" points="994,-116 994,-138 1104,-138 1104,-116 994,-116"/>
<text text-anchor="start" x="1043.44" y="-124" font-family="Helvetica,sans-Serif" font-size="10.00">no</text>
<polygon fill="none" stroke="blue" points="994,-94 994,-116 1104,-116 1104,-94 994,-94"/>
<text text-anchor="start" x="1029" y="-102" font-family="Helvetica,sans-Serif" font-size="10.00">sys&#45;apps</text>
<polygon fill="none" stroke="blue" points="994,-72 994,-94 1104,-94 1104,-72 994,-72"/>
<text text-anchor="start" x="1031.77" y="-80" font-family="Helvetica,sans-Serif" font-size="10.00">shadow</text>
<polygon fill="none" stroke="blue" points="994,-50 994,-72 1104,-72 1104,-50 994,-50"/>
<text text-anchor="start" x="1020.94" y="-58" font-family="Helvetica,sans-Serif" font-size="10.00">greaterequal</text>
<polygon fill="none" stroke="blue" points="994,-28 994,-50 1104,-50 1104,-28 994,-28"/>
<text text-anchor="start" x="1042.05" y="-36" font-family="Helvetica,sans-Serif" font-size="10.00">4.1</text>
</g>
<!-- dependency499262&#45;&gt;dependency499263 -->
<g id="edge1" class="edge">
<title>dependency499262:e&#45;&gt;dependency499263:w</title>
<path fill="none" stroke="black" stroke-dasharray="1,5" d="M773,-148C825.412,-148 825.249,-91.1089 870.884,-83.7753"/>
<polygon fill="none" stroke="black" points="881.267,-86.4898 871.029,-83.7642 880.733,-79.5102 881.267,-86.4898"/>
</g>
<!-- dependency499264 -->
<g id="node5" class="node">
<title>dependency499264</title>
<polygon fill="none" stroke="blue" points="889,-164 889,-262 994,-262 994,-164 889,-164"/>
<text text-anchor="start" x="919.823" y="-210" font-family="Helvetica,sans-Serif" font-size="10.00">pack_dep</text>
<polygon fill="none" stroke="blue" points="994,-240 994,-262 1104,-262 1104,-240 994,-240"/>
<text text-anchor="start" x="1043.44" y="-248" font-family="Helvetica,sans-Serif" font-size="10.00">no</text>
<polygon fill="none" stroke="blue" points="994,-218 994,-240 1104,-240 1104,-218 994,-218"/>
<text text-anchor="start" x="1029" y="-226" font-family="Helvetica,sans-Serif" font-size="10.00">sys&#45;apps</text>
<polygon fill="none" stroke="blue" points="994,-196 994,-218 1104,-218 1104,-196 994,-196"/>
<text text-anchor="start" x="1008.99" y="-204" font-family="Helvetica,sans-Serif" font-size="10.00">hardened&#45;shadow</text>
<polygon fill="none" stroke="blue" points="994,-174 994,-196 1104,-196 1104,-174 994,-174"/>
<text text-anchor="start" x="1037.88" y="-182" font-family="Helvetica,sans-Serif" font-size="10.00">none</text>
<polygon fill="none" stroke="blue" points="994,-164 994,-174 1104,-174 1104,-164 994,-164"/>
</g>
<!-- dependency499262&#45;&gt;dependency499264 -->
<g id="edge2" class="edge">
<title>dependency499262:e&#45;&gt;dependency499264:w</title>
<path fill="none" stroke="black" stroke-dasharray="1,5" d="M773,-148C825.412,-148 825.249,-204.891 870.884,-212.225"/>
<polygon fill="none" stroke="black" points="880.733,-216.49 871.029,-212.236 881.267,-209.51 880.733,-216.49"/>
</g>
<!-- choice11512111545971121121154711510497100111119455246524511450 -->
<g id="node6" class="node">
<title>choice11512111545971121121154711510497100111119455246524511450</title>
<g id="a_node6"><a xlink:href="../sys-apps/shadow-4.4-r2.svg" xlink:title="sys&#45;apps/shadow&#45;4.4&#45;r2">
<ellipse fill="none" stroke="red" cx="1369" cy="-137" rx="144" ry="18"/>
<text text-anchor="middle" x="1369" y="-134" font-family="Helvetica,sans-Serif" font-size="10.00">sys&#45;apps/shadow&#45;4.4&#45;r2</text>
</a>
</g>
</g>
<!-- dependency499263&#45;&gt;choice11512111545971121121154711510497100111119455246524511450 -->
<g id="edge5" class="edge">
<title>dependency499263:e&#45;&gt;choice11512111545971121121154711510497100111119455246524511450:w</title>
<path fill="none" stroke="black" stroke-dasharray="1,5" d="M1117,-83C1167.1,-83 1171.01,-130.066 1214.98,-136.317"/>
<polygon fill="black" stroke="black" points="1225,-137 1214.72,-140.81 1220.01,-136.66 1215.02,-136.32 1215.02,-136.32 1215.02,-136.32 1220.01,-136.66 1215.33,-131.831 1225,-137 1225,-137"/>
</g>
<!-- choice1151211154597112112115471151049710011111945524653 -->
<g id="node7" class="node">
<title>choice1151211154597112112115471151049710011111945524653</title>
<g id="a_node7"><a xlink:href="../sys-apps/shadow-4.5.svg" xlink:title="sys&#45;apps/shadow&#45;4.5">
<ellipse fill="none" stroke="red" cx="1369" cy="-83" rx="144" ry="18"/>
<text text-anchor="middle" x="1369" y="-80" font-family="Helvetica,sans-Serif" font-size="10.00">sys&#45;apps/shadow&#45;4.5</text>
</a>
</g>
</g>
<!-- dependency499263&#45;&gt;choice1151211154597112112115471151049710011111945524653 -->
<g id="edge6" class="edge">
<title>dependency499263:e&#45;&gt;choice1151211154597112112115471151049710011111945524653:w</title>
<path fill="none" stroke="black" stroke-dasharray="1,5" d="M1117,-83C1161.44,-83 1175.02,-83 1214.88,-83"/>
<polygon fill="black" stroke="black" points="1225,-83 1215,-87.5001 1220,-83 1215,-83.0001 1215,-83.0001 1215,-83.0001 1220,-83 1215,-78.5001 1225,-83 1225,-83"/>
</g>
<!-- choice115121115459711211211547104971141001011101011004511510497100111119454846574650 -->
<g id="node8" class="node">
<title>choice115121115459711211211547104971141001011101011004511510497100111119454846574650</title>
<g id="a_node8"><a xlink:href="../sys-apps/hardened-shadow-0.9.2.svg" xlink:title="sys&#45;apps/hardened&#45;shadow&#45;0.9.2">
<ellipse fill="none" stroke="red" cx="1369" cy="-191" rx="144" ry="18"/>
<text text-anchor="middle" x="1369" y="-188" font-family="Helvetica,sans-Serif" font-size="10.00">sys&#45;apps/hardened&#45;shadow&#45;0.9.2</text>
</a>
</g>
</g>
<!-- dependency499264&#45;&gt;choice115121115459711211211547104971141001011101011004511510497100111119454846574650 -->
<g id="edge7" class="edge">
<title>dependency499264:e&#45;&gt;choice115121115459711211211547104971141001011101011004511510497100111119454846574650:w</title>
<path fill="none" stroke="black" stroke-dasharray="1,5" d="M1117,-213C1162.45,-213 1174.36,-194.065 1214.96,-191.328"/>
<polygon fill="black" stroke="black" points="1225,-191 1215.15,-195.824 1220,-191.163 1215.01,-191.327 1215.01,-191.327 1215.01,-191.327 1220,-191.163 1214.86,-186.829 1225,-191 1225,-191"/>
</g>
</g>
</svg>
