<?xml version="1.0" encoding="UTF-8" standalone="no"?>
<!DOCTYPE svg PUBLIC "-//W3C//DTD SVG 1.1//EN"
 "http://www.w3.org/Graphics/SVG/1.1/DTD/svg11.dtd">
<!-- Generated by graphviz version 2.44.1 (20200629.0846)
 -->
<!-- Title: prolog Pages: 1 -->
<svg width="1619pt" height="1284pt"
 viewBox="0.00 0.00 1619.00 1284.00" xmlns="http://www.w3.org/2000/svg" xmlns:xlink="http://www.w3.org/1999/xlink">
<g id="graph0" class="graph" transform="scale(1 1) rotate(0) translate(4 1280)">
<title>prolog</title>
<polygon fill="white" stroke="transparent" points="-4,4 -4,-1280 1615,-1280 1615,4 -4,4"/>
<g id="clust1" class="cluster">
<title>cluster_leftcol</title>
<polygon fill="none" stroke="gray" points="8,-402 8,-474 312,-474 312,-402 8,-402"/>
<text text-anchor="start" x="146.66" y="-462" font-family="Helvetica,sans-Serif" font-style="italic" font-size="10.00">ebuild</text>
</g>
<g id="clust2" class="cluster">
<title>cluster_midcol</title>
<polygon fill="none" stroke="gray" points="396,-41 396,-1169 1215,-1169 1215,-41 396,-41"/>
<text text-anchor="start" x="774.38" y="-1157" font-family="Helvetica,sans-Serif" font-style="italic" font-size="10.00">dependencies</text>
</g>
<g id="clust5" class="cluster">
<title>cluster_run</title>
<polygon fill="#eeeeee" stroke="gray" points="404,-49 404,-1141 1207,-1141 1207,-49 404,-49"/>
<text text-anchor="start" x="798.28" y="-1129" font-family="Helvetica,sans-Serif" font-style="italic" font-size="10.00">run</text>
</g>
<g id="clust16" class="cluster">
<title>cluster_choices</title>
<polygon fill="none" stroke="gray" points="1299,-8 1299,-1268 1603,-1268 1603,-8 1299,-8"/>
<text text-anchor="start" x="1426.82" y="-1256" font-family="Helvetica,sans-Serif" font-style="italic" font-size="10.00">candidates</text>
</g>
<!-- id -->
<g id="node1" class="node">
<title>id</title>
<g id="a_node1"><a xlink:href="../virtual/wine-0-r6.svg" xlink:title="portage://virtual/wine&#45;0&#45;r6">
<ellipse fill="none" stroke="red" cx="160" cy="-428" rx="144" ry="18"/>
<text text-anchor="middle" x="160" y="-425" font-family="Helvetica,sans-Serif" font-size="10.00">portage://virtual/wine&#45;0&#45;r6</text>
</a>
</g>
</g>
<!-- dependency436136 -->
<g id="node2" class="node">
<title>dependency436136</title>
<polygon fill="none" stroke="red" points="764.5,-492 764.5,-526 847.5,-526 847.5,-492 764.5,-492"/>
<text text-anchor="start" x="775.43" y="-506" font-family="Helvetica,sans-Serif" font-size="10.00">any_of_group</text>
</g>
<!-- id&#45;&gt;dependency436136 -->
<g id="edge5" class="edge">
<title>id:e&#45;&gt;dependency436136:w</title>
<path fill="none" stroke="black" d="M305,-428C353.94,-428 349.63,-474.35 396,-490 545.15,-540.32 594.06,-510.11 747.65,-509.03"/>
<ellipse fill="none" stroke="black" cx="752" cy="-509.01" rx="4" ry="4"/>
</g>
<!-- dependency436141 -->
<g id="node7" class="node">
<title>dependency436141</title>
<polygon fill="none" stroke="red" points="463,-309 463,-353 554,-353 554,-309 463,-309"/>
<text text-anchor="start" x="473.77" y="-328" font-family="Helvetica,sans-Serif" font-size="10.00">use_conditional</text>
<polygon fill="none" stroke="red" points="554,-331 554,-353 597,-353 597,-331 554,-331"/>
<text text-anchor="start" x="558.55" y="-339" font-family="Helvetica,sans-Serif" font-size="10.00">positive</text>
<polygon fill="none" stroke="red" points="554,-309 554,-331 597,-331 597,-309 554,-309"/>
<text text-anchor="start" x="559.38" y="-317" font-family="Helvetica,sans-Serif" font-size="10.00">staging</text>
</g>
<!-- id&#45;&gt;dependency436141 -->
<g id="edge9" class="edge">
<title>id:e&#45;&gt;dependency436141:w</title>
<path fill="none" stroke="black" d="M305,-428C381.24,-428 375.51,-337.7 445.98,-331.35"/>
<ellipse fill="none" stroke="black" cx="450" cy="-331.18" rx="4" ry="4"/>
</g>
<!-- dependency436145 -->
<g id="node11" class="node">
<title>dependency436145</title>
<polygon fill="none" stroke="blue" points="420,-379 420,-477 525,-477 525,-379 420,-379"/>
<text text-anchor="start" x="450.82" y="-425" font-family="Helvetica,sans-Serif" font-size="10.00">pack_dep</text>
<polygon fill="none" stroke="blue" points="525,-455 525,-477 635,-477 635,-455 525,-455"/>
<text text-anchor="start" x="568.33" y="-463" font-family="Helvetica,sans-Serif" font-size="10.00">weak</text>
<polygon fill="none" stroke="blue" points="525,-433 525,-455 635,-455 635,-433 525,-433"/>
<text text-anchor="start" x="548.33" y="-441" font-family="Helvetica,sans-Serif" font-size="10.00">app&#45;emulation</text>
<polygon fill="none" stroke="blue" points="525,-411 525,-433 635,-433 635,-411 525,-411"/>
<text text-anchor="start" x="569.72" y="-419" font-family="Helvetica,sans-Serif" font-size="10.00">wine</text>
<polygon fill="none" stroke="blue" points="525,-389 525,-411 635,-411 635,-389 525,-389"/>
<text text-anchor="start" x="568.88" y="-397" font-family="Helvetica,sans-Serif" font-size="10.00">none</text>
<polygon fill="none" stroke="blue" points="525,-379 525,-389 635,-389 635,-379 525,-379"/>
</g>
<!-- id&#45;&gt;dependency436145 -->
<g id="edge10" class="edge">
<title>id:e&#45;&gt;dependency436145:w</title>
<path fill="none" stroke="black" d="M305,-428C349.26,-428 362.33,-428 402.82,-428"/>
<ellipse fill="none" stroke="black" cx="407" cy="-428" rx="4" ry="4"/>
</g>
<!-- dependency436137 -->
<g id="node3" class="node">
<title>dependency436137</title>
<polygon fill="none" stroke="blue" points="971,-687 971,-785 1076,-785 1076,-687 971,-687"/>
<text text-anchor="start" x="1001.82" y="-733" font-family="Helvetica,sans-Serif" font-size="10.00">pack_dep</text>
<polygon fill="none" stroke="blue" points="1076,-763 1076,-785 1186,-785 1186,-763 1076,-763"/>
<text text-anchor="start" x="1125.44" y="-771" font-family="Helvetica,sans-Serif" font-size="10.00">no</text>
<polygon fill="none" stroke="blue" points="1076,-741 1076,-763 1186,-763 1186,-741 1076,-741"/>
<text text-anchor="start" x="1099.33" y="-749" font-family="Helvetica,sans-Serif" font-size="10.00">app&#45;emulation</text>
<polygon fill="none" stroke="blue" points="1076,-719 1076,-741 1186,-741 1186,-719 1076,-719"/>
<text text-anchor="start" x="1104.89" y="-727" font-family="Helvetica,sans-Serif" font-size="10.00">wine&#45;vanilla</text>
<polygon fill="none" stroke="blue" points="1076,-697 1076,-719 1186,-719 1186,-697 1076,-697"/>
<text text-anchor="start" x="1119.88" y="-705" font-family="Helvetica,sans-Serif" font-size="10.00">none</text>
<polygon fill="none" stroke="blue" points="1076,-687 1076,-697 1186,-697 1186,-687 1076,-687"/>
</g>
<!-- dependency436136&#45;&gt;dependency436137 -->
<g id="edge1" class="edge">
<title>dependency436136:e&#45;&gt;dependency436137:w</title>
<path fill="none" stroke="black" stroke-dasharray="1,5" d="M855,-509C963.12,-509 858.48,-721.6 952.89,-735.31"/>
<polygon fill="none" stroke="black" points="962.76,-739.49 953.02,-735.32 963.24,-732.51 962.76,-739.49"/>
</g>
<!-- dependency436138 -->
<g id="node4" class="node">
<title>dependency436138</title>
<polygon fill="none" stroke="blue" points="971,-433 971,-531 1076,-531 1076,-433 971,-433"/>
<text text-anchor="start" x="1001.82" y="-479" font-family="Helvetica,sans-Serif" font-size="10.00">pack_dep</text>
<polygon fill="none" stroke="blue" points="1076,-509 1076,-531 1186,-531 1186,-509 1076,-509"/>
<text text-anchor="start" x="1125.44" y="-517" font-family="Helvetica,sans-Serif" font-size="10.00">no</text>
<polygon fill="none" stroke="blue" points="1076,-487 1076,-509 1186,-509 1186,-487 1076,-487"/>
<text text-anchor="start" x="1099.33" y="-495" font-family="Helvetica,sans-Serif" font-size="10.00">app&#45;emulation</text>
<polygon fill="none" stroke="blue" points="1076,-465 1076,-487 1186,-487 1186,-465 1076,-465"/>
<text text-anchor="start" x="1102.94" y="-473" font-family="Helvetica,sans-Serif" font-size="10.00">wine&#45;staging</text>
<polygon fill="none" stroke="blue" points="1076,-443 1076,-465 1186,-465 1186,-443 1076,-443"/>
<text text-anchor="start" x="1119.88" y="-451" font-family="Helvetica,sans-Serif" font-size="10.00">none</text>
<polygon fill="none" stroke="blue" points="1076,-433 1076,-443 1186,-443 1186,-433 1076,-433"/>
</g>
<!-- dependency436136&#45;&gt;dependency436138 -->
<g id="edge2" class="edge">
<title>dependency436136:e&#45;&gt;dependency436138:w</title>
<path fill="none" stroke="black" stroke-dasharray="1,5" d="M855,-509C900.9,-509 912,-485.76 952.88,-482.4"/>
<polygon fill="none" stroke="black" points="963.14,-485.5 953.01,-482.4 962.86,-478.5 963.14,-485.5"/>
</g>
<!-- dependency436139 -->
<g id="node5" class="node">
<title>dependency436139</title>
<polygon fill="none" stroke="blue" points="971,-1011 971,-1109 1076,-1109 1076,-1011 971,-1011"/>
<text text-anchor="start" x="1001.82" y="-1057" font-family="Helvetica,sans-Serif" font-size="10.00">pack_dep</text>
<polygon fill="none" stroke="blue" points="1076,-1087 1076,-1109 1186,-1109 1186,-1087 1076,-1087"/>
<text text-anchor="start" x="1125.44" y="-1095" font-family="Helvetica,sans-Serif" font-size="10.00">no</text>
<polygon fill="none" stroke="blue" points="1076,-1065 1076,-1087 1186,-1087 1186,-1065 1076,-1065"/>
<text text-anchor="start" x="1099.33" y="-1073" font-family="Helvetica,sans-Serif" font-size="10.00">app&#45;emulation</text>
<polygon fill="none" stroke="blue" points="1076,-1043 1076,-1065 1186,-1065 1186,-1043 1076,-1043"/>
<text text-anchor="start" x="1107.94" y="-1051" font-family="Helvetica,sans-Serif" font-size="10.00">wine&#45;d3d9</text>
<polygon fill="none" stroke="blue" points="1076,-1021 1076,-1043 1186,-1043 1186,-1021 1076,-1021"/>
<text text-anchor="start" x="1119.88" y="-1029" font-family="Helvetica,sans-Serif" font-size="10.00">none</text>
<polygon fill="none" stroke="blue" points="1076,-1011 1076,-1021 1186,-1021 1186,-1011 1076,-1011"/>
</g>
<!-- dependency436136&#45;&gt;dependency436139 -->
<g id="edge3" class="edge">
<title>dependency436136:e&#45;&gt;dependency436139:w</title>
<path fill="none" stroke="black" stroke-dasharray="1,5" d="M855,-509C1101.02,-509 724.4,-1044.51 952.78,-1059.67"/>
<polygon fill="none" stroke="black" points="962.89,-1063.5 953.01,-1059.68 963.11,-1056.5 962.89,-1063.5"/>
</g>
<!-- dependency436140 -->
<g id="node6" class="node">
<title>dependency436140</title>
<polygon fill="none" stroke="blue" points="971,-185 971,-283 1076,-283 1076,-185 971,-185"/>
<text text-anchor="start" x="1001.82" y="-231" font-family="Helvetica,sans-Serif" font-size="10.00">pack_dep</text>
<polygon fill="none" stroke="blue" points="1076,-261 1076,-283 1186,-283 1186,-261 1076,-261"/>
<text text-anchor="start" x="1125.44" y="-269" font-family="Helvetica,sans-Serif" font-size="10.00">no</text>
<polygon fill="none" stroke="blue" points="1076,-239 1076,-261 1186,-261 1186,-239 1076,-239"/>
<text text-anchor="start" x="1099.33" y="-247" font-family="Helvetica,sans-Serif" font-size="10.00">app&#45;emulation</text>
<polygon fill="none" stroke="blue" points="1076,-217 1076,-239 1186,-239 1186,-217 1076,-217"/>
<text text-anchor="start" x="1111" y="-225" font-family="Helvetica,sans-Serif" font-size="10.00">wine&#45;any</text>
<polygon fill="none" stroke="blue" points="1076,-195 1076,-217 1186,-217 1186,-195 1076,-195"/>
<text text-anchor="start" x="1119.88" y="-203" font-family="Helvetica,sans-Serif" font-size="10.00">none</text>
<polygon fill="none" stroke="blue" points="1076,-185 1076,-195 1186,-195 1186,-185 1076,-185"/>
</g>
<!-- dependency436136&#45;&gt;dependency436140 -->
<g id="edge4" class="edge">
<title>dependency436136:e&#45;&gt;dependency436140:w</title>
<path fill="none" stroke="black" stroke-dasharray="1,5" d="M855,-509C982.72,-509 839.93,-248.83 952.86,-234.61"/>
<polygon fill="none" stroke="black" points="963.21,-237.49 953.02,-234.6 962.79,-230.51 963.21,-237.49"/>
</g>
<!-- choiceportage9711211245101109117108971161051111104711910511010145118971101051081089745524648 -->
<g id="node12" class="node">
<title>choiceportage9711211245101109117108971161051111104711910511010145118971101051081089745524648</title>
<g id="a_node12"><a xlink:href="../app-emulation/wine-vanilla-4.0.svg" xlink:title="portage://app&#45;emulation/wine&#45;vanilla&#45;4.0">
<ellipse fill="none" stroke="red" cx="1451" cy="-790" rx="144" ry="18"/>
<text text-anchor="middle" x="1451" y="-787" font-family="Helvetica,sans-Serif" font-size="10.00">portage://app&#45;emulation/wine&#45;vanilla&#45;4.0</text>
</a>
</g>
</g>
<!-- dependency436137&#45;&gt;choiceportage9711211245101109117108971161051111104711910511010145118971101051081089745524648 -->
<g id="edge11" class="edge">
<title>dependency436137:e&#45;&gt;choiceportage9711211245101109117108971161051111104711910511010145118971101051081089745524648:w</title>
<path fill="none" stroke="black" stroke-dasharray="1,5" d="M1200,-736C1249.26,-736 1252.85,-782.87 1295.86,-789.28"/>
<polygon fill="black" stroke="black" points="1306,-790 1295.71,-793.78 1301.01,-789.64 1296.03,-789.29 1296.03,-789.29 1296.03,-789.29 1301.01,-789.64 1296.35,-784.8 1306,-790 1306,-790"/>
</g>
<!-- choiceportage97112112451011091171089711610511111047119105110101451189711010510810897455246484649 -->
<g id="node13" class="node">
<title>choiceportage97112112451011091171089711610511111047119105110101451189711010510810897455246484649</title>
<g id="a_node13"><a xlink:href="../app-emulation/wine-vanilla-4.0.1.svg" xlink:title="portage://app&#45;emulation/wine&#45;vanilla&#45;4.0.1">
<ellipse fill="none" stroke="red" cx="1451" cy="-736" rx="144" ry="18"/>
<text text-anchor="middle" x="1451" y="-733" font-family="Helvetica,sans-Serif" font-size="10.00">portage://app&#45;emulation/wine&#45;vanilla&#45;4.0.1</text>
</a>
</g>
</g>
<!-- dependency436137&#45;&gt;choiceportage97112112451011091171089711610511111047119105110101451189711010510810897455246484649 -->
<g id="edge12" class="edge">
<title>dependency436137:e&#45;&gt;choiceportage97112112451011091171089711610511111047119105110101451189711010510810897455246484649:w</title>
<path fill="none" stroke="black" stroke-dasharray="1,5" d="M1200,-736C1243.43,-736 1256.83,-736 1295.57,-736"/>
<polygon fill="black" stroke="black" points="1306,-736 1296,-740.5 1301,-736 1296,-736 1296,-736 1296,-736 1301,-736 1296,-731.5 1306,-736 1306,-736"/>
</g>
<!-- choiceportage97112112451011091171089711610511111047119105110101451189711010510810897455246484650 -->
<g id="node14" class="node">
<title>choiceportage97112112451011091171089711610511111047119105110101451189711010510810897455246484650</title>
<g id="a_node14"><a xlink:href="../app-emulation/wine-vanilla-4.0.2.svg" xlink:title="portage://app&#45;emulation/wine&#45;vanilla&#45;4.0.2">
<ellipse fill="none" stroke="red" cx="1451" cy="-682" rx="144" ry="18"/>
<text text-anchor="middle" x="1451" y="-679" font-family="Helvetica,sans-Serif" font-size="10.00">portage://app&#45;emulation/wine&#45;vanilla&#45;4.0.2</text>
</a>
</g>
</g>
<!-- dependency436137&#45;&gt;choiceportage97112112451011091171089711610511111047119105110101451189711010510810897455246484650 -->
<g id="edge13" class="edge">
<title>dependency436137:e&#45;&gt;choiceportage97112112451011091171089711610511111047119105110101451189711010510810897455246484650:w</title>
<path fill="none" stroke="black" stroke-dasharray="1,5" d="M1200,-736C1249.26,-736 1252.85,-689.13 1295.86,-682.72"/>
<polygon fill="black" stroke="black" points="1306,-682 1296.35,-687.2 1301.01,-682.36 1296.03,-682.71 1296.03,-682.71 1296.03,-682.71 1301.01,-682.36 1295.71,-678.22 1306,-682 1306,-682"/>
</g>
<!-- choiceportage971121124510110911710897116105111110471191051101014511897110105108108974552464955 -->
<g id="node15" class="node">
<title>choiceportage971121124510110911710897116105111110471191051101014511897110105108108974552464955</title>
<g id="a_node15"><a xlink:href="../app-emulation/wine-vanilla-4.17.svg" xlink:title="portage://app&#45;emulation/wine&#45;vanilla&#45;4.17">
<ellipse fill="none" stroke="red" cx="1451" cy="-628" rx="144" ry="18"/>
<text text-anchor="middle" x="1451" y="-625" font-family="Helvetica,sans-Serif" font-size="10.00">portage://app&#45;emulation/wine&#45;vanilla&#45;4.17</text>
</a>
</g>
</g>
<!-- dependency436137&#45;&gt;choiceportage971121124510110911710897116105111110471191051101014511897110105108108974552464955 -->
<g id="edge14" class="edge">
<title>dependency436137:e&#45;&gt;choiceportage971121124510110911710897116105111110471191051101014511897110105108108974552464955:w</title>
<path fill="none" stroke="black" stroke-dasharray="1,5" d="M1200,-736C1263.58,-736 1241.58,-639.49 1295.79,-628.93"/>
<polygon fill="black" stroke="black" points="1306,-628 1296.45,-633.39 1301.02,-628.46 1296.04,-628.91 1296.04,-628.91 1296.04,-628.91 1301.02,-628.46 1295.63,-624.43 1306,-628 1306,-628"/>
</g>
<!-- choiceportage971121124510110911710897116105111110471191051101014511897110105108108974552464956 -->
<g id="node16" class="node">
<title>choiceportage971121124510110911710897116105111110471191051101014511897110105108108974552464956</title>
<g id="a_node16"><a xlink:href="../app-emulation/wine-vanilla-4.18.svg" xlink:title="portage://app&#45;emulation/wine&#45;vanilla&#45;4.18">
<ellipse fill="none" stroke="red" cx="1451" cy="-574" rx="144" ry="18"/>
<text text-anchor="middle" x="1451" y="-571" font-family="Helvetica,sans-Serif" font-size="10.00">portage://app&#45;emulation/wine&#45;vanilla&#45;4.18</text>
</a>
</g>
</g>
<!-- dependency436137&#45;&gt;choiceportage971121124510110911710897116105111110471191051101014511897110105108108974552464956 -->
<g id="edge15" class="edge">
<title>dependency436137:e&#45;&gt;choiceportage971121124510110911710897116105111110471191051101014511897110105108108974552464956:w</title>
<path fill="none" stroke="black" stroke-dasharray="1,5" d="M1200,-736C1282.35,-736 1225.36,-587.62 1295.73,-574.87"/>
<polygon fill="black" stroke="black" points="1306,-574 1296.42,-579.33 1301.02,-574.42 1296.04,-574.85 1296.04,-574.85 1296.04,-574.85 1301.02,-574.42 1295.66,-570.36 1306,-574 1306,-574"/>
</g>
<!-- choiceportage971121124510110911710897116105111110471191051101014511897110105108108974552464957 -->
<g id="node17" class="node">
<title>choiceportage971121124510110911710897116105111110471191051101014511897110105108108974552464957</title>
<g id="a_node17"><a xlink:href="../app-emulation/wine-vanilla-4.19.svg" xlink:title="portage://app&#45;emulation/wine&#45;vanilla&#45;4.19">
<ellipse fill="none" stroke="red" cx="1451" cy="-952" rx="144" ry="18"/>
<text text-anchor="middle" x="1451" y="-949" font-family="Helvetica,sans-Serif" font-size="10.00">portage://app&#45;emulation/wine&#45;vanilla&#45;4.19</text>
</a>
</g>
</g>
<!-- dependency436137&#45;&gt;choiceportage971121124510110911710897116105111110471191051101014511897110105108108974552464957 -->
<g id="edge16" class="edge">
<title>dependency436137:e&#45;&gt;choiceportage971121124510110911710897116105111110471191051101014511897110105108108974552464957:w</title>
<path fill="none" stroke="black" stroke-dasharray="1,5" d="M1200,-736C1303.28,-736 1206.19,-937.49 1295.77,-951.26"/>
<polygon fill="black" stroke="black" points="1306,-952 1295.7,-955.77 1301.01,-951.64 1296.03,-951.28 1296.03,-951.28 1296.03,-951.28 1301.01,-951.64 1296.35,-946.79 1306,-952 1306,-952"/>
</g>
<!-- choiceportage971121124510110911710897116105111110471191051101014511897110105108108974552465048 -->
<g id="node18" class="node">
<title>choiceportage971121124510110911710897116105111110471191051101014511897110105108108974552465048</title>
<g id="a_node18"><a xlink:href="../app-emulation/wine-vanilla-4.20.svg" xlink:title="portage://app&#45;emulation/wine&#45;vanilla&#45;4.20">
<ellipse fill="none" stroke="red" cx="1451" cy="-898" rx="144" ry="18"/>
<text text-anchor="middle" x="1451" y="-895" font-family="Helvetica,sans-Serif" font-size="10.00">portage://app&#45;emulation/wine&#45;vanilla&#45;4.20</text>
</a>
</g>
</g>
<!-- dependency436137&#45;&gt;choiceportage971121124510110911710897116105111110471191051101014511897110105108108974552465048 -->
<g id="edge17" class="edge">
<title>dependency436137:e&#45;&gt;choiceportage971121124510110911710897116105111110471191051101014511897110105108108974552465048:w</title>
<path fill="none" stroke="black" stroke-dasharray="1,5" d="M1200,-736C1282.35,-736 1225.36,-884.38 1295.73,-897.13"/>
<polygon fill="black" stroke="black" points="1306,-898 1295.66,-901.64 1301.02,-897.58 1296.04,-897.15 1296.04,-897.15 1296.04,-897.15 1301.02,-897.58 1296.42,-892.67 1306,-898 1306,-898"/>
</g>
<!-- choiceportage971121124510110911710897116105111110471191051101014511897110105108108974557575757 -->
<g id="node19" class="node">
<title>choiceportage971121124510110911710897116105111110471191051101014511897110105108108974557575757</title>
<g id="a_node19"><a xlink:href="../app-emulation/wine-vanilla-9999.svg" xlink:title="portage://app&#45;emulation/wine&#45;vanilla&#45;9999">
<ellipse fill="none" stroke="red" cx="1451" cy="-844" rx="144" ry="18"/>
<text text-anchor="middle" x="1451" y="-841" font-family="Helvetica,sans-Serif" font-size="10.00">portage://app&#45;emulation/wine&#45;vanilla&#45;9999</text>
</a>
</g>
</g>
<!-- dependency436137&#45;&gt;choiceportage971121124510110911710897116105111110471191051101014511897110105108108974557575757 -->
<g id="edge18" class="edge">
<title>dependency436137:e&#45;&gt;choiceportage971121124510110911710897116105111110471191051101014511897110105108108974557575757:w</title>
<path fill="none" stroke="black" stroke-dasharray="1,5" d="M1200,-736C1263.58,-736 1241.58,-832.51 1295.79,-843.07"/>
<polygon fill="black" stroke="black" points="1306,-844 1295.63,-847.57 1301.02,-843.54 1296.04,-843.09 1296.04,-843.09 1296.04,-843.09 1301.02,-843.54 1296.45,-838.61 1306,-844 1306,-844"/>
</g>
<!-- choiceportage9711211245101109117108971161051111104711910511010145115116971031051101034552464955 -->
<g id="node20" class="node">
<title>choiceportage9711211245101109117108971161051111104711910511010145115116971031051101034552464955</title>
<g id="a_node20"><a xlink:href="../app-emulation/wine-staging-4.17.svg" xlink:title="portage://app&#45;emulation/wine&#45;staging&#45;4.17">
<ellipse fill="none" stroke="red" cx="1451" cy="-304" rx="144" ry="18"/>
<text text-anchor="middle" x="1451" y="-301" font-family="Helvetica,sans-Serif" font-size="10.00">portage://app&#45;emulation/wine&#45;staging&#45;4.17</text>
</a>
</g>
</g>
<!-- dependency436138&#45;&gt;choiceportage9711211245101109117108971161051111104711910511010145115116971031051101034552464955 -->
<g id="edge19" class="edge">
<title>dependency436138:e&#45;&gt;choiceportage9711211245101109117108971161051111104711910511010145115116971031051101034552464955:w</title>
<path fill="none" stroke="black" stroke-dasharray="1,5" d="M1200,-482C1288.48,-482 1219.77,-317.63 1295.97,-304.79"/>
<polygon fill="black" stroke="black" points="1306,-304 1296.39,-309.27 1301.02,-304.39 1296.03,-304.79 1296.03,-304.79 1296.03,-304.79 1301.02,-304.39 1295.68,-300.3 1306,-304 1306,-304"/>
</g>
<!-- choiceportage9711211245101109117108971161051111104711910511010145115116971031051101034552464956 -->
<g id="node21" class="node">
<title>choiceportage9711211245101109117108971161051111104711910511010145115116971031051101034552464956</title>
<g id="a_node21"><a xlink:href="../app-emulation/wine-staging-4.18.svg" xlink:title="portage://app&#45;emulation/wine&#45;staging&#45;4.18">
<ellipse fill="none" stroke="red" cx="1451" cy="-358" rx="144" ry="18"/>
<text text-anchor="middle" x="1451" y="-355" font-family="Helvetica,sans-Serif" font-size="10.00">portage://app&#45;emulation/wine&#45;staging&#45;4.18</text>
</a>
</g>
</g>
<!-- dependency436138&#45;&gt;choiceportage9711211245101109117108971161051111104711910511010145115116971031051101034552464956 -->
<g id="edge20" class="edge">
<title>dependency436138:e&#45;&gt;choiceportage9711211245101109117108971161051111104711910511010145115116971031051101034552464956:w</title>
<path fill="none" stroke="black" stroke-dasharray="1,5" d="M1200,-482C1268.82,-482 1237.17,-370.27 1295.79,-358.93"/>
<polygon fill="black" stroke="black" points="1306,-358 1296.45,-363.39 1301.02,-358.45 1296.04,-358.9 1296.04,-358.9 1296.04,-358.9 1301.02,-358.45 1295.63,-354.42 1306,-358 1306,-358"/>
</g>
<!-- choiceportage9711211245101109117108971161051111104711910511010145115116971031051101034552464957 -->
<g id="node22" class="node">
<title>choiceportage9711211245101109117108971161051111104711910511010145115116971031051101034552464957</title>
<g id="a_node22"><a xlink:href="../app-emulation/wine-staging-4.19.svg" xlink:title="portage://app&#45;emulation/wine&#45;staging&#45;4.19">
<ellipse fill="none" stroke="red" cx="1451" cy="-466" rx="144" ry="18"/>
<text text-anchor="middle" x="1451" y="-463" font-family="Helvetica,sans-Serif" font-size="10.00">portage://app&#45;emulation/wine&#45;staging&#45;4.19</text>
</a>
</g>
</g>
<!-- dependency436138&#45;&gt;choiceportage9711211245101109117108971161051111104711910511010145115116971031051101034552464957 -->
<g id="edge21" class="edge">
<title>dependency436138:e&#45;&gt;choiceportage9711211245101109117108971161051111104711910511010145115116971031051101034552464957:w</title>
<path fill="none" stroke="black" stroke-dasharray="1,5" d="M1200,-482C1244.11,-482 1256.56,-468.29 1295.97,-466.25"/>
<polygon fill="black" stroke="black" points="1306,-466 1296.12,-470.75 1301,-466.13 1296,-466.25 1296,-466.25 1296,-466.25 1301,-466.13 1295.89,-461.75 1306,-466 1306,-466"/>
</g>
<!-- choiceportage9711211245101109117108971161051111104711910511010145115116971031051101034552465048 -->
<g id="node23" class="node">
<title>choiceportage9711211245101109117108971161051111104711910511010145115116971031051101034552465048</title>
<g id="a_node23"><a xlink:href="../app-emulation/wine-staging-4.20.svg" xlink:title="portage://app&#45;emulation/wine&#45;staging&#45;4.20">
<ellipse fill="none" stroke="red" cx="1451" cy="-412" rx="144" ry="18"/>
<text text-anchor="middle" x="1451" y="-409" font-family="Helvetica,sans-Serif" font-size="10.00">portage://app&#45;emulation/wine&#45;staging&#45;4.20</text>
</a>
</g>
</g>
<!-- dependency436138&#45;&gt;choiceportage9711211245101109117108971161051111104711910511010145115116971031051101034552465048 -->
<g id="edge22" class="edge">
<title>dependency436138:e&#45;&gt;choiceportage9711211245101109117108971161051111104711910511010145115116971031051101034552465048:w</title>
<path fill="none" stroke="black" stroke-dasharray="1,5" d="M1200,-482C1252.82,-482 1250.17,-420.73 1295.84,-412.83"/>
<polygon fill="black" stroke="black" points="1306,-412 1296.4,-417.3 1301.02,-412.41 1296.03,-412.82 1296.03,-412.82 1296.03,-412.82 1301.02,-412.41 1295.67,-408.33 1306,-412 1306,-412"/>
</g>
<!-- choiceportage9711211245101109117108971161051111104711910511010145115116971031051101034557575757 -->
<g id="node24" class="node">
<title>choiceportage9711211245101109117108971161051111104711910511010145115116971031051101034557575757</title>
<g id="a_node24"><a xlink:href="../app-emulation/wine-staging-9999.svg" xlink:title="portage://app&#45;emulation/wine&#45;staging&#45;9999">
<ellipse fill="none" stroke="red" cx="1451" cy="-520" rx="144" ry="18"/>
<text text-anchor="middle" x="1451" y="-517" font-family="Helvetica,sans-Serif" font-size="10.00">portage://app&#45;emulation/wine&#45;staging&#45;9999</text>
</a>
</g>
</g>
<!-- dependency436138&#45;&gt;choiceportage9711211245101109117108971161051111104711910511010145115116971031051101034557575757 -->
<g id="edge23" class="edge">
<title>dependency436138:e&#45;&gt;choiceportage9711211245101109117108971161051111104711910511010145115116971031051101034557575757:w</title>
<path fill="none" stroke="black" stroke-dasharray="1,5" d="M1200,-482C1246.43,-482 1254.87,-514.71 1295.81,-519.43"/>
<polygon fill="black" stroke="black" points="1306,-520 1295.77,-523.94 1301.01,-519.72 1296.02,-519.44 1296.02,-519.44 1296.02,-519.44 1301.01,-519.72 1296.27,-514.95 1306,-520 1306,-520"/>
</g>
<!-- choiceportage971121124510110911710897116105111110471191051101014510051100574551465048 -->
<g id="node25" class="node">
<title>choiceportage971121124510110911710897116105111110471191051101014510051100574551465048</title>
<g id="a_node25"><a xlink:href="../app-emulation/wine-d3d9-3.20.svg" xlink:title="portage://app&#45;emulation/wine&#45;d3d9&#45;3.20">
<ellipse fill="none" stroke="red" cx="1451" cy="-1222" rx="144" ry="18"/>
<text text-anchor="middle" x="1451" y="-1219" font-family="Helvetica,sans-Serif" font-size="10.00">portage://app&#45;emulation/wine&#45;d3d9&#45;3.20</text>
</a>
</g>
</g>
<!-- dependency436139&#45;&gt;choiceportage971121124510110911710897116105111110471191051101014510051100574551465048 -->
<g id="edge24" class="edge">
<title>dependency436139:e&#45;&gt;choiceportage971121124510110911710897116105111110471191051101014510051100574551465048:w</title>
<path fill="none" stroke="black" stroke-dasharray="1,5" d="M1200,-1060C1282.35,-1060 1225.36,-1208.38 1295.73,-1221.13"/>
<polygon fill="black" stroke="black" points="1306,-1222 1295.66,-1225.64 1301.02,-1221.58 1296.04,-1221.15 1296.04,-1221.15 1296.04,-1221.15 1301.02,-1221.58 1296.42,-1216.67 1306,-1222 1306,-1222"/>
</g>
<!-- choiceportage971121124510110911710897116105111110471191051101014510051100574551465049 -->
<g id="node26" class="node">
<title>choiceportage971121124510110911710897116105111110471191051101014510051100574551465049</title>
<g id="a_node26"><a xlink:href="../app-emulation/wine-d3d9-3.21.svg" xlink:title="portage://app&#45;emulation/wine&#45;d3d9&#45;3.21">
<ellipse fill="none" stroke="red" cx="1451" cy="-1168" rx="144" ry="18"/>
<text text-anchor="middle" x="1451" y="-1165" font-family="Helvetica,sans-Serif" font-size="10.00">portage://app&#45;emulation/wine&#45;d3d9&#45;3.21</text>
</a>
</g>
</g>
<!-- dependency436139&#45;&gt;choiceportage971121124510110911710897116105111110471191051101014510051100574551465049 -->
<g id="edge25" class="edge">
<title>dependency436139:e&#45;&gt;choiceportage971121124510110911710897116105111110471191051101014510051100574551465049:w</title>
<path fill="none" stroke="black" stroke-dasharray="1,5" d="M1200,-1060C1263.58,-1060 1241.58,-1156.51 1295.79,-1167.07"/>
<polygon fill="black" stroke="black" points="1306,-1168 1295.63,-1171.57 1301.02,-1167.54 1296.04,-1167.09 1296.04,-1167.09 1296.04,-1167.09 1301.02,-1167.54 1296.45,-1162.61 1306,-1168 1306,-1168"/>
</g>
<!-- choiceportage9711211245101109117108971161051111104711910511010145100511005745524648 -->
<g id="node27" class="node">
<title>choiceportage9711211245101109117108971161051111104711910511010145100511005745524648</title>
<g id="a_node27"><a xlink:href="../app-emulation/wine-d3d9-4.0.svg" xlink:title="portage://app&#45;emulation/wine&#45;d3d9&#45;4.0">
<ellipse fill="none" stroke="red" cx="1451" cy="-1114" rx="144" ry="18"/>
<text text-anchor="middle" x="1451" y="-1111" font-family="Helvetica,sans-Serif" font-size="10.00">portage://app&#45;emulation/wine&#45;d3d9&#45;4.0</text>
</a>
</g>
</g>
<!-- dependency436139&#45;&gt;choiceportage9711211245101109117108971161051111104711910511010145100511005745524648 -->
<g id="edge26" class="edge">
<title>dependency436139:e&#45;&gt;choiceportage9711211245101109117108971161051111104711910511010145100511005745524648:w</title>
<path fill="none" stroke="black" stroke-dasharray="1,5" d="M1200,-1060C1249.26,-1060 1252.85,-1106.87 1295.86,-1113.28"/>
<polygon fill="black" stroke="black" points="1306,-1114 1295.71,-1117.78 1301.01,-1113.64 1296.03,-1113.29 1296.03,-1113.29 1296.03,-1113.29 1301.01,-1113.64 1296.35,-1108.8 1306,-1114 1306,-1114"/>
</g>
<!-- choiceportage9711211245101109117108971161051111104711910511010145100511005745524649 -->
<g id="node28" class="node">
<title>choiceportage9711211245101109117108971161051111104711910511010145100511005745524649</title>
<g id="a_node28"><a xlink:href="../app-emulation/wine-d3d9-4.1.svg" xlink:title="portage://app&#45;emulation/wine&#45;d3d9&#45;4.1">
<ellipse fill="none" stroke="red" cx="1451" cy="-1060" rx="144" ry="18"/>
<text text-anchor="middle" x="1451" y="-1057" font-family="Helvetica,sans-Serif" font-size="10.00">portage://app&#45;emulation/wine&#45;d3d9&#45;4.1</text>
</a>
</g>
</g>
<!-- dependency436139&#45;&gt;choiceportage9711211245101109117108971161051111104711910511010145100511005745524649 -->
<g id="edge27" class="edge">
<title>dependency436139:e&#45;&gt;choiceportage9711211245101109117108971161051111104711910511010145100511005745524649:w</title>
<path fill="none" stroke="black" stroke-dasharray="1,5" d="M1200,-1060C1243.43,-1060 1256.83,-1060 1295.57,-1060"/>
<polygon fill="black" stroke="black" points="1306,-1060 1296,-1064.5 1301,-1060 1296,-1060 1296,-1060 1296,-1060 1301,-1060 1296,-1055.5 1306,-1060 1306,-1060"/>
</g>
<!-- choiceportage971121124510110911710897116105111110471191051101014510051100574557575757 -->
<g id="node29" class="node">
<title>choiceportage971121124510110911710897116105111110471191051101014510051100574557575757</title>
<g id="a_node29"><a xlink:href="../app-emulation/wine-d3d9-9999.svg" xlink:title="portage://app&#45;emulation/wine&#45;d3d9&#45;9999">
<ellipse fill="none" stroke="red" cx="1451" cy="-1006" rx="144" ry="18"/>
<text text-anchor="middle" x="1451" y="-1003" font-family="Helvetica,sans-Serif" font-size="10.00">portage://app&#45;emulation/wine&#45;d3d9&#45;9999</text>
</a>
</g>
</g>
<!-- dependency436139&#45;&gt;choiceportage971121124510110911710897116105111110471191051101014510051100574557575757 -->
<g id="edge28" class="edge">
<title>dependency436139:e&#45;&gt;choiceportage971121124510110911710897116105111110471191051101014510051100574557575757:w</title>
<path fill="none" stroke="black" stroke-dasharray="1,5" d="M1200,-1060C1249.26,-1060 1252.85,-1013.13 1295.86,-1006.72"/>
<polygon fill="black" stroke="black" points="1306,-1006 1296.35,-1011.2 1301.01,-1006.36 1296.03,-1006.71 1296.03,-1006.71 1296.03,-1006.71 1301.01,-1006.36 1295.71,-1002.22 1306,-1006 1306,-1006"/>
</g>
<!-- choiceportage9711211245101109117108971161051111104711910511010145971101214551465048 -->
<g id="node30" class="node">
<title>choiceportage9711211245101109117108971161051111104711910511010145971101214551465048</title>
<g id="a_node30"><a xlink:href="../app-emulation/wine-any-3.20.svg" xlink:title="portage://app&#45;emulation/wine&#45;any&#45;3.20">
<ellipse fill="none" stroke="red" cx="1451" cy="-142" rx="144" ry="18"/>
<text text-anchor="middle" x="1451" y="-139" font-family="Helvetica,sans-Serif" font-size="10.00">portage://app&#45;emulation/wine&#45;any&#45;3.20</text>
</a>
</g>
</g>
<!-- dependency436140&#45;&gt;choiceportage9711211245101109117108971161051111104711910511010145971101214551465048 -->
<g id="edge29" class="edge">
<title>dependency436140:e&#45;&gt;choiceportage9711211245101109117108971161051111104711910511010145971101214551465048:w</title>
<path fill="none" stroke="black" stroke-dasharray="1,5" d="M1200,-234C1258.73,-234 1245.54,-152.47 1295.84,-142.91"/>
<polygon fill="black" stroke="black" points="1306,-142 1296.44,-147.37 1301.02,-142.45 1296.04,-142.89 1296.04,-142.89 1296.04,-142.89 1301.02,-142.45 1295.64,-138.41 1306,-142 1306,-142"/>
</g>
<!-- choiceportage9711211245101109117108971161051111104711910511010145971101214551465049 -->
<g id="node31" class="node">
<title>choiceportage9711211245101109117108971161051111104711910511010145971101214551465049</title>
<g id="a_node31"><a xlink:href="../app-emulation/wine-any-3.21.svg" xlink:title="portage://app&#45;emulation/wine&#45;any&#45;3.21">
<ellipse fill="none" stroke="red" cx="1451" cy="-88" rx="144" ry="18"/>
<text text-anchor="middle" x="1451" y="-85" font-family="Helvetica,sans-Serif" font-size="10.00">portage://app&#45;emulation/wine&#45;any&#45;3.21</text>
</a>
</g>
</g>
<!-- dependency436140&#45;&gt;choiceportage9711211245101109117108971161051111104711910511010145971101214551465049 -->
<g id="edge30" class="edge">
<title>dependency436140:e&#45;&gt;choiceportage9711211245101109117108971161051111104711910511010145971101214551465049:w</title>
<path fill="none" stroke="black" stroke-dasharray="1,5" d="M1200,-234C1276.59,-234 1230.43,-100.82 1295.98,-88.86"/>
<polygon fill="black" stroke="black" points="1306,-88 1296.42,-93.34 1301.02,-88.43 1296.04,-88.85 1296.04,-88.85 1296.04,-88.85 1301.02,-88.43 1295.65,-84.37 1306,-88 1306,-88"/>
</g>
<!-- choiceportage97112112451011091171089711610511111047119105110101459711012145524648 -->
<g id="node32" class="node">
<title>choiceportage97112112451011091171089711610511111047119105110101459711012145524648</title>
<g id="a_node32"><a xlink:href="../app-emulation/wine-any-4.0.svg" xlink:title="portage://app&#45;emulation/wine&#45;any&#45;4.0">
<ellipse fill="none" stroke="red" cx="1451" cy="-250" rx="144" ry="18"/>
<text text-anchor="middle" x="1451" y="-247" font-family="Helvetica,sans-Serif" font-size="10.00">portage://app&#45;emulation/wine&#45;any&#45;4.0</text>
</a>
</g>
</g>
<!-- dependency436140&#45;&gt;choiceportage97112112451011091171089711610511111047119105110101459711012145524648 -->
<g id="edge31" class="edge">
<title>dependency436140:e&#45;&gt;choiceportage97112112451011091171089711610511111047119105110101459711012145524648:w</title>
<path fill="none" stroke="black" stroke-dasharray="1,5" d="M1200,-234C1244.11,-234 1256.56,-247.71 1295.97,-249.75"/>
<polygon fill="black" stroke="black" points="1306,-250 1295.89,-254.25 1301,-249.87 1296,-249.75 1296,-249.75 1296,-249.75 1301,-249.87 1296.12,-245.25 1306,-250 1306,-250"/>
</g>
<!-- choiceportage97112112451011091171089711610511111047119105110101459711012145524649 -->
<g id="node33" class="node">
<title>choiceportage97112112451011091171089711610511111047119105110101459711012145524649</title>
<g id="a_node33"><a xlink:href="../app-emulation/wine-any-4.1.svg" xlink:title="portage://app&#45;emulation/wine&#45;any&#45;4.1">
<ellipse fill="none" stroke="red" cx="1451" cy="-196" rx="144" ry="18"/>
<text text-anchor="middle" x="1451" y="-193" font-family="Helvetica,sans-Serif" font-size="10.00">portage://app&#45;emulation/wine&#45;any&#45;4.1</text>
</a>
</g>
</g>
<!-- dependency436140&#45;&gt;choiceportage97112112451011091171089711610511111047119105110101459711012145524649 -->
<g id="edge32" class="edge">
<title>dependency436140:e&#45;&gt;choiceportage97112112451011091171089711610511111047119105110101459711012145524649:w</title>
<path fill="none" stroke="black" stroke-dasharray="1,5" d="M1200,-234C1246.43,-234 1254.87,-201.29 1295.81,-196.57"/>
<polygon fill="black" stroke="black" points="1306,-196 1296.27,-201.05 1301.01,-196.28 1296.02,-196.56 1296.02,-196.56 1296.02,-196.56 1301.01,-196.28 1295.77,-192.06 1306,-196 1306,-196"/>
</g>
<!-- choiceportage9711211245101109117108971161051111104711910511010145971101214557575757 -->
<g id="node34" class="node">
<title>choiceportage9711211245101109117108971161051111104711910511010145971101214557575757</title>
<g id="a_node34"><a xlink:href="../app-emulation/wine-any-9999.svg" xlink:title="portage://app&#45;emulation/wine&#45;any&#45;9999">
<ellipse fill="none" stroke="red" cx="1451" cy="-34" rx="144" ry="18"/>
<text text-anchor="middle" x="1451" y="-31" font-family="Helvetica,sans-Serif" font-size="10.00">portage://app&#45;emulation/wine&#45;any&#45;9999</text>
</a>
</g>
</g>
<!-- dependency436140&#45;&gt;choiceportage9711211245101109117108971161051111104711910511010145971101214557575757 -->
<g id="edge33" class="edge">
<title>dependency436140:e&#45;&gt;choiceportage9711211245101109117108971161051111104711910511010145971101214557575757:w</title>
<path fill="none" stroke="black" stroke-dasharray="1,5" d="M1200,-234C1296.97,-234 1212.02,-48.19 1295.84,-34.76"/>
<polygon fill="black" stroke="black" points="1306,-34 1296.37,-39.24 1301.01,-34.38 1296.03,-34.75 1296.03,-34.75 1296.03,-34.75 1301.01,-34.38 1295.69,-30.26 1306,-34 1306,-34"/>
</g>
<!-- dependency436142 -->
<g id="node8" class="node">
<title>dependency436142</title>
<polygon fill="none" stroke="red" points="764.5,-314 764.5,-348 847.5,-348 847.5,-314 764.5,-314"/>
<text text-anchor="start" x="775.43" y="-328" font-family="Helvetica,sans-Serif" font-size="10.00">any_of_group</text>
</g>
<!-- dependency436141&#45;&gt;dependency436142 -->
<g id="edge8" class="edge">
<title>dependency436141:e&#45;&gt;dependency436142:w</title>
<path fill="none" stroke="black" stroke-dasharray="5,2" d="M606,-331C669.15,-331 687.44,-331 745.86,-331"/>
<polygon fill="black" stroke="black" points="756,-331 746,-335.5 751,-331 746,-331 746,-331 746,-331 751,-331 746,-326.5 756,-331 756,-331"/>
</g>
<!-- dependency436143 -->
<g id="node9" class="node">
<title>dependency436143</title>
<polygon fill="none" stroke="blue" points="971,-309 971,-407 1076,-407 1076,-309 971,-309"/>
<text text-anchor="start" x="1001.82" y="-355" font-family="Helvetica,sans-Serif" font-size="10.00">pack_dep</text>
<polygon fill="none" stroke="blue" points="1076,-385 1076,-407 1186,-407 1186,-385 1076,-385"/>
<text text-anchor="start" x="1125.44" y="-393" font-family="Helvetica,sans-Serif" font-size="10.00">no</text>
<polygon fill="none" stroke="blue" points="1076,-363 1076,-385 1186,-385 1186,-363 1076,-363"/>
<text text-anchor="start" x="1099.33" y="-371" font-family="Helvetica,sans-Serif" font-size="10.00">app&#45;emulation</text>
<polygon fill="none" stroke="blue" points="1076,-341 1076,-363 1186,-363 1186,-341 1076,-341"/>
<text text-anchor="start" x="1102.94" y="-349" font-family="Helvetica,sans-Serif" font-size="10.00">wine&#45;staging</text>
<polygon fill="none" stroke="blue" points="1076,-319 1076,-341 1186,-341 1186,-319 1076,-319"/>
<text text-anchor="start" x="1119.88" y="-327" font-family="Helvetica,sans-Serif" font-size="10.00">none</text>
<polygon fill="none" stroke="blue" points="1076,-309 1076,-319 1186,-319 1186,-309 1076,-309"/>
</g>
<!-- dependency436142&#45;&gt;dependency436143 -->
<g id="edge6" class="edge">
<title>dependency436142:e&#45;&gt;dependency436143:w</title>
<path fill="none" stroke="black" stroke-dasharray="1,5" d="M855,-331C900.9,-331 912,-354.24 952.88,-357.6"/>
<polygon fill="none" stroke="black" points="962.86,-361.5 953.01,-357.6 963.14,-354.5 962.86,-361.5"/>
</g>
<!-- dependency436144 -->
<g id="node10" class="node">
<title>dependency436144</title>
<polygon fill="none" stroke="blue" points="971,-61 971,-159 1076,-159 1076,-61 971,-61"/>
<text text-anchor="start" x="1001.82" y="-107" font-family="Helvetica,sans-Serif" font-size="10.00">pack_dep</text>
<polygon fill="none" stroke="blue" points="1076,-137 1076,-159 1186,-159 1186,-137 1076,-137"/>
<text text-anchor="start" x="1125.44" y="-145" font-family="Helvetica,sans-Serif" font-size="10.00">no</text>
<polygon fill="none" stroke="blue" points="1076,-115 1076,-137 1186,-137 1186,-115 1076,-115"/>
<text text-anchor="start" x="1099.33" y="-123" font-family="Helvetica,sans-Serif" font-size="10.00">app&#45;emulation</text>
<polygon fill="none" stroke="blue" points="1076,-93 1076,-115 1186,-115 1186,-93 1076,-93"/>
<text text-anchor="start" x="1111" y="-101" font-family="Helvetica,sans-Serif" font-size="10.00">wine&#45;any</text>
<polygon fill="none" stroke="blue" points="1076,-71 1076,-93 1186,-93 1186,-71 1076,-71"/>
<text text-anchor="start" x="1119.88" y="-79" font-family="Helvetica,sans-Serif" font-size="10.00">none</text>
<polygon fill="none" stroke="blue" points="1076,-61 1076,-71 1186,-71 1186,-61 1076,-61"/>
</g>
<!-- dependency436142&#45;&gt;dependency436144 -->
<g id="edge7" class="edge">
<title>dependency436142:e&#45;&gt;dependency436144:w</title>
<path fill="none" stroke="black" stroke-dasharray="1,5" d="M855,-331C960.69,-331 860.78,-124.43 952.82,-110.71"/>
<polygon fill="none" stroke="black" points="963.25,-113.49 953.02,-110.7 962.75,-106.51 963.25,-113.49"/>
</g>
<!-- dependency436143&#45;&gt;choiceportage9711211245101109117108971161051111104711910511010145115116971031051101034552464955 -->
<g id="edge34" class="edge">
<title>dependency436143:e&#45;&gt;choiceportage9711211245101109117108971161051111104711910511010145115116971031051101034552464955:w</title>
<path fill="none" stroke="black" stroke-dasharray="1,5" d="M1200,-358C1249.26,-358 1252.85,-311.13 1295.86,-304.72"/>
<polygon fill="black" stroke="black" points="1306,-304 1296.35,-309.2 1301.01,-304.36 1296.03,-304.71 1296.03,-304.71 1296.03,-304.71 1301.01,-304.36 1295.71,-300.22 1306,-304 1306,-304"/>
</g>
<!-- dependency436143&#45;&gt;choiceportage9711211245101109117108971161051111104711910511010145115116971031051101034552464956 -->
<g id="edge35" class="edge">
<title>dependency436143:e&#45;&gt;choiceportage9711211245101109117108971161051111104711910511010145115116971031051101034552464956:w</title>
<path fill="none" stroke="black" stroke-dasharray="1,5" d="M1200,-358C1243.43,-358 1256.83,-358 1295.57,-358"/>
<polygon fill="black" stroke="black" points="1306,-358 1296,-362.5 1301,-358 1296,-358 1296,-358 1296,-358 1301,-358 1296,-353.5 1306,-358 1306,-358"/>
</g>
<!-- dependency436143&#45;&gt;choiceportage9711211245101109117108971161051111104711910511010145115116971031051101034552464957 -->
<g id="edge36" class="edge">
<title>dependency436143:e&#45;&gt;choiceportage9711211245101109117108971161051111104711910511010145115116971031051101034552464957:w</title>
<path fill="none" stroke="black" stroke-dasharray="1,5" d="M1200,-358C1263.58,-358 1241.58,-454.51 1295.79,-465.07"/>
<polygon fill="black" stroke="black" points="1306,-466 1295.63,-469.57 1301.02,-465.54 1296.04,-465.09 1296.04,-465.09 1296.04,-465.09 1301.02,-465.54 1296.45,-460.61 1306,-466 1306,-466"/>
</g>
<!-- dependency436143&#45;&gt;choiceportage9711211245101109117108971161051111104711910511010145115116971031051101034552465048 -->
<g id="edge37" class="edge">
<title>dependency436143:e&#45;&gt;choiceportage9711211245101109117108971161051111104711910511010145115116971031051101034552465048:w</title>
<path fill="none" stroke="black" stroke-dasharray="1,5" d="M1200,-358C1249.26,-358 1252.85,-404.87 1295.86,-411.28"/>
<polygon fill="black" stroke="black" points="1306,-412 1295.71,-415.78 1301.01,-411.64 1296.03,-411.29 1296.03,-411.29 1296.03,-411.29 1301.01,-411.64 1296.35,-406.8 1306,-412 1306,-412"/>
</g>
<!-- dependency436143&#45;&gt;choiceportage9711211245101109117108971161051111104711910511010145115116971031051101034557575757 -->
<g id="edge38" class="edge">
<title>dependency436143:e&#45;&gt;choiceportage9711211245101109117108971161051111104711910511010145115116971031051101034557575757:w</title>
<path fill="none" stroke="black" stroke-dasharray="1,5" d="M1200,-358C1282.35,-358 1225.36,-506.38 1295.73,-519.13"/>
<polygon fill="black" stroke="black" points="1306,-520 1295.66,-523.64 1301.02,-519.58 1296.04,-519.15 1296.04,-519.15 1296.04,-519.15 1301.02,-519.58 1296.42,-514.67 1306,-520 1306,-520"/>
</g>
<!-- dependency436144&#45;&gt;choiceportage9711211245101109117108971161051111104711910511010145971101214551465048 -->
<g id="edge39" class="edge">
<title>dependency436144:e&#45;&gt;choiceportage9711211245101109117108971161051111104711910511010145971101214551465048:w</title>
<path fill="none" stroke="black" stroke-dasharray="1,5" d="M1200,-110C1245.65,-110 1255.48,-137.54 1295.95,-141.52"/>
<polygon fill="black" stroke="black" points="1306,-142 1295.8,-146.02 1301.01,-141.76 1296.01,-141.53 1296.01,-141.53 1296.01,-141.53 1301.01,-141.76 1296.22,-137.03 1306,-142 1306,-142"/>
</g>
<!-- dependency436144&#45;&gt;choiceportage9711211245101109117108971161051111104711910511010145971101214551465049 -->
<g id="edge40" class="edge">
<title>dependency436144:e&#45;&gt;choiceportage9711211245101109117108971161051111104711910511010145971101214551465049:w</title>
<path fill="none" stroke="black" stroke-dasharray="1,5" d="M1200,-110C1244.54,-110 1256.22,-91.14 1295.89,-88.35"/>
<polygon fill="black" stroke="black" points="1306,-88 1296.16,-92.84 1301,-88.17 1296.01,-88.34 1296.01,-88.34 1296.01,-88.34 1301,-88.17 1295.85,-83.84 1306,-88 1306,-88"/>
</g>
<!-- dependency436144&#45;&gt;choiceportage97112112451011091171089711610511111047119105110101459711012145524648 -->
<g id="edge41" class="edge">
<title>dependency436144:e&#45;&gt;choiceportage97112112451011091171089711610511111047119105110101459711012145524648:w</title>
<path fill="none" stroke="black" stroke-dasharray="1,5" d="M1200,-110C1274.39,-110 1232.37,-237.18 1295.84,-249.11"/>
<polygon fill="black" stroke="black" points="1306,-250 1295.64,-253.61 1301.02,-249.56 1296.04,-249.12 1296.04,-249.12 1296.04,-249.12 1301.02,-249.56 1296.43,-244.64 1306,-250 1306,-250"/>
</g>
<!-- dependency436144&#45;&gt;choiceportage97112112451011091171089711610511111047119105110101459711012145524649 -->
<g id="edge42" class="edge">
<title>dependency436144:e&#45;&gt;choiceportage97112112451011091171089711610511111047119105110101459711012145524649:w</title>
<path fill="none" stroke="black" stroke-dasharray="1,5" d="M1200,-110C1256.99,-110 1246.91,-185.9 1295.78,-195.09"/>
<polygon fill="black" stroke="black" points="1306,-196 1295.64,-199.6 1301.02,-195.56 1296.04,-195.12 1296.04,-195.12 1296.04,-195.12 1301.02,-195.56 1296.44,-190.63 1306,-196 1306,-196"/>
</g>
<!-- dependency436144&#45;&gt;choiceportage9711211245101109117108971161051111104711910511010145971101214557575757 -->
<g id="edge43" class="edge">
<title>dependency436144:e&#45;&gt;choiceportage9711211245101109117108971161051111104711910511010145971101214557575757:w</title>
<path fill="none" stroke="black" stroke-dasharray="1,5" d="M1200,-110C1254.35,-110 1249.01,-43.2 1295.89,-34.85"/>
<polygon fill="black" stroke="black" points="1306,-34 1296.41,-39.33 1301.02,-34.42 1296.04,-34.84 1296.04,-34.84 1296.04,-34.84 1301.02,-34.42 1295.66,-30.36 1306,-34 1306,-34"/>
</g>
</g>
</svg>
