<?xml version="1.0" encoding="UTF-8" standalone="no"?>
<!DOCTYPE svg PUBLIC "-//W3C//DTD SVG 1.1//EN"
 "http://www.w3.org/Graphics/SVG/1.1/DTD/svg11.dtd">
<!-- Generated by graphviz version 2.41.20171026.1811 (20171026.1811)
 -->
<!-- Title: prolog Pages: 1 -->
<svg width="1068pt" height="1194pt"
 viewBox="0.00 0.00 1068.00 1194.00" xmlns="http://www.w3.org/2000/svg" xmlns:xlink="http://www.w3.org/1999/xlink">
<g id="graph0" class="graph" transform="scale(1 1) rotate(0) translate(4 1190)">
<title>prolog</title>
<polygon fill="white" stroke="transparent" points="-4,4 -4,-1190 1064,-1190 1064,4 -4,4"/>
<g id="clust1" class="cluster">
<title>cluster_leftcol</title>
<polygon fill="none" stroke="gray" points="8,-570 8,-642 312,-642 312,-570 8,-570"/>
<text text-anchor="start" x="146.66" y="-630" font-family="Helvetica,sans-Serif" font-style="italic" font-size="10.00">ebuild</text>
</g>
<g id="clust2" class="cluster">
<title>cluster_midcol</title>
<polygon fill="none" stroke="gray" points="396,-8 396,-1178 664,-1178 664,-8 396,-8"/>
<text text-anchor="start" x="498.88" y="-1166" font-family="Helvetica,sans-Serif" font-style="italic" font-size="10.00">dependencies</text>
</g>
<g id="clust3" class="cluster">
<title>cluster_compile</title>
<polygon fill="#eeeeee" stroke="gray" points="404,-340 404,-1150 656,-1150 656,-340 404,-340"/>
<text text-anchor="start" x="512.78" y="-1138" font-family="Helvetica,sans-Serif" font-style="italic" font-size="10.00">compile</text>
</g>
<g id="clust10" class="cluster">
<title>cluster_compileandrun</title>
<polygon fill="#eeeeee" stroke="gray" points="404,-178 404,-332 656,-332 656,-178 404,-178"/>
<text text-anchor="start" x="494.44" y="-320" font-family="Helvetica,sans-Serif" font-style="italic" font-size="10.00">compile and run</text>
</g>
<g id="clust12" class="cluster">
<title>cluster_run</title>
<polygon fill="#eeeeee" stroke="gray" points="404,-16 404,-170 656,-170 656,-16 404,-16"/>
<text text-anchor="start" x="522.78" y="-158" font-family="Helvetica,sans-Serif" font-style="italic" font-size="10.00">run</text>
</g>
<g id="clust14" class="cluster">
<title>cluster_choices</title>
<polygon fill="none" stroke="gray" points="748,-57 748,-1109 1052,-1109 1052,-57 748,-57"/>
<text text-anchor="start" x="875.82" y="-1097" font-family="Helvetica,sans-Serif" font-style="italic" font-size="10.00">candidates</text>
</g>
<!-- id -->
<g id="node1" class="node">
<title>id</title>
<g id="a_node1"><a xlink:href="../net-im/openfire-4.1.4.svg" xlink:title="net&#45;im/openfire&#45;4.1.4">
<ellipse fill="none" stroke="red" cx="160" cy="-596" rx="144" ry="18"/>
<text text-anchor="middle" x="160" y="-593" font-family="Helvetica,sans-Serif" font-size="10.00">net&#45;im/openfire&#45;4.1.4</text>
</a>
</g>
</g>
<!-- dependency412904 -->
<g id="node2" class="node">
<title>dependency412904</title>
<polygon fill="none" stroke="blue" points="420,-1008 420,-1118 525,-1118 525,-1008 420,-1008"/>
<text text-anchor="start" x="450.82" y="-1060" font-family="Helvetica,sans-Serif" font-size="10.00">pack_dep</text>
<polygon fill="none" stroke="blue" points="525,-1096 525,-1118 635,-1118 635,-1096 525,-1096"/>
<text text-anchor="start" x="574.44" y="-1104" font-family="Helvetica,sans-Serif" font-size="10.00">no</text>
<polygon fill="none" stroke="blue" points="525,-1074 525,-1096 635,-1096 635,-1074 525,-1074"/>
<text text-anchor="start" x="561.11" y="-1082" font-family="Helvetica,sans-Serif" font-size="10.00">dev&#45;java</text>
<polygon fill="none" stroke="blue" points="525,-1052 525,-1074 635,-1074 635,-1052 525,-1052"/>
<text text-anchor="start" x="556.38" y="-1060" font-family="Helvetica,sans-Serif" font-size="10.00">ant&#45;contrib</text>
<polygon fill="none" stroke="blue" points="525,-1030 525,-1052 635,-1052 635,-1030 525,-1030"/>
<text text-anchor="start" x="570.83" y="-1038" font-family="Helvetica,sans-Serif" font-size="10.00">tilde</text>
<polygon fill="none" stroke="blue" points="525,-1008 525,-1030 635,-1030 635,-1008 525,-1008"/>
<text text-anchor="start" x="557.76" y="-1016" font-family="Helvetica,sans-Serif" font-size="10.00">1.0_beta2</text>
</g>
<!-- id&#45;&gt;dependency412904 -->
<g id="edge1" class="edge">
<title>id:e&#45;&gt;dependency412904:w</title>
<path fill="none" stroke="black" d="M305,-596C514.3,-596 208.63,-1047.62 400.84,-1062.62"/>
<polygon fill="black" stroke="black" points="411,-1063 400.84,-1067.12 406,-1062.81 401.01,-1062.62 401.01,-1062.62 401.01,-1062.62 406,-1062.81 401.18,-1058.13 411,-1063 411,-1063"/>
</g>
<!-- dependency412905 -->
<g id="node3" class="node">
<title>dependency412905</title>
<polygon fill="none" stroke="blue" points="420,-872 420,-982 525,-982 525,-872 420,-872"/>
<text text-anchor="start" x="450.82" y="-924" font-family="Helvetica,sans-Serif" font-size="10.00">pack_dep</text>
<polygon fill="none" stroke="blue" points="525,-960 525,-982 635,-982 635,-960 525,-960"/>
<text text-anchor="start" x="574.44" y="-968" font-family="Helvetica,sans-Serif" font-size="10.00">no</text>
<polygon fill="none" stroke="blue" points="525,-938 525,-960 635,-960 635,-938 525,-938"/>
<text text-anchor="start" x="561.11" y="-946" font-family="Helvetica,sans-Serif" font-size="10.00">dev&#45;java</text>
<polygon fill="none" stroke="blue" points="525,-916 525,-938 635,-938 635,-916 525,-916"/>
<text text-anchor="start" x="561.66" y="-924" font-family="Helvetica,sans-Serif" font-size="10.00">ant&#45;core</text>
<polygon fill="none" stroke="blue" points="525,-894 525,-916 635,-916 635,-894 525,-894"/>
<text text-anchor="start" x="551.94" y="-902" font-family="Helvetica,sans-Serif" font-size="10.00">greaterequal</text>
<polygon fill="none" stroke="blue" points="525,-872 525,-894 635,-894 635,-872 525,-872"/>
<text text-anchor="start" x="568.88" y="-880" font-family="Helvetica,sans-Serif" font-size="10.00">1.8.2</text>
</g>
<!-- id&#45;&gt;dependency412905 -->
<g id="edge2" class="edge">
<title>id:e&#45;&gt;dependency412905:w</title>
<path fill="none" stroke="black" d="M305,-596C455.85,-596 265.85,-911.67 400.72,-926.46"/>
<polygon fill="black" stroke="black" points="411,-927 400.78,-930.97 406.01,-926.74 401.01,-926.48 401.01,-926.48 401.01,-926.48 406.01,-926.74 401.25,-921.98 411,-927 411,-927"/>
</g>
<!-- dependency412906 -->
<g id="node4" class="node">
<title>dependency412906</title>
<polygon fill="none" stroke="blue" points="420,-736 420,-846 525,-846 525,-736 420,-736"/>
<text text-anchor="start" x="450.82" y="-788" font-family="Helvetica,sans-Serif" font-size="10.00">pack_dep</text>
<polygon fill="none" stroke="blue" points="525,-824 525,-846 635,-846 635,-824 525,-824"/>
<text text-anchor="start" x="574.44" y="-832" font-family="Helvetica,sans-Serif" font-size="10.00">no</text>
<polygon fill="none" stroke="blue" points="525,-802 525,-824 635,-824 635,-802 525,-802"/>
<text text-anchor="start" x="561.11" y="-810" font-family="Helvetica,sans-Serif" font-size="10.00">dev&#45;java</text>
<polygon fill="none" stroke="blue" points="525,-780 525,-802 635,-802 635,-780 525,-780"/>
<text text-anchor="start" x="557.77" y="-788" font-family="Helvetica,sans-Serif" font-size="10.00">javatoolkit</text>
<polygon fill="none" stroke="blue" points="525,-758 525,-780 635,-780 635,-758 525,-758"/>
<text text-anchor="start" x="551.94" y="-766" font-family="Helvetica,sans-Serif" font-size="10.00">greaterequal</text>
<polygon fill="none" stroke="blue" points="525,-736 525,-758 635,-758 635,-736 525,-736"/>
<text text-anchor="start" x="562.77" y="-744" font-family="Helvetica,sans-Serif" font-size="10.00">0.3.0&#45;r2</text>
</g>
<!-- id&#45;&gt;dependency412906 -->
<g id="edge3" class="edge">
<title>id:e&#45;&gt;dependency412906:w</title>
<path fill="none" stroke="black" d="M305,-596C399.98,-596 318.87,-776.8 400.78,-790.21"/>
<polygon fill="black" stroke="black" points="411,-791 400.68,-794.72 406.01,-790.62 401.03,-790.23 401.03,-790.23 401.03,-790.23 406.01,-790.62 401.37,-785.75 411,-791 411,-791"/>
</g>
<!-- dependency412907 -->
<g id="node5" class="node">
<title>dependency412907</title>
<polygon fill="none" stroke="blue" points="420,-612 420,-710 525,-710 525,-612 420,-612"/>
<text text-anchor="start" x="450.82" y="-658" font-family="Helvetica,sans-Serif" font-size="10.00">pack_dep</text>
<polygon fill="none" stroke="blue" points="525,-688 525,-710 635,-710 635,-688 525,-688"/>
<text text-anchor="start" x="574.44" y="-696" font-family="Helvetica,sans-Serif" font-size="10.00">no</text>
<polygon fill="none" stroke="blue" points="525,-666 525,-688 635,-688 635,-666 525,-666"/>
<text text-anchor="start" x="566.11" y="-674" font-family="Helvetica,sans-Serif" font-size="10.00">net&#45;im</text>
<polygon fill="none" stroke="blue" points="525,-644 525,-666 635,-666 635,-644 525,-644"/>
<text text-anchor="start" x="553.61" y="-652" font-family="Helvetica,sans-Serif" font-size="10.00">jabber&#45;base</text>
<polygon fill="none" stroke="blue" points="525,-622 525,-644 635,-644 635,-622 525,-622"/>
<text text-anchor="start" x="568.88" y="-630" font-family="Helvetica,sans-Serif" font-size="10.00">none</text>
<polygon fill="none" stroke="blue" points="525,-612 525,-622 635,-622 635,-612 525,-612"/>
</g>
<!-- id&#45;&gt;dependency412907 -->
<g id="edge4" class="edge">
<title>id:e&#45;&gt;dependency412907:w</title>
<path fill="none" stroke="black" d="M305,-596C356.7,-596 356.07,-652.89 401.03,-660.22"/>
<polygon fill="black" stroke="black" points="411,-661 400.68,-664.71 406.02,-660.61 401.03,-660.22 401.03,-660.22 401.03,-660.22 406.02,-660.61 401.38,-655.74 411,-661 411,-661"/>
</g>
<!-- dependency412908 -->
<g id="node6" class="node">
<title>dependency412908</title>
<polygon fill="none" stroke="blue" points="420,-476 420,-586 525,-586 525,-476 420,-476"/>
<text text-anchor="start" x="450.82" y="-528" font-family="Helvetica,sans-Serif" font-size="10.00">pack_dep</text>
<polygon fill="none" stroke="blue" points="525,-564 525,-586 635,-586 635,-564 525,-564"/>
<text text-anchor="start" x="574.44" y="-572" font-family="Helvetica,sans-Serif" font-size="10.00">no</text>
<polygon fill="none" stroke="blue" points="525,-542 525,-564 635,-564 635,-542 525,-542"/>
<text text-anchor="start" x="566.67" y="-550" font-family="Helvetica,sans-Serif" font-size="10.00">virtual</text>
<polygon fill="none" stroke="blue" points="525,-520 525,-542 635,-542 635,-520 525,-520"/>
<text text-anchor="start" x="573.61" y="-528" font-family="Helvetica,sans-Serif" font-size="10.00">jdk</text>
<polygon fill="none" stroke="blue" points="525,-498 525,-520 635,-520 635,-498 525,-498"/>
<text text-anchor="start" x="551.94" y="-506" font-family="Helvetica,sans-Serif" font-size="10.00">greaterequal</text>
<polygon fill="none" stroke="blue" points="525,-476 525,-498 635,-498 635,-476 525,-476"/>
<text text-anchor="start" x="573.05" y="-484" font-family="Helvetica,sans-Serif" font-size="10.00">1.7</text>
</g>
<!-- id&#45;&gt;dependency412908 -->
<g id="edge5" class="edge">
<title>id:e&#45;&gt;dependency412908:w</title>
<path fill="none" stroke="black" d="M305,-596C356.7,-596 356.07,-539.11 401.03,-531.78"/>
<polygon fill="black" stroke="black" points="411,-531 401.38,-536.26 406.02,-531.39 401.03,-531.78 401.03,-531.78 401.03,-531.78 406.02,-531.39 400.68,-527.29 411,-531 411,-531"/>
</g>
<!-- dependency412909 -->
<g id="node7" class="node">
<title>dependency412909</title>
<polygon fill="none" stroke="blue" points="420,-352 420,-450 525,-450 525,-352 420,-352"/>
<text text-anchor="start" x="450.82" y="-398" font-family="Helvetica,sans-Serif" font-size="10.00">pack_dep</text>
<polygon fill="none" stroke="blue" points="525,-428 525,-450 635,-450 635,-428 525,-428"/>
<text text-anchor="start" x="574.44" y="-436" font-family="Helvetica,sans-Serif" font-size="10.00">no</text>
<polygon fill="none" stroke="blue" points="525,-406 525,-428 635,-428 635,-406 525,-406"/>
<text text-anchor="start" x="566.67" y="-414" font-family="Helvetica,sans-Serif" font-size="10.00">virtual</text>
<polygon fill="none" stroke="blue" points="525,-384 525,-406 635,-406 635,-384 525,-384"/>
<text text-anchor="start" x="558.6" y="-392" font-family="Helvetica,sans-Serif" font-size="10.00">pkgconfig</text>
<polygon fill="none" stroke="blue" points="525,-362 525,-384 635,-384 635,-362 525,-362"/>
<text text-anchor="start" x="568.88" y="-370" font-family="Helvetica,sans-Serif" font-size="10.00">none</text>
<polygon fill="none" stroke="blue" points="525,-352 525,-362 635,-362 635,-352 525,-352"/>
</g>
<!-- id&#45;&gt;dependency412909 -->
<g id="edge6" class="edge">
<title>id:e&#45;&gt;dependency412909:w</title>
<path fill="none" stroke="black" d="M305,-596C399.98,-596 318.87,-415.2 400.78,-401.79"/>
<polygon fill="black" stroke="black" points="411,-401 401.37,-406.25 406.01,-401.38 401.03,-401.77 401.03,-401.77 401.03,-401.77 406.01,-401.38 400.68,-397.28 411,-401 411,-401"/>
</g>
<!-- dependency412910 -->
<g id="node8" class="node">
<title>dependency412910</title>
<polygon fill="none" stroke="blue" points="420,-190 420,-300 525,-300 525,-190 420,-190"/>
<text text-anchor="start" x="450.82" y="-242" font-family="Helvetica,sans-Serif" font-size="10.00">pack_dep</text>
<polygon fill="none" stroke="blue" points="525,-278 525,-300 635,-300 635,-278 525,-278"/>
<text text-anchor="start" x="574.44" y="-286" font-family="Helvetica,sans-Serif" font-size="10.00">no</text>
<polygon fill="none" stroke="blue" points="525,-256 525,-278 635,-278 635,-256 525,-256"/>
<text text-anchor="start" x="561.11" y="-264" font-family="Helvetica,sans-Serif" font-size="10.00">dev&#45;java</text>
<polygon fill="none" stroke="blue" points="525,-234 525,-256 635,-256 635,-234 525,-234"/>
<text text-anchor="start" x="555.83" y="-242" font-family="Helvetica,sans-Serif" font-size="10.00">java&#45;config</text>
<polygon fill="none" stroke="blue" points="525,-212 525,-234 635,-234 635,-212 525,-212"/>
<text text-anchor="start" x="551.94" y="-220" font-family="Helvetica,sans-Serif" font-size="10.00">greaterequal</text>
<polygon fill="none" stroke="blue" points="525,-190 525,-212 635,-212 635,-190 525,-190"/>
<text text-anchor="start" x="562.77" y="-198" font-family="Helvetica,sans-Serif" font-size="10.00">2.2.0&#45;r3</text>
</g>
<!-- id&#45;&gt;dependency412910 -->
<g id="edge7" class="edge">
<title>id:e&#45;&gt;dependency412910:w</title>
<path fill="none" stroke="black" d="M305,-596C461.27,-596 265.44,-273.2 392.83,-246.72"/>
<ellipse fill="none" stroke="black" cx="407.02" cy="-245.38" rx="4" ry="4"/>
<polygon fill="black" stroke="black" points="403.04,-245.76 393.51,-251.18 398.06,-246.23 393.08,-246.7 393.08,-246.7 393.08,-246.7 398.06,-246.23 392.66,-242.22 403.04,-245.76 403.04,-245.76"/>
</g>
<!-- dependency412911 -->
<g id="node9" class="node">
<title>dependency412911</title>
<polygon fill="none" stroke="blue" points="420,-28 420,-138 525,-138 525,-28 420,-28"/>
<text text-anchor="start" x="450.82" y="-80" font-family="Helvetica,sans-Serif" font-size="10.00">pack_dep</text>
<polygon fill="none" stroke="blue" points="525,-116 525,-138 635,-138 635,-116 525,-116"/>
<text text-anchor="start" x="574.44" y="-124" font-family="Helvetica,sans-Serif" font-size="10.00">no</text>
<polygon fill="none" stroke="blue" points="525,-94 525,-116 635,-116 635,-94 525,-94"/>
<text text-anchor="start" x="566.67" y="-102" font-family="Helvetica,sans-Serif" font-size="10.00">virtual</text>
<polygon fill="none" stroke="blue" points="525,-72 525,-94 635,-94 635,-72 525,-72"/>
<text text-anchor="start" x="574.45" y="-80" font-family="Helvetica,sans-Serif" font-size="10.00">jre</text>
<polygon fill="none" stroke="blue" points="525,-50 525,-72 635,-72 635,-50 525,-50"/>
<text text-anchor="start" x="551.94" y="-58" font-family="Helvetica,sans-Serif" font-size="10.00">greaterequal</text>
<polygon fill="none" stroke="blue" points="525,-28 525,-50 635,-50 635,-28 525,-28"/>
<text text-anchor="start" x="573.05" y="-36" font-family="Helvetica,sans-Serif" font-size="10.00">1.7</text>
</g>
<!-- id&#45;&gt;dependency412911 -->
<g id="edge8" class="edge">
<title>id:e&#45;&gt;dependency412911:w</title>
<path fill="none" stroke="black" d="M305,-596C534.97,-596 186.88,-95.45 402.74,-83.23"/>
<ellipse fill="none" stroke="black" cx="407" cy="-83.11" rx="4" ry="4"/>
</g>
<!-- choice100101118451069711897479711011645991111101161141059845494648959810111697504511450 -->
<g id="node10" class="node">
<title>choice100101118451069711897479711011645991111101161141059845494648959810111697504511450</title>
<g id="a_node10"><a xlink:href="../dev-java/ant-contrib-1.0_beta2-r2.svg" xlink:title="dev&#45;java/ant&#45;contrib&#45;1.0_beta2&#45;r2">
<ellipse fill="none" stroke="red" cx="900" cy="-1063" rx="144" ry="18"/>
<text text-anchor="middle" x="900" y="-1060" font-family="Helvetica,sans-Serif" font-size="10.00">dev&#45;java/ant&#45;contrib&#45;1.0_beta2&#45;r2</text>
</a>
</g>
</g>
<!-- dependency412904&#45;&gt;choice100101118451069711897479711011645991111101161141059845494648959810111697504511450 -->
<g id="edge9" class="edge">
<title>dependency412904:e&#45;&gt;choice100101118451069711897479711011645991111101161141059845494648959810111697504511450:w</title>
<path fill="none" stroke="black" stroke-dasharray="1,5" d="M649,-1063C692.43,-1063 705.83,-1063 744.57,-1063"/>
<polygon fill="black" stroke="black" points="755,-1063 745,-1067.5 750,-1063 745,-1063 745,-1063 745,-1063 750,-1063 745,-1058.5 755,-1063 755,-1063"/>
</g>
<!-- choice100101118451069711897479711011645991111101161141059845494648959810111697514511450 -->
<g id="node11" class="node">
<title>choice100101118451069711897479711011645991111101161141059845494648959810111697514511450</title>
<g id="a_node11"><a xlink:href="../dev-java/ant-contrib-1.0_beta3-r2.svg" xlink:title="dev&#45;java/ant&#45;contrib&#45;1.0_beta3&#45;r2">
<ellipse fill="none" stroke="red" cx="900" cy="-1009" rx="144" ry="18"/>
<text text-anchor="middle" x="900" y="-1006" font-family="Helvetica,sans-Serif" font-size="10.00">dev&#45;java/ant&#45;contrib&#45;1.0_beta3&#45;r2</text>
</a>
</g>
</g>
<!-- dependency412904&#45;&gt;choice100101118451069711897479711011645991111101161141059845494648959810111697514511450 -->
<g id="edge10" class="edge">
<title>dependency412904:e&#45;&gt;choice100101118451069711897479711011645991111101161141059845494648959810111697514511450:w</title>
<path fill="none" stroke="black" stroke-dasharray="1,5" d="M649,-1063C698.26,-1063 701.85,-1016.13 744.86,-1009.72"/>
<polygon fill="black" stroke="black" points="755,-1009 745.35,-1014.2 750.01,-1009.36 745.03,-1009.71 745.03,-1009.71 745.03,-1009.71 750.01,-1009.36 744.71,-1005.22 755,-1009 755,-1009"/>
</g>
<!-- choice10010111845106971189747971101164599111114101454946574650 -->
<g id="node12" class="node">
<title>choice10010111845106971189747971101164599111114101454946574650</title>
<g id="a_node12"><a xlink:href="../dev-java/ant-core-1.9.2.svg" xlink:title="dev&#45;java/ant&#45;core&#45;1.9.2">
<ellipse fill="none" stroke="red" cx="900" cy="-927" rx="144" ry="18"/>
<text text-anchor="middle" x="900" y="-924" font-family="Helvetica,sans-Serif" font-size="10.00">dev&#45;java/ant&#45;core&#45;1.9.2</text>
</a>
</g>
</g>
<!-- dependency412905&#45;&gt;choice10010111845106971189747971101164599111114101454946574650 -->
<g id="edge11" class="edge">
<title>dependency412905:e&#45;&gt;choice10010111845106971189747971101164599111114101454946574650:w</title>
<path fill="none" stroke="black" stroke-dasharray="1,5" d="M649,-927C692.43,-927 705.83,-927 744.57,-927"/>
<polygon fill="black" stroke="black" points="755,-927 745,-931.5 750,-927 745,-927 745,-927 745,-927 750,-927 745,-922.5 755,-927 755,-927"/>
</g>
<!-- choice1001011184510697118974710697118971161111111081071051164548465146484511457 -->
<g id="node13" class="node">
<title>choice1001011184510697118974710697118971161111111081071051164548465146484511457</title>
<g id="a_node13"><a xlink:href="../dev-java/javatoolkit-0.3.0-r9.svg" xlink:title="dev&#45;java/javatoolkit&#45;0.3.0&#45;r9">
<ellipse fill="none" stroke="red" cx="900" cy="-845" rx="144" ry="18"/>
<text text-anchor="middle" x="900" y="-842" font-family="Helvetica,sans-Serif" font-size="10.00">dev&#45;java/javatoolkit&#45;0.3.0&#45;r9</text>
</a>
</g>
</g>
<!-- dependency412906&#45;&gt;choice1001011184510697118974710697118971161111111081071051164548465146484511457 -->
<g id="edge12" class="edge">
<title>dependency412906:e&#45;&gt;choice1001011184510697118974710697118971161111111081071051164548465146484511457:w</title>
<path fill="none" stroke="black" stroke-dasharray="1,5" d="M649,-791C698.26,-791 701.85,-837.87 744.86,-844.28"/>
<polygon fill="black" stroke="black" points="755,-845 744.71,-848.78 750.01,-844.64 745.03,-844.29 745.03,-844.29 745.03,-844.29 750.01,-844.64 745.35,-839.8 755,-845 755,-845"/>
</g>
<!-- choice100101118451069711897471069711897116111111108107105116454846544648 -->
<g id="node14" class="node">
<title>choice100101118451069711897471069711897116111111108107105116454846544648</title>
<g id="a_node14"><a xlink:href="../dev-java/javatoolkit-0.6.0.svg" xlink:title="dev&#45;java/javatoolkit&#45;0.6.0">
<ellipse fill="none" stroke="red" cx="900" cy="-791" rx="144" ry="18"/>
<text text-anchor="middle" x="900" y="-788" font-family="Helvetica,sans-Serif" font-size="10.00">dev&#45;java/javatoolkit&#45;0.6.0</text>
</a>
</g>
</g>
<!-- dependency412906&#45;&gt;choice100101118451069711897471069711897116111111108107105116454846544648 -->
<g id="edge13" class="edge">
<title>dependency412906:e&#45;&gt;choice100101118451069711897471069711897116111111108107105116454846544648:w</title>
<path fill="none" stroke="black" stroke-dasharray="1,5" d="M649,-791C692.43,-791 705.83,-791 744.57,-791"/>
<polygon fill="black" stroke="black" points="755,-791 745,-795.5 750,-791 745,-791 745,-791 745,-791 750,-791 745,-786.5 755,-791 755,-791"/>
</g>
<!-- choice1001011184510697118974710697118971161111111081071051164557575757 -->
<g id="node15" class="node">
<title>choice1001011184510697118974710697118971161111111081071051164557575757</title>
<g id="a_node15"><a xlink:href="../dev-java/javatoolkit-9999.svg" xlink:title="dev&#45;java/javatoolkit&#45;9999">
<ellipse fill="none" stroke="red" cx="900" cy="-737" rx="144" ry="18"/>
<text text-anchor="middle" x="900" y="-734" font-family="Helvetica,sans-Serif" font-size="10.00">dev&#45;java/javatoolkit&#45;9999</text>
</a>
</g>
</g>
<!-- dependency412906&#45;&gt;choice1001011184510697118974710697118971161111111081071051164557575757 -->
<g id="edge14" class="edge">
<title>dependency412906:e&#45;&gt;choice1001011184510697118974710697118971161111111081071051164557575757:w</title>
<path fill="none" stroke="black" stroke-dasharray="1,5" d="M649,-791C698.26,-791 701.85,-744.13 744.86,-737.72"/>
<polygon fill="black" stroke="black" points="755,-737 745.35,-742.2 750.01,-737.36 745.03,-737.71 745.03,-737.71 745.03,-737.71 750.01,-737.36 744.71,-733.22 755,-737 755,-737"/>
</g>
<!-- choice11010111645105109471069798981011144598971151014548464849 -->
<g id="node16" class="node">
<title>choice11010111645105109471069798981011144598971151014548464849</title>
<g id="a_node16"><a xlink:href="../net-im/jabber-base-0.01.svg" xlink:title="net&#45;im/jabber&#45;base&#45;0.01">
<ellipse fill="none" stroke="red" cx="900" cy="-672" rx="144" ry="18"/>
<text text-anchor="middle" x="900" y="-669" font-family="Helvetica,sans-Serif" font-size="10.00">net&#45;im/jabber&#45;base&#45;0.01</text>
</a>
</g>
</g>
<!-- dependency412907&#45;&gt;choice11010111645105109471069798981011144598971151014548464849 -->
<g id="edge15" class="edge">
<title>dependency412907:e&#45;&gt;choice11010111645105109471069798981011144598971151014548464849:w</title>
<path fill="none" stroke="black" stroke-dasharray="1,5" d="M649,-661C692.66,-661 705.65,-670.35 744.53,-671.81"/>
<polygon fill="black" stroke="black" points="755,-672 744.92,-676.32 750,-671.91 745,-671.82 745,-671.82 745,-671.82 750,-671.91 745.08,-667.32 755,-672 755,-672"/>
</g>
<!-- choice110101116451051094710697989810111445989711510145484648494511449 -->
<g id="node17" class="node">
<title>choice110101116451051094710697989810111445989711510145484648494511449</title>
<g id="a_node17"><a xlink:href="../net-im/jabber-base-0.01-r1.svg" xlink:title="net&#45;im/jabber&#45;base&#45;0.01&#45;r1">
<ellipse fill="none" stroke="red" cx="900" cy="-618" rx="144" ry="18"/>
<text text-anchor="middle" x="900" y="-615" font-family="Helvetica,sans-Serif" font-size="10.00">net&#45;im/jabber&#45;base&#45;0.01&#45;r1</text>
</a>
</g>
</g>
<!-- dependency412907&#45;&gt;choice110101116451051094710697989810111445989711510145484648494511449 -->
<g id="edge16" class="edge">
<title>dependency412907:e&#45;&gt;choice110101116451051094710697989810111445989711510145484648494511449:w</title>
<path fill="none" stroke="black" stroke-dasharray="1,5" d="M649,-661C696.27,-661 703.32,-623.83 744.93,-618.61"/>
<polygon fill="black" stroke="black" points="755,-618 745.29,-623.09 750.01,-618.3 745.02,-618.6 745.02,-618.6 745.02,-618.6 750.01,-618.3 744.75,-614.11 755,-618 755,-618"/>
</g>
<!-- choice11810511411611797108471061001074549465546484511450 -->
<g id="node18" class="node">
<title>choice11810511411611797108471061001074549465546484511450</title>
<g id="a_node18"><a xlink:href="../virtual/jdk-1.7.0-r2.svg" xlink:title="virtual/jdk&#45;1.7.0&#45;r2">
<ellipse fill="none" stroke="red" cx="900" cy="-547" rx="144" ry="18"/>
<text text-anchor="middle" x="900" y="-544" font-family="Helvetica,sans-Serif" font-size="10.00">virtual/jdk&#45;1.7.0&#45;r2</text>
</a>
</g>
</g>
<!-- dependency412908&#45;&gt;choice11810511411611797108471061001074549465546484511450 -->
<g id="edge17" class="edge">
<title>dependency412908:e&#45;&gt;choice11810511411611797108471061001074549465546484511450:w</title>
<path fill="none" stroke="black" stroke-dasharray="1,5" d="M649,-531C693.11,-531 705.56,-544.71 744.97,-546.75"/>
<polygon fill="black" stroke="black" points="755,-547 744.89,-551.25 750,-546.87 745,-546.75 745,-546.75 745,-546.75 750,-546.87 745.12,-542.25 755,-547 755,-547"/>
</g>
<!-- choice11810511411611797108471061001074549465646484511451 -->
<g id="node19" class="node">
<title>choice11810511411611797108471061001074549465646484511451</title>
<g id="a_node19"><a xlink:href="../virtual/jdk-1.8.0-r3.svg" xlink:title="virtual/jdk&#45;1.8.0&#45;r3">
<ellipse fill="none" stroke="red" cx="900" cy="-493" rx="144" ry="18"/>
<text text-anchor="middle" x="900" y="-490" font-family="Helvetica,sans-Serif" font-size="10.00">virtual/jdk&#45;1.8.0&#45;r3</text>
</a>
</g>
</g>
<!-- dependency412908&#45;&gt;choice11810511411611797108471061001074549465646484511451 -->
<g id="edge18" class="edge">
<title>dependency412908:e&#45;&gt;choice11810511411611797108471061001074549465646484511451:w</title>
<path fill="none" stroke="black" stroke-dasharray="1,5" d="M649,-531C695.43,-531 703.87,-498.29 744.81,-493.57"/>
<polygon fill="black" stroke="black" points="755,-493 745.27,-498.05 750.01,-493.28 745.02,-493.56 745.02,-493.56 745.02,-493.56 750.01,-493.28 744.77,-489.06 755,-493 755,-493"/>
</g>
<!-- choice11810511411611797108471121071039911111010210510345484511449 -->
<g id="node20" class="node">
<title>choice11810511411611797108471121071039911111010210510345484511449</title>
<g id="a_node20"><a xlink:href="../virtual/pkgconfig-0-r1.svg" xlink:title="virtual/pkgconfig&#45;0&#45;r1">
<ellipse fill="none" stroke="red" cx="900" cy="-401" rx="144" ry="18"/>
<text text-anchor="middle" x="900" y="-398" font-family="Helvetica,sans-Serif" font-size="10.00">virtual/pkgconfig&#45;0&#45;r1</text>
</a>
</g>
</g>
<!-- dependency412909&#45;&gt;choice11810511411611797108471121071039911111010210510345484511449 -->
<g id="edge19" class="edge">
<title>dependency412909:e&#45;&gt;choice11810511411611797108471121071039911111010210510345484511449:w</title>
<path fill="none" stroke="black" stroke-dasharray="1,5" d="M649,-401C692.43,-401 705.83,-401 744.57,-401"/>
<polygon fill="black" stroke="black" points="755,-401 745,-405.5 750,-401 745,-401 745,-401 745,-401 750,-401 745,-396.5 755,-401 755,-401"/>
</g>
<!-- choice10010111845106971189747106971189745991111101021051034550465046484511451 -->
<g id="node21" class="node">
<title>choice10010111845106971189747106971189745991111101021051034550465046484511451</title>
<g id="a_node21"><a xlink:href="../dev-java/java-config-2.2.0-r3.svg" xlink:title="dev&#45;java/java&#45;config&#45;2.2.0&#45;r3">
<ellipse fill="none" stroke="red" cx="900" cy="-245" rx="144" ry="18"/>
<text text-anchor="middle" x="900" y="-242" font-family="Helvetica,sans-Serif" font-size="10.00">dev&#45;java/java&#45;config&#45;2.2.0&#45;r3</text>
</a>
</g>
</g>
<!-- dependency412910&#45;&gt;choice10010111845106971189747106971189745991111101021051034550465046484511451 -->
<g id="edge20" class="edge">
<title>dependency412910:e&#45;&gt;choice10010111845106971189747106971189745991111101021051034550465046484511451:w</title>
<path fill="none" stroke="black" stroke-dasharray="1,5" d="M649,-245C692.43,-245 705.83,-245 744.57,-245"/>
<polygon fill="black" stroke="black" points="755,-245 745,-249.5 750,-245 745,-245 745,-245 745,-245 750,-245 745,-240.5 755,-245 755,-245"/>
</g>
<!-- choice11810511411611797108471061141014549465546484511450 -->
<g id="node22" class="node">
<title>choice11810511411611797108471061141014549465546484511450</title>
<g id="a_node22"><a xlink:href="../virtual/jre-1.7.0-r2.svg" xlink:title="virtual/jre&#45;1.7.0&#45;r2">
<ellipse fill="none" stroke="red" cx="900" cy="-137" rx="144" ry="18"/>
<text text-anchor="middle" x="900" y="-134" font-family="Helvetica,sans-Serif" font-size="10.00">virtual/jre&#45;1.7.0&#45;r2</text>
</a>
</g>
</g>
<!-- dependency412911&#45;&gt;choice11810511411611797108471061141014549465546484511450 -->
<g id="edge21" class="edge">
<title>dependency412911:e&#45;&gt;choice11810511411611797108471061141014549465546484511450:w</title>
<path fill="none" stroke="black" stroke-dasharray="1,5" d="M649,-83C698.26,-83 701.85,-129.87 744.86,-136.28"/>
<polygon fill="black" stroke="black" points="755,-137 744.71,-140.78 750.01,-136.64 745.03,-136.29 745.03,-136.29 745.03,-136.29 750.01,-136.64 745.35,-131.8 755,-137 755,-137"/>
</g>
<!-- choice11810511411611797108471061141014549465646484511449 -->
<g id="node23" class="node">
<title>choice11810511411611797108471061141014549465646484511449</title>
<g id="a_node23"><a xlink:href="../virtual/jre-1.8.0-r1.svg" xlink:title="virtual/jre&#45;1.8.0&#45;r1">
<ellipse fill="none" stroke="red" cx="900" cy="-83" rx="144" ry="18"/>
<text text-anchor="middle" x="900" y="-80" font-family="Helvetica,sans-Serif" font-size="10.00">virtual/jre&#45;1.8.0&#45;r1</text>
</a>
</g>
</g>
<!-- dependency412911&#45;&gt;choice11810511411611797108471061141014549465646484511449 -->
<g id="edge22" class="edge">
<title>dependency412911:e&#45;&gt;choice11810511411611797108471061141014549465646484511449:w</title>
<path fill="none" stroke="black" stroke-dasharray="1,5" d="M649,-83C692.43,-83 705.83,-83 744.57,-83"/>
<polygon fill="black" stroke="black" points="755,-83 745,-87.5 750,-83 745,-83 745,-83 745,-83 750,-83 745,-78.5 755,-83 755,-83"/>
</g>
</g>
</svg>
