<?xml version="1.0" encoding="UTF-8" standalone="no"?>
<!DOCTYPE svg PUBLIC "-//W3C//DTD SVG 1.1//EN"
 "http://www.w3.org/Graphics/SVG/1.1/DTD/svg11.dtd">
<!-- Generated by graphviz version 2.44.1 (20200629.0846)
 -->
<!-- Title: prolog Pages: 1 -->
<svg width="1326pt" height="688pt"
 viewBox="0.00 0.00 1326.00 688.00" xmlns="http://www.w3.org/2000/svg" xmlns:xlink="http://www.w3.org/1999/xlink">
<g id="graph0" class="graph" transform="scale(1 1) rotate(0) translate(4 684)">
<title>prolog</title>
<polygon fill="white" stroke="transparent" points="-4,4 -4,-684 1322,-684 1322,4 -4,4"/>
<g id="clust1" class="cluster">
<title>cluster_leftcol</title>
<polygon fill="none" stroke="gray" points="8,-312 8,-384 312,-384 312,-312 8,-312"/>
<text text-anchor="start" x="146.66" y="-372" font-family="Helvetica,sans-Serif" font-style="italic" font-size="10.00">ebuild</text>
</g>
<g id="clust2" class="cluster">
<title>cluster_midcol</title>
<polygon fill="none" stroke="gray" points="396,-8 396,-582 922,-582 922,-8 396,-8"/>
<text text-anchor="start" x="627.88" y="-570" font-family="Helvetica,sans-Serif" font-style="italic" font-size="10.00">dependencies</text>
</g>
<g id="clust3" class="cluster">
<title>cluster_compile</title>
<polygon fill="#eeeeee" stroke="gray" points="404,-16 404,-554 914,-554 914,-16 404,-16"/>
<text text-anchor="start" x="641.78" y="-542" font-family="Helvetica,sans-Serif" font-style="italic" font-size="10.00">compile</text>
</g>
<g id="clust11" class="cluster">
<title>cluster_choices</title>
<polygon fill="none" stroke="gray" points="1006,-60 1006,-672 1310,-672 1310,-60 1006,-60"/>
<text text-anchor="start" x="1133.82" y="-660" font-family="Helvetica,sans-Serif" font-style="italic" font-size="10.00">candidates</text>
</g>
<!-- id -->
<g id="node1" class="node">
<title>id</title>
<g id="a_node1"><a xlink:href="../app-metrics/blackbox_exporter-0.16.0.svg" xlink:title="portage://app&#45;metrics/blackbox_exporter&#45;0.16.0">
<ellipse fill="none" stroke="red" cx="160" cy="-338" rx="144" ry="18"/>
<text text-anchor="middle" x="160" y="-335" font-family="Helvetica,sans-Serif" font-size="10.00">portage://app&#45;metrics/blackbox_exporter&#45;0.16.0</text>
</a>
</g>
</g>
<!-- dependency615124 -->
<g id="node2" class="node">
<title>dependency615124</title>
<polygon fill="none" stroke="red" points="420,-379 420,-423 511,-423 511,-379 420,-379"/>
<text text-anchor="start" x="430.77" y="-398" font-family="Helvetica,sans-Serif" font-size="10.00">use_conditional</text>
<polygon fill="none" stroke="red" points="511,-401 511,-423 554,-423 554,-401 511,-401"/>
<text text-anchor="start" x="515.55" y="-409" font-family="Helvetica,sans-Serif" font-size="10.00">positive</text>
<polygon fill="none" stroke="red" points="511,-379 511,-401 554,-401 554,-379 511,-379"/>
<text text-anchor="start" x="515.55" y="-387" font-family="Helvetica,sans-Serif" font-size="10.00">filecaps</text>
</g>
<!-- id&#45;&gt;dependency615124 -->
<g id="edge2" class="edge">
<title>id:e&#45;&gt;dependency615124:w</title>
<path fill="none" stroke="black" d="M305,-338C356.16,-338 356.42,-392.91 400.82,-400.2"/>
<polygon fill="black" stroke="black" points="411,-401 400.68,-404.71 406.02,-400.61 401.03,-400.22 401.03,-400.22 401.03,-400.22 406.02,-400.61 401.38,-395.73 411,-401 411,-401"/>
</g>
<!-- dependency615126 -->
<g id="node4" class="node">
<title>dependency615126</title>
<polygon fill="none" stroke="blue" points="678,-152 678,-262 783,-262 783,-152 678,-152"/>
<text text-anchor="start" x="708.82" y="-204" font-family="Helvetica,sans-Serif" font-size="10.00">pack_dep</text>
<polygon fill="none" stroke="blue" points="783,-240 783,-262 893,-262 893,-240 783,-240"/>
<text text-anchor="start" x="832.44" y="-248" font-family="Helvetica,sans-Serif" font-size="10.00">no</text>
<polygon fill="none" stroke="blue" points="783,-218 783,-240 893,-240 893,-218 783,-218"/>
<text text-anchor="start" x="818.83" y="-226" font-family="Helvetica,sans-Serif" font-size="10.00">dev&#45;lang</text>
<polygon fill="none" stroke="blue" points="783,-196 783,-218 893,-218 893,-196 783,-196"/>
<text text-anchor="start" x="832.44" y="-204" font-family="Helvetica,sans-Serif" font-size="10.00">go</text>
<polygon fill="none" stroke="blue" points="783,-174 783,-196 893,-196 893,-174 783,-174"/>
<text text-anchor="start" x="809.94" y="-182" font-family="Helvetica,sans-Serif" font-size="10.00">greaterequal</text>
<polygon fill="none" stroke="blue" points="783,-152 783,-174 893,-174 893,-152 783,-152"/>
<text text-anchor="start" x="828.27" y="-160" font-family="Helvetica,sans-Serif" font-size="10.00">1.10</text>
</g>
<!-- id&#45;&gt;dependency615126 -->
<g id="edge3" class="edge">
<title>id:e&#45;&gt;dependency615126:w</title>
<path fill="none" stroke="black" d="M488,-275C569.11,-258.3 582.62,-211.09 659.74,-207.25"/>
<polygon fill="black" stroke="black" points="670,-207 660.11,-211.74 665,-207.12 660,-207.24 660,-207.24 660,-207.24 665,-207.12 659.89,-202.74 670,-207 670,-207"/>
</g>
<!-- dependency615127 -->
<g id="node5" class="node">
<title>dependency615127</title>
<polygon fill="none" stroke="blue" points="678,-288 678,-398 783,-398 783,-288 678,-288"/>
<text text-anchor="start" x="708.82" y="-340" font-family="Helvetica,sans-Serif" font-size="10.00">pack_dep</text>
<polygon fill="none" stroke="blue" points="783,-376 783,-398 893,-398 893,-376 783,-376"/>
<text text-anchor="start" x="832.44" y="-384" font-family="Helvetica,sans-Serif" font-size="10.00">no</text>
<polygon fill="none" stroke="blue" points="783,-354 783,-376 893,-376 893,-354 783,-354"/>
<text text-anchor="start" x="818.83" y="-362" font-family="Helvetica,sans-Serif" font-size="10.00">dev&#45;lang</text>
<polygon fill="none" stroke="blue" points="783,-332 783,-354 893,-354 893,-332 783,-332"/>
<text text-anchor="start" x="832.44" y="-340" font-family="Helvetica,sans-Serif" font-size="10.00">go</text>
<polygon fill="none" stroke="blue" points="783,-310 783,-332 893,-332 893,-310 783,-310"/>
<text text-anchor="start" x="809.94" y="-318" font-family="Helvetica,sans-Serif" font-size="10.00">greaterequal</text>
<polygon fill="none" stroke="blue" points="783,-288 783,-310 893,-310 893,-288 783,-288"/>
<text text-anchor="start" x="828.27" y="-296" font-family="Helvetica,sans-Serif" font-size="10.00">1.12</text>
</g>
<!-- id&#45;&gt;dependency615127 -->
<g id="edge4" class="edge">
<title>id:e&#45;&gt;dependency615127:w</title>
<path fill="none" stroke="black" d="M488,-275C569.11,-258.3 582.62,-336.17 659.74,-342.58"/>
<polygon fill="black" stroke="black" points="670,-343 659.82,-347.09 665,-342.8 660.01,-342.59 660.01,-342.59 660.01,-342.59 665,-342.8 660.19,-338.1 670,-343 670,-343"/>
</g>
<!-- dependency615128 -->
<g id="node6" class="node">
<title>dependency615128</title>
<polygon fill="none" stroke="blue" points="678,-28 678,-126 783,-126 783,-28 678,-28"/>
<text text-anchor="start" x="708.82" y="-74" font-family="Helvetica,sans-Serif" font-size="10.00">pack_dep</text>
<polygon fill="none" stroke="blue" points="783,-104 783,-126 893,-126 893,-104 783,-104"/>
<text text-anchor="start" x="832.44" y="-112" font-family="Helvetica,sans-Serif" font-size="10.00">no</text>
<polygon fill="none" stroke="blue" points="783,-82 783,-104 893,-104 893,-82 783,-82"/>
<text text-anchor="start" x="821.89" y="-90" font-family="Helvetica,sans-Serif" font-size="10.00">dev&#45;util</text>
<polygon fill="none" stroke="blue" points="783,-60 783,-82 893,-82 893,-60 783,-60"/>
<text text-anchor="start" x="823.83" y="-68" font-family="Helvetica,sans-Serif" font-size="10.00">promu</text>
<polygon fill="none" stroke="blue" points="783,-38 783,-60 893,-60 893,-38 783,-38"/>
<text text-anchor="start" x="826.88" y="-46" font-family="Helvetica,sans-Serif" font-size="10.00">none</text>
<polygon fill="none" stroke="blue" points="783,-28 783,-38 893,-38 893,-28 783,-28"/>
</g>
<!-- id&#45;&gt;dependency615128 -->
<g id="edge5" class="edge">
<title>id:e&#45;&gt;dependency615128:w</title>
<path fill="none" stroke="black" d="M488,-275C601.64,-251.6 553.52,-87.06 659.93,-77.44"/>
<polygon fill="black" stroke="black" points="670,-77 660.21,-81.93 665,-77.22 660.01,-77.44 660.01,-77.44 660.01,-77.44 665,-77.22 659.81,-72.94 670,-77 670,-77"/>
<path fill="none" stroke="black" d="M305,-338C390.18,-338 402.57,-292.18 486,-275"/>
</g>
<!-- dependency615125 -->
<g id="node3" class="node">
<title>dependency615125</title>
<polygon fill="none" stroke="blue" points="678,-424 678,-522 783,-522 783,-424 678,-424"/>
<text text-anchor="start" x="708.82" y="-470" font-family="Helvetica,sans-Serif" font-size="10.00">pack_dep</text>
<polygon fill="none" stroke="blue" points="783,-500 783,-522 893,-522 893,-500 783,-500"/>
<text text-anchor="start" x="832.44" y="-508" font-family="Helvetica,sans-Serif" font-size="10.00">no</text>
<polygon fill="none" stroke="blue" points="783,-478 783,-500 893,-500 893,-478 783,-478"/>
<text text-anchor="start" x="821.34" y="-486" font-family="Helvetica,sans-Serif" font-size="10.00">sys&#45;libs</text>
<polygon fill="none" stroke="blue" points="783,-456 783,-478 893,-478 893,-456 783,-456"/>
<text text-anchor="start" x="824.94" y="-464" font-family="Helvetica,sans-Serif" font-size="10.00">libcap</text>
<polygon fill="none" stroke="blue" points="783,-434 783,-456 893,-456 893,-434 783,-434"/>
<text text-anchor="start" x="826.88" y="-442" font-family="Helvetica,sans-Serif" font-size="10.00">none</text>
<polygon fill="none" stroke="blue" points="783,-424 783,-434 893,-434 893,-424 783,-424"/>
</g>
<!-- dependency615124&#45;&gt;dependency615125 -->
<g id="edge1" class="edge">
<title>dependency615124:e&#45;&gt;dependency615125:w</title>
<path fill="none" stroke="black" stroke-dasharray="5,2" d="M562,-401C616.08,-401 612.98,-464.28 659.91,-472.19"/>
<polygon fill="black" stroke="black" points="670,-473 659.67,-476.69 665.02,-472.6 660.03,-472.2 660.03,-472.2 660.03,-472.2 665.02,-472.6 660.39,-467.72 670,-473 670,-473"/>
</g>
<!-- choice1151211154510810598115471081059899971124550465148 -->
<g id="node7" class="node">
<title>choice1151211154510810598115471081059899971124550465148</title>
<g id="a_node7"><a xlink:href="../sys-libs/libcap-2.30.svg" xlink:title="portage://sys&#45;libs/libcap&#45;2.30">
<ellipse fill="none" stroke="red" cx="1158" cy="-410" rx="144" ry="18"/>
<text text-anchor="middle" x="1158" y="-407" font-family="Helvetica,sans-Serif" font-size="10.00">portage://sys&#45;libs/libcap&#45;2.30</text>
</a>
</g>
</g>
<!-- dependency615125&#45;&gt;choice1151211154510810598115471081059899971124550465148 -->
<g id="edge6" class="edge">
<title>dependency615125:e&#45;&gt;choice1151211154510810598115471081059899971124550465148:w</title>
<path fill="none" stroke="black" stroke-dasharray="1,5" d="M907,-473C958.16,-473 958.42,-418.09 1002.82,-410.8"/>
<polygon fill="black" stroke="black" points="1013,-410 1003.38,-415.27 1008.02,-410.39 1003.03,-410.78 1003.03,-410.78 1003.03,-410.78 1008.02,-410.39 1002.68,-406.29 1013,-410 1013,-410"/>
</g>
<!-- choice11512111545108105981154710810598999711245504650574511451 -->
<g id="node8" class="node">
<title>choice11512111545108105981154710810598999711245504650574511451</title>
<g id="a_node8"><a xlink:href="../sys-libs/libcap-2.29-r3.svg" xlink:title="portage://sys&#45;libs/libcap&#45;2.29&#45;r3">
<ellipse fill="none" stroke="red" cx="1158" cy="-626" rx="144" ry="18"/>
<text text-anchor="middle" x="1158" y="-623" font-family="Helvetica,sans-Serif" font-size="10.00">portage://sys&#45;libs/libcap&#45;2.29&#45;r3</text>
</a>
</g>
</g>
<!-- dependency615125&#45;&gt;choice11512111545108105981154710810598999711245504650574511451 -->
<g id="edge7" class="edge">
<title>dependency615125:e&#45;&gt;choice11512111545108105981154710810598999711245504650574511451:w</title>
<path fill="none" stroke="black" stroke-dasharray="1,5" d="M907,-473C986.01,-473 935.33,-612.56 1002.69,-625.1"/>
<polygon fill="black" stroke="black" points="1013,-626 1002.65,-629.62 1008.02,-625.57 1003.04,-625.13 1003.04,-625.13 1003.04,-625.13 1008.02,-625.57 1003.43,-620.65 1013,-626 1013,-626"/>
</g>
<!-- choice11512111545108105981154710810598999711245504650564511449 -->
<g id="node9" class="node">
<title>choice11512111545108105981154710810598999711245504650564511449</title>
<g id="a_node9"><a xlink:href="../sys-libs/libcap-2.28-r1.svg" xlink:title="portage://sys&#45;libs/libcap&#45;2.28&#45;r1">
<ellipse fill="none" stroke="red" cx="1158" cy="-572" rx="144" ry="18"/>
<text text-anchor="middle" x="1158" y="-569" font-family="Helvetica,sans-Serif" font-size="10.00">portage://sys&#45;libs/libcap&#45;2.28&#45;r1</text>
</a>
</g>
</g>
<!-- dependency615125&#45;&gt;choice11512111545108105981154710810598999711245504650564511449 -->
<g id="edge8" class="edge">
<title>dependency615125:e&#45;&gt;choice11512111545108105981154710810598999711245504650564511449:w</title>
<path fill="none" stroke="black" stroke-dasharray="1,5" d="M907,-473C967.81,-473 950.85,-561.1 1002.86,-571.08"/>
<polygon fill="black" stroke="black" points="1013,-572 1002.64,-575.58 1008.02,-571.55 1003.04,-571.1 1003.04,-571.1 1003.04,-571.1 1008.02,-571.55 1003.45,-566.62 1013,-572 1013,-572"/>
</g>
<!-- choice1151211154510810598115471081059899971124550465055 -->
<g id="node10" class="node">
<title>choice1151211154510810598115471081059899971124550465055</title>
<g id="a_node10"><a xlink:href="../sys-libs/libcap-2.27.svg" xlink:title="portage://sys&#45;libs/libcap&#45;2.27">
<ellipse fill="none" stroke="red" cx="1158" cy="-518" rx="144" ry="18"/>
<text text-anchor="middle" x="1158" y="-515" font-family="Helvetica,sans-Serif" font-size="10.00">portage://sys&#45;libs/libcap&#45;2.27</text>
</a>
</g>
</g>
<!-- dependency615125&#45;&gt;choice1151211154510810598115471081059899971124550465055 -->
<g id="edge9" class="edge">
<title>dependency615125:e&#45;&gt;choice1151211154510810598115471081059899971124550465055:w</title>
<path fill="none" stroke="black" stroke-dasharray="1,5" d="M907,-473C954.58,-473 961.07,-511.89 1002.88,-517.36"/>
<polygon fill="black" stroke="black" points="1013,-518 1002.74,-521.86 1008.01,-517.69 1003.02,-517.37 1003.02,-517.37 1003.02,-517.37 1008.01,-517.69 1003.3,-512.88 1013,-518 1013,-518"/>
</g>
<!-- choice11512111545108105981154710810598999711245504650544511450 -->
<g id="node11" class="node">
<title>choice11512111545108105981154710810598999711245504650544511450</title>
<g id="a_node11"><a xlink:href="../sys-libs/libcap-2.26-r2.svg" xlink:title="portage://sys&#45;libs/libcap&#45;2.26&#45;r2">
<ellipse fill="none" stroke="red" cx="1158" cy="-464" rx="144" ry="18"/>
<text text-anchor="middle" x="1158" y="-461" font-family="Helvetica,sans-Serif" font-size="10.00">portage://sys&#45;libs/libcap&#45;2.26&#45;r2</text>
</a>
</g>
</g>
<!-- dependency615125&#45;&gt;choice11512111545108105981154710810598999711245504650544511450 -->
<g id="edge10" class="edge">
<title>dependency615125:e&#45;&gt;choice11512111545108105981154710810598999711245504650544511450:w</title>
<path fill="none" stroke="black" stroke-dasharray="1,5" d="M907,-473C950.59,-473 963.71,-465.35 1002.54,-464.16"/>
<polygon fill="black" stroke="black" points="1013,-464 1003.07,-468.65 1008,-464.07 1003,-464.15 1003,-464.15 1003,-464.15 1008,-464.07 1002.93,-459.65 1013,-464 1013,-464"/>
</g>
<!-- choice1001011184510897110103471031114557575757 -->
<g id="node12" class="node">
<title>choice1001011184510897110103471031114557575757</title>
<g id="a_node12"><a xlink:href="../dev-lang/go-9999.svg" xlink:title="portage://dev&#45;lang/go&#45;9999">
<ellipse fill="none" stroke="red" cx="1158" cy="-356" rx="144" ry="18"/>
<text text-anchor="middle" x="1158" y="-353" font-family="Helvetica,sans-Serif" font-size="10.00">portage://dev&#45;lang/go&#45;9999</text>
</a>
</g>
</g>
<!-- dependency615126&#45;&gt;choice1001011184510897110103471031114557575757 -->
<g id="edge11" class="edge">
<title>dependency615126:e&#45;&gt;choice1001011184510897110103471031114557575757:w</title>
<path fill="none" stroke="black" stroke-dasharray="1,5" d="M907,-207C984.62,-207 936.53,-342.91 1002.86,-355.12"/>
<polygon fill="black" stroke="black" points="1013,-356 1002.65,-359.62 1008.02,-355.57 1003.04,-355.14 1003.04,-355.14 1003.04,-355.14 1008.02,-355.57 1003.42,-350.66 1013,-356 1013,-356"/>
</g>
<!-- choice10010111845108971101034710311145494649514653 -->
<g id="node13" class="node">
<title>choice10010111845108971101034710311145494649514653</title>
<g id="a_node13"><a xlink:href="../dev-lang/go-1.13.5.svg" xlink:title="portage://dev&#45;lang/go&#45;1.13.5">
<ellipse fill="none" stroke="red" cx="1158" cy="-302" rx="144" ry="18"/>
<text text-anchor="middle" x="1158" y="-299" font-family="Helvetica,sans-Serif" font-size="10.00">portage://dev&#45;lang/go&#45;1.13.5</text>
</a>
</g>
</g>
<!-- dependency615126&#45;&gt;choice10010111845108971101034710311145494649514653 -->
<g id="edge12" class="edge">
<title>dependency615126:e&#45;&gt;choice10010111845108971101034710311145494649514653:w</title>
<path fill="none" stroke="black" stroke-dasharray="1,5" d="M907,-207C966.68,-207 951.79,-291.54 1003.03,-301.12"/>
<polygon fill="black" stroke="black" points="1013,-302 1002.64,-305.6 1008.02,-301.56 1003.04,-301.12 1003.04,-301.12 1003.04,-301.12 1008.02,-301.56 1003.43,-296.64 1013,-302 1013,-302"/>
</g>
<!-- choice10010111845108971101034710311145494649514652 -->
<g id="node14" class="node">
<title>choice10010111845108971101034710311145494649514652</title>
<g id="a_node14"><a xlink:href="../dev-lang/go-1.13.4.svg" xlink:title="portage://dev&#45;lang/go&#45;1.13.4">
<ellipse fill="none" stroke="red" cx="1158" cy="-248" rx="144" ry="18"/>
<text text-anchor="middle" x="1158" y="-245" font-family="Helvetica,sans-Serif" font-size="10.00">portage://dev&#45;lang/go&#45;1.13.4</text>
</a>
</g>
</g>
<!-- dependency615126&#45;&gt;choice10010111845108971101034710311145494649514652 -->
<g id="edge13" class="edge">
<title>dependency615126:e&#45;&gt;choice10010111845108971101034710311145494649514652:w</title>
<path fill="none" stroke="black" stroke-dasharray="1,5" d="M907,-207C953.96,-207 961.56,-242.44 1002.99,-247.42"/>
<polygon fill="black" stroke="black" points="1013,-248 1002.76,-251.91 1008.01,-247.71 1003.02,-247.42 1003.02,-247.42 1003.02,-247.42 1008.01,-247.71 1003.28,-242.93 1013,-248 1013,-248"/>
</g>
<!-- choice1001011184510897110103471031114549464950464952 -->
<g id="node15" class="node">
<title>choice1001011184510897110103471031114549464950464952</title>
<g id="a_node15"><a xlink:href="../dev-lang/go-1.12.14.svg" xlink:title="portage://dev&#45;lang/go&#45;1.12.14">
<ellipse fill="none" stroke="red" cx="1158" cy="-194" rx="144" ry="18"/>
<text text-anchor="middle" x="1158" y="-191" font-family="Helvetica,sans-Serif" font-size="10.00">portage://dev&#45;lang/go&#45;1.12.14</text>
</a>
</g>
</g>
<!-- dependency615126&#45;&gt;choice1001011184510897110103471031114549464950464952 -->
<g id="edge14" class="edge">
<title>dependency615126:e&#45;&gt;choice1001011184510897110103471031114549464950464952:w</title>
<path fill="none" stroke="black" stroke-dasharray="1,5" d="M907,-207C950.76,-207 963.58,-195.95 1002.51,-194.23"/>
<polygon fill="black" stroke="black" points="1013,-194 1003.1,-198.71 1008,-194.11 1003,-194.22 1003,-194.22 1003,-194.22 1008,-194.11 1002.91,-189.72 1013,-194 1013,-194"/>
</g>
<!-- choice1001011184510897110103471031114549464950464951 -->
<g id="node16" class="node">
<title>choice1001011184510897110103471031114549464950464951</title>
<g id="a_node16"><a xlink:href="../dev-lang/go-1.12.13.svg" xlink:title="portage://dev&#45;lang/go&#45;1.12.13">
<ellipse fill="none" stroke="red" cx="1158" cy="-140" rx="144" ry="18"/>
<text text-anchor="middle" x="1158" y="-137" font-family="Helvetica,sans-Serif" font-size="10.00">portage://dev&#45;lang/go&#45;1.12.13</text>
</a>
</g>
</g>
<!-- dependency615126&#45;&gt;choice1001011184510897110103471031114549464950464951 -->
<g id="edge15" class="edge">
<title>dependency615126:e&#45;&gt;choice1001011184510897110103471031114549464950464951:w</title>
<path fill="none" stroke="black" stroke-dasharray="1,5" d="M907,-207C959.14,-207 957.72,-148.36 1002.95,-140.8"/>
<polygon fill="black" stroke="black" points="1013,-140 1003.39,-145.28 1008.02,-140.4 1003.03,-140.79 1003.03,-140.79 1003.03,-140.79 1008.02,-140.4 1002.67,-136.31 1013,-140 1013,-140"/>
</g>
<!-- dependency615127&#45;&gt;choice1001011184510897110103471031114557575757 -->
<g id="edge16" class="edge">
<title>dependency615127:e&#45;&gt;choice1001011184510897110103471031114557575757:w</title>
<path fill="none" stroke="black" stroke-dasharray="1,5" d="M907,-343C950.76,-343 963.58,-354.05 1002.51,-355.77"/>
<polygon fill="black" stroke="black" points="1013,-356 1002.91,-360.28 1008,-355.89 1003,-355.78 1003,-355.78 1003,-355.78 1008,-355.89 1003.1,-351.29 1013,-356 1013,-356"/>
</g>
<!-- dependency615127&#45;&gt;choice10010111845108971101034710311145494649514653 -->
<g id="edge17" class="edge">
<title>dependency615127:e&#45;&gt;choice10010111845108971101034710311145494649514653:w</title>
<path fill="none" stroke="black" stroke-dasharray="1,5" d="M907,-343C953.96,-343 961.56,-307.56 1002.99,-302.58"/>
<polygon fill="black" stroke="black" points="1013,-302 1003.28,-307.07 1008.01,-302.29 1003.02,-302.58 1003.02,-302.58 1003.02,-302.58 1008.01,-302.29 1002.76,-298.09 1013,-302 1013,-302"/>
</g>
<!-- dependency615127&#45;&gt;choice10010111845108971101034710311145494649514652 -->
<g id="edge18" class="edge">
<title>dependency615127:e&#45;&gt;choice10010111845108971101034710311145494649514652:w</title>
<path fill="none" stroke="black" stroke-dasharray="1,5" d="M907,-343C966.68,-343 951.79,-258.46 1003.03,-248.88"/>
<polygon fill="black" stroke="black" points="1013,-248 1003.43,-253.36 1008.02,-248.44 1003.04,-248.88 1003.04,-248.88 1003.04,-248.88 1008.02,-248.44 1002.64,-244.4 1013,-248 1013,-248"/>
</g>
<!-- dependency615127&#45;&gt;choice1001011184510897110103471031114549464950464952 -->
<g id="edge19" class="edge">
<title>dependency615127:e&#45;&gt;choice1001011184510897110103471031114549464950464952:w</title>
<path fill="none" stroke="black" stroke-dasharray="1,5" d="M907,-343C984.62,-343 936.53,-207.09 1002.86,-194.88"/>
<polygon fill="black" stroke="black" points="1013,-194 1003.42,-199.34 1008.02,-194.43 1003.04,-194.86 1003.04,-194.86 1003.04,-194.86 1008.02,-194.43 1002.65,-190.38 1013,-194 1013,-194"/>
</g>
<!-- dependency615127&#45;&gt;choice1001011184510897110103471031114549464950464951 -->
<g id="edge20" class="edge">
<title>dependency615127:e&#45;&gt;choice1001011184510897110103471031114549464950464951:w</title>
<path fill="none" stroke="black" stroke-dasharray="1,5" d="M907,-343C1005.2,-343 917.83,-154.02 1002.99,-140.74"/>
<polygon fill="black" stroke="black" points="1013,-140 1003.36,-145.22 1008.01,-140.37 1003.03,-140.73 1003.03,-140.73 1003.03,-140.73 1008.01,-140.37 1002.7,-136.24 1013,-140 1013,-140"/>
</g>
<!-- choice1001011184511711610510847112114111109117454846534648 -->
<g id="node17" class="node">
<title>choice1001011184511711610510847112114111109117454846534648</title>
<g id="a_node17"><a xlink:href="../dev-util/promu-0.5.0.svg" xlink:title="portage://dev&#45;util/promu&#45;0.5.0">
<ellipse fill="none" stroke="red" cx="1158" cy="-86" rx="144" ry="18"/>
<text text-anchor="middle" x="1158" y="-83" font-family="Helvetica,sans-Serif" font-size="10.00">portage://dev&#45;util/promu&#45;0.5.0</text>
</a>
</g>
</g>
<!-- dependency615128&#45;&gt;choice1001011184511711610510847112114111109117454846534648 -->
<g id="edge21" class="edge">
<title>dependency615128:e&#45;&gt;choice1001011184511711610510847112114111109117454846534648:w</title>
<path fill="none" stroke="black" stroke-dasharray="1,5" d="M907,-77C950.59,-77 963.71,-84.65 1002.54,-85.84"/>
<polygon fill="black" stroke="black" points="1013,-86 1002.93,-90.35 1008,-85.93 1003,-85.85 1003,-85.85 1003,-85.85 1008,-85.93 1003.07,-81.35 1013,-86 1013,-86"/>
</g>
</g>
</svg>
