<?xml version="1.0" encoding="UTF-8" standalone="no"?>
<!DOCTYPE svg PUBLIC "-//W3C//DTD SVG 1.1//EN"
 "http://www.w3.org/Graphics/SVG/1.1/DTD/svg11.dtd">
<!-- Generated by graphviz version 9.0.0 (20230911.1827)
 -->
<!-- Title: prolog Pages: 1 -->
<svg width="1076pt" height="1675pt"
 viewBox="0.00 0.00 1076.00 1675.00" xmlns="http://www.w3.org/2000/svg" xmlns:xlink="http://www.w3.org/1999/xlink">
<g id="graph0" class="graph" transform="scale(1 1) rotate(0) translate(4 1671)">
<title>prolog</title>
<polygon fill="white" stroke="none" points="-4,4 -4,-1671 1072,-1671 1072,4 -4,4"/>
<g id="clust2" class="cluster">
<title>cluster_midcol</title>
<polygon fill="none" stroke="gray" points="8,-8 8,-1659 672,-1659 672,-8 8,-8"/>
<text text-anchor="start" x="310" y="-1646.5" font-family="Helvetica,sans-Serif" font-style="italic" font-size="10.00">dependencies</text>
</g>
<g id="clust3" class="cluster">
<title>cluster_compile</title>
<polygon fill="#eeeeee" stroke="gray" points="16,-16 16,-951 664,-951 664,-16 16,-16"/>
<text text-anchor="start" x="323.12" y="-938.5" font-family="Helvetica,sans-Serif" font-style="italic" font-size="10.00">compile</text>
</g>
<g id="clust12" class="cluster">
<title>cluster_run</title>
<polygon fill="#eeeeee" stroke="gray" points="412,-959 412,-1632 664,-1632 664,-959 412,-959"/>
<text text-anchor="start" x="531.25" y="-1619.5" font-family="Helvetica,sans-Serif" font-style="italic" font-size="10.00">run</text>
</g>
<g id="clust18" class="cluster">
<title>cluster_choices</title>
<polygon fill="none" stroke="gray" points="756,-132 756,-920 1060,-920 1060,-132 756,-132"/>
<text text-anchor="start" x="884.38" y="-907.5" font-family="Helvetica,sans-Serif" font-style="italic" font-size="10.00">candidates</text>
</g>
<!-- id -->
<g id="node1" class="node">
<title>id</title>
<g id="a_node1"><a xlink:href="../x11-plugins/wmclockmon-0.8.1-r1.svg" xlink:title="portage://x11&#45;plugins/wmclockmon&#45;0.8.1&#45;r1">
<ellipse fill="none" stroke="red" cx="168" cy="-801" rx="144" ry="18"/>
<text text-anchor="middle" x="168" y="-797.12" font-family="Helvetica,sans-Serif" font-size="10.00">portage://x11&#45;plugins/wmclockmon&#45;0.8.1&#45;r1</text>
</a>
</g>
</g>
<!-- dependency455864 -->
<g id="node2" class="node">
<title>dependency455864</title>
<polygon fill="none" stroke="blue" points="428,-159.5 428,-264.5 532,-264.5 532,-159.5 428,-159.5"/>
<text text-anchor="start" x="459" y="-208.12" font-family="Helvetica,sans-Serif" font-size="10.00">pack_dep</text>
<polygon fill="none" stroke="blue" points="532,-243.5 532,-264.5 642,-264.5 642,-243.5 532,-243.5"/>
<text text-anchor="start" x="581.75" y="-250" font-family="Helvetica,sans-Serif" font-size="10.00">no</text>
<polygon fill="none" stroke="blue" points="532,-222.5 532,-243.5 642,-243.5 642,-222.5 532,-222.5"/>
<text text-anchor="start" x="567.12" y="-229" font-family="Helvetica,sans-Serif" font-size="10.00">x11&#45;base</text>
<polygon fill="none" stroke="blue" points="532,-201.5 532,-222.5 642,-222.5 642,-201.5 532,-201.5"/>
<text text-anchor="start" x="565.25" y="-208" font-family="Helvetica,sans-Serif" font-size="10.00">xorg&#45;proto</text>
<polygon fill="none" stroke="blue" points="532,-180.5 532,-201.5 642,-201.5 642,-180.5 532,-180.5"/>
<text text-anchor="start" x="576.5" y="-187" font-family="Helvetica,sans-Serif" font-size="10.00">none</text>
<polygon fill="none" stroke="blue" points="532,-159.5 532,-180.5 642,-180.5 642,-159.5 532,-159.5"/>
<text text-anchor="start" x="581" y="-166" font-family="Helvetica,sans-Serif" font-size="10.00">[,,]</text>
</g>
<!-- id&#45;&gt;dependency455864 -->
<g id="edge1" class="edge">
<title>id:e&#45;&gt;dependency455864:w</title>
<path fill="none" stroke="black" d="M312,-801C574.29,-801 164.84,-228.56 408.11,-212.35"/>
<polygon fill="black" stroke="black" points="417.78,-212.04 407.93,-216.86 414,-212.16 407.79,-212.36 407.79,-212.36 407.79,-212.36 414,-212.16 407.64,-207.86 417.78,-212.04"/>
</g>
<!-- dependency455865 -->
<g id="node3" class="node">
<title>dependency455865</title>
<polygon fill="none" stroke="blue" points="428,-552.5 428,-657.5 532,-657.5 532,-552.5 428,-552.5"/>
<text text-anchor="start" x="459" y="-601.12" font-family="Helvetica,sans-Serif" font-size="10.00">pack_dep</text>
<polygon fill="none" stroke="blue" points="532,-636.5 532,-657.5 642,-657.5 642,-636.5 532,-636.5"/>
<text text-anchor="start" x="581.75" y="-643" font-family="Helvetica,sans-Serif" font-size="10.00">no</text>
<polygon fill="none" stroke="blue" points="532,-615.5 532,-636.5 642,-636.5 642,-615.5 532,-615.5"/>
<text text-anchor="start" x="570.12" y="-622" font-family="Helvetica,sans-Serif" font-size="10.00">x11&#45;libs</text>
<polygon fill="none" stroke="blue" points="532,-594.5 532,-615.5 642,-615.5 642,-594.5 532,-594.5"/>
<text text-anchor="start" x="577.25" y="-601" font-family="Helvetica,sans-Serif" font-size="10.00">gtk+</text>
<polygon fill="none" stroke="blue" points="532,-573.5 532,-594.5 642,-594.5 642,-573.5 532,-573.5"/>
<text text-anchor="start" x="576.5" y="-580" font-family="Helvetica,sans-Serif" font-size="10.00">none</text>
<polygon fill="none" stroke="blue" points="532,-552.5 532,-573.5 642,-573.5 642,-552.5 532,-552.5"/>
<text text-anchor="start" x="581" y="-559" font-family="Helvetica,sans-Serif" font-size="10.00">[,,]</text>
</g>
<!-- id&#45;&gt;dependency455865 -->
<g id="edge2" class="edge">
<title>id:e&#45;&gt;dependency455865:w</title>
<path fill="none" stroke="black" d="M312,-801C407.37,-801 326.61,-620.01 408.22,-605.87"/>
<polygon fill="black" stroke="black" points="417.79,-605.1 408.18,-610.39 414.02,-605.4 407.82,-605.91 407.82,-605.91 407.82,-605.91 414.02,-605.4 407.45,-601.42 417.79,-605.1"/>
</g>
<!-- dependency455866 -->
<g id="node4" class="node">
<title>dependency455866</title>
<polygon fill="none" stroke="blue" points="428,-683.5 428,-788.5 532,-788.5 532,-683.5 428,-683.5"/>
<text text-anchor="start" x="459" y="-732.12" font-family="Helvetica,sans-Serif" font-size="10.00">pack_dep</text>
<polygon fill="none" stroke="blue" points="532,-767.5 532,-788.5 642,-788.5 642,-767.5 532,-767.5"/>
<text text-anchor="start" x="581.75" y="-774" font-family="Helvetica,sans-Serif" font-size="10.00">no</text>
<polygon fill="none" stroke="blue" points="532,-746.5 532,-767.5 642,-767.5 642,-746.5 532,-746.5"/>
<text text-anchor="start" x="570.12" y="-753" font-family="Helvetica,sans-Serif" font-size="10.00">x11&#45;libs</text>
<polygon fill="none" stroke="blue" points="532,-725.5 532,-746.5 642,-746.5 642,-725.5 532,-725.5"/>
<text text-anchor="start" x="573.5" y="-732" font-family="Helvetica,sans-Serif" font-size="10.00">libICE</text>
<polygon fill="none" stroke="blue" points="532,-704.5 532,-725.5 642,-725.5 642,-704.5 532,-704.5"/>
<text text-anchor="start" x="576.5" y="-711" font-family="Helvetica,sans-Serif" font-size="10.00">none</text>
<polygon fill="none" stroke="blue" points="532,-683.5 532,-704.5 642,-704.5 642,-683.5 532,-683.5"/>
<text text-anchor="start" x="581" y="-690" font-family="Helvetica,sans-Serif" font-size="10.00">[,,]</text>
</g>
<!-- id&#45;&gt;dependency455866 -->
<g id="edge3" class="edge">
<title>id:e&#45;&gt;dependency455866:w</title>
<path fill="none" stroke="black" d="M312,-801C363.62,-801 363.66,-745.06 407.83,-736.97"/>
<polygon fill="black" stroke="black" points="417.79,-736.11 408.21,-741.45 414.02,-736.43 407.82,-736.97 407.82,-736.97 407.82,-736.97 414.02,-736.43 407.43,-732.49 417.79,-736.11"/>
</g>
<!-- dependency455867 -->
<g id="node5" class="node">
<title>dependency455867</title>
<polygon fill="none" stroke="blue" points="428,-421.5 428,-526.5 532,-526.5 532,-421.5 428,-421.5"/>
<text text-anchor="start" x="459" y="-470.12" font-family="Helvetica,sans-Serif" font-size="10.00">pack_dep</text>
<polygon fill="none" stroke="blue" points="532,-505.5 532,-526.5 642,-526.5 642,-505.5 532,-505.5"/>
<text text-anchor="start" x="581.75" y="-512" font-family="Helvetica,sans-Serif" font-size="10.00">no</text>
<polygon fill="none" stroke="blue" points="532,-484.5 532,-505.5 642,-505.5 642,-484.5 532,-484.5"/>
<text text-anchor="start" x="570.12" y="-491" font-family="Helvetica,sans-Serif" font-size="10.00">x11&#45;libs</text>
<polygon fill="none" stroke="blue" points="532,-463.5 532,-484.5 642,-484.5 642,-463.5 532,-463.5"/>
<text text-anchor="start" x="573.5" y="-470" font-family="Helvetica,sans-Serif" font-size="10.00">libX11</text>
<polygon fill="none" stroke="blue" points="532,-442.5 532,-463.5 642,-463.5 642,-442.5 532,-442.5"/>
<text text-anchor="start" x="576.5" y="-449" font-family="Helvetica,sans-Serif" font-size="10.00">none</text>
<polygon fill="none" stroke="blue" points="532,-421.5 532,-442.5 642,-442.5 642,-421.5 532,-421.5"/>
<text text-anchor="start" x="581" y="-428" font-family="Helvetica,sans-Serif" font-size="10.00">[,,]</text>
</g>
<!-- id&#45;&gt;dependency455867 -->
<g id="edge4" class="edge">
<title>id:e&#45;&gt;dependency455867:w</title>
<path fill="none" stroke="black" d="M312,-801C461.03,-801 275.95,-490.39 408.02,-474.62"/>
<polygon fill="black" stroke="black" points="417.78,-474.07 408.05,-479.13 414.01,-474.28 407.8,-474.63 407.8,-474.63 407.8,-474.63 414.01,-474.28 407.55,-470.14 417.78,-474.07"/>
</g>
<!-- dependency455868 -->
<g id="node6" class="node">
<title>dependency455868</title>
<polygon fill="none" stroke="blue" points="428,-814.5 428,-919.5 532,-919.5 532,-814.5 428,-814.5"/>
<text text-anchor="start" x="459" y="-863.12" font-family="Helvetica,sans-Serif" font-size="10.00">pack_dep</text>
<polygon fill="none" stroke="blue" points="532,-898.5 532,-919.5 642,-919.5 642,-898.5 532,-898.5"/>
<text text-anchor="start" x="581.75" y="-905" font-family="Helvetica,sans-Serif" font-size="10.00">no</text>
<polygon fill="none" stroke="blue" points="532,-877.5 532,-898.5 642,-898.5 642,-877.5 532,-877.5"/>
<text text-anchor="start" x="570.12" y="-884" font-family="Helvetica,sans-Serif" font-size="10.00">x11&#45;libs</text>
<polygon fill="none" stroke="blue" points="532,-856.5 532,-877.5 642,-877.5 642,-856.5 532,-856.5"/>
<text text-anchor="start" x="572" y="-863" font-family="Helvetica,sans-Serif" font-size="10.00">libXext</text>
<polygon fill="none" stroke="blue" points="532,-835.5 532,-856.5 642,-856.5 642,-835.5 532,-835.5"/>
<text text-anchor="start" x="576.5" y="-842" font-family="Helvetica,sans-Serif" font-size="10.00">none</text>
<polygon fill="none" stroke="blue" points="532,-814.5 532,-835.5 642,-835.5 642,-814.5 532,-814.5"/>
<text text-anchor="start" x="581" y="-821" font-family="Helvetica,sans-Serif" font-size="10.00">[,,]</text>
</g>
<!-- id&#45;&gt;dependency455868 -->
<g id="edge5" class="edge">
<title>id:e&#45;&gt;dependency455868:w</title>
<path fill="none" stroke="black" d="M312,-801C363.95,-801 363.49,-858.05 408.07,-866.07"/>
<polygon fill="black" stroke="black" points="417.79,-866.9 407.44,-870.53 414.02,-866.57 407.82,-866.05 407.82,-866.05 407.82,-866.05 414.02,-866.57 408.21,-861.56 417.79,-866.9"/>
</g>
<!-- dependency455869 -->
<g id="node7" class="node">
<title>dependency455869</title>
<polygon fill="none" stroke="blue" points="428,-290.5 428,-395.5 532,-395.5 532,-290.5 428,-290.5"/>
<text text-anchor="start" x="459" y="-339.12" font-family="Helvetica,sans-Serif" font-size="10.00">pack_dep</text>
<polygon fill="none" stroke="blue" points="532,-374.5 532,-395.5 642,-395.5 642,-374.5 532,-374.5"/>
<text text-anchor="start" x="581.75" y="-381" font-family="Helvetica,sans-Serif" font-size="10.00">no</text>
<polygon fill="none" stroke="blue" points="532,-353.5 532,-374.5 642,-374.5 642,-353.5 532,-353.5"/>
<text text-anchor="start" x="570.12" y="-360" font-family="Helvetica,sans-Serif" font-size="10.00">x11&#45;libs</text>
<polygon fill="none" stroke="blue" points="532,-332.5 532,-353.5 642,-353.5 642,-332.5 532,-332.5"/>
<text text-anchor="start" x="572" y="-339" font-family="Helvetica,sans-Serif" font-size="10.00">libXpm</text>
<polygon fill="none" stroke="blue" points="532,-311.5 532,-332.5 642,-332.5 642,-311.5 532,-311.5"/>
<text text-anchor="start" x="576.5" y="-318" font-family="Helvetica,sans-Serif" font-size="10.00">none</text>
<polygon fill="none" stroke="blue" points="532,-290.5 532,-311.5 642,-311.5 642,-290.5 532,-290.5"/>
<text text-anchor="start" x="581" y="-297" font-family="Helvetica,sans-Serif" font-size="10.00">[,,]</text>
</g>
<!-- id&#45;&gt;dependency455869 -->
<g id="edge6" class="edge">
<title>id:e&#45;&gt;dependency455869:w</title>
<path fill="none" stroke="black" d="M312,-801C517.16,-801 221.33,-359.84 407.89,-343.47"/>
<polygon fill="black" stroke="black" points="417.78,-343.05 407.98,-347.97 414,-343.21 407.79,-343.47 407.79,-343.47 407.79,-343.47 414,-343.21 407.6,-338.98 417.78,-343.05"/>
</g>
<!-- dependency455870 -->
<g id="node8" class="node">
<title>dependency455870</title>
<polygon fill="none" stroke="blue" points="428,-28.5 428,-133.5 532,-133.5 532,-28.5 428,-28.5"/>
<text text-anchor="start" x="459" y="-77.12" font-family="Helvetica,sans-Serif" font-size="10.00">pack_dep</text>
<polygon fill="none" stroke="blue" points="532,-112.5 532,-133.5 642,-133.5 642,-112.5 532,-112.5"/>
<text text-anchor="start" x="581.75" y="-119" font-family="Helvetica,sans-Serif" font-size="10.00">no</text>
<polygon fill="none" stroke="blue" points="532,-91.5 532,-112.5 642,-112.5 642,-91.5 532,-91.5"/>
<text text-anchor="start" x="570.12" y="-98" font-family="Helvetica,sans-Serif" font-size="10.00">x11&#45;libs</text>
<polygon fill="none" stroke="blue" points="532,-70.5 532,-91.5 642,-91.5 642,-70.5 532,-70.5"/>
<text text-anchor="start" x="577.25" y="-77" font-family="Helvetica,sans-Serif" font-size="10.00">libXt</text>
<polygon fill="none" stroke="blue" points="532,-49.5 532,-70.5 642,-70.5 642,-49.5 532,-49.5"/>
<text text-anchor="start" x="576.5" y="-56" font-family="Helvetica,sans-Serif" font-size="10.00">none</text>
<polygon fill="none" stroke="blue" points="532,-28.5 532,-49.5 642,-49.5 642,-28.5 532,-28.5"/>
<text text-anchor="start" x="581" y="-35" font-family="Helvetica,sans-Serif" font-size="10.00">[,,]</text>
</g>
<!-- id&#45;&gt;dependency455870 -->
<g id="edge7" class="edge">
<title>id:e&#45;&gt;dependency455870:w</title>
<path fill="none" stroke="black" d="M312,-801C469.97,-801 267.18,-114.35 408.24,-82.17"/>
<polygon fill="black" stroke="black" points="417.79,-81.13 408.33,-86.68 414.03,-81.54 407.85,-82.21 407.85,-82.21 407.85,-82.21 414.03,-81.54 407.36,-77.74 417.79,-81.13"/>
</g>
<!-- dependency455871 -->
<g id="node9" class="node">
<title>dependency455871</title>
<polygon fill="none" stroke="blue" points="428,-1233.5 428,-1338.5 532,-1338.5 532,-1233.5 428,-1233.5"/>
<text text-anchor="start" x="459" y="-1282.12" font-family="Helvetica,sans-Serif" font-size="10.00">pack_dep</text>
<polygon fill="none" stroke="blue" points="532,-1317.5 532,-1338.5 642,-1338.5 642,-1317.5 532,-1317.5"/>
<text text-anchor="start" x="581.75" y="-1324" font-family="Helvetica,sans-Serif" font-size="10.00">no</text>
<polygon fill="none" stroke="blue" points="532,-1296.5 532,-1317.5 642,-1317.5 642,-1296.5 532,-1296.5"/>
<text text-anchor="start" x="570.12" y="-1303" font-family="Helvetica,sans-Serif" font-size="10.00">x11&#45;libs</text>
<polygon fill="none" stroke="blue" points="532,-1275.5 532,-1296.5 642,-1296.5 642,-1275.5 532,-1275.5"/>
<text text-anchor="start" x="577.25" y="-1282" font-family="Helvetica,sans-Serif" font-size="10.00">gtk+</text>
<polygon fill="none" stroke="blue" points="532,-1254.5 532,-1275.5 642,-1275.5 642,-1254.5 532,-1254.5"/>
<text text-anchor="start" x="576.5" y="-1261" font-family="Helvetica,sans-Serif" font-size="10.00">none</text>
<polygon fill="none" stroke="blue" points="532,-1233.5 532,-1254.5 642,-1254.5 642,-1233.5 532,-1233.5"/>
<text text-anchor="start" x="581" y="-1240" font-family="Helvetica,sans-Serif" font-size="10.00">[,,]</text>
</g>
<!-- id&#45;&gt;dependency455871 -->
<g id="edge8" class="edge">
<title>id:e&#45;&gt;dependency455871:w</title>
<path fill="none" stroke="black" d="M312,-801C529.72,-801 207.3,-1272.83 410.25,-1285.73"/>
<ellipse fill="none" stroke="black" cx="414.5" cy="-1285.86" rx="4" ry="4"/>
</g>
<!-- dependency455872 -->
<g id="node10" class="node">
<title>dependency455872</title>
<polygon fill="none" stroke="blue" points="428,-1364.5 428,-1469.5 532,-1469.5 532,-1364.5 428,-1364.5"/>
<text text-anchor="start" x="459" y="-1413.12" font-family="Helvetica,sans-Serif" font-size="10.00">pack_dep</text>
<polygon fill="none" stroke="blue" points="532,-1448.5 532,-1469.5 642,-1469.5 642,-1448.5 532,-1448.5"/>
<text text-anchor="start" x="581.75" y="-1455" font-family="Helvetica,sans-Serif" font-size="10.00">no</text>
<polygon fill="none" stroke="blue" points="532,-1427.5 532,-1448.5 642,-1448.5 642,-1427.5 532,-1427.5"/>
<text text-anchor="start" x="570.12" y="-1434" font-family="Helvetica,sans-Serif" font-size="10.00">x11&#45;libs</text>
<polygon fill="none" stroke="blue" points="532,-1406.5 532,-1427.5 642,-1427.5 642,-1406.5 532,-1406.5"/>
<text text-anchor="start" x="573.5" y="-1413" font-family="Helvetica,sans-Serif" font-size="10.00">libICE</text>
<polygon fill="none" stroke="blue" points="532,-1385.5 532,-1406.5 642,-1406.5 642,-1385.5 532,-1385.5"/>
<text text-anchor="start" x="576.5" y="-1392" font-family="Helvetica,sans-Serif" font-size="10.00">none</text>
<polygon fill="none" stroke="blue" points="532,-1364.5 532,-1385.5 642,-1385.5 642,-1364.5 532,-1364.5"/>
<text text-anchor="start" x="581" y="-1371" font-family="Helvetica,sans-Serif" font-size="10.00">[,,]</text>
</g>
<!-- id&#45;&gt;dependency455872 -->
<g id="edge9" class="edge">
<title>id:e&#45;&gt;dependency455872:w</title>
<path fill="none" stroke="black" d="M312,-801C586.89,-801 150.68,-1403.84 410.29,-1416.79"/>
<ellipse fill="none" stroke="black" cx="414.5" cy="-1416.89" rx="4" ry="4"/>
</g>
<!-- dependency455873 -->
<g id="node11" class="node">
<title>dependency455873</title>
<polygon fill="none" stroke="blue" points="428,-1102.5 428,-1207.5 532,-1207.5 532,-1102.5 428,-1102.5"/>
<text text-anchor="start" x="459" y="-1151.12" font-family="Helvetica,sans-Serif" font-size="10.00">pack_dep</text>
<polygon fill="none" stroke="blue" points="532,-1186.5 532,-1207.5 642,-1207.5 642,-1186.5 532,-1186.5"/>
<text text-anchor="start" x="581.75" y="-1193" font-family="Helvetica,sans-Serif" font-size="10.00">no</text>
<polygon fill="none" stroke="blue" points="532,-1165.5 532,-1186.5 642,-1186.5 642,-1165.5 532,-1165.5"/>
<text text-anchor="start" x="570.12" y="-1172" font-family="Helvetica,sans-Serif" font-size="10.00">x11&#45;libs</text>
<polygon fill="none" stroke="blue" points="532,-1144.5 532,-1165.5 642,-1165.5 642,-1144.5 532,-1144.5"/>
<text text-anchor="start" x="573.5" y="-1151" font-family="Helvetica,sans-Serif" font-size="10.00">libX11</text>
<polygon fill="none" stroke="blue" points="532,-1123.5 532,-1144.5 642,-1144.5 642,-1123.5 532,-1123.5"/>
<text text-anchor="start" x="576.5" y="-1130" font-family="Helvetica,sans-Serif" font-size="10.00">none</text>
<polygon fill="none" stroke="blue" points="532,-1102.5 532,-1123.5 642,-1123.5 642,-1102.5 532,-1102.5"/>
<text text-anchor="start" x="581" y="-1109" font-family="Helvetica,sans-Serif" font-size="10.00">[,,]</text>
</g>
<!-- id&#45;&gt;dependency455873 -->
<g id="edge10" class="edge">
<title>id:e&#45;&gt;dependency455873:w</title>
<path fill="none" stroke="black" d="M312,-801C473.31,-801 262.73,-1141.99 410.24,-1154.64"/>
<ellipse fill="none" stroke="black" cx="414.5" cy="-1154.81" rx="4" ry="4"/>
</g>
<!-- dependency455874 -->
<g id="node12" class="node">
<title>dependency455874</title>
<polygon fill="none" stroke="blue" points="428,-1495.5 428,-1600.5 532,-1600.5 532,-1495.5 428,-1495.5"/>
<text text-anchor="start" x="459" y="-1544.12" font-family="Helvetica,sans-Serif" font-size="10.00">pack_dep</text>
<polygon fill="none" stroke="blue" points="532,-1579.5 532,-1600.5 642,-1600.5 642,-1579.5 532,-1579.5"/>
<text text-anchor="start" x="581.75" y="-1586" font-family="Helvetica,sans-Serif" font-size="10.00">no</text>
<polygon fill="none" stroke="blue" points="532,-1558.5 532,-1579.5 642,-1579.5 642,-1558.5 532,-1558.5"/>
<text text-anchor="start" x="570.12" y="-1565" font-family="Helvetica,sans-Serif" font-size="10.00">x11&#45;libs</text>
<polygon fill="none" stroke="blue" points="532,-1537.5 532,-1558.5 642,-1558.5 642,-1537.5 532,-1537.5"/>
<text text-anchor="start" x="572" y="-1544" font-family="Helvetica,sans-Serif" font-size="10.00">libXext</text>
<polygon fill="none" stroke="blue" points="532,-1516.5 532,-1537.5 642,-1537.5 642,-1516.5 532,-1516.5"/>
<text text-anchor="start" x="576.5" y="-1523" font-family="Helvetica,sans-Serif" font-size="10.00">none</text>
<polygon fill="none" stroke="blue" points="532,-1495.5 532,-1516.5 642,-1516.5 642,-1495.5 532,-1495.5"/>
<text text-anchor="start" x="581" y="-1502" font-family="Helvetica,sans-Serif" font-size="10.00">[,,]</text>
</g>
<!-- id&#45;&gt;dependency455874 -->
<g id="edge11" class="edge">
<title>id:e&#45;&gt;dependency455874:w</title>
<path fill="none" stroke="black" d="M312,-801C476.58,-801 259.64,-1520.54 410.07,-1547.24"/>
<ellipse fill="none" stroke="black" cx="414.52" cy="-1547.62" rx="4" ry="4"/>
</g>
<!-- dependency455875 -->
<g id="node13" class="node">
<title>dependency455875</title>
<polygon fill="none" stroke="blue" points="428,-971.5 428,-1076.5 532,-1076.5 532,-971.5 428,-971.5"/>
<text text-anchor="start" x="459" y="-1020.12" font-family="Helvetica,sans-Serif" font-size="10.00">pack_dep</text>
<polygon fill="none" stroke="blue" points="532,-1055.5 532,-1076.5 642,-1076.5 642,-1055.5 532,-1055.5"/>
<text text-anchor="start" x="581.75" y="-1062" font-family="Helvetica,sans-Serif" font-size="10.00">no</text>
<polygon fill="none" stroke="blue" points="532,-1034.5 532,-1055.5 642,-1055.5 642,-1034.5 532,-1034.5"/>
<text text-anchor="start" x="570.12" y="-1041" font-family="Helvetica,sans-Serif" font-size="10.00">x11&#45;libs</text>
<polygon fill="none" stroke="blue" points="532,-1013.5 532,-1034.5 642,-1034.5 642,-1013.5 532,-1013.5"/>
<text text-anchor="start" x="572" y="-1020" font-family="Helvetica,sans-Serif" font-size="10.00">libXpm</text>
<polygon fill="none" stroke="blue" points="532,-992.5 532,-1013.5 642,-1013.5 642,-992.5 532,-992.5"/>
<text text-anchor="start" x="576.5" y="-999" font-family="Helvetica,sans-Serif" font-size="10.00">none</text>
<polygon fill="none" stroke="blue" points="532,-971.5 532,-992.5 642,-992.5 642,-971.5 532,-971.5"/>
<text text-anchor="start" x="581" y="-978" font-family="Helvetica,sans-Serif" font-size="10.00">[,,]</text>
</g>
<!-- id&#45;&gt;dependency455875 -->
<g id="edge12" class="edge">
<title>id:e&#45;&gt;dependency455875:w</title>
<path fill="none" stroke="black" d="M312,-801C418.82,-801 315.28,-1011.55 410.19,-1023.47"/>
<ellipse fill="none" stroke="black" cx="414.51" cy="-1023.73" rx="4" ry="4"/>
</g>
<!-- choice1204949459897115101471201111141034511211411111611145504850524649 -->
<g id="node14" class="node">
<title>choice1204949459897115101471201111141034511211411111611145504850524649</title>
<g id="a_node14"><a xlink:href="../x11-base/xorg-proto-2024.1.svg" xlink:title="portage://x11&#45;base/xorg&#45;proto&#45;2024.1">
<ellipse fill="none" stroke="red" cx="908" cy="-212" rx="144" ry="18"/>
<text text-anchor="middle" x="908" y="-208.12" font-family="Helvetica,sans-Serif" font-size="10.00">portage://x11&#45;base/xorg&#45;proto&#45;2024.1</text>
</a>
</g>
</g>
<!-- dependency455864&#45;&gt;choice1204949459897115101471201111141034511211411111611145504850524649 -->
<g id="edge13" class="edge">
<title>dependency455864:e&#45;&gt;choice1204949459897115101471201111141034511211411111611145504850524649:w</title>
<path fill="none" stroke="black" stroke-dasharray="1,5" d="M657,-212C700.25,-212 713.72,-212 752.08,-212"/>
<polygon fill="black" stroke="black" points="761.78,-212 751.78,-216.5 758,-212 751.78,-212 751.78,-212 751.78,-212 758,-212 751.78,-207.5 761.78,-212"/>
</g>
<!-- choice120494945989711510147120111114103451121141111161114557575757 -->
<g id="node15" class="node">
<title>choice120494945989711510147120111114103451121141111161114557575757</title>
<g id="a_node15"><a xlink:href="../x11-base/xorg-proto-9999.svg" xlink:title="portage://x11&#45;base/xorg&#45;proto&#45;9999">
<ellipse fill="none" stroke="red" cx="908" cy="-266" rx="144" ry="18"/>
<text text-anchor="middle" x="908" y="-262.12" font-family="Helvetica,sans-Serif" font-size="10.00">portage://x11&#45;base/xorg&#45;proto&#45;9999</text>
</a>
</g>
</g>
<!-- dependency455864&#45;&gt;choice120494945989711510147120111114103451121141111161114557575757 -->
<g id="edge14" class="edge">
<title>dependency455864:e&#45;&gt;choice120494945989711510147120111114103451121141111161114557575757:w</title>
<path fill="none" stroke="black" stroke-dasharray="1,5" d="M657,-212C705.95,-212 709.8,-258.28 752.05,-265.15"/>
<polygon fill="black" stroke="black" points="761.79,-265.91 751.47,-269.62 758.01,-265.61 751.82,-265.13 751.82,-265.13 751.82,-265.13 758.01,-265.61 752.16,-260.65 761.79,-265.91"/>
</g>
<!-- choice12049494510810598115471031161074345504650524651514511451 -->
<g id="node16" class="node">
<title>choice12049494510810598115471031161074345504650524651514511451</title>
<g id="a_node16"><a xlink:href="../x11-libs/gtk+-2.24.33-r3.svg" xlink:title="portage://x11&#45;libs/gtk+&#45;2.24.33&#45;r3">
<ellipse fill="none" stroke="red" cx="908" cy="-767" rx="144" ry="18"/>
<text text-anchor="middle" x="908" y="-763.12" font-family="Helvetica,sans-Serif" font-size="10.00">portage://x11&#45;libs/gtk+&#45;2.24.33&#45;r3</text>
</a>
</g>
</g>
<!-- dependency455865&#45;&gt;choice12049494510810598115471031161074345504650524651514511451 -->
<g id="edge15" class="edge">
<title>dependency455865:e&#45;&gt;choice12049494510810598115471031161074345504650524651514511451:w</title>
<path fill="none" stroke="black" stroke-dasharray="1,5" d="M657,-605C739.01,-605 682.82,-752.17 751.87,-765.97"/>
<polygon fill="black" stroke="black" points="761.79,-766.89 751.41,-770.44 758.02,-766.54 751.83,-765.96 751.83,-765.96 751.83,-765.96 758.02,-766.54 752.25,-761.48 761.79,-766.89"/>
</g>
<!-- choice1204949451081059811547103116107434551465052465153 -->
<g id="node17" class="node">
<title>choice1204949451081059811547103116107434551465052465153</title>
<g id="a_node17"><a xlink:href="../x11-libs/gtk+-3.24.35.svg" xlink:title="portage://x11&#45;libs/gtk+&#45;3.24.35">
<ellipse fill="none" stroke="red" cx="908" cy="-713" rx="144" ry="18"/>
<text text-anchor="middle" x="908" y="-709.12" font-family="Helvetica,sans-Serif" font-size="10.00">portage://x11&#45;libs/gtk+&#45;3.24.35</text>
</a>
</g>
</g>
<!-- dependency455865&#45;&gt;choice1204949451081059811547103116107434551465052465153 -->
<g id="edge16" class="edge">
<title>dependency455865:e&#45;&gt;choice1204949451081059811547103116107434551465052465153:w</title>
<path fill="none" stroke="black" stroke-dasharray="1,5" d="M657,-605C720.32,-605 698.76,-700.71 752.13,-711.93"/>
<polygon fill="black" stroke="black" points="761.79,-712.88 751.4,-716.38 758.02,-712.51 751.84,-711.9 751.84,-711.9 751.84,-711.9 758.02,-712.51 752.28,-707.42 761.79,-712.88"/>
</g>
<!-- choice1204949451081059811547103116107434551465052465249 -->
<g id="node18" class="node">
<title>choice1204949451081059811547103116107434551465052465249</title>
<g id="a_node18"><a xlink:href="../x11-libs/gtk+-3.24.41.svg" xlink:title="portage://x11&#45;libs/gtk+&#45;3.24.41">
<ellipse fill="none" stroke="red" cx="908" cy="-659" rx="144" ry="18"/>
<text text-anchor="middle" x="908" y="-655.12" font-family="Helvetica,sans-Serif" font-size="10.00">portage://x11&#45;libs/gtk+&#45;3.24.41</text>
</a>
</g>
</g>
<!-- dependency455865&#45;&gt;choice1204949451081059811547103116107434551465052465249 -->
<g id="edge17" class="edge">
<title>dependency455865:e&#45;&gt;choice1204949451081059811547103116107434551465052465249:w</title>
<path fill="none" stroke="black" stroke-dasharray="1,5" d="M657,-605C705.95,-605 709.8,-651.28 752.05,-658.15"/>
<polygon fill="black" stroke="black" points="761.79,-658.91 751.47,-662.62 758.01,-658.61 751.82,-658.13 751.82,-658.13 751.82,-658.13 758.01,-658.61 752.16,-653.65 761.79,-658.91"/>
</g>
<!-- choice1204949451081059811547103116107434551465052465250 -->
<g id="node19" class="node">
<title>choice1204949451081059811547103116107434551465052465250</title>
<g id="a_node19"><a xlink:href="../x11-libs/gtk+-3.24.42.svg" xlink:title="portage://x11&#45;libs/gtk+&#45;3.24.42">
<ellipse fill="none" stroke="red" cx="908" cy="-605" rx="144" ry="18"/>
<text text-anchor="middle" x="908" y="-601.12" font-family="Helvetica,sans-Serif" font-size="10.00">portage://x11&#45;libs/gtk+&#45;3.24.42</text>
</a>
</g>
</g>
<!-- dependency455865&#45;&gt;choice1204949451081059811547103116107434551465052465250 -->
<g id="edge18" class="edge">
<title>dependency455865:e&#45;&gt;choice1204949451081059811547103116107434551465052465250:w</title>
<path fill="none" stroke="black" stroke-dasharray="1,5" d="M657,-605C700.25,-605 713.72,-605 752.08,-605"/>
<polygon fill="black" stroke="black" points="761.78,-605 751.78,-609.5 758,-605 751.78,-605 751.78,-605 751.78,-605 758,-605 751.78,-600.5 761.78,-605"/>
</g>
<!-- choice1204949451081059811547108105987367694549464946494511449 -->
<g id="node20" class="node">
<title>choice1204949451081059811547108105987367694549464946494511449</title>
<g id="a_node20"><a xlink:href="../x11-libs/libICE-1.1.1-r1.svg" xlink:title="portage://x11&#45;libs/libICE&#45;1.1.1&#45;r1">
<ellipse fill="none" stroke="red" cx="908" cy="-821" rx="144" ry="18"/>
<text text-anchor="middle" x="908" y="-817.12" font-family="Helvetica,sans-Serif" font-size="10.00">portage://x11&#45;libs/libICE&#45;1.1.1&#45;r1</text>
</a>
</g>
</g>
<!-- dependency455866&#45;&gt;choice1204949451081059811547108105987367694549464946494511449 -->
<g id="edge19" class="edge">
<title>dependency455866:e&#45;&gt;choice1204949451081059811547108105987367694549464946494511449:w</title>
<path fill="none" stroke="black" stroke-dasharray="1,5" d="M657,-736C713.38,-736 704.24,-810.09 751.92,-819.93"/>
<polygon fill="black" stroke="black" points="761.79,-820.88 751.4,-824.4 758.02,-820.52 751.83,-819.92 751.83,-819.92 751.83,-819.92 758.02,-820.52 752.27,-815.44 761.79,-820.88"/>
</g>
<!-- choice120494945108105981154710810598884949454946564657 -->
<g id="node21" class="node">
<title>choice120494945108105981154710810598884949454946564657</title>
<g id="a_node21"><a xlink:href="../x11-libs/libX11-1.8.9.svg" xlink:title="portage://x11&#45;libs/libX11&#45;1.8.9">
<ellipse fill="none" stroke="red" cx="908" cy="-512" rx="144" ry="18"/>
<text text-anchor="middle" x="908" y="-508.12" font-family="Helvetica,sans-Serif" font-size="10.00">portage://x11&#45;libs/libX11&#45;1.8.9</text>
</a>
</g>
</g>
<!-- dependency455867&#45;&gt;choice120494945108105981154710810598884949454946564657 -->
<g id="edge20" class="edge">
<title>dependency455867:e&#45;&gt;choice120494945108105981154710810598884949454946564657:w</title>
<path fill="none" stroke="black" stroke-dasharray="1,5" d="M657,-474C703.14,-474 711.76,-506.29 752.04,-511.34"/>
<polygon fill="black" stroke="black" points="761.78,-511.93 751.53,-515.82 758.01,-511.7 751.8,-511.33 751.8,-511.33 751.8,-511.33 758.01,-511.7 752.07,-506.83 761.78,-511.93"/>
</g>
<!-- choice12049494510810598115471081059888101120116454946514654 -->
<g id="node22" class="node">
<title>choice12049494510810598115471081059888101120116454946514654</title>
<g id="a_node22"><a xlink:href="../x11-libs/libXext-1.3.6.svg" xlink:title="portage://x11&#45;libs/libXext&#45;1.3.6">
<ellipse fill="none" stroke="red" cx="908" cy="-875" rx="144" ry="18"/>
<text text-anchor="middle" x="908" y="-871.12" font-family="Helvetica,sans-Serif" font-size="10.00">portage://x11&#45;libs/libXext&#45;1.3.6</text>
</a>
</g>
</g>
<!-- dependency455868&#45;&gt;choice12049494510810598115471081059888101120116454946514654 -->
<g id="edge21" class="edge">
<title>dependency455868:e&#45;&gt;choice12049494510810598115471081059888101120116454946514654:w</title>
<path fill="none" stroke="black" stroke-dasharray="1,5" d="M657,-867C700.37,-867 713.63,-873.74 752.06,-874.85"/>
<polygon fill="black" stroke="black" points="761.78,-874.98 751.72,-879.34 758,-874.93 751.78,-874.84 751.78,-874.84 751.78,-874.84 758,-874.93 751.85,-870.34 761.78,-874.98"/>
</g>
<!-- choice1204949451081059811547108105988811210945514653464955 -->
<g id="node23" class="node">
<title>choice1204949451081059811547108105988811210945514653464955</title>
<g id="a_node23"><a xlink:href="../x11-libs/libXpm-3.5.17.svg" xlink:title="portage://x11&#45;libs/libXpm&#45;3.5.17">
<ellipse fill="none" stroke="red" cx="908" cy="-381" rx="144" ry="18"/>
<text text-anchor="middle" x="908" y="-377.12" font-family="Helvetica,sans-Serif" font-size="10.00">portage://x11&#45;libs/libXpm&#45;3.5.17</text>
</a>
</g>
</g>
<!-- dependency455869&#45;&gt;choice1204949451081059811547108105988811210945514653464955 -->
<g id="edge22" class="edge">
<title>dependency455869:e&#45;&gt;choice1204949451081059811547108105988811210945514653464955:w</title>
<path fill="none" stroke="black" stroke-dasharray="1,5" d="M657,-343C703.14,-343 711.76,-375.29 752.04,-380.34"/>
<polygon fill="black" stroke="black" points="761.78,-380.93 751.53,-384.82 758.01,-380.7 751.8,-380.33 751.8,-380.33 751.8,-380.33 758.01,-380.7 752.07,-375.83 761.78,-380.93"/>
</g>
<!-- choice12049494510810598115471081059888116454946514648 -->
<g id="node24" class="node">
<title>choice12049494510810598115471081059888116454946514648</title>
<g id="a_node24"><a xlink:href="../x11-libs/libXt-1.3.0.svg" xlink:title="portage://x11&#45;libs/libXt&#45;1.3.0">
<ellipse fill="none" stroke="red" cx="908" cy="-158" rx="144" ry="18"/>
<text text-anchor="middle" x="908" y="-154.12" font-family="Helvetica,sans-Serif" font-size="10.00">portage://x11&#45;libs/libXt&#45;1.3.0</text>
</a>
</g>
</g>
<!-- dependency455870&#45;&gt;choice12049494510810598115471081059888116454946514648 -->
<g id="edge23" class="edge">
<title>dependency455870:e&#45;&gt;choice12049494510810598115471081059888116454946514648:w</title>
<path fill="none" stroke="black" stroke-dasharray="1,5" d="M657,-81C711.25,-81 705.88,-147.83 751.98,-156.97"/>
<polygon fill="black" stroke="black" points="761.79,-157.89 751.41,-161.44 758.02,-157.53 751.83,-156.96 751.83,-156.96 751.83,-156.96 758.02,-157.53 752.25,-152.48 761.79,-157.89"/>
</g>
<!-- dependency455871&#45;&gt;choice12049494510810598115471031161074345504650524651514511451 -->
<g id="edge24" class="edge">
<title>dependency455871:e&#45;&gt;choice12049494510810598115471031161074345504650524651514511451:w</title>
<path fill="none" stroke="black" stroke-dasharray="1,5" d="M657,-1286C888.63,-1286 539.17,-783.59 752.08,-767.4"/>
<polygon fill="black" stroke="black" points="761.78,-767.04 751.95,-771.91 758,-767.18 751.79,-767.41 751.79,-767.41 751.79,-767.41 758,-767.18 751.62,-762.91 761.78,-767.04"/>
</g>
<!-- dependency455871&#45;&gt;choice1204949451081059811547103116107434551465052465153 -->
<g id="edge25" class="edge">
<title>dependency455871:e&#45;&gt;choice1204949451081059811547103116107434551465052465153:w</title>
<path fill="none" stroke="black" stroke-dasharray="1,5" d="M657,-1286C912.19,-1286 515.94,-729.66 752.05,-713.37"/>
<polygon fill="black" stroke="black" points="761.78,-713.04 751.94,-717.87 758,-713.17 751.79,-713.37 751.79,-713.37 751.79,-713.37 758,-713.17 751.64,-708.88 761.78,-713.04"/>
</g>
<!-- dependency455871&#45;&gt;choice1204949451081059811547103116107434551465052465249 -->
<g id="edge26" class="edge">
<title>dependency455871:e&#45;&gt;choice1204949451081059811547103116107434551465052465249:w</title>
<path fill="none" stroke="black" stroke-dasharray="1,5" d="M657,-1286C794.45,-1286 631.11,-692.82 752.11,-660.38"/>
<polygon fill="black" stroke="black" points="761.79,-659.15 752.44,-664.88 758.04,-659.63 751.87,-660.41 751.87,-660.41 751.87,-660.41 758.04,-659.63 751.3,-655.95 761.79,-659.15"/>
</g>
<!-- dependency455871&#45;&gt;choice1204949451081059811547103116107434551465052465250 -->
<g id="edge27" class="edge">
<title>dependency455871:e&#45;&gt;choice1204949451081059811547103116107434551465052465250:w</title>
<path fill="none" stroke="black" stroke-dasharray="1,5" d="M657,-1286C806.27,-1286 619.79,-639.14 752.01,-606.29"/>
<polygon fill="black" stroke="black" points="761.79,-605.14 752.38,-610.78 758.03,-605.58 751.86,-606.31 751.86,-606.31 751.86,-606.31 758.03,-605.58 751.33,-601.84 761.79,-605.14"/>
</g>
<!-- dependency455872&#45;&gt;choice1204949451081059811547108105987367694549464946494511449 -->
<g id="edge28" class="edge">
<title>dependency455872:e&#45;&gt;choice1204949451081059811547108105987367694549464946494511449:w</title>
<path fill="none" stroke="black" stroke-dasharray="1,5" d="M657,-1417C787.58,-1417 637.78,-855.41 751.93,-822.5"/>
<polygon fill="black" stroke="black" points="761.79,-821.16 752.49,-826.97 758.05,-821.67 751.88,-822.51 751.88,-822.51 751.88,-822.51 758.05,-821.67 751.28,-818.05 761.79,-821.16"/>
</g>
<!-- dependency455873&#45;&gt;choice120494945108105981154710810598884949454946564657 -->
<g id="edge29" class="edge">
<title>dependency455873:e&#45;&gt;choice120494945108105981154710810598884949454946564657:w</title>
<path fill="none" stroke="black" stroke-dasharray="1,5" d="M657,-1155C798,-1155 627.64,-545.46 752.22,-513.32"/>
<polygon fill="black" stroke="black" points="761.79,-512.15 752.41,-517.83 758.04,-512.61 751.86,-513.36 751.86,-513.36 751.86,-513.36 758.04,-512.61 751.32,-508.89 761.79,-512.15"/>
</g>
<!-- dependency455874&#45;&gt;choice12049494510810598115471081059888101120116454946514654 -->
<g id="edge30" class="edge">
<title>dependency455874:e&#45;&gt;choice12049494510810598115471081059888101120116454946514654:w</title>
<path fill="none" stroke="black" stroke-dasharray="1,5" d="M657,-1548C804.56,-1548 621.37,-908.74 752.13,-876.28"/>
<polygon fill="black" stroke="black" points="761.79,-875.14 752.38,-880.78 758.03,-875.58 751.86,-876.31 751.86,-876.31 751.86,-876.31 758.03,-875.58 751.33,-871.84 761.79,-875.14"/>
</g>
<!-- dependency455875&#45;&gt;choice1204949451081059811547108105988811210945514653464955 -->
<g id="edge31" class="edge">
<title>dependency455875:e&#45;&gt;choice1204949451081059811547108105988811210945514653464955:w</title>
<path fill="none" stroke="black" stroke-dasharray="1,5" d="M657,-1024C798,-1024 627.64,-414.46 752.22,-382.32"/>
<polygon fill="black" stroke="black" points="761.79,-381.15 752.41,-386.83 758.04,-381.61 751.86,-382.36 751.86,-382.36 751.86,-382.36 758.04,-381.61 751.32,-377.89 761.79,-381.15"/>
</g>
</g>
</svg>
