<?xml version="1.0" encoding="UTF-8" standalone="no"?>
<!DOCTYPE svg PUBLIC "-//W3C//DTD SVG 1.1//EN"
 "http://www.w3.org/Graphics/SVG/1.1/DTD/svg11.dtd">
<!-- Generated by graphviz version 2.41.20171026.1811 (20171026.1811)
 -->
<!-- Title: prolog Pages: 1 -->
<svg width="1068pt" height="804pt"
 viewBox="0.00 0.00 1068.00 804.00" xmlns="http://www.w3.org/2000/svg" xmlns:xlink="http://www.w3.org/1999/xlink">
<g id="graph0" class="graph" transform="scale(1 1) rotate(0) translate(4 800)">
<title>prolog</title>
<polygon fill="white" stroke="transparent" points="-4,4 -4,-800 1064,-800 1064,4 -4,4"/>
<g id="clust1" class="cluster">
<title>cluster_leftcol</title>
<polygon fill="none" stroke="gray" points="8,-339 8,-409 312,-409 312,-339 8,-339"/>
<text text-anchor="start" x="146.66" y="-398" font-family="Helvetica,sans-Serif" font-style="italic" font-size="10.00">ebuild</text>
</g>
<g id="clust2" class="cluster">
<title>cluster_midcol</title>
<polygon fill="none" stroke="gray" points="396,-8 396,-788 664,-788 664,-8 396,-8"/>
<text text-anchor="start" x="498.86" y="-777" font-family="Helvetica,sans-Serif" font-style="italic" font-size="10.00">dependencies</text>
</g>
<g id="clust3" class="cluster">
<title>cluster_compile</title>
<polygon fill="#eeeeee" stroke="gray" points="404,-514 404,-762 656,-762 656,-514 404,-514"/>
<text text-anchor="start" x="512.77" y="-751" font-family="Helvetica,sans-Serif" font-style="italic" font-size="10.00">compile</text>
</g>
<g id="clust6" class="cluster">
<title>cluster_compileandrun</title>
<polygon fill="#eeeeee" stroke="gray" points="404,-16 404,-506 656,-506 656,-16 404,-16"/>
<text text-anchor="start" x="494.42" y="-495" font-family="Helvetica,sans-Serif" font-style="italic" font-size="10.00">compile and run</text>
</g>
<g id="clust12" class="cluster">
<title>cluster_choices</title>
<polygon fill="none" stroke="gray" points="748,-109 748,-669 1052,-669 1052,-109 748,-109"/>
<text text-anchor="start" x="875.82" y="-658" font-family="Helvetica,sans-Serif" font-style="italic" font-size="10.00">candidates</text>
</g>
<!-- id -->
<g id="node1" class="node">
<title>id</title>
<g id="a_node1"><a xlink:href="../x11-plugins/wmget-0.6.0.svg" xlink:title="x11&#45;plugins/wmget&#45;0.6.0">
<ellipse fill="none" stroke="red" cx="160" cy="-365" rx="144" ry="18"/>
<text text-anchor="middle" x="160" y="-362" font-family="Helvetica,sans-Serif" font-size="10.00">x11&#45;plugins/wmget&#45;0.6.0</text>
</a>
</g>
</g>
<!-- dependency527195 -->
<g id="node2" class="node">
<title>dependency527195</title>
<polygon fill="none" stroke="blue" points="420,-642 420,-732 525,-732 525,-642 420,-642"/>
<text text-anchor="start" x="450.82" y="-684" font-family="Helvetica,sans-Serif" font-size="10.00">pack_dep</text>
<polygon fill="none" stroke="blue" points="525,-712 525,-732 635,-732 635,-712 525,-712"/>
<text text-anchor="start" x="574.44" y="-719" font-family="Helvetica,sans-Serif" font-size="10.00">no</text>
<polygon fill="none" stroke="blue" points="525,-692 525,-712 635,-712 635,-692 525,-692"/>
<text text-anchor="start" x="559.25" y="-699" font-family="Helvetica,sans-Serif" font-size="10.00">x11&#45;proto</text>
<polygon fill="none" stroke="blue" points="525,-672 525,-692 635,-692 635,-672 525,-672"/>
<text text-anchor="start" x="559.43" y="-679" font-family="Helvetica,sans-Serif" font-size="10.00">xextproto</text>
<polygon fill="none" stroke="blue" points="525,-652 525,-672 635,-672 635,-652 525,-652"/>
<text text-anchor="start" x="568.88" y="-659" font-family="Helvetica,sans-Serif" font-size="10.00">none</text>
<polygon fill="none" stroke="blue" points="525,-642 525,-652 635,-652 635,-642 525,-642"/>
</g>
<!-- id&#45;&gt;dependency527195 -->
<g id="edge1" class="edge">
<title>id:e&#45;&gt;dependency527195:w</title>
<path fill="none" stroke="black" d="M305,-365C452.13,-365 269.3,-672.08 400.97,-686.48"/>
<polygon fill="black" stroke="black" points="411,-687 400.78,-690.97 406.01,-686.74 401.01,-686.48 401.01,-686.48 401.01,-686.48 406.01,-686.74 401.25,-681.99 411,-687 411,-687"/>
</g>
<!-- dependency527196 -->
<g id="node3" class="node">
<title>dependency527196</title>
<polygon fill="none" stroke="blue" points="420,-526 420,-616 525,-616 525,-526 420,-526"/>
<text text-anchor="start" x="450.82" y="-568" font-family="Helvetica,sans-Serif" font-size="10.00">pack_dep</text>
<polygon fill="none" stroke="blue" points="525,-596 525,-616 635,-616 635,-596 525,-596"/>
<text text-anchor="start" x="574.44" y="-603" font-family="Helvetica,sans-Serif" font-size="10.00">no</text>
<polygon fill="none" stroke="blue" points="525,-576 525,-596 635,-596 635,-576 525,-576"/>
<text text-anchor="start" x="559.25" y="-583" font-family="Helvetica,sans-Serif" font-size="10.00">x11&#45;proto</text>
<polygon fill="none" stroke="blue" points="525,-556 525,-576 635,-576 635,-556 525,-556"/>
<text text-anchor="start" x="566.1" y="-563" font-family="Helvetica,sans-Serif" font-size="10.00">xproto</text>
<polygon fill="none" stroke="blue" points="525,-536 525,-556 635,-556 635,-536 525,-536"/>
<text text-anchor="start" x="568.88" y="-543" font-family="Helvetica,sans-Serif" font-size="10.00">none</text>
<polygon fill="none" stroke="blue" points="525,-526 525,-536 635,-536 635,-526 525,-526"/>
</g>
<!-- id&#45;&gt;dependency527196 -->
<g id="edge2" class="edge">
<title>id:e&#45;&gt;dependency527196:w</title>
<path fill="none" stroke="black" d="M305,-365C404.35,-365 314.81,-556.77 400.88,-570.25"/>
<polygon fill="black" stroke="black" points="411,-571 400.7,-574.75 406.01,-570.63 401.03,-570.27 401.03,-570.27 401.03,-570.27 406.01,-570.63 401.36,-565.78 411,-571 411,-571"/>
</g>
<!-- dependency527197 -->
<g id="node4" class="node">
<title>dependency527197</title>
<polygon fill="none" stroke="blue" points="420,-376 420,-476 525,-476 525,-376 420,-376"/>
<text text-anchor="start" x="450.82" y="-423" font-family="Helvetica,sans-Serif" font-size="10.00">pack_dep</text>
<polygon fill="none" stroke="blue" points="525,-456 525,-476 635,-476 635,-456 525,-456"/>
<text text-anchor="start" x="574.44" y="-463" font-family="Helvetica,sans-Serif" font-size="10.00">no</text>
<polygon fill="none" stroke="blue" points="525,-436 525,-456 635,-456 635,-436 525,-436"/>
<text text-anchor="start" x="561.11" y="-443" font-family="Helvetica,sans-Serif" font-size="10.00">net&#45;misc</text>
<polygon fill="none" stroke="blue" points="525,-416 525,-436 635,-436 635,-416 525,-416"/>
<text text-anchor="start" x="571.94" y="-423" font-family="Helvetica,sans-Serif" font-size="10.00">curl</text>
<polygon fill="none" stroke="blue" points="525,-396 525,-416 635,-416 635,-396 525,-396"/>
<text text-anchor="start" x="551.92" y="-403" font-family="Helvetica,sans-Serif" font-size="10.00">greaterequal</text>
<polygon fill="none" stroke="blue" points="525,-376 525,-396 635,-396 635,-376 525,-376"/>
<text text-anchor="start" x="568.88" y="-383" font-family="Helvetica,sans-Serif" font-size="10.00">7.9.7</text>
</g>
<!-- id&#45;&gt;dependency527197 -->
<g id="edge3" class="edge">
<title>id:e&#45;&gt;dependency527197:w</title>
<path fill="none" stroke="black" d="M305,-365C352.56,-365 356.43,-411.7 393.07,-423.38"/>
<ellipse fill="none" stroke="black" cx="407.04" cy="-425.42" rx="4" ry="4"/>
<polygon fill="black" stroke="black" points="403.08,-424.84 392.54,-427.85 398.14,-424.12 393.19,-423.4 393.19,-423.4 393.19,-423.4 398.14,-424.12 393.84,-418.94 403.08,-424.84 403.08,-424.84"/>
</g>
<!-- dependency527198 -->
<g id="node5" class="node">
<title>dependency527198</title>
<polygon fill="none" stroke="blue" points="420,-260 420,-350 525,-350 525,-260 420,-260"/>
<text text-anchor="start" x="450.82" y="-302" font-family="Helvetica,sans-Serif" font-size="10.00">pack_dep</text>
<polygon fill="none" stroke="blue" points="525,-330 525,-350 635,-350 635,-330 525,-330"/>
<text text-anchor="start" x="574.44" y="-337" font-family="Helvetica,sans-Serif" font-size="10.00">no</text>
<polygon fill="none" stroke="blue" points="525,-310 525,-330 635,-330 635,-310 525,-310"/>
<text text-anchor="start" x="563.14" y="-317" font-family="Helvetica,sans-Serif" font-size="10.00">x11&#45;libs</text>
<polygon fill="none" stroke="blue" points="525,-290 525,-310 635,-310 635,-290 525,-290"/>
<text text-anchor="start" x="566.47" y="-297" font-family="Helvetica,sans-Serif" font-size="10.00">libX11</text>
<polygon fill="none" stroke="blue" points="525,-270 525,-290 635,-290 635,-270 525,-270"/>
<text text-anchor="start" x="568.88" y="-277" font-family="Helvetica,sans-Serif" font-size="10.00">none</text>
<polygon fill="none" stroke="blue" points="525,-260 525,-270 635,-270 635,-260 525,-260"/>
</g>
<!-- id&#45;&gt;dependency527198 -->
<g id="edge4" class="edge">
<title>id:e&#45;&gt;dependency527198:w</title>
<path fill="none" stroke="black" d="M305,-365C352.37,-365 356.55,-319.06 393.12,-307.58"/>
<ellipse fill="none" stroke="black" cx="407.04" cy="-305.57" rx="4" ry="4"/>
<polygon fill="black" stroke="black" points="403.08,-306.14 393.83,-312.02 398.13,-306.86 393.18,-307.57 393.18,-307.57 393.18,-307.57 398.13,-306.86 392.54,-303.12 403.08,-306.14 403.08,-306.14"/>
</g>
<!-- dependency527199 -->
<g id="node6" class="node">
<title>dependency527199</title>
<polygon fill="none" stroke="blue" points="420,-144 420,-234 525,-234 525,-144 420,-144"/>
<text text-anchor="start" x="450.82" y="-186" font-family="Helvetica,sans-Serif" font-size="10.00">pack_dep</text>
<polygon fill="none" stroke="blue" points="525,-214 525,-234 635,-234 635,-214 525,-214"/>
<text text-anchor="start" x="574.44" y="-221" font-family="Helvetica,sans-Serif" font-size="10.00">no</text>
<polygon fill="none" stroke="blue" points="525,-194 525,-214 635,-214 635,-194 525,-194"/>
<text text-anchor="start" x="563.14" y="-201" font-family="Helvetica,sans-Serif" font-size="10.00">x11&#45;libs</text>
<polygon fill="none" stroke="blue" points="525,-174 525,-194 635,-194 635,-174 525,-174"/>
<text text-anchor="start" x="564.99" y="-181" font-family="Helvetica,sans-Serif" font-size="10.00">libXext</text>
<polygon fill="none" stroke="blue" points="525,-154 525,-174 635,-174 635,-154 525,-154"/>
<text text-anchor="start" x="568.88" y="-161" font-family="Helvetica,sans-Serif" font-size="10.00">none</text>
<polygon fill="none" stroke="blue" points="525,-144 525,-154 635,-154 635,-144 525,-144"/>
</g>
<!-- id&#45;&gt;dependency527199 -->
<g id="edge5" class="edge">
<title>id:e&#45;&gt;dependency527199:w</title>
<path fill="none" stroke="black" d="M305,-365C389.36,-365 330.39,-214.79 392.91,-191.91"/>
<ellipse fill="none" stroke="black" cx="407.05" cy="-189.63" rx="4" ry="4"/>
<polygon fill="black" stroke="black" points="403.1,-190.27 393.94,-196.3 398.16,-191.06 393.23,-191.86 393.23,-191.86 393.23,-191.86 398.16,-191.06 392.51,-187.41 403.1,-190.27 403.1,-190.27"/>
</g>
<!-- dependency527200 -->
<g id="node7" class="node">
<title>dependency527200</title>
<polygon fill="none" stroke="blue" points="420,-28 420,-118 525,-118 525,-28 420,-28"/>
<text text-anchor="start" x="450.82" y="-70" font-family="Helvetica,sans-Serif" font-size="10.00">pack_dep</text>
<polygon fill="none" stroke="blue" points="525,-98 525,-118 635,-118 635,-98 525,-98"/>
<text text-anchor="start" x="574.44" y="-105" font-family="Helvetica,sans-Serif" font-size="10.00">no</text>
<polygon fill="none" stroke="blue" points="525,-78 525,-98 635,-98 635,-78 525,-78"/>
<text text-anchor="start" x="563.14" y="-85" font-family="Helvetica,sans-Serif" font-size="10.00">x11&#45;libs</text>
<polygon fill="none" stroke="blue" points="525,-58 525,-78 635,-78 635,-58 525,-58"/>
<text text-anchor="start" x="564.72" y="-65" font-family="Helvetica,sans-Serif" font-size="10.00">libXpm</text>
<polygon fill="none" stroke="blue" points="525,-38 525,-58 635,-58 635,-38 525,-38"/>
<text text-anchor="start" x="568.88" y="-45" font-family="Helvetica,sans-Serif" font-size="10.00">none</text>
<polygon fill="none" stroke="blue" points="525,-28 525,-38 635,-38 635,-28 525,-28"/>
</g>
<!-- id&#45;&gt;dependency527200 -->
<g id="edge6" class="edge">
<title>id:e&#45;&gt;dependency527200:w</title>
<path fill="none" stroke="black" d="M305,-365C436.32,-365 288.82,-100.82 392.91,-75.02"/>
<ellipse fill="none" stroke="black" cx="407.02" cy="-73.44" rx="4" ry="4"/>
<polygon fill="black" stroke="black" points="403.05,-73.89 393.61,-79.47 398.08,-74.44 393.11,-75 393.11,-75 393.11,-75 398.08,-74.44 392.61,-70.53 403.05,-73.89 403.05,-73.89"/>
</g>
<!-- choice12049494511211411111611147120101120116112114111116111455546514648 -->
<g id="node8" class="node">
<title>choice12049494511211411111611147120101120116112114111116111455546514648</title>
<g id="a_node8"><a xlink:href="../x11-proto/xextproto-7.3.0.svg" xlink:title="x11&#45;proto/xextproto&#45;7.3.0">
<ellipse fill="none" stroke="red" cx="900" cy="-625" rx="144" ry="18"/>
<text text-anchor="middle" x="900" y="-622" font-family="Helvetica,sans-Serif" font-size="10.00">x11&#45;proto/xextproto&#45;7.3.0</text>
</a>
</g>
</g>
<!-- dependency527195&#45;&gt;choice12049494511211411111611147120101120116112114111116111455546514648 -->
<g id="edge7" class="edge">
<title>dependency527195:e&#45;&gt;choice12049494511211411111611147120101120116112114111116111455546514648:w</title>
<path fill="none" stroke="black" stroke-dasharray="1,5" d="M649,-687C699.95,-687 700.59,-632.96 744.86,-625.78"/>
<polygon fill="black" stroke="black" points="755,-625 745.38,-630.26 750.01,-625.39 745.03,-625.77 745.03,-625.77 745.03,-625.77 750.01,-625.39 744.68,-621.28 755,-625 755,-625"/>
</g>
<!-- choice1204949451121141111161114712011211411111611145554648465149 -->
<g id="node9" class="node">
<title>choice1204949451121141111161114712011211411111611145554648465149</title>
<g id="a_node9"><a xlink:href="../x11-proto/xproto-7.0.31.svg" xlink:title="x11&#45;proto/xproto&#45;7.0.31">
<ellipse fill="none" stroke="red" cx="900" cy="-571" rx="144" ry="18"/>
<text text-anchor="middle" x="900" y="-568" font-family="Helvetica,sans-Serif" font-size="10.00">x11&#45;proto/xproto&#45;7.0.31</text>
</a>
</g>
</g>
<!-- dependency527196&#45;&gt;choice1204949451121141111161114712011211411111611145554648465149 -->
<g id="edge8" class="edge">
<title>dependency527196:e&#45;&gt;choice1204949451121141111161114712011211411111611145554648465149:w</title>
<path fill="none" stroke="black" stroke-dasharray="1,5" d="M649,-571C692.43,-571 705.83,-571 744.57,-571"/>
<polygon fill="black" stroke="black" points="755,-571 745,-575.5 750,-571 745,-571 745,-571 745,-571 750,-571 745,-566.5 755,-571 755,-571"/>
</g>
<!-- choice1101011164510910511599479911711410845554653534649 -->
<g id="node10" class="node">
<title>choice1101011164510910511599479911711410845554653534649</title>
<g id="a_node10"><a xlink:href="../net-misc/curl-7.55.1.svg" xlink:title="net&#45;misc/curl&#45;7.55.1">
<ellipse fill="none" stroke="red" cx="900" cy="-480" rx="144" ry="18"/>
<text text-anchor="middle" x="900" y="-477" font-family="Helvetica,sans-Serif" font-size="10.00">net&#45;misc/curl&#45;7.55.1</text>
</a>
</g>
</g>
<!-- dependency527197&#45;&gt;choice1101011164510910511599479911711410845554653534649 -->
<g id="edge9" class="edge">
<title>dependency527197:e&#45;&gt;choice1101011164510910511599479911711410845554653534649:w</title>
<path fill="none" stroke="black" stroke-dasharray="1,5" d="M649,-426C698.26,-426 701.85,-472.87 744.86,-479.28"/>
<polygon fill="black" stroke="black" points="755,-480 744.71,-483.78 750.01,-479.64 745.03,-479.29 745.03,-479.29 745.03,-479.29 750.01,-479.64 745.35,-474.8 755,-480 755,-480"/>
</g>
<!-- choice1101011164510910511599479911711410845554653544648 -->
<g id="node11" class="node">
<title>choice1101011164510910511599479911711410845554653544648</title>
<g id="a_node11"><a xlink:href="../net-misc/curl-7.56.0.svg" xlink:title="net&#45;misc/curl&#45;7.56.0">
<ellipse fill="none" stroke="red" cx="900" cy="-426" rx="144" ry="18"/>
<text text-anchor="middle" x="900" y="-423" font-family="Helvetica,sans-Serif" font-size="10.00">net&#45;misc/curl&#45;7.56.0</text>
</a>
</g>
</g>
<!-- dependency527197&#45;&gt;choice1101011164510910511599479911711410845554653544648 -->
<g id="edge10" class="edge">
<title>dependency527197:e&#45;&gt;choice1101011164510910511599479911711410845554653544648:w</title>
<path fill="none" stroke="black" stroke-dasharray="1,5" d="M649,-426C692.43,-426 705.83,-426 744.57,-426"/>
<polygon fill="black" stroke="black" points="755,-426 745,-430.5 750,-426 745,-426 745,-426 745,-426 750,-426 745,-421.5 755,-426 755,-426"/>
</g>
<!-- choice1101011164510910511599479911711410845554653544649 -->
<g id="node12" class="node">
<title>choice1101011164510910511599479911711410845554653544649</title>
<g id="a_node12"><a xlink:href="../net-misc/curl-7.56.1.svg" xlink:title="net&#45;misc/curl&#45;7.56.1">
<ellipse fill="none" stroke="red" cx="900" cy="-372" rx="144" ry="18"/>
<text text-anchor="middle" x="900" y="-369" font-family="Helvetica,sans-Serif" font-size="10.00">net&#45;misc/curl&#45;7.56.1</text>
</a>
</g>
</g>
<!-- dependency527197&#45;&gt;choice1101011164510910511599479911711410845554653544649 -->
<g id="edge11" class="edge">
<title>dependency527197:e&#45;&gt;choice1101011164510910511599479911711410845554653544649:w</title>
<path fill="none" stroke="black" stroke-dasharray="1,5" d="M649,-426C698.26,-426 701.85,-379.13 744.86,-372.72"/>
<polygon fill="black" stroke="black" points="755,-372 745.35,-377.2 750.01,-372.36 745.03,-372.71 745.03,-372.71 745.03,-372.71 750.01,-372.36 744.71,-368.22 755,-372 755,-372"/>
</g>
<!-- choice120494945108105981154710810598884949454946544653 -->
<g id="node13" class="node">
<title>choice120494945108105981154710810598884949454946544653</title>
<g id="a_node13"><a xlink:href="../x11-libs/libX11-1.6.5.svg" xlink:title="x11&#45;libs/libX11&#45;1.6.5">
<ellipse fill="none" stroke="red" cx="900" cy="-305" rx="144" ry="18"/>
<text text-anchor="middle" x="900" y="-302" font-family="Helvetica,sans-Serif" font-size="10.00">x11&#45;libs/libX11&#45;1.6.5</text>
</a>
</g>
</g>
<!-- dependency527198&#45;&gt;choice120494945108105981154710810598884949454946544653 -->
<g id="edge12" class="edge">
<title>dependency527198:e&#45;&gt;choice120494945108105981154710810598884949454946544653:w</title>
<path fill="none" stroke="black" stroke-dasharray="1,5" d="M649,-305C692.43,-305 705.83,-305 744.57,-305"/>
<polygon fill="black" stroke="black" points="755,-305 745,-309.5 750,-305 745,-305 745,-305 745,-305 750,-305 745,-300.5 755,-305 755,-305"/>
</g>
<!-- choice12049494510810598115471081059888101120116454946514650 -->
<g id="node14" class="node">
<title>choice12049494510810598115471081059888101120116454946514650</title>
<g id="a_node14"><a xlink:href="../x11-libs/libXext-1.3.2.svg" xlink:title="x11&#45;libs/libXext&#45;1.3.2">
<ellipse fill="none" stroke="red" cx="900" cy="-243" rx="144" ry="18"/>
<text text-anchor="middle" x="900" y="-240" font-family="Helvetica,sans-Serif" font-size="10.00">x11&#45;libs/libXext&#45;1.3.2</text>
</a>
</g>
</g>
<!-- dependency527199&#45;&gt;choice12049494510810598115471081059888101120116454946514650 -->
<g id="edge13" class="edge">
<title>dependency527199:e&#45;&gt;choice12049494510810598115471081059888101120116454946514650:w</title>
<path fill="none" stroke="black" stroke-dasharray="1,5" d="M649,-189C698.26,-189 701.85,-235.87 744.86,-242.28"/>
<polygon fill="black" stroke="black" points="755,-243 744.71,-246.78 750.01,-242.64 745.03,-242.29 745.03,-242.29 745.03,-242.29 750.01,-242.64 745.35,-237.8 755,-243 755,-243"/>
</g>
<!-- choice12049494510810598115471081059888101120116454946514651 -->
<g id="node15" class="node">
<title>choice12049494510810598115471081059888101120116454946514651</title>
<g id="a_node15"><a xlink:href="../x11-libs/libXext-1.3.3.svg" xlink:title="x11&#45;libs/libXext&#45;1.3.3">
<ellipse fill="none" stroke="red" cx="900" cy="-189" rx="144" ry="18"/>
<text text-anchor="middle" x="900" y="-186" font-family="Helvetica,sans-Serif" font-size="10.00">x11&#45;libs/libXext&#45;1.3.3</text>
</a>
</g>
</g>
<!-- dependency527199&#45;&gt;choice12049494510810598115471081059888101120116454946514651 -->
<g id="edge14" class="edge">
<title>dependency527199:e&#45;&gt;choice12049494510810598115471081059888101120116454946514651:w</title>
<path fill="none" stroke="black" stroke-dasharray="1,5" d="M649,-189C692.43,-189 705.83,-189 744.57,-189"/>
<polygon fill="black" stroke="black" points="755,-189 745,-193.5 750,-189 745,-189 745,-189 745,-189 750,-189 745,-184.5 755,-189 755,-189"/>
</g>
<!-- choice1204949451081059811547108105988811210945514653464950 -->
<g id="node16" class="node">
<title>choice1204949451081059811547108105988811210945514653464950</title>
<g id="a_node16"><a xlink:href="../x11-libs/libXpm-3.5.12.svg" xlink:title="x11&#45;libs/libXpm&#45;3.5.12">
<ellipse fill="none" stroke="red" cx="900" cy="-135" rx="144" ry="18"/>
<text text-anchor="middle" x="900" y="-132" font-family="Helvetica,sans-Serif" font-size="10.00">x11&#45;libs/libXpm&#45;3.5.12</text>
</a>
</g>
</g>
<!-- dependency527200&#45;&gt;choice1204949451081059811547108105988811210945514653464950 -->
<g id="edge15" class="edge">
<title>dependency527200:e&#45;&gt;choice1204949451081059811547108105988811210945514653464950:w</title>
<path fill="none" stroke="black" stroke-dasharray="1,5" d="M649,-73C699.95,-73 700.59,-127.04 744.86,-134.22"/>
<polygon fill="black" stroke="black" points="755,-135 744.68,-138.72 750.01,-134.61 745.03,-134.23 745.03,-134.23 745.03,-134.23 750.01,-134.61 745.38,-129.74 755,-135 755,-135"/>
</g>
</g>
</svg>
