<?xml version="1.0" encoding="UTF-8" standalone="no"?>
<!DOCTYPE svg PUBLIC "-//W3C//DTD SVG 1.1//EN"
 "http://www.w3.org/Graphics/SVG/1.1/DTD/svg11.dtd">
<!-- Generated by graphviz version 2.41.20171026.1811 (20171026.1811)
 -->
<!-- Title: prolog Pages: 1 -->
<svg width="1068pt" height="422pt"
 viewBox="0.00 0.00 1068.00 422.00" xmlns="http://www.w3.org/2000/svg" xmlns:xlink="http://www.w3.org/1999/xlink">
<g id="graph0" class="graph" transform="scale(1 1) rotate(0) translate(4 418)">
<title>prolog</title>
<polygon fill="white" stroke="transparent" points="-4,4 -4,-418 1064,-418 1064,4 -4,4"/>
<g id="clust1" class="cluster">
<title>cluster_leftcol</title>
<polygon fill="none" stroke="gray" points="8,-163 8,-233 312,-233 312,-163 8,-163"/>
<text text-anchor="start" x="146.66" y="-222" font-family="Helvetica,sans-Serif" font-style="italic" font-size="10.00">ebuild</text>
</g>
<g id="clust2" class="cluster">
<title>cluster_midcol</title>
<polygon fill="none" stroke="gray" points="396,-8 396,-406 664,-406 664,-8 396,-8"/>
<text text-anchor="start" x="498.86" y="-395" font-family="Helvetica,sans-Serif" font-style="italic" font-size="10.00">dependencies</text>
</g>
<g id="clust4" class="cluster">
<title>cluster_compileandrun</title>
<polygon fill="#eeeeee" stroke="gray" points="404,-16 404,-380 656,-380 656,-16 404,-16"/>
<text text-anchor="start" x="494.42" y="-369" font-family="Helvetica,sans-Serif" font-style="italic" font-size="10.00">compile and run</text>
</g>
<g id="clust9" class="cluster">
<title>cluster_choices</title>
<polygon fill="none" stroke="gray" points="748,-109 748,-349 1052,-349 1052,-109 748,-109"/>
<text text-anchor="start" x="875.82" y="-338" font-family="Helvetica,sans-Serif" font-style="italic" font-size="10.00">candidates</text>
</g>
<!-- id -->
<g id="node1" class="node">
<title>id</title>
<g id="a_node1"><a xlink:href="../x11-plugins/wmpager-1.2-r2.svg" xlink:title="x11&#45;plugins/wmpager&#45;1.2&#45;r2">
<ellipse fill="none" stroke="red" cx="160" cy="-189" rx="144" ry="18"/>
<text text-anchor="middle" x="160" y="-186" font-family="Helvetica,sans-Serif" font-size="10.00">x11&#45;plugins/wmpager&#45;1.2&#45;r2</text>
</a>
</g>
</g>
<!-- dependency4646 -->
<g id="node2" class="node">
<title>dependency4646</title>
<polygon fill="none" stroke="blue" points="420,-260 420,-350 525,-350 525,-260 420,-260"/>
<text text-anchor="start" x="450.82" y="-302" font-family="Helvetica,sans-Serif" font-size="10.00">pack_dep</text>
<polygon fill="none" stroke="blue" points="525,-330 525,-350 635,-350 635,-330 525,-330"/>
<text text-anchor="start" x="574.44" y="-337" font-family="Helvetica,sans-Serif" font-size="10.00">no</text>
<polygon fill="none" stroke="blue" points="525,-310 525,-330 635,-330 635,-310 525,-310"/>
<text text-anchor="start" x="563.14" y="-317" font-family="Helvetica,sans-Serif" font-size="10.00">x11&#45;libs</text>
<polygon fill="none" stroke="blue" points="525,-290 525,-310 635,-310 635,-290 525,-290"/>
<text text-anchor="start" x="566.47" y="-297" font-family="Helvetica,sans-Serif" font-size="10.00">libX11</text>
<polygon fill="none" stroke="blue" points="525,-270 525,-290 635,-290 635,-270 525,-270"/>
<text text-anchor="start" x="568.88" y="-277" font-family="Helvetica,sans-Serif" font-size="10.00">none</text>
<polygon fill="none" stroke="blue" points="525,-260 525,-270 635,-270 635,-260 525,-260"/>
</g>
<!-- id&#45;&gt;dependency4646 -->
<g id="edge1" class="edge">
<title>id:e&#45;&gt;dependency4646:w</title>
<path fill="none" stroke="black" d="M305,-189C367.88,-189 346.84,-283.04 393.01,-301.78"/>
<ellipse fill="none" stroke="black" cx="407.06" cy="-304.29" rx="4" ry="4"/>
<polygon fill="black" stroke="black" points="403.13,-303.59 392.49,-306.26 398.2,-302.71 393.28,-301.83 393.28,-301.83 393.28,-301.83 398.2,-302.71 394.08,-297.4 403.13,-303.59 403.13,-303.59"/>
</g>
<!-- dependency4647 -->
<g id="node3" class="node">
<title>dependency4647</title>
<polygon fill="none" stroke="blue" points="420,-144 420,-234 525,-234 525,-144 420,-144"/>
<text text-anchor="start" x="450.82" y="-186" font-family="Helvetica,sans-Serif" font-size="10.00">pack_dep</text>
<polygon fill="none" stroke="blue" points="525,-214 525,-234 635,-234 635,-214 525,-214"/>
<text text-anchor="start" x="574.44" y="-221" font-family="Helvetica,sans-Serif" font-size="10.00">no</text>
<polygon fill="none" stroke="blue" points="525,-194 525,-214 635,-214 635,-194 525,-194"/>
<text text-anchor="start" x="563.14" y="-201" font-family="Helvetica,sans-Serif" font-size="10.00">x11&#45;libs</text>
<polygon fill="none" stroke="blue" points="525,-174 525,-194 635,-194 635,-174 525,-174"/>
<text text-anchor="start" x="564.99" y="-181" font-family="Helvetica,sans-Serif" font-size="10.00">libXext</text>
<polygon fill="none" stroke="blue" points="525,-154 525,-174 635,-174 635,-154 525,-154"/>
<text text-anchor="start" x="568.88" y="-161" font-family="Helvetica,sans-Serif" font-size="10.00">none</text>
<polygon fill="none" stroke="blue" points="525,-144 525,-154 635,-154 635,-144 525,-144"/>
</g>
<!-- id&#45;&gt;dependency4647 -->
<g id="edge2" class="edge">
<title>id:e&#45;&gt;dependency4647:w</title>
<path fill="none" stroke="black" d="M305,-189C345.3,-189 359.75,-189 392.57,-189"/>
<ellipse fill="none" stroke="black" cx="407" cy="-189" rx="4" ry="4"/>
<polygon fill="black" stroke="black" points="403,-189 393,-193.5 398,-189 393,-189 393,-189 393,-189 398,-189 393,-184.5 403,-189 403,-189"/>
</g>
<!-- dependency4648 -->
<g id="node4" class="node">
<title>dependency4648</title>
<polygon fill="none" stroke="blue" points="420,-28 420,-118 525,-118 525,-28 420,-28"/>
<text text-anchor="start" x="450.82" y="-70" font-family="Helvetica,sans-Serif" font-size="10.00">pack_dep</text>
<polygon fill="none" stroke="blue" points="525,-98 525,-118 635,-118 635,-98 525,-98"/>
<text text-anchor="start" x="574.44" y="-105" font-family="Helvetica,sans-Serif" font-size="10.00">no</text>
<polygon fill="none" stroke="blue" points="525,-78 525,-98 635,-98 635,-78 525,-78"/>
<text text-anchor="start" x="563.14" y="-85" font-family="Helvetica,sans-Serif" font-size="10.00">x11&#45;libs</text>
<polygon fill="none" stroke="blue" points="525,-58 525,-78 635,-78 635,-58 525,-58"/>
<text text-anchor="start" x="564.72" y="-65" font-family="Helvetica,sans-Serif" font-size="10.00">libXpm</text>
<polygon fill="none" stroke="blue" points="525,-38 525,-58 635,-58 635,-38 525,-38"/>
<text text-anchor="start" x="568.88" y="-45" font-family="Helvetica,sans-Serif" font-size="10.00">none</text>
<polygon fill="none" stroke="blue" points="525,-28 525,-38 635,-38 635,-28 525,-28"/>
</g>
<!-- id&#45;&gt;dependency4648 -->
<g id="edge3" class="edge">
<title>id:e&#45;&gt;dependency4648:w</title>
<path fill="none" stroke="black" d="M305,-189C367.88,-189 346.84,-94.96 393.01,-76.22"/>
<ellipse fill="none" stroke="black" cx="407.06" cy="-73.71" rx="4" ry="4"/>
<polygon fill="black" stroke="black" points="403.13,-74.41 394.08,-80.6 398.2,-75.29 393.28,-76.17 393.28,-76.17 393.28,-76.17 398.2,-75.29 392.49,-71.74 403.13,-74.41 403.13,-74.41"/>
</g>
<!-- choice1204949451081059811547108105988849494549465446534511449 -->
<g id="node5" class="node">
<title>choice1204949451081059811547108105988849494549465446534511449</title>
<g id="a_node5"><a xlink:href="../x11-libs/libX11-1.6.5-r1.svg" xlink:title="x11&#45;libs/libX11&#45;1.6.5&#45;r1">
<ellipse fill="none" stroke="red" cx="900" cy="-305" rx="144" ry="18"/>
<text text-anchor="middle" x="900" y="-302" font-family="Helvetica,sans-Serif" font-size="10.00">x11&#45;libs/libX11&#45;1.6.5&#45;r1</text>
</a>
</g>
</g>
<!-- dependency4646&#45;&gt;choice1204949451081059811547108105988849494549465446534511449 -->
<g id="edge4" class="edge">
<title>dependency4646:e&#45;&gt;choice1204949451081059811547108105988849494549465446534511449:w</title>
<path fill="none" stroke="black" stroke-dasharray="1,5" d="M649,-305C692.43,-305 705.83,-305 744.57,-305"/>
<polygon fill="black" stroke="black" points="755,-305 745,-309.5 750,-305 745,-305 745,-305 745,-305 750,-305 745,-300.5 755,-305 755,-305"/>
</g>
<!-- choice120494945108105981154710810598884949454946544654 -->
<g id="node6" class="node">
<title>choice120494945108105981154710810598884949454946544654</title>
<g id="a_node6"><a xlink:href="../x11-libs/libX11-1.6.6.svg" xlink:title="x11&#45;libs/libX11&#45;1.6.6">
<ellipse fill="none" stroke="red" cx="900" cy="-251" rx="144" ry="18"/>
<text text-anchor="middle" x="900" y="-248" font-family="Helvetica,sans-Serif" font-size="10.00">x11&#45;libs/libX11&#45;1.6.6</text>
</a>
</g>
</g>
<!-- dependency4646&#45;&gt;choice120494945108105981154710810598884949454946544654 -->
<g id="edge5" class="edge">
<title>dependency4646:e&#45;&gt;choice120494945108105981154710810598884949454946544654:w</title>
<path fill="none" stroke="black" stroke-dasharray="1,5" d="M649,-305C698.26,-305 701.85,-258.13 744.86,-251.72"/>
<polygon fill="black" stroke="black" points="755,-251 745.35,-256.2 750.01,-251.36 745.03,-251.71 745.03,-251.71 745.03,-251.71 750.01,-251.36 744.71,-247.22 755,-251 755,-251"/>
</g>
<!-- choice120494945108105981154710810598881011201164549465146514511449 -->
<g id="node7" class="node">
<title>choice120494945108105981154710810598881011201164549465146514511449</title>
<g id="a_node7"><a xlink:href="../x11-libs/libXext-1.3.3-r1.svg" xlink:title="x11&#45;libs/libXext&#45;1.3.3&#45;r1">
<ellipse fill="none" stroke="red" cx="900" cy="-189" rx="144" ry="18"/>
<text text-anchor="middle" x="900" y="-186" font-family="Helvetica,sans-Serif" font-size="10.00">x11&#45;libs/libXext&#45;1.3.3&#45;r1</text>
</a>
</g>
</g>
<!-- dependency4647&#45;&gt;choice120494945108105981154710810598881011201164549465146514511449 -->
<g id="edge6" class="edge">
<title>dependency4647:e&#45;&gt;choice120494945108105981154710810598881011201164549465146514511449:w</title>
<path fill="none" stroke="black" stroke-dasharray="1,5" d="M649,-189C692.43,-189 705.83,-189 744.57,-189"/>
<polygon fill="black" stroke="black" points="755,-189 745,-193.5 750,-189 745,-189 745,-189 745,-189 750,-189 745,-184.5 755,-189 755,-189"/>
</g>
<!-- choice12049494510810598115471081059888112109455146534649504511449 -->
<g id="node8" class="node">
<title>choice12049494510810598115471081059888112109455146534649504511449</title>
<g id="a_node8"><a xlink:href="../x11-libs/libXpm-3.5.12-r1.svg" xlink:title="x11&#45;libs/libXpm&#45;3.5.12&#45;r1">
<ellipse fill="none" stroke="red" cx="900" cy="-135" rx="144" ry="18"/>
<text text-anchor="middle" x="900" y="-132" font-family="Helvetica,sans-Serif" font-size="10.00">x11&#45;libs/libXpm&#45;3.5.12&#45;r1</text>
</a>
</g>
</g>
<!-- dependency4648&#45;&gt;choice12049494510810598115471081059888112109455146534649504511449 -->
<g id="edge7" class="edge">
<title>dependency4648:e&#45;&gt;choice12049494510810598115471081059888112109455146534649504511449:w</title>
<path fill="none" stroke="black" stroke-dasharray="1,5" d="M649,-73C699.95,-73 700.59,-127.04 744.86,-134.22"/>
<polygon fill="black" stroke="black" points="755,-135 744.68,-138.72 750.01,-134.61 745.03,-134.23 745.03,-134.23 745.03,-134.23 750.01,-134.61 745.38,-129.74 755,-135 755,-135"/>
</g>
</g>
</svg>
