<?xml version="1.0" encoding="UTF-8" standalone="no"?>
<!DOCTYPE svg PUBLIC "-//W3C//DTD SVG 1.1//EN"
 "http://www.w3.org/Graphics/SVG/1.1/DTD/svg11.dtd">
<!-- Generated by graphviz version 2.41.20171026.1811 (20171026.1811)
 -->
<!-- Title: prolog Pages: 1 -->
<svg width="1068pt" height="1066pt"
 viewBox="0.00 0.00 1068.00 1066.00" xmlns="http://www.w3.org/2000/svg" xmlns:xlink="http://www.w3.org/1999/xlink">
<g id="graph0" class="graph" transform="scale(1 1) rotate(0) translate(4 1062)">
<title>prolog</title>
<polygon fill="white" stroke="transparent" points="-4,4 -4,-1062 1064,-1062 1064,4 -4,4"/>
<g id="clust1" class="cluster">
<title>cluster_leftcol</title>
<polygon fill="none" stroke="gray" points="8,-332 8,-402 312,-402 312,-332 8,-332"/>
<text text-anchor="start" x="146.66" y="-391" font-family="Helvetica,sans-Serif" font-style="italic" font-size="10.00">ebuild</text>
</g>
<g id="clust2" class="cluster">
<title>cluster_midcol</title>
<polygon fill="none" stroke="gray" points="396,-69 396,-896 664,-896 664,-69 396,-69"/>
<text text-anchor="start" x="498.86" y="-885" font-family="Helvetica,sans-Serif" font-style="italic" font-size="10.00">dependencies</text>
</g>
<g id="clust3" class="cluster">
<title>cluster_compile</title>
<polygon fill="#eeeeee" stroke="gray" points="404,-728 404,-870 656,-870 656,-728 404,-728"/>
<text text-anchor="start" x="512.77" y="-859" font-family="Helvetica,sans-Serif" font-style="italic" font-size="10.00">compile</text>
</g>
<g id="clust8" class="cluster">
<title>cluster_run</title>
<polygon fill="#eeeeee" stroke="gray" points="404,-409 404,-541 656,-541 656,-409 404,-409"/>
<text text-anchor="start" x="522.77" y="-530" font-family="Helvetica,sans-Serif" font-style="italic" font-size="10.00">run</text>
</g>
<g id="clust5" class="cluster">
<title>cluster_compileandrun</title>
<polygon fill="#eeeeee" stroke="gray" points="404,-77 404,-325 656,-325 656,-77 404,-77"/>
<text text-anchor="start" x="494.42" y="-314" font-family="Helvetica,sans-Serif" font-style="italic" font-size="10.00">compile and run</text>
</g>
<g id="clust10" class="cluster">
<title>cluster_choices</title>
<polygon fill="none" stroke="gray" points="748,-8 748,-1050 1052,-1050 1052,-8 748,-8"/>
<text text-anchor="start" x="875.82" y="-1039" font-family="Helvetica,sans-Serif" font-style="italic" font-size="10.00">candidates</text>
</g>
<!-- id -->
<g id="node1" class="node">
<title>id</title>
<g id="a_node1"><a xlink:href="../sys-block/whdd-9999.svg" xlink:title="sys&#45;block/whdd&#45;9999">
<ellipse fill="none" stroke="red" cx="160" cy="-358" rx="144" ry="18"/>
<text text-anchor="middle" x="160" y="-355" font-family="Helvetica,sans-Serif" font-size="10.00">sys&#45;block/whdd&#45;9999</text>
</a>
</g>
</g>
<!-- dependency3079 -->
<g id="node2" class="node">
<title>dependency3079</title>
<polygon fill="none" stroke="blue" points="420,-740 420,-840 525,-840 525,-740 420,-740"/>
<text text-anchor="start" x="450.82" y="-787" font-family="Helvetica,sans-Serif" font-size="10.00">pack_dep</text>
<polygon fill="none" stroke="blue" points="525,-820 525,-840 635,-840 635,-820 525,-820"/>
<text text-anchor="start" x="574.44" y="-827" font-family="Helvetica,sans-Serif" font-size="10.00">no</text>
<polygon fill="none" stroke="blue" points="525,-800 525,-820 635,-820 635,-800 525,-800"/>
<text text-anchor="start" x="562.77" y="-807" font-family="Helvetica,sans-Serif" font-size="10.00">dev&#45;vcs</text>
<polygon fill="none" stroke="blue" points="525,-780 525,-800 635,-800 635,-780 525,-780"/>
<text text-anchor="start" x="574.72" y="-787" font-family="Helvetica,sans-Serif" font-size="10.00">git</text>
<polygon fill="none" stroke="blue" points="525,-760 525,-780 635,-780 635,-760 525,-760"/>
<text text-anchor="start" x="551.92" y="-767" font-family="Helvetica,sans-Serif" font-size="10.00">greaterequal</text>
<polygon fill="none" stroke="blue" points="525,-740 525,-760 635,-760 635,-740 525,-740"/>
<text text-anchor="start" x="564.71" y="-747" font-family="Helvetica,sans-Serif" font-size="10.00">1.8.2.1</text>
</g>
<!-- id&#45;&gt;dependency3079 -->
<g id="edge1" class="edge">
<title>id:e&#45;&gt;dependency3079:w</title>
<path fill="none" stroke="black" d="M305,-358C499.12,-358 223.6,-774.53 400.76,-789.58"/>
<polygon fill="black" stroke="black" points="411,-790 400.82,-794.09 406,-789.8 401.01,-789.59 401.01,-789.59 401.01,-789.59 406,-789.8 401.19,-785.1 411,-790 411,-790"/>
</g>
<!-- dependency3080 -->
<g id="node3" class="node">
<title>dependency3080</title>
<polygon fill="none" stroke="blue" points="420,-205 420,-295 525,-295 525,-205 420,-205"/>
<text text-anchor="start" x="450.82" y="-247" font-family="Helvetica,sans-Serif" font-size="10.00">pack_dep</text>
<polygon fill="none" stroke="blue" points="525,-275 525,-295 635,-295 635,-275 525,-275"/>
<text text-anchor="start" x="574.44" y="-282" font-family="Helvetica,sans-Serif" font-size="10.00">no</text>
<polygon fill="none" stroke="blue" points="525,-255 525,-275 635,-275 635,-255 525,-255"/>
<text text-anchor="start" x="563.88" y="-262" font-family="Helvetica,sans-Serif" font-size="10.00">dev&#45;util</text>
<polygon fill="none" stroke="blue" points="525,-235 525,-255 635,-255 635,-235 525,-235"/>
<text text-anchor="start" x="566.66" y="-242" font-family="Helvetica,sans-Serif" font-size="10.00">dialog</text>
<polygon fill="none" stroke="blue" points="525,-215 525,-235 635,-235 635,-215 525,-215"/>
<text text-anchor="start" x="568.88" y="-222" font-family="Helvetica,sans-Serif" font-size="10.00">none</text>
<polygon fill="none" stroke="blue" points="525,-205 525,-215 635,-215 635,-205 525,-205"/>
</g>
<!-- id&#45;&gt;dependency3080 -->
<g id="edge2" class="edge">
<title>id:e&#45;&gt;dependency3080:w</title>
<path fill="none" stroke="black" d="M305,-358C365.43,-358 348.55,-270.82 393.27,-253.12"/>
<ellipse fill="none" stroke="black" cx="407.06" cy="-250.69" rx="4" ry="4"/>
<polygon fill="black" stroke="black" points="403.12,-251.38 394.05,-257.55 398.2,-252.25 393.27,-253.12 393.27,-253.12 393.27,-253.12 398.2,-252.25 392.49,-248.68 403.12,-251.38 403.12,-251.38"/>
</g>
<!-- dependency3081 -->
<g id="node4" class="node">
<title>dependency3081</title>
<polygon fill="none" stroke="blue" points="420,-89 420,-179 525,-179 525,-89 420,-89"/>
<text text-anchor="start" x="450.82" y="-131" font-family="Helvetica,sans-Serif" font-size="10.00">pack_dep</text>
<polygon fill="none" stroke="blue" points="525,-159 525,-179 635,-179 635,-159 525,-159"/>
<text text-anchor="start" x="574.44" y="-166" font-family="Helvetica,sans-Serif" font-size="10.00">no</text>
<polygon fill="none" stroke="blue" points="525,-139 525,-159 635,-159 635,-139 525,-139"/>
<text text-anchor="start" x="563.33" y="-146" font-family="Helvetica,sans-Serif" font-size="10.00">sys&#45;libs</text>
<polygon fill="none" stroke="blue" points="525,-119 525,-139 635,-139 635,-119 525,-119"/>
<text text-anchor="start" x="562.49" y="-126" font-family="Helvetica,sans-Serif" font-size="10.00">ncurses</text>
<polygon fill="none" stroke="blue" points="525,-99 525,-119 635,-119 635,-99 525,-99"/>
<text text-anchor="start" x="568.88" y="-106" font-family="Helvetica,sans-Serif" font-size="10.00">none</text>
<polygon fill="none" stroke="blue" points="525,-89 525,-99 635,-99 635,-89 525,-89"/>
</g>
<!-- id&#45;&gt;dependency3081 -->
<g id="edge3" class="edge">
<title>id:e&#45;&gt;dependency3081:w</title>
<path fill="none" stroke="black" d="M305,-358C408.26,-358 314.27,-161.12 392.87,-136.52"/>
<ellipse fill="none" stroke="black" cx="407.04" cy="-134.55" rx="4" ry="4"/>
<polygon fill="black" stroke="black" points="403.08,-135.1 393.79,-140.93 398.12,-135.79 393.17,-136.47 393.17,-136.47 393.17,-136.47 398.12,-135.79 392.55,-132.02 403.08,-135.1 403.08,-135.1"/>
</g>
<!-- dependency3082 -->
<g id="node5" class="node">
<title>dependency3082</title>
<polygon fill="none" stroke="blue" points="420,-421 420,-511 525,-511 525,-421 420,-421"/>
<text text-anchor="start" x="450.82" y="-463" font-family="Helvetica,sans-Serif" font-size="10.00">pack_dep</text>
<polygon fill="none" stroke="blue" points="525,-491 525,-511 635,-511 635,-491 525,-491"/>
<text text-anchor="start" x="574.44" y="-498" font-family="Helvetica,sans-Serif" font-size="10.00">no</text>
<polygon fill="none" stroke="blue" points="525,-471 525,-491 635,-491 635,-471 525,-471"/>
<text text-anchor="start" x="559.99" y="-478" font-family="Helvetica,sans-Serif" font-size="10.00">sys&#45;apps</text>
<polygon fill="none" stroke="blue" points="525,-451 525,-471 635,-471 635,-451 525,-451"/>
<text text-anchor="start" x="547.21" y="-458" font-family="Helvetica,sans-Serif" font-size="10.00">smartmontools</text>
<polygon fill="none" stroke="blue" points="525,-431 525,-451 635,-451 635,-431 525,-431"/>
<text text-anchor="start" x="568.88" y="-438" font-family="Helvetica,sans-Serif" font-size="10.00">none</text>
<polygon fill="none" stroke="blue" points="525,-421 525,-431 635,-431 635,-421 525,-421"/>
</g>
<!-- id&#45;&gt;dependency3082 -->
<g id="edge4" class="edge">
<title>id:e&#45;&gt;dependency3082:w</title>
<path fill="none" stroke="black" d="M305,-358C369.37,-358 346.02,-456.92 402.85,-465.42"/>
<ellipse fill="none" stroke="black" cx="407.01" cy="-465.72" rx="4" ry="4"/>
</g>
<!-- choice10010111845118991154710310511645504649544652 -->
<g id="node6" class="node">
<title>choice10010111845118991154710310511645504649544652</title>
<g id="a_node6"><a xlink:href="../dev-vcs/git-2.16.4.svg" xlink:title="dev&#45;vcs/git&#45;2.16.4">
<ellipse fill="none" stroke="red" cx="900" cy="-736" rx="144" ry="18"/>
<text text-anchor="middle" x="900" y="-733" font-family="Helvetica,sans-Serif" font-size="10.00">dev&#45;vcs/git&#45;2.16.4</text>
</a>
</g>
</g>
<!-- dependency3079&#45;&gt;choice10010111845118991154710310511645504649544652 -->
<g id="edge5" class="edge">
<title>dependency3079:e&#45;&gt;choice10010111845118991154710310511645504649544652:w</title>
<path fill="none" stroke="black" stroke-dasharray="1,5" d="M649,-790C698.26,-790 701.85,-743.13 744.86,-736.72"/>
<polygon fill="black" stroke="black" points="755,-736 745.35,-741.2 750.01,-736.36 745.03,-736.71 745.03,-736.71 745.03,-736.71 750.01,-736.36 744.71,-732.22 755,-736 755,-736"/>
</g>
<!-- choice100101118451189911547103105116455046495546494511449 -->
<g id="node7" class="node">
<title>choice100101118451189911547103105116455046495546494511449</title>
<g id="a_node7"><a xlink:href="../dev-vcs/git-2.17.1-r1.svg" xlink:title="dev&#45;vcs/git&#45;2.17.1&#45;r1">
<ellipse fill="none" stroke="red" cx="900" cy="-682" rx="144" ry="18"/>
<text text-anchor="middle" x="900" y="-679" font-family="Helvetica,sans-Serif" font-size="10.00">dev&#45;vcs/git&#45;2.17.1&#45;r1</text>
</a>
</g>
</g>
<!-- dependency3079&#45;&gt;choice100101118451189911547103105116455046495546494511449 -->
<g id="edge6" class="edge">
<title>dependency3079:e&#45;&gt;choice100101118451189911547103105116455046495546494511449:w</title>
<path fill="none" stroke="black" stroke-dasharray="1,5" d="M649,-790C712.58,-790 690.58,-693.49 744.79,-682.93"/>
<polygon fill="black" stroke="black" points="755,-682 745.45,-687.39 750.02,-682.46 745.04,-682.91 745.04,-682.91 745.04,-682.91 750.02,-682.46 744.63,-678.43 755,-682 755,-682"/>
</g>
<!-- choice10010111845118991154710310511645504649564648 -->
<g id="node8" class="node">
<title>choice10010111845118991154710310511645504649564648</title>
<g id="a_node8"><a xlink:href="../dev-vcs/git-2.18.0.svg" xlink:title="dev&#45;vcs/git&#45;2.18.0">
<ellipse fill="none" stroke="red" cx="900" cy="-1006" rx="144" ry="18"/>
<text text-anchor="middle" x="900" y="-1003" font-family="Helvetica,sans-Serif" font-size="10.00">dev&#45;vcs/git&#45;2.18.0</text>
</a>
</g>
</g>
<!-- dependency3079&#45;&gt;choice10010111845118991154710310511645504649564648 -->
<g id="edge7" class="edge">
<title>dependency3079:e&#45;&gt;choice10010111845118991154710310511645504649564648:w</title>
<path fill="none" stroke="black" stroke-dasharray="1,5" d="M649,-790C752.28,-790 655.19,-991.49 744.77,-1005.26"/>
<polygon fill="black" stroke="black" points="755,-1006 744.7,-1009.77 750.01,-1005.64 745.03,-1005.28 745.03,-1005.28 745.03,-1005.28 750.01,-1005.64 745.35,-1000.79 755,-1006 755,-1006"/>
</g>
<!-- choice1001011184511899115471031051164557575757 -->
<g id="node9" class="node">
<title>choice1001011184511899115471031051164557575757</title>
<g id="a_node9"><a xlink:href="../dev-vcs/git-9999.svg" xlink:title="dev&#45;vcs/git&#45;9999">
<ellipse fill="none" stroke="red" cx="900" cy="-952" rx="144" ry="18"/>
<text text-anchor="middle" x="900" y="-949" font-family="Helvetica,sans-Serif" font-size="10.00">dev&#45;vcs/git&#45;9999</text>
</a>
</g>
</g>
<!-- dependency3079&#45;&gt;choice1001011184511899115471031051164557575757 -->
<g id="edge8" class="edge">
<title>dependency3079:e&#45;&gt;choice1001011184511899115471031051164557575757:w</title>
<path fill="none" stroke="black" stroke-dasharray="1,5" d="M649,-790C731.35,-790 674.36,-938.38 744.73,-951.13"/>
<polygon fill="black" stroke="black" points="755,-952 744.66,-955.64 750.02,-951.58 745.04,-951.15 745.04,-951.15 745.04,-951.15 750.02,-951.58 745.42,-946.67 755,-952 755,-952"/>
</g>
<!-- choice10010111845118991154710310511645575757574511449 -->
<g id="node10" class="node">
<title>choice10010111845118991154710310511645575757574511449</title>
<g id="a_node10"><a xlink:href="../dev-vcs/git-9999-r1.svg" xlink:title="dev&#45;vcs/git&#45;9999&#45;r1">
<ellipse fill="none" stroke="red" cx="900" cy="-898" rx="144" ry="18"/>
<text text-anchor="middle" x="900" y="-895" font-family="Helvetica,sans-Serif" font-size="10.00">dev&#45;vcs/git&#45;9999&#45;r1</text>
</a>
</g>
</g>
<!-- dependency3079&#45;&gt;choice10010111845118991154710310511645575757574511449 -->
<g id="edge9" class="edge">
<title>dependency3079:e&#45;&gt;choice10010111845118991154710310511645575757574511449:w</title>
<path fill="none" stroke="black" stroke-dasharray="1,5" d="M649,-790C712.58,-790 690.58,-886.51 744.79,-897.07"/>
<polygon fill="black" stroke="black" points="755,-898 744.63,-901.57 750.02,-897.54 745.04,-897.09 745.04,-897.09 745.04,-897.09 750.02,-897.54 745.45,-892.61 755,-898 755,-898"/>
</g>
<!-- choice10010111845118991154710310511645575757574511450 -->
<g id="node11" class="node">
<title>choice10010111845118991154710310511645575757574511450</title>
<g id="a_node11"><a xlink:href="../dev-vcs/git-9999-r2.svg" xlink:title="dev&#45;vcs/git&#45;9999&#45;r2">
<ellipse fill="none" stroke="red" cx="900" cy="-844" rx="144" ry="18"/>
<text text-anchor="middle" x="900" y="-841" font-family="Helvetica,sans-Serif" font-size="10.00">dev&#45;vcs/git&#45;9999&#45;r2</text>
</a>
</g>
</g>
<!-- dependency3079&#45;&gt;choice10010111845118991154710310511645575757574511450 -->
<g id="edge10" class="edge">
<title>dependency3079:e&#45;&gt;choice10010111845118991154710310511645575757574511450:w</title>
<path fill="none" stroke="black" stroke-dasharray="1,5" d="M649,-790C698.26,-790 701.85,-836.87 744.86,-843.28"/>
<polygon fill="black" stroke="black" points="755,-844 744.71,-847.78 750.01,-843.64 745.03,-843.29 745.03,-843.29 745.03,-843.29 750.01,-843.64 745.35,-838.8 755,-844 755,-844"/>
</g>
<!-- choice10010111845118991154710310511645575757574511451 -->
<g id="node12" class="node">
<title>choice10010111845118991154710310511645575757574511451</title>
<g id="a_node12"><a xlink:href="../dev-vcs/git-9999-r3.svg" xlink:title="dev&#45;vcs/git&#45;9999&#45;r3">
<ellipse fill="none" stroke="red" cx="900" cy="-790" rx="144" ry="18"/>
<text text-anchor="middle" x="900" y="-787" font-family="Helvetica,sans-Serif" font-size="10.00">dev&#45;vcs/git&#45;9999&#45;r3</text>
</a>
</g>
</g>
<!-- dependency3079&#45;&gt;choice10010111845118991154710310511645575757574511451 -->
<g id="edge11" class="edge">
<title>dependency3079:e&#45;&gt;choice10010111845118991154710310511645575757574511451:w</title>
<path fill="none" stroke="black" stroke-dasharray="1,5" d="M649,-790C692.43,-790 705.83,-790 744.57,-790"/>
<polygon fill="black" stroke="black" points="755,-790 745,-794.5 750,-790 745,-790 745,-790 745,-790 750,-790 745,-785.5 755,-790 755,-790"/>
</g>
<!-- choice10010111845117116105108471001059710811110345494651465048495548495149 -->
<g id="node13" class="node">
<title>choice10010111845117116105108471001059710811110345494651465048495548495149</title>
<g id="a_node13"><a xlink:href="../dev-util/dialog-1.3.20170131.svg" xlink:title="dev&#45;util/dialog&#45;1.3.20170131">
<ellipse fill="none" stroke="red" cx="900" cy="-250" rx="144" ry="18"/>
<text text-anchor="middle" x="900" y="-247" font-family="Helvetica,sans-Serif" font-size="10.00">dev&#45;util/dialog&#45;1.3.20170131</text>
</a>
</g>
</g>
<!-- dependency3080&#45;&gt;choice10010111845117116105108471001059710811110345494651465048495548495149 -->
<g id="edge12" class="edge">
<title>dependency3080:e&#45;&gt;choice10010111845117116105108471001059710811110345494651465048495548495149:w</title>
<path fill="none" stroke="black" stroke-dasharray="1,5" d="M649,-250C692.43,-250 705.83,-250 744.57,-250"/>
<polygon fill="black" stroke="black" points="755,-250 745,-254.5 750,-250 745,-250 745,-250 745,-250 750,-250 745,-245.5 755,-250 755,-250"/>
</g>
<!-- choice10010111845117116105108471001059710811110345494651465048495549504857 -->
<g id="node14" class="node">
<title>choice10010111845117116105108471001059710811110345494651465048495549504857</title>
<g id="a_node14"><a xlink:href="../dev-util/dialog-1.3.20171209.svg" xlink:title="dev&#45;util/dialog&#45;1.3.20171209">
<ellipse fill="none" stroke="red" cx="900" cy="-196" rx="144" ry="18"/>
<text text-anchor="middle" x="900" y="-193" font-family="Helvetica,sans-Serif" font-size="10.00">dev&#45;util/dialog&#45;1.3.20171209</text>
</a>
</g>
</g>
<!-- dependency3080&#45;&gt;choice10010111845117116105108471001059710811110345494651465048495549504857 -->
<g id="edge13" class="edge">
<title>dependency3080:e&#45;&gt;choice10010111845117116105108471001059710811110345494651465048495549504857:w</title>
<path fill="none" stroke="black" stroke-dasharray="1,5" d="M649,-250C698.26,-250 701.85,-203.13 744.86,-196.72"/>
<polygon fill="black" stroke="black" points="755,-196 745.35,-201.2 750.01,-196.36 745.03,-196.71 745.03,-196.71 745.03,-196.71 750.01,-196.36 744.71,-192.22 755,-196 755,-196"/>
</g>
<!-- choice10010111845117116105108471001059710811110345494651465048495648545049 -->
<g id="node15" class="node">
<title>choice10010111845117116105108471001059710811110345494651465048495648545049</title>
<g id="a_node15"><a xlink:href="../dev-util/dialog-1.3.20180621.svg" xlink:title="dev&#45;util/dialog&#45;1.3.20180621">
<ellipse fill="none" stroke="red" cx="900" cy="-304" rx="144" ry="18"/>
<text text-anchor="middle" x="900" y="-301" font-family="Helvetica,sans-Serif" font-size="10.00">dev&#45;util/dialog&#45;1.3.20180621</text>
</a>
</g>
</g>
<!-- dependency3080&#45;&gt;choice10010111845117116105108471001059710811110345494651465048495648545049 -->
<g id="edge14" class="edge">
<title>dependency3080:e&#45;&gt;choice10010111845117116105108471001059710811110345494651465048495648545049:w</title>
<path fill="none" stroke="black" stroke-dasharray="1,5" d="M649,-250C698.26,-250 701.85,-296.87 744.86,-303.28"/>
<polygon fill="black" stroke="black" points="755,-304 744.71,-307.78 750.01,-303.64 745.03,-303.29 745.03,-303.29 745.03,-303.29 750.01,-303.64 745.35,-298.8 755,-304 755,-304"/>
</g>
<!-- choice115121115451081059811547110991171141151011154553465745114494849 -->
<g id="node16" class="node">
<title>choice115121115451081059811547110991171141151011154553465745114494849</title>
<g id="a_node16"><a xlink:href="../sys-libs/ncurses-5.9-r101.svg" xlink:title="sys&#45;libs/ncurses&#45;5.9&#45;r101">
<ellipse fill="none" stroke="red" cx="900" cy="-88" rx="144" ry="18"/>
<text text-anchor="middle" x="900" y="-85" font-family="Helvetica,sans-Serif" font-size="10.00">sys&#45;libs/ncurses&#45;5.9&#45;r101</text>
</a>
</g>
</g>
<!-- dependency3081&#45;&gt;choice115121115451081059811547110991171141151011154553465745114494849 -->
<g id="edge15" class="edge">
<title>dependency3081:e&#45;&gt;choice115121115451081059811547110991171141151011154553465745114494849:w</title>
<path fill="none" stroke="black" stroke-dasharray="1,5" d="M649,-134C696.74,-134 702.94,-94.24 744.85,-88.65"/>
<polygon fill="black" stroke="black" points="755,-88 745.31,-93.13 750.01,-88.32 745.02,-88.64 745.02,-88.64 745.02,-88.64 750.01,-88.32 744.73,-84.15 755,-88 755,-88"/>
</g>
<!-- choice11512111545108105981154711099117114115101115455446494511450 -->
<g id="node17" class="node">
<title>choice11512111545108105981154711099117114115101115455446494511450</title>
<g id="a_node17"><a xlink:href="../sys-libs/ncurses-6.1-r2.svg" xlink:title="sys&#45;libs/ncurses&#45;6.1&#45;r2">
<ellipse fill="none" stroke="red" cx="900" cy="-34" rx="144" ry="18"/>
<text text-anchor="middle" x="900" y="-31" font-family="Helvetica,sans-Serif" font-size="10.00">sys&#45;libs/ncurses&#45;6.1&#45;r2</text>
</a>
</g>
</g>
<!-- dependency3081&#45;&gt;choice11512111545108105981154711099117114115101115455446494511450 -->
<g id="edge16" class="edge">
<title>dependency3081:e&#45;&gt;choice11512111545108105981154711099117114115101115455446494511450:w</title>
<path fill="none" stroke="black" stroke-dasharray="1,5" d="M649,-134C710.1,-134 692.62,-45.01 744.81,-34.93"/>
<polygon fill="black" stroke="black" points="755,-34 745.45,-39.39 750.02,-34.45 745.04,-34.91 745.04,-34.91 745.04,-34.91 750.02,-34.45 744.63,-30.42 755,-34 755,-34"/>
</g>
<!-- choice11512111545108105981154711099117114115101115455446494511451 -->
<g id="node18" class="node">
<title>choice11512111545108105981154711099117114115101115455446494511451</title>
<g id="a_node18"><a xlink:href="../sys-libs/ncurses-6.1-r3.svg" xlink:title="sys&#45;libs/ncurses&#45;6.1&#45;r3">
<ellipse fill="none" stroke="red" cx="900" cy="-142" rx="144" ry="18"/>
<text text-anchor="middle" x="900" y="-139" font-family="Helvetica,sans-Serif" font-size="10.00">sys&#45;libs/ncurses&#45;6.1&#45;r3</text>
</a>
</g>
</g>
<!-- dependency3081&#45;&gt;choice11512111545108105981154711099117114115101115455446494511451 -->
<g id="edge17" class="edge">
<title>dependency3081:e&#45;&gt;choice11512111545108105981154711099117114115101115455446494511451:w</title>
<path fill="none" stroke="black" stroke-dasharray="1,5" d="M649,-134C692.55,-134 705.74,-140.8 744.55,-141.86"/>
<polygon fill="black" stroke="black" points="755,-142 744.94,-146.37 750,-141.93 745,-141.87 745,-141.87 745,-141.87 750,-141.93 745.06,-137.37 755,-142 755,-142"/>
</g>
<!-- choice1151211154597112112115471151099711411610911111011611111110811545544652 -->
<g id="node19" class="node">
<title>choice1151211154597112112115471151099711411610911111011611111110811545544652</title>
<g id="a_node19"><a xlink:href="../sys-apps/smartmontools-6.4.svg" xlink:title="sys&#45;apps/smartmontools&#45;6.4">
<ellipse fill="none" stroke="red" cx="900" cy="-574" rx="144" ry="18"/>
<text text-anchor="middle" x="900" y="-571" font-family="Helvetica,sans-Serif" font-size="10.00">sys&#45;apps/smartmontools&#45;6.4</text>
</a>
</g>
</g>
<!-- dependency3082&#45;&gt;choice1151211154597112112115471151099711411610911111011611111110811545544652 -->
<g id="edge18" class="edge">
<title>dependency3082:e&#45;&gt;choice1151211154597112112115471151099711411610911111011611111110811545544652:w</title>
<path fill="none" stroke="black" stroke-dasharray="1,5" d="M649,-466C712.58,-466 690.58,-562.51 744.79,-573.07"/>
<polygon fill="black" stroke="black" points="755,-574 744.63,-577.57 750.02,-573.54 745.04,-573.09 745.04,-573.09 745.04,-573.09 750.02,-573.54 745.45,-568.61 755,-574 755,-574"/>
</g>
<!-- choice11512111545971121121154711510997114116109111110116111111108115455446524511449 -->
<g id="node20" class="node">
<title>choice11512111545971121121154711510997114116109111110116111111108115455446524511449</title>
<g id="a_node20"><a xlink:href="../sys-apps/smartmontools-6.4-r1.svg" xlink:title="sys&#45;apps/smartmontools&#45;6.4&#45;r1">
<ellipse fill="none" stroke="red" cx="900" cy="-520" rx="144" ry="18"/>
<text text-anchor="middle" x="900" y="-517" font-family="Helvetica,sans-Serif" font-size="10.00">sys&#45;apps/smartmontools&#45;6.4&#45;r1</text>
</a>
</g>
</g>
<!-- dependency3082&#45;&gt;choice11512111545971121121154711510997114116109111110116111111108115455446524511449 -->
<g id="edge19" class="edge">
<title>dependency3082:e&#45;&gt;choice11512111545971121121154711510997114116109111110116111111108115455446524511449:w</title>
<path fill="none" stroke="black" stroke-dasharray="1,5" d="M649,-466C698.26,-466 701.85,-512.87 744.86,-519.28"/>
<polygon fill="black" stroke="black" points="755,-520 744.71,-523.78 750.01,-519.64 745.03,-519.29 745.03,-519.29 745.03,-519.29 750.01,-519.64 745.35,-514.8 755,-520 755,-520"/>
</g>
<!-- choice11512111545971121121154711510997114116109111110116111111108115455446534511449 -->
<g id="node21" class="node">
<title>choice11512111545971121121154711510997114116109111110116111111108115455446534511449</title>
<g id="a_node21"><a xlink:href="../sys-apps/smartmontools-6.5-r1.svg" xlink:title="sys&#45;apps/smartmontools&#45;6.5&#45;r1">
<ellipse fill="none" stroke="red" cx="900" cy="-466" rx="144" ry="18"/>
<text text-anchor="middle" x="900" y="-463" font-family="Helvetica,sans-Serif" font-size="10.00">sys&#45;apps/smartmontools&#45;6.5&#45;r1</text>
</a>
</g>
</g>
<!-- dependency3082&#45;&gt;choice11512111545971121121154711510997114116109111110116111111108115455446534511449 -->
<g id="edge20" class="edge">
<title>dependency3082:e&#45;&gt;choice11512111545971121121154711510997114116109111110116111111108115455446534511449:w</title>
<path fill="none" stroke="black" stroke-dasharray="1,5" d="M649,-466C692.43,-466 705.83,-466 744.57,-466"/>
<polygon fill="black" stroke="black" points="755,-466 745,-470.5 750,-466 745,-466 745,-466 745,-466 750,-466 745,-461.5 755,-466 755,-466"/>
</g>
<!-- choice1151211154597112112115471151099711411610911111011611111110811545544654 -->
<g id="node22" class="node">
<title>choice1151211154597112112115471151099711411610911111011611111110811545544654</title>
<g id="a_node22"><a xlink:href="../sys-apps/smartmontools-6.6.svg" xlink:title="sys&#45;apps/smartmontools&#45;6.6">
<ellipse fill="none" stroke="red" cx="900" cy="-412" rx="144" ry="18"/>
<text text-anchor="middle" x="900" y="-409" font-family="Helvetica,sans-Serif" font-size="10.00">sys&#45;apps/smartmontools&#45;6.6</text>
</a>
</g>
</g>
<!-- dependency3082&#45;&gt;choice1151211154597112112115471151099711411610911111011611111110811545544654 -->
<g id="edge21" class="edge">
<title>dependency3082:e&#45;&gt;choice1151211154597112112115471151099711411610911111011611111110811545544654:w</title>
<path fill="none" stroke="black" stroke-dasharray="1,5" d="M649,-466C698.26,-466 701.85,-419.13 744.86,-412.72"/>
<polygon fill="black" stroke="black" points="755,-412 745.35,-417.2 750.01,-412.36 745.03,-412.71 745.03,-412.71 745.03,-412.71 750.01,-412.36 744.71,-408.22 755,-412 755,-412"/>
</g>
<!-- choice11512111545971121121154711510997114116109111110116111111108115455446544511449 -->
<g id="node23" class="node">
<title>choice11512111545971121121154711510997114116109111110116111111108115455446544511449</title>
<g id="a_node23"><a xlink:href="../sys-apps/smartmontools-6.6-r1.svg" xlink:title="sys&#45;apps/smartmontools&#45;6.6&#45;r1">
<ellipse fill="none" stroke="red" cx="900" cy="-358" rx="144" ry="18"/>
<text text-anchor="middle" x="900" y="-355" font-family="Helvetica,sans-Serif" font-size="10.00">sys&#45;apps/smartmontools&#45;6.6&#45;r1</text>
</a>
</g>
</g>
<!-- dependency3082&#45;&gt;choice11512111545971121121154711510997114116109111110116111111108115455446544511449 -->
<g id="edge22" class="edge">
<title>dependency3082:e&#45;&gt;choice11512111545971121121154711510997114116109111110116111111108115455446544511449:w</title>
<path fill="none" stroke="black" stroke-dasharray="1,5" d="M649,-466C712.58,-466 690.58,-369.49 744.79,-358.93"/>
<polygon fill="black" stroke="black" points="755,-358 745.45,-363.39 750.02,-358.46 745.04,-358.91 745.04,-358.91 745.04,-358.91 750.02,-358.46 744.63,-354.43 755,-358 755,-358"/>
</g>
<!-- choice115121115459711211211547115109971141161091111101161111111081154557575757 -->
<g id="node24" class="node">
<title>choice115121115459711211211547115109971141161091111101161111111081154557575757</title>
<g id="a_node24"><a xlink:href="../sys-apps/smartmontools-9999.svg" xlink:title="sys&#45;apps/smartmontools&#45;9999">
<ellipse fill="none" stroke="red" cx="900" cy="-628" rx="144" ry="18"/>
<text text-anchor="middle" x="900" y="-625" font-family="Helvetica,sans-Serif" font-size="10.00">sys&#45;apps/smartmontools&#45;9999</text>
</a>
</g>
</g>
<!-- dependency3082&#45;&gt;choice115121115459711211211547115109971141161091111101161111111081154557575757 -->
<g id="edge23" class="edge">
<title>dependency3082:e&#45;&gt;choice115121115459711211211547115109971141161091111101161111111081154557575757:w</title>
<path fill="none" stroke="black" stroke-dasharray="1,5" d="M649,-466C731.35,-466 674.36,-614.38 744.73,-627.13"/>
<polygon fill="black" stroke="black" points="755,-628 744.66,-631.64 750.02,-627.58 745.04,-627.15 745.04,-627.15 745.04,-627.15 750.02,-627.58 745.42,-622.67 755,-628 755,-628"/>
</g>
</g>
</svg>
