<?xml version="1.0" encoding="UTF-8" standalone="no"?>
<!DOCTYPE svg PUBLIC "-//W3C//DTD SVG 1.1//EN"
 "http://www.w3.org/Graphics/SVG/1.1/DTD/svg11.dtd">
<!-- Generated by graphviz version 2.39.20160721.2101 (20160721.2101)
 -->
<!-- Title: prolog Pages: 1 -->
<svg width="1326pt" height="852pt"
 viewBox="0.00 0.00 1326.00 852.00" xmlns="http://www.w3.org/2000/svg" xmlns:xlink="http://www.w3.org/1999/xlink">
<g id="graph0" class="graph" transform="scale(1 1) rotate(0) translate(4 848)">
<title>prolog</title>
<polygon fill="white" stroke="transparent" points="-4,4 -4,-848 1322,-848 1322,4 -4,4"/>
<g id="clust1" class="cluster">
<title>cluster_leftcol</title>
<polygon fill="none" stroke="gray" points="8,-278 8,-350 312,-350 312,-278 8,-278"/>
<text text-anchor="start" x="146.663" y="-338" font-family="Helvetica,sans-Serif" font-style="italic" font-size="10.00">ebuild</text>
</g>
<g id="clust2" class="cluster">
<title>cluster_midcol</title>
<polygon fill="none" stroke="gray" points="396,-111 396,-753 922,-753 922,-111 396,-111"/>
<text text-anchor="start" x="627.875" y="-741" font-family="Helvetica,sans-Serif" font-style="italic" font-size="10.00">dependencies</text>
</g>
<g id="clust3" class="cluster">
<title>cluster_compile</title>
<polygon fill="#eeeeee" stroke="gray" points="662,-459 662,-725 914,-725 914,-459 662,-459"/>
<text text-anchor="start" x="770.778" y="-713" font-family="Helvetica,sans-Serif" font-style="italic" font-size="10.00">compile</text>
</g>
<g id="clust6" class="cluster">
<title>cluster_compileandrun</title>
<polygon fill="#eeeeee" stroke="gray" points="404,-119 404,-385 914,-385 914,-119 404,-119"/>
<text text-anchor="start" x="623.437" y="-373" font-family="Helvetica,sans-Serif" font-style="italic" font-size="10.00">compile and run</text>
</g>
<g id="clust12" class="cluster">
<title>cluster_choices</title>
<polygon fill="none" stroke="gray" points="1006,-8 1006,-836 1310,-836 1310,-8 1006,-8"/>
<text text-anchor="start" x="1133.82" y="-824" font-family="Helvetica,sans-Serif" font-style="italic" font-size="10.00">candidates</text>
</g>
<!-- id -->
<g id="node1" class="node">
<title>id</title>
<g id="a_node1"><a xlink:href="../net-irc/shadowircd-6.3.3-r1.svg" xlink:title="net&#45;irc/shadowircd&#45;6.3.3&#45;r1">
<ellipse fill="none" stroke="red" cx="160" cy="-304" rx="144" ry="18"/>
<text text-anchor="middle" x="160" y="-301" font-family="Helvetica,sans-Serif" font-size="10.00">net&#45;irc/shadowircd&#45;6.3.3&#45;r1</text>
</a>
</g>
</g>
<!-- dependency345 -->
<g id="node2" class="node">
<title>dependency345</title>
<polygon fill="none" stroke="blue" points="678,-595 678,-693 783,-693 783,-595 678,-595"/>
<text text-anchor="start" x="708.823" y="-641" font-family="Helvetica,sans-Serif" font-size="10.00">pack_dep</text>
<polygon fill="none" stroke="blue" points="783,-671 783,-693 893,-693 893,-671 783,-671"/>
<text text-anchor="start" x="832.441" y="-679" font-family="Helvetica,sans-Serif" font-size="10.00">no</text>
<polygon fill="none" stroke="blue" points="783,-649 783,-671 893,-671 893,-649 783,-649"/>
<text text-anchor="start" x="816.888" y="-657" font-family="Helvetica,sans-Serif" font-size="10.00">sys&#45;devel</text>
<polygon fill="none" stroke="blue" points="783,-627 783,-649 893,-649 893,-627 783,-627"/>
<text text-anchor="start" x="830.221" y="-635" font-family="Helvetica,sans-Serif" font-size="10.00">flex</text>
<polygon fill="none" stroke="blue" points="783,-605 783,-627 893,-627 893,-605 783,-605"/>
<text text-anchor="start" x="826.882" y="-613" font-family="Helvetica,sans-Serif" font-size="10.00">none</text>
<polygon fill="none" stroke="blue" points="783,-595 783,-605 893,-605 893,-595 783,-595"/>
</g>
<!-- id&#45;&gt;dependency345 -->
<g id="edge1" class="edge">
<title>id:e&#45;&gt;dependency345:w</title>
<path fill="none" stroke="black" d="M487,-582C564.295,-610.416 582.662,-641.349 659.774,-643.839"/>
<polygon fill="black" stroke="black" points="670,-644 659.93,-648.342 665.001,-643.921 660.001,-643.843 660.001,-643.843 660.001,-643.843 665.001,-643.921 660.072,-639.343 670,-644 670,-644"/>
</g>
<!-- dependency346 -->
<g id="node3" class="node">
<title>dependency346</title>
<polygon fill="none" stroke="blue" points="678,-471 678,-569 783,-569 783,-471 678,-471"/>
<text text-anchor="start" x="708.823" y="-517" font-family="Helvetica,sans-Serif" font-size="10.00">pack_dep</text>
<polygon fill="none" stroke="blue" points="783,-547 783,-569 893,-569 893,-547 783,-547"/>
<text text-anchor="start" x="832.441" y="-555" font-family="Helvetica,sans-Serif" font-size="10.00">no</text>
<polygon fill="none" stroke="blue" points="783,-525 783,-547 893,-547 893,-525 783,-525"/>
<text text-anchor="start" x="824.668" y="-533" font-family="Helvetica,sans-Serif" font-size="10.00">virtual</text>
<polygon fill="none" stroke="blue" points="783,-503 783,-525 893,-525 893,-503 783,-503"/>
<text text-anchor="start" x="827.721" y="-511" font-family="Helvetica,sans-Serif" font-size="10.00">yacc</text>
<polygon fill="none" stroke="blue" points="783,-481 783,-503 893,-503 893,-481 783,-481"/>
<text text-anchor="start" x="826.882" y="-489" font-family="Helvetica,sans-Serif" font-size="10.00">none</text>
<polygon fill="none" stroke="blue" points="783,-471 783,-481 893,-481 893,-471 783,-471"/>
</g>
<!-- id&#45;&gt;dependency346 -->
<g id="edge2" class="edge">
<title>id:e&#45;&gt;dependency346:w</title>
<path fill="none" stroke="black" d="M487,-582C564.295,-610.416 582.662,-527.313 659.774,-520.448"/>
<polygon fill="black" stroke="black" points="670,-520 660.206,-524.933 665.005,-520.219 660.01,-520.438 660.01,-520.438 660.01,-520.438 665.005,-520.219 659.813,-515.942 670,-520 670,-520"/>
<path fill="none" stroke="black" d="M304,-304C451.923,-304 348.162,-530.959 487,-582"/>
</g>
<!-- dependency347 -->
<g id="node4" class="node">
<title>dependency347</title>
<polygon fill="none" stroke="red" points="420,-282 420,-326 511,-326 511,-282 420,-282"/>
<text text-anchor="start" x="430.767" y="-301" font-family="Helvetica,sans-Serif" font-size="10.00">use_conditional</text>
<polygon fill="none" stroke="red" points="511,-304 511,-326 554,-326 554,-304 511,-304"/>
<text text-anchor="start" x="515.553" y="-312" font-family="Helvetica,sans-Serif" font-size="10.00">positive</text>
<polygon fill="none" stroke="red" points="511,-282 511,-304 554,-304 554,-282 511,-282"/>
<text text-anchor="start" x="526.39" y="-290" font-family="Helvetica,sans-Serif" font-size="10.00">ssl</text>
</g>
<!-- id&#45;&gt;dependency347 -->
<g id="edge4" class="edge">
<title>id:e&#45;&gt;dependency347:w</title>
<path fill="none" stroke="black" d="M304,-304C345.25,-304 359.913,-304 393.686,-304"/>
<ellipse fill="none" stroke="black" cx="408" cy="-304" rx="4" ry="4"/>
<polygon fill="black" stroke="black" points="404,-304 394,-308.5 399,-304 394,-304 394,-304 394,-304 399,-304 394,-299.5 404,-304 404,-304"/>
</g>
<!-- dependency349 -->
<g id="node6" class="node">
<title>dependency349</title>
<polygon fill="none" stroke="red" points="420,-185 420,-229 511,-229 511,-185 420,-185"/>
<text text-anchor="start" x="430.767" y="-204" font-family="Helvetica,sans-Serif" font-size="10.00">use_conditional</text>
<polygon fill="none" stroke="red" points="511,-207 511,-229 554,-229 554,-207 511,-207"/>
<text text-anchor="start" x="515.553" y="-215" font-family="Helvetica,sans-Serif" font-size="10.00">positive</text>
<polygon fill="none" stroke="red" points="511,-185 511,-207 554,-207 554,-185 511,-185"/>
<text text-anchor="start" x="525.001" y="-193" font-family="Helvetica,sans-Serif" font-size="10.00">zlib</text>
</g>
<!-- id&#45;&gt;dependency349 -->
<g id="edge6" class="edge">
<title>id:e&#45;&gt;dependency349:w</title>
<path fill="none" stroke="black" d="M304,-304C361.713,-304 350.968,-226.382 394.24,-210.009"/>
<ellipse fill="none" stroke="black" cx="408.056" cy="-207.668" rx="4" ry="4"/>
<polygon fill="black" stroke="black" points="404.112,-208.337 395.005,-214.444 399.183,-209.172 394.253,-210.007 394.253,-210.007 394.253,-210.007 399.183,-209.172 393.501,-205.571 404.112,-208.337 404.112,-208.337"/>
</g>
<!-- choice1151211154510010111810110847102108101120455046544649 -->
<g id="node8" class="node">
<title>choice1151211154510010111810110847102108101120455046544649</title>
<g id="a_node8"><a xlink:href="../sys-devel/flex-2.6.1.svg" xlink:title="sys&#45;devel/flex&#45;2.6.1">
<ellipse fill="none" stroke="red" cx="1158" cy="-790" rx="144" ry="18"/>
<text text-anchor="middle" x="1158" y="-787" font-family="Helvetica,sans-Serif" font-size="10.00">sys&#45;devel/flex&#45;2.6.1</text>
</a>
</g>
</g>
<!-- dependency345&#45;&gt;choice1151211154510010111810110847102108101120455046544649 -->
<g id="edge7" class="edge">
<title>dependency345:e&#45;&gt;choice1151211154510010111810110847102108101120455046544649:w</title>
<path fill="none" stroke="black" stroke-dasharray="1,5" d="M906,-644C983.087,-644 937.816,-777.177 1003.91,-789.143"/>
<polygon fill="black" stroke="black" points="1014,-790 1003.65,-793.637 1009.02,-789.577 1004.04,-789.153 1004.04,-789.153 1004.04,-789.153 1009.02,-789.577 1004.42,-784.669 1014,-790 1014,-790"/>
</g>
<!-- choice1151211154510010111810110847102108101120455046544651 -->
<g id="node9" class="node">
<title>choice1151211154510010111810110847102108101120455046544651</title>
<g id="a_node9"><a xlink:href="../sys-devel/flex-2.6.3.svg" xlink:title="sys&#45;devel/flex&#45;2.6.3">
<ellipse fill="none" stroke="red" cx="1158" cy="-736" rx="144" ry="18"/>
<text text-anchor="middle" x="1158" y="-733" font-family="Helvetica,sans-Serif" font-size="10.00">sys&#45;devel/flex&#45;2.6.3</text>
</a>
</g>
</g>
<!-- dependency345&#45;&gt;choice1151211154510010111810110847102108101120455046544651 -->
<g id="edge8" class="edge">
<title>dependency345:e&#45;&gt;choice1151211154510010111810110847102108101120455046544651:w</title>
<path fill="none" stroke="black" stroke-dasharray="1,5" d="M906,-644C965.36,-644 952.789,-725.535 1003.72,-735.089"/>
<polygon fill="black" stroke="black" points="1014,-736 1003.64,-739.6 1009.02,-735.559 1004.04,-735.118 1004.04,-735.118 1004.04,-735.118 1009.02,-735.559 1004.44,-730.635 1014,-736 1014,-736"/>
</g>
<!-- choice11512111545100101118101108471021081011204550465446514511449 -->
<g id="node10" class="node">
<title>choice11512111545100101118101108471021081011204550465446514511449</title>
<g id="a_node10"><a xlink:href="../sys-devel/flex-2.6.3-r1.svg" xlink:title="sys&#45;devel/flex&#45;2.6.3&#45;r1">
<ellipse fill="none" stroke="red" cx="1158" cy="-682" rx="144" ry="18"/>
<text text-anchor="middle" x="1158" y="-679" font-family="Helvetica,sans-Serif" font-size="10.00">sys&#45;devel/flex&#45;2.6.3&#45;r1</text>
</a>
</g>
</g>
<!-- dependency345&#45;&gt;choice11512111545100101118101108471021081011204550465446514511449 -->
<g id="edge9" class="edge">
<title>dependency345:e&#45;&gt;choice11512111545100101118101108471021081011204550465446514511449:w</title>
<path fill="none" stroke="black" stroke-dasharray="1,5" d="M906,-644C953.307,-644 962.018,-676.844 1003.9,-681.463"/>
<polygon fill="black" stroke="black" points="1014,-682 1003.78,-685.963 1009.01,-681.734 1004.01,-681.469 1004.01,-681.469 1004.01,-681.469 1009.01,-681.734 1004.25,-676.975 1014,-682 1014,-682"/>
</g>
<!-- choice1151211154510010111810110847102108101120455046544652 -->
<g id="node11" class="node">
<title>choice1151211154510010111810110847102108101120455046544652</title>
<g id="a_node11"><a xlink:href="../sys-devel/flex-2.6.4.svg" xlink:title="sys&#45;devel/flex&#45;2.6.4">
<ellipse fill="none" stroke="red" cx="1158" cy="-628" rx="144" ry="18"/>
<text text-anchor="middle" x="1158" y="-625" font-family="Helvetica,sans-Serif" font-size="10.00">sys&#45;devel/flex&#45;2.6.4</text>
</a>
</g>
</g>
<!-- dependency345&#45;&gt;choice1151211154510010111810110847102108101120455046544652 -->
<g id="edge10" class="edge">
<title>dependency345:e&#45;&gt;choice1151211154510010111810110847102108101120455046544652:w</title>
<path fill="none" stroke="black" stroke-dasharray="1,5" d="M906,-644C950.923,-644 963.643,-630.287 1003.79,-628.251"/>
<polygon fill="black" stroke="black" points="1014,-628 1004.11,-632.745 1009,-628.123 1004,-628.246 1004,-628.246 1004,-628.246 1009,-628.123 1003.89,-623.747 1014,-628 1014,-628"/>
</g>
<!-- choice11512111545100101118101108471021081011204550465446524511449 -->
<g id="node12" class="node">
<title>choice11512111545100101118101108471021081011204550465446524511449</title>
<g id="a_node12"><a xlink:href="../sys-devel/flex-2.6.4-r1.svg" xlink:title="sys&#45;devel/flex&#45;2.6.4&#45;r1">
<ellipse fill="none" stroke="red" cx="1158" cy="-574" rx="144" ry="18"/>
<text text-anchor="middle" x="1158" y="-571" font-family="Helvetica,sans-Serif" font-size="10.00">sys&#45;devel/flex&#45;2.6.4&#45;r1</text>
</a>
</g>
</g>
<!-- dependency345&#45;&gt;choice11512111545100101118101108471021081011204550465446524511449 -->
<g id="edge11" class="edge">
<title>dependency345:e&#45;&gt;choice11512111545100101118101108471021081011204550465446524511449:w</title>
<path fill="none" stroke="black" stroke-dasharray="1,5" d="M906,-644C959.626,-644 957.351,-582.477 1003.99,-574.786"/>
<polygon fill="black" stroke="black" points="1014,-574 1004.38,-579.269 1009.02,-574.391 1004.03,-574.783 1004.03,-574.783 1004.03,-574.783 1009.02,-574.391 1003.68,-570.297 1014,-574 1014,-574"/>
</g>
<!-- choice11810511411611797108471219799994548 -->
<g id="node13" class="node">
<title>choice11810511411611797108471219799994548</title>
<g id="a_node13"><a xlink:href="../virtual/yacc-0.svg" xlink:title="virtual/yacc&#45;0">
<ellipse fill="none" stroke="red" cx="1158" cy="-520" rx="144" ry="18"/>
<text text-anchor="middle" x="1158" y="-517" font-family="Helvetica,sans-Serif" font-size="10.00">virtual/yacc&#45;0</text>
</a>
</g>
</g>
<!-- dependency346&#45;&gt;choice11810511411611797108471219799994548 -->
<g id="edge12" class="edge">
<title>dependency346:e&#45;&gt;choice11810511411611797108471219799994548:w</title>
<path fill="none" stroke="black" stroke-dasharray="1,5" d="M906,-520C950.438,-520 964.02,-520 1003.88,-520"/>
<polygon fill="black" stroke="black" points="1014,-520 1004,-524.5 1009,-520 1004,-520 1004,-520 1004,-520 1009,-520 1004,-515.5 1014,-520 1014,-520"/>
</g>
<!-- dependency348 -->
<g id="node5" class="node">
<title>dependency348</title>
<polygon fill="none" stroke="blue" points="678,-255 678,-353 783,-353 783,-255 678,-255"/>
<text text-anchor="start" x="708.823" y="-301" font-family="Helvetica,sans-Serif" font-size="10.00">pack_dep</text>
<polygon fill="none" stroke="blue" points="783,-331 783,-353 893,-353 893,-331 783,-331"/>
<text text-anchor="start" x="832.441" y="-339" font-family="Helvetica,sans-Serif" font-size="10.00">no</text>
<polygon fill="none" stroke="blue" points="783,-309 783,-331 893,-331 893,-309 783,-309"/>
<text text-anchor="start" x="820.778" y="-317" font-family="Helvetica,sans-Serif" font-size="10.00">dev&#45;libs</text>
<polygon fill="none" stroke="blue" points="783,-287 783,-309 893,-309 893,-287 783,-287"/>
<text text-anchor="start" x="820.773" y="-295" font-family="Helvetica,sans-Serif" font-size="10.00">openssl</text>
<polygon fill="none" stroke="blue" points="783,-265 783,-287 893,-287 893,-265 783,-265"/>
<text text-anchor="start" x="826.882" y="-273" font-family="Helvetica,sans-Serif" font-size="10.00">none</text>
<polygon fill="none" stroke="blue" points="783,-255 783,-265 893,-265 893,-255 783,-255"/>
</g>
<!-- dependency347&#45;&gt;dependency348 -->
<g id="edge3" class="edge">
<title>dependency347:e&#45;&gt;dependency348:w</title>
<path fill="none" stroke="black" stroke-dasharray="5,2" d="M562,-304C606.438,-304 620.02,-304 659.878,-304"/>
<polygon fill="black" stroke="black" points="670,-304 660,-308.5 665,-304 660,-304 660,-304 660,-304 665,-304 660,-299.5 670,-304 670,-304"/>
</g>
<!-- choice1001011184510810598115471111121011101151151084548465746561229511256 -->
<g id="node14" class="node">
<title>choice1001011184510810598115471111121011101151151084548465746561229511256</title>
<g id="a_node14"><a xlink:href="../dev-libs/openssl-0.9.8z_p8.svg" xlink:title="dev&#45;libs/openssl&#45;0.9.8z_p8">
<ellipse fill="none" stroke="red" cx="1158" cy="-466" rx="144" ry="18"/>
<text text-anchor="middle" x="1158" y="-463" font-family="Helvetica,sans-Serif" font-size="10.00">dev&#45;libs/openssl&#45;0.9.8z_p8</text>
</a>
</g>
</g>
<!-- dependency348&#45;&gt;choice1001011184510810598115471111121011101151151084548465746561229511256 -->
<g id="edge13" class="edge">
<title>dependency348:e&#45;&gt;choice1001011184510810598115471111121011101151151084548465746561229511256:w</title>
<path fill="none" stroke="black" stroke-dasharray="1,5" d="M906,-304C988.815,-304 932.779,-452.377 1003.66,-465.128"/>
<polygon fill="black" stroke="black" points="1014,-466 1003.66,-469.644 1009.02,-465.58 1004.04,-465.16 1004.04,-465.16 1004.04,-465.16 1009.02,-465.58 1004.41,-460.676 1014,-466 1014,-466"/>
</g>
<!-- choice100101118451081059811547111112101110115115108454946484650107 -->
<g id="node15" class="node">
<title>choice100101118451081059811547111112101110115115108454946484650107</title>
<g id="a_node15"><a xlink:href="../dev-libs/openssl-1.0.2k.svg" xlink:title="dev&#45;libs/openssl&#45;1.0.2k">
<ellipse fill="none" stroke="red" cx="1158" cy="-412" rx="144" ry="18"/>
<text text-anchor="middle" x="1158" y="-409" font-family="Helvetica,sans-Serif" font-size="10.00">dev&#45;libs/openssl&#45;1.0.2k</text>
</a>
</g>
</g>
<!-- dependency348&#45;&gt;choice100101118451081059811547111112101110115115108454946484650107 -->
<g id="edge14" class="edge">
<title>dependency348:e&#45;&gt;choice100101118451081059811547111112101110115115108454946484650107:w</title>
<path fill="none" stroke="black" stroke-dasharray="1,5" d="M906,-304C970.303,-304 948.78,-400.91 1004.03,-411.131"/>
<polygon fill="black" stroke="black" points="1014,-412 1003.65,-415.614 1009.02,-411.566 1004.04,-411.131 1004.04,-411.131 1004.04,-411.131 1009.02,-411.566 1004.43,-406.648 1014,-412 1014,-412"/>
</g>
<!-- choice100101118451081059811547111112101110115115108454946484650108 -->
<g id="node16" class="node">
<title>choice100101118451081059811547111112101110115115108454946484650108</title>
<g id="a_node16"><a xlink:href="../dev-libs/openssl-1.0.2l.svg" xlink:title="dev&#45;libs/openssl&#45;1.0.2l">
<ellipse fill="none" stroke="red" cx="1158" cy="-358" rx="144" ry="18"/>
<text text-anchor="middle" x="1158" y="-355" font-family="Helvetica,sans-Serif" font-size="10.00">dev&#45;libs/openssl&#45;1.0.2l</text>
</a>
</g>
</g>
<!-- dependency348&#45;&gt;choice100101118451081059811547111112101110115115108454946484650108 -->
<g id="edge15" class="edge">
<title>dependency348:e&#45;&gt;choice100101118451081059811547111112101110115115108454946484650108:w</title>
<path fill="none" stroke="black" stroke-dasharray="1,5" d="M906,-304C956.102,-304 960.012,-351.066 1003.98,-357.317"/>
<polygon fill="black" stroke="black" points="1014,-358 1003.72,-361.81 1009.01,-357.66 1004.02,-357.32 1004.02,-357.32 1004.02,-357.32 1009.01,-357.66 1004.33,-352.831 1014,-358 1014,-358"/>
</g>
<!-- choice1001011184510810598115471111121011101151151084549464846501084511449 -->
<g id="node17" class="node">
<title>choice1001011184510810598115471111121011101151151084549464846501084511449</title>
<g id="a_node17"><a xlink:href="../dev-libs/openssl-1.0.2l-r1.svg" xlink:title="dev&#45;libs/openssl&#45;1.0.2l&#45;r1">
<ellipse fill="none" stroke="red" cx="1158" cy="-304" rx="144" ry="18"/>
<text text-anchor="middle" x="1158" y="-301" font-family="Helvetica,sans-Serif" font-size="10.00">dev&#45;libs/openssl&#45;1.0.2l&#45;r1</text>
</a>
</g>
</g>
<!-- dependency348&#45;&gt;choice1001011184510810598115471111121011101151151084549464846501084511449 -->
<g id="edge16" class="edge">
<title>dependency348:e&#45;&gt;choice1001011184510810598115471111121011101151151084549464846501084511449:w</title>
<path fill="none" stroke="black" stroke-dasharray="1,5" d="M906,-304C950.438,-304 964.02,-304 1003.88,-304"/>
<polygon fill="black" stroke="black" points="1014,-304 1004,-308.5 1009,-304 1004,-304 1004,-304 1004,-304 1009,-304 1004,-299.5 1014,-304 1014,-304"/>
</g>
<!-- choice100101118451081059811547111112101110115115108454946484650109 -->
<g id="node18" class="node">
<title>choice100101118451081059811547111112101110115115108454946484650109</title>
<g id="a_node18"><a xlink:href="../dev-libs/openssl-1.0.2m.svg" xlink:title="dev&#45;libs/openssl&#45;1.0.2m">
<ellipse fill="none" stroke="red" cx="1158" cy="-250" rx="144" ry="18"/>
<text text-anchor="middle" x="1158" y="-247" font-family="Helvetica,sans-Serif" font-size="10.00">dev&#45;libs/openssl&#45;1.0.2m</text>
</a>
</g>
</g>
<!-- dependency348&#45;&gt;choice100101118451081059811547111112101110115115108454946484650109 -->
<g id="edge17" class="edge">
<title>dependency348:e&#45;&gt;choice100101118451081059811547111112101110115115108454946484650109:w</title>
<path fill="none" stroke="black" stroke-dasharray="1,5" d="M906,-304C956.102,-304 960.012,-256.934 1003.98,-250.683"/>
<polygon fill="black" stroke="black" points="1014,-250 1004.33,-255.169 1009.01,-250.34 1004.02,-250.68 1004.02,-250.68 1004.02,-250.68 1009.01,-250.34 1003.72,-246.19 1014,-250 1014,-250"/>
</g>
<!-- choice100101118451081059811547111112101110115115108454946484650110 -->
<g id="node19" class="node">
<title>choice100101118451081059811547111112101110115115108454946484650110</title>
<g id="a_node19"><a xlink:href="../dev-libs/openssl-1.0.2n.svg" xlink:title="dev&#45;libs/openssl&#45;1.0.2n">
<ellipse fill="none" stroke="red" cx="1158" cy="-196" rx="144" ry="18"/>
<text text-anchor="middle" x="1158" y="-193" font-family="Helvetica,sans-Serif" font-size="10.00">dev&#45;libs/openssl&#45;1.0.2n</text>
</a>
</g>
</g>
<!-- dependency348&#45;&gt;choice100101118451081059811547111112101110115115108454946484650110 -->
<g id="edge18" class="edge">
<title>dependency348:e&#45;&gt;choice100101118451081059811547111112101110115115108454946484650110:w</title>
<path fill="none" stroke="black" stroke-dasharray="1,5" d="M906,-304C970.303,-304 948.78,-207.09 1004.03,-196.869"/>
<polygon fill="black" stroke="black" points="1014,-196 1004.43,-201.352 1009.02,-196.434 1004.04,-196.869 1004.04,-196.869 1004.04,-196.869 1009.02,-196.434 1003.65,-192.386 1014,-196 1014,-196"/>
</g>
<!-- choice1001011184510810598115471111121011101151151084549464946481034511450 -->
<g id="node20" class="node">
<title>choice1001011184510810598115471111121011101151151084549464946481034511450</title>
<g id="a_node20"><a xlink:href="../dev-libs/openssl-1.1.0g-r2.svg" xlink:title="dev&#45;libs/openssl&#45;1.1.0g&#45;r2">
<ellipse fill="none" stroke="red" cx="1158" cy="-142" rx="144" ry="18"/>
<text text-anchor="middle" x="1158" y="-139" font-family="Helvetica,sans-Serif" font-size="10.00">dev&#45;libs/openssl&#45;1.1.0g&#45;r2</text>
</a>
</g>
</g>
<!-- dependency348&#45;&gt;choice1001011184510810598115471111121011101151151084549464946481034511450 -->
<g id="edge19" class="edge">
<title>dependency348:e&#45;&gt;choice1001011184510810598115471111121011101151151084549464946481034511450:w</title>
<path fill="none" stroke="black" stroke-dasharray="1,5" d="M906,-304C988.815,-304 932.779,-155.623 1003.66,-142.872"/>
<polygon fill="black" stroke="black" points="1014,-142 1004.41,-147.324 1009.02,-142.42 1004.04,-142.84 1004.04,-142.84 1004.04,-142.84 1009.02,-142.42 1003.66,-138.356 1014,-142 1014,-142"/>
</g>
<!-- dependency350 -->
<g id="node7" class="node">
<title>dependency350</title>
<polygon fill="none" stroke="blue" points="678,-131 678,-229 783,-229 783,-131 678,-131"/>
<text text-anchor="start" x="708.823" y="-177" font-family="Helvetica,sans-Serif" font-size="10.00">pack_dep</text>
<polygon fill="none" stroke="blue" points="783,-207 783,-229 893,-229 893,-207 783,-207"/>
<text text-anchor="start" x="832.441" y="-215" font-family="Helvetica,sans-Serif" font-size="10.00">no</text>
<polygon fill="none" stroke="blue" points="783,-185 783,-207 893,-207 893,-185 783,-185"/>
<text text-anchor="start" x="821.337" y="-193" font-family="Helvetica,sans-Serif" font-size="10.00">sys&#45;libs</text>
<polygon fill="none" stroke="blue" points="783,-163 783,-185 893,-185 893,-163 783,-163"/>
<text text-anchor="start" x="830.501" y="-171" font-family="Helvetica,sans-Serif" font-size="10.00">zlib</text>
<polygon fill="none" stroke="blue" points="783,-141 783,-163 893,-163 893,-141 783,-141"/>
<text text-anchor="start" x="826.882" y="-149" font-family="Helvetica,sans-Serif" font-size="10.00">none</text>
<polygon fill="none" stroke="blue" points="783,-131 783,-141 893,-141 893,-131 783,-131"/>
</g>
<!-- dependency349&#45;&gt;dependency350 -->
<g id="edge5" class="edge">
<title>dependency349:e&#45;&gt;dependency350:w</title>
<path fill="none" stroke="black" stroke-dasharray="5,2" d="M562,-207C607.902,-207 619.004,-183.761 659.876,-180.403"/>
<polygon fill="black" stroke="black" points="670,-180 660.187,-184.894 665.004,-180.199 660.008,-180.397 660.008,-180.397 660.008,-180.397 665.004,-180.199 659.829,-175.901 670,-180 670,-180"/>
</g>
<!-- choice1151211154510810598115471221081059845494650464949 -->
<g id="node21" class="node">
<title>choice1151211154510810598115471221081059845494650464949</title>
<g id="a_node21"><a xlink:href="../sys-libs/zlib-1.2.11.svg" xlink:title="sys&#45;libs/zlib&#45;1.2.11">
<ellipse fill="none" stroke="red" cx="1158" cy="-88" rx="144" ry="18"/>
<text text-anchor="middle" x="1158" y="-85" font-family="Helvetica,sans-Serif" font-size="10.00">sys&#45;libs/zlib&#45;1.2.11</text>
</a>
</g>
</g>
<!-- dependency350&#45;&gt;choice1151211154510810598115471221081059845494650464949 -->
<g id="edge20" class="edge">
<title>dependency350:e&#45;&gt;choice1151211154510810598115471221081059845494650464949:w</title>
<path fill="none" stroke="black" stroke-dasharray="1,5" d="M906,-180C965.36,-180 952.789,-98.4654 1003.72,-88.9106"/>
<polygon fill="black" stroke="black" points="1014,-88 1004.44,-93.3648 1009.02,-88.4412 1004.04,-88.8823 1004.04,-88.8823 1004.04,-88.8823 1009.02,-88.4412 1003.64,-84.3999 1014,-88 1014,-88"/>
</g>
<!-- choice11512111545108105981154712210810598454946504649494511449 -->
<g id="node22" class="node">
<title>choice11512111545108105981154712210810598454946504649494511449</title>
<g id="a_node22"><a xlink:href="../sys-libs/zlib-1.2.11-r1.svg" xlink:title="sys&#45;libs/zlib&#45;1.2.11&#45;r1">
<ellipse fill="none" stroke="red" cx="1158" cy="-34" rx="144" ry="18"/>
<text text-anchor="middle" x="1158" y="-31" font-family="Helvetica,sans-Serif" font-size="10.00">sys&#45;libs/zlib&#45;1.2.11&#45;r1</text>
</a>
</g>
</g>
<!-- dependency350&#45;&gt;choice11512111545108105981154712210810598454946504649494511449 -->
<g id="edge21" class="edge">
<title>dependency350:e&#45;&gt;choice11512111545108105981154712210810598454946504649494511449:w</title>
<path fill="none" stroke="black" stroke-dasharray="1,5" d="M906,-180C983.087,-180 937.816,-46.8226 1003.91,-34.8574"/>
<polygon fill="black" stroke="black" points="1014,-34 1004.42,-39.3307 1009.02,-34.4234 1004.04,-34.8468 1004.04,-34.8468 1004.04,-34.8468 1009.02,-34.4234 1003.65,-30.363 1014,-34 1014,-34"/>
</g>
</g>
</svg>
