<?xml version="1.0" encoding="UTF-8" standalone="no"?>
<!DOCTYPE svg PUBLIC "-//W3C//DTD SVG 1.1//EN"
 "http://www.w3.org/Graphics/SVG/1.1/DTD/svg11.dtd">
<!-- Generated by graphviz version 2.41.20171026.1811 (20171026.1811)
 -->
<!-- Title: prolog Pages: 1 -->
<svg width="1068pt" height="950pt"
 viewBox="0.00 0.00 1068.00 950.00" xmlns="http://www.w3.org/2000/svg" xmlns:xlink="http://www.w3.org/1999/xlink">
<g id="graph0" class="graph" transform="scale(1 1) rotate(0) translate(4 946)">
<title>prolog</title>
<polygon fill="white" stroke="transparent" points="-4,4 -4,-946 1064,-946 1064,4 -4,4"/>
<g id="clust1" class="cluster">
<title>cluster_leftcol</title>
<polygon fill="none" stroke="gray" points="8,-420 8,-490 312,-490 312,-420 8,-420"/>
<text text-anchor="start" x="146.66" y="-479" font-family="Helvetica,sans-Serif" font-style="italic" font-size="10.00">ebuild</text>
</g>
<g id="clust2" class="cluster">
<title>cluster_midcol</title>
<polygon fill="none" stroke="gray" points="396,-8 396,-934 664,-934 664,-8 396,-8"/>
<text text-anchor="start" x="498.86" y="-923" font-family="Helvetica,sans-Serif" font-style="italic" font-size="10.00">dependencies</text>
</g>
<g id="clust3" class="cluster">
<title>cluster_compile</title>
<polygon fill="#eeeeee" stroke="gray" points="404,-534 404,-908 656,-908 656,-534 404,-534"/>
<text text-anchor="start" x="512.77" y="-897" font-family="Helvetica,sans-Serif" font-style="italic" font-size="10.00">compile</text>
</g>
<g id="clust7" class="cluster">
<title>cluster_compileandrun</title>
<polygon fill="#eeeeee" stroke="gray" points="404,-16 404,-526 656,-526 656,-16 404,-16"/>
<text text-anchor="start" x="494.42" y="-515" font-family="Helvetica,sans-Serif" font-style="italic" font-size="10.00">compile and run</text>
</g>
<g id="clust13" class="cluster">
<title>cluster_choices</title>
<polygon fill="none" stroke="gray" points="748,-178 748,-926 1052,-926 1052,-178 748,-178"/>
<text text-anchor="start" x="875.82" y="-915" font-family="Helvetica,sans-Serif" font-style="italic" font-size="10.00">candidates</text>
</g>
<!-- id -->
<g id="node1" class="node">
<title>id</title>
<g id="a_node1"><a xlink:href="../app-pda/libusbmuxd-1.0.9.svg" xlink:title="app&#45;pda/libusbmuxd&#45;1.0.9">
<ellipse fill="none" stroke="red" cx="160" cy="-446" rx="144" ry="18"/>
<text text-anchor="middle" x="160" y="-443" font-family="Helvetica,sans-Serif" font-size="10.00">app&#45;pda/libusbmuxd&#45;1.0.9</text>
</a>
</g>
</g>
<!-- dependency53217 -->
<g id="node2" class="node">
<title>dependency53217</title>
<polygon fill="none" stroke="blue" points="420,-778 420,-878 525,-878 525,-778 420,-778"/>
<text text-anchor="start" x="450.82" y="-825" font-family="Helvetica,sans-Serif" font-size="10.00">pack_dep</text>
<polygon fill="none" stroke="blue" points="525,-858 525,-878 635,-878 635,-858 525,-858"/>
<text text-anchor="start" x="574.44" y="-865" font-family="Helvetica,sans-Serif" font-size="10.00">no</text>
<polygon fill="none" stroke="blue" points="525,-838 525,-858 635,-858 635,-838 525,-838"/>
<text text-anchor="start" x="553.03" y="-845" font-family="Helvetica,sans-Serif" font-size="10.00">app&#45;portage</text>
<polygon fill="none" stroke="blue" points="525,-818 525,-838 635,-838 635,-818 525,-818"/>
<text text-anchor="start" x="555.54" y="-825" font-family="Helvetica,sans-Serif" font-size="10.00">elt&#45;patches</text>
<polygon fill="none" stroke="blue" points="525,-798 525,-818 635,-818 635,-798 525,-798"/>
<text text-anchor="start" x="551.92" y="-805" font-family="Helvetica,sans-Serif" font-size="10.00">greaterequal</text>
<polygon fill="none" stroke="blue" points="525,-778 525,-798 635,-798 635,-778 525,-778"/>
<text text-anchor="start" x="557.75" y="-785" font-family="Helvetica,sans-Serif" font-size="10.00">20170422</text>
</g>
<!-- id&#45;&gt;dependency53217 -->
<g id="edge1" class="edge">
<title>id:e&#45;&gt;dependency53217:w</title>
<path fill="none" stroke="black" d="M305,-446C477.58,-446 244.74,-812.49 400.69,-827.52"/>
<polygon fill="black" stroke="black" points="411,-828 400.8,-832.03 406.01,-827.77 401.01,-827.54 401.01,-827.54 401.01,-827.54 406.01,-827.77 401.22,-823.04 411,-828 411,-828"/>
</g>
<!-- dependency53218 -->
<g id="node3" class="node">
<title>dependency53218</title>
<polygon fill="none" stroke="blue" points="420,-662 420,-752 525,-752 525,-662 420,-662"/>
<text text-anchor="start" x="450.82" y="-704" font-family="Helvetica,sans-Serif" font-size="10.00">pack_dep</text>
<polygon fill="none" stroke="blue" points="525,-732 525,-752 635,-752 635,-732 525,-732"/>
<text text-anchor="start" x="574.44" y="-739" font-family="Helvetica,sans-Serif" font-size="10.00">no</text>
<polygon fill="none" stroke="blue" points="525,-712 525,-732 635,-732 635,-712 525,-712"/>
<text text-anchor="start" x="566.66" y="-719" font-family="Helvetica,sans-Serif" font-size="10.00">virtual</text>
<polygon fill="none" stroke="blue" points="525,-692 525,-712 635,-712 635,-692 525,-692"/>
<text text-anchor="start" x="554.99" y="-699" font-family="Helvetica,sans-Serif" font-size="10.00">os&#45;headers</text>
<polygon fill="none" stroke="blue" points="525,-672 525,-692 635,-692 635,-672 525,-672"/>
<text text-anchor="start" x="568.88" y="-679" font-family="Helvetica,sans-Serif" font-size="10.00">none</text>
<polygon fill="none" stroke="blue" points="525,-662 525,-672 635,-672 635,-662 525,-662"/>
</g>
<!-- id&#45;&gt;dependency53218 -->
<g id="edge2" class="edge">
<title>id:e&#45;&gt;dependency53218:w</title>
<path fill="none" stroke="black" d="M305,-446C426.66,-446 293.76,-692.43 401,-706.38"/>
<polygon fill="black" stroke="black" points="411,-707 400.74,-710.88 406.01,-706.69 401.02,-706.38 401.02,-706.38 401.02,-706.38 406.01,-706.69 401.3,-701.89 411,-707 411,-707"/>
</g>
<!-- dependency53219 -->
<g id="node4" class="node">
<title>dependency53219</title>
<polygon fill="none" stroke="blue" points="420,-546 420,-636 525,-636 525,-546 420,-546"/>
<text text-anchor="start" x="450.82" y="-588" font-family="Helvetica,sans-Serif" font-size="10.00">pack_dep</text>
<polygon fill="none" stroke="blue" points="525,-616 525,-636 635,-636 635,-616 525,-616"/>
<text text-anchor="start" x="574.44" y="-623" font-family="Helvetica,sans-Serif" font-size="10.00">no</text>
<polygon fill="none" stroke="blue" points="525,-596 525,-616 635,-616 635,-596 525,-596"/>
<text text-anchor="start" x="566.66" y="-603" font-family="Helvetica,sans-Serif" font-size="10.00">virtual</text>
<polygon fill="none" stroke="blue" points="525,-576 525,-596 635,-596 635,-576 525,-576"/>
<text text-anchor="start" x="558.6" y="-583" font-family="Helvetica,sans-Serif" font-size="10.00">pkgconfig</text>
<polygon fill="none" stroke="blue" points="525,-556 525,-576 635,-576 635,-556 525,-556"/>
<text text-anchor="start" x="568.88" y="-563" font-family="Helvetica,sans-Serif" font-size="10.00">none</text>
<polygon fill="none" stroke="blue" points="525,-546 525,-556 635,-556 635,-546 525,-546"/>
</g>
<!-- id&#45;&gt;dependency53219 -->
<g id="edge3" class="edge">
<title>id:e&#45;&gt;dependency53219:w</title>
<path fill="none" stroke="black" d="M305,-446C381.24,-446 335.72,-578.27 401.03,-590.15"/>
<polygon fill="black" stroke="black" points="411,-591 400.65,-594.63 406.02,-590.57 401.04,-590.15 401.04,-590.15 401.04,-590.15 406.02,-590.57 401.42,-585.67 411,-591 411,-591"/>
</g>
<!-- dependency53220 -->
<g id="node5" class="node">
<title>dependency53220</title>
<polygon fill="none" stroke="blue" points="420,-396 420,-496 525,-496 525,-396 420,-396"/>
<text text-anchor="start" x="450.82" y="-443" font-family="Helvetica,sans-Serif" font-size="10.00">pack_dep</text>
<polygon fill="none" stroke="blue" points="525,-476 525,-496 635,-496 635,-476 525,-476"/>
<text text-anchor="start" x="574.44" y="-483" font-family="Helvetica,sans-Serif" font-size="10.00">no</text>
<polygon fill="none" stroke="blue" points="525,-456 525,-476 635,-476 635,-456 525,-456"/>
<text text-anchor="start" x="561.65" y="-463" font-family="Helvetica,sans-Serif" font-size="10.00">app&#45;pda</text>
<polygon fill="none" stroke="blue" points="525,-436 525,-456 635,-456 635,-436 525,-436"/>
<text text-anchor="start" x="566.11" y="-443" font-family="Helvetica,sans-Serif" font-size="10.00">libplist</text>
<polygon fill="none" stroke="blue" points="525,-416 525,-436 635,-436 635,-416 525,-416"/>
<text text-anchor="start" x="551.92" y="-423" font-family="Helvetica,sans-Serif" font-size="10.00">greaterequal</text>
<polygon fill="none" stroke="blue" points="525,-396 525,-416 635,-416 635,-396 525,-396"/>
<text text-anchor="start" x="570.64" y="-403" font-family="Helvetica,sans-Serif" font-size="10.00">1.11</text>
</g>
<!-- id&#45;&gt;dependency53220 -->
<g id="edge4" class="edge">
<title>id:e&#45;&gt;dependency53220:w</title>
<path fill="none" stroke="black" d="M305,-446C345.3,-446 359.75,-446 392.57,-446"/>
<ellipse fill="none" stroke="black" cx="407" cy="-446" rx="4" ry="4"/>
<polygon fill="black" stroke="black" points="403,-446 393,-450.5 398,-446 393,-446 393,-446 393,-446 398,-446 393,-441.5 403,-446 403,-446"/>
</g>
<!-- dependency53221 -->
<g id="node6" class="node">
<title>dependency53221</title>
<polygon fill="none" stroke="blue" points="420,-280 420,-370 525,-370 525,-280 420,-280"/>
<text text-anchor="start" x="450.82" y="-322" font-family="Helvetica,sans-Serif" font-size="10.00">pack_dep</text>
<polygon fill="none" stroke="blue" points="525,-350 525,-370 635,-370 635,-350 525,-350"/>
<text text-anchor="start" x="574.44" y="-357" font-family="Helvetica,sans-Serif" font-size="10.00">no</text>
<polygon fill="none" stroke="blue" points="525,-330 525,-350 635,-350 635,-330 525,-330"/>
<text text-anchor="start" x="566.66" y="-337" font-family="Helvetica,sans-Serif" font-size="10.00">virtual</text>
<polygon fill="none" stroke="blue" points="525,-310 525,-330 635,-330 635,-310 525,-310"/>
<text text-anchor="start" x="566.94" y="-317" font-family="Helvetica,sans-Serif" font-size="10.00">libusb</text>
<polygon fill="none" stroke="blue" points="525,-290 525,-310 635,-310 635,-290 525,-290"/>
<text text-anchor="start" x="568.88" y="-297" font-family="Helvetica,sans-Serif" font-size="10.00">none</text>
<polygon fill="none" stroke="blue" points="525,-280 525,-290 635,-290 635,-280 525,-280"/>
</g>
<!-- id&#45;&gt;dependency53221 -->
<g id="edge5" class="edge">
<title>id:e&#45;&gt;dependency53221:w</title>
<path fill="none" stroke="black" d="M305,-446C369.65,-446 345.59,-347.05 393.26,-328.11"/>
<ellipse fill="none" stroke="black" cx="407.06" cy="-325.69" rx="4" ry="4"/>
<polygon fill="black" stroke="black" points="403.12,-326.38 394.05,-332.54 398.2,-327.25 393.27,-328.11 393.27,-328.11 393.27,-328.11 398.2,-327.25 392.49,-323.68 403.12,-326.38 403.12,-326.38"/>
</g>
<!-- dependency53222 -->
<g id="node7" class="node">
<title>dependency53222</title>
<polygon fill="none" stroke="blue" points="420,-154 420,-254 525,-254 525,-154 420,-154"/>
<text text-anchor="start" x="450.82" y="-201" font-family="Helvetica,sans-Serif" font-size="10.00">pack_dep</text>
<polygon fill="none" stroke="blue" points="525,-234 525,-254 635,-254 635,-234 525,-234"/>
<text text-anchor="start" x="568.33" y="-241" font-family="Helvetica,sans-Serif" font-size="10.00">weak</text>
<polygon fill="none" stroke="blue" points="525,-214 525,-234 635,-234 635,-214 525,-214"/>
<text text-anchor="start" x="561.65" y="-221" font-family="Helvetica,sans-Serif" font-size="10.00">app&#45;pda</text>
<polygon fill="none" stroke="blue" points="525,-194 525,-214 635,-214 635,-194 525,-194"/>
<text text-anchor="start" x="559.71" y="-201" font-family="Helvetica,sans-Serif" font-size="10.00">usbmuxd</text>
<polygon fill="none" stroke="blue" points="525,-174 525,-194 635,-194 635,-174 525,-174"/>
<text text-anchor="start" x="567.77" y="-181" font-family="Helvetica,sans-Serif" font-size="10.00">equal</text>
<polygon fill="none" stroke="blue" points="525,-154 525,-174 635,-174 635,-154 525,-154"/>
<text text-anchor="start" x="568.88" y="-161" font-family="Helvetica,sans-Serif" font-size="10.00">1.0.9</text>
</g>
<!-- id&#45;&gt;dependency53222 -->
<g id="edge6" class="edge">
<title>id:e&#45;&gt;dependency53222:w</title>
<path fill="none" stroke="black" d="M305,-446C415.66,-446 307.61,-231.08 393.06,-206.32"/>
<ellipse fill="none" stroke="black" cx="407.03" cy="-204.51" rx="4" ry="4"/>
<polygon fill="black" stroke="black" points="403.07,-205.03 393.72,-210.77 398.11,-205.67 393.15,-206.31 393.15,-206.31 393.15,-206.31 398.11,-205.67 392.57,-201.84 403.07,-205.03 403.07,-205.03"/>
</g>
<!-- dependency53223 -->
<g id="node8" class="node">
<title>dependency53223</title>
<polygon fill="none" stroke="blue" points="420,-28 420,-128 525,-128 525,-28 420,-28"/>
<text text-anchor="start" x="450.82" y="-75" font-family="Helvetica,sans-Serif" font-size="10.00">pack_dep</text>
<polygon fill="none" stroke="blue" points="525,-108 525,-128 635,-128 635,-108 525,-108"/>
<text text-anchor="start" x="568.33" y="-115" font-family="Helvetica,sans-Serif" font-size="10.00">weak</text>
<polygon fill="none" stroke="blue" points="525,-88 525,-108 635,-108 635,-88 525,-88"/>
<text text-anchor="start" x="561.65" y="-95" font-family="Helvetica,sans-Serif" font-size="10.00">app&#45;pda</text>
<polygon fill="none" stroke="blue" points="525,-68 525,-88 635,-88 635,-68 525,-68"/>
<text text-anchor="start" x="559.71" y="-75" font-family="Helvetica,sans-Serif" font-size="10.00">usbmuxd</text>
<polygon fill="none" stroke="blue" points="525,-48 525,-68 635,-68 635,-48 525,-48"/>
<text text-anchor="start" x="563.89" y="-55" font-family="Helvetica,sans-Serif" font-size="10.00">smaller</text>
<polygon fill="none" stroke="blue" points="525,-28 525,-48 635,-48 635,-28 525,-28"/>
<text text-anchor="start" x="560.54" y="-35" font-family="Helvetica,sans-Serif" font-size="10.00">1.0.8_p1</text>
</g>
<!-- id&#45;&gt;dependency53223 -->
<g id="edge7" class="edge">
<title>id:e&#45;&gt;dependency53223:w</title>
<path fill="none" stroke="black" d="M305,-446C468.56,-446 258.49,-106.19 392.86,-79.64"/>
<ellipse fill="none" stroke="black" cx="407.02" cy="-78.36" rx="4" ry="4"/>
<polygon fill="black" stroke="black" points="403.03,-78.72 393.48,-84.1 398.05,-79.17 393.07,-79.62 393.07,-79.62 393.07,-79.62 398.05,-79.17 392.67,-75.14 403.03,-78.72 403.03,-78.72"/>
</g>
<!-- choice97112112451121111141169710310147101108116451129711699104101115455048495548514955 -->
<g id="node9" class="node">
<title>choice97112112451121111141169710310147101108116451129711699104101115455048495548514955</title>
<g id="a_node9"><a xlink:href="../app-portage/elt-patches-20170317.svg" xlink:title="app&#45;portage/elt&#45;patches&#45;20170317">
<ellipse fill="none" stroke="red" cx="900" cy="-882" rx="144" ry="18"/>
<text text-anchor="middle" x="900" y="-879" font-family="Helvetica,sans-Serif" font-size="10.00">app&#45;portage/elt&#45;patches&#45;20170317</text>
</a>
</g>
</g>
<!-- dependency53217&#45;&gt;choice97112112451121111141169710310147101108116451129711699104101115455048495548514955 -->
<g id="edge8" class="edge">
<title>dependency53217:e&#45;&gt;choice97112112451121111141169710310147101108116451129711699104101115455048495548514955:w</title>
<path fill="none" stroke="black" stroke-dasharray="1,5" d="M649,-828C698.26,-828 701.85,-874.87 744.86,-881.28"/>
<polygon fill="black" stroke="black" points="755,-882 744.71,-885.78 750.01,-881.64 745.03,-881.29 745.03,-881.29 745.03,-881.29 750.01,-881.64 745.35,-876.8 755,-882 755,-882"/>
</g>
<!-- choice97112112451121111141169710310147101108116451129711699104101115455048495548525050 -->
<g id="node10" class="node">
<title>choice97112112451121111141169710310147101108116451129711699104101115455048495548525050</title>
<g id="a_node10"><a xlink:href="../app-portage/elt-patches-20170422.svg" xlink:title="app&#45;portage/elt&#45;patches&#45;20170422">
<ellipse fill="none" stroke="red" cx="900" cy="-828" rx="144" ry="18"/>
<text text-anchor="middle" x="900" y="-825" font-family="Helvetica,sans-Serif" font-size="10.00">app&#45;portage/elt&#45;patches&#45;20170422</text>
</a>
</g>
</g>
<!-- dependency53217&#45;&gt;choice97112112451121111141169710310147101108116451129711699104101115455048495548525050 -->
<g id="edge9" class="edge">
<title>dependency53217:e&#45;&gt;choice97112112451121111141169710310147101108116451129711699104101115455048495548525050:w</title>
<path fill="none" stroke="black" stroke-dasharray="1,5" d="M649,-828C692.43,-828 705.83,-828 744.57,-828"/>
<polygon fill="black" stroke="black" points="755,-828 745,-832.5 750,-828 745,-828 745,-828 745,-828 750,-828 745,-823.5 755,-828 755,-828"/>
</g>
<!-- choice97112112451121111141169710310147101108116451129711699104101115455048495548564953 -->
<g id="node11" class="node">
<title>choice97112112451121111141169710310147101108116451129711699104101115455048495548564953</title>
<g id="a_node11"><a xlink:href="../app-portage/elt-patches-20170815.svg" xlink:title="app&#45;portage/elt&#45;patches&#45;20170815">
<ellipse fill="none" stroke="red" cx="900" cy="-774" rx="144" ry="18"/>
<text text-anchor="middle" x="900" y="-771" font-family="Helvetica,sans-Serif" font-size="10.00">app&#45;portage/elt&#45;patches&#45;20170815</text>
</a>
</g>
</g>
<!-- dependency53217&#45;&gt;choice97112112451121111141169710310147101108116451129711699104101115455048495548564953 -->
<g id="edge10" class="edge">
<title>dependency53217:e&#45;&gt;choice97112112451121111141169710310147101108116451129711699104101115455048495548564953:w</title>
<path fill="none" stroke="black" stroke-dasharray="1,5" d="M649,-828C698.26,-828 701.85,-781.13 744.86,-774.72"/>
<polygon fill="black" stroke="black" points="755,-774 745.35,-779.2 750.01,-774.36 745.03,-774.71 745.03,-774.71 745.03,-774.71 750.01,-774.36 744.71,-770.22 755,-774 755,-774"/>
</g>
<!-- choice971121124511211111411697103101471011081164511297116991041011154550484955485650544649 -->
<g id="node12" class="node">
<title>choice971121124511211111411697103101471011081164511297116991041011154550484955485650544649</title>
<g id="a_node12"><a xlink:href="../app-portage/elt-patches-20170826.1.svg" xlink:title="app&#45;portage/elt&#45;patches&#45;20170826.1">
<ellipse fill="none" stroke="red" cx="900" cy="-720" rx="144" ry="18"/>
<text text-anchor="middle" x="900" y="-717" font-family="Helvetica,sans-Serif" font-size="10.00">app&#45;portage/elt&#45;patches&#45;20170826.1</text>
</a>
</g>
</g>
<!-- dependency53217&#45;&gt;choice971121124511211111411697103101471011081164511297116991041011154550484955485650544649 -->
<g id="edge11" class="edge">
<title>dependency53217:e&#45;&gt;choice971121124511211111411697103101471011081164511297116991041011154550484955485650544649:w</title>
<path fill="none" stroke="black" stroke-dasharray="1,5" d="M649,-828C712.58,-828 690.58,-731.49 744.79,-720.93"/>
<polygon fill="black" stroke="black" points="755,-720 745.45,-725.39 750.02,-720.46 745.04,-720.91 745.04,-720.91 745.04,-720.91 750.02,-720.46 744.63,-716.43 755,-720 755,-720"/>
</g>
<!-- choice118105114116117971084711111545104101971001011141154548 -->
<g id="node13" class="node">
<title>choice118105114116117971084711111545104101971001011141154548</title>
<g id="a_node13"><a xlink:href="../virtual/os-headers-0.svg" xlink:title="virtual/os&#45;headers&#45;0">
<ellipse fill="none" stroke="red" cx="900" cy="-666" rx="144" ry="18"/>
<text text-anchor="middle" x="900" y="-663" font-family="Helvetica,sans-Serif" font-size="10.00">virtual/os&#45;headers&#45;0</text>
</a>
</g>
</g>
<!-- dependency53218&#45;&gt;choice118105114116117971084711111545104101971001011141154548 -->
<g id="edge12" class="edge">
<title>dependency53218:e&#45;&gt;choice118105114116117971084711111545104101971001011141154548:w</title>
<path fill="none" stroke="black" stroke-dasharray="1,5" d="M649,-707C695.96,-707 703.56,-671.56 744.99,-666.58"/>
<polygon fill="black" stroke="black" points="755,-666 745.28,-671.07 750.01,-666.29 745.02,-666.58 745.02,-666.58 745.02,-666.58 750.01,-666.29 744.76,-662.09 755,-666 755,-666"/>
</g>
<!-- choice11810511411611797108471121071039911111010210510345484511449 -->
<g id="node14" class="node">
<title>choice11810511411611797108471121071039911111010210510345484511449</title>
<g id="a_node14"><a xlink:href="../virtual/pkgconfig-0-r1.svg" xlink:title="virtual/pkgconfig&#45;0&#45;r1">
<ellipse fill="none" stroke="red" cx="900" cy="-591" rx="144" ry="18"/>
<text text-anchor="middle" x="900" y="-588" font-family="Helvetica,sans-Serif" font-size="10.00">virtual/pkgconfig&#45;0&#45;r1</text>
</a>
</g>
</g>
<!-- dependency53219&#45;&gt;choice11810511411611797108471121071039911111010210510345484511449 -->
<g id="edge13" class="edge">
<title>dependency53219:e&#45;&gt;choice11810511411611797108471121071039911111010210510345484511449:w</title>
<path fill="none" stroke="black" stroke-dasharray="1,5" d="M649,-591C692.43,-591 705.83,-591 744.57,-591"/>
<polygon fill="black" stroke="black" points="755,-591 745,-595.5 750,-591 745,-591 745,-591 745,-591 750,-591 745,-586.5 755,-591 755,-591"/>
</g>
<!-- choice9711211245112100974710810598112108105115116455046484648 -->
<g id="node15" class="node">
<title>choice9711211245112100974710810598112108105115116455046484648</title>
<g id="a_node15"><a xlink:href="../app-pda/libplist-2.0.0.svg" xlink:title="app&#45;pda/libplist&#45;2.0.0">
<ellipse fill="none" stroke="red" cx="900" cy="-446" rx="144" ry="18"/>
<text text-anchor="middle" x="900" y="-443" font-family="Helvetica,sans-Serif" font-size="10.00">app&#45;pda/libplist&#45;2.0.0</text>
</a>
</g>
</g>
<!-- dependency53220&#45;&gt;choice9711211245112100974710810598112108105115116455046484648 -->
<g id="edge14" class="edge">
<title>dependency53220:e&#45;&gt;choice9711211245112100974710810598112108105115116455046484648:w</title>
<path fill="none" stroke="black" stroke-dasharray="1,5" d="M649,-446C692.43,-446 705.83,-446 744.57,-446"/>
<polygon fill="black" stroke="black" points="755,-446 745,-450.5 750,-446 745,-446 745,-446 745,-446 750,-446 745,-441.5 755,-446 755,-446"/>
</g>
<!-- choice1181051141161179710847108105981171159845484511450 -->
<g id="node16" class="node">
<title>choice1181051141161179710847108105981171159845484511450</title>
<g id="a_node16"><a xlink:href="../virtual/libusb-0-r2.svg" xlink:title="virtual/libusb&#45;0&#45;r2">
<ellipse fill="none" stroke="red" cx="900" cy="-379" rx="144" ry="18"/>
<text text-anchor="middle" x="900" y="-376" font-family="Helvetica,sans-Serif" font-size="10.00">virtual/libusb&#45;0&#45;r2</text>
</a>
</g>
</g>
<!-- dependency53221&#45;&gt;choice1181051141161179710847108105981171159845484511450 -->
<g id="edge15" class="edge">
<title>dependency53221:e&#45;&gt;choice1181051141161179710847108105981171159845484511450:w</title>
<path fill="none" stroke="black" stroke-dasharray="1,5" d="M649,-325C698.26,-325 701.85,-371.87 744.86,-378.28"/>
<polygon fill="black" stroke="black" points="755,-379 744.71,-382.78 750.01,-378.64 745.03,-378.29 745.03,-378.29 745.03,-378.29 750.01,-378.64 745.35,-373.8 755,-379 755,-379"/>
</g>
<!-- choice1181051141161179710847108105981171159845494511449 -->
<g id="node17" class="node">
<title>choice1181051141161179710847108105981171159845494511449</title>
<g id="a_node17"><a xlink:href="../virtual/libusb-1-r1.svg" xlink:title="virtual/libusb&#45;1&#45;r1">
<ellipse fill="none" stroke="red" cx="900" cy="-325" rx="144" ry="18"/>
<text text-anchor="middle" x="900" y="-322" font-family="Helvetica,sans-Serif" font-size="10.00">virtual/libusb&#45;1&#45;r1</text>
</a>
</g>
</g>
<!-- dependency53221&#45;&gt;choice1181051141161179710847108105981171159845494511449 -->
<g id="edge16" class="edge">
<title>dependency53221:e&#45;&gt;choice1181051141161179710847108105981171159845494511449:w</title>
<path fill="none" stroke="black" stroke-dasharray="1,5" d="M649,-325C692.43,-325 705.83,-325 744.57,-325"/>
<polygon fill="black" stroke="black" points="755,-325 745,-329.5 750,-325 745,-325 745,-325 745,-325 750,-325 745,-320.5 755,-325 755,-325"/>
</g>
<!-- choice1181051141161179710847108105981171159845494511450 -->
<g id="node18" class="node">
<title>choice1181051141161179710847108105981171159845494511450</title>
<g id="a_node18"><a xlink:href="../virtual/libusb-1-r2.svg" xlink:title="virtual/libusb&#45;1&#45;r2">
<ellipse fill="none" stroke="red" cx="900" cy="-271" rx="144" ry="18"/>
<text text-anchor="middle" x="900" y="-268" font-family="Helvetica,sans-Serif" font-size="10.00">virtual/libusb&#45;1&#45;r2</text>
</a>
</g>
</g>
<!-- dependency53221&#45;&gt;choice1181051141161179710847108105981171159845494511450 -->
<g id="edge17" class="edge">
<title>dependency53221:e&#45;&gt;choice1181051141161179710847108105981171159845494511450:w</title>
<path fill="none" stroke="black" stroke-dasharray="1,5" d="M649,-325C698.26,-325 701.85,-278.13 744.86,-271.72"/>
<polygon fill="black" stroke="black" points="755,-271 745.35,-276.2 750.01,-271.36 745.03,-271.71 745.03,-271.71 745.03,-271.71 750.01,-271.36 744.71,-267.22 755,-271 755,-271"/>
</g>
<!-- choice9711211245112100974711711598109117120100454946484656951125048495248535148 -->
<g id="node19" class="node">
<title>choice9711211245112100974711711598109117120100454946484656951125048495248535148</title>
<g id="a_node19"><a xlink:href="../app-pda/usbmuxd-1.0.8_p20140530.svg" xlink:title="app&#45;pda/usbmuxd&#45;1.0.8_p20140530">
<ellipse fill="none" stroke="red" cx="900" cy="-204" rx="144" ry="18"/>
<text text-anchor="middle" x="900" y="-201" font-family="Helvetica,sans-Serif" font-size="10.00">app&#45;pda/usbmuxd&#45;1.0.8_p20140530</text>
</a>
</g>
</g>
<!-- dependency53222&#45;&gt;choice9711211245112100974711711598109117120100454946484656951125048495248535148 -->
<g id="edge18" class="edge">
<title>dependency53222:e&#45;&gt;choice9711211245112100974711711598109117120100454946484656951125048495248535148:w</title>
<path fill="none" stroke="black" stroke-dasharray="1,5" d="M649,-204C692.43,-204 705.83,-204 744.57,-204"/>
<polygon fill="black" stroke="black" points="755,-204 745,-208.5 750,-204 745,-204 745,-204 745,-204 750,-204 745,-199.5 755,-204 755,-204"/>
</g>
<!-- dependency53223&#45;&gt;choice9711211245112100974711711598109117120100454946484656951125048495248535148 -->
<g id="edge19" class="edge">
<title>dependency53223:e&#45;&gt;choice9711211245112100974711711598109117120100454946484656951125048495248535148:w</title>
<path fill="none" stroke="black" stroke-dasharray="1,5" d="M649,-78C718.46,-78 685.63,-191.53 744.7,-203.06"/>
<polygon fill="black" stroke="black" points="755,-204 744.63,-207.57 750.02,-203.54 745.04,-203.09 745.04,-203.09 745.04,-203.09 750.02,-203.54 745.45,-198.61 755,-204 755,-204"/>
</g>
</g>
</svg>
