<?xml version="1.0" encoding="UTF-8" standalone="no"?>
<!DOCTYPE svg PUBLIC "-//W3C//DTD SVG 1.1//EN"
 "http://www.w3.org/Graphics/SVG/1.1/DTD/svg11.dtd">
<!-- Generated by graphviz version 2.39.20160721.2101 (20160721.2101)
 -->
<!-- Title: prolog Pages: 1 -->
<svg width="982pt" height="1278pt"
 viewBox="0.00 0.00 982.00 1278.00" xmlns="http://www.w3.org/2000/svg" xmlns:xlink="http://www.w3.org/1999/xlink">
<g id="graph0" class="graph" transform="scale(1 1) rotate(0) translate(4 1274)">
<title>prolog</title>
<polygon fill="white" stroke="transparent" points="-4,4 -4,-1274 978,-1274 978,4 -4,4"/>
<g id="clust1" class="cluster">
<title>cluster_leftcol</title>
<polygon fill="none" stroke="gray" points="8,-731 8,-803 312,-803 312,-731 8,-731"/>
<text text-anchor="start" x="146.663" y="-791" font-family="Helvetica,sans-Serif" font-style="italic" font-size="10.00">ebuild</text>
</g>
<g id="clust13" class="cluster">
<title>cluster_choices</title>
<polygon fill="none" stroke="gray" points="662,-8 662,-1262 966,-1262 966,-8 662,-8"/>
<text text-anchor="start" x="789.824" y="-1250" font-family="Helvetica,sans-Serif" font-style="italic" font-size="10.00">candidates</text>
</g>
<g id="clust2" class="cluster">
<title>cluster_midcol</title>
<polygon fill="none" stroke="gray" points="396,-715 396,-839 578,-839 578,-715 396,-715"/>
<text text-anchor="start" x="455.875" y="-827" font-family="Helvetica,sans-Serif" font-style="italic" font-size="10.00">dependencies</text>
</g>
<g id="clust6" class="cluster">
<title>cluster_run</title>
<polygon fill="#eeeeee" stroke="gray" points="404,-723 404,-811 570,-811 570,-723 404,-723"/>
<text text-anchor="start" x="479.776" y="-799" font-family="Helvetica,sans-Serif" font-style="italic" font-size="10.00">run</text>
</g>
<!-- id -->
<g id="node1" class="node">
<title>id</title>
<g id="a_node1"><a xlink:href="../games-fps/serious-sam-tse-1_beta1-r1.svg" xlink:title="games&#45;fps/serious&#45;sam&#45;tse&#45;1_beta1&#45;r1">
<ellipse fill="none" stroke="red" cx="160" cy="-757" rx="144" ry="18"/>
<text text-anchor="middle" x="160" y="-754" font-family="Helvetica,sans-Serif" font-size="10.00">games&#45;fps/serious&#45;sam&#45;tse&#45;1_beta1&#45;r1</text>
</a>
</g>
</g>
<!-- dependency299429 -->
<g id="node2" class="node">
<title>dependency299429</title>
<polygon fill="none" stroke="blue" points="704,-1012 704,-1122 809,-1122 809,-1012 704,-1012"/>
<text text-anchor="start" x="734.823" y="-1064" font-family="Helvetica,sans-Serif" font-size="10.00">pack_dep</text>
<polygon fill="none" stroke="blue" points="809,-1100 809,-1122 919,-1122 919,-1100 809,-1100"/>
<text text-anchor="start" x="858.441" y="-1108" font-family="Helvetica,sans-Serif" font-size="10.00">no</text>
<polygon fill="none" stroke="blue" points="809,-1078 809,-1100 919,-1100 919,-1078 809,-1078"/>
<text text-anchor="start" x="844.274" y="-1086" font-family="Helvetica,sans-Serif" font-size="10.00">app&#45;arch</text>
<polygon fill="none" stroke="blue" points="809,-1056 809,-1078 919,-1078 919,-1056 809,-1056"/>
<text text-anchor="start" x="845.384" y="-1064" font-family="Helvetica,sans-Serif" font-size="10.00">unshield</text>
<polygon fill="none" stroke="blue" points="809,-1034 809,-1056 919,-1056 919,-1034 809,-1034"/>
<text text-anchor="start" x="835.936" y="-1042" font-family="Helvetica,sans-Serif" font-size="10.00">greaterequal</text>
<polygon fill="none" stroke="blue" points="809,-1012 809,-1034 919,-1034 919,-1012 809,-1012"/>
<text text-anchor="start" x="857.052" y="-1020" font-family="Helvetica,sans-Serif" font-size="10.00">0.6</text>
</g>
<!-- id&#45;&gt;dependency299429 -->
<g id="edge1" class="edge">
<title>id:e&#45;&gt;dependency299429:w</title>
<path fill="none" stroke="black" d="M304,-757C356.709,-757 612.519,-1036.32 685.856,-1064.68"/>
<polygon fill="black" stroke="black" points="696,-1067 685.249,-1069.16 691.126,-1065.89 686.251,-1064.77 686.251,-1064.77 686.251,-1064.77 691.126,-1065.89 687.253,-1060.39 696,-1067 696,-1067"/>
</g>
<!-- dependency299430 -->
<g id="node3" class="node">
<title>dependency299430</title>
<polygon fill="none" stroke="red" points="420,-735 420,-779 511,-779 511,-735 420,-735"/>
<text text-anchor="start" x="430.767" y="-754" font-family="Helvetica,sans-Serif" font-size="10.00">use_conditional</text>
<polygon fill="none" stroke="red" points="511,-757 511,-779 554,-779 554,-757 511,-757"/>
<text text-anchor="start" x="515.553" y="-765" font-family="Helvetica,sans-Serif" font-size="10.00">positive</text>
<polygon fill="none" stroke="red" points="511,-735 511,-757 554,-757 554,-735 511,-735"/>
<text text-anchor="start" x="523.332" y="-743" font-family="Helvetica,sans-Serif" font-size="10.00">alsa</text>
</g>
<!-- id&#45;&gt;dependency299430 -->
<g id="edge4" class="edge">
<title>id:e&#45;&gt;dependency299430:w</title>
<path fill="none" stroke="black" d="M304,-757C349.188,-757 362.47,-757 403.919,-757"/>
<ellipse fill="none" stroke="black" cx="408" cy="-757" rx="4" ry="4"/>
</g>
<!-- dependency299433 -->
<g id="node6" class="node">
<title>dependency299433</title>
<polygon fill="none" stroke="blue" points="704,-388 704,-498 809,-498 809,-388 704,-388"/>
<text text-anchor="start" x="734.823" y="-440" font-family="Helvetica,sans-Serif" font-size="10.00">pack_dep</text>
<polygon fill="none" stroke="blue" points="809,-476 809,-498 919,-498 919,-476 809,-476"/>
<text text-anchor="start" x="858.441" y="-484" font-family="Helvetica,sans-Serif" font-size="10.00">no</text>
<polygon fill="none" stroke="blue" points="809,-454 809,-476 919,-476 919,-454 809,-454"/>
<text text-anchor="start" x="841.225" y="-462" font-family="Helvetica,sans-Serif" font-size="10.00">media&#45;libs</text>
<polygon fill="none" stroke="blue" points="809,-432 809,-454 919,-454 919,-432 809,-432"/>
<text text-anchor="start" x="850.663" y="-440" font-family="Helvetica,sans-Serif" font-size="10.00">libogg</text>
<polygon fill="none" stroke="blue" points="809,-410 809,-432 919,-432 919,-410 809,-410"/>
<text text-anchor="start" x="835.936" y="-418" font-family="Helvetica,sans-Serif" font-size="10.00">greaterequal</text>
<polygon fill="none" stroke="blue" points="809,-388 809,-410 919,-410 919,-388 809,-388"/>
<text text-anchor="start" x="852.883" y="-396" font-family="Helvetica,sans-Serif" font-size="10.00">1.3.1</text>
</g>
<!-- id&#45;&gt;dependency299433 -->
<g id="edge5" class="edge">
<title>id:e&#45;&gt;dependency299433:w</title>
<path fill="none" stroke="black" d="M487,-375C566.258,-322.779 596.592,-436.245 687.862,-442.714"/>
<ellipse fill="none" stroke="black" cx="692.002" cy="-442.859" rx="4" ry="4"/>
</g>
<!-- dependency299434 -->
<g id="node7" class="node">
<title>dependency299434</title>
<polygon fill="none" stroke="blue" points="704,-252 704,-362 809,-362 809,-252 704,-252"/>
<text text-anchor="start" x="734.823" y="-304" font-family="Helvetica,sans-Serif" font-size="10.00">pack_dep</text>
<polygon fill="none" stroke="blue" points="809,-340 809,-362 919,-362 919,-340 809,-340"/>
<text text-anchor="start" x="858.441" y="-348" font-family="Helvetica,sans-Serif" font-size="10.00">no</text>
<polygon fill="none" stroke="blue" points="809,-318 809,-340 919,-340 919,-318 809,-318"/>
<text text-anchor="start" x="841.225" y="-326" font-family="Helvetica,sans-Serif" font-size="10.00">media&#45;libs</text>
<polygon fill="none" stroke="blue" points="809,-296 809,-318 919,-318 919,-296 809,-296"/>
<text text-anchor="start" x="852.612" y="-304" font-family="Helvetica,sans-Serif" font-size="10.00">libsdl</text>
<polygon fill="none" stroke="blue" points="809,-274 809,-296 919,-296 919,-274 809,-274"/>
<text text-anchor="start" x="835.936" y="-282" font-family="Helvetica,sans-Serif" font-size="10.00">greaterequal</text>
<polygon fill="none" stroke="blue" points="809,-252 809,-274 919,-274 919,-252 809,-252"/>
<text text-anchor="start" x="843.995" y="-260" font-family="Helvetica,sans-Serif" font-size="10.00">1.2.15&#45;r5</text>
</g>
<!-- id&#45;&gt;dependency299434 -->
<g id="edge6" class="edge">
<title>id:e&#45;&gt;dependency299434:w</title>
<path fill="none" stroke="black" d="M487,-375C566.258,-322.779 596.592,-307.839 687.862,-307.035"/>
<ellipse fill="none" stroke="black" cx="692" cy="-307.017" rx="4" ry="4"/>
</g>
<!-- dependency299435 -->
<g id="node8" class="node">
<title>dependency299435</title>
<polygon fill="none" stroke="blue" points="704,-20 704,-118 809,-118 809,-20 704,-20"/>
<text text-anchor="start" x="734.823" y="-66" font-family="Helvetica,sans-Serif" font-size="10.00">pack_dep</text>
<polygon fill="none" stroke="blue" points="809,-96 809,-118 919,-118 919,-96 809,-96"/>
<text text-anchor="start" x="858.441" y="-104" font-family="Helvetica,sans-Serif" font-size="10.00">no</text>
<polygon fill="none" stroke="blue" points="809,-74 809,-96 919,-96 919,-74 809,-74"/>
<text text-anchor="start" x="850.668" y="-82" font-family="Helvetica,sans-Serif" font-size="10.00">virtual</text>
<polygon fill="none" stroke="blue" points="809,-52 809,-74 919,-74 919,-52 809,-52"/>
<text text-anchor="start" x="848.993" y="-60" font-family="Helvetica,sans-Serif" font-size="10.00">opengl</text>
<polygon fill="none" stroke="blue" points="809,-30 809,-52 919,-52 919,-30 809,-30"/>
<text text-anchor="start" x="852.882" y="-38" font-family="Helvetica,sans-Serif" font-size="10.00">none</text>
<polygon fill="none" stroke="blue" points="809,-20 809,-30 919,-30 919,-20 809,-20"/>
</g>
<!-- id&#45;&gt;dependency299435 -->
<g id="edge7" class="edge">
<title>id:e&#45;&gt;dependency299435:w</title>
<path fill="none" stroke="black" d="M487,-375C622.109,-285.98 534.511,-76.5336 687.551,-69.1978"/>
<ellipse fill="none" stroke="black" cx="692.001" cy="-69.0937" rx="4" ry="4"/>
<path fill="none" stroke="black" d="M304,-757C492.254,-757 329.8,-478.575 487,-375"/>
</g>
<!-- choice971121124597114991044711711011510410510110810045494652 -->
<g id="node9" class="node">
<title>choice971121124597114991044711711011510410510110810045494652</title>
<g id="a_node9"><a xlink:href="../app-arch/unshield-1.4.svg" xlink:title="app&#45;arch/unshield&#45;1.4">
<ellipse fill="none" stroke="red" cx="814" cy="-1216" rx="144" ry="18"/>
<text text-anchor="middle" x="814" y="-1213" font-family="Helvetica,sans-Serif" font-size="10.00">app&#45;arch/unshield&#45;1.4</text>
</a>
</g>
</g>
<!-- dependency299429&#45;&gt;choice971121124597114991044711711011510410510110810045494652 -->
<g id="edge8" class="edge">
<title>dependency299429:e&#45;&gt;choice971121124597114991044711711011510410510110810045494652:w</title>
<path fill="none" stroke="black" stroke-dasharray="1,5" d="M932,-1067C958.222,-1067 950.23,-1107.15 932,-1126 907.859,-1150.96 641.83,-1117 620,-1144 597.708,-1171.58 625.14,-1208.6 659.623,-1215.03"/>
<polygon fill="black" stroke="black" points="670,-1216 659.624,-1219.55 665.022,-1215.53 660.044,-1215.07 660.044,-1215.07 660.044,-1215.07 665.022,-1215.53 660.463,-1210.59 670,-1216 670,-1216"/>
</g>
<!-- choice9711211245971149910447117110115104105101108100454946524650 -->
<g id="node10" class="node">
<title>choice9711211245971149910447117110115104105101108100454946524650</title>
<g id="a_node10"><a xlink:href="../app-arch/unshield-1.4.2.svg" xlink:title="app&#45;arch/unshield&#45;1.4.2">
<ellipse fill="none" stroke="red" cx="814" cy="-1162" rx="144" ry="18"/>
<text text-anchor="middle" x="814" y="-1159" font-family="Helvetica,sans-Serif" font-size="10.00">app&#45;arch/unshield&#45;1.4.2</text>
</a>
</g>
</g>
<!-- dependency299429&#45;&gt;choice9711211245971149910447117110115104105101108100454946524650 -->
<g id="edge9" class="edge">
<title>dependency299429:e&#45;&gt;choice9711211245971149910447117110115104105101108100454946524650:w</title>
<path fill="none" stroke="black" stroke-dasharray="1,5" d="M665.302,-1153.01C666.046,-1149.79 667.782,-1146.38 670,-1144 709.827,-1101.34 892.173,-1168.66 932,-1126 949.895,-1106.83 958.222,-1067 932,-1067"/>
<polygon fill="black" stroke="black" points="670,-1162 661.38,-1155.22 667.684,-1157.57 665.368,-1153.14 665.368,-1153.14 665.368,-1153.14 667.684,-1157.57 669.357,-1151.05 670,-1162 670,-1162"/>
</g>
<!-- dependency299431 -->
<g id="node4" class="node">
<title>dependency299431</title>
<polygon fill="none" stroke="blue" points="704,-822 704,-932 809,-932 809,-822 704,-822"/>
<text text-anchor="start" x="734.823" y="-874" font-family="Helvetica,sans-Serif" font-size="10.00">pack_dep</text>
<polygon fill="none" stroke="blue" points="809,-910 809,-932 919,-932 919,-910 809,-910"/>
<text text-anchor="start" x="858.441" y="-918" font-family="Helvetica,sans-Serif" font-size="10.00">no</text>
<polygon fill="none" stroke="blue" points="809,-888 809,-910 919,-910 919,-888 809,-888"/>
<text text-anchor="start" x="841.225" y="-896" font-family="Helvetica,sans-Serif" font-size="10.00">media&#45;libs</text>
<polygon fill="none" stroke="blue" points="809,-866 809,-888 919,-888 919,-866 809,-866"/>
<text text-anchor="start" x="852.612" y="-874" font-family="Helvetica,sans-Serif" font-size="10.00">libsdl</text>
<polygon fill="none" stroke="blue" points="809,-844 809,-866 919,-866 919,-844 809,-844"/>
<text text-anchor="start" x="835.936" y="-852" font-family="Helvetica,sans-Serif" font-size="10.00">greaterequal</text>
<polygon fill="none" stroke="blue" points="809,-822 809,-844 919,-844 919,-822 809,-822"/>
<text text-anchor="start" x="843.995" y="-830" font-family="Helvetica,sans-Serif" font-size="10.00">1.2.15&#45;r5</text>
</g>
<!-- dependency299430&#45;&gt;dependency299431 -->
<g id="edge2" class="edge">
<title>dependency299430:e&#45;&gt;dependency299431:w</title>
<path fill="none" stroke="black" stroke-dasharray="5,2" d="M562,-757C638.354,-757 618.167,-866.461 685.848,-876.295"/>
<polygon fill="black" stroke="black" points="696,-877 685.712,-880.797 691.012,-876.654 686.024,-876.307 686.024,-876.307 686.024,-876.307 691.012,-876.654 686.336,-871.818 696,-877 696,-877"/>
</g>
<!-- dependency299432 -->
<g id="node5" class="node">
<title>dependency299432</title>
<polygon fill="none" stroke="blue" points="704,-632 704,-742 809,-742 809,-632 704,-632"/>
<text text-anchor="start" x="734.823" y="-684" font-family="Helvetica,sans-Serif" font-size="10.00">pack_dep</text>
<polygon fill="none" stroke="blue" points="809,-720 809,-742 919,-742 919,-720 809,-720"/>
<text text-anchor="start" x="858.441" y="-728" font-family="Helvetica,sans-Serif" font-size="10.00">no</text>
<polygon fill="none" stroke="blue" points="809,-698 809,-720 919,-720 919,-698 809,-698"/>
<text text-anchor="start" x="841.225" y="-706" font-family="Helvetica,sans-Serif" font-size="10.00">media&#45;libs</text>
<polygon fill="none" stroke="blue" points="809,-676 809,-698 919,-698 919,-676 809,-676"/>
<text text-anchor="start" x="845.668" y="-684" font-family="Helvetica,sans-Serif" font-size="10.00">libvorbis</text>
<polygon fill="none" stroke="blue" points="809,-654 809,-676 919,-676 919,-654 809,-654"/>
<text text-anchor="start" x="835.936" y="-662" font-family="Helvetica,sans-Serif" font-size="10.00">greaterequal</text>
<polygon fill="none" stroke="blue" points="809,-632 809,-654 919,-654 919,-632 809,-632"/>
<text text-anchor="start" x="846.774" y="-640" font-family="Helvetica,sans-Serif" font-size="10.00">1.3.3&#45;r1</text>
</g>
<!-- dependency299430&#45;&gt;dependency299432 -->
<g id="edge3" class="edge">
<title>dependency299430:e&#45;&gt;dependency299432:w</title>
<path fill="none" stroke="black" stroke-dasharray="5,2" d="M562,-757C625.649,-757 628.661,-694.188 685.914,-687.563"/>
<polygon fill="black" stroke="black" points="696,-687 686.267,-692.051 691.008,-687.279 686.016,-687.558 686.016,-687.558 686.016,-687.558 691.008,-687.279 685.765,-683.065 696,-687 696,-687"/>
</g>
<!-- choice1091011001059745108105981154710810598115100108454946504649534511457 -->
<g id="node11" class="node">
<title>choice1091011001059745108105981154710810598115100108454946504649534511457</title>
<g id="a_node11"><a xlink:href="../media-libs/libsdl-1.2.15-r9.svg" xlink:title="media&#45;libs/libsdl&#45;1.2.15&#45;r9">
<ellipse fill="none" stroke="red" cx="814" cy="-972" rx="144" ry="18"/>
<text text-anchor="middle" x="814" y="-969" font-family="Helvetica,sans-Serif" font-size="10.00">media&#45;libs/libsdl&#45;1.2.15&#45;r9</text>
</a>
</g>
</g>
<!-- dependency299431&#45;&gt;choice1091011001059745108105981154710810598115100108454946504649534511457 -->
<g id="edge10" class="edge">
<title>dependency299431:e&#45;&gt;choice1091011001059745108105981154710810598115100108454946504649534511457:w</title>
<path fill="none" stroke="black" stroke-dasharray="1,5" d="M665.302,-963.011C666.046,-959.792 667.782,-956.376 670,-954 709.827,-911.343 892.173,-978.657 932,-936 949.895,-916.833 958.222,-877 932,-877"/>
<polygon fill="black" stroke="black" points="670,-972 661.38,-965.221 667.684,-967.569 665.368,-963.137 665.368,-963.137 665.368,-963.137 667.684,-967.569 669.357,-961.053 670,-972 670,-972"/>
</g>
<!-- choice109101100105974510810598115471081059811811111498105115454946514653 -->
<g id="node12" class="node">
<title>choice109101100105974510810598115471081059811811111498105115454946514653</title>
<g id="a_node12"><a xlink:href="../media-libs/libvorbis-1.3.5.svg" xlink:title="media&#45;libs/libvorbis&#45;1.3.5">
<ellipse fill="none" stroke="red" cx="814" cy="-782" rx="144" ry="18"/>
<text text-anchor="middle" x="814" y="-779" font-family="Helvetica,sans-Serif" font-size="10.00">media&#45;libs/libvorbis&#45;1.3.5</text>
</a>
</g>
</g>
<!-- dependency299432&#45;&gt;choice109101100105974510810598115471081059811811111498105115454946514653 -->
<g id="edge11" class="edge">
<title>dependency299432:e&#45;&gt;choice109101100105974510810598115471081059811811111498105115454946514653:w</title>
<path fill="none" stroke="black" stroke-dasharray="1,5" d="M665.302,-773.011C666.046,-769.792 667.782,-766.376 670,-764 709.827,-721.343 892.173,-788.657 932,-746 949.895,-726.833 958.222,-687 932,-687"/>
<polygon fill="black" stroke="black" points="670,-782 661.38,-775.221 667.684,-777.569 665.368,-773.137 665.368,-773.137 665.368,-773.137 667.684,-777.569 669.357,-771.053 670,-782 670,-782"/>
</g>
<!-- choice1091011001059745108105981154710810598111103103454946514650 -->
<g id="node13" class="node">
<title>choice1091011001059745108105981154710810598111103103454946514650</title>
<g id="a_node13"><a xlink:href="../media-libs/libogg-1.3.2.svg" xlink:title="media&#45;libs/libogg&#45;1.3.2">
<ellipse fill="none" stroke="red" cx="814" cy="-592" rx="144" ry="18"/>
<text text-anchor="middle" x="814" y="-589" font-family="Helvetica,sans-Serif" font-size="10.00">media&#45;libs/libogg&#45;1.3.2</text>
</a>
</g>
</g>
<!-- dependency299433&#45;&gt;choice1091011001059745108105981154710810598111103103454946514650 -->
<g id="edge12" class="edge">
<title>dependency299433:e&#45;&gt;choice1091011001059745108105981154710810598111103103454946514650:w</title>
<path fill="none" stroke="black" stroke-dasharray="1,5" d="M932,-443C958.222,-443 950.23,-483.152 932,-502 907.859,-526.959 641.83,-492.996 620,-520 597.708,-547.575 625.14,-584.599 659.623,-591.029"/>
<polygon fill="black" stroke="black" points="670,-592 659.624,-595.548 665.022,-591.534 660.044,-591.068 660.044,-591.068 660.044,-591.068 665.022,-591.534 660.463,-586.587 670,-592 670,-592"/>
</g>
<!-- choice1091011001059745108105981154710810598111103103454946514651 -->
<g id="node14" class="node">
<title>choice1091011001059745108105981154710810598111103103454946514651</title>
<g id="a_node14"><a xlink:href="../media-libs/libogg-1.3.3.svg" xlink:title="media&#45;libs/libogg&#45;1.3.3">
<ellipse fill="none" stroke="red" cx="814" cy="-538" rx="144" ry="18"/>
<text text-anchor="middle" x="814" y="-535" font-family="Helvetica,sans-Serif" font-size="10.00">media&#45;libs/libogg&#45;1.3.3</text>
</a>
</g>
</g>
<!-- dependency299433&#45;&gt;choice1091011001059745108105981154710810598111103103454946514651 -->
<g id="edge13" class="edge">
<title>dependency299433:e&#45;&gt;choice1091011001059745108105981154710810598111103103454946514651:w</title>
<path fill="none" stroke="black" stroke-dasharray="1,5" d="M665.302,-529.011C666.046,-525.792 667.782,-522.376 670,-520 709.827,-477.343 892.173,-544.657 932,-502 949.895,-482.833 958.222,-443 932,-443"/>
<polygon fill="black" stroke="black" points="670,-538 661.38,-531.221 667.684,-533.569 665.368,-529.137 665.368,-529.137 665.368,-529.137 667.684,-533.569 669.357,-527.053 670,-538 670,-538"/>
</g>
<!-- dependency299434&#45;&gt;choice1091011001059745108105981154710810598115100108454946504649534511457 -->
<g id="edge14" class="edge">
<title>dependency299434:e&#45;&gt;choice1091011001059745108105981154710810598115100108454946504649534511457:w</title>
<path fill="none" stroke="black" stroke-dasharray="1,5" d="M932,-307C958.222,-307 950.23,-347.152 932,-366 907.859,-390.959 641.83,-356.996 620,-384 581.441,-431.697 592.038,-881.412 620,-936 630.826,-957.135 639.884,-968.686 659.957,-971.382"/>
<polygon fill="black" stroke="black" points="670,-972 659.742,-975.877 665.009,-971.693 660.019,-971.386 660.019,-971.386 660.019,-971.386 665.009,-971.693 660.295,-966.894 670,-972 670,-972"/>
</g>
<!-- choice118105114116117971084711111210111010310845554648 -->
<g id="node15" class="node">
<title>choice118105114116117971084711111210111010310845554648</title>
<g id="a_node15"><a xlink:href="../virtual/opengl-7.0.svg" xlink:title="virtual/opengl&#45;7.0">
<ellipse fill="none" stroke="red" cx="814" cy="-212" rx="144" ry="18"/>
<text text-anchor="middle" x="814" y="-209" font-family="Helvetica,sans-Serif" font-size="10.00">virtual/opengl&#45;7.0</text>
</a>
</g>
</g>
<!-- dependency299435&#45;&gt;choice118105114116117971084711111210111010310845554648 -->
<g id="edge15" class="edge">
<title>dependency299435:e&#45;&gt;choice118105114116117971084711111210111010310845554648:w</title>
<path fill="none" stroke="black" stroke-dasharray="1,5" d="M932,-69C955.556,-69 948.376,-105.069 932,-122 907.859,-146.959 641.83,-112.996 620,-140 597.708,-167.575 625.14,-204.599 659.623,-211.029"/>
<polygon fill="black" stroke="black" points="670,-212 659.624,-215.548 665.022,-211.534 660.044,-211.068 660.044,-211.068 660.044,-211.068 665.022,-211.534 660.463,-206.587 670,-212 670,-212"/>
</g>
<!-- choice1181051141161179710847111112101110103108455546484511449 -->
<g id="node16" class="node">
<title>choice1181051141161179710847111112101110103108455546484511449</title>
<g id="a_node16"><a xlink:href="../virtual/opengl-7.0-r1.svg" xlink:title="virtual/opengl&#45;7.0&#45;r1">
<ellipse fill="none" stroke="red" cx="814" cy="-158" rx="144" ry="18"/>
<text text-anchor="middle" x="814" y="-155" font-family="Helvetica,sans-Serif" font-size="10.00">virtual/opengl&#45;7.0&#45;r1</text>
</a>
</g>
</g>
<!-- dependency299435&#45;&gt;choice1181051141161179710847111112101110103108455546484511449 -->
<g id="edge16" class="edge">
<title>dependency299435:e&#45;&gt;choice1181051141161179710847111112101110103108455546484511449:w</title>
<path fill="none" stroke="black" stroke-dasharray="1,5" d="M665.302,-149.011C666.046,-145.792 667.782,-142.376 670,-140 709.827,-97.3428 892.173,-164.657 932,-122 948.075,-104.782 955.556,-69 932,-69"/>
<polygon fill="black" stroke="black" points="670,-158 661.38,-151.221 667.684,-153.569 665.368,-149.137 665.368,-149.137 665.368,-149.137 667.684,-153.569 669.357,-147.053 670,-158 670,-158"/>
</g>
</g>
</svg>
