<?xml version="1.0" encoding="UTF-8" standalone="no"?>
<!DOCTYPE svg PUBLIC "-//W3C//DTD SVG 1.1//EN"
 "http://www.w3.org/Graphics/SVG/1.1/DTD/svg11.dtd">
<!-- Generated by graphviz version 12.0.0 (20240704.0754)
 -->
<!-- Title: prolog Pages: 1 -->
<svg width="1324pt" height="1151pt"
 viewBox="0.00 0.00 1324.00 1151.00" xmlns="http://www.w3.org/2000/svg" xmlns:xlink="http://www.w3.org/1999/xlink">
<g id="graph0" class="graph" transform="scale(1 1) rotate(0) translate(4 1147)">
<title>prolog</title>
<polygon fill="white" stroke="none" points="-4,4 -4,-1147 1320,-1147 1320,4 -4,4"/>
<g id="clust1" class="cluster">
<title>cluster_leftcol</title>
<polygon fill="none" stroke="gray" points="8,-480 8,-551 312,-551 312,-480 8,-480"/>
<text text-anchor="start" x="147.25" y="-538.5" font-family="Helvetica,sans-Serif" font-style="italic" font-size="10.00">ebuild</text>
</g>
<g id="clust2" class="cluster">
<title>cluster_midcol</title>
<polygon fill="none" stroke="gray" points="396,-8 396,-1135 920,-1135 920,-8 396,-8"/>
<text text-anchor="start" x="628" y="-1122.5" font-family="Helvetica,sans-Serif" font-style="italic" font-size="10.00">dependencies</text>
</g>
<g id="clust3" class="cluster">
<title>cluster_compile</title>
<polygon fill="#eeeeee" stroke="gray" points="404,-566 404,-1108 912,-1108 912,-566 404,-566"/>
<text text-anchor="start" x="641.12" y="-1095.5" font-family="Helvetica,sans-Serif" font-style="italic" font-size="10.00">compile</text>
</g>
<g id="clust10" class="cluster">
<title>cluster_run</title>
<polygon fill="#eeeeee" stroke="gray" points="404,-16 404,-558 912,-558 912,-16 404,-16"/>
<text text-anchor="start" x="651.25" y="-545.5" font-family="Helvetica,sans-Serif" font-style="italic" font-size="10.00">run</text>
</g>
<g id="clust16" class="cluster">
<title>cluster_choices</title>
<polygon fill="none" stroke="gray" points="1004,-222 1004,-887 1308,-887 1308,-222 1004,-222"/>
<text text-anchor="start" x="1132.38" y="-874.5" font-family="Helvetica,sans-Serif" font-style="italic" font-size="10.00">candidates</text>
</g>
<!-- id -->
<g id="node1" class="node">
<title>id</title>
<g id="a_node1"><a xlink:href="../media-sound/gtick-0.5.5-r1.svg" xlink:title="portage://media&#45;sound/gtick&#45;0.5.5&#45;r1">
<ellipse fill="none" stroke="red" cx="160" cy="-506" rx="144" ry="18"/>
<text text-anchor="middle" x="160" y="-502.12" font-family="Helvetica,sans-Serif" font-size="10.00">portage://media&#45;sound/gtick&#45;0.5.5&#45;r1</text>
</a>
</g>
</g>
<!-- dependency332300 -->
<g id="node2" class="node">
<title>dependency332300</title>
<polygon fill="none" stroke="red" points="420,-790 420,-832 509,-832 509,-790 420,-790"/>
<text text-anchor="start" x="430.75" y="-807.12" font-family="Helvetica,sans-Serif" font-size="10.00">use_conditional</text>
<polygon fill="none" stroke="red" points="509,-811 509,-832 552,-832 552,-811 509,-811"/>
<text text-anchor="start" x="513.62" y="-817.5" font-family="Helvetica,sans-Serif" font-size="10.00">positive</text>
<polygon fill="none" stroke="red" points="509,-790 509,-811 552,-811 552,-790 509,-790"/>
<text text-anchor="start" x="516.25" y="-796.5" font-family="Helvetica,sans-Serif" font-size="10.00">sndfile</text>
</g>
<!-- id&#45;&gt;dependency332300 -->
<g id="edge2" class="edge">
<title>id:e&#45;&gt;dependency332300:w</title>
<path fill="none" stroke="black" d="M305.23,-506C444.8,-506 277.25,-794.55 400.01,-810.33"/>
<polygon fill="black" stroke="black" points="409.85,-810.93 399.6,-814.81 406.08,-810.7 399.87,-810.32 399.87,-810.32 399.87,-810.32 406.08,-810.7 400.15,-805.83 409.85,-810.93"/>
</g>
<!-- dependency332302 -->
<g id="node4" class="node">
<title>dependency332302</title>
<polygon fill="none" stroke="blue" points="676,-840.5 676,-945.5 780,-945.5 780,-840.5 676,-840.5"/>
<text text-anchor="start" x="707" y="-889.12" font-family="Helvetica,sans-Serif" font-size="10.00">pack_dep</text>
<polygon fill="none" stroke="blue" points="780,-924.5 780,-945.5 890,-945.5 890,-924.5 780,-924.5"/>
<text text-anchor="start" x="822.25" y="-931" font-family="Helvetica,sans-Serif" font-size="10.00">install</text>
<polygon fill="none" stroke="blue" points="780,-903.5 780,-924.5 890,-924.5 890,-903.5 780,-903.5"/>
<text text-anchor="start" x="812.88" y="-910" font-family="Helvetica,sans-Serif" font-size="10.00">media&#45;libs</text>
<polygon fill="none" stroke="blue" points="780,-882.5 780,-903.5 890,-903.5 890,-882.5 780,-882.5"/>
<text text-anchor="start" x="818.5" y="-889" font-family="Helvetica,sans-Serif" font-size="10.00">libpulse</text>
<polygon fill="none" stroke="blue" points="780,-861.5 780,-882.5 890,-882.5 890,-861.5 780,-861.5"/>
<text text-anchor="start" x="824.5" y="-868" font-family="Helvetica,sans-Serif" font-size="10.00">none</text>
<polygon fill="none" stroke="blue" points="780,-840.5 780,-861.5 890,-861.5 890,-840.5 780,-840.5"/>
<text text-anchor="start" x="823" y="-847" font-family="Helvetica,sans-Serif" font-size="10.00">[[],,,,]</text>
</g>
<!-- id&#45;&gt;dependency332302 -->
<g id="edge3" class="edge">
<title>id:e&#45;&gt;dependency332302:w</title>
<path fill="none" stroke="black" d="M487,-453C520.52,-452.19 536.34,-448.25 560,-472 693.62,-606.09 483.56,-881.68 656.89,-892.66"/>
<polygon fill="black" stroke="black" points="666.78,-892.96 656.65,-897.16 663,-892.85 656.79,-892.66 656.79,-892.66 656.79,-892.66 663,-892.85 656.92,-888.16 666.78,-892.96"/>
</g>
<!-- dependency332303 -->
<g id="node5" class="node">
<title>dependency332303</title>
<polygon fill="none" stroke="blue" points="676,-709.5 676,-814.5 780,-814.5 780,-709.5 676,-709.5"/>
<text text-anchor="start" x="707" y="-758.12" font-family="Helvetica,sans-Serif" font-size="10.00">pack_dep</text>
<polygon fill="none" stroke="blue" points="780,-793.5 780,-814.5 890,-814.5 890,-793.5 780,-793.5"/>
<text text-anchor="start" x="822.25" y="-800" font-family="Helvetica,sans-Serif" font-size="10.00">install</text>
<polygon fill="none" stroke="blue" points="780,-772.5 780,-793.5 890,-793.5 890,-772.5 780,-772.5"/>
<text text-anchor="start" x="821.88" y="-779" font-family="Helvetica,sans-Serif" font-size="10.00">virtual</text>
<polygon fill="none" stroke="blue" points="780,-751.5 780,-772.5 890,-772.5 890,-751.5 780,-751.5"/>
<text text-anchor="start" x="823.75" y="-758" font-family="Helvetica,sans-Serif" font-size="10.00">libintl</text>
<polygon fill="none" stroke="blue" points="780,-730.5 780,-751.5 890,-751.5 890,-730.5 780,-730.5"/>
<text text-anchor="start" x="824.5" y="-737" font-family="Helvetica,sans-Serif" font-size="10.00">none</text>
<polygon fill="none" stroke="blue" points="780,-709.5 780,-730.5 890,-730.5 890,-709.5 780,-709.5"/>
<text text-anchor="start" x="823" y="-716" font-family="Helvetica,sans-Serif" font-size="10.00">[[],,,,]</text>
</g>
<!-- id&#45;&gt;dependency332303 -->
<g id="edge4" class="edge">
<title>id:e&#45;&gt;dependency332303:w</title>
<path fill="none" stroke="black" d="M487,-453C520.52,-452.19 535.12,-449.53 560,-472 659.19,-561.56 537.73,-750.88 656.95,-761.53"/>
<polygon fill="black" stroke="black" points="666.78,-761.95 656.6,-766.02 663,-761.79 656.79,-761.52 656.79,-761.52 656.79,-761.52 663,-761.79 656.98,-757.03 666.78,-761.95"/>
</g>
<!-- dependency332304 -->
<g id="node6" class="node">
<title>dependency332304</title>
<polygon fill="none" stroke="blue" points="676,-578.5 676,-683.5 780,-683.5 780,-578.5 676,-578.5"/>
<text text-anchor="start" x="707" y="-627.12" font-family="Helvetica,sans-Serif" font-size="10.00">pack_dep</text>
<polygon fill="none" stroke="blue" points="780,-662.5 780,-683.5 890,-683.5 890,-662.5 780,-662.5"/>
<text text-anchor="start" x="822.25" y="-669" font-family="Helvetica,sans-Serif" font-size="10.00">install</text>
<polygon fill="none" stroke="blue" points="780,-641.5 780,-662.5 890,-662.5 890,-641.5 780,-641.5"/>
<text text-anchor="start" x="818.12" y="-648" font-family="Helvetica,sans-Serif" font-size="10.00">x11&#45;libs</text>
<polygon fill="none" stroke="blue" points="780,-620.5 780,-641.5 890,-641.5 890,-620.5 780,-620.5"/>
<text text-anchor="start" x="825.25" y="-627" font-family="Helvetica,sans-Serif" font-size="10.00">gtk+</text>
<polygon fill="none" stroke="blue" points="780,-599.5 780,-620.5 890,-620.5 890,-599.5 780,-599.5"/>
<text text-anchor="start" x="824.5" y="-606" font-family="Helvetica,sans-Serif" font-size="10.00">none</text>
<polygon fill="none" stroke="blue" points="780,-578.5 780,-599.5 890,-599.5 890,-578.5 780,-578.5"/>
<text text-anchor="start" x="823" y="-585" font-family="Helvetica,sans-Serif" font-size="10.00">[[],,,,]</text>
</g>
<!-- id&#45;&gt;dependency332304 -->
<g id="edge5" class="edge">
<title>id:e&#45;&gt;dependency332304:w</title>
<path fill="none" stroke="black" d="M487,-453C520.52,-452.19 532.61,-452.67 560,-472 626.53,-518.94 586.74,-620.84 656.84,-630.29"/>
<polygon fill="black" stroke="black" points="666.78,-630.92 656.52,-634.78 663.01,-630.68 656.8,-630.29 656.8,-630.29 656.8,-630.29 663.01,-630.68 657.09,-625.8 666.78,-630.92"/>
</g>
<!-- dependency332305 -->
<g id="node7" class="node">
<title>dependency332305</title>
<polygon fill="none" stroke="red" points="420,-485 420,-527 509,-527 509,-485 420,-485"/>
<text text-anchor="start" x="430.75" y="-502.12" font-family="Helvetica,sans-Serif" font-size="10.00">use_conditional</text>
<polygon fill="none" stroke="red" points="509,-506 509,-527 552,-527 552,-506 509,-506"/>
<text text-anchor="start" x="513.62" y="-512.5" font-family="Helvetica,sans-Serif" font-size="10.00">positive</text>
<polygon fill="none" stroke="red" points="509,-485 509,-506 552,-506 552,-485 509,-485"/>
<text text-anchor="start" x="516.25" y="-491.5" font-family="Helvetica,sans-Serif" font-size="10.00">sndfile</text>
</g>
<!-- id&#45;&gt;dependency332305 -->
<g id="edge7" class="edge">
<title>id:e&#45;&gt;dependency332305:w</title>
<path fill="none" stroke="black" d="M305.23,-506C349.15,-506 362.31,-506 402.15,-506"/>
<ellipse fill="none" stroke="black" cx="406.57" cy="-506" rx="4" ry="4"/>
</g>
<!-- dependency332307 -->
<g id="node9" class="node">
<title>dependency332307</title>
<polygon fill="none" stroke="blue" points="676,-290.5 676,-395.5 780,-395.5 780,-290.5 676,-290.5"/>
<text text-anchor="start" x="707" y="-339.12" font-family="Helvetica,sans-Serif" font-size="10.00">pack_dep</text>
<polygon fill="none" stroke="blue" points="780,-374.5 780,-395.5 890,-395.5 890,-374.5 780,-374.5"/>
<text text-anchor="start" x="828.25" y="-381" font-family="Helvetica,sans-Serif" font-size="10.00">run</text>
<polygon fill="none" stroke="blue" points="780,-353.5 780,-374.5 890,-374.5 890,-353.5 780,-353.5"/>
<text text-anchor="start" x="812.88" y="-360" font-family="Helvetica,sans-Serif" font-size="10.00">media&#45;libs</text>
<polygon fill="none" stroke="blue" points="780,-332.5 780,-353.5 890,-353.5 890,-332.5 780,-332.5"/>
<text text-anchor="start" x="818.5" y="-339" font-family="Helvetica,sans-Serif" font-size="10.00">libpulse</text>
<polygon fill="none" stroke="blue" points="780,-311.5 780,-332.5 890,-332.5 890,-311.5 780,-311.5"/>
<text text-anchor="start" x="824.5" y="-318" font-family="Helvetica,sans-Serif" font-size="10.00">none</text>
<polygon fill="none" stroke="blue" points="780,-290.5 780,-311.5 890,-311.5 890,-290.5 780,-290.5"/>
<text text-anchor="start" x="823" y="-297" font-family="Helvetica,sans-Serif" font-size="10.00">[[],,,,]</text>
</g>
<!-- id&#45;&gt;dependency332307 -->
<g id="edge8" class="edge">
<title>id:e&#45;&gt;dependency332307:w</title>
<path fill="none" stroke="black" d="M487,-453C578.07,-450.8 574.23,-349.83 659.21,-343.33"/>
<ellipse fill="none" stroke="black" cx="663.5" cy="-343.17" rx="4" ry="4"/>
</g>
<!-- dependency332308 -->
<g id="node10" class="node">
<title>dependency332308</title>
<polygon fill="none" stroke="blue" points="676,-159.5 676,-264.5 780,-264.5 780,-159.5 676,-159.5"/>
<text text-anchor="start" x="707" y="-208.12" font-family="Helvetica,sans-Serif" font-size="10.00">pack_dep</text>
<polygon fill="none" stroke="blue" points="780,-243.5 780,-264.5 890,-264.5 890,-243.5 780,-243.5"/>
<text text-anchor="start" x="828.25" y="-250" font-family="Helvetica,sans-Serif" font-size="10.00">run</text>
<polygon fill="none" stroke="blue" points="780,-222.5 780,-243.5 890,-243.5 890,-222.5 780,-222.5"/>
<text text-anchor="start" x="821.88" y="-229" font-family="Helvetica,sans-Serif" font-size="10.00">virtual</text>
<polygon fill="none" stroke="blue" points="780,-201.5 780,-222.5 890,-222.5 890,-201.5 780,-201.5"/>
<text text-anchor="start" x="823.75" y="-208" font-family="Helvetica,sans-Serif" font-size="10.00">libintl</text>
<polygon fill="none" stroke="blue" points="780,-180.5 780,-201.5 890,-201.5 890,-180.5 780,-180.5"/>
<text text-anchor="start" x="824.5" y="-187" font-family="Helvetica,sans-Serif" font-size="10.00">none</text>
<polygon fill="none" stroke="blue" points="780,-159.5 780,-180.5 890,-180.5 890,-159.5 780,-159.5"/>
<text text-anchor="start" x="823" y="-166" font-family="Helvetica,sans-Serif" font-size="10.00">[[],,,,]</text>
</g>
<!-- id&#45;&gt;dependency332308 -->
<g id="edge9" class="edge">
<title>id:e&#45;&gt;dependency332308:w</title>
<path fill="none" stroke="black" d="M487,-453C617.91,-449.84 537.84,-222.56 659.3,-212.35"/>
<ellipse fill="none" stroke="black" cx="663.5" cy="-212.18" rx="4" ry="4"/>
</g>
<!-- dependency332309 -->
<g id="node11" class="node">
<title>dependency332309</title>
<polygon fill="none" stroke="blue" points="676,-28.5 676,-133.5 780,-133.5 780,-28.5 676,-28.5"/>
<text text-anchor="start" x="707" y="-77.12" font-family="Helvetica,sans-Serif" font-size="10.00">pack_dep</text>
<polygon fill="none" stroke="blue" points="780,-112.5 780,-133.5 890,-133.5 890,-112.5 780,-112.5"/>
<text text-anchor="start" x="828.25" y="-119" font-family="Helvetica,sans-Serif" font-size="10.00">run</text>
<polygon fill="none" stroke="blue" points="780,-91.5 780,-112.5 890,-112.5 890,-91.5 780,-91.5"/>
<text text-anchor="start" x="818.12" y="-98" font-family="Helvetica,sans-Serif" font-size="10.00">x11&#45;libs</text>
<polygon fill="none" stroke="blue" points="780,-70.5 780,-91.5 890,-91.5 890,-70.5 780,-70.5"/>
<text text-anchor="start" x="825.25" y="-77" font-family="Helvetica,sans-Serif" font-size="10.00">gtk+</text>
<polygon fill="none" stroke="blue" points="780,-49.5 780,-70.5 890,-70.5 890,-49.5 780,-49.5"/>
<text text-anchor="start" x="824.5" y="-56" font-family="Helvetica,sans-Serif" font-size="10.00">none</text>
<polygon fill="none" stroke="blue" points="780,-28.5 780,-49.5 890,-49.5 890,-28.5 780,-28.5"/>
<text text-anchor="start" x="823" y="-35" font-family="Helvetica,sans-Serif" font-size="10.00">[[],,,,]</text>
</g>
<!-- id&#45;&gt;dependency332309 -->
<g id="edge10" class="edge">
<title>id:e&#45;&gt;dependency332309:w</title>
<path fill="none" stroke="black" d="M487,-453C667.76,-448.63 490.23,-93.1 659.15,-81.3"/>
<ellipse fill="none" stroke="black" cx="663.5" cy="-81.15" rx="4" ry="4"/>
<path fill="none" stroke="black" d="M305.23,-506C348.31,-506 354.65,-484.09 396,-472 434.82,-460.65 444.56,-453.98 485,-453"/>
</g>
<!-- dependency332301 -->
<g id="node3" class="node">
<title>dependency332301</title>
<polygon fill="none" stroke="blue" points="676,-971.5 676,-1076.5 780,-1076.5 780,-971.5 676,-971.5"/>
<text text-anchor="start" x="707" y="-1020.12" font-family="Helvetica,sans-Serif" font-size="10.00">pack_dep</text>
<polygon fill="none" stroke="blue" points="780,-1055.5 780,-1076.5 890,-1076.5 890,-1055.5 780,-1055.5"/>
<text text-anchor="start" x="822.25" y="-1062" font-family="Helvetica,sans-Serif" font-size="10.00">install</text>
<polygon fill="none" stroke="blue" points="780,-1034.5 780,-1055.5 890,-1055.5 890,-1034.5 780,-1034.5"/>
<text text-anchor="start" x="812.88" y="-1041" font-family="Helvetica,sans-Serif" font-size="10.00">media&#45;libs</text>
<polygon fill="none" stroke="blue" points="780,-1013.5 780,-1034.5 890,-1034.5 890,-1013.5 780,-1013.5"/>
<text text-anchor="start" x="815.88" y="-1020" font-family="Helvetica,sans-Serif" font-size="10.00">libsndfile</text>
<polygon fill="none" stroke="blue" points="780,-992.5 780,-1013.5 890,-1013.5 890,-992.5 780,-992.5"/>
<text text-anchor="start" x="824.5" y="-999" font-family="Helvetica,sans-Serif" font-size="10.00">none</text>
<polygon fill="none" stroke="blue" points="780,-971.5 780,-992.5 890,-992.5 890,-971.5 780,-971.5"/>
<text text-anchor="start" x="823" y="-978" font-family="Helvetica,sans-Serif" font-size="10.00">[[],,,,]</text>
</g>
<!-- dependency332300&#45;&gt;dependency332301 -->
<g id="edge1" class="edge">
<title>dependency332300:e&#45;&gt;dependency332301:w</title>
<path fill="none" stroke="black" stroke-dasharray="5,2" d="M560,-811C662.2,-811 569.31,-1008.48 657.03,-1023.14"/>
<polygon fill="black" stroke="black" points="666.79,-1023.9 656.46,-1027.61 663.02,-1023.61 656.82,-1023.12 656.82,-1023.12 656.82,-1023.12 663.02,-1023.61 657.17,-1018.64 666.79,-1023.9"/>
</g>
<!-- choice10910110010597451081059811547108105981151101001021051081014557575757 -->
<g id="node12" class="node">
<title>choice10910110010597451081059811547108105981151101001021051081014557575757</title>
<g id="a_node12"><a xlink:href="../media-libs/libsndfile-9999.svg" xlink:title="portage://media&#45;libs/libsndfile&#45;9999">
<ellipse fill="none" stroke="red" cx="1156" cy="-788" rx="144" ry="18"/>
<text text-anchor="middle" x="1156" y="-784.12" font-family="Helvetica,sans-Serif" font-size="10.00">portage://media&#45;libs/libsndfile&#45;9999</text>
</a>
</g>
</g>
<!-- dependency332301&#45;&gt;choice10910110010597451081059811547108105981151101001021051081014557575757 -->
<g id="edge11" class="edge">
<title>dependency332301:e&#45;&gt;choice10910110010597451081059811547108105981151101001021051081014557575757:w</title>
<path fill="none" stroke="black" stroke-dasharray="1,5" d="M904.89,-1024C1015.92,-1024 904.01,-803.86 999.8,-788.81"/>
<polygon fill="black" stroke="black" points="1009.55,-788.09 999.91,-793.31 1005.78,-788.37 999.58,-788.82 999.58,-788.82 999.58,-788.82 1005.78,-788.37 999.25,-784.34 1009.55,-788.09"/>
</g>
<!-- choice10910110010597451081059811547108105981151101001021051081014549465046504511450 -->
<g id="node13" class="node">
<title>choice10910110010597451081059811547108105981151101001021051081014549465046504511450</title>
<g id="a_node13"><a xlink:href="../media-libs/libsndfile-1.2.2-r2.svg" xlink:title="portage://media&#45;libs/libsndfile&#45;1.2.2&#45;r2">
<ellipse fill="none" stroke="red" cx="1156" cy="-842" rx="144" ry="18"/>
<text text-anchor="middle" x="1156" y="-838.12" font-family="Helvetica,sans-Serif" font-size="10.00">portage://media&#45;libs/libsndfile&#45;1.2.2&#45;r2</text>
</a>
</g>
</g>
<!-- dependency332301&#45;&gt;choice10910110010597451081059811547108105981151101001021051081014549465046504511450 -->
<g id="edge12" class="edge">
<title>dependency332301:e&#45;&gt;choice10910110010597451081059811547108105981151101001021051081014549465046504511450:w</title>
<path fill="none" stroke="black" stroke-dasharray="1,5" d="M904.89,-1024C994.45,-1024 923.85,-857.3 999.64,-842.98"/>
<polygon fill="black" stroke="black" points="1009.55,-842.11 999.99,-847.47 1005.78,-842.44 999.59,-842.98 999.59,-842.98 999.59,-842.98 1005.78,-842.44 999.2,-838.5 1009.55,-842.11"/>
</g>
<!-- choice1091011001059745108105981154710810598115110100102105108101454946504650 -->
<g id="node14" class="node">
<title>choice1091011001059745108105981154710810598115110100102105108101454946504650</title>
<g id="a_node14"><a xlink:href="../media-libs/libsndfile-1.2.2.svg" xlink:title="portage://media&#45;libs/libsndfile&#45;1.2.2">
<ellipse fill="none" stroke="red" cx="1156" cy="-734" rx="144" ry="18"/>
<text text-anchor="middle" x="1156" y="-730.12" font-family="Helvetica,sans-Serif" font-size="10.00">portage://media&#45;libs/libsndfile&#45;1.2.2</text>
</a>
</g>
</g>
<!-- dependency332301&#45;&gt;choice1091011001059745108105981154710810598115110100102105108101454946504650 -->
<g id="edge13" class="edge">
<title>dependency332301:e&#45;&gt;choice1091011001059745108105981154710810598115110100102105108101454946504650:w</title>
<path fill="none" stroke="black" stroke-dasharray="1,5" d="M904.89,-1024C1038.21,-1024 882.86,-750.19 999.83,-734.68"/>
<polygon fill="black" stroke="black" points="1009.55,-734.08 999.85,-739.19 1005.78,-734.31 999.57,-734.7 999.57,-734.7 999.57,-734.7 1005.78,-734.31 999.29,-730.21 1009.55,-734.08"/>
</g>
<!-- choice10910110010597451081059811547108105981121171081151014549554648 -->
<g id="node15" class="node">
<title>choice10910110010597451081059811547108105981121171081151014549554648</title>
<g id="a_node15"><a xlink:href="../media-libs/libpulse-17.0.svg" xlink:title="portage://media&#45;libs/libpulse&#45;17.0">
<ellipse fill="none" stroke="red" cx="1156" cy="-680" rx="144" ry="18"/>
<text text-anchor="middle" x="1156" y="-676.12" font-family="Helvetica,sans-Serif" font-size="10.00">portage://media&#45;libs/libpulse&#45;17.0</text>
</a>
</g>
</g>
<!-- dependency332302&#45;&gt;choice10910110010597451081059811547108105981121171081151014549554648 -->
<g id="edge14" class="edge">
<title>dependency332302:e&#45;&gt;choice10910110010597451081059811547108105981121171081151014549554648:w</title>
<path fill="none" stroke="black" stroke-dasharray="1,5" d="M904.89,-893C1006.68,-893 912.59,-695.52 999.85,-680.86"/>
<polygon fill="black" stroke="black" points="1009.55,-680.1 999.93,-685.37 1005.78,-680.39 999.58,-680.88 999.58,-680.88 999.58,-680.88 1005.78,-680.39 999.23,-676.39 1009.55,-680.1"/>
</g>
<!-- choice10910110010597451081059811547108105981121171081151014549544657574649 -->
<g id="node16" class="node">
<title>choice10910110010597451081059811547108105981121171081151014549544657574649</title>
<g id="a_node16"><a xlink:href="../media-libs/libpulse-16.99.1.svg" xlink:title="portage://media&#45;libs/libpulse&#45;16.99.1">
<ellipse fill="none" stroke="red" cx="1156" cy="-572" rx="144" ry="18"/>
<text text-anchor="middle" x="1156" y="-568.12" font-family="Helvetica,sans-Serif" font-size="10.00">portage://media&#45;libs/libpulse&#45;16.99.1</text>
</a>
</g>
</g>
<!-- dependency332302&#45;&gt;choice10910110010597451081059811547108105981121171081151014549544657574649 -->
<g id="edge15" class="edge">
<title>dependency332302:e&#45;&gt;choice10910110010597451081059811547108105981121171081151014549544657574649:w</title>
<path fill="none" stroke="black" stroke-dasharray="1,5" d="M904.89,-893C1051.15,-893 870.56,-588.7 999.59,-572.66"/>
<polygon fill="black" stroke="black" points="1009.55,-572.07 999.83,-577.15 1005.77,-572.29 999.57,-572.66 999.57,-572.66 999.57,-572.66 1005.77,-572.29 999.3,-568.17 1009.55,-572.07"/>
</g>
<!-- choice109101100105974510810598115471081059811211710811510145495446494511450 -->
<g id="node17" class="node">
<title>choice109101100105974510810598115471081059811211710811510145495446494511450</title>
<g id="a_node17"><a xlink:href="../media-libs/libpulse-16.1-r2.svg" xlink:title="portage://media&#45;libs/libpulse&#45;16.1&#45;r2">
<ellipse fill="none" stroke="red" cx="1156" cy="-626" rx="144" ry="18"/>
<text text-anchor="middle" x="1156" y="-622.12" font-family="Helvetica,sans-Serif" font-size="10.00">portage://media&#45;libs/libpulse&#45;16.1&#45;r2</text>
</a>
</g>
</g>
<!-- dependency332302&#45;&gt;choice109101100105974510810598115471081059811211710811510145495446494511450 -->
<g id="edge16" class="edge">
<title>dependency332302:e&#45;&gt;choice109101100105974510810598115471081059811211710811510145495446494511450:w</title>
<path fill="none" stroke="black" stroke-dasharray="1,5" d="M904.89,-893C1028.55,-893 892.18,-642.43 999.59,-626.77"/>
<polygon fill="black" stroke="black" points="1009.55,-626.08 999.88,-631.26 1005.78,-626.34 999.57,-626.77 999.57,-626.77 999.57,-626.77 1005.78,-626.34 999.27,-622.28 1009.55,-626.08"/>
</g>
<!-- choice11810511411611797108471081059810511011610845484511450 -->
<g id="node18" class="node">
<title>choice11810511411611797108471081059810511011610845484511450</title>
<g id="a_node18"><a xlink:href="../virtual/libintl-0-r2.svg" xlink:title="portage://virtual/libintl&#45;0&#45;r2">
<ellipse fill="none" stroke="red" cx="1156" cy="-518" rx="144" ry="18"/>
<text text-anchor="middle" x="1156" y="-514.12" font-family="Helvetica,sans-Serif" font-size="10.00">portage://virtual/libintl&#45;0&#45;r2</text>
</a>
</g>
</g>
<!-- dependency332303&#45;&gt;choice11810511411611797108471081059810511011610845484511450 -->
<g id="edge17" class="edge">
<title>dependency332303:e&#45;&gt;choice11810511411611797108471081059810511011610845484511450:w</title>
<path fill="none" stroke="black" stroke-dasharray="1,5" d="M904.89,-762C1019.18,-762 900.95,-533.93 999.79,-518.79"/>
<polygon fill="black" stroke="black" points="1009.55,-518.09 999.9,-523.29 1005.78,-518.36 999.58,-518.8 999.58,-518.8 999.58,-518.8 1005.78,-518.36 999.25,-514.32 1009.55,-518.09"/>
</g>
<!-- choice12049494510810598115471031161074345514650524652504511449 -->
<g id="node19" class="node">
<title>choice12049494510810598115471031161074345514650524652504511449</title>
<g id="a_node19"><a xlink:href="../x11-libs/gtk+-3.24.42-r1.svg" xlink:title="portage://x11&#45;libs/gtk+&#45;3.24.42&#45;r1">
<ellipse fill="none" stroke="red" cx="1156" cy="-464" rx="144" ry="18"/>
<text text-anchor="middle" x="1156" y="-460.12" font-family="Helvetica,sans-Serif" font-size="10.00">portage://x11&#45;libs/gtk+&#45;3.24.42&#45;r1</text>
</a>
</g>
</g>
<!-- dependency332304&#45;&gt;choice12049494510810598115471031161074345514650524652504511449 -->
<g id="edge18" class="edge">
<title>dependency332304:e&#45;&gt;choice12049494510810598115471031161074345514650524652504511449:w</title>
<path fill="none" stroke="black" stroke-dasharray="1,5" d="M904.89,-631C988.82,-631 928.84,-478.67 999.85,-464.98"/>
<polygon fill="black" stroke="black" points="1009.55,-464.11 999.99,-469.49 1005.79,-464.45 999.59,-465 999.59,-465 999.59,-465 1005.79,-464.45 999.19,-460.52 1009.55,-464.11"/>
</g>
<!-- choice12049494510810598115471031161074345514650524652494511449 -->
<g id="node20" class="node">
<title>choice12049494510810598115471031161074345514650524652494511449</title>
<g id="a_node20"><a xlink:href="../x11-libs/gtk+-3.24.41-r1.svg" xlink:title="portage://x11&#45;libs/gtk+&#45;3.24.41&#45;r1">
<ellipse fill="none" stroke="red" cx="1156" cy="-248" rx="144" ry="18"/>
<text text-anchor="middle" x="1156" y="-244.12" font-family="Helvetica,sans-Serif" font-size="10.00">portage://x11&#45;libs/gtk+&#45;3.24.41&#45;r1</text>
</a>
</g>
</g>
<!-- dependency332304&#45;&gt;choice12049494510810598115471031161074345514650524652494511449 -->
<g id="edge19" class="edge">
<title>dependency332304:e&#45;&gt;choice12049494510810598115471031161074345514650524652494511449:w</title>
<path fill="none" stroke="black" stroke-dasharray="1,5" d="M904.89,-631C1077.7,-631 844.59,-264.28 999.96,-248.52"/>
<polygon fill="black" stroke="black" points="1009.55,-248.06 999.78,-253.04 1005.77,-248.24 999.56,-248.54 999.56,-248.54 999.56,-248.54 1005.77,-248.24 999.34,-244.05 1009.55,-248.06"/>
</g>
<!-- choice1204949451081059811547103116107434551465052465249 -->
<g id="node21" class="node">
<title>choice1204949451081059811547103116107434551465052465249</title>
<g id="a_node21"><a xlink:href="../x11-libs/gtk+-3.24.41.svg" xlink:title="portage://x11&#45;libs/gtk+&#45;3.24.41">
<ellipse fill="none" stroke="red" cx="1156" cy="-302" rx="144" ry="18"/>
<text text-anchor="middle" x="1156" y="-298.12" font-family="Helvetica,sans-Serif" font-size="10.00">portage://x11&#45;libs/gtk+&#45;3.24.41</text>
</a>
</g>
</g>
<!-- dependency332304&#45;&gt;choice1204949451081059811547103116107434551465052465249 -->
<g id="edge20" class="edge">
<title>dependency332304:e&#45;&gt;choice1204949451081059811547103116107434551465052465249:w</title>
<path fill="none" stroke="black" stroke-dasharray="1,5" d="M904.89,-631C1054.6,-631 867.15,-318.49 999.74,-302.63"/>
<polygon fill="black" stroke="black" points="1009.55,-302.07 999.82,-307.13 1005.77,-302.28 999.57,-302.64 999.57,-302.64 999.57,-302.64 1005.77,-302.28 999.31,-298.14 1009.55,-302.07"/>
</g>
<!-- choice1204949451081059811547103116107434551465052465153 -->
<g id="node22" class="node">
<title>choice1204949451081059811547103116107434551465052465153</title>
<g id="a_node22"><a xlink:href="../x11-libs/gtk+-3.24.35.svg" xlink:title="portage://x11&#45;libs/gtk+&#45;3.24.35">
<ellipse fill="none" stroke="red" cx="1156" cy="-356" rx="144" ry="18"/>
<text text-anchor="middle" x="1156" y="-352.12" font-family="Helvetica,sans-Serif" font-size="10.00">portage://x11&#45;libs/gtk+&#45;3.24.35</text>
</a>
</g>
</g>
<!-- dependency332304&#45;&gt;choice1204949451081059811547103116107434551465052465153 -->
<g id="edge21" class="edge">
<title>dependency332304:e&#45;&gt;choice1204949451081059811547103116107434551465052465153:w</title>
<path fill="none" stroke="black" stroke-dasharray="1,5" d="M904.89,-631C1031.89,-631 888.98,-372.4 999.64,-356.74"/>
<polygon fill="black" stroke="black" points="1009.55,-356.08 999.87,-361.24 1005.78,-356.33 999.57,-356.75 999.57,-356.75 999.57,-356.75 1005.78,-356.33 999.27,-352.26 1009.55,-356.08"/>
</g>
<!-- choice12049494510810598115471031161074345504650524651514511451 -->
<g id="node23" class="node">
<title>choice12049494510810598115471031161074345504650524651514511451</title>
<g id="a_node23"><a xlink:href="../x11-libs/gtk+-2.24.33-r3.svg" xlink:title="portage://x11&#45;libs/gtk+&#45;2.24.33&#45;r3">
<ellipse fill="none" stroke="red" cx="1156" cy="-410" rx="144" ry="18"/>
<text text-anchor="middle" x="1156" y="-406.12" font-family="Helvetica,sans-Serif" font-size="10.00">portage://x11&#45;libs/gtk+&#45;2.24.33&#45;r3</text>
</a>
</g>
</g>
<!-- dependency332304&#45;&gt;choice12049494510810598115471031161074345504650524651514511451 -->
<g id="edge22" class="edge">
<title>dependency332304:e&#45;&gt;choice12049494510810598115471031161074345504650524651514511451:w</title>
<path fill="none" stroke="black" stroke-dasharray="1,5" d="M904.89,-631C1009.87,-631 909.65,-425.68 999.8,-410.84"/>
<polygon fill="black" stroke="black" points="1009.55,-410.09 999.93,-415.35 1005.78,-410.38 999.58,-410.86 999.58,-410.86 999.58,-410.86 1005.78,-410.38 999.23,-406.38 1009.55,-410.09"/>
</g>
<!-- dependency332306 -->
<g id="node8" class="node">
<title>dependency332306</title>
<polygon fill="none" stroke="blue" points="676,-421.5 676,-526.5 780,-526.5 780,-421.5 676,-421.5"/>
<text text-anchor="start" x="707" y="-470.12" font-family="Helvetica,sans-Serif" font-size="10.00">pack_dep</text>
<polygon fill="none" stroke="blue" points="780,-505.5 780,-526.5 890,-526.5 890,-505.5 780,-505.5"/>
<text text-anchor="start" x="828.25" y="-512" font-family="Helvetica,sans-Serif" font-size="10.00">run</text>
<polygon fill="none" stroke="blue" points="780,-484.5 780,-505.5 890,-505.5 890,-484.5 780,-484.5"/>
<text text-anchor="start" x="812.88" y="-491" font-family="Helvetica,sans-Serif" font-size="10.00">media&#45;libs</text>
<polygon fill="none" stroke="blue" points="780,-463.5 780,-484.5 890,-484.5 890,-463.5 780,-463.5"/>
<text text-anchor="start" x="815.88" y="-470" font-family="Helvetica,sans-Serif" font-size="10.00">libsndfile</text>
<polygon fill="none" stroke="blue" points="780,-442.5 780,-463.5 890,-463.5 890,-442.5 780,-442.5"/>
<text text-anchor="start" x="824.5" y="-449" font-family="Helvetica,sans-Serif" font-size="10.00">none</text>
<polygon fill="none" stroke="blue" points="780,-421.5 780,-442.5 890,-442.5 890,-421.5 780,-421.5"/>
<text text-anchor="start" x="823" y="-428" font-family="Helvetica,sans-Serif" font-size="10.00">[[],,,,]</text>
</g>
<!-- dependency332305&#45;&gt;dependency332306 -->
<g id="edge6" class="edge">
<title>dependency332305:e&#45;&gt;dependency332306:w</title>
<path fill="none" stroke="black" stroke-dasharray="5,2" d="M560,-506C606.15,-506 616.45,-478.8 657,-474.56"/>
<polygon fill="black" stroke="black" points="666.78,-474.06 657.02,-479.06 663.01,-474.25 656.8,-474.57 656.8,-474.57 656.8,-474.57 663.01,-474.25 656.57,-470.07 666.78,-474.06"/>
</g>
<!-- dependency332306&#45;&gt;choice10910110010597451081059811547108105981151101001021051081014557575757 -->
<g id="edge23" class="edge">
<title>dependency332306:e&#45;&gt;choice10910110010597451081059811547108105981151101001021051081014557575757:w</title>
<path fill="none" stroke="black" stroke-dasharray="1,5" d="M904.89,-474C1048.28,-474 873.21,-771.66 999.8,-787.36"/>
<polygon fill="black" stroke="black" points="1009.55,-787.93 999.3,-791.83 1005.77,-787.71 999.57,-787.34 999.57,-787.34 999.57,-787.34 1005.77,-787.71 999.83,-782.85 1009.55,-787.93"/>
</g>
<!-- dependency332306&#45;&gt;choice10910110010597451081059811547108105981151101001021051081014549465046504511450 -->
<g id="edge24" class="edge">
<title>dependency332306:e&#45;&gt;choice10910110010597451081059811547108105981151101001021051081014549465046504511450:w</title>
<path fill="none" stroke="black" stroke-dasharray="1,5" d="M904.89,-474C1071.26,-474 850.91,-825.65 999.9,-841.45"/>
<polygon fill="black" stroke="black" points="1009.55,-841.94 999.33,-845.93 1005.77,-841.75 999.56,-841.43 999.56,-841.43 999.56,-841.43 1005.77,-841.75 999.79,-836.94 1009.55,-841.94"/>
</g>
<!-- dependency332306&#45;&gt;choice1091011001059745108105981154710810598115110100102105108101454946504650 -->
<g id="edge25" class="edge">
<title>dependency332306:e&#45;&gt;choice1091011001059745108105981154710810598115110100102105108101454946504650:w</title>
<path fill="none" stroke="black" stroke-dasharray="1,5" d="M904.89,-474C1025.76,-474 894.71,-718 999.84,-733.25"/>
<polygon fill="black" stroke="black" points="1009.55,-733.92 999.27,-737.73 1005.78,-733.66 999.57,-733.24 999.57,-733.24 999.57,-733.24 1005.78,-733.66 999.88,-728.75 1009.55,-733.92"/>
</g>
<!-- dependency332307&#45;&gt;choice10910110010597451081059811547108105981121171081151014549554648 -->
<g id="edge26" class="edge">
<title>dependency332307:e&#45;&gt;choice10910110010597451081059811547108105981121171081151014549554648:w</title>
<path fill="none" stroke="black" stroke-dasharray="1,5" d="M904.89,-343C1058.05,-343 863.71,-663.75 999.91,-679.41"/>
<polygon fill="black" stroke="black" points="1009.55,-679.93 999.32,-683.88 1005.77,-679.73 999.56,-679.39 999.56,-679.39 999.56,-679.39 1005.77,-679.73 999.81,-674.89 1009.55,-679.93"/>
</g>
<!-- dependency332307&#45;&gt;choice10910110010597451081059811547108105981121171081151014549544657574649 -->
<g id="edge27" class="edge">
<title>dependency332307:e&#45;&gt;choice10910110010597451081059811547108105981121171081151014549544657574649:w</title>
<path fill="none" stroke="black" stroke-dasharray="1,5" d="M904.89,-343C1013.08,-343 906.67,-556.18 999.77,-571.17"/>
<polygon fill="black" stroke="black" points="1009.55,-571.91 999.24,-575.64 1005.78,-571.62 999.58,-571.16 999.58,-571.16 999.58,-571.16 1005.78,-571.62 999.92,-566.67 1009.55,-571.91"/>
</g>
<!-- dependency332307&#45;&gt;choice109101100105974510810598115471081059811211710811510145495446494511450 -->
<g id="edge28" class="edge">
<title>dependency332307:e&#45;&gt;choice109101100105974510810598115471081059811211710811510145495446494511450:w</title>
<path fill="none" stroke="black" stroke-dasharray="1,5" d="M904.89,-343C1035.25,-343 885.75,-609.66 999.71,-625.29"/>
<polygon fill="black" stroke="black" points="1009.55,-625.92 999.28,-629.77 1005.78,-625.68 999.57,-625.28 999.57,-625.28 999.57,-625.28 1005.78,-625.68 999.86,-620.79 1009.55,-625.92"/>
</g>
<!-- dependency332308&#45;&gt;choice11810511411611797108471081059810511011610845484511450 -->
<g id="edge29" class="edge">
<title>dependency332308:e&#45;&gt;choice11810511411611797108471081059810511011610845484511450:w</title>
<path fill="none" stroke="black" stroke-dasharray="1,5" d="M904.89,-212C1044.86,-212 876.56,-501.49 999.68,-517.33"/>
<polygon fill="black" stroke="black" points="1009.55,-517.93 999.29,-521.81 1005.77,-517.7 999.57,-517.32 999.57,-517.32 999.57,-517.32 1005.77,-517.7 999.84,-512.83 1009.55,-517.93"/>
</g>
<!-- dependency332309&#45;&gt;choice12049494510810598115471031161074345514650524652504511449 -->
<g id="edge30" class="edge">
<title>dependency332309:e&#45;&gt;choice12049494510810598115471031161074345514650524652504511449:w</title>
<path fill="none" stroke="black" stroke-dasharray="1,5" d="M904.89,-81C1077.7,-81 844.59,-447.72 999.96,-463.48"/>
<polygon fill="black" stroke="black" points="1009.55,-463.94 999.34,-467.95 1005.77,-463.76 999.56,-463.46 999.56,-463.46 999.56,-463.46 1005.77,-463.76 999.78,-458.96 1009.55,-463.94"/>
</g>
<!-- dependency332309&#45;&gt;choice12049494510810598115471031161074345514650524652494511449 -->
<g id="edge31" class="edge">
<title>dependency332309:e&#45;&gt;choice12049494510810598115471031161074345514650524652494511449:w</title>
<path fill="none" stroke="black" stroke-dasharray="1,5" d="M904.89,-81C988.82,-81 928.84,-233.33 999.85,-247.02"/>
<polygon fill="black" stroke="black" points="1009.55,-247.89 999.19,-251.48 1005.79,-247.55 999.59,-247 999.59,-247 999.59,-247 1005.79,-247.55 999.99,-242.51 1009.55,-247.89"/>
</g>
<!-- dependency332309&#45;&gt;choice1204949451081059811547103116107434551465052465249 -->
<g id="edge32" class="edge">
<title>dependency332309:e&#45;&gt;choice1204949451081059811547103116107434551465052465249:w</title>
<path fill="none" stroke="black" stroke-dasharray="1,5" d="M904.89,-81C1009.87,-81 909.65,-286.32 999.8,-301.16"/>
<polygon fill="black" stroke="black" points="1009.55,-301.91 999.23,-305.62 1005.78,-301.62 999.58,-301.14 999.58,-301.14 999.58,-301.14 1005.78,-301.62 999.93,-296.65 1009.55,-301.91"/>
</g>
<!-- dependency332309&#45;&gt;choice1204949451081059811547103116107434551465052465153 -->
<g id="edge33" class="edge">
<title>dependency332309:e&#45;&gt;choice1204949451081059811547103116107434551465052465153:w</title>
<path fill="none" stroke="black" stroke-dasharray="1,5" d="M904.89,-81C1031.89,-81 888.98,-339.6 999.64,-355.26"/>
<polygon fill="black" stroke="black" points="1009.55,-355.92 999.27,-359.74 1005.78,-355.67 999.57,-355.25 999.57,-355.25 999.57,-355.25 1005.78,-355.67 999.87,-350.76 1009.55,-355.92"/>
</g>
<!-- dependency332309&#45;&gt;choice12049494510810598115471031161074345504650524651514511451 -->
<g id="edge34" class="edge">
<title>dependency332309:e&#45;&gt;choice12049494510810598115471031161074345504650524651514511451:w</title>
<path fill="none" stroke="black" stroke-dasharray="1,5" d="M904.89,-81C1054.6,-81 867.15,-393.51 999.74,-409.37"/>
<polygon fill="black" stroke="black" points="1009.55,-409.93 999.31,-413.86 1005.77,-409.72 999.57,-409.36 999.57,-409.36 999.57,-409.36 1005.77,-409.72 999.82,-404.87 1009.55,-409.93"/>
</g>
</g>
</svg>
