<?xml version="1.0" encoding="UTF-8" standalone="no"?>
<!DOCTYPE svg PUBLIC "-//W3C//DTD SVG 1.1//EN"
 "http://www.w3.org/Graphics/SVG/1.1/DTD/svg11.dtd">
<!-- Generated by graphviz version 2.39.20160721.2101 (20160721.2101)
 -->
<!-- Title: prolog Pages: 1 -->
<svg width="1068pt" height="547pt"
 viewBox="0.00 0.00 1068.00 547.00" xmlns="http://www.w3.org/2000/svg" xmlns:xlink="http://www.w3.org/1999/xlink">
<g id="graph0" class="graph" transform="scale(1 1) rotate(0) translate(4 543)">
<title>prolog</title>
<polygon fill="white" stroke="transparent" points="-4,4 -4,-543 1064,-543 1064,4 -4,4"/>
<g id="clust1" class="cluster">
<title>cluster_leftcol</title>
<polygon fill="none" stroke="gray" points="8,-272 8,-344 312,-344 312,-272 8,-272"/>
<text text-anchor="start" x="146.663" y="-332" font-family="Helvetica,sans-Serif" font-style="italic" font-size="10.00">ebuild</text>
</g>
<g id="clust2" class="cluster">
<title>cluster_midcol</title>
<polygon fill="none" stroke="gray" points="396,-67 396,-531 664,-531 664,-67 396,-67"/>
<text text-anchor="start" x="498.875" y="-519" font-family="Helvetica,sans-Serif" font-style="italic" font-size="10.00">dependencies</text>
</g>
<g id="clust3" class="cluster">
<title>cluster_compile</title>
<polygon fill="#eeeeee" stroke="gray" points="404,-237 404,-503 656,-503 656,-237 404,-237"/>
<text text-anchor="start" x="512.778" y="-491" font-family="Helvetica,sans-Serif" font-style="italic" font-size="10.00">compile</text>
</g>
<g id="clust6" class="cluster">
<title>cluster_compileandrun</title>
<polygon fill="#eeeeee" stroke="gray" points="404,-75 404,-229 656,-229 656,-75 404,-75"/>
<text text-anchor="start" x="494.437" y="-217" font-family="Helvetica,sans-Serif" font-style="italic" font-size="10.00">compile and run</text>
</g>
<g id="clust9" class="cluster">
<title>cluster_choices</title>
<polygon fill="none" stroke="gray" points="748,-8 748,-404 1052,-404 1052,-8 748,-8"/>
<text text-anchor="start" x="875.824" y="-392" font-family="Helvetica,sans-Serif" font-style="italic" font-size="10.00">candidates</text>
</g>
<!-- id -->
<g id="node1" class="node">
<title>id</title>
<g id="a_node1"><a xlink:href="../media-sound/mp3splt-2.6.1a.svg" xlink:title="media&#45;sound/mp3splt&#45;2.6.1a">
<ellipse fill="none" stroke="red" cx="160" cy="-298" rx="144" ry="18"/>
<text text-anchor="middle" x="160" y="-295" font-family="Helvetica,sans-Serif" font-size="10.00">media&#45;sound/mp3splt&#45;2.6.1a</text>
</a>
</g>
</g>
<!-- dependency382886 -->
<g id="node2" class="node">
<title>dependency382886</title>
<polygon fill="none" stroke="blue" points="420,-373 420,-471 525,-471 525,-373 420,-373"/>
<text text-anchor="start" x="450.823" y="-419" font-family="Helvetica,sans-Serif" font-size="10.00">pack_dep</text>
<polygon fill="none" stroke="blue" points="525,-449 525,-471 635,-471 635,-449 525,-449"/>
<text text-anchor="start" x="574.441" y="-457" font-family="Helvetica,sans-Serif" font-size="10.00">no</text>
<polygon fill="none" stroke="blue" points="525,-427 525,-449 635,-449 635,-427 525,-427"/>
<text text-anchor="start" x="558.888" y="-435" font-family="Helvetica,sans-Serif" font-size="10.00">sys&#45;devel</text>
<polygon fill="none" stroke="blue" points="525,-405 525,-427 635,-427 635,-405 525,-405"/>
<text text-anchor="start" x="564.993" y="-413" font-family="Helvetica,sans-Serif" font-size="10.00">gettext</text>
<polygon fill="none" stroke="blue" points="525,-383 525,-405 635,-405 635,-383 525,-383"/>
<text text-anchor="start" x="568.882" y="-391" font-family="Helvetica,sans-Serif" font-size="10.00">none</text>
<polygon fill="none" stroke="blue" points="525,-373 525,-383 635,-383 635,-373 525,-373"/>
</g>
<!-- id&#45;&gt;dependency382886 -->
<g id="edge1" class="edge">
<title>id:e&#45;&gt;dependency382886:w</title>
<path fill="none" stroke="black" d="M304,-298C373.372,-298 342.506,-409.726 401.698,-421.073"/>
<polygon fill="black" stroke="black" points="412,-422 401.637,-425.586 407.02,-421.552 402.04,-421.104 402.04,-421.104 402.04,-421.104 407.02,-421.552 402.443,-416.622 412,-422 412,-422"/>
</g>
<!-- dependency382887 -->
<g id="node3" class="node">
<title>dependency382887</title>
<polygon fill="none" stroke="blue" points="420,-249 420,-347 525,-347 525,-249 420,-249"/>
<text text-anchor="start" x="450.823" y="-295" font-family="Helvetica,sans-Serif" font-size="10.00">pack_dep</text>
<polygon fill="none" stroke="blue" points="525,-325 525,-347 635,-347 635,-325 525,-325"/>
<text text-anchor="start" x="574.441" y="-333" font-family="Helvetica,sans-Serif" font-size="10.00">no</text>
<polygon fill="none" stroke="blue" points="525,-303 525,-325 635,-325 635,-303 525,-303"/>
<text text-anchor="start" x="566.668" y="-311" font-family="Helvetica,sans-Serif" font-size="10.00">virtual</text>
<polygon fill="none" stroke="blue" points="525,-281 525,-303 635,-303 635,-281 525,-281"/>
<text text-anchor="start" x="558.604" y="-289" font-family="Helvetica,sans-Serif" font-size="10.00">pkgconfig</text>
<polygon fill="none" stroke="blue" points="525,-259 525,-281 635,-281 635,-259 525,-259"/>
<text text-anchor="start" x="568.882" y="-267" font-family="Helvetica,sans-Serif" font-size="10.00">none</text>
<polygon fill="none" stroke="blue" points="525,-249 525,-259 635,-259 635,-249 525,-249"/>
</g>
<!-- id&#45;&gt;dependency382887 -->
<g id="edge2" class="edge">
<title>id:e&#45;&gt;dependency382887:w</title>
<path fill="none" stroke="black" d="M304,-298C348.438,-298 362.02,-298 401.878,-298"/>
<polygon fill="black" stroke="black" points="412,-298 402,-302.5 407,-298 402,-298 402,-298 402,-298 407,-298 402,-293.5 412,-298 412,-298"/>
</g>
<!-- dependency382888 -->
<g id="node4" class="node">
<title>dependency382888</title>
<polygon fill="none" stroke="blue" points="420,-87 420,-197 525,-197 525,-87 420,-87"/>
<text text-anchor="start" x="450.823" y="-139" font-family="Helvetica,sans-Serif" font-size="10.00">pack_dep</text>
<polygon fill="none" stroke="blue" points="525,-175 525,-197 635,-197 635,-175 525,-175"/>
<text text-anchor="start" x="574.441" y="-183" font-family="Helvetica,sans-Serif" font-size="10.00">no</text>
<polygon fill="none" stroke="blue" points="525,-153 525,-175 635,-175 635,-153 525,-153"/>
<text text-anchor="start" x="557.225" y="-161" font-family="Helvetica,sans-Serif" font-size="10.00">media&#45;libs</text>
<polygon fill="none" stroke="blue" points="525,-131 525,-153 635,-153 635,-131 525,-131"/>
<text text-anchor="start" x="557.5" y="-139" font-family="Helvetica,sans-Serif" font-size="10.00">libmp3splt</text>
<polygon fill="none" stroke="blue" points="525,-109 525,-131 635,-131 635,-109 525,-109"/>
<text text-anchor="start" x="570.832" y="-117" font-family="Helvetica,sans-Serif" font-size="10.00">tilde</text>
<polygon fill="none" stroke="blue" points="525,-87 525,-109 635,-109 635,-87 525,-87"/>
<text text-anchor="start" x="566.103" y="-95" font-family="Helvetica,sans-Serif" font-size="10.00">0.9.1a</text>
</g>
<!-- id&#45;&gt;dependency382888 -->
<g id="edge3" class="edge">
<title>id:e&#45;&gt;dependency382888:w</title>
<path fill="none" stroke="black" d="M304,-298C381.41,-298 336.648,-166.544 394.014,-144.977"/>
<ellipse fill="none" stroke="black" cx="408.054" cy="-142.653" rx="4" ry="4"/>
<polygon fill="black" stroke="black" points="404.107,-143.306 394.976,-149.379 399.175,-144.123 394.242,-144.939 394.242,-144.939 394.242,-144.939 399.175,-144.123 393.507,-140.5 404.107,-143.306 404.107,-143.306"/>
</g>
<!-- choice1151211154510010111810110847103101116116101120116454846495746564649 -->
<g id="node5" class="node">
<title>choice1151211154510010111810110847103101116116101120116454846495746564649</title>
<g id="a_node5"><a xlink:href="../sys-devel/gettext-0.19.8.1.svg" xlink:title="sys&#45;devel/gettext&#45;0.19.8.1">
<ellipse fill="none" stroke="red" cx="900" cy="-358" rx="144" ry="18"/>
<text text-anchor="middle" x="900" y="-355" font-family="Helvetica,sans-Serif" font-size="10.00">sys&#45;devel/gettext&#45;0.19.8.1</text>
</a>
</g>
</g>
<!-- dependency382886&#45;&gt;choice1151211154510010111810110847103101116116101120116454846495746564649 -->
<g id="edge4" class="edge">
<title>dependency382886:e&#45;&gt;choice1151211154510010111810110847103101116116101120116454846495746564649:w</title>
<path fill="none" stroke="black" stroke-dasharray="1,5" d="M648,-422C700.199,-422 700.421,-365.984 745.92,-358.763"/>
<polygon fill="black" stroke="black" points="756,-358 746.368,-363.242 751.014,-358.378 746.029,-358.755 746.029,-358.755 746.029,-358.755 751.014,-358.378 745.689,-354.268 756,-358 756,-358"/>
</g>
<!-- choice11810511411611797108471121071039911111010210510345484511449 -->
<g id="node6" class="node">
<title>choice11810511411611797108471121071039911111010210510345484511449</title>
<g id="a_node6"><a xlink:href="../virtual/pkgconfig-0-r1.svg" xlink:title="virtual/pkgconfig&#45;0&#45;r1">
<ellipse fill="none" stroke="red" cx="900" cy="-304" rx="144" ry="18"/>
<text text-anchor="middle" x="900" y="-301" font-family="Helvetica,sans-Serif" font-size="10.00">virtual/pkgconfig&#45;0&#45;r1</text>
</a>
</g>
</g>
<!-- dependency382887&#45;&gt;choice11810511411611797108471121071039911111010210510345484511449 -->
<g id="edge5" class="edge">
<title>dependency382887:e&#45;&gt;choice11810511411611797108471121071039911111010210510345484511449:w</title>
<path fill="none" stroke="black" stroke-dasharray="1,5" d="M648,-298C692.506,-298 705.967,-303.142 745.865,-303.906"/>
<polygon fill="black" stroke="black" points="756,-304 745.959,-308.407 751,-303.953 746,-303.907 746,-303.907 746,-303.907 751,-303.953 746.042,-299.407 756,-304 756,-304"/>
</g>
<!-- choice109101100105974510810598115471081059810911251115112108116454846554651 -->
<g id="node7" class="node">
<title>choice109101100105974510810598115471081059810911251115112108116454846554651</title>
<g id="a_node7"><a xlink:href="../media-libs/libmp3splt-0.7.3.svg" xlink:title="media&#45;libs/libmp3splt&#45;0.7.3">
<ellipse fill="none" stroke="red" cx="900" cy="-250" rx="144" ry="18"/>
<text text-anchor="middle" x="900" y="-247" font-family="Helvetica,sans-Serif" font-size="10.00">media&#45;libs/libmp3splt&#45;0.7.3</text>
</a>
</g>
</g>
<!-- dependency382888&#45;&gt;choice109101100105974510810598115471081059810911251115112108116454846554651 -->
<g id="edge6" class="edge">
<title>dependency382888:e&#45;&gt;choice109101100105974510810598115471081059810911251115112108116454846554651:w</title>
<path fill="none" stroke="black" stroke-dasharray="1,5" d="M648,-142C712.303,-142 690.78,-238.91 746.031,-249.131"/>
<polygon fill="black" stroke="black" points="756,-250 745.647,-253.614 751.019,-249.566 746.038,-249.131 746.038,-249.131 746.038,-249.131 751.019,-249.566 746.429,-244.648 756,-250 756,-250"/>
</g>
<!-- choice109101100105974510810598115471081059810911251115112108116454846574648 -->
<g id="node8" class="node">
<title>choice109101100105974510810598115471081059810911251115112108116454846574648</title>
<g id="a_node8"><a xlink:href="../media-libs/libmp3splt-0.9.0.svg" xlink:title="media&#45;libs/libmp3splt&#45;0.9.0">
<ellipse fill="none" stroke="red" cx="900" cy="-196" rx="144" ry="18"/>
<text text-anchor="middle" x="900" y="-193" font-family="Helvetica,sans-Serif" font-size="10.00">media&#45;libs/libmp3splt&#45;0.9.0</text>
</a>
</g>
</g>
<!-- dependency382888&#45;&gt;choice109101100105974510810598115471081059810911251115112108116454846574648 -->
<g id="edge7" class="edge">
<title>dependency382888:e&#45;&gt;choice109101100105974510810598115471081059810911251115112108116454846574648:w</title>
<path fill="none" stroke="black" stroke-dasharray="1,5" d="M648,-142C698.102,-142 702.012,-189.066 745.979,-195.317"/>
<polygon fill="black" stroke="black" points="756,-196 745.717,-199.81 751.012,-195.66 746.023,-195.32 746.023,-195.32 746.023,-195.32 751.012,-195.66 746.329,-190.831 756,-196 756,-196"/>
</g>
<!-- choice109101100105974510810598115471081059810911251115112108116454846574649 -->
<g id="node9" class="node">
<title>choice109101100105974510810598115471081059810911251115112108116454846574649</title>
<g id="a_node9"><a xlink:href="../media-libs/libmp3splt-0.9.1.svg" xlink:title="media&#45;libs/libmp3splt&#45;0.9.1">
<ellipse fill="none" stroke="red" cx="900" cy="-142" rx="144" ry="18"/>
<text text-anchor="middle" x="900" y="-139" font-family="Helvetica,sans-Serif" font-size="10.00">media&#45;libs/libmp3splt&#45;0.9.1</text>
</a>
</g>
</g>
<!-- dependency382888&#45;&gt;choice109101100105974510810598115471081059810911251115112108116454846574649 -->
<g id="edge8" class="edge">
<title>dependency382888:e&#45;&gt;choice109101100105974510810598115471081059810911251115112108116454846574649:w</title>
<path fill="none" stroke="black" stroke-dasharray="1,5" d="M648,-142C692.438,-142 706.02,-142 745.878,-142"/>
<polygon fill="black" stroke="black" points="756,-142 746,-146.5 751,-142 746,-142 746,-142 746,-142 751,-142 746,-137.5 756,-142 756,-142"/>
</g>
<!-- choice10910110010597451081059811547108105981091125111511210811645484657464997 -->
<g id="node10" class="node">
<title>choice10910110010597451081059811547108105981091125111511210811645484657464997</title>
<g id="a_node10"><a xlink:href="../media-libs/libmp3splt-0.9.1a.svg" xlink:title="media&#45;libs/libmp3splt&#45;0.9.1a">
<ellipse fill="none" stroke="red" cx="900" cy="-88" rx="144" ry="18"/>
<text text-anchor="middle" x="900" y="-85" font-family="Helvetica,sans-Serif" font-size="10.00">media&#45;libs/libmp3splt&#45;0.9.1a</text>
</a>
</g>
</g>
<!-- dependency382888&#45;&gt;choice10910110010597451081059811547108105981091125111511210811645484657464997 -->
<g id="edge9" class="edge">
<title>dependency382888:e&#45;&gt;choice10910110010597451081059811547108105981091125111511210811645484657464997:w</title>
<path fill="none" stroke="black" stroke-dasharray="1,5" d="M648,-142C698.102,-142 702.012,-94.9337 745.979,-88.6828"/>
<polygon fill="black" stroke="black" points="756,-88 746.329,-93.1694 751.012,-88.3399 746.023,-88.6798 746.023,-88.6798 746.023,-88.6798 751.012,-88.3399 745.717,-84.1902 756,-88 756,-88"/>
</g>
<!-- choice109101100105974510810598115471081059810911251115112108116454846574650 -->
<g id="node11" class="node">
<title>choice109101100105974510810598115471081059810911251115112108116454846574650</title>
<g id="a_node11"><a xlink:href="../media-libs/libmp3splt-0.9.2.svg" xlink:title="media&#45;libs/libmp3splt&#45;0.9.2">
<ellipse fill="none" stroke="red" cx="900" cy="-34" rx="144" ry="18"/>
<text text-anchor="middle" x="900" y="-31" font-family="Helvetica,sans-Serif" font-size="10.00">media&#45;libs/libmp3splt&#45;0.9.2</text>
</a>
</g>
</g>
<!-- dependency382888&#45;&gt;choice109101100105974510810598115471081059810911251115112108116454846574650 -->
<g id="edge10" class="edge">
<title>dependency382888:e&#45;&gt;choice109101100105974510810598115471081059810911251115112108116454846574650:w</title>
<path fill="none" stroke="black" stroke-dasharray="1,5" d="M648,-142C712.303,-142 690.78,-45.0903 746.031,-34.8693"/>
<polygon fill="black" stroke="black" points="756,-34 746.429,-39.3518 751.019,-34.4344 746.038,-34.8688 746.038,-34.8688 746.038,-34.8688 751.019,-34.4344 745.647,-30.3858 756,-34 756,-34"/>
</g>
</g>
</svg>
