<?xml version="1.0" encoding="UTF-8" standalone="no"?>
<!DOCTYPE svg PUBLIC "-//W3C//DTD SVG 1.1//EN"
 "http://www.w3.org/Graphics/SVG/1.1/DTD/svg11.dtd">
<!-- Generated by graphviz version 12.0.0 (20240704.0754)
 -->
<!-- Title: prolog Pages: 1 -->
<svg width="1075pt" height="2008pt"
 viewBox="0.00 0.00 1075.26 2008.00" xmlns="http://www.w3.org/2000/svg" xmlns:xlink="http://www.w3.org/1999/xlink">
<g id="graph0" class="graph" transform="scale(1 1) rotate(0) translate(4 2004)">
<title>prolog</title>
<polygon fill="white" stroke="none" points="-4,4 -4,-2004 1071.26,-2004 1071.26,4 -4,4"/>
<g id="clust1" class="cluster">
<title>cluster_leftcol</title>
<polygon fill="none" stroke="gray" points="8,-954 8,-1026 319.26,-1026 319.26,-954 8,-954"/>
<text text-anchor="start" x="150.88" y="-1013.5" font-family="Helvetica,sans-Serif" font-style="italic" font-size="10.00">ebuild</text>
</g>
<g id="clust2" class="cluster">
<title>cluster_midcol</title>
<polygon fill="none" stroke="gray" points="403.26,-8 403.26,-1992 671.26,-1992 671.26,-8 403.26,-8"/>
<text text-anchor="start" x="507.26" y="-1979.5" font-family="Helvetica,sans-Serif" font-style="italic" font-size="10.00">dependencies</text>
</g>
<g id="clust3" class="cluster">
<title>cluster_compile</title>
<polygon fill="#eeeeee" stroke="gray" points="411.26,-16 411.26,-986 663.26,-986 663.26,-16 411.26,-16"/>
<text text-anchor="start" x="520.38" y="-973.5" font-family="Helvetica,sans-Serif" font-style="italic" font-size="10.00">compile</text>
</g>
<g id="clust12" class="cluster">
<title>cluster_run</title>
<polygon fill="#eeeeee" stroke="gray" points="411.26,-994 411.26,-1964 663.26,-1964 663.26,-994 411.26,-994"/>
<text text-anchor="start" x="530.51" y="-1951.5" font-family="Helvetica,sans-Serif" font-style="italic" font-size="10.00">run</text>
</g>
<g id="clust20" class="cluster">
<title>cluster_choices</title>
<polygon fill="none" stroke="gray" points="755.26,-765 755.26,-1431 1059.26,-1431 1059.26,-765 755.26,-765"/>
<text text-anchor="start" x="883.63" y="-1418.5" font-family="Helvetica,sans-Serif" font-style="italic" font-size="10.00">candidates</text>
</g>
<!-- id -->
<g id="node1" class="node">
<title>id</title>
<g id="a_node1"><a xlink:href="../media-sound/qtscrobbler-0.11_pre20130123.svg" xlink:title="portage://media&#45;sound/qtscrobbler&#45;0.11_pre20130123">
<ellipse fill="none" stroke="red" cx="163.63" cy="-980" rx="147.63" ry="18"/>
<text text-anchor="middle" x="163.63" y="-976.5" font-family="Helvetica,sans-Serif" font-size="10.00">portage://media&#45;sound/qtscrobbler&#45;0.11_pre20130123</text>
</a>
</g>
</g>
<!-- dependency318161 -->
<g id="node2" class="node">
<title>dependency318161</title>
<polygon fill="none" stroke="blue" points="427.26,-28 427.26,-138 531.26,-138 531.26,-28 427.26,-28"/>
<text text-anchor="start" x="458.26" y="-79.5" font-family="Helvetica,sans-Serif" font-size="10.00">pack_dep</text>
<polygon fill="none" stroke="blue" points="531.26,-116 531.26,-138 641.26,-138 641.26,-116 531.26,-116"/>
<text text-anchor="start" x="573.51" y="-123.5" font-family="Helvetica,sans-Serif" font-size="10.00">install</text>
<polygon fill="none" stroke="blue" points="531.26,-94 531.26,-116 641.26,-116 641.26,-94 531.26,-94"/>
<text text-anchor="start" x="572.76" y="-101.5" font-family="Helvetica,sans-Serif" font-size="10.00">dev&#45;qt</text>
<polygon fill="none" stroke="blue" points="531.26,-72 531.26,-94 641.26,-94 641.26,-72 531.26,-72"/>
<text text-anchor="start" x="572.76" y="-79.5" font-family="Helvetica,sans-Serif" font-size="10.00">qtcore</text>
<polygon fill="none" stroke="blue" points="531.26,-50 531.26,-72 641.26,-72 641.26,-50 531.26,-50"/>
<text text-anchor="start" x="575.76" y="-57.5" font-family="Helvetica,sans-Serif" font-size="10.00">none</text>
<polygon fill="none" stroke="blue" points="531.26,-28 531.26,-50 641.26,-50 641.26,-28 531.26,-28"/>
<text text-anchor="start" x="580.26" y="-35.5" font-family="Helvetica,sans-Serif" font-size="10.00">[,,]</text>
</g>
<!-- id&#45;&gt;dependency318161 -->
<g id="edge1" class="edge">
<title>id:e&#45;&gt;dependency318161:w</title>
<path fill="none" stroke="black" d="M312.5,-980C509.39,-980 228.73,-116.84 407.44,-83.96"/>
<polygon fill="black" stroke="black" points="417.16,-83.11 407.59,-88.47 413.39,-83.44 407.19,-83.98 407.19,-83.98 407.19,-83.98 413.39,-83.44 406.8,-79.5 417.16,-83.11"/>
</g>
<!-- dependency318162 -->
<g id="node3" class="node">
<title>dependency318162</title>
<polygon fill="none" stroke="blue" points="427.26,-164 427.26,-274 531.26,-274 531.26,-164 427.26,-164"/>
<text text-anchor="start" x="458.26" y="-215.5" font-family="Helvetica,sans-Serif" font-size="10.00">pack_dep</text>
<polygon fill="none" stroke="blue" points="531.26,-252 531.26,-274 641.26,-274 641.26,-252 531.26,-252"/>
<text text-anchor="start" x="573.51" y="-259.5" font-family="Helvetica,sans-Serif" font-size="10.00">install</text>
<polygon fill="none" stroke="blue" points="531.26,-230 531.26,-252 641.26,-252 641.26,-230 531.26,-230"/>
<text text-anchor="start" x="572.76" y="-237.5" font-family="Helvetica,sans-Serif" font-size="10.00">dev&#45;qt</text>
<polygon fill="none" stroke="blue" points="531.26,-208 531.26,-230 641.26,-230 641.26,-208 531.26,-208"/>
<text text-anchor="start" x="575.76" y="-215.5" font-family="Helvetica,sans-Serif" font-size="10.00">qtgui</text>
<polygon fill="none" stroke="blue" points="531.26,-186 531.26,-208 641.26,-208 641.26,-186 531.26,-186"/>
<text text-anchor="start" x="575.76" y="-193.5" font-family="Helvetica,sans-Serif" font-size="10.00">none</text>
<polygon fill="none" stroke="blue" points="531.26,-164 531.26,-186 641.26,-186 641.26,-164 531.26,-164"/>
<text text-anchor="start" x="580.26" y="-171.5" font-family="Helvetica,sans-Serif" font-size="10.00">[,,]</text>
</g>
<!-- id&#45;&gt;dependency318162 -->
<g id="edge2" class="edge">
<title>id:e&#45;&gt;dependency318162:w</title>
<path fill="none" stroke="black" d="M312.5,-980C479.4,-980 258.01,-252.8 407.47,-220.13"/>
<polygon fill="black" stroke="black" points="417.16,-219.13 407.68,-224.64 413.4,-219.52 407.21,-220.16 407.21,-220.16 407.21,-220.16 413.4,-219.52 406.74,-215.69 417.16,-219.13"/>
</g>
<!-- dependency318163 -->
<g id="node4" class="node">
<title>dependency318163</title>
<polygon fill="none" stroke="blue" points="427.26,-300 427.26,-410 531.26,-410 531.26,-300 427.26,-300"/>
<text text-anchor="start" x="458.26" y="-351.5" font-family="Helvetica,sans-Serif" font-size="10.00">pack_dep</text>
<polygon fill="none" stroke="blue" points="531.26,-388 531.26,-410 641.26,-410 641.26,-388 531.26,-388"/>
<text text-anchor="start" x="573.51" y="-395.5" font-family="Helvetica,sans-Serif" font-size="10.00">install</text>
<polygon fill="none" stroke="blue" points="531.26,-366 531.26,-388 641.26,-388 641.26,-366 531.26,-366"/>
<text text-anchor="start" x="572.76" y="-373.5" font-family="Helvetica,sans-Serif" font-size="10.00">dev&#45;qt</text>
<polygon fill="none" stroke="blue" points="531.26,-344 531.26,-366 641.26,-366 641.26,-344 531.26,-344"/>
<text text-anchor="start" x="564.88" y="-351.5" font-family="Helvetica,sans-Serif" font-size="10.00">qtnetwork</text>
<polygon fill="none" stroke="blue" points="531.26,-322 531.26,-344 641.26,-344 641.26,-322 531.26,-322"/>
<text text-anchor="start" x="575.76" y="-329.5" font-family="Helvetica,sans-Serif" font-size="10.00">none</text>
<polygon fill="none" stroke="blue" points="531.26,-300 531.26,-322 641.26,-322 641.26,-300 531.26,-300"/>
<text text-anchor="start" x="580.26" y="-307.5" font-family="Helvetica,sans-Serif" font-size="10.00">[,,]</text>
</g>
<!-- id&#45;&gt;dependency318163 -->
<g id="edge3" class="edge">
<title>id:e&#45;&gt;dependency318163:w</title>
<path fill="none" stroke="black" d="M312.5,-980C449.51,-980 286.88,-388.71 407.51,-356.38"/>
<polygon fill="black" stroke="black" points="417.16,-355.15 407.81,-360.88 413.41,-355.63 407.24,-356.41 407.24,-356.41 407.24,-356.41 413.41,-355.63 406.67,-351.95 417.16,-355.15"/>
</g>
<!-- dependency318164 -->
<g id="node5" class="node">
<title>dependency318164</title>
<polygon fill="none" stroke="blue" points="427.26,-436 427.26,-546 531.26,-546 531.26,-436 427.26,-436"/>
<text text-anchor="start" x="458.26" y="-487.5" font-family="Helvetica,sans-Serif" font-size="10.00">pack_dep</text>
<polygon fill="none" stroke="blue" points="531.26,-524 531.26,-546 641.26,-546 641.26,-524 531.26,-524"/>
<text text-anchor="start" x="573.51" y="-531.5" font-family="Helvetica,sans-Serif" font-size="10.00">install</text>
<polygon fill="none" stroke="blue" points="531.26,-502 531.26,-524 641.26,-524 641.26,-502 531.26,-502"/>
<text text-anchor="start" x="572.76" y="-509.5" font-family="Helvetica,sans-Serif" font-size="10.00">dev&#45;qt</text>
<polygon fill="none" stroke="blue" points="531.26,-480 531.26,-502 641.26,-502 641.26,-480 531.26,-480"/>
<text text-anchor="start" x="575.76" y="-487.5" font-family="Helvetica,sans-Serif" font-size="10.00">qtsql</text>
<polygon fill="none" stroke="blue" points="531.26,-458 531.26,-480 641.26,-480 641.26,-458 531.26,-458"/>
<text text-anchor="start" x="575.76" y="-465.5" font-family="Helvetica,sans-Serif" font-size="10.00">none</text>
<polygon fill="none" stroke="blue" points="531.26,-436 531.26,-458 641.26,-458 641.26,-436 531.26,-436"/>
<text text-anchor="start" x="580.26" y="-443.5" font-family="Helvetica,sans-Serif" font-size="10.00">[,,]</text>
</g>
<!-- id&#45;&gt;dependency318164 -->
<g id="edge4" class="edge">
<title>id:e&#45;&gt;dependency318164:w</title>
<path fill="none" stroke="black" d="M312.5,-980C531.07,-980 207.42,-507.57 407.45,-491.42"/>
<polygon fill="black" stroke="black" points="417.15,-491.05 407.33,-495.93 413.37,-491.19 407.16,-491.44 407.16,-491.44 407.16,-491.44 413.37,-491.19 406.98,-486.94 417.15,-491.05"/>
</g>
<!-- dependency318165 -->
<g id="node6" class="node">
<title>dependency318165</title>
<polygon fill="none" stroke="blue" points="427.26,-572 427.26,-682 531.26,-682 531.26,-572 427.26,-572"/>
<text text-anchor="start" x="458.26" y="-623.5" font-family="Helvetica,sans-Serif" font-size="10.00">pack_dep</text>
<polygon fill="none" stroke="blue" points="531.26,-660 531.26,-682 641.26,-682 641.26,-660 531.26,-660"/>
<text text-anchor="start" x="573.51" y="-667.5" font-family="Helvetica,sans-Serif" font-size="10.00">install</text>
<polygon fill="none" stroke="blue" points="531.26,-638 531.26,-660 641.26,-660 641.26,-638 531.26,-638"/>
<text text-anchor="start" x="572.76" y="-645.5" font-family="Helvetica,sans-Serif" font-size="10.00">dev&#45;qt</text>
<polygon fill="none" stroke="blue" points="531.26,-616 531.26,-638 641.26,-638 641.26,-616 531.26,-616"/>
<text text-anchor="start" x="565.26" y="-623.5" font-family="Helvetica,sans-Serif" font-size="10.00">qtwidgets</text>
<polygon fill="none" stroke="blue" points="531.26,-594 531.26,-616 641.26,-616 641.26,-594 531.26,-594"/>
<text text-anchor="start" x="575.76" y="-601.5" font-family="Helvetica,sans-Serif" font-size="10.00">none</text>
<polygon fill="none" stroke="blue" points="531.26,-572 531.26,-594 641.26,-594 641.26,-572 531.26,-572"/>
<text text-anchor="start" x="580.26" y="-579.5" font-family="Helvetica,sans-Serif" font-size="10.00">[,,]</text>
</g>
<!-- id&#45;&gt;dependency318165 -->
<g id="edge5" class="edge">
<title>id:e&#45;&gt;dependency318165:w</title>
<path fill="none" stroke="black" d="M312.5,-980C472.45,-980 264.76,-643.35 407.48,-627.57"/>
<polygon fill="black" stroke="black" points="417.15,-627.06 407.4,-632.08 413.38,-627.26 407.17,-627.59 407.17,-627.59 407.17,-627.59 413.38,-627.26 406.93,-623.1 417.15,-627.06"/>
</g>
<!-- dependency318166 -->
<g id="node7" class="node">
<title>dependency318166</title>
<polygon fill="none" stroke="blue" points="427.26,-708 427.26,-818 531.26,-818 531.26,-708 427.26,-708"/>
<text text-anchor="start" x="458.26" y="-759.5" font-family="Helvetica,sans-Serif" font-size="10.00">pack_dep</text>
<polygon fill="none" stroke="blue" points="531.26,-796 531.26,-818 641.26,-818 641.26,-796 531.26,-796"/>
<text text-anchor="start" x="573.51" y="-803.5" font-family="Helvetica,sans-Serif" font-size="10.00">install</text>
<polygon fill="none" stroke="blue" points="531.26,-774 531.26,-796 641.26,-796 641.26,-774 531.26,-774"/>
<text text-anchor="start" x="564.13" y="-781.5" font-family="Helvetica,sans-Serif" font-size="10.00">media&#45;libs</text>
<polygon fill="none" stroke="blue" points="531.26,-752 531.26,-774 641.26,-774 641.26,-752 531.26,-752"/>
<text text-anchor="start" x="573.13" y="-759.5" font-family="Helvetica,sans-Serif" font-size="10.00">libmtp</text>
<polygon fill="none" stroke="blue" points="531.26,-730 531.26,-752 641.26,-752 641.26,-730 531.26,-730"/>
<text text-anchor="start" x="575.76" y="-737.5" font-family="Helvetica,sans-Serif" font-size="10.00">none</text>
<polygon fill="none" stroke="blue" points="531.26,-708 531.26,-730 641.26,-730 641.26,-708 531.26,-708"/>
<text text-anchor="start" x="580.26" y="-715.5" font-family="Helvetica,sans-Serif" font-size="10.00">[,,]</text>
</g>
<!-- id&#45;&gt;dependency318166 -->
<g id="edge6" class="edge">
<title>id:e&#45;&gt;dependency318166:w</title>
<path fill="none" stroke="black" d="M312.5,-980C415.83,-980 318.83,-778.81 407.29,-763.87"/>
<polygon fill="black" stroke="black" points="417.15,-763.1 407.54,-768.37 413.38,-763.39 407.19,-763.88 407.19,-763.88 407.19,-763.88 413.38,-763.39 406.83,-759.4 417.15,-763.1"/>
</g>
<!-- dependency318167 -->
<g id="node8" class="node">
<title>dependency318167</title>
<polygon fill="none" stroke="blue" points="427.26,-844 427.26,-954 531.26,-954 531.26,-844 427.26,-844"/>
<text text-anchor="start" x="458.26" y="-895.5" font-family="Helvetica,sans-Serif" font-size="10.00">pack_dep</text>
<polygon fill="none" stroke="blue" points="531.26,-932 531.26,-954 641.26,-954 641.26,-932 531.26,-932"/>
<text text-anchor="start" x="573.51" y="-939.5" font-family="Helvetica,sans-Serif" font-size="10.00">install</text>
<polygon fill="none" stroke="blue" points="531.26,-910 531.26,-932 641.26,-932 641.26,-910 531.26,-910"/>
<text text-anchor="start" x="567.51" y="-917.5" font-family="Helvetica,sans-Serif" font-size="10.00">net&#45;misc</text>
<polygon fill="none" stroke="blue" points="531.26,-888 531.26,-910 641.26,-910 641.26,-888 531.26,-888"/>
<text text-anchor="start" x="578.38" y="-895.5" font-family="Helvetica,sans-Serif" font-size="10.00">curl</text>
<polygon fill="none" stroke="blue" points="531.26,-866 531.26,-888 641.26,-888 641.26,-866 531.26,-866"/>
<text text-anchor="start" x="575.76" y="-873.5" font-family="Helvetica,sans-Serif" font-size="10.00">none</text>
<polygon fill="none" stroke="blue" points="531.26,-844 531.26,-866 641.26,-866 641.26,-844 531.26,-844"/>
<text text-anchor="start" x="580.26" y="-851.5" font-family="Helvetica,sans-Serif" font-size="10.00">[,,]</text>
</g>
<!-- id&#45;&gt;dependency318167 -->
<g id="edge7" class="edge">
<title>id:e&#45;&gt;dependency318167:w</title>
<path fill="none" stroke="black" d="M312.5,-980C367.81,-980 360.48,-909.4 407.47,-900.02"/>
<polygon fill="black" stroke="black" points="417.16,-899.11 407.62,-904.53 413.39,-899.47 407.2,-900.05 407.2,-900.05 407.2,-900.05 413.39,-899.47 406.78,-895.57 417.16,-899.11"/>
</g>
<!-- dependency318168 -->
<g id="node9" class="node">
<title>dependency318168</title>
<polygon fill="none" stroke="blue" points="427.26,-1006 427.26,-1116 531.26,-1116 531.26,-1006 427.26,-1006"/>
<text text-anchor="start" x="458.26" y="-1057.5" font-family="Helvetica,sans-Serif" font-size="10.00">pack_dep</text>
<polygon fill="none" stroke="blue" points="531.26,-1094 531.26,-1116 641.26,-1116 641.26,-1094 531.26,-1094"/>
<text text-anchor="start" x="579.51" y="-1101.5" font-family="Helvetica,sans-Serif" font-size="10.00">run</text>
<polygon fill="none" stroke="blue" points="531.26,-1072 531.26,-1094 641.26,-1094 641.26,-1072 531.26,-1072"/>
<text text-anchor="start" x="572.76" y="-1079.5" font-family="Helvetica,sans-Serif" font-size="10.00">dev&#45;qt</text>
<polygon fill="none" stroke="blue" points="531.26,-1050 531.26,-1072 641.26,-1072 641.26,-1050 531.26,-1050"/>
<text text-anchor="start" x="572.76" y="-1057.5" font-family="Helvetica,sans-Serif" font-size="10.00">qtcore</text>
<polygon fill="none" stroke="blue" points="531.26,-1028 531.26,-1050 641.26,-1050 641.26,-1028 531.26,-1028"/>
<text text-anchor="start" x="575.76" y="-1035.5" font-family="Helvetica,sans-Serif" font-size="10.00">none</text>
<polygon fill="none" stroke="blue" points="531.26,-1006 531.26,-1028 641.26,-1028 641.26,-1006 531.26,-1006"/>
<text text-anchor="start" x="580.26" y="-1013.5" font-family="Helvetica,sans-Serif" font-size="10.00">[,,]</text>
</g>
<!-- id&#45;&gt;dependency318168 -->
<g id="edge8" class="edge">
<title>id:e&#45;&gt;dependency318168:w</title>
<path fill="none" stroke="black" d="M312.5,-980C368.62,-980 360.25,-1052.68 409.57,-1060.35"/>
<ellipse fill="none" stroke="black" cx="413.88" cy="-1060.67" rx="4" ry="4"/>
</g>
<!-- dependency318169 -->
<g id="node10" class="node">
<title>dependency318169</title>
<polygon fill="none" stroke="blue" points="427.26,-1142 427.26,-1252 531.26,-1252 531.26,-1142 427.26,-1142"/>
<text text-anchor="start" x="458.26" y="-1193.5" font-family="Helvetica,sans-Serif" font-size="10.00">pack_dep</text>
<polygon fill="none" stroke="blue" points="531.26,-1230 531.26,-1252 641.26,-1252 641.26,-1230 531.26,-1230"/>
<text text-anchor="start" x="579.51" y="-1237.5" font-family="Helvetica,sans-Serif" font-size="10.00">run</text>
<polygon fill="none" stroke="blue" points="531.26,-1208 531.26,-1230 641.26,-1230 641.26,-1208 531.26,-1208"/>
<text text-anchor="start" x="572.76" y="-1215.5" font-family="Helvetica,sans-Serif" font-size="10.00">dev&#45;qt</text>
<polygon fill="none" stroke="blue" points="531.26,-1186 531.26,-1208 641.26,-1208 641.26,-1186 531.26,-1186"/>
<text text-anchor="start" x="575.76" y="-1193.5" font-family="Helvetica,sans-Serif" font-size="10.00">qtgui</text>
<polygon fill="none" stroke="blue" points="531.26,-1164 531.26,-1186 641.26,-1186 641.26,-1164 531.26,-1164"/>
<text text-anchor="start" x="575.76" y="-1171.5" font-family="Helvetica,sans-Serif" font-size="10.00">none</text>
<polygon fill="none" stroke="blue" points="531.26,-1142 531.26,-1164 641.26,-1164 641.26,-1142 531.26,-1142"/>
<text text-anchor="start" x="580.26" y="-1149.5" font-family="Helvetica,sans-Serif" font-size="10.00">[,,]</text>
</g>
<!-- id&#45;&gt;dependency318169 -->
<g id="edge9" class="edge">
<title>id:e&#45;&gt;dependency318169:w</title>
<path fill="none" stroke="black" d="M312.5,-980C416.66,-980 317.24,-1184.47 409.48,-1196.45"/>
<ellipse fill="none" stroke="black" cx="413.88" cy="-1196.72" rx="4" ry="4"/>
</g>
<!-- dependency318170 -->
<g id="node11" class="node">
<title>dependency318170</title>
<polygon fill="none" stroke="blue" points="427.26,-1278 427.26,-1388 531.26,-1388 531.26,-1278 427.26,-1278"/>
<text text-anchor="start" x="458.26" y="-1329.5" font-family="Helvetica,sans-Serif" font-size="10.00">pack_dep</text>
<polygon fill="none" stroke="blue" points="531.26,-1366 531.26,-1388 641.26,-1388 641.26,-1366 531.26,-1366"/>
<text text-anchor="start" x="579.51" y="-1373.5" font-family="Helvetica,sans-Serif" font-size="10.00">run</text>
<polygon fill="none" stroke="blue" points="531.26,-1344 531.26,-1366 641.26,-1366 641.26,-1344 531.26,-1344"/>
<text text-anchor="start" x="572.76" y="-1351.5" font-family="Helvetica,sans-Serif" font-size="10.00">dev&#45;qt</text>
<polygon fill="none" stroke="blue" points="531.26,-1322 531.26,-1344 641.26,-1344 641.26,-1322 531.26,-1322"/>
<text text-anchor="start" x="564.88" y="-1329.5" font-family="Helvetica,sans-Serif" font-size="10.00">qtnetwork</text>
<polygon fill="none" stroke="blue" points="531.26,-1300 531.26,-1322 641.26,-1322 641.26,-1300 531.26,-1300"/>
<text text-anchor="start" x="575.76" y="-1307.5" font-family="Helvetica,sans-Serif" font-size="10.00">none</text>
<polygon fill="none" stroke="blue" points="531.26,-1278 531.26,-1300 641.26,-1300 641.26,-1278 531.26,-1278"/>
<text text-anchor="start" x="580.26" y="-1285.5" font-family="Helvetica,sans-Serif" font-size="10.00">[,,]</text>
</g>
<!-- id&#45;&gt;dependency318170 -->
<g id="edge10" class="edge">
<title>id:e&#45;&gt;dependency318170:w</title>
<path fill="none" stroke="black" d="M312.5,-980C473.25,-980 262.67,-1320.02 409.64,-1332.64"/>
<ellipse fill="none" stroke="black" cx="413.87" cy="-1332.81" rx="4" ry="4"/>
</g>
<!-- dependency318171 -->
<g id="node12" class="node">
<title>dependency318171</title>
<polygon fill="none" stroke="blue" points="427.26,-1414 427.26,-1524 531.26,-1524 531.26,-1414 427.26,-1414"/>
<text text-anchor="start" x="458.26" y="-1465.5" font-family="Helvetica,sans-Serif" font-size="10.00">pack_dep</text>
<polygon fill="none" stroke="blue" points="531.26,-1502 531.26,-1524 641.26,-1524 641.26,-1502 531.26,-1502"/>
<text text-anchor="start" x="579.51" y="-1509.5" font-family="Helvetica,sans-Serif" font-size="10.00">run</text>
<polygon fill="none" stroke="blue" points="531.26,-1480 531.26,-1502 641.26,-1502 641.26,-1480 531.26,-1480"/>
<text text-anchor="start" x="572.76" y="-1487.5" font-family="Helvetica,sans-Serif" font-size="10.00">dev&#45;qt</text>
<polygon fill="none" stroke="blue" points="531.26,-1458 531.26,-1480 641.26,-1480 641.26,-1458 531.26,-1458"/>
<text text-anchor="start" x="575.76" y="-1465.5" font-family="Helvetica,sans-Serif" font-size="10.00">qtsql</text>
<polygon fill="none" stroke="blue" points="531.26,-1436 531.26,-1458 641.26,-1458 641.26,-1436 531.26,-1436"/>
<text text-anchor="start" x="575.76" y="-1443.5" font-family="Helvetica,sans-Serif" font-size="10.00">none</text>
<polygon fill="none" stroke="blue" points="531.26,-1414 531.26,-1436 641.26,-1436 641.26,-1414 531.26,-1414"/>
<text text-anchor="start" x="580.26" y="-1421.5" font-family="Helvetica,sans-Serif" font-size="10.00">[,,]</text>
</g>
<!-- id&#45;&gt;dependency318171 -->
<g id="edge11" class="edge">
<title>id:e&#45;&gt;dependency318171:w</title>
<path fill="none" stroke="black" d="M312.5,-980C531.83,-980 205.16,-1455.72 409.56,-1468.73"/>
<ellipse fill="none" stroke="black" cx="413.87" cy="-1468.86" rx="4" ry="4"/>
</g>
<!-- dependency318172 -->
<g id="node13" class="node">
<title>dependency318172</title>
<polygon fill="none" stroke="blue" points="427.26,-1550 427.26,-1660 531.26,-1660 531.26,-1550 427.26,-1550"/>
<text text-anchor="start" x="458.26" y="-1601.5" font-family="Helvetica,sans-Serif" font-size="10.00">pack_dep</text>
<polygon fill="none" stroke="blue" points="531.26,-1638 531.26,-1660 641.26,-1660 641.26,-1638 531.26,-1638"/>
<text text-anchor="start" x="579.51" y="-1645.5" font-family="Helvetica,sans-Serif" font-size="10.00">run</text>
<polygon fill="none" stroke="blue" points="531.26,-1616 531.26,-1638 641.26,-1638 641.26,-1616 531.26,-1616"/>
<text text-anchor="start" x="572.76" y="-1623.5" font-family="Helvetica,sans-Serif" font-size="10.00">dev&#45;qt</text>
<polygon fill="none" stroke="blue" points="531.26,-1594 531.26,-1616 641.26,-1616 641.26,-1594 531.26,-1594"/>
<text text-anchor="start" x="565.26" y="-1601.5" font-family="Helvetica,sans-Serif" font-size="10.00">qtwidgets</text>
<polygon fill="none" stroke="blue" points="531.26,-1572 531.26,-1594 641.26,-1594 641.26,-1572 531.26,-1572"/>
<text text-anchor="start" x="575.76" y="-1579.5" font-family="Helvetica,sans-Serif" font-size="10.00">none</text>
<polygon fill="none" stroke="blue" points="531.26,-1550 531.26,-1572 641.26,-1572 641.26,-1550 531.26,-1550"/>
<text text-anchor="start" x="580.26" y="-1557.5" font-family="Helvetica,sans-Serif" font-size="10.00">[,,]</text>
</g>
<!-- id&#45;&gt;dependency318172 -->
<g id="edge12" class="edge">
<title>id:e&#45;&gt;dependency318172:w</title>
<path fill="none" stroke="black" d="M312.5,-980C450.34,-980 284.91,-1578.43 409.72,-1604.15"/>
<ellipse fill="none" stroke="black" cx="413.89" cy="-1604.56" rx="4" ry="4"/>
</g>
<!-- dependency318173 -->
<g id="node14" class="node">
<title>dependency318173</title>
<polygon fill="none" stroke="blue" points="427.26,-1686 427.26,-1796 531.26,-1796 531.26,-1686 427.26,-1686"/>
<text text-anchor="start" x="458.26" y="-1737.5" font-family="Helvetica,sans-Serif" font-size="10.00">pack_dep</text>
<polygon fill="none" stroke="blue" points="531.26,-1774 531.26,-1796 641.26,-1796 641.26,-1774 531.26,-1774"/>
<text text-anchor="start" x="579.51" y="-1781.5" font-family="Helvetica,sans-Serif" font-size="10.00">run</text>
<polygon fill="none" stroke="blue" points="531.26,-1752 531.26,-1774 641.26,-1774 641.26,-1752 531.26,-1752"/>
<text text-anchor="start" x="564.13" y="-1759.5" font-family="Helvetica,sans-Serif" font-size="10.00">media&#45;libs</text>
<polygon fill="none" stroke="blue" points="531.26,-1730 531.26,-1752 641.26,-1752 641.26,-1730 531.26,-1730"/>
<text text-anchor="start" x="573.13" y="-1737.5" font-family="Helvetica,sans-Serif" font-size="10.00">libmtp</text>
<polygon fill="none" stroke="blue" points="531.26,-1708 531.26,-1730 641.26,-1730 641.26,-1708 531.26,-1708"/>
<text text-anchor="start" x="575.76" y="-1715.5" font-family="Helvetica,sans-Serif" font-size="10.00">none</text>
<polygon fill="none" stroke="blue" points="531.26,-1686 531.26,-1708 641.26,-1708 641.26,-1686 531.26,-1686"/>
<text text-anchor="start" x="580.26" y="-1693.5" font-family="Helvetica,sans-Serif" font-size="10.00">[,,]</text>
</g>
<!-- id&#45;&gt;dependency318173 -->
<g id="edge13" class="edge">
<title>id:e&#45;&gt;dependency318173:w</title>
<path fill="none" stroke="black" d="M312.5,-980C480.24,-980 255.79,-1714.48 409.74,-1740.3"/>
<ellipse fill="none" stroke="black" cx="413.88" cy="-1740.64" rx="4" ry="4"/>
</g>
<!-- dependency318174 -->
<g id="node15" class="node">
<title>dependency318174</title>
<polygon fill="none" stroke="blue" points="427.26,-1822 427.26,-1932 531.26,-1932 531.26,-1822 427.26,-1822"/>
<text text-anchor="start" x="458.26" y="-1873.5" font-family="Helvetica,sans-Serif" font-size="10.00">pack_dep</text>
<polygon fill="none" stroke="blue" points="531.26,-1910 531.26,-1932 641.26,-1932 641.26,-1910 531.26,-1910"/>
<text text-anchor="start" x="579.51" y="-1917.5" font-family="Helvetica,sans-Serif" font-size="10.00">run</text>
<polygon fill="none" stroke="blue" points="531.26,-1888 531.26,-1910 641.26,-1910 641.26,-1888 531.26,-1888"/>
<text text-anchor="start" x="567.51" y="-1895.5" font-family="Helvetica,sans-Serif" font-size="10.00">net&#45;misc</text>
<polygon fill="none" stroke="blue" points="531.26,-1866 531.26,-1888 641.26,-1888 641.26,-1866 531.26,-1866"/>
<text text-anchor="start" x="578.38" y="-1873.5" font-family="Helvetica,sans-Serif" font-size="10.00">curl</text>
<polygon fill="none" stroke="blue" points="531.26,-1844 531.26,-1866 641.26,-1866 641.26,-1844 531.26,-1844"/>
<text text-anchor="start" x="575.76" y="-1851.5" font-family="Helvetica,sans-Serif" font-size="10.00">none</text>
<polygon fill="none" stroke="blue" points="531.26,-1822 531.26,-1844 641.26,-1844 641.26,-1822 531.26,-1822"/>
<text text-anchor="start" x="580.26" y="-1829.5" font-family="Helvetica,sans-Serif" font-size="10.00">[,,]</text>
</g>
<!-- id&#45;&gt;dependency318174 -->
<g id="edge14" class="edge">
<title>id:e&#45;&gt;dependency318174:w</title>
<path fill="none" stroke="black" d="M312.5,-980C510.18,-980 226.49,-1850.05 409.59,-1876.39"/>
<ellipse fill="none" stroke="black" cx="413.88" cy="-1876.69" rx="4" ry="4"/>
</g>
<!-- choice1001011184511311647113116991111141014553464953464952 -->
<g id="node16" class="node">
<title>choice1001011184511311647113116991111141014553464953464952</title>
<g id="a_node16"><a xlink:href="../dev-qt/qtcore-5.15.14.svg" xlink:title="portage://dev&#45;qt/qtcore&#45;5.15.14">
<ellipse fill="none" stroke="red" cx="907.26" cy="-791" rx="144" ry="18"/>
<text text-anchor="middle" x="907.26" y="-787.5" font-family="Helvetica,sans-Serif" font-size="10.00">portage://dev&#45;qt/qtcore&#45;5.15.14</text>
</a>
</g>
</g>
<!-- dependency318161&#45;&gt;choice1001011184511311647113116991111141014553464953464952 -->
<g id="edge15" class="edge">
<title>dependency318161:e&#45;&gt;choice1001011184511311647113116991111141014553464953464952:w</title>
<path fill="none" stroke="black" stroke-dasharray="1,5" d="M656.14,-83C811.34,-83 613.08,-756.85 751.02,-789.75"/>
<polygon fill="black" stroke="black" points="760.81,-790.86 750.37,-794.21 757.05,-790.44 750.88,-789.74 750.88,-789.74 750.88,-789.74 757.05,-790.44 751.38,-785.27 760.81,-790.86"/>
</g>
<!-- choice10010111845113116471131161031171054553464953464952 -->
<g id="node17" class="node">
<title>choice10010111845113116471131161031171054553464953464952</title>
<g id="a_node17"><a xlink:href="../dev-qt/qtgui-5.15.14.svg" xlink:title="portage://dev&#45;qt/qtgui&#45;5.15.14">
<ellipse fill="none" stroke="red" cx="907.26" cy="-845" rx="144" ry="18"/>
<text text-anchor="middle" x="907.26" y="-841.5" font-family="Helvetica,sans-Serif" font-size="10.00">portage://dev&#45;qt/qtgui&#45;5.15.14</text>
</a>
</g>
</g>
<!-- dependency318162&#45;&gt;choice10010111845113116471131161031171054553464953464952 -->
<g id="edge16" class="edge">
<title>dependency318162:e&#45;&gt;choice10010111845113116471131161031171054553464953464952:w</title>
<path fill="none" stroke="black" stroke-dasharray="1,5" d="M656.14,-219C793.37,-219 630.34,-811.23 751.15,-843.62"/>
<polygon fill="black" stroke="black" points="760.81,-844.85 750.33,-848.05 757.06,-844.37 750.89,-843.59 750.89,-843.59 750.89,-843.59 757.06,-844.37 751.46,-839.12 760.81,-844.85"/>
</g>
<!-- choice10010111845113116471131161101011161191111141074553464953464952 -->
<g id="node18" class="node">
<title>choice10010111845113116471131161101011161191111141074553464953464952</title>
<g id="a_node18"><a xlink:href="../dev-qt/qtnetwork-5.15.14.svg" xlink:title="portage://dev&#45;qt/qtnetwork&#45;5.15.14">
<ellipse fill="none" stroke="red" cx="907.26" cy="-899" rx="144" ry="18"/>
<text text-anchor="middle" x="907.26" y="-895.5" font-family="Helvetica,sans-Serif" font-size="10.00">portage://dev&#45;qt/qtnetwork&#45;5.15.14</text>
</a>
</g>
</g>
<!-- dependency318163&#45;&gt;choice10010111845113116471131161101011161191111141074553464953464952 -->
<g id="edge17" class="edge">
<title>dependency318163:e&#45;&gt;choice10010111845113116471131161101011161191111141074553464953464952:w</title>
<path fill="none" stroke="black" stroke-dasharray="1,5" d="M656.14,-355C898.61,-355 527.64,-882.13 750.94,-898.61"/>
<polygon fill="black" stroke="black" points="760.8,-898.96 750.65,-903.1 757.03,-898.82 750.81,-898.6 750.81,-898.6 750.81,-898.6 757.03,-898.82 750.97,-894.1 760.8,-898.96"/>
</g>
<!-- choice10010111845113116471131161151131084553464953464952 -->
<g id="node19" class="node">
<title>choice10010111845113116471131161151131084553464953464952</title>
<g id="a_node19"><a xlink:href="../dev-qt/qtsql-5.15.14.svg" xlink:title="portage://dev&#45;qt/qtsql&#45;5.15.14">
<ellipse fill="none" stroke="red" cx="907.26" cy="-953" rx="144" ry="18"/>
<text text-anchor="middle" x="907.26" y="-949.5" font-family="Helvetica,sans-Serif" font-size="10.00">portage://dev&#45;qt/qtsql&#45;5.15.14</text>
</a>
</g>
</g>
<!-- dependency318164&#45;&gt;choice10010111845113116471131161151131084553464953464952 -->
<g id="edge18" class="edge">
<title>dependency318164:e&#45;&gt;choice10010111845113116471131161151131084553464953464952:w</title>
<path fill="none" stroke="black" stroke-dasharray="1,5" d="M656.14,-491C862.89,-491 562.89,-936.01 750.83,-952.53"/>
<polygon fill="black" stroke="black" points="760.81,-952.95 750.62,-957.02 757.03,-952.79 750.81,-952.53 750.81,-952.53 750.81,-952.53 757.03,-952.79 751,-948.03 760.81,-952.95"/>
</g>
<!-- choice10010111845113116471131161191051001031011161154553464953464952 -->
<g id="node20" class="node">
<title>choice10010111845113116471131161191051001031011161154553464953464952</title>
<g id="a_node20"><a xlink:href="../dev-qt/qtwidgets-5.15.14.svg" xlink:title="portage://dev&#45;qt/qtwidgets&#45;5.15.14">
<ellipse fill="none" stroke="red" cx="907.26" cy="-1007" rx="144" ry="18"/>
<text text-anchor="middle" x="907.26" y="-1003.5" font-family="Helvetica,sans-Serif" font-size="10.00">portage://dev&#45;qt/qtwidgets&#45;5.15.14</text>
</a>
</g>
</g>
<!-- dependency318165&#45;&gt;choice10010111845113116471131161191051001031011161154553464953464952 -->
<g id="edge19" class="edge">
<title>dependency318165:e&#45;&gt;choice10010111845113116471131161191051001031011161154553464953464952:w</title>
<path fill="none" stroke="black" stroke-dasharray="1,5" d="M656.14,-627C827.53,-627 597.48,-990.12 750.84,-1006.43"/>
<polygon fill="black" stroke="black" points="760.81,-1006.94 750.59,-1010.93 757.03,-1006.75 750.82,-1006.43 750.82,-1006.43 750.82,-1006.43 757.03,-1006.75 751.05,-1001.94 760.81,-1006.94"/>
</g>
<!-- choice10910110010597451081059811547108105981091161124557575757 -->
<g id="node21" class="node">
<title>choice10910110010597451081059811547108105981091161124557575757</title>
<g id="a_node21"><a xlink:href="../media-libs/libmtp-9999.svg" xlink:title="portage://media&#45;libs/libmtp&#45;9999">
<ellipse fill="none" stroke="red" cx="907.26" cy="-1061" rx="144" ry="18"/>
<text text-anchor="middle" x="907.26" y="-1057.5" font-family="Helvetica,sans-Serif" font-size="10.00">portage://media&#45;libs/libmtp&#45;9999</text>
</a>
</g>
</g>
<!-- dependency318166&#45;&gt;choice10910110010597451081059811547108105981091161124557575757 -->
<g id="edge20" class="edge">
<title>dependency318166:e&#45;&gt;choice10910110010597451081059811547108105981091161124557575757:w</title>
<path fill="none" stroke="black" stroke-dasharray="1,5" d="M656.14,-763C792.72,-763 631.14,-1044.36 750.83,-1060.3"/>
<polygon fill="black" stroke="black" points="760.81,-1060.92 750.54,-1064.79 757.03,-1060.69 750.83,-1060.3 750.83,-1060.3 750.83,-1060.3 757.03,-1060.69 751.11,-1055.81 760.81,-1060.92"/>
</g>
<!-- choice109101100105974510810598115471081059810911611245494649465049 -->
<g id="node22" class="node">
<title>choice109101100105974510810598115471081059810911611245494649465049</title>
<g id="a_node22"><a xlink:href="../media-libs/libmtp-1.1.21.svg" xlink:title="portage://media&#45;libs/libmtp&#45;1.1.21">
<ellipse fill="none" stroke="red" cx="907.26" cy="-1115" rx="144" ry="18"/>
<text text-anchor="middle" x="907.26" y="-1111.5" font-family="Helvetica,sans-Serif" font-size="10.00">portage://media&#45;libs/libmtp&#45;1.1.21</text>
</a>
</g>
</g>
<!-- dependency318166&#45;&gt;choice109101100105974510810598115471081059810911611245494649465049 -->
<g id="edge21" class="edge">
<title>dependency318166:e&#45;&gt;choice109101100105974510810598115471081059810911611245494649465049:w</title>
<path fill="none" stroke="black" stroke-dasharray="1,5" d="M656.14,-763C815.68,-763 608.8,-1098.69 751.16,-1114.43"/>
<polygon fill="black" stroke="black" points="760.81,-1114.94 750.58,-1118.9 757.03,-1114.74 750.82,-1114.41 750.82,-1114.41 750.82,-1114.41 757.03,-1114.74 751.06,-1109.92 760.81,-1114.94"/>
</g>
<!-- choice110101116451091051159947991171141084557575757 -->
<g id="node23" class="node">
<title>choice110101116451091051159947991171141084557575757</title>
<g id="a_node23"><a xlink:href="../net-misc/curl-9999.svg" xlink:title="portage://net&#45;misc/curl&#45;9999">
<ellipse fill="none" stroke="red" cx="907.26" cy="-1385" rx="144" ry="18"/>
<text text-anchor="middle" x="907.26" y="-1381.5" font-family="Helvetica,sans-Serif" font-size="10.00">portage://net&#45;misc/curl&#45;9999</text>
</a>
</g>
</g>
<!-- dependency318167&#45;&gt;choice110101116451091051159947991171141084557575757 -->
<g id="edge22" class="edge">
<title>dependency318167:e&#45;&gt;choice110101116451091051159947991171141084557575757:w</title>
<path fill="none" stroke="black" stroke-dasharray="1,5" d="M656.14,-899C873.33,-899 552.61,-1368.06 750.88,-1384.55"/>
<polygon fill="black" stroke="black" points="760.81,-1384.95 750.63,-1389.05 757.03,-1384.8 750.81,-1384.55 750.81,-1384.55 750.81,-1384.55 757.03,-1384.8 750.99,-1380.06 760.81,-1384.95"/>
</g>
<!-- choice110101116451091051159947991171141084556465646484511449 -->
<g id="node24" class="node">
<title>choice110101116451091051159947991171141084556465646484511449</title>
<g id="a_node24"><a xlink:href="../net-misc/curl-8.8.0-r1.svg" xlink:title="portage://net&#45;misc/curl&#45;8.8.0&#45;r1">
<ellipse fill="none" stroke="red" cx="907.26" cy="-1169" rx="144" ry="18"/>
<text text-anchor="middle" x="907.26" y="-1165.5" font-family="Helvetica,sans-Serif" font-size="10.00">portage://net&#45;misc/curl&#45;8.8.0&#45;r1</text>
</a>
</g>
</g>
<!-- dependency318167&#45;&gt;choice110101116451091051159947991171141084556465646484511449 -->
<g id="edge23" class="edge">
<title>dependency318167:e&#45;&gt;choice110101116451091051159947991171141084556465646484511449:w</title>
<path fill="none" stroke="black" stroke-dasharray="1,5" d="M656.14,-899C781.14,-899 642.07,-1152.9 751.07,-1168.27"/>
<polygon fill="black" stroke="black" points="760.81,-1168.92 750.53,-1172.75 757.03,-1168.67 750.83,-1168.26 750.83,-1168.26 750.83,-1168.26 757.03,-1168.67 751.13,-1163.77 760.81,-1168.92"/>
</g>
<!-- choice11010111645109105115994799117114108455646564648 -->
<g id="node25" class="node">
<title>choice11010111645109105115994799117114108455646564648</title>
<g id="a_node25"><a xlink:href="../net-misc/curl-8.8.0.svg" xlink:title="portage://net&#45;misc/curl&#45;8.8.0">
<ellipse fill="none" stroke="red" cx="907.26" cy="-1223" rx="144" ry="18"/>
<text text-anchor="middle" x="907.26" y="-1219.5" font-family="Helvetica,sans-Serif" font-size="10.00">portage://net&#45;misc/curl&#45;8.8.0</text>
</a>
</g>
</g>
<!-- dependency318167&#45;&gt;choice11010111645109105115994799117114108455646564648 -->
<g id="edge24" class="edge">
<title>dependency318167:e&#45;&gt;choice11010111645109105115994799117114108455646564648:w</title>
<path fill="none" stroke="black" stroke-dasharray="1,5" d="M656.14,-899C803.79,-899 620.31,-1206.76 751.15,-1222.38"/>
<polygon fill="black" stroke="black" points="760.81,-1222.93 750.57,-1226.86 757.03,-1222.72 750.82,-1222.37 750.82,-1222.37 750.82,-1222.37 757.03,-1222.72 751.08,-1217.87 760.81,-1222.93"/>
</g>
<!-- choice110101116451091051159947991171141084556465546494511452 -->
<g id="node26" class="node">
<title>choice110101116451091051159947991171141084556465546494511452</title>
<g id="a_node26"><a xlink:href="../net-misc/curl-8.7.1-r4.svg" xlink:title="portage://net&#45;misc/curl&#45;8.7.1&#45;r4">
<ellipse fill="none" stroke="red" cx="907.26" cy="-1277" rx="144" ry="18"/>
<text text-anchor="middle" x="907.26" y="-1273.5" font-family="Helvetica,sans-Serif" font-size="10.00">portage://net&#45;misc/curl&#45;8.7.1&#45;r4</text>
</a>
</g>
</g>
<!-- dependency318167&#45;&gt;choice110101116451091051159947991171141084556465546494511452 -->
<g id="edge25" class="edge">
<title>dependency318167:e&#45;&gt;choice110101116451091051159947991171141084556465546494511452:w</title>
<path fill="none" stroke="black" stroke-dasharray="1,5" d="M656.14,-899C826.69,-899 598.26,-1260.21 750.89,-1276.44"/>
<polygon fill="black" stroke="black" points="760.81,-1276.94 750.59,-1280.93 757.03,-1276.75 750.82,-1276.43 750.82,-1276.43 750.82,-1276.43 757.03,-1276.75 751.05,-1271.94 760.81,-1276.94"/>
</g>
<!-- choice110101116451091051159947991171141084556465546494511451 -->
<g id="node27" class="node">
<title>choice110101116451091051159947991171141084556465546494511451</title>
<g id="a_node27"><a xlink:href="../net-misc/curl-8.7.1-r3.svg" xlink:title="portage://net&#45;misc/curl&#45;8.7.1&#45;r3">
<ellipse fill="none" stroke="red" cx="907.26" cy="-1331" rx="144" ry="18"/>
<text text-anchor="middle" x="907.26" y="-1327.5" font-family="Helvetica,sans-Serif" font-size="10.00">portage://net&#45;misc/curl&#45;8.7.1&#45;r3</text>
</a>
</g>
</g>
<!-- dependency318167&#45;&gt;choice110101116451091051159947991171141084556465546494511451 -->
<g id="edge26" class="edge">
<title>dependency318167:e&#45;&gt;choice110101116451091051159947991171141084556465546494511451:w</title>
<path fill="none" stroke="black" stroke-dasharray="1,5" d="M656.14,-899C849.97,-899 575.46,-1314.29 750.99,-1330.51"/>
<polygon fill="black" stroke="black" points="760.81,-1330.95 750.62,-1335 757.03,-1330.78 750.82,-1330.5 750.82,-1330.5 750.82,-1330.5 757.03,-1330.78 751.01,-1326.01 760.81,-1330.95"/>
</g>
<!-- dependency318168&#45;&gt;choice1001011184511311647113116991111141014553464953464952 -->
<g id="edge27" class="edge">
<title>dependency318168:e&#45;&gt;choice1001011184511311647113116991111141014553464953464952:w</title>
<path fill="none" stroke="black" stroke-dasharray="1,5" d="M656.14,-1061C781.14,-1061 642.07,-807.1 751.07,-791.73"/>
<polygon fill="black" stroke="black" points="760.81,-791.08 751.13,-796.23 757.03,-791.33 750.83,-791.74 750.83,-791.74 750.83,-791.74 757.03,-791.33 750.53,-787.25 760.81,-791.08"/>
</g>
<!-- dependency318169&#45;&gt;choice10010111845113116471131161031171054553464953464952 -->
<g id="edge28" class="edge">
<title>dependency318169:e&#45;&gt;choice10010111845113116471131161031171054553464953464952:w</title>
<path fill="none" stroke="black" stroke-dasharray="1,5" d="M656.14,-1197C815.68,-1197 608.8,-861.31 751.16,-845.57"/>
<polygon fill="black" stroke="black" points="760.81,-845.06 751.06,-850.08 757.03,-845.26 750.82,-845.59 750.82,-845.59 750.82,-845.59 757.03,-845.26 750.58,-841.1 760.81,-845.06"/>
</g>
<!-- dependency318170&#45;&gt;choice10010111845113116471131161101011161191111141074553464953464952 -->
<g id="edge29" class="edge">
<title>dependency318170:e&#45;&gt;choice10010111845113116471131161101011161191111141074553464953464952:w</title>
<path fill="none" stroke="black" stroke-dasharray="1,5" d="M656.14,-1333C850.81,-1333 574.67,-915.79 750.94,-899.49"/>
<polygon fill="black" stroke="black" points="760.81,-899.05 751.01,-903.99 757.03,-899.22 750.82,-899.5 750.82,-899.5 750.82,-899.5 757.03,-899.22 750.62,-895 760.81,-899.05"/>
</g>
<!-- dependency318171&#45;&gt;choice10010111845113116471131161151131084553464953464952 -->
<g id="edge30" class="edge">
<title>dependency318171:e&#45;&gt;choice10010111845113116471131161151131084553464953464952:w</title>
<path fill="none" stroke="black" stroke-dasharray="1,5" d="M656.14,-1469C886.37,-1469 539.78,-969.99 750.85,-953.42"/>
<polygon fill="black" stroke="black" points="760.8,-953.05 750.98,-957.92 757.03,-953.19 750.81,-953.42 750.81,-953.42 750.81,-953.42 757.03,-953.19 750.64,-948.93 760.8,-953.05"/>
</g>
<!-- dependency318172&#45;&gt;choice10010111845113116471131161191051001031011161154553464953464952 -->
<g id="edge31" class="edge">
<title>dependency318172:e&#45;&gt;choice10010111845113116471131161191051001031011161154553464953464952:w</title>
<path fill="none" stroke="black" stroke-dasharray="1,5" d="M656.14,-1605C787.15,-1605 636.42,-1041.53 750.92,-1008.51"/>
<polygon fill="black" stroke="black" points="760.82,-1007.16 751.51,-1012.97 757.07,-1007.67 750.91,-1008.51 750.91,-1008.51 750.91,-1008.51 757.07,-1007.67 750.3,-1004.05 760.82,-1007.16"/>
</g>
<!-- dependency318173&#45;&gt;choice10910110010597451081059811547108105981091161124557575757 -->
<g id="edge32" class="edge">
<title>dependency318173:e&#45;&gt;choice10910110010597451081059811547108105981091161124557575757:w</title>
<path fill="none" stroke="black" stroke-dasharray="1,5" d="M656.14,-1741C805.19,-1741 619.02,-1095.09 751.04,-1062.29"/>
<polygon fill="black" stroke="black" points="760.81,-1061.14 751.41,-1066.78 757.06,-1061.58 750.88,-1062.31 750.88,-1062.31 750.88,-1062.31 757.06,-1061.58 750.35,-1057.84 760.81,-1061.14"/>
</g>
<!-- dependency318173&#45;&gt;choice109101100105974510810598115471081059810911611245494649465049 -->
<g id="edge33" class="edge">
<title>dependency318173:e&#45;&gt;choice109101100105974510810598115471081059810911611245494649465049:w</title>
<path fill="none" stroke="black" stroke-dasharray="1,5" d="M656.14,-1741C793.37,-1741 630.34,-1148.77 751.15,-1116.38"/>
<polygon fill="black" stroke="black" points="760.81,-1115.15 751.46,-1120.88 757.06,-1115.63 750.89,-1116.41 750.89,-1116.41 750.89,-1116.41 757.06,-1115.63 750.33,-1111.95 760.81,-1115.15"/>
</g>
<!-- dependency318174&#45;&gt;choice110101116451091051159947991171141084557575757 -->
<g id="edge34" class="edge">
<title>dependency318174:e&#45;&gt;choice110101116451091051159947991171141084557575757:w</title>
<path fill="none" stroke="black" stroke-dasharray="1,5" d="M656.14,-1877C875.99,-1877 549.86,-1401.67 751.04,-1385.43"/>
<polygon fill="black" stroke="black" points="760.81,-1385.05 750.99,-1389.93 757.03,-1385.19 750.81,-1385.44 750.81,-1385.44 750.81,-1385.44 757.03,-1385.19 750.64,-1380.94 760.81,-1385.05"/>
</g>
<!-- dependency318174&#45;&gt;choice110101116451091051159947991171141084556465646484511449 -->
<g id="edge35" class="edge">
<title>dependency318174:e&#45;&gt;choice110101116451091051159947991171141084556465646484511449:w</title>
<path fill="none" stroke="black" stroke-dasharray="1,5" d="M656.14,-1877C811.34,-1877 613.08,-1203.15 751.02,-1170.25"/>
<polygon fill="black" stroke="black" points="760.81,-1169.14 751.38,-1174.73 757.05,-1169.56 750.88,-1170.26 750.88,-1170.26 750.88,-1170.26 757.05,-1169.56 750.37,-1165.79 760.81,-1169.14"/>
</g>
<!-- dependency318174&#45;&gt;choice11010111645109105115994799117114108455646564648 -->
<g id="edge36" class="edge">
<title>dependency318174:e&#45;&gt;choice11010111645109105115994799117114108455646564648:w</title>
<path fill="none" stroke="black" stroke-dasharray="1,5" d="M656.14,-1877C799.49,-1877 624.51,-1257.03 751.06,-1224.34"/>
<polygon fill="black" stroke="black" points="760.81,-1223.15 751.43,-1228.83 757.06,-1223.61 750.89,-1224.36 750.89,-1224.36 750.89,-1224.36 757.06,-1223.61 750.34,-1219.9 760.81,-1223.15"/>
</g>
<!-- dependency318174&#45;&gt;choice110101116451091051159947991171141084556465546494511452 -->
<g id="edge37" class="edge">
<title>dependency318174:e&#45;&gt;choice110101116451091051159947991171141084556465546494511452:w</title>
<path fill="none" stroke="black" stroke-dasharray="1,5" d="M656.14,-1877C787.7,-1877 635.73,-1310.5 751.23,-1278.42"/>
<polygon fill="black" stroke="black" points="760.81,-1277.16 751.48,-1282.92 757.07,-1277.65 750.9,-1278.46 750.9,-1278.46 750.9,-1278.46 757.07,-1277.65 750.31,-1274 760.81,-1277.16"/>
</g>
<!-- dependency318174&#45;&gt;choice110101116451091051159947991171141084556465546494511451 -->
<g id="edge38" class="edge">
<title>dependency318174:e&#45;&gt;choice110101116451091051159947991171141084556465546494511451:w</title>
<path fill="none" stroke="black" stroke-dasharray="1,5" d="M656.14,-1877C899.47,-1877 526.82,-1347.93 750.9,-1331.4"/>
<polygon fill="black" stroke="black" points="760.8,-1331.04 750.97,-1335.9 757.03,-1331.18 750.81,-1331.4 750.81,-1331.4 750.81,-1331.4 757.03,-1331.18 750.65,-1326.9 760.8,-1331.04"/>
</g>
</g>
</svg>
