<?xml version="1.0" encoding="UTF-8" standalone="no"?>
<!DOCTYPE svg PUBLIC "-//W3C//DTD SVG 1.1//EN"
 "http://www.w3.org/Graphics/SVG/1.1/DTD/svg11.dtd">
<!-- Generated by graphviz version 2.39.20160721.2101 (20160721.2101)
 -->
<!-- Title: prolog Pages: 1 -->
<svg width="982pt" height="2234pt"
 viewBox="0.00 0.00 982.00 2234.00" xmlns="http://www.w3.org/2000/svg" xmlns:xlink="http://www.w3.org/1999/xlink">
<g id="graph0" class="graph" transform="scale(1 1) rotate(0) translate(4 2230)">
<title>prolog</title>
<polygon fill="white" stroke="transparent" points="-4,4 -4,-2230 978,-2230 978,4 -4,4"/>
<g id="clust1" class="cluster">
<title>cluster_leftcol</title>
<polygon fill="none" stroke="gray" points="8,-1547 8,-1619 312,-1619 312,-1547 8,-1547"/>
<text text-anchor="start" x="146.663" y="-1607" font-family="Helvetica,sans-Serif" font-style="italic" font-size="10.00">ebuild</text>
</g>
<g id="clust16" class="cluster">
<title>cluster_choices</title>
<polygon fill="none" stroke="gray" points="662,-8 662,-2218 966,-2218 966,-8 662,-8"/>
<text text-anchor="start" x="789.824" y="-2206" font-family="Helvetica,sans-Serif" font-style="italic" font-size="10.00">candidates</text>
</g>
<g id="clust2" class="cluster">
<title>cluster_midcol</title>
<polygon fill="none" stroke="gray" points="396,-1531 396,-1751 578,-1751 578,-1531 396,-1531"/>
<text text-anchor="start" x="455.875" y="-1739" font-family="Helvetica,sans-Serif" font-style="italic" font-size="10.00">dependencies</text>
</g>
<g id="clust9" class="cluster">
<title>cluster_compileandrun</title>
<polygon fill="#eeeeee" stroke="gray" points="404,-1539 404,-1627 570,-1627 570,-1539 404,-1539"/>
<text text-anchor="start" x="451.437" y="-1615" font-family="Helvetica,sans-Serif" font-style="italic" font-size="10.00">compile and run</text>
</g>
<g id="clust3" class="cluster">
<title>cluster_compile</title>
<polygon fill="#eeeeee" stroke="gray" points="404,-1635 404,-1723 570,-1723 570,-1635 404,-1635"/>
<text text-anchor="start" x="469.778" y="-1711" font-family="Helvetica,sans-Serif" font-style="italic" font-size="10.00">compile</text>
</g>
<!-- id -->
<g id="node1" class="node">
<title>id</title>
<g id="a_node1"><a xlink:href="../sys-fs/btrfs-progs-4.1.2.svg" xlink:title="sys&#45;fs/btrfs&#45;progs&#45;4.1.2">
<ellipse fill="none" stroke="red" cx="160" cy="-1573" rx="144" ry="18"/>
<text text-anchor="middle" x="160" y="-1570" font-family="Helvetica,sans-Serif" font-size="10.00">sys&#45;fs/btrfs&#45;progs&#45;4.1.2</text>
</a>
</g>
</g>
<!-- dependency487208 -->
<g id="node2" class="node">
<title>dependency487208</title>
<polygon fill="none" stroke="red" points="420,-1647 420,-1691 511,-1691 511,-1647 420,-1647"/>
<text text-anchor="start" x="430.767" y="-1666" font-family="Helvetica,sans-Serif" font-size="10.00">use_conditional</text>
<polygon fill="none" stroke="red" points="511,-1669 511,-1691 554,-1691 554,-1669 511,-1669"/>
<text text-anchor="start" x="515.553" y="-1677" font-family="Helvetica,sans-Serif" font-size="10.00">positive</text>
<polygon fill="none" stroke="red" points="511,-1647 511,-1669 554,-1669 554,-1647 511,-1647"/>
<text text-anchor="start" x="516.107" y="-1655" font-family="Helvetica,sans-Serif" font-size="10.00">convert</text>
</g>
<!-- id&#45;&gt;dependency487208 -->
<g id="edge2" class="edge">
<title>id:e&#45;&gt;dependency487208:w</title>
<path fill="none" stroke="black" d="M304,-1573C364.584,-1573 349.822,-1658.43 401.871,-1668.11"/>
<polygon fill="black" stroke="black" points="412,-1669 401.645,-1672.61 407.019,-1668.56 402.038,-1668.13 402.038,-1668.13 402.038,-1668.13 407.019,-1668.56 402.432,-1663.64 412,-1669 412,-1669"/>
</g>
<!-- dependency487210 -->
<g id="node4" class="node">
<title>dependency487210</title>
<polygon fill="none" stroke="blue" points="704,-1110 704,-1220 809,-1220 809,-1110 704,-1110"/>
<text text-anchor="start" x="734.823" y="-1162" font-family="Helvetica,sans-Serif" font-size="10.00">pack_dep</text>
<polygon fill="none" stroke="blue" points="809,-1198 809,-1220 919,-1220 919,-1198 809,-1198"/>
<text text-anchor="start" x="858.441" y="-1206" font-family="Helvetica,sans-Serif" font-size="10.00">no</text>
<polygon fill="none" stroke="blue" points="809,-1176 809,-1198 919,-1198 919,-1176 809,-1176"/>
<text text-anchor="start" x="845.938" y="-1184" font-family="Helvetica,sans-Serif" font-size="10.00">app&#45;text</text>
<polygon fill="none" stroke="blue" points="809,-1154 809,-1176 919,-1176 919,-1154 809,-1154"/>
<text text-anchor="start" x="845.942" y="-1162" font-family="Helvetica,sans-Serif" font-size="10.00">asciidoc</text>
<polygon fill="none" stroke="blue" points="809,-1132 809,-1154 919,-1154 919,-1132 809,-1132"/>
<text text-anchor="start" x="835.936" y="-1140" font-family="Helvetica,sans-Serif" font-size="10.00">greaterequal</text>
<polygon fill="none" stroke="blue" points="809,-1110 809,-1132 919,-1132 919,-1110 809,-1110"/>
<text text-anchor="start" x="852.883" y="-1118" font-family="Helvetica,sans-Serif" font-size="10.00">8.6.0</text>
</g>
<!-- id&#45;&gt;dependency487210 -->
<g id="edge3" class="edge">
<title>id:e&#45;&gt;dependency487210:w</title>
<path fill="none" stroke="black" d="M487,-649C667.338,-484.748 454.757,-1145.84 685.769,-1164.59"/>
<polygon fill="black" stroke="black" points="696,-1165 685.829,-1169.1 691.004,-1164.8 686.008,-1164.6 686.008,-1164.6 686.008,-1164.6 691.004,-1164.8 686.186,-1160.11 696,-1165 696,-1165"/>
</g>
<!-- dependency487211 -->
<g id="node5" class="node">
<title>dependency487211</title>
<polygon fill="none" stroke="blue" points="704,-716 704,-814 809,-814 809,-716 704,-716"/>
<text text-anchor="start" x="734.823" y="-762" font-family="Helvetica,sans-Serif" font-size="10.00">pack_dep</text>
<polygon fill="none" stroke="blue" points="809,-792 809,-814 919,-814 919,-792 809,-792"/>
<text text-anchor="start" x="858.441" y="-800" font-family="Helvetica,sans-Serif" font-size="10.00">no</text>
<polygon fill="none" stroke="blue" points="809,-770 809,-792 919,-792 919,-770 809,-770"/>
<text text-anchor="start" x="845.938" y="-778" font-family="Helvetica,sans-Serif" font-size="10.00">app&#45;text</text>
<polygon fill="none" stroke="blue" points="809,-748 809,-770 919,-770 919,-748 809,-748"/>
<text text-anchor="start" x="827.051" y="-756" font-family="Helvetica,sans-Serif" font-size="10.00">docbook&#45;xml&#45;dtd</text>
<polygon fill="none" stroke="blue" points="809,-726 809,-748 919,-748 919,-726 809,-726"/>
<text text-anchor="start" x="852.882" y="-734" font-family="Helvetica,sans-Serif" font-size="10.00">none</text>
<polygon fill="none" stroke="blue" points="809,-716 809,-726 919,-726 919,-716 809,-716"/>
</g>
<!-- id&#45;&gt;dependency487211 -->
<g id="edge4" class="edge">
<title>id:e&#45;&gt;dependency487211:w</title>
<path fill="none" stroke="black" d="M487,-649C563.011,-579.769 588.145,-753.182 685.98,-764.431"/>
<polygon fill="black" stroke="black" points="696,-765 685.761,-768.925 691.008,-764.716 686.016,-764.433 686.016,-764.433 686.016,-764.433 691.008,-764.716 686.271,-759.94 696,-765 696,-765"/>
</g>
<!-- dependency487212 -->
<g id="node6" class="node">
<title>dependency487212</title>
<polygon fill="none" stroke="blue" points="704,-484 704,-582 809,-582 809,-484 704,-484"/>
<text text-anchor="start" x="734.823" y="-530" font-family="Helvetica,sans-Serif" font-size="10.00">pack_dep</text>
<polygon fill="none" stroke="blue" points="809,-560 809,-582 919,-582 919,-560 809,-560"/>
<text text-anchor="start" x="858.441" y="-568" font-family="Helvetica,sans-Serif" font-size="10.00">no</text>
<polygon fill="none" stroke="blue" points="809,-538 809,-560 919,-560 919,-538 809,-538"/>
<text text-anchor="start" x="845.938" y="-546" font-family="Helvetica,sans-Serif" font-size="10.00">app&#45;text</text>
<polygon fill="none" stroke="blue" points="809,-516 809,-538 919,-538 919,-516 809,-516"/>
<text text-anchor="start" x="852.057" y="-524" font-family="Helvetica,sans-Serif" font-size="10.00">xmlto</text>
<polygon fill="none" stroke="blue" points="809,-494 809,-516 919,-516 919,-494 809,-494"/>
<text text-anchor="start" x="852.882" y="-502" font-family="Helvetica,sans-Serif" font-size="10.00">none</text>
<polygon fill="none" stroke="blue" points="809,-484 809,-494 919,-494 919,-484 809,-484"/>
</g>
<!-- id&#45;&gt;dependency487212 -->
<g id="edge5" class="edge">
<title>id:e&#45;&gt;dependency487212:w</title>
<path fill="none" stroke="black" d="M487,-649C563.011,-579.769 588.145,-535.894 685.98,-533.138"/>
<polygon fill="black" stroke="black" points="696,-533 686.063,-537.637 691,-533.069 686.001,-533.138 686.001,-533.138 686.001,-533.138 691,-533.069 685.939,-528.638 696,-533 696,-533"/>
</g>
<!-- dependency487213 -->
<g id="node7" class="node">
<title>dependency487213</title>
<polygon fill="none" stroke="red" points="420,-1551 420,-1595 511,-1595 511,-1551 420,-1551"/>
<text text-anchor="start" x="430.767" y="-1570" font-family="Helvetica,sans-Serif" font-size="10.00">use_conditional</text>
<polygon fill="none" stroke="red" points="511,-1573 511,-1595 554,-1595 554,-1573 511,-1573"/>
<text text-anchor="start" x="515.553" y="-1581" font-family="Helvetica,sans-Serif" font-size="10.00">positive</text>
<polygon fill="none" stroke="red" points="511,-1551 511,-1573 554,-1573 554,-1551 511,-1551"/>
<text text-anchor="start" x="516.107" y="-1559" font-family="Helvetica,sans-Serif" font-size="10.00">convert</text>
</g>
<!-- id&#45;&gt;dependency487213 -->
<g id="edge8" class="edge">
<title>id:e&#45;&gt;dependency487213:w</title>
<path fill="none" stroke="black" d="M304,-1573C345.25,-1573 359.913,-1573 393.686,-1573"/>
<ellipse fill="none" stroke="black" cx="408" cy="-1573" rx="4" ry="4"/>
<polygon fill="black" stroke="black" points="404,-1573 394,-1577.5 399,-1573 394,-1573 394,-1573 394,-1573 399,-1573 394,-1568.5 404,-1573 404,-1573"/>
</g>
<!-- dependency487216 -->
<g id="node10" class="node">
<title>dependency487216</title>
<polygon fill="none" stroke="blue" points="704,-252 704,-350 809,-350 809,-252 704,-252"/>
<text text-anchor="start" x="734.823" y="-298" font-family="Helvetica,sans-Serif" font-size="10.00">pack_dep</text>
<polygon fill="none" stroke="blue" points="809,-328 809,-350 919,-350 919,-328 809,-328"/>
<text text-anchor="start" x="858.441" y="-336" font-family="Helvetica,sans-Serif" font-size="10.00">no</text>
<polygon fill="none" stroke="blue" points="809,-306 809,-328 919,-328 919,-306 809,-306"/>
<text text-anchor="start" x="846.778" y="-314" font-family="Helvetica,sans-Serif" font-size="10.00">dev&#45;libs</text>
<polygon fill="none" stroke="blue" points="809,-284 809,-306 919,-306 919,-284 809,-284"/>
<text text-anchor="start" x="857.611" y="-292" font-family="Helvetica,sans-Serif" font-size="10.00">lzo</text>
<polygon fill="none" stroke="blue" points="809,-262 809,-284 919,-284 919,-262 809,-262"/>
<text text-anchor="start" x="852.882" y="-270" font-family="Helvetica,sans-Serif" font-size="10.00">none</text>
<polygon fill="none" stroke="blue" points="809,-252 809,-262 919,-262 919,-252 809,-252"/>
</g>
<!-- id&#45;&gt;dependency487216 -->
<g id="edge9" class="edge">
<title>id:e&#45;&gt;dependency487216:w</title>
<path fill="none" stroke="black" d="M487,-649C615.694,-531.785 522.658,-316.797 678.007,-301.825"/>
<ellipse fill="none" stroke="black" cx="692.004" cy="-301.183" rx="4" ry="4"/>
<polygon fill="black" stroke="black" points="688.008,-301.367 678.225,-306.32 683.014,-301.596 678.019,-301.825 678.019,-301.825 678.019,-301.825 683.014,-301.596 677.813,-297.33 688.008,-301.367 688.008,-301.367"/>
</g>
<!-- dependency487217 -->
<g id="node11" class="node">
<title>dependency487217</title>
<polygon fill="none" stroke="blue" points="704,-20 704,-118 809,-118 809,-20 704,-20"/>
<text text-anchor="start" x="734.823" y="-66" font-family="Helvetica,sans-Serif" font-size="10.00">pack_dep</text>
<polygon fill="none" stroke="blue" points="809,-96 809,-118 919,-118 919,-96 809,-96"/>
<text text-anchor="start" x="858.441" y="-104" font-family="Helvetica,sans-Serif" font-size="10.00">no</text>
<polygon fill="none" stroke="blue" points="809,-74 809,-96 919,-96 919,-74 809,-74"/>
<text text-anchor="start" x="847.337" y="-82" font-family="Helvetica,sans-Serif" font-size="10.00">sys&#45;libs</text>
<polygon fill="none" stroke="blue" points="809,-52 809,-74 919,-74 919,-52 809,-52"/>
<text text-anchor="start" x="856.501" y="-60" font-family="Helvetica,sans-Serif" font-size="10.00">zlib</text>
<polygon fill="none" stroke="blue" points="809,-30 809,-52 919,-52 919,-30 809,-30"/>
<text text-anchor="start" x="852.882" y="-38" font-family="Helvetica,sans-Serif" font-size="10.00">none</text>
<polygon fill="none" stroke="blue" points="809,-20 809,-30 919,-30 919,-20 809,-20"/>
</g>
<!-- id&#45;&gt;dependency487217 -->
<g id="edge10" class="edge">
<title>id:e&#45;&gt;dependency487217:w</title>
<path fill="none" stroke="black" d="M487,-649C684.924,-468.73 434.031,-87.0415 677.979,-69.6176"/>
<ellipse fill="none" stroke="black" cx="692.002" cy="-69.137" rx="4" ry="4"/>
<polygon fill="black" stroke="black" points="688.005,-69.274 678.165,-74.1139 683.008,-69.4453 678.011,-69.6166 678.011,-69.6166 678.011,-69.6166 683.008,-69.4453 677.856,-65.1192 688.005,-69.274 688.005,-69.274"/>
<path fill="none" stroke="black" d="M304,-1573C513.322,-1573 332.246,-789.95 487,-649"/>
</g>
<!-- dependency487209 -->
<g id="node3" class="node">
<title>dependency487209</title>
<polygon fill="none" stroke="blue" points="704,-1710 704,-1808 809,-1808 809,-1710 704,-1710"/>
<text text-anchor="start" x="734.823" y="-1756" font-family="Helvetica,sans-Serif" font-size="10.00">pack_dep</text>
<polygon fill="none" stroke="blue" points="809,-1786 809,-1808 919,-1808 919,-1786 809,-1786"/>
<text text-anchor="start" x="858.441" y="-1794" font-family="Helvetica,sans-Serif" font-size="10.00">no</text>
<polygon fill="none" stroke="blue" points="809,-1764 809,-1786 919,-1786 919,-1764 809,-1764"/>
<text text-anchor="start" x="843.997" y="-1772" font-family="Helvetica,sans-Serif" font-size="10.00">sys&#45;apps</text>
<polygon fill="none" stroke="blue" points="809,-1742 809,-1764 919,-1764 919,-1742 809,-1742"/>
<text text-anchor="start" x="857.611" y="-1750" font-family="Helvetica,sans-Serif" font-size="10.00">acl</text>
<polygon fill="none" stroke="blue" points="809,-1720 809,-1742 919,-1742 919,-1720 809,-1720"/>
<text text-anchor="start" x="852.882" y="-1728" font-family="Helvetica,sans-Serif" font-size="10.00">none</text>
<polygon fill="none" stroke="blue" points="809,-1710 809,-1720 919,-1720 919,-1710 809,-1710"/>
</g>
<!-- dependency487208&#45;&gt;dependency487209 -->
<g id="edge1" class="edge">
<title>dependency487208:e&#45;&gt;dependency487209:w</title>
<path fill="none" stroke="black" stroke-dasharray="5,2" d="M562,-1669C630.099,-1669 625.012,-1750.09 685.678,-1758.33"/>
<polygon fill="black" stroke="black" points="696,-1759 685.728,-1762.84 691.011,-1758.67 686.021,-1758.35 686.021,-1758.35 686.021,-1758.35 691.011,-1758.67 686.314,-1753.86 696,-1759 696,-1759"/>
</g>
<!-- choice1151211154597112112115479799108455046504653504511449 -->
<g id="node12" class="node">
<title>choice1151211154597112112115479799108455046504653504511449</title>
<g id="a_node12"><a xlink:href="../sys-apps/acl-2.2.52-r1.svg" xlink:title="sys&#45;apps/acl&#45;2.2.52&#45;r1">
<ellipse fill="none" stroke="red" cx="814" cy="-2064" rx="144" ry="18"/>
<text text-anchor="middle" x="814" y="-2061" font-family="Helvetica,sans-Serif" font-size="10.00">sys&#45;apps/acl&#45;2.2.52&#45;r1</text>
</a>
</g>
</g>
<!-- dependency487209&#45;&gt;choice1151211154597112112115479799108455046504653504511449 -->
<g id="edge11" class="edge">
<title>dependency487209:e&#45;&gt;choice1151211154597112112115479799108455046504653504511449:w</title>
<path fill="none" stroke="black" stroke-dasharray="1,5" d="M932,-1759C955.556,-1759 948.376,-1795.07 932,-1812 907.859,-1836.96 641.83,-1803 620,-1830 555.362,-1909.96 563.04,-2054.03 659.723,-2063.51"/>
<polygon fill="black" stroke="black" points="670,-2064 659.796,-2068.02 665.006,-2063.76 660.011,-2063.52 660.011,-2063.52 660.011,-2063.52 665.006,-2063.76 660.227,-2059.03 670,-2064 670,-2064"/>
</g>
<!-- choice97112112451161011201164797115991051051001119945564654464948 -->
<g id="node13" class="node">
<title>choice97112112451161011201164797115991051051001119945564654464948</title>
<g id="a_node13"><a xlink:href="../app-text/asciidoc-8.6.10.svg" xlink:title="app&#45;text/asciidoc&#45;8.6.10">
<ellipse fill="none" stroke="red" cx="814" cy="-1314" rx="144" ry="18"/>
<text text-anchor="middle" x="814" y="-1311" font-family="Helvetica,sans-Serif" font-size="10.00">app&#45;text/asciidoc&#45;8.6.10</text>
</a>
</g>
</g>
<!-- dependency487210&#45;&gt;choice97112112451161011201164797115991051051001119945564654464948 -->
<g id="edge12" class="edge">
<title>dependency487210:e&#45;&gt;choice97112112451161011201164797115991051051001119945564654464948:w</title>
<path fill="none" stroke="black" stroke-dasharray="1,5" d="M932,-1165C958.222,-1165 950.23,-1205.15 932,-1224 907.859,-1248.96 641.83,-1215 620,-1242 597.708,-1269.58 625.14,-1306.6 659.623,-1313.03"/>
<polygon fill="black" stroke="black" points="670,-1314 659.624,-1317.55 665.022,-1313.53 660.044,-1313.07 660.044,-1313.07 660.044,-1313.07 665.022,-1313.53 660.463,-1308.59 670,-1314 670,-1314"/>
</g>
<!-- choice9711211245116101120116479711599105105100111994556465446574511450 -->
<g id="node14" class="node">
<title>choice9711211245116101120116479711599105105100111994556465446574511450</title>
<g id="a_node14"><a xlink:href="../app-text/asciidoc-8.6.9-r2.svg" xlink:title="app&#45;text/asciidoc&#45;8.6.9&#45;r2">
<ellipse fill="none" stroke="red" cx="814" cy="-1260" rx="144" ry="18"/>
<text text-anchor="middle" x="814" y="-1257" font-family="Helvetica,sans-Serif" font-size="10.00">app&#45;text/asciidoc&#45;8.6.9&#45;r2</text>
</a>
</g>
</g>
<!-- dependency487210&#45;&gt;choice9711211245116101120116479711599105105100111994556465446574511450 -->
<g id="edge13" class="edge">
<title>dependency487210:e&#45;&gt;choice9711211245116101120116479711599105105100111994556465446574511450:w</title>
<path fill="none" stroke="black" stroke-dasharray="1,5" d="M665.302,-1251.01C666.046,-1247.79 667.782,-1244.38 670,-1242 709.827,-1199.34 892.173,-1266.66 932,-1224 949.895,-1204.83 958.222,-1165 932,-1165"/>
<polygon fill="black" stroke="black" points="670,-1260 661.38,-1253.22 667.684,-1255.57 665.368,-1251.14 665.368,-1251.14 665.368,-1251.14 667.684,-1255.57 669.357,-1249.05 670,-1260 670,-1260"/>
</g>
<!-- choice9711211245116101120116479711599105105100111994556465446574511454 -->
<g id="node15" class="node">
<title>choice9711211245116101120116479711599105105100111994556465446574511454</title>
<g id="a_node15"><a xlink:href="../app-text/asciidoc-8.6.9-r6.svg" xlink:title="app&#45;text/asciidoc&#45;8.6.9&#45;r6">
<ellipse fill="none" stroke="red" cx="814" cy="-1422" rx="144" ry="18"/>
<text text-anchor="middle" x="814" y="-1419" font-family="Helvetica,sans-Serif" font-size="10.00">app&#45;text/asciidoc&#45;8.6.9&#45;r6</text>
</a>
</g>
</g>
<!-- dependency487210&#45;&gt;choice9711211245116101120116479711599105105100111994556465446574511454 -->
<g id="edge14" class="edge">
<title>dependency487210:e&#45;&gt;choice9711211245116101120116479711599105105100111994556465446574511454:w</title>
<path fill="none" stroke="black" stroke-dasharray="1,5" d="M932,-1165C958.222,-1165 950.23,-1205.15 932,-1224 907.859,-1248.96 641.83,-1215 620,-1242 570.044,-1303.79 585.455,-1412.17 659.651,-1421.37"/>
<polygon fill="black" stroke="black" points="670,-1422 659.746,-1425.89 665.009,-1421.7 660.018,-1421.4 660.018,-1421.4 660.018,-1421.4 665.009,-1421.7 660.29,-1416.9 670,-1422 670,-1422"/>
</g>
<!-- choice9711211245116101120116479711599105105100111994557575757 -->
<g id="node16" class="node">
<title>choice9711211245116101120116479711599105105100111994557575757</title>
<g id="a_node16"><a xlink:href="../app-text/asciidoc-9999.svg" xlink:title="app&#45;text/asciidoc&#45;9999">
<ellipse fill="none" stroke="red" cx="814" cy="-1368" rx="144" ry="18"/>
<text text-anchor="middle" x="814" y="-1365" font-family="Helvetica,sans-Serif" font-size="10.00">app&#45;text/asciidoc&#45;9999</text>
</a>
</g>
</g>
<!-- dependency487210&#45;&gt;choice9711211245116101120116479711599105105100111994557575757 -->
<g id="edge15" class="edge">
<title>dependency487210:e&#45;&gt;choice9711211245116101120116479711599105105100111994557575757:w</title>
<path fill="none" stroke="black" stroke-dasharray="1,5" d="M932,-1165C958.222,-1165 950.23,-1205.15 932,-1224 907.859,-1248.96 641.83,-1215 620,-1242 584.343,-1286.11 606.739,-1358.84 659.752,-1367.21"/>
<polygon fill="black" stroke="black" points="670,-1368 659.683,-1371.72 665.015,-1367.61 660.03,-1367.23 660.03,-1367.23 660.03,-1367.23 665.015,-1367.61 660.377,-1362.74 670,-1368 670,-1368"/>
</g>
<!-- choice971121124511610112011647100111999811111110745120109108451001161004552464946504511454 -->
<g id="node17" class="node">
<title>choice971121124511610112011647100111999811111110745120109108451001161004552464946504511454</title>
<g id="a_node17"><a xlink:href="../app-text/docbook-xml-dtd-4.1.2-r6.svg" xlink:title="app&#45;text/docbook&#45;xml&#45;dtd&#45;4.1.2&#45;r6">
<ellipse fill="none" stroke="red" cx="814" cy="-962" rx="144" ry="18"/>
<text text-anchor="middle" x="814" y="-959" font-family="Helvetica,sans-Serif" font-size="10.00">app&#45;text/docbook&#45;xml&#45;dtd&#45;4.1.2&#45;r6</text>
</a>
</g>
</g>
<!-- dependency487211&#45;&gt;choice971121124511610112011647100111999811111110745120109108451001161004552464946504511454 -->
<g id="edge16" class="edge">
<title>dependency487211:e&#45;&gt;choice971121124511610112011647100111999811111110745120109108451001161004552464946504511454:w</title>
<path fill="none" stroke="black" stroke-dasharray="1,5" d="M932,-765C955.556,-765 948.376,-801.069 932,-818 907.859,-842.959 641.83,-808.996 620,-836 584.343,-880.108 606.739,-952.836 659.752,-961.207"/>
<polygon fill="black" stroke="black" points="670,-962 659.683,-965.715 665.015,-961.614 660.03,-961.229 660.03,-961.229 660.03,-961.229 665.015,-961.614 660.377,-956.742 670,-962 670,-962"/>
</g>
<!-- choice97112112451161011201164710011199981111111074512010910845100116100455246504511450 -->
<g id="node18" class="node">
<title>choice97112112451161011201164710011199981111111074512010910845100116100455246504511450</title>
<g id="a_node18"><a xlink:href="../app-text/docbook-xml-dtd-4.2-r2.svg" xlink:title="app&#45;text/docbook&#45;xml&#45;dtd&#45;4.2&#45;r2">
<ellipse fill="none" stroke="red" cx="814" cy="-908" rx="144" ry="18"/>
<text text-anchor="middle" x="814" y="-905" font-family="Helvetica,sans-Serif" font-size="10.00">app&#45;text/docbook&#45;xml&#45;dtd&#45;4.2&#45;r2</text>
</a>
</g>
</g>
<!-- dependency487211&#45;&gt;choice97112112451161011201164710011199981111111074512010910845100116100455246504511450 -->
<g id="edge17" class="edge">
<title>dependency487211:e&#45;&gt;choice97112112451161011201164710011199981111111074512010910845100116100455246504511450:w</title>
<path fill="none" stroke="black" stroke-dasharray="1,5" d="M932,-765C955.556,-765 948.376,-801.069 932,-818 907.859,-842.959 641.83,-808.996 620,-836 597.708,-863.575 625.14,-900.599 659.623,-907.029"/>
<polygon fill="black" stroke="black" points="670,-908 659.624,-911.548 665.022,-907.534 660.044,-907.068 660.044,-907.068 660.044,-907.068 665.022,-907.534 660.463,-902.587 670,-908 670,-908"/>
</g>
<!-- choice97112112451161011201164710011199981111111074512010910845100116100455246514511449 -->
<g id="node19" class="node">
<title>choice97112112451161011201164710011199981111111074512010910845100116100455246514511449</title>
<g id="a_node19"><a xlink:href="../app-text/docbook-xml-dtd-4.3-r1.svg" xlink:title="app&#45;text/docbook&#45;xml&#45;dtd&#45;4.3&#45;r1">
<ellipse fill="none" stroke="red" cx="814" cy="-854" rx="144" ry="18"/>
<text text-anchor="middle" x="814" y="-851" font-family="Helvetica,sans-Serif" font-size="10.00">app&#45;text/docbook&#45;xml&#45;dtd&#45;4.3&#45;r1</text>
</a>
</g>
</g>
<!-- dependency487211&#45;&gt;choice97112112451161011201164710011199981111111074512010910845100116100455246514511449 -->
<g id="edge18" class="edge">
<title>dependency487211:e&#45;&gt;choice97112112451161011201164710011199981111111074512010910845100116100455246514511449:w</title>
<path fill="none" stroke="black" stroke-dasharray="1,5" d="M665.302,-845.011C666.046,-841.792 667.782,-838.376 670,-836 709.827,-793.343 892.173,-860.657 932,-818 948.075,-800.782 955.556,-765 932,-765"/>
<polygon fill="black" stroke="black" points="670,-854 661.38,-847.221 667.684,-849.569 665.368,-845.137 665.368,-845.137 665.368,-845.137 667.684,-849.569 669.357,-843.053 670,-854 670,-854"/>
</g>
<!-- choice97112112451161011201164710011199981111111074512010910845100116100455246524511450 -->
<g id="node20" class="node">
<title>choice97112112451161011201164710011199981111111074512010910845100116100455246524511450</title>
<g id="a_node20"><a xlink:href="../app-text/docbook-xml-dtd-4.4-r2.svg" xlink:title="app&#45;text/docbook&#45;xml&#45;dtd&#45;4.4&#45;r2">
<ellipse fill="none" stroke="red" cx="814" cy="-1070" rx="144" ry="18"/>
<text text-anchor="middle" x="814" y="-1067" font-family="Helvetica,sans-Serif" font-size="10.00">app&#45;text/docbook&#45;xml&#45;dtd&#45;4.4&#45;r2</text>
</a>
</g>
</g>
<!-- dependency487211&#45;&gt;choice97112112451161011201164710011199981111111074512010910845100116100455246524511450 -->
<g id="edge19" class="edge">
<title>dependency487211:e&#45;&gt;choice97112112451161011201164710011199981111111074512010910845100116100455246524511450:w</title>
<path fill="none" stroke="black" stroke-dasharray="1,5" d="M932,-765C955.556,-765 948.376,-801.069 932,-818 907.859,-842.959 641.83,-808.996 620,-836 555.362,-915.957 563.04,-1060.03 659.723,-1069.51"/>
<polygon fill="black" stroke="black" points="670,-1070 659.796,-1074.02 665.006,-1069.76 660.011,-1069.52 660.011,-1069.52 660.011,-1069.52 665.006,-1069.76 660.227,-1065.03 670,-1070 670,-1070"/>
</g>
<!-- choice97112112451161011201164710011199981111111074512010910845100116100455246534511449 -->
<g id="node21" class="node">
<title>choice97112112451161011201164710011199981111111074512010910845100116100455246534511449</title>
<g id="a_node21"><a xlink:href="../app-text/docbook-xml-dtd-4.5-r1.svg" xlink:title="app&#45;text/docbook&#45;xml&#45;dtd&#45;4.5&#45;r1">
<ellipse fill="none" stroke="red" cx="814" cy="-1016" rx="144" ry="18"/>
<text text-anchor="middle" x="814" y="-1013" font-family="Helvetica,sans-Serif" font-size="10.00">app&#45;text/docbook&#45;xml&#45;dtd&#45;4.5&#45;r1</text>
</a>
</g>
</g>
<!-- dependency487211&#45;&gt;choice97112112451161011201164710011199981111111074512010910845100116100455246534511449 -->
<g id="edge20" class="edge">
<title>dependency487211:e&#45;&gt;choice97112112451161011201164710011199981111111074512010910845100116100455246534511449:w</title>
<path fill="none" stroke="black" stroke-dasharray="1,5" d="M932,-765C955.556,-765 948.376,-801.069 932,-818 907.859,-842.959 641.83,-808.996 620,-836 570.044,-897.794 585.455,-1006.17 659.651,-1015.37"/>
<polygon fill="black" stroke="black" points="670,-1016 659.746,-1019.89 665.009,-1015.7 660.018,-1015.4 660.018,-1015.4 660.018,-1015.4 665.009,-1015.7 660.29,-1010.9 670,-1016 670,-1016"/>
</g>
<!-- choice971121124511610112011647120109108116111454846484650544511449 -->
<g id="node22" class="node">
<title>choice971121124511610112011647120109108116111454846484650544511449</title>
<g id="a_node22"><a xlink:href="../app-text/xmlto-0.0.26-r1.svg" xlink:title="app&#45;text/xmlto&#45;0.0.26&#45;r1">
<ellipse fill="none" stroke="red" cx="814" cy="-676" rx="144" ry="18"/>
<text text-anchor="middle" x="814" y="-673" font-family="Helvetica,sans-Serif" font-size="10.00">app&#45;text/xmlto&#45;0.0.26&#45;r1</text>
</a>
</g>
</g>
<!-- dependency487212&#45;&gt;choice971121124511610112011647120109108116111454846484650544511449 -->
<g id="edge21" class="edge">
<title>dependency487212:e&#45;&gt;choice971121124511610112011647120109108116111454846484650544511449:w</title>
<path fill="none" stroke="black" stroke-dasharray="1,5" d="M932,-533C955.556,-533 948.376,-569.069 932,-586 907.859,-610.959 641.83,-576.996 620,-604 597.708,-631.575 625.14,-668.599 659.623,-675.029"/>
<polygon fill="black" stroke="black" points="670,-676 659.624,-679.548 665.022,-675.534 660.044,-675.068 660.044,-675.068 660.044,-675.068 665.022,-675.534 660.463,-670.587 670,-676 670,-676"/>
</g>
<!-- choice971121124511610112011647120109108116111454846484650564511449 -->
<g id="node23" class="node">
<title>choice971121124511610112011647120109108116111454846484650564511449</title>
<g id="a_node23"><a xlink:href="../app-text/xmlto-0.0.28-r1.svg" xlink:title="app&#45;text/xmlto&#45;0.0.28&#45;r1">
<ellipse fill="none" stroke="red" cx="814" cy="-622" rx="144" ry="18"/>
<text text-anchor="middle" x="814" y="-619" font-family="Helvetica,sans-Serif" font-size="10.00">app&#45;text/xmlto&#45;0.0.28&#45;r1</text>
</a>
</g>
</g>
<!-- dependency487212&#45;&gt;choice971121124511610112011647120109108116111454846484650564511449 -->
<g id="edge22" class="edge">
<title>dependency487212:e&#45;&gt;choice971121124511610112011647120109108116111454846484650564511449:w</title>
<path fill="none" stroke="black" stroke-dasharray="1,5" d="M665.302,-613.011C666.046,-609.792 667.782,-606.376 670,-604 709.827,-561.343 892.173,-628.657 932,-586 948.075,-568.782 955.556,-533 932,-533"/>
<polygon fill="black" stroke="black" points="670,-622 661.38,-615.221 667.684,-617.569 665.368,-613.137 665.368,-613.137 665.368,-613.137 667.684,-617.569 669.357,-611.053 670,-622 670,-622"/>
</g>
<!-- dependency487214 -->
<g id="node8" class="node">
<title>dependency487214</title>
<polygon fill="none" stroke="blue" points="704,-1462 704,-1560 809,-1560 809,-1462 704,-1462"/>
<text text-anchor="start" x="734.823" y="-1508" font-family="Helvetica,sans-Serif" font-size="10.00">pack_dep</text>
<polygon fill="none" stroke="blue" points="809,-1538 809,-1560 919,-1560 919,-1538 809,-1538"/>
<text text-anchor="start" x="858.441" y="-1546" font-family="Helvetica,sans-Serif" font-size="10.00">no</text>
<polygon fill="none" stroke="blue" points="809,-1516 809,-1538 919,-1538 919,-1516 809,-1516"/>
<text text-anchor="start" x="850.946" y="-1524" font-family="Helvetica,sans-Serif" font-size="10.00">sys&#45;fs</text>
<polygon fill="none" stroke="blue" points="809,-1494 809,-1516 919,-1516 919,-1494 809,-1494"/>
<text text-anchor="start" x="842.048" y="-1502" font-family="Helvetica,sans-Serif" font-size="10.00">e2fsprogs</text>
<polygon fill="none" stroke="blue" points="809,-1472 809,-1494 919,-1494 919,-1472 809,-1472"/>
<text text-anchor="start" x="852.882" y="-1480" font-family="Helvetica,sans-Serif" font-size="10.00">none</text>
<polygon fill="none" stroke="blue" points="809,-1462 809,-1472 919,-1472 919,-1462 809,-1462"/>
</g>
<!-- dependency487213&#45;&gt;dependency487214 -->
<g id="edge6" class="edge">
<title>dependency487213:e&#45;&gt;dependency487214:w</title>
<path fill="none" stroke="black" stroke-dasharray="5,2" d="M562,-1573C624.033,-1573 629.889,-1517.6 685.777,-1511.54"/>
<polygon fill="black" stroke="black" points="696,-1511 686.249,-1516.02 691.007,-1511.26 686.014,-1511.52 686.014,-1511.52 686.014,-1511.52 691.007,-1511.26 685.778,-1507.03 696,-1511 696,-1511"/>
</g>
<!-- dependency487215 -->
<g id="node9" class="node">
<title>dependency487215</title>
<polygon fill="none" stroke="blue" points="704,-1586 704,-1684 809,-1684 809,-1586 704,-1586"/>
<text text-anchor="start" x="734.823" y="-1632" font-family="Helvetica,sans-Serif" font-size="10.00">pack_dep</text>
<polygon fill="none" stroke="blue" points="809,-1662 809,-1684 919,-1684 919,-1662 809,-1662"/>
<text text-anchor="start" x="858.441" y="-1670" font-family="Helvetica,sans-Serif" font-size="10.00">no</text>
<polygon fill="none" stroke="blue" points="809,-1640 809,-1662 919,-1662 919,-1640 809,-1640"/>
<text text-anchor="start" x="847.337" y="-1648" font-family="Helvetica,sans-Serif" font-size="10.00">sys&#45;libs</text>
<polygon fill="none" stroke="blue" points="809,-1618 809,-1640 919,-1640 919,-1618 809,-1618"/>
<text text-anchor="start" x="832.885" y="-1626" font-family="Helvetica,sans-Serif" font-size="10.00">e2fsprogs&#45;libs</text>
<polygon fill="none" stroke="blue" points="809,-1596 809,-1618 919,-1618 919,-1596 809,-1596"/>
<text text-anchor="start" x="852.882" y="-1604" font-family="Helvetica,sans-Serif" font-size="10.00">none</text>
<polygon fill="none" stroke="blue" points="809,-1586 809,-1596 919,-1596 919,-1586 809,-1586"/>
</g>
<!-- dependency487213&#45;&gt;dependency487215 -->
<g id="edge7" class="edge">
<title>dependency487213:e&#45;&gt;dependency487215:w</title>
<path fill="none" stroke="black" stroke-dasharray="5,2" d="M562,-1573C624.033,-1573 629.889,-1628.4 685.777,-1634.46"/>
<polygon fill="black" stroke="black" points="696,-1635 685.778,-1638.97 691.007,-1634.74 686.014,-1634.48 686.014,-1634.48 686.014,-1634.48 691.007,-1634.74 686.249,-1629.98 696,-1635 696,-1635"/>
</g>
<!-- choice115121115451021154710150102115112114111103115454946525146514511449 -->
<g id="node24" class="node">
<title>choice115121115451021154710150102115112114111103115454946525146514511449</title>
<g id="a_node24"><a xlink:href="../sys-fs/e2fsprogs-1.43.3-r1.svg" xlink:title="sys&#45;fs/e2fsprogs&#45;1.43.3&#45;r1">
<ellipse fill="none" stroke="red" cx="814" cy="-2010" rx="144" ry="18"/>
<text text-anchor="middle" x="814" y="-2007" font-family="Helvetica,sans-Serif" font-size="10.00">sys&#45;fs/e2fsprogs&#45;1.43.3&#45;r1</text>
</a>
</g>
</g>
<!-- dependency487214&#45;&gt;choice115121115451021154710150102115112114111103115454946525146514511449 -->
<g id="edge23" class="edge">
<title>dependency487214:e&#45;&gt;choice115121115451021154710150102115112114111103115454946525146514511449:w</title>
<path fill="none" stroke="black" stroke-dasharray="1,5" d="M932,-1511C955.556,-1511 948.376,-1547.07 932,-1564 907.859,-1588.96 641.83,-1555 620,-1582 565.235,-1649.74 580.286,-1896.47 620,-1974 630.826,-1995.13 639.884,-2006.69 659.957,-2009.38"/>
<polygon fill="black" stroke="black" points="670,-2010 659.742,-2013.88 665.009,-2009.69 660.019,-2009.39 660.019,-2009.39 660.019,-2009.39 665.009,-2009.69 660.295,-2004.89 670,-2010 670,-2010"/>
</g>
<!-- choice11512111545102115471015010211511211411110311545494652514654 -->
<g id="node25" class="node">
<title>choice11512111545102115471015010211511211411110311545494652514654</title>
<g id="a_node25"><a xlink:href="../sys-fs/e2fsprogs-1.43.6.svg" xlink:title="sys&#45;fs/e2fsprogs&#45;1.43.6">
<ellipse fill="none" stroke="red" cx="814" cy="-1956" rx="144" ry="18"/>
<text text-anchor="middle" x="814" y="-1953" font-family="Helvetica,sans-Serif" font-size="10.00">sys&#45;fs/e2fsprogs&#45;1.43.6</text>
</a>
</g>
</g>
<!-- dependency487214&#45;&gt;choice11512111545102115471015010211511211411110311545494652514654 -->
<g id="edge24" class="edge">
<title>dependency487214:e&#45;&gt;choice11512111545102115471015010211511211411110311545494652514654:w</title>
<path fill="none" stroke="black" stroke-dasharray="1,5" d="M932,-1511C955.556,-1511 948.376,-1547.07 932,-1564 907.859,-1588.96 641.83,-1555 620,-1582 572.779,-1640.41 585.757,-1853.15 620,-1920 630.826,-1941.13 639.884,-1952.69 659.957,-1955.38"/>
<polygon fill="black" stroke="black" points="670,-1956 659.742,-1959.88 665.009,-1955.69 660.019,-1955.39 660.019,-1955.39 660.019,-1955.39 665.009,-1955.69 660.295,-1950.89 670,-1956 670,-1956"/>
</g>
<!-- choice11512111545102115471015010211511211411110311545494652514655 -->
<g id="node26" class="node">
<title>choice11512111545102115471015010211511211411110311545494652514655</title>
<g id="a_node26"><a xlink:href="../sys-fs/e2fsprogs-1.43.7.svg" xlink:title="sys&#45;fs/e2fsprogs&#45;1.43.7">
<ellipse fill="none" stroke="red" cx="814" cy="-1902" rx="144" ry="18"/>
<text text-anchor="middle" x="814" y="-1899" font-family="Helvetica,sans-Serif" font-size="10.00">sys&#45;fs/e2fsprogs&#45;1.43.7</text>
</a>
</g>
</g>
<!-- dependency487214&#45;&gt;choice11512111545102115471015010211511211411110311545494652514655 -->
<g id="edge25" class="edge">
<title>dependency487214:e&#45;&gt;choice11512111545102115471015010211511211411110311545494652514655:w</title>
<path fill="none" stroke="black" stroke-dasharray="1,5" d="M932,-1511C955.556,-1511 948.376,-1547.07 932,-1564 907.859,-1588.96 641.83,-1555 620,-1582 580.323,-1631.08 591.227,-1809.83 620,-1866 630.826,-1887.13 639.884,-1898.69 659.957,-1901.38"/>
<polygon fill="black" stroke="black" points="670,-1902 659.742,-1905.88 665.009,-1901.69 660.019,-1901.39 660.019,-1901.39 660.019,-1901.39 665.009,-1901.69 660.295,-1896.89 670,-1902 670,-1902"/>
</g>
<!-- choice11512111545108105981154710150102115112114111103115451081059811545494652514651 -->
<g id="node27" class="node">
<title>choice11512111545108105981154710150102115112114111103115451081059811545494652514651</title>
<g id="a_node27"><a xlink:href="../sys-libs/e2fsprogs-libs-1.43.3.svg" xlink:title="sys&#45;libs/e2fsprogs&#45;libs&#45;1.43.3">
<ellipse fill="none" stroke="red" cx="814" cy="-1848" rx="144" ry="18"/>
<text text-anchor="middle" x="814" y="-1845" font-family="Helvetica,sans-Serif" font-size="10.00">sys&#45;libs/e2fsprogs&#45;libs&#45;1.43.3</text>
</a>
</g>
</g>
<!-- dependency487215&#45;&gt;choice11512111545108105981154710150102115112114111103115451081059811545494652514651 -->
<g id="edge26" class="edge">
<title>dependency487215:e&#45;&gt;choice11512111545108105981154710150102115112114111103115451081059811545494652514651:w</title>
<path fill="none" stroke="black" stroke-dasharray="1,5" d="M932,-1635C955.556,-1635 948.376,-1671.07 932,-1688 907.859,-1712.96 641.83,-1679 620,-1706 580.154,-1755.29 600.625,-1838.62 659.767,-1847.27"/>
<polygon fill="black" stroke="black" points="670,-1848 659.704,-1851.78 665.013,-1847.64 660.025,-1847.29 660.025,-1847.29 660.025,-1847.29 665.013,-1847.64 660.347,-1842.8 670,-1848 670,-1848"/>
</g>
<!-- choice11512111545108105981154710150102115112114111103115451081059811545494652514654 -->
<g id="node28" class="node">
<title>choice11512111545108105981154710150102115112114111103115451081059811545494652514654</title>
<g id="a_node28"><a xlink:href="../sys-libs/e2fsprogs-libs-1.43.6.svg" xlink:title="sys&#45;libs/e2fsprogs&#45;libs&#45;1.43.6">
<ellipse fill="none" stroke="red" cx="814" cy="-2172" rx="144" ry="18"/>
<text text-anchor="middle" x="814" y="-2169" font-family="Helvetica,sans-Serif" font-size="10.00">sys&#45;libs/e2fsprogs&#45;libs&#45;1.43.6</text>
</a>
</g>
</g>
<!-- dependency487215&#45;&gt;choice11512111545108105981154710150102115112114111103115451081059811545494652514654 -->
<g id="edge27" class="edge">
<title>dependency487215:e&#45;&gt;choice11512111545108105981154710150102115112114111103115451081059811545494652514654:w</title>
<path fill="none" stroke="black" stroke-dasharray="1,5" d="M932,-1635C955.556,-1635 948.376,-1671.07 932,-1688 907.859,-1712.96 641.83,-1679 620,-1706 559.926,-1780.31 576.436,-2050.95 620,-2136 630.826,-2157.13 639.884,-2168.69 659.957,-2171.38"/>
<polygon fill="black" stroke="black" points="670,-2172 659.742,-2175.88 665.009,-2171.69 660.019,-2171.39 660.019,-2171.39 660.019,-2171.39 665.009,-2171.69 660.295,-2166.89 670,-2172 670,-2172"/>
</g>
<!-- choice11512111545108105981154710150102115112114111103115451081059811545494652514655 -->
<g id="node29" class="node">
<title>choice11512111545108105981154710150102115112114111103115451081059811545494652514655</title>
<g id="a_node29"><a xlink:href="../sys-libs/e2fsprogs-libs-1.43.7.svg" xlink:title="sys&#45;libs/e2fsprogs&#45;libs&#45;1.43.7">
<ellipse fill="none" stroke="red" cx="814" cy="-2118" rx="144" ry="18"/>
<text text-anchor="middle" x="814" y="-2115" font-family="Helvetica,sans-Serif" font-size="10.00">sys&#45;libs/e2fsprogs&#45;libs&#45;1.43.7</text>
</a>
</g>
</g>
<!-- dependency487215&#45;&gt;choice11512111545108105981154710150102115112114111103115451081059811545494652514655 -->
<g id="edge28" class="edge">
<title>dependency487215:e&#45;&gt;choice11512111545108105981154710150102115112114111103115451081059811545494652514655:w</title>
<path fill="none" stroke="black" stroke-dasharray="1,5" d="M932,-1635C955.556,-1635 948.376,-1671.07 932,-1688 907.859,-1712.96 641.83,-1679 620,-1706 567.47,-1770.98 581.907,-2007.63 620,-2082 630.826,-2103.13 639.884,-2114.69 659.957,-2117.38"/>
<polygon fill="black" stroke="black" points="670,-2118 659.742,-2121.88 665.009,-2117.69 660.019,-2117.39 660.019,-2117.39 660.019,-2117.39 665.009,-2117.69 660.295,-2112.89 670,-2118 670,-2118"/>
</g>
<!-- choice1001011184510810598115471081221114550464857 -->
<g id="node30" class="node">
<title>choice1001011184510810598115471081221114550464857</title>
<g id="a_node30"><a xlink:href="../dev-libs/lzo-2.09.svg" xlink:title="dev&#45;libs/lzo&#45;2.09">
<ellipse fill="none" stroke="red" cx="814" cy="-444" rx="144" ry="18"/>
<text text-anchor="middle" x="814" y="-441" font-family="Helvetica,sans-Serif" font-size="10.00">dev&#45;libs/lzo&#45;2.09</text>
</a>
</g>
</g>
<!-- dependency487216&#45;&gt;choice1001011184510810598115471081221114550464857 -->
<g id="edge29" class="edge">
<title>dependency487216:e&#45;&gt;choice1001011184510810598115471081221114550464857:w</title>
<path fill="none" stroke="black" stroke-dasharray="1,5" d="M932,-301C955.556,-301 948.376,-337.069 932,-354 907.859,-378.959 641.83,-344.996 620,-372 597.708,-399.575 625.14,-436.599 659.623,-443.029"/>
<polygon fill="black" stroke="black" points="670,-444 659.624,-447.548 665.022,-443.534 660.044,-443.068 660.044,-443.068 660.044,-443.068 665.022,-443.534 660.463,-438.587 670,-444 670,-444"/>
</g>
<!-- choice1001011184510810598115471081221114550464948 -->
<g id="node31" class="node">
<title>choice1001011184510810598115471081221114550464948</title>
<g id="a_node31"><a xlink:href="../dev-libs/lzo-2.10.svg" xlink:title="dev&#45;libs/lzo&#45;2.10">
<ellipse fill="none" stroke="red" cx="814" cy="-390" rx="144" ry="18"/>
<text text-anchor="middle" x="814" y="-387" font-family="Helvetica,sans-Serif" font-size="10.00">dev&#45;libs/lzo&#45;2.10</text>
</a>
</g>
</g>
<!-- dependency487216&#45;&gt;choice1001011184510810598115471081221114550464948 -->
<g id="edge30" class="edge">
<title>dependency487216:e&#45;&gt;choice1001011184510810598115471081221114550464948:w</title>
<path fill="none" stroke="black" stroke-dasharray="1,5" d="M665.302,-381.011C666.046,-377.792 667.782,-374.376 670,-372 709.827,-329.343 892.173,-396.657 932,-354 948.075,-336.782 955.556,-301 932,-301"/>
<polygon fill="black" stroke="black" points="670,-390 661.38,-383.221 667.684,-385.569 665.368,-381.137 665.368,-381.137 665.368,-381.137 667.684,-385.569 669.357,-379.053 670,-390 670,-390"/>
</g>
<!-- choice1151211154510810598115471221081059845494650464949 -->
<g id="node32" class="node">
<title>choice1151211154510810598115471221081059845494650464949</title>
<g id="a_node32"><a xlink:href="../sys-libs/zlib-1.2.11.svg" xlink:title="sys&#45;libs/zlib&#45;1.2.11">
<ellipse fill="none" stroke="red" cx="814" cy="-212" rx="144" ry="18"/>
<text text-anchor="middle" x="814" y="-209" font-family="Helvetica,sans-Serif" font-size="10.00">sys&#45;libs/zlib&#45;1.2.11</text>
</a>
</g>
</g>
<!-- dependency487217&#45;&gt;choice1151211154510810598115471221081059845494650464949 -->
<g id="edge31" class="edge">
<title>dependency487217:e&#45;&gt;choice1151211154510810598115471221081059845494650464949:w</title>
<path fill="none" stroke="black" stroke-dasharray="1,5" d="M932,-69C955.556,-69 948.376,-105.069 932,-122 907.859,-146.959 641.83,-112.996 620,-140 597.708,-167.575 625.14,-204.599 659.623,-211.029"/>
<polygon fill="black" stroke="black" points="670,-212 659.624,-215.548 665.022,-211.534 660.044,-211.068 660.044,-211.068 660.044,-211.068 665.022,-211.534 660.463,-206.587 670,-212 670,-212"/>
</g>
<!-- choice11512111545108105981154712210810598454946504649494511449 -->
<g id="node33" class="node">
<title>choice11512111545108105981154712210810598454946504649494511449</title>
<g id="a_node33"><a xlink:href="../sys-libs/zlib-1.2.11-r1.svg" xlink:title="sys&#45;libs/zlib&#45;1.2.11&#45;r1">
<ellipse fill="none" stroke="red" cx="814" cy="-158" rx="144" ry="18"/>
<text text-anchor="middle" x="814" y="-155" font-family="Helvetica,sans-Serif" font-size="10.00">sys&#45;libs/zlib&#45;1.2.11&#45;r1</text>
</a>
</g>
</g>
<!-- dependency487217&#45;&gt;choice11512111545108105981154712210810598454946504649494511449 -->
<g id="edge32" class="edge">
<title>dependency487217:e&#45;&gt;choice11512111545108105981154712210810598454946504649494511449:w</title>
<path fill="none" stroke="black" stroke-dasharray="1,5" d="M665.302,-149.011C666.046,-145.792 667.782,-142.376 670,-140 709.827,-97.3428 892.173,-164.657 932,-122 948.075,-104.782 955.556,-69 932,-69"/>
<polygon fill="black" stroke="black" points="670,-158 661.38,-151.221 667.684,-153.569 665.368,-149.137 665.368,-149.137 665.368,-149.137 667.684,-153.569 669.357,-147.053 670,-158 670,-158"/>
</g>
</g>
</svg>
