<?xml version="1.0" encoding="UTF-8" standalone="no"?>
<!DOCTYPE svg PUBLIC "-//W3C//DTD SVG 1.1//EN"
 "http://www.w3.org/Graphics/SVG/1.1/DTD/svg11.dtd">
<!-- Generated by graphviz version 2.41.20171026.1811 (20171026.1811)
 -->
<!-- Title: prolog Pages: 1 -->
<svg width="1330pt" height="1096pt"
 viewBox="0.00 0.00 1330.00 1096.00" xmlns="http://www.w3.org/2000/svg" xmlns:xlink="http://www.w3.org/1999/xlink">
<g id="graph0" class="graph" transform="scale(1 1) rotate(0) translate(4 1092)">
<title>prolog</title>
<polygon fill="white" stroke="transparent" points="-4,4 -4,-1092 1326,-1092 1326,4 -4,4"/>
<g id="clust1" class="cluster">
<title>cluster_leftcol</title>
<polygon fill="none" stroke="gray" points="8,-450 8,-522 312,-522 312,-450 8,-450"/>
<text text-anchor="start" x="146.66" y="-510" font-family="Helvetica,sans-Serif" font-style="italic" font-size="10.00">ebuild</text>
</g>
<g id="clust2" class="cluster">
<title>cluster_midcol</title>
<polygon fill="none" stroke="gray" points="396,-8 396,-1080 926,-1080 926,-8 396,-8"/>
<text text-anchor="start" x="629.88" y="-1068" font-family="Helvetica,sans-Serif" font-style="italic" font-size="10.00">dependencies</text>
</g>
<g id="clust3" class="cluster">
<title>cluster_compile</title>
<polygon fill="#eeeeee" stroke="gray" points="404,-538 404,-1052 918,-1052 918,-538 404,-538"/>
<text text-anchor="start" x="643.78" y="-1040" font-family="Helvetica,sans-Serif" font-style="italic" font-size="10.00">compile</text>
</g>
<g id="clust11" class="cluster">
<title>cluster_run</title>
<polygon fill="#eeeeee" stroke="gray" points="404,-16 404,-530 918,-530 918,-16 404,-16"/>
<text text-anchor="start" x="653.78" y="-518" font-family="Helvetica,sans-Serif" font-style="italic" font-size="10.00">run</text>
</g>
<g id="clust18" class="cluster">
<title>cluster_choices</title>
<polygon fill="none" stroke="gray" points="1010,-155 1010,-983 1314,-983 1314,-155 1010,-155"/>
<text text-anchor="start" x="1137.82" y="-971" font-family="Helvetica,sans-Serif" font-style="italic" font-size="10.00">candidates</text>
</g>
<!-- id -->
<g id="node1" class="node">
<title>id</title>
<g id="a_node1"><a xlink:href="../sys-fs/dmg2img-1.6.7-r1.svg" xlink:title="portage://sys&#45;fs/dmg2img&#45;1.6.7&#45;r1">
<ellipse fill="none" stroke="red" cx="160" cy="-476" rx="144" ry="18"/>
<text text-anchor="middle" x="160" y="-473" font-family="Helvetica,sans-Serif" font-size="10.00">portage://sys&#45;fs/dmg2img&#45;1.6.7&#45;r1</text>
</a>
</g>
</g>
<!-- dependency24630 -->
<g id="node2" class="node">
<title>dependency24630</title>
<polygon fill="none" stroke="red" points="420,-853 420,-897 511,-897 511,-853 420,-853"/>
<text text-anchor="start" x="430.77" y="-872" font-family="Helvetica,sans-Serif" font-size="10.00">use_conditional</text>
<polygon fill="none" stroke="red" points="511,-875 511,-897 558,-897 558,-875 511,-875"/>
<text text-anchor="start" x="515.6" y="-883" font-family="Helvetica,sans-Serif" font-size="10.00">negative</text>
<polygon fill="none" stroke="red" points="511,-853 511,-875 558,-875 558,-853 511,-853"/>
<text text-anchor="start" x="518.95" y="-861" font-family="Helvetica,sans-Serif" font-size="10.00">libressl</text>
</g>
<!-- id&#45;&gt;dependency24630 -->
<g id="edge2" class="edge">
<title>id:e&#45;&gt;dependency24630:w</title>
<path fill="none" stroke="black" d="M305,-476C484.9,-476 237.54,-859.57 400.75,-874.55"/>
<polygon fill="black" stroke="black" points="411,-875 400.81,-879.06 406,-874.78 401.01,-874.56 401.01,-874.56 401.01,-874.56 406,-874.78 401.21,-870.06 411,-875 411,-875"/>
</g>
<!-- dependency24632 -->
<g id="node4" class="node">
<title>dependency24632</title>
<polygon fill="none" stroke="red" points="422,-687 422,-731 513,-731 513,-687 422,-687"/>
<text text-anchor="start" x="432.77" y="-706" font-family="Helvetica,sans-Serif" font-size="10.00">use_conditional</text>
<polygon fill="none" stroke="red" points="513,-709 513,-731 556,-731 556,-709 513,-709"/>
<text text-anchor="start" x="517.55" y="-717" font-family="Helvetica,sans-Serif" font-size="10.00">positive</text>
<polygon fill="none" stroke="red" points="513,-687 513,-709 556,-709 556,-687 513,-687"/>
<text text-anchor="start" x="518.95" y="-695" font-family="Helvetica,sans-Serif" font-size="10.00">libressl</text>
</g>
<!-- id&#45;&gt;dependency24632 -->
<g id="edge4" class="edge">
<title>id:e&#45;&gt;dependency24632:w</title>
<path fill="none" stroke="black" d="M305,-476C415.57,-476 306.15,-694.67 402.97,-708.33"/>
<polygon fill="black" stroke="black" points="413,-709 402.72,-712.82 408.01,-708.67 403.02,-708.33 403.02,-708.33 403.02,-708.33 408.01,-708.67 403.32,-703.84 413,-709 413,-709"/>
</g>
<!-- dependency24634 -->
<g id="node6" class="node">
<title>dependency24634</title>
<polygon fill="none" stroke="blue" points="682,-674 682,-772 787,-772 787,-674 682,-674"/>
<text text-anchor="start" x="712.82" y="-720" font-family="Helvetica,sans-Serif" font-size="10.00">pack_dep</text>
<polygon fill="none" stroke="blue" points="787,-750 787,-772 897,-772 897,-750 787,-750"/>
<text text-anchor="start" x="836.44" y="-758" font-family="Helvetica,sans-Serif" font-size="10.00">no</text>
<polygon fill="none" stroke="blue" points="787,-728 787,-750 897,-750 897,-728 787,-728"/>
<text text-anchor="start" x="822.27" y="-736" font-family="Helvetica,sans-Serif" font-size="10.00">app&#45;arch</text>
<polygon fill="none" stroke="blue" points="787,-706 787,-728 897,-728 897,-706 787,-706"/>
<text text-anchor="start" x="830.05" y="-714" font-family="Helvetica,sans-Serif" font-size="10.00">bzip2</text>
<polygon fill="none" stroke="blue" points="787,-684 787,-706 897,-706 897,-684 787,-684"/>
<text text-anchor="start" x="830.88" y="-692" font-family="Helvetica,sans-Serif" font-size="10.00">none</text>
<polygon fill="none" stroke="blue" points="787,-674 787,-684 897,-684 897,-674 787,-674"/>
</g>
<!-- id&#45;&gt;dependency24634 -->
<g id="edge5" class="edge">
<title>id:e&#45;&gt;dependency24634:w</title>
<path fill="none" stroke="black" d="M490,-352C524.64,-348.47 540.74,-347.04 566,-371 682.17,-481.2 517.71,-712.77 663.91,-722.67"/>
<polygon fill="black" stroke="black" points="674,-723 663.86,-727.17 669,-722.84 664.01,-722.68 664.01,-722.68 664.01,-722.68 669,-722.84 664.15,-718.18 674,-723 674,-723"/>
</g>
<!-- dependency24635 -->
<g id="node7" class="node">
<title>dependency24635</title>
<polygon fill="none" stroke="blue" points="682,-550 682,-648 787,-648 787,-550 682,-550"/>
<text text-anchor="start" x="712.82" y="-596" font-family="Helvetica,sans-Serif" font-size="10.00">pack_dep</text>
<polygon fill="none" stroke="blue" points="787,-626 787,-648 897,-648 897,-626 787,-626"/>
<text text-anchor="start" x="836.44" y="-634" font-family="Helvetica,sans-Serif" font-size="10.00">no</text>
<polygon fill="none" stroke="blue" points="787,-604 787,-626 897,-626 897,-604 787,-604"/>
<text text-anchor="start" x="825.34" y="-612" font-family="Helvetica,sans-Serif" font-size="10.00">sys&#45;libs</text>
<polygon fill="none" stroke="blue" points="787,-582 787,-604 897,-604 897,-582 787,-582"/>
<text text-anchor="start" x="834.5" y="-590" font-family="Helvetica,sans-Serif" font-size="10.00">zlib</text>
<polygon fill="none" stroke="blue" points="787,-560 787,-582 897,-582 897,-560 787,-560"/>
<text text-anchor="start" x="830.88" y="-568" font-family="Helvetica,sans-Serif" font-size="10.00">none</text>
<polygon fill="none" stroke="blue" points="787,-550 787,-560 897,-560 897,-550 787,-550"/>
</g>
<!-- id&#45;&gt;dependency24635 -->
<g id="edge6" class="edge">
<title>id:e&#45;&gt;dependency24635:w</title>
<path fill="none" stroke="black" d="M490,-352C524.64,-348.47 539.07,-348.93 566,-371 649.92,-439.8 567.54,-588.98 663.78,-598.52"/>
<polygon fill="black" stroke="black" points="674,-599 663.8,-603.03 669.01,-598.77 664.01,-598.53 664.01,-598.53 664.01,-598.53 669.01,-598.77 664.22,-594.04 674,-599 674,-599"/>
</g>
<!-- dependency24636 -->
<g id="node8" class="node">
<title>dependency24636</title>
<polygon fill="none" stroke="red" points="420,-454 420,-498 511,-498 511,-454 420,-454"/>
<text text-anchor="start" x="430.77" y="-473" font-family="Helvetica,sans-Serif" font-size="10.00">use_conditional</text>
<polygon fill="none" stroke="red" points="511,-476 511,-498 558,-498 558,-476 511,-476"/>
<text text-anchor="start" x="515.6" y="-484" font-family="Helvetica,sans-Serif" font-size="10.00">negative</text>
<polygon fill="none" stroke="red" points="511,-454 511,-476 558,-476 558,-454 511,-454"/>
<text text-anchor="start" x="518.95" y="-462" font-family="Helvetica,sans-Serif" font-size="10.00">libressl</text>
</g>
<!-- id&#45;&gt;dependency24636 -->
<g id="edge8" class="edge">
<title>id:e&#45;&gt;dependency24636:w</title>
<path fill="none" stroke="black" d="M305,-476C349.26,-476 362.33,-476 402.82,-476"/>
<ellipse fill="none" stroke="black" cx="407" cy="-476" rx="4" ry="4"/>
</g>
<!-- dependency24638 -->
<g id="node10" class="node">
<title>dependency24638</title>
<polygon fill="none" stroke="red" points="422,-384 422,-428 513,-428 513,-384 422,-384"/>
<text text-anchor="start" x="432.77" y="-403" font-family="Helvetica,sans-Serif" font-size="10.00">use_conditional</text>
<polygon fill="none" stroke="red" points="513,-406 513,-428 556,-428 556,-406 513,-406"/>
<text text-anchor="start" x="517.55" y="-414" font-family="Helvetica,sans-Serif" font-size="10.00">positive</text>
<polygon fill="none" stroke="red" points="513,-384 513,-406 556,-406 556,-384 513,-384"/>
<text text-anchor="start" x="518.95" y="-392" font-family="Helvetica,sans-Serif" font-size="10.00">libressl</text>
</g>
<!-- id&#45;&gt;dependency24638 -->
<g id="edge10" class="edge">
<title>id:e&#45;&gt;dependency24638:w</title>
<path fill="none" stroke="black" d="M305,-476C359.3,-476 356.29,-412.93 404.76,-406.52"/>
<ellipse fill="none" stroke="black" cx="409.01" cy="-406.25" rx="4" ry="4"/>
</g>
<!-- dependency24640 -->
<g id="node12" class="node">
<title>dependency24640</title>
<polygon fill="none" stroke="blue" points="682,-152 682,-250 787,-250 787,-152 682,-152"/>
<text text-anchor="start" x="712.82" y="-198" font-family="Helvetica,sans-Serif" font-size="10.00">pack_dep</text>
<polygon fill="none" stroke="blue" points="787,-228 787,-250 897,-250 897,-228 787,-228"/>
<text text-anchor="start" x="836.44" y="-236" font-family="Helvetica,sans-Serif" font-size="10.00">no</text>
<polygon fill="none" stroke="blue" points="787,-206 787,-228 897,-228 897,-206 787,-206"/>
<text text-anchor="start" x="822.27" y="-214" font-family="Helvetica,sans-Serif" font-size="10.00">app&#45;arch</text>
<polygon fill="none" stroke="blue" points="787,-184 787,-206 897,-206 897,-184 787,-184"/>
<text text-anchor="start" x="830.05" y="-192" font-family="Helvetica,sans-Serif" font-size="10.00">bzip2</text>
<polygon fill="none" stroke="blue" points="787,-162 787,-184 897,-184 897,-162 787,-162"/>
<text text-anchor="start" x="830.88" y="-170" font-family="Helvetica,sans-Serif" font-size="10.00">none</text>
<polygon fill="none" stroke="blue" points="787,-152 787,-162 897,-162 897,-152 787,-152"/>
</g>
<!-- id&#45;&gt;dependency24640 -->
<g id="edge11" class="edge">
<title>id:e&#45;&gt;dependency24640:w</title>
<path fill="none" stroke="black" d="M490,-352C592.47,-341.55 569.54,-208.31 665.9,-201.29"/>
<ellipse fill="none" stroke="black" cx="670" cy="-201.14" rx="4" ry="4"/>
</g>
<!-- dependency24641 -->
<g id="node13" class="node">
<title>dependency24641</title>
<polygon fill="none" stroke="blue" points="682,-28 682,-126 787,-126 787,-28 682,-28"/>
<text text-anchor="start" x="712.82" y="-74" font-family="Helvetica,sans-Serif" font-size="10.00">pack_dep</text>
<polygon fill="none" stroke="blue" points="787,-104 787,-126 897,-126 897,-104 787,-104"/>
<text text-anchor="start" x="836.44" y="-112" font-family="Helvetica,sans-Serif" font-size="10.00">no</text>
<polygon fill="none" stroke="blue" points="787,-82 787,-104 897,-104 897,-82 787,-82"/>
<text text-anchor="start" x="825.34" y="-90" font-family="Helvetica,sans-Serif" font-size="10.00">sys&#45;libs</text>
<polygon fill="none" stroke="blue" points="787,-60 787,-82 897,-82 897,-60 787,-60"/>
<text text-anchor="start" x="834.5" y="-68" font-family="Helvetica,sans-Serif" font-size="10.00">zlib</text>
<polygon fill="none" stroke="blue" points="787,-38 787,-60 897,-60 897,-38 787,-38"/>
<text text-anchor="start" x="830.88" y="-46" font-family="Helvetica,sans-Serif" font-size="10.00">none</text>
<polygon fill="none" stroke="blue" points="787,-28 787,-38 897,-38 897,-28 787,-28"/>
</g>
<!-- id&#45;&gt;dependency24641 -->
<g id="edge12" class="edge">
<title>id:e&#45;&gt;dependency24641:w</title>
<path fill="none" stroke="black" d="M490,-352C633.44,-337.37 531.12,-87.07 665.67,-77.29"/>
<ellipse fill="none" stroke="black" cx="670" cy="-77.14" rx="4" ry="4"/>
<path fill="none" stroke="black" d="M305,-476C366.75,-476 342.72,-402.23 396,-371 432.02,-349.89 446.46,-356.24 488,-352"/>
</g>
<!-- dependency24631 -->
<g id="node3" class="node">
<title>dependency24631</title>
<polygon fill="none" stroke="blue" points="682,-922 682,-1020 787,-1020 787,-922 682,-922"/>
<text text-anchor="start" x="712.82" y="-968" font-family="Helvetica,sans-Serif" font-size="10.00">pack_dep</text>
<polygon fill="none" stroke="blue" points="787,-998 787,-1020 897,-1020 897,-998 787,-998"/>
<text text-anchor="start" x="836.44" y="-1006" font-family="Helvetica,sans-Serif" font-size="10.00">no</text>
<polygon fill="none" stroke="blue" points="787,-976 787,-998 897,-998 897,-976 787,-976"/>
<text text-anchor="start" x="824.78" y="-984" font-family="Helvetica,sans-Serif" font-size="10.00">dev&#45;libs</text>
<polygon fill="none" stroke="blue" points="787,-954 787,-976 897,-976 897,-954 787,-954"/>
<text text-anchor="start" x="824.77" y="-962" font-family="Helvetica,sans-Serif" font-size="10.00">openssl</text>
<polygon fill="none" stroke="blue" points="787,-932 787,-954 897,-954 897,-932 787,-932"/>
<text text-anchor="start" x="830.88" y="-940" font-family="Helvetica,sans-Serif" font-size="10.00">none</text>
<polygon fill="none" stroke="blue" points="787,-922 787,-932 897,-932 897,-922 787,-922"/>
</g>
<!-- dependency24630&#45;&gt;dependency24631 -->
<g id="edge1" class="edge">
<title>dependency24630:e&#45;&gt;dependency24631:w</title>
<path fill="none" stroke="black" stroke-dasharray="5,2" d="M566,-875C626.58,-875 611.82,-960.43 663.87,-970.11"/>
<polygon fill="black" stroke="black" points="674,-971 663.64,-974.61 669.02,-970.56 664.04,-970.13 664.04,-970.13 664.04,-970.13 669.02,-970.56 664.43,-965.64 674,-971 674,-971"/>
</g>
<!-- choice1001011184510810598115471111121011101151151084549464946491004511451 -->
<g id="node14" class="node">
<title>choice1001011184510810598115471111121011101151151084549464946491004511451</title>
<g id="a_node14"><a xlink:href="../dev-libs/openssl-1.1.1d-r3.svg" xlink:title="portage://dev&#45;libs/openssl&#45;1.1.1d&#45;r3">
<ellipse fill="none" stroke="red" cx="1162" cy="-829" rx="144" ry="18"/>
<text text-anchor="middle" x="1162" y="-826" font-family="Helvetica,sans-Serif" font-size="10.00">portage://dev&#45;libs/openssl&#45;1.1.1d&#45;r3</text>
</a>
</g>
</g>
<!-- dependency24631&#45;&gt;choice1001011184510810598115471111121011101151151084549464946491004511451 -->
<g id="edge13" class="edge">
<title>dependency24631:e&#45;&gt;choice1001011184510810598115471111121011101151151084549464946491004511451:w</title>
<path fill="none" stroke="black" stroke-dasharray="1,5" d="M911,-971C986.06,-971 942.79,-842 1006.76,-829.91"/>
<polygon fill="black" stroke="black" points="1017,-829 1007.44,-834.36 1012.02,-829.44 1007.04,-829.88 1007.04,-829.88 1007.04,-829.88 1012.02,-829.44 1006.64,-825.4 1017,-829 1017,-829"/>
</g>
<!-- choice100101118451081059811547111112101110115115108454946494648108 -->
<g id="node15" class="node">
<title>choice100101118451081059811547111112101110115115108454946494648108</title>
<g id="a_node15"><a xlink:href="../dev-libs/openssl-1.1.0l.svg" xlink:title="portage://dev&#45;libs/openssl&#45;1.1.0l">
<ellipse fill="none" stroke="red" cx="1162" cy="-937" rx="144" ry="18"/>
<text text-anchor="middle" x="1162" y="-934" font-family="Helvetica,sans-Serif" font-size="10.00">portage://dev&#45;libs/openssl&#45;1.1.0l</text>
</a>
</g>
</g>
<!-- dependency24631&#45;&gt;choice100101118451081059811547111112101110115115108454946494648108 -->
<g id="edge14" class="edge">
<title>dependency24631:e&#45;&gt;choice100101118451081059811547111112101110115115108454946494648108:w</title>
<path fill="none" stroke="black" stroke-dasharray="1,5" d="M911,-971C956.9,-971 966.28,-941.74 1006.91,-937.51"/>
<polygon fill="black" stroke="black" points="1017,-937 1007.24,-942 1012.01,-937.25 1007.01,-937.5 1007.01,-937.5 1007.01,-937.5 1012.01,-937.25 1006.79,-933.01 1017,-937 1017,-937"/>
</g>
<!-- choice100101118451081059811547111112101110115115108454946484650117 -->
<g id="node16" class="node">
<title>choice100101118451081059811547111112101110115115108454946484650117</title>
<g id="a_node16"><a xlink:href="../dev-libs/openssl-1.0.2u.svg" xlink:title="portage://dev&#45;libs/openssl&#45;1.0.2u">
<ellipse fill="none" stroke="red" cx="1162" cy="-883" rx="144" ry="18"/>
<text text-anchor="middle" x="1162" y="-880" font-family="Helvetica,sans-Serif" font-size="10.00">portage://dev&#45;libs/openssl&#45;1.0.2u</text>
</a>
</g>
</g>
<!-- dependency24631&#45;&gt;choice100101118451081059811547111112101110115115108454946484650117 -->
<g id="edge15" class="edge">
<title>dependency24631:e&#45;&gt;choice100101118451081059811547111112101110115115108454946484650117:w</title>
<path fill="none" stroke="black" stroke-dasharray="1,5" d="M911,-971C968.64,-971 957.43,-893.01 1007.01,-883.87"/>
<polygon fill="black" stroke="black" points="1017,-883 1007.43,-888.35 1012.02,-883.43 1007.04,-883.87 1007.04,-883.87 1007.04,-883.87 1012.02,-883.43 1006.65,-879.39 1017,-883 1017,-883"/>
</g>
<!-- dependency24633 -->
<g id="node5" class="node">
<title>dependency24633</title>
<polygon fill="none" stroke="blue" points="682,-798 682,-896 787,-896 787,-798 682,-798"/>
<text text-anchor="start" x="712.82" y="-844" font-family="Helvetica,sans-Serif" font-size="10.00">pack_dep</text>
<polygon fill="none" stroke="blue" points="787,-874 787,-896 897,-896 897,-874 787,-874"/>
<text text-anchor="start" x="836.44" y="-882" font-family="Helvetica,sans-Serif" font-size="10.00">no</text>
<polygon fill="none" stroke="blue" points="787,-852 787,-874 897,-874 897,-852 787,-852"/>
<text text-anchor="start" x="824.78" y="-860" font-family="Helvetica,sans-Serif" font-size="10.00">dev&#45;libs</text>
<polygon fill="none" stroke="blue" points="787,-830 787,-852 897,-852 897,-830 787,-830"/>
<text text-anchor="start" x="826.45" y="-838" font-family="Helvetica,sans-Serif" font-size="10.00">libressl</text>
<polygon fill="none" stroke="blue" points="787,-808 787,-830 897,-830 897,-808 787,-808"/>
<text text-anchor="start" x="830.88" y="-816" font-family="Helvetica,sans-Serif" font-size="10.00">none</text>
<polygon fill="none" stroke="blue" points="787,-798 787,-808 897,-808 897,-798 787,-798"/>
</g>
<!-- dependency24632&#45;&gt;dependency24633 -->
<g id="edge3" class="edge">
<title>dependency24632:e&#45;&gt;dependency24633:w</title>
<path fill="none" stroke="black" stroke-dasharray="5,2" d="M565,-709C639.49,-709 600,-834.37 663.81,-846.12"/>
<polygon fill="black" stroke="black" points="674,-847 663.65,-850.62 669.02,-846.57 664.04,-846.14 664.04,-846.14 664.04,-846.14 669.02,-846.57 664.42,-841.66 674,-847 674,-847"/>
</g>
<!-- choice10010111845108105981154710810598114101115115108455146484650 -->
<g id="node17" class="node">
<title>choice10010111845108105981154710810598114101115115108455146484650</title>
<g id="a_node17"><a xlink:href="../dev-libs/libressl-3.0.2.svg" xlink:title="portage://dev&#45;libs/libressl&#45;3.0.2">
<ellipse fill="none" stroke="red" cx="1162" cy="-505" rx="144" ry="18"/>
<text text-anchor="middle" x="1162" y="-502" font-family="Helvetica,sans-Serif" font-size="10.00">portage://dev&#45;libs/libressl&#45;3.0.2</text>
</a>
</g>
</g>
<!-- dependency24633&#45;&gt;choice10010111845108105981154710810598114101115115108455146484650 -->
<g id="edge16" class="edge">
<title>dependency24633:e&#45;&gt;choice10010111845108105981154710810598114101115115108455146484650:w</title>
<path fill="none" stroke="black" stroke-dasharray="1,5" d="M911,-847C1066.56,-847 867.21,-520.19 1006.83,-505.51"/>
<polygon fill="black" stroke="black" points="1017,-505 1007.24,-510 1012.01,-505.25 1007.01,-505.5 1007.01,-505.5 1007.01,-505.5 1012.01,-505.25 1006.79,-501.01 1017,-505 1017,-505"/>
</g>
<!-- choice10010111845108105981154710810598114101115115108455146484649 -->
<g id="node18" class="node">
<title>choice10010111845108105981154710810598114101115115108455146484649</title>
<g id="a_node18"><a xlink:href="../dev-libs/libressl-3.0.1.svg" xlink:title="portage://dev&#45;libs/libressl&#45;3.0.1">
<ellipse fill="none" stroke="red" cx="1162" cy="-451" rx="144" ry="18"/>
<text text-anchor="middle" x="1162" y="-448" font-family="Helvetica,sans-Serif" font-size="10.00">portage://dev&#45;libs/libressl&#45;3.0.1</text>
</a>
</g>
</g>
<!-- dependency24633&#45;&gt;choice10010111845108105981154710810598114101115115108455146484649 -->
<g id="edge17" class="edge">
<title>dependency24633:e&#45;&gt;choice10010111845108105981154710810598114101115115108455146484649:w</title>
<path fill="none" stroke="black" stroke-dasharray="1,5" d="M911,-847C1089.64,-847 844.73,-466.32 1006.82,-451.45"/>
<polygon fill="black" stroke="black" points="1017,-451 1007.21,-455.93 1012,-451.22 1007.01,-451.44 1007.01,-451.44 1007.01,-451.44 1012,-451.22 1006.81,-446.94 1017,-451 1017,-451"/>
</g>
<!-- choice10010111845108105981154710810598114101115115108455146484648 -->
<g id="node19" class="node">
<title>choice10010111845108105981154710810598114101115115108455146484648</title>
<g id="a_node19"><a xlink:href="../dev-libs/libressl-3.0.0.svg" xlink:title="portage://dev&#45;libs/libressl&#45;3.0.0">
<ellipse fill="none" stroke="red" cx="1162" cy="-775" rx="144" ry="18"/>
<text text-anchor="middle" x="1162" y="-772" font-family="Helvetica,sans-Serif" font-size="10.00">portage://dev&#45;libs/libressl&#45;3.0.0</text>
</a>
</g>
</g>
<!-- dependency24633&#45;&gt;choice10010111845108105981154710810598114101115115108455146484648 -->
<g id="edge18" class="edge">
<title>dependency24633:e&#45;&gt;choice10010111845108105981154710810598114101115115108455146484648:w</title>
<path fill="none" stroke="black" stroke-dasharray="1,5" d="M911,-847C964.28,-847 960.8,-783.98 1006.76,-775.86"/>
<polygon fill="black" stroke="black" points="1017,-775 1007.41,-780.32 1012.02,-775.42 1007.03,-775.84 1007.03,-775.84 1007.03,-775.84 1012.02,-775.42 1006.66,-771.35 1017,-775 1017,-775"/>
</g>
<!-- choice10010111845108105981154710810598114101115115108455046574650 -->
<g id="node20" class="node">
<title>choice10010111845108105981154710810598114101115115108455046574650</title>
<g id="a_node20"><a xlink:href="../dev-libs/libressl-2.9.2.svg" xlink:title="portage://dev&#45;libs/libressl&#45;2.9.2">
<ellipse fill="none" stroke="red" cx="1162" cy="-721" rx="144" ry="18"/>
<text text-anchor="middle" x="1162" y="-718" font-family="Helvetica,sans-Serif" font-size="10.00">portage://dev&#45;libs/libressl&#45;2.9.2</text>
</a>
</g>
</g>
<!-- dependency24633&#45;&gt;choice10010111845108105981154710810598114101115115108455046574650 -->
<g id="edge19" class="edge">
<title>dependency24633:e&#45;&gt;choice10010111845108105981154710810598114101115115108455046574650:w</title>
<path fill="none" stroke="black" stroke-dasharray="1,5" d="M911,-847C980.46,-847 947.63,-733.47 1006.7,-721.94"/>
<polygon fill="black" stroke="black" points="1017,-721 1007.45,-726.39 1012.02,-721.46 1007.04,-721.91 1007.04,-721.91 1007.04,-721.91 1012.02,-721.46 1006.63,-717.43 1017,-721 1017,-721"/>
</g>
<!-- choice10010111845108105981154710810598114101115115108455046574649 -->
<g id="node21" class="node">
<title>choice10010111845108105981154710810598114101115115108455046574649</title>
<g id="a_node21"><a xlink:href="../dev-libs/libressl-2.9.1.svg" xlink:title="portage://dev&#45;libs/libressl&#45;2.9.1">
<ellipse fill="none" stroke="red" cx="1162" cy="-667" rx="144" ry="18"/>
<text text-anchor="middle" x="1162" y="-664" font-family="Helvetica,sans-Serif" font-size="10.00">portage://dev&#45;libs/libressl&#45;2.9.1</text>
</a>
</g>
</g>
<!-- dependency24633&#45;&gt;choice10010111845108105981154710810598114101115115108455046574649 -->
<g id="edge20" class="edge">
<title>dependency24633:e&#45;&gt;choice10010111845108105981154710810598114101115115108455046574649:w</title>
<path fill="none" stroke="black" stroke-dasharray="1,5" d="M911,-847C1000.21,-847 930.12,-680.79 1006.89,-667.8"/>
<polygon fill="black" stroke="black" points="1017,-667 1007.39,-672.28 1012.02,-667.4 1007.03,-667.79 1007.03,-667.79 1007.03,-667.79 1012.02,-667.4 1006.68,-663.31 1017,-667 1017,-667"/>
</g>
<!-- choice10010111845108105981154710810598114101115115108455046564651 -->
<g id="node22" class="node">
<title>choice10010111845108105981154710810598114101115115108455046564651</title>
<g id="a_node22"><a xlink:href="../dev-libs/libressl-2.8.3.svg" xlink:title="portage://dev&#45;libs/libressl&#45;2.8.3">
<ellipse fill="none" stroke="red" cx="1162" cy="-613" rx="144" ry="18"/>
<text text-anchor="middle" x="1162" y="-610" font-family="Helvetica,sans-Serif" font-size="10.00">portage://dev&#45;libs/libressl&#45;2.8.3</text>
</a>
</g>
</g>
<!-- dependency24633&#45;&gt;choice10010111845108105981154710810598114101115115108455046564651 -->
<g id="edge21" class="edge">
<title>dependency24633:e&#45;&gt;choice10010111845108105981154710810598114101115115108455046564651:w</title>
<path fill="none" stroke="black" stroke-dasharray="1,5" d="M911,-847C1021.61,-847 910.24,-627.4 1006.97,-613.67"/>
<polygon fill="black" stroke="black" points="1017,-613 1007.32,-618.16 1012.01,-613.33 1007.02,-613.67 1007.02,-613.67 1007.02,-613.67 1012.01,-613.33 1006.72,-609.18 1017,-613 1017,-613"/>
</g>
<!-- choice10010111845108105981154710810598114101115115108455046544653 -->
<g id="node23" class="node">
<title>choice10010111845108105981154710810598114101115115108455046544653</title>
<g id="a_node23"><a xlink:href="../dev-libs/libressl-2.6.5.svg" xlink:title="portage://dev&#45;libs/libressl&#45;2.6.5">
<ellipse fill="none" stroke="red" cx="1162" cy="-559" rx="144" ry="18"/>
<text text-anchor="middle" x="1162" y="-556" font-family="Helvetica,sans-Serif" font-size="10.00">portage://dev&#45;libs/libressl&#45;2.6.5</text>
</a>
</g>
</g>
<!-- dependency24633&#45;&gt;choice10010111845108105981154710810598114101115115108455046544653 -->
<g id="edge22" class="edge">
<title>dependency24633:e&#45;&gt;choice10010111845108105981154710810598114101115115108455046544653:w</title>
<path fill="none" stroke="black" stroke-dasharray="1,5" d="M911,-847C1043.8,-847 889.19,-573.99 1006.83,-559.59"/>
<polygon fill="black" stroke="black" points="1017,-559 1007.28,-564.07 1012.01,-559.29 1007.02,-559.58 1007.02,-559.58 1007.02,-559.58 1012.01,-559.29 1006.76,-555.09 1017,-559 1017,-559"/>
</g>
<!-- choice971121124597114991044798122105112504557575757 -->
<g id="node24" class="node">
<title>choice971121124597114991044798122105112504557575757</title>
<g id="a_node24"><a xlink:href="../app-arch/bzip2-9999.svg" xlink:title="portage://app&#45;arch/bzip2&#45;9999">
<ellipse fill="none" stroke="red" cx="1162" cy="-397" rx="144" ry="18"/>
<text text-anchor="middle" x="1162" y="-394" font-family="Helvetica,sans-Serif" font-size="10.00">portage://app&#45;arch/bzip2&#45;9999</text>
</a>
</g>
</g>
<!-- dependency24634&#45;&gt;choice971121124597114991044798122105112504557575757 -->
<g id="edge23" class="edge">
<title>dependency24634:e&#45;&gt;choice971121124597114991044798122105112504557575757:w</title>
<path fill="none" stroke="black" stroke-dasharray="1,5" d="M911,-723C1059.78,-723 873.77,-412.1 1006.86,-397.53"/>
<polygon fill="black" stroke="black" points="1017,-397 1007.25,-402.01 1012.01,-397.26 1007.01,-397.52 1007.01,-397.52 1007.01,-397.52 1012.01,-397.26 1006.78,-393.03 1017,-397 1017,-397"/>
</g>
<!-- choice97112112459711499104479812210511250454946484656 -->
<g id="node25" class="node">
<title>choice97112112459711499104479812210511250454946484656</title>
<g id="a_node25"><a xlink:href="../app-arch/bzip2-1.0.8.svg" xlink:title="portage://app&#45;arch/bzip2&#45;1.0.8">
<ellipse fill="none" stroke="red" cx="1162" cy="-343" rx="144" ry="18"/>
<text text-anchor="middle" x="1162" y="-340" font-family="Helvetica,sans-Serif" font-size="10.00">portage://app&#45;arch/bzip2&#45;1.0.8</text>
</a>
</g>
</g>
<!-- dependency24634&#45;&gt;choice97112112459711499104479812210511250454946484656 -->
<g id="edge24" class="edge">
<title>dependency24634:e&#45;&gt;choice97112112459711499104479812210511250454946484656:w</title>
<path fill="none" stroke="black" stroke-dasharray="1,5" d="M911,-723C1082.74,-723 851.52,-358.43 1006.74,-343.47"/>
<polygon fill="black" stroke="black" points="1017,-343 1007.22,-347.96 1012.01,-343.23 1007.01,-343.46 1007.01,-343.46 1007.01,-343.46 1012.01,-343.23 1006.8,-338.97 1017,-343 1017,-343"/>
</g>
<!-- choice97112112459711499104479812210511250454946484655 -->
<g id="node26" class="node">
<title>choice97112112459711499104479812210511250454946484655</title>
<g id="a_node26"><a xlink:href="../app-arch/bzip2-1.0.7.svg" xlink:title="portage://app&#45;arch/bzip2&#45;1.0.7">
<ellipse fill="none" stroke="red" cx="1162" cy="-289" rx="144" ry="18"/>
<text text-anchor="middle" x="1162" y="-286" font-family="Helvetica,sans-Serif" font-size="10.00">portage://app&#45;arch/bzip2&#45;1.0.7</text>
</a>
</g>
</g>
<!-- dependency24634&#45;&gt;choice97112112459711499104479812210511250454946484655 -->
<g id="edge25" class="edge">
<title>dependency24634:e&#45;&gt;choice97112112459711499104479812210511250454946484655:w</title>
<path fill="none" stroke="black" stroke-dasharray="1,5" d="M911,-723C1106.07,-723 828.52,-304.12 1006.98,-289.4"/>
<polygon fill="black" stroke="black" points="1017,-289 1007.19,-293.89 1012,-289.2 1007.01,-289.4 1007.01,-289.4 1007.01,-289.4 1012,-289.2 1006.83,-284.9 1017,-289 1017,-289"/>
</g>
<!-- choice97112112459711499104479812210511250454946484654451144949 -->
<g id="node27" class="node">
<title>choice97112112459711499104479812210511250454946484654451144949</title>
<g id="a_node27"><a xlink:href="../app-arch/bzip2-1.0.6-r11.svg" xlink:title="portage://app&#45;arch/bzip2&#45;1.0.6&#45;r11">
<ellipse fill="none" stroke="red" cx="1162" cy="-235" rx="144" ry="18"/>
<text text-anchor="middle" x="1162" y="-232" font-family="Helvetica,sans-Serif" font-size="10.00">portage://app&#45;arch/bzip2&#45;1.0.6&#45;r11</text>
</a>
</g>
</g>
<!-- dependency24634&#45;&gt;choice97112112459711499104479812210511250454946484654451144949 -->
<g id="edge26" class="edge">
<title>dependency24634:e&#45;&gt;choice97112112459711499104479812210511250454946484654451144949:w</title>
<path fill="none" stroke="black" stroke-dasharray="1,5" d="M911,-723C1129.48,-723 805.48,-250.13 1007,-235.35"/>
<polygon fill="black" stroke="black" points="1017,-235 1007.17,-239.85 1012,-235.18 1007.01,-235.35 1007.01,-235.35 1007.01,-235.35 1012,-235.18 1006.85,-230.86 1017,-235 1017,-235"/>
</g>
<!-- choice11512111545108105981154712210810598454946504649494511450 -->
<g id="node28" class="node">
<title>choice11512111545108105981154712210810598454946504649494511450</title>
<g id="a_node28"><a xlink:href="../sys-libs/zlib-1.2.11-r2.svg" xlink:title="portage://sys&#45;libs/zlib&#45;1.2.11&#45;r2">
<ellipse fill="none" stroke="red" cx="1162" cy="-181" rx="144" ry="18"/>
<text text-anchor="middle" x="1162" y="-178" font-family="Helvetica,sans-Serif" font-size="10.00">portage://sys&#45;libs/zlib&#45;1.2.11&#45;r2</text>
</a>
</g>
</g>
<!-- dependency24635&#45;&gt;choice11512111545108105981154712210810598454946504649494511450 -->
<g id="edge27" class="edge">
<title>dependency24635:e&#45;&gt;choice11512111545108105981154712210810598454946504649494511450:w</title>
<path fill="none" stroke="black" stroke-dasharray="1,5" d="M911,-599C1099.1,-599 835.47,-196.37 1006.81,-181.43"/>
<polygon fill="black" stroke="black" points="1017,-181 1007.2,-185.91 1012,-181.21 1007.01,-181.42 1007.01,-181.42 1007.01,-181.42 1012,-181.21 1006.82,-176.92 1017,-181 1017,-181"/>
</g>
<!-- dependency24637 -->
<g id="node9" class="node">
<title>dependency24637</title>
<polygon fill="none" stroke="blue" points="682,-400 682,-498 787,-498 787,-400 682,-400"/>
<text text-anchor="start" x="712.82" y="-446" font-family="Helvetica,sans-Serif" font-size="10.00">pack_dep</text>
<polygon fill="none" stroke="blue" points="787,-476 787,-498 897,-498 897,-476 787,-476"/>
<text text-anchor="start" x="836.44" y="-484" font-family="Helvetica,sans-Serif" font-size="10.00">no</text>
<polygon fill="none" stroke="blue" points="787,-454 787,-476 897,-476 897,-454 787,-454"/>
<text text-anchor="start" x="824.78" y="-462" font-family="Helvetica,sans-Serif" font-size="10.00">dev&#45;libs</text>
<polygon fill="none" stroke="blue" points="787,-432 787,-454 897,-454 897,-432 787,-432"/>
<text text-anchor="start" x="824.77" y="-440" font-family="Helvetica,sans-Serif" font-size="10.00">openssl</text>
<polygon fill="none" stroke="blue" points="787,-410 787,-432 897,-432 897,-410 787,-410"/>
<text text-anchor="start" x="830.88" y="-418" font-family="Helvetica,sans-Serif" font-size="10.00">none</text>
<polygon fill="none" stroke="blue" points="787,-400 787,-410 897,-410 897,-400 787,-400"/>
</g>
<!-- dependency24636&#45;&gt;dependency24637 -->
<g id="edge7" class="edge">
<title>dependency24636:e&#45;&gt;dependency24637:w</title>
<path fill="none" stroke="black" stroke-dasharray="5,2" d="M566,-476C611.9,-476 623,-452.76 663.88,-449.4"/>
<polygon fill="black" stroke="black" points="674,-449 664.19,-453.89 669,-449.2 664.01,-449.4 664.01,-449.4 664.01,-449.4 669,-449.2 663.83,-444.9 674,-449 674,-449"/>
</g>
<!-- dependency24637&#45;&gt;choice1001011184510810598115471111121011101151151084549464946491004511451 -->
<g id="edge28" class="edge">
<title>dependency24637:e&#45;&gt;choice1001011184510810598115471111121011101151151084549464946491004511451:w</title>
<path fill="none" stroke="black" stroke-dasharray="1,5" d="M911,-449C1082.74,-449 851.52,-813.57 1006.74,-828.53"/>
<polygon fill="black" stroke="black" points="1017,-829 1006.8,-833.03 1012.01,-828.77 1007.01,-828.54 1007.01,-828.54 1007.01,-828.54 1012.01,-828.77 1007.22,-824.04 1017,-829 1017,-829"/>
</g>
<!-- dependency24637&#45;&gt;choice100101118451081059811547111112101110115115108454946494648108 -->
<g id="edge29" class="edge">
<title>dependency24637:e&#45;&gt;choice100101118451081059811547111112101110115115108454946494648108:w</title>
<path fill="none" stroke="black" stroke-dasharray="1,5" d="M911,-449C1129.48,-449 805.48,-921.87 1007,-936.65"/>
<polygon fill="black" stroke="black" points="1017,-937 1006.85,-941.14 1012,-936.82 1007.01,-936.65 1007.01,-936.65 1007.01,-936.65 1012,-936.82 1007.17,-932.15 1017,-937 1017,-937"/>
</g>
<!-- dependency24637&#45;&gt;choice100101118451081059811547111112101110115115108454946484650117 -->
<g id="edge30" class="edge">
<title>dependency24637:e&#45;&gt;choice100101118451081059811547111112101110115115108454946484650117:w</title>
<path fill="none" stroke="black" stroke-dasharray="1,5" d="M911,-449C1106.07,-449 828.52,-867.88 1006.98,-882.6"/>
<polygon fill="black" stroke="black" points="1017,-883 1006.83,-887.1 1012,-882.8 1007.01,-882.6 1007.01,-882.6 1007.01,-882.6 1012,-882.8 1007.19,-878.11 1017,-883 1017,-883"/>
</g>
<!-- dependency24639 -->
<g id="node11" class="node">
<title>dependency24639</title>
<polygon fill="none" stroke="blue" points="682,-276 682,-374 787,-374 787,-276 682,-276"/>
<text text-anchor="start" x="712.82" y="-322" font-family="Helvetica,sans-Serif" font-size="10.00">pack_dep</text>
<polygon fill="none" stroke="blue" points="787,-352 787,-374 897,-374 897,-352 787,-352"/>
<text text-anchor="start" x="836.44" y="-360" font-family="Helvetica,sans-Serif" font-size="10.00">no</text>
<polygon fill="none" stroke="blue" points="787,-330 787,-352 897,-352 897,-330 787,-330"/>
<text text-anchor="start" x="824.78" y="-338" font-family="Helvetica,sans-Serif" font-size="10.00">dev&#45;libs</text>
<polygon fill="none" stroke="blue" points="787,-308 787,-330 897,-330 897,-308 787,-308"/>
<text text-anchor="start" x="826.45" y="-316" font-family="Helvetica,sans-Serif" font-size="10.00">libressl</text>
<polygon fill="none" stroke="blue" points="787,-286 787,-308 897,-308 897,-286 787,-286"/>
<text text-anchor="start" x="830.88" y="-294" font-family="Helvetica,sans-Serif" font-size="10.00">none</text>
<polygon fill="none" stroke="blue" points="787,-276 787,-286 897,-286 897,-276 787,-276"/>
</g>
<!-- dependency24638&#45;&gt;dependency24639 -->
<g id="edge9" class="edge">
<title>dependency24638:e&#45;&gt;dependency24639:w</title>
<path fill="none" stroke="black" stroke-dasharray="5,2" d="M565,-406C621.7,-406 614.8,-334.51 663.8,-325.85"/>
<polygon fill="black" stroke="black" points="674,-325 664.41,-330.32 669.02,-325.42 664.03,-325.84 664.03,-325.84 664.03,-325.84 669.02,-325.42 663.66,-321.35 674,-325 674,-325"/>
</g>
<!-- dependency24639&#45;&gt;choice10010111845108105981154710810598114101115115108455146484650 -->
<g id="edge31" class="edge">
<title>dependency24639:e&#45;&gt;choice10010111845108105981154710810598114101115115108455146484650:w</title>
<path fill="none" stroke="black" stroke-dasharray="1,5" d="M911,-325C1000.21,-325 930.12,-491.21 1006.89,-504.2"/>
<polygon fill="black" stroke="black" points="1017,-505 1006.68,-508.69 1012.02,-504.6 1007.03,-504.21 1007.03,-504.21 1007.03,-504.21 1012.02,-504.6 1007.39,-499.72 1017,-505 1017,-505"/>
</g>
<!-- dependency24639&#45;&gt;choice10010111845108105981154710810598114101115115108455146484649 -->
<g id="edge32" class="edge">
<title>dependency24639:e&#45;&gt;choice10010111845108105981154710810598114101115115108455146484649:w</title>
<path fill="none" stroke="black" stroke-dasharray="1,5" d="M911,-325C980.46,-325 947.63,-438.53 1006.7,-450.06"/>
<polygon fill="black" stroke="black" points="1017,-451 1006.63,-454.57 1012.02,-450.54 1007.04,-450.09 1007.04,-450.09 1007.04,-450.09 1012.02,-450.54 1007.45,-445.61 1017,-451 1017,-451"/>
</g>
<!-- dependency24639&#45;&gt;choice10010111845108105981154710810598114101115115108455146484648 -->
<g id="edge33" class="edge">
<title>dependency24639:e&#45;&gt;choice10010111845108105981154710810598114101115115108455146484648:w</title>
<path fill="none" stroke="black" stroke-dasharray="1,5" d="M911,-325C1112.96,-325 821.8,-759.75 1006.91,-774.61"/>
<polygon fill="black" stroke="black" points="1017,-775 1006.83,-779.11 1012,-774.81 1007.01,-774.61 1007.01,-774.61 1007.01,-774.61 1012,-774.81 1007.18,-770.12 1017,-775 1017,-775"/>
</g>
<!-- dependency24639&#45;&gt;choice10010111845108105981154710810598114101115115108455046574650 -->
<g id="edge34" class="edge">
<title>dependency24639:e&#45;&gt;choice10010111845108105981154710810598114101115115108455046574650:w</title>
<path fill="none" stroke="black" stroke-dasharray="1,5" d="M911,-325C1089.64,-325 844.73,-705.68 1006.82,-720.55"/>
<polygon fill="black" stroke="black" points="1017,-721 1006.81,-725.06 1012,-720.78 1007.01,-720.56 1007.01,-720.56 1007.01,-720.56 1012,-720.78 1007.21,-716.07 1017,-721 1017,-721"/>
</g>
<!-- dependency24639&#45;&gt;choice10010111845108105981154710810598114101115115108455046574649 -->
<g id="edge35" class="edge">
<title>dependency24639:e&#45;&gt;choice10010111845108105981154710810598114101115115108455046574649:w</title>
<path fill="none" stroke="black" stroke-dasharray="1,5" d="M911,-325C1066.56,-325 867.21,-651.81 1006.83,-666.49"/>
<polygon fill="black" stroke="black" points="1017,-667 1006.79,-670.99 1012.01,-666.75 1007.01,-666.5 1007.01,-666.5 1007.01,-666.5 1012.01,-666.75 1007.24,-662 1017,-667 1017,-667"/>
</g>
<!-- dependency24639&#45;&gt;choice10010111845108105981154710810598114101115115108455046564651 -->
<g id="edge36" class="edge">
<title>dependency24639:e&#45;&gt;choice10010111845108105981154710810598114101115115108455046564651:w</title>
<path fill="none" stroke="black" stroke-dasharray="1,5" d="M911,-325C1043.8,-325 889.19,-598.01 1006.83,-612.41"/>
<polygon fill="black" stroke="black" points="1017,-613 1006.76,-616.91 1012.01,-612.71 1007.02,-612.42 1007.02,-612.42 1007.02,-612.42 1012.01,-612.71 1007.28,-607.93 1017,-613 1017,-613"/>
</g>
<!-- dependency24639&#45;&gt;choice10010111845108105981154710810598114101115115108455046544653 -->
<g id="edge37" class="edge">
<title>dependency24639:e&#45;&gt;choice10010111845108105981154710810598114101115115108455046544653:w</title>
<path fill="none" stroke="black" stroke-dasharray="1,5" d="M911,-325C1021.61,-325 910.24,-544.6 1006.97,-558.33"/>
<polygon fill="black" stroke="black" points="1017,-559 1006.72,-562.82 1012.01,-558.67 1007.02,-558.33 1007.02,-558.33 1007.02,-558.33 1012.01,-558.67 1007.32,-553.84 1017,-559 1017,-559"/>
</g>
<!-- dependency24640&#45;&gt;choice971121124597114991044798122105112504557575757 -->
<g id="edge38" class="edge">
<title>dependency24640:e&#45;&gt;choice971121124597114991044798122105112504557575757:w</title>
<path fill="none" stroke="black" stroke-dasharray="1,5" d="M911,-201C1006.46,-201 924.37,-383.09 1007,-396.25"/>
<polygon fill="black" stroke="black" points="1017,-397 1006.69,-400.74 1012.01,-396.63 1007.03,-396.25 1007.03,-396.25 1007.03,-396.25 1012.01,-396.63 1007.36,-391.77 1017,-397 1017,-397"/>
</g>
<!-- dependency24640&#45;&gt;choice97112112459711499104479812210511250454946484656 -->
<g id="edge39" class="edge">
<title>dependency24640:e&#45;&gt;choice97112112459711499104479812210511250454946484656:w</title>
<path fill="none" stroke="black" stroke-dasharray="1,5" d="M911,-201C986.06,-201 942.79,-330 1006.76,-342.09"/>
<polygon fill="black" stroke="black" points="1017,-343 1006.64,-346.6 1012.02,-342.56 1007.04,-342.12 1007.04,-342.12 1007.04,-342.12 1012.02,-342.56 1007.44,-337.64 1017,-343 1017,-343"/>
</g>
<!-- dependency24640&#45;&gt;choice97112112459711499104479812210511250454946484655 -->
<g id="edge40" class="edge">
<title>dependency24640:e&#45;&gt;choice97112112459711499104479812210511250454946484655:w</title>
<path fill="none" stroke="black" stroke-dasharray="1,5" d="M911,-201C968.64,-201 957.43,-278.99 1007.01,-288.13"/>
<polygon fill="black" stroke="black" points="1017,-289 1006.65,-292.61 1012.02,-288.57 1007.04,-288.13 1007.04,-288.13 1007.04,-288.13 1012.02,-288.57 1007.43,-283.65 1017,-289 1017,-289"/>
</g>
<!-- dependency24640&#45;&gt;choice97112112459711499104479812210511250454946484654451144949 -->
<g id="edge41" class="edge">
<title>dependency24640:e&#45;&gt;choice97112112459711499104479812210511250454946484654451144949:w</title>
<path fill="none" stroke="black" stroke-dasharray="1,5" d="M911,-201C956.9,-201 966.28,-230.26 1006.91,-234.49"/>
<polygon fill="black" stroke="black" points="1017,-235 1006.79,-238.99 1012.01,-234.75 1007.01,-234.5 1007.01,-234.5 1007.01,-234.5 1012.01,-234.75 1007.24,-230 1017,-235 1017,-235"/>
</g>
<!-- dependency24641&#45;&gt;choice11512111545108105981154712210810598454946504649494511450 -->
<g id="edge42" class="edge">
<title>dependency24641:e&#45;&gt;choice11512111545108105981154712210810598454946504649494511450:w</title>
<path fill="none" stroke="black" stroke-dasharray="1,5" d="M911,-77C973.39,-77 953.57,-169.94 1006.97,-180.1"/>
<polygon fill="black" stroke="black" points="1017,-181 1006.64,-184.59 1012.02,-180.55 1007.04,-180.11 1007.04,-180.11 1007.04,-180.11 1012.02,-180.55 1007.44,-175.63 1017,-181 1017,-181"/>
</g>
</g>
</svg>
