<?xml version="1.0" encoding="UTF-8" standalone="no"?>
<!DOCTYPE svg PUBLIC "-//W3C//DTD SVG 1.1//EN"
 "http://www.w3.org/Graphics/SVG/1.1/DTD/svg11.dtd">
<!-- Generated by graphviz version 9.0.0 (20230911.1827)
 -->
<!-- Title: prolog Pages: 1 -->
<svg width="732pt" height="467pt"
 viewBox="0.00 0.00 732.00 467.00" xmlns="http://www.w3.org/2000/svg" xmlns:xlink="http://www.w3.org/1999/xlink">
<g id="graph0" class="graph" transform="scale(1 1) rotate(0) translate(4 463)">
<title>prolog</title>
<polygon fill="white" stroke="none" points="-4,4 -4,-463 728,-463 728,4 -4,4"/>
<g id="clust8" class="cluster">
<title>cluster_choices</title>
<polygon fill="none" stroke="gray" points="412,-8 412,-451 716,-451 716,-8 412,-8"/>
<text text-anchor="start" x="540.38" y="-438.5" font-family="Helvetica,sans-Serif" font-style="italic" font-size="10.00">candidates</text>
</g>
<g id="clust2" class="cluster">
<title>cluster_midcol</title>
<polygon fill="none" stroke="gray" points="8,-132 8,-238 328,-238 328,-132 8,-132"/>
<text text-anchor="start" x="138" y="-225.5" font-family="Helvetica,sans-Serif" font-style="italic" font-size="10.00">dependencies</text>
</g>
<g id="clust3" class="cluster">
<title>cluster_compile</title>
<polygon fill="#eeeeee" stroke="gray" points="16,-140 16,-211 320,-211 320,-140 16,-140"/>
<text text-anchor="start" x="151.12" y="-198.5" font-family="Helvetica,sans-Serif" font-style="italic" font-size="10.00">compile</text>
</g>
<!-- id -->
<g id="node1" class="node">
<title>id</title>
<g id="a_node1"><a xlink:href="../sys-fs/ext3grep-0.10.2-r1.svg" xlink:title="portage://sys&#45;fs/ext3grep&#45;0.10.2&#45;r1">
<ellipse fill="none" stroke="red" cx="168" cy="-166" rx="144" ry="18"/>
<text text-anchor="middle" x="168" y="-162.12" font-family="Helvetica,sans-Serif" font-size="10.00">portage://sys&#45;fs/ext3grep&#45;0.10.2&#45;r1</text>
</a>
</g>
</g>
<!-- dependency426425 -->
<g id="node2" class="node">
<title>dependency426425</title>
<polygon fill="none" stroke="blue" points="454,-206.5 454,-311.5 558,-311.5 558,-206.5 454,-206.5"/>
<text text-anchor="start" x="485" y="-255.12" font-family="Helvetica,sans-Serif" font-size="10.00">pack_dep</text>
<polygon fill="none" stroke="blue" points="558,-290.5 558,-311.5 668,-311.5 668,-290.5 558,-290.5"/>
<text text-anchor="start" x="607.75" y="-297" font-family="Helvetica,sans-Serif" font-size="10.00">no</text>
<polygon fill="none" stroke="blue" points="558,-269.5 558,-290.5 668,-290.5 668,-269.5 558,-269.5"/>
<text text-anchor="start" x="599.5" y="-276" font-family="Helvetica,sans-Serif" font-size="10.00">sys&#45;fs</text>
<polygon fill="none" stroke="blue" points="558,-248.5 558,-269.5 668,-269.5 668,-248.5 558,-248.5"/>
<text text-anchor="start" x="591.62" y="-255" font-family="Helvetica,sans-Serif" font-size="10.00">e2fsprogs</text>
<polygon fill="none" stroke="blue" points="558,-227.5 558,-248.5 668,-248.5 668,-227.5 558,-227.5"/>
<text text-anchor="start" x="602.5" y="-234" font-family="Helvetica,sans-Serif" font-size="10.00">none</text>
<polygon fill="none" stroke="blue" points="558,-206.5 558,-227.5 668,-227.5 668,-206.5 558,-206.5"/>
<text text-anchor="start" x="607" y="-213" font-family="Helvetica,sans-Serif" font-size="10.00">[,,]</text>
</g>
<!-- id&#45;&gt;dependency426425 -->
<g id="edge1" class="edge">
<title>id:e&#45;&gt;dependency426425:w</title>
<path fill="none" stroke="black" d="M313,-166C380.84,-166 374.25,-249.11 433.95,-258.2"/>
<polygon fill="black" stroke="black" points="443.78,-258.91 433.48,-262.67 440.01,-258.64 433.81,-258.19 433.81,-258.19 433.81,-258.19 440.01,-258.64 434.14,-253.7 443.78,-258.91"/>
</g>
<!-- dependency426426 -->
<g id="node3" class="node">
<title>dependency426426</title>
<polygon fill="none" stroke="blue" points="454,-20.5 454,-125.5 558,-125.5 558,-20.5 454,-20.5"/>
<text text-anchor="start" x="485" y="-69.12" font-family="Helvetica,sans-Serif" font-size="10.00">pack_dep</text>
<polygon fill="none" stroke="blue" points="558,-104.5 558,-125.5 668,-125.5 668,-104.5 558,-104.5"/>
<text text-anchor="start" x="607.75" y="-111" font-family="Helvetica,sans-Serif" font-size="10.00">no</text>
<polygon fill="none" stroke="blue" points="558,-83.5 558,-104.5 668,-104.5 668,-83.5 558,-83.5"/>
<text text-anchor="start" x="599.88" y="-90" font-family="Helvetica,sans-Serif" font-size="10.00">virtual</text>
<polygon fill="none" stroke="blue" points="558,-62.5 558,-83.5 668,-83.5 668,-62.5 558,-62.5"/>
<text text-anchor="start" x="589" y="-69" font-family="Helvetica,sans-Serif" font-size="10.00">os&#45;headers</text>
<polygon fill="none" stroke="blue" points="558,-41.5 558,-62.5 668,-62.5 668,-41.5 558,-41.5"/>
<text text-anchor="start" x="602.5" y="-48" font-family="Helvetica,sans-Serif" font-size="10.00">none</text>
<polygon fill="none" stroke="blue" points="558,-20.5 558,-41.5 668,-41.5 668,-20.5 558,-20.5"/>
<text text-anchor="start" x="607" y="-27" font-family="Helvetica,sans-Serif" font-size="10.00">[,,]</text>
</g>
<!-- id&#45;&gt;dependency426426 -->
<g id="edge2" class="edge">
<title>id:e&#45;&gt;dependency426426:w</title>
<path fill="none" stroke="black" d="M313,-166C380.84,-166 374.25,-82.89 433.95,-73.8"/>
<polygon fill="black" stroke="black" points="443.78,-73.09 434.14,-78.3 440.01,-73.36 433.81,-73.81 433.81,-73.81 433.81,-73.81 440.01,-73.36 433.48,-69.33 443.78,-73.09"/>
</g>
<!-- choice115121115451021154710150102115112114111103115454946525546484511451 -->
<g id="node4" class="node">
<title>choice115121115451021154710150102115112114111103115454946525546484511451</title>
<g id="a_node4"><a xlink:href="../sys-fs/e2fsprogs-1.47.0-r3.svg" xlink:title="portage://sys&#45;fs/e2fsprogs&#45;1.47.0&#45;r3">
<ellipse fill="none" stroke="red" cx="564" cy="-406" rx="144" ry="18"/>
<text text-anchor="middle" x="564" y="-402.12" font-family="Helvetica,sans-Serif" font-size="10.00">portage://sys&#45;fs/e2fsprogs&#45;1.47.0&#45;r3</text>
</a>
</g>
</g>
<!-- dependency426425&#45;&gt;choice115121115451021154710150102115112114111103115454946525546484511451 -->
<g id="edge3" class="edge">
<title>dependency426425:e&#45;&gt;choice115121115451021154710150102115112114111103115454946525546484511451:w</title>
<path fill="none" stroke="black" stroke-dasharray="1,5" d="M683,-259C708.12,-259 699.6,-297.59 682,-315.5 657.66,-340.27 391.83,-306.99 370,-334 347.95,-361.28 374.32,-398.25 408.27,-404.94"/>
<polygon fill="black" stroke="black" points="417.79,-405.88 407.39,-409.38 414.02,-405.51 407.84,-404.9 407.84,-404.9 407.84,-404.9 414.02,-405.51 408.28,-400.42 417.79,-405.88"/>
</g>
<!-- choice11512111545102115471015010211511211411110311545494652554649 -->
<g id="node5" class="node">
<title>choice11512111545102115471015010211511211411110311545494652554649</title>
<g id="a_node5"><a xlink:href="../sys-fs/e2fsprogs-1.47.1.svg" xlink:title="portage://sys&#45;fs/e2fsprogs&#45;1.47.1">
<ellipse fill="none" stroke="red" cx="564" cy="-352" rx="144" ry="18"/>
<text text-anchor="middle" x="564" y="-348.12" font-family="Helvetica,sans-Serif" font-size="10.00">portage://sys&#45;fs/e2fsprogs&#45;1.47.1</text>
</a>
</g>
</g>
<!-- dependency426425&#45;&gt;choice11512111545102115471015010211511211411110311545494652554649 -->
<g id="edge4" class="edge">
<title>dependency426425:e&#45;&gt;choice11512111545102115471015010211511211411110311545494652554649:w</title>
<path fill="none" stroke="black" stroke-dasharray="1,5" d="M415.37,-341.45C416.4,-338.7 418.07,-335.96 420,-334 460.96,-292.42 641.83,-357.85 682,-315.5 699.28,-297.28 708.12,-259 683,-259"/>
<polygon fill="black" stroke="black" points="418.6,-350.85 411.09,-342.86 417.37,-347.27 415.34,-341.39 415.34,-341.39 415.34,-341.39 417.37,-347.27 419.6,-339.93 418.6,-350.85"/>
</g>
<!-- choice1181051141161179710847111115451041019710010111411545484511450 -->
<g id="node6" class="node">
<title>choice1181051141161179710847111115451041019710010111411545484511450</title>
<g id="a_node6"><a xlink:href="../virtual/os-headers-0-r2.svg" xlink:title="portage://virtual/os&#45;headers&#45;0&#45;r2">
<ellipse fill="none" stroke="red" cx="564" cy="-166" rx="144" ry="18"/>
<text text-anchor="middle" x="564" y="-162.12" font-family="Helvetica,sans-Serif" font-size="10.00">portage://virtual/os&#45;headers&#45;0&#45;r2</text>
</a>
</g>
</g>
<!-- dependency426426&#45;&gt;choice1181051141161179710847111115451041019710010111411545484511450 -->
<g id="edge5" class="edge">
<title>dependency426426:e&#45;&gt;choice1181051141161179710847111115451041019710010111411545484511450:w</title>
<path fill="none" stroke="black" stroke-dasharray="1,5" d="M415.37,-155.45C416.4,-152.7 418.07,-149.96 420,-148 460.96,-106.42 641.83,-171.85 682,-129.5 699.28,-111.28 708.12,-73 683,-73"/>
<polygon fill="black" stroke="black" points="418.6,-164.85 411.09,-156.86 417.37,-161.27 415.34,-155.39 415.34,-155.39 415.34,-155.39 417.37,-161.27 419.6,-153.93 418.6,-164.85"/>
</g>
</g>
</svg>
