<?xml version="1.0" encoding="UTF-8" standalone="no"?>
<!DOCTYPE svg PUBLIC "-//W3C//DTD SVG 1.1//EN"
 "http://www.w3.org/Graphics/SVG/1.1/DTD/svg11.dtd">
<!-- Generated by graphviz version 9.0.0 (20230911.1827)
 -->
<!-- Title: prolog Pages: 1 -->
<svg width="1332pt" height="1675pt"
 viewBox="0.00 0.00 1332.00 1675.00" xmlns="http://www.w3.org/2000/svg" xmlns:xlink="http://www.w3.org/1999/xlink">
<g id="graph0" class="graph" transform="scale(1 1) rotate(0) translate(4 1671)">
<title>prolog</title>
<polygon fill="white" stroke="none" points="-4,4 -4,-1671 1328,-1671 1328,4 -4,4"/>
<g id="clust2" class="cluster">
<title>cluster_midcol</title>
<polygon fill="none" stroke="gray" points="8,-8 8,-1659 928,-1659 928,-8 8,-8"/>
<text text-anchor="start" x="438" y="-1646.5" font-family="Helvetica,sans-Serif" font-style="italic" font-size="10.00">dependencies</text>
</g>
<g id="clust3" class="cluster">
<title>cluster_compile</title>
<polygon fill="#eeeeee" stroke="gray" points="16,-16 16,-820 920,-820 920,-16 16,-16"/>
<text text-anchor="start" x="451.12" y="-807.5" font-family="Helvetica,sans-Serif" font-style="italic" font-size="10.00">compile</text>
</g>
<g id="clust12" class="cluster">
<title>cluster_run</title>
<polygon fill="#eeeeee" stroke="gray" points="412,-828 412,-1632 920,-1632 920,-828 412,-828"/>
<text text-anchor="start" x="659.25" y="-1619.5" font-family="Helvetica,sans-Serif" font-style="italic" font-size="10.00">run</text>
</g>
<g id="clust20" class="cluster">
<title>cluster_choices</title>
<polygon fill="none" stroke="gray" points="1012,-653 1012,-994 1316,-994 1316,-653 1012,-653"/>
<text text-anchor="start" x="1140.38" y="-981.5" font-family="Helvetica,sans-Serif" font-style="italic" font-size="10.00">candidates</text>
</g>
<!-- id -->
<g id="node1" class="node">
<title>id</title>
<g id="a_node1"><a xlink:href="../sys-fs/mtools-4.0.44.svg" xlink:title="portage://sys&#45;fs/mtools&#45;4.0.44">
<ellipse fill="none" stroke="red" cx="168" cy="-765" rx="144" ry="18"/>
<text text-anchor="middle" x="168" y="-761.12" font-family="Helvetica,sans-Serif" font-size="10.00">portage://sys&#45;fs/mtools&#45;4.0.44</text>
</a>
</g>
</g>
<!-- dependency426961 -->
<g id="node2" class="node">
<title>dependency426961</title>
<polygon fill="none" stroke="red" points="428,-387 428,-429 517,-429 517,-387 428,-387"/>
<text text-anchor="start" x="438.75" y="-404.12" font-family="Helvetica,sans-Serif" font-size="10.00">use_conditional</text>
<polygon fill="none" stroke="red" points="517,-408 517,-429 560,-429 560,-408 517,-408"/>
<text text-anchor="start" x="521.62" y="-414.5" font-family="Helvetica,sans-Serif" font-size="10.00">positive</text>
<polygon fill="none" stroke="red" points="517,-387 517,-408 560,-408 560,-387 517,-387"/>
<text text-anchor="start" x="532.12" y="-393.5" font-family="Helvetica,sans-Serif" font-size="10.00">gui</text>
</g>
<!-- id&#45;&gt;dependency426961 -->
<g id="edge6" class="edge">
<title>id:e&#45;&gt;dependency426961:w</title>
<path fill="none" stroke="black" d="M312,-765C473.76,-765 263.66,-424.54 407.99,-408.58"/>
<polygon fill="black" stroke="black" points="417.78,-408.06 408.03,-413.08 414.01,-408.26 407.8,-408.59 407.8,-408.59 407.8,-408.59 414.01,-408.26 407.56,-404.1 417.78,-408.06"/>
</g>
<!-- dependency426967 -->
<g id="node8" class="node">
<title>dependency426967</title>
<polygon fill="none" stroke="blue" points="684,-683.5 684,-788.5 788,-788.5 788,-683.5 684,-683.5"/>
<text text-anchor="start" x="715" y="-732.12" font-family="Helvetica,sans-Serif" font-size="10.00">pack_dep</text>
<polygon fill="none" stroke="blue" points="788,-767.5 788,-788.5 898,-788.5 898,-767.5 788,-767.5"/>
<text text-anchor="start" x="837.75" y="-774" font-family="Helvetica,sans-Serif" font-size="10.00">no</text>
<polygon fill="none" stroke="blue" points="788,-746.5 788,-767.5 898,-767.5 898,-746.5 788,-746.5"/>
<text text-anchor="start" x="829.88" y="-753" font-family="Helvetica,sans-Serif" font-size="10.00">virtual</text>
<polygon fill="none" stroke="blue" points="788,-725.5 788,-746.5 898,-746.5 898,-725.5 788,-725.5"/>
<text text-anchor="start" x="826.5" y="-732" font-family="Helvetica,sans-Serif" font-size="10.00">libiconv</text>
<polygon fill="none" stroke="blue" points="788,-704.5 788,-725.5 898,-725.5 898,-704.5 788,-704.5"/>
<text text-anchor="start" x="832.5" y="-711" font-family="Helvetica,sans-Serif" font-size="10.00">none</text>
<polygon fill="none" stroke="blue" points="788,-683.5 788,-704.5 898,-704.5 898,-683.5 788,-683.5"/>
<text text-anchor="start" x="837" y="-690" font-family="Helvetica,sans-Serif" font-size="10.00">[,,]</text>
</g>
<!-- id&#45;&gt;dependency426967 -->
<g id="edge7" class="edge">
<title>id:e&#45;&gt;dependency426967:w</title>
<path fill="none" stroke="black" d="M312,-765C470.49,-765 511.79,-737.34 664.79,-736.05"/>
<polygon fill="black" stroke="black" points="674.78,-736.01 664.8,-740.55 671,-736.02 664.78,-736.05 664.78,-736.05 664.78,-736.05 671,-736.02 664.76,-731.55 674.78,-736.01"/>
</g>
<!-- dependency426968 -->
<g id="node9" class="node">
<title>dependency426968</title>
<polygon fill="none" stroke="red" points="428,-1068 428,-1110 517,-1110 517,-1068 428,-1068"/>
<text text-anchor="start" x="438.75" y="-1085.12" font-family="Helvetica,sans-Serif" font-size="10.00">use_conditional</text>
<polygon fill="none" stroke="red" points="517,-1089 517,-1110 560,-1110 560,-1089 517,-1089"/>
<text text-anchor="start" x="521.62" y="-1095.5" font-family="Helvetica,sans-Serif" font-size="10.00">positive</text>
<polygon fill="none" stroke="red" points="517,-1068 517,-1089 560,-1089 560,-1068 517,-1068"/>
<text text-anchor="start" x="532.12" y="-1074.5" font-family="Helvetica,sans-Serif" font-size="10.00">gui</text>
</g>
<!-- id&#45;&gt;dependency426968 -->
<g id="edge13" class="edge">
<title>id:e&#45;&gt;dependency426968:w</title>
<path fill="none" stroke="black" d="M312,-765C460.54,-765 275.26,-1075.85 410.1,-1088.6"/>
<ellipse fill="none" stroke="black" cx="414.5" cy="-1088.8" rx="4" ry="4"/>
</g>
<!-- dependency426974 -->
<g id="node15" class="node">
<title>dependency426974</title>
<polygon fill="none" stroke="blue" points="684,-1495.5 684,-1600.5 788,-1600.5 788,-1495.5 684,-1495.5"/>
<text text-anchor="start" x="715" y="-1544.12" font-family="Helvetica,sans-Serif" font-size="10.00">pack_dep</text>
<polygon fill="none" stroke="blue" points="788,-1579.5 788,-1600.5 898,-1600.5 898,-1579.5 788,-1579.5"/>
<text text-anchor="start" x="837.75" y="-1586" font-family="Helvetica,sans-Serif" font-size="10.00">no</text>
<polygon fill="none" stroke="blue" points="788,-1558.5 788,-1579.5 898,-1579.5 898,-1558.5 788,-1558.5"/>
<text text-anchor="start" x="829.88" y="-1565" font-family="Helvetica,sans-Serif" font-size="10.00">virtual</text>
<polygon fill="none" stroke="blue" points="788,-1537.5 788,-1558.5 898,-1558.5 898,-1537.5 788,-1537.5"/>
<text text-anchor="start" x="826.5" y="-1544" font-family="Helvetica,sans-Serif" font-size="10.00">libiconv</text>
<polygon fill="none" stroke="blue" points="788,-1516.5 788,-1537.5 898,-1537.5 898,-1516.5 788,-1516.5"/>
<text text-anchor="start" x="832.5" y="-1523" font-family="Helvetica,sans-Serif" font-size="10.00">none</text>
<polygon fill="none" stroke="blue" points="788,-1495.5 788,-1516.5 898,-1516.5 898,-1495.5 788,-1495.5"/>
<text text-anchor="start" x="837" y="-1502" font-family="Helvetica,sans-Serif" font-size="10.00">[,,]</text>
</g>
<!-- id&#45;&gt;dependency426974 -->
<g id="edge14" class="edge">
<title>id:e&#45;&gt;dependency426974:w</title>
<path fill="none" stroke="black" d="M312,-765C477.2,-765 345.53,-971.76 412,-1123 500.25,-1323.79 454.92,-1541.95 667.03,-1547.88"/>
<ellipse fill="none" stroke="black" cx="671.5" cy="-1547.94" rx="4" ry="4"/>
</g>
<!-- dependency426962 -->
<g id="node3" class="node">
<title>dependency426962</title>
<polygon fill="none" stroke="blue" points="684,-159.5 684,-264.5 788,-264.5 788,-159.5 684,-159.5"/>
<text text-anchor="start" x="715" y="-208.12" font-family="Helvetica,sans-Serif" font-size="10.00">pack_dep</text>
<polygon fill="none" stroke="blue" points="788,-243.5 788,-264.5 898,-264.5 898,-243.5 788,-243.5"/>
<text text-anchor="start" x="837.75" y="-250" font-family="Helvetica,sans-Serif" font-size="10.00">no</text>
<polygon fill="none" stroke="blue" points="788,-222.5 788,-243.5 898,-243.5 898,-222.5 788,-222.5"/>
<text text-anchor="start" x="826.12" y="-229" font-family="Helvetica,sans-Serif" font-size="10.00">x11&#45;libs</text>
<polygon fill="none" stroke="blue" points="788,-201.5 788,-222.5 898,-222.5 898,-201.5 788,-201.5"/>
<text text-anchor="start" x="829.5" y="-208" font-family="Helvetica,sans-Serif" font-size="10.00">libICE</text>
<polygon fill="none" stroke="blue" points="788,-180.5 788,-201.5 898,-201.5 898,-180.5 788,-180.5"/>
<text text-anchor="start" x="832.5" y="-187" font-family="Helvetica,sans-Serif" font-size="10.00">none</text>
<polygon fill="none" stroke="blue" points="788,-159.5 788,-180.5 898,-180.5 898,-159.5 788,-159.5"/>
<text text-anchor="start" x="837" y="-166" font-family="Helvetica,sans-Serif" font-size="10.00">[,,]</text>
</g>
<!-- dependency426961&#45;&gt;dependency426962 -->
<g id="edge1" class="edge">
<title>dependency426961:e&#45;&gt;dependency426962:w</title>
<path fill="none" stroke="black" stroke-dasharray="5,2" d="M568,-408C663.58,-408 583.35,-227.01 665.19,-212.87"/>
<polygon fill="black" stroke="black" points="674.79,-212.1 665.18,-217.39 671.02,-212.4 664.82,-212.9 664.82,-212.9 664.82,-212.9 671.02,-212.4 664.46,-208.42 674.79,-212.1"/>
</g>
<!-- dependency426963 -->
<g id="node4" class="node">
<title>dependency426963</title>
<polygon fill="none" stroke="blue" points="684,-290.5 684,-395.5 788,-395.5 788,-290.5 684,-290.5"/>
<text text-anchor="start" x="715" y="-339.12" font-family="Helvetica,sans-Serif" font-size="10.00">pack_dep</text>
<polygon fill="none" stroke="blue" points="788,-374.5 788,-395.5 898,-395.5 898,-374.5 788,-374.5"/>
<text text-anchor="start" x="837.75" y="-381" font-family="Helvetica,sans-Serif" font-size="10.00">no</text>
<polygon fill="none" stroke="blue" points="788,-353.5 788,-374.5 898,-374.5 898,-353.5 788,-353.5"/>
<text text-anchor="start" x="826.12" y="-360" font-family="Helvetica,sans-Serif" font-size="10.00">x11&#45;libs</text>
<polygon fill="none" stroke="blue" points="788,-332.5 788,-353.5 898,-353.5 898,-332.5 788,-332.5"/>
<text text-anchor="start" x="829.5" y="-339" font-family="Helvetica,sans-Serif" font-size="10.00">libXau</text>
<polygon fill="none" stroke="blue" points="788,-311.5 788,-332.5 898,-332.5 898,-311.5 788,-311.5"/>
<text text-anchor="start" x="832.5" y="-318" font-family="Helvetica,sans-Serif" font-size="10.00">none</text>
<polygon fill="none" stroke="blue" points="788,-290.5 788,-311.5 898,-311.5 898,-290.5 788,-290.5"/>
<text text-anchor="start" x="837" y="-297" font-family="Helvetica,sans-Serif" font-size="10.00">[,,]</text>
</g>
<!-- dependency426961&#45;&gt;dependency426963 -->
<g id="edge2" class="edge">
<title>dependency426961:e&#45;&gt;dependency426963:w</title>
<path fill="none" stroke="black" stroke-dasharray="5,2" d="M568,-408C620.08,-408 620.25,-351.82 665.03,-343.92"/>
<polygon fill="black" stroke="black" points="674.79,-343.1 665.2,-348.42 671.02,-343.42 664.82,-343.94 664.82,-343.94 664.82,-343.94 671.02,-343.42 664.45,-339.45 674.79,-343.1"/>
</g>
<!-- dependency426964 -->
<g id="node5" class="node">
<title>dependency426964</title>
<polygon fill="none" stroke="blue" points="684,-421.5 684,-526.5 788,-526.5 788,-421.5 684,-421.5"/>
<text text-anchor="start" x="715" y="-470.12" font-family="Helvetica,sans-Serif" font-size="10.00">pack_dep</text>
<polygon fill="none" stroke="blue" points="788,-505.5 788,-526.5 898,-526.5 898,-505.5 788,-505.5"/>
<text text-anchor="start" x="837.75" y="-512" font-family="Helvetica,sans-Serif" font-size="10.00">no</text>
<polygon fill="none" stroke="blue" points="788,-484.5 788,-505.5 898,-505.5 898,-484.5 788,-484.5"/>
<text text-anchor="start" x="826.12" y="-491" font-family="Helvetica,sans-Serif" font-size="10.00">x11&#45;libs</text>
<polygon fill="none" stroke="blue" points="788,-463.5 788,-484.5 898,-484.5 898,-463.5 788,-463.5"/>
<text text-anchor="start" x="830.62" y="-470" font-family="Helvetica,sans-Serif" font-size="10.00">libSM</text>
<polygon fill="none" stroke="blue" points="788,-442.5 788,-463.5 898,-463.5 898,-442.5 788,-442.5"/>
<text text-anchor="start" x="832.5" y="-449" font-family="Helvetica,sans-Serif" font-size="10.00">none</text>
<polygon fill="none" stroke="blue" points="788,-421.5 788,-442.5 898,-442.5 898,-421.5 788,-421.5"/>
<text text-anchor="start" x="837" y="-428" font-family="Helvetica,sans-Serif" font-size="10.00">[,,]</text>
</g>
<!-- dependency426961&#45;&gt;dependency426964 -->
<g id="edge3" class="edge">
<title>dependency426961:e&#45;&gt;dependency426964:w</title>
<path fill="none" stroke="black" stroke-dasharray="5,2" d="M568,-408C620.3,-408 620.08,-465.05 664.99,-473.07"/>
<polygon fill="black" stroke="black" points="674.79,-473.9 664.44,-477.54 671.02,-473.58 664.82,-473.05 664.82,-473.05 664.82,-473.05 671.02,-473.58 665.2,-468.57 674.79,-473.9"/>
</g>
<!-- dependency426965 -->
<g id="node6" class="node">
<title>dependency426965</title>
<polygon fill="none" stroke="blue" points="684,-552.5 684,-657.5 788,-657.5 788,-552.5 684,-552.5"/>
<text text-anchor="start" x="715" y="-601.12" font-family="Helvetica,sans-Serif" font-size="10.00">pack_dep</text>
<polygon fill="none" stroke="blue" points="788,-636.5 788,-657.5 898,-657.5 898,-636.5 788,-636.5"/>
<text text-anchor="start" x="837.75" y="-643" font-family="Helvetica,sans-Serif" font-size="10.00">no</text>
<polygon fill="none" stroke="blue" points="788,-615.5 788,-636.5 898,-636.5 898,-615.5 788,-615.5"/>
<text text-anchor="start" x="826.12" y="-622" font-family="Helvetica,sans-Serif" font-size="10.00">x11&#45;libs</text>
<polygon fill="none" stroke="blue" points="788,-594.5 788,-615.5 898,-615.5 898,-594.5 788,-594.5"/>
<text text-anchor="start" x="829.5" y="-601" font-family="Helvetica,sans-Serif" font-size="10.00">libX11</text>
<polygon fill="none" stroke="blue" points="788,-573.5 788,-594.5 898,-594.5 898,-573.5 788,-573.5"/>
<text text-anchor="start" x="832.5" y="-580" font-family="Helvetica,sans-Serif" font-size="10.00">none</text>
<polygon fill="none" stroke="blue" points="788,-552.5 788,-573.5 898,-573.5 898,-552.5 788,-552.5"/>
<text text-anchor="start" x="837" y="-559" font-family="Helvetica,sans-Serif" font-size="10.00">[,,]</text>
</g>
<!-- dependency426961&#45;&gt;dependency426965 -->
<g id="edge4" class="edge">
<title>dependency426961:e&#45;&gt;dependency426965:w</title>
<path fill="none" stroke="black" stroke-dasharray="5,2" d="M568,-408C663.95,-408 583.02,-589.91 665.15,-604.12"/>
<polygon fill="black" stroke="black" points="674.79,-604.9 664.45,-608.58 671.02,-604.6 664.82,-604.09 664.82,-604.09 664.82,-604.09 671.02,-604.6 665.18,-599.61 674.79,-604.9"/>
</g>
<!-- dependency426966 -->
<g id="node7" class="node">
<title>dependency426966</title>
<polygon fill="none" stroke="blue" points="684,-28.5 684,-133.5 788,-133.5 788,-28.5 684,-28.5"/>
<text text-anchor="start" x="715" y="-77.12" font-family="Helvetica,sans-Serif" font-size="10.00">pack_dep</text>
<polygon fill="none" stroke="blue" points="788,-112.5 788,-133.5 898,-133.5 898,-112.5 788,-112.5"/>
<text text-anchor="start" x="837.75" y="-119" font-family="Helvetica,sans-Serif" font-size="10.00">no</text>
<polygon fill="none" stroke="blue" points="788,-91.5 788,-112.5 898,-112.5 898,-91.5 788,-91.5"/>
<text text-anchor="start" x="826.12" y="-98" font-family="Helvetica,sans-Serif" font-size="10.00">x11&#45;libs</text>
<polygon fill="none" stroke="blue" points="788,-70.5 788,-91.5 898,-91.5 898,-70.5 788,-70.5"/>
<text text-anchor="start" x="833.25" y="-77" font-family="Helvetica,sans-Serif" font-size="10.00">libXt</text>
<polygon fill="none" stroke="blue" points="788,-49.5 788,-70.5 898,-70.5 898,-49.5 788,-49.5"/>
<text text-anchor="start" x="832.5" y="-56" font-family="Helvetica,sans-Serif" font-size="10.00">none</text>
<polygon fill="none" stroke="blue" points="788,-28.5 788,-49.5 898,-49.5 898,-28.5 788,-28.5"/>
<text text-anchor="start" x="837" y="-35" font-family="Helvetica,sans-Serif" font-size="10.00">[,,]</text>
</g>
<!-- dependency426961&#45;&gt;dependency426966 -->
<g id="edge5" class="edge">
<title>dependency426961:e&#45;&gt;dependency426966:w</title>
<path fill="none" stroke="black" stroke-dasharray="5,2" d="M568,-408C717.17,-408 532.78,-97.39 665.01,-81.62"/>
<polygon fill="black" stroke="black" points="674.78,-81.07 665.05,-86.13 671.01,-81.28 664.8,-81.63 664.8,-81.63 664.8,-81.63 671.01,-81.28 664.55,-77.14 674.78,-81.07"/>
</g>
<!-- choice1204949451081059811547108105987367694549464946494511449 -->
<g id="node16" class="node">
<title>choice1204949451081059811547108105987367694549464946494511449</title>
<g id="a_node16"><a xlink:href="../x11-libs/libICE-1.1.1-r1.svg" xlink:title="portage://x11&#45;libs/libICE&#45;1.1.1&#45;r1">
<ellipse fill="none" stroke="red" cx="1164" cy="-733" rx="144" ry="18"/>
<text text-anchor="middle" x="1164" y="-729.12" font-family="Helvetica,sans-Serif" font-size="10.00">portage://x11&#45;libs/libICE&#45;1.1.1&#45;r1</text>
</a>
</g>
</g>
<!-- dependency426962&#45;&gt;choice1204949451081059811547108105987367694549464946494511449 -->
<g id="edge15" class="edge">
<title>dependency426962:e&#45;&gt;choice1204949451081059811547108105987367694549464946494511449:w</title>
<path fill="none" stroke="black" stroke-dasharray="1,5" d="M913,-212C1145.49,-212 794.36,-716.35 1008.04,-732.6"/>
<polygon fill="black" stroke="black" points="1017.78,-732.96 1007.62,-737.09 1014,-732.82 1007.79,-732.59 1007.79,-732.59 1007.79,-732.59 1014,-732.82 1007.95,-728.09 1017.78,-732.96"/>
</g>
<!-- choice120494945108105981154710810598889711745494648464949 -->
<g id="node17" class="node">
<title>choice120494945108105981154710810598889711745494648464949</title>
<g id="a_node17"><a xlink:href="../x11-libs/libXau-1.0.11.svg" xlink:title="portage://x11&#45;libs/libXau&#45;1.0.11">
<ellipse fill="none" stroke="red" cx="1164" cy="-787" rx="144" ry="18"/>
<text text-anchor="middle" x="1164" y="-783.12" font-family="Helvetica,sans-Serif" font-size="10.00">portage://x11&#45;libs/libXau&#45;1.0.11</text>
</a>
</g>
</g>
<!-- dependency426963&#45;&gt;choice120494945108105981154710810598889711745494648464949 -->
<g id="edge16" class="edge">
<title>dependency426963:e&#45;&gt;choice120494945108105981154710810598889711745494648464949:w</title>
<path fill="none" stroke="black" stroke-dasharray="1,5" d="M913,-343C1112.02,-343 827.36,-770.25 1007.95,-786.52"/>
<polygon fill="black" stroke="black" points="1017.78,-786.95 1007.6,-791.01 1014,-786.78 1007.79,-786.52 1007.79,-786.52 1007.79,-786.52 1014,-786.78 1007.99,-782.02 1017.78,-786.95"/>
</g>
<!-- choice1204949451081059811547108105988377454946504652 -->
<g id="node18" class="node">
<title>choice1204949451081059811547108105988377454946504652</title>
<g id="a_node18"><a xlink:href="../x11-libs/libSM-1.2.4.svg" xlink:title="portage://x11&#45;libs/libSM&#45;1.2.4">
<ellipse fill="none" stroke="red" cx="1164" cy="-841" rx="144" ry="18"/>
<text text-anchor="middle" x="1164" y="-837.12" font-family="Helvetica,sans-Serif" font-size="10.00">portage://x11&#45;libs/libSM&#45;1.2.4</text>
</a>
</g>
</g>
<!-- dependency426964&#45;&gt;choice1204949451081059811547108105988377454946504652 -->
<g id="edge17" class="edge">
<title>dependency426964:e&#45;&gt;choice1204949451081059811547108105988377454946504652:w</title>
<path fill="none" stroke="black" stroke-dasharray="1,5" d="M913,-474C1078.96,-474 859.51,-824.7 1008.16,-840.45"/>
<polygon fill="black" stroke="black" points="1017.78,-840.94 1007.57,-844.93 1014.01,-840.75 1007.8,-840.43 1007.8,-840.43 1007.8,-840.43 1014.01,-840.75 1008.02,-835.94 1017.78,-840.94"/>
</g>
<!-- choice120494945108105981154710810598884949454946564657 -->
<g id="node19" class="node">
<title>choice120494945108105981154710810598884949454946564657</title>
<g id="a_node19"><a xlink:href="../x11-libs/libX11-1.8.9.svg" xlink:title="portage://x11&#45;libs/libX11&#45;1.8.9">
<ellipse fill="none" stroke="red" cx="1164" cy="-895" rx="144" ry="18"/>
<text text-anchor="middle" x="1164" y="-891.12" font-family="Helvetica,sans-Serif" font-size="10.00">portage://x11&#45;libs/libX11&#45;1.8.9</text>
</a>
</g>
</g>
<!-- dependency426965&#45;&gt;choice120494945108105981154710810598884949454946564657 -->
<g id="edge18" class="edge">
<title>dependency426965:e&#45;&gt;choice120494945108105981154710810598884949454946564657:w</title>
<path fill="none" stroke="black" stroke-dasharray="1,5" d="M913,-605C1046.34,-605 891.07,-878.81 1008.06,-894.32"/>
<polygon fill="black" stroke="black" points="1017.78,-894.92 1007.52,-898.79 1014.01,-894.69 1007.8,-894.3 1007.8,-894.3 1007.8,-894.3 1014.01,-894.69 1008.08,-889.81 1017.78,-894.92"/>
</g>
<!-- choice12049494510810598115471081059888116454946514648 -->
<g id="node20" class="node">
<title>choice12049494510810598115471081059888116454946514648</title>
<g id="a_node20"><a xlink:href="../x11-libs/libXt-1.3.0.svg" xlink:title="portage://x11&#45;libs/libXt&#45;1.3.0">
<ellipse fill="none" stroke="red" cx="1164" cy="-679" rx="144" ry="18"/>
<text text-anchor="middle" x="1164" y="-675.12" font-family="Helvetica,sans-Serif" font-size="10.00">portage://x11&#45;libs/libXt&#45;1.3.0</text>
</a>
</g>
</g>
<!-- dependency426966&#45;&gt;choice12049494510810598115471081059888116454946514648 -->
<g id="edge19" class="edge">
<title>dependency426966:e&#45;&gt;choice12049494510810598115471081059888116454946514648:w</title>
<path fill="none" stroke="black" stroke-dasharray="1,5" d="M913,-81C1044.01,-81 893.39,-644.47 1007.89,-677.49"/>
<polygon fill="black" stroke="black" points="1017.79,-678.84 1007.28,-681.95 1014.05,-678.33 1007.88,-677.49 1007.88,-677.49 1007.88,-677.49 1014.05,-678.33 1008.49,-673.03 1017.79,-678.84"/>
</g>
<!-- choice1181051141161179710847108105981059911111011845484511450 -->
<g id="node21" class="node">
<title>choice1181051141161179710847108105981059911111011845484511450</title>
<g id="a_node21"><a xlink:href="../virtual/libiconv-0-r2.svg" xlink:title="portage://virtual/libiconv&#45;0&#45;r2">
<ellipse fill="none" stroke="red" cx="1164" cy="-949" rx="144" ry="18"/>
<text text-anchor="middle" x="1164" y="-945.12" font-family="Helvetica,sans-Serif" font-size="10.00">portage://virtual/libiconv&#45;0&#45;r2</text>
</a>
</g>
</g>
<!-- dependency426967&#45;&gt;choice1181051141161179710847108105981059911111011845484511450 -->
<g id="edge20" class="edge">
<title>dependency426967:e&#45;&gt;choice1181051141161179710847108105981059911111011845484511450:w</title>
<path fill="none" stroke="black" stroke-dasharray="1,5" d="M913,-736C1014.82,-736 920.8,-933.48 1008.08,-948.14"/>
<polygon fill="black" stroke="black" points="1017.79,-948.9 1007.46,-952.61 1014.02,-948.61 1007.82,-948.12 1007.82,-948.12 1007.82,-948.12 1014.02,-948.61 1008.17,-943.63 1017.79,-948.9"/>
</g>
<!-- dependency426969 -->
<g id="node10" class="node">
<title>dependency426969</title>
<polygon fill="none" stroke="blue" points="684,-971.5 684,-1076.5 788,-1076.5 788,-971.5 684,-971.5"/>
<text text-anchor="start" x="715" y="-1020.12" font-family="Helvetica,sans-Serif" font-size="10.00">pack_dep</text>
<polygon fill="none" stroke="blue" points="788,-1055.5 788,-1076.5 898,-1076.5 898,-1055.5 788,-1055.5"/>
<text text-anchor="start" x="837.75" y="-1062" font-family="Helvetica,sans-Serif" font-size="10.00">no</text>
<polygon fill="none" stroke="blue" points="788,-1034.5 788,-1055.5 898,-1055.5 898,-1034.5 788,-1034.5"/>
<text text-anchor="start" x="826.12" y="-1041" font-family="Helvetica,sans-Serif" font-size="10.00">x11&#45;libs</text>
<polygon fill="none" stroke="blue" points="788,-1013.5 788,-1034.5 898,-1034.5 898,-1013.5 788,-1013.5"/>
<text text-anchor="start" x="829.5" y="-1020" font-family="Helvetica,sans-Serif" font-size="10.00">libICE</text>
<polygon fill="none" stroke="blue" points="788,-992.5 788,-1013.5 898,-1013.5 898,-992.5 788,-992.5"/>
<text text-anchor="start" x="832.5" y="-999" font-family="Helvetica,sans-Serif" font-size="10.00">none</text>
<polygon fill="none" stroke="blue" points="788,-971.5 788,-992.5 898,-992.5 898,-971.5 788,-971.5"/>
<text text-anchor="start" x="837" y="-978" font-family="Helvetica,sans-Serif" font-size="10.00">[,,]</text>
</g>
<!-- dependency426968&#45;&gt;dependency426969 -->
<g id="edge8" class="edge">
<title>dependency426968:e&#45;&gt;dependency426969:w</title>
<path fill="none" stroke="black" stroke-dasharray="5,2" d="M568,-1089C620.08,-1089 620.25,-1032.82 665.03,-1024.92"/>
<polygon fill="black" stroke="black" points="674.79,-1024.1 665.2,-1029.42 671.02,-1024.42 664.82,-1024.94 664.82,-1024.94 664.82,-1024.94 671.02,-1024.42 664.45,-1020.45 674.79,-1024.1"/>
</g>
<!-- dependency426970 -->
<g id="node11" class="node">
<title>dependency426970</title>
<polygon fill="none" stroke="blue" points="684,-1102.5 684,-1207.5 788,-1207.5 788,-1102.5 684,-1102.5"/>
<text text-anchor="start" x="715" y="-1151.12" font-family="Helvetica,sans-Serif" font-size="10.00">pack_dep</text>
<polygon fill="none" stroke="blue" points="788,-1186.5 788,-1207.5 898,-1207.5 898,-1186.5 788,-1186.5"/>
<text text-anchor="start" x="837.75" y="-1193" font-family="Helvetica,sans-Serif" font-size="10.00">no</text>
<polygon fill="none" stroke="blue" points="788,-1165.5 788,-1186.5 898,-1186.5 898,-1165.5 788,-1165.5"/>
<text text-anchor="start" x="826.12" y="-1172" font-family="Helvetica,sans-Serif" font-size="10.00">x11&#45;libs</text>
<polygon fill="none" stroke="blue" points="788,-1144.5 788,-1165.5 898,-1165.5 898,-1144.5 788,-1144.5"/>
<text text-anchor="start" x="829.5" y="-1151" font-family="Helvetica,sans-Serif" font-size="10.00">libXau</text>
<polygon fill="none" stroke="blue" points="788,-1123.5 788,-1144.5 898,-1144.5 898,-1123.5 788,-1123.5"/>
<text text-anchor="start" x="832.5" y="-1130" font-family="Helvetica,sans-Serif" font-size="10.00">none</text>
<polygon fill="none" stroke="blue" points="788,-1102.5 788,-1123.5 898,-1123.5 898,-1102.5 788,-1102.5"/>
<text text-anchor="start" x="837" y="-1109" font-family="Helvetica,sans-Serif" font-size="10.00">[,,]</text>
</g>
<!-- dependency426968&#45;&gt;dependency426970 -->
<g id="edge9" class="edge">
<title>dependency426968:e&#45;&gt;dependency426970:w</title>
<path fill="none" stroke="black" stroke-dasharray="5,2" d="M568,-1089C620.3,-1089 620.08,-1146.05 664.99,-1154.07"/>
<polygon fill="black" stroke="black" points="674.79,-1154.9 664.44,-1158.54 671.02,-1154.58 664.82,-1154.05 664.82,-1154.05 664.82,-1154.05 671.02,-1154.58 665.2,-1149.57 674.79,-1154.9"/>
</g>
<!-- dependency426971 -->
<g id="node12" class="node">
<title>dependency426971</title>
<polygon fill="none" stroke="blue" points="684,-1233.5 684,-1338.5 788,-1338.5 788,-1233.5 684,-1233.5"/>
<text text-anchor="start" x="715" y="-1282.12" font-family="Helvetica,sans-Serif" font-size="10.00">pack_dep</text>
<polygon fill="none" stroke="blue" points="788,-1317.5 788,-1338.5 898,-1338.5 898,-1317.5 788,-1317.5"/>
<text text-anchor="start" x="837.75" y="-1324" font-family="Helvetica,sans-Serif" font-size="10.00">no</text>
<polygon fill="none" stroke="blue" points="788,-1296.5 788,-1317.5 898,-1317.5 898,-1296.5 788,-1296.5"/>
<text text-anchor="start" x="826.12" y="-1303" font-family="Helvetica,sans-Serif" font-size="10.00">x11&#45;libs</text>
<polygon fill="none" stroke="blue" points="788,-1275.5 788,-1296.5 898,-1296.5 898,-1275.5 788,-1275.5"/>
<text text-anchor="start" x="830.62" y="-1282" font-family="Helvetica,sans-Serif" font-size="10.00">libSM</text>
<polygon fill="none" stroke="blue" points="788,-1254.5 788,-1275.5 898,-1275.5 898,-1254.5 788,-1254.5"/>
<text text-anchor="start" x="832.5" y="-1261" font-family="Helvetica,sans-Serif" font-size="10.00">none</text>
<polygon fill="none" stroke="blue" points="788,-1233.5 788,-1254.5 898,-1254.5 898,-1233.5 788,-1233.5"/>
<text text-anchor="start" x="837" y="-1240" font-family="Helvetica,sans-Serif" font-size="10.00">[,,]</text>
</g>
<!-- dependency426968&#45;&gt;dependency426971 -->
<g id="edge10" class="edge">
<title>dependency426968:e&#45;&gt;dependency426971:w</title>
<path fill="none" stroke="black" stroke-dasharray="5,2" d="M568,-1089C663.95,-1089 583.02,-1270.91 665.15,-1285.12"/>
<polygon fill="black" stroke="black" points="674.79,-1285.9 664.45,-1289.58 671.02,-1285.6 664.82,-1285.09 664.82,-1285.09 664.82,-1285.09 671.02,-1285.6 665.18,-1280.61 674.79,-1285.9"/>
</g>
<!-- dependency426972 -->
<g id="node13" class="node">
<title>dependency426972</title>
<polygon fill="none" stroke="blue" points="684,-1364.5 684,-1469.5 788,-1469.5 788,-1364.5 684,-1364.5"/>
<text text-anchor="start" x="715" y="-1413.12" font-family="Helvetica,sans-Serif" font-size="10.00">pack_dep</text>
<polygon fill="none" stroke="blue" points="788,-1448.5 788,-1469.5 898,-1469.5 898,-1448.5 788,-1448.5"/>
<text text-anchor="start" x="837.75" y="-1455" font-family="Helvetica,sans-Serif" font-size="10.00">no</text>
<polygon fill="none" stroke="blue" points="788,-1427.5 788,-1448.5 898,-1448.5 898,-1427.5 788,-1427.5"/>
<text text-anchor="start" x="826.12" y="-1434" font-family="Helvetica,sans-Serif" font-size="10.00">x11&#45;libs</text>
<polygon fill="none" stroke="blue" points="788,-1406.5 788,-1427.5 898,-1427.5 898,-1406.5 788,-1406.5"/>
<text text-anchor="start" x="829.5" y="-1413" font-family="Helvetica,sans-Serif" font-size="10.00">libX11</text>
<polygon fill="none" stroke="blue" points="788,-1385.5 788,-1406.5 898,-1406.5 898,-1385.5 788,-1385.5"/>
<text text-anchor="start" x="832.5" y="-1392" font-family="Helvetica,sans-Serif" font-size="10.00">none</text>
<polygon fill="none" stroke="blue" points="788,-1364.5 788,-1385.5 898,-1385.5 898,-1364.5 788,-1364.5"/>
<text text-anchor="start" x="837" y="-1371" font-family="Helvetica,sans-Serif" font-size="10.00">[,,]</text>
</g>
<!-- dependency426968&#45;&gt;dependency426972 -->
<g id="edge11" class="edge">
<title>dependency426968:e&#45;&gt;dependency426972:w</title>
<path fill="none" stroke="black" stroke-dasharray="5,2" d="M568,-1089C717.58,-1089 532.4,-1400.56 664.98,-1416.38"/>
<polygon fill="black" stroke="black" points="674.78,-1416.93 664.55,-1420.86 671.01,-1416.72 664.8,-1416.37 664.8,-1416.37 664.8,-1416.37 671.01,-1416.72 665.05,-1411.87 674.78,-1416.93"/>
</g>
<!-- dependency426973 -->
<g id="node14" class="node">
<title>dependency426973</title>
<polygon fill="none" stroke="blue" points="684,-840.5 684,-945.5 788,-945.5 788,-840.5 684,-840.5"/>
<text text-anchor="start" x="715" y="-889.12" font-family="Helvetica,sans-Serif" font-size="10.00">pack_dep</text>
<polygon fill="none" stroke="blue" points="788,-924.5 788,-945.5 898,-945.5 898,-924.5 788,-924.5"/>
<text text-anchor="start" x="837.75" y="-931" font-family="Helvetica,sans-Serif" font-size="10.00">no</text>
<polygon fill="none" stroke="blue" points="788,-903.5 788,-924.5 898,-924.5 898,-903.5 788,-903.5"/>
<text text-anchor="start" x="826.12" y="-910" font-family="Helvetica,sans-Serif" font-size="10.00">x11&#45;libs</text>
<polygon fill="none" stroke="blue" points="788,-882.5 788,-903.5 898,-903.5 898,-882.5 788,-882.5"/>
<text text-anchor="start" x="833.25" y="-889" font-family="Helvetica,sans-Serif" font-size="10.00">libXt</text>
<polygon fill="none" stroke="blue" points="788,-861.5 788,-882.5 898,-882.5 898,-861.5 788,-861.5"/>
<text text-anchor="start" x="832.5" y="-868" font-family="Helvetica,sans-Serif" font-size="10.00">none</text>
<polygon fill="none" stroke="blue" points="788,-840.5 788,-861.5 898,-861.5 898,-840.5 788,-840.5"/>
<text text-anchor="start" x="837" y="-847" font-family="Helvetica,sans-Serif" font-size="10.00">[,,]</text>
</g>
<!-- dependency426968&#45;&gt;dependency426973 -->
<g id="edge12" class="edge">
<title>dependency426968:e&#45;&gt;dependency426973:w</title>
<path fill="none" stroke="black" stroke-dasharray="5,2" d="M568,-1089C663.58,-1089 583.35,-908.01 665.19,-893.87"/>
<polygon fill="black" stroke="black" points="674.79,-893.1 665.18,-898.39 671.02,-893.4 664.82,-893.9 664.82,-893.9 664.82,-893.9 671.02,-893.4 664.46,-889.42 674.79,-893.1"/>
</g>
<!-- dependency426969&#45;&gt;choice1204949451081059811547108105987367694549464946494511449 -->
<g id="edge21" class="edge">
<title>dependency426969:e&#45;&gt;choice1204949451081059811547108105987367694549464946494511449:w</title>
<path fill="none" stroke="black" stroke-dasharray="1,5" d="M913,-1024C1046.75,-1024 890.7,-749.25 1008.03,-733.69"/>
<polygon fill="black" stroke="black" points="1017.78,-733.08 1008.08,-738.19 1014.01,-733.31 1007.8,-733.7 1007.8,-733.7 1007.8,-733.7 1014.01,-733.31 1007.52,-729.21 1017.78,-733.08"/>
</g>
<!-- dependency426970&#45;&gt;choice120494945108105981154710810598889711745494648464949 -->
<g id="edge22" class="edge">
<title>dependency426970:e&#45;&gt;choice120494945108105981154710810598889711745494648464949:w</title>
<path fill="none" stroke="black" stroke-dasharray="1,5" d="M913,-1155C1079.38,-1155 859.12,-803.35 1008.13,-787.55"/>
<polygon fill="black" stroke="black" points="1017.78,-787.06 1008.02,-792.06 1014.01,-787.25 1007.8,-787.57 1007.8,-787.57 1007.8,-787.57 1014.01,-787.25 1007.57,-783.07 1017.78,-787.06"/>
</g>
<!-- dependency426971&#45;&gt;choice1204949451081059811547108105988377454946504652 -->
<g id="edge23" class="edge">
<title>dependency426971:e&#45;&gt;choice1204949451081059811547108105988377454946504652:w</title>
<path fill="none" stroke="black" stroke-dasharray="1,5" d="M913,-1286C1112.44,-1286 826.96,-857.79 1007.93,-841.48"/>
<polygon fill="black" stroke="black" points="1017.78,-841.05 1007.99,-845.98 1014,-841.22 1007.79,-841.48 1007.79,-841.48 1007.79,-841.48 1014,-841.22 1007.6,-836.99 1017.78,-841.05"/>
</g>
<!-- dependency426972&#45;&gt;choice120494945108105981154710810598884949454946564657 -->
<g id="edge24" class="edge">
<title>dependency426972:e&#45;&gt;choice120494945108105981154710810598884949454946564657:w</title>
<path fill="none" stroke="black" stroke-dasharray="1,5" d="M913,-1417C1145.92,-1417 793.95,-911.69 1008.02,-895.4"/>
<polygon fill="black" stroke="black" points="1017.78,-895.04 1007.95,-899.91 1014,-895.18 1007.79,-895.41 1007.79,-895.41 1007.79,-895.41 1014,-895.18 1007.62,-890.91 1017.78,-895.04"/>
</g>
<!-- dependency426973&#45;&gt;choice12049494510810598115471081059888116454946514648 -->
<g id="edge25" class="edge">
<title>dependency426973:e&#45;&gt;choice12049494510810598115471081059888116454946514648:w</title>
<path fill="none" stroke="black" stroke-dasharray="1,5" d="M913,-893C1015.2,-893 920.46,-694.59 1008.04,-679.86"/>
<polygon fill="black" stroke="black" points="1017.79,-679.1 1008.17,-684.37 1014.02,-679.39 1007.82,-679.88 1007.82,-679.88 1007.82,-679.88 1014.02,-679.39 1007.46,-675.39 1017.79,-679.1"/>
</g>
<!-- dependency426974&#45;&gt;choice1181051141161179710847108105981059911111011845484511450 -->
<g id="edge26" class="edge">
<title>dependency426974:e&#45;&gt;choice1181051141161179710847108105981059911111011845484511450:w</title>
<path fill="none" stroke="black" stroke-dasharray="1,5" d="M913,-1548C1044.35,-1548 892.89,-982.45 1008.22,-950.41"/>
<polygon fill="black" stroke="black" points="1017.79,-949.16 1008.46,-954.92 1014.04,-949.65 1007.88,-950.46 1007.88,-950.46 1007.88,-950.46 1014.04,-949.65 1007.29,-946 1017.79,-949.16"/>
</g>
</g>
</svg>
