<?xml version="1.0" encoding="UTF-8" standalone="no"?>
<!DOCTYPE svg PUBLIC "-//W3C//DTD SVG 1.1//EN"
 "http://www.w3.org/Graphics/SVG/1.1/DTD/svg11.dtd">
<!-- Generated by graphviz version 2.39.20160721.2101 (20160721.2101)
 -->
<!-- Title: prolog Pages: 1 -->
<svg width="1068pt" height="690pt"
 viewBox="0.00 0.00 1068.00 690.00" xmlns="http://www.w3.org/2000/svg" xmlns:xlink="http://www.w3.org/1999/xlink">
<g id="graph0" class="graph" transform="scale(1 1) rotate(0) translate(4 686)">
<title>prolog</title>
<polygon fill="white" stroke="transparent" points="-4,4 -4,-686 1064,-686 1064,4 -4,4"/>
<g id="clust1" class="cluster">
<title>cluster_leftcol</title>
<polygon fill="none" stroke="gray" points="8,-305 8,-377 312,-377 312,-305 8,-305"/>
<text text-anchor="start" x="146.663" y="-365" font-family="Helvetica,sans-Serif" font-style="italic" font-size="10.00">ebuild</text>
</g>
<g id="clust2" class="cluster">
<title>cluster_midcol</title>
<polygon fill="none" stroke="gray" points="396,-262 396,-440 664,-440 664,-262 396,-262"/>
<text text-anchor="start" x="498.875" y="-428" font-family="Helvetica,sans-Serif" font-style="italic" font-size="10.00">dependencies</text>
</g>
<g id="clust3" class="cluster">
<title>cluster_compile</title>
<polygon fill="#eeeeee" stroke="gray" points="404,-270 404,-412 656,-412 656,-270 404,-270"/>
<text text-anchor="start" x="512.778" y="-400" font-family="Helvetica,sans-Serif" font-style="italic" font-size="10.00">compile</text>
</g>
<g id="clust7" class="cluster">
<title>cluster_choices</title>
<polygon fill="none" stroke="gray" points="748,-8 748,-674 1052,-674 1052,-8 748,-8"/>
<text text-anchor="start" x="875.824" y="-662" font-family="Helvetica,sans-Serif" font-style="italic" font-size="10.00">candidates</text>
</g>
<!-- id -->
<g id="node1" class="node">
<title>id</title>
<g id="a_node1"><a xlink:href="../app-editors/vim-core-8.0.0983.svg" xlink:title="app&#45;editors/vim&#45;core&#45;8.0.0983">
<ellipse fill="none" stroke="red" cx="160" cy="-331" rx="144" ry="18"/>
<text text-anchor="middle" x="160" y="-328" font-family="Helvetica,sans-Serif" font-size="10.00">app&#45;editors/vim&#45;core&#45;8.0.0983</text>
</a>
</g>
</g>
<!-- dependency19194 -->
<g id="node2" class="node">
<title>dependency19194</title>
<polygon fill="none" stroke="blue" points="420,-282 420,-380 525,-380 525,-282 420,-282"/>
<text text-anchor="start" x="450.823" y="-328" font-family="Helvetica,sans-Serif" font-size="10.00">pack_dep</text>
<polygon fill="none" stroke="blue" points="525,-358 525,-380 635,-380 635,-358 525,-358"/>
<text text-anchor="start" x="574.441" y="-366" font-family="Helvetica,sans-Serif" font-size="10.00">no</text>
<polygon fill="none" stroke="blue" points="525,-336 525,-358 635,-358 635,-336 525,-336"/>
<text text-anchor="start" x="558.888" y="-344" font-family="Helvetica,sans-Serif" font-size="10.00">sys&#45;devel</text>
<polygon fill="none" stroke="blue" points="525,-314 525,-336 635,-336 635,-314 525,-314"/>
<text text-anchor="start" x="560.823" y="-322" font-family="Helvetica,sans-Serif" font-size="10.00">autoconf</text>
<polygon fill="none" stroke="blue" points="525,-292 525,-314 635,-314 635,-292 525,-292"/>
<text text-anchor="start" x="568.882" y="-300" font-family="Helvetica,sans-Serif" font-size="10.00">none</text>
<polygon fill="none" stroke="blue" points="525,-282 525,-292 635,-292 635,-282 525,-282"/>
</g>
<!-- id&#45;&gt;dependency19194 -->
<g id="edge1" class="edge">
<title>id:e&#45;&gt;dependency19194:w</title>
<path fill="none" stroke="black" d="M304,-331C348.438,-331 362.02,-331 401.878,-331"/>
<polygon fill="black" stroke="black" points="412,-331 402,-335.5 407,-331 402,-331 402,-331 402,-331 407,-331 402,-326.5 412,-331 412,-331"/>
</g>
<!-- choice115121115451001011181011084797117116111991111101024550464951 -->
<g id="node3" class="node">
<title>choice115121115451001011181011084797117116111991111101024550464951</title>
<g id="a_node3"><a xlink:href="../sys-devel/autoconf-2.13.svg" xlink:title="sys&#45;devel/autoconf&#45;2.13">
<ellipse fill="none" stroke="red" cx="900" cy="-628" rx="144" ry="18"/>
<text text-anchor="middle" x="900" y="-625" font-family="Helvetica,sans-Serif" font-size="10.00">sys&#45;devel/autoconf&#45;2.13</text>
</a>
</g>
</g>
<!-- dependency19194&#45;&gt;choice115121115451001011181011084797117116111991111101024550464951 -->
<g id="edge2" class="edge">
<title>dependency19194:e&#45;&gt;choice115121115451001011181011084797117116111991111101024550464951:w</title>
<path fill="none" stroke="black" stroke-dasharray="1,5" d="M648,-331C784.89,-331 624.122,-613.109 745.897,-627.435"/>
<polygon fill="black" stroke="black" points="756,-628 745.764,-631.935 751.008,-627.721 746.016,-627.442 746.016,-627.442 746.016,-627.442 751.008,-627.721 746.267,-622.949 756,-628 756,-628"/>
</g>
<!-- choice1151211154510010111810110847971171161119911111010245504653574511455 -->
<g id="node4" class="node">
<title>choice1151211154510010111810110847971171161119911111010245504653574511455</title>
<g id="a_node4"><a xlink:href="../sys-devel/autoconf-2.59-r7.svg" xlink:title="sys&#45;devel/autoconf&#45;2.59&#45;r7">
<ellipse fill="none" stroke="red" cx="900" cy="-574" rx="144" ry="18"/>
<text text-anchor="middle" x="900" y="-571" font-family="Helvetica,sans-Serif" font-size="10.00">sys&#45;devel/autoconf&#45;2.59&#45;r7</text>
</a>
</g>
</g>
<!-- dependency19194&#45;&gt;choice1151211154510010111810110847971171161119911111010245504653574511455 -->
<g id="edge3" class="edge">
<title>dependency19194:e&#45;&gt;choice1151211154510010111810110847971171161119911111010245504653574511455:w</title>
<path fill="none" stroke="black" stroke-dasharray="1,5" d="M648,-331C762.608,-331 645.36,-559.51 745.931,-573.345"/>
<polygon fill="black" stroke="black" points="756,-574 745.729,-577.842 751.011,-573.676 746.021,-573.351 746.021,-573.351 746.021,-573.351 751.011,-573.676 746.313,-568.861 756,-574 756,-574"/>
</g>
<!-- choice1151211154510010111810110847971171161119911111010245504654494511450 -->
<g id="node5" class="node">
<title>choice1151211154510010111810110847971171161119911111010245504654494511450</title>
<g id="a_node5"><a xlink:href="../sys-devel/autoconf-2.61-r2.svg" xlink:title="sys&#45;devel/autoconf&#45;2.61&#45;r2">
<ellipse fill="none" stroke="red" cx="900" cy="-520" rx="144" ry="18"/>
<text text-anchor="middle" x="900" y="-517" font-family="Helvetica,sans-Serif" font-size="10.00">sys&#45;devel/autoconf&#45;2.61&#45;r2</text>
</a>
</g>
</g>
<!-- dependency19194&#45;&gt;choice1151211154510010111810110847971171161119911111010245504654494511450 -->
<g id="edge4" class="edge">
<title>dependency19194:e&#45;&gt;choice1151211154510010111810110847971171161119911111010245504654494511450:w</title>
<path fill="none" stroke="black" stroke-dasharray="1,5" d="M648,-331C741.157,-331 665.347,-506.233 745.964,-519.238"/>
<polygon fill="black" stroke="black" points="756,-520 745.688,-523.73 751.014,-519.622 746.029,-519.243 746.029,-519.243 746.029,-519.243 751.014,-519.622 746.369,-514.756 756,-520 756,-520"/>
</g>
<!-- choice1151211154510010111810110847971171161119911111010245504654504511449 -->
<g id="node6" class="node">
<title>choice1151211154510010111810110847971171161119911111010245504654504511449</title>
<g id="a_node6"><a xlink:href="../sys-devel/autoconf-2.62-r1.svg" xlink:title="sys&#45;devel/autoconf&#45;2.62&#45;r1">
<ellipse fill="none" stroke="red" cx="900" cy="-466" rx="144" ry="18"/>
<text text-anchor="middle" x="900" y="-463" font-family="Helvetica,sans-Serif" font-size="10.00">sys&#45;devel/autoconf&#45;2.62&#45;r1</text>
</a>
</g>
</g>
<!-- dependency19194&#45;&gt;choice1151211154510010111810110847971171161119911111010245504654504511449 -->
<g id="edge5" class="edge">
<title>dependency19194:e&#45;&gt;choice1151211154510010111810110847971171161119911111010245504654504511449:w</title>
<path fill="none" stroke="black" stroke-dasharray="1,5" d="M648,-331C721.236,-331 683.175,-453.64 745.977,-465.138"/>
<polygon fill="black" stroke="black" points="756,-466 745.651,-469.626 751.018,-465.571 746.037,-465.143 746.037,-465.143 746.037,-465.143 751.018,-465.571 746.422,-460.66 756,-466 756,-466"/>
</g>
<!-- choice1151211154510010111810110847971171161119911111010245504654514511449 -->
<g id="node7" class="node">
<title>choice1151211154510010111810110847971171161119911111010245504654514511449</title>
<g id="a_node7"><a xlink:href="../sys-devel/autoconf-2.63-r1.svg" xlink:title="sys&#45;devel/autoconf&#45;2.63&#45;r1">
<ellipse fill="none" stroke="red" cx="900" cy="-412" rx="144" ry="18"/>
<text text-anchor="middle" x="900" y="-409" font-family="Helvetica,sans-Serif" font-size="10.00">sys&#45;devel/autoconf&#45;2.63&#45;r1</text>
</a>
</g>
</g>
<!-- dependency19194&#45;&gt;choice1151211154510010111810110847971171161119911111010245504654514511449 -->
<g id="edge6" class="edge">
<title>dependency19194:e&#45;&gt;choice1151211154510010111810110847971171161119911111010245504654514511449:w</title>
<path fill="none" stroke="black" stroke-dasharray="1,5" d="M648,-331C704.367,-331 697.189,-402.488 745.861,-411.145"/>
<polygon fill="black" stroke="black" points="756,-412 745.657,-415.644 751.018,-411.58 746.035,-411.16 746.035,-411.16 746.035,-411.16 751.018,-411.58 746.413,-406.676 756,-412 756,-412"/>
</g>
<!-- choice115121115451001011181011084797117116111991111101024550465452 -->
<g id="node8" class="node">
<title>choice115121115451001011181011084797117116111991111101024550465452</title>
<g id="a_node8"><a xlink:href="../sys-devel/autoconf-2.64.svg" xlink:title="sys&#45;devel/autoconf&#45;2.64">
<ellipse fill="none" stroke="red" cx="900" cy="-358" rx="144" ry="18"/>
<text text-anchor="middle" x="900" y="-355" font-family="Helvetica,sans-Serif" font-size="10.00">sys&#45;devel/autoconf&#45;2.64</text>
</a>
</g>
</g>
<!-- dependency19194&#45;&gt;choice115121115451001011181011084797117116111991111101024550465452 -->
<g id="edge7" class="edge">
<title>dependency19194:e&#45;&gt;choice115121115451001011181011084797117116111991111101024550465452:w</title>
<path fill="none" stroke="black" stroke-dasharray="1,5" d="M648,-331C693.902,-331 705.004,-354.239 745.876,-357.597"/>
<polygon fill="black" stroke="black" points="756,-358 745.829,-362.099 751.004,-357.801 746.008,-357.603 746.008,-357.603 746.008,-357.603 751.004,-357.801 746.187,-353.106 756,-358 756,-358"/>
</g>
<!-- choice1151211154510010111810110847971171161119911111010245504654534511449 -->
<g id="node9" class="node">
<title>choice1151211154510010111810110847971171161119911111010245504654534511449</title>
<g id="a_node9"><a xlink:href="../sys-devel/autoconf-2.65-r1.svg" xlink:title="sys&#45;devel/autoconf&#45;2.65&#45;r1">
<ellipse fill="none" stroke="red" cx="900" cy="-304" rx="144" ry="18"/>
<text text-anchor="middle" x="900" y="-301" font-family="Helvetica,sans-Serif" font-size="10.00">sys&#45;devel/autoconf&#45;2.65&#45;r1</text>
</a>
</g>
</g>
<!-- dependency19194&#45;&gt;choice1151211154510010111810110847971171161119911111010245504654534511449 -->
<g id="edge8" class="edge">
<title>dependency19194:e&#45;&gt;choice1151211154510010111810110847971171161119911111010245504654534511449:w</title>
<path fill="none" stroke="black" stroke-dasharray="1,5" d="M648,-331C693.902,-331 705.004,-307.761 745.876,-304.403"/>
<polygon fill="black" stroke="black" points="756,-304 746.187,-308.894 751.004,-304.199 746.008,-304.397 746.008,-304.397 746.008,-304.397 751.004,-304.199 745.829,-299.901 756,-304 756,-304"/>
</g>
<!-- choice115121115451001011181011084797117116111991111101024550465455 -->
<g id="node10" class="node">
<title>choice115121115451001011181011084797117116111991111101024550465455</title>
<g id="a_node10"><a xlink:href="../sys-devel/autoconf-2.67.svg" xlink:title="sys&#45;devel/autoconf&#45;2.67">
<ellipse fill="none" stroke="red" cx="900" cy="-250" rx="144" ry="18"/>
<text text-anchor="middle" x="900" y="-247" font-family="Helvetica,sans-Serif" font-size="10.00">sys&#45;devel/autoconf&#45;2.67</text>
</a>
</g>
</g>
<!-- dependency19194&#45;&gt;choice115121115451001011181011084797117116111991111101024550465455 -->
<g id="edge9" class="edge">
<title>dependency19194:e&#45;&gt;choice115121115451001011181011084797117116111991111101024550465455:w</title>
<path fill="none" stroke="black" stroke-dasharray="1,5" d="M648,-331C704.367,-331 697.189,-259.512 745.861,-250.855"/>
<polygon fill="black" stroke="black" points="756,-250 746.413,-255.324 751.018,-250.42 746.035,-250.84 746.035,-250.84 746.035,-250.84 751.018,-250.42 745.657,-246.356 756,-250 756,-250"/>
</g>
<!-- choice115121115451001011181011084797117116111991111101024550465456 -->
<g id="node11" class="node">
<title>choice115121115451001011181011084797117116111991111101024550465456</title>
<g id="a_node11"><a xlink:href="../sys-devel/autoconf-2.68.svg" xlink:title="sys&#45;devel/autoconf&#45;2.68">
<ellipse fill="none" stroke="red" cx="900" cy="-196" rx="144" ry="18"/>
<text text-anchor="middle" x="900" y="-193" font-family="Helvetica,sans-Serif" font-size="10.00">sys&#45;devel/autoconf&#45;2.68</text>
</a>
</g>
</g>
<!-- dependency19194&#45;&gt;choice115121115451001011181011084797117116111991111101024550465456 -->
<g id="edge10" class="edge">
<title>dependency19194:e&#45;&gt;choice115121115451001011181011084797117116111991111101024550465456:w</title>
<path fill="none" stroke="black" stroke-dasharray="1,5" d="M648,-331C721.236,-331 683.175,-208.36 745.977,-196.862"/>
<polygon fill="black" stroke="black" points="756,-196 746.422,-201.34 751.018,-196.429 746.037,-196.857 746.037,-196.857 746.037,-196.857 751.018,-196.429 745.651,-192.374 756,-196 756,-196"/>
</g>
<!-- choice115121115451001011181011084797117116111991111101024550465457 -->
<g id="node12" class="node">
<title>choice115121115451001011181011084797117116111991111101024550465457</title>
<g id="a_node12"><a xlink:href="../sys-devel/autoconf-2.69.svg" xlink:title="sys&#45;devel/autoconf&#45;2.69">
<ellipse fill="none" stroke="red" cx="900" cy="-142" rx="144" ry="18"/>
<text text-anchor="middle" x="900" y="-139" font-family="Helvetica,sans-Serif" font-size="10.00">sys&#45;devel/autoconf&#45;2.69</text>
</a>
</g>
</g>
<!-- dependency19194&#45;&gt;choice115121115451001011181011084797117116111991111101024550465457 -->
<g id="edge11" class="edge">
<title>dependency19194:e&#45;&gt;choice115121115451001011181011084797117116111991111101024550465457:w</title>
<path fill="none" stroke="black" stroke-dasharray="1,5" d="M648,-331C741.157,-331 665.347,-155.767 745.964,-142.762"/>
<polygon fill="black" stroke="black" points="756,-142 746.369,-147.244 751.014,-142.378 746.029,-142.757 746.029,-142.757 746.029,-142.757 751.014,-142.378 745.688,-138.27 756,-142 756,-142"/>
</g>
<!-- choice1151211154510010111810110847971171161119911111010245504654574511452 -->
<g id="node13" class="node">
<title>choice1151211154510010111810110847971171161119911111010245504654574511452</title>
<g id="a_node13"><a xlink:href="../sys-devel/autoconf-2.69-r4.svg" xlink:title="sys&#45;devel/autoconf&#45;2.69&#45;r4">
<ellipse fill="none" stroke="red" cx="900" cy="-88" rx="144" ry="18"/>
<text text-anchor="middle" x="900" y="-85" font-family="Helvetica,sans-Serif" font-size="10.00">sys&#45;devel/autoconf&#45;2.69&#45;r4</text>
</a>
</g>
</g>
<!-- dependency19194&#45;&gt;choice1151211154510010111810110847971171161119911111010245504654574511452 -->
<g id="edge12" class="edge">
<title>dependency19194:e&#45;&gt;choice1151211154510010111810110847971171161119911111010245504654574511452:w</title>
<path fill="none" stroke="black" stroke-dasharray="1,5" d="M648,-331C762.608,-331 645.36,-102.49 745.931,-88.6546"/>
<polygon fill="black" stroke="black" points="756,-88 746.313,-93.1394 751.011,-88.3244 746.021,-88.6488 746.021,-88.6488 746.021,-88.6488 751.011,-88.3244 745.729,-84.1583 756,-88 756,-88"/>
</g>
<!-- choice115121115451001011181011084797117116111991111101024557575757 -->
<g id="node14" class="node">
<title>choice115121115451001011181011084797117116111991111101024557575757</title>
<g id="a_node14"><a xlink:href="../sys-devel/autoconf-9999.svg" xlink:title="sys&#45;devel/autoconf&#45;9999">
<ellipse fill="none" stroke="red" cx="900" cy="-34" rx="144" ry="18"/>
<text text-anchor="middle" x="900" y="-31" font-family="Helvetica,sans-Serif" font-size="10.00">sys&#45;devel/autoconf&#45;9999</text>
</a>
</g>
</g>
<!-- dependency19194&#45;&gt;choice115121115451001011181011084797117116111991111101024557575757 -->
<g id="edge13" class="edge">
<title>dependency19194:e&#45;&gt;choice115121115451001011181011084797117116111991111101024557575757:w</title>
<path fill="none" stroke="black" stroke-dasharray="1,5" d="M648,-331C784.89,-331 624.122,-48.8906 745.897,-34.5647"/>
<polygon fill="black" stroke="black" points="756,-34 746.267,-39.0511 751.008,-34.2791 746.016,-34.5582 746.016,-34.5582 746.016,-34.5582 751.008,-34.2791 745.764,-30.0652 756,-34 756,-34"/>
</g>
</g>
</svg>
