<?xml version="1.0" encoding="UTF-8" standalone="no"?>
<!DOCTYPE svg PUBLIC "-//W3C//DTD SVG 1.1//EN"
 "http://www.w3.org/Graphics/SVG/1.1/DTD/svg11.dtd">
<!-- Generated by graphviz version 2.41.20171026.1811 (20171026.1811)
 -->
<!-- Title: prolog Pages: 1 -->
<svg width="982pt" height="1278pt"
 viewBox="0.00 0.00 982.00 1278.00" xmlns="http://www.w3.org/2000/svg" xmlns:xlink="http://www.w3.org/1999/xlink">
<g id="graph0" class="graph" transform="scale(1 1) rotate(0) translate(4 1274)">
<title>prolog</title>
<polygon fill="white" stroke="transparent" points="-4,4 -4,-1274 978,-1274 978,4 -4,4"/>
<g id="clust14" class="cluster">
<title>cluster_choices</title>
<polygon fill="none" stroke="gray" points="662,-8 662,-1262 966,-1262 966,-8 662,-8"/>
<text text-anchor="start" x="789.82" y="-1251" font-family="Helvetica,sans-Serif" font-style="italic" font-size="10.00">candidates</text>
</g>
<g id="clust1" class="cluster">
<title>cluster_leftcol</title>
<polygon fill="none" stroke="gray" points="8,-687 8,-757 312,-757 312,-687 8,-687"/>
<text text-anchor="start" x="146.66" y="-746" font-family="Helvetica,sans-Serif" font-style="italic" font-size="10.00">ebuild</text>
</g>
<g id="clust2" class="cluster">
<title>cluster_midcol</title>
<polygon fill="none" stroke="gray" points="396,-640 396,-912 578,-912 578,-640 396,-640"/>
<text text-anchor="start" x="455.86" y="-901" font-family="Helvetica,sans-Serif" font-style="italic" font-size="10.00">dependencies</text>
</g>
<g id="clust3" class="cluster">
<title>cluster_compile</title>
<polygon fill="#eeeeee" stroke="gray" points="404,-804 404,-886 570,-886 570,-804 404,-804"/>
<text text-anchor="start" x="469.77" y="-875" font-family="Helvetica,sans-Serif" font-style="italic" font-size="10.00">compile</text>
</g>
<g id="clust6" class="cluster">
<title>cluster_compileandrun</title>
<polygon fill="#eeeeee" stroke="gray" points="404,-648 404,-796 570,-796 570,-648 404,-648"/>
<text text-anchor="start" x="451.42" y="-785" font-family="Helvetica,sans-Serif" font-style="italic" font-size="10.00">compile and run</text>
</g>
<!-- id -->
<g id="node1" class="node">
<title>id</title>
<g id="a_node1"><a xlink:href="../net-libs/libnids-1.24-r6.svg" xlink:title="net&#45;libs/libnids&#45;1.24&#45;r6">
<ellipse fill="none" stroke="red" cx="160" cy="-713" rx="144" ry="18"/>
<text text-anchor="middle" x="160" y="-710" font-family="Helvetica,sans-Serif" font-size="10.00">net&#45;libs/libnids&#45;1.24&#45;r6</text>
</a>
</g>
</g>
<!-- dependency417519 -->
<g id="node2" class="node">
<title>dependency417519</title>
<polygon fill="none" stroke="red" points="420,-816 420,-856 511,-856 511,-816 420,-816"/>
<text text-anchor="start" x="430.75" y="-833" font-family="Helvetica,sans-Serif" font-size="10.00">use_conditional</text>
<polygon fill="none" stroke="red" points="511,-836 511,-856 554,-856 554,-836 511,-836"/>
<text text-anchor="start" x="515.55" y="-843" font-family="Helvetica,sans-Serif" font-size="10.00">positive</text>
<polygon fill="none" stroke="red" points="511,-816 511,-836 554,-836 554,-816 511,-816"/>
<text text-anchor="start" x="524.72" y="-823" font-family="Helvetica,sans-Serif" font-size="10.00">glib</text>
</g>
<!-- id&#45;&gt;dependency417519 -->
<g id="edge2" class="edge">
<title>id:e&#45;&gt;dependency417519:w</title>
<path fill="none" stroke="black" d="M305,-713C373.5,-713 342.44,-823.82 400.83,-835.08"/>
<polygon fill="black" stroke="black" points="411,-836 400.64,-839.58 406.02,-835.55 401.04,-835.1 401.04,-835.1 401.04,-835.1 406.02,-835.55 401.45,-830.62 411,-836 411,-836"/>
</g>
<!-- dependency417521 -->
<g id="node4" class="node">
<title>dependency417521</title>
<polygon fill="none" stroke="red" points="420,-726 420,-766 511,-766 511,-726 420,-726"/>
<text text-anchor="start" x="430.75" y="-743" font-family="Helvetica,sans-Serif" font-size="10.00">use_conditional</text>
<polygon fill="none" stroke="red" points="511,-746 511,-766 554,-766 554,-746 511,-746"/>
<text text-anchor="start" x="515.55" y="-753" font-family="Helvetica,sans-Serif" font-size="10.00">positive</text>
<polygon fill="none" stroke="red" points="511,-726 511,-746 554,-746 554,-726 511,-726"/>
<text text-anchor="start" x="524.72" y="-733" font-family="Helvetica,sans-Serif" font-size="10.00">glib</text>
</g>
<!-- id&#45;&gt;dependency417521 -->
<g id="edge4" class="edge">
<title>id:e&#45;&gt;dependency417521:w</title>
<path fill="none" stroke="black" d="M305,-713C347.6,-713 358.87,-737.59 392.9,-744.32"/>
<ellipse fill="none" stroke="black" cx="407.02" cy="-745.63" rx="4" ry="4"/>
<polygon fill="black" stroke="black" points="403.03,-745.26 392.66,-748.81 398.06,-744.8 393.08,-744.33 393.08,-744.33 393.08,-744.33 398.06,-744.8 393.49,-739.85 403.03,-745.26 403.03,-745.26"/>
</g>
<!-- dependency417523 -->
<g id="node6" class="node">
<title>dependency417523</title>
<polygon fill="none" stroke="red" points="420,-660 420,-700 511,-700 511,-660 420,-660"/>
<text text-anchor="start" x="430.75" y="-677" font-family="Helvetica,sans-Serif" font-size="10.00">use_conditional</text>
<polygon fill="none" stroke="red" points="511,-680 511,-700 554,-700 554,-680 511,-680"/>
<text text-anchor="start" x="515.55" y="-687" font-family="Helvetica,sans-Serif" font-size="10.00">positive</text>
<polygon fill="none" stroke="red" points="511,-660 511,-680 554,-680 554,-660 511,-660"/>
<text text-anchor="start" x="520.55" y="-667" font-family="Helvetica,sans-Serif" font-size="10.00">libnet</text>
</g>
<!-- id&#45;&gt;dependency417523 -->
<g id="edge6" class="edge">
<title>id:e&#45;&gt;dependency417523:w</title>
<path fill="none" stroke="black" d="M305,-713C347.6,-713 358.87,-688.41 392.9,-681.68"/>
<ellipse fill="none" stroke="black" cx="407.02" cy="-680.37" rx="4" ry="4"/>
<polygon fill="black" stroke="black" points="403.03,-680.74 393.49,-686.15 398.06,-681.2 393.08,-681.67 393.08,-681.67 393.08,-681.67 398.06,-681.2 392.66,-677.19 403.03,-680.74 403.03,-680.74"/>
</g>
<!-- dependency417525 -->
<g id="node8" class="node">
<title>dependency417525</title>
<polygon fill="none" stroke="blue" points="704,-190 704,-280 809,-280 809,-190 704,-190"/>
<text text-anchor="start" x="734.82" y="-232" font-family="Helvetica,sans-Serif" font-size="10.00">pack_dep</text>
<polygon fill="none" stroke="blue" points="809,-260 809,-280 919,-280 919,-260 809,-260"/>
<text text-anchor="start" x="858.44" y="-267" font-family="Helvetica,sans-Serif" font-size="10.00">no</text>
<polygon fill="none" stroke="blue" points="809,-240 809,-260 919,-260 919,-240 809,-240"/>
<text text-anchor="start" x="847.88" y="-247" font-family="Helvetica,sans-Serif" font-size="10.00">net&#45;libs</text>
<polygon fill="none" stroke="blue" points="809,-220 809,-240 919,-240 919,-220 809,-220"/>
<text text-anchor="start" x="848.16" y="-227" font-family="Helvetica,sans-Serif" font-size="10.00">libpcap</text>
<polygon fill="none" stroke="blue" points="809,-200 809,-220 919,-220 919,-200 809,-200"/>
<text text-anchor="start" x="852.88" y="-207" font-family="Helvetica,sans-Serif" font-size="10.00">none</text>
<polygon fill="none" stroke="blue" points="809,-190 809,-200 919,-200 919,-190 809,-190"/>
</g>
<!-- id&#45;&gt;dependency417525 -->
<g id="edge7" class="edge">
<title>id:e&#45;&gt;dependency417525:w</title>
<path fill="none" stroke="black" d="M488,-235C558.13,-185.72 597.4,-228.26 676.84,-234.31"/>
<ellipse fill="none" stroke="black" cx="691" cy="-234.85" rx="4" ry="4"/>
<polygon fill="black" stroke="black" points="687.01,-234.7 676.84,-238.81 682.01,-234.51 677.01,-234.32 677.01,-234.32 677.01,-234.32 682.01,-234.51 677.18,-229.82 687.01,-234.7 687.01,-234.7"/>
</g>
<!-- dependency417526 -->
<g id="node9" class="node">
<title>dependency417526</title>
<polygon fill="none" stroke="blue" points="704,-20 704,-110 809,-110 809,-20 704,-20"/>
<text text-anchor="start" x="734.82" y="-62" font-family="Helvetica,sans-Serif" font-size="10.00">pack_dep</text>
<polygon fill="none" stroke="blue" points="809,-90 809,-110 919,-110 919,-90 809,-90"/>
<text text-anchor="start" x="852.33" y="-97" font-family="Helvetica,sans-Serif" font-size="10.00">weak</text>
<polygon fill="none" stroke="blue" points="809,-70 809,-90 919,-90 919,-70 809,-70"/>
<text text-anchor="start" x="847.88" y="-77" font-family="Helvetica,sans-Serif" font-size="10.00">net&#45;libs</text>
<polygon fill="none" stroke="blue" points="809,-50 809,-70 919,-70 919,-50 809,-50"/>
<text text-anchor="start" x="849.83" y="-57" font-family="Helvetica,sans-Serif" font-size="10.00">libnids</text>
<polygon fill="none" stroke="blue" points="809,-30 809,-50 919,-50 919,-30 809,-30"/>
<text text-anchor="start" x="852.88" y="-37" font-family="Helvetica,sans-Serif" font-size="10.00">none</text>
<polygon fill="none" stroke="blue" points="809,-20 809,-30 919,-30 919,-20 809,-20"/>
</g>
<!-- id&#45;&gt;dependency417526 -->
<g id="edge8" class="edge">
<title>id:e&#45;&gt;dependency417526:w</title>
<path fill="none" stroke="black" d="M488,-235C580.17,-170.23 576.66,-75.81 676.89,-65.86"/>
<ellipse fill="none" stroke="black" cx="691" cy="-65.19" rx="4" ry="4"/>
<polygon fill="black" stroke="black" points="687.01,-65.38 677.23,-70.35 682.01,-65.62 677.02,-65.85 677.02,-65.85 677.02,-65.85 682.01,-65.62 676.81,-61.36 687.01,-65.38 687.01,-65.38"/>
<path fill="none" stroke="black" d="M305,-713C418.58,-713 393.07,-300.31 486,-235"/>
</g>
<!-- dependency417520 -->
<g id="node3" class="node">
<title>dependency417520</title>
<polygon fill="none" stroke="blue" points="704,-1088 704,-1178 809,-1178 809,-1088 704,-1088"/>
<text text-anchor="start" x="734.82" y="-1130" font-family="Helvetica,sans-Serif" font-size="10.00">pack_dep</text>
<polygon fill="none" stroke="blue" points="809,-1158 809,-1178 919,-1178 919,-1158 809,-1158"/>
<text text-anchor="start" x="858.44" y="-1165" font-family="Helvetica,sans-Serif" font-size="10.00">no</text>
<polygon fill="none" stroke="blue" points="809,-1138 809,-1158 919,-1158 919,-1138 809,-1138"/>
<text text-anchor="start" x="850.66" y="-1145" font-family="Helvetica,sans-Serif" font-size="10.00">virtual</text>
<polygon fill="none" stroke="blue" points="809,-1118 809,-1138 919,-1138 919,-1118 809,-1118"/>
<text text-anchor="start" x="842.6" y="-1125" font-family="Helvetica,sans-Serif" font-size="10.00">pkgconfig</text>
<polygon fill="none" stroke="blue" points="809,-1098 809,-1118 919,-1118 919,-1098 809,-1098"/>
<text text-anchor="start" x="852.88" y="-1105" font-family="Helvetica,sans-Serif" font-size="10.00">none</text>
<polygon fill="none" stroke="blue" points="809,-1088 809,-1098 919,-1098 919,-1088 809,-1088"/>
</g>
<!-- dependency417519&#45;&gt;dependency417520 -->
<g id="edge1" class="edge">
<title>dependency417519:e&#45;&gt;dependency417520:w</title>
<path fill="none" stroke="black" stroke-dasharray="5,2" d="M563,-836C703.92,-836 558.03,-1118.68 684.95,-1132.48"/>
<polygon fill="black" stroke="black" points="695,-1133 684.78,-1136.97 690.01,-1132.74 685.01,-1132.48 685.01,-1132.48 685.01,-1132.48 690.01,-1132.74 685.25,-1127.99 695,-1133 695,-1133"/>
</g>
<!-- choice11810511411611797108471121071039911111010210510345484511449 -->
<g id="node10" class="node">
<title>choice11810511411611797108471121071039911111010210510345484511449</title>
<g id="a_node10"><a xlink:href="../virtual/pkgconfig-0-r1.svg" xlink:title="virtual/pkgconfig&#45;0&#45;r1">
<ellipse fill="none" stroke="red" cx="814" cy="-1218" rx="144" ry="18"/>
<text text-anchor="middle" x="814" y="-1215" font-family="Helvetica,sans-Serif" font-size="10.00">virtual/pkgconfig&#45;0&#45;r1</text>
</a>
</g>
</g>
<!-- dependency417520&#45;&gt;choice11810511411611797108471121071039911111010210510345484511449 -->
<g id="edge9" class="edge">
<title>dependency417520:e&#45;&gt;choice11810511411611797108471121071039911111010210510345484511449:w</title>
<path fill="none" stroke="black" stroke-dasharray="1,5" d="M664.98,-1208.58C665.95,-1205.46 667.8,-1202.23 670,-1200 711,-1158.46 891.74,-1224.25 932,-1182 947.03,-1166.23 954.78,-1133 933,-1133"/>
<polygon fill="black" stroke="black" points="669,-1218 660.94,-1210.57 667.04,-1213.4 665.07,-1208.8 665.07,-1208.8 665.07,-1208.8 667.04,-1213.4 669.21,-1207.04 669,-1218 669,-1218"/>
</g>
<!-- dependency417522 -->
<g id="node5" class="node">
<title>dependency417522</title>
<polygon fill="none" stroke="blue" points="704,-864 704,-954 809,-954 809,-864 704,-864"/>
<text text-anchor="start" x="734.82" y="-906" font-family="Helvetica,sans-Serif" font-size="10.00">pack_dep</text>
<polygon fill="none" stroke="blue" points="809,-934 809,-954 919,-954 919,-934 809,-934"/>
<text text-anchor="start" x="858.44" y="-941" font-family="Helvetica,sans-Serif" font-size="10.00">no</text>
<polygon fill="none" stroke="blue" points="809,-914 809,-934 919,-934 919,-914 809,-914"/>
<text text-anchor="start" x="846.77" y="-921" font-family="Helvetica,sans-Serif" font-size="10.00">dev&#45;libs</text>
<polygon fill="none" stroke="blue" points="809,-894 809,-914 919,-914 919,-894 809,-894"/>
<text text-anchor="start" x="856.22" y="-901" font-family="Helvetica,sans-Serif" font-size="10.00">glib</text>
<polygon fill="none" stroke="blue" points="809,-874 809,-894 919,-894 919,-874 809,-874"/>
<text text-anchor="start" x="852.88" y="-881" font-family="Helvetica,sans-Serif" font-size="10.00">none</text>
<polygon fill="none" stroke="blue" points="809,-864 809,-874 919,-874 919,-864 809,-864"/>
</g>
<!-- dependency417521&#45;&gt;dependency417522 -->
<g id="edge3" class="edge">
<title>dependency417521:e&#45;&gt;dependency417522:w</title>
<path fill="none" stroke="black" stroke-dasharray="5,2" d="M563,-746C652.58,-746 605.81,-896.51 684.73,-908.27"/>
<polygon fill="black" stroke="black" points="695,-909 684.71,-912.78 690.01,-908.65 685.02,-908.29 685.02,-908.29 685.02,-908.29 690.01,-908.65 685.34,-903.81 695,-909 695,-909"/>
</g>
<!-- choice10010111845108105981154710310810598455046534846514511449 -->
<g id="node11" class="node">
<title>choice10010111845108105981154710310810598455046534846514511449</title>
<g id="a_node11"><a xlink:href="../dev-libs/glib-2.50.3-r1.svg" xlink:title="dev&#45;libs/glib&#45;2.50.3&#45;r1">
<ellipse fill="none" stroke="red" cx="814" cy="-1048" rx="144" ry="18"/>
<text text-anchor="middle" x="814" y="-1045" font-family="Helvetica,sans-Serif" font-size="10.00">dev&#45;libs/glib&#45;2.50.3&#45;r1</text>
</a>
</g>
</g>
<!-- dependency417522&#45;&gt;choice10010111845108105981154710310810598455046534846514511449 -->
<g id="edge10" class="edge">
<title>dependency417522:e&#45;&gt;choice10010111845108105981154710310810598455046534846514511449:w</title>
<path fill="none" stroke="black" stroke-dasharray="1,5" d="M933,-909C954.78,-909 947.3,-942.5 932,-958 907.61,-982.71 641.83,-949 620,-976 597.85,-1003.4 624.55,-1040.57 658.71,-1047.02"/>
<polygon fill="black" stroke="black" points="669,-1048 658.62,-1051.54 664.02,-1047.53 659.04,-1047.06 659.04,-1047.06 659.04,-1047.06 664.02,-1047.53 659.47,-1042.58 669,-1048 669,-1048"/>
</g>
<!-- choice1001011184510810598115471031081059845504653504651 -->
<g id="node12" class="node">
<title>choice1001011184510810598115471031081059845504653504651</title>
<g id="a_node12"><a xlink:href="../dev-libs/glib-2.52.3.svg" xlink:title="dev&#45;libs/glib&#45;2.52.3">
<ellipse fill="none" stroke="red" cx="814" cy="-994" rx="144" ry="18"/>
<text text-anchor="middle" x="814" y="-991" font-family="Helvetica,sans-Serif" font-size="10.00">dev&#45;libs/glib&#45;2.52.3</text>
</a>
</g>
</g>
<!-- dependency417522&#45;&gt;choice1001011184510810598115471031081059845504653504651 -->
<g id="edge11" class="edge">
<title>dependency417522:e&#45;&gt;choice1001011184510810598115471031081059845504653504651:w</title>
<path fill="none" stroke="black" stroke-dasharray="1,5" d="M664.98,-984.58C665.95,-981.46 667.8,-978.23 670,-976 711,-934.46 891.74,-1000.25 932,-958 947.03,-942.23 954.78,-909 933,-909"/>
<polygon fill="black" stroke="black" points="669,-994 660.94,-986.57 667.04,-989.4 665.07,-984.8 665.07,-984.8 665.07,-984.8 667.04,-989.4 669.21,-983.04 669,-994 669,-994"/>
</g>
<!-- dependency417524 -->
<g id="node7" class="node">
<title>dependency417524</title>
<polygon fill="none" stroke="blue" points="704,-468 704,-568 809,-568 809,-468 704,-468"/>
<text text-anchor="start" x="734.82" y="-515" font-family="Helvetica,sans-Serif" font-size="10.00">pack_dep</text>
<polygon fill="none" stroke="blue" points="809,-548 809,-568 919,-568 919,-548 809,-548"/>
<text text-anchor="start" x="858.44" y="-555" font-family="Helvetica,sans-Serif" font-size="10.00">no</text>
<polygon fill="none" stroke="blue" points="809,-528 809,-548 919,-548 919,-528 809,-528"/>
<text text-anchor="start" x="847.88" y="-535" font-family="Helvetica,sans-Serif" font-size="10.00">net&#45;libs</text>
<polygon fill="none" stroke="blue" points="809,-508 809,-528 919,-528 919,-508 809,-508"/>
<text text-anchor="start" x="852.05" y="-515" font-family="Helvetica,sans-Serif" font-size="10.00">libnet</text>
<polygon fill="none" stroke="blue" points="809,-488 809,-508 919,-508 919,-488 809,-488"/>
<text text-anchor="start" x="835.92" y="-495" font-family="Helvetica,sans-Serif" font-size="10.00">greaterequal</text>
<polygon fill="none" stroke="blue" points="809,-468 809,-488 919,-488 919,-468 809,-468"/>
<text text-anchor="start" x="846.77" y="-475" font-family="Helvetica,sans-Serif" font-size="10.00">1.1.0&#45;r3</text>
</g>
<!-- dependency417523&#45;&gt;dependency417524 -->
<g id="edge5" class="edge">
<title>dependency417523:e&#45;&gt;dependency417524:w</title>
<path fill="none" stroke="black" stroke-dasharray="5,2" d="M563,-680C652.25,-680 606.1,-530.41 684.77,-518.72"/>
<polygon fill="black" stroke="black" points="695,-518 685.34,-523.19 690.01,-518.35 685.02,-518.7 685.02,-518.7 685.02,-518.7 690.01,-518.35 684.71,-514.22 695,-518 695,-518"/>
</g>
<!-- choice11010111645108105981154710810598110101116454946484650974511453 -->
<g id="node13" class="node">
<title>choice11010111645108105981154710810598110101116454946484650974511453</title>
<g id="a_node13"><a xlink:href="../net-libs/libnet-1.0.2a-r5.svg" xlink:title="net&#45;libs/libnet&#45;1.0.2a&#45;r5">
<ellipse fill="none" stroke="red" cx="814" cy="-824" rx="144" ry="18"/>
<text text-anchor="middle" x="814" y="-821" font-family="Helvetica,sans-Serif" font-size="10.00">net&#45;libs/libnet&#45;1.0.2a&#45;r5</text>
</a>
</g>
</g>
<!-- dependency417524&#45;&gt;choice11010111645108105981154710810598110101116454946484650974511453 -->
<g id="edge12" class="edge">
<title>dependency417524:e&#45;&gt;choice11010111645108105981154710810598110101116454946484650974511453:w</title>
<path fill="none" stroke="black" stroke-dasharray="1,5" d="M933,-518C957,-518 948.85,-554.9 932,-572 907.63,-596.73 641.83,-563 620,-590 564.68,-658.43 580.26,-709.49 620,-788 630.54,-808.81 639.26,-820.52 658.83,-823.33"/>
<polygon fill="black" stroke="black" points="669,-824 658.73,-827.84 664.01,-823.67 659.02,-823.34 659.02,-823.34 659.02,-823.34 664.01,-823.67 659.32,-818.85 669,-824 669,-824"/>
</g>
<!-- choice11010111645108105981154710810598110101116454946494654 -->
<g id="node14" class="node">
<title>choice11010111645108105981154710810598110101116454946494654</title>
<g id="a_node14"><a xlink:href="../net-libs/libnet-1.1.6.svg" xlink:title="net&#45;libs/libnet&#45;1.1.6">
<ellipse fill="none" stroke="red" cx="814" cy="-770" rx="144" ry="18"/>
<text text-anchor="middle" x="814" y="-767" font-family="Helvetica,sans-Serif" font-size="10.00">net&#45;libs/libnet&#45;1.1.6</text>
</a>
</g>
</g>
<!-- dependency417524&#45;&gt;choice11010111645108105981154710810598110101116454946494654 -->
<g id="edge13" class="edge">
<title>dependency417524:e&#45;&gt;choice11010111645108105981154710810598110101116454946494654:w</title>
<path fill="none" stroke="black" stroke-dasharray="1,5" d="M933,-518C957,-518 948.85,-554.9 932,-572 907.63,-596.73 641.83,-563 620,-590 570.12,-651.71 584.65,-760.17 658.67,-769.37"/>
<polygon fill="black" stroke="black" points="669,-770 658.75,-773.89 664.01,-769.7 659.02,-769.39 659.02,-769.39 659.02,-769.39 664.01,-769.7 659.29,-764.9 669,-770 669,-770"/>
</g>
<!-- choice110101116451081059811547108105981101011164549464946544511449 -->
<g id="node15" class="node">
<title>choice110101116451081059811547108105981101011164549464946544511449</title>
<g id="a_node15"><a xlink:href="../net-libs/libnet-1.1.6-r1.svg" xlink:title="net&#45;libs/libnet&#45;1.1.6&#45;r1">
<ellipse fill="none" stroke="red" cx="814" cy="-716" rx="144" ry="18"/>
<text text-anchor="middle" x="814" y="-713" font-family="Helvetica,sans-Serif" font-size="10.00">net&#45;libs/libnet&#45;1.1.6&#45;r1</text>
</a>
</g>
</g>
<!-- dependency417524&#45;&gt;choice110101116451081059811547108105981101011164549464946544511449 -->
<g id="edge14" class="edge">
<title>dependency417524:e&#45;&gt;choice110101116451081059811547108105981101011164549464946544511449:w</title>
<path fill="none" stroke="black" stroke-dasharray="1,5" d="M933,-518C957,-518 948.85,-554.9 932,-572 907.63,-596.73 641.83,-563 620,-590 584.44,-633.99 606.01,-706.82 658.79,-715.21"/>
<polygon fill="black" stroke="black" points="669,-716 658.68,-719.71 664.02,-715.61 659.03,-715.22 659.03,-715.22 659.03,-715.22 664.02,-715.61 659.38,-710.74 669,-716 669,-716"/>
</g>
<!-- choice1101011164510810598115471081059811010111645494650951149951 -->
<g id="node16" class="node">
<title>choice1101011164510810598115471081059811010111645494650951149951</title>
<g id="a_node16"><a xlink:href="../net-libs/libnet-1.2_rc3.svg" xlink:title="net&#45;libs/libnet&#45;1.2_rc3">
<ellipse fill="none" stroke="red" cx="814" cy="-662" rx="144" ry="18"/>
<text text-anchor="middle" x="814" y="-659" font-family="Helvetica,sans-Serif" font-size="10.00">net&#45;libs/libnet&#45;1.2_rc3</text>
</a>
</g>
</g>
<!-- dependency417524&#45;&gt;choice1101011164510810598115471081059811010111645494650951149951 -->
<g id="edge15" class="edge">
<title>dependency417524:e&#45;&gt;choice1101011164510810598115471081059811010111645494650951149951:w</title>
<path fill="none" stroke="black" stroke-dasharray="1,5" d="M933,-518C957,-518 948.85,-554.9 932,-572 907.63,-596.73 641.83,-563 620,-590 597.85,-617.4 624.55,-654.57 658.71,-661.02"/>
<polygon fill="black" stroke="black" points="669,-662 658.62,-665.54 664.02,-661.53 659.04,-661.06 659.04,-661.06 659.04,-661.06 664.02,-661.53 659.47,-656.58 669,-662 669,-662"/>
</g>
<!-- choice11010111645108105981154710810598110101116454946509511499514511449 -->
<g id="node17" class="node">
<title>choice11010111645108105981154710810598110101116454946509511499514511449</title>
<g id="a_node17"><a xlink:href="../net-libs/libnet-1.2_rc3-r1.svg" xlink:title="net&#45;libs/libnet&#45;1.2_rc3&#45;r1">
<ellipse fill="none" stroke="red" cx="814" cy="-608" rx="144" ry="18"/>
<text text-anchor="middle" x="814" y="-605" font-family="Helvetica,sans-Serif" font-size="10.00">net&#45;libs/libnet&#45;1.2_rc3&#45;r1</text>
</a>
</g>
</g>
<!-- dependency417524&#45;&gt;choice11010111645108105981154710810598110101116454946509511499514511449 -->
<g id="edge16" class="edge">
<title>dependency417524:e&#45;&gt;choice11010111645108105981154710810598110101116454946509511499514511449:w</title>
<path fill="none" stroke="black" stroke-dasharray="1,5" d="M665.05,-598.64C666.02,-595.54 667.86,-592.29 670,-590 714.01,-542.85 770.87,-619.96 814,-572 830.05,-554.15 839,-518 815,-518"/>
<polygon fill="black" stroke="black" points="669,-608 660.96,-600.54 667.05,-603.39 665.11,-598.79 665.11,-598.79 665.11,-598.79 667.05,-603.39 669.25,-597.04 669,-608 669,-608"/>
</g>
<!-- choice110101116451081059811547108105981129997112454946564649 -->
<g id="node18" class="node">
<title>choice110101116451081059811547108105981129997112454946564649</title>
<g id="a_node18"><a xlink:href="../net-libs/libpcap-1.8.1.svg" xlink:title="net&#45;libs/libpcap&#45;1.8.1">
<ellipse fill="none" stroke="red" cx="814" cy="-428" rx="144" ry="18"/>
<text text-anchor="middle" x="814" y="-425" font-family="Helvetica,sans-Serif" font-size="10.00">net&#45;libs/libpcap&#45;1.8.1</text>
</a>
</g>
</g>
<!-- dependency417525&#45;&gt;choice110101116451081059811547108105981129997112454946564649 -->
<g id="edge17" class="edge">
<title>dependency417525:e&#45;&gt;choice110101116451081059811547108105981129997112454946564649:w</title>
<path fill="none" stroke="black" stroke-dasharray="1,5" d="M933,-235C954.78,-235 947.3,-268.5 932,-284 907.61,-308.71 641.83,-275 620,-302 584.44,-345.99 606.01,-418.82 658.79,-427.21"/>
<polygon fill="black" stroke="black" points="669,-428 658.68,-431.71 664.02,-427.61 659.03,-427.22 659.03,-427.22 659.03,-427.22 664.02,-427.61 659.38,-422.74 669,-428 669,-428"/>
</g>
<!-- choice1101011164510810598115471081059811299971124549465646494511449 -->
<g id="node19" class="node">
<title>choice1101011164510810598115471081059811299971124549465646494511449</title>
<g id="a_node19"><a xlink:href="../net-libs/libpcap-1.8.1-r1.svg" xlink:title="net&#45;libs/libpcap&#45;1.8.1&#45;r1">
<ellipse fill="none" stroke="red" cx="814" cy="-374" rx="144" ry="18"/>
<text text-anchor="middle" x="814" y="-371" font-family="Helvetica,sans-Serif" font-size="10.00">net&#45;libs/libpcap&#45;1.8.1&#45;r1</text>
</a>
</g>
</g>
<!-- dependency417525&#45;&gt;choice1101011164510810598115471081059811299971124549465646494511449 -->
<g id="edge18" class="edge">
<title>dependency417525:e&#45;&gt;choice1101011164510810598115471081059811299971124549465646494511449:w</title>
<path fill="none" stroke="black" stroke-dasharray="1,5" d="M933,-235C954.78,-235 947.3,-268.5 932,-284 907.61,-308.71 641.83,-275 620,-302 597.85,-329.4 624.55,-366.57 658.71,-373.02"/>
<polygon fill="black" stroke="black" points="669,-374 658.62,-377.54 664.02,-373.53 659.04,-373.06 659.04,-373.06 659.04,-373.06 664.02,-373.53 659.47,-368.58 669,-374 669,-374"/>
</g>
<!-- choice1101011164510810598115471081059811299971124557575757 -->
<g id="node20" class="node">
<title>choice1101011164510810598115471081059811299971124557575757</title>
<g id="a_node20"><a xlink:href="../net-libs/libpcap-9999.svg" xlink:title="net&#45;libs/libpcap&#45;9999">
<ellipse fill="none" stroke="red" cx="814" cy="-320" rx="144" ry="18"/>
<text text-anchor="middle" x="814" y="-317" font-family="Helvetica,sans-Serif" font-size="10.00">net&#45;libs/libpcap&#45;9999</text>
</a>
</g>
</g>
<!-- dependency417525&#45;&gt;choice1101011164510810598115471081059811299971124557575757 -->
<g id="edge19" class="edge">
<title>dependency417525:e&#45;&gt;choice1101011164510810598115471081059811299971124557575757:w</title>
<path fill="none" stroke="black" stroke-dasharray="1,5" d="M664.98,-310.58C665.95,-307.46 667.8,-304.23 670,-302 711,-260.46 891.74,-326.25 932,-284 947.03,-268.23 954.78,-235 933,-235"/>
<polygon fill="black" stroke="black" points="669,-320 660.94,-312.57 667.04,-315.4 665.07,-310.8 665.07,-310.8 665.07,-310.8 667.04,-315.4 669.21,-309.04 669,-320 669,-320"/>
</g>
<!-- choice1101011164510810598115471081059811010510011545494650524511454 -->
<g id="node21" class="node">
<title>choice1101011164510810598115471081059811010510011545494650524511454</title>
<g id="a_node21"><a xlink:href="../net-libs/libnids-1.24-r6.svg" xlink:title="net&#45;libs/libnids&#45;1.24&#45;r6">
<ellipse fill="none" stroke="red" cx="814" cy="-150" rx="144" ry="18"/>
<text text-anchor="middle" x="814" y="-147" font-family="Helvetica,sans-Serif" font-size="10.00">net&#45;libs/libnids&#45;1.24&#45;r6</text>
</a>
</g>
</g>
<!-- dependency417526&#45;&gt;choice1101011164510810598115471081059811010510011545494650524511454 -->
<g id="edge20" class="edge">
<title>dependency417526:e&#45;&gt;choice1101011164510810598115471081059811010510011545494650524511454:w</title>
<path fill="none" stroke="black" stroke-dasharray="1,5" d="M664.98,-140.58C665.95,-137.46 667.8,-134.23 670,-132 711,-90.46 891.74,-156.25 932,-114 947.03,-98.23 954.78,-65 933,-65"/>
<polygon fill="black" stroke="black" points="669,-150 660.94,-142.57 667.04,-145.4 665.07,-140.8 665.07,-140.8 665.07,-140.8 667.04,-145.4 669.21,-139.04 669,-150 669,-150"/>
</g>
</g>
</svg>
