<?xml version="1.0" encoding="UTF-8" standalone="no"?>
<!DOCTYPE svg PUBLIC "-//W3C//DTD SVG 1.1//EN"
 "http://www.w3.org/Graphics/SVG/1.1/DTD/svg11.dtd">
<!-- Generated by graphviz version 2.44.1 (20200629.0846)
 -->
<!-- Title: prolog Pages: 1 -->
<svg width="1201pt" height="1470pt"
 viewBox="0.00 0.00 1201.00 1470.00" xmlns="http://www.w3.org/2000/svg" xmlns:xlink="http://www.w3.org/1999/xlink">
<g id="graph0" class="graph" transform="scale(1 1) rotate(0) translate(4 1466)">
<title>prolog</title>
<polygon fill="white" stroke="transparent" points="-4,4 -4,-1466 1197,-1466 1197,4 -4,4"/>
<g id="clust22" class="cluster">
<title>cluster_choices</title>
<polygon fill="none" stroke="gray" points="666,-8 666,-946 970,-946 970,-8 666,-8"/>
<text text-anchor="start" x="793.82" y="-934" font-family="Helvetica,sans-Serif" font-style="italic" font-size="10.00">candidates</text>
</g>
<g id="clust1" class="cluster">
<title>cluster_leftcol</title>
<polygon fill="none" stroke="gray" points="8,-1158 8,-1230 312,-1230 312,-1158 8,-1158"/>
<text text-anchor="start" x="146.66" y="-1218" font-family="Helvetica,sans-Serif" font-style="italic" font-size="10.00">ebuild</text>
</g>
<g id="clust2" class="cluster">
<title>cluster_midcol</title>
<polygon fill="none" stroke="gray" points="396,-954 396,-1454 1185,-1454 1185,-954 396,-954"/>
<text text-anchor="start" x="759.38" y="-1442" font-family="Helvetica,sans-Serif" font-style="italic" font-size="10.00">dependencies</text>
</g>
<g id="clust13" class="cluster">
<title>cluster_run</title>
<polygon fill="#eeeeee" stroke="gray" points="404,-1198 404,-1426 1177,-1426 1177,-1198 404,-1198"/>
<text text-anchor="start" x="783.28" y="-1414" font-family="Helvetica,sans-Serif" font-style="italic" font-size="10.00">run</text>
</g>
<g id="clust3" class="cluster">
<title>cluster_compile</title>
<polygon fill="#eeeeee" stroke="gray" points="404,-962 404,-1190 1177,-1190 1177,-962 404,-962"/>
<text text-anchor="start" x="773.28" y="-1178" font-family="Helvetica,sans-Serif" font-style="italic" font-size="10.00">compile</text>
</g>
<!-- id -->
<g id="node1" class="node">
<title>id</title>
<g id="a_node1"><a xlink:href="../net-libs/liboauth-1.0.3-r3.svg" xlink:title="portage://net&#45;libs/liboauth&#45;1.0.3&#45;r3">
<ellipse fill="none" stroke="red" cx="160" cy="-1184" rx="144" ry="18"/>
<text text-anchor="middle" x="160" y="-1181" font-family="Helvetica,sans-Serif" font-size="10.00">portage://net&#45;libs/liboauth&#45;1.0.3&#45;r3</text>
</a>
</g>
</g>
<!-- dependency4280 -->
<g id="node2" class="node">
<title>dependency4280</title>
<polygon fill="none" stroke="red" points="420,-974 420,-1018 511,-1018 511,-974 420,-974"/>
<text text-anchor="start" x="430.77" y="-993" font-family="Helvetica,sans-Serif" font-size="10.00">use_conditional</text>
<polygon fill="none" stroke="red" points="511,-996 511,-1018 558,-1018 558,-996 511,-996"/>
<text text-anchor="start" x="515.6" y="-1004" font-family="Helvetica,sans-Serif" font-size="10.00">negative</text>
<polygon fill="none" stroke="red" points="511,-974 511,-996 558,-996 558,-974 511,-974"/>
<text text-anchor="start" x="526.72" y="-982" font-family="Helvetica,sans-Serif" font-size="10.00">nss</text>
</g>
<!-- id&#45;&gt;dependency4280 -->
<g id="edge4" class="edge">
<title>id:e&#45;&gt;dependency4280:w</title>
<path fill="none" stroke="black" d="M305,-1184C397.17,-1184 321.51,-1010.4 400.57,-996.84"/>
<polygon fill="black" stroke="black" points="411,-996 401.39,-1001.29 406.02,-996.4 401.03,-996.8 401.03,-996.8 401.03,-996.8 406.02,-996.4 400.67,-992.32 411,-996 411,-996"/>
</g>
<!-- dependency4284 -->
<g id="node6" class="node">
<title>dependency4284</title>
<polygon fill="none" stroke="red" points="422,-1044 422,-1088 513,-1088 513,-1044 422,-1044"/>
<text text-anchor="start" x="432.77" y="-1063" font-family="Helvetica,sans-Serif" font-size="10.00">use_conditional</text>
<polygon fill="none" stroke="red" points="513,-1066 513,-1088 556,-1088 556,-1066 513,-1066"/>
<text text-anchor="start" x="517.55" y="-1074" font-family="Helvetica,sans-Serif" font-size="10.00">positive</text>
<polygon fill="none" stroke="red" points="513,-1044 513,-1066 556,-1066 556,-1044 513,-1044"/>
<text text-anchor="start" x="526.45" y="-1052" font-family="Helvetica,sans-Serif" font-size="10.00">curl</text>
</g>
<!-- id&#45;&gt;dependency4284 -->
<g id="edge5" class="edge">
<title>id:e&#45;&gt;dependency4284:w</title>
<path fill="none" stroke="black" d="M305,-1184C372.48,-1184 345.11,-1077.68 402.96,-1066.88"/>
<polygon fill="black" stroke="black" points="413,-1066 403.43,-1071.36 408.02,-1066.44 403.04,-1066.87 403.04,-1066.87 403.04,-1066.87 408.02,-1066.44 402.64,-1062.39 413,-1066 413,-1066"/>
</g>
<!-- dependency4285 -->
<g id="node7" class="node">
<title>dependency4285</title>
<polygon fill="none" stroke="red" points="422,-1114 422,-1158 513,-1158 513,-1114 422,-1114"/>
<text text-anchor="start" x="432.77" y="-1133" font-family="Helvetica,sans-Serif" font-size="10.00">use_conditional</text>
<polygon fill="none" stroke="red" points="513,-1136 513,-1158 556,-1158 556,-1136 513,-1136"/>
<text text-anchor="start" x="517.55" y="-1144" font-family="Helvetica,sans-Serif" font-size="10.00">positive</text>
<polygon fill="none" stroke="red" points="513,-1114 513,-1136 556,-1136 556,-1114 513,-1114"/>
<text text-anchor="start" x="526.72" y="-1122" font-family="Helvetica,sans-Serif" font-size="10.00">nss</text>
</g>
<!-- id&#45;&gt;dependency4285 -->
<g id="edge8" class="edge">
<title>id:e&#45;&gt;dependency4285:w</title>
<path fill="none" stroke="black" d="M305,-1184C353.94,-1184 359.84,-1142.34 402.89,-1136.64"/>
<polygon fill="black" stroke="black" points="413,-1136 403.31,-1141.13 408.01,-1136.32 403.02,-1136.63 403.02,-1136.63 403.02,-1136.63 408.01,-1136.32 402.73,-1132.14 413,-1136 413,-1136"/>
</g>
<!-- dependency4288 -->
<g id="node10" class="node">
<title>dependency4288</title>
<polygon fill="none" stroke="red" points="420,-1210 420,-1254 511,-1254 511,-1210 420,-1210"/>
<text text-anchor="start" x="430.77" y="-1229" font-family="Helvetica,sans-Serif" font-size="10.00">use_conditional</text>
<polygon fill="none" stroke="red" points="511,-1232 511,-1254 558,-1254 558,-1232 511,-1232"/>
<text text-anchor="start" x="515.6" y="-1240" font-family="Helvetica,sans-Serif" font-size="10.00">negative</text>
<polygon fill="none" stroke="red" points="511,-1210 511,-1232 558,-1232 558,-1210 511,-1210"/>
<text text-anchor="start" x="526.72" y="-1218" font-family="Helvetica,sans-Serif" font-size="10.00">nss</text>
</g>
<!-- id&#45;&gt;dependency4288 -->
<g id="edge12" class="edge">
<title>id:e&#45;&gt;dependency4288:w</title>
<path fill="none" stroke="black" d="M305,-1184C353.89,-1184 358.86,-1226.89 402.94,-1231.59"/>
<ellipse fill="none" stroke="black" cx="407.01" cy="-1231.79" rx="4" ry="4"/>
</g>
<!-- dependency4292 -->
<g id="node14" class="node">
<title>dependency4292</title>
<polygon fill="none" stroke="red" points="422,-1280 422,-1324 513,-1324 513,-1280 422,-1280"/>
<text text-anchor="start" x="432.77" y="-1299" font-family="Helvetica,sans-Serif" font-size="10.00">use_conditional</text>
<polygon fill="none" stroke="red" points="513,-1302 513,-1324 556,-1324 556,-1302 513,-1302"/>
<text text-anchor="start" x="517.55" y="-1310" font-family="Helvetica,sans-Serif" font-size="10.00">positive</text>
<polygon fill="none" stroke="red" points="513,-1280 513,-1302 556,-1302 556,-1280 513,-1280"/>
<text text-anchor="start" x="526.45" y="-1288" font-family="Helvetica,sans-Serif" font-size="10.00">curl</text>
</g>
<!-- id&#45;&gt;dependency4292 -->
<g id="edge13" class="edge">
<title>id:e&#45;&gt;dependency4292:w</title>
<path fill="none" stroke="black" d="M305,-1184C373.18,-1184 344.53,-1292.52 404.77,-1301.42"/>
<ellipse fill="none" stroke="black" cx="409.01" cy="-1301.72" rx="4" ry="4"/>
</g>
<!-- dependency4293 -->
<g id="node15" class="node">
<title>dependency4293</title>
<polygon fill="none" stroke="red" points="422,-1350 422,-1394 513,-1394 513,-1350 422,-1350"/>
<text text-anchor="start" x="432.77" y="-1369" font-family="Helvetica,sans-Serif" font-size="10.00">use_conditional</text>
<polygon fill="none" stroke="red" points="513,-1372 513,-1394 556,-1394 556,-1372 513,-1372"/>
<text text-anchor="start" x="517.55" y="-1380" font-family="Helvetica,sans-Serif" font-size="10.00">positive</text>
<polygon fill="none" stroke="red" points="513,-1350 513,-1372 556,-1372 556,-1350 513,-1350"/>
<text text-anchor="start" x="526.72" y="-1358" font-family="Helvetica,sans-Serif" font-size="10.00">nss</text>
</g>
<!-- id&#45;&gt;dependency4293 -->
<g id="edge16" class="edge">
<title>id:e&#45;&gt;dependency4293:w</title>
<path fill="none" stroke="black" d="M305,-1184C398.54,-1184 321.45,-1361.15 404.99,-1371.53"/>
<ellipse fill="none" stroke="black" cx="409.01" cy="-1371.76" rx="4" ry="4"/>
</g>
<!-- dependency4281 -->
<g id="node3" class="node">
<title>dependency4281</title>
<polygon fill="none" stroke="blue" points="708,-20 708,-130 813,-130 813,-20 708,-20"/>
<text text-anchor="start" x="738.82" y="-72" font-family="Helvetica,sans-Serif" font-size="10.00">pack_dep</text>
<polygon fill="none" stroke="blue" points="813,-108 813,-130 923,-130 923,-108 813,-108"/>
<text text-anchor="start" x="862.44" y="-116" font-family="Helvetica,sans-Serif" font-size="10.00">no</text>
<polygon fill="none" stroke="blue" points="813,-86 813,-108 923,-108 923,-86 813,-86"/>
<text text-anchor="start" x="850.78" y="-94" font-family="Helvetica,sans-Serif" font-size="10.00">dev&#45;libs</text>
<polygon fill="none" stroke="blue" points="813,-64 813,-86 923,-86 923,-64 813,-64"/>
<text text-anchor="start" x="850.77" y="-72" font-family="Helvetica,sans-Serif" font-size="10.00">openssl</text>
<polygon fill="none" stroke="blue" points="813,-42 813,-64 923,-64 923,-42 813,-42"/>
<text text-anchor="start" x="839.94" y="-50" font-family="Helvetica,sans-Serif" font-size="10.00">greaterequal</text>
<polygon fill="none" stroke="blue" points="813,-20 813,-42 923,-42 923,-20 813,-20"/>
<text text-anchor="start" x="865.22" y="-28" font-family="Helvetica,sans-Serif" font-size="10.00">3</text>
</g>
<!-- dependency4280&#45;&gt;dependency4281 -->
<g id="edge1" class="edge">
<title>dependency4280:e&#45;&gt;dependency4281:w</title>
<path fill="none" stroke="black" stroke-dasharray="5,2" d="M566,-996C769.26,-996 501.66,-106.21 688.82,-75.8"/>
<polygon fill="black" stroke="black" points="699,-75 689.38,-80.27 694.02,-75.39 689.03,-75.78 689.03,-75.78 689.03,-75.78 694.02,-75.39 688.68,-71.3 699,-75 699,-75"/>
</g>
<!-- dependency4282 -->
<g id="node4" class="node">
<title>dependency4282</title>
<polygon fill="none" stroke="red" points="751,-974 751,-1018 842,-1018 842,-974 751,-974"/>
<text text-anchor="start" x="761.77" y="-993" font-family="Helvetica,sans-Serif" font-size="10.00">use_conditional</text>
<polygon fill="none" stroke="red" points="842,-996 842,-1018 885,-1018 885,-996 842,-996"/>
<text text-anchor="start" x="846.55" y="-1004" font-family="Helvetica,sans-Serif" font-size="10.00">positive</text>
<polygon fill="none" stroke="red" points="842,-974 842,-996 885,-996 885,-974 842,-974"/>
<text text-anchor="start" x="855.45" y="-982" font-family="Helvetica,sans-Serif" font-size="10.00">curl</text>
</g>
<!-- dependency4280&#45;&gt;dependency4282 -->
<g id="edge3" class="edge">
<title>dependency4280:e&#45;&gt;dependency4282:w</title>
<path fill="none" stroke="black" stroke-dasharray="5,2" d="M566,-996C640.71,-996 661.9,-996 731.8,-996"/>
<polygon fill="black" stroke="black" points="742,-996 732,-1000.5 737,-996 732,-996 732,-996 732,-996 737,-996 732,-991.5 742,-996 742,-996"/>
</g>
<!-- choice1001011184510810598115471111121011101151151084549464846501174511449 -->
<g id="node18" class="node">
<title>choice1001011184510810598115471111121011101151151084549464846501174511449</title>
<g id="a_node18"><a xlink:href="../dev-libs/openssl-1.0.2u-r1.svg" xlink:title="portage://dev&#45;libs/openssl&#45;1.0.2u&#45;r1">
<ellipse fill="none" stroke="red" cx="818" cy="-630" rx="144" ry="18"/>
<text text-anchor="middle" x="818" y="-627" font-family="Helvetica,sans-Serif" font-size="10.00">portage://dev&#45;libs/openssl&#45;1.0.2u&#45;r1</text>
</a>
</g>
</g>
<!-- dependency4281&#45;&gt;choice1001011184510810598115471111121011101151151084549464846501174511449 -->
<g id="edge17" class="edge">
<title>dependency4281:e&#45;&gt;choice1001011184510810598115471111121011101151151084549464846501174511449:w</title>
<path fill="none" stroke="black" stroke-dasharray="1,5" d="M937,-75C963.23,-75 954.39,-115.3 936,-134 911.03,-159.39 638.84,-124.68 616,-152 553,-227.35 568.59,-507.98 616,-594 628.71,-617.06 639.96,-627.39 662.85,-629.56"/>
<polygon fill="black" stroke="black" points="673,-630 662.81,-634.06 668,-629.78 663.01,-629.57 663.01,-629.57 663.01,-629.57 668,-629.78 663.2,-625.07 673,-630 673,-630"/>
</g>
<!-- choice100101118451081059811547111112101110115115108454946494649117 -->
<g id="node19" class="node">
<title>choice100101118451081059811547111112101110115115108454946494649117</title>
<g id="a_node19"><a xlink:href="../dev-libs/openssl-1.1.1u.svg" xlink:title="portage://dev&#45;libs/openssl&#45;1.1.1u">
<ellipse fill="none" stroke="red" cx="818" cy="-576" rx="144" ry="18"/>
<text text-anchor="middle" x="818" y="-573" font-family="Helvetica,sans-Serif" font-size="10.00">portage://dev&#45;libs/openssl&#45;1.1.1u</text>
</a>
</g>
</g>
<!-- dependency4281&#45;&gt;choice100101118451081059811547111112101110115115108454946494649117 -->
<g id="edge18" class="edge">
<title>dependency4281:e&#45;&gt;choice100101118451081059811547111112101110115115108454946494649117:w</title>
<path fill="none" stroke="black" stroke-dasharray="1,5" d="M937,-75C963.23,-75 954.39,-115.3 936,-134 911.03,-159.39 638.84,-124.68 616,-152 560.7,-218.15 574.38,-464.49 616,-540 628.71,-563.06 639.96,-573.39 662.85,-575.56"/>
<polygon fill="black" stroke="black" points="673,-576 662.81,-580.06 668,-575.78 663.01,-575.57 663.01,-575.57 663.01,-575.57 668,-575.78 663.2,-571.07 673,-576 673,-576"/>
</g>
<!-- choice100101118451081059811547111112101110115115108454946494649119 -->
<g id="node20" class="node">
<title>choice100101118451081059811547111112101110115115108454946494649119</title>
<g id="a_node20"><a xlink:href="../dev-libs/openssl-1.1.1w.svg" xlink:title="portage://dev&#45;libs/openssl&#45;1.1.1w">
<ellipse fill="none" stroke="red" cx="818" cy="-522" rx="144" ry="18"/>
<text text-anchor="middle" x="818" y="-519" font-family="Helvetica,sans-Serif" font-size="10.00">portage://dev&#45;libs/openssl&#45;1.1.1w</text>
</a>
</g>
</g>
<!-- dependency4281&#45;&gt;choice100101118451081059811547111112101110115115108454946494649119 -->
<g id="edge19" class="edge">
<title>dependency4281:e&#45;&gt;choice100101118451081059811547111112101110115115108454946494649119:w</title>
<path fill="none" stroke="black" stroke-dasharray="1,5" d="M937,-75C963.23,-75 954.39,-115.3 936,-134 911.03,-159.39 638.84,-124.68 616,-152 568.39,-208.94 580.17,-421 616,-486 628.71,-509.06 639.96,-519.39 662.85,-521.56"/>
<polygon fill="black" stroke="black" points="673,-522 662.81,-526.06 668,-521.78 663.01,-521.57 663.01,-521.57 663.01,-521.57 668,-521.78 663.2,-517.07 673,-522 673,-522"/>
</g>
<!-- choice10010111845108105981154711111210111011511510845514648464949 -->
<g id="node21" class="node">
<title>choice10010111845108105981154711111210111011511510845514648464949</title>
<g id="a_node21"><a xlink:href="../dev-libs/openssl-3.0.11.svg" xlink:title="portage://dev&#45;libs/openssl&#45;3.0.11">
<ellipse fill="none" stroke="red" cx="818" cy="-468" rx="144" ry="18"/>
<text text-anchor="middle" x="818" y="-465" font-family="Helvetica,sans-Serif" font-size="10.00">portage://dev&#45;libs/openssl&#45;3.0.11</text>
</a>
</g>
</g>
<!-- dependency4281&#45;&gt;choice10010111845108105981154711111210111011511510845514648464949 -->
<g id="edge20" class="edge">
<title>dependency4281:e&#45;&gt;choice10010111845108105981154711111210111011511510845514648464949:w</title>
<path fill="none" stroke="black" stroke-dasharray="1,5" d="M937,-75C963.23,-75 954.39,-115.3 936,-134 911.03,-159.39 638.84,-124.68 616,-152 576.09,-199.74 585.97,-377.51 616,-432 628.71,-455.06 639.96,-465.39 662.85,-467.56"/>
<polygon fill="black" stroke="black" points="673,-468 662.81,-472.06 668,-467.78 663.01,-467.57 663.01,-467.57 663.01,-467.57 668,-467.78 663.2,-463.07 673,-468 673,-468"/>
</g>
<!-- choice10010111845108105981154711111210111011511510845514648464950 -->
<g id="node22" class="node">
<title>choice10010111845108105981154711111210111011511510845514648464950</title>
<g id="a_node22"><a xlink:href="../dev-libs/openssl-3.0.12.svg" xlink:title="portage://dev&#45;libs/openssl&#45;3.0.12">
<ellipse fill="none" stroke="red" cx="818" cy="-414" rx="144" ry="18"/>
<text text-anchor="middle" x="818" y="-411" font-family="Helvetica,sans-Serif" font-size="10.00">portage://dev&#45;libs/openssl&#45;3.0.12</text>
</a>
</g>
</g>
<!-- dependency4281&#45;&gt;choice10010111845108105981154711111210111011511510845514648464950 -->
<g id="edge21" class="edge">
<title>dependency4281:e&#45;&gt;choice10010111845108105981154711111210111011511510845514648464950:w</title>
<path fill="none" stroke="black" stroke-dasharray="1,5" d="M937,-75C963.23,-75 954.39,-115.3 936,-134 911.03,-159.39 638.84,-124.68 616,-152 541.8,-240.75 553.07,-404.07 662.8,-413.57"/>
<polygon fill="black" stroke="black" points="673,-414 662.82,-418.07 668,-413.79 663.01,-413.58 663.01,-413.58 663.01,-413.58 668,-413.79 663.2,-409.08 673,-414 673,-414"/>
</g>
<!-- choice10010111845108105981154711111210111011511510845514648464951 -->
<g id="node23" class="node">
<title>choice10010111845108105981154711111210111011511510845514648464951</title>
<g id="a_node23"><a xlink:href="../dev-libs/openssl-3.0.13.svg" xlink:title="portage://dev&#45;libs/openssl&#45;3.0.13">
<ellipse fill="none" stroke="red" cx="818" cy="-360" rx="144" ry="18"/>
<text text-anchor="middle" x="818" y="-357" font-family="Helvetica,sans-Serif" font-size="10.00">portage://dev&#45;libs/openssl&#45;3.0.13</text>
</a>
</g>
</g>
<!-- dependency4281&#45;&gt;choice10010111845108105981154711111210111011511510845514648464951 -->
<g id="edge22" class="edge">
<title>dependency4281:e&#45;&gt;choice10010111845108105981154711111210111011511510845514648464951:w</title>
<path fill="none" stroke="black" stroke-dasharray="1,5" d="M937,-75C963.23,-75 954.39,-115.3 936,-134 911.03,-159.39 638.84,-124.68 616,-152 556.74,-222.88 575.62,-350.36 662.9,-359.48"/>
<polygon fill="black" stroke="black" points="673,-360 662.78,-363.98 668.01,-359.74 663.01,-359.49 663.01,-359.49 663.01,-359.49 668.01,-359.74 663.24,-354.99 673,-360 673,-360"/>
</g>
<!-- choice100101118451081059811547111112101110115115108455146494652 -->
<g id="node24" class="node">
<title>choice100101118451081059811547111112101110115115108455146494652</title>
<g id="a_node24"><a xlink:href="../dev-libs/openssl-3.1.4.svg" xlink:title="portage://dev&#45;libs/openssl&#45;3.1.4">
<ellipse fill="none" stroke="red" cx="818" cy="-306" rx="144" ry="18"/>
<text text-anchor="middle" x="818" y="-303" font-family="Helvetica,sans-Serif" font-size="10.00">portage://dev&#45;libs/openssl&#45;3.1.4</text>
</a>
</g>
</g>
<!-- dependency4281&#45;&gt;choice100101118451081059811547111112101110115115108455146494652 -->
<g id="edge23" class="edge">
<title>dependency4281:e&#45;&gt;choice100101118451081059811547111112101110115115108455146494652:w</title>
<path fill="none" stroke="black" stroke-dasharray="1,5" d="M937,-75C963.23,-75 954.39,-115.3 936,-134 911.03,-159.39 638.84,-124.68 616,-152 571.38,-205.37 597.3,-296.9 663.02,-305.37"/>
<polygon fill="black" stroke="black" points="673,-306 662.74,-309.86 668.01,-305.68 663.02,-305.37 663.02,-305.37 663.02,-305.37 668.01,-305.68 663.3,-300.88 673,-306 673,-306"/>
</g>
<!-- choice100101118451081059811547111112101110115115108455146494653 -->
<g id="node25" class="node">
<title>choice100101118451081059811547111112101110115115108455146494653</title>
<g id="a_node25"><a xlink:href="../dev-libs/openssl-3.1.5.svg" xlink:title="portage://dev&#45;libs/openssl&#45;3.1.5">
<ellipse fill="none" stroke="red" cx="818" cy="-900" rx="144" ry="18"/>
<text text-anchor="middle" x="818" y="-897" font-family="Helvetica,sans-Serif" font-size="10.00">portage://dev&#45;libs/openssl&#45;3.1.5</text>
</a>
</g>
</g>
<!-- dependency4281&#45;&gt;choice100101118451081059811547111112101110115115108455146494653 -->
<g id="edge24" class="edge">
<title>dependency4281:e&#45;&gt;choice100101118451081059811547111112101110115115108455146494653:w</title>
<path fill="none" stroke="black" stroke-dasharray="1,5" d="M937,-75C963.23,-75 954.39,-115.3 936,-134 911.03,-159.39 638.84,-124.68 616,-152 565.26,-212.69 577.81,-794.72 616,-864 628.71,-887.06 639.96,-897.39 662.85,-899.56"/>
<polygon fill="black" stroke="black" points="673,-900 662.81,-904.06 668,-899.78 663.01,-899.57 663.01,-899.57 663.01,-899.57 668,-899.78 663.2,-895.07 673,-900 673,-900"/>
</g>
<!-- choice1001011184510810598115471111121011101151151084551464946534511449 -->
<g id="node26" class="node">
<title>choice1001011184510810598115471111121011101151151084551464946534511449</title>
<g id="a_node26"><a xlink:href="../dev-libs/openssl-3.1.5-r1.svg" xlink:title="portage://dev&#45;libs/openssl&#45;3.1.5&#45;r1">
<ellipse fill="none" stroke="red" cx="818" cy="-846" rx="144" ry="18"/>
<text text-anchor="middle" x="818" y="-843" font-family="Helvetica,sans-Serif" font-size="10.00">portage://dev&#45;libs/openssl&#45;3.1.5&#45;r1</text>
</a>
</g>
</g>
<!-- dependency4281&#45;&gt;choice1001011184510810598115471111121011101151151084551464946534511449 -->
<g id="edge25" class="edge">
<title>dependency4281:e&#45;&gt;choice1001011184510810598115471111121011101151151084551464946534511449:w</title>
<path fill="none" stroke="black" stroke-dasharray="1,5" d="M937,-75C963.23,-75 954.39,-115.3 936,-134 911.03,-159.39 638.84,-124.68 616,-152 569.1,-208.09 580.71,-745.97 616,-810 628.71,-833.06 639.96,-843.39 662.85,-845.56"/>
<polygon fill="black" stroke="black" points="673,-846 662.81,-850.06 668,-845.78 663.01,-845.57 663.01,-845.57 663.01,-845.57 668,-845.78 663.2,-841.07 673,-846 673,-846"/>
</g>
<!-- choice100101118451081059811547111112101110115115108455146504648 -->
<g id="node27" class="node">
<title>choice100101118451081059811547111112101110115115108455146504648</title>
<g id="a_node27"><a xlink:href="../dev-libs/openssl-3.2.0.svg" xlink:title="portage://dev&#45;libs/openssl&#45;3.2.0">
<ellipse fill="none" stroke="red" cx="818" cy="-792" rx="144" ry="18"/>
<text text-anchor="middle" x="818" y="-789" font-family="Helvetica,sans-Serif" font-size="10.00">portage://dev&#45;libs/openssl&#45;3.2.0</text>
</a>
</g>
</g>
<!-- dependency4281&#45;&gt;choice100101118451081059811547111112101110115115108455146504648 -->
<g id="edge26" class="edge">
<title>dependency4281:e&#45;&gt;choice100101118451081059811547111112101110115115108455146504648:w</title>
<path fill="none" stroke="black" stroke-dasharray="1,5" d="M937,-75C963.23,-75 954.39,-115.3 936,-134 911.03,-159.39 638.84,-124.68 616,-152 572.95,-203.49 583.61,-697.23 616,-756 628.71,-779.06 639.96,-789.39 662.85,-791.56"/>
<polygon fill="black" stroke="black" points="673,-792 662.81,-796.06 668,-791.78 663.01,-791.57 663.01,-791.57 663.01,-791.57 668,-791.78 663.2,-787.07 673,-792 673,-792"/>
</g>
<!-- choice100101118451081059811547111112101110115115108455146504649 -->
<g id="node28" class="node">
<title>choice100101118451081059811547111112101110115115108455146504649</title>
<g id="a_node28"><a xlink:href="../dev-libs/openssl-3.2.1.svg" xlink:title="portage://dev&#45;libs/openssl&#45;3.2.1">
<ellipse fill="none" stroke="red" cx="818" cy="-738" rx="144" ry="18"/>
<text text-anchor="middle" x="818" y="-735" font-family="Helvetica,sans-Serif" font-size="10.00">portage://dev&#45;libs/openssl&#45;3.2.1</text>
</a>
</g>
</g>
<!-- dependency4281&#45;&gt;choice100101118451081059811547111112101110115115108455146504649 -->
<g id="edge27" class="edge">
<title>dependency4281:e&#45;&gt;choice100101118451081059811547111112101110115115108455146504649:w</title>
<path fill="none" stroke="black" stroke-dasharray="1,5" d="M937,-75C963.23,-75 954.39,-115.3 936,-134 911.03,-159.39 638.84,-124.68 616,-152 576.8,-198.88 586.5,-648.48 616,-702 628.71,-725.06 639.96,-735.39 662.85,-737.56"/>
<polygon fill="black" stroke="black" points="673,-738 662.81,-742.06 668,-737.78 663.01,-737.57 663.01,-737.57 663.01,-737.57 668,-737.78 663.2,-733.07 673,-738 673,-738"/>
</g>
<!-- choice1001011184510810598115471111121011101151151084551465046494511449 -->
<g id="node29" class="node">
<title>choice1001011184510810598115471111121011101151151084551465046494511449</title>
<g id="a_node29"><a xlink:href="../dev-libs/openssl-3.2.1-r1.svg" xlink:title="portage://dev&#45;libs/openssl&#45;3.2.1&#45;r1">
<ellipse fill="none" stroke="red" cx="818" cy="-684" rx="144" ry="18"/>
<text text-anchor="middle" x="818" y="-681" font-family="Helvetica,sans-Serif" font-size="10.00">portage://dev&#45;libs/openssl&#45;3.2.1&#45;r1</text>
</a>
</g>
</g>
<!-- dependency4281&#45;&gt;choice1001011184510810598115471111121011101151151084551465046494511449 -->
<g id="edge28" class="edge">
<title>dependency4281:e&#45;&gt;choice1001011184510810598115471111121011101151151084551465046494511449:w</title>
<path fill="none" stroke="black" stroke-dasharray="1,5" d="M937,-75C963.23,-75 954.39,-115.3 936,-134 911.03,-159.39 638.84,-124.68 616,-152 545.3,-236.56 562.8,-551.47 616,-648 628.71,-671.06 639.96,-681.39 662.85,-683.56"/>
<polygon fill="black" stroke="black" points="673,-684 662.81,-688.06 668,-683.78 663.01,-683.57 663.01,-683.57 663.01,-683.57 668,-683.78 663.2,-679.07 673,-684 673,-684"/>
</g>
<!-- dependency4283 -->
<g id="node5" class="node">
<title>dependency4283</title>
<polygon fill="none" stroke="red" points="1078.5,-979 1078.5,-1013 1161.5,-1013 1161.5,-979 1078.5,-979"/>
<text text-anchor="start" x="1089.43" y="-993" font-family="Helvetica,sans-Serif" font-size="10.00">any_of_group</text>
</g>
<!-- dependency4282&#45;&gt;dependency4283 -->
<g id="edge2" class="edge">
<title>dependency4282:e&#45;&gt;dependency4283:w</title>
<path fill="none" stroke="black" stroke-dasharray="5,2" d="M894,-996C968.71,-996 989.9,-996 1059.8,-996"/>
<polygon fill="black" stroke="black" points="1070,-996 1060,-1000.5 1065,-996 1060,-996 1060,-996 1060,-996 1065,-996 1060,-991.5 1070,-996 1070,-996"/>
</g>
<!-- dependency4286 -->
<g id="node8" class="node">
<title>dependency4286</title>
<polygon fill="none" stroke="red" points="751,-1114 751,-1158 842,-1158 842,-1114 751,-1114"/>
<text text-anchor="start" x="761.77" y="-1133" font-family="Helvetica,sans-Serif" font-size="10.00">use_conditional</text>
<polygon fill="none" stroke="red" points="842,-1136 842,-1158 885,-1158 885,-1136 842,-1136"/>
<text text-anchor="start" x="846.55" y="-1144" font-family="Helvetica,sans-Serif" font-size="10.00">positive</text>
<polygon fill="none" stroke="red" points="842,-1114 842,-1136 885,-1136 885,-1114 842,-1114"/>
<text text-anchor="start" x="855.45" y="-1122" font-family="Helvetica,sans-Serif" font-size="10.00">curl</text>
</g>
<!-- dependency4285&#45;&gt;dependency4286 -->
<g id="edge7" class="edge">
<title>dependency4285:e&#45;&gt;dependency4286:w</title>
<path fill="none" stroke="black" stroke-dasharray="5,2" d="M565,-1136C640.13,-1136 661.45,-1136 731.74,-1136"/>
<polygon fill="black" stroke="black" points="742,-1136 732,-1140.5 737,-1136 732,-1136 732,-1136 732,-1136 737,-1136 732,-1131.5 742,-1136 742,-1136"/>
</g>
<!-- dependency4287 -->
<g id="node9" class="node">
<title>dependency4287</title>
<polygon fill="none" stroke="red" points="1078.5,-1119 1078.5,-1153 1161.5,-1153 1161.5,-1119 1078.5,-1119"/>
<text text-anchor="start" x="1089.43" y="-1133" font-family="Helvetica,sans-Serif" font-size="10.00">any_of_group</text>
</g>
<!-- dependency4286&#45;&gt;dependency4287 -->
<g id="edge6" class="edge">
<title>dependency4286:e&#45;&gt;dependency4287:w</title>
<path fill="none" stroke="black" stroke-dasharray="5,2" d="M894,-1136C968.71,-1136 989.9,-1136 1059.8,-1136"/>
<polygon fill="black" stroke="black" points="1070,-1136 1060,-1140.5 1065,-1136 1060,-1136 1060,-1136 1060,-1136 1065,-1136 1060,-1131.5 1070,-1136 1070,-1136"/>
</g>
<!-- dependency4289 -->
<g id="node11" class="node">
<title>dependency4289</title>
<polygon fill="none" stroke="blue" points="708,-156 708,-266 813,-266 813,-156 708,-156"/>
<text text-anchor="start" x="738.82" y="-208" font-family="Helvetica,sans-Serif" font-size="10.00">pack_dep</text>
<polygon fill="none" stroke="blue" points="813,-244 813,-266 923,-266 923,-244 813,-244"/>
<text text-anchor="start" x="862.44" y="-252" font-family="Helvetica,sans-Serif" font-size="10.00">no</text>
<polygon fill="none" stroke="blue" points="813,-222 813,-244 923,-244 923,-222 813,-222"/>
<text text-anchor="start" x="850.78" y="-230" font-family="Helvetica,sans-Serif" font-size="10.00">dev&#45;libs</text>
<polygon fill="none" stroke="blue" points="813,-200 813,-222 923,-222 923,-200 813,-200"/>
<text text-anchor="start" x="850.77" y="-208" font-family="Helvetica,sans-Serif" font-size="10.00">openssl</text>
<polygon fill="none" stroke="blue" points="813,-178 813,-200 923,-200 923,-178 813,-178"/>
<text text-anchor="start" x="839.94" y="-186" font-family="Helvetica,sans-Serif" font-size="10.00">greaterequal</text>
<polygon fill="none" stroke="blue" points="813,-156 813,-178 923,-178 923,-156 813,-156"/>
<text text-anchor="start" x="865.22" y="-164" font-family="Helvetica,sans-Serif" font-size="10.00">3</text>
</g>
<!-- dependency4288&#45;&gt;dependency4289 -->
<g id="edge9" class="edge">
<title>dependency4288:e&#45;&gt;dependency4289:w</title>
<path fill="none" stroke="black" stroke-dasharray="5,2" d="M566,-1232C791.34,-1232 479.89,-241.68 688.99,-211.69"/>
<polygon fill="black" stroke="black" points="699,-211 689.34,-216.18 694.01,-211.35 689.02,-211.69 689.02,-211.69 689.02,-211.69 694.01,-211.35 688.71,-207.2 699,-211 699,-211"/>
</g>
<!-- dependency4290 -->
<g id="node12" class="node">
<title>dependency4290</title>
<polygon fill="none" stroke="red" points="751,-1210 751,-1254 842,-1254 842,-1210 751,-1210"/>
<text text-anchor="start" x="761.77" y="-1229" font-family="Helvetica,sans-Serif" font-size="10.00">use_conditional</text>
<polygon fill="none" stroke="red" points="842,-1232 842,-1254 885,-1254 885,-1232 842,-1232"/>
<text text-anchor="start" x="846.55" y="-1240" font-family="Helvetica,sans-Serif" font-size="10.00">positive</text>
<polygon fill="none" stroke="red" points="842,-1210 842,-1232 885,-1232 885,-1210 842,-1210"/>
<text text-anchor="start" x="855.45" y="-1218" font-family="Helvetica,sans-Serif" font-size="10.00">curl</text>
</g>
<!-- dependency4288&#45;&gt;dependency4290 -->
<g id="edge11" class="edge">
<title>dependency4288:e&#45;&gt;dependency4290:w</title>
<path fill="none" stroke="black" stroke-dasharray="5,2" d="M566,-1232C640.71,-1232 661.9,-1232 731.8,-1232"/>
<polygon fill="black" stroke="black" points="742,-1232 732,-1236.5 737,-1232 732,-1232 732,-1232 732,-1232 737,-1232 732,-1227.5 742,-1232 742,-1232"/>
</g>
<!-- dependency4289&#45;&gt;choice1001011184510810598115471111121011101151151084549464846501174511449 -->
<g id="edge29" class="edge">
<title>dependency4289:e&#45;&gt;choice1001011184510810598115471111121011101151151084549464846501174511449:w</title>
<path fill="none" stroke="black" stroke-dasharray="1,5" d="M937,-211C963.23,-211 954.39,-251.3 936,-270 911.03,-295.39 638.84,-260.68 616,-288 572.38,-340.17 583.18,-534.45 616,-594 628.71,-617.06 639.96,-627.39 662.85,-629.56"/>
<polygon fill="black" stroke="black" points="673,-630 662.81,-634.06 668,-629.78 663.01,-629.57 663.01,-629.57 663.01,-629.57 668,-629.78 663.2,-625.07 673,-630 673,-630"/>
</g>
<!-- dependency4289&#45;&gt;choice100101118451081059811547111112101110115115108454946494649117 -->
<g id="edge30" class="edge">
<title>dependency4289:e&#45;&gt;choice100101118451081059811547111112101110115115108454946494649117:w</title>
<path fill="none" stroke="black" stroke-dasharray="1,5" d="M937,-211C963.23,-211 954.39,-251.3 936,-270 911.03,-295.39 638.84,-260.68 616,-288 544.16,-373.92 561.94,-441.91 616,-540 628.71,-563.06 639.96,-573.39 662.85,-575.56"/>
<polygon fill="black" stroke="black" points="673,-576 662.81,-580.06 668,-575.78 663.01,-575.57 663.01,-575.57 663.01,-575.57 668,-575.78 663.2,-571.07 673,-576 673,-576"/>
</g>
<!-- dependency4289&#45;&gt;choice100101118451081059811547111112101110115115108454946494649119 -->
<g id="edge31" class="edge">
<title>dependency4289:e&#45;&gt;choice100101118451081059811547111112101110115115108454946494649119:w</title>
<path fill="none" stroke="black" stroke-dasharray="1,5" d="M937,-211C963.23,-211 954.39,-251.3 936,-270 911.03,-295.39 638.84,-260.68 616,-288 549.55,-367.47 564.85,-512.28 662.93,-521.53"/>
<polygon fill="black" stroke="black" points="673,-522 662.8,-526.03 668.01,-521.77 663.01,-521.54 663.01,-521.54 663.01,-521.54 668.01,-521.77 663.22,-517.04 673,-522 673,-522"/>
</g>
<!-- dependency4289&#45;&gt;choice10010111845108105981154711111210111011511510845514648464949 -->
<g id="edge32" class="edge">
<title>dependency4289:e&#45;&gt;choice10010111845108105981154711111210111011511510845514648464949:w</title>
<path fill="none" stroke="black" stroke-dasharray="1,5" d="M937,-211C963.23,-211 954.39,-251.3 936,-270 911.03,-295.39 638.84,-260.68 616,-288 564.38,-349.74 587.01,-458.6 662.96,-467.43"/>
<polygon fill="black" stroke="black" points="673,-468 662.76,-471.92 668.01,-467.72 663.02,-467.43 663.02,-467.43 663.02,-467.43 668.01,-467.72 663.27,-462.94 673,-468 673,-468"/>
</g>
<!-- dependency4289&#45;&gt;choice10010111845108105981154711111210111011511510845514648464950 -->
<g id="edge33" class="edge">
<title>dependency4289:e&#45;&gt;choice10010111845108105981154711111210111011511510845514648464950:w</title>
<path fill="none" stroke="black" stroke-dasharray="1,5" d="M937,-211C963.23,-211 954.39,-251.3 936,-270 911.03,-295.39 638.84,-260.68 616,-288 578.81,-332.48 607.81,-405.17 662.82,-413.26"/>
<polygon fill="black" stroke="black" points="673,-414 662.7,-417.76 668.01,-413.64 663.03,-413.28 663.03,-413.28 663.03,-413.28 668.01,-413.64 663.35,-408.79 673,-414 673,-414"/>
</g>
<!-- dependency4289&#45;&gt;choice10010111845108105981154711111210111011511510845514648464951 -->
<g id="edge34" class="edge">
<title>dependency4289:e&#45;&gt;choice10010111845108105981154711111210111011511510845514648464951:w</title>
<path fill="none" stroke="black" stroke-dasharray="1,5" d="M937,-211C963.23,-211 954.39,-251.3 936,-270 911.03,-295.39 638.84,-260.68 616,-288 591.97,-316.74 625.7,-353.39 662.96,-359.21"/>
<polygon fill="black" stroke="black" points="673,-360 662.68,-363.7 668.02,-359.61 663.03,-359.21 663.03,-359.21 663.03,-359.21 668.02,-359.61 663.39,-354.73 673,-360 673,-360"/>
</g>
<!-- dependency4289&#45;&gt;choice100101118451081059811547111112101110115115108455146494652 -->
<g id="edge35" class="edge">
<title>dependency4289:e&#45;&gt;choice100101118451081059811547111112101110115115108455146494652:w</title>
<path fill="none" stroke="black" stroke-dasharray="1,5" d="M668.98,-296.58C669.95,-293.46 671.8,-290.23 674,-288 715,-246.46 895.81,-312.32 936,-270 954.06,-250.98 963.23,-211 937,-211"/>
<polygon fill="black" stroke="black" points="673,-306 664.94,-298.57 671.04,-301.4 669.07,-296.8 669.07,-296.8 669.07,-296.8 671.04,-301.4 673.21,-295.04 673,-306 673,-306"/>
</g>
<!-- dependency4289&#45;&gt;choice100101118451081059811547111112101110115115108455146494653 -->
<g id="edge36" class="edge">
<title>dependency4289:e&#45;&gt;choice100101118451081059811547111112101110115115108455146494653:w</title>
<path fill="none" stroke="black" stroke-dasharray="1,5" d="M937,-211C963.23,-211 954.39,-251.3 936,-270 911.03,-295.39 638.84,-260.68 616,-288 574.95,-337.1 585.11,-807.95 616,-864 628.71,-887.06 639.96,-897.39 662.85,-899.56"/>
<polygon fill="black" stroke="black" points="673,-900 662.81,-904.06 668,-899.78 663.01,-899.57 663.01,-899.57 663.01,-899.57 668,-899.78 663.2,-895.07 673,-900 673,-900"/>
</g>
<!-- dependency4289&#45;&gt;choice1001011184510810598115471111121011101151151084551464946534511449 -->
<g id="edge37" class="edge">
<title>dependency4289:e&#45;&gt;choice1001011184510810598115471111121011101151151084551464946534511449:w</title>
<path fill="none" stroke="black" stroke-dasharray="1,5" d="M937,-211C963.23,-211 954.39,-251.3 936,-270 911.03,-295.39 638.84,-260.68 616,-288 541.59,-376.99 560.01,-708.41 616,-810 628.71,-833.06 639.96,-843.39 662.85,-845.56"/>
<polygon fill="black" stroke="black" points="673,-846 662.81,-850.06 668,-845.78 663.01,-845.57 663.01,-845.57 663.01,-845.57 668,-845.78 663.2,-841.07 673,-846 673,-846"/>
</g>
<!-- dependency4289&#45;&gt;choice100101118451081059811547111112101110115115108455146504648 -->
<g id="edge38" class="edge">
<title>dependency4289:e&#45;&gt;choice100101118451081059811547111112101110115115108455146504648:w</title>
<path fill="none" stroke="black" stroke-dasharray="1,5" d="M937,-211C963.23,-211 954.39,-251.3 936,-270 911.03,-295.39 638.84,-260.68 616,-288 549.29,-367.79 565.8,-664.92 616,-756 628.71,-779.06 639.96,-789.39 662.85,-791.56"/>
<polygon fill="black" stroke="black" points="673,-792 662.81,-796.06 668,-791.78 663.01,-791.57 663.01,-791.57 663.01,-791.57 668,-791.78 663.2,-787.07 673,-792 673,-792"/>
</g>
<!-- dependency4289&#45;&gt;choice100101118451081059811547111112101110115115108455146504649 -->
<g id="edge39" class="edge">
<title>dependency4289:e&#45;&gt;choice100101118451081059811547111112101110115115108455146504649:w</title>
<path fill="none" stroke="black" stroke-dasharray="1,5" d="M937,-211C963.23,-211 954.39,-251.3 936,-270 911.03,-295.39 638.84,-260.68 616,-288 556.99,-358.58 571.59,-621.43 616,-702 628.71,-725.06 639.96,-735.39 662.85,-737.56"/>
<polygon fill="black" stroke="black" points="673,-738 662.81,-742.06 668,-737.78 663.01,-737.57 663.01,-737.57 663.01,-737.57 668,-737.78 663.2,-733.07 673,-738 673,-738"/>
</g>
<!-- dependency4289&#45;&gt;choice1001011184510810598115471111121011101151151084551465046494511449 -->
<g id="edge40" class="edge">
<title>dependency4289:e&#45;&gt;choice1001011184510810598115471111121011101151151084551465046494511449:w</title>
<path fill="none" stroke="black" stroke-dasharray="1,5" d="M937,-211C963.23,-211 954.39,-251.3 936,-270 911.03,-295.39 638.84,-260.68 616,-288 564.69,-349.37 577.38,-577.94 616,-648 628.71,-671.06 639.96,-681.39 662.85,-683.56"/>
<polygon fill="black" stroke="black" points="673,-684 662.81,-688.06 668,-683.78 663.01,-683.57 663.01,-683.57 663.01,-683.57 668,-683.78 663.2,-679.07 673,-684 673,-684"/>
</g>
<!-- dependency4291 -->
<g id="node13" class="node">
<title>dependency4291</title>
<polygon fill="none" stroke="red" points="1078.5,-1215 1078.5,-1249 1161.5,-1249 1161.5,-1215 1078.5,-1215"/>
<text text-anchor="start" x="1089.43" y="-1229" font-family="Helvetica,sans-Serif" font-size="10.00">any_of_group</text>
</g>
<!-- dependency4290&#45;&gt;dependency4291 -->
<g id="edge10" class="edge">
<title>dependency4290:e&#45;&gt;dependency4291:w</title>
<path fill="none" stroke="black" stroke-dasharray="5,2" d="M894,-1232C968.71,-1232 989.9,-1232 1059.8,-1232"/>
<polygon fill="black" stroke="black" points="1070,-1232 1060,-1236.5 1065,-1232 1060,-1232 1060,-1232 1060,-1232 1065,-1232 1060,-1227.5 1070,-1232 1070,-1232"/>
</g>
<!-- dependency4294 -->
<g id="node16" class="node">
<title>dependency4294</title>
<polygon fill="none" stroke="red" points="751,-1350 751,-1394 842,-1394 842,-1350 751,-1350"/>
<text text-anchor="start" x="761.77" y="-1369" font-family="Helvetica,sans-Serif" font-size="10.00">use_conditional</text>
<polygon fill="none" stroke="red" points="842,-1372 842,-1394 885,-1394 885,-1372 842,-1372"/>
<text text-anchor="start" x="846.55" y="-1380" font-family="Helvetica,sans-Serif" font-size="10.00">positive</text>
<polygon fill="none" stroke="red" points="842,-1350 842,-1372 885,-1372 885,-1350 842,-1350"/>
<text text-anchor="start" x="855.45" y="-1358" font-family="Helvetica,sans-Serif" font-size="10.00">curl</text>
</g>
<!-- dependency4293&#45;&gt;dependency4294 -->
<g id="edge15" class="edge">
<title>dependency4293:e&#45;&gt;dependency4294:w</title>
<path fill="none" stroke="black" stroke-dasharray="5,2" d="M565,-1372C640.13,-1372 661.45,-1372 731.74,-1372"/>
<polygon fill="black" stroke="black" points="742,-1372 732,-1376.5 737,-1372 732,-1372 732,-1372 732,-1372 737,-1372 732,-1367.5 742,-1372 742,-1372"/>
</g>
<!-- dependency4295 -->
<g id="node17" class="node">
<title>dependency4295</title>
<polygon fill="none" stroke="red" points="1078.5,-1355 1078.5,-1389 1161.5,-1389 1161.5,-1355 1078.5,-1355"/>
<text text-anchor="start" x="1089.43" y="-1369" font-family="Helvetica,sans-Serif" font-size="10.00">any_of_group</text>
</g>
<!-- dependency4294&#45;&gt;dependency4295 -->
<g id="edge14" class="edge">
<title>dependency4294:e&#45;&gt;dependency4295:w</title>
<path fill="none" stroke="black" stroke-dasharray="5,2" d="M894,-1372C968.71,-1372 989.9,-1372 1059.8,-1372"/>
<polygon fill="black" stroke="black" points="1070,-1372 1060,-1376.5 1065,-1372 1060,-1372 1060,-1372 1060,-1372 1065,-1372 1060,-1367.5 1070,-1372 1070,-1372"/>
</g>
</g>
</svg>
