<?xml version="1.0" encoding="UTF-8" standalone="no"?>
<!DOCTYPE svg PUBLIC "-//W3C//DTD SVG 1.1//EN"
 "http://www.w3.org/Graphics/SVG/1.1/DTD/svg11.dtd">
<!-- Generated by graphviz version 2.40.1 (20161225.0304)
 -->
<!-- Title: prolog Pages: 1 -->
<svg width="1326pt" height="629pt"
 viewBox="0.00 0.00 1326.00 629.00" xmlns="http://www.w3.org/2000/svg" xmlns:xlink="http://www.w3.org/1999/xlink">
<g id="graph0" class="graph" transform="scale(1 1) rotate(0) translate(4 625)">
<title>prolog</title>
<polygon fill="#ffffff" stroke="transparent" points="-4,4 -4,-625 1322,-625 1322,4 -4,4"/>
<g id="clust1" class="cluster">
<title>cluster_leftcol</title>
<polygon fill="none" stroke="#c0c0c0" points="8,-237 8,-309 312,-309 312,-237 8,-237"/>
<text text-anchor="start" x="146.663" y="-297" font-family="Helvetica,sans-Serif" font-style="italic" font-size="10.00" fill="#000000">ebuild</text>
</g>
<g id="clust2" class="cluster">
<title>cluster_midcol</title>
<polygon fill="none" stroke="#c0c0c0" points="396,-13 396,-613 922,-613 922,-13 396,-13"/>
<text text-anchor="start" x="627.875" y="-601" font-family="Helvetica,sans-Serif" font-style="italic" font-size="10.00" fill="#000000">dependencies</text>
</g>
<g id="clust3" class="cluster">
<title>cluster_compile</title>
<polygon fill="#eeeeee" stroke="#c0c0c0" points="404,-183 404,-585 914,-585 914,-183 404,-183"/>
<text text-anchor="start" x="641.778" y="-573" font-family="Helvetica,sans-Serif" font-style="italic" font-size="10.00" fill="#000000">compile</text>
</g>
<g id="clust9" class="cluster">
<title>cluster_run</title>
<polygon fill="#eeeeee" stroke="#c0c0c0" points="662,-21 662,-175 914,-175 914,-21 662,-21"/>
<text text-anchor="start" x="780.7765" y="-163" font-family="Helvetica,sans-Serif" font-style="italic" font-size="10.00" fill="#000000">run</text>
</g>
<g id="clust11" class="cluster">
<title>cluster_choices</title>
<polygon fill="none" stroke="#c0c0c0" points="1006,-8 1006,-566 1310,-566 1310,-8 1006,-8"/>
<text text-anchor="start" x="1133.824" y="-554" font-family="Helvetica,sans-Serif" font-style="italic" font-size="10.00" fill="#000000">candidates</text>
</g>
<!-- id -->
<g id="node1" class="node">
<title>id</title>
<g id="a_node1"><a xlink:href="../net-libs/libqmi-1.12.6.svg" xlink:title="portage://net&#45;libs/libqmi&#45;1.12.6">
<ellipse fill="none" stroke="#ff0000" cx="160" cy="-263" rx="144" ry="18"/>
<text text-anchor="middle" x="160" y="-260" font-family="Helvetica,sans-Serif" font-size="10.00" fill="#000000">portage://net&#45;libs/libqmi&#45;1.12.6</text>
</a>
</g>
</g>
<!-- dependency25784 -->
<g id="node2" class="node">
<title>dependency25784</title>
<polygon fill="none" stroke="#ff0000" points="420,-339 420,-383 511,-383 511,-339 420,-339"/>
<text text-anchor="start" x="430.7665" y="-358" font-family="Helvetica,sans-Serif" font-size="10.00" fill="#000000">use_conditional</text>
<polygon fill="none" stroke="#ff0000" points="511,-361 511,-383 554,-383 554,-361 511,-361"/>
<text text-anchor="start" x="515.553" y="-369" font-family="Helvetica,sans-Serif" font-size="10.00" fill="#000000">positive</text>
<polygon fill="none" stroke="#ff0000" points="511,-339 511,-361 554,-361 554,-339 511,-339"/>
<text text-anchor="start" x="524.441" y="-347" font-family="Helvetica,sans-Serif" font-size="10.00" fill="#000000">doc</text>
</g>
<!-- id&#45;&gt;dependency25784 -->
<g id="edge2" class="edge">
<title>id:e&#45;&gt;dependency25784:w</title>
<path fill="none" stroke="#000000" d="M304,-263C365.1446,-263 349.3573,-350.2128 401.787,-360.0924"/>
<polygon fill="#000000" stroke="#000000" points="412,-361 401.6409,-364.5971 407.0196,-360.5574 402.0393,-360.1147 402.0393,-360.1147 402.0393,-360.1147 407.0196,-360.5574 402.4376,-355.6324 412,-361 412,-361"/>
</g>
<!-- dependency25786 -->
<g id="node4" class="node">
<title>dependency25786</title>
<polygon fill="none" stroke="#0000ff" points="678,-195 678,-305 783,-305 783,-195 678,-195"/>
<text text-anchor="start" x="708.823" y="-247" font-family="Helvetica,sans-Serif" font-size="10.00" fill="#000000">pack_dep</text>
<polygon fill="none" stroke="#0000ff" points="783,-283 783,-305 893,-305 893,-283 783,-283"/>
<text text-anchor="start" x="832.441" y="-291" font-family="Helvetica,sans-Serif" font-size="10.00" fill="#000000">no</text>
<polygon fill="none" stroke="#0000ff" points="783,-261 783,-283 893,-283 893,-261 783,-261"/>
<text text-anchor="start" x="820.778" y="-269" font-family="Helvetica,sans-Serif" font-size="10.00" fill="#000000">dev&#45;libs</text>
<polygon fill="none" stroke="#0000ff" points="783,-239 783,-261 893,-261 893,-239 783,-239"/>
<text text-anchor="start" x="830.222" y="-247" font-family="Helvetica,sans-Serif" font-size="10.00" fill="#000000">glib</text>
<polygon fill="none" stroke="#0000ff" points="783,-217 783,-239 893,-239 893,-217 783,-217"/>
<text text-anchor="start" x="809.936" y="-225" font-family="Helvetica,sans-Serif" font-size="10.00" fill="#000000">greaterequal</text>
<polygon fill="none" stroke="#0000ff" points="783,-195 783,-217 893,-217 893,-195 783,-195"/>
<text text-anchor="start" x="828.272" y="-203" font-family="Helvetica,sans-Serif" font-size="10.00" fill="#000000">2.32</text>
</g>
<!-- id&#45;&gt;dependency25786 -->
<g id="edge3" class="edge">
<title>id:e&#45;&gt;dependency25786:w</title>
<path fill="none" stroke="#000000" d="M487,-165C520.8989,-164.1682 530.5484,-166.3263 562,-179 611.9504,-199.1279 612.6782,-243.9183 659.9061,-249.4385"/>
<polygon fill="#000000" stroke="#000000" points="670,-250 659.7655,-253.9376 665.0077,-249.7223 660.0154,-249.4445 660.0154,-249.4445 660.0154,-249.4445 665.0077,-249.7223 660.2654,-244.9514 670,-250 670,-250"/>
</g>
<!-- dependency25787 -->
<g id="node5" class="node">
<title>dependency25787</title>
<polygon fill="none" stroke="#0000ff" points="678,-331 678,-429 783,-429 783,-331 678,-331"/>
<text text-anchor="start" x="708.823" y="-377" font-family="Helvetica,sans-Serif" font-size="10.00" fill="#000000">pack_dep</text>
<polygon fill="none" stroke="#0000ff" points="783,-407 783,-429 893,-429 893,-407 783,-407"/>
<text text-anchor="start" x="832.441" y="-415" font-family="Helvetica,sans-Serif" font-size="10.00" fill="#000000">no</text>
<polygon fill="none" stroke="#0000ff" points="783,-385 783,-407 893,-407 893,-385 783,-385"/>
<text text-anchor="start" x="824.668" y="-393" font-family="Helvetica,sans-Serif" font-size="10.00" fill="#000000">virtual</text>
<polygon fill="none" stroke="#0000ff" points="783,-363 783,-385 893,-385 893,-363 783,-363"/>
<text text-anchor="start" x="816.6035" y="-371" font-family="Helvetica,sans-Serif" font-size="10.00" fill="#000000">pkgconfig</text>
<polygon fill="none" stroke="#0000ff" points="783,-341 783,-363 893,-363 893,-341 783,-341"/>
<text text-anchor="start" x="826.882" y="-349" font-family="Helvetica,sans-Serif" font-size="10.00" fill="#000000">none</text>
<polygon fill="none" stroke="#0000ff" points="783,-331 783,-341 893,-341 893,-331 783,-331"/>
</g>
<!-- id&#45;&gt;dependency25787 -->
<g id="edge4" class="edge">
<title>id:e&#45;&gt;dependency25787:w</title>
<path fill="none" stroke="#000000" d="M487,-165C520.8989,-164.1682 534.6234,-158.9913 562,-179 640.997,-236.7365 573.6872,-370.1752 659.9449,-379.4863"/>
<polygon fill="#000000" stroke="#000000" points="670,-380 659.7834,-383.9838 665.0065,-379.7448 660.013,-379.4897 660.013,-379.4897 660.013,-379.4897 665.0065,-379.7448 660.2427,-374.9955 670,-380 670,-380"/>
</g>
<!-- dependency25788 -->
<g id="node6" class="node">
<title>dependency25788</title>
<polygon fill="none" stroke="#0000ff" points="678,-33 678,-143 783,-143 783,-33 678,-33"/>
<text text-anchor="start" x="708.823" y="-85" font-family="Helvetica,sans-Serif" font-size="10.00" fill="#000000">pack_dep</text>
<polygon fill="none" stroke="#0000ff" points="783,-121 783,-143 893,-143 893,-121 783,-121"/>
<text text-anchor="start" x="832.441" y="-129" font-family="Helvetica,sans-Serif" font-size="10.00" fill="#000000">no</text>
<polygon fill="none" stroke="#0000ff" points="783,-99 783,-121 893,-121 893,-99 783,-99"/>
<text text-anchor="start" x="820.778" y="-107" font-family="Helvetica,sans-Serif" font-size="10.00" fill="#000000">dev&#45;libs</text>
<polygon fill="none" stroke="#0000ff" points="783,-77 783,-99 893,-99 893,-77 783,-77"/>
<text text-anchor="start" x="830.222" y="-85" font-family="Helvetica,sans-Serif" font-size="10.00" fill="#000000">glib</text>
<polygon fill="none" stroke="#0000ff" points="783,-55 783,-77 893,-77 893,-55 783,-55"/>
<text text-anchor="start" x="809.936" y="-63" font-family="Helvetica,sans-Serif" font-size="10.00" fill="#000000">greaterequal</text>
<polygon fill="none" stroke="#0000ff" points="783,-33 783,-55 893,-55 893,-33 783,-33"/>
<text text-anchor="start" x="828.272" y="-41" font-family="Helvetica,sans-Serif" font-size="10.00" fill="#000000">2.32</text>
</g>
<!-- id&#45;&gt;dependency25788 -->
<g id="edge5" class="edge">
<title>id:e&#45;&gt;dependency25788:w</title>
<path fill="none" stroke="#000000" d="M487,-165C572.4566,-162.9031 581.2712,-92.6062 661.9619,-88.2147"/>
<ellipse fill="none" stroke="#000000" cx="666.0014" cy="-88.1069" rx="4" ry="4"/>
<path fill="none" stroke="#000000" d="M304,-263C359.3686,-263 346.055,-202.8994 396,-179 432.9119,-161.3371 446.092,-166.0038 487,-165"/>
</g>
<!-- dependency25785 -->
<g id="node3" class="node">
<title>dependency25785</title>
<polygon fill="none" stroke="#0000ff" points="678,-455 678,-553 783,-553 783,-455 678,-455"/>
<text text-anchor="start" x="708.823" y="-501" font-family="Helvetica,sans-Serif" font-size="10.00" fill="#000000">pack_dep</text>
<polygon fill="none" stroke="#0000ff" points="783,-531 783,-553 893,-553 893,-531 783,-531"/>
<text text-anchor="start" x="832.441" y="-539" font-family="Helvetica,sans-Serif" font-size="10.00" fill="#000000">no</text>
<polygon fill="none" stroke="#0000ff" points="783,-509 783,-531 893,-531 893,-509 783,-509"/>
<text text-anchor="start" x="821.8885" y="-517" font-family="Helvetica,sans-Serif" font-size="10.00" fill="#000000">dev&#45;util</text>
<polygon fill="none" stroke="#0000ff" points="783,-487 783,-509 893,-509 893,-487 783,-487"/>
<text text-anchor="start" x="821.6075" y="-495" font-family="Helvetica,sans-Serif" font-size="10.00" fill="#000000">gtk&#45;doc</text>
<polygon fill="none" stroke="#0000ff" points="783,-465 783,-487 893,-487 893,-465 783,-465"/>
<text text-anchor="start" x="826.882" y="-473" font-family="Helvetica,sans-Serif" font-size="10.00" fill="#000000">none</text>
<polygon fill="none" stroke="#0000ff" points="783,-455 783,-465 893,-465 893,-455 783,-455"/>
</g>
<!-- dependency25784&#45;&gt;dependency25785 -->
<g id="edge1" class="edge">
<title>dependency25784:e&#45;&gt;dependency25785:w</title>
<path fill="none" stroke="#000000" stroke-dasharray="5,2" d="M562,-361C637.9115,-361 594.8758,-490.908 659.6361,-503.0868"/>
<polygon fill="#000000" stroke="#000000" points="670,-504 659.6436,-507.6048 665.0193,-503.5611 660.0386,-503.1222 660.0386,-503.1222 660.0386,-503.1222 665.0193,-503.5611 660.4336,-498.6396 670,-504 670,-504"/>
</g>
<!-- choice1001011184511711610510847103116107451001119945494651504511449 -->
<g id="node7" class="node">
<title>choice1001011184511711610510847103116107451001119945494651504511449</title>
<g id="a_node7"><a xlink:href="../dev-util/gtk-doc-1.32-r1.svg" xlink:title="portage://dev&#45;util/gtk&#45;doc&#45;1.32&#45;r1">
<ellipse fill="none" stroke="#ff0000" cx="1158" cy="-520" rx="144" ry="18"/>
<text text-anchor="middle" x="1158" y="-517" font-family="Helvetica,sans-Serif" font-size="10.00" fill="#000000">portage://dev&#45;util/gtk&#45;doc&#45;1.32&#45;r1</text>
</a>
</g>
</g>
<!-- dependency25785&#45;&gt;choice1001011184511711610510847103116107451001119945494651504511449 -->
<g id="edge6" class="edge">
<title>dependency25785:e&#45;&gt;choice1001011184511711610510847103116107451001119945494651504511449:w</title>
<path fill="none" stroke="#000000" stroke-dasharray="1,5" d="M906,-504C950.9225,-504 963.6434,-517.7131 1003.786,-519.7487"/>
<polygon fill="#000000" stroke="#000000" points="1014,-520 1003.8923,-524.2526 1009.0015,-519.877 1004.003,-519.7539 1004.003,-519.7539 1004.003,-519.7539 1009.0015,-519.877 1004.1138,-515.2553 1014,-520 1014,-520"/>
</g>
<!-- choice1001011184511711610510847103116107451001119945494650534511449 -->
<g id="node8" class="node">
<title>choice1001011184511711610510847103116107451001119945494650534511449</title>
<g id="a_node8"><a xlink:href="../dev-util/gtk-doc-1.25-r1.svg" xlink:title="portage://dev&#45;util/gtk&#45;doc&#45;1.25&#45;r1">
<ellipse fill="none" stroke="#ff0000" cx="1158" cy="-466" rx="144" ry="18"/>
<text text-anchor="middle" x="1158" y="-463" font-family="Helvetica,sans-Serif" font-size="10.00" fill="#000000">portage://dev&#45;util/gtk&#45;doc&#45;1.25&#45;r1</text>
</a>
</g>
</g>
<!-- dependency25785&#45;&gt;choice1001011184511711610510847103116107451001119945494650534511449 -->
<g id="edge7" class="edge">
<title>dependency25785:e&#45;&gt;choice1001011184511711610510847103116107451001119945494650534511449:w</title>
<path fill="none" stroke="#000000" stroke-dasharray="1,5" d="M906,-504C953.3067,-504 962.0185,-471.1559 1003.8978,-466.5372"/>
<polygon fill="#000000" stroke="#000000" points="1014,-466 1004.2531,-471.0247 1009.0071,-466.2655 1004.0141,-466.5311 1004.0141,-466.5311 1004.0141,-466.5311 1009.0071,-466.2655 1003.7751,-462.0374 1014,-466 1014,-466"/>
</g>
<!-- choice1001011184510810598115471031081059845504654524649 -->
<g id="node9" class="node">
<title>choice1001011184510810598115471031081059845504654524649</title>
<g id="a_node9"><a xlink:href="../dev-libs/glib-2.64.1.svg" xlink:title="portage://dev&#45;libs/glib&#45;2.64.1">
<ellipse fill="none" stroke="#ff0000" cx="1158" cy="-304" rx="144" ry="18"/>
<text text-anchor="middle" x="1158" y="-301" font-family="Helvetica,sans-Serif" font-size="10.00" fill="#000000">portage://dev&#45;libs/glib&#45;2.64.1</text>
</a>
</g>
</g>
<!-- dependency25786&#45;&gt;choice1001011184510810598115471031081059845504654524649 -->
<g id="edge8" class="edge">
<title>dependency25786:e&#45;&gt;choice1001011184510810598115471031081059845504654524649:w</title>
<path fill="none" stroke="#000000" stroke-dasharray="1,5" d="M906,-250C956.1019,-250 960.0118,-297.0663 1003.9789,-303.3172"/>
<polygon fill="#000000" stroke="#000000" points="1014,-304 1003.7172,-307.8098 1009.0116,-303.6601 1004.0231,-303.3202 1004.0231,-303.3202 1004.0231,-303.3202 1009.0116,-303.6601 1004.3291,-298.8306 1014,-304 1014,-304"/>
</g>
<!-- choice1001011184510810598115471031081059845504654504654 -->
<g id="node10" class="node">
<title>choice1001011184510810598115471031081059845504654504654</title>
<g id="a_node10"><a xlink:href="../dev-libs/glib-2.62.6.svg" xlink:title="portage://dev&#45;libs/glib&#45;2.62.6">
<ellipse fill="none" stroke="#ff0000" cx="1158" cy="-250" rx="144" ry="18"/>
<text text-anchor="middle" x="1158" y="-247" font-family="Helvetica,sans-Serif" font-size="10.00" fill="#000000">portage://dev&#45;libs/glib&#45;2.62.6</text>
</a>
</g>
</g>
<!-- dependency25786&#45;&gt;choice1001011184510810598115471031081059845504654504654 -->
<g id="edge9" class="edge">
<title>dependency25786:e&#45;&gt;choice1001011184510810598115471031081059845504654504654:w</title>
<path fill="none" stroke="#000000" stroke-dasharray="1,5" d="M906,-250C950.4375,-250 964.0204,-250 1003.878,-250"/>
<polygon fill="#000000" stroke="#000000" points="1014,-250 1004,-254.5001 1009,-250 1004,-250.0001 1004,-250.0001 1004,-250.0001 1009,-250 1004,-245.5001 1014,-250 1014,-250"/>
</g>
<!-- choice1001011184510810598115471031081059845504654504653 -->
<g id="node11" class="node">
<title>choice1001011184510810598115471031081059845504654504653</title>
<g id="a_node11"><a xlink:href="../dev-libs/glib-2.62.5.svg" xlink:title="portage://dev&#45;libs/glib&#45;2.62.5">
<ellipse fill="none" stroke="#ff0000" cx="1158" cy="-196" rx="144" ry="18"/>
<text text-anchor="middle" x="1158" y="-193" font-family="Helvetica,sans-Serif" font-size="10.00" fill="#000000">portage://dev&#45;libs/glib&#45;2.62.5</text>
</a>
</g>
</g>
<!-- dependency25786&#45;&gt;choice1001011184510810598115471031081059845504654504653 -->
<g id="edge10" class="edge">
<title>dependency25786:e&#45;&gt;choice1001011184510810598115471031081059845504654504653:w</title>
<path fill="none" stroke="#000000" stroke-dasharray="1,5" d="M906,-250C956.1019,-250 960.0118,-202.9337 1003.9789,-196.6828"/>
<polygon fill="#000000" stroke="#000000" points="1014,-196 1004.3291,-201.1694 1009.0116,-196.3399 1004.0231,-196.6798 1004.0231,-196.6798 1004.0231,-196.6798 1009.0116,-196.3399 1003.7172,-192.1902 1014,-196 1014,-196"/>
</g>
<!-- choice10010111845108105981154710310810598455046544846554511450 -->
<g id="node12" class="node">
<title>choice10010111845108105981154710310810598455046544846554511450</title>
<g id="a_node12"><a xlink:href="../dev-libs/glib-2.60.7-r2.svg" xlink:title="portage://dev&#45;libs/glib&#45;2.60.7&#45;r2">
<ellipse fill="none" stroke="#ff0000" cx="1158" cy="-142" rx="144" ry="18"/>
<text text-anchor="middle" x="1158" y="-139" font-family="Helvetica,sans-Serif" font-size="10.00" fill="#000000">portage://dev&#45;libs/glib&#45;2.60.7&#45;r2</text>
</a>
</g>
</g>
<!-- dependency25786&#45;&gt;choice10010111845108105981154710310810598455046544846554511450 -->
<g id="edge11" class="edge">
<title>dependency25786:e&#45;&gt;choice10010111845108105981154710310810598455046544846554511450:w</title>
<path fill="none" stroke="#000000" stroke-dasharray="1,5" d="M906,-250C970.3025,-250 948.7801,-153.0903 1004.0307,-142.8693"/>
<polygon fill="#000000" stroke="#000000" points="1014,-142 1004.4288,-147.3518 1009.0189,-142.4344 1004.0378,-142.8688 1004.0378,-142.8688 1004.0378,-142.8688 1009.0189,-142.4344 1003.6468,-138.3858 1014,-142 1014,-142"/>
</g>
<!-- choice10010111845108105981154710310810598455046544846554511449 -->
<g id="node13" class="node">
<title>choice10010111845108105981154710310810598455046544846554511449</title>
<g id="a_node13"><a xlink:href="../dev-libs/glib-2.60.7-r1.svg" xlink:title="portage://dev&#45;libs/glib&#45;2.60.7&#45;r1">
<ellipse fill="none" stroke="#ff0000" cx="1158" cy="-88" rx="144" ry="18"/>
<text text-anchor="middle" x="1158" y="-85" font-family="Helvetica,sans-Serif" font-size="10.00" fill="#000000">portage://dev&#45;libs/glib&#45;2.60.7&#45;r1</text>
</a>
</g>
</g>
<!-- dependency25786&#45;&gt;choice10010111845108105981154710310810598455046544846554511449 -->
<g id="edge12" class="edge">
<title>dependency25786:e&#45;&gt;choice10010111845108105981154710310810598455046544846554511449:w</title>
<path fill="none" stroke="#000000" stroke-dasharray="1,5" d="M906,-250C988.815,-250 932.7785,-101.6228 1003.661,-88.8716"/>
<polygon fill="#000000" stroke="#000000" points="1014,-88 1004.4134,-93.3242 1009.0177,-88.4201 1004.0353,-88.8401 1004.0353,-88.8401 1004.0353,-88.8401 1009.0177,-88.4201 1003.6573,-84.356 1014,-88 1014,-88"/>
</g>
<!-- choice1001011184510810598115471031081059845504654484655 -->
<g id="node14" class="node">
<title>choice1001011184510810598115471031081059845504654484655</title>
<g id="a_node14"><a xlink:href="../dev-libs/glib-2.60.7.svg" xlink:title="portage://dev&#45;libs/glib&#45;2.60.7">
<ellipse fill="none" stroke="#ff0000" cx="1158" cy="-34" rx="144" ry="18"/>
<text text-anchor="middle" x="1158" y="-31" font-family="Helvetica,sans-Serif" font-size="10.00" fill="#000000">portage://dev&#45;libs/glib&#45;2.60.7</text>
</a>
</g>
</g>
<!-- dependency25786&#45;&gt;choice1001011184510810598115471031081059845504654484655 -->
<g id="edge13" class="edge">
<title>dependency25786:e&#45;&gt;choice1001011184510810598115471031081059845504654484655:w</title>
<path fill="none" stroke="#000000" stroke-dasharray="1,5" d="M906,-250C1009.7675,-250 913.5159,-48.1056 1004.0009,-34.6986"/>
<polygon fill="#000000" stroke="#000000" points="1014,-34 1004.338,-39.1861 1009.0122,-34.3485 1004.0243,-34.697 1004.0243,-34.697 1004.0243,-34.697 1009.0122,-34.3485 1003.7107,-30.208 1014,-34 1014,-34"/>
</g>
<!-- choice1181051141161179710847112107103991111101021051034549 -->
<g id="node15" class="node">
<title>choice1181051141161179710847112107103991111101021051034549</title>
<g id="a_node15"><a xlink:href="../virtual/pkgconfig-1.svg" xlink:title="portage://virtual/pkgconfig&#45;1">
<ellipse fill="none" stroke="#ff0000" cx="1158" cy="-412" rx="144" ry="18"/>
<text text-anchor="middle" x="1158" y="-409" font-family="Helvetica,sans-Serif" font-size="10.00" fill="#000000">portage://virtual/pkgconfig&#45;1</text>
</a>
</g>
</g>
<!-- dependency25787&#45;&gt;choice1181051141161179710847112107103991111101021051034549 -->
<g id="edge14" class="edge">
<title>dependency25787:e&#45;&gt;choice1181051141161179710847112107103991111101021051034549:w</title>
<path fill="none" stroke="#000000" stroke-dasharray="1,5" d="M906,-380C952.4449,-380 962.5789,-407.5421 1003.7757,-411.5228"/>
<polygon fill="#000000" stroke="#000000" points="1014,-412 1003.801,-416.0288 1009.0054,-411.7668 1004.0109,-411.5337 1004.0109,-411.5337 1004.0109,-411.5337 1009.0054,-411.7668 1004.2207,-407.0386 1014,-412 1014,-412"/>
</g>
<!-- choice11810511411611797108471121071039911111010210510345484511449 -->
<g id="node16" class="node">
<title>choice11810511411611797108471121071039911111010210510345484511449</title>
<g id="a_node16"><a xlink:href="../virtual/pkgconfig-0-r1.svg" xlink:title="portage://virtual/pkgconfig&#45;0&#45;r1">
<ellipse fill="none" stroke="#ff0000" cx="1158" cy="-358" rx="144" ry="18"/>
<text text-anchor="middle" x="1158" y="-355" font-family="Helvetica,sans-Serif" font-size="10.00" fill="#000000">portage://virtual/pkgconfig&#45;0&#45;r1</text>
</a>
</g>
</g>
<!-- dependency25787&#45;&gt;choice11810511411611797108471121071039911111010210510345484511449 -->
<g id="edge15" class="edge">
<title>dependency25787:e&#45;&gt;choice11810511411611797108471121071039911111010210510345484511449:w</title>
<path fill="none" stroke="#000000" stroke-dasharray="1,5" d="M906,-380C951.4458,-380 963.3614,-361.0648 1003.961,-358.3281"/>
<polygon fill="#000000" stroke="#000000" points="1014,-358 1004.1524,-362.8243 1009.0027,-358.1634 1004.0053,-358.3267 1004.0053,-358.3267 1004.0053,-358.3267 1009.0027,-358.1634 1003.8583,-353.8291 1014,-358 1014,-358"/>
</g>
<!-- dependency25788&#45;&gt;choice1001011184510810598115471031081059845504654524649 -->
<g id="edge16" class="edge">
<title>dependency25788:e&#45;&gt;choice1001011184510810598115471031081059845504654524649:w</title>
<path fill="none" stroke="#000000" stroke-dasharray="1,5" d="M906,-88C1009.7675,-88 913.5159,-289.8944 1004.0009,-303.3014"/>
<polygon fill="#000000" stroke="#000000" points="1014,-304 1003.7107,-307.792 1009.0122,-303.6515 1004.0243,-303.303 1004.0243,-303.303 1004.0243,-303.303 1009.0122,-303.6515 1004.338,-298.8139 1014,-304 1014,-304"/>
</g>
<!-- dependency25788&#45;&gt;choice1001011184510810598115471031081059845504654504654 -->
<g id="edge17" class="edge">
<title>dependency25788:e&#45;&gt;choice1001011184510810598115471031081059845504654504654:w</title>
<path fill="none" stroke="#000000" stroke-dasharray="1,5" d="M906,-88C988.815,-88 932.7785,-236.3772 1003.661,-249.1284"/>
<polygon fill="#000000" stroke="#000000" points="1014,-250 1003.6573,-253.644 1009.0177,-249.5799 1004.0353,-249.1599 1004.0353,-249.1599 1004.0353,-249.1599 1009.0177,-249.5799 1004.4134,-244.6758 1014,-250 1014,-250"/>
</g>
<!-- dependency25788&#45;&gt;choice1001011184510810598115471031081059845504654504653 -->
<g id="edge18" class="edge">
<title>dependency25788:e&#45;&gt;choice1001011184510810598115471031081059845504654504653:w</title>
<path fill="none" stroke="#000000" stroke-dasharray="1,5" d="M906,-88C970.3025,-88 948.7801,-184.9097 1004.0307,-195.1307"/>
<polygon fill="#000000" stroke="#000000" points="1014,-196 1003.6468,-199.6142 1009.0189,-195.5656 1004.0378,-195.1312 1004.0378,-195.1312 1004.0378,-195.1312 1009.0189,-195.5656 1004.4288,-190.6482 1014,-196 1014,-196"/>
</g>
<!-- dependency25788&#45;&gt;choice10010111845108105981154710310810598455046544846554511450 -->
<g id="edge19" class="edge">
<title>dependency25788:e&#45;&gt;choice10010111845108105981154710310810598455046544846554511450:w</title>
<path fill="none" stroke="#000000" stroke-dasharray="1,5" d="M906,-88C956.1019,-88 960.0118,-135.0663 1003.9789,-141.3172"/>
<polygon fill="#000000" stroke="#000000" points="1014,-142 1003.7172,-145.8098 1009.0116,-141.6601 1004.0231,-141.3202 1004.0231,-141.3202 1004.0231,-141.3202 1009.0116,-141.6601 1004.3291,-136.8306 1014,-142 1014,-142"/>
</g>
<!-- dependency25788&#45;&gt;choice10010111845108105981154710310810598455046544846554511449 -->
<g id="edge20" class="edge">
<title>dependency25788:e&#45;&gt;choice10010111845108105981154710310810598455046544846554511449:w</title>
<path fill="none" stroke="#000000" stroke-dasharray="1,5" d="M906,-88C950.4375,-88 964.0204,-88 1003.878,-88"/>
<polygon fill="#000000" stroke="#000000" points="1014,-88 1004,-92.5001 1009,-88 1004,-88.0001 1004,-88.0001 1004,-88.0001 1009,-88 1004,-83.5001 1014,-88 1014,-88"/>
</g>
<!-- dependency25788&#45;&gt;choice1001011184510810598115471031081059845504654484655 -->
<g id="edge21" class="edge">
<title>dependency25788:e&#45;&gt;choice1001011184510810598115471031081059845504654484655:w</title>
<path fill="none" stroke="#000000" stroke-dasharray="1,5" d="M906,-88C956.1019,-88 960.0118,-40.9337 1003.9789,-34.6828"/>
<polygon fill="#000000" stroke="#000000" points="1014,-34 1004.3291,-39.1694 1009.0116,-34.3399 1004.0231,-34.6798 1004.0231,-34.6798 1004.0231,-34.6798 1009.0116,-34.3399 1003.7172,-30.1902 1014,-34 1014,-34"/>
</g>
</g>
</svg>
