<?xml version="1.0" encoding="UTF-8" standalone="no"?>
<!DOCTYPE svg PUBLIC "-//W3C//DTD SVG 1.1//EN"
 "http://www.w3.org/Graphics/SVG/1.1/DTD/svg11.dtd">
<!-- Generated by graphviz version 9.0.0 (20230911.1827)
 -->
<!-- Title: prolog Pages: 1 -->
<svg width="726pt" height="1471pt"
 viewBox="0.00 0.00 725.64 1471.00" xmlns="http://www.w3.org/2000/svg" xmlns:xlink="http://www.w3.org/1999/xlink">
<g id="graph0" class="graph" transform="scale(1 1) rotate(0) translate(4 1467)">
<title>prolog</title>
<polygon fill="white" stroke="none" points="-4,4 -4,-1467 721.64,-1467 721.64,4 -4,4"/>
<g id="clust14" class="cluster">
<title>cluster_choices</title>
<polygon fill="none" stroke="gray" points="405.64,-8 405.64,-1455 709.64,-1455 709.64,-8 405.64,-8"/>
<text text-anchor="start" x="534.01" y="-1442.5" font-family="Helvetica,sans-Serif" font-style="italic" font-size="10.00">candidates</text>
</g>
<g id="clust1" class="cluster">
<title>cluster_leftcol</title>
<polygon fill="none" stroke="gray" points="8,-505 8,-576 313.64,-576 313.64,-505 8,-505"/>
<text text-anchor="start" x="148.07" y="-563.5" font-family="Helvetica,sans-Serif" font-style="italic" font-size="10.00">ebuild</text>
</g>
<!-- id -->
<g id="node1" class="node">
<title>id</title>
<g id="a_node1"><a xlink:href="../media-plugins/gst-plugins-wavpack-1.22.11.svg" xlink:title="portage://media&#45;plugins/gst&#45;plugins&#45;wavpack&#45;1.22.11">
<ellipse fill="none" stroke="red" cx="160.82" cy="-531" rx="144.82" ry="18"/>
<text text-anchor="middle" x="160.82" y="-527.12" font-family="Helvetica,sans-Serif" font-size="10.00">portage://media&#45;plugins/gst&#45;plugins&#45;wavpack&#45;1.22.11</text>
</a>
</g>
</g>
<!-- dependency307217 -->
<g id="node2" class="node">
<title>dependency307217</title>
<polygon fill="none" stroke="blue" points="447.64,-1102.5 447.64,-1207.5 551.64,-1207.5 551.64,-1102.5 447.64,-1102.5"/>
<text text-anchor="start" x="478.64" y="-1151.12" font-family="Helvetica,sans-Serif" font-size="10.00">pack_dep</text>
<polygon fill="none" stroke="blue" points="551.64,-1186.5 551.64,-1207.5 661.64,-1207.5 661.64,-1186.5 551.64,-1186.5"/>
<text text-anchor="start" x="593.89" y="-1193" font-family="Helvetica,sans-Serif" font-size="10.00">install</text>
<polygon fill="none" stroke="blue" points="551.64,-1165.5 551.64,-1186.5 661.64,-1186.5 661.64,-1165.5 551.64,-1165.5"/>
<text text-anchor="start" x="589.76" y="-1172" font-family="Helvetica,sans-Serif" font-size="10.00">dev&#45;libs</text>
<polygon fill="none" stroke="blue" points="551.64,-1144.5 551.64,-1165.5 661.64,-1165.5 661.64,-1144.5 551.64,-1144.5"/>
<text text-anchor="start" x="599.14" y="-1151" font-family="Helvetica,sans-Serif" font-size="10.00">glib</text>
<polygon fill="none" stroke="blue" points="551.64,-1123.5 551.64,-1144.5 661.64,-1144.5 661.64,-1123.5 551.64,-1123.5"/>
<text text-anchor="start" x="580.01" y="-1130" font-family="Helvetica,sans-Serif" font-size="10.00">greaterequal</text>
<polygon fill="none" stroke="blue" points="551.64,-1102.5 551.64,-1123.5 661.64,-1123.5 661.64,-1102.5 551.64,-1102.5"/>
<text text-anchor="start" x="572.14" y="-1109" font-family="Helvetica,sans-Serif" font-size="10.00">[2.40.0,,,2.40.0]</text>
</g>
<!-- id&#45;&gt;dependency307217 -->
<g id="edge1" class="edge">
<title>id:e&#45;&gt;dependency307217:w</title>
<path fill="none" stroke="black" d="M306.82,-531C444.67,-531 304.98,-1121.34 427.66,-1153.63"/>
<polygon fill="black" stroke="black" points="437.43,-1154.85 426.94,-1158.07 433.67,-1154.38 427.5,-1153.61 427.5,-1153.61 427.5,-1153.61 433.67,-1154.38 428.06,-1149.14 437.43,-1154.85"/>
</g>
<!-- dependency307218 -->
<g id="node3" class="node">
<title>dependency307218</title>
<polygon fill="none" stroke="blue" points="447.64,-916.5 447.64,-1021.5 551.64,-1021.5 551.64,-916.5 447.64,-916.5"/>
<text text-anchor="start" x="478.64" y="-965.12" font-family="Helvetica,sans-Serif" font-size="10.00">pack_dep</text>
<polygon fill="none" stroke="blue" points="551.64,-1000.5 551.64,-1021.5 661.64,-1021.5 661.64,-1000.5 551.64,-1000.5"/>
<text text-anchor="start" x="593.89" y="-1007" font-family="Helvetica,sans-Serif" font-size="10.00">install</text>
<polygon fill="none" stroke="blue" points="551.64,-979.5 551.64,-1000.5 661.64,-1000.5 661.64,-979.5 551.64,-979.5"/>
<text text-anchor="start" x="584.51" y="-986" font-family="Helvetica,sans-Serif" font-size="10.00">media&#45;libs</text>
<polygon fill="none" stroke="blue" points="551.64,-958.5 551.64,-979.5 661.64,-979.5 661.64,-958.5 551.64,-958.5"/>
<text text-anchor="start" x="571.01" y="-965" font-family="Helvetica,sans-Serif" font-size="10.00">gst&#45;plugins&#45;good</text>
<polygon fill="none" stroke="blue" points="551.64,-937.5 551.64,-958.5 661.64,-958.5 661.64,-937.5 551.64,-937.5"/>
<text text-anchor="start" x="580.01" y="-944" font-family="Helvetica,sans-Serif" font-size="10.00">greaterequal</text>
<polygon fill="none" stroke="blue" points="551.64,-916.5 551.64,-937.5 661.64,-937.5 661.64,-916.5 551.64,-916.5"/>
<text text-anchor="start" x="566.89" y="-923" font-family="Helvetica,sans-Serif" font-size="10.00">[1.22.11,,,1.22.11]</text>
</g>
<!-- id&#45;&gt;dependency307218 -->
<g id="edge2" class="edge">
<title>id:e&#45;&gt;dependency307218:w</title>
<path fill="none" stroke="black" d="M306.82,-531C506.24,-531 245.64,-952.48 427.54,-968.53"/>
<polygon fill="black" stroke="black" points="437.42,-968.95 427.24,-973.02 433.64,-968.79 427.43,-968.52 427.43,-968.52 427.43,-968.52 433.64,-968.79 427.62,-964.03 437.42,-968.95"/>
</g>
<!-- dependency307219 -->
<g id="node4" class="node">
<title>dependency307219</title>
<polygon fill="none" stroke="blue" points="447.64,-730.5 447.64,-835.5 551.64,-835.5 551.64,-730.5 447.64,-730.5"/>
<text text-anchor="start" x="478.64" y="-779.12" font-family="Helvetica,sans-Serif" font-size="10.00">pack_dep</text>
<polygon fill="none" stroke="blue" points="551.64,-814.5 551.64,-835.5 661.64,-835.5 661.64,-814.5 551.64,-814.5"/>
<text text-anchor="start" x="593.89" y="-821" font-family="Helvetica,sans-Serif" font-size="10.00">install</text>
<polygon fill="none" stroke="blue" points="551.64,-793.5 551.64,-814.5 661.64,-814.5 661.64,-793.5 551.64,-793.5"/>
<text text-anchor="start" x="584.51" y="-800" font-family="Helvetica,sans-Serif" font-size="10.00">media&#45;libs</text>
<polygon fill="none" stroke="blue" points="551.64,-772.5 551.64,-793.5 661.64,-793.5 661.64,-772.5 551.64,-772.5"/>
<text text-anchor="start" x="584.89" y="-779" font-family="Helvetica,sans-Serif" font-size="10.00">gstreamer</text>
<polygon fill="none" stroke="blue" points="551.64,-751.5 551.64,-772.5 661.64,-772.5 661.64,-751.5 551.64,-751.5"/>
<text text-anchor="start" x="580.01" y="-758" font-family="Helvetica,sans-Serif" font-size="10.00">greaterequal</text>
<polygon fill="none" stroke="blue" points="551.64,-730.5 551.64,-751.5 661.64,-751.5 661.64,-730.5 551.64,-730.5"/>
<text text-anchor="start" x="580.39" y="-737" font-family="Helvetica,sans-Serif" font-size="10.00">[1.22,,,1.22]</text>
</g>
<!-- id&#45;&gt;dependency307219 -->
<g id="edge3" class="edge">
<title>id:e&#45;&gt;dependency307219:w</title>
<path fill="none" stroke="black" d="M306.82,-531C429.27,-531 319.56,-767.5 427.5,-782.28"/>
<polygon fill="black" stroke="black" points="437.42,-782.92 427.15,-786.76 433.65,-782.68 427.44,-782.27 427.44,-782.27 427.44,-782.27 433.65,-782.68 427.73,-777.78 437.42,-782.92"/>
</g>
<!-- dependency307220 -->
<g id="node5" class="node">
<title>dependency307220</title>
<polygon fill="none" stroke="blue" points="447.64,-544.5 447.64,-649.5 551.64,-649.5 551.64,-544.5 447.64,-544.5"/>
<text text-anchor="start" x="478.64" y="-593.12" font-family="Helvetica,sans-Serif" font-size="10.00">pack_dep</text>
<polygon fill="none" stroke="blue" points="551.64,-628.5 551.64,-649.5 661.64,-649.5 661.64,-628.5 551.64,-628.5"/>
<text text-anchor="start" x="593.89" y="-635" font-family="Helvetica,sans-Serif" font-size="10.00">install</text>
<polygon fill="none" stroke="blue" points="551.64,-607.5 551.64,-628.5 661.64,-628.5 661.64,-607.5 551.64,-607.5"/>
<text text-anchor="start" x="578.89" y="-614" font-family="Helvetica,sans-Serif" font-size="10.00">media&#45;sound</text>
<polygon fill="none" stroke="blue" points="551.64,-586.5 551.64,-607.5 661.64,-607.5 661.64,-586.5 551.64,-586.5"/>
<text text-anchor="start" x="587.14" y="-593" font-family="Helvetica,sans-Serif" font-size="10.00">wavpack</text>
<polygon fill="none" stroke="blue" points="551.64,-565.5 551.64,-586.5 661.64,-586.5 661.64,-565.5 551.64,-565.5"/>
<text text-anchor="start" x="580.01" y="-572" font-family="Helvetica,sans-Serif" font-size="10.00">greaterequal</text>
<polygon fill="none" stroke="blue" points="551.64,-544.5 551.64,-565.5 661.64,-565.5 661.64,-544.5 551.64,-544.5"/>
<text text-anchor="start" x="560.89" y="-551" font-family="Helvetica,sans-Serif" font-size="10.00">[4.60.1,,&#45;r1,4.60.1&#45;r1]</text>
</g>
<!-- id&#45;&gt;dependency307220 -->
<g id="edge4" class="edge">
<title>id:e&#45;&gt;dependency307220:w</title>
<path fill="none" stroke="black" d="M306.82,-531C368.5,-531 372.8,-589.49 427.76,-596.35"/>
<polygon fill="black" stroke="black" points="437.42,-596.93 427.17,-600.82 433.64,-596.7 427.44,-596.33 427.44,-596.33 427.44,-596.33 433.64,-596.7 427.71,-591.84 437.42,-596.93"/>
</g>
<!-- dependency307221 -->
<g id="node6" class="node">
<title>dependency307221</title>
<polygon fill="none" stroke="blue" points="447.64,-413.5 447.64,-518.5 551.64,-518.5 551.64,-413.5 447.64,-413.5"/>
<text text-anchor="start" x="478.64" y="-462.12" font-family="Helvetica,sans-Serif" font-size="10.00">pack_dep</text>
<polygon fill="none" stroke="blue" points="551.64,-497.5 551.64,-518.5 661.64,-518.5 661.64,-497.5 551.64,-497.5"/>
<text text-anchor="start" x="599.89" y="-504" font-family="Helvetica,sans-Serif" font-size="10.00">run</text>
<polygon fill="none" stroke="blue" points="551.64,-476.5 551.64,-497.5 661.64,-497.5 661.64,-476.5 551.64,-476.5"/>
<text text-anchor="start" x="589.76" y="-483" font-family="Helvetica,sans-Serif" font-size="10.00">dev&#45;libs</text>
<polygon fill="none" stroke="blue" points="551.64,-455.5 551.64,-476.5 661.64,-476.5 661.64,-455.5 551.64,-455.5"/>
<text text-anchor="start" x="599.14" y="-462" font-family="Helvetica,sans-Serif" font-size="10.00">glib</text>
<polygon fill="none" stroke="blue" points="551.64,-434.5 551.64,-455.5 661.64,-455.5 661.64,-434.5 551.64,-434.5"/>
<text text-anchor="start" x="580.01" y="-441" font-family="Helvetica,sans-Serif" font-size="10.00">greaterequal</text>
<polygon fill="none" stroke="blue" points="551.64,-413.5 551.64,-434.5 661.64,-434.5 661.64,-413.5 551.64,-413.5"/>
<text text-anchor="start" x="572.14" y="-420" font-family="Helvetica,sans-Serif" font-size="10.00">[2.40.0,,,2.40.0]</text>
</g>
<!-- id&#45;&gt;dependency307221 -->
<g id="edge5" class="edge">
<title>id:e&#45;&gt;dependency307221:w</title>
<path fill="none" stroke="black" d="M306.82,-531C369.08,-531 373.06,-471.95 429.86,-466.42"/>
<ellipse fill="none" stroke="black" cx="434.14" cy="-466.21" rx="4" ry="4"/>
</g>
<!-- dependency307222 -->
<g id="node7" class="node">
<title>dependency307222</title>
<polygon fill="none" stroke="blue" points="447.64,-282.5 447.64,-387.5 551.64,-387.5 551.64,-282.5 447.64,-282.5"/>
<text text-anchor="start" x="478.64" y="-331.12" font-family="Helvetica,sans-Serif" font-size="10.00">pack_dep</text>
<polygon fill="none" stroke="blue" points="551.64,-366.5 551.64,-387.5 661.64,-387.5 661.64,-366.5 551.64,-366.5"/>
<text text-anchor="start" x="599.89" y="-373" font-family="Helvetica,sans-Serif" font-size="10.00">run</text>
<polygon fill="none" stroke="blue" points="551.64,-345.5 551.64,-366.5 661.64,-366.5 661.64,-345.5 551.64,-345.5"/>
<text text-anchor="start" x="584.51" y="-352" font-family="Helvetica,sans-Serif" font-size="10.00">media&#45;libs</text>
<polygon fill="none" stroke="blue" points="551.64,-324.5 551.64,-345.5 661.64,-345.5 661.64,-324.5 551.64,-324.5"/>
<text text-anchor="start" x="571.01" y="-331" font-family="Helvetica,sans-Serif" font-size="10.00">gst&#45;plugins&#45;good</text>
<polygon fill="none" stroke="blue" points="551.64,-303.5 551.64,-324.5 661.64,-324.5 661.64,-303.5 551.64,-303.5"/>
<text text-anchor="start" x="580.01" y="-310" font-family="Helvetica,sans-Serif" font-size="10.00">greaterequal</text>
<polygon fill="none" stroke="blue" points="551.64,-282.5 551.64,-303.5 661.64,-303.5 661.64,-282.5 551.64,-282.5"/>
<text text-anchor="start" x="566.89" y="-289" font-family="Helvetica,sans-Serif" font-size="10.00">[1.22.11,,,1.22.11]</text>
</g>
<!-- id&#45;&gt;dependency307222 -->
<g id="edge6" class="edge">
<title>id:e&#45;&gt;dependency307222:w</title>
<path fill="none" stroke="black" d="M306.82,-531C408.72,-531 338.08,-346.32 429.87,-335.49"/>
<ellipse fill="none" stroke="black" cx="434.14" cy="-335.25" rx="4" ry="4"/>
</g>
<!-- dependency307223 -->
<g id="node8" class="node">
<title>dependency307223</title>
<polygon fill="none" stroke="blue" points="447.64,-151.5 447.64,-256.5 551.64,-256.5 551.64,-151.5 447.64,-151.5"/>
<text text-anchor="start" x="478.64" y="-200.12" font-family="Helvetica,sans-Serif" font-size="10.00">pack_dep</text>
<polygon fill="none" stroke="blue" points="551.64,-235.5 551.64,-256.5 661.64,-256.5 661.64,-235.5 551.64,-235.5"/>
<text text-anchor="start" x="599.89" y="-242" font-family="Helvetica,sans-Serif" font-size="10.00">run</text>
<polygon fill="none" stroke="blue" points="551.64,-214.5 551.64,-235.5 661.64,-235.5 661.64,-214.5 551.64,-214.5"/>
<text text-anchor="start" x="584.51" y="-221" font-family="Helvetica,sans-Serif" font-size="10.00">media&#45;libs</text>
<polygon fill="none" stroke="blue" points="551.64,-193.5 551.64,-214.5 661.64,-214.5 661.64,-193.5 551.64,-193.5"/>
<text text-anchor="start" x="584.89" y="-200" font-family="Helvetica,sans-Serif" font-size="10.00">gstreamer</text>
<polygon fill="none" stroke="blue" points="551.64,-172.5 551.64,-193.5 661.64,-193.5 661.64,-172.5 551.64,-172.5"/>
<text text-anchor="start" x="580.01" y="-179" font-family="Helvetica,sans-Serif" font-size="10.00">greaterequal</text>
<polygon fill="none" stroke="blue" points="551.64,-151.5 551.64,-172.5 661.64,-172.5 661.64,-151.5 551.64,-151.5"/>
<text text-anchor="start" x="580.39" y="-158" font-family="Helvetica,sans-Serif" font-size="10.00">[1.22,,,1.22]</text>
</g>
<!-- id&#45;&gt;dependency307223 -->
<g id="edge7" class="edge">
<title>id:e&#45;&gt;dependency307223:w</title>
<path fill="none" stroke="black" d="M306.82,-531C460.45,-531 288.9,-216.65 429.84,-204.37"/>
<ellipse fill="none" stroke="black" cx="434.14" cy="-204.19" rx="4" ry="4"/>
</g>
<!-- dependency307224 -->
<g id="node9" class="node">
<title>dependency307224</title>
<polygon fill="none" stroke="blue" points="447.64,-20.5 447.64,-125.5 551.64,-125.5 551.64,-20.5 447.64,-20.5"/>
<text text-anchor="start" x="478.64" y="-69.12" font-family="Helvetica,sans-Serif" font-size="10.00">pack_dep</text>
<polygon fill="none" stroke="blue" points="551.64,-104.5 551.64,-125.5 661.64,-125.5 661.64,-104.5 551.64,-104.5"/>
<text text-anchor="start" x="599.89" y="-111" font-family="Helvetica,sans-Serif" font-size="10.00">run</text>
<polygon fill="none" stroke="blue" points="551.64,-83.5 551.64,-104.5 661.64,-104.5 661.64,-83.5 551.64,-83.5"/>
<text text-anchor="start" x="578.89" y="-90" font-family="Helvetica,sans-Serif" font-size="10.00">media&#45;sound</text>
<polygon fill="none" stroke="blue" points="551.64,-62.5 551.64,-83.5 661.64,-83.5 661.64,-62.5 551.64,-62.5"/>
<text text-anchor="start" x="587.14" y="-69" font-family="Helvetica,sans-Serif" font-size="10.00">wavpack</text>
<polygon fill="none" stroke="blue" points="551.64,-41.5 551.64,-62.5 661.64,-62.5 661.64,-41.5 551.64,-41.5"/>
<text text-anchor="start" x="580.01" y="-48" font-family="Helvetica,sans-Serif" font-size="10.00">greaterequal</text>
<polygon fill="none" stroke="blue" points="551.64,-20.5 551.64,-41.5 661.64,-41.5 661.64,-20.5 551.64,-20.5"/>
<text text-anchor="start" x="560.89" y="-27" font-family="Helvetica,sans-Serif" font-size="10.00">[4.60.1,,&#45;r1,4.60.1&#45;r1]</text>
</g>
<!-- id&#45;&gt;dependency307224 -->
<g id="edge8" class="edge">
<title>id:e&#45;&gt;dependency307224:w</title>
<path fill="none" stroke="black" d="M306.82,-531C515.53,-531 235.26,-86.32 429.65,-73.29"/>
<ellipse fill="none" stroke="black" cx="434.14" cy="-73.15" rx="4" ry="4"/>
</g>
<!-- choice1001011184510810598115471031081059845504655564654 -->
<g id="node10" class="node">
<title>choice1001011184510810598115471031081059845504655564654</title>
<g id="a_node10"><a xlink:href="../dev-libs/glib-2.78.6.svg" xlink:title="portage://dev&#45;libs/glib&#45;2.78.6">
<ellipse fill="none" stroke="red" cx="557.64" cy="-1410" rx="144" ry="18"/>
<text text-anchor="middle" x="557.64" y="-1406.12" font-family="Helvetica,sans-Serif" font-size="10.00">portage://dev&#45;libs/glib&#45;2.78.6</text>
</a>
</g>
</g>
<!-- dependency307217&#45;&gt;choice1001011184510810598115471031081059845504655564654 -->
<g id="edge9" class="edge">
<title>dependency307217:e&#45;&gt;choice1001011184510810598115471031081059845504655564654:w</title>
<path fill="none" stroke="black" stroke-dasharray="1,5" d="M676.64,-1155C701.75,-1155 693.24,-1193.59 675.64,-1211.5 650.98,-1236.59 381.99,-1202.85 359.64,-1230 309.01,-1291.49 327.36,-1399.72 401.77,-1409.32"/>
<polygon fill="black" stroke="black" points="411.42,-1409.92 401.16,-1413.79 407.65,-1409.69 401.44,-1409.29 401.44,-1409.29 401.44,-1409.29 407.65,-1409.69 401.72,-1404.8 411.42,-1409.92"/>
</g>
<!-- choice10010111845108105981154710310810598455046555646524511449 -->
<g id="node11" class="node">
<title>choice10010111845108105981154710310810598455046555646524511449</title>
<g id="a_node11"><a xlink:href="../dev-libs/glib-2.78.4-r1.svg" xlink:title="portage://dev&#45;libs/glib&#45;2.78.4&#45;r1">
<ellipse fill="none" stroke="red" cx="557.64" cy="-1356" rx="144" ry="18"/>
<text text-anchor="middle" x="557.64" y="-1352.12" font-family="Helvetica,sans-Serif" font-size="10.00">portage://dev&#45;libs/glib&#45;2.78.4&#45;r1</text>
</a>
</g>
</g>
<!-- dependency307217&#45;&gt;choice10010111845108105981154710310810598455046555646524511449 -->
<g id="edge10" class="edge">
<title>dependency307217:e&#45;&gt;choice10010111845108105981154710310810598455046555646524511449:w</title>
<path fill="none" stroke="black" stroke-dasharray="1,5" d="M676.64,-1155C701.75,-1155 693.24,-1193.59 675.64,-1211.5 650.98,-1236.59 381.99,-1202.85 359.64,-1230 323.43,-1273.97 348.3,-1346.24 401.6,-1355.1"/>
<polygon fill="black" stroke="black" points="411.42,-1355.9 401.09,-1359.57 407.65,-1355.59 401.45,-1355.09 401.45,-1355.09 401.45,-1355.09 407.65,-1355.59 401.82,-1350.6 411.42,-1355.9"/>
</g>
<!-- choice1001011184510810598115471031081059845504655564651 -->
<g id="node12" class="node">
<title>choice1001011184510810598115471031081059845504655564651</title>
<g id="a_node12"><a xlink:href="../dev-libs/glib-2.78.3.svg" xlink:title="portage://dev&#45;libs/glib&#45;2.78.3">
<ellipse fill="none" stroke="red" cx="557.64" cy="-1302" rx="144" ry="18"/>
<text text-anchor="middle" x="557.64" y="-1298.12" font-family="Helvetica,sans-Serif" font-size="10.00">portage://dev&#45;libs/glib&#45;2.78.3</text>
</a>
</g>
</g>
<!-- dependency307217&#45;&gt;choice1001011184510810598115471031081059845504655564651 -->
<g id="edge11" class="edge">
<title>dependency307217:e&#45;&gt;choice1001011184510810598115471031081059845504655564651:w</title>
<path fill="none" stroke="black" stroke-dasharray="1,5" d="M676.64,-1155C701.75,-1155 693.24,-1193.59 675.64,-1211.5 650.98,-1236.59 381.99,-1202.85 359.64,-1230 336.75,-1257.8 366.24,-1294.35 401.54,-1300.95"/>
<polygon fill="black" stroke="black" points="411.42,-1301.89 401.04,-1305.43 407.66,-1301.53 401.47,-1300.95 401.47,-1300.95 401.47,-1300.95 407.66,-1301.53 401.89,-1296.47 411.42,-1301.89"/>
</g>
<!-- choice1001011184510810598115471031081059845504655544652 -->
<g id="node13" class="node">
<title>choice1001011184510810598115471031081059845504655544652</title>
<g id="a_node13"><a xlink:href="../dev-libs/glib-2.76.4.svg" xlink:title="portage://dev&#45;libs/glib&#45;2.76.4">
<ellipse fill="none" stroke="red" cx="557.64" cy="-1248" rx="144" ry="18"/>
<text text-anchor="middle" x="557.64" y="-1244.12" font-family="Helvetica,sans-Serif" font-size="10.00">portage://dev&#45;libs/glib&#45;2.76.4</text>
</a>
</g>
</g>
<!-- dependency307217&#45;&gt;choice1001011184510810598115471031081059845504655544652 -->
<g id="edge12" class="edge">
<title>dependency307217:e&#45;&gt;choice1001011184510810598115471031081059845504655544652:w</title>
<path fill="none" stroke="black" stroke-dasharray="1,5" d="M409,-1237.45C410.03,-1234.7 411.7,-1231.96 413.64,-1230 454.6,-1188.42 635.47,-1253.85 675.64,-1211.5 692.92,-1193.28 701.75,-1155 676.64,-1155"/>
<polygon fill="black" stroke="black" points="412.24,-1246.85 404.73,-1238.86 411.01,-1243.27 408.98,-1237.39 408.98,-1237.39 408.98,-1237.39 411.01,-1243.27 413.23,-1235.93 412.24,-1246.85"/>
</g>
<!-- choice1091011001059745108105981154710311511645112108117103105110115451031111111004549465050464949 -->
<g id="node14" class="node">
<title>choice1091011001059745108105981154710311511645112108117103105110115451031111111004549465050464949</title>
<g id="a_node14"><a xlink:href="../media-libs/gst-plugins-good-1.22.11.svg" xlink:title="portage://media&#45;libs/gst&#45;plugins&#45;good&#45;1.22.11">
<ellipse fill="none" stroke="red" cx="557.64" cy="-1062" rx="144" ry="18"/>
<text text-anchor="middle" x="557.64" y="-1058.12" font-family="Helvetica,sans-Serif" font-size="10.00">portage://media&#45;libs/gst&#45;plugins&#45;good&#45;1.22.11</text>
</a>
</g>
</g>
<!-- dependency307218&#45;&gt;choice1091011001059745108105981154710311511645112108117103105110115451031111111004549465050464949 -->
<g id="edge13" class="edge">
<title>dependency307218:e&#45;&gt;choice1091011001059745108105981154710311511645112108117103105110115451031111111004549465050464949:w</title>
<path fill="none" stroke="black" stroke-dasharray="1,5" d="M409,-1051.45C410.03,-1048.7 411.7,-1045.96 413.64,-1044 454.6,-1002.42 635.47,-1067.85 675.64,-1025.5 692.92,-1007.28 701.75,-969 676.64,-969"/>
<polygon fill="black" stroke="black" points="412.24,-1060.85 404.73,-1052.86 411.01,-1057.27 408.98,-1051.39 408.98,-1051.39 408.98,-1051.39 411.01,-1057.27 413.23,-1049.93 412.24,-1060.85"/>
</g>
<!-- choice10910110010597451081059811547103115116114101971091011144549465050464949 -->
<g id="node15" class="node">
<title>choice10910110010597451081059811547103115116114101971091011144549465050464949</title>
<g id="a_node15"><a xlink:href="../media-libs/gstreamer-1.22.11.svg" xlink:title="portage://media&#45;libs/gstreamer&#45;1.22.11">
<ellipse fill="none" stroke="red" cx="557.64" cy="-876" rx="144" ry="18"/>
<text text-anchor="middle" x="557.64" y="-872.12" font-family="Helvetica,sans-Serif" font-size="10.00">portage://media&#45;libs/gstreamer&#45;1.22.11</text>
</a>
</g>
</g>
<!-- dependency307219&#45;&gt;choice10910110010597451081059811547103115116114101971091011144549465050464949 -->
<g id="edge14" class="edge">
<title>dependency307219:e&#45;&gt;choice10910110010597451081059811547103115116114101971091011144549465050464949:w</title>
<path fill="none" stroke="black" stroke-dasharray="1,5" d="M409,-865.45C410.03,-862.7 411.7,-859.96 413.64,-858 454.6,-816.42 635.47,-881.85 675.64,-839.5 692.92,-821.28 701.75,-783 676.64,-783"/>
<polygon fill="black" stroke="black" points="412.24,-874.85 404.73,-866.86 411.01,-871.27 408.98,-865.39 408.98,-865.39 408.98,-865.39 411.01,-871.27 413.23,-863.93 412.24,-874.85"/>
</g>
<!-- choice109101100105974511511111711010047119971181129799107455346554648 -->
<g id="node16" class="node">
<title>choice109101100105974511511111711010047119971181129799107455346554648</title>
<g id="a_node16"><a xlink:href="../media-sound/wavpack-5.7.0.svg" xlink:title="portage://media&#45;sound/wavpack&#45;5.7.0">
<ellipse fill="none" stroke="red" cx="557.64" cy="-690" rx="144" ry="18"/>
<text text-anchor="middle" x="557.64" y="-686.12" font-family="Helvetica,sans-Serif" font-size="10.00">portage://media&#45;sound/wavpack&#45;5.7.0</text>
</a>
</g>
</g>
<!-- dependency307220&#45;&gt;choice109101100105974511511111711010047119971181129799107455346554648 -->
<g id="edge15" class="edge">
<title>dependency307220:e&#45;&gt;choice109101100105974511511111711010047119971181129799107455346554648:w</title>
<path fill="none" stroke="black" stroke-dasharray="1,5" d="M409,-679.45C410.03,-676.7 411.7,-673.96 413.64,-672 454.6,-630.42 635.47,-695.85 675.64,-653.5 692.92,-635.28 701.75,-597 676.64,-597"/>
<polygon fill="black" stroke="black" points="412.24,-688.85 404.73,-680.86 411.01,-685.27 408.98,-679.39 408.98,-679.39 408.98,-679.39 411.01,-685.27 413.23,-677.93 412.24,-688.85"/>
</g>
<!-- dependency307221&#45;&gt;choice1001011184510810598115471031081059845504655564654 -->
<g id="edge16" class="edge">
<title>dependency307221:e&#45;&gt;choice1001011184510810598115471031081059845504655564654:w</title>
<path fill="none" stroke="black" stroke-dasharray="1,5" d="M676.64,-466C701.75,-466 693.24,-504.59 675.64,-522.5 650.98,-547.59 381.99,-513.85 359.64,-541 300.81,-612.45 316.32,-1292.21 359.64,-1374 371.09,-1395.63 380.97,-1406.67 401.59,-1409.35"/>
<polygon fill="black" stroke="black" points="411.42,-1409.93 401.17,-1413.83 407.64,-1409.7 401.44,-1409.34 401.44,-1409.34 401.44,-1409.34 407.64,-1409.7 401.7,-1404.85 411.42,-1409.93"/>
</g>
<!-- dependency307221&#45;&gt;choice10010111845108105981154710310810598455046555646524511449 -->
<g id="edge17" class="edge">
<title>dependency307221:e&#45;&gt;choice10010111845108105981154710310810598455046555646524511449:w</title>
<path fill="none" stroke="black" stroke-dasharray="1,5" d="M676.64,-466C701.75,-466 693.24,-504.59 675.64,-522.5 650.98,-547.59 381.99,-513.85 359.64,-541 304.62,-607.82 319.12,-1243.51 359.64,-1320 371.09,-1341.63 380.97,-1352.67 401.59,-1355.35"/>
<polygon fill="black" stroke="black" points="411.42,-1355.93 401.17,-1359.83 407.64,-1355.7 401.44,-1355.34 401.44,-1355.34 401.44,-1355.34 407.64,-1355.7 401.7,-1350.85 411.42,-1355.93"/>
</g>
<!-- dependency307221&#45;&gt;choice1001011184510810598115471031081059845504655564651 -->
<g id="edge18" class="edge">
<title>dependency307221:e&#45;&gt;choice1001011184510810598115471031081059845504655564651:w</title>
<path fill="none" stroke="black" stroke-dasharray="1,5" d="M676.64,-466C701.75,-466 693.24,-504.59 675.64,-522.5 650.98,-547.59 381.99,-513.85 359.64,-541 308.43,-603.19 321.93,-1194.81 359.64,-1266 371.09,-1287.63 380.97,-1298.67 401.59,-1301.35"/>
<polygon fill="black" stroke="black" points="411.42,-1301.93 401.17,-1305.83 407.64,-1301.7 401.44,-1301.34 401.44,-1301.34 401.44,-1301.34 407.64,-1301.7 401.7,-1296.85 411.42,-1301.93"/>
</g>
<!-- dependency307221&#45;&gt;choice1001011184510810598115471031081059845504655544652 -->
<g id="edge19" class="edge">
<title>dependency307221:e&#45;&gt;choice1001011184510810598115471031081059845504655544652:w</title>
<path fill="none" stroke="black" stroke-dasharray="1,5" d="M676.64,-466C701.75,-466 693.24,-504.59 675.64,-522.5 650.98,-547.59 381.99,-513.85 359.64,-541 312.25,-598.56 324.74,-1146.11 359.64,-1212 371.09,-1233.63 380.97,-1244.67 401.59,-1247.35"/>
<polygon fill="black" stroke="black" points="411.42,-1247.93 401.17,-1251.83 407.64,-1247.7 401.44,-1247.34 401.44,-1247.34 401.44,-1247.34 407.64,-1247.7 401.7,-1242.85 411.42,-1247.93"/>
</g>
<!-- dependency307222&#45;&gt;choice1091011001059745108105981154710311511645112108117103105110115451031111111004549465050464949 -->
<g id="edge20" class="edge">
<title>dependency307222:e&#45;&gt;choice1091011001059745108105981154710311511645112108117103105110115451031111111004549465050464949:w</title>
<path fill="none" stroke="black" stroke-dasharray="1,5" d="M676.64,-335C701.75,-335 693.24,-373.59 675.64,-391.5 650.98,-416.59 381.99,-382.85 359.64,-410 316.13,-462.84 327.6,-965.52 359.64,-1026 371.09,-1047.63 380.97,-1058.67 401.59,-1061.35"/>
<polygon fill="black" stroke="black" points="411.42,-1061.93 401.17,-1065.83 407.64,-1061.7 401.44,-1061.34 401.44,-1061.34 401.44,-1061.34 407.64,-1061.7 401.7,-1056.85 411.42,-1061.93"/>
</g>
<!-- dependency307223&#45;&gt;choice10910110010597451081059811547103115116114101971091011144549465050464949 -->
<g id="edge21" class="edge">
<title>dependency307223:e&#45;&gt;choice10910110010597451081059811547103115116114101971091011144549465050464949:w</title>
<path fill="none" stroke="black" stroke-dasharray="1,5" d="M676.64,-204C701.75,-204 693.24,-242.59 675.64,-260.5 650.98,-285.59 381.99,-251.85 359.64,-279 320.02,-327.12 330.46,-784.92 359.64,-840 371.09,-861.63 380.97,-872.67 401.59,-875.35"/>
<polygon fill="black" stroke="black" points="411.42,-875.93 401.17,-879.83 407.64,-875.7 401.44,-875.34 401.44,-875.34 401.44,-875.34 407.64,-875.7 401.7,-870.85 411.42,-875.93"/>
</g>
<!-- dependency307224&#45;&gt;choice109101100105974511511111711010047119971181129799107455346554648 -->
<g id="edge22" class="edge">
<title>dependency307224:e&#45;&gt;choice109101100105974511511111711010047119971181129799107455346554648:w</title>
<path fill="none" stroke="black" stroke-dasharray="1,5" d="M676.64,-73C701.75,-73 693.24,-111.59 675.64,-129.5 650.98,-154.59 381.99,-120.85 359.64,-148 323.9,-191.4 333.32,-604.32 359.64,-654 371.09,-675.63 380.97,-686.67 401.59,-689.35"/>
<polygon fill="black" stroke="black" points="411.42,-689.93 401.17,-693.83 407.64,-689.7 401.44,-689.34 401.44,-689.34 401.44,-689.34 407.64,-689.7 401.7,-684.85 411.42,-689.93"/>
</g>
</g>
</svg>
