<?xml version="1.0" encoding="UTF-8" standalone="no"?>
<!DOCTYPE svg PUBLIC "-//W3C//DTD SVG 1.1//EN"
 "http://www.w3.org/Graphics/SVG/1.1/DTD/svg11.dtd">
<!-- Generated by graphviz version 2.41.20171026.1811 (20171026.1811)
 -->
<!-- Title: prolog Pages: 1 -->
<svg width="1068pt" height="1003pt"
 viewBox="0.00 0.00 1068.00 1003.00" xmlns="http://www.w3.org/2000/svg" xmlns:xlink="http://www.w3.org/1999/xlink">
<g id="graph0" class="graph" transform="scale(1 1) rotate(0) translate(4 999)">
<title>prolog</title>
<polygon fill="white" stroke="transparent" points="-4,4 -4,-999 1064,-999 1064,4 -4,4"/>
<g id="clust1" class="cluster">
<title>cluster_leftcol</title>
<polygon fill="none" stroke="gray" points="8,-480 8,-552 312,-552 312,-480 8,-480"/>
<text text-anchor="start" x="146.66" y="-540" font-family="Helvetica,sans-Serif" font-style="italic" font-size="10.00">ebuild</text>
</g>
<g id="clust2" class="cluster">
<title>cluster_midcol</title>
<polygon fill="none" stroke="gray" points="396,-39 396,-987 664,-987 664,-39 396,-39"/>
<text text-anchor="start" x="498.88" y="-975" font-family="Helvetica,sans-Serif" font-style="italic" font-size="10.00">dependencies</text>
</g>
<g id="clust3" class="cluster">
<title>cluster_compile</title>
<polygon fill="#eeeeee" stroke="gray" points="404,-669 404,-959 656,-959 656,-669 404,-669"/>
<text text-anchor="start" x="512.78" y="-947" font-family="Helvetica,sans-Serif" font-style="italic" font-size="10.00">compile</text>
</g>
<g id="clust6" class="cluster">
<title>cluster_compileandrun</title>
<polygon fill="#eeeeee" stroke="gray" points="404,-47 404,-661 656,-661 656,-47 404,-47"/>
<text text-anchor="start" x="494.44" y="-649" font-family="Helvetica,sans-Serif" font-style="italic" font-size="10.00">compile and run</text>
</g>
<g id="clust12" class="cluster">
<title>cluster_choices</title>
<polygon fill="none" stroke="gray" points="748,-8 748,-836 1052,-836 1052,-8 748,-8"/>
<text text-anchor="start" x="875.82" y="-824" font-family="Helvetica,sans-Serif" font-style="italic" font-size="10.00">candidates</text>
</g>
<!-- id -->
<g id="node1" class="node">
<title>id</title>
<g id="a_node1"><a xlink:href="../media-plugins/gst-plugins-dv-1.14.1.svg" xlink:title="media&#45;plugins/gst&#45;plugins&#45;dv&#45;1.14.1">
<ellipse fill="none" stroke="red" cx="160" cy="-506" rx="144" ry="18"/>
<text text-anchor="middle" x="160" y="-503" font-family="Helvetica,sans-Serif" font-size="10.00">media&#45;plugins/gst&#45;plugins&#45;dv&#45;1.14.1</text>
</a>
</g>
</g>
<!-- dependency11401 -->
<g id="node2" class="node">
<title>dependency11401</title>
<polygon fill="none" stroke="blue" points="420,-817 420,-927 525,-927 525,-817 420,-817"/>
<text text-anchor="start" x="450.82" y="-869" font-family="Helvetica,sans-Serif" font-size="10.00">pack_dep</text>
<polygon fill="none" stroke="blue" points="525,-905 525,-927 635,-927 635,-905 525,-905"/>
<text text-anchor="start" x="574.44" y="-913" font-family="Helvetica,sans-Serif" font-size="10.00">no</text>
<polygon fill="none" stroke="blue" points="525,-883 525,-905 635,-905 635,-883 525,-883"/>
<text text-anchor="start" x="560" y="-891" font-family="Helvetica,sans-Serif" font-size="10.00">sys&#45;apps</text>
<polygon fill="none" stroke="blue" points="525,-861 525,-883 635,-883 635,-861 525,-861"/>
<text text-anchor="start" x="571.94" y="-869" font-family="Helvetica,sans-Serif" font-size="10.00">sed</text>
<polygon fill="none" stroke="blue" points="525,-839 525,-861 635,-861 635,-839 525,-839"/>
<text text-anchor="start" x="551.94" y="-847" font-family="Helvetica,sans-Serif" font-size="10.00">greaterequal</text>
<polygon fill="none" stroke="blue" points="525,-817 525,-839 635,-839 635,-817 525,-817"/>
<text text-anchor="start" x="577.22" y="-825" font-family="Helvetica,sans-Serif" font-size="10.00">4</text>
</g>
<!-- id&#45;&gt;dependency11401 -->
<g id="edge1" class="edge">
<title>id:e&#45;&gt;dependency11401:w</title>
<path fill="none" stroke="black" d="M305,-506C470.71,-506 251.46,-856.44 400.63,-871.5"/>
<polygon fill="black" stroke="black" points="411,-872 400.79,-876.01 406.01,-871.76 401.01,-871.52 401.01,-871.52 401.01,-871.52 406.01,-871.76 401.23,-867.02 411,-872 411,-872"/>
</g>
<!-- dependency11402 -->
<g id="node3" class="node">
<title>dependency11402</title>
<polygon fill="none" stroke="blue" points="420,-681 420,-791 525,-791 525,-681 420,-681"/>
<text text-anchor="start" x="450.82" y="-733" font-family="Helvetica,sans-Serif" font-size="10.00">pack_dep</text>
<polygon fill="none" stroke="blue" points="525,-769 525,-791 635,-791 635,-769 525,-769"/>
<text text-anchor="start" x="574.44" y="-777" font-family="Helvetica,sans-Serif" font-size="10.00">no</text>
<polygon fill="none" stroke="blue" points="525,-747 525,-769 635,-769 635,-747 525,-747"/>
<text text-anchor="start" x="566.67" y="-755" font-family="Helvetica,sans-Serif" font-size="10.00">virtual</text>
<polygon fill="none" stroke="blue" points="525,-725 525,-747 635,-747 635,-725 525,-725"/>
<text text-anchor="start" x="558.6" y="-733" font-family="Helvetica,sans-Serif" font-size="10.00">pkgconfig</text>
<polygon fill="none" stroke="blue" points="525,-703 525,-725 635,-725 635,-703 525,-703"/>
<text text-anchor="start" x="551.94" y="-711" font-family="Helvetica,sans-Serif" font-size="10.00">greaterequal</text>
<polygon fill="none" stroke="blue" points="525,-681 525,-703 635,-703 635,-681 525,-681"/>
<text text-anchor="start" x="571.11" y="-689" font-family="Helvetica,sans-Serif" font-size="10.00">0&#45;r1</text>
</g>
<!-- id&#45;&gt;dependency11402 -->
<g id="edge2" class="edge">
<title>id:e&#45;&gt;dependency11402:w</title>
<path fill="none" stroke="black" d="M305,-506C413.93,-506 305.88,-721.41 400.82,-735.3"/>
<polygon fill="black" stroke="black" points="411,-736 400.71,-739.8 406.01,-735.66 401.02,-735.31 401.02,-735.31 401.02,-735.31 406.01,-735.66 401.33,-730.82 411,-736 411,-736"/>
</g>
<!-- dependency11403 -->
<g id="node4" class="node">
<title>dependency11403</title>
<polygon fill="none" stroke="blue" points="420,-519 420,-629 525,-629 525,-519 420,-519"/>
<text text-anchor="start" x="450.82" y="-571" font-family="Helvetica,sans-Serif" font-size="10.00">pack_dep</text>
<polygon fill="none" stroke="blue" points="525,-607 525,-629 635,-629 635,-607 525,-607"/>
<text text-anchor="start" x="574.44" y="-615" font-family="Helvetica,sans-Serif" font-size="10.00">no</text>
<polygon fill="none" stroke="blue" points="525,-585 525,-607 635,-607 635,-585 525,-585"/>
<text text-anchor="start" x="562.78" y="-593" font-family="Helvetica,sans-Serif" font-size="10.00">dev&#45;libs</text>
<polygon fill="none" stroke="blue" points="525,-563 525,-585 635,-585 635,-563 525,-563"/>
<text text-anchor="start" x="572.22" y="-571" font-family="Helvetica,sans-Serif" font-size="10.00">glib</text>
<polygon fill="none" stroke="blue" points="525,-541 525,-563 635,-563 635,-541 525,-541"/>
<text text-anchor="start" x="551.94" y="-549" font-family="Helvetica,sans-Serif" font-size="10.00">greaterequal</text>
<polygon fill="none" stroke="blue" points="525,-519 525,-541 635,-541 635,-519 525,-519"/>
<text text-anchor="start" x="559.99" y="-527" font-family="Helvetica,sans-Serif" font-size="10.00">2.38.2&#45;r1</text>
</g>
<!-- id&#45;&gt;dependency11403 -->
<g id="edge3" class="edge">
<title>id:e&#45;&gt;dependency11403:w</title>
<path fill="none" stroke="black" d="M305,-506C354.19,-506 355.56,-558.53 393.17,-571.25"/>
<ellipse fill="none" stroke="black" cx="407.05" cy="-573.39" rx="4" ry="4"/>
<polygon fill="black" stroke="black" points="403.09,-572.78 392.52,-575.7 398.15,-572.02 393.21,-571.26 393.21,-571.26 393.21,-571.26 398.15,-572.02 393.9,-566.81 403.09,-572.78 403.09,-572.78"/>
</g>
<!-- dependency11404 -->
<g id="node5" class="node">
<title>dependency11404</title>
<polygon fill="none" stroke="blue" points="420,-383 420,-493 525,-493 525,-383 420,-383"/>
<text text-anchor="start" x="450.82" y="-435" font-family="Helvetica,sans-Serif" font-size="10.00">pack_dep</text>
<polygon fill="none" stroke="blue" points="525,-471 525,-493 635,-493 635,-471 525,-471"/>
<text text-anchor="start" x="574.44" y="-479" font-family="Helvetica,sans-Serif" font-size="10.00">no</text>
<polygon fill="none" stroke="blue" points="525,-449 525,-471 635,-471 635,-449 525,-449"/>
<text text-anchor="start" x="557.22" y="-457" font-family="Helvetica,sans-Serif" font-size="10.00">media&#45;libs</text>
<polygon fill="none" stroke="blue" points="525,-427 525,-449 635,-449 635,-427 525,-427"/>
<text text-anchor="start" x="543.05" y="-435" font-family="Helvetica,sans-Serif" font-size="10.00">gst&#45;plugins&#45;good</text>
<polygon fill="none" stroke="blue" points="525,-405 525,-427 635,-427 635,-405 525,-405"/>
<text text-anchor="start" x="551.94" y="-413" font-family="Helvetica,sans-Serif" font-size="10.00">greaterequal</text>
<polygon fill="none" stroke="blue" points="525,-383 525,-405 635,-405 635,-383 525,-383"/>
<text text-anchor="start" x="566.1" y="-391" font-family="Helvetica,sans-Serif" font-size="10.00">1.14.1</text>
</g>
<!-- id&#45;&gt;dependency11404 -->
<g id="edge4" class="edge">
<title>id:e&#45;&gt;dependency11404:w</title>
<path fill="none" stroke="black" d="M305,-506C354.19,-506 355.56,-453.47 393.17,-440.75"/>
<ellipse fill="none" stroke="black" cx="407.05" cy="-438.61" rx="4" ry="4"/>
<polygon fill="black" stroke="black" points="403.09,-439.22 393.9,-445.19 398.15,-439.98 393.21,-440.74 393.21,-440.74 393.21,-440.74 398.15,-439.98 392.52,-436.3 403.09,-439.22 403.09,-439.22"/>
</g>
<!-- dependency11405 -->
<g id="node6" class="node">
<title>dependency11405</title>
<polygon fill="none" stroke="blue" points="420,-195 420,-305 525,-305 525,-195 420,-195"/>
<text text-anchor="start" x="450.82" y="-247" font-family="Helvetica,sans-Serif" font-size="10.00">pack_dep</text>
<polygon fill="none" stroke="blue" points="525,-283 525,-305 635,-305 635,-283 525,-283"/>
<text text-anchor="start" x="574.44" y="-291" font-family="Helvetica,sans-Serif" font-size="10.00">no</text>
<polygon fill="none" stroke="blue" points="525,-261 525,-283 635,-283 635,-261 525,-261"/>
<text text-anchor="start" x="557.22" y="-269" font-family="Helvetica,sans-Serif" font-size="10.00">media&#45;libs</text>
<polygon fill="none" stroke="blue" points="525,-239 525,-261 635,-261 635,-239 525,-239"/>
<text text-anchor="start" x="557.5" y="-247" font-family="Helvetica,sans-Serif" font-size="10.00">gstreamer</text>
<polygon fill="none" stroke="blue" points="525,-217 525,-239 635,-239 635,-217 525,-217"/>
<text text-anchor="start" x="551.94" y="-225" font-family="Helvetica,sans-Serif" font-size="10.00">greaterequal</text>
<polygon fill="none" stroke="blue" points="525,-195 525,-217 635,-217 635,-195 525,-195"/>
<text text-anchor="start" x="562.77" y="-203" font-family="Helvetica,sans-Serif" font-size="10.00">1.2.4&#45;r1</text>
</g>
<!-- id&#45;&gt;dependency11405 -->
<g id="edge5" class="edge">
<title>id:e&#45;&gt;dependency11405:w</title>
<path fill="none" stroke="black" d="M305,-506C421.41,-506 302.41,-277.23 393.07,-252.21"/>
<ellipse fill="none" stroke="black" cx="407.03" cy="-250.49" rx="4" ry="4"/>
<polygon fill="black" stroke="black" points="403.06,-250.98 393.69,-256.67 398.1,-251.59 393.14,-252.21 393.14,-252.21 393.14,-252.21 398.1,-251.59 392.58,-247.74 403.06,-250.98 403.06,-250.98"/>
</g>
<!-- dependency11406 -->
<g id="node7" class="node">
<title>dependency11406</title>
<polygon fill="none" stroke="blue" points="420,-59 420,-169 525,-169 525,-59 420,-59"/>
<text text-anchor="start" x="450.82" y="-111" font-family="Helvetica,sans-Serif" font-size="10.00">pack_dep</text>
<polygon fill="none" stroke="blue" points="525,-147 525,-169 635,-169 635,-147 525,-147"/>
<text text-anchor="start" x="574.44" y="-155" font-family="Helvetica,sans-Serif" font-size="10.00">no</text>
<polygon fill="none" stroke="blue" points="525,-125 525,-147 635,-147 635,-125 525,-125"/>
<text text-anchor="start" x="557.22" y="-133" font-family="Helvetica,sans-Serif" font-size="10.00">media&#45;libs</text>
<polygon fill="none" stroke="blue" points="525,-103 525,-125 635,-125 635,-103 525,-103"/>
<text text-anchor="start" x="569.72" y="-111" font-family="Helvetica,sans-Serif" font-size="10.00">libdv</text>
<polygon fill="none" stroke="blue" points="525,-81 525,-103 635,-103 635,-81 525,-81"/>
<text text-anchor="start" x="551.94" y="-89" font-family="Helvetica,sans-Serif" font-size="10.00">greaterequal</text>
<polygon fill="none" stroke="blue" points="525,-59 525,-81 635,-81 635,-59 525,-59"/>
<text text-anchor="start" x="562.77" y="-67" font-family="Helvetica,sans-Serif" font-size="10.00">1.0.0&#45;r3</text>
</g>
<!-- id&#45;&gt;dependency11406 -->
<g id="edge6" class="edge">
<title>id:e&#45;&gt;dependency11406:w</title>
<path fill="none" stroke="black" d="M305,-506C478.78,-506 248.84,-142.55 392.66,-115.58"/>
<ellipse fill="none" stroke="black" cx="407.01" cy="-114.34" rx="4" ry="4"/>
<polygon fill="black" stroke="black" points="403.03,-114.69 393.45,-120.03 398.05,-115.12 393.07,-115.54 393.07,-115.54 393.07,-115.54 398.05,-115.12 392.68,-111.06 403.03,-114.69 403.03,-114.69"/>
</g>
<!-- choice11512111545971121121154711510110045524653 -->
<g id="node8" class="node">
<title>choice11512111545971121121154711510110045524653</title>
<g id="a_node8"><a xlink:href="../sys-apps/sed-4.5.svg" xlink:title="sys&#45;apps/sed&#45;4.5">
<ellipse fill="none" stroke="red" cx="900" cy="-790" rx="144" ry="18"/>
<text text-anchor="middle" x="900" y="-787" font-family="Helvetica,sans-Serif" font-size="10.00">sys&#45;apps/sed&#45;4.5</text>
</a>
</g>
</g>
<!-- dependency11401&#45;&gt;choice11512111545971121121154711510110045524653 -->
<g id="edge7" class="edge">
<title>dependency11401:e&#45;&gt;choice11512111545971121121154711510110045524653:w</title>
<path fill="none" stroke="black" stroke-dasharray="1,5" d="M649,-872C704.96,-872 696.76,-799.63 744.95,-790.87"/>
<polygon fill="black" stroke="black" points="755,-790 745.42,-795.34 750.02,-790.43 745.04,-790.86 745.04,-790.86 745.04,-790.86 750.02,-790.43 744.65,-786.37 755,-790 755,-790"/>
</g>
<!-- choice11810511411611797108471121071039911111010210510345484511449 -->
<g id="node9" class="node">
<title>choice11810511411611797108471121071039911111010210510345484511449</title>
<g id="a_node9"><a xlink:href="../virtual/pkgconfig-0-r1.svg" xlink:title="virtual/pkgconfig&#45;0&#45;r1">
<ellipse fill="none" stroke="red" cx="900" cy="-736" rx="144" ry="18"/>
<text text-anchor="middle" x="900" y="-733" font-family="Helvetica,sans-Serif" font-size="10.00">virtual/pkgconfig&#45;0&#45;r1</text>
</a>
</g>
</g>
<!-- dependency11402&#45;&gt;choice11810511411611797108471121071039911111010210510345484511449 -->
<g id="edge8" class="edge">
<title>dependency11402:e&#45;&gt;choice11810511411611797108471121071039911111010210510345484511449:w</title>
<path fill="none" stroke="black" stroke-dasharray="1,5" d="M649,-736C692.43,-736 705.83,-736 744.57,-736"/>
<polygon fill="black" stroke="black" points="755,-736 745,-740.5 750,-736 745,-736 745,-736 745,-736 750,-736 745,-731.5 755,-736 755,-736"/>
</g>
<!-- choice1001011184510810598115471031081059845504653504651 -->
<g id="node10" class="node">
<title>choice1001011184510810598115471031081059845504653504651</title>
<g id="a_node10"><a xlink:href="../dev-libs/glib-2.52.3.svg" xlink:title="dev&#45;libs/glib&#45;2.52.3">
<ellipse fill="none" stroke="red" cx="900" cy="-682" rx="144" ry="18"/>
<text text-anchor="middle" x="900" y="-679" font-family="Helvetica,sans-Serif" font-size="10.00">dev&#45;libs/glib&#45;2.52.3</text>
</a>
</g>
</g>
<!-- dependency11403&#45;&gt;choice1001011184510810598115471031081059845504653504651 -->
<g id="edge9" class="edge">
<title>dependency11403:e&#45;&gt;choice1001011184510810598115471031081059845504653504651:w</title>
<path fill="none" stroke="black" stroke-dasharray="1,5" d="M649,-574C712.58,-574 690.58,-670.51 744.79,-681.07"/>
<polygon fill="black" stroke="black" points="755,-682 744.63,-685.57 750.02,-681.54 745.04,-681.09 745.04,-681.09 745.04,-681.09 750.02,-681.54 745.45,-676.61 755,-682 755,-682"/>
</g>
<!-- choice10010111845108105981154710310810598455046535246514511454 -->
<g id="node11" class="node">
<title>choice10010111845108105981154710310810598455046535246514511454</title>
<g id="a_node11"><a xlink:href="../dev-libs/glib-2.54.3-r6.svg" xlink:title="dev&#45;libs/glib&#45;2.54.3&#45;r6">
<ellipse fill="none" stroke="red" cx="900" cy="-628" rx="144" ry="18"/>
<text text-anchor="middle" x="900" y="-625" font-family="Helvetica,sans-Serif" font-size="10.00">dev&#45;libs/glib&#45;2.54.3&#45;r6</text>
</a>
</g>
</g>
<!-- dependency11403&#45;&gt;choice10010111845108105981154710310810598455046535246514511454 -->
<g id="edge10" class="edge">
<title>dependency11403:e&#45;&gt;choice10010111845108105981154710310810598455046535246514511454:w</title>
<path fill="none" stroke="black" stroke-dasharray="1,5" d="M649,-574C698.26,-574 701.85,-620.87 744.86,-627.28"/>
<polygon fill="black" stroke="black" points="755,-628 744.71,-631.78 750.01,-627.64 745.03,-627.29 745.03,-627.29 745.03,-627.29 750.01,-627.64 745.35,-622.8 755,-628 755,-628"/>
</g>
<!-- choice1001011184510810598115471031081059845504653544650 -->
<g id="node12" class="node">
<title>choice1001011184510810598115471031081059845504653544650</title>
<g id="a_node12"><a xlink:href="../dev-libs/glib-2.56.2.svg" xlink:title="dev&#45;libs/glib&#45;2.56.2">
<ellipse fill="none" stroke="red" cx="900" cy="-574" rx="144" ry="18"/>
<text text-anchor="middle" x="900" y="-571" font-family="Helvetica,sans-Serif" font-size="10.00">dev&#45;libs/glib&#45;2.56.2</text>
</a>
</g>
</g>
<!-- dependency11403&#45;&gt;choice1001011184510810598115471031081059845504653544650 -->
<g id="edge11" class="edge">
<title>dependency11403:e&#45;&gt;choice1001011184510810598115471031081059845504653544650:w</title>
<path fill="none" stroke="black" stroke-dasharray="1,5" d="M649,-574C692.43,-574 705.83,-574 744.57,-574"/>
<polygon fill="black" stroke="black" points="755,-574 745,-578.5 750,-574 745,-574 745,-574 745,-574 750,-574 745,-569.5 755,-574 755,-574"/>
</g>
<!-- choice10910110010597451081059811547103115116451121081171031051101154510311111110045484649484651494511450 -->
<g id="node13" class="node">
<title>choice10910110010597451081059811547103115116451121081171031051101154510311111110045484649484651494511450</title>
<g id="a_node13"><a xlink:href="../media-libs/gst-plugins-good-0.10.31-r2.svg" xlink:title="media&#45;libs/gst&#45;plugins&#45;good&#45;0.10.31&#45;r2">
<ellipse fill="none" stroke="red" cx="900" cy="-520" rx="144" ry="18"/>
<text text-anchor="middle" x="900" y="-517" font-family="Helvetica,sans-Serif" font-size="10.00">media&#45;libs/gst&#45;plugins&#45;good&#45;0.10.31&#45;r2</text>
</a>
</g>
</g>
<!-- dependency11404&#45;&gt;choice10910110010597451081059811547103115116451121081171031051101154510311111110045484649484651494511450 -->
<g id="edge12" class="edge">
<title>dependency11404:e&#45;&gt;choice10910110010597451081059811547103115116451121081171031051101154510311111110045484649484651494511450:w</title>
<path fill="none" stroke="black" stroke-dasharray="1,5" d="M649,-438C704.96,-438 696.76,-510.37 744.95,-519.13"/>
<polygon fill="black" stroke="black" points="755,-520 744.65,-523.63 750.02,-519.57 745.04,-519.14 745.04,-519.14 745.04,-519.14 750.02,-519.57 745.42,-514.66 755,-520 755,-520"/>
</g>
<!-- choice10910110010597451081059811547103115116451121081171031051101154510311111110045494649504652 -->
<g id="node14" class="node">
<title>choice10910110010597451081059811547103115116451121081171031051101154510311111110045494649504652</title>
<g id="a_node14"><a xlink:href="../media-libs/gst-plugins-good-1.12.4.svg" xlink:title="media&#45;libs/gst&#45;plugins&#45;good&#45;1.12.4">
<ellipse fill="none" stroke="red" cx="900" cy="-466" rx="144" ry="18"/>
<text text-anchor="middle" x="900" y="-463" font-family="Helvetica,sans-Serif" font-size="10.00">media&#45;libs/gst&#45;plugins&#45;good&#45;1.12.4</text>
</a>
</g>
</g>
<!-- dependency11404&#45;&gt;choice10910110010597451081059811547103115116451121081171031051101154510311111110045494649504652 -->
<g id="edge13" class="edge">
<title>dependency11404:e&#45;&gt;choice10910110010597451081059811547103115116451121081171031051101154510311111110045494649504652:w</title>
<path fill="none" stroke="black" stroke-dasharray="1,5" d="M649,-438C694.11,-438 704.78,-462 744.78,-465.56"/>
<polygon fill="black" stroke="black" points="755,-466 744.82,-470.07 750,-465.78 745.01,-465.57 745.01,-465.57 745.01,-465.57 750,-465.78 745.2,-461.07 755,-466 755,-466"/>
</g>
<!-- choice10910110010597451081059811547103115116451121081171031051101154510311111110045494649524649 -->
<g id="node15" class="node">
<title>choice10910110010597451081059811547103115116451121081171031051101154510311111110045494649524649</title>
<g id="a_node15"><a xlink:href="../media-libs/gst-plugins-good-1.14.1.svg" xlink:title="media&#45;libs/gst&#45;plugins&#45;good&#45;1.14.1">
<ellipse fill="none" stroke="red" cx="900" cy="-412" rx="144" ry="18"/>
<text text-anchor="middle" x="900" y="-409" font-family="Helvetica,sans-Serif" font-size="10.00">media&#45;libs/gst&#45;plugins&#45;good&#45;1.14.1</text>
</a>
</g>
</g>
<!-- dependency11404&#45;&gt;choice10910110010597451081059811547103115116451121081171031051101154510311111110045494649524649 -->
<g id="edge14" class="edge">
<title>dependency11404:e&#45;&gt;choice10910110010597451081059811547103115116451121081171031051101154510311111110045494649524649:w</title>
<path fill="none" stroke="black" stroke-dasharray="1,5" d="M649,-438C693.91,-438 704.94,-415.72 744.82,-412.41"/>
<polygon fill="black" stroke="black" points="755,-412 745.19,-416.9 750,-412.2 745.01,-412.4 745.01,-412.4 745.01,-412.4 750,-412.2 744.83,-407.9 755,-412 755,-412"/>
</g>
<!-- choice10910110010597451081059811547103115116451121081171031051101154510311111110045494649524650 -->
<g id="node16" class="node">
<title>choice10910110010597451081059811547103115116451121081171031051101154510311111110045494649524650</title>
<g id="a_node16"><a xlink:href="../media-libs/gst-plugins-good-1.14.2.svg" xlink:title="media&#45;libs/gst&#45;plugins&#45;good&#45;1.14.2">
<ellipse fill="none" stroke="red" cx="900" cy="-358" rx="144" ry="18"/>
<text text-anchor="middle" x="900" y="-355" font-family="Helvetica,sans-Serif" font-size="10.00">media&#45;libs/gst&#45;plugins&#45;good&#45;1.14.2</text>
</a>
</g>
</g>
<!-- dependency11404&#45;&gt;choice10910110010597451081059811547103115116451121081171031051101154510311111110045494649524650 -->
<g id="edge15" class="edge">
<title>dependency11404:e&#45;&gt;choice10910110010597451081059811547103115116451121081171031051101154510311111110045494649524650:w</title>
<path fill="none" stroke="black" stroke-dasharray="1,5" d="M649,-438C704.45,-438 697.18,-367.39 745.03,-358.84"/>
<polygon fill="black" stroke="black" points="755,-358 745.42,-363.33 750.02,-358.42 745.04,-358.84 745.04,-358.84 745.04,-358.84 750.02,-358.42 744.66,-354.36 755,-358 755,-358"/>
</g>
<!-- choice109101100105974510810598115471031151161141019710910111445484649484651544511450 -->
<g id="node17" class="node">
<title>choice109101100105974510810598115471031151161141019710910111445484649484651544511450</title>
<g id="a_node17"><a xlink:href="../media-libs/gstreamer-0.10.36-r2.svg" xlink:title="media&#45;libs/gstreamer&#45;0.10.36&#45;r2">
<ellipse fill="none" stroke="red" cx="900" cy="-304" rx="144" ry="18"/>
<text text-anchor="middle" x="900" y="-301" font-family="Helvetica,sans-Serif" font-size="10.00">media&#45;libs/gstreamer&#45;0.10.36&#45;r2</text>
</a>
</g>
</g>
<!-- dependency11405&#45;&gt;choice109101100105974510810598115471031151161141019710910111445484649484651544511450 -->
<g id="edge16" class="edge">
<title>dependency11405:e&#45;&gt;choice109101100105974510810598115471031151161141019710910111445484649484651544511450:w</title>
<path fill="none" stroke="black" stroke-dasharray="1,5" d="M649,-250C698.26,-250 701.85,-296.87 744.86,-303.28"/>
<polygon fill="black" stroke="black" points="755,-304 744.71,-307.78 750.01,-303.64 745.03,-303.29 745.03,-303.29 745.03,-303.29 750.01,-303.64 745.35,-298.8 755,-304 755,-304"/>
</g>
<!-- choice109101100105974510810598115471031151161141019710910111445494649504652 -->
<g id="node18" class="node">
<title>choice109101100105974510810598115471031151161141019710910111445494649504652</title>
<g id="a_node18"><a xlink:href="../media-libs/gstreamer-1.12.4.svg" xlink:title="media&#45;libs/gstreamer&#45;1.12.4">
<ellipse fill="none" stroke="red" cx="900" cy="-250" rx="144" ry="18"/>
<text text-anchor="middle" x="900" y="-247" font-family="Helvetica,sans-Serif" font-size="10.00">media&#45;libs/gstreamer&#45;1.12.4</text>
</a>
</g>
</g>
<!-- dependency11405&#45;&gt;choice109101100105974510810598115471031151161141019710910111445494649504652 -->
<g id="edge17" class="edge">
<title>dependency11405:e&#45;&gt;choice109101100105974510810598115471031151161141019710910111445494649504652:w</title>
<path fill="none" stroke="black" stroke-dasharray="1,5" d="M649,-250C692.43,-250 705.83,-250 744.57,-250"/>
<polygon fill="black" stroke="black" points="755,-250 745,-254.5 750,-250 745,-250 745,-250 745,-250 750,-250 745,-245.5 755,-250 755,-250"/>
</g>
<!-- choice109101100105974510810598115471031151161141019710910111445494649524649 -->
<g id="node19" class="node">
<title>choice109101100105974510810598115471031151161141019710910111445494649524649</title>
<g id="a_node19"><a xlink:href="../media-libs/gstreamer-1.14.1.svg" xlink:title="media&#45;libs/gstreamer&#45;1.14.1">
<ellipse fill="none" stroke="red" cx="900" cy="-196" rx="144" ry="18"/>
<text text-anchor="middle" x="900" y="-193" font-family="Helvetica,sans-Serif" font-size="10.00">media&#45;libs/gstreamer&#45;1.14.1</text>
</a>
</g>
</g>
<!-- dependency11405&#45;&gt;choice109101100105974510810598115471031151161141019710910111445494649524649 -->
<g id="edge18" class="edge">
<title>dependency11405:e&#45;&gt;choice109101100105974510810598115471031151161141019710910111445494649524649:w</title>
<path fill="none" stroke="black" stroke-dasharray="1,5" d="M649,-250C698.26,-250 701.85,-203.13 744.86,-196.72"/>
<polygon fill="black" stroke="black" points="755,-196 745.35,-201.2 750.01,-196.36 745.03,-196.71 745.03,-196.71 745.03,-196.71 750.01,-196.36 744.71,-192.22 755,-196 755,-196"/>
</g>
<!-- choice109101100105974510810598115471031151161141019710910111445494649524650 -->
<g id="node20" class="node">
<title>choice109101100105974510810598115471031151161141019710910111445494649524650</title>
<g id="a_node20"><a xlink:href="../media-libs/gstreamer-1.14.2.svg" xlink:title="media&#45;libs/gstreamer&#45;1.14.2">
<ellipse fill="none" stroke="red" cx="900" cy="-142" rx="144" ry="18"/>
<text text-anchor="middle" x="900" y="-139" font-family="Helvetica,sans-Serif" font-size="10.00">media&#45;libs/gstreamer&#45;1.14.2</text>
</a>
</g>
</g>
<!-- dependency11405&#45;&gt;choice109101100105974510810598115471031151161141019710910111445494649524650 -->
<g id="edge19" class="edge">
<title>dependency11405:e&#45;&gt;choice109101100105974510810598115471031151161141019710910111445494649524650:w</title>
<path fill="none" stroke="black" stroke-dasharray="1,5" d="M649,-250C712.58,-250 690.58,-153.49 744.79,-142.93"/>
<polygon fill="black" stroke="black" points="755,-142 745.45,-147.39 750.02,-142.46 745.04,-142.91 745.04,-142.91 745.04,-142.91 750.02,-142.46 744.63,-138.43 755,-142 755,-142"/>
</g>
<!-- choice10910110010597451081059811547108105981001184549464846484511450 -->
<g id="node21" class="node">
<title>choice10910110010597451081059811547108105981001184549464846484511450</title>
<g id="a_node21"><a xlink:href="../media-libs/libdv-1.0.0-r2.svg" xlink:title="media&#45;libs/libdv&#45;1.0.0&#45;r2">
<ellipse fill="none" stroke="red" cx="900" cy="-88" rx="144" ry="18"/>
<text text-anchor="middle" x="900" y="-85" font-family="Helvetica,sans-Serif" font-size="10.00">media&#45;libs/libdv&#45;1.0.0&#45;r2</text>
</a>
</g>
</g>
<!-- dependency11406&#45;&gt;choice10910110010597451081059811547108105981001184549464846484511450 -->
<g id="edge20" class="edge">
<title>dependency11406:e&#45;&gt;choice10910110010597451081059811547108105981001184549464846484511450:w</title>
<path fill="none" stroke="black" stroke-dasharray="1,5" d="M649,-114C693.91,-114 704.94,-91.72 744.82,-88.41"/>
<polygon fill="black" stroke="black" points="755,-88 745.19,-92.9 750,-88.2 745.01,-88.4 745.01,-88.4 745.01,-88.4 750,-88.2 744.83,-83.9 755,-88 755,-88"/>
</g>
<!-- choice10910110010597451081059811547108105981001184549464846484511451 -->
<g id="node22" class="node">
<title>choice10910110010597451081059811547108105981001184549464846484511451</title>
<g id="a_node22"><a xlink:href="../media-libs/libdv-1.0.0-r3.svg" xlink:title="media&#45;libs/libdv&#45;1.0.0&#45;r3">
<ellipse fill="none" stroke="red" cx="900" cy="-34" rx="144" ry="18"/>
<text text-anchor="middle" x="900" y="-31" font-family="Helvetica,sans-Serif" font-size="10.00">media&#45;libs/libdv&#45;1.0.0&#45;r3</text>
</a>
</g>
</g>
<!-- dependency11406&#45;&gt;choice10910110010597451081059811547108105981001184549464846484511451 -->
<g id="edge21" class="edge">
<title>dependency11406:e&#45;&gt;choice10910110010597451081059811547108105981001184549464846484511451:w</title>
<path fill="none" stroke="black" stroke-dasharray="1,5" d="M649,-114C704.45,-114 697.18,-43.39 745.03,-34.84"/>
<polygon fill="black" stroke="black" points="755,-34 745.42,-39.33 750.02,-34.42 745.04,-34.84 745.04,-34.84 745.04,-34.84 750.02,-34.42 744.66,-30.36 755,-34 755,-34"/>
</g>
</g>
</svg>
