<?xml version="1.0" encoding="UTF-8" standalone="no"?>
<!DOCTYPE svg PUBLIC "-//W3C//DTD SVG 1.1//EN"
 "http://www.w3.org/Graphics/SVG/1.1/DTD/svg11.dtd">
<!-- Generated by graphviz version 2.41.20171026.1811 (20171026.1811)
 -->
<!-- Title: prolog Pages: 1 -->
<svg width="1068pt" height="1862pt"
 viewBox="0.00 0.00 1068.00 1862.00" xmlns="http://www.w3.org/2000/svg" xmlns:xlink="http://www.w3.org/1999/xlink">
<g id="graph0" class="graph" transform="scale(1 1) rotate(0) translate(4 1858)">
<title>prolog</title>
<polygon fill="white" stroke="transparent" points="-4,4 -4,-1858 1064,-1858 1064,4 -4,4"/>
<g id="clust1" class="cluster">
<title>cluster_leftcol</title>
<polygon fill="none" stroke="gray" points="8,-1396 8,-1466 312,-1466 312,-1396 8,-1396"/>
<text text-anchor="start" x="146.66" y="-1455" font-family="Helvetica,sans-Serif" font-style="italic" font-size="10.00">ebuild</text>
</g>
<g id="clust2" class="cluster">
<title>cluster_midcol</title>
<polygon fill="none" stroke="gray" points="396,-950 396,-1846 1038,-1846 1038,-950 396,-950"/>
<text text-anchor="start" x="685.86" y="-1835" font-family="Helvetica,sans-Serif" font-style="italic" font-size="10.00">dependencies</text>
</g>
<g id="clust3" class="cluster">
<title>cluster_compile</title>
<polygon fill="#eeeeee" stroke="gray" points="404,-958 404,-1226 656,-1226 656,-958 404,-958"/>
<text text-anchor="start" x="512.77" y="-1215" font-family="Helvetica,sans-Serif" font-style="italic" font-size="10.00">compile</text>
</g>
<g id="clust6" class="cluster">
<title>cluster_compileandrun</title>
<polygon fill="#eeeeee" stroke="gray" points="404,-1234 404,-1820 1030,-1820 1030,-1234 404,-1234"/>
<text text-anchor="start" x="681.42" y="-1809" font-family="Helvetica,sans-Serif" font-style="italic" font-size="10.00">compile and run</text>
</g>
<g id="clust14" class="cluster">
<title>cluster_choices</title>
<polygon fill="none" stroke="gray" points="748,-8 748,-942 1052,-942 1052,-8 748,-8"/>
<text text-anchor="start" x="875.82" y="-931" font-family="Helvetica,sans-Serif" font-style="italic" font-size="10.00">candidates</text>
</g>
<!-- id -->
<g id="node1" class="node">
<title>id</title>
<g id="a_node1"><a xlink:href="../media-plugins/gst-plugins-x264-0.10.19-r1.svg" xlink:title="media&#45;plugins/gst&#45;plugins&#45;x264&#45;0.10.19&#45;r1">
<ellipse fill="none" stroke="red" cx="160" cy="-1422" rx="144" ry="18"/>
<text text-anchor="middle" x="160" y="-1419" font-family="Helvetica,sans-Serif" font-size="10.00">media&#45;plugins/gst&#45;plugins&#45;x264&#45;0.10.19&#45;r1</text>
</a>
</g>
</g>
<!-- dependency374760 -->
<g id="node2" class="node">
<title>dependency374760</title>
<polygon fill="none" stroke="blue" points="420,-1096 420,-1196 525,-1196 525,-1096 420,-1096"/>
<text text-anchor="start" x="450.82" y="-1143" font-family="Helvetica,sans-Serif" font-size="10.00">pack_dep</text>
<polygon fill="none" stroke="blue" points="525,-1176 525,-1196 635,-1196 635,-1176 525,-1176"/>
<text text-anchor="start" x="574.44" y="-1183" font-family="Helvetica,sans-Serif" font-size="10.00">no</text>
<polygon fill="none" stroke="blue" points="525,-1156 525,-1176 635,-1176 635,-1156 525,-1156"/>
<text text-anchor="start" x="559.99" y="-1163" font-family="Helvetica,sans-Serif" font-size="10.00">sys&#45;apps</text>
<polygon fill="none" stroke="blue" points="525,-1136 525,-1156 635,-1156 635,-1136 525,-1136"/>
<text text-anchor="start" x="571.94" y="-1143" font-family="Helvetica,sans-Serif" font-size="10.00">sed</text>
<polygon fill="none" stroke="blue" points="525,-1116 525,-1136 635,-1136 635,-1116 525,-1116"/>
<text text-anchor="start" x="551.92" y="-1123" font-family="Helvetica,sans-Serif" font-size="10.00">greaterequal</text>
<polygon fill="none" stroke="blue" points="525,-1096 525,-1116 635,-1116 635,-1096 525,-1096"/>
<text text-anchor="start" x="577.22" y="-1103" font-family="Helvetica,sans-Serif" font-size="10.00">4</text>
</g>
<!-- id&#45;&gt;dependency374760 -->
<g id="edge1" class="edge">
<title>id:e&#45;&gt;dependency374760:w</title>
<path fill="none" stroke="black" d="M305,-1422C432.81,-1422 287.96,-1160.89 400.86,-1146.61"/>
<polygon fill="black" stroke="black" points="411,-1146 401.29,-1151.09 406.01,-1146.3 401.02,-1146.6 401.02,-1146.6 401.02,-1146.6 406.01,-1146.3 400.75,-1142.11 411,-1146 411,-1146"/>
</g>
<!-- dependency374761 -->
<g id="node3" class="node">
<title>dependency374761</title>
<polygon fill="none" stroke="blue" points="420,-970 420,-1070 525,-1070 525,-970 420,-970"/>
<text text-anchor="start" x="450.82" y="-1017" font-family="Helvetica,sans-Serif" font-size="10.00">pack_dep</text>
<polygon fill="none" stroke="blue" points="525,-1050 525,-1070 635,-1070 635,-1050 525,-1050"/>
<text text-anchor="start" x="574.44" y="-1057" font-family="Helvetica,sans-Serif" font-size="10.00">no</text>
<polygon fill="none" stroke="blue" points="525,-1030 525,-1050 635,-1050 635,-1030 525,-1030"/>
<text text-anchor="start" x="566.66" y="-1037" font-family="Helvetica,sans-Serif" font-size="10.00">virtual</text>
<polygon fill="none" stroke="blue" points="525,-1010 525,-1030 635,-1030 635,-1010 525,-1010"/>
<text text-anchor="start" x="558.6" y="-1017" font-family="Helvetica,sans-Serif" font-size="10.00">pkgconfig</text>
<polygon fill="none" stroke="blue" points="525,-990 525,-1010 635,-1010 635,-990 525,-990"/>
<text text-anchor="start" x="551.92" y="-997" font-family="Helvetica,sans-Serif" font-size="10.00">greaterequal</text>
<polygon fill="none" stroke="blue" points="525,-970 525,-990 635,-990 635,-970 525,-970"/>
<text text-anchor="start" x="571.11" y="-977" font-family="Helvetica,sans-Serif" font-size="10.00">0&#45;r1</text>
</g>
<!-- id&#45;&gt;dependency374761 -->
<g id="edge2" class="edge">
<title>id:e&#45;&gt;dependency374761:w</title>
<path fill="none" stroke="black" d="M305,-1422C486.16,-1422 236.35,-1035.55 400.68,-1020.45"/>
<polygon fill="black" stroke="black" points="411,-1020 401.21,-1024.94 406,-1020.22 401.01,-1020.44 401.01,-1020.44 401.01,-1020.44 406,-1020.22 400.81,-1015.94 411,-1020 411,-1020"/>
</g>
<!-- dependency374762 -->
<g id="node4" class="node">
<title>dependency374762</title>
<polygon fill="none" stroke="red" points="454,-1750 454,-1790 545,-1790 545,-1750 454,-1750"/>
<text text-anchor="start" x="464.75" y="-1767" font-family="Helvetica,sans-Serif" font-size="10.00">use_conditional</text>
<polygon fill="none" stroke="red" points="545,-1770 545,-1790 606,-1790 606,-1770 545,-1770"/>
<text text-anchor="start" x="558.55" y="-1777" font-family="Helvetica,sans-Serif" font-size="10.00">positive</text>
<polygon fill="none" stroke="red" points="545,-1750 545,-1770 606,-1770 606,-1750 545,-1750"/>
<text text-anchor="start" x="549.64" y="-1757" font-family="Helvetica,sans-Serif" font-size="10.00">abi_x86_32</text>
</g>
<!-- id&#45;&gt;dependency374762 -->
<g id="edge4" class="edge">
<title>id:e&#45;&gt;dependency374762:w</title>
<path fill="none" stroke="black" d="M305,-1422C465.04,-1422 293.2,-1742.69 426.66,-1768.37"/>
<ellipse fill="none" stroke="black" cx="441.02" cy="-1769.65" rx="4" ry="4"/>
<polygon fill="black" stroke="black" points="437.03,-1769.29 426.67,-1772.89 432.05,-1768.85 427.07,-1768.41 427.07,-1768.41 427.07,-1768.41 432.05,-1768.85 427.47,-1763.92 437.03,-1769.29 437.03,-1769.29"/>
</g>
<!-- dependency374764 -->
<g id="node6" class="node">
<title>dependency374764</title>
<polygon fill="none" stroke="blue" points="420,-1624 420,-1724 525,-1724 525,-1624 420,-1624"/>
<text text-anchor="start" x="450.82" y="-1671" font-family="Helvetica,sans-Serif" font-size="10.00">pack_dep</text>
<polygon fill="none" stroke="blue" points="525,-1704 525,-1724 635,-1724 635,-1704 525,-1704"/>
<text text-anchor="start" x="574.44" y="-1711" font-family="Helvetica,sans-Serif" font-size="10.00">no</text>
<polygon fill="none" stroke="blue" points="525,-1684 525,-1704 635,-1704 635,-1684 525,-1684"/>
<text text-anchor="start" x="562.77" y="-1691" font-family="Helvetica,sans-Serif" font-size="10.00">dev&#45;libs</text>
<polygon fill="none" stroke="blue" points="525,-1664 525,-1684 635,-1684 635,-1664 525,-1664"/>
<text text-anchor="start" x="572.22" y="-1671" font-family="Helvetica,sans-Serif" font-size="10.00">glib</text>
<polygon fill="none" stroke="blue" points="525,-1644 525,-1664 635,-1664 635,-1644 525,-1644"/>
<text text-anchor="start" x="551.92" y="-1651" font-family="Helvetica,sans-Serif" font-size="10.00">greaterequal</text>
<polygon fill="none" stroke="blue" points="525,-1624 525,-1644 635,-1644 635,-1624 525,-1624"/>
<text text-anchor="start" x="559.99" y="-1631" font-family="Helvetica,sans-Serif" font-size="10.00">2.38.2&#45;r1</text>
</g>
<!-- id&#45;&gt;dependency374764 -->
<g id="edge5" class="edge">
<title>id:e&#45;&gt;dependency374764:w</title>
<path fill="none" stroke="black" d="M305,-1422C419.74,-1422 303.95,-1646.73 393.02,-1671.74"/>
<ellipse fill="none" stroke="black" cx="407.03" cy="-1673.5" rx="4" ry="4"/>
<polygon fill="black" stroke="black" points="403.06,-1673 392.58,-1676.22 398.1,-1672.38 393.14,-1671.76 393.14,-1671.76 393.14,-1671.76 398.1,-1672.38 393.7,-1667.29 403.06,-1673 403.06,-1673"/>
</g>
<!-- dependency374765 -->
<g id="node7" class="node">
<title>dependency374765</title>
<polygon fill="none" stroke="blue" points="420,-1498 420,-1598 525,-1598 525,-1498 420,-1498"/>
<text text-anchor="start" x="450.82" y="-1545" font-family="Helvetica,sans-Serif" font-size="10.00">pack_dep</text>
<polygon fill="none" stroke="blue" points="525,-1578 525,-1598 635,-1598 635,-1578 525,-1578"/>
<text text-anchor="start" x="574.44" y="-1585" font-family="Helvetica,sans-Serif" font-size="10.00">no</text>
<polygon fill="none" stroke="blue" points="525,-1558 525,-1578 635,-1578 635,-1558 525,-1558"/>
<text text-anchor="start" x="557.21" y="-1565" font-family="Helvetica,sans-Serif" font-size="10.00">media&#45;libs</text>
<polygon fill="none" stroke="blue" points="525,-1538 525,-1558 635,-1558 635,-1538 525,-1538"/>
<text text-anchor="start" x="544.98" y="-1545" font-family="Helvetica,sans-Serif" font-size="10.00">gst&#45;plugins&#45;ugly</text>
<polygon fill="none" stroke="blue" points="525,-1518 525,-1538 635,-1538 635,-1518 525,-1518"/>
<text text-anchor="start" x="551.92" y="-1525" font-family="Helvetica,sans-Serif" font-size="10.00">greaterequal</text>
<polygon fill="none" stroke="blue" points="525,-1498 525,-1518 635,-1518 635,-1498 525,-1498"/>
<text text-anchor="start" x="563.32" y="-1505" font-family="Helvetica,sans-Serif" font-size="10.00">0.10.19</text>
</g>
<!-- id&#45;&gt;dependency374765 -->
<g id="edge6" class="edge">
<title>id:e&#45;&gt;dependency374765:w</title>
<path fill="none" stroke="black" d="M305,-1422C371.32,-1422 344.39,-1525.48 393.22,-1544.89"/>
<ellipse fill="none" stroke="black" cx="407.06" cy="-1547.31" rx="4" ry="4"/>
<polygon fill="black" stroke="black" points="403.12,-1546.62 392.49,-1549.33 398.2,-1545.76 393.27,-1544.89 393.27,-1544.89 393.27,-1544.89 398.2,-1545.76 394.05,-1540.46 403.12,-1546.62 403.12,-1546.62"/>
</g>
<!-- dependency374766 -->
<g id="node8" class="node">
<title>dependency374766</title>
<polygon fill="none" stroke="blue" points="420,-1372 420,-1472 525,-1472 525,-1372 420,-1372"/>
<text text-anchor="start" x="450.82" y="-1419" font-family="Helvetica,sans-Serif" font-size="10.00">pack_dep</text>
<polygon fill="none" stroke="blue" points="525,-1452 525,-1472 635,-1472 635,-1452 525,-1452"/>
<text text-anchor="start" x="574.44" y="-1459" font-family="Helvetica,sans-Serif" font-size="10.00">no</text>
<polygon fill="none" stroke="blue" points="525,-1432 525,-1452 635,-1452 635,-1432 525,-1432"/>
<text text-anchor="start" x="557.21" y="-1439" font-family="Helvetica,sans-Serif" font-size="10.00">media&#45;libs</text>
<polygon fill="none" stroke="blue" points="525,-1412 525,-1432 635,-1432 635,-1412 525,-1412"/>
<text text-anchor="start" x="557.49" y="-1419" font-family="Helvetica,sans-Serif" font-size="10.00">gstreamer</text>
<polygon fill="none" stroke="blue" points="525,-1392 525,-1412 635,-1412 635,-1392 525,-1392"/>
<text text-anchor="start" x="551.92" y="-1399" font-family="Helvetica,sans-Serif" font-size="10.00">greaterequal</text>
<polygon fill="none" stroke="blue" points="525,-1372 525,-1392 635,-1392 635,-1372 525,-1372"/>
<text text-anchor="start" x="557.21" y="-1379" font-family="Helvetica,sans-Serif" font-size="10.00">0.10.36&#45;r2</text>
</g>
<!-- id&#45;&gt;dependency374766 -->
<g id="edge7" class="edge">
<title>id:e&#45;&gt;dependency374766:w</title>
<path fill="none" stroke="black" d="M305,-1422C345.3,-1422 359.75,-1422 392.57,-1422"/>
<ellipse fill="none" stroke="black" cx="407" cy="-1422" rx="4" ry="4"/>
<polygon fill="black" stroke="black" points="403,-1422 393,-1426.5 398,-1422 393,-1422 393,-1422 393,-1422 398,-1422 393,-1417.5 403,-1422 403,-1422"/>
</g>
<!-- dependency374767 -->
<g id="node9" class="node">
<title>dependency374767</title>
<polygon fill="none" stroke="blue" points="420,-1246 420,-1346 525,-1346 525,-1246 420,-1246"/>
<text text-anchor="start" x="450.82" y="-1293" font-family="Helvetica,sans-Serif" font-size="10.00">pack_dep</text>
<polygon fill="none" stroke="blue" points="525,-1326 525,-1346 635,-1346 635,-1326 525,-1326"/>
<text text-anchor="start" x="574.44" y="-1333" font-family="Helvetica,sans-Serif" font-size="10.00">no</text>
<polygon fill="none" stroke="blue" points="525,-1306 525,-1326 635,-1326 635,-1306 525,-1306"/>
<text text-anchor="start" x="557.21" y="-1313" font-family="Helvetica,sans-Serif" font-size="10.00">media&#45;libs</text>
<polygon fill="none" stroke="blue" points="525,-1286 525,-1306 635,-1306 635,-1286 525,-1286"/>
<text text-anchor="start" x="569.16" y="-1293" font-family="Helvetica,sans-Serif" font-size="10.00">x264</text>
<polygon fill="none" stroke="blue" points="525,-1266 525,-1286 635,-1286 635,-1266 525,-1266"/>
<text text-anchor="start" x="551.92" y="-1273" font-family="Helvetica,sans-Serif" font-size="10.00">greaterequal</text>
<polygon fill="none" stroke="blue" points="525,-1246 525,-1266 635,-1266 635,-1246 525,-1246"/>
<text text-anchor="start" x="549.41" y="-1253" font-family="Helvetica,sans-Serif" font-size="10.00">0.0.20130506</text>
</g>
<!-- id&#45;&gt;dependency374767 -->
<g id="edge8" class="edge">
<title>id:e&#45;&gt;dependency374767:w</title>
<path fill="none" stroke="black" d="M305,-1422C371.32,-1422 344.39,-1318.52 393.22,-1299.11"/>
<ellipse fill="none" stroke="black" cx="407.06" cy="-1296.69" rx="4" ry="4"/>
<polygon fill="black" stroke="black" points="403.12,-1297.38 394.05,-1303.54 398.2,-1298.24 393.27,-1299.11 393.27,-1299.11 393.27,-1299.11 398.2,-1298.24 392.49,-1294.67 403.12,-1297.38 403.12,-1297.38"/>
</g>
<!-- choice115121115459711211211547115101100455246504650 -->
<g id="node10" class="node">
<title>choice115121115459711211211547115101100455246504650</title>
<g id="a_node10"><a xlink:href="../sys-apps/sed-4.2.2.svg" xlink:title="sys&#45;apps/sed&#45;4.2.2">
<ellipse fill="none" stroke="red" cx="900" cy="-142" rx="144" ry="18"/>
<text text-anchor="middle" x="900" y="-139" font-family="Helvetica,sans-Serif" font-size="10.00">sys&#45;apps/sed&#45;4.2.2</text>
</a>
</g>
</g>
<!-- dependency374760&#45;&gt;choice115121115459711211211547115101100455246504650 -->
<g id="edge9" class="edge">
<title>dependency374760:e&#45;&gt;choice115121115459711211211547115101100455246504650:w</title>
<path fill="none" stroke="black" stroke-dasharray="1,5" d="M649,-1146C869.85,-1146 541.22,-173.13 744.89,-142.73"/>
<polygon fill="black" stroke="black" points="755,-142 745.35,-147.21 750.01,-142.36 745.03,-142.72 745.03,-142.72 745.03,-142.72 750.01,-142.36 744.7,-138.23 755,-142 755,-142"/>
</g>
<!-- choice115121115459711211211547115101100455246514511449 -->
<g id="node11" class="node">
<title>choice115121115459711211211547115101100455246514511449</title>
<g id="a_node11"><a xlink:href="../sys-apps/sed-4.3-r1.svg" xlink:title="sys&#45;apps/sed&#45;4.3&#45;r1">
<ellipse fill="none" stroke="red" cx="900" cy="-88" rx="144" ry="18"/>
<text text-anchor="middle" x="900" y="-85" font-family="Helvetica,sans-Serif" font-size="10.00">sys&#45;apps/sed&#45;4.3&#45;r1</text>
</a>
</g>
</g>
<!-- dependency374760&#45;&gt;choice115121115459711211211547115101100455246514511449 -->
<g id="edge10" class="edge">
<title>dependency374760:e&#45;&gt;choice115121115459711211211547115101100455246514511449:w</title>
<path fill="none" stroke="black" stroke-dasharray="1,5" d="M649,-1146C881.83,-1146 529.32,-118.77 745,-88.67"/>
<polygon fill="black" stroke="black" points="755,-88 745.33,-93.16 750.01,-88.34 745.02,-88.67 745.02,-88.67 745.02,-88.67 750.01,-88.34 744.72,-84.18 755,-88 755,-88"/>
</g>
<!-- choice11512111545971121121154711510110045524652 -->
<g id="node12" class="node">
<title>choice11512111545971121121154711510110045524652</title>
<g id="a_node12"><a xlink:href="../sys-apps/sed-4.4.svg" xlink:title="sys&#45;apps/sed&#45;4.4">
<ellipse fill="none" stroke="red" cx="900" cy="-196" rx="144" ry="18"/>
<text text-anchor="middle" x="900" y="-193" font-family="Helvetica,sans-Serif" font-size="10.00">sys&#45;apps/sed&#45;4.4</text>
</a>
</g>
</g>
<!-- dependency374760&#45;&gt;choice11512111545971121121154711510110045524652 -->
<g id="edge11" class="edge">
<title>dependency374760:e&#45;&gt;choice11512111545971121121154711510110045524652:w</title>
<path fill="none" stroke="black" stroke-dasharray="1,5" d="M649,-1146C857.89,-1146 553.02,-227.28 744.85,-196.78"/>
<polygon fill="black" stroke="black" points="755,-196 745.37,-201.25 750.01,-196.38 745.03,-196.76 745.03,-196.76 745.03,-196.76 750.01,-196.38 744.69,-192.28 755,-196 755,-196"/>
</g>
<!-- choice11810511411611797108471121071039911111010210510345484511449 -->
<g id="node13" class="node">
<title>choice11810511411611797108471121071039911111010210510345484511449</title>
<g id="a_node13"><a xlink:href="../virtual/pkgconfig-0-r1.svg" xlink:title="virtual/pkgconfig&#45;0&#45;r1">
<ellipse fill="none" stroke="red" cx="900" cy="-34" rx="144" ry="18"/>
<text text-anchor="middle" x="900" y="-31" font-family="Helvetica,sans-Serif" font-size="10.00">virtual/pkgconfig&#45;0&#45;r1</text>
</a>
</g>
</g>
<!-- dependency374761&#45;&gt;choice11810511411611797108471121071039911111010210510345484511449 -->
<g id="edge12" class="edge">
<title>dependency374761:e&#45;&gt;choice11810511411611797108471121071039911111010210510345484511449:w</title>
<path fill="none" stroke="black" stroke-dasharray="1,5" d="M649,-1020C865.82,-1020 545.27,-65.52 744.77,-34.76"/>
<polygon fill="black" stroke="black" points="755,-34 745.36,-39.23 750.01,-34.37 745.03,-34.74 745.03,-34.74 745.03,-34.74 750.01,-34.37 744.69,-30.25 755,-34 755,-34"/>
</g>
<!-- dependency374763 -->
<g id="node5" class="node">
<title>dependency374763</title>
<polygon fill="none" stroke="blue" points="786,-1700 786,-1790 891,-1790 891,-1700 786,-1700"/>
<text text-anchor="start" x="816.82" y="-1742" font-family="Helvetica,sans-Serif" font-size="10.00">pack_dep</text>
<polygon fill="none" stroke="blue" points="891,-1770 891,-1790 1014,-1790 1014,-1770 891,-1770"/>
<text text-anchor="start" x="940.83" y="-1777" font-family="Helvetica,sans-Serif" font-size="10.00">weak</text>
<polygon fill="none" stroke="blue" points="891,-1750 891,-1770 1014,-1770 1014,-1750 891,-1750"/>
<text text-anchor="start" x="920.81" y="-1757" font-family="Helvetica,sans-Serif" font-size="10.00">app&#45;emulation</text>
<polygon fill="none" stroke="blue" points="891,-1730 891,-1750 1014,-1750 1014,-1730 891,-1730"/>
<text text-anchor="start" x="895.81" y="-1737" font-family="Helvetica,sans-Serif" font-size="10.00">emul&#45;linux&#45;x86&#45;gstplugins</text>
<polygon fill="none" stroke="blue" points="891,-1710 891,-1730 1014,-1730 1014,-1710 891,-1710"/>
<text text-anchor="start" x="941.38" y="-1717" font-family="Helvetica,sans-Serif" font-size="10.00">none</text>
<polygon fill="none" stroke="blue" points="891,-1700 891,-1710 1014,-1710 1014,-1700 891,-1700"/>
</g>
<!-- dependency374762&#45;&gt;dependency374763 -->
<g id="edge3" class="edge">
<title>dependency374762:e&#45;&gt;dependency374763:w</title>
<path fill="none" stroke="black" stroke-dasharray="5,2" d="M615,-1770C684.3,-1770 702.42,-1747.38 766.72,-1745.17"/>
<polygon fill="black" stroke="black" points="777,-1745 767.08,-1749.67 772,-1745.08 767,-1745.17 767,-1745.17 767,-1745.17 772,-1745.08 766.93,-1740.67 777,-1745 777,-1745"/>
</g>
<!-- choice10010111845108105981154710310810598455046534846514511449 -->
<g id="node14" class="node">
<title>choice10010111845108105981154710310810598455046534846514511449</title>
<g id="a_node14"><a xlink:href="../dev-libs/glib-2.50.3-r1.svg" xlink:title="dev&#45;libs/glib&#45;2.50.3&#45;r1">
<ellipse fill="none" stroke="red" cx="900" cy="-844" rx="144" ry="18"/>
<text text-anchor="middle" x="900" y="-841" font-family="Helvetica,sans-Serif" font-size="10.00">dev&#45;libs/glib&#45;2.50.3&#45;r1</text>
</a>
</g>
</g>
<!-- dependency374764&#45;&gt;choice10010111845108105981154710310810598455046534846514511449 -->
<g id="edge13" class="edge">
<title>dependency374764:e&#45;&gt;choice10010111845108105981154710310810598455046534846514511449:w</title>
<path fill="none" stroke="black" stroke-dasharray="1,5" d="M649,-1674C831.31,-1674 579.27,-876.11 744.62,-844.94"/>
<polygon fill="black" stroke="black" points="755,-844 745.45,-849.38 750.02,-844.45 745.04,-844.9 745.04,-844.9 745.04,-844.9 750.02,-844.45 744.64,-840.42 755,-844 755,-844"/>
</g>
<!-- choice1001011184510810598115471031081059845504653504651 -->
<g id="node15" class="node">
<title>choice1001011184510810598115471031081059845504653504651</title>
<g id="a_node15"><a xlink:href="../dev-libs/glib-2.52.3.svg" xlink:title="dev&#45;libs/glib&#45;2.52.3">
<ellipse fill="none" stroke="red" cx="900" cy="-898" rx="144" ry="18"/>
<text text-anchor="middle" x="900" y="-895" font-family="Helvetica,sans-Serif" font-size="10.00">dev&#45;libs/glib&#45;2.52.3</text>
</a>
</g>
</g>
<!-- dependency374764&#45;&gt;choice1001011184510810598115471031081059845504653504651 -->
<g id="edge14" class="edge">
<title>dependency374764:e&#45;&gt;choice1001011184510810598115471031081059845504653504651:w</title>
<path fill="none" stroke="black" stroke-dasharray="1,5" d="M649,-1674C819.48,-1674 590.71,-929.5 744.81,-898.97"/>
<polygon fill="black" stroke="black" points="755,-898 745.47,-903.42 750.02,-898.47 745.04,-898.94 745.04,-898.94 745.04,-898.94 750.02,-898.47 744.62,-894.46 755,-898 755,-898"/>
</g>
<!-- choice10910110010597451081059811547103115116451121081171031051101154511710310812145484649484649574511449 -->
<g id="node16" class="node">
<title>choice10910110010597451081059811547103115116451121081171031051101154511710310812145484649484649574511449</title>
<g id="a_node16"><a xlink:href="../media-libs/gst-plugins-ugly-0.10.19-r1.svg" xlink:title="media&#45;libs/gst&#45;plugins&#45;ugly&#45;0.10.19&#45;r1">
<ellipse fill="none" stroke="red" cx="900" cy="-736" rx="144" ry="18"/>
<text text-anchor="middle" x="900" y="-733" font-family="Helvetica,sans-Serif" font-size="10.00">media&#45;libs/gst&#45;plugins&#45;ugly&#45;0.10.19&#45;r1</text>
</a>
</g>
</g>
<!-- dependency374765&#45;&gt;choice10910110010597451081059811547103115116451121081171031051101154511710310812145484649484649574511449 -->
<g id="edge15" class="edge">
<title>dependency374765:e&#45;&gt;choice10910110010597451081059811547103115116451121081171031051101154511710310812145484649484649574511449:w</title>
<path fill="none" stroke="black" stroke-dasharray="1,5" d="M649,-1548C827.42,-1548 582.93,-767.41 744.83,-736.92"/>
<polygon fill="black" stroke="black" points="755,-736 745.44,-741.38 750.02,-736.45 745.04,-736.9 745.04,-736.9 745.04,-736.9 750.02,-736.45 744.64,-732.42 755,-736 755,-736"/>
</g>
<!-- choice10910110010597451081059811547103115116451121081171031051101154511710310812145494649484651 -->
<g id="node17" class="node">
<title>choice10910110010597451081059811547103115116451121081171031051101154511710310812145494649484651</title>
<g id="a_node17"><a xlink:href="../media-libs/gst-plugins-ugly-1.10.3.svg" xlink:title="media&#45;libs/gst&#45;plugins&#45;ugly&#45;1.10.3">
<ellipse fill="none" stroke="red" cx="900" cy="-682" rx="144" ry="18"/>
<text text-anchor="middle" x="900" y="-679" font-family="Helvetica,sans-Serif" font-size="10.00">media&#45;libs/gst&#45;plugins&#45;ugly&#45;1.10.3</text>
</a>
</g>
</g>
<!-- dependency374765&#45;&gt;choice10910110010597451081059811547103115116451121081171031051101154511710310812145494649484651 -->
<g id="edge16" class="edge">
<title>dependency374765:e&#45;&gt;choice10910110010597451081059811547103115116451121081171031051101154511710310812145494649484651:w</title>
<path fill="none" stroke="black" stroke-dasharray="1,5" d="M649,-1548C839.38,-1548 571.14,-713.01 744.95,-682.84"/>
<polygon fill="black" stroke="black" points="755,-682 745.41,-687.32 750.02,-682.42 745.03,-682.83 745.03,-682.83 745.03,-682.83 750.02,-682.42 744.66,-678.35 755,-682 755,-682"/>
</g>
<!-- choice10910110010597451081059811547103115116451121081171031051101154511710310812145494649484653 -->
<g id="node18" class="node">
<title>choice10910110010597451081059811547103115116451121081171031051101154511710310812145494649484653</title>
<g id="a_node18"><a xlink:href="../media-libs/gst-plugins-ugly-1.10.5.svg" xlink:title="media&#45;libs/gst&#45;plugins&#45;ugly&#45;1.10.5">
<ellipse fill="none" stroke="red" cx="900" cy="-628" rx="144" ry="18"/>
<text text-anchor="middle" x="900" y="-625" font-family="Helvetica,sans-Serif" font-size="10.00">media&#45;libs/gst&#45;plugins&#45;ugly&#45;1.10.5</text>
</a>
</g>
</g>
<!-- dependency374765&#45;&gt;choice10910110010597451081059811547103115116451121081171031051101154511710310812145494649484653 -->
<g id="edge17" class="edge">
<title>dependency374765:e&#45;&gt;choice10910110010597451081059811547103115116451121081171031051101154511710310812145494649484653:w</title>
<path fill="none" stroke="black" stroke-dasharray="1,5" d="M649,-1548C851.28,-1548 559.5,-659.18 744.89,-628.8"/>
<polygon fill="black" stroke="black" points="755,-628 745.38,-633.27 750.02,-628.39 745.03,-628.79 745.03,-628.79 745.03,-628.79 750.02,-628.39 744.68,-624.3 755,-628 755,-628"/>
</g>
<!-- choice10910110010597451081059811547103115116451121081171031051101154511710310812145494649504651 -->
<g id="node19" class="node">
<title>choice10910110010597451081059811547103115116451121081171031051101154511710310812145494649504651</title>
<g id="a_node19"><a xlink:href="../media-libs/gst-plugins-ugly-1.12.3.svg" xlink:title="media&#45;libs/gst&#45;plugins&#45;ugly&#45;1.12.3">
<ellipse fill="none" stroke="red" cx="900" cy="-790" rx="144" ry="18"/>
<text text-anchor="middle" x="900" y="-787" font-family="Helvetica,sans-Serif" font-size="10.00">media&#45;libs/gst&#45;plugins&#45;ugly&#45;1.12.3</text>
</a>
</g>
</g>
<!-- dependency374765&#45;&gt;choice10910110010597451081059811547103115116451121081171031051101154511710310812145494649504651 -->
<g id="edge18" class="edge">
<title>dependency374765:e&#45;&gt;choice10910110010597451081059811547103115116451121081171031051101154511710310812145494649504651:w</title>
<path fill="none" stroke="black" stroke-dasharray="1,5" d="M649,-1548C815.6,-1548 594.35,-820.77 745.04,-790.94"/>
<polygon fill="black" stroke="black" points="755,-790 745.47,-795.42 750.02,-790.47 745.04,-790.94 745.04,-790.94 745.04,-790.94 750.02,-790.47 744.62,-786.46 755,-790 755,-790"/>
</g>
<!-- choice109101100105974510810598115471031151161141019710910111445484649484651544511450 -->
<g id="node20" class="node">
<title>choice109101100105974510810598115471031151161141019710910111445484649484651544511450</title>
<g id="a_node20"><a xlink:href="../media-libs/gstreamer-0.10.36-r2.svg" xlink:title="media&#45;libs/gstreamer&#45;0.10.36&#45;r2">
<ellipse fill="none" stroke="red" cx="900" cy="-520" rx="144" ry="18"/>
<text text-anchor="middle" x="900" y="-517" font-family="Helvetica,sans-Serif" font-size="10.00">media&#45;libs/gstreamer&#45;0.10.36&#45;r2</text>
</a>
</g>
</g>
<!-- dependency374766&#45;&gt;choice109101100105974510810598115471031151161141019710910111445484649484651544511450 -->
<g id="edge19" class="edge">
<title>dependency374766:e&#45;&gt;choice109101100105974510810598115471031151161141019710910111445484649484651544511450:w</title>
<path fill="none" stroke="black" stroke-dasharray="1,5" d="M649,-1422C847.28,-1422 563.49,-551.43 744.81,-520.83"/>
<polygon fill="black" stroke="black" points="755,-520 745.4,-525.29 750.02,-520.4 745.03,-520.81 745.03,-520.81 745.03,-520.81 750.02,-520.4 744.67,-516.32 755,-520 755,-520"/>
</g>
<!-- choice109101100105974510810598115471031151161141019710910111445494649484651 -->
<g id="node21" class="node">
<title>choice109101100105974510810598115471031151161141019710910111445494649484651</title>
<g id="a_node21"><a xlink:href="../media-libs/gstreamer-1.10.3.svg" xlink:title="media&#45;libs/gstreamer&#45;1.10.3">
<ellipse fill="none" stroke="red" cx="900" cy="-466" rx="144" ry="18"/>
<text text-anchor="middle" x="900" y="-463" font-family="Helvetica,sans-Serif" font-size="10.00">media&#45;libs/gstreamer&#45;1.10.3</text>
</a>
</g>
</g>
<!-- dependency374766&#45;&gt;choice109101100105974510810598115471031151161141019710910111445494649484651 -->
<g id="edge20" class="edge">
<title>dependency374766:e&#45;&gt;choice109101100105974510810598115471031151161141019710910111445494649484651:w</title>
<path fill="none" stroke="black" stroke-dasharray="1,5" d="M649,-1422C859.2,-1422 551.78,-497.48 744.79,-466.78"/>
<polygon fill="black" stroke="black" points="755,-466 745.37,-471.25 750.01,-466.38 745.03,-466.76 745.03,-466.76 745.03,-466.76 750.01,-466.38 744.69,-462.28 755,-466 755,-466"/>
</g>
<!-- choice109101100105974510810598115471031151161141019710910111445494649484653 -->
<g id="node22" class="node">
<title>choice109101100105974510810598115471031151161141019710910111445494649484653</title>
<g id="a_node22"><a xlink:href="../media-libs/gstreamer-1.10.5.svg" xlink:title="media&#45;libs/gstreamer&#45;1.10.5">
<ellipse fill="none" stroke="red" cx="900" cy="-412" rx="144" ry="18"/>
<text text-anchor="middle" x="900" y="-409" font-family="Helvetica,sans-Serif" font-size="10.00">media&#45;libs/gstreamer&#45;1.10.5</text>
</a>
</g>
</g>
<!-- dependency374766&#45;&gt;choice109101100105974510810598115471031151161141019710910111445494649484653 -->
<g id="edge21" class="edge">
<title>dependency374766:e&#45;&gt;choice109101100105974510810598115471031151161141019710910111445494649484653:w</title>
<path fill="none" stroke="black" stroke-dasharray="1,5" d="M649,-1422C871.15,-1422 539.98,-443.32 744.84,-412.73"/>
<polygon fill="black" stroke="black" points="755,-412 745.35,-417.21 750.01,-412.36 745.03,-412.72 745.03,-412.72 745.03,-412.72 750.01,-412.36 744.7,-408.23 755,-412 755,-412"/>
</g>
<!-- choice109101100105974510810598115471031151161141019710910111445494649504651 -->
<g id="node23" class="node">
<title>choice109101100105974510810598115471031151161141019710910111445494649504651</title>
<g id="a_node23"><a xlink:href="../media-libs/gstreamer-1.12.3.svg" xlink:title="media&#45;libs/gstreamer&#45;1.12.3">
<ellipse fill="none" stroke="red" cx="900" cy="-574" rx="144" ry="18"/>
<text text-anchor="middle" x="900" y="-571" font-family="Helvetica,sans-Serif" font-size="10.00">media&#45;libs/gstreamer&#45;1.12.3</text>
</a>
</g>
</g>
<!-- dependency374766&#45;&gt;choice109101100105974510810598115471031151161141019710910111445494649504651 -->
<g id="edge22" class="edge">
<title>dependency374766:e&#45;&gt;choice109101100105974510810598115471031151161141019710910111445494649504651:w</title>
<path fill="none" stroke="black" stroke-dasharray="1,5" d="M649,-1422C835.39,-1422 575.09,-605.18 744.9,-574.87"/>
<polygon fill="black" stroke="black" points="755,-574 745.42,-579.34 750.02,-574.43 745.04,-574.85 745.04,-574.85 745.04,-574.85 750.02,-574.43 744.65,-570.37 755,-574 755,-574"/>
</g>
<!-- choice1091011001059745108105981154712050545245484648465048495448554950 -->
<g id="node24" class="node">
<title>choice1091011001059745108105981154712050545245484648465048495448554950</title>
<g id="a_node24"><a xlink:href="../media-libs/x264-0.0.20160712.svg" xlink:title="media&#45;libs/x264&#45;0.0.20160712">
<ellipse fill="none" stroke="red" cx="900" cy="-250" rx="144" ry="18"/>
<text text-anchor="middle" x="900" y="-247" font-family="Helvetica,sans-Serif" font-size="10.00">media&#45;libs/x264&#45;0.0.20160712</text>
</a>
</g>
</g>
<!-- dependency374767&#45;&gt;choice1091011001059745108105981154712050545245484648465048495448554950 -->
<g id="edge23" class="edge">
<title>dependency374767:e&#45;&gt;choice1091011001059745108105981154712050545245484648465048495448554950:w</title>
<path fill="none" stroke="black" stroke-dasharray="1,5" d="M649,-1296C879.1,-1296 532.17,-281.43 744.8,-250.71"/>
<polygon fill="black" stroke="black" points="755,-250 745.34,-255.18 750.01,-250.35 745.02,-250.7 745.02,-250.7 745.02,-250.7 750.01,-250.35 744.71,-246.21 755,-250 755,-250"/>
</g>
<!-- choice1091011001059745108105981154712050545245484648465048495548554849 -->
<g id="node25" class="node">
<title>choice1091011001059745108105981154712050545245484648465048495548554849</title>
<g id="a_node25"><a xlink:href="../media-libs/x264-0.0.20170701.svg" xlink:title="media&#45;libs/x264&#45;0.0.20170701">
<ellipse fill="none" stroke="red" cx="900" cy="-358" rx="144" ry="18"/>
<text text-anchor="middle" x="900" y="-355" font-family="Helvetica,sans-Serif" font-size="10.00">media&#45;libs/x264&#45;0.0.20170701</text>
</a>
</g>
</g>
<!-- dependency374767&#45;&gt;choice1091011001059745108105981154712050545245484648465048495548554849 -->
<g id="edge24" class="edge">
<title>dependency374767:e&#45;&gt;choice1091011001059745108105981154712050545245484648465048495548554849:w</title>
<path fill="none" stroke="black" stroke-dasharray="1,5" d="M649,-1296C855.29,-1296 555.5,-388.89 744.98,-358.77"/>
<polygon fill="black" stroke="black" points="755,-358 745.37,-363.25 750.01,-358.38 745.03,-358.76 745.03,-358.76 745.03,-358.76 750.01,-358.38 744.69,-354.28 755,-358 755,-358"/>
</g>
<!-- choice109101100105974510810598115471205054524557575757 -->
<g id="node26" class="node">
<title>choice109101100105974510810598115471205054524557575757</title>
<g id="a_node26"><a xlink:href="../media-libs/x264-9999.svg" xlink:title="media&#45;libs/x264&#45;9999">
<ellipse fill="none" stroke="red" cx="900" cy="-304" rx="144" ry="18"/>
<text text-anchor="middle" x="900" y="-301" font-family="Helvetica,sans-Serif" font-size="10.00">media&#45;libs/x264&#45;9999</text>
</a>
</g>
</g>
<!-- dependency374767&#45;&gt;choice109101100105974510810598115471205054524557575757 -->
<g id="edge25" class="edge">
<title>dependency374767:e&#45;&gt;choice109101100105974510810598115471205054524557575757:w</title>
<path fill="none" stroke="black" stroke-dasharray="1,5" d="M649,-1296C867.24,-1296 543.71,-334.76 745.01,-304.72"/>
<polygon fill="black" stroke="black" points="755,-304 745.35,-309.21 750.01,-304.36 745.03,-304.72 745.03,-304.72 745.03,-304.72 750.01,-304.36 744.7,-300.23 755,-304 755,-304"/>
</g>
</g>
</svg>
