<?xml version="1.0" encoding="UTF-8" standalone="no"?>
<!DOCTYPE svg PUBLIC "-//W3C//DTD SVG 1.1//EN"
 "http://www.w3.org/Graphics/SVG/1.1/DTD/svg11.dtd">
<!-- Generated by graphviz version 2.41.20171026.1811 (20171026.1811)
 -->
<!-- Title: prolog Pages: 1 -->
<svg width="1083pt" height="1824pt"
 viewBox="0.00 0.00 1082.61 1824.00" xmlns="http://www.w3.org/2000/svg" xmlns:xlink="http://www.w3.org/1999/xlink">
<g id="graph0" class="graph" transform="scale(1 1) rotate(0) translate(4 1820)">
<title>prolog</title>
<polygon fill="white" stroke="transparent" points="-4,4 -4,-1820 1078.61,-1820 1078.61,4 -4,4"/>
<g id="clust1" class="cluster">
<title>cluster_leftcol</title>
<polygon fill="none" stroke="gray" points="8,-1023 8,-1095 312,-1095 312,-1023 8,-1023"/>
<text text-anchor="start" x="146.66" y="-1083" font-family="Helvetica,sans-Serif" font-style="italic" font-size="10.00">ebuild</text>
</g>
<g id="clust2" class="cluster">
<title>cluster_midcol</title>
<polygon fill="none" stroke="gray" points="396,-295 396,-1661 664,-1661 664,-295 396,-295"/>
<text text-anchor="start" x="498.88" y="-1649" font-family="Helvetica,sans-Serif" font-style="italic" font-size="10.00">dependencies</text>
</g>
<g id="clust3" class="cluster">
<title>cluster_compile</title>
<polygon fill="#eeeeee" stroke="gray" points="404,-1085 404,-1633 656,-1633 656,-1085 404,-1085"/>
<text text-anchor="start" x="512.78" y="-1621" font-family="Helvetica,sans-Serif" font-style="italic" font-size="10.00">compile</text>
</g>
<g id="clust7" class="cluster">
<title>cluster_compileandrun</title>
<polygon fill="#eeeeee" stroke="gray" points="404,-453 404,-1033 656,-1033 656,-453 404,-453"/>
<text text-anchor="start" x="494.44" y="-1021" font-family="Helvetica,sans-Serif" font-style="italic" font-size="10.00">compile and run</text>
</g>
<g id="clust10" class="cluster">
<title>cluster_run</title>
<polygon fill="#eeeeee" stroke="gray" points="404,-303 404,-445 656,-445 656,-303 404,-303"/>
<text text-anchor="start" x="522.78" y="-433" font-family="Helvetica,sans-Serif" font-style="italic" font-size="10.00">run</text>
</g>
<g id="clust12" class="cluster">
<title>cluster_choices</title>
<polygon fill="none" stroke="gray" points="748,-8 748,-1808 1066.61,-1808 1066.61,-8 748,-8"/>
<text text-anchor="start" x="883.13" y="-1796" font-family="Helvetica,sans-Serif" font-style="italic" font-size="10.00">candidates</text>
</g>
<!-- id -->
<g id="node1" class="node">
<title>id</title>
<g id="a_node1"><a xlink:href="../media-plugins/kodi-game-libretro-dosbox-9999.svg" xlink:title="media&#45;plugins/kodi&#45;game&#45;libretro&#45;dosbox&#45;9999">
<ellipse fill="none" stroke="red" cx="160" cy="-1049" rx="144" ry="18"/>
<text text-anchor="middle" x="160" y="-1046" font-family="Helvetica,sans-Serif" font-size="10.00">media&#45;plugins/kodi&#45;game&#45;libretro&#45;dosbox&#45;9999</text>
</a>
</g>
</g>
<!-- dependency1621358 -->
<g id="node2" class="node">
<title>dependency1621358</title>
<polygon fill="none" stroke="blue" points="420,-1491 420,-1601 525,-1601 525,-1491 420,-1491"/>
<text text-anchor="start" x="450.82" y="-1543" font-family="Helvetica,sans-Serif" font-size="10.00">pack_dep</text>
<polygon fill="none" stroke="blue" points="525,-1579 525,-1601 635,-1601 635,-1579 525,-1579"/>
<text text-anchor="start" x="574.44" y="-1587" font-family="Helvetica,sans-Serif" font-size="10.00">no</text>
<polygon fill="none" stroke="blue" points="525,-1557 525,-1579 635,-1579 635,-1557 525,-1557"/>
<text text-anchor="start" x="563.89" y="-1565" font-family="Helvetica,sans-Serif" font-size="10.00">dev&#45;util</text>
<polygon fill="none" stroke="blue" points="525,-1535 525,-1557 635,-1557 635,-1535 525,-1535"/>
<text text-anchor="start" x="565.28" y="-1543" font-family="Helvetica,sans-Serif" font-size="10.00">cmake</text>
<polygon fill="none" stroke="blue" points="525,-1513 525,-1535 635,-1535 635,-1513 525,-1513"/>
<text text-anchor="start" x="551.94" y="-1521" font-family="Helvetica,sans-Serif" font-size="10.00">greaterequal</text>
<polygon fill="none" stroke="blue" points="525,-1491 525,-1513 635,-1513 635,-1491 525,-1491"/>
<text text-anchor="start" x="568.88" y="-1499" font-family="Helvetica,sans-Serif" font-size="10.00">3.9.6</text>
</g>
<!-- id&#45;&gt;dependency1621358 -->
<g id="edge1" class="edge">
<title>id:e&#45;&gt;dependency1621358:w</title>
<path fill="none" stroke="black" d="M305,-1049C527.33,-1049 195.81,-1530.59 400.83,-1545.64"/>
<polygon fill="black" stroke="black" points="411,-1546 400.85,-1550.14 406,-1545.82 401.01,-1545.65 401.01,-1545.65 401.01,-1545.65 406,-1545.82 401.17,-1541.15 411,-1546 411,-1546"/>
</g>
<!-- dependency1621359 -->
<g id="node3" class="node">
<title>dependency1621359</title>
<polygon fill="none" stroke="blue" points="420,-1221 420,-1331 525,-1331 525,-1221 420,-1221"/>
<text text-anchor="start" x="450.82" y="-1273" font-family="Helvetica,sans-Serif" font-size="10.00">pack_dep</text>
<polygon fill="none" stroke="blue" points="525,-1309 525,-1331 635,-1331 635,-1309 525,-1309"/>
<text text-anchor="start" x="574.44" y="-1317" font-family="Helvetica,sans-Serif" font-size="10.00">no</text>
<polygon fill="none" stroke="blue" points="525,-1287 525,-1309 635,-1309 635,-1287 525,-1287"/>
<text text-anchor="start" x="562.78" y="-1295" font-family="Helvetica,sans-Serif" font-size="10.00">dev&#45;vcs</text>
<polygon fill="none" stroke="blue" points="525,-1265 525,-1287 635,-1287 635,-1265 525,-1265"/>
<text text-anchor="start" x="574.72" y="-1273" font-family="Helvetica,sans-Serif" font-size="10.00">git</text>
<polygon fill="none" stroke="blue" points="525,-1243 525,-1265 635,-1265 635,-1243 525,-1243"/>
<text text-anchor="start" x="551.94" y="-1251" font-family="Helvetica,sans-Serif" font-size="10.00">greaterequal</text>
<polygon fill="none" stroke="blue" points="525,-1221 525,-1243 635,-1243 635,-1221 525,-1221"/>
<text text-anchor="start" x="564.71" y="-1229" font-family="Helvetica,sans-Serif" font-size="10.00">1.8.2.1</text>
</g>
<!-- id&#45;&gt;dependency1621359 -->
<g id="edge2" class="edge">
<title>id:e&#45;&gt;dependency1621359:w</title>
<path fill="none" stroke="black" d="M305,-1049C412.76,-1049 306.94,-1261.6 400.93,-1275.31"/>
<polygon fill="black" stroke="black" points="411,-1276 400.71,-1279.8 406.01,-1275.66 401.02,-1275.31 401.02,-1275.31 401.02,-1275.31 406.01,-1275.66 401.33,-1270.82 411,-1276 411,-1276"/>
</g>
<!-- dependency1621360 -->
<g id="node4" class="node">
<title>dependency1621360</title>
<polygon fill="none" stroke="blue" points="420,-1097 420,-1195 525,-1195 525,-1097 420,-1097"/>
<text text-anchor="start" x="450.82" y="-1143" font-family="Helvetica,sans-Serif" font-size="10.00">pack_dep</text>
<polygon fill="none" stroke="blue" points="525,-1173 525,-1195 635,-1195 635,-1173 525,-1173"/>
<text text-anchor="start" x="574.44" y="-1181" font-family="Helvetica,sans-Serif" font-size="10.00">no</text>
<polygon fill="none" stroke="blue" points="525,-1151 525,-1173 635,-1173 635,-1151 525,-1151"/>
<text text-anchor="start" x="558.89" y="-1159" font-family="Helvetica,sans-Serif" font-size="10.00">sys&#45;devel</text>
<polygon fill="none" stroke="blue" points="525,-1129 525,-1151 635,-1151 635,-1129 525,-1129"/>
<text text-anchor="start" x="567.78" y="-1137" font-family="Helvetica,sans-Serif" font-size="10.00">make</text>
<polygon fill="none" stroke="blue" points="525,-1107 525,-1129 635,-1129 635,-1107 525,-1107"/>
<text text-anchor="start" x="568.88" y="-1115" font-family="Helvetica,sans-Serif" font-size="10.00">none</text>
<polygon fill="none" stroke="blue" points="525,-1097 525,-1107 635,-1107 635,-1097 525,-1097"/>
</g>
<!-- id&#45;&gt;dependency1621360 -->
<g id="edge3" class="edge">
<title>id:e&#45;&gt;dependency1621360:w</title>
<path fill="none" stroke="black" d="M305,-1049C365.24,-1049 349.33,-1135.32 400.94,-1145.1"/>
<polygon fill="black" stroke="black" points="411,-1146 400.64,-1149.59 406.02,-1145.56 401.04,-1145.11 401.04,-1145.11 401.04,-1145.11 406.02,-1145.56 401.44,-1140.63 411,-1146 411,-1146"/>
</g>
<!-- dependency1621361 -->
<g id="node5" class="node">
<title>dependency1621361</title>
<polygon fill="none" stroke="blue" points="420,-903 420,-1001 525,-1001 525,-903 420,-903"/>
<text text-anchor="start" x="450.82" y="-949" font-family="Helvetica,sans-Serif" font-size="10.00">pack_dep</text>
<polygon fill="none" stroke="blue" points="525,-979 525,-1001 635,-1001 635,-979 525,-979"/>
<text text-anchor="start" x="574.44" y="-987" font-family="Helvetica,sans-Serif" font-size="10.00">no</text>
<polygon fill="none" stroke="blue" points="525,-957 525,-979 635,-979 635,-957 525,-957"/>
<text text-anchor="start" x="541.66" y="-965" font-family="Helvetica,sans-Serif" font-size="10.00">games&#45;emulation</text>
<polygon fill="none" stroke="blue" points="525,-935 525,-957 635,-957 635,-935 525,-935"/>
<text text-anchor="start" x="546.94" y="-943" font-family="Helvetica,sans-Serif" font-size="10.00">libretro&#45;dosbox</text>
<polygon fill="none" stroke="blue" points="525,-913 525,-935 635,-935 635,-913 525,-913"/>
<text text-anchor="start" x="568.88" y="-921" font-family="Helvetica,sans-Serif" font-size="10.00">none</text>
<polygon fill="none" stroke="blue" points="525,-903 525,-913 635,-913 635,-903 525,-903"/>
</g>
<!-- id&#45;&gt;dependency1621361 -->
<g id="edge4" class="edge">
<title>id:e&#45;&gt;dependency1621361:w</title>
<path fill="none" stroke="black" d="M305,-1049C362,-1049 350.82,-971.72 393.17,-955.12"/>
<ellipse fill="none" stroke="black" cx="407.06" cy="-952.69" rx="4" ry="4"/>
<polygon fill="black" stroke="black" points="403.12,-953.38 394.04,-959.53 398.19,-954.24 393.27,-955.1 393.27,-955.1 393.27,-955.1 398.19,-954.24 392.49,-950.67 403.12,-953.38 403.12,-953.38"/>
</g>
<!-- dependency1621362 -->
<g id="node6" class="node">
<title>dependency1621362</title>
<polygon fill="none" stroke="blue" points="420,-465 420,-575 525,-575 525,-465 420,-465"/>
<text text-anchor="start" x="450.82" y="-517" font-family="Helvetica,sans-Serif" font-size="10.00">pack_dep</text>
<polygon fill="none" stroke="blue" points="525,-553 525,-575 635,-575 635,-553 525,-553"/>
<text text-anchor="start" x="574.44" y="-561" font-family="Helvetica,sans-Serif" font-size="10.00">no</text>
<polygon fill="none" stroke="blue" points="525,-531 525,-553 635,-553 635,-531 525,-531"/>
<text text-anchor="start" x="560.83" y="-539" font-family="Helvetica,sans-Serif" font-size="10.00">media&#45;tv</text>
<polygon fill="none" stroke="blue" points="525,-509 525,-531 635,-531 635,-509 525,-509"/>
<text text-anchor="start" x="570.83" y="-517" font-family="Helvetica,sans-Serif" font-size="10.00">kodi</text>
<polygon fill="none" stroke="blue" points="525,-487 525,-509 635,-509 635,-487 525,-487"/>
<text text-anchor="start" x="570.83" y="-495" font-family="Helvetica,sans-Serif" font-size="10.00">tilde</text>
<polygon fill="none" stroke="blue" points="525,-465 525,-487 635,-487 635,-465 525,-465"/>
<text text-anchor="start" x="568.88" y="-473" font-family="Helvetica,sans-Serif" font-size="10.00">9999</text>
</g>
<!-- id&#45;&gt;dependency1621362 -->
<g id="edge5" class="edge">
<title>id:e&#45;&gt;dependency1621362:w</title>
<path fill="none" stroke="black" d="M305,-1049C538.35,-1049 190.84,-548.03 392.98,-521.12"/>
<ellipse fill="none" stroke="black" cx="407.01" cy="-520.25" rx="4" ry="4"/>
<polygon fill="black" stroke="black" points="403.02,-520.5 393.32,-525.61 398.03,-520.81 393.03,-521.12 393.03,-521.12 393.03,-521.12 398.03,-520.81 392.75,-516.63 403.02,-520.5 403.02,-520.5"/>
</g>
<!-- dependency1621363 -->
<g id="node7" class="node">
<title>dependency1621363</title>
<polygon fill="none" stroke="blue" points="420,-315 420,-413 525,-413 525,-315 420,-315"/>
<text text-anchor="start" x="450.82" y="-361" font-family="Helvetica,sans-Serif" font-size="10.00">pack_dep</text>
<polygon fill="none" stroke="blue" points="525,-391 525,-413 635,-413 635,-391 525,-391"/>
<text text-anchor="start" x="574.44" y="-399" font-family="Helvetica,sans-Serif" font-size="10.00">no</text>
<polygon fill="none" stroke="blue" points="525,-369 525,-391 635,-391 635,-369 525,-369"/>
<text text-anchor="start" x="548.89" y="-377" font-family="Helvetica,sans-Serif" font-size="10.00">media&#45;plugins</text>
<polygon fill="none" stroke="blue" points="525,-347 525,-369 635,-369 635,-347 525,-347"/>
<text text-anchor="start" x="539.72" y="-355" font-family="Helvetica,sans-Serif" font-size="10.00">kodi&#45;game&#45;libretro</text>
<polygon fill="none" stroke="blue" points="525,-325 525,-347 635,-347 635,-325 525,-325"/>
<text text-anchor="start" x="568.88" y="-333" font-family="Helvetica,sans-Serif" font-size="10.00">none</text>
<polygon fill="none" stroke="blue" points="525,-315 525,-325 635,-325 635,-315 525,-315"/>
</g>
<!-- id&#45;&gt;dependency1621363 -->
<g id="edge6" class="edge">
<title>id:e&#45;&gt;dependency1621363:w</title>
<path fill="none" stroke="black" d="M305,-1049C456.18,-1049 264.34,-389.18 402.79,-364.7"/>
<ellipse fill="none" stroke="black" cx="407.01" cy="-364.34" rx="4" ry="4"/>
</g>
<!-- choice1001011184511711610510847991099710710145514649484651 -->
<g id="node8" class="node">
<title>choice1001011184511711610510847991099710710145514649484651</title>
<g id="a_node8"><a xlink:href="../dev-util/cmake-3.10.3.svg" xlink:title="dev&#45;util/cmake&#45;3.10.3">
<ellipse fill="none" stroke="red" cx="907.31" cy="-1762" rx="144" ry="18"/>
<text text-anchor="middle" x="907.31" y="-1759" font-family="Helvetica,sans-Serif" font-size="10.00">dev&#45;util/cmake&#45;3.10.3</text>
</a>
</g>
</g>
<!-- dependency1621358&#45;&gt;choice1001011184511711610510847991099710710145514649484651 -->
<g id="edge7" class="edge">
<title>dependency1621358:e&#45;&gt;choice1001011184511711610510847991099710710145514649484651:w</title>
<path fill="none" stroke="black" stroke-dasharray="1,5" d="M649,-1546C753.81,-1546 660.54,-1747.89 752.19,-1761.3"/>
<polygon fill="black" stroke="black" points="762.31,-1762 752.02,-1765.8 757.32,-1761.66 752.33,-1761.31 752.33,-1761.31 752.33,-1761.31 757.32,-1761.66 752.64,-1756.82 762.31,-1762 762.31,-1762"/>
</g>
<!-- choice10010111845117116105108479910997107101455146494946524511449 -->
<g id="node9" class="node">
<title>choice10010111845117116105108479910997107101455146494946524511449</title>
<g id="a_node9"><a xlink:href="../dev-util/cmake-3.11.4-r1.svg" xlink:title="dev&#45;util/cmake&#45;3.11.4&#45;r1">
<ellipse fill="none" stroke="red" cx="907.31" cy="-1708" rx="144" ry="18"/>
<text text-anchor="middle" x="907.31" y="-1705" font-family="Helvetica,sans-Serif" font-size="10.00">dev&#45;util/cmake&#45;3.11.4&#45;r1</text>
</a>
</g>
</g>
<!-- dependency1621358&#45;&gt;choice10010111845117116105108479910997107101455146494946524511449 -->
<g id="edge8" class="edge">
<title>dependency1621358:e&#45;&gt;choice10010111845117116105108479910997107101455146494946524511449:w</title>
<path fill="none" stroke="black" stroke-dasharray="1,5" d="M649,-1546C733.26,-1546 679.31,-1694.98 752.23,-1707.2"/>
<polygon fill="black" stroke="black" points="762.31,-1708 751.98,-1711.7 757.32,-1707.61 752.34,-1707.21 752.34,-1707.21 752.34,-1707.21 757.32,-1707.61 752.69,-1702.73 762.31,-1708 762.31,-1708"/>
</g>
<!-- choice1001011184511711610510847991099710710145514649504651 -->
<g id="node10" class="node">
<title>choice1001011184511711610510847991099710710145514649504651</title>
<g id="a_node10"><a xlink:href="../dev-util/cmake-3.12.3.svg" xlink:title="dev&#45;util/cmake&#45;3.12.3">
<ellipse fill="none" stroke="red" cx="907.31" cy="-1654" rx="144" ry="18"/>
<text text-anchor="middle" x="907.31" y="-1651" font-family="Helvetica,sans-Serif" font-size="10.00">dev&#45;util/cmake&#45;3.12.3</text>
</a>
</g>
</g>
<!-- dependency1621358&#45;&gt;choice1001011184511711610510847991099710710145514649504651 -->
<g id="edge9" class="edge">
<title>dependency1621358:e&#45;&gt;choice1001011184511711610510847991099710710145514649504651:w</title>
<path fill="none" stroke="black" stroke-dasharray="1,5" d="M649,-1546C714.9,-1546 695.19,-1642.91 752.07,-1653.13"/>
<polygon fill="black" stroke="black" points="762.31,-1654 751.96,-1657.64 757.32,-1653.58 752.34,-1653.15 752.34,-1653.15 752.34,-1653.15 757.32,-1653.58 752.72,-1648.67 762.31,-1654 762.31,-1654"/>
</g>
<!-- choice1001011184511711610510847991099710710145514649514652 -->
<g id="node11" class="node">
<title>choice1001011184511711610510847991099710710145514649514652</title>
<g id="a_node11"><a xlink:href="../dev-util/cmake-3.13.4.svg" xlink:title="dev&#45;util/cmake&#45;3.13.4">
<ellipse fill="none" stroke="red" cx="907.31" cy="-1600" rx="144" ry="18"/>
<text text-anchor="middle" x="907.31" y="-1597" font-family="Helvetica,sans-Serif" font-size="10.00">dev&#45;util/cmake&#45;3.13.4</text>
</a>
</g>
</g>
<!-- dependency1621358&#45;&gt;choice1001011184511711610510847991099710710145514649514652 -->
<g id="edge10" class="edge">
<title>dependency1621358:e&#45;&gt;choice1001011184511711610510847991099710710145514649514652:w</title>
<path fill="none" stroke="black" stroke-dasharray="1,5" d="M649,-1546C701.19,-1546 706.07,-1593.26 752.16,-1599.36"/>
<polygon fill="black" stroke="black" points="762.31,-1600 752.04,-1603.86 757.32,-1599.68 752.33,-1599.37 752.33,-1599.37 752.33,-1599.37 757.32,-1599.68 752.61,-1594.88 762.31,-1600 762.31,-1600"/>
</g>
<!-- choice1001011184511711610510847991099710710145514649524648951149951 -->
<g id="node12" class="node">
<title>choice1001011184511711610510847991099710710145514649524648951149951</title>
<g id="a_node12"><a xlink:href="../dev-util/cmake-3.14.0_rc3.svg" xlink:title="dev&#45;util/cmake&#45;3.14.0_rc3">
<ellipse fill="none" stroke="red" cx="907.31" cy="-1546" rx="144" ry="18"/>
<text text-anchor="middle" x="907.31" y="-1543" font-family="Helvetica,sans-Serif" font-size="10.00">dev&#45;util/cmake&#45;3.14.0_rc3</text>
</a>
</g>
</g>
<!-- dependency1621358&#45;&gt;choice1001011184511711610510847991099710710145514649524648951149951 -->
<g id="edge11" class="edge">
<title>dependency1621358:e&#45;&gt;choice1001011184511711610510847991099710710145514649524648951149951:w</title>
<path fill="none" stroke="black" stroke-dasharray="1,5" d="M649,-1546C695.82,-1546 709.99,-1546 752.22,-1546"/>
<polygon fill="black" stroke="black" points="762.31,-1546 752.31,-1550.5 757.31,-1546 752.31,-1546 752.31,-1546 752.31,-1546 757.31,-1546 752.3,-1541.5 762.31,-1546 762.31,-1546"/>
</g>
<!-- choice10010111845117116105108479910997107101455146574654 -->
<g id="node13" class="node">
<title>choice10010111845117116105108479910997107101455146574654</title>
<g id="a_node13"><a xlink:href="../dev-util/cmake-3.9.6.svg" xlink:title="dev&#45;util/cmake&#45;3.9.6">
<ellipse fill="none" stroke="red" cx="907.31" cy="-1492" rx="144" ry="18"/>
<text text-anchor="middle" x="907.31" y="-1489" font-family="Helvetica,sans-Serif" font-size="10.00">dev&#45;util/cmake&#45;3.9.6</text>
</a>
</g>
</g>
<!-- dependency1621358&#45;&gt;choice10010111845117116105108479910997107101455146574654 -->
<g id="edge12" class="edge">
<title>dependency1621358:e&#45;&gt;choice10010111845117116105108479910997107101455146574654:w</title>
<path fill="none" stroke="black" stroke-dasharray="1,5" d="M649,-1546C701.19,-1546 706.07,-1498.74 752.16,-1492.64"/>
<polygon fill="black" stroke="black" points="762.31,-1492 752.61,-1497.12 757.32,-1492.32 752.33,-1492.63 752.33,-1492.63 752.33,-1492.63 757.32,-1492.32 752.04,-1488.14 762.31,-1492 762.31,-1492"/>
</g>
<!-- choice10010111845118991154710310511645504649574650 -->
<g id="node14" class="node">
<title>choice10010111845118991154710310511645504649574650</title>
<g id="a_node14"><a xlink:href="../dev-vcs/git-2.19.2.svg" xlink:title="dev&#45;vcs/git&#45;2.19.2">
<ellipse fill="none" stroke="red" cx="907.31" cy="-1438" rx="144" ry="18"/>
<text text-anchor="middle" x="907.31" y="-1435" font-family="Helvetica,sans-Serif" font-size="10.00">dev&#45;vcs/git&#45;2.19.2</text>
</a>
</g>
</g>
<!-- dependency1621359&#45;&gt;choice10010111845118991154710310511645504649574650 -->
<g id="edge13" class="edge">
<title>dependency1621359:e&#45;&gt;choice10010111845118991154710310511645504649574650:w</title>
<path fill="none" stroke="black" stroke-dasharray="1,5" d="M649,-1276C733.26,-1276 679.31,-1424.98 752.23,-1437.2"/>
<polygon fill="black" stroke="black" points="762.31,-1438 751.98,-1441.7 757.32,-1437.61 752.34,-1437.21 752.34,-1437.21 752.34,-1437.21 757.32,-1437.61 752.69,-1432.73 762.31,-1438 762.31,-1438"/>
</g>
<!-- choice10010111845118991154710310511645504650484649 -->
<g id="node15" class="node">
<title>choice10010111845118991154710310511645504650484649</title>
<g id="a_node15"><a xlink:href="../dev-vcs/git-2.20.1.svg" xlink:title="dev&#45;vcs/git&#45;2.20.1">
<ellipse fill="none" stroke="red" cx="907.31" cy="-1384" rx="144" ry="18"/>
<text text-anchor="middle" x="907.31" y="-1381" font-family="Helvetica,sans-Serif" font-size="10.00">dev&#45;vcs/git&#45;2.20.1</text>
</a>
</g>
</g>
<!-- dependency1621359&#45;&gt;choice10010111845118991154710310511645504650484649 -->
<g id="edge14" class="edge">
<title>dependency1621359:e&#45;&gt;choice10010111845118991154710310511645504650484649:w</title>
<path fill="none" stroke="black" stroke-dasharray="1,5" d="M649,-1276C714.9,-1276 695.19,-1372.91 752.07,-1383.13"/>
<polygon fill="black" stroke="black" points="762.31,-1384 751.96,-1387.64 757.32,-1383.58 752.34,-1383.15 752.34,-1383.15 752.34,-1383.15 757.32,-1383.58 752.72,-1378.67 762.31,-1384 762.31,-1384"/>
</g>
<!-- choice10010111845118991154710310511645504650494648 -->
<g id="node16" class="node">
<title>choice10010111845118991154710310511645504650494648</title>
<g id="a_node16"><a xlink:href="../dev-vcs/git-2.21.0.svg" xlink:title="dev&#45;vcs/git&#45;2.21.0">
<ellipse fill="none" stroke="red" cx="907.31" cy="-1330" rx="144" ry="18"/>
<text text-anchor="middle" x="907.31" y="-1327" font-family="Helvetica,sans-Serif" font-size="10.00">dev&#45;vcs/git&#45;2.21.0</text>
</a>
</g>
</g>
<!-- dependency1621359&#45;&gt;choice10010111845118991154710310511645504650494648 -->
<g id="edge15" class="edge">
<title>dependency1621359:e&#45;&gt;choice10010111845118991154710310511645504650494648:w</title>
<path fill="none" stroke="black" stroke-dasharray="1,5" d="M649,-1276C701.19,-1276 706.07,-1323.26 752.16,-1329.36"/>
<polygon fill="black" stroke="black" points="762.31,-1330 752.04,-1333.86 757.32,-1329.68 752.33,-1329.37 752.33,-1329.37 752.33,-1329.37 757.32,-1329.68 752.61,-1324.88 762.31,-1330 762.31,-1330"/>
</g>
<!-- choice1001011184511899115471031051164557575757 -->
<g id="node17" class="node">
<title>choice1001011184511899115471031051164557575757</title>
<g id="a_node17"><a xlink:href="../dev-vcs/git-9999.svg" xlink:title="dev&#45;vcs/git&#45;9999">
<ellipse fill="none" stroke="red" cx="907.31" cy="-1276" rx="144" ry="18"/>
<text text-anchor="middle" x="907.31" y="-1273" font-family="Helvetica,sans-Serif" font-size="10.00">dev&#45;vcs/git&#45;9999</text>
</a>
</g>
</g>
<!-- dependency1621359&#45;&gt;choice1001011184511899115471031051164557575757 -->
<g id="edge16" class="edge">
<title>dependency1621359:e&#45;&gt;choice1001011184511899115471031051164557575757:w</title>
<path fill="none" stroke="black" stroke-dasharray="1,5" d="M649,-1276C695.82,-1276 709.99,-1276 752.22,-1276"/>
<polygon fill="black" stroke="black" points="762.31,-1276 752.31,-1280.5 757.31,-1276 752.31,-1276 752.31,-1276 752.31,-1276 757.31,-1276 752.3,-1271.5 762.31,-1276 762.31,-1276"/>
</g>
<!-- choice10010111845118991154710310511645575757574511449 -->
<g id="node18" class="node">
<title>choice10010111845118991154710310511645575757574511449</title>
<g id="a_node18"><a xlink:href="../dev-vcs/git-9999-r1.svg" xlink:title="dev&#45;vcs/git&#45;9999&#45;r1">
<ellipse fill="none" stroke="red" cx="907.31" cy="-1222" rx="144" ry="18"/>
<text text-anchor="middle" x="907.31" y="-1219" font-family="Helvetica,sans-Serif" font-size="10.00">dev&#45;vcs/git&#45;9999&#45;r1</text>
</a>
</g>
</g>
<!-- dependency1621359&#45;&gt;choice10010111845118991154710310511645575757574511449 -->
<g id="edge17" class="edge">
<title>dependency1621359:e&#45;&gt;choice10010111845118991154710310511645575757574511449:w</title>
<path fill="none" stroke="black" stroke-dasharray="1,5" d="M649,-1276C701.19,-1276 706.07,-1228.74 752.16,-1222.64"/>
<polygon fill="black" stroke="black" points="762.31,-1222 752.61,-1227.12 757.32,-1222.32 752.33,-1222.63 752.33,-1222.63 752.33,-1222.63 757.32,-1222.32 752.04,-1218.14 762.31,-1222 762.31,-1222"/>
</g>
<!-- choice10010111845118991154710310511645575757574511450 -->
<g id="node19" class="node">
<title>choice10010111845118991154710310511645575757574511450</title>
<g id="a_node19"><a xlink:href="../dev-vcs/git-9999-r2.svg" xlink:title="dev&#45;vcs/git&#45;9999&#45;r2">
<ellipse fill="none" stroke="red" cx="907.31" cy="-1168" rx="144" ry="18"/>
<text text-anchor="middle" x="907.31" y="-1165" font-family="Helvetica,sans-Serif" font-size="10.00">dev&#45;vcs/git&#45;9999&#45;r2</text>
</a>
</g>
</g>
<!-- dependency1621359&#45;&gt;choice10010111845118991154710310511645575757574511450 -->
<g id="edge18" class="edge">
<title>dependency1621359:e&#45;&gt;choice10010111845118991154710310511645575757574511450:w</title>
<path fill="none" stroke="black" stroke-dasharray="1,5" d="M649,-1276C714.9,-1276 695.19,-1179.09 752.07,-1168.87"/>
<polygon fill="black" stroke="black" points="762.31,-1168 752.72,-1173.33 757.32,-1168.42 752.34,-1168.85 752.34,-1168.85 752.34,-1168.85 757.32,-1168.42 751.96,-1164.36 762.31,-1168 762.31,-1168"/>
</g>
<!-- choice10010111845118991154710310511645575757574511451 -->
<g id="node20" class="node">
<title>choice10010111845118991154710310511645575757574511451</title>
<g id="a_node20"><a xlink:href="../dev-vcs/git-9999-r3.svg" xlink:title="dev&#45;vcs/git&#45;9999&#45;r3">
<ellipse fill="none" stroke="red" cx="907.31" cy="-1114" rx="144" ry="18"/>
<text text-anchor="middle" x="907.31" y="-1111" font-family="Helvetica,sans-Serif" font-size="10.00">dev&#45;vcs/git&#45;9999&#45;r3</text>
</a>
</g>
</g>
<!-- dependency1621359&#45;&gt;choice10010111845118991154710310511645575757574511451 -->
<g id="edge19" class="edge">
<title>dependency1621359:e&#45;&gt;choice10010111845118991154710310511645575757574511451:w</title>
<path fill="none" stroke="black" stroke-dasharray="1,5" d="M649,-1276C733.26,-1276 679.31,-1127.02 752.23,-1114.8"/>
<polygon fill="black" stroke="black" points="762.31,-1114 752.69,-1119.27 757.32,-1114.39 752.34,-1114.79 752.34,-1114.79 752.34,-1114.79 757.32,-1114.39 751.98,-1110.3 762.31,-1114 762.31,-1114"/>
</g>
<!-- choice1151211154510010111810110847109971071014552465046494511452 -->
<g id="node21" class="node">
<title>choice1151211154510010111810110847109971071014552465046494511452</title>
<g id="a_node21"><a xlink:href="../sys-devel/make-4.2.1-r4.svg" xlink:title="sys&#45;devel/make&#45;4.2.1&#45;r4">
<ellipse fill="none" stroke="red" cx="907.31" cy="-1060" rx="144" ry="18"/>
<text text-anchor="middle" x="907.31" y="-1057" font-family="Helvetica,sans-Serif" font-size="10.00">sys&#45;devel/make&#45;4.2.1&#45;r4</text>
</a>
</g>
</g>
<!-- dependency1621360&#45;&gt;choice1151211154510010111810110847109971071014552465046494511452 -->
<g id="edge20" class="edge">
<title>dependency1621360:e&#45;&gt;choice1151211154510010111810110847109971071014552465046494511452:w</title>
<path fill="none" stroke="black" stroke-dasharray="1,5" d="M649,-1146C708.64,-1146 700.33,-1069.47 752.27,-1060.8"/>
<polygon fill="black" stroke="black" points="762.31,-1060 752.69,-1065.28 757.32,-1060.4 752.34,-1060.79 752.34,-1060.79 752.34,-1060.79 757.32,-1060.4 751.98,-1056.31 762.31,-1060 762.31,-1060"/>
</g>
<!-- choice10397109101115451011091171089711610511111047108105981141011161141114510011111598111120454846484649951121141015048495648555051 -->
<g id="node22" class="node">
<title>choice10397109101115451011091171089711610511111047108105981141011161141114510011111598111120454846484649951121141015048495648555051</title>
<g id="a_node22"><a xlink:href="../games-emulation/libretro-dosbox-0.0.1_pre20180723.svg" xlink:title="games&#45;emulation/libretro&#45;dosbox&#45;0.0.1_pre20180723">
<ellipse fill="none" stroke="red" cx="907.31" cy="-1006" rx="151.11" ry="18"/>
<text text-anchor="middle" x="907.31" y="-1003" font-family="Helvetica,sans-Serif" font-size="10.00">games&#45;emulation/libretro&#45;dosbox&#45;0.0.1_pre20180723</text>
</a>
</g>
</g>
<!-- dependency1621361&#45;&gt;choice10397109101115451011091171089711610511111047108105981141011161141114510011111598111120454846484649951121141015048495648555051 -->
<g id="edge21" class="edge">
<title>dependency1621361:e&#45;&gt;choice10397109101115451011091171089711610511111047108105981141011161141114510011111598111120454846484649951121141015048495648555051:w</title>
<path fill="none" stroke="black" stroke-dasharray="1,5" d="M649,-952C698,-952 701.45,-998.87 744.22,-1005.28"/>
<polygon fill="black" stroke="black" points="754.31,-1006 744.01,-1009.77 749.32,-1005.64 744.33,-1005.29 744.33,-1005.29 744.33,-1005.29 749.32,-1005.64 744.65,-1000.8 754.31,-1006 754.31,-1006"/>
</g>
<!-- choice103971091011154510110911710897116105111110471081059811410111611411145100111115981111204557575757 -->
<g id="node23" class="node">
<title>choice103971091011154510110911710897116105111110471081059811410111611411145100111115981111204557575757</title>
<g id="a_node23"><a xlink:href="../games-emulation/libretro-dosbox-9999.svg" xlink:title="games&#45;emulation/libretro&#45;dosbox&#45;9999">
<ellipse fill="none" stroke="red" cx="907.31" cy="-952" rx="144" ry="18"/>
<text text-anchor="middle" x="907.31" y="-949" font-family="Helvetica,sans-Serif" font-size="10.00">games&#45;emulation/libretro&#45;dosbox&#45;9999</text>
</a>
</g>
</g>
<!-- dependency1621361&#45;&gt;choice103971091011154510110911710897116105111110471081059811410111611411145100111115981111204557575757 -->
<g id="edge22" class="edge">
<title>dependency1621361:e&#45;&gt;choice103971091011154510110911710897116105111110471081059811410111611411145100111115981111204557575757:w</title>
<path fill="none" stroke="black" stroke-dasharray="1,5" d="M649,-952C695.82,-952 709.99,-952 752.22,-952"/>
<polygon fill="black" stroke="black" points="762.31,-952 752.31,-956.5 757.31,-952 752.31,-952 752.31,-952 752.31,-952 757.31,-952 752.3,-947.5 762.31,-952 762.31,-952"/>
</g>
<!-- choice10910110010597451161184710711110010545495546514511449 -->
<g id="node24" class="node">
<title>choice10910110010597451161184710711110010545495546514511449</title>
<g id="a_node24"><a xlink:href="../media-tv/kodi-17.3-r1.svg" xlink:title="media&#45;tv/kodi&#45;17.3&#45;r1">
<ellipse fill="none" stroke="red" cx="907.31" cy="-898" rx="144" ry="18"/>
<text text-anchor="middle" x="907.31" y="-895" font-family="Helvetica,sans-Serif" font-size="10.00">media&#45;tv/kodi&#45;17.3&#45;r1</text>
</a>
</g>
</g>
<!-- dependency1621362&#45;&gt;choice10910110010597451161184710711110010545495546514511449 -->
<g id="edge23" class="edge">
<title>dependency1621362:e&#45;&gt;choice10910110010597451161184710711110010545495546514511449:w</title>
<path fill="none" stroke="black" stroke-dasharray="1,5" d="M649,-520C820.79,-520 596.49,-882.66 752.03,-897.53"/>
<polygon fill="black" stroke="black" points="762.31,-898 752.11,-902.04 757.31,-897.77 752.32,-897.54 752.32,-897.54 752.32,-897.54 757.31,-897.77 752.52,-893.05 762.31,-898 762.31,-898"/>
</g>
<!-- choice1091011001059745116118471071111001054549554654 -->
<g id="node25" class="node">
<title>choice1091011001059745116118471071111001054549554654</title>
<g id="a_node25"><a xlink:href="../media-tv/kodi-17.6.svg" xlink:title="media&#45;tv/kodi&#45;17.6">
<ellipse fill="none" stroke="red" cx="907.31" cy="-844" rx="144" ry="18"/>
<text text-anchor="middle" x="907.31" y="-841" font-family="Helvetica,sans-Serif" font-size="10.00">media&#45;tv/kodi&#45;17.6</text>
</a>
</g>
</g>
<!-- dependency1621362&#45;&gt;choice1091011001059745116118471071111001054549554654 -->
<g id="edge24" class="edge">
<title>dependency1621362:e&#45;&gt;choice1091011001059745116118471071111001054549554654:w</title>
<path fill="none" stroke="black" stroke-dasharray="1,5" d="M649,-520C797.98,-520 618.56,-828.99 752.14,-843.47"/>
<polygon fill="black" stroke="black" points="762.31,-844 752.09,-847.98 757.31,-843.74 752.32,-843.48 752.32,-843.48 752.32,-843.48 757.31,-843.74 752.55,-838.99 762.31,-844 762.31,-844"/>
</g>
<!-- choice1091011001059745116118471071111001054549554654451144948 -->
<g id="node26" class="node">
<title>choice1091011001059745116118471071111001054549554654451144948</title>
<g id="a_node26"><a xlink:href="../media-tv/kodi-17.6-r10.svg" xlink:title="media&#45;tv/kodi&#45;17.6&#45;r10">
<ellipse fill="none" stroke="red" cx="907.31" cy="-790" rx="144" ry="18"/>
<text text-anchor="middle" x="907.31" y="-787" font-family="Helvetica,sans-Serif" font-size="10.00">media&#45;tv/kodi&#45;17.6&#45;r10</text>
</a>
</g>
</g>
<!-- dependency1621362&#45;&gt;choice1091011001059745116118471071111001054549554654451144948 -->
<g id="edge25" class="edge">
<title>dependency1621362:e&#45;&gt;choice1091011001059745116118471071111001054549554654451144948:w</title>
<path fill="none" stroke="black" stroke-dasharray="1,5" d="M649,-520C775.58,-520 640,-775.44 752.24,-789.41"/>
<polygon fill="black" stroke="black" points="762.31,-790 752.06,-793.9 757.31,-789.71 752.32,-789.41 752.32,-789.41 752.32,-789.41 757.31,-789.71 752.59,-784.92 762.31,-790 762.31,-790"/>
</g>
<!-- choice1091011001059745116118471071111001054549554654451144949 -->
<g id="node27" class="node">
<title>choice1091011001059745116118471071111001054549554654451144949</title>
<g id="a_node27"><a xlink:href="../media-tv/kodi-17.6-r11.svg" xlink:title="media&#45;tv/kodi&#45;17.6&#45;r11">
<ellipse fill="none" stroke="red" cx="907.31" cy="-736" rx="144" ry="18"/>
<text text-anchor="middle" x="907.31" y="-733" font-family="Helvetica,sans-Serif" font-size="10.00">media&#45;tv/kodi&#45;17.6&#45;r11</text>
</a>
</g>
</g>
<!-- dependency1621362&#45;&gt;choice1091011001059745116118471071111001054549554654451144949 -->
<g id="edge26" class="edge">
<title>dependency1621362:e&#45;&gt;choice1091011001059745116118471071111001054549554654451144949:w</title>
<path fill="none" stroke="black" stroke-dasharray="1,5" d="M649,-520C753.81,-520 660.54,-721.89 752.19,-735.3"/>
<polygon fill="black" stroke="black" points="762.31,-736 752.02,-739.8 757.32,-735.66 752.33,-735.31 752.33,-735.31 752.33,-735.31 757.32,-735.66 752.64,-730.82 762.31,-736 762.31,-736"/>
</g>
<!-- choice10910110010597451161184710711110010545495546544511454 -->
<g id="node28" class="node">
<title>choice10910110010597451161184710711110010545495546544511454</title>
<g id="a_node28"><a xlink:href="../media-tv/kodi-17.6-r6.svg" xlink:title="media&#45;tv/kodi&#45;17.6&#45;r6">
<ellipse fill="none" stroke="red" cx="907.31" cy="-682" rx="144" ry="18"/>
<text text-anchor="middle" x="907.31" y="-679" font-family="Helvetica,sans-Serif" font-size="10.00">media&#45;tv/kodi&#45;17.6&#45;r6</text>
</a>
</g>
</g>
<!-- dependency1621362&#45;&gt;choice10910110010597451161184710711110010545495546544511454 -->
<g id="edge27" class="edge">
<title>dependency1621362:e&#45;&gt;choice10910110010597451161184710711110010545495546544511454:w</title>
<path fill="none" stroke="black" stroke-dasharray="1,5" d="M649,-520C733.26,-520 679.31,-668.98 752.23,-681.2"/>
<polygon fill="black" stroke="black" points="762.31,-682 751.98,-685.7 757.32,-681.61 752.34,-681.21 752.34,-681.21 752.34,-681.21 757.32,-681.61 752.69,-676.73 762.31,-682 762.31,-682"/>
</g>
<!-- choice10910110010597451161184710711110010545495546544511455 -->
<g id="node29" class="node">
<title>choice10910110010597451161184710711110010545495546544511455</title>
<g id="a_node29"><a xlink:href="../media-tv/kodi-17.6-r7.svg" xlink:title="media&#45;tv/kodi&#45;17.6&#45;r7">
<ellipse fill="none" stroke="red" cx="907.31" cy="-628" rx="144" ry="18"/>
<text text-anchor="middle" x="907.31" y="-625" font-family="Helvetica,sans-Serif" font-size="10.00">media&#45;tv/kodi&#45;17.6&#45;r7</text>
</a>
</g>
</g>
<!-- dependency1621362&#45;&gt;choice10910110010597451161184710711110010545495546544511455 -->
<g id="edge28" class="edge">
<title>dependency1621362:e&#45;&gt;choice10910110010597451161184710711110010545495546544511455:w</title>
<path fill="none" stroke="black" stroke-dasharray="1,5" d="M649,-520C714.9,-520 695.19,-616.91 752.07,-627.13"/>
<polygon fill="black" stroke="black" points="762.31,-628 751.96,-631.64 757.32,-627.58 752.34,-627.15 752.34,-627.15 752.34,-627.15 757.32,-627.58 752.72,-622.67 762.31,-628 762.31,-628"/>
</g>
<!-- choice10910110010597451161184710711110010545495546544511456 -->
<g id="node30" class="node">
<title>choice10910110010597451161184710711110010545495546544511456</title>
<g id="a_node30"><a xlink:href="../media-tv/kodi-17.6-r8.svg" xlink:title="media&#45;tv/kodi&#45;17.6&#45;r8">
<ellipse fill="none" stroke="red" cx="907.31" cy="-574" rx="144" ry="18"/>
<text text-anchor="middle" x="907.31" y="-571" font-family="Helvetica,sans-Serif" font-size="10.00">media&#45;tv/kodi&#45;17.6&#45;r8</text>
</a>
</g>
</g>
<!-- dependency1621362&#45;&gt;choice10910110010597451161184710711110010545495546544511456 -->
<g id="edge29" class="edge">
<title>dependency1621362:e&#45;&gt;choice10910110010597451161184710711110010545495546544511456:w</title>
<path fill="none" stroke="black" stroke-dasharray="1,5" d="M649,-520C701.19,-520 706.07,-567.26 752.16,-573.36"/>
<polygon fill="black" stroke="black" points="762.31,-574 752.04,-577.86 757.32,-573.68 752.33,-573.37 752.33,-573.37 752.33,-573.37 757.32,-573.68 752.61,-568.88 762.31,-574 762.31,-574"/>
</g>
<!-- choice10910110010597451161184710711110010545495546544511457 -->
<g id="node31" class="node">
<title>choice10910110010597451161184710711110010545495546544511457</title>
<g id="a_node31"><a xlink:href="../media-tv/kodi-17.6-r9.svg" xlink:title="media&#45;tv/kodi&#45;17.6&#45;r9">
<ellipse fill="none" stroke="red" cx="907.31" cy="-520" rx="144" ry="18"/>
<text text-anchor="middle" x="907.31" y="-517" font-family="Helvetica,sans-Serif" font-size="10.00">media&#45;tv/kodi&#45;17.6&#45;r9</text>
</a>
</g>
</g>
<!-- dependency1621362&#45;&gt;choice10910110010597451161184710711110010545495546544511457 -->
<g id="edge30" class="edge">
<title>dependency1621362:e&#45;&gt;choice10910110010597451161184710711110010545495546544511457:w</title>
<path fill="none" stroke="black" stroke-dasharray="1,5" d="M649,-520C695.82,-520 709.99,-520 752.22,-520"/>
<polygon fill="black" stroke="black" points="762.31,-520 752.31,-524.5 757.31,-520 752.31,-520 752.31,-520 752.31,-520 757.31,-520 752.3,-515.5 762.31,-520 762.31,-520"/>
</g>
<!-- choice1091011001059745116118471071111001054549564648 -->
<g id="node32" class="node">
<title>choice1091011001059745116118471071111001054549564648</title>
<g id="a_node32"><a xlink:href="../media-tv/kodi-18.0.svg" xlink:title="media&#45;tv/kodi&#45;18.0">
<ellipse fill="none" stroke="red" cx="907.31" cy="-466" rx="144" ry="18"/>
<text text-anchor="middle" x="907.31" y="-463" font-family="Helvetica,sans-Serif" font-size="10.00">media&#45;tv/kodi&#45;18.0</text>
</a>
</g>
</g>
<!-- dependency1621362&#45;&gt;choice1091011001059745116118471071111001054549564648 -->
<g id="edge31" class="edge">
<title>dependency1621362:e&#45;&gt;choice1091011001059745116118471071111001054549564648:w</title>
<path fill="none" stroke="black" stroke-dasharray="1,5" d="M649,-520C701.19,-520 706.07,-472.74 752.16,-466.64"/>
<polygon fill="black" stroke="black" points="762.31,-466 752.61,-471.12 757.32,-466.32 752.33,-466.63 752.33,-466.63 752.33,-466.63 757.32,-466.32 752.04,-462.14 762.31,-466 762.31,-466"/>
</g>
<!-- choice1091011001059745116118471071111001054549564648951149950 -->
<g id="node33" class="node">
<title>choice1091011001059745116118471071111001054549564648951149950</title>
<g id="a_node33"><a xlink:href="../media-tv/kodi-18.0_rc2.svg" xlink:title="media&#45;tv/kodi&#45;18.0_rc2">
<ellipse fill="none" stroke="red" cx="907.31" cy="-412" rx="144" ry="18"/>
<text text-anchor="middle" x="907.31" y="-409" font-family="Helvetica,sans-Serif" font-size="10.00">media&#45;tv/kodi&#45;18.0_rc2</text>
</a>
</g>
</g>
<!-- dependency1621362&#45;&gt;choice1091011001059745116118471071111001054549564648951149950 -->
<g id="edge32" class="edge">
<title>dependency1621362:e&#45;&gt;choice1091011001059745116118471071111001054549564648951149950:w</title>
<path fill="none" stroke="black" stroke-dasharray="1,5" d="M649,-520C714.9,-520 695.19,-423.09 752.07,-412.87"/>
<polygon fill="black" stroke="black" points="762.31,-412 752.72,-417.33 757.32,-412.42 752.34,-412.85 752.34,-412.85 752.34,-412.85 757.32,-412.42 751.96,-408.36 762.31,-412 762.31,-412"/>
</g>
<!-- choice1091011001059745116118471071111001054549564648951149951 -->
<g id="node34" class="node">
<title>choice1091011001059745116118471071111001054549564648951149951</title>
<g id="a_node34"><a xlink:href="../media-tv/kodi-18.0_rc3.svg" xlink:title="media&#45;tv/kodi&#45;18.0_rc3">
<ellipse fill="none" stroke="red" cx="907.31" cy="-358" rx="144" ry="18"/>
<text text-anchor="middle" x="907.31" y="-355" font-family="Helvetica,sans-Serif" font-size="10.00">media&#45;tv/kodi&#45;18.0_rc3</text>
</a>
</g>
</g>
<!-- dependency1621362&#45;&gt;choice1091011001059745116118471071111001054549564648951149951 -->
<g id="edge33" class="edge">
<title>dependency1621362:e&#45;&gt;choice1091011001059745116118471071111001054549564648951149951:w</title>
<path fill="none" stroke="black" stroke-dasharray="1,5" d="M649,-520C733.26,-520 679.31,-371.02 752.23,-358.8"/>
<polygon fill="black" stroke="black" points="762.31,-358 752.69,-363.27 757.32,-358.39 752.34,-358.79 752.34,-358.79 752.34,-358.79 757.32,-358.39 751.98,-354.3 762.31,-358 762.31,-358"/>
</g>
<!-- choice1091011001059745116118471071111001054549564648951149952 -->
<g id="node35" class="node">
<title>choice1091011001059745116118471071111001054549564648951149952</title>
<g id="a_node35"><a xlink:href="../media-tv/kodi-18.0_rc4.svg" xlink:title="media&#45;tv/kodi&#45;18.0_rc4">
<ellipse fill="none" stroke="red" cx="907.31" cy="-304" rx="144" ry="18"/>
<text text-anchor="middle" x="907.31" y="-301" font-family="Helvetica,sans-Serif" font-size="10.00">media&#45;tv/kodi&#45;18.0_rc4</text>
</a>
</g>
</g>
<!-- dependency1621362&#45;&gt;choice1091011001059745116118471071111001054549564648951149952 -->
<g id="edge34" class="edge">
<title>dependency1621362:e&#45;&gt;choice1091011001059745116118471071111001054549564648951149952:w</title>
<path fill="none" stroke="black" stroke-dasharray="1,5" d="M649,-520C753.81,-520 660.54,-318.11 752.19,-304.7"/>
<polygon fill="black" stroke="black" points="762.31,-304 752.64,-309.18 757.32,-304.34 752.33,-304.69 752.33,-304.69 752.33,-304.69 757.32,-304.34 752.02,-300.2 762.31,-304 762.31,-304"/>
</g>
<!-- choice1091011001059745116118471071111001054549564648951149953 -->
<g id="node36" class="node">
<title>choice1091011001059745116118471071111001054549564648951149953</title>
<g id="a_node36"><a xlink:href="../media-tv/kodi-18.0_rc5.svg" xlink:title="media&#45;tv/kodi&#45;18.0_rc5">
<ellipse fill="none" stroke="red" cx="907.31" cy="-250" rx="144" ry="18"/>
<text text-anchor="middle" x="907.31" y="-247" font-family="Helvetica,sans-Serif" font-size="10.00">media&#45;tv/kodi&#45;18.0_rc5</text>
</a>
</g>
</g>
<!-- dependency1621362&#45;&gt;choice1091011001059745116118471071111001054549564648951149953 -->
<g id="edge35" class="edge">
<title>dependency1621362:e&#45;&gt;choice1091011001059745116118471071111001054549564648951149953:w</title>
<path fill="none" stroke="black" stroke-dasharray="1,5" d="M649,-520C775.58,-520 640,-264.56 752.24,-250.59"/>
<polygon fill="black" stroke="black" points="762.31,-250 752.59,-255.08 757.31,-250.29 752.32,-250.59 752.32,-250.59 752.32,-250.59 757.31,-250.29 752.06,-246.1 762.31,-250 762.31,-250"/>
</g>
<!-- choice1091011001059745116118471071111001054549564649 -->
<g id="node37" class="node">
<title>choice1091011001059745116118471071111001054549564649</title>
<g id="a_node37"><a xlink:href="../media-tv/kodi-18.1.svg" xlink:title="media&#45;tv/kodi&#45;18.1">
<ellipse fill="none" stroke="red" cx="907.31" cy="-196" rx="144" ry="18"/>
<text text-anchor="middle" x="907.31" y="-193" font-family="Helvetica,sans-Serif" font-size="10.00">media&#45;tv/kodi&#45;18.1</text>
</a>
</g>
</g>
<!-- dependency1621362&#45;&gt;choice1091011001059745116118471071111001054549564649 -->
<g id="edge36" class="edge">
<title>dependency1621362:e&#45;&gt;choice1091011001059745116118471071111001054549564649:w</title>
<path fill="none" stroke="black" stroke-dasharray="1,5" d="M649,-520C797.98,-520 618.56,-211.01 752.14,-196.53"/>
<polygon fill="black" stroke="black" points="762.31,-196 752.55,-201.01 757.31,-196.26 752.32,-196.52 752.32,-196.52 752.32,-196.52 757.31,-196.26 752.09,-192.02 762.31,-196 762.31,-196"/>
</g>
<!-- choice1091011001059745116118471071111001054549564649951149949 -->
<g id="node38" class="node">
<title>choice1091011001059745116118471071111001054549564649951149949</title>
<g id="a_node38"><a xlink:href="../media-tv/kodi-18.1_rc1.svg" xlink:title="media&#45;tv/kodi&#45;18.1_rc1">
<ellipse fill="none" stroke="red" cx="907.31" cy="-142" rx="144" ry="18"/>
<text text-anchor="middle" x="907.31" y="-139" font-family="Helvetica,sans-Serif" font-size="10.00">media&#45;tv/kodi&#45;18.1_rc1</text>
</a>
</g>
</g>
<!-- dependency1621362&#45;&gt;choice1091011001059745116118471071111001054549564649951149949 -->
<g id="edge37" class="edge">
<title>dependency1621362:e&#45;&gt;choice1091011001059745116118471071111001054549564649951149949:w</title>
<path fill="none" stroke="black" stroke-dasharray="1,5" d="M649,-520C820.79,-520 596.49,-157.34 752.03,-142.47"/>
<polygon fill="black" stroke="black" points="762.31,-142 752.52,-146.95 757.31,-142.23 752.32,-142.46 752.32,-142.46 752.32,-142.46 757.31,-142.23 752.11,-137.96 762.31,-142 762.31,-142"/>
</g>
<!-- choice1091011001059745116118471071111001054557575757 -->
<g id="node39" class="node">
<title>choice1091011001059745116118471071111001054557575757</title>
<g id="a_node39"><a xlink:href="../media-tv/kodi-9999.svg" xlink:title="media&#45;tv/kodi&#45;9999">
<ellipse fill="none" stroke="red" cx="907.31" cy="-88" rx="144" ry="18"/>
<text text-anchor="middle" x="907.31" y="-85" font-family="Helvetica,sans-Serif" font-size="10.00">media&#45;tv/kodi&#45;9999</text>
</a>
</g>
</g>
<!-- dependency1621362&#45;&gt;choice1091011001059745116118471071111001054557575757 -->
<g id="edge38" class="edge">
<title>dependency1621362:e&#45;&gt;choice1091011001059745116118471071111001054557575757:w</title>
<path fill="none" stroke="black" stroke-dasharray="1,5" d="M649,-520C844,-520 573.64,-103.05 752.28,-88.4"/>
<polygon fill="black" stroke="black" points="762.31,-88 752.49,-92.89 757.31,-88.2 752.31,-88.39 752.31,-88.39 752.31,-88.39 757.31,-88.2 752.14,-83.9 762.31,-88 762.31,-88"/>
</g>
<!-- choice109101100105974511210811710310511011547107111100105451039710910145108105981141011161141114557575757 -->
<g id="node40" class="node">
<title>choice109101100105974511210811710310511011547107111100105451039710910145108105981141011161141114557575757</title>
<g id="a_node40"><a xlink:href="../media-plugins/kodi-game-libretro-9999.svg" xlink:title="media&#45;plugins/kodi&#45;game&#45;libretro&#45;9999">
<ellipse fill="none" stroke="red" cx="907.31" cy="-34" rx="144" ry="18"/>
<text text-anchor="middle" x="907.31" y="-31" font-family="Helvetica,sans-Serif" font-size="10.00">media&#45;plugins/kodi&#45;game&#45;libretro&#45;9999</text>
</a>
</g>
</g>
<!-- dependency1621363&#45;&gt;choice109101100105974511210811710310511011547107111100105451039710910145108105981141011161141114557575757 -->
<g id="edge39" class="edge">
<title>dependency1621363:e&#45;&gt;choice109101100105974511210811710310511011547107111100105451039710910145108105981141011161141114557575757:w</title>
<path fill="none" stroke="black" stroke-dasharray="1,5" d="M649,-364C800.44,-364 616.27,-49.29 751.97,-34.54"/>
<polygon fill="black" stroke="black" points="762.31,-34 752.55,-39.01 757.31,-34.26 752.32,-34.52 752.32,-34.52 752.32,-34.52 757.31,-34.26 752.09,-30.02 762.31,-34 762.31,-34"/>
</g>
</g>
</svg>
