<?xml version="1.0" encoding="UTF-8" standalone="no"?>
<!DOCTYPE svg PUBLIC "-//W3C//DTD SVG 1.1//EN"
 "http://www.w3.org/Graphics/SVG/1.1/DTD/svg11.dtd">
<!-- Generated by graphviz version 2.41.20171026.1811 (20171026.1811)
 -->
<!-- Title: prolog Pages: 1 -->
<svg width="1068pt" height="1015pt"
 viewBox="0.00 0.00 1068.00 1015.00" xmlns="http://www.w3.org/2000/svg" xmlns:xlink="http://www.w3.org/1999/xlink">
<g id="graph0" class="graph" transform="scale(1 1) rotate(0) translate(4 1011)">
<title>prolog</title>
<polygon fill="white" stroke="transparent" points="-4,4 -4,-1011 1064,-1011 1064,4 -4,4"/>
<g id="clust1" class="cluster">
<title>cluster_leftcol</title>
<polygon fill="none" stroke="gray" points="8,-695 8,-765 312,-765 312,-695 8,-695"/>
<text text-anchor="start" x="146.66" y="-754" font-family="Helvetica,sans-Serif" font-style="italic" font-size="10.00">ebuild</text>
</g>
<g id="clust2" class="cluster">
<title>cluster_midcol</title>
<polygon fill="none" stroke="gray" points="396,-239 396,-999 664,-999 664,-239 396,-239"/>
<text text-anchor="start" x="498.86" y="-988" font-family="Helvetica,sans-Serif" font-style="italic" font-size="10.00">dependencies</text>
</g>
<g id="clust3" class="cluster">
<title>cluster_compile</title>
<polygon fill="#eeeeee" stroke="gray" points="404,-599 404,-973 656,-973 656,-599 404,-599"/>
<text text-anchor="start" x="512.77" y="-962" font-family="Helvetica,sans-Serif" font-style="italic" font-size="10.00">compile</text>
</g>
<g id="clust7" class="cluster">
<title>cluster_compileandrun</title>
<polygon fill="#eeeeee" stroke="gray" points="404,-247 404,-379 656,-379 656,-247 404,-247"/>
<text text-anchor="start" x="494.42" y="-368" font-family="Helvetica,sans-Serif" font-style="italic" font-size="10.00">compile and run</text>
</g>
<g id="clust10" class="cluster">
<title>cluster_choices</title>
<polygon fill="none" stroke="gray" points="748,-8 748,-942 1052,-942 1052,-8 748,-8"/>
<text text-anchor="start" x="875.82" y="-931" font-family="Helvetica,sans-Serif" font-style="italic" font-size="10.00">candidates</text>
</g>
<!-- id -->
<g id="node1" class="node">
<title>id</title>
<g id="a_node1"><a xlink:href="../www-plugins/browserpass-2.0.11.svg" xlink:title="www&#45;plugins/browserpass&#45;2.0.11">
<ellipse fill="none" stroke="red" cx="160" cy="-721" rx="144" ry="18"/>
<text text-anchor="middle" x="160" y="-718" font-family="Helvetica,sans-Serif" font-size="10.00">www&#45;plugins/browserpass&#45;2.0.11</text>
</a>
</g>
</g>
<!-- dependency6695 -->
<g id="node2" class="node">
<title>dependency6695</title>
<polygon fill="none" stroke="blue" points="420,-853 420,-943 525,-943 525,-853 420,-853"/>
<text text-anchor="start" x="450.82" y="-895" font-family="Helvetica,sans-Serif" font-size="10.00">pack_dep</text>
<polygon fill="none" stroke="blue" points="525,-923 525,-943 635,-943 635,-923 525,-923"/>
<text text-anchor="start" x="574.44" y="-930" font-family="Helvetica,sans-Serif" font-size="10.00">no</text>
<polygon fill="none" stroke="blue" points="525,-903 525,-923 635,-923 635,-903 525,-903"/>
<text text-anchor="start" x="564.71" y="-910" font-family="Helvetica,sans-Serif" font-size="10.00">dev&#45;go</text>
<polygon fill="none" stroke="blue" points="525,-883 525,-903 635,-903 635,-883 525,-883"/>
<text text-anchor="start" x="559.71" y="-890" font-family="Helvetica,sans-Serif" font-size="10.00">twofactor</text>
<polygon fill="none" stroke="blue" points="525,-863 525,-883 635,-883 635,-863 525,-863"/>
<text text-anchor="start" x="568.88" y="-870" font-family="Helvetica,sans-Serif" font-size="10.00">none</text>
<polygon fill="none" stroke="blue" points="525,-853 525,-863 635,-863 635,-853 525,-853"/>
</g>
<!-- id&#45;&gt;dependency6695 -->
<g id="edge1" class="edge">
<title>id:e&#45;&gt;dependency6695:w</title>
<path fill="none" stroke="black" d="M305,-721C393.11,-721 325.09,-884.44 401.01,-897.21"/>
<polygon fill="black" stroke="black" points="411,-898 400.68,-901.7 406.02,-897.61 401.03,-897.21 401.03,-897.21 401.03,-897.21 406.02,-897.61 401.39,-892.73 411,-898 411,-898"/>
</g>
<!-- dependency6696 -->
<g id="node3" class="node">
<title>dependency6696</title>
<polygon fill="none" stroke="blue" points="420,-737 420,-827 525,-827 525,-737 420,-737"/>
<text text-anchor="start" x="450.82" y="-779" font-family="Helvetica,sans-Serif" font-size="10.00">pack_dep</text>
<polygon fill="none" stroke="blue" points="525,-807 525,-827 635,-827 635,-807 525,-807"/>
<text text-anchor="start" x="574.44" y="-814" font-family="Helvetica,sans-Serif" font-size="10.00">no</text>
<polygon fill="none" stroke="blue" points="525,-787 525,-807 635,-807 635,-787 525,-787"/>
<text text-anchor="start" x="564.71" y="-794" font-family="Helvetica,sans-Serif" font-size="10.00">dev&#45;go</text>
<polygon fill="none" stroke="blue" points="525,-767 525,-787 635,-787 635,-767 525,-767"/>
<text text-anchor="start" x="568.05" y="-774" font-family="Helvetica,sans-Serif" font-size="10.00">zglob</text>
<polygon fill="none" stroke="blue" points="525,-747 525,-767 635,-767 635,-747 525,-747"/>
<text text-anchor="start" x="568.88" y="-754" font-family="Helvetica,sans-Serif" font-size="10.00">none</text>
<polygon fill="none" stroke="blue" points="525,-737 525,-747 635,-747 635,-737 525,-737"/>
</g>
<!-- id&#45;&gt;dependency6696 -->
<g id="edge2" class="edge">
<title>id:e&#45;&gt;dependency6696:w</title>
<path fill="none" stroke="black" d="M305,-721C355.75,-721 356.75,-774.17 400.89,-781.23"/>
<polygon fill="black" stroke="black" points="411,-782 400.69,-785.73 406.01,-781.62 401.03,-781.24 401.03,-781.24 401.03,-781.24 406.01,-781.62 401.37,-776.75 411,-782 411,-782"/>
</g>
<!-- dependency6697 -->
<g id="node4" class="node">
<title>dependency6697</title>
<polygon fill="none" stroke="blue" points="420,-611 420,-711 525,-711 525,-611 420,-611"/>
<text text-anchor="start" x="450.82" y="-658" font-family="Helvetica,sans-Serif" font-size="10.00">pack_dep</text>
<polygon fill="none" stroke="blue" points="525,-691 525,-711 635,-711 635,-691 525,-691"/>
<text text-anchor="start" x="574.44" y="-698" font-family="Helvetica,sans-Serif" font-size="10.00">no</text>
<polygon fill="none" stroke="blue" points="525,-671 525,-691 635,-691 635,-671 525,-671"/>
<text text-anchor="start" x="560.82" y="-678" font-family="Helvetica,sans-Serif" font-size="10.00">dev&#45;lang</text>
<polygon fill="none" stroke="blue" points="525,-651 525,-671 635,-671 635,-651 525,-651"/>
<text text-anchor="start" x="574.44" y="-658" font-family="Helvetica,sans-Serif" font-size="10.00">go</text>
<polygon fill="none" stroke="blue" points="525,-631 525,-651 635,-651 635,-631 525,-631"/>
<text text-anchor="start" x="551.92" y="-638" font-family="Helvetica,sans-Serif" font-size="10.00">greaterequal</text>
<polygon fill="none" stroke="blue" points="525,-611 525,-631 635,-631 635,-611 525,-611"/>
<text text-anchor="start" x="573.05" y="-618" font-family="Helvetica,sans-Serif" font-size="10.00">1.8</text>
</g>
<!-- id&#45;&gt;dependency6697 -->
<g id="edge3" class="edge">
<title>id:e&#45;&gt;dependency6697:w</title>
<path fill="none" stroke="black" d="M305,-721C355.54,-721 356.92,-668.7 400.93,-661.76"/>
<polygon fill="black" stroke="black" points="411,-661 401.37,-666.24 406.01,-661.38 401.03,-661.75 401.03,-661.75 401.03,-661.75 406.01,-661.38 400.69,-657.26 411,-661 411,-661"/>
</g>
<!-- dependency6698 -->
<g id="node5" class="node">
<title>dependency6698</title>
<polygon fill="none" stroke="blue" points="420,-259 420,-349 525,-349 525,-259 420,-259"/>
<text text-anchor="start" x="450.82" y="-301" font-family="Helvetica,sans-Serif" font-size="10.00">pack_dep</text>
<polygon fill="none" stroke="blue" points="525,-329 525,-349 635,-349 635,-329 525,-329"/>
<text text-anchor="start" x="574.44" y="-336" font-family="Helvetica,sans-Serif" font-size="10.00">no</text>
<polygon fill="none" stroke="blue" points="525,-309 525,-329 635,-329 635,-309 525,-309"/>
<text text-anchor="start" x="559.16" y="-316" font-family="Helvetica,sans-Serif" font-size="10.00">app&#45;crypt</text>
<polygon fill="none" stroke="blue" points="525,-289 525,-309 635,-309 635,-289 525,-289"/>
<text text-anchor="start" x="566.1" y="-296" font-family="Helvetica,sans-Serif" font-size="10.00">gnupg</text>
<polygon fill="none" stroke="blue" points="525,-269 525,-289 635,-289 635,-269 525,-269"/>
<text text-anchor="start" x="568.88" y="-276" font-family="Helvetica,sans-Serif" font-size="10.00">none</text>
<polygon fill="none" stroke="blue" points="525,-259 525,-269 635,-269 635,-259 525,-259"/>
</g>
<!-- id&#45;&gt;dependency6698 -->
<g id="edge4" class="edge">
<title>id:e&#45;&gt;dependency6698:w</title>
<path fill="none" stroke="black" d="M305,-721C489.69,-721 238.12,-332.02 392.99,-305.43"/>
<ellipse fill="none" stroke="black" cx="407.01" cy="-304.32" rx="4" ry="4"/>
<polygon fill="black" stroke="black" points="403.03,-304.63 393.41,-309.91 398.04,-305.03 393.06,-305.42 393.06,-305.42 393.06,-305.42 398.04,-305.03 392.7,-300.94 403.03,-304.63 403.03,-304.63"/>
</g>
<!-- choice100101118451031114711611911110297991161111144548951125048495548574955 -->
<g id="node6" class="node">
<title>choice100101118451031114711611911110297991161111144548951125048495548574955</title>
<g id="a_node6"><a xlink:href="../dev-go/twofactor-0_p20170917.svg" xlink:title="dev&#45;go/twofactor&#45;0_p20170917">
<ellipse fill="none" stroke="red" cx="900" cy="-898" rx="144" ry="18"/>
<text text-anchor="middle" x="900" y="-895" font-family="Helvetica,sans-Serif" font-size="10.00">dev&#45;go/twofactor&#45;0_p20170917</text>
</a>
</g>
</g>
<!-- dependency6695&#45;&gt;choice100101118451031114711611911110297991161111144548951125048495548574955 -->
<g id="edge5" class="edge">
<title>dependency6695:e&#45;&gt;choice100101118451031114711611911110297991161111144548951125048495548574955:w</title>
<path fill="none" stroke="black" stroke-dasharray="1,5" d="M649,-898C692.43,-898 705.83,-898 744.57,-898"/>
<polygon fill="black" stroke="black" points="755,-898 745,-902.5 750,-898 745,-898 745,-898 745,-898 750,-898 745,-893.5 755,-898 755,-898"/>
</g>
<!-- choice1001011184510311147122103108111984548951125048495549505148 -->
<g id="node7" class="node">
<title>choice1001011184510311147122103108111984548951125048495549505148</title>
<g id="a_node7"><a xlink:href="../dev-go/zglob-0_p20171230.svg" xlink:title="dev&#45;go/zglob&#45;0_p20171230">
<ellipse fill="none" stroke="red" cx="900" cy="-844" rx="144" ry="18"/>
<text text-anchor="middle" x="900" y="-841" font-family="Helvetica,sans-Serif" font-size="10.00">dev&#45;go/zglob&#45;0_p20171230</text>
</a>
</g>
</g>
<!-- dependency6696&#45;&gt;choice1001011184510311147122103108111984548951125048495549505148 -->
<g id="edge6" class="edge">
<title>dependency6696:e&#45;&gt;choice1001011184510311147122103108111984548951125048495549505148:w</title>
<path fill="none" stroke="black" stroke-dasharray="1,5" d="M649,-782C699.95,-782 700.59,-836.04 744.86,-843.22"/>
<polygon fill="black" stroke="black" points="755,-844 744.68,-847.72 750.01,-843.61 745.03,-843.23 745.03,-843.23 745.03,-843.23 750.01,-843.61 745.38,-838.74 755,-844 755,-844"/>
</g>
<!-- choice1001011184510897110103471031114549464948 -->
<g id="node8" class="node">
<title>choice1001011184510897110103471031114549464948</title>
<g id="a_node8"><a xlink:href="../dev-lang/go-1.10.svg" xlink:title="dev&#45;lang/go&#45;1.10">
<ellipse fill="none" stroke="red" cx="900" cy="-790" rx="144" ry="18"/>
<text text-anchor="middle" x="900" y="-787" font-family="Helvetica,sans-Serif" font-size="10.00">dev&#45;lang/go&#45;1.10</text>
</a>
</g>
</g>
<!-- dependency6697&#45;&gt;choice1001011184510897110103471031114549464948 -->
<g id="edge7" class="edge">
<title>dependency6697:e&#45;&gt;choice1001011184510897110103471031114549464948:w</title>
<path fill="none" stroke="black" stroke-dasharray="1,5" d="M649,-661C719.58,-661 684.66,-777.71 744.94,-789.11"/>
<polygon fill="black" stroke="black" points="755,-790 744.64,-793.6 750.02,-789.56 745.04,-789.12 745.04,-789.12 745.04,-789.12 750.02,-789.56 745.44,-784.63 755,-790 755,-790"/>
</g>
<!-- choice100101118451089711010347103111454946574649 -->
<g id="node9" class="node">
<title>choice100101118451089711010347103111454946574649</title>
<g id="a_node9"><a xlink:href="../dev-lang/go-1.9.1.svg" xlink:title="dev&#45;lang/go&#45;1.9.1">
<ellipse fill="none" stroke="red" cx="900" cy="-736" rx="144" ry="18"/>
<text text-anchor="middle" x="900" y="-733" font-family="Helvetica,sans-Serif" font-size="10.00">dev&#45;lang/go&#45;1.9.1</text>
</a>
</g>
</g>
<!-- dependency6697&#45;&gt;choice100101118451089711010347103111454946574649 -->
<g id="edge8" class="edge">
<title>dependency6697:e&#45;&gt;choice100101118451089711010347103111454946574649:w</title>
<path fill="none" stroke="black" stroke-dasharray="1,5" d="M649,-661C703.1,-661 698.2,-726.92 744.93,-735.16"/>
<polygon fill="black" stroke="black" points="755,-736 744.66,-739.65 750.02,-735.58 745.03,-735.17 745.03,-735.17 745.03,-735.17 750.02,-735.58 745.41,-730.68 755,-736 755,-736"/>
</g>
<!-- choice100101118451089711010347103111454946574650 -->
<g id="node10" class="node">
<title>choice100101118451089711010347103111454946574650</title>
<g id="a_node10"><a xlink:href="../dev-lang/go-1.9.2.svg" xlink:title="dev&#45;lang/go&#45;1.9.2">
<ellipse fill="none" stroke="red" cx="900" cy="-682" rx="144" ry="18"/>
<text text-anchor="middle" x="900" y="-679" font-family="Helvetica,sans-Serif" font-size="10.00">dev&#45;lang/go&#45;1.9.2</text>
</a>
</g>
</g>
<!-- dependency6697&#45;&gt;choice100101118451089711010347103111454946574650 -->
<g id="edge9" class="edge">
<title>dependency6697:e&#45;&gt;choice100101118451089711010347103111454946574650:w</title>
<path fill="none" stroke="black" stroke-dasharray="1,5" d="M649,-661C693.46,-661 705.29,-679 744.9,-681.67"/>
<polygon fill="black" stroke="black" points="755,-682 744.86,-686.17 750,-681.84 745.01,-681.67 745.01,-681.67 745.01,-681.67 750,-681.84 745.15,-677.18 755,-682 755,-682"/>
</g>
<!-- choice100101118451089711010347103111454946574651 -->
<g id="node11" class="node">
<title>choice100101118451089711010347103111454946574651</title>
<g id="a_node11"><a xlink:href="../dev-lang/go-1.9.3.svg" xlink:title="dev&#45;lang/go&#45;1.9.3">
<ellipse fill="none" stroke="red" cx="900" cy="-628" rx="144" ry="18"/>
<text text-anchor="middle" x="900" y="-625" font-family="Helvetica,sans-Serif" font-size="10.00">dev&#45;lang/go&#45;1.9.3</text>
</a>
</g>
</g>
<!-- dependency6697&#45;&gt;choice100101118451089711010347103111454946574651 -->
<g id="edge10" class="edge">
<title>dependency6697:e&#45;&gt;choice100101118451089711010347103111454946574651:w</title>
<path fill="none" stroke="black" stroke-dasharray="1,5" d="M649,-661C694.78,-661 704.38,-632.6 744.93,-628.49"/>
<polygon fill="black" stroke="black" points="755,-628 745.23,-632.98 750.01,-628.24 745.01,-628.49 745.01,-628.49 745.01,-628.49 750.01,-628.24 744.79,-623.99 755,-628 755,-628"/>
</g>
<!-- choice100101118451089711010347103111454946574652 -->
<g id="node12" class="node">
<title>choice100101118451089711010347103111454946574652</title>
<g id="a_node12"><a xlink:href="../dev-lang/go-1.9.4.svg" xlink:title="dev&#45;lang/go&#45;1.9.4">
<ellipse fill="none" stroke="red" cx="900" cy="-574" rx="144" ry="18"/>
<text text-anchor="middle" x="900" y="-571" font-family="Helvetica,sans-Serif" font-size="10.00">dev&#45;lang/go&#45;1.9.4</text>
</a>
</g>
</g>
<!-- dependency6697&#45;&gt;choice100101118451089711010347103111454946574652 -->
<g id="edge11" class="edge">
<title>dependency6697:e&#45;&gt;choice100101118451089711010347103111454946574652:w</title>
<path fill="none" stroke="black" stroke-dasharray="1,5" d="M649,-661C706.26,-661 695.7,-584.22 744.74,-574.92"/>
<polygon fill="black" stroke="black" points="755,-574 745.44,-579.37 750.02,-574.45 745.04,-574.89 745.04,-574.89 745.04,-574.89 750.02,-574.45 744.64,-570.41 755,-574 755,-574"/>
</g>
<!-- choice1001011184510897110103471031114557575757 -->
<g id="node13" class="node">
<title>choice1001011184510897110103471031114557575757</title>
<g id="a_node13"><a xlink:href="../dev-lang/go-9999.svg" xlink:title="dev&#45;lang/go&#45;9999">
<ellipse fill="none" stroke="red" cx="900" cy="-520" rx="144" ry="18"/>
<text text-anchor="middle" x="900" y="-517" font-family="Helvetica,sans-Serif" font-size="10.00">dev&#45;lang/go&#45;9999</text>
</a>
</g>
</g>
<!-- dependency6697&#45;&gt;choice1001011184510897110103471031114557575757 -->
<g id="edge12" class="edge">
<title>dependency6697:e&#45;&gt;choice1001011184510897110103471031114557575757:w</title>
<path fill="none" stroke="black" stroke-dasharray="1,5" d="M649,-661C723.73,-661 681.08,-532.91 744.8,-520.9"/>
<polygon fill="black" stroke="black" points="755,-520 745.43,-525.36 750.02,-520.44 745.04,-520.88 745.04,-520.88 745.04,-520.88 750.02,-520.44 744.64,-516.4 755,-520 755,-520"/>
</g>
<!-- choice9711211245991141211121164710311011711210345494652465049 -->
<g id="node14" class="node">
<title>choice9711211245991141211121164710311011711210345494652465049</title>
<g id="a_node14"><a xlink:href="../app-crypt/gnupg-1.4.21.svg" xlink:title="app&#45;crypt/gnupg&#45;1.4.21">
<ellipse fill="none" stroke="red" cx="900" cy="-466" rx="144" ry="18"/>
<text text-anchor="middle" x="900" y="-463" font-family="Helvetica,sans-Serif" font-size="10.00">app&#45;crypt/gnupg&#45;1.4.21</text>
</a>
</g>
</g>
<!-- dependency6698&#45;&gt;choice9711211245991141211121164710311011711210345494652465049 -->
<g id="edge13" class="edge">
<title>dependency6698:e&#45;&gt;choice9711211245991141211121164710311011711210345494652465049:w</title>
<path fill="none" stroke="black" stroke-dasharray="1,5" d="M649,-304C731.35,-304 674.36,-452.38 744.73,-465.13"/>
<polygon fill="black" stroke="black" points="755,-466 744.66,-469.64 750.02,-465.58 745.04,-465.15 745.04,-465.15 745.04,-465.15 750.02,-465.58 745.42,-460.67 755,-466 755,-466"/>
</g>
<!-- choice9711211245991141211121164710311011711210345504649464953 -->
<g id="node15" class="node">
<title>choice9711211245991141211121164710311011711210345504649464953</title>
<g id="a_node15"><a xlink:href="../app-crypt/gnupg-2.1.15.svg" xlink:title="app&#45;crypt/gnupg&#45;2.1.15">
<ellipse fill="none" stroke="red" cx="900" cy="-412" rx="144" ry="18"/>
<text text-anchor="middle" x="900" y="-409" font-family="Helvetica,sans-Serif" font-size="10.00">app&#45;crypt/gnupg&#45;2.1.15</text>
</a>
</g>
</g>
<!-- dependency6698&#45;&gt;choice9711211245991141211121164710311011711210345504649464953 -->
<g id="edge14" class="edge">
<title>dependency6698:e&#45;&gt;choice9711211245991141211121164710311011711210345504649464953:w</title>
<path fill="none" stroke="black" stroke-dasharray="1,5" d="M649,-304C712.58,-304 690.58,-400.51 744.79,-411.07"/>
<polygon fill="black" stroke="black" points="755,-412 744.63,-415.57 750.02,-411.54 745.04,-411.09 745.04,-411.09 745.04,-411.09 750.02,-411.54 745.45,-406.61 755,-412 755,-412"/>
</g>
<!-- choice97112112459911412111211647103110117112103455046494650484511449 -->
<g id="node16" class="node">
<title>choice97112112459911412111211647103110117112103455046494650484511449</title>
<g id="a_node16"><a xlink:href="../app-crypt/gnupg-2.1.20-r1.svg" xlink:title="app&#45;crypt/gnupg&#45;2.1.20&#45;r1">
<ellipse fill="none" stroke="red" cx="900" cy="-358" rx="144" ry="18"/>
<text text-anchor="middle" x="900" y="-355" font-family="Helvetica,sans-Serif" font-size="10.00">app&#45;crypt/gnupg&#45;2.1.20&#45;r1</text>
</a>
</g>
</g>
<!-- dependency6698&#45;&gt;choice97112112459911412111211647103110117112103455046494650484511449 -->
<g id="edge15" class="edge">
<title>dependency6698:e&#45;&gt;choice97112112459911412111211647103110117112103455046494650484511449:w</title>
<path fill="none" stroke="black" stroke-dasharray="1,5" d="M649,-304C698.26,-304 701.85,-350.87 744.86,-357.28"/>
<polygon fill="black" stroke="black" points="755,-358 744.71,-361.78 750.01,-357.64 745.03,-357.29 745.03,-357.29 745.03,-357.29 750.01,-357.64 745.35,-352.8 755,-358 755,-358"/>
</g>
<!-- choice97112112459911412111211647103110117112103455046504648 -->
<g id="node17" class="node">
<title>choice97112112459911412111211647103110117112103455046504648</title>
<g id="a_node17"><a xlink:href="../app-crypt/gnupg-2.2.0.svg" xlink:title="app&#45;crypt/gnupg&#45;2.2.0">
<ellipse fill="none" stroke="red" cx="900" cy="-304" rx="144" ry="18"/>
<text text-anchor="middle" x="900" y="-301" font-family="Helvetica,sans-Serif" font-size="10.00">app&#45;crypt/gnupg&#45;2.2.0</text>
</a>
</g>
</g>
<!-- dependency6698&#45;&gt;choice97112112459911412111211647103110117112103455046504648 -->
<g id="edge16" class="edge">
<title>dependency6698:e&#45;&gt;choice97112112459911412111211647103110117112103455046504648:w</title>
<path fill="none" stroke="black" stroke-dasharray="1,5" d="M649,-304C692.43,-304 705.83,-304 744.57,-304"/>
<polygon fill="black" stroke="black" points="755,-304 745,-308.5 750,-304 745,-304 745,-304 745,-304 750,-304 745,-299.5 755,-304 755,-304"/>
</g>
<!-- choice97112112459911412111211647103110117112103455046504649 -->
<g id="node18" class="node">
<title>choice97112112459911412111211647103110117112103455046504649</title>
<g id="a_node18"><a xlink:href="../app-crypt/gnupg-2.2.1.svg" xlink:title="app&#45;crypt/gnupg&#45;2.2.1">
<ellipse fill="none" stroke="red" cx="900" cy="-250" rx="144" ry="18"/>
<text text-anchor="middle" x="900" y="-247" font-family="Helvetica,sans-Serif" font-size="10.00">app&#45;crypt/gnupg&#45;2.2.1</text>
</a>
</g>
</g>
<!-- dependency6698&#45;&gt;choice97112112459911412111211647103110117112103455046504649 -->
<g id="edge17" class="edge">
<title>dependency6698:e&#45;&gt;choice97112112459911412111211647103110117112103455046504649:w</title>
<path fill="none" stroke="black" stroke-dasharray="1,5" d="M649,-304C698.26,-304 701.85,-257.13 744.86,-250.72"/>
<polygon fill="black" stroke="black" points="755,-250 745.35,-255.2 750.01,-250.36 745.03,-250.71 745.03,-250.71 745.03,-250.71 750.01,-250.36 744.71,-246.22 755,-250 755,-250"/>
</g>
<!-- choice97112112459911412111211647103110117112103455046504651 -->
<g id="node19" class="node">
<title>choice97112112459911412111211647103110117112103455046504651</title>
<g id="a_node19"><a xlink:href="../app-crypt/gnupg-2.2.3.svg" xlink:title="app&#45;crypt/gnupg&#45;2.2.3">
<ellipse fill="none" stroke="red" cx="900" cy="-196" rx="144" ry="18"/>
<text text-anchor="middle" x="900" y="-193" font-family="Helvetica,sans-Serif" font-size="10.00">app&#45;crypt/gnupg&#45;2.2.3</text>
</a>
</g>
</g>
<!-- dependency6698&#45;&gt;choice97112112459911412111211647103110117112103455046504651 -->
<g id="edge18" class="edge">
<title>dependency6698:e&#45;&gt;choice97112112459911412111211647103110117112103455046504651:w</title>
<path fill="none" stroke="black" stroke-dasharray="1,5" d="M649,-304C712.58,-304 690.58,-207.49 744.79,-196.93"/>
<polygon fill="black" stroke="black" points="755,-196 745.45,-201.39 750.02,-196.46 745.04,-196.91 745.04,-196.91 745.04,-196.91 750.02,-196.46 744.63,-192.43 755,-196 755,-196"/>
</g>
<!-- choice97112112459911412111211647103110117112103455046504652 -->
<g id="node20" class="node">
<title>choice97112112459911412111211647103110117112103455046504652</title>
<g id="a_node20"><a xlink:href="../app-crypt/gnupg-2.2.4.svg" xlink:title="app&#45;crypt/gnupg&#45;2.2.4">
<ellipse fill="none" stroke="red" cx="900" cy="-142" rx="144" ry="18"/>
<text text-anchor="middle" x="900" y="-139" font-family="Helvetica,sans-Serif" font-size="10.00">app&#45;crypt/gnupg&#45;2.2.4</text>
</a>
</g>
</g>
<!-- dependency6698&#45;&gt;choice97112112459911412111211647103110117112103455046504652 -->
<g id="edge19" class="edge">
<title>dependency6698:e&#45;&gt;choice97112112459911412111211647103110117112103455046504652:w</title>
<path fill="none" stroke="black" stroke-dasharray="1,5" d="M649,-304C731.35,-304 674.36,-155.62 744.73,-142.87"/>
<polygon fill="black" stroke="black" points="755,-142 745.42,-147.33 750.02,-142.42 745.04,-142.85 745.04,-142.85 745.04,-142.85 750.02,-142.42 744.66,-138.36 755,-142 755,-142"/>
</g>
<!-- choice971121124599114121112116471031101171121034550465046524511449 -->
<g id="node21" class="node">
<title>choice971121124599114121112116471031101171121034550465046524511449</title>
<g id="a_node21"><a xlink:href="../app-crypt/gnupg-2.2.4-r1.svg" xlink:title="app&#45;crypt/gnupg&#45;2.2.4&#45;r1">
<ellipse fill="none" stroke="red" cx="900" cy="-88" rx="144" ry="18"/>
<text text-anchor="middle" x="900" y="-85" font-family="Helvetica,sans-Serif" font-size="10.00">app&#45;crypt/gnupg&#45;2.2.4&#45;r1</text>
</a>
</g>
</g>
<!-- dependency6698&#45;&gt;choice971121124599114121112116471031101171121034550465046524511449 -->
<g id="edge20" class="edge">
<title>dependency6698:e&#45;&gt;choice971121124599114121112116471031101171121034550465046524511449:w</title>
<path fill="none" stroke="black" stroke-dasharray="1,5" d="M649,-304C752.28,-304 655.19,-102.51 744.77,-88.74"/>
<polygon fill="black" stroke="black" points="755,-88 745.35,-93.21 750.01,-88.36 745.03,-88.72 745.03,-88.72 745.03,-88.72 750.01,-88.36 744.7,-84.23 755,-88 755,-88"/>
</g>
<!-- choice971121124599114121112116471031101171121034550465046524511450 -->
<g id="node22" class="node">
<title>choice971121124599114121112116471031101171121034550465046524511450</title>
<g id="a_node22"><a xlink:href="../app-crypt/gnupg-2.2.4-r2.svg" xlink:title="app&#45;crypt/gnupg&#45;2.2.4&#45;r2">
<ellipse fill="none" stroke="red" cx="900" cy="-34" rx="144" ry="18"/>
<text text-anchor="middle" x="900" y="-31" font-family="Helvetica,sans-Serif" font-size="10.00">app&#45;crypt/gnupg&#45;2.2.4&#45;r2</text>
</a>
</g>
</g>
<!-- dependency6698&#45;&gt;choice971121124599114121112116471031101171121034550465046524511450 -->
<g id="edge21" class="edge">
<title>dependency6698:e&#45;&gt;choice971121124599114121112116471031101171121034550465046524511450:w</title>
<path fill="none" stroke="black" stroke-dasharray="1,5" d="M649,-304C774.27,-304 634.46,-49.08 744.71,-34.64"/>
<polygon fill="black" stroke="black" points="755,-34 745.3,-39.11 750.01,-34.31 745.02,-34.62 745.02,-34.62 745.02,-34.62 750.01,-34.31 744.74,-30.13 755,-34 755,-34"/>
</g>
</g>
</svg>
