<?xml version="1.0" encoding="UTF-8" standalone="no"?>
<!DOCTYPE svg PUBLIC "-//W3C//DTD SVG 1.1//EN"
 "http://www.w3.org/Graphics/SVG/1.1/DTD/svg11.dtd">
<!-- Generated by graphviz version 9.0.0 (20230911.1827)
 -->
<!-- Title: prolog Pages: 1 -->
<svg width="1068pt" height="1383pt"
 viewBox="0.00 0.00 1068.00 1383.00" xmlns="http://www.w3.org/2000/svg" xmlns:xlink="http://www.w3.org/1999/xlink">
<g id="graph0" class="graph" transform="scale(1 1) rotate(0) translate(4 1379)">
<title>prolog</title>
<polygon fill="white" stroke="none" points="-4,4 -4,-1379 1064,-1379 1064,4 -4,4"/>
<g id="clust1" class="cluster">
<title>cluster_leftcol</title>
<polygon fill="none" stroke="gray" points="8,-513 8,-584 312,-584 312,-513 8,-513"/>
<text text-anchor="start" x="147.25" y="-571.5" font-family="Helvetica,sans-Serif" font-style="italic" font-size="10.00">ebuild</text>
</g>
<g id="clust2" class="cluster">
<title>cluster_midcol</title>
<polygon fill="none" stroke="gray" points="396,-8 396,-1109 664,-1109 664,-8 396,-8"/>
<text text-anchor="start" x="500" y="-1096.5" font-family="Helvetica,sans-Serif" font-style="italic" font-size="10.00">dependencies</text>
</g>
<g id="clust5" class="cluster">
<title>cluster_run</title>
<polygon fill="#eeeeee" stroke="gray" points="404,-16 404,-1082 656,-1082 656,-16 404,-16"/>
<text text-anchor="start" x="523.25" y="-1069.5" font-family="Helvetica,sans-Serif" font-style="italic" font-size="10.00">run</text>
</g>
<g id="clust14" class="cluster">
<title>cluster_choices</title>
<polygon fill="none" stroke="gray" points="748,-132 748,-1367 1052,-1367 1052,-132 748,-132"/>
<text text-anchor="start" x="876.38" y="-1354.5" font-family="Helvetica,sans-Serif" font-style="italic" font-size="10.00">candidates</text>
</g>
<!-- id -->
<g id="node1" class="node">
<title>id</title>
<g id="a_node1"><a xlink:href="../app-emacs/cask-0.8.8.svg" xlink:title="portage://app&#45;emacs/cask&#45;0.8.8">
<ellipse fill="none" stroke="red" cx="160" cy="-539" rx="144" ry="18"/>
<text text-anchor="middle" x="160" y="-535.12" font-family="Helvetica,sans-Serif" font-size="10.00">portage://app&#45;emacs/cask&#45;0.8.8</text>
</a>
</g>
</g>
<!-- dependency22298 -->
<g id="node2" class="node">
<title>dependency22298</title>
<polygon fill="none" stroke="blue" points="420,-945.5 420,-1050.5 524,-1050.5 524,-945.5 420,-945.5"/>
<text text-anchor="start" x="451" y="-994.12" font-family="Helvetica,sans-Serif" font-size="10.00">pack_dep</text>
<polygon fill="none" stroke="blue" points="524,-1029.5 524,-1050.5 634,-1050.5 634,-1029.5 524,-1029.5"/>
<text text-anchor="start" x="572.25" y="-1036" font-family="Helvetica,sans-Serif" font-size="10.00">run</text>
<polygon fill="none" stroke="blue" points="524,-1008.5 524,-1029.5 634,-1029.5 634,-1008.5 524,-1008.5"/>
<text text-anchor="start" x="555" y="-1015" font-family="Helvetica,sans-Serif" font-size="10.00">app&#45;editors</text>
<polygon fill="none" stroke="blue" points="524,-987.5 524,-1008.5 634,-1008.5 634,-987.5 524,-987.5"/>
<text text-anchor="start" x="564.38" y="-994" font-family="Helvetica,sans-Serif" font-size="10.00">emacs</text>
<polygon fill="none" stroke="blue" points="524,-966.5 524,-987.5 634,-987.5 634,-966.5 524,-966.5"/>
<text text-anchor="start" x="552.38" y="-973" font-family="Helvetica,sans-Serif" font-size="10.00">greaterequal</text>
<polygon fill="none" stroke="blue" points="524,-945.5 524,-966.5 634,-966.5 634,-945.5 524,-945.5"/>
<text text-anchor="start" x="552.75" y="-952" font-family="Helvetica,sans-Serif" font-size="10.00">[25.3,,,25.3]</text>
</g>
<!-- id&#45;&gt;dependency22298 -->
<g id="edge1" class="edge">
<title>id:e&#45;&gt;dependency22298:w</title>
<path fill="none" stroke="black" d="M305,-539C511.3,-539 210.68,-984.65 402.13,-997.71"/>
<ellipse fill="none" stroke="black" cx="406.5" cy="-997.85" rx="4" ry="4"/>
</g>
<!-- dependency22299 -->
<g id="node3" class="node">
<title>dependency22299</title>
<polygon fill="none" stroke="blue" points="420,-814.5 420,-919.5 524,-919.5 524,-814.5 420,-814.5"/>
<text text-anchor="start" x="451" y="-863.12" font-family="Helvetica,sans-Serif" font-size="10.00">pack_dep</text>
<polygon fill="none" stroke="blue" points="524,-898.5 524,-919.5 634,-919.5 634,-898.5 524,-898.5"/>
<text text-anchor="start" x="572.25" y="-905" font-family="Helvetica,sans-Serif" font-size="10.00">run</text>
<polygon fill="none" stroke="blue" points="524,-877.5 524,-898.5 634,-898.5 634,-877.5 524,-877.5"/>
<text text-anchor="start" x="555" y="-884" font-family="Helvetica,sans-Serif" font-size="10.00">app&#45;emacs</text>
<polygon fill="none" stroke="blue" points="524,-856.5 524,-877.5 634,-877.5 634,-856.5 524,-856.5"/>
<text text-anchor="start" x="570" y="-863" font-family="Helvetica,sans-Serif" font-size="10.00">ansi</text>
<polygon fill="none" stroke="blue" points="524,-835.5 524,-856.5 634,-856.5 634,-835.5 524,-835.5"/>
<text text-anchor="start" x="568.5" y="-842" font-family="Helvetica,sans-Serif" font-size="10.00">none</text>
<polygon fill="none" stroke="blue" points="524,-814.5 524,-835.5 634,-835.5 634,-814.5 524,-814.5"/>
<text text-anchor="start" x="573" y="-821" font-family="Helvetica,sans-Serif" font-size="10.00">[,,]</text>
</g>
<!-- id&#45;&gt;dependency22299 -->
<g id="edge2" class="edge">
<title>id:e&#45;&gt;dependency22299:w</title>
<path fill="none" stroke="black" d="M305,-539C455.06,-539 265.87,-853.68 402.01,-866.59"/>
<ellipse fill="none" stroke="black" cx="406.5" cy="-866.8" rx="4" ry="4"/>
</g>
<!-- dependency22300 -->
<g id="node4" class="node">
<title>dependency22300</title>
<polygon fill="none" stroke="blue" points="420,-683.5 420,-788.5 524,-788.5 524,-683.5 420,-683.5"/>
<text text-anchor="start" x="451" y="-732.12" font-family="Helvetica,sans-Serif" font-size="10.00">pack_dep</text>
<polygon fill="none" stroke="blue" points="524,-767.5 524,-788.5 634,-788.5 634,-767.5 524,-767.5"/>
<text text-anchor="start" x="572.25" y="-774" font-family="Helvetica,sans-Serif" font-size="10.00">run</text>
<polygon fill="none" stroke="blue" points="524,-746.5 524,-767.5 634,-767.5 634,-746.5 524,-746.5"/>
<text text-anchor="start" x="555" y="-753" font-family="Helvetica,sans-Serif" font-size="10.00">app&#45;emacs</text>
<polygon fill="none" stroke="blue" points="524,-725.5 524,-746.5 634,-746.5 634,-725.5 524,-725.5"/>
<text text-anchor="start" x="553.5" y="-732" font-family="Helvetica,sans-Serif" font-size="10.00">commander</text>
<polygon fill="none" stroke="blue" points="524,-704.5 524,-725.5 634,-725.5 634,-704.5 524,-704.5"/>
<text text-anchor="start" x="568.5" y="-711" font-family="Helvetica,sans-Serif" font-size="10.00">none</text>
<polygon fill="none" stroke="blue" points="524,-683.5 524,-704.5 634,-704.5 634,-683.5 524,-683.5"/>
<text text-anchor="start" x="573" y="-690" font-family="Helvetica,sans-Serif" font-size="10.00">[,,]</text>
</g>
<!-- id&#45;&gt;dependency22300 -->
<g id="edge3" class="edge">
<title>id:e&#45;&gt;dependency22300:w</title>
<path fill="none" stroke="black" d="M305,-539C401.32,-539 317.19,-723.88 402.23,-735.43"/>
<ellipse fill="none" stroke="black" cx="406.51" cy="-735.71" rx="4" ry="4"/>
</g>
<!-- dependency22301 -->
<g id="node5" class="node">
<title>dependency22301</title>
<polygon fill="none" stroke="blue" points="420,-552.5 420,-657.5 524,-657.5 524,-552.5 420,-552.5"/>
<text text-anchor="start" x="451" y="-601.12" font-family="Helvetica,sans-Serif" font-size="10.00">pack_dep</text>
<polygon fill="none" stroke="blue" points="524,-636.5 524,-657.5 634,-657.5 634,-636.5 524,-636.5"/>
<text text-anchor="start" x="572.25" y="-643" font-family="Helvetica,sans-Serif" font-size="10.00">run</text>
<polygon fill="none" stroke="blue" points="524,-615.5 524,-636.5 634,-636.5 634,-615.5 524,-615.5"/>
<text text-anchor="start" x="555" y="-622" font-family="Helvetica,sans-Serif" font-size="10.00">app&#45;emacs</text>
<polygon fill="none" stroke="blue" points="524,-594.5 524,-615.5 634,-615.5 634,-594.5 524,-594.5"/>
<text text-anchor="start" x="572.62" y="-601" font-family="Helvetica,sans-Serif" font-size="10.00">epl</text>
<polygon fill="none" stroke="blue" points="524,-573.5 524,-594.5 634,-594.5 634,-573.5 524,-573.5"/>
<text text-anchor="start" x="568.5" y="-580" font-family="Helvetica,sans-Serif" font-size="10.00">none</text>
<polygon fill="none" stroke="blue" points="524,-552.5 524,-573.5 634,-573.5 634,-552.5 524,-552.5"/>
<text text-anchor="start" x="573" y="-559" font-family="Helvetica,sans-Serif" font-size="10.00">[,,]</text>
</g>
<!-- id&#45;&gt;dependency22301 -->
<g id="edge4" class="edge">
<title>id:e&#45;&gt;dependency22301:w</title>
<path fill="none" stroke="black" d="M305,-539C357.35,-539 355.87,-597.74 402.13,-604.39"/>
<ellipse fill="none" stroke="black" cx="406.51" cy="-604.69" rx="4" ry="4"/>
</g>
<!-- dependency22302 -->
<g id="node6" class="node">
<title>dependency22302</title>
<polygon fill="none" stroke="blue" points="420,-421.5 420,-526.5 524,-526.5 524,-421.5 420,-421.5"/>
<text text-anchor="start" x="451" y="-470.12" font-family="Helvetica,sans-Serif" font-size="10.00">pack_dep</text>
<polygon fill="none" stroke="blue" points="524,-505.5 524,-526.5 634,-526.5 634,-505.5 524,-505.5"/>
<text text-anchor="start" x="572.25" y="-512" font-family="Helvetica,sans-Serif" font-size="10.00">run</text>
<polygon fill="none" stroke="blue" points="524,-484.5 524,-505.5 634,-505.5 634,-484.5 524,-484.5"/>
<text text-anchor="start" x="555" y="-491" font-family="Helvetica,sans-Serif" font-size="10.00">app&#45;emacs</text>
<polygon fill="none" stroke="blue" points="524,-463.5 524,-484.5 634,-484.5 634,-463.5 524,-463.5"/>
<text text-anchor="start" x="577.5" y="-470" font-family="Helvetica,sans-Serif" font-size="10.00">f</text>
<polygon fill="none" stroke="blue" points="524,-442.5 524,-463.5 634,-463.5 634,-442.5 524,-442.5"/>
<text text-anchor="start" x="568.5" y="-449" font-family="Helvetica,sans-Serif" font-size="10.00">none</text>
<polygon fill="none" stroke="blue" points="524,-421.5 524,-442.5 634,-442.5 634,-421.5 524,-421.5"/>
<text text-anchor="start" x="573" y="-428" font-family="Helvetica,sans-Serif" font-size="10.00">[,,]</text>
</g>
<!-- id&#45;&gt;dependency22302 -->
<g id="edge5" class="edge">
<title>id:e&#45;&gt;dependency22302:w</title>
<path fill="none" stroke="black" d="M305,-539C357.13,-539 356.06,-481.15 402.16,-474.6"/>
<ellipse fill="none" stroke="black" cx="406.51" cy="-474.31" rx="4" ry="4"/>
</g>
<!-- dependency22303 -->
<g id="node7" class="node">
<title>dependency22303</title>
<polygon fill="none" stroke="blue" points="420,-290.5 420,-395.5 524,-395.5 524,-290.5 420,-290.5"/>
<text text-anchor="start" x="451" y="-339.12" font-family="Helvetica,sans-Serif" font-size="10.00">pack_dep</text>
<polygon fill="none" stroke="blue" points="524,-374.5 524,-395.5 634,-395.5 634,-374.5 524,-374.5"/>
<text text-anchor="start" x="572.25" y="-381" font-family="Helvetica,sans-Serif" font-size="10.00">run</text>
<polygon fill="none" stroke="blue" points="524,-353.5 524,-374.5 634,-374.5 634,-353.5 524,-353.5"/>
<text text-anchor="start" x="555" y="-360" font-family="Helvetica,sans-Serif" font-size="10.00">app&#45;emacs</text>
<polygon fill="none" stroke="blue" points="524,-332.5 524,-353.5 634,-353.5 634,-332.5 524,-332.5"/>
<text text-anchor="start" x="549" y="-339" font-family="Helvetica,sans-Serif" font-size="10.00">package&#45;build</text>
<polygon fill="none" stroke="blue" points="524,-311.5 524,-332.5 634,-332.5 634,-311.5 524,-311.5"/>
<text text-anchor="start" x="568.5" y="-318" font-family="Helvetica,sans-Serif" font-size="10.00">none</text>
<polygon fill="none" stroke="blue" points="524,-290.5 524,-311.5 634,-311.5 634,-290.5 524,-290.5"/>
<text text-anchor="start" x="573" y="-297" font-family="Helvetica,sans-Serif" font-size="10.00">[,,]</text>
</g>
<!-- id&#45;&gt;dependency22303 -->
<g id="edge6" class="edge">
<title>id:e&#45;&gt;dependency22303:w</title>
<path fill="none" stroke="black" d="M305,-539C400.94,-539 317.53,-355.06 402.26,-343.56"/>
<ellipse fill="none" stroke="black" cx="406.51" cy="-343.29" rx="4" ry="4"/>
</g>
<!-- dependency22304 -->
<g id="node8" class="node">
<title>dependency22304</title>
<polygon fill="none" stroke="blue" points="420,-159.5 420,-264.5 524,-264.5 524,-159.5 420,-159.5"/>
<text text-anchor="start" x="451" y="-208.12" font-family="Helvetica,sans-Serif" font-size="10.00">pack_dep</text>
<polygon fill="none" stroke="blue" points="524,-243.5 524,-264.5 634,-264.5 634,-243.5 524,-243.5"/>
<text text-anchor="start" x="572.25" y="-250" font-family="Helvetica,sans-Serif" font-size="10.00">run</text>
<polygon fill="none" stroke="blue" points="524,-222.5 524,-243.5 634,-243.5 634,-222.5 524,-222.5"/>
<text text-anchor="start" x="555" y="-229" font-family="Helvetica,sans-Serif" font-size="10.00">app&#45;emacs</text>
<polygon fill="none" stroke="blue" points="524,-201.5 524,-222.5 634,-222.5 634,-201.5 524,-201.5"/>
<text text-anchor="start" x="576.38" y="-208" font-family="Helvetica,sans-Serif" font-size="10.00">s</text>
<polygon fill="none" stroke="blue" points="524,-180.5 524,-201.5 634,-201.5 634,-180.5 524,-180.5"/>
<text text-anchor="start" x="568.5" y="-187" font-family="Helvetica,sans-Serif" font-size="10.00">none</text>
<polygon fill="none" stroke="blue" points="524,-159.5 524,-180.5 634,-180.5 634,-159.5 524,-159.5"/>
<text text-anchor="start" x="573" y="-166" font-family="Helvetica,sans-Serif" font-size="10.00">[,,]</text>
</g>
<!-- id&#45;&gt;dependency22304 -->
<g id="edge7" class="edge">
<title>id:e&#45;&gt;dependency22304:w</title>
<path fill="none" stroke="black" d="M305,-539C454.65,-539 266.26,-225.27 402.04,-212.41"/>
<ellipse fill="none" stroke="black" cx="406.5" cy="-212.2" rx="4" ry="4"/>
</g>
<!-- dependency22305 -->
<g id="node9" class="node">
<title>dependency22305</title>
<polygon fill="none" stroke="blue" points="420,-28.5 420,-133.5 524,-133.5 524,-28.5 420,-28.5"/>
<text text-anchor="start" x="451" y="-77.12" font-family="Helvetica,sans-Serif" font-size="10.00">pack_dep</text>
<polygon fill="none" stroke="blue" points="524,-112.5 524,-133.5 634,-133.5 634,-112.5 524,-112.5"/>
<text text-anchor="start" x="572.25" y="-119" font-family="Helvetica,sans-Serif" font-size="10.00">run</text>
<polygon fill="none" stroke="blue" points="524,-91.5 524,-112.5 634,-112.5 634,-91.5 524,-91.5"/>
<text text-anchor="start" x="555" y="-98" font-family="Helvetica,sans-Serif" font-size="10.00">app&#45;emacs</text>
<polygon fill="none" stroke="blue" points="524,-70.5 524,-91.5 634,-91.5 634,-70.5 524,-70.5"/>
<text text-anchor="start" x="562.88" y="-77" font-family="Helvetica,sans-Serif" font-size="10.00">shut&#45;up</text>
<polygon fill="none" stroke="blue" points="524,-49.5 524,-70.5 634,-70.5 634,-49.5 524,-49.5"/>
<text text-anchor="start" x="568.5" y="-56" font-family="Helvetica,sans-Serif" font-size="10.00">none</text>
<polygon fill="none" stroke="blue" points="524,-28.5 524,-49.5 634,-49.5 634,-28.5 524,-28.5"/>
<text text-anchor="start" x="573" y="-35" font-family="Helvetica,sans-Serif" font-size="10.00">[,,]</text>
</g>
<!-- id&#45;&gt;dependency22305 -->
<g id="edge8" class="edge">
<title>id:e&#45;&gt;dependency22305:w</title>
<path fill="none" stroke="black" d="M305,-539C510.88,-539 211.09,-94.32 402.15,-81.29"/>
<ellipse fill="none" stroke="black" cx="406.5" cy="-81.15" rx="4" ry="4"/>
</g>
<!-- choice971121124510110010511611111411547101109979911545514946484657575757 -->
<g id="node10" class="node">
<title>choice971121124510110010511611111411547101109979911545514946484657575757</title>
<g id="a_node10"><a xlink:href="../app-editors/emacs-31.0.9999.svg" xlink:title="portage://app&#45;editors/emacs&#45;31.0.9999">
<ellipse fill="none" stroke="red" cx="900" cy="-1322" rx="144" ry="18"/>
<text text-anchor="middle" x="900" y="-1318.12" font-family="Helvetica,sans-Serif" font-size="10.00">portage://app&#45;editors/emacs&#45;31.0.9999</text>
</a>
</g>
</g>
<!-- dependency22298&#45;&gt;choice971121124510110010511611111411547101109979911545514946484657575757 -->
<g id="edge9" class="edge">
<title>dependency22298:e&#45;&gt;choice971121124510110010511611111411547101109979911545514946484657575757:w</title>
<path fill="none" stroke="black" stroke-dasharray="1,5" d="M649,-998C796.66,-998 613.27,-1305.76 744.12,-1321.38"/>
<polygon fill="black" stroke="black" points="753.78,-1321.93 743.55,-1325.86 750.01,-1321.72 743.8,-1321.37 743.8,-1321.37 743.8,-1321.37 750.01,-1321.72 744.05,-1316.87 753.78,-1321.93"/>
</g>
<!-- choice9711211245101100105116111114115471011099799115455148464846575757574511449 -->
<g id="node11" class="node">
<title>choice9711211245101100105116111114115471011099799115455148464846575757574511449</title>
<g id="a_node11"><a xlink:href="../app-editors/emacs-30.0.9999-r1.svg" xlink:title="portage://app&#45;editors/emacs&#45;30.0.9999&#45;r1">
<ellipse fill="none" stroke="red" cx="900" cy="-1268" rx="144" ry="18"/>
<text text-anchor="middle" x="900" y="-1264.12" font-family="Helvetica,sans-Serif" font-size="10.00">portage://app&#45;editors/emacs&#45;30.0.9999&#45;r1</text>
</a>
</g>
</g>
<!-- dependency22298&#45;&gt;choice9711211245101100105116111114115471011099799115455148464846575757574511449 -->
<g id="edge10" class="edge">
<title>dependency22298:e&#45;&gt;choice9711211245101100105116111114115471011099799115455148464846575757574511449:w</title>
<path fill="none" stroke="black" stroke-dasharray="1,5" d="M649,-998C774.01,-998 635.02,-1251.9 744.05,-1267.27"/>
<polygon fill="black" stroke="black" points="753.78,-1267.92 743.51,-1271.75 750.01,-1267.67 743.81,-1267.26 743.81,-1267.26 743.81,-1267.26 750.01,-1267.67 744.1,-1262.77 753.78,-1267.92"/>
</g>
<!-- choice97112112451011001051161111141154710110997991154550574652 -->
<g id="node12" class="node">
<title>choice97112112451011001051161111141154710110997991154550574652</title>
<g id="a_node12"><a xlink:href="../app-editors/emacs-29.4.svg" xlink:title="portage://app&#45;editors/emacs&#45;29.4">
<ellipse fill="none" stroke="red" cx="900" cy="-1214" rx="144" ry="18"/>
<text text-anchor="middle" x="900" y="-1210.12" font-family="Helvetica,sans-Serif" font-size="10.00">portage://app&#45;editors/emacs&#45;29.4</text>
</a>
</g>
</g>
<!-- dependency22298&#45;&gt;choice97112112451011001051161111141154710110997991154550574652 -->
<g id="edge11" class="edge">
<title>dependency22298:e&#45;&gt;choice97112112451011001051161111141154710110997991154550574652:w</title>
<path fill="none" stroke="black" stroke-dasharray="1,5" d="M649,-998C751.97,-998 655.77,-1198.27 743.96,-1213.13"/>
<polygon fill="black" stroke="black" points="753.79,-1213.9 743.46,-1217.6 750.02,-1213.61 743.82,-1213.12 743.82,-1213.12 743.82,-1213.12 750.02,-1213.61 744.17,-1208.63 753.79,-1213.9"/>
</g>
<!-- choice971121124510110010511611111411547101109979911545505746514511451 -->
<g id="node13" class="node">
<title>choice971121124510110010511611111411547101109979911545505746514511451</title>
<g id="a_node13"><a xlink:href="../app-editors/emacs-29.3-r3.svg" xlink:title="portage://app&#45;editors/emacs&#45;29.3&#45;r3">
<ellipse fill="none" stroke="red" cx="900" cy="-1160" rx="144" ry="18"/>
<text text-anchor="middle" x="900" y="-1156.12" font-family="Helvetica,sans-Serif" font-size="10.00">portage://app&#45;editors/emacs&#45;29.3&#45;r3</text>
</a>
</g>
</g>
<!-- dependency22298&#45;&gt;choice971121124510110010511611111411547101109979911545505746514511451 -->
<g id="edge12" class="edge">
<title>dependency22298:e&#45;&gt;choice971121124510110010511611111411547101109979911545505746514511451:w</title>
<path fill="none" stroke="black" stroke-dasharray="1,5" d="M649,-998C731.01,-998 674.82,-1145.17 743.87,-1158.97"/>
<polygon fill="black" stroke="black" points="753.79,-1159.89 743.41,-1163.44 750.02,-1159.54 743.83,-1158.96 743.83,-1158.96 743.83,-1158.96 750.02,-1159.54 744.25,-1154.48 753.79,-1159.89"/>
</g>
<!-- choice971121124510110010511611111411547101109979911545505746514511450 -->
<g id="node14" class="node">
<title>choice971121124510110010511611111411547101109979911545505746514511450</title>
<g id="a_node14"><a xlink:href="../app-editors/emacs-29.3-r2.svg" xlink:title="portage://app&#45;editors/emacs&#45;29.3&#45;r2">
<ellipse fill="none" stroke="red" cx="900" cy="-1106" rx="144" ry="18"/>
<text text-anchor="middle" x="900" y="-1102.12" font-family="Helvetica,sans-Serif" font-size="10.00">portage://app&#45;editors/emacs&#45;29.3&#45;r2</text>
</a>
</g>
</g>
<!-- dependency22298&#45;&gt;choice971121124510110010511611111411547101109979911545505746514511450 -->
<g id="edge13" class="edge">
<title>dependency22298:e&#45;&gt;choice971121124510110010511611111411547101109979911545505746514511450:w</title>
<path fill="none" stroke="black" stroke-dasharray="1,5" d="M649,-998C712.32,-998 690.76,-1093.71 744.13,-1104.93"/>
<polygon fill="black" stroke="black" points="753.79,-1105.88 743.4,-1109.38 750.02,-1105.51 743.84,-1104.9 743.84,-1104.9 743.84,-1104.9 750.02,-1105.51 744.28,-1100.42 753.79,-1105.88"/>
</g>
<!-- choice97112112451011001051161111141154710110997991154550564650451144951 -->
<g id="node15" class="node">
<title>choice97112112451011001051161111141154710110997991154550564650451144951</title>
<g id="a_node15"><a xlink:href="../app-editors/emacs-28.2-r13.svg" xlink:title="portage://app&#45;editors/emacs&#45;28.2&#45;r13">
<ellipse fill="none" stroke="red" cx="900" cy="-1052" rx="144" ry="18"/>
<text text-anchor="middle" x="900" y="-1048.12" font-family="Helvetica,sans-Serif" font-size="10.00">portage://app&#45;editors/emacs&#45;28.2&#45;r13</text>
</a>
</g>
</g>
<!-- dependency22298&#45;&gt;choice97112112451011001051161111141154710110997991154550564650451144951 -->
<g id="edge14" class="edge">
<title>dependency22298:e&#45;&gt;choice97112112451011001051161111141154710110997991154550564650451144951:w</title>
<path fill="none" stroke="black" stroke-dasharray="1,5" d="M649,-998C697.95,-998 701.8,-1044.28 744.05,-1051.15"/>
<polygon fill="black" stroke="black" points="753.79,-1051.91 743.47,-1055.62 750.01,-1051.61 743.82,-1051.13 743.82,-1051.13 743.82,-1051.13 750.01,-1051.61 744.16,-1046.65 753.79,-1051.91"/>
</g>
<!-- choice97112112451011001051161111141154710110997991154550564650451144950 -->
<g id="node16" class="node">
<title>choice97112112451011001051161111141154710110997991154550564650451144950</title>
<g id="a_node16"><a xlink:href="../app-editors/emacs-28.2-r12.svg" xlink:title="portage://app&#45;editors/emacs&#45;28.2&#45;r12">
<ellipse fill="none" stroke="red" cx="900" cy="-998" rx="144" ry="18"/>
<text text-anchor="middle" x="900" y="-994.12" font-family="Helvetica,sans-Serif" font-size="10.00">portage://app&#45;editors/emacs&#45;28.2&#45;r12</text>
</a>
</g>
</g>
<!-- dependency22298&#45;&gt;choice97112112451011001051161111141154710110997991154550564650451144950 -->
<g id="edge15" class="edge">
<title>dependency22298:e&#45;&gt;choice97112112451011001051161111141154710110997991154550564650451144950:w</title>
<path fill="none" stroke="black" stroke-dasharray="1,5" d="M649,-998C692.25,-998 705.72,-998 744.08,-998"/>
<polygon fill="black" stroke="black" points="753.78,-998 743.78,-1002.5 750,-998 743.78,-998 743.78,-998 743.78,-998 750,-998 743.78,-993.5 753.78,-998"/>
</g>
<!-- choice97112112451011001051161111141154710110997991154550554650451144955 -->
<g id="node17" class="node">
<title>choice97112112451011001051161111141154710110997991154550554650451144955</title>
<g id="a_node17"><a xlink:href="../app-editors/emacs-27.2-r17.svg" xlink:title="portage://app&#45;editors/emacs&#45;27.2&#45;r17">
<ellipse fill="none" stroke="red" cx="900" cy="-944" rx="144" ry="18"/>
<text text-anchor="middle" x="900" y="-940.12" font-family="Helvetica,sans-Serif" font-size="10.00">portage://app&#45;editors/emacs&#45;27.2&#45;r17</text>
</a>
</g>
</g>
<!-- dependency22298&#45;&gt;choice97112112451011001051161111141154710110997991154550554650451144955 -->
<g id="edge16" class="edge">
<title>dependency22298:e&#45;&gt;choice97112112451011001051161111141154710110997991154550554650451144955:w</title>
<path fill="none" stroke="black" stroke-dasharray="1,5" d="M649,-998C697.95,-998 701.8,-951.72 744.05,-944.85"/>
<polygon fill="black" stroke="black" points="753.79,-944.09 744.16,-949.35 750.01,-944.39 743.82,-944.87 743.82,-944.87 743.82,-944.87 750.01,-944.39 743.47,-940.38 753.79,-944.09"/>
</g>
<!-- choice97112112451011001051161111141154710110997991154550554650451144954 -->
<g id="node18" class="node">
<title>choice97112112451011001051161111141154710110997991154550554650451144954</title>
<g id="a_node18"><a xlink:href="../app-editors/emacs-27.2-r16.svg" xlink:title="portage://app&#45;editors/emacs&#45;27.2&#45;r16">
<ellipse fill="none" stroke="red" cx="900" cy="-890" rx="144" ry="18"/>
<text text-anchor="middle" x="900" y="-886.12" font-family="Helvetica,sans-Serif" font-size="10.00">portage://app&#45;editors/emacs&#45;27.2&#45;r16</text>
</a>
</g>
</g>
<!-- dependency22298&#45;&gt;choice97112112451011001051161111141154710110997991154550554650451144954 -->
<g id="edge17" class="edge">
<title>dependency22298:e&#45;&gt;choice97112112451011001051161111141154710110997991154550554650451144954:w</title>
<path fill="none" stroke="black" stroke-dasharray="1,5" d="M649,-998C712.32,-998 690.76,-902.29 744.13,-891.07"/>
<polygon fill="black" stroke="black" points="753.79,-890.12 744.28,-895.58 750.02,-890.49 743.84,-891.1 743.84,-891.1 743.84,-891.1 750.02,-890.49 743.4,-886.62 753.79,-890.12"/>
</g>
<!-- choice97112112451011001051161111141154710110997991154550544651451144957 -->
<g id="node19" class="node">
<title>choice97112112451011001051161111141154710110997991154550544651451144957</title>
<g id="a_node19"><a xlink:href="../app-editors/emacs-26.3-r19.svg" xlink:title="portage://app&#45;editors/emacs&#45;26.3&#45;r19">
<ellipse fill="none" stroke="red" cx="900" cy="-836" rx="144" ry="18"/>
<text text-anchor="middle" x="900" y="-832.12" font-family="Helvetica,sans-Serif" font-size="10.00">portage://app&#45;editors/emacs&#45;26.3&#45;r19</text>
</a>
</g>
</g>
<!-- dependency22298&#45;&gt;choice97112112451011001051161111141154710110997991154550544651451144957 -->
<g id="edge18" class="edge">
<title>dependency22298:e&#45;&gt;choice97112112451011001051161111141154710110997991154550544651451144957:w</title>
<path fill="none" stroke="black" stroke-dasharray="1,5" d="M649,-998C731.01,-998 674.82,-850.83 743.87,-837.03"/>
<polygon fill="black" stroke="black" points="753.79,-836.11 744.25,-841.52 750.02,-836.46 743.83,-837.04 743.83,-837.04 743.83,-837.04 750.02,-836.46 743.41,-832.56 753.79,-836.11"/>
</g>
<!-- choice97112112451011001051161111141154710110997991154550544651451144956 -->
<g id="node20" class="node">
<title>choice97112112451011001051161111141154710110997991154550544651451144956</title>
<g id="a_node20"><a xlink:href="../app-editors/emacs-26.3-r18.svg" xlink:title="portage://app&#45;editors/emacs&#45;26.3&#45;r18">
<ellipse fill="none" stroke="red" cx="900" cy="-782" rx="144" ry="18"/>
<text text-anchor="middle" x="900" y="-778.12" font-family="Helvetica,sans-Serif" font-size="10.00">portage://app&#45;editors/emacs&#45;26.3&#45;r18</text>
</a>
</g>
</g>
<!-- dependency22298&#45;&gt;choice97112112451011001051161111141154710110997991154550544651451144956 -->
<g id="edge19" class="edge">
<title>dependency22298:e&#45;&gt;choice97112112451011001051161111141154710110997991154550544651451144956:w</title>
<path fill="none" stroke="black" stroke-dasharray="1,5" d="M649,-998C751.97,-998 655.77,-797.73 743.96,-782.87"/>
<polygon fill="black" stroke="black" points="753.79,-782.1 744.17,-787.37 750.02,-782.39 743.82,-782.88 743.82,-782.88 743.82,-782.88 750.02,-782.39 743.46,-778.4 753.79,-782.1"/>
</g>
<!-- choice9711211245101100105116111114115471011099799115454956465357451144953 -->
<g id="node21" class="node">
<title>choice9711211245101100105116111114115471011099799115454956465357451144953</title>
<g id="a_node21"><a xlink:href="../app-editors/emacs-18.59-r15.svg" xlink:title="portage://app&#45;editors/emacs&#45;18.59&#45;r15">
<ellipse fill="none" stroke="red" cx="900" cy="-728" rx="144" ry="18"/>
<text text-anchor="middle" x="900" y="-724.12" font-family="Helvetica,sans-Serif" font-size="10.00">portage://app&#45;editors/emacs&#45;18.59&#45;r15</text>
</a>
</g>
</g>
<!-- dependency22298&#45;&gt;choice9711211245101100105116111114115471011099799115454956465357451144953 -->
<g id="edge20" class="edge">
<title>dependency22298:e&#45;&gt;choice9711211245101100105116111114115471011099799115454956465357451144953:w</title>
<path fill="none" stroke="black" stroke-dasharray="1,5" d="M649,-998C774.01,-998 635.02,-744.1 744.05,-728.73"/>
<polygon fill="black" stroke="black" points="753.78,-728.08 744.1,-733.23 750.01,-728.33 743.81,-728.74 743.81,-728.74 743.81,-728.74 750.01,-728.33 743.51,-724.25 753.78,-728.08"/>
</g>
<!-- choice971121124510110997991154797110115105454846524649951125048504949494852 -->
<g id="node22" class="node">
<title>choice971121124510110997991154797110115105454846524649951125048504949494852</title>
<g id="a_node22"><a xlink:href="../app-emacs/ansi-0.4.1_p20211104.svg" xlink:title="portage://app&#45;emacs/ansi&#45;0.4.1_p20211104">
<ellipse fill="none" stroke="red" cx="900" cy="-674" rx="144" ry="18"/>
<text text-anchor="middle" x="900" y="-670.12" font-family="Helvetica,sans-Serif" font-size="10.00">portage://app&#45;emacs/ansi&#45;0.4.1_p20211104</text>
</a>
</g>
</g>
<!-- dependency22299&#45;&gt;choice971121124510110997991154797110115105454846524649951125048504949494852 -->
<g id="edge21" class="edge">
<title>dependency22299:e&#45;&gt;choice971121124510110997991154797110115105454846524649951125048504949494852:w</title>
<path fill="none" stroke="black" stroke-dasharray="1,5" d="M649,-867C742.85,-867 664.18,-689.51 743.88,-674.95"/>
<polygon fill="black" stroke="black" points="753.79,-674.1 744.2,-679.44 750.02,-674.42 743.82,-674.95 743.82,-674.95 743.82,-674.95 750.02,-674.42 743.44,-670.47 753.79,-674.1"/>
</g>
<!-- choice971121124510110997991154799111109109971101001011144548465546484511449 -->
<g id="node23" class="node">
<title>choice971121124510110997991154799111109109971101001011144548465546484511449</title>
<g id="a_node23"><a xlink:href="../app-emacs/commander-0.7.0-r1.svg" xlink:title="portage://app&#45;emacs/commander&#45;0.7.0&#45;r1">
<ellipse fill="none" stroke="red" cx="900" cy="-620" rx="144" ry="18"/>
<text text-anchor="middle" x="900" y="-616.12" font-family="Helvetica,sans-Serif" font-size="10.00">portage://app&#45;emacs/commander&#45;0.7.0&#45;r1</text>
</a>
</g>
</g>
<!-- dependency22300&#45;&gt;choice971121124510110997991154799111109109971101001011144548465546484511449 -->
<g id="edge22" class="edge">
<title>dependency22300:e&#45;&gt;choice971121124510110997991154799111109109971101001011144548465546484511449:w</title>
<path fill="none" stroke="black" stroke-dasharray="1,5" d="M649,-736C714.88,-736 688.64,-632.77 744.09,-621.07"/>
<polygon fill="black" stroke="black" points="753.79,-620.12 744.28,-625.58 750.02,-620.49 743.84,-621.1 743.84,-621.1 743.84,-621.1 750.02,-620.49 743.39,-616.62 753.79,-620.12"/>
</g>
<!-- choice9711211245101109979911547101112108454846574511450 -->
<g id="node24" class="node">
<title>choice9711211245101109979911547101112108454846574511450</title>
<g id="a_node24"><a xlink:href="../app-emacs/epl-0.9-r2.svg" xlink:title="portage://app&#45;emacs/epl&#45;0.9&#45;r2">
<ellipse fill="none" stroke="red" cx="900" cy="-566" rx="144" ry="18"/>
<text text-anchor="middle" x="900" y="-562.12" font-family="Helvetica,sans-Serif" font-size="10.00">portage://app&#45;emacs/epl&#45;0.9&#45;r2</text>
</a>
</g>
</g>
<!-- dependency22301&#45;&gt;choice9711211245101109979911547101112108454846574511450 -->
<g id="edge23" class="edge">
<title>dependency22301:e&#45;&gt;choice9711211245101109979911547101112108454846574511450:w</title>
<path fill="none" stroke="black" stroke-dasharray="1,5" d="M649,-605C695.28,-605 703.65,-571.86 744.01,-566.68"/>
<polygon fill="black" stroke="black" points="753.78,-566.07 744.08,-571.18 750.01,-566.31 743.8,-566.69 743.8,-566.69 743.8,-566.69 750.01,-566.31 743.53,-562.2 753.78,-566.07"/>
</g>
<!-- choice9711211245101109979911547102454846504846484511449 -->
<g id="node25" class="node">
<title>choice9711211245101109979911547102454846504846484511449</title>
<g id="a_node25"><a xlink:href="../app-emacs/f-0.20.0-r1.svg" xlink:title="portage://app&#45;emacs/f&#45;0.20.0&#45;r1">
<ellipse fill="none" stroke="red" cx="900" cy="-474" rx="144" ry="18"/>
<text text-anchor="middle" x="900" y="-470.12" font-family="Helvetica,sans-Serif" font-size="10.00">portage://app&#45;emacs/f&#45;0.20.0&#45;r1</text>
</a>
</g>
</g>
<!-- dependency22302&#45;&gt;choice9711211245101109979911547102454846504846484511449 -->
<g id="edge24" class="edge">
<title>dependency22302:e&#45;&gt;choice9711211245101109979911547102454846504846484511449:w</title>
<path fill="none" stroke="black" stroke-dasharray="1,5" d="M649,-474C692.25,-474 705.72,-474 744.08,-474"/>
<polygon fill="black" stroke="black" points="753.78,-474 743.78,-478.5 750,-474 743.78,-474 743.78,-474 743.78,-474 750,-474 743.78,-469.5 753.78,-474"/>
</g>
<!-- choice97112112451011099799115471129799107971031014598117105108100455246484648 -->
<g id="node26" class="node">
<title>choice97112112451011099799115471129799107971031014598117105108100455246484648</title>
<g id="a_node26"><a xlink:href="../app-emacs/package-build-4.0.0.svg" xlink:title="portage://app&#45;emacs/package&#45;build&#45;4.0.0">
<ellipse fill="none" stroke="red" cx="900" cy="-343" rx="144" ry="18"/>
<text text-anchor="middle" x="900" y="-339.12" font-family="Helvetica,sans-Serif" font-size="10.00">portage://app&#45;emacs/package&#45;build&#45;4.0.0</text>
</a>
</g>
</g>
<!-- dependency22303&#45;&gt;choice97112112451011099799115471129799107971031014598117105108100455246484648 -->
<g id="edge25" class="edge">
<title>dependency22303:e&#45;&gt;choice97112112451011099799115471129799107971031014598117105108100455246484648:w</title>
<path fill="none" stroke="black" stroke-dasharray="1,5" d="M649,-343C692.25,-343 705.72,-343 744.08,-343"/>
<polygon fill="black" stroke="black" points="753.78,-343 743.78,-347.5 750,-343 743.78,-343 743.78,-343 743.78,-343 750,-343 743.78,-338.5 753.78,-343"/>
</g>
<!-- choice971121124510110997991154711545494649514648 -->
<g id="node27" class="node">
<title>choice971121124510110997991154711545494649514648</title>
<g id="a_node27"><a xlink:href="../app-emacs/s-1.13.0.svg" xlink:title="portage://app&#45;emacs/s&#45;1.13.0">
<ellipse fill="none" stroke="red" cx="900" cy="-212" rx="144" ry="18"/>
<text text-anchor="middle" x="900" y="-208.12" font-family="Helvetica,sans-Serif" font-size="10.00">portage://app&#45;emacs/s&#45;1.13.0</text>
</a>
</g>
</g>
<!-- dependency22304&#45;&gt;choice971121124510110997991154711545494649514648 -->
<g id="edge26" class="edge">
<title>dependency22304:e&#45;&gt;choice971121124510110997991154711545494649514648:w</title>
<path fill="none" stroke="black" stroke-dasharray="1,5" d="M649,-212C692.25,-212 705.72,-212 744.08,-212"/>
<polygon fill="black" stroke="black" points="753.78,-212 743.78,-216.5 750,-212 743.78,-212 743.78,-212 743.78,-212 750,-212 743.78,-207.5 753.78,-212"/>
</g>
<!-- choice971121124510110997991154711510411711645117112454846514651 -->
<g id="node28" class="node">
<title>choice971121124510110997991154711510411711645117112454846514651</title>
<g id="a_node28"><a xlink:href="../app-emacs/shut-up-0.3.3.svg" xlink:title="portage://app&#45;emacs/shut&#45;up&#45;0.3.3">
<ellipse fill="none" stroke="red" cx="900" cy="-158" rx="144" ry="18"/>
<text text-anchor="middle" x="900" y="-154.12" font-family="Helvetica,sans-Serif" font-size="10.00">portage://app&#45;emacs/shut&#45;up&#45;0.3.3</text>
</a>
</g>
</g>
<!-- dependency22305&#45;&gt;choice971121124510110997991154711510411711645117112454846514651 -->
<g id="edge27" class="edge">
<title>dependency22305:e&#45;&gt;choice971121124510110997991154711510411711645117112454846514651:w</title>
<path fill="none" stroke="black" stroke-dasharray="1,5" d="M649,-81C703.25,-81 697.88,-147.83 743.98,-156.97"/>
<polygon fill="black" stroke="black" points="753.79,-157.89 743.41,-161.44 750.02,-157.53 743.83,-156.96 743.83,-156.96 743.83,-156.96 750.02,-157.53 744.25,-152.48 753.79,-157.89"/>
</g>
</g>
</svg>
