<?xml version="1.0" encoding="UTF-8" standalone="no"?>
<!DOCTYPE svg PUBLIC "-//W3C//DTD SVG 1.1//EN"
 "http://www.w3.org/Graphics/SVG/1.1/DTD/svg11.dtd">
<!-- Generated by graphviz version 9.0.0 (20230911.1827)
 -->
<!-- Title: prolog Pages: 1 -->
<svg width="1076pt" height="352pt"
 viewBox="0.00 0.00 1076.00 352.00" xmlns="http://www.w3.org/2000/svg" xmlns:xlink="http://www.w3.org/1999/xlink">
<g id="graph0" class="graph" transform="scale(1 1) rotate(0) translate(4 348)">
<title>prolog</title>
<polygon fill="white" stroke="none" points="-4,4 -4,-348 1072,-348 1072,4 -4,4"/>
<g id="clust2" class="cluster">
<title>cluster_midcol</title>
<polygon fill="none" stroke="gray" points="8,-8 8,-312 672,-312 672,-8 8,-8"/>
<text text-anchor="start" x="310" y="-299.5" font-family="Helvetica,sans-Serif" font-style="italic" font-size="10.00">dependencies</text>
</g>
<g id="clust5" class="cluster">
<title>cluster_run</title>
<polygon fill="#eeeeee" stroke="gray" points="16,-16 16,-285 664,-285 664,-16 16,-16"/>
<text text-anchor="start" x="333.25" y="-272.5" font-family="Helvetica,sans-Serif" font-style="italic" font-size="10.00">run</text>
</g>
<g id="clust8" class="cluster">
<title>cluster_choices</title>
<polygon fill="none" stroke="gray" points="756,-49 756,-336 1060,-336 1060,-49 756,-49"/>
<text text-anchor="start" x="884.38" y="-323.5" font-family="Helvetica,sans-Serif" font-style="italic" font-size="10.00">candidates</text>
</g>
<!-- id -->
<g id="node1" class="node">
<title>id</title>
<g id="a_node1"><a xlink:href="../app-emacs/mailcrypt-3.5.9-r2.svg" xlink:title="portage://app&#45;emacs/mailcrypt&#45;3.5.9&#45;r2">
<ellipse fill="none" stroke="red" cx="168" cy="-138" rx="144" ry="18"/>
<text text-anchor="middle" x="168" y="-134.12" font-family="Helvetica,sans-Serif" font-size="10.00">portage://app&#45;emacs/mailcrypt&#45;3.5.9&#45;r2</text>
</a>
</g>
</g>
<!-- dependency18645 -->
<g id="node2" class="node">
<title>dependency18645</title>
<polygon fill="none" stroke="blue" points="428,-28 428,-122 532,-122 532,-28 428,-28"/>
<text text-anchor="start" x="459" y="-71.12" font-family="Helvetica,sans-Serif" font-size="10.00">pack_dep</text>
<polygon fill="none" stroke="blue" points="532,-101 532,-122 642,-122 642,-101 532,-101"/>
<text text-anchor="start" x="581.75" y="-107.5" font-family="Helvetica,sans-Serif" font-size="10.00">no</text>
<polygon fill="none" stroke="blue" points="532,-80 532,-101 642,-101 642,-80 532,-80"/>
<text text-anchor="start" x="566.75" y="-86.5" font-family="Helvetica,sans-Serif" font-size="10.00">app&#45;crypt</text>
<polygon fill="none" stroke="blue" points="532,-59 532,-80 642,-80 642,-59 532,-59"/>
<text text-anchor="start" x="573.88" y="-65.5" font-family="Helvetica,sans-Serif" font-size="10.00">gnupg</text>
<polygon fill="none" stroke="blue" points="532,-38 532,-59 642,-59 642,-38 532,-38"/>
<text text-anchor="start" x="576.5" y="-44.5" font-family="Helvetica,sans-Serif" font-size="10.00">none</text>
<polygon fill="none" stroke="blue" points="532,-28 532,-38 642,-38 642,-28 532,-28"/>
</g>
<!-- id&#45;&gt;dependency18645 -->
<g id="edge1" class="edge">
<title>id:e&#45;&gt;dependency18645:w</title>
<path fill="none" stroke="black" d="M312,-138C364.42,-138 364.6,-81.93 411.1,-75.58"/>
<ellipse fill="none" stroke="black" cx="415.51" cy="-75.29" rx="4" ry="4"/>
</g>
<!-- dependency18646 -->
<g id="node3" class="node">
<title>dependency18646</title>
<polygon fill="none" stroke="blue" points="428,-148.5 428,-253.5 532,-253.5 532,-148.5 428,-148.5"/>
<text text-anchor="start" x="459" y="-197.12" font-family="Helvetica,sans-Serif" font-size="10.00">pack_dep</text>
<polygon fill="none" stroke="blue" points="532,-232.5 532,-253.5 642,-253.5 642,-232.5 532,-232.5"/>
<text text-anchor="start" x="581.75" y="-239" font-family="Helvetica,sans-Serif" font-size="10.00">no</text>
<polygon fill="none" stroke="blue" points="532,-211.5 532,-232.5 642,-232.5 642,-211.5 532,-211.5"/>
<text text-anchor="start" x="573.88" y="-218" font-family="Helvetica,sans-Serif" font-size="10.00">virtual</text>
<polygon fill="none" stroke="blue" points="532,-190.5 532,-211.5 642,-211.5 642,-190.5 532,-190.5"/>
<text text-anchor="start" x="572.38" y="-197" font-family="Helvetica,sans-Serif" font-size="10.00">emacs</text>
<polygon fill="none" stroke="blue" points="532,-169.5 532,-190.5 642,-190.5 642,-169.5 532,-169.5"/>
<text text-anchor="start" x="560.38" y="-176" font-family="Helvetica,sans-Serif" font-size="10.00">greaterequal</text>
<polygon fill="none" stroke="blue" points="532,-148.5 532,-169.5 642,-169.5 642,-148.5 532,-148.5"/>
<text text-anchor="start" x="581.75" y="-155" font-family="Helvetica,sans-Serif" font-size="10.00">23</text>
</g>
<!-- id&#45;&gt;dependency18646 -->
<g id="edge2" class="edge">
<title>id:e&#45;&gt;dependency18646:w</title>
<path fill="none" stroke="black" d="M312,-138C364.42,-138 364.6,-194.07 411.1,-200.42"/>
<ellipse fill="none" stroke="black" cx="415.51" cy="-200.71" rx="4" ry="4"/>
</g>
<!-- choiceportage9711211245991141211121164710311011711210345504650464955 -->
<g id="node4" class="node">
<title>choiceportage9711211245991141211121164710311011711210345504650464955</title>
<g id="a_node4"><a xlink:href="../app-crypt/gnupg-2.2.17.svg" xlink:title="portage://app&#45;crypt/gnupg&#45;2.2.17">
<ellipse fill="none" stroke="red" cx="908" cy="-75" rx="144" ry="18"/>
<text text-anchor="middle" x="908" y="-71.12" font-family="Helvetica,sans-Serif" font-size="10.00">portage://app&#45;crypt/gnupg&#45;2.2.17</text>
</a>
</g>
</g>
<!-- dependency18645&#45;&gt;choiceportage9711211245991141211121164710311011711210345504650464955 -->
<g id="edge3" class="edge">
<title>dependency18645:e&#45;&gt;choiceportage9711211245991141211121164710311011711210345504650464955:w</title>
<path fill="none" stroke="black" stroke-dasharray="1,5" d="M657,-75C700.25,-75 713.72,-75 752.08,-75"/>
<polygon fill="black" stroke="black" points="761.78,-75 751.78,-79.5 758,-75 751.78,-75 751.78,-75 751.78,-75 758,-75 751.78,-70.5 761.78,-75"/>
</g>
<!-- choiceportage11810511411611797108471011099799115455051 -->
<g id="node5" class="node">
<title>choiceportage11810511411611797108471011099799115455051</title>
<g id="a_node5"><a xlink:href="../virtual/emacs-23.svg" xlink:title="portage://virtual/emacs&#45;23">
<ellipse fill="none" stroke="red" cx="908" cy="-237" rx="144" ry="18"/>
<text text-anchor="middle" x="908" y="-233.12" font-family="Helvetica,sans-Serif" font-size="10.00">portage://virtual/emacs&#45;23</text>
</a>
</g>
</g>
<!-- dependency18646&#45;&gt;choiceportage11810511411611797108471011099799115455051 -->
<g id="edge4" class="edge">
<title>dependency18646:e&#45;&gt;choiceportage11810511411611797108471011099799115455051:w</title>
<path fill="none" stroke="black" stroke-dasharray="1,5" d="M657,-201C702.77,-201 711.93,-231.47 751.84,-236.34"/>
<polygon fill="black" stroke="black" points="761.78,-236.93 751.54,-240.83 758.01,-236.71 751.8,-236.34 751.8,-236.34 751.8,-236.34 758.01,-236.71 752.06,-231.85 761.78,-236.93"/>
</g>
<!-- choiceportage11810511411611797108471011099799115455052 -->
<g id="node6" class="node">
<title>choiceportage11810511411611797108471011099799115455052</title>
<g id="a_node6"><a xlink:href="../virtual/emacs-24.svg" xlink:title="portage://virtual/emacs&#45;24">
<ellipse fill="none" stroke="red" cx="908" cy="-183" rx="144" ry="18"/>
<text text-anchor="middle" x="908" y="-179.12" font-family="Helvetica,sans-Serif" font-size="10.00">portage://virtual/emacs&#45;24</text>
</a>
</g>
</g>
<!-- dependency18646&#45;&gt;choiceportage11810511411611797108471011099799115455052 -->
<g id="edge5" class="edge">
<title>dependency18646:e&#45;&gt;choiceportage11810511411611797108471011099799115455052:w</title>
<path fill="none" stroke="black" stroke-dasharray="1,5" d="M657,-201C700.87,-201 713.25,-185.83 751.95,-183.34"/>
<polygon fill="black" stroke="black" points="761.78,-183.04 751.93,-187.85 758,-183.16 751.79,-183.35 751.79,-183.35 751.79,-183.35 758,-183.16 751.65,-178.85 761.78,-183.04"/>
</g>
<!-- choiceportage11810511411611797108471011099799115455053 -->
<g id="node7" class="node">
<title>choiceportage11810511411611797108471011099799115455053</title>
<g id="a_node7"><a xlink:href="../virtual/emacs-25.svg" xlink:title="portage://virtual/emacs&#45;25">
<ellipse fill="none" stroke="red" cx="908" cy="-129" rx="144" ry="18"/>
<text text-anchor="middle" x="908" y="-125.12" font-family="Helvetica,sans-Serif" font-size="10.00">portage://virtual/emacs&#45;25</text>
</a>
</g>
</g>
<!-- dependency18646&#45;&gt;choiceportage11810511411611797108471011099799115455053 -->
<g id="edge6" class="edge">
<title>dependency18646:e&#45;&gt;choiceportage11810511411611797108471011099799115455053:w</title>
<path fill="none" stroke="black" stroke-dasharray="1,5" d="M657,-201C709.95,-201 706.84,-138.77 751.9,-130.02"/>
<polygon fill="black" stroke="black" points="761.79,-129.11 752.24,-134.51 758.02,-129.46 751.83,-130.02 751.83,-130.02 751.83,-130.02 758.02,-129.46 751.42,-125.54 761.79,-129.11"/>
</g>
<!-- choiceportage11810511411611797108471011099799115455054 -->
<g id="node8" class="node">
<title>choiceportage11810511411611797108471011099799115455054</title>
<g id="a_node8"><a xlink:href="../virtual/emacs-26.svg" xlink:title="portage://virtual/emacs&#45;26">
<ellipse fill="none" stroke="red" cx="908" cy="-291" rx="144" ry="18"/>
<text text-anchor="middle" x="908" y="-287.12" font-family="Helvetica,sans-Serif" font-size="10.00">portage://virtual/emacs&#45;26</text>
</a>
</g>
</g>
<!-- dependency18646&#45;&gt;choiceportage11810511411611797108471011099799115455054 -->
<g id="edge7" class="edge">
<title>dependency18646:e&#45;&gt;choiceportage11810511411611797108471011099799115455054:w</title>
<path fill="none" stroke="black" stroke-dasharray="1,5" d="M657,-201C714.82,-201 703.14,-279.77 752,-289.93"/>
<polygon fill="black" stroke="black" points="761.79,-290.88 751.4,-294.39 758.02,-290.51 751.83,-289.91 751.83,-289.91 751.83,-289.91 758.02,-290.51 752.27,-285.43 761.79,-290.88"/>
</g>
</g>
</svg>
