<?xml version="1.0" encoding="UTF-8" standalone="no"?>
<!DOCTYPE svg PUBLIC "-//W3C//DTD SVG 1.1//EN"
 "http://www.w3.org/Graphics/SVG/1.1/DTD/svg11.dtd">
<!-- Generated by graphviz version 12.0.0 (20240704.0754)
 -->
<!-- Title: prolog Pages: 1 -->
<svg width="1068pt" height="1469pt"
 viewBox="0.00 0.00 1068.00 1469.00" xmlns="http://www.w3.org/2000/svg" xmlns:xlink="http://www.w3.org/1999/xlink">
<g id="graph0" class="graph" transform="scale(1 1) rotate(0) translate(4 1465)">
<title>prolog</title>
<polygon fill="white" stroke="none" points="-4,4 -4,-1465 1064,-1465 1064,4 -4,4"/>
<g id="clust1" class="cluster">
<title>cluster_leftcol</title>
<polygon fill="none" stroke="gray" points="8,-704 8,-775 312,-775 312,-704 8,-704"/>
<text text-anchor="start" x="147.25" y="-762.5" font-family="Helvetica,sans-Serif" font-style="italic" font-size="10.00">ebuild</text>
</g>
<g id="clust2" class="cluster">
<title>cluster_midcol</title>
<polygon fill="none" stroke="gray" points="396,-8 396,-1453 664,-1453 664,-8 396,-8"/>
<text text-anchor="start" x="500" y="-1440.5" font-family="Helvetica,sans-Serif" font-style="italic" font-size="10.00">dependencies</text>
</g>
<g id="clust3" class="cluster">
<title>cluster_compile</title>
<polygon fill="#eeeeee" stroke="gray" points="404,-16 404,-657 656,-657 656,-16 404,-16"/>
<text text-anchor="start" x="513.12" y="-644.5" font-family="Helvetica,sans-Serif" font-style="italic" font-size="10.00">compile</text>
</g>
<g id="clust10" class="cluster">
<title>cluster_run</title>
<polygon fill="#eeeeee" stroke="gray" points="404,-665 404,-1426 656,-1426 656,-665 404,-665"/>
<text text-anchor="start" x="523.25" y="-1413.5" font-family="Helvetica,sans-Serif" font-style="italic" font-size="10.00">run</text>
</g>
<g id="clust17" class="cluster">
<title>cluster_choices</title>
<polygon fill="none" stroke="gray" points="748,-346 748,-1173 1052,-1173 1052,-346 748,-346"/>
<text text-anchor="start" x="876.38" y="-1160.5" font-family="Helvetica,sans-Serif" font-style="italic" font-size="10.00">candidates</text>
</g>
<!-- id -->
<g id="node1" class="node">
<title>id</title>
<g id="a_node1"><a xlink:href="../lxqt-base/lxqt-about-0.14.1.svg" xlink:title="portage://lxqt&#45;base/lxqt&#45;about&#45;0.14.1">
<ellipse fill="none" stroke="red" cx="160" cy="-730" rx="144" ry="18"/>
<text text-anchor="middle" x="160" y="-726.12" font-family="Helvetica,sans-Serif" font-size="10.00">portage://lxqt&#45;base/lxqt&#45;about&#45;0.14.1</text>
</a>
</g>
</g>
<!-- dependency237933 -->
<g id="node2" class="node">
<title>dependency237933</title>
<polygon fill="none" stroke="blue" points="420,-280.5 420,-385.5 524,-385.5 524,-280.5 420,-280.5"/>
<text text-anchor="start" x="451" y="-329.12" font-family="Helvetica,sans-Serif" font-size="10.00">pack_dep</text>
<polygon fill="none" stroke="blue" points="524,-364.5 524,-385.5 634,-385.5 634,-364.5 524,-364.5"/>
<text text-anchor="start" x="573.75" y="-371" font-family="Helvetica,sans-Serif" font-size="10.00">no</text>
<polygon fill="none" stroke="blue" points="524,-343.5 524,-364.5 634,-364.5 634,-343.5 524,-343.5"/>
<text text-anchor="start" x="562.12" y="-350" font-family="Helvetica,sans-Serif" font-size="10.00">dev&#45;libs</text>
<polygon fill="none" stroke="blue" points="524,-322.5 524,-343.5 634,-343.5 634,-322.5 524,-322.5"/>
<text text-anchor="start" x="562.12" y="-329" font-family="Helvetica,sans-Serif" font-size="10.00">libqtxdg</text>
<polygon fill="none" stroke="blue" points="524,-301.5 524,-322.5 634,-322.5 634,-301.5 524,-301.5"/>
<text text-anchor="start" x="552.38" y="-308" font-family="Helvetica,sans-Serif" font-size="10.00">greaterequal</text>
<polygon fill="none" stroke="blue" points="524,-280.5 524,-301.5 634,-301.5 634,-280.5 524,-280.5"/>
<text text-anchor="start" x="568.12" y="-287" font-family="Helvetica,sans-Serif" font-size="10.00">3.3.1</text>
</g>
<!-- id&#45;&gt;dependency237933 -->
<g id="edge1" class="edge">
<title>id:e&#45;&gt;dependency237933:w</title>
<path fill="none" stroke="black" d="M305.23,-730C483.92,-730 239.44,-349.88 399.95,-333.54"/>
<polygon fill="black" stroke="black" points="409.9,-333.06 400.12,-338.04 406.12,-333.24 399.91,-333.54 399.91,-333.54 399.91,-333.54 406.12,-333.24 399.69,-329.05 409.9,-333.06"/>
</g>
<!-- dependency237934 -->
<g id="node3" class="node">
<title>dependency237934</title>
<polygon fill="none" stroke="blue" points="420,-412 420,-506 524,-506 524,-412 420,-412"/>
<text text-anchor="start" x="451" y="-455.12" font-family="Helvetica,sans-Serif" font-size="10.00">pack_dep</text>
<polygon fill="none" stroke="blue" points="524,-485 524,-506 634,-506 634,-485 524,-485"/>
<text text-anchor="start" x="573.75" y="-491.5" font-family="Helvetica,sans-Serif" font-size="10.00">no</text>
<polygon fill="none" stroke="blue" points="524,-464 524,-485 634,-485 634,-464 524,-464"/>
<text text-anchor="start" x="565.5" y="-470.5" font-family="Helvetica,sans-Serif" font-size="10.00">dev&#45;qt</text>
<polygon fill="none" stroke="blue" points="524,-443 524,-464 634,-464 634,-443 524,-443"/>
<text text-anchor="start" x="565.5" y="-449.5" font-family="Helvetica,sans-Serif" font-size="10.00">qtcore</text>
<polygon fill="none" stroke="blue" points="524,-422 524,-443 634,-443 634,-422 524,-422"/>
<text text-anchor="start" x="568.5" y="-428.5" font-family="Helvetica,sans-Serif" font-size="10.00">none</text>
<polygon fill="none" stroke="blue" points="524,-412 524,-422 634,-422 634,-412 524,-412"/>
</g>
<!-- id&#45;&gt;dependency237934 -->
<g id="edge2" class="edge">
<title>id:e&#45;&gt;dependency237934:w</title>
<path fill="none" stroke="black" d="M305.23,-730C430.63,-730 290.79,-475.16 400.13,-459.73"/>
<polygon fill="black" stroke="black" points="409.9,-459.08 400.22,-464.23 406.12,-459.33 399.92,-459.74 399.92,-459.74 399.92,-459.74 406.12,-459.33 399.62,-455.25 409.9,-459.08"/>
</g>
<!-- dependency237935 -->
<g id="node4" class="node">
<title>dependency237935</title>
<polygon fill="none" stroke="blue" points="420,-160 420,-254 524,-254 524,-160 420,-160"/>
<text text-anchor="start" x="451" y="-203.12" font-family="Helvetica,sans-Serif" font-size="10.00">pack_dep</text>
<polygon fill="none" stroke="blue" points="524,-233 524,-254 634,-254 634,-233 524,-233"/>
<text text-anchor="start" x="573.75" y="-239.5" font-family="Helvetica,sans-Serif" font-size="10.00">no</text>
<polygon fill="none" stroke="blue" points="524,-212 524,-233 634,-233 634,-212 524,-212"/>
<text text-anchor="start" x="565.5" y="-218.5" font-family="Helvetica,sans-Serif" font-size="10.00">dev&#45;qt</text>
<polygon fill="none" stroke="blue" points="524,-191 524,-212 634,-212 634,-191 524,-191"/>
<text text-anchor="start" x="568.5" y="-197.5" font-family="Helvetica,sans-Serif" font-size="10.00">qtgui</text>
<polygon fill="none" stroke="blue" points="524,-170 524,-191 634,-191 634,-170 524,-170"/>
<text text-anchor="start" x="568.5" y="-176.5" font-family="Helvetica,sans-Serif" font-size="10.00">none</text>
<polygon fill="none" stroke="blue" points="524,-160 524,-170 634,-170 634,-160 524,-160"/>
</g>
<!-- id&#45;&gt;dependency237935 -->
<g id="edge3" class="edge">
<title>id:e&#45;&gt;dependency237935:w</title>
<path fill="none" stroke="black" d="M305.23,-730C538.57,-730 185.67,-223.72 400.11,-207.4"/>
<polygon fill="black" stroke="black" points="409.89,-207.04 400.07,-211.91 406.12,-207.18 399.9,-207.41 399.9,-207.41 399.9,-207.41 406.12,-207.18 399.74,-202.91 409.89,-207.04"/>
</g>
<!-- dependency237936 -->
<g id="node5" class="node">
<title>dependency237936</title>
<polygon fill="none" stroke="blue" points="420,-532 420,-626 524,-626 524,-532 420,-532"/>
<text text-anchor="start" x="451" y="-575.12" font-family="Helvetica,sans-Serif" font-size="10.00">pack_dep</text>
<polygon fill="none" stroke="blue" points="524,-605 524,-626 634,-626 634,-605 524,-605"/>
<text text-anchor="start" x="573.75" y="-611.5" font-family="Helvetica,sans-Serif" font-size="10.00">no</text>
<polygon fill="none" stroke="blue" points="524,-584 524,-605 634,-605 634,-584 524,-584"/>
<text text-anchor="start" x="565.5" y="-590.5" font-family="Helvetica,sans-Serif" font-size="10.00">dev&#45;qt</text>
<polygon fill="none" stroke="blue" points="524,-563 524,-584 634,-584 634,-563 524,-563"/>
<text text-anchor="start" x="558" y="-569.5" font-family="Helvetica,sans-Serif" font-size="10.00">qtwidgets</text>
<polygon fill="none" stroke="blue" points="524,-542 524,-563 634,-563 634,-542 524,-542"/>
<text text-anchor="start" x="568.5" y="-548.5" font-family="Helvetica,sans-Serif" font-size="10.00">none</text>
<polygon fill="none" stroke="blue" points="524,-532 524,-542 634,-542 634,-532 524,-532"/>
</g>
<!-- id&#45;&gt;dependency237936 -->
<g id="edge4" class="edge">
<title>id:e&#45;&gt;dependency237936:w</title>
<path fill="none" stroke="black" d="M305.23,-730C383.2,-730 334.48,-593.39 400.07,-580.04"/>
<polygon fill="black" stroke="black" points="409.9,-579.11 400.37,-584.54 406.13,-579.47 399.94,-580.06 399.94,-580.06 399.94,-580.06 406.13,-579.47 399.52,-575.58 409.9,-579.11"/>
</g>
<!-- dependency237937 -->
<g id="node6" class="node">
<title>dependency237937</title>
<polygon fill="none" stroke="blue" points="420,-28.5 420,-133.5 524,-133.5 524,-28.5 420,-28.5"/>
<text text-anchor="start" x="451" y="-77.12" font-family="Helvetica,sans-Serif" font-size="10.00">pack_dep</text>
<polygon fill="none" stroke="blue" points="524,-112.5 524,-133.5 634,-133.5 634,-112.5 524,-112.5"/>
<text text-anchor="start" x="573.75" y="-119" font-family="Helvetica,sans-Serif" font-size="10.00">no</text>
<polygon fill="none" stroke="blue" points="524,-91.5 524,-112.5 634,-112.5 634,-91.5 524,-91.5"/>
<text text-anchor="start" x="559.12" y="-98" font-family="Helvetica,sans-Serif" font-size="10.00">lxqt&#45;base</text>
<polygon fill="none" stroke="blue" points="524,-70.5 524,-91.5 634,-91.5 634,-70.5 524,-70.5"/>
<text text-anchor="start" x="566.25" y="-77" font-family="Helvetica,sans-Serif" font-size="10.00">liblxqt</text>
<polygon fill="none" stroke="blue" points="524,-49.5 524,-70.5 634,-70.5 634,-49.5 524,-49.5"/>
<text text-anchor="start" x="567.38" y="-56" font-family="Helvetica,sans-Serif" font-size="10.00">equal</text>
<polygon fill="none" stroke="blue" points="524,-28.5 524,-49.5 634,-49.5 634,-28.5 524,-28.5"/>
<text text-anchor="start" x="567.75" y="-35" font-family="Helvetica,sans-Serif" font-size="10.00">0.14*</text>
</g>
<!-- id&#45;&gt;dependency237937 -->
<g id="edge5" class="edge">
<title>id:e&#45;&gt;dependency237937:w</title>
<path fill="none" stroke="black" d="M305.23,-730C447.51,-730 274.58,-114.77 400.23,-82.33"/>
<polygon fill="black" stroke="black" points="409.9,-81.15 400.52,-86.83 406.15,-81.61 399.98,-82.36 399.98,-82.36 399.98,-82.36 406.15,-81.61 399.43,-77.89 409.9,-81.15"/>
</g>
<!-- dependency237938 -->
<g id="node7" class="node">
<title>dependency237938</title>
<polygon fill="none" stroke="blue" points="420,-1049.5 420,-1154.5 524,-1154.5 524,-1049.5 420,-1049.5"/>
<text text-anchor="start" x="451" y="-1098.12" font-family="Helvetica,sans-Serif" font-size="10.00">pack_dep</text>
<polygon fill="none" stroke="blue" points="524,-1133.5 524,-1154.5 634,-1154.5 634,-1133.5 524,-1133.5"/>
<text text-anchor="start" x="573.75" y="-1140" font-family="Helvetica,sans-Serif" font-size="10.00">no</text>
<polygon fill="none" stroke="blue" points="524,-1112.5 524,-1133.5 634,-1133.5 634,-1112.5 524,-1112.5"/>
<text text-anchor="start" x="562.12" y="-1119" font-family="Helvetica,sans-Serif" font-size="10.00">dev&#45;libs</text>
<polygon fill="none" stroke="blue" points="524,-1091.5 524,-1112.5 634,-1112.5 634,-1091.5 524,-1091.5"/>
<text text-anchor="start" x="562.12" y="-1098" font-family="Helvetica,sans-Serif" font-size="10.00">libqtxdg</text>
<polygon fill="none" stroke="blue" points="524,-1070.5 524,-1091.5 634,-1091.5 634,-1070.5 524,-1070.5"/>
<text text-anchor="start" x="552.38" y="-1077" font-family="Helvetica,sans-Serif" font-size="10.00">greaterequal</text>
<polygon fill="none" stroke="blue" points="524,-1049.5 524,-1070.5 634,-1070.5 634,-1049.5 524,-1049.5"/>
<text text-anchor="start" x="568.12" y="-1056" font-family="Helvetica,sans-Serif" font-size="10.00">3.3.1</text>
</g>
<!-- id&#45;&gt;dependency237938 -->
<g id="edge6" class="edge">
<title>id:e&#45;&gt;dependency237938:w</title>
<path fill="none" stroke="black" d="M305.23,-730C474.11,-730 247.45,-1089.04 402.42,-1101.66"/>
<ellipse fill="none" stroke="black" cx="406.62" cy="-1101.82" rx="4" ry="4"/>
</g>
<!-- dependency237939 -->
<g id="node8" class="node">
<title>dependency237939</title>
<polygon fill="none" stroke="blue" points="420,-1181 420,-1275 524,-1275 524,-1181 420,-1181"/>
<text text-anchor="start" x="451" y="-1224.12" font-family="Helvetica,sans-Serif" font-size="10.00">pack_dep</text>
<polygon fill="none" stroke="blue" points="524,-1254 524,-1275 634,-1275 634,-1254 524,-1254"/>
<text text-anchor="start" x="573.75" y="-1260.5" font-family="Helvetica,sans-Serif" font-size="10.00">no</text>
<polygon fill="none" stroke="blue" points="524,-1233 524,-1254 634,-1254 634,-1233 524,-1233"/>
<text text-anchor="start" x="565.5" y="-1239.5" font-family="Helvetica,sans-Serif" font-size="10.00">dev&#45;qt</text>
<polygon fill="none" stroke="blue" points="524,-1212 524,-1233 634,-1233 634,-1212 524,-1212"/>
<text text-anchor="start" x="565.5" y="-1218.5" font-family="Helvetica,sans-Serif" font-size="10.00">qtcore</text>
<polygon fill="none" stroke="blue" points="524,-1191 524,-1212 634,-1212 634,-1191 524,-1191"/>
<text text-anchor="start" x="568.5" y="-1197.5" font-family="Helvetica,sans-Serif" font-size="10.00">none</text>
<polygon fill="none" stroke="blue" points="524,-1181 524,-1191 634,-1191 634,-1181 524,-1181"/>
</g>
<!-- id&#45;&gt;dependency237939 -->
<g id="edge7" class="edge">
<title>id:e&#45;&gt;dependency237939:w</title>
<path fill="none" stroke="black" d="M305.23,-730C528.42,-730 194.2,-1214.48 402.15,-1227.72"/>
<ellipse fill="none" stroke="black" cx="406.61" cy="-1227.86" rx="4" ry="4"/>
</g>
<!-- dependency237940 -->
<g id="node9" class="node">
<title>dependency237940</title>
<polygon fill="none" stroke="blue" points="420,-929 420,-1023 524,-1023 524,-929 420,-929"/>
<text text-anchor="start" x="451" y="-972.12" font-family="Helvetica,sans-Serif" font-size="10.00">pack_dep</text>
<polygon fill="none" stroke="blue" points="524,-1002 524,-1023 634,-1023 634,-1002 524,-1002"/>
<text text-anchor="start" x="573.75" y="-1008.5" font-family="Helvetica,sans-Serif" font-size="10.00">no</text>
<polygon fill="none" stroke="blue" points="524,-981 524,-1002 634,-1002 634,-981 524,-981"/>
<text text-anchor="start" x="565.5" y="-987.5" font-family="Helvetica,sans-Serif" font-size="10.00">dev&#45;qt</text>
<polygon fill="none" stroke="blue" points="524,-960 524,-981 634,-981 634,-960 524,-960"/>
<text text-anchor="start" x="568.5" y="-966.5" font-family="Helvetica,sans-Serif" font-size="10.00">qtgui</text>
<polygon fill="none" stroke="blue" points="524,-939 524,-960 634,-960 634,-939 524,-939"/>
<text text-anchor="start" x="568.5" y="-945.5" font-family="Helvetica,sans-Serif" font-size="10.00">none</text>
<polygon fill="none" stroke="blue" points="524,-929 524,-939 634,-939 634,-929 524,-929"/>
</g>
<!-- id&#45;&gt;dependency237940 -->
<g id="edge8" class="edge">
<title>id:e&#45;&gt;dependency237940:w</title>
<path fill="none" stroke="black" d="M305.23,-730C421.13,-730 298.88,-963.2 402.21,-975.5"/>
<ellipse fill="none" stroke="black" cx="406.62" cy="-975.75" rx="4" ry="4"/>
</g>
<!-- dependency237941 -->
<g id="node10" class="node">
<title>dependency237941</title>
<polygon fill="none" stroke="blue" points="420,-1301 420,-1395 524,-1395 524,-1301 420,-1301"/>
<text text-anchor="start" x="451" y="-1344.12" font-family="Helvetica,sans-Serif" font-size="10.00">pack_dep</text>
<polygon fill="none" stroke="blue" points="524,-1374 524,-1395 634,-1395 634,-1374 524,-1374"/>
<text text-anchor="start" x="573.75" y="-1380.5" font-family="Helvetica,sans-Serif" font-size="10.00">no</text>
<polygon fill="none" stroke="blue" points="524,-1353 524,-1374 634,-1374 634,-1353 524,-1353"/>
<text text-anchor="start" x="565.5" y="-1359.5" font-family="Helvetica,sans-Serif" font-size="10.00">dev&#45;qt</text>
<polygon fill="none" stroke="blue" points="524,-1332 524,-1353 634,-1353 634,-1332 524,-1332"/>
<text text-anchor="start" x="558" y="-1338.5" font-family="Helvetica,sans-Serif" font-size="10.00">qtwidgets</text>
<polygon fill="none" stroke="blue" points="524,-1311 524,-1332 634,-1332 634,-1311 524,-1311"/>
<text text-anchor="start" x="568.5" y="-1317.5" font-family="Helvetica,sans-Serif" font-size="10.00">none</text>
<polygon fill="none" stroke="blue" points="524,-1301 524,-1311 634,-1311 634,-1301 524,-1301"/>
</g>
<!-- id&#45;&gt;dependency237941 -->
<g id="edge9" class="edge">
<title>id:e&#45;&gt;dependency237941:w</title>
<path fill="none" stroke="black" d="M305.23,-730C441.44,-730 279.38,-1320.55 402.19,-1347.08"/>
<ellipse fill="none" stroke="black" cx="406.64" cy="-1347.54" rx="4" ry="4"/>
</g>
<!-- dependency237942 -->
<g id="node11" class="node">
<title>dependency237942</title>
<polygon fill="none" stroke="blue" points="420,-677.5 420,-782.5 524,-782.5 524,-677.5 420,-677.5"/>
<text text-anchor="start" x="451" y="-726.12" font-family="Helvetica,sans-Serif" font-size="10.00">pack_dep</text>
<polygon fill="none" stroke="blue" points="524,-761.5 524,-782.5 634,-782.5 634,-761.5 524,-761.5"/>
<text text-anchor="start" x="573.75" y="-768" font-family="Helvetica,sans-Serif" font-size="10.00">no</text>
<polygon fill="none" stroke="blue" points="524,-740.5 524,-761.5 634,-761.5 634,-740.5 524,-740.5"/>
<text text-anchor="start" x="559.12" y="-747" font-family="Helvetica,sans-Serif" font-size="10.00">lxqt&#45;base</text>
<polygon fill="none" stroke="blue" points="524,-719.5 524,-740.5 634,-740.5 634,-719.5 524,-719.5"/>
<text text-anchor="start" x="566.25" y="-726" font-family="Helvetica,sans-Serif" font-size="10.00">liblxqt</text>
<polygon fill="none" stroke="blue" points="524,-698.5 524,-719.5 634,-719.5 634,-698.5 524,-698.5"/>
<text text-anchor="start" x="567.38" y="-705" font-family="Helvetica,sans-Serif" font-size="10.00">equal</text>
<polygon fill="none" stroke="blue" points="524,-677.5 524,-698.5 634,-698.5 634,-677.5 524,-677.5"/>
<text text-anchor="start" x="567.75" y="-684" font-family="Helvetica,sans-Serif" font-size="10.00">0.14*</text>
</g>
<!-- id&#45;&gt;dependency237942 -->
<g id="edge10" class="edge">
<title>id:e&#45;&gt;dependency237942:w</title>
<path fill="none" stroke="black" d="M305.23,-730C349.17,-730 362.34,-730 402.18,-730"/>
<ellipse fill="none" stroke="black" cx="406.61" cy="-730" rx="4" ry="4"/>
</g>
<!-- dependency237943 -->
<g id="node12" class="node">
<title>dependency237943</title>
<polygon fill="none" stroke="blue" points="420,-809 420,-903 524,-903 524,-809 420,-809"/>
<text text-anchor="start" x="451" y="-852.12" font-family="Helvetica,sans-Serif" font-size="10.00">pack_dep</text>
<polygon fill="none" stroke="blue" points="524,-882 524,-903 634,-903 634,-882 524,-882"/>
<text text-anchor="start" x="567.38" y="-888.5" font-family="Helvetica,sans-Serif" font-size="10.00">weak</text>
<polygon fill="none" stroke="blue" points="524,-861 524,-882 634,-882 634,-861 524,-861"/>
<text text-anchor="start" x="559.12" y="-867.5" font-family="Helvetica,sans-Serif" font-size="10.00">lxqt&#45;base</text>
<polygon fill="none" stroke="blue" points="524,-840 524,-861 634,-861 634,-840 524,-840"/>
<text text-anchor="start" x="560.62" y="-846.5" font-family="Helvetica,sans-Serif" font-size="10.00">lxqt&#45;l10n</text>
<polygon fill="none" stroke="blue" points="524,-819 524,-840 634,-840 634,-819 524,-819"/>
<text text-anchor="start" x="568.5" y="-825.5" font-family="Helvetica,sans-Serif" font-size="10.00">none</text>
<polygon fill="none" stroke="blue" points="524,-809 524,-819 634,-819 634,-809 524,-809"/>
</g>
<!-- id&#45;&gt;dependency237943 -->
<g id="edge11" class="edge">
<title>id:e&#45;&gt;dependency237943:w</title>
<path fill="none" stroke="black" d="M305.23,-730C375.24,-730 341.23,-845.4 402.29,-855.32"/>
<ellipse fill="none" stroke="black" cx="406.63" cy="-855.66" rx="4" ry="4"/>
</g>
<!-- choice10010111845108105981154710810598113116120100103455146524648 -->
<g id="node13" class="node">
<title>choice10010111845108105981154710810598113116120100103455146524648</title>
<g id="a_node13"><a xlink:href="../dev-libs/libqtxdg-3.4.0.svg" xlink:title="portage://dev&#45;libs/libqtxdg&#45;3.4.0">
<ellipse fill="none" stroke="red" cx="900" cy="-696" rx="144" ry="18"/>
<text text-anchor="middle" x="900" y="-692.12" font-family="Helvetica,sans-Serif" font-size="10.00">portage://dev&#45;libs/libqtxdg&#45;3.4.0</text>
</a>
</g>
</g>
<!-- dependency237933&#45;&gt;choice10010111845108105981154710810598113116120100103455146524648 -->
<g id="edge12" class="edge">
<title>dependency237933:e&#45;&gt;choice10010111845108105981154710810598113116120100103455146524648:w</title>
<path fill="none" stroke="black" stroke-dasharray="1,5" d="M648.89,-333C813.01,-333 597.28,-679.18 743.6,-695.41"/>
<polygon fill="black" stroke="black" points="753.55,-695.94 743.33,-699.9 749.77,-695.74 743.56,-695.41 743.56,-695.41 743.56,-695.41 749.77,-695.74 743.8,-690.92 753.55,-695.94"/>
</g>
<!-- choice10010111845108105981154710810598113116120100103455146514649 -->
<g id="node14" class="node">
<title>choice10010111845108105981154710810598113116120100103455146514649</title>
<g id="a_node14"><a xlink:href="../dev-libs/libqtxdg-3.3.1.svg" xlink:title="portage://dev&#45;libs/libqtxdg&#45;3.3.1">
<ellipse fill="none" stroke="red" cx="900" cy="-642" rx="144" ry="18"/>
<text text-anchor="middle" x="900" y="-638.12" font-family="Helvetica,sans-Serif" font-size="10.00">portage://dev&#45;libs/libqtxdg&#45;3.3.1</text>
</a>
</g>
</g>
<!-- dependency237933&#45;&gt;choice10010111845108105981154710810598113116120100103455146514649 -->
<g id="edge13" class="edge">
<title>dependency237933:e&#45;&gt;choice10010111845108105981154710810598113116120100103455146514649:w</title>
<path fill="none" stroke="black" stroke-dasharray="1,5" d="M648.89,-333C790.09,-333 619.44,-625.33 743.58,-641.32"/>
<polygon fill="black" stroke="black" points="753.55,-641.93 743.29,-645.81 749.77,-641.7 743.57,-641.32 743.57,-641.32 743.57,-641.32 749.77,-641.7 743.84,-636.83 753.55,-641.93"/>
</g>
<!-- choice10010111845113116471131169911111410145534649524648 -->
<g id="node15" class="node">
<title>choice10010111845113116471131169911111410145534649524648</title>
<g id="a_node15"><a xlink:href="../dev-qt/qtcore-5.14.0.svg" xlink:title="portage://dev&#45;qt/qtcore&#45;5.14.0">
<ellipse fill="none" stroke="red" cx="900" cy="-804" rx="144" ry="18"/>
<text text-anchor="middle" x="900" y="-800.12" font-family="Helvetica,sans-Serif" font-size="10.00">portage://dev&#45;qt/qtcore&#45;5.14.0</text>
</a>
</g>
</g>
<!-- dependency237934&#45;&gt;choice10010111845113116471131169911111410145534649524648 -->
<g id="edge14" class="edge">
<title>dependency237934:e&#45;&gt;choice10010111845113116471131169911111410145534649524648:w</title>
<path fill="none" stroke="black" stroke-dasharray="1,5" d="M648.89,-459C805.36,-459 604.64,-787.36 743.68,-803.39"/>
<polygon fill="black" stroke="black" points="753.55,-803.93 743.32,-807.88 749.77,-803.73 743.56,-803.39 743.56,-803.39 743.56,-803.39 749.77,-803.73 743.81,-798.89 753.55,-803.93"/>
</g>
<!-- choice100101118451131164711311699111114101455346495146504511449 -->
<g id="node16" class="node">
<title>choice100101118451131164711311699111114101455346495146504511449</title>
<g id="a_node16"><a xlink:href="../dev-qt/qtcore-5.13.2-r1.svg" xlink:title="portage://dev&#45;qt/qtcore&#45;5.13.2&#45;r1">
<ellipse fill="none" stroke="red" cx="900" cy="-858" rx="144" ry="18"/>
<text text-anchor="middle" x="900" y="-854.12" font-family="Helvetica,sans-Serif" font-size="10.00">portage://dev&#45;qt/qtcore&#45;5.13.2&#45;r1</text>
</a>
</g>
</g>
<!-- dependency237934&#45;&gt;choice100101118451131164711311699111114101455346495146504511449 -->
<g id="edge15" class="edge">
<title>dependency237934:e&#45;&gt;choice100101118451131164711311699111114101455346495146504511449:w</title>
<path fill="none" stroke="black" stroke-dasharray="1,5" d="M648.89,-459C828.6,-459 581.82,-841.8 744.03,-857.5"/>
<polygon fill="black" stroke="black" points="753.55,-857.94 743.35,-861.98 749.77,-857.77 743.56,-857.48 743.56,-857.48 743.56,-857.48 749.77,-857.77 743.77,-852.99 753.55,-857.94"/>
</g>
<!-- choice100101118451131164711311699111114101455346495046534511449 -->
<g id="node17" class="node">
<title>choice100101118451131164711311699111114101455346495046534511449</title>
<g id="a_node17"><a xlink:href="../dev-qt/qtcore-5.12.5-r1.svg" xlink:title="portage://dev&#45;qt/qtcore&#45;5.12.5&#45;r1">
<ellipse fill="none" stroke="red" cx="900" cy="-912" rx="144" ry="18"/>
<text text-anchor="middle" x="900" y="-908.12" font-family="Helvetica,sans-Serif" font-size="10.00">portage://dev&#45;qt/qtcore&#45;5.12.5&#45;r1</text>
</a>
</g>
</g>
<!-- dependency237934&#45;&gt;choice100101118451131164711311699111114101455346495046534511449 -->
<g id="edge16" class="edge">
<title>dependency237934:e&#45;&gt;choice100101118451131164711311699111114101455346495046534511449:w</title>
<path fill="none" stroke="black" stroke-dasharray="1,5" d="M648.89,-459C851.81,-459 559.25,-895.35 743.78,-911.54"/>
<polygon fill="black" stroke="black" points="753.55,-911.95 743.37,-916.02 749.77,-911.79 743.56,-911.53 743.56,-911.53 743.56,-911.53 749.77,-911.79 743.75,-907.03 753.55,-911.95"/>
</g>
<!-- choice10010111845113116471131169911111410145534649504651 -->
<g id="node18" class="node">
<title>choice10010111845113116471131169911111410145534649504651</title>
<g id="a_node18"><a xlink:href="../dev-qt/qtcore-5.12.3.svg" xlink:title="portage://dev&#45;qt/qtcore&#45;5.12.3">
<ellipse fill="none" stroke="red" cx="900" cy="-750" rx="144" ry="18"/>
<text text-anchor="middle" x="900" y="-746.12" font-family="Helvetica,sans-Serif" font-size="10.00">portage://dev&#45;qt/qtcore&#45;5.12.3</text>
</a>
</g>
</g>
<!-- dependency237934&#45;&gt;choice10010111845113116471131169911111410145534649504651 -->
<g id="edge17" class="edge">
<title>dependency237934:e&#45;&gt;choice10010111845113116471131169911111410145534649504651:w</title>
<path fill="none" stroke="black" stroke-dasharray="1,5" d="M648.89,-459C782.62,-459 626.49,-733.75 743.8,-749.31"/>
<polygon fill="black" stroke="black" points="753.55,-749.92 743.29,-753.79 749.78,-749.69 743.57,-749.3 743.57,-749.3 743.57,-749.3 749.78,-749.69 743.85,-744.81 753.55,-749.92"/>
</g>
<!-- choice1001011184511311647113116103117105455346495246484511449 -->
<g id="node19" class="node">
<title>choice1001011184511311647113116103117105455346495246484511449</title>
<g id="a_node19"><a xlink:href="../dev-qt/qtgui-5.14.0-r1.svg" xlink:title="portage://dev&#45;qt/qtgui&#45;5.14.0&#45;r1">
<ellipse fill="none" stroke="red" cx="900" cy="-534" rx="144" ry="18"/>
<text text-anchor="middle" x="900" y="-530.12" font-family="Helvetica,sans-Serif" font-size="10.00">portage://dev&#45;qt/qtgui&#45;5.14.0&#45;r1</text>
</a>
</g>
</g>
<!-- dependency237935&#45;&gt;choice1001011184511311647113116103117105455346495246484511449 -->
<g id="edge18" class="edge">
<title>dependency237935:e&#45;&gt;choice1001011184511311647113116103117105455346495246484511449:w</title>
<path fill="none" stroke="black" stroke-dasharray="1,5" d="M648.89,-207C797.77,-207 611.92,-517.61 743.8,-533.38"/>
<polygon fill="black" stroke="black" points="753.55,-533.93 743.31,-537.86 749.77,-533.72 743.57,-533.36 743.57,-533.36 743.57,-533.36 749.77,-533.72 743.82,-528.87 753.55,-533.93"/>
</g>
<!-- choice100101118451131164711311610311710545534649514650 -->
<g id="node20" class="node">
<title>choice100101118451131164711311610311710545534649514650</title>
<g id="a_node20"><a xlink:href="../dev-qt/qtgui-5.13.2.svg" xlink:title="portage://dev&#45;qt/qtgui&#45;5.13.2">
<ellipse fill="none" stroke="red" cx="900" cy="-588" rx="144" ry="18"/>
<text text-anchor="middle" x="900" y="-584.12" font-family="Helvetica,sans-Serif" font-size="10.00">portage://dev&#45;qt/qtgui&#45;5.13.2</text>
</a>
</g>
</g>
<!-- dependency237935&#45;&gt;choice100101118451131164711311610311710545534649514650 -->
<g id="edge19" class="edge">
<title>dependency237935:e&#45;&gt;choice100101118451131164711311610311710545534649514650:w</title>
<path fill="none" stroke="black" stroke-dasharray="1,5" d="M648.89,-207C820.86,-207 589.38,-571.8 744.01,-587.48"/>
<polygon fill="black" stroke="black" points="753.55,-587.94 743.34,-591.95 749.77,-587.76 743.56,-587.46 743.56,-587.46 743.56,-587.46 749.77,-587.76 743.78,-582.96 753.55,-587.94"/>
</g>
<!-- choice100101118451131164711311610311710545534649504653 -->
<g id="node21" class="node">
<title>choice100101118451131164711311610311710545534649504653</title>
<g id="a_node21"><a xlink:href="../dev-qt/qtgui-5.12.5.svg" xlink:title="portage://dev&#45;qt/qtgui&#45;5.12.5">
<ellipse fill="none" stroke="red" cx="900" cy="-426" rx="144" ry="18"/>
<text text-anchor="middle" x="900" y="-422.12" font-family="Helvetica,sans-Serif" font-size="10.00">portage://dev&#45;qt/qtgui&#45;5.12.5</text>
</a>
</g>
</g>
<!-- dependency237935&#45;&gt;choice100101118451131164711311610311710545534649504653 -->
<g id="edge20" class="edge">
<title>dependency237935:e&#45;&gt;choice100101118451131164711311610311710545534649504653:w</title>
<path fill="none" stroke="black" stroke-dasharray="1,5" d="M648.89,-207C752.99,-207 654.54,-410.05 743.61,-425.12"/>
<polygon fill="black" stroke="black" points="753.55,-425.9 743.23,-429.6 749.78,-425.61 743.58,-425.12 743.58,-425.12 743.58,-425.12 749.78,-425.61 743.94,-420.63 753.55,-425.9"/>
</g>
<!-- choice1001011184511311647113116103117105455346495046514511449 -->
<g id="node22" class="node">
<title>choice1001011184511311647113116103117105455346495046514511449</title>
<g id="a_node22"><a xlink:href="../dev-qt/qtgui-5.12.3-r1.svg" xlink:title="portage://dev&#45;qt/qtgui&#45;5.12.3&#45;r1">
<ellipse fill="none" stroke="red" cx="900" cy="-480" rx="144" ry="18"/>
<text text-anchor="middle" x="900" y="-476.12" font-family="Helvetica,sans-Serif" font-size="10.00">portage://dev&#45;qt/qtgui&#45;5.12.3&#45;r1</text>
</a>
</g>
</g>
<!-- dependency237935&#45;&gt;choice1001011184511311647113116103117105455346495046514511449 -->
<g id="edge21" class="edge">
<title>dependency237935:e&#45;&gt;choice1001011184511311647113116103117105455346495046514511449:w</title>
<path fill="none" stroke="black" stroke-dasharray="1,5" d="M648.89,-207C775.09,-207 633.71,-463.72 743.71,-479.26"/>
<polygon fill="black" stroke="black" points="753.55,-479.92 743.27,-483.75 749.78,-479.67 743.57,-479.26 743.57,-479.26 743.57,-479.26 749.78,-479.67 743.87,-474.77 753.55,-479.92"/>
</g>
<!-- choice100101118451131164711311611910510010310111611545534649524648 -->
<g id="node23" class="node">
<title>choice100101118451131164711311611910510010310111611545534649524648</title>
<g id="a_node23"><a xlink:href="../dev-qt/qtwidgets-5.14.0.svg" xlink:title="portage://dev&#45;qt/qtwidgets&#45;5.14.0">
<ellipse fill="none" stroke="red" cx="900" cy="-1128" rx="144" ry="18"/>
<text text-anchor="middle" x="900" y="-1124.12" font-family="Helvetica,sans-Serif" font-size="10.00">portage://dev&#45;qt/qtwidgets&#45;5.14.0</text>
</a>
</g>
</g>
<!-- dependency237936&#45;&gt;choice100101118451131164711311611910510010310111611545534649524648 -->
<g id="edge22" class="edge">
<title>dependency237936:e&#45;&gt;choice100101118451131164711311611910510010310111611545534649524648:w</title>
<path fill="none" stroke="black" stroke-dasharray="1,5" d="M648.89,-579C893.5,-579 518.34,-1110.98 743.58,-1127.6"/>
<polygon fill="black" stroke="black" points="753.55,-1127.96 743.39,-1132.1 749.77,-1127.82 743.55,-1127.6 743.55,-1127.6 743.55,-1127.6 749.77,-1127.82 743.71,-1123.1 753.55,-1127.96"/>
</g>
<!-- choice100101118451131164711311611910510010310111611545534649514650 -->
<g id="node24" class="node">
<title>choice100101118451131164711311611910510010310111611545534649514650</title>
<g id="a_node24"><a xlink:href="../dev-qt/qtwidgets-5.13.2.svg" xlink:title="portage://dev&#45;qt/qtwidgets&#45;5.13.2">
<ellipse fill="none" stroke="red" cx="900" cy="-966" rx="144" ry="18"/>
<text text-anchor="middle" x="900" y="-962.12" font-family="Helvetica,sans-Serif" font-size="10.00">portage://dev&#45;qt/qtwidgets&#45;5.13.2</text>
</a>
</g>
</g>
<!-- dependency237936&#45;&gt;choice100101118451131164711311611910510010310111611545534649514650 -->
<g id="edge23" class="edge">
<title>dependency237936:e&#45;&gt;choice100101118451131164711311611910510010310111611545534649514650:w</title>
<path fill="none" stroke="black" stroke-dasharray="1,5" d="M648.89,-579C823.38,-579 587.02,-949.55 743.86,-965.47"/>
<polygon fill="black" stroke="black" points="753.55,-965.94 743.34,-969.95 749.77,-965.76 743.56,-965.46 743.56,-965.46 743.56,-965.46 749.77,-965.76 743.78,-960.96 753.55,-965.94"/>
</g>
<!-- choice1001011184511311647113116119105100103101116115455346495046534511449 -->
<g id="node25" class="node">
<title>choice1001011184511311647113116119105100103101116115455346495046534511449</title>
<g id="a_node25"><a xlink:href="../dev-qt/qtwidgets-5.12.5-r1.svg" xlink:title="portage://dev&#45;qt/qtwidgets&#45;5.12.5&#45;r1">
<ellipse fill="none" stroke="red" cx="900" cy="-1020" rx="144" ry="18"/>
<text text-anchor="middle" x="900" y="-1016.12" font-family="Helvetica,sans-Serif" font-size="10.00">portage://dev&#45;qt/qtwidgets&#45;5.12.5&#45;r1</text>
</a>
</g>
</g>
<!-- dependency237936&#45;&gt;choice1001011184511311647113116119105100103101116115455346495046534511449 -->
<g id="edge24" class="edge">
<title>dependency237936:e&#45;&gt;choice1001011184511311647113116119105100103101116115455346495046534511449:w</title>
<path fill="none" stroke="black" stroke-dasharray="1,5" d="M648.89,-579C846.62,-579 564.34,-1003.36 743.79,-1019.53"/>
<polygon fill="black" stroke="black" points="753.55,-1019.95 743.36,-1024.01 749.77,-1019.78 743.56,-1019.52 743.56,-1019.52 743.56,-1019.52 749.77,-1019.78 743.75,-1015.02 753.55,-1019.95"/>
</g>
<!-- choice100101118451131164711311611910510010310111611545534649504651 -->
<g id="node26" class="node">
<title>choice100101118451131164711311611910510010310111611545534649504651</title>
<g id="a_node26"><a xlink:href="../dev-qt/qtwidgets-5.12.3.svg" xlink:title="portage://dev&#45;qt/qtwidgets&#45;5.12.3">
<ellipse fill="none" stroke="red" cx="900" cy="-1074" rx="144" ry="18"/>
<text text-anchor="middle" x="900" y="-1070.12" font-family="Helvetica,sans-Serif" font-size="10.00">portage://dev&#45;qt/qtwidgets&#45;5.12.3</text>
</a>
</g>
</g>
<!-- dependency237936&#45;&gt;choice100101118451131164711311611910510010310111611545534649504651 -->
<g id="edge25" class="edge">
<title>dependency237936:e&#45;&gt;choice100101118451131164711311611910510010310111611545534649504651:w</title>
<path fill="none" stroke="black" stroke-dasharray="1,5" d="M648.89,-579C870.02,-579 541.38,-1057.23 743.72,-1073.57"/>
<polygon fill="black" stroke="black" points="753.55,-1073.95 743.38,-1078.06 749.77,-1073.81 743.56,-1073.56 743.56,-1073.56 743.56,-1073.56 749.77,-1073.81 743.73,-1069.07 753.55,-1073.95"/>
</g>
<!-- choice108120113116459897115101471081059810812011311645484649524649 -->
<g id="node27" class="node">
<title>choice108120113116459897115101471081059810812011311645484649524649</title>
<g id="a_node27"><a xlink:href="../lxqt-base/liblxqt-0.14.1.svg" xlink:title="portage://lxqt&#45;base/liblxqt&#45;0.14.1">
<ellipse fill="none" stroke="red" cx="900" cy="-372" rx="144" ry="18"/>
<text text-anchor="middle" x="900" y="-368.12" font-family="Helvetica,sans-Serif" font-size="10.00">portage://lxqt&#45;base/liblxqt&#45;0.14.1</text>
</a>
</g>
</g>
<!-- dependency237937&#45;&gt;choice108120113116459897115101471081059810812011311645484649524649 -->
<g id="edge26" class="edge">
<title>dependency237937:e&#45;&gt;choice108120113116459897115101471081059810812011311645484649524649:w</title>
<path fill="none" stroke="black" stroke-dasharray="1,5" d="M648.89,-81C782.62,-81 626.49,-355.75 743.8,-371.31"/>
<polygon fill="black" stroke="black" points="753.55,-371.92 743.29,-375.79 749.78,-371.69 743.57,-371.3 743.57,-371.3 743.57,-371.3 749.78,-371.69 743.85,-366.81 753.55,-371.92"/>
</g>
<!-- dependency237938&#45;&gt;choice10010111845108105981154710810598113116120100103455146524648 -->
<g id="edge27" class="edge">
<title>dependency237938:e&#45;&gt;choice10010111845108105981154710810598113116120100103455146524648:w</title>
<path fill="none" stroke="black" stroke-dasharray="1,5" d="M648.89,-1102C831.54,-1102 579.05,-712.48 743.86,-696.51"/>
<polygon fill="black" stroke="black" points="753.55,-696.06 743.77,-701.01 749.77,-696.23 743.56,-696.52 743.56,-696.52 743.56,-696.52 749.77,-696.23 743.35,-692.02 753.55,-696.06"/>
</g>
<!-- dependency237938&#45;&gt;choice10010111845108105981154710810598113116120100103455146514649 -->
<g id="edge28" class="edge">
<title>dependency237938:e&#45;&gt;choice10010111845108105981154710810598113116120100103455146514649:w</title>
<path fill="none" stroke="black" stroke-dasharray="1,5" d="M648.89,-1102C854.79,-1102 556.44,-658.91 743.62,-642.47"/>
<polygon fill="black" stroke="black" points="753.55,-642.05 743.75,-646.97 749.77,-642.21 743.56,-642.47 743.56,-642.47 743.56,-642.47 749.77,-642.21 743.37,-637.98 753.55,-642.05"/>
</g>
<!-- dependency237939&#45;&gt;choice10010111845113116471131169911111410145534649524648 -->
<g id="edge29" class="edge">
<title>dependency237939:e&#45;&gt;choice10010111845113116471131169911111410145534649524648:w</title>
<path fill="none" stroke="black" stroke-dasharray="1,5" d="M648.89,-1228C839.23,-1228 571.66,-820.81 743.67,-804.5"/>
<polygon fill="black" stroke="black" points="753.55,-804.06 743.76,-809 749.77,-804.23 743.56,-804.51 743.56,-804.51 743.56,-804.51 749.77,-804.23 743.35,-800.01 753.55,-804.06"/>
</g>
<!-- dependency237939&#45;&gt;choice100101118451131164711311699111114101455346495146504511449 -->
<g id="edge30" class="edge">
<title>dependency237939:e&#45;&gt;choice100101118451131164711311699111114101455346495146504511449:w</title>
<path fill="none" stroke="black" stroke-dasharray="1,5" d="M648.89,-1228C816.09,-1228 594.13,-874.43 743.85,-858.55"/>
<polygon fill="black" stroke="black" points="753.55,-858.06 743.79,-863.06 749.77,-858.25 743.56,-858.57 743.56,-858.57 743.56,-858.57 749.77,-858.25 743.33,-854.07 753.55,-858.06"/>
</g>
<!-- dependency237939&#45;&gt;choice100101118451131164711311699111114101455346495046534511449 -->
<g id="edge31" class="edge">
<title>dependency237939:e&#45;&gt;choice100101118451131164711311699111114101455346495046534511449:w</title>
<path fill="none" stroke="black" stroke-dasharray="1,5" d="M648.89,-1228C793.1,-1228 616.45,-928.44 743.74,-912.65"/>
<polygon fill="black" stroke="black" points="753.55,-912.07 743.83,-917.15 749.77,-912.29 743.57,-912.66 743.57,-912.66 743.57,-912.66 749.77,-912.29 743.3,-908.17 753.55,-912.07"/>
</g>
<!-- dependency237939&#45;&gt;choice10010111845113116471131169911111410145534649504651 -->
<g id="edge32" class="edge">
<title>dependency237939:e&#45;&gt;choice10010111845113116471131169911111410145534649504651:w</title>
<path fill="none" stroke="black" stroke-dasharray="1,5" d="M648.89,-1228C862.66,-1228 548.58,-766.66 743.79,-750.44"/>
<polygon fill="black" stroke="black" points="753.55,-750.05 743.74,-754.94 749.77,-750.2 743.56,-750.45 743.56,-750.45 743.56,-750.45 749.77,-750.2 743.38,-745.95 753.55,-750.05"/>
</g>
<!-- dependency237940&#45;&gt;choice1001011184511311647113116103117105455346495246484511449 -->
<g id="edge33" class="edge">
<title>dependency237940:e&#45;&gt;choice1001011184511311647113116103117105455346495246484511449:w</title>
<path fill="none" stroke="black" stroke-dasharray="1,5" d="M648.89,-976C847.04,-976 563.94,-550.67 743.76,-534.47"/>
<polygon fill="black" stroke="black" points="753.55,-534.05 743.75,-538.98 749.77,-534.22 743.56,-534.48 743.56,-534.48 743.56,-534.48 749.77,-534.22 743.36,-529.99 753.55,-534.05"/>
</g>
<!-- dependency237940&#45;&gt;choice100101118451131164711311610311710545534649514650 -->
<g id="edge34" class="edge">
<title>dependency237940:e&#45;&gt;choice100101118451131164711311610311710545534649514650:w</title>
<path fill="none" stroke="black" stroke-dasharray="1,5" d="M648.89,-976C823.8,-976 586.63,-604.49 743.83,-588.53"/>
<polygon fill="black" stroke="black" points="753.55,-588.06 743.78,-593.04 749.77,-588.24 743.56,-588.54 743.56,-588.54 743.56,-588.54 749.77,-588.24 743.34,-584.05 753.55,-588.06"/>
</g>
<!-- dependency237940&#45;&gt;choice100101118451131164711311610311710545534649504653 -->
<g id="edge35" class="edge">
<title>dependency237940:e&#45;&gt;choice100101118451131164711311610311710545534649504653:w</title>
<path fill="none" stroke="black" stroke-dasharray="1,5" d="M648.89,-976C893.93,-976 517.93,-443.05 743.56,-426.4"/>
<polygon fill="black" stroke="black" points="753.55,-426.04 743.71,-430.9 749.77,-426.18 743.55,-426.4 743.55,-426.4 743.55,-426.4 749.77,-426.18 743.39,-421.9 753.55,-426.04"/>
</g>
<!-- dependency237940&#45;&gt;choice1001011184511311647113116103117105455346495046514511449 -->
<g id="edge36" class="edge">
<title>dependency237940:e&#45;&gt;choice1001011184511311647113116103117105455346495046514511449:w</title>
<path fill="none" stroke="black" stroke-dasharray="1,5" d="M648.89,-976C870.45,-976 540.98,-496.81 743.7,-480.43"/>
<polygon fill="black" stroke="black" points="753.55,-480.05 743.73,-484.93 749.77,-480.19 743.56,-480.44 743.56,-480.44 743.56,-480.44 749.77,-480.19 743.38,-475.94 753.55,-480.05"/>
</g>
<!-- dependency237941&#45;&gt;choice100101118451131164711311611910510010310111611545534649524648 -->
<g id="edge37" class="edge">
<title>dependency237941:e&#45;&gt;choice100101118451131164711311611910510010310111611545534649524648:w</title>
<path fill="none" stroke="black" stroke-dasharray="1,5" d="M648.89,-1348C753.48,-1348 654,-1143.61 743.84,-1128.84"/>
<polygon fill="black" stroke="black" points="753.55,-1128.09 743.93,-1133.35 749.78,-1128.38 743.58,-1128.86 743.58,-1128.86 743.58,-1128.86 749.78,-1128.38 743.23,-1124.37 753.55,-1128.09"/>
</g>
<!-- dependency237941&#45;&gt;choice100101118451131164711311611910510010310111611545534649514650 -->
<g id="edge38" class="edge">
<title>dependency237941:e&#45;&gt;choice100101118451131164711311611910510010310111611545534649514650:w</title>
<path fill="none" stroke="black" stroke-dasharray="1,5" d="M648.89,-1348C821.28,-1348 588.98,-982.24 743.99,-966.52"/>
<polygon fill="black" stroke="black" points="753.55,-966.06 743.78,-971.04 749.77,-966.24 743.56,-966.54 743.56,-966.54 743.56,-966.54 749.77,-966.24 743.34,-962.05 753.55,-966.06"/>
</g>
<!-- dependency237941&#45;&gt;choice1001011184511311647113116119105100103101116115455346495046534511449 -->
<g id="edge39" class="edge">
<title>dependency237941:e&#45;&gt;choice1001011184511311647113116119105100103101116115455346495046534511449:w</title>
<path fill="none" stroke="black" stroke-dasharray="1,5" d="M648.89,-1348C798.18,-1348 611.53,-1036.44 743.77,-1020.62"/>
<polygon fill="black" stroke="black" points="753.55,-1020.07 743.82,-1025.13 749.77,-1020.28 743.57,-1020.64 743.57,-1020.64 743.57,-1020.64 749.77,-1020.28 743.31,-1016.14 753.55,-1020.07"/>
</g>
<!-- dependency237941&#45;&gt;choice100101118451131164711311611910510010310111611545534649504651 -->
<g id="edge40" class="edge">
<title>dependency237941:e&#45;&gt;choice100101118451131164711311611910510010310111611545534649504651:w</title>
<path fill="none" stroke="black" stroke-dasharray="1,5" d="M648.89,-1348C775.49,-1348 633.35,-1090.34 743.68,-1074.74"/>
<polygon fill="black" stroke="black" points="753.55,-1074.08 743.87,-1079.24 749.78,-1074.33 743.57,-1074.75 743.57,-1074.75 743.57,-1074.75 749.78,-1074.33 743.27,-1070.26 753.55,-1074.08"/>
</g>
<!-- dependency237942&#45;&gt;choice108120113116459897115101471081059810812011311645484649524649 -->
<g id="edge41" class="edge">
<title>dependency237942:e&#45;&gt;choice108120113116459897115101471081059810812011311645484649524649:w</title>
<path fill="none" stroke="black" stroke-dasharray="1,5" d="M648.89,-730C810.92,-730 599.22,-388.58 743.73,-372.58"/>
<polygon fill="black" stroke="black" points="753.55,-372.06 743.8,-377.08 749.77,-372.26 743.56,-372.59 743.56,-372.59 743.56,-372.59 749.77,-372.26 743.33,-368.1 753.55,-372.06"/>
</g>
</g>
</svg>
