<?xml version="1.0" encoding="UTF-8" standalone="no"?>
<!DOCTYPE svg PUBLIC "-//W3C//DTD SVG 1.1//EN"
 "http://www.w3.org/Graphics/SVG/1.1/DTD/svg11.dtd">
<!-- Generated by graphviz version 2.40.1 (20161225.0304)
 -->
<!-- Title: prolog Pages: 1 -->
<svg width="1068pt" height="533pt"
 viewBox="0.00 0.00 1068.00 533.00" xmlns="http://www.w3.org/2000/svg" xmlns:xlink="http://www.w3.org/1999/xlink">
<g id="graph0" class="graph" transform="scale(1 1) rotate(0) translate(4 529)">
<title>prolog</title>
<polygon fill="#ffffff" stroke="transparent" points="-4,4 -4,-529 1064,-529 1064,4 -4,4"/>
<g id="clust1" class="cluster">
<title>cluster_leftcol</title>
<polygon fill="none" stroke="#c0c0c0" points="8,-175 8,-247 312,-247 312,-175 8,-175"/>
<text text-anchor="start" x="146.663" y="-235" font-family="Helvetica,sans-Serif" font-style="italic" font-size="10.00" fill="#000000">ebuild</text>
</g>
<g id="clust2" class="cluster">
<title>cluster_midcol</title>
<polygon fill="none" stroke="#c0c0c0" points="396,-8 396,-446 664,-446 664,-8 396,-8"/>
<text text-anchor="start" x="498.875" y="-434" font-family="Helvetica,sans-Serif" font-style="italic" font-size="10.00" fill="#000000">dependencies</text>
</g>
<g id="clust3" class="cluster">
<title>cluster_compile</title>
<polygon fill="#eeeeee" stroke="#c0c0c0" points="404,-16 404,-418 656,-418 656,-16 404,-16"/>
<text text-anchor="start" x="512.778" y="-406" font-family="Helvetica,sans-Serif" font-style="italic" font-size="10.00" fill="#000000">compile</text>
</g>
<g id="clust9" class="cluster">
<title>cluster_choices</title>
<polygon fill="none" stroke="#c0c0c0" points="748,-13 748,-517 1052,-517 1052,-13 748,-13"/>
<text text-anchor="start" x="875.824" y="-505" font-family="Helvetica,sans-Serif" font-style="italic" font-size="10.00" fill="#000000">candidates</text>
</g>
<!-- id -->
<g id="node1" class="node">
<title>id</title>
<g id="a_node1"><a xlink:href="../sci-libs/ignition-math-4.0.0-r1.svg" xlink:title="portage://sci&#45;libs/ignition&#45;math&#45;4.0.0&#45;r1">
<ellipse fill="none" stroke="#ff0000" cx="160" cy="-201" rx="144" ry="18"/>
<text text-anchor="middle" x="160" y="-198" font-family="Helvetica,sans-Serif" font-size="10.00" fill="#000000">portage://sci&#45;libs/ignition&#45;math&#45;4.0.0&#45;r1</text>
</a>
</g>
</g>
<!-- dependency38893 -->
<g id="node2" class="node">
<title>dependency38893</title>
<polygon fill="none" stroke="#0000ff" points="420,-276 420,-386 525,-386 525,-276 420,-276"/>
<text text-anchor="start" x="450.823" y="-328" font-family="Helvetica,sans-Serif" font-size="10.00" fill="#000000">pack_dep</text>
<polygon fill="none" stroke="#0000ff" points="525,-364 525,-386 635,-386 635,-364 525,-364"/>
<text text-anchor="start" x="574.441" y="-372" font-family="Helvetica,sans-Serif" font-size="10.00" fill="#000000">no</text>
<polygon fill="none" stroke="#0000ff" points="525,-342 525,-364 635,-364 635,-342 525,-342"/>
<text text-anchor="start" x="563.8885" y="-350" font-family="Helvetica,sans-Serif" font-size="10.00" fill="#000000">dev&#45;util</text>
<polygon fill="none" stroke="#0000ff" points="525,-320 525,-342 635,-342 635,-320 525,-320"/>
<text text-anchor="start" x="565.2765" y="-328" font-family="Helvetica,sans-Serif" font-size="10.00" fill="#000000">cmake</text>
<polygon fill="none" stroke="#0000ff" points="525,-298 525,-320 635,-320 635,-298 525,-298"/>
<text text-anchor="start" x="551.936" y="-306" font-family="Helvetica,sans-Serif" font-size="10.00" fill="#000000">greaterequal</text>
<polygon fill="none" stroke="#0000ff" points="525,-276 525,-298 635,-298 635,-276 525,-276"/>
<text text-anchor="start" x="568.8825" y="-284" font-family="Helvetica,sans-Serif" font-size="10.00" fill="#000000">3.9.6</text>
</g>
<!-- id&#45;&gt;dependency38893 -->
<g id="edge1" class="edge">
<title>id:e&#45;&gt;dependency38893:w</title>
<path fill="none" stroke="#000000" d="M304,-201C375.4473,-201 340.7292,-318.6146 401.8088,-330.1004"/>
<polygon fill="#000000" stroke="#000000" points="412,-331 401.643,-334.6032 407.0194,-330.5603 402.0387,-330.1206 402.0387,-330.1206 402.0387,-330.1206 407.0194,-330.5603 402.4344,-325.6381 412,-331 412,-331"/>
</g>
<!-- dependency38894 -->
<g id="node3" class="node">
<title>dependency38894</title>
<polygon fill="none" stroke="#0000ff" points="420,-152 420,-250 525,-250 525,-152 420,-152"/>
<text text-anchor="start" x="450.823" y="-198" font-family="Helvetica,sans-Serif" font-size="10.00" fill="#000000">pack_dep</text>
<polygon fill="none" stroke="#0000ff" points="525,-228 525,-250 635,-250 635,-228 525,-228"/>
<text text-anchor="start" x="574.441" y="-236" font-family="Helvetica,sans-Serif" font-size="10.00" fill="#000000">no</text>
<polygon fill="none" stroke="#0000ff" points="525,-206 525,-228 635,-228 635,-206 525,-206"/>
<text text-anchor="start" x="563.8885" y="-214" font-family="Helvetica,sans-Serif" font-size="10.00" fill="#000000">dev&#45;util</text>
<polygon fill="none" stroke="#0000ff" points="525,-184 525,-206 635,-206 635,-184 525,-184"/>
<text text-anchor="start" x="547.776" y="-192" font-family="Helvetica,sans-Serif" font-size="10.00" fill="#000000">ignition&#45;cmake</text>
<polygon fill="none" stroke="#0000ff" points="525,-162 525,-184 635,-184 635,-162 525,-162"/>
<text text-anchor="start" x="568.882" y="-170" font-family="Helvetica,sans-Serif" font-size="10.00" fill="#000000">none</text>
<polygon fill="none" stroke="#0000ff" points="525,-152 525,-162 635,-162 635,-152 525,-152"/>
</g>
<!-- id&#45;&gt;dependency38894 -->
<g id="edge2" class="edge">
<title>id:e&#45;&gt;dependency38894:w</title>
<path fill="none" stroke="#000000" d="M304,-201C348.4375,-201 362.0204,-201 401.878,-201"/>
<polygon fill="#000000" stroke="#000000" points="412,-201 402,-205.5001 407,-201 402,-201.0001 402,-201.0001 402,-201.0001 407,-201 402,-196.5001 412,-201 412,-201"/>
</g>
<!-- dependency38895 -->
<g id="node4" class="node">
<title>dependency38895</title>
<polygon fill="none" stroke="#0000ff" points="420,-28 420,-126 525,-126 525,-28 420,-28"/>
<text text-anchor="start" x="450.823" y="-74" font-family="Helvetica,sans-Serif" font-size="10.00" fill="#000000">pack_dep</text>
<polygon fill="none" stroke="#0000ff" points="525,-104 525,-126 635,-126 635,-104 525,-104"/>
<text text-anchor="start" x="574.441" y="-112" font-family="Helvetica,sans-Serif" font-size="10.00" fill="#000000">no</text>
<polygon fill="none" stroke="#0000ff" points="525,-82 525,-104 635,-104 635,-82 525,-82"/>
<text text-anchor="start" x="558.8875" y="-90" font-family="Helvetica,sans-Serif" font-size="10.00" fill="#000000">sys&#45;devel</text>
<polygon fill="none" stroke="#0000ff" points="525,-60 525,-82 635,-82 635,-60 525,-60"/>
<text text-anchor="start" x="567.7765" y="-68" font-family="Helvetica,sans-Serif" font-size="10.00" fill="#000000">make</text>
<polygon fill="none" stroke="#0000ff" points="525,-38 525,-60 635,-60 635,-38 525,-38"/>
<text text-anchor="start" x="568.882" y="-46" font-family="Helvetica,sans-Serif" font-size="10.00" fill="#000000">none</text>
<polygon fill="none" stroke="#0000ff" points="525,-28 525,-38 635,-38 635,-28 525,-28"/>
</g>
<!-- id&#45;&gt;dependency38895 -->
<g id="edge3" class="edge">
<title>id:e&#45;&gt;dependency38895:w</title>
<path fill="none" stroke="#000000" d="M304,-201C373.3725,-201 342.5057,-89.274 401.6977,-77.9268"/>
<polygon fill="#000000" stroke="#000000" points="412,-77 402.4435,-82.378 407.0201,-77.448 402.0402,-77.8961 402.0402,-77.8961 402.0402,-77.8961 407.0201,-77.448 401.637,-73.4142 412,-77 412,-77"/>
</g>
<!-- choice1001011184511711610510847991099710710145514649554648951149950 -->
<g id="node5" class="node">
<title>choice1001011184511711610510847991099710710145514649554648951149950</title>
<g id="a_node5"><a xlink:href="../dev-util/cmake-3.17.0_rc2.svg" xlink:title="portage://dev&#45;util/cmake&#45;3.17.0_rc2">
<ellipse fill="none" stroke="#ff0000" cx="900" cy="-471" rx="144" ry="18"/>
<text text-anchor="middle" x="900" y="-468" font-family="Helvetica,sans-Serif" font-size="10.00" fill="#000000">portage://dev&#45;util/cmake&#45;3.17.0_rc2</text>
</a>
</g>
</g>
<!-- dependency38893&#45;&gt;choice1001011184511711610510847991099710710145514649554648951149950 -->
<g id="edge4" class="edge">
<title>dependency38893:e&#45;&gt;choice1001011184511711610510847991099710710145514649554648951149950:w</title>
<path fill="none" stroke="#000000" stroke-dasharray="1,5" d="M648,-331C722.9013,-331 681.744,-458.1826 745.7648,-470.106"/>
<polygon fill="#000000" stroke="#000000" points="756,-471 745.6463,-474.6127 751.019,-470.5649 746.0379,-470.1298 746.0379,-470.1298 746.0379,-470.1298 751.019,-470.5649 746.4295,-465.6468 756,-471 756,-471"/>
</g>
<!-- choice1001011184511711610510847991099710710145514649544653 -->
<g id="node6" class="node">
<title>choice1001011184511711610510847991099710710145514649544653</title>
<g id="a_node6"><a xlink:href="../dev-util/cmake-3.16.5.svg" xlink:title="portage://dev&#45;util/cmake&#45;3.16.5">
<ellipse fill="none" stroke="#ff0000" cx="900" cy="-417" rx="144" ry="18"/>
<text text-anchor="middle" x="900" y="-414" font-family="Helvetica,sans-Serif" font-size="10.00" fill="#000000">portage://dev&#45;util/cmake&#45;3.16.5</text>
</a>
</g>
</g>
<!-- dependency38893&#45;&gt;choice1001011184511711610510847991099710710145514649544653 -->
<g id="edge5" class="edge">
<title>dependency38893:e&#45;&gt;choice1001011184511711610510847991099710710145514649544653:w</title>
<path fill="none" stroke="#000000" stroke-dasharray="1,5" d="M648,-331C705.7638,-331 696.1045,-407.2171 745.9672,-416.1488"/>
<polygon fill="#000000" stroke="#000000" points="756,-417 745.6553,-420.6385 751.0179,-416.5773 746.0358,-416.1546 746.0358,-416.1546 746.0358,-416.1546 751.0179,-416.5773 746.4162,-411.6707 756,-417 756,-417"/>
</g>
<!-- choice1001011184511711610510847991099710710145514649544652 -->
<g id="node7" class="node">
<title>choice1001011184511711610510847991099710710145514649544652</title>
<g id="a_node7"><a xlink:href="../dev-util/cmake-3.16.4.svg" xlink:title="portage://dev&#45;util/cmake&#45;3.16.4">
<ellipse fill="none" stroke="#ff0000" cx="900" cy="-363" rx="144" ry="18"/>
<text text-anchor="middle" x="900" y="-360" font-family="Helvetica,sans-Serif" font-size="10.00" fill="#000000">portage://dev&#45;util/cmake&#45;3.16.4</text>
</a>
</g>
</g>
<!-- dependency38893&#45;&gt;choice1001011184511711610510847991099710710145514649544652 -->
<g id="edge6" class="edge">
<title>dependency38893:e&#45;&gt;choice1001011184511711610510847991099710710145514649544652:w</title>
<path fill="none" stroke="#000000" stroke-dasharray="1,5" d="M648,-331C694.4449,-331 704.5789,-358.5421 745.7757,-362.5228"/>
<polygon fill="#000000" stroke="#000000" points="756,-363 745.801,-367.0288 751.0054,-362.7668 746.0109,-362.5337 746.0109,-362.5337 746.0109,-362.5337 751.0054,-362.7668 746.2207,-358.0386 756,-363 756,-363"/>
</g>
<!-- choice1001011184511711610510847991099710710145514649524654 -->
<g id="node8" class="node">
<title>choice1001011184511711610510847991099710710145514649524654</title>
<g id="a_node8"><a xlink:href="../dev-util/cmake-3.14.6.svg" xlink:title="portage://dev&#45;util/cmake&#45;3.14.6">
<ellipse fill="none" stroke="#ff0000" cx="900" cy="-309" rx="144" ry="18"/>
<text text-anchor="middle" x="900" y="-306" font-family="Helvetica,sans-Serif" font-size="10.00" fill="#000000">portage://dev&#45;util/cmake&#45;3.14.6</text>
</a>
</g>
</g>
<!-- dependency38893&#45;&gt;choice1001011184511711610510847991099710710145514649524654 -->
<g id="edge7" class="edge">
<title>dependency38893:e&#45;&gt;choice1001011184511711610510847991099710710145514649524654:w</title>
<path fill="none" stroke="#000000" stroke-dasharray="1,5" d="M648,-331C693.4458,-331 705.3614,-312.0648 745.961,-309.3281"/>
<polygon fill="#000000" stroke="#000000" points="756,-309 746.1524,-313.8243 751.0027,-309.1634 746.0053,-309.3267 746.0053,-309.3267 746.0053,-309.3267 751.0027,-309.1634 745.8583,-304.8291 756,-309 756,-309"/>
</g>
<!-- choice1001011184511711610510847991099710710145514649514653 -->
<g id="node9" class="node">
<title>choice1001011184511711610510847991099710710145514649514653</title>
<g id="a_node9"><a xlink:href="../dev-util/cmake-3.13.5.svg" xlink:title="portage://dev&#45;util/cmake&#45;3.13.5">
<ellipse fill="none" stroke="#ff0000" cx="900" cy="-255" rx="144" ry="18"/>
<text text-anchor="middle" x="900" y="-252" font-family="Helvetica,sans-Serif" font-size="10.00" fill="#000000">portage://dev&#45;util/cmake&#45;3.13.5</text>
</a>
</g>
</g>
<!-- dependency38893&#45;&gt;choice1001011184511711610510847991099710710145514649514653 -->
<g id="edge8" class="edge">
<title>dependency38893:e&#45;&gt;choice1001011184511711610510847991099710710145514649514653:w</title>
<path fill="none" stroke="#000000" stroke-dasharray="1,5" d="M648,-331C703.0252,-331 698.2139,-264.2031 745.7595,-255.8535"/>
<polygon fill="#000000" stroke="#000000" points="756,-255 746.4084,-260.3151 751.0173,-255.4153 746.0346,-255.8307 746.0346,-255.8307 746.0346,-255.8307 751.0173,-255.4153 745.6607,-251.3462 756,-255 756,-255"/>
</g>
<!-- choice1001011184511711610510847105103110105116105111110459910997107101454846524648 -->
<g id="node10" class="node">
<title>choice1001011184511711610510847105103110105116105111110459910997107101454846524648</title>
<g id="a_node10"><a xlink:href="../dev-util/ignition-cmake-0.4.0.svg" xlink:title="portage://dev&#45;util/ignition&#45;cmake&#45;0.4.0">
<ellipse fill="none" stroke="#ff0000" cx="900" cy="-201" rx="144" ry="18"/>
<text text-anchor="middle" x="900" y="-198" font-family="Helvetica,sans-Serif" font-size="10.00" fill="#000000">portage://dev&#45;util/ignition&#45;cmake&#45;0.4.0</text>
</a>
</g>
</g>
<!-- dependency38894&#45;&gt;choice1001011184511711610510847105103110105116105111110459910997107101454846524648 -->
<g id="edge9" class="edge">
<title>dependency38894:e&#45;&gt;choice1001011184511711610510847105103110105116105111110459910997107101454846524648:w</title>
<path fill="none" stroke="#000000" stroke-dasharray="1,5" d="M648,-201C692.4375,-201 706.0204,-201 745.878,-201"/>
<polygon fill="#000000" stroke="#000000" points="756,-201 746,-205.5001 751,-201 746,-201.0001 746,-201.0001 746,-201.0001 751,-201 746,-196.5001 756,-201 756,-201"/>
</g>
<!-- choice1001011184511711610510847105103110105116105111110459910997107101454846504648 -->
<g id="node11" class="node">
<title>choice1001011184511711610510847105103110105116105111110459910997107101454846504648</title>
<g id="a_node11"><a xlink:href="../dev-util/ignition-cmake-0.2.0.svg" xlink:title="portage://dev&#45;util/ignition&#45;cmake&#45;0.2.0">
<ellipse fill="none" stroke="#ff0000" cx="900" cy="-147" rx="144" ry="18"/>
<text text-anchor="middle" x="900" y="-144" font-family="Helvetica,sans-Serif" font-size="10.00" fill="#000000">portage://dev&#45;util/ignition&#45;cmake&#45;0.2.0</text>
</a>
</g>
</g>
<!-- dependency38894&#45;&gt;choice1001011184511711610510847105103110105116105111110459910997107101454846504648 -->
<g id="edge10" class="edge">
<title>dependency38894:e&#45;&gt;choice1001011184511711610510847105103110105116105111110459910997107101454846504648:w</title>
<path fill="none" stroke="#000000" stroke-dasharray="1,5" d="M648,-201C698.1019,-201 702.0118,-153.9337 745.9789,-147.6828"/>
<polygon fill="#000000" stroke="#000000" points="756,-147 746.3291,-152.1694 751.0116,-147.3399 746.0231,-147.6798 746.0231,-147.6798 746.0231,-147.6798 751.0116,-147.3399 745.7172,-143.1902 756,-147 756,-147"/>
</g>
<!-- choice11512111545100101118101108471099710710145524651 -->
<g id="node12" class="node">
<title>choice11512111545100101118101108471099710710145524651</title>
<g id="a_node12"><a xlink:href="../sys-devel/make-4.3.svg" xlink:title="portage://sys&#45;devel/make&#45;4.3">
<ellipse fill="none" stroke="#ff0000" cx="900" cy="-93" rx="144" ry="18"/>
<text text-anchor="middle" x="900" y="-90" font-family="Helvetica,sans-Serif" font-size="10.00" fill="#000000">portage://sys&#45;devel/make&#45;4.3</text>
</a>
</g>
</g>
<!-- dependency38895&#45;&gt;choice11512111545100101118101108471099710710145524651 -->
<g id="edge11" class="edge">
<title>dependency38895:e&#45;&gt;choice11512111545100101118101108471099710710145524651:w</title>
<path fill="none" stroke="#000000" stroke-dasharray="1,5" d="M648,-77C692.9225,-77 705.6434,-90.7131 745.786,-92.7487"/>
<polygon fill="#000000" stroke="#000000" points="756,-93 745.8923,-97.2526 751.0015,-92.877 746.003,-92.7539 746.003,-92.7539 746.003,-92.7539 751.0015,-92.877 746.1138,-88.2553 756,-93 756,-93"/>
</g>
<!-- choice1151211154510010111810110847109971071014552465046494511452 -->
<g id="node13" class="node">
<title>choice1151211154510010111810110847109971071014552465046494511452</title>
<g id="a_node13"><a xlink:href="../sys-devel/make-4.2.1-r4.svg" xlink:title="portage://sys&#45;devel/make&#45;4.2.1&#45;r4">
<ellipse fill="none" stroke="#ff0000" cx="900" cy="-39" rx="144" ry="18"/>
<text text-anchor="middle" x="900" y="-36" font-family="Helvetica,sans-Serif" font-size="10.00" fill="#000000">portage://sys&#45;devel/make&#45;4.2.1&#45;r4</text>
</a>
</g>
</g>
<!-- dependency38895&#45;&gt;choice1151211154510010111810110847109971071014552465046494511452 -->
<g id="edge12" class="edge">
<title>dependency38895:e&#45;&gt;choice1151211154510010111810110847109971071014552465046494511452:w</title>
<path fill="none" stroke="#000000" stroke-dasharray="1,5" d="M648,-77C695.3067,-77 704.0185,-44.1559 745.8978,-39.5372"/>
<polygon fill="#000000" stroke="#000000" points="756,-39 746.2531,-44.0247 751.0071,-39.2655 746.0141,-39.5311 746.0141,-39.5311 746.0141,-39.5311 751.0071,-39.2655 745.7751,-35.0374 756,-39 756,-39"/>
</g>
</g>
</svg>
