<?xml version="1.0" encoding="UTF-8" standalone="no"?>
<!DOCTYPE svg PUBLIC "-//W3C//DTD SVG 1.1//EN"
 "http://www.w3.org/Graphics/SVG/1.1/DTD/svg11.dtd">
<!-- Generated by graphviz version 9.0.0 (20230911.1827)
 -->
<!-- Title: prolog Pages: 1 -->
<svg width="988pt" height="1532pt"
 viewBox="0.00 0.00 988.00 1532.00" xmlns="http://www.w3.org/2000/svg" xmlns:xlink="http://www.w3.org/1999/xlink">
<g id="graph0" class="graph" transform="scale(1 1) rotate(0) translate(4 1528)">
<title>prolog</title>
<polygon fill="white" stroke="none" points="-4,4 -4,-1528 984,-1528 984,4 -4,4"/>
<g id="clust14" class="cluster">
<title>cluster_choices</title>
<polygon fill="none" stroke="gray" points="668,-8 668,-1516 972,-1516 972,-8 668,-8"/>
<text text-anchor="start" x="796.38" y="-1503.5" font-family="Helvetica,sans-Serif" font-style="italic" font-size="10.00">candidates</text>
</g>
<g id="clust2" class="cluster">
<title>cluster_midcol</title>
<polygon fill="none" stroke="gray" points="8,-1044 8,-1257 584,-1257 584,-1044 8,-1044"/>
<text text-anchor="start" x="266" y="-1244.5" font-family="Helvetica,sans-Serif" font-style="italic" font-size="10.00">dependencies</text>
</g>
<g id="clust3" class="cluster">
<title>cluster_compile</title>
<polygon fill="#eeeeee" stroke="gray" points="16,-1052 16,-1137 576,-1137 576,-1052 16,-1052"/>
<text text-anchor="start" x="279.12" y="-1124.5" font-family="Helvetica,sans-Serif" font-style="italic" font-size="10.00">compile</text>
</g>
<g id="clust9" class="cluster">
<title>cluster_run</title>
<polygon fill="#eeeeee" stroke="gray" points="412,-1145 412,-1230 576,-1230 576,-1145 412,-1145"/>
<text text-anchor="start" x="487.25" y="-1217.5" font-family="Helvetica,sans-Serif" font-style="italic" font-size="10.00">run</text>
</g>
<!-- id -->
<g id="node1" class="node">
<title>id</title>
<g id="a_node1"><a xlink:href="../sci-libs/rocThrust-5.7.1.svg" xlink:title="portage://sci&#45;libs/rocThrust&#45;5.7.1">
<ellipse fill="none" stroke="red" cx="168" cy="-1085" rx="144" ry="18"/>
<text text-anchor="middle" x="168" y="-1081.12" font-family="Helvetica,sans-Serif" font-size="10.00">portage://sci&#45;libs/rocThrust&#45;5.7.1</text>
</a>
</g>
</g>
<!-- dependency395875 -->
<g id="node2" class="node">
<title>dependency395875</title>
<polygon fill="none" stroke="red" points="428,-1064 428,-1106 517,-1106 517,-1064 428,-1064"/>
<text text-anchor="start" x="438.75" y="-1081.12" font-family="Helvetica,sans-Serif" font-size="10.00">use_conditional</text>
<polygon fill="none" stroke="red" points="517,-1085 517,-1106 560,-1106 560,-1085 517,-1085"/>
<text text-anchor="start" x="521.62" y="-1091.5" font-family="Helvetica,sans-Serif" font-size="10.00">positive</text>
<polygon fill="none" stroke="red" points="517,-1064 517,-1085 560,-1085 560,-1064 517,-1064"/>
<text text-anchor="start" x="530.25" y="-1070.5" font-family="Helvetica,sans-Serif" font-size="10.00">test</text>
</g>
<!-- id&#45;&gt;dependency395875 -->
<g id="edge2" class="edge">
<title>id:e&#45;&gt;dependency395875:w</title>
<path fill="none" stroke="black" d="M312,-1085C355.65,-1085 369.25,-1085 407.98,-1085"/>
<polygon fill="black" stroke="black" points="417.78,-1085 407.78,-1089.5 414,-1085 407.78,-1085 407.78,-1085 407.78,-1085 414,-1085 407.78,-1080.5 417.78,-1085"/>
</g>
<!-- dependency395877 -->
<g id="node4" class="node">
<title>dependency395877</title>
<polygon fill="none" stroke="blue" points="710,-576.5 710,-681.5 814,-681.5 814,-576.5 710,-576.5"/>
<text text-anchor="start" x="741" y="-625.12" font-family="Helvetica,sans-Serif" font-size="10.00">pack_dep</text>
<polygon fill="none" stroke="blue" points="814,-660.5 814,-681.5 924,-681.5 924,-660.5 814,-660.5"/>
<text text-anchor="start" x="863.75" y="-667" font-family="Helvetica,sans-Serif" font-size="10.00">no</text>
<polygon fill="none" stroke="blue" points="814,-639.5 814,-660.5 924,-660.5 924,-639.5 814,-639.5"/>
<text text-anchor="start" x="853.25" y="-646" font-family="Helvetica,sans-Serif" font-size="10.00">dev&#45;util</text>
<polygon fill="none" stroke="blue" points="814,-618.5 814,-639.5 924,-639.5 924,-618.5 814,-618.5"/>
<text text-anchor="start" x="862.62" y="-625" font-family="Helvetica,sans-Serif" font-size="10.00">hip</text>
<polygon fill="none" stroke="blue" points="814,-597.5 814,-618.5 924,-618.5 924,-597.5 814,-597.5"/>
<text text-anchor="start" x="858.5" y="-604" font-family="Helvetica,sans-Serif" font-size="10.00">none</text>
<polygon fill="none" stroke="blue" points="814,-576.5 814,-597.5 924,-597.5 924,-576.5 814,-576.5"/>
<text text-anchor="start" x="863" y="-583" font-family="Helvetica,sans-Serif" font-size="10.00">[,,]</text>
</g>
<!-- id&#45;&gt;dependency395877 -->
<g id="edge3" class="edge">
<title>id:e&#45;&gt;dependency395877:w</title>
<path fill="none" stroke="black" d="M495,-335C621.97,-244.69 545.25,-611.15 690.18,-628.37"/>
<polygon fill="black" stroke="black" points="699.78,-628.93 689.54,-632.84 696.01,-628.71 689.8,-628.35 689.8,-628.35 689.8,-628.35 696.01,-628.71 690.06,-623.86 699.78,-628.93"/>
</g>
<!-- dependency395878 -->
<g id="node5" class="node">
<title>dependency395878</title>
<polygon fill="none" stroke="blue" points="710,-282.5 710,-387.5 814,-387.5 814,-282.5 710,-282.5"/>
<text text-anchor="start" x="741" y="-331.12" font-family="Helvetica,sans-Serif" font-size="10.00">pack_dep</text>
<polygon fill="none" stroke="blue" points="814,-366.5 814,-387.5 924,-387.5 924,-366.5 814,-366.5"/>
<text text-anchor="start" x="863.75" y="-373" font-family="Helvetica,sans-Serif" font-size="10.00">no</text>
<polygon fill="none" stroke="blue" points="814,-345.5 814,-366.5 924,-366.5 924,-345.5 814,-345.5"/>
<text text-anchor="start" x="853.62" y="-352" font-family="Helvetica,sans-Serif" font-size="10.00">sci&#45;libs</text>
<polygon fill="none" stroke="blue" points="814,-324.5 814,-345.5 924,-345.5 924,-324.5 814,-324.5"/>
<text text-anchor="start" x="849.5" y="-331" font-family="Helvetica,sans-Serif" font-size="10.00">rocPRIM</text>
<polygon fill="none" stroke="blue" points="814,-303.5 814,-324.5 924,-324.5 924,-303.5 814,-303.5"/>
<text text-anchor="start" x="858.5" y="-310" font-family="Helvetica,sans-Serif" font-size="10.00">none</text>
<polygon fill="none" stroke="blue" points="814,-282.5 814,-303.5 924,-303.5 924,-282.5 814,-282.5"/>
<text text-anchor="start" x="863" y="-289" font-family="Helvetica,sans-Serif" font-size="10.00">[,,]</text>
</g>
<!-- id&#45;&gt;dependency395878 -->
<g id="edge4" class="edge">
<title>id:e&#45;&gt;dependency395878:w</title>
<path fill="none" stroke="black" d="M495,-335C566.55,-284.11 606.12,-330.83 689.99,-334.74"/>
<polygon fill="black" stroke="black" points="699.78,-334.97 689.68,-339.24 696,-334.88 689.78,-334.74 689.78,-334.74 689.78,-334.74 696,-334.88 689.89,-330.24 699.78,-334.97"/>
</g>
<!-- dependency395879 -->
<g id="node6" class="node">
<title>dependency395879</title>
<polygon fill="none" stroke="red" points="428,-1157 428,-1199 517,-1199 517,-1157 428,-1157"/>
<text text-anchor="start" x="438.75" y="-1174.12" font-family="Helvetica,sans-Serif" font-size="10.00">use_conditional</text>
<polygon fill="none" stroke="red" points="517,-1178 517,-1199 560,-1199 560,-1178 517,-1178"/>
<text text-anchor="start" x="521.62" y="-1184.5" font-family="Helvetica,sans-Serif" font-size="10.00">positive</text>
<polygon fill="none" stroke="red" points="517,-1157 517,-1178 560,-1178 560,-1157 517,-1157"/>
<text text-anchor="start" x="530.25" y="-1163.5" font-family="Helvetica,sans-Serif" font-size="10.00">test</text>
</g>
<!-- id&#45;&gt;dependency395879 -->
<g id="edge6" class="edge">
<title>id:e&#45;&gt;dependency395879:w</title>
<path fill="none" stroke="black" d="M312,-1085C371.93,-1085 357.65,-1169.14 410.34,-1177.36"/>
<ellipse fill="none" stroke="black" cx="414.51" cy="-1177.67" rx="4" ry="4"/>
</g>
<!-- dependency395881 -->
<g id="node8" class="node">
<title>dependency395881</title>
<polygon fill="none" stroke="blue" points="710,-151.5 710,-256.5 814,-256.5 814,-151.5 710,-151.5"/>
<text text-anchor="start" x="741" y="-200.12" font-family="Helvetica,sans-Serif" font-size="10.00">pack_dep</text>
<polygon fill="none" stroke="blue" points="814,-235.5 814,-256.5 924,-256.5 924,-235.5 814,-235.5"/>
<text text-anchor="start" x="863.75" y="-242" font-family="Helvetica,sans-Serif" font-size="10.00">no</text>
<polygon fill="none" stroke="blue" points="814,-214.5 814,-235.5 924,-235.5 924,-214.5 814,-214.5"/>
<text text-anchor="start" x="853.25" y="-221" font-family="Helvetica,sans-Serif" font-size="10.00">dev&#45;util</text>
<polygon fill="none" stroke="blue" points="814,-193.5 814,-214.5 924,-214.5 924,-193.5 814,-193.5"/>
<text text-anchor="start" x="862.62" y="-200" font-family="Helvetica,sans-Serif" font-size="10.00">hip</text>
<polygon fill="none" stroke="blue" points="814,-172.5 814,-193.5 924,-193.5 924,-172.5 814,-172.5"/>
<text text-anchor="start" x="858.5" y="-179" font-family="Helvetica,sans-Serif" font-size="10.00">none</text>
<polygon fill="none" stroke="blue" points="814,-151.5 814,-172.5 924,-172.5 924,-151.5 814,-151.5"/>
<text text-anchor="start" x="863" y="-158" font-family="Helvetica,sans-Serif" font-size="10.00">[,,]</text>
</g>
<!-- id&#45;&gt;dependency395881 -->
<g id="edge7" class="edge">
<title>id:e&#45;&gt;dependency395881:w</title>
<path fill="none" stroke="black" d="M495,-335C580.91,-273.89 591.92,-207.85 692.02,-204.16"/>
<ellipse fill="none" stroke="black" cx="696.5" cy="-204.08" rx="4" ry="4"/>
</g>
<!-- dependency395882 -->
<g id="node9" class="node">
<title>dependency395882</title>
<polygon fill="none" stroke="blue" points="710,-20.5 710,-125.5 814,-125.5 814,-20.5 710,-20.5"/>
<text text-anchor="start" x="741" y="-69.12" font-family="Helvetica,sans-Serif" font-size="10.00">pack_dep</text>
<polygon fill="none" stroke="blue" points="814,-104.5 814,-125.5 924,-125.5 924,-104.5 814,-104.5"/>
<text text-anchor="start" x="863.75" y="-111" font-family="Helvetica,sans-Serif" font-size="10.00">no</text>
<polygon fill="none" stroke="blue" points="814,-83.5 814,-104.5 924,-104.5 924,-83.5 814,-83.5"/>
<text text-anchor="start" x="853.62" y="-90" font-family="Helvetica,sans-Serif" font-size="10.00">sci&#45;libs</text>
<polygon fill="none" stroke="blue" points="814,-62.5 814,-83.5 924,-83.5 924,-62.5 814,-62.5"/>
<text text-anchor="start" x="849.5" y="-69" font-family="Helvetica,sans-Serif" font-size="10.00">rocPRIM</text>
<polygon fill="none" stroke="blue" points="814,-41.5 814,-62.5 924,-62.5 924,-41.5 814,-41.5"/>
<text text-anchor="start" x="858.5" y="-48" font-family="Helvetica,sans-Serif" font-size="10.00">none</text>
<polygon fill="none" stroke="blue" points="814,-20.5 814,-41.5 924,-41.5 924,-20.5 814,-20.5"/>
<text text-anchor="start" x="863" y="-27" font-family="Helvetica,sans-Serif" font-size="10.00">[,,]</text>
</g>
<!-- id&#45;&gt;dependency395882 -->
<g id="edge8" class="edge">
<title>id:e&#45;&gt;dependency395882:w</title>
<path fill="none" stroke="black" d="M495,-335C613.23,-250.9 555.37,-80.19 692.15,-73.22"/>
<ellipse fill="none" stroke="black" cx="696.5" cy="-73.11" rx="4" ry="4"/>
<path fill="none" stroke="black" d="M312,-1085C483.45,-1085 353.29,-434.38 493,-335"/>
</g>
<!-- dependency395876 -->
<g id="node3" class="node">
<title>dependency395876</title>
<polygon fill="none" stroke="blue" points="710,-1032.5 710,-1137.5 814,-1137.5 814,-1032.5 710,-1032.5"/>
<text text-anchor="start" x="741" y="-1081.12" font-family="Helvetica,sans-Serif" font-size="10.00">pack_dep</text>
<polygon fill="none" stroke="blue" points="814,-1116.5 814,-1137.5 924,-1137.5 924,-1116.5 814,-1116.5"/>
<text text-anchor="start" x="863.75" y="-1123" font-family="Helvetica,sans-Serif" font-size="10.00">no</text>
<polygon fill="none" stroke="blue" points="814,-1095.5 814,-1116.5 924,-1116.5 924,-1095.5 814,-1095.5"/>
<text text-anchor="start" x="851.75" y="-1102" font-family="Helvetica,sans-Serif" font-size="10.00">dev&#45;cpp</text>
<polygon fill="none" stroke="blue" points="814,-1074.5 814,-1095.5 924,-1095.5 924,-1074.5 814,-1074.5"/>
<text text-anchor="start" x="858.12" y="-1081" font-family="Helvetica,sans-Serif" font-size="10.00">gtest</text>
<polygon fill="none" stroke="blue" points="814,-1053.5 814,-1074.5 924,-1074.5 924,-1053.5 814,-1053.5"/>
<text text-anchor="start" x="858.5" y="-1060" font-family="Helvetica,sans-Serif" font-size="10.00">none</text>
<polygon fill="none" stroke="blue" points="814,-1032.5 814,-1053.5 924,-1053.5 924,-1032.5 814,-1032.5"/>
<text text-anchor="start" x="863" y="-1039" font-family="Helvetica,sans-Serif" font-size="10.00">[,,]</text>
</g>
<!-- dependency395875&#45;&gt;dependency395876 -->
<g id="edge1" class="edge">
<title>dependency395875:e&#45;&gt;dependency395876:w</title>
<path fill="none" stroke="black" stroke-dasharray="5,2" d="M569,-1085C623.77,-1085 640.19,-1085 689.87,-1085"/>
<polygon fill="black" stroke="black" points="699.78,-1085 689.78,-1089.5 696,-1085 689.78,-1085 689.78,-1085 689.78,-1085 696,-1085 689.78,-1080.5 699.78,-1085"/>
</g>
<!-- choice10010111845991121124710311610111511645494649514648 -->
<g id="node10" class="node">
<title>choice10010111845991121124710311610111511645494649514648</title>
<g id="a_node10"><a xlink:href="../dev-cpp/gtest-1.13.0.svg" xlink:title="portage://dev&#45;cpp/gtest&#45;1.13.0">
<ellipse fill="none" stroke="red" cx="820" cy="-1309" rx="144" ry="18"/>
<text text-anchor="middle" x="820" y="-1305.12" font-family="Helvetica,sans-Serif" font-size="10.00">portage://dev&#45;cpp/gtest&#45;1.13.0</text>
</a>
</g>
</g>
<!-- dependency395876&#45;&gt;choice10010111845991121124710311610111511645494649514648 -->
<g id="edge9" class="edge">
<title>dependency395876:e&#45;&gt;choice10010111845991121124710311610111511645494649514648:w</title>
<path fill="none" stroke="black" stroke-dasharray="1,5" d="M939,-1085C964.12,-1085 955.6,-1123.59 938,-1141.5 913.66,-1166.27 647.83,-1132.99 626,-1160 584.57,-1211.25 602.96,-1298.75 663.98,-1308.17"/>
<polygon fill="black" stroke="black" points="673.79,-1308.91 663.48,-1312.65 670.01,-1308.63 663.81,-1308.16 663.81,-1308.16 663.81,-1308.16 670.01,-1308.63 664.15,-1303.67 673.79,-1308.91"/>
</g>
<!-- choice10010111845991121124710311610111511645494649524648 -->
<g id="node11" class="node">
<title>choice10010111845991121124710311610111511645494649524648</title>
<g id="a_node11"><a xlink:href="../dev-cpp/gtest-1.14.0.svg" xlink:title="portage://dev&#45;cpp/gtest&#45;1.14.0">
<ellipse fill="none" stroke="red" cx="820" cy="-1471" rx="144" ry="18"/>
<text text-anchor="middle" x="820" y="-1467.12" font-family="Helvetica,sans-Serif" font-size="10.00">portage://dev&#45;cpp/gtest&#45;1.14.0</text>
</a>
</g>
</g>
<!-- dependency395876&#45;&gt;choice10010111845991121124710311610111511645494649524648 -->
<g id="edge10" class="edge">
<title>dependency395876:e&#45;&gt;choice10010111845991121124710311610111511645494649524648:w</title>
<path fill="none" stroke="black" stroke-dasharray="1,5" d="M939,-1085C964.12,-1085 955.6,-1123.59 938,-1141.5 913.66,-1166.27 647.83,-1132.99 626,-1160 587.58,-1207.52 598.4,-1380.48 626,-1435 636.39,-1455.53 645.02,-1467.2 664.04,-1470.21"/>
<polygon fill="black" stroke="black" points="673.78,-1470.91 663.49,-1474.68 670.01,-1470.64 663.81,-1470.2 663.81,-1470.2 663.81,-1470.2 670.01,-1470.64 664.13,-1465.71 673.78,-1470.91"/>
</g>
<!-- choice100101118459911211247103116101115116454946495246484511449 -->
<g id="node12" class="node">
<title>choice100101118459911211247103116101115116454946495246484511449</title>
<g id="a_node12"><a xlink:href="../dev-cpp/gtest-1.14.0-r1.svg" xlink:title="portage://dev&#45;cpp/gtest&#45;1.14.0&#45;r1">
<ellipse fill="none" stroke="red" cx="820" cy="-1417" rx="144" ry="18"/>
<text text-anchor="middle" x="820" y="-1413.12" font-family="Helvetica,sans-Serif" font-size="10.00">portage://dev&#45;cpp/gtest&#45;1.14.0&#45;r1</text>
</a>
</g>
</g>
<!-- dependency395876&#45;&gt;choice100101118459911211247103116101115116454946495246484511449 -->
<g id="edge11" class="edge">
<title>dependency395876:e&#45;&gt;choice100101118459911211247103116101115116454946495246484511449:w</title>
<path fill="none" stroke="black" stroke-dasharray="1,5" d="M939,-1085C964.12,-1085 955.6,-1123.59 938,-1141.5 913.66,-1166.27 647.83,-1132.99 626,-1160 564.25,-1236.38 581.64,-1293.37 626,-1381 636.39,-1401.53 645.02,-1413.2 664.04,-1416.21"/>
<polygon fill="black" stroke="black" points="673.78,-1416.91 663.49,-1420.68 670.01,-1416.64 663.81,-1416.2 663.81,-1416.2 663.81,-1416.2 670.01,-1416.64 664.13,-1411.71 673.78,-1416.91"/>
</g>
<!-- choice1001011184599112112471031161011151164557575757 -->
<g id="node13" class="node">
<title>choice1001011184599112112471031161011151164557575757</title>
<g id="a_node13"><a xlink:href="../dev-cpp/gtest-9999.svg" xlink:title="portage://dev&#45;cpp/gtest&#45;9999">
<ellipse fill="none" stroke="red" cx="820" cy="-1363" rx="144" ry="18"/>
<text text-anchor="middle" x="820" y="-1359.12" font-family="Helvetica,sans-Serif" font-size="10.00">portage://dev&#45;cpp/gtest&#45;9999</text>
</a>
</g>
</g>
<!-- dependency395876&#45;&gt;choice1001011184599112112471031161011151164557575757 -->
<g id="edge12" class="edge">
<title>dependency395876:e&#45;&gt;choice1001011184599112112471031161011151164557575757:w</title>
<path fill="none" stroke="black" stroke-dasharray="1,5" d="M939,-1085C964.12,-1085 955.6,-1123.59 938,-1141.5 913.66,-1166.27 647.83,-1132.99 626,-1160 570.04,-1229.22 581.12,-1352.37 663.97,-1362.35"/>
<polygon fill="black" stroke="black" points="673.78,-1362.93 663.54,-1366.83 670.01,-1362.71 663.8,-1362.34 663.8,-1362.34 663.8,-1362.34 670.01,-1362.71 664.06,-1357.85 673.78,-1362.93"/>
</g>
<!-- choice10010111845117116105108471041051124553464946514511452 -->
<g id="node14" class="node">
<title>choice10010111845117116105108471041051124553464946514511452</title>
<g id="a_node14"><a xlink:href="../dev-util/hip-5.1.3-r4.svg" xlink:title="portage://dev&#45;util/hip&#45;5.1.3&#45;r4">
<ellipse fill="none" stroke="red" cx="820" cy="-992" rx="144" ry="18"/>
<text text-anchor="middle" x="820" y="-988.12" font-family="Helvetica,sans-Serif" font-size="10.00">portage://dev&#45;util/hip&#45;5.1.3&#45;r4</text>
</a>
</g>
</g>
<!-- dependency395877&#45;&gt;choice10010111845117116105108471041051124553464946514511452 -->
<g id="edge13" class="edge">
<title>dependency395877:e&#45;&gt;choice10010111845117116105108471041051124553464946514511452:w</title>
<path fill="none" stroke="black" stroke-dasharray="1,5" d="M939,-629C964.12,-629 955.6,-667.59 938,-685.5 913.66,-710.27 647.83,-676.99 626,-704 590.79,-747.55 600.71,-906.04 626,-956 636.39,-976.53 645.02,-988.2 664.04,-991.21"/>
<polygon fill="black" stroke="black" points="673.78,-991.91 663.49,-995.68 670.01,-991.64 663.81,-991.2 663.81,-991.2 663.81,-991.2 670.01,-991.64 664.13,-986.71 673.78,-991.91"/>
</g>
<!-- choice10010111845117116105108471041051124553465146514511451 -->
<g id="node15" class="node">
<title>choice10010111845117116105108471041051124553465146514511451</title>
<g id="a_node15"><a xlink:href="../dev-util/hip-5.3.3-r3.svg" xlink:title="portage://dev&#45;util/hip&#45;5.3.3&#45;r3">
<ellipse fill="none" stroke="red" cx="820" cy="-938" rx="144" ry="18"/>
<text text-anchor="middle" x="820" y="-934.12" font-family="Helvetica,sans-Serif" font-size="10.00">portage://dev&#45;util/hip&#45;5.3.3&#45;r3</text>
</a>
</g>
</g>
<!-- dependency395877&#45;&gt;choice10010111845117116105108471041051124553465146514511451 -->
<g id="edge14" class="edge">
<title>dependency395877:e&#45;&gt;choice10010111845117116105108471041051124553465146514511451:w</title>
<path fill="none" stroke="black" stroke-dasharray="1,5" d="M939,-629C964.12,-629 955.6,-667.59 938,-685.5 913.66,-710.27 647.83,-676.99 626,-704 570.68,-772.43 586.26,-823.49 626,-902 636.39,-922.53 645.02,-934.2 664.04,-937.21"/>
<polygon fill="black" stroke="black" points="673.78,-937.91 663.49,-941.68 670.01,-937.64 663.81,-937.2 663.81,-937.2 663.81,-937.2 670.01,-937.64 664.13,-932.71 673.78,-937.91"/>
</g>
<!-- choice1001011184511711610510847104105112455346524651 -->
<g id="node16" class="node">
<title>choice1001011184511711610510847104105112455346524651</title>
<g id="a_node16"><a xlink:href="../dev-util/hip-5.4.3.svg" xlink:title="portage://dev&#45;util/hip&#45;5.4.3">
<ellipse fill="none" stroke="red" cx="820" cy="-884" rx="144" ry="18"/>
<text text-anchor="middle" x="820" y="-880.12" font-family="Helvetica,sans-Serif" font-size="10.00">portage://dev&#45;util/hip&#45;5.4.3</text>
</a>
</g>
</g>
<!-- dependency395877&#45;&gt;choice1001011184511711610510847104105112455346524651 -->
<g id="edge15" class="edge">
<title>dependency395877:e&#45;&gt;choice1001011184511711610510847104105112455346524651:w</title>
<path fill="none" stroke="black" stroke-dasharray="1,5" d="M939,-629C964.12,-629 955.6,-667.59 938,-685.5 913.66,-710.27 647.83,-676.99 626,-704 576.22,-765.58 590.59,-873.72 664.22,-883.32"/>
<polygon fill="black" stroke="black" points="673.78,-883.92 663.52,-887.78 670.01,-883.68 663.8,-883.29 663.8,-883.29 663.8,-883.29 670.01,-883.68 664.09,-878.8 673.78,-883.92"/>
</g>
<!-- choice1001011184511711610510847104105112455346534649 -->
<g id="node17" class="node">
<title>choice1001011184511711610510847104105112455346534649</title>
<g id="a_node17"><a xlink:href="../dev-util/hip-5.5.1.svg" xlink:title="portage://dev&#45;util/hip&#45;5.5.1">
<ellipse fill="none" stroke="red" cx="820" cy="-830" rx="144" ry="18"/>
<text text-anchor="middle" x="820" y="-826.12" font-family="Helvetica,sans-Serif" font-size="10.00">portage://dev&#45;util/hip&#45;5.5.1</text>
</a>
</g>
</g>
<!-- dependency395877&#45;&gt;choice1001011184511711610510847104105112455346534649 -->
<g id="edge16" class="edge">
<title>dependency395877:e&#45;&gt;choice1001011184511711610510847104105112455346534649:w</title>
<path fill="none" stroke="black" stroke-dasharray="1,5" d="M939,-629C964.12,-629 955.6,-667.59 938,-685.5 913.66,-710.27 647.83,-676.99 626,-704 590.59,-747.81 611.83,-820.22 664.13,-829.1"/>
<polygon fill="black" stroke="black" points="673.79,-829.9 663.45,-833.56 670.02,-829.59 663.82,-829.07 663.82,-829.07 663.82,-829.07 670.02,-829.59 664.19,-824.59 673.79,-829.9"/>
</g>
<!-- choice10010111845117116105108471041051124553465546494511450 -->
<g id="node18" class="node">
<title>choice10010111845117116105108471041051124553465546494511450</title>
<g id="a_node18"><a xlink:href="../dev-util/hip-5.7.1-r2.svg" xlink:title="portage://dev&#45;util/hip&#45;5.7.1&#45;r2">
<ellipse fill="none" stroke="red" cx="820" cy="-776" rx="144" ry="18"/>
<text text-anchor="middle" x="820" y="-772.12" font-family="Helvetica,sans-Serif" font-size="10.00">portage://dev&#45;util/hip&#45;5.7.1&#45;r2</text>
</a>
</g>
</g>
<!-- dependency395877&#45;&gt;choice10010111845117116105108471041051124553465546494511450 -->
<g id="edge17" class="edge">
<title>dependency395877:e&#45;&gt;choice10010111845117116105108471041051124553465546494511450:w</title>
<path fill="none" stroke="black" stroke-dasharray="1,5" d="M939,-629C964.12,-629 955.6,-667.59 938,-685.5 913.66,-710.27 647.83,-676.99 626,-704 603.95,-731.28 630.32,-768.25 664.27,-774.94"/>
<polygon fill="black" stroke="black" points="673.79,-775.88 663.39,-779.38 670.02,-775.51 663.84,-774.9 663.84,-774.9 663.84,-774.9 670.02,-775.51 664.28,-770.42 673.79,-775.88"/>
</g>
<!-- choice1001011184511711610510847104105112455446494649 -->
<g id="node19" class="node">
<title>choice1001011184511711610510847104105112455446494649</title>
<g id="a_node19"><a xlink:href="../dev-util/hip-6.1.1.svg" xlink:title="portage://dev&#45;util/hip&#45;6.1.1">
<ellipse fill="none" stroke="red" cx="820" cy="-722" rx="144" ry="18"/>
<text text-anchor="middle" x="820" y="-718.12" font-family="Helvetica,sans-Serif" font-size="10.00">portage://dev&#45;util/hip&#45;6.1.1</text>
</a>
</g>
</g>
<!-- dependency395877&#45;&gt;choice1001011184511711610510847104105112455446494649 -->
<g id="edge18" class="edge">
<title>dependency395877:e&#45;&gt;choice1001011184511711610510847104105112455446494649:w</title>
<path fill="none" stroke="black" stroke-dasharray="1,5" d="M671.37,-711.45C672.4,-708.7 674.07,-705.96 676,-704 716.96,-662.42 897.83,-727.85 938,-685.5 955.28,-667.28 964.12,-629 939,-629"/>
<polygon fill="black" stroke="black" points="674.6,-720.85 667.09,-712.86 673.37,-717.27 671.34,-711.39 671.34,-711.39 671.34,-711.39 673.37,-717.27 675.6,-709.93 674.6,-720.85"/>
</g>
<!-- choice115991054510810598115471141119980827377455346494651 -->
<g id="node20" class="node">
<title>choice115991054510810598115471141119980827377455346494651</title>
<g id="a_node20"><a xlink:href="../sci-libs/rocPRIM-5.1.3.svg" xlink:title="portage://sci&#45;libs/rocPRIM&#45;5.1.3">
<ellipse fill="none" stroke="red" cx="820" cy="-536" rx="144" ry="18"/>
<text text-anchor="middle" x="820" y="-532.12" font-family="Helvetica,sans-Serif" font-size="10.00">portage://sci&#45;libs/rocPRIM&#45;5.1.3</text>
</a>
</g>
</g>
<!-- dependency395878&#45;&gt;choice115991054510810598115471141119980827377455346494651 -->
<g id="edge19" class="edge">
<title>dependency395878:e&#45;&gt;choice115991054510810598115471141119980827377455346494651:w</title>
<path fill="none" stroke="black" stroke-dasharray="1,5" d="M939,-335C964.12,-335 955.6,-373.59 938,-391.5 913.66,-416.27 647.83,-382.99 626,-410 590.59,-453.81 611.83,-526.22 664.13,-535.1"/>
<polygon fill="black" stroke="black" points="673.79,-535.9 663.45,-539.56 670.02,-535.59 663.82,-535.07 663.82,-535.07 663.82,-535.07 670.02,-535.59 664.19,-530.59 673.79,-535.9"/>
</g>
<!-- choice115991054510810598115471141119980827377455346554649 -->
<g id="node21" class="node">
<title>choice115991054510810598115471141119980827377455346554649</title>
<g id="a_node21"><a xlink:href="../sci-libs/rocPRIM-5.7.1.svg" xlink:title="portage://sci&#45;libs/rocPRIM&#45;5.7.1">
<ellipse fill="none" stroke="red" cx="820" cy="-482" rx="144" ry="18"/>
<text text-anchor="middle" x="820" y="-478.12" font-family="Helvetica,sans-Serif" font-size="10.00">portage://sci&#45;libs/rocPRIM&#45;5.7.1</text>
</a>
</g>
</g>
<!-- dependency395878&#45;&gt;choice115991054510810598115471141119980827377455346554649 -->
<g id="edge20" class="edge">
<title>dependency395878:e&#45;&gt;choice115991054510810598115471141119980827377455346554649:w</title>
<path fill="none" stroke="black" stroke-dasharray="1,5" d="M939,-335C964.12,-335 955.6,-373.59 938,-391.5 913.66,-416.27 647.83,-382.99 626,-410 603.95,-437.28 630.32,-474.25 664.27,-480.94"/>
<polygon fill="black" stroke="black" points="673.79,-481.88 663.39,-485.38 670.02,-481.51 663.84,-480.9 663.84,-480.9 663.84,-480.9 670.02,-481.51 664.28,-476.42 673.79,-481.88"/>
</g>
<!-- choice115991054510810598115471141119980827377455446494649 -->
<g id="node22" class="node">
<title>choice115991054510810598115471141119980827377455446494649</title>
<g id="a_node22"><a xlink:href="../sci-libs/rocPRIM-6.1.1.svg" xlink:title="portage://sci&#45;libs/rocPRIM&#45;6.1.1">
<ellipse fill="none" stroke="red" cx="820" cy="-428" rx="144" ry="18"/>
<text text-anchor="middle" x="820" y="-424.12" font-family="Helvetica,sans-Serif" font-size="10.00">portage://sci&#45;libs/rocPRIM&#45;6.1.1</text>
</a>
</g>
</g>
<!-- dependency395878&#45;&gt;choice115991054510810598115471141119980827377455446494649 -->
<g id="edge21" class="edge">
<title>dependency395878:e&#45;&gt;choice115991054510810598115471141119980827377455446494649:w</title>
<path fill="none" stroke="black" stroke-dasharray="1,5" d="M671.37,-417.45C672.4,-414.7 674.07,-411.96 676,-410 716.96,-368.42 897.83,-433.85 938,-391.5 955.28,-373.28 964.12,-335 939,-335"/>
<polygon fill="black" stroke="black" points="674.6,-426.85 667.09,-418.86 673.37,-423.27 671.34,-417.39 671.34,-417.39 671.34,-417.39 673.37,-423.27 675.6,-415.93 674.6,-426.85"/>
</g>
<!-- dependency395880 -->
<g id="node7" class="node">
<title>dependency395880</title>
<polygon fill="none" stroke="blue" points="710,-1163.5 710,-1268.5 814,-1268.5 814,-1163.5 710,-1163.5"/>
<text text-anchor="start" x="741" y="-1212.12" font-family="Helvetica,sans-Serif" font-size="10.00">pack_dep</text>
<polygon fill="none" stroke="blue" points="814,-1247.5 814,-1268.5 924,-1268.5 924,-1247.5 814,-1247.5"/>
<text text-anchor="start" x="863.75" y="-1254" font-family="Helvetica,sans-Serif" font-size="10.00">no</text>
<polygon fill="none" stroke="blue" points="814,-1226.5 814,-1247.5 924,-1247.5 924,-1226.5 814,-1226.5"/>
<text text-anchor="start" x="851.75" y="-1233" font-family="Helvetica,sans-Serif" font-size="10.00">dev&#45;cpp</text>
<polygon fill="none" stroke="blue" points="814,-1205.5 814,-1226.5 924,-1226.5 924,-1205.5 814,-1205.5"/>
<text text-anchor="start" x="858.12" y="-1212" font-family="Helvetica,sans-Serif" font-size="10.00">gtest</text>
<polygon fill="none" stroke="blue" points="814,-1184.5 814,-1205.5 924,-1205.5 924,-1184.5 814,-1184.5"/>
<text text-anchor="start" x="858.5" y="-1191" font-family="Helvetica,sans-Serif" font-size="10.00">none</text>
<polygon fill="none" stroke="blue" points="814,-1163.5 814,-1184.5 924,-1184.5 924,-1163.5 814,-1163.5"/>
<text text-anchor="start" x="863" y="-1170" font-family="Helvetica,sans-Serif" font-size="10.00">[,,]</text>
</g>
<!-- dependency395879&#45;&gt;dependency395880 -->
<g id="edge5" class="edge">
<title>dependency395879:e&#45;&gt;dependency395880:w</title>
<path fill="none" stroke="black" stroke-dasharray="5,2" d="M569,-1178C626.11,-1178 638.46,-1211.26 689.81,-1215.55"/>
<polygon fill="black" stroke="black" points="699.78,-1215.95 689.61,-1220.04 696,-1215.8 689.79,-1215.55 689.79,-1215.55 689.79,-1215.55 696,-1215.8 689.97,-1211.05 699.78,-1215.95"/>
</g>
<!-- dependency395880&#45;&gt;choice10010111845991121124710311610111511645494649514648 -->
<g id="edge22" class="edge">
<title>dependency395880:e&#45;&gt;choice10010111845991121124710311610111511645494649514648:w</title>
<path fill="none" stroke="black" stroke-dasharray="1,5" d="M671.37,-1298.45C672.4,-1295.7 674.07,-1292.96 676,-1291 716.96,-1249.42 897.83,-1314.85 938,-1272.5 955.28,-1254.28 964.12,-1216 939,-1216"/>
<polygon fill="black" stroke="black" points="674.6,-1307.85 667.09,-1299.86 673.37,-1304.27 671.34,-1298.39 671.34,-1298.39 671.34,-1298.39 673.37,-1304.27 675.6,-1296.93 674.6,-1307.85"/>
</g>
<!-- dependency395880&#45;&gt;choice10010111845991121124710311610111511645494649524648 -->
<g id="edge23" class="edge">
<title>dependency395880:e&#45;&gt;choice10010111845991121124710311610111511645494649524648:w</title>
<path fill="none" stroke="black" stroke-dasharray="1,5" d="M939,-1216C964.12,-1216 955.6,-1254.59 938,-1272.5 913.66,-1297.27 647.83,-1263.99 626,-1291 576.22,-1352.58 590.59,-1460.72 664.22,-1470.32"/>
<polygon fill="black" stroke="black" points="673.78,-1470.92 663.52,-1474.78 670.01,-1470.68 663.8,-1470.29 663.8,-1470.29 663.8,-1470.29 670.01,-1470.68 664.09,-1465.8 673.78,-1470.92"/>
</g>
<!-- dependency395880&#45;&gt;choice100101118459911211247103116101115116454946495246484511449 -->
<g id="edge24" class="edge">
<title>dependency395880:e&#45;&gt;choice100101118459911211247103116101115116454946495246484511449:w</title>
<path fill="none" stroke="black" stroke-dasharray="1,5" d="M939,-1216C964.12,-1216 955.6,-1254.59 938,-1272.5 913.66,-1297.27 647.83,-1263.99 626,-1291 590.59,-1334.81 611.83,-1407.22 664.13,-1416.1"/>
<polygon fill="black" stroke="black" points="673.79,-1416.9 663.45,-1420.56 670.02,-1416.59 663.82,-1416.07 663.82,-1416.07 663.82,-1416.07 670.02,-1416.59 664.19,-1411.59 673.79,-1416.9"/>
</g>
<!-- dependency395880&#45;&gt;choice1001011184599112112471031161011151164557575757 -->
<g id="edge25" class="edge">
<title>dependency395880:e&#45;&gt;choice1001011184599112112471031161011151164557575757:w</title>
<path fill="none" stroke="black" stroke-dasharray="1,5" d="M939,-1216C964.12,-1216 955.6,-1254.59 938,-1272.5 913.66,-1297.27 647.83,-1263.99 626,-1291 603.95,-1318.28 630.32,-1355.25 664.27,-1361.94"/>
<polygon fill="black" stroke="black" points="673.79,-1362.88 663.39,-1366.38 670.02,-1362.51 663.84,-1361.9 663.84,-1361.9 663.84,-1361.9 670.02,-1362.51 664.28,-1357.42 673.79,-1362.88"/>
</g>
<!-- dependency395881&#45;&gt;choice10010111845117116105108471041051124553464946514511452 -->
<g id="edge26" class="edge">
<title>dependency395881:e&#45;&gt;choice10010111845117116105108471041051124553464946514511452:w</title>
<path fill="none" stroke="black" stroke-dasharray="1,5" d="M939,-204C964.12,-204 955.6,-242.59 938,-260.5 913.66,-285.27 647.83,-251.99 626,-279 578.71,-337.5 592.03,-888.89 626,-956 636.39,-976.53 645.02,-988.2 664.04,-991.21"/>
<polygon fill="black" stroke="black" points="673.78,-991.91 663.49,-995.68 670.01,-991.64 663.81,-991.2 663.81,-991.2 663.81,-991.2 670.01,-991.64 664.13,-986.71 673.78,-991.91"/>
</g>
<!-- dependency395881&#45;&gt;choice10010111845117116105108471041051124553465146514511451 -->
<g id="edge27" class="edge">
<title>dependency395881:e&#45;&gt;choice10010111845117116105108471041051124553465146514511451:w</title>
<path fill="none" stroke="black" stroke-dasharray="1,5" d="M939,-204C964.12,-204 955.6,-242.59 938,-260.5 913.66,-285.27 647.83,-251.99 626,-279 582.48,-332.83 594.74,-840.24 626,-902 636.39,-922.53 645.02,-934.2 664.04,-937.21"/>
<polygon fill="black" stroke="black" points="673.78,-937.91 663.49,-941.68 670.01,-937.64 663.81,-937.2 663.81,-937.2 663.81,-937.2 670.01,-937.64 664.13,-932.71 673.78,-937.91"/>
</g>
<!-- dependency395881&#45;&gt;choice1001011184511711610510847104105112455346524651 -->
<g id="edge28" class="edge">
<title>dependency395881:e&#45;&gt;choice1001011184511711610510847104105112455346524651:w</title>
<path fill="none" stroke="black" stroke-dasharray="1,5" d="M939,-204C964.12,-204 955.6,-242.59 938,-260.5 913.66,-285.27 647.83,-251.99 626,-279 586.25,-328.17 597.45,-791.59 626,-848 636.39,-868.53 645.02,-880.2 664.04,-883.21"/>
<polygon fill="black" stroke="black" points="673.78,-883.91 663.49,-887.68 670.01,-883.64 663.81,-883.2 663.81,-883.2 663.81,-883.2 670.01,-883.64 664.13,-878.71 673.78,-883.91"/>
</g>
<!-- dependency395881&#45;&gt;choice1001011184511711610510847104105112455346534649 -->
<g id="edge29" class="edge">
<title>dependency395881:e&#45;&gt;choice1001011184511711610510847104105112455346534649:w</title>
<path fill="none" stroke="black" stroke-dasharray="1,5" d="M939,-204C964.12,-204 955.6,-242.59 938,-260.5 913.66,-285.27 647.83,-251.99 626,-279 590.03,-323.5 600.16,-742.95 626,-794 636.39,-814.53 645.02,-826.2 664.04,-829.21"/>
<polygon fill="black" stroke="black" points="673.78,-829.91 663.49,-833.68 670.01,-829.64 663.81,-829.2 663.81,-829.2 663.81,-829.2 670.01,-829.64 664.13,-824.71 673.78,-829.91"/>
</g>
<!-- dependency395881&#45;&gt;choice10010111845117116105108471041051124553465546494511450 -->
<g id="edge30" class="edge">
<title>dependency395881:e&#45;&gt;choice10010111845117116105108471041051124553465546494511450:w</title>
<path fill="none" stroke="black" stroke-dasharray="1,5" d="M939,-204C964.12,-204 955.6,-242.59 938,-260.5 913.66,-285.27 647.83,-251.99 626,-279 561.6,-358.67 579.73,-648.6 626,-740 636.39,-760.53 645.02,-772.2 664.04,-775.21"/>
<polygon fill="black" stroke="black" points="673.78,-775.91 663.49,-779.68 670.01,-775.64 663.81,-775.2 663.81,-775.2 663.81,-775.2 670.01,-775.64 664.13,-770.71 673.78,-775.91"/>
</g>
<!-- dependency395881&#45;&gt;choice1001011184511711610510847104105112455446494649 -->
<g id="edge31" class="edge">
<title>dependency395881:e&#45;&gt;choice1001011184511711610510847104105112455446494649:w</title>
<path fill="none" stroke="black" stroke-dasharray="1,5" d="M939,-204C964.12,-204 955.6,-242.59 938,-260.5 913.66,-285.27 647.83,-251.99 626,-279 569.14,-349.34 585.15,-605.3 626,-686 636.39,-706.53 645.02,-718.2 664.04,-721.21"/>
<polygon fill="black" stroke="black" points="673.78,-721.91 663.49,-725.68 670.01,-721.64 663.81,-721.2 663.81,-721.2 663.81,-721.2 670.01,-721.64 664.13,-716.71 673.78,-721.91"/>
</g>
<!-- dependency395882&#45;&gt;choice115991054510810598115471141119980827377455346494651 -->
<g id="edge32" class="edge">
<title>dependency395882:e&#45;&gt;choice115991054510810598115471141119980827377455346494651:w</title>
<path fill="none" stroke="black" stroke-dasharray="1,5" d="M939,-73C964.12,-73 955.6,-111.59 938,-129.5 913.66,-154.27 647.83,-120.99 626,-148 576.82,-208.83 590.67,-430.21 626,-500 636.39,-520.53 645.02,-532.2 664.04,-535.21"/>
<polygon fill="black" stroke="black" points="673.78,-535.91 663.49,-539.68 670.01,-535.64 663.81,-535.2 663.81,-535.2 663.81,-535.2 670.01,-535.64 664.13,-530.71 673.78,-535.91"/>
</g>
<!-- dependency395882&#45;&gt;choice115991054510810598115471141119980827377455346554649 -->
<g id="edge33" class="edge">
<title>dependency395882:e&#45;&gt;choice115991054510810598115471141119980827377455346554649:w</title>
<path fill="none" stroke="black" stroke-dasharray="1,5" d="M939,-73C964.12,-73 955.6,-111.59 938,-129.5 913.66,-154.27 647.83,-120.99 626,-148 584.37,-199.5 596.09,-386.92 626,-446 636.39,-466.53 645.02,-478.2 664.04,-481.21"/>
<polygon fill="black" stroke="black" points="673.78,-481.91 663.49,-485.68 670.01,-481.64 663.81,-481.2 663.81,-481.2 663.81,-481.2 670.01,-481.64 664.13,-476.71 673.78,-481.91"/>
</g>
<!-- dependency395882&#45;&gt;choice115991054510810598115471141119980827377455446494649 -->
<g id="edge34" class="edge">
<title>dependency395882:e&#45;&gt;choice115991054510810598115471141119980827377455446494649:w</title>
<path fill="none" stroke="black" stroke-dasharray="1,5" d="M939,-73C964.12,-73 955.6,-111.59 938,-129.5 913.66,-154.27 647.83,-120.99 626,-148 591.91,-190.17 601.51,-343.62 626,-392 636.39,-412.53 645.02,-424.2 664.04,-427.21"/>
<polygon fill="black" stroke="black" points="673.78,-427.91 663.49,-431.68 670.01,-427.64 663.81,-427.2 663.81,-427.2 663.81,-427.2 670.01,-427.64 664.13,-422.71 673.78,-427.91"/>
</g>
</g>
</svg>
