<?xml version="1.0" encoding="UTF-8" standalone="no"?>
<!DOCTYPE svg PUBLIC "-//W3C//DTD SVG 1.1//EN"
 "http://www.w3.org/Graphics/SVG/1.1/DTD/svg11.dtd">
<!-- Generated by graphviz version 2.41.20171026.1811 (20171026.1811)
 -->
<!-- Title: prolog Pages: 1 -->
<svg width="1326pt" height="562pt"
 viewBox="0.00 0.00 1326.00 562.00" xmlns="http://www.w3.org/2000/svg" xmlns:xlink="http://www.w3.org/1999/xlink">
<g id="graph0" class="graph" transform="scale(1 1) rotate(0) translate(4 558)">
<title>prolog</title>
<polygon fill="white" stroke="transparent" points="-4,4 -4,-558 1322,-558 1322,4 -4,4"/>
<g id="clust1" class="cluster">
<title>cluster_leftcol</title>
<polygon fill="none" stroke="gray" points="8,-308 8,-378 312,-378 312,-308 8,-308"/>
<text text-anchor="start" x="146.66" y="-367" font-family="Helvetica,sans-Serif" font-style="italic" font-size="10.00">ebuild</text>
</g>
<g id="clust2" class="cluster">
<title>cluster_midcol</title>
<polygon fill="none" stroke="gray" points="396,-8 396,-546 922,-546 922,-8 396,-8"/>
<text text-anchor="start" x="627.86" y="-535" font-family="Helvetica,sans-Serif" font-style="italic" font-size="10.00">dependencies</text>
</g>
<g id="clust4" class="cluster">
<title>cluster_compileandrun</title>
<polygon fill="#eeeeee" stroke="gray" points="662,-388 662,-520 914,-520 914,-388 662,-388"/>
<text text-anchor="start" x="752.42" y="-509" font-family="Helvetica,sans-Serif" font-style="italic" font-size="10.00">compile and run</text>
</g>
<g id="clust6" class="cluster">
<title>cluster_run</title>
<polygon fill="#eeeeee" stroke="gray" points="404,-16 404,-380 914,-380 914,-16 404,-16"/>
<text text-anchor="start" x="651.77" y="-369" font-family="Helvetica,sans-Serif" font-style="italic" font-size="10.00">run</text>
</g>
<g id="clust11" class="cluster">
<title>cluster_choices</title>
<polygon fill="none" stroke="gray" points="1006,-47 1006,-489 1310,-489 1310,-47 1006,-47"/>
<text text-anchor="start" x="1133.82" y="-478" font-family="Helvetica,sans-Serif" font-style="italic" font-size="10.00">candidates</text>
</g>
<!-- id -->
<g id="node1" class="node">
<title>id</title>
<g id="a_node1"><a xlink:href="../media-video/dv2sub-0.3.svg" xlink:title="media&#45;video/dv2sub&#45;0.3">
<ellipse fill="none" stroke="red" cx="160" cy="-334" rx="144" ry="18"/>
<text text-anchor="middle" x="160" y="-331" font-family="Helvetica,sans-Serif" font-size="10.00">media&#45;video/dv2sub&#45;0.3</text>
</a>
</g>
</g>
<!-- dependency390297 -->
<g id="node2" class="node">
<title>dependency390297</title>
<polygon fill="none" stroke="blue" points="678,-400 678,-490 783,-490 783,-400 678,-400"/>
<text text-anchor="start" x="708.82" y="-442" font-family="Helvetica,sans-Serif" font-size="10.00">pack_dep</text>
<polygon fill="none" stroke="blue" points="783,-470 783,-490 893,-490 893,-470 783,-470"/>
<text text-anchor="start" x="832.44" y="-477" font-family="Helvetica,sans-Serif" font-size="10.00">no</text>
<polygon fill="none" stroke="blue" points="783,-450 783,-470 893,-470 893,-450 783,-450"/>
<text text-anchor="start" x="815.21" y="-457" font-family="Helvetica,sans-Serif" font-size="10.00">media&#45;libs</text>
<polygon fill="none" stroke="blue" points="783,-430 783,-450 893,-450 893,-430 783,-430"/>
<text text-anchor="start" x="827.72" y="-437" font-family="Helvetica,sans-Serif" font-size="10.00">libdv</text>
<polygon fill="none" stroke="blue" points="783,-410 783,-430 893,-430 893,-410 783,-410"/>
<text text-anchor="start" x="826.88" y="-417" font-family="Helvetica,sans-Serif" font-size="10.00">none</text>
<polygon fill="none" stroke="blue" points="783,-400 783,-410 893,-410 893,-400 783,-400"/>
</g>
<!-- id&#45;&gt;dependency390297 -->
<g id="edge1" class="edge">
<title>id:e&#45;&gt;dependency390297:w</title>
<path fill="none" stroke="black" d="M305,-334C351.15,-334 352.83,-367.69 396,-384 506.4,-425.7 541.17,-443.2 650.75,-444.87"/>
<ellipse fill="none" stroke="black" cx="665" cy="-444.97" rx="4" ry="4"/>
<polygon fill="black" stroke="black" points="661,-444.94 650.97,-449.37 656,-444.9 651,-444.87 651,-444.87 651,-444.87 656,-444.9 651.03,-440.37 661,-444.94 661,-444.94"/>
</g>
<!-- dependency390298 -->
<g id="node3" class="node">
<title>dependency390298</title>
<polygon fill="none" stroke="red" points="420,-227 420,-267 511,-267 511,-227 420,-227"/>
<text text-anchor="start" x="430.75" y="-244" font-family="Helvetica,sans-Serif" font-size="10.00">use_conditional</text>
<polygon fill="none" stroke="red" points="511,-247 511,-267 554,-267 554,-247 511,-247"/>
<text text-anchor="start" x="515.55" y="-254" font-family="Helvetica,sans-Serif" font-size="10.00">positive</text>
<polygon fill="none" stroke="red" points="511,-227 511,-247 554,-247 554,-227 511,-227"/>
<text text-anchor="start" x="523.33" y="-234" font-family="Helvetica,sans-Serif" font-size="10.00">kino</text>
</g>
<!-- id&#45;&gt;dependency390298 -->
<g id="edge5" class="edge">
<title>id:e&#45;&gt;dependency390298:w</title>
<path fill="none" stroke="black" d="M305,-334C363.09,-334 351.37,-254.97 402.92,-247.56"/>
<ellipse fill="none" stroke="black" cx="407.01" cy="-247.27" rx="4" ry="4"/>
</g>
<!-- choice10910110010597451081059811547108105981001184549464846484511450 -->
<g id="node7" class="node">
<title>choice10910110010597451081059811547108105981001184549464846484511450</title>
<g id="a_node7"><a xlink:href="../media-libs/libdv-1.0.0-r2.svg" xlink:title="media&#45;libs/libdv&#45;1.0.0&#45;r2">
<ellipse fill="none" stroke="red" cx="1158" cy="-391" rx="144" ry="18"/>
<text text-anchor="middle" x="1158" y="-388" font-family="Helvetica,sans-Serif" font-size="10.00">media&#45;libs/libdv&#45;1.0.0&#45;r2</text>
</a>
</g>
</g>
<!-- dependency390297&#45;&gt;choice10910110010597451081059811547108105981001184549464846484511450 -->
<g id="edge6" class="edge">
<title>dependency390297:e&#45;&gt;choice10910110010597451081059811547108105981001184549464846484511450:w</title>
<path fill="none" stroke="black" stroke-dasharray="1,5" d="M907,-445C956.26,-445 959.85,-398.13 1002.86,-391.72"/>
<polygon fill="black" stroke="black" points="1013,-391 1003.35,-396.2 1008.01,-391.36 1003.03,-391.71 1003.03,-391.71 1003.03,-391.71 1008.01,-391.36 1002.71,-387.22 1013,-391 1013,-391"/>
</g>
<!-- choice10910110010597451081059811547108105981001184549464846484511451 -->
<g id="node8" class="node">
<title>choice10910110010597451081059811547108105981001184549464846484511451</title>
<g id="a_node8"><a xlink:href="../media-libs/libdv-1.0.0-r3.svg" xlink:title="media&#45;libs/libdv&#45;1.0.0&#45;r3">
<ellipse fill="none" stroke="red" cx="1158" cy="-445" rx="144" ry="18"/>
<text text-anchor="middle" x="1158" y="-442" font-family="Helvetica,sans-Serif" font-size="10.00">media&#45;libs/libdv&#45;1.0.0&#45;r3</text>
</a>
</g>
</g>
<!-- dependency390297&#45;&gt;choice10910110010597451081059811547108105981001184549464846484511451 -->
<g id="edge7" class="edge">
<title>dependency390297:e&#45;&gt;choice10910110010597451081059811547108105981001184549464846484511451:w</title>
<path fill="none" stroke="black" stroke-dasharray="1,5" d="M907,-445C950.43,-445 963.83,-445 1002.57,-445"/>
<polygon fill="black" stroke="black" points="1013,-445 1003,-449.5 1008,-445 1003,-445 1003,-445 1003,-445 1008,-445 1003,-440.5 1013,-445 1013,-445"/>
</g>
<!-- dependency390299 -->
<g id="node4" class="node">
<title>dependency390299</title>
<polygon fill="none" stroke="blue" points="678,-28 678,-118 783,-118 783,-28 678,-28"/>
<text text-anchor="start" x="708.82" y="-70" font-family="Helvetica,sans-Serif" font-size="10.00">pack_dep</text>
<polygon fill="none" stroke="blue" points="783,-98 783,-118 893,-118 893,-98 783,-98"/>
<text text-anchor="start" x="832.44" y="-105" font-family="Helvetica,sans-Serif" font-size="10.00">no</text>
<polygon fill="none" stroke="blue" points="783,-78 783,-98 893,-98 893,-78 783,-78"/>
<text text-anchor="start" x="810.76" y="-85" font-family="Helvetica,sans-Serif" font-size="10.00">media&#45;video</text>
<polygon fill="none" stroke="blue" points="783,-58 783,-78 893,-78 893,-58 783,-58"/>
<text text-anchor="start" x="828.83" y="-65" font-family="Helvetica,sans-Serif" font-size="10.00">kino</text>
<polygon fill="none" stroke="blue" points="783,-38 783,-58 893,-58 893,-38 783,-38"/>
<text text-anchor="start" x="826.88" y="-45" font-family="Helvetica,sans-Serif" font-size="10.00">none</text>
<polygon fill="none" stroke="blue" points="783,-28 783,-38 893,-38 893,-28 783,-28"/>
</g>
<!-- dependency390298&#45;&gt;dependency390299 -->
<g id="edge2" class="edge">
<title>dependency390298:e&#45;&gt;dependency390299:w</title>
<path fill="none" stroke="black" stroke-dasharray="5,2" d="M562,-247C649.06,-247 584.05,-86.98 658.64,-73.85"/>
<polygon fill="black" stroke="black" points="669,-73 659.4,-78.31 664.02,-73.41 659.03,-73.82 659.03,-73.82 659.03,-73.82 664.02,-73.41 658.66,-69.34 669,-73 669,-73"/>
</g>
<!-- dependency390300 -->
<g id="node5" class="node">
<title>dependency390300</title>
<polygon fill="none" stroke="blue" points="678,-144 678,-234 783,-234 783,-144 678,-144"/>
<text text-anchor="start" x="708.82" y="-186" font-family="Helvetica,sans-Serif" font-size="10.00">pack_dep</text>
<polygon fill="none" stroke="blue" points="783,-214 783,-234 893,-234 893,-214 783,-214"/>
<text text-anchor="start" x="832.44" y="-221" font-family="Helvetica,sans-Serif" font-size="10.00">no</text>
<polygon fill="none" stroke="blue" points="783,-194 783,-214 893,-214 893,-194 783,-194"/>
<text text-anchor="start" x="810.76" y="-201" font-family="Helvetica,sans-Serif" font-size="10.00">media&#45;video</text>
<polygon fill="none" stroke="blue" points="783,-174 783,-194 893,-194 893,-174 783,-174"/>
<text text-anchor="start" x="815.76" y="-181" font-family="Helvetica,sans-Serif" font-size="10.00">dvdauthor</text>
<polygon fill="none" stroke="blue" points="783,-154 783,-174 893,-174 893,-154 783,-154"/>
<text text-anchor="start" x="826.88" y="-161" font-family="Helvetica,sans-Serif" font-size="10.00">none</text>
<polygon fill="none" stroke="blue" points="783,-144 783,-154 893,-154 893,-144 783,-144"/>
</g>
<!-- dependency390298&#45;&gt;dependency390300 -->
<g id="edge3" class="edge">
<title>dependency390298:e&#45;&gt;dependency390300:w</title>
<path fill="none" stroke="black" stroke-dasharray="5,2" d="M562,-247C612.5,-247 614.82,-196.45 658.92,-189.73"/>
<polygon fill="black" stroke="black" points="669,-189 659.35,-194.21 664.01,-189.36 659.03,-189.73 659.03,-189.73 659.03,-189.73 664.01,-189.36 658.7,-185.24 669,-189 669,-189"/>
</g>
<!-- dependency390301 -->
<g id="node6" class="node">
<title>dependency390301</title>
<polygon fill="none" stroke="blue" points="678,-260 678,-350 783,-350 783,-260 678,-260"/>
<text text-anchor="start" x="708.82" y="-302" font-family="Helvetica,sans-Serif" font-size="10.00">pack_dep</text>
<polygon fill="none" stroke="blue" points="783,-330 783,-350 893,-350 893,-330 783,-330"/>
<text text-anchor="start" x="832.44" y="-337" font-family="Helvetica,sans-Serif" font-size="10.00">no</text>
<polygon fill="none" stroke="blue" points="783,-310 783,-330 893,-330 893,-310 783,-310"/>
<text text-anchor="start" x="824.66" y="-317" font-family="Helvetica,sans-Serif" font-size="10.00">virtual</text>
<polygon fill="none" stroke="blue" points="783,-290 783,-310 893,-310 893,-290 783,-290"/>
<text text-anchor="start" x="822.8" y="-297" font-family="Helvetica,sans-Serif" font-size="10.00">ffmpeg</text>
<polygon fill="none" stroke="blue" points="783,-270 783,-290 893,-290 893,-270 783,-270"/>
<text text-anchor="start" x="826.88" y="-277" font-family="Helvetica,sans-Serif" font-size="10.00">none</text>
<polygon fill="none" stroke="blue" points="783,-260 783,-270 893,-270 893,-260 783,-260"/>
</g>
<!-- dependency390298&#45;&gt;dependency390301 -->
<g id="edge4" class="edge">
<title>dependency390298:e&#45;&gt;dependency390301:w</title>
<path fill="none" stroke="black" stroke-dasharray="5,2" d="M562,-247C612.5,-247 614.82,-297.55 658.92,-304.27"/>
<polygon fill="black" stroke="black" points="669,-305 658.7,-308.76 664.01,-304.64 659.03,-304.27 659.03,-304.27 659.03,-304.27 664.01,-304.64 659.35,-299.79 669,-305 669,-305"/>
</g>
<!-- choice109101100105974511810510010111147107105110111454946514652 -->
<g id="node9" class="node">
<title>choice109101100105974511810510010111147107105110111454946514652</title>
<g id="a_node9"><a xlink:href="../media-video/kino-1.3.4.svg" xlink:title="media&#45;video/kino&#45;1.3.4">
<ellipse fill="none" stroke="red" cx="1158" cy="-127" rx="144" ry="18"/>
<text text-anchor="middle" x="1158" y="-124" font-family="Helvetica,sans-Serif" font-size="10.00">media&#45;video/kino&#45;1.3.4</text>
</a>
</g>
</g>
<!-- dependency390299&#45;&gt;choice109101100105974511810510010111147107105110111454946514652 -->
<g id="edge8" class="edge">
<title>dependency390299:e&#45;&gt;choice109101100105974511810510010111147107105110111454946514652:w</title>
<path fill="none" stroke="black" stroke-dasharray="1,5" d="M907,-73C956.26,-73 959.85,-119.87 1002.86,-126.28"/>
<polygon fill="black" stroke="black" points="1013,-127 1002.71,-130.78 1008.01,-126.64 1003.03,-126.29 1003.03,-126.29 1003.03,-126.29 1008.01,-126.64 1003.35,-121.8 1013,-127 1013,-127"/>
</g>
<!-- choice1091011001059745118105100101111471071051101114549465146524511449 -->
<g id="node10" class="node">
<title>choice1091011001059745118105100101111471071051101114549465146524511449</title>
<g id="a_node10"><a xlink:href="../media-video/kino-1.3.4-r1.svg" xlink:title="media&#45;video/kino&#45;1.3.4&#45;r1">
<ellipse fill="none" stroke="red" cx="1158" cy="-73" rx="144" ry="18"/>
<text text-anchor="middle" x="1158" y="-70" font-family="Helvetica,sans-Serif" font-size="10.00">media&#45;video/kino&#45;1.3.4&#45;r1</text>
</a>
</g>
</g>
<!-- dependency390299&#45;&gt;choice1091011001059745118105100101111471071051101114549465146524511449 -->
<g id="edge9" class="edge">
<title>dependency390299:e&#45;&gt;choice1091011001059745118105100101111471071051101114549465146524511449:w</title>
<path fill="none" stroke="black" stroke-dasharray="1,5" d="M907,-73C950.43,-73 963.83,-73 1002.57,-73"/>
<polygon fill="black" stroke="black" points="1013,-73 1003,-77.5 1008,-73 1003,-73 1003,-73 1003,-73 1008,-73 1003,-68.5 1013,-73 1013,-73"/>
</g>
<!-- choice109101100105974511810510010111147100118100971171161041111144548465546494511449 -->
<g id="node11" class="node">
<title>choice109101100105974511810510010111147100118100971171161041111144548465546494511449</title>
<g id="a_node11"><a xlink:href="../media-video/dvdauthor-0.7.1-r1.svg" xlink:title="media&#45;video/dvdauthor&#45;0.7.1&#45;r1">
<ellipse fill="none" stroke="red" cx="1158" cy="-239" rx="144" ry="18"/>
<text text-anchor="middle" x="1158" y="-236" font-family="Helvetica,sans-Serif" font-size="10.00">media&#45;video/dvdauthor&#45;0.7.1&#45;r1</text>
</a>
</g>
</g>
<!-- dependency390300&#45;&gt;choice109101100105974511810510010111147100118100971171161041111144548465546494511449 -->
<g id="edge10" class="edge">
<title>dependency390300:e&#45;&gt;choice109101100105974511810510010111147100118100971171161041111144548465546494511449:w</title>
<path fill="none" stroke="black" stroke-dasharray="1,5" d="M907,-189C955.53,-189 960.43,-232.4 1002.99,-238.33"/>
<polygon fill="black" stroke="black" points="1013,-239 1002.72,-242.82 1008.01,-238.67 1003.02,-238.33 1003.02,-238.33 1003.02,-238.33 1008.01,-238.67 1003.32,-233.84 1013,-239 1013,-239"/>
</g>
<!-- choice109101100105974511810510010111147100118100971171161041111144548465546504511449 -->
<g id="node12" class="node">
<title>choice109101100105974511810510010111147100118100971171161041111144548465546504511449</title>
<g id="a_node12"><a xlink:href="../media-video/dvdauthor-0.7.2-r1.svg" xlink:title="media&#45;video/dvdauthor&#45;0.7.2&#45;r1">
<ellipse fill="none" stroke="red" cx="1158" cy="-185" rx="144" ry="18"/>
<text text-anchor="middle" x="1158" y="-182" font-family="Helvetica,sans-Serif" font-size="10.00">media&#45;video/dvdauthor&#45;0.7.2&#45;r1</text>
</a>
</g>
</g>
<!-- dependency390300&#45;&gt;choice109101100105974511810510010111147100118100971171161041111144548465546504511449 -->
<g id="edge11" class="edge">
<title>dependency390300:e&#45;&gt;choice109101100105974511810510010111147100118100971171161041111144548465546504511449:w</title>
<path fill="none" stroke="black" stroke-dasharray="1,5" d="M907,-189C950.46,-189 963.81,-185.6 1002.57,-185.07"/>
<polygon fill="black" stroke="black" points="1013,-185 1003.03,-189.57 1008,-185.03 1003,-185.07 1003,-185.07 1003,-185.07 1008,-185.03 1002.97,-180.57 1013,-185 1013,-185"/>
</g>
<!-- choice118105114116117971084710210210911210110345574511450 -->
<g id="node13" class="node">
<title>choice118105114116117971084710210210911210110345574511450</title>
<g id="a_node13"><a xlink:href="../virtual/ffmpeg-9-r2.svg" xlink:title="virtual/ffmpeg&#45;9&#45;r2">
<ellipse fill="none" stroke="red" cx="1158" cy="-305" rx="144" ry="18"/>
<text text-anchor="middle" x="1158" y="-302" font-family="Helvetica,sans-Serif" font-size="10.00">virtual/ffmpeg&#45;9&#45;r2</text>
</a>
</g>
</g>
<!-- dependency390301&#45;&gt;choice118105114116117971084710210210911210110345574511450 -->
<g id="edge12" class="edge">
<title>dependency390301:e&#45;&gt;choice118105114116117971084710210210911210110345574511450:w</title>
<path fill="none" stroke="black" stroke-dasharray="1,5" d="M907,-305C950.43,-305 963.83,-305 1002.57,-305"/>
<polygon fill="black" stroke="black" points="1013,-305 1003,-309.5 1008,-305 1003,-305 1003,-305 1003,-305 1008,-305 1003,-300.5 1013,-305 1013,-305"/>
</g>
</g>
</svg>
