<?xml version="1.0" encoding="UTF-8" standalone="no"?>
<!DOCTYPE svg PUBLIC "-//W3C//DTD SVG 1.1//EN"
 "http://www.w3.org/Graphics/SVG/1.1/DTD/svg11.dtd">
<!-- Generated by graphviz version 2.44.1 (20200629.0846)
 -->
<!-- Title: prolog Pages: 1 -->
<svg width="1335pt" height="1812pt"
 viewBox="0.00 0.00 1335.00 1812.00" xmlns="http://www.w3.org/2000/svg" xmlns:xlink="http://www.w3.org/1999/xlink">
<g id="graph0" class="graph" transform="scale(1 1) rotate(0) translate(4 1808)">
<title>prolog</title>
<polygon fill="white" stroke="transparent" points="-4,4 -4,-1808 1331,-1808 1331,4 -4,4"/>
<g id="clust1" class="cluster">
<title>cluster_leftcol</title>
<polygon fill="none" stroke="gray" points="8,-746 8,-818 312,-818 312,-746 8,-746"/>
<text text-anchor="start" x="146.66" y="-806" font-family="Helvetica,sans-Serif" font-style="italic" font-size="10.00">ebuild</text>
</g>
<g id="clust2" class="cluster">
<title>cluster_midcol</title>
<polygon fill="none" stroke="gray" points="396,-8 396,-1796 931,-1796 931,-8 396,-8"/>
<text text-anchor="start" x="632.38" y="-1784" font-family="Helvetica,sans-Serif" font-style="italic" font-size="10.00">dependencies</text>
</g>
<g id="clust3" class="cluster">
<title>cluster_compile</title>
<polygon fill="#eeeeee" stroke="gray" points="404,-834 404,-1768 923,-1768 923,-834 404,-834"/>
<text text-anchor="start" x="646.28" y="-1756" font-family="Helvetica,sans-Serif" font-style="italic" font-size="10.00">compile</text>
</g>
<g id="clust14" class="cluster">
<title>cluster_run</title>
<polygon fill="#eeeeee" stroke="gray" points="404,-16 404,-826 923,-826 923,-16 404,-16"/>
<text text-anchor="start" x="656.28" y="-814" font-family="Helvetica,sans-Serif" font-style="italic" font-size="10.00">run</text>
</g>
<g id="clust23" class="cluster">
<title>cluster_choices</title>
<polygon fill="none" stroke="gray" points="1015,-713 1015,-1733 1319,-1733 1319,-713 1015,-713"/>
<text text-anchor="start" x="1142.82" y="-1721" font-family="Helvetica,sans-Serif" font-style="italic" font-size="10.00">candidates</text>
</g>
<!-- id -->
<g id="node1" class="node">
<title>id</title>
<g id="a_node1"><a xlink:href="../media-video/dvgrab-3.5-r1.svg" xlink:title="portage://media&#45;video/dvgrab&#45;3.5&#45;r1">
<ellipse fill="none" stroke="red" cx="160" cy="-772" rx="144" ry="18"/>
<text text-anchor="middle" x="160" y="-769" font-family="Helvetica,sans-Serif" font-size="10.00">portage://media&#45;video/dvgrab&#45;3.5&#45;r1</text>
</a>
</g>
</g>
<!-- dependency180643 -->
<g id="node2" class="node">
<title>dependency180643</title>
<polygon fill="none" stroke="red" points="424.5,-1131 424.5,-1175 515.5,-1175 515.5,-1131 424.5,-1131"/>
<text text-anchor="start" x="435.27" y="-1150" font-family="Helvetica,sans-Serif" font-size="10.00">use_conditional</text>
<polygon fill="none" stroke="red" points="515.5,-1153 515.5,-1175 558.5,-1175 558.5,-1153 515.5,-1153"/>
<text text-anchor="start" x="520.05" y="-1161" font-family="Helvetica,sans-Serif" font-size="10.00">positive</text>
<polygon fill="none" stroke="red" points="515.5,-1131 515.5,-1153 558.5,-1153 558.5,-1131 515.5,-1131"/>
<text text-anchor="start" x="527.55" y="-1139" font-family="Helvetica,sans-Serif" font-size="10.00">jpeg</text>
</g>
<!-- id&#45;&gt;dependency180643 -->
<g id="edge2" class="edge">
<title>id:e&#45;&gt;dependency180643:w</title>
<path fill="none" stroke="black" d="M305,-772C477.7,-772 248.94,-1137.53 405.17,-1152.53"/>
<polygon fill="black" stroke="black" points="415.5,-1153 405.3,-1157.04 410.51,-1152.77 405.51,-1152.54 405.51,-1152.54 405.51,-1152.54 410.51,-1152.77 405.72,-1148.05 415.5,-1153 415.5,-1153"/>
</g>
<!-- dependency180645 -->
<g id="node4" class="node">
<title>dependency180645</title>
<polygon fill="none" stroke="red" points="420.5,-1371 420.5,-1415 511.5,-1415 511.5,-1371 420.5,-1371"/>
<text text-anchor="start" x="431.27" y="-1390" font-family="Helvetica,sans-Serif" font-size="10.00">use_conditional</text>
<polygon fill="none" stroke="red" points="511.5,-1393 511.5,-1415 563.5,-1415 563.5,-1393 511.5,-1393"/>
<text text-anchor="start" x="520.55" y="-1401" font-family="Helvetica,sans-Serif" font-size="10.00">positive</text>
<polygon fill="none" stroke="red" points="511.5,-1371 511.5,-1393 563.5,-1393 563.5,-1371 511.5,-1371"/>
<text text-anchor="start" x="516.39" y="-1379" font-family="Helvetica,sans-Serif" font-size="10.00">quicktime</text>
</g>
<!-- id&#45;&gt;dependency180645 -->
<g id="edge4" class="edge">
<title>id:e&#45;&gt;dependency180645:w</title>
<path fill="none" stroke="black" d="M305,-772C441.42,-772 279.18,-1361.87 400.44,-1391.82"/>
<polygon fill="black" stroke="black" points="410.5,-1393 400.04,-1396.3 405.53,-1392.42 400.57,-1391.83 400.57,-1391.83 400.57,-1391.83 405.53,-1392.42 401.09,-1387.37 410.5,-1393 410.5,-1393"/>
</g>
<!-- dependency180647 -->
<g id="node6" class="node">
<title>dependency180647</title>
<polygon fill="none" stroke="blue" points="687,-1254 687,-1364 792,-1364 792,-1254 687,-1254"/>
<text text-anchor="start" x="717.82" y="-1306" font-family="Helvetica,sans-Serif" font-size="10.00">pack_dep</text>
<polygon fill="none" stroke="blue" points="792,-1342 792,-1364 902,-1364 902,-1342 792,-1342"/>
<text text-anchor="start" x="841.44" y="-1350" font-family="Helvetica,sans-Serif" font-size="10.00">no</text>
<polygon fill="none" stroke="blue" points="792,-1320 792,-1342 902,-1342 902,-1320 792,-1320"/>
<text text-anchor="start" x="824.22" y="-1328" font-family="Helvetica,sans-Serif" font-size="10.00">media&#45;libs</text>
<polygon fill="none" stroke="blue" points="792,-1298 792,-1320 902,-1320 902,-1298 792,-1298"/>
<text text-anchor="start" x="836.72" y="-1306" font-family="Helvetica,sans-Serif" font-size="10.00">libdv</text>
<polygon fill="none" stroke="blue" points="792,-1276 792,-1298 902,-1298 902,-1276 792,-1276"/>
<text text-anchor="start" x="818.94" y="-1284" font-family="Helvetica,sans-Serif" font-size="10.00">greaterequal</text>
<polygon fill="none" stroke="blue" points="792,-1254 792,-1276 902,-1276 902,-1254 792,-1254"/>
<text text-anchor="start" x="834.49" y="-1262" font-family="Helvetica,sans-Serif" font-size="10.00">0.103</text>
</g>
<!-- id&#45;&gt;dependency180647 -->
<g id="edge5" class="edge">
<title>id:e&#45;&gt;dependency180647:w</title>
<path fill="none" stroke="black" d="M492.5,-648C528.33,-650.15 546.53,-640.73 571,-667 667.21,-770.27 540.79,-1283.08 668.9,-1308.06"/>
<polygon fill="black" stroke="black" points="679,-1309 668.62,-1312.55 674.02,-1308.53 669.04,-1308.07 669.04,-1308.07 669.04,-1308.07 674.02,-1308.53 669.46,-1303.59 679,-1309 679,-1309"/>
</g>
<!-- dependency180648 -->
<g id="node7" class="node">
<title>dependency180648</title>
<polygon fill="none" stroke="blue" points="687,-1118 687,-1228 792,-1228 792,-1118 687,-1118"/>
<text text-anchor="start" x="717.82" y="-1170" font-family="Helvetica,sans-Serif" font-size="10.00">pack_dep</text>
<polygon fill="none" stroke="blue" points="792,-1206 792,-1228 902,-1228 902,-1206 792,-1206"/>
<text text-anchor="start" x="841.44" y="-1214" font-family="Helvetica,sans-Serif" font-size="10.00">no</text>
<polygon fill="none" stroke="blue" points="792,-1184 792,-1206 902,-1206 902,-1184 792,-1184"/>
<text text-anchor="start" x="824.22" y="-1192" font-family="Helvetica,sans-Serif" font-size="10.00">media&#45;libs</text>
<polygon fill="none" stroke="blue" points="792,-1162 792,-1184 902,-1184 902,-1162 792,-1162"/>
<text text-anchor="start" x="821.72" y="-1170" font-family="Helvetica,sans-Serif" font-size="10.00">libiec61883</text>
<polygon fill="none" stroke="blue" points="792,-1140 792,-1162 902,-1162 902,-1140 792,-1140"/>
<text text-anchor="start" x="818.94" y="-1148" font-family="Helvetica,sans-Serif" font-size="10.00">greaterequal</text>
<polygon fill="none" stroke="blue" points="792,-1118 792,-1140 902,-1140 902,-1118 792,-1118"/>
<text text-anchor="start" x="844.22" y="-1126" font-family="Helvetica,sans-Serif" font-size="10.00">1</text>
</g>
<!-- id&#45;&gt;dependency180648 -->
<g id="edge6" class="edge">
<title>id:e&#45;&gt;dependency180648:w</title>
<path fill="none" stroke="black" d="M492.5,-648C528.33,-650.15 545.96,-641.27 571,-667 728.95,-829.3 457.49,-1162.71 668.91,-1172.77"/>
<polygon fill="black" stroke="black" points="679,-1173 668.9,-1177.27 674,-1172.88 669,-1172.77 669,-1172.77 669,-1172.77 674,-1172.88 669.11,-1168.27 679,-1173 679,-1173"/>
</g>
<!-- dependency180649 -->
<g id="node8" class="node">
<title>dependency180649</title>
<polygon fill="none" stroke="blue" points="687,-982 687,-1092 792,-1092 792,-982 687,-982"/>
<text text-anchor="start" x="717.82" y="-1034" font-family="Helvetica,sans-Serif" font-size="10.00">pack_dep</text>
<polygon fill="none" stroke="blue" points="792,-1070 792,-1092 902,-1092 902,-1070 792,-1070"/>
<text text-anchor="start" x="841.44" y="-1078" font-family="Helvetica,sans-Serif" font-size="10.00">no</text>
<polygon fill="none" stroke="blue" points="792,-1048 792,-1070 902,-1070 902,-1048 792,-1048"/>
<text text-anchor="start" x="830.34" y="-1056" font-family="Helvetica,sans-Serif" font-size="10.00">sys&#45;libs</text>
<polygon fill="none" stroke="blue" points="792,-1026 792,-1048 902,-1048 902,-1026 792,-1026"/>
<text text-anchor="start" x="823.1" y="-1034" font-family="Helvetica,sans-Serif" font-size="10.00">libavc1394</text>
<polygon fill="none" stroke="blue" points="792,-1004 792,-1026 902,-1026 902,-1004 792,-1004"/>
<text text-anchor="start" x="818.94" y="-1012" font-family="Helvetica,sans-Serif" font-size="10.00">greaterequal</text>
<polygon fill="none" stroke="blue" points="792,-982 792,-1004 902,-1004 902,-982 792,-982"/>
<text text-anchor="start" x="835.88" y="-990" font-family="Helvetica,sans-Serif" font-size="10.00">0.5.1</text>
</g>
<!-- id&#45;&gt;dependency180649 -->
<g id="edge7" class="edge">
<title>id:e&#45;&gt;dependency180649:w</title>
<path fill="none" stroke="black" d="M492.5,-648C528.33,-650.15 545.03,-642.21 571,-667 692.38,-782.86 515.24,-1026.73 668.91,-1036.69"/>
<polygon fill="black" stroke="black" points="679,-1037 668.86,-1041.19 674,-1036.84 669,-1036.69 669,-1036.69 669,-1036.69 674,-1036.84 669.14,-1032.19 679,-1037 679,-1037"/>
</g>
<!-- dependency180650 -->
<g id="node9" class="node">
<title>dependency180650</title>
<polygon fill="none" stroke="blue" points="687,-846 687,-956 792,-956 792,-846 687,-846"/>
<text text-anchor="start" x="717.82" y="-898" font-family="Helvetica,sans-Serif" font-size="10.00">pack_dep</text>
<polygon fill="none" stroke="blue" points="792,-934 792,-956 902,-956 902,-934 792,-934"/>
<text text-anchor="start" x="841.44" y="-942" font-family="Helvetica,sans-Serif" font-size="10.00">no</text>
<polygon fill="none" stroke="blue" points="792,-912 792,-934 902,-934 902,-912 792,-912"/>
<text text-anchor="start" x="830.34" y="-920" font-family="Helvetica,sans-Serif" font-size="10.00">sys&#45;libs</text>
<polygon fill="none" stroke="blue" points="792,-890 792,-912 902,-912 902,-890 792,-890"/>
<text text-anchor="start" x="822.83" y="-898" font-family="Helvetica,sans-Serif" font-size="10.00">libraw1394</text>
<polygon fill="none" stroke="blue" points="792,-868 792,-890 902,-890 902,-868 792,-868"/>
<text text-anchor="start" x="818.94" y="-876" font-family="Helvetica,sans-Serif" font-size="10.00">greaterequal</text>
<polygon fill="none" stroke="blue" points="792,-846 792,-868 902,-868 902,-846 792,-846"/>
<text text-anchor="start" x="840.05" y="-854" font-family="Helvetica,sans-Serif" font-size="10.00">1.1</text>
</g>
<!-- id&#45;&gt;dependency180650 -->
<g id="edge8" class="edge">
<title>id:e&#45;&gt;dependency180650:w</title>
<path fill="none" stroke="black" d="M492.5,-648C528.33,-650.15 543.27,-644.21 571,-667 656.73,-737.45 570.22,-891.01 668.86,-900.54"/>
<polygon fill="black" stroke="black" points="679,-901 668.8,-905.04 674.01,-900.77 669.01,-900.54 669.01,-900.54 669.01,-900.54 674.01,-900.77 669.22,-896.05 679,-901 679,-901"/>
</g>
<!-- dependency180651 -->
<g id="node10" class="node">
<title>dependency180651</title>
<polygon fill="none" stroke="blue" points="687,-1638 687,-1736 792,-1736 792,-1638 687,-1638"/>
<text text-anchor="start" x="717.82" y="-1684" font-family="Helvetica,sans-Serif" font-size="10.00">pack_dep</text>
<polygon fill="none" stroke="blue" points="792,-1714 792,-1736 902,-1736 902,-1714 792,-1714"/>
<text text-anchor="start" x="841.44" y="-1722" font-family="Helvetica,sans-Serif" font-size="10.00">no</text>
<polygon fill="none" stroke="blue" points="792,-1692 792,-1714 902,-1714 902,-1692 792,-1692"/>
<text text-anchor="start" x="833.67" y="-1700" font-family="Helvetica,sans-Serif" font-size="10.00">virtual</text>
<polygon fill="none" stroke="blue" points="792,-1670 792,-1692 902,-1692 902,-1670 792,-1670"/>
<text text-anchor="start" x="825.6" y="-1678" font-family="Helvetica,sans-Serif" font-size="10.00">pkgconfig</text>
<polygon fill="none" stroke="blue" points="792,-1648 792,-1670 902,-1670 902,-1648 792,-1648"/>
<text text-anchor="start" x="835.88" y="-1656" font-family="Helvetica,sans-Serif" font-size="10.00">none</text>
<polygon fill="none" stroke="blue" points="792,-1638 792,-1648 902,-1648 902,-1638 792,-1638"/>
</g>
<!-- id&#45;&gt;dependency180651 -->
<g id="edge9" class="edge">
<title>id:e&#45;&gt;dependency180651:w</title>
<path fill="none" stroke="black" d="M492.5,-648C528.33,-650.15 547.35,-640 571,-667 718.92,-835.86 459.15,-1661.47 668.99,-1686.42"/>
<polygon fill="black" stroke="black" points="679,-1687 668.76,-1690.92 674.01,-1686.71 669.02,-1686.42 669.02,-1686.42 669.02,-1686.42 674.01,-1686.71 669.28,-1681.93 679,-1687 679,-1687"/>
</g>
<!-- dependency180652 -->
<g id="node11" class="node">
<title>dependency180652</title>
<polygon fill="none" stroke="red" points="424.5,-680 424.5,-724 515.5,-724 515.5,-680 424.5,-680"/>
<text text-anchor="start" x="435.27" y="-699" font-family="Helvetica,sans-Serif" font-size="10.00">use_conditional</text>
<polygon fill="none" stroke="red" points="515.5,-702 515.5,-724 558.5,-724 558.5,-702 515.5,-702"/>
<text text-anchor="start" x="520.05" y="-710" font-family="Helvetica,sans-Serif" font-size="10.00">positive</text>
<polygon fill="none" stroke="red" points="515.5,-680 515.5,-702 558.5,-702 558.5,-680 515.5,-680"/>
<text text-anchor="start" x="527.55" y="-688" font-family="Helvetica,sans-Serif" font-size="10.00">jpeg</text>
</g>
<!-- id&#45;&gt;dependency180652 -->
<g id="edge11" class="edge">
<title>id:e&#45;&gt;dependency180652:w</title>
<path fill="none" stroke="black" d="M305,-772C360.3,-772 357.78,-708.67 407.43,-702.48"/>
<ellipse fill="none" stroke="black" cx="411.51" cy="-702.24" rx="4" ry="4"/>
</g>
<!-- dependency180654 -->
<g id="node13" class="node">
<title>dependency180654</title>
<polygon fill="none" stroke="red" points="420.5,-750 420.5,-794 511.5,-794 511.5,-750 420.5,-750"/>
<text text-anchor="start" x="431.27" y="-769" font-family="Helvetica,sans-Serif" font-size="10.00">use_conditional</text>
<polygon fill="none" stroke="red" points="511.5,-772 511.5,-794 563.5,-794 563.5,-772 511.5,-772"/>
<text text-anchor="start" x="520.55" y="-780" font-family="Helvetica,sans-Serif" font-size="10.00">positive</text>
<polygon fill="none" stroke="red" points="511.5,-750 511.5,-772 563.5,-772 563.5,-750 511.5,-750"/>
<text text-anchor="start" x="516.39" y="-758" font-family="Helvetica,sans-Serif" font-size="10.00">quicktime</text>
</g>
<!-- id&#45;&gt;dependency180654 -->
<g id="edge13" class="edge">
<title>id:e&#45;&gt;dependency180654:w</title>
<path fill="none" stroke="black" d="M305,-772C349.05,-772 362.06,-772 402.35,-772"/>
<ellipse fill="none" stroke="black" cx="406.5" cy="-772" rx="4" ry="4"/>
</g>
<!-- dependency180656 -->
<g id="node15" class="node">
<title>dependency180656</title>
<polygon fill="none" stroke="blue" points="687,-436 687,-546 792,-546 792,-436 687,-436"/>
<text text-anchor="start" x="717.82" y="-488" font-family="Helvetica,sans-Serif" font-size="10.00">pack_dep</text>
<polygon fill="none" stroke="blue" points="792,-524 792,-546 902,-546 902,-524 792,-524"/>
<text text-anchor="start" x="841.44" y="-532" font-family="Helvetica,sans-Serif" font-size="10.00">no</text>
<polygon fill="none" stroke="blue" points="792,-502 792,-524 902,-524 902,-502 792,-502"/>
<text text-anchor="start" x="824.22" y="-510" font-family="Helvetica,sans-Serif" font-size="10.00">media&#45;libs</text>
<polygon fill="none" stroke="blue" points="792,-480 792,-502 902,-502 902,-480 792,-480"/>
<text text-anchor="start" x="836.72" y="-488" font-family="Helvetica,sans-Serif" font-size="10.00">libdv</text>
<polygon fill="none" stroke="blue" points="792,-458 792,-480 902,-480 902,-458 792,-458"/>
<text text-anchor="start" x="818.94" y="-466" font-family="Helvetica,sans-Serif" font-size="10.00">greaterequal</text>
<polygon fill="none" stroke="blue" points="792,-436 792,-458 902,-458 902,-436 792,-436"/>
<text text-anchor="start" x="834.49" y="-444" font-family="Helvetica,sans-Serif" font-size="10.00">0.103</text>
</g>
<!-- id&#45;&gt;dependency180656 -->
<g id="edge14" class="edge">
<title>id:e&#45;&gt;dependency180656:w</title>
<path fill="none" stroke="black" d="M492.5,-648C597.8,-654.31 572.14,-499.5 670.71,-491.33"/>
<ellipse fill="none" stroke="black" cx="675" cy="-491.16" rx="4" ry="4"/>
</g>
<!-- dependency180657 -->
<g id="node16" class="node">
<title>dependency180657</title>
<polygon fill="none" stroke="blue" points="687,-300 687,-410 792,-410 792,-300 687,-300"/>
<text text-anchor="start" x="717.82" y="-352" font-family="Helvetica,sans-Serif" font-size="10.00">pack_dep</text>
<polygon fill="none" stroke="blue" points="792,-388 792,-410 902,-410 902,-388 792,-388"/>
<text text-anchor="start" x="841.44" y="-396" font-family="Helvetica,sans-Serif" font-size="10.00">no</text>
<polygon fill="none" stroke="blue" points="792,-366 792,-388 902,-388 902,-366 792,-366"/>
<text text-anchor="start" x="824.22" y="-374" font-family="Helvetica,sans-Serif" font-size="10.00">media&#45;libs</text>
<polygon fill="none" stroke="blue" points="792,-344 792,-366 902,-366 902,-344 792,-344"/>
<text text-anchor="start" x="821.72" y="-352" font-family="Helvetica,sans-Serif" font-size="10.00">libiec61883</text>
<polygon fill="none" stroke="blue" points="792,-322 792,-344 902,-344 902,-322 792,-322"/>
<text text-anchor="start" x="818.94" y="-330" font-family="Helvetica,sans-Serif" font-size="10.00">greaterequal</text>
<polygon fill="none" stroke="blue" points="792,-300 792,-322 902,-322 902,-300 792,-300"/>
<text text-anchor="start" x="844.22" y="-308" font-family="Helvetica,sans-Serif" font-size="10.00">1</text>
</g>
<!-- id&#45;&gt;dependency180657 -->
<g id="edge15" class="edge">
<title>id:e&#45;&gt;dependency180657:w</title>
<path fill="none" stroke="black" d="M492.5,-648C643.73,-657.06 529.07,-366.11 670.69,-355.31"/>
<ellipse fill="none" stroke="black" cx="675" cy="-355.15" rx="4" ry="4"/>
</g>
<!-- dependency180658 -->
<g id="node17" class="node">
<title>dependency180658</title>
<polygon fill="none" stroke="blue" points="687,-164 687,-274 792,-274 792,-164 687,-164"/>
<text text-anchor="start" x="717.82" y="-216" font-family="Helvetica,sans-Serif" font-size="10.00">pack_dep</text>
<polygon fill="none" stroke="blue" points="792,-252 792,-274 902,-274 902,-252 792,-252"/>
<text text-anchor="start" x="841.44" y="-260" font-family="Helvetica,sans-Serif" font-size="10.00">no</text>
<polygon fill="none" stroke="blue" points="792,-230 792,-252 902,-252 902,-230 792,-230"/>
<text text-anchor="start" x="830.34" y="-238" font-family="Helvetica,sans-Serif" font-size="10.00">sys&#45;libs</text>
<polygon fill="none" stroke="blue" points="792,-208 792,-230 902,-230 902,-208 792,-208"/>
<text text-anchor="start" x="823.1" y="-216" font-family="Helvetica,sans-Serif" font-size="10.00">libavc1394</text>
<polygon fill="none" stroke="blue" points="792,-186 792,-208 902,-208 902,-186 792,-186"/>
<text text-anchor="start" x="818.94" y="-194" font-family="Helvetica,sans-Serif" font-size="10.00">greaterequal</text>
<polygon fill="none" stroke="blue" points="792,-164 792,-186 902,-186 902,-164 792,-164"/>
<text text-anchor="start" x="835.88" y="-172" font-family="Helvetica,sans-Serif" font-size="10.00">0.5.1</text>
</g>
<!-- id&#45;&gt;dependency180658 -->
<g id="edge16" class="edge">
<title>id:e&#45;&gt;dependency180658:w</title>
<path fill="none" stroke="black" d="M492.5,-648C697.3,-660.27 477.06,-230.56 671,-219.23"/>
<ellipse fill="none" stroke="black" cx="675" cy="-219.11" rx="4" ry="4"/>
</g>
<!-- dependency180659 -->
<g id="node18" class="node">
<title>dependency180659</title>
<polygon fill="none" stroke="blue" points="687,-28 687,-138 792,-138 792,-28 687,-28"/>
<text text-anchor="start" x="717.82" y="-80" font-family="Helvetica,sans-Serif" font-size="10.00">pack_dep</text>
<polygon fill="none" stroke="blue" points="792,-116 792,-138 902,-138 902,-116 792,-116"/>
<text text-anchor="start" x="841.44" y="-124" font-family="Helvetica,sans-Serif" font-size="10.00">no</text>
<polygon fill="none" stroke="blue" points="792,-94 792,-116 902,-116 902,-94 792,-94"/>
<text text-anchor="start" x="830.34" y="-102" font-family="Helvetica,sans-Serif" font-size="10.00">sys&#45;libs</text>
<polygon fill="none" stroke="blue" points="792,-72 792,-94 902,-94 902,-72 792,-72"/>
<text text-anchor="start" x="822.83" y="-80" font-family="Helvetica,sans-Serif" font-size="10.00">libraw1394</text>
<polygon fill="none" stroke="blue" points="792,-50 792,-72 902,-72 902,-50 792,-50"/>
<text text-anchor="start" x="818.94" y="-58" font-family="Helvetica,sans-Serif" font-size="10.00">greaterequal</text>
<polygon fill="none" stroke="blue" points="792,-28 792,-50 902,-50 902,-28 792,-28"/>
<text text-anchor="start" x="840.05" y="-36" font-family="Helvetica,sans-Serif" font-size="10.00">1.1</text>
</g>
<!-- id&#45;&gt;dependency180659 -->
<g id="edge17" class="edge">
<title>id:e&#45;&gt;dependency180659:w</title>
<path fill="none" stroke="black" d="M492.5,-648C753.63,-663.64 421.84,-95.41 670.69,-83.2"/>
<ellipse fill="none" stroke="black" cx="675" cy="-83.1" rx="4" ry="4"/>
<path fill="none" stroke="black" d="M305,-772C366.75,-772 342.64,-698.09 396,-667 433.02,-645.43 447.74,-645.44 490.5,-648"/>
</g>
<!-- dependency180644 -->
<g id="node3" class="node">
<title>dependency180644</title>
<polygon fill="none" stroke="blue" points="687,-1390 687,-1488 792,-1488 792,-1390 687,-1390"/>
<text text-anchor="start" x="717.82" y="-1436" font-family="Helvetica,sans-Serif" font-size="10.00">pack_dep</text>
<polygon fill="none" stroke="blue" points="792,-1466 792,-1488 902,-1488 902,-1466 792,-1466"/>
<text text-anchor="start" x="841.44" y="-1474" font-family="Helvetica,sans-Serif" font-size="10.00">no</text>
<polygon fill="none" stroke="blue" points="792,-1444 792,-1466 902,-1466 902,-1444 792,-1444"/>
<text text-anchor="start" x="833.67" y="-1452" font-family="Helvetica,sans-Serif" font-size="10.00">virtual</text>
<polygon fill="none" stroke="blue" points="792,-1422 792,-1444 902,-1444 902,-1422 792,-1422"/>
<text text-anchor="start" x="837.55" y="-1430" font-family="Helvetica,sans-Serif" font-size="10.00">jpeg</text>
<polygon fill="none" stroke="blue" points="792,-1400 792,-1422 902,-1422 902,-1400 792,-1400"/>
<text text-anchor="start" x="835.88" y="-1408" font-family="Helvetica,sans-Serif" font-size="10.00">none</text>
<polygon fill="none" stroke="blue" points="792,-1390 792,-1400 902,-1400 902,-1390 792,-1390"/>
</g>
<!-- dependency180643&#45;&gt;dependency180644 -->
<g id="edge1" class="edge">
<title>dependency180643:e&#45;&gt;dependency180644:w</title>
<path fill="none" stroke="black" stroke-dasharray="5,2" d="M567.5,-1153C700.33,-1153 550.87,-1424.12 668.82,-1438.41"/>
<polygon fill="black" stroke="black" points="679,-1439 668.76,-1442.92 674.01,-1438.71 669.02,-1438.43 669.02,-1438.43 669.02,-1438.43 674.01,-1438.71 669.28,-1433.93 679,-1439 679,-1439"/>
</g>
<!-- choice118105114116117971084710611210110345484511451 -->
<g id="node19" class="node">
<title>choice118105114116117971084710611210110345484511451</title>
<g id="a_node19"><a xlink:href="../virtual/jpeg-0-r3.svg" xlink:title="portage://virtual/jpeg&#45;0&#45;r3">
<ellipse fill="none" stroke="red" cx="1167" cy="-1369" rx="144" ry="18"/>
<text text-anchor="middle" x="1167" y="-1366" font-family="Helvetica,sans-Serif" font-size="10.00">portage://virtual/jpeg&#45;0&#45;r3</text>
</a>
</g>
</g>
<!-- dependency180644&#45;&gt;choice118105114116117971084710611210110345484511451 -->
<g id="edge18" class="edge">
<title>dependency180644:e&#45;&gt;choice118105114116117971084710611210110345484511451:w</title>
<path fill="none" stroke="black" stroke-dasharray="1,5" d="M916,-1439C968.82,-1439 966.17,-1377.73 1011.84,-1369.83"/>
<polygon fill="black" stroke="black" points="1022,-1369 1012.4,-1374.3 1017.02,-1369.41 1012.03,-1369.82 1012.03,-1369.82 1012.03,-1369.82 1017.02,-1369.41 1011.67,-1365.33 1022,-1369 1022,-1369"/>
</g>
<!-- dependency180646 -->
<g id="node5" class="node">
<title>dependency180646</title>
<polygon fill="none" stroke="blue" points="687,-1514 687,-1612 792,-1612 792,-1514 687,-1514"/>
<text text-anchor="start" x="717.82" y="-1560" font-family="Helvetica,sans-Serif" font-size="10.00">pack_dep</text>
<polygon fill="none" stroke="blue" points="792,-1590 792,-1612 902,-1612 902,-1590 792,-1590"/>
<text text-anchor="start" x="841.44" y="-1598" font-family="Helvetica,sans-Serif" font-size="10.00">no</text>
<polygon fill="none" stroke="blue" points="792,-1568 792,-1590 902,-1590 902,-1568 792,-1568"/>
<text text-anchor="start" x="824.22" y="-1576" font-family="Helvetica,sans-Serif" font-size="10.00">media&#45;libs</text>
<polygon fill="none" stroke="blue" points="792,-1546 792,-1568 902,-1568 902,-1546 792,-1546"/>
<text text-anchor="start" x="820.89" y="-1554" font-family="Helvetica,sans-Serif" font-size="10.00">libquicktime</text>
<polygon fill="none" stroke="blue" points="792,-1524 792,-1546 902,-1546 902,-1524 792,-1524"/>
<text text-anchor="start" x="835.88" y="-1532" font-family="Helvetica,sans-Serif" font-size="10.00">none</text>
<polygon fill="none" stroke="blue" points="792,-1514 792,-1524 902,-1524 902,-1514 792,-1514"/>
</g>
<!-- dependency180645&#45;&gt;dependency180646 -->
<g id="edge3" class="edge">
<title>dependency180645:e&#45;&gt;dependency180646:w</title>
<path fill="none" stroke="black" stroke-dasharray="5,2" d="M571,-1393C656.84,-1393 595.04,-1549.34 668.77,-1562.17"/>
<polygon fill="black" stroke="black" points="679,-1563 668.67,-1566.67 674.02,-1562.59 669.03,-1562.19 669.03,-1562.19 669.03,-1562.19 674.02,-1562.59 669.4,-1557.7 679,-1563 679,-1563"/>
</g>
<!-- choice1091011001059745108105981154710810598113117105991071161051091014549465046524511451 -->
<g id="node20" class="node">
<title>choice1091011001059745108105981154710810598113117105991071161051091014549465046524511451</title>
<g id="a_node20"><a xlink:href="../media-libs/libquicktime-1.2.4-r3.svg" xlink:title="portage://media&#45;libs/libquicktime&#45;1.2.4&#45;r3">
<ellipse fill="none" stroke="red" cx="1167" cy="-1493" rx="144" ry="18"/>
<text text-anchor="middle" x="1167" y="-1490" font-family="Helvetica,sans-Serif" font-size="10.00">portage://media&#45;libs/libquicktime&#45;1.2.4&#45;r3</text>
</a>
</g>
</g>
<!-- dependency180646&#45;&gt;choice1091011001059745108105981154710810598113117105991071161051091014549465046524511451 -->
<g id="edge19" class="edge">
<title>dependency180646:e&#45;&gt;choice1091011001059745108105981154710810598113117105991071161051091014549465046524511451:w</title>
<path fill="none" stroke="black" stroke-dasharray="1,5" d="M916,-1563C968.82,-1563 966.17,-1501.73 1011.84,-1493.83"/>
<polygon fill="black" stroke="black" points="1022,-1493 1012.4,-1498.3 1017.02,-1493.41 1012.03,-1493.82 1012.03,-1493.82 1012.03,-1493.82 1017.02,-1493.41 1011.67,-1489.33 1022,-1493 1022,-1493"/>
</g>
<!-- choice10910110010597451081059811547108105981001184549464846484511452 -->
<g id="node21" class="node">
<title>choice10910110010597451081059811547108105981001184549464846484511452</title>
<g id="a_node21"><a xlink:href="../media-libs/libdv-1.0.0-r4.svg" xlink:title="portage://media&#45;libs/libdv&#45;1.0.0&#45;r4">
<ellipse fill="none" stroke="red" cx="1167" cy="-1244" rx="144" ry="18"/>
<text text-anchor="middle" x="1167" y="-1241" font-family="Helvetica,sans-Serif" font-size="10.00">portage://media&#45;libs/libdv&#45;1.0.0&#45;r4</text>
</a>
</g>
</g>
<!-- dependency180647&#45;&gt;choice10910110010597451081059811547108105981001184549464846484511452 -->
<g id="edge20" class="edge">
<title>dependency180647:e&#45;&gt;choice10910110010597451081059811547108105981001184549464846484511452:w</title>
<path fill="none" stroke="black" stroke-dasharray="1,5" d="M916,-1309C967.7,-1309 967.07,-1252.11 1012.03,-1244.78"/>
<polygon fill="black" stroke="black" points="1022,-1244 1012.38,-1249.26 1017.02,-1244.39 1012.03,-1244.78 1012.03,-1244.78 1012.03,-1244.78 1017.02,-1244.39 1011.68,-1240.29 1022,-1244 1022,-1244"/>
</g>
<!-- choice10910110010597451081059811547108105981051019954495656514549465046484511449 -->
<g id="node22" class="node">
<title>choice10910110010597451081059811547108105981051019954495656514549465046484511449</title>
<g id="a_node22"><a xlink:href="../media-libs/libiec61883-1.2.0-r1.svg" xlink:title="portage://media&#45;libs/libiec61883&#45;1.2.0&#45;r1">
<ellipse fill="none" stroke="red" cx="1167" cy="-1125" rx="144" ry="18"/>
<text text-anchor="middle" x="1167" y="-1122" font-family="Helvetica,sans-Serif" font-size="10.00">portage://media&#45;libs/libiec61883&#45;1.2.0&#45;r1</text>
</a>
</g>
</g>
<!-- dependency180648&#45;&gt;choice10910110010597451081059811547108105981051019954495656514549465046484511449 -->
<g id="edge21" class="edge">
<title>dependency180648:e&#45;&gt;choice10910110010597451081059811547108105981051019954495656514549465046484511449:w</title>
<path fill="none" stroke="black" stroke-dasharray="1,5" d="M916,-1173C964.08,-1173 969.68,-1131.51 1011.79,-1125.68"/>
<polygon fill="black" stroke="black" points="1022,-1125 1012.32,-1130.15 1017.01,-1125.33 1012.02,-1125.66 1012.02,-1125.66 1012.02,-1125.66 1017.01,-1125.33 1011.72,-1121.17 1022,-1125 1022,-1125"/>
</g>
<!-- choice115121115451081059811547108105989711899495157524548465346524511450 -->
<g id="node23" class="node">
<title>choice115121115451081059811547108105989711899495157524548465346524511450</title>
<g id="a_node23"><a xlink:href="../sys-libs/libavc1394-0.5.4-r2.svg" xlink:title="portage://sys&#45;libs/libavc1394&#45;0.5.4&#45;r2">
<ellipse fill="none" stroke="red" cx="1167" cy="-962" rx="144" ry="18"/>
<text text-anchor="middle" x="1167" y="-959" font-family="Helvetica,sans-Serif" font-size="10.00">portage://sys&#45;libs/libavc1394&#45;0.5.4&#45;r2</text>
</a>
</g>
</g>
<!-- dependency180649&#45;&gt;choice115121115451081059811547108105989711899495157524548465346524511450 -->
<g id="edge22" class="edge">
<title>dependency180649:e&#45;&gt;choice115121115451081059811547108105989711899495157524548465346524511450:w</title>
<path fill="none" stroke="black" stroke-dasharray="1,5" d="M916,-1037C970.1,-1037 965.2,-971.08 1011.93,-962.84"/>
<polygon fill="black" stroke="black" points="1022,-962 1012.41,-967.32 1017.02,-962.42 1012.03,-962.83 1012.03,-962.83 1012.03,-962.83 1017.02,-962.42 1011.66,-958.35 1022,-962 1022,-962"/>
</g>
<!-- choice115121115451081059811547108105989711899495157524548465346524511449 -->
<g id="node24" class="node">
<title>choice115121115451081059811547108105989711899495157524548465346524511449</title>
<g id="a_node24"><a xlink:href="../sys-libs/libavc1394-0.5.4-r1.svg" xlink:title="portage://sys&#45;libs/libavc1394&#45;0.5.4&#45;r1">
<ellipse fill="none" stroke="red" cx="1167" cy="-1023" rx="144" ry="18"/>
<text text-anchor="middle" x="1167" y="-1020" font-family="Helvetica,sans-Serif" font-size="10.00">portage://sys&#45;libs/libavc1394&#45;0.5.4&#45;r1</text>
</a>
</g>
</g>
<!-- dependency180649&#45;&gt;choice115121115451081059811547108105989711899495157524548465346524511449 -->
<g id="edge23" class="edge">
<title>dependency180649:e&#45;&gt;choice115121115451081059811547108105989711899495157524548465346524511449:w</title>
<path fill="none" stroke="black" stroke-dasharray="1,5" d="M916,-1037C959.99,-1037 972.65,-1025 1011.99,-1023.22"/>
<polygon fill="black" stroke="black" points="1022,-1023 1012.1,-1027.72 1017,-1023.11 1012,-1023.22 1012,-1023.22 1012,-1023.22 1017,-1023.11 1011.9,-1018.72 1022,-1023 1022,-1023"/>
</g>
<!-- choice1151211154510810598115471081059811497119495157524550464946504511449 -->
<g id="node25" class="node">
<title>choice1151211154510810598115471081059811497119495157524550464946504511449</title>
<g id="a_node25"><a xlink:href="../sys-libs/libraw1394-2.1.2-r1.svg" xlink:title="portage://sys&#45;libs/libraw1394&#45;2.1.2&#45;r1">
<ellipse fill="none" stroke="red" cx="1167" cy="-739" rx="144" ry="18"/>
<text text-anchor="middle" x="1167" y="-736" font-family="Helvetica,sans-Serif" font-size="10.00">portage://sys&#45;libs/libraw1394&#45;2.1.2&#45;r1</text>
</a>
</g>
</g>
<!-- dependency180650&#45;&gt;choice1151211154510810598115471081059811497119495157524550464946504511449 -->
<g id="edge24" class="edge">
<title>dependency180650:e&#45;&gt;choice1151211154510810598115471081059811497119495157524550464946504511449:w</title>
<path fill="none" stroke="black" stroke-dasharray="1,5" d="M916,-901C998.35,-901 941.36,-752.62 1011.73,-739.87"/>
<polygon fill="black" stroke="black" points="1022,-739 1012.42,-744.33 1017.02,-739.42 1012.04,-739.85 1012.04,-739.85 1012.04,-739.85 1017.02,-739.42 1011.66,-735.36 1022,-739 1022,-739"/>
</g>
<!-- choice115121115451081059811547108105981149711949515752455046494650 -->
<g id="node26" class="node">
<title>choice115121115451081059811547108105981149711949515752455046494650</title>
<g id="a_node26"><a xlink:href="../sys-libs/libraw1394-2.1.2.svg" xlink:title="portage://sys&#45;libs/libraw1394&#45;2.1.2">
<ellipse fill="none" stroke="red" cx="1167" cy="-901" rx="144" ry="18"/>
<text text-anchor="middle" x="1167" y="-898" font-family="Helvetica,sans-Serif" font-size="10.00">portage://sys&#45;libs/libraw1394&#45;2.1.2</text>
</a>
</g>
</g>
<!-- dependency180650&#45;&gt;choice115121115451081059811547108105981149711949515752455046494650 -->
<g id="edge25" class="edge">
<title>dependency180650:e&#45;&gt;choice115121115451081059811547108105981149711949515752455046494650:w</title>
<path fill="none" stroke="black" stroke-dasharray="1,5" d="M916,-901C959.43,-901 972.83,-901 1011.57,-901"/>
<polygon fill="black" stroke="black" points="1022,-901 1012,-905.5 1017,-901 1012,-901 1012,-901 1012,-901 1017,-901 1012,-896.5 1022,-901 1022,-901"/>
</g>
<!-- choice115121115451081059811547108105981149711949515752455046494649 -->
<g id="node27" class="node">
<title>choice115121115451081059811547108105981149711949515752455046494649</title>
<g id="a_node27"><a xlink:href="../sys-libs/libraw1394-2.1.1.svg" xlink:title="portage://sys&#45;libs/libraw1394&#45;2.1.1">
<ellipse fill="none" stroke="red" cx="1167" cy="-847" rx="144" ry="18"/>
<text text-anchor="middle" x="1167" y="-844" font-family="Helvetica,sans-Serif" font-size="10.00">portage://sys&#45;libs/libraw1394&#45;2.1.1</text>
</a>
</g>
</g>
<!-- dependency180650&#45;&gt;choice115121115451081059811547108105981149711949515752455046494649 -->
<g id="edge26" class="edge">
<title>dependency180650:e&#45;&gt;choice115121115451081059811547108105981149711949515752455046494649:w</title>
<path fill="none" stroke="black" stroke-dasharray="1,5" d="M916,-901C965.26,-901 968.85,-854.13 1011.86,-847.72"/>
<polygon fill="black" stroke="black" points="1022,-847 1012.35,-852.2 1017.01,-847.36 1012.03,-847.71 1012.03,-847.71 1012.03,-847.71 1017.01,-847.36 1011.71,-843.22 1022,-847 1022,-847"/>
</g>
<!-- choice1151211154510810598115471081059811497119495157524550464946484511449 -->
<g id="node28" class="node">
<title>choice1151211154510810598115471081059811497119495157524550464946484511449</title>
<g id="a_node28"><a xlink:href="../sys-libs/libraw1394-2.1.0-r1.svg" xlink:title="portage://sys&#45;libs/libraw1394&#45;2.1.0&#45;r1">
<ellipse fill="none" stroke="red" cx="1167" cy="-793" rx="144" ry="18"/>
<text text-anchor="middle" x="1167" y="-790" font-family="Helvetica,sans-Serif" font-size="10.00">portage://sys&#45;libs/libraw1394&#45;2.1.0&#45;r1</text>
</a>
</g>
</g>
<!-- dependency180650&#45;&gt;choice1151211154510810598115471081059811497119495157524550464946484511449 -->
<g id="edge27" class="edge">
<title>dependency180650:e&#45;&gt;choice1151211154510810598115471081059811497119495157524550464946484511449:w</title>
<path fill="none" stroke="black" stroke-dasharray="1,5" d="M916,-901C979.58,-901 957.58,-804.49 1011.79,-793.93"/>
<polygon fill="black" stroke="black" points="1022,-793 1012.45,-798.39 1017.02,-793.46 1012.04,-793.91 1012.04,-793.91 1012.04,-793.91 1017.02,-793.46 1011.63,-789.43 1022,-793 1022,-793"/>
</g>
<!-- choice1181051141161179710847112107103991111101021051034549 -->
<g id="node29" class="node">
<title>choice1181051141161179710847112107103991111101021051034549</title>
<g id="a_node29"><a xlink:href="../virtual/pkgconfig-1.svg" xlink:title="portage://virtual/pkgconfig&#45;1">
<ellipse fill="none" stroke="red" cx="1167" cy="-1687" rx="144" ry="18"/>
<text text-anchor="middle" x="1167" y="-1684" font-family="Helvetica,sans-Serif" font-size="10.00">portage://virtual/pkgconfig&#45;1</text>
</a>
</g>
</g>
<!-- dependency180651&#45;&gt;choice1181051141161179710847112107103991111101021051034549 -->
<g id="edge28" class="edge">
<title>dependency180651:e&#45;&gt;choice1181051141161179710847112107103991111101021051034549:w</title>
<path fill="none" stroke="black" stroke-dasharray="1,5" d="M916,-1687C959.43,-1687 972.83,-1687 1011.57,-1687"/>
<polygon fill="black" stroke="black" points="1022,-1687 1012,-1691.5 1017,-1687 1012,-1687 1012,-1687 1012,-1687 1017,-1687 1012,-1682.5 1022,-1687 1022,-1687"/>
</g>
<!-- choice11810511411611797108471121071039911111010210510345484511449 -->
<g id="node30" class="node">
<title>choice11810511411611797108471121071039911111010210510345484511449</title>
<g id="a_node30"><a xlink:href="../virtual/pkgconfig-0-r1.svg" xlink:title="portage://virtual/pkgconfig&#45;0&#45;r1">
<ellipse fill="none" stroke="red" cx="1167" cy="-1633" rx="144" ry="18"/>
<text text-anchor="middle" x="1167" y="-1630" font-family="Helvetica,sans-Serif" font-size="10.00">portage://virtual/pkgconfig&#45;0&#45;r1</text>
</a>
</g>
</g>
<!-- dependency180651&#45;&gt;choice11810511411611797108471121071039911111010210510345484511449 -->
<g id="edge29" class="edge">
<title>dependency180651:e&#45;&gt;choice11810511411611797108471121071039911111010210510345484511449:w</title>
<path fill="none" stroke="black" stroke-dasharray="1,5" d="M916,-1687C965.26,-1687 968.85,-1640.13 1011.86,-1633.72"/>
<polygon fill="black" stroke="black" points="1022,-1633 1012.35,-1638.2 1017.01,-1633.36 1012.03,-1633.71 1012.03,-1633.71 1012.03,-1633.71 1017.01,-1633.36 1011.71,-1629.22 1022,-1633 1022,-1633"/>
</g>
<!-- dependency180653 -->
<g id="node12" class="node">
<title>dependency180653</title>
<polygon fill="none" stroke="blue" points="687,-572 687,-670 792,-670 792,-572 687,-572"/>
<text text-anchor="start" x="717.82" y="-618" font-family="Helvetica,sans-Serif" font-size="10.00">pack_dep</text>
<polygon fill="none" stroke="blue" points="792,-648 792,-670 902,-670 902,-648 792,-648"/>
<text text-anchor="start" x="841.44" y="-656" font-family="Helvetica,sans-Serif" font-size="10.00">no</text>
<polygon fill="none" stroke="blue" points="792,-626 792,-648 902,-648 902,-626 792,-626"/>
<text text-anchor="start" x="833.67" y="-634" font-family="Helvetica,sans-Serif" font-size="10.00">virtual</text>
<polygon fill="none" stroke="blue" points="792,-604 792,-626 902,-626 902,-604 792,-604"/>
<text text-anchor="start" x="837.55" y="-612" font-family="Helvetica,sans-Serif" font-size="10.00">jpeg</text>
<polygon fill="none" stroke="blue" points="792,-582 792,-604 902,-604 902,-582 792,-582"/>
<text text-anchor="start" x="835.88" y="-590" font-family="Helvetica,sans-Serif" font-size="10.00">none</text>
<polygon fill="none" stroke="blue" points="792,-572 792,-582 902,-582 902,-572 792,-572"/>
</g>
<!-- dependency180652&#45;&gt;dependency180653 -->
<g id="edge10" class="edge">
<title>dependency180652:e&#45;&gt;dependency180653:w</title>
<path fill="none" stroke="black" stroke-dasharray="5,2" d="M567.5,-702C625.16,-702 618.79,-630.21 668.95,-621.8"/>
<polygon fill="black" stroke="black" points="679,-621 669.39,-626.28 674.02,-621.4 669.03,-621.8 669.03,-621.8 669.03,-621.8 674.02,-621.4 668.67,-617.31 679,-621 679,-621"/>
</g>
<!-- dependency180653&#45;&gt;choice118105114116117971084710611210110345484511451 -->
<g id="edge30" class="edge">
<title>dependency180653:e&#45;&gt;choice118105114116117971084710611210110345484511451:w</title>
<path fill="none" stroke="black" stroke-dasharray="1,5" d="M916,-621C1080.28,-621 863.81,-1337.2 1011.72,-1367.98"/>
<polygon fill="black" stroke="black" points="1022,-1369 1011.6,-1372.49 1017.02,-1368.51 1012.05,-1368.01 1012.05,-1368.01 1012.05,-1368.01 1017.02,-1368.51 1012.49,-1363.53 1022,-1369 1022,-1369"/>
</g>
<!-- dependency180655 -->
<g id="node14" class="node">
<title>dependency180655</title>
<polygon fill="none" stroke="blue" points="687,-696 687,-794 792,-794 792,-696 687,-696"/>
<text text-anchor="start" x="717.82" y="-742" font-family="Helvetica,sans-Serif" font-size="10.00">pack_dep</text>
<polygon fill="none" stroke="blue" points="792,-772 792,-794 902,-794 902,-772 792,-772"/>
<text text-anchor="start" x="841.44" y="-780" font-family="Helvetica,sans-Serif" font-size="10.00">no</text>
<polygon fill="none" stroke="blue" points="792,-750 792,-772 902,-772 902,-750 792,-750"/>
<text text-anchor="start" x="824.22" y="-758" font-family="Helvetica,sans-Serif" font-size="10.00">media&#45;libs</text>
<polygon fill="none" stroke="blue" points="792,-728 792,-750 902,-750 902,-728 792,-728"/>
<text text-anchor="start" x="820.89" y="-736" font-family="Helvetica,sans-Serif" font-size="10.00">libquicktime</text>
<polygon fill="none" stroke="blue" points="792,-706 792,-728 902,-728 902,-706 792,-706"/>
<text text-anchor="start" x="835.88" y="-714" font-family="Helvetica,sans-Serif" font-size="10.00">none</text>
<polygon fill="none" stroke="blue" points="792,-696 792,-706 902,-706 902,-696 792,-696"/>
</g>
<!-- dependency180654&#45;&gt;dependency180655 -->
<g id="edge12" class="edge">
<title>dependency180654:e&#45;&gt;dependency180655:w</title>
<path fill="none" stroke="black" stroke-dasharray="5,2" d="M571,-772C616.9,-772 628,-748.76 668.88,-745.4"/>
<polygon fill="black" stroke="black" points="679,-745 669.19,-749.89 674,-745.2 669.01,-745.4 669.01,-745.4 669.01,-745.4 674,-745.2 668.83,-740.9 679,-745 679,-745"/>
</g>
<!-- dependency180655&#45;&gt;choice1091011001059745108105981154710810598113117105991071161051091014549465046524511451 -->
<g id="edge31" class="edge">
<title>dependency180655:e&#45;&gt;choice1091011001059745108105981154710810598113117105991071161051091014549465046524511451:w</title>
<path fill="none" stroke="black" stroke-dasharray="1,5" d="M916,-745C1080.28,-745 863.81,-1461.2 1011.72,-1491.98"/>
<polygon fill="black" stroke="black" points="1022,-1493 1011.6,-1496.49 1017.02,-1492.51 1012.05,-1492.01 1012.05,-1492.01 1012.05,-1492.01 1017.02,-1492.51 1012.49,-1487.53 1022,-1493 1022,-1493"/>
</g>
<!-- dependency180656&#45;&gt;choice10910110010597451081059811547108105981001184549464846484511452 -->
<g id="edge32" class="edge">
<title>dependency180656:e&#45;&gt;choice10910110010597451081059811547108105981001184549464846484511452:w</title>
<path fill="none" stroke="black" stroke-dasharray="1,5" d="M916,-491C1081.35,-491 862.8,-1211.99 1011.66,-1242.97"/>
<polygon fill="black" stroke="black" points="1022,-1244 1011.6,-1247.49 1017.02,-1243.51 1012.05,-1243.01 1012.05,-1243.01 1012.05,-1243.01 1017.02,-1243.51 1012.49,-1238.53 1022,-1244 1022,-1244"/>
</g>
<!-- dependency180657&#45;&gt;choice10910110010597451081059811547108105981051019954495656514549465046484511449 -->
<g id="edge33" class="edge">
<title>dependency180657:e&#45;&gt;choice10910110010597451081059811547108105981051019954495656514549465046484511449:w</title>
<path fill="none" stroke="black" stroke-dasharray="1,5" d="M916,-355C1085.18,-355 858.92,-1093.74 1011.89,-1124.04"/>
<polygon fill="black" stroke="black" points="1022,-1125 1011.62,-1128.54 1017.02,-1124.53 1012.04,-1124.06 1012.04,-1124.06 1012.04,-1124.06 1017.02,-1124.53 1012.47,-1119.58 1022,-1125 1022,-1125"/>
</g>
<!-- dependency180658&#45;&gt;choice115121115451081059811547108105989711899495157524548465346524511450 -->
<g id="edge34" class="edge">
<title>dependency180658:e&#45;&gt;choice115121115451081059811547108105989711899495157524548465346524511450:w</title>
<path fill="none" stroke="black" stroke-dasharray="1,5" d="M916,-219C1079.2,-219 864.81,-930.42 1011.79,-960.99"/>
<polygon fill="black" stroke="black" points="1022,-962 1011.6,-965.49 1017.02,-961.51 1012.05,-961.01 1012.05,-961.01 1012.05,-961.01 1017.02,-961.51 1012.49,-956.53 1022,-962 1022,-962"/>
</g>
<!-- dependency180658&#45;&gt;choice115121115451081059811547108105989711899495157524548465346524511449 -->
<g id="edge35" class="edge">
<title>dependency180658:e&#45;&gt;choice115121115451081059811547108105989711899495157524548465346524511449:w</title>
<path fill="none" stroke="black" stroke-dasharray="1,5" d="M916,-219C1092.69,-219 851.56,-991.9 1011.93,-1022.09"/>
<polygon fill="black" stroke="black" points="1022,-1023 1011.64,-1026.58 1017.02,-1022.55 1012.04,-1022.1 1012.04,-1022.1 1012.04,-1022.1 1017.02,-1022.55 1012.44,-1017.62 1022,-1023 1022,-1023"/>
</g>
<!-- dependency180659&#45;&gt;choice1151211154510810598115471081059811497119495157524550464946504511449 -->
<g id="edge36" class="edge">
<title>dependency180659:e&#45;&gt;choice1151211154510810598115471081059811497119495157524550464946504511449:w</title>
<path fill="none" stroke="black" stroke-dasharray="1,5" d="M916,-83C1060.06,-83 883.38,-707.36 1011.78,-737.85"/>
<polygon fill="black" stroke="black" points="1022,-739 1011.56,-742.35 1017.03,-738.44 1012.06,-737.88 1012.06,-737.88 1012.06,-737.88 1017.03,-738.44 1012.57,-733.41 1022,-739 1022,-739"/>
</g>
<!-- dependency180659&#45;&gt;choice115121115451081059811547108105981149711949515752455046494650 -->
<g id="edge37" class="edge">
<title>dependency180659:e&#45;&gt;choice115121115451081059811547108105981149711949515752455046494650:w</title>
<path fill="none" stroke="black" stroke-dasharray="1,5" d="M916,-83C1095.72,-83 848.71,-869.36 1011.76,-900.08"/>
<polygon fill="black" stroke="black" points="1022,-901 1011.64,-904.58 1017.02,-900.55 1012.04,-900.1 1012.04,-900.1 1012.04,-900.1 1017.02,-900.55 1012.44,-895.62 1022,-901 1022,-901"/>
</g>
<!-- dependency180659&#45;&gt;choice115121115451081059811547108105981149711949515752455046494649 -->
<g id="edge38" class="edge">
<title>dependency180659:e&#45;&gt;choice115121115451081059811547108105981149711949515752455046494649:w</title>
<path fill="none" stroke="black" stroke-dasharray="1,5" d="M916,-83C1083.89,-83 860.14,-815.99 1011.96,-846.05"/>
<polygon fill="black" stroke="black" points="1022,-847 1011.62,-850.54 1017.02,-846.53 1012.04,-846.06 1012.04,-846.06 1012.04,-846.06 1017.02,-846.53 1012.47,-841.58 1022,-847 1022,-847"/>
</g>
<!-- dependency180659&#45;&gt;choice1151211154510810598115471081059811497119495157524550464946484511449 -->
<g id="edge39" class="edge">
<title>dependency180659:e&#45;&gt;choice1151211154510810598115471081059811497119495157524550464946484511449:w</title>
<path fill="none" stroke="black" stroke-dasharray="1,5" d="M916,-83C1071.94,-83 871.86,-761.46 1011.81,-791.94"/>
<polygon fill="black" stroke="black" points="1022,-793 1011.59,-796.44 1017.03,-792.48 1012.05,-791.97 1012.05,-791.97 1012.05,-791.97 1017.03,-792.48 1012.52,-787.49 1022,-793 1022,-793"/>
</g>
</g>
</svg>
