<?xml version="1.0" encoding="UTF-8" standalone="no"?>
<!DOCTYPE svg PUBLIC "-//W3C//DTD SVG 1.1//EN"
 "http://www.w3.org/Graphics/SVG/1.1/DTD/svg11.dtd">
<!-- Generated by graphviz version 2.41.20171026.1811 (20171026.1811)
 -->
<!-- Title: prolog Pages: 1 -->
<svg width="1068pt" height="796pt"
 viewBox="0.00 0.00 1068.00 796.00" xmlns="http://www.w3.org/2000/svg" xmlns:xlink="http://www.w3.org/1999/xlink">
<g id="graph0" class="graph" transform="scale(1 1) rotate(0) translate(4 792)">
<title>prolog</title>
<polygon fill="white" stroke="transparent" points="-4,4 -4,-792 1064,-792 1064,4 -4,4"/>
<g id="clust1" class="cluster">
<title>cluster_leftcol</title>
<polygon fill="none" stroke="gray" points="8,-311 8,-381 312,-381 312,-311 8,-311"/>
<text text-anchor="start" x="146.66" y="-370" font-family="Helvetica,sans-Serif" font-style="italic" font-size="10.00">ebuild</text>
</g>
<g id="clust2" class="cluster">
<title>cluster_midcol</title>
<polygon fill="none" stroke="gray" points="396,-23 396,-693 664,-693 664,-23 396,-23"/>
<text text-anchor="start" x="498.86" y="-682" font-family="Helvetica,sans-Serif" font-style="italic" font-size="10.00">dependencies</text>
</g>
<g id="clust4" class="cluster">
<title>cluster_compileandrun</title>
<polygon fill="#eeeeee" stroke="gray" points="404,-31 404,-667 656,-667 656,-31 404,-31"/>
<text text-anchor="start" x="494.42" y="-656" font-family="Helvetica,sans-Serif" font-style="italic" font-size="10.00">compile and run</text>
</g>
<g id="clust10" class="cluster">
<title>cluster_choices</title>
<polygon fill="none" stroke="gray" points="748,-8 748,-780 1052,-780 1052,-8 748,-8"/>
<text text-anchor="start" x="875.82" y="-769" font-family="Helvetica,sans-Serif" font-style="italic" font-size="10.00">candidates</text>
</g>
<!-- id -->
<g id="node1" class="node">
<title>id</title>
<g id="a_node1"><a xlink:href="../media-video/subtitleripper-0.3.4-r4.svg" xlink:title="media&#45;video/subtitleripper&#45;0.3.4&#45;r4">
<ellipse fill="none" stroke="red" cx="160" cy="-337" rx="144" ry="18"/>
<text text-anchor="middle" x="160" y="-334" font-family="Helvetica,sans-Serif" font-size="10.00">media&#45;video/subtitleripper&#45;0.3.4&#45;r4</text>
</a>
</g>
</g>
<!-- dependency396990 -->
<g id="node2" class="node">
<title>dependency396990</title>
<polygon fill="none" stroke="blue" points="420,-537 420,-637 525,-637 525,-537 420,-537"/>
<text text-anchor="start" x="450.82" y="-584" font-family="Helvetica,sans-Serif" font-size="10.00">pack_dep</text>
<polygon fill="none" stroke="blue" points="525,-617 525,-637 635,-637 635,-617 525,-617"/>
<text text-anchor="start" x="574.44" y="-624" font-family="Helvetica,sans-Serif" font-size="10.00">no</text>
<polygon fill="none" stroke="blue" points="525,-597 525,-617 635,-617 635,-597 525,-597"/>
<text text-anchor="start" x="561.93" y="-604" font-family="Helvetica,sans-Serif" font-size="10.00">app&#45;text</text>
<polygon fill="none" stroke="blue" points="525,-577 525,-597 635,-597 635,-577 525,-577"/>
<text text-anchor="start" x="570.27" y="-584" font-family="Helvetica,sans-Serif" font-size="10.00">gocr</text>
<polygon fill="none" stroke="blue" points="525,-557 525,-577 635,-577 635,-557 525,-557"/>
<text text-anchor="start" x="551.92" y="-564" font-family="Helvetica,sans-Serif" font-size="10.00">greaterequal</text>
<polygon fill="none" stroke="blue" points="525,-537 525,-557 635,-557 635,-537 525,-537"/>
<text text-anchor="start" x="570.27" y="-544" font-family="Helvetica,sans-Serif" font-size="10.00">0.39</text>
</g>
<!-- id&#45;&gt;dependency396990 -->
<g id="edge1" class="edge">
<title>id:e&#45;&gt;dependency396990:w</title>
<path fill="none" stroke="black" d="M305,-337C418.97,-337 304.59,-559.94 393.14,-584.76"/>
<ellipse fill="none" stroke="black" cx="407.03" cy="-586.5" rx="4" ry="4"/>
<polygon fill="black" stroke="black" points="403.06,-586.01 392.58,-589.23 398.1,-585.38 393.14,-584.76 393.14,-584.76 393.14,-584.76 398.1,-585.38 393.7,-580.3 403.06,-586.01 403.06,-586.01"/>
</g>
<!-- dependency396991 -->
<g id="node3" class="node">
<title>dependency396991</title>
<polygon fill="none" stroke="blue" points="420,-421 420,-511 525,-511 525,-421 420,-421"/>
<text text-anchor="start" x="450.82" y="-463" font-family="Helvetica,sans-Serif" font-size="10.00">pack_dep</text>
<polygon fill="none" stroke="blue" points="525,-491 525,-511 635,-511 635,-491 525,-491"/>
<text text-anchor="start" x="574.44" y="-498" font-family="Helvetica,sans-Serif" font-size="10.00">no</text>
<polygon fill="none" stroke="blue" points="525,-471 525,-491 635,-491 635,-471 525,-471"/>
<text text-anchor="start" x="557.21" y="-478" font-family="Helvetica,sans-Serif" font-size="10.00">media&#45;libs</text>
<polygon fill="none" stroke="blue" points="525,-451 525,-471 635,-471 635,-451 525,-451"/>
<text text-anchor="start" x="566.66" y="-458" font-family="Helvetica,sans-Serif" font-size="10.00">libpng</text>
<polygon fill="none" stroke="blue" points="525,-431 525,-451 635,-451 635,-431 525,-431"/>
<text text-anchor="start" x="568.88" y="-438" font-family="Helvetica,sans-Serif" font-size="10.00">none</text>
<polygon fill="none" stroke="blue" points="525,-421 525,-431 635,-431 635,-421 525,-421"/>
</g>
<!-- id&#45;&gt;dependency396991 -->
<g id="edge2" class="edge">
<title>id:e&#45;&gt;dependency396991:w</title>
<path fill="none" stroke="black" d="M305,-337C372.25,-337 343.72,-442.95 393.01,-462.81"/>
<ellipse fill="none" stroke="black" cx="407.06" cy="-465.3" rx="4" ry="4"/>
<polygon fill="black" stroke="black" points="403.12,-464.6 392.49,-467.29 398.2,-463.73 393.28,-462.86 393.28,-462.86 393.28,-462.86 398.2,-463.73 394.06,-458.43 403.12,-464.6 403.12,-464.6"/>
</g>
<!-- dependency396992 -->
<g id="node4" class="node">
<title>dependency396992</title>
<polygon fill="none" stroke="blue" points="420,-159 420,-259 525,-259 525,-159 420,-159"/>
<text text-anchor="start" x="450.82" y="-206" font-family="Helvetica,sans-Serif" font-size="10.00">pack_dep</text>
<polygon fill="none" stroke="blue" points="525,-239 525,-259 635,-259 635,-239 525,-239"/>
<text text-anchor="start" x="574.44" y="-246" font-family="Helvetica,sans-Serif" font-size="10.00">no</text>
<polygon fill="none" stroke="blue" points="525,-219 525,-239 635,-239 635,-219 525,-219"/>
<text text-anchor="start" x="557.21" y="-226" font-family="Helvetica,sans-Serif" font-size="10.00">media&#45;libs</text>
<polygon fill="none" stroke="blue" points="525,-199 525,-219 635,-219 635,-199 525,-199"/>
<text text-anchor="start" x="563.32" y="-206" font-family="Helvetica,sans-Serif" font-size="10.00">netpbm</text>
<polygon fill="none" stroke="blue" points="525,-179 525,-199 635,-199 635,-179 525,-179"/>
<text text-anchor="start" x="551.92" y="-186" font-family="Helvetica,sans-Serif" font-size="10.00">greaterequal</text>
<polygon fill="none" stroke="blue" points="525,-159 525,-179 635,-179 635,-159 525,-159"/>
<text text-anchor="start" x="563.32" y="-166" font-family="Helvetica,sans-Serif" font-size="10.00">10.41.0</text>
</g>
<!-- id&#45;&gt;dependency396992 -->
<g id="edge3" class="edge">
<title>id:e&#45;&gt;dependency396992:w</title>
<path fill="none" stroke="black" d="M305,-337C371.94,-337 343.94,-231.88 393.08,-212.16"/>
<ellipse fill="none" stroke="black" cx="407.06" cy="-209.7" rx="4" ry="4"/>
<polygon fill="black" stroke="black" points="403.12,-210.39 394.06,-216.56 398.2,-211.26 393.27,-212.13 393.27,-212.13 393.27,-212.13 398.2,-211.26 392.49,-207.7 403.12,-210.39 403.12,-210.39"/>
</g>
<!-- dependency396993 -->
<g id="node5" class="node">
<title>dependency396993</title>
<polygon fill="none" stroke="blue" points="420,-43 420,-133 525,-133 525,-43 420,-43"/>
<text text-anchor="start" x="450.82" y="-85" font-family="Helvetica,sans-Serif" font-size="10.00">pack_dep</text>
<polygon fill="none" stroke="blue" points="525,-113 525,-133 635,-133 635,-113 525,-113"/>
<text text-anchor="start" x="574.44" y="-120" font-family="Helvetica,sans-Serif" font-size="10.00">no</text>
<polygon fill="none" stroke="blue" points="525,-93 525,-113 635,-113 635,-93 525,-93"/>
<text text-anchor="start" x="563.33" y="-100" font-family="Helvetica,sans-Serif" font-size="10.00">sys&#45;libs</text>
<polygon fill="none" stroke="blue" points="525,-73 525,-93 635,-93 635,-73 525,-73"/>
<text text-anchor="start" x="572.5" y="-80" font-family="Helvetica,sans-Serif" font-size="10.00">zlib</text>
<polygon fill="none" stroke="blue" points="525,-53 525,-73 635,-73 635,-53 525,-53"/>
<text text-anchor="start" x="568.88" y="-60" font-family="Helvetica,sans-Serif" font-size="10.00">none</text>
<polygon fill="none" stroke="blue" points="525,-43 525,-53 635,-53 635,-43 525,-43"/>
</g>
<!-- id&#45;&gt;dependency396993 -->
<g id="edge4" class="edge">
<title>id:e&#45;&gt;dependency396993:w</title>
<path fill="none" stroke="black" d="M305,-337C418.46,-337 305.15,-115.41 392.92,-90.31"/>
<ellipse fill="none" stroke="black" cx="407.03" cy="-88.51" rx="4" ry="4"/>
<polygon fill="black" stroke="black" points="403.06,-89.01 393.71,-94.74 398.1,-89.65 393.14,-90.28 393.14,-90.28 393.14,-90.28 398.1,-89.65 392.58,-85.81 403.06,-89.01 403.06,-89.01"/>
</g>
<!-- choice971121124511610112011647103111991144548465257 -->
<g id="node6" class="node">
<title>choice971121124511610112011647103111991144548465257</title>
<g id="a_node6"><a xlink:href="../app-text/gocr-0.49.svg" xlink:title="app&#45;text/gocr&#45;0.49">
<ellipse fill="none" stroke="red" cx="900" cy="-736" rx="144" ry="18"/>
<text text-anchor="middle" x="900" y="-733" font-family="Helvetica,sans-Serif" font-size="10.00">app&#45;text/gocr&#45;0.49</text>
</a>
</g>
</g>
<!-- dependency396990&#45;&gt;choice971121124511610112011647103111991144548465257 -->
<g id="edge5" class="edge">
<title>dependency396990:e&#45;&gt;choice971121124511610112011647103111991144548465257:w</title>
<path fill="none" stroke="black" stroke-dasharray="1,5" d="M649,-587C726.62,-587 678.53,-722.91 744.86,-735.12"/>
<polygon fill="black" stroke="black" points="755,-736 744.65,-739.62 750.02,-735.57 745.04,-735.14 745.04,-735.14 745.04,-735.14 750.02,-735.57 745.42,-730.66 755,-736 755,-736"/>
</g>
<!-- choice971121124511610112011647103111991144548465348 -->
<g id="node7" class="node">
<title>choice971121124511610112011647103111991144548465348</title>
<g id="a_node7"><a xlink:href="../app-text/gocr-0.50.svg" xlink:title="app&#45;text/gocr&#45;0.50">
<ellipse fill="none" stroke="red" cx="900" cy="-682" rx="144" ry="18"/>
<text text-anchor="middle" x="900" y="-679" font-family="Helvetica,sans-Serif" font-size="10.00">app&#45;text/gocr&#45;0.50</text>
</a>
</g>
</g>
<!-- dependency396990&#45;&gt;choice971121124511610112011647103111991144548465348 -->
<g id="edge6" class="edge">
<title>dependency396990:e&#45;&gt;choice971121124511610112011647103111991144548465348:w</title>
<path fill="none" stroke="black" stroke-dasharray="1,5" d="M649,-587C708.68,-587 693.79,-671.54 745.03,-681.12"/>
<polygon fill="black" stroke="black" points="755,-682 744.64,-685.6 750.02,-681.56 745.04,-681.12 745.04,-681.12 745.04,-681.12 750.02,-681.56 745.43,-676.64 755,-682 755,-682"/>
</g>
<!-- choice109101100105974510810598115471081059811211010345494650465355 -->
<g id="node8" class="node">
<title>choice109101100105974510810598115471081059811211010345494650465355</title>
<g id="a_node8"><a xlink:href="../media-libs/libpng-1.2.57.svg" xlink:title="media&#45;libs/libpng&#45;1.2.57">
<ellipse fill="none" stroke="red" cx="900" cy="-628" rx="144" ry="18"/>
<text text-anchor="middle" x="900" y="-625" font-family="Helvetica,sans-Serif" font-size="10.00">media&#45;libs/libpng&#45;1.2.57</text>
</a>
</g>
</g>
<!-- dependency396991&#45;&gt;choice109101100105974510810598115471081059811211010345494650465355 -->
<g id="edge7" class="edge">
<title>dependency396991:e&#45;&gt;choice109101100105974510810598115471081059811211010345494650465355:w</title>
<path fill="none" stroke="black" stroke-dasharray="1,5" d="M649,-466C731.35,-466 674.36,-614.38 744.73,-627.13"/>
<polygon fill="black" stroke="black" points="755,-628 744.66,-631.64 750.02,-627.58 745.04,-627.15 745.04,-627.15 745.04,-627.15 750.02,-627.58 745.42,-622.67 755,-628 755,-628"/>
</g>
<!-- choice109101100105974510810598115471081059811211010345494653465056 -->
<g id="node9" class="node">
<title>choice109101100105974510810598115471081059811211010345494653465056</title>
<g id="a_node9"><a xlink:href="../media-libs/libpng-1.5.28.svg" xlink:title="media&#45;libs/libpng&#45;1.5.28">
<ellipse fill="none" stroke="red" cx="900" cy="-574" rx="144" ry="18"/>
<text text-anchor="middle" x="900" y="-571" font-family="Helvetica,sans-Serif" font-size="10.00">media&#45;libs/libpng&#45;1.5.28</text>
</a>
</g>
</g>
<!-- dependency396991&#45;&gt;choice109101100105974510810598115471081059811211010345494653465056 -->
<g id="edge8" class="edge">
<title>dependency396991:e&#45;&gt;choice109101100105974510810598115471081059811211010345494653465056:w</title>
<path fill="none" stroke="black" stroke-dasharray="1,5" d="M649,-466C712.58,-466 690.58,-562.51 744.79,-573.07"/>
<polygon fill="black" stroke="black" points="755,-574 744.63,-577.57 750.02,-573.54 745.04,-573.09 745.04,-573.09 745.04,-573.09 750.02,-573.54 745.45,-568.61 755,-574 755,-574"/>
</g>
<!-- choice109101100105974510810598115471081059811211010345494654465055 -->
<g id="node10" class="node">
<title>choice109101100105974510810598115471081059811211010345494654465055</title>
<g id="a_node10"><a xlink:href="../media-libs/libpng-1.6.27.svg" xlink:title="media&#45;libs/libpng&#45;1.6.27">
<ellipse fill="none" stroke="red" cx="900" cy="-520" rx="144" ry="18"/>
<text text-anchor="middle" x="900" y="-517" font-family="Helvetica,sans-Serif" font-size="10.00">media&#45;libs/libpng&#45;1.6.27</text>
</a>
</g>
</g>
<!-- dependency396991&#45;&gt;choice109101100105974510810598115471081059811211010345494654465055 -->
<g id="edge9" class="edge">
<title>dependency396991:e&#45;&gt;choice109101100105974510810598115471081059811211010345494654465055:w</title>
<path fill="none" stroke="black" stroke-dasharray="1,5" d="M649,-466C698.26,-466 701.85,-512.87 744.86,-519.28"/>
<polygon fill="black" stroke="black" points="755,-520 744.71,-523.78 750.01,-519.64 745.03,-519.29 745.03,-519.29 745.03,-519.29 750.01,-519.64 745.35,-514.8 755,-520 755,-520"/>
</g>
<!-- choice109101100105974510810598115471081059811211010345494654465057 -->
<g id="node11" class="node">
<title>choice109101100105974510810598115471081059811211010345494654465057</title>
<g id="a_node11"><a xlink:href="../media-libs/libpng-1.6.29.svg" xlink:title="media&#45;libs/libpng&#45;1.6.29">
<ellipse fill="none" stroke="red" cx="900" cy="-466" rx="144" ry="18"/>
<text text-anchor="middle" x="900" y="-463" font-family="Helvetica,sans-Serif" font-size="10.00">media&#45;libs/libpng&#45;1.6.29</text>
</a>
</g>
</g>
<!-- dependency396991&#45;&gt;choice109101100105974510810598115471081059811211010345494654465057 -->
<g id="edge10" class="edge">
<title>dependency396991:e&#45;&gt;choice109101100105974510810598115471081059811211010345494654465057:w</title>
<path fill="none" stroke="black" stroke-dasharray="1,5" d="M649,-466C692.43,-466 705.83,-466 744.57,-466"/>
<polygon fill="black" stroke="black" points="755,-466 745,-470.5 750,-466 745,-466 745,-466 745,-466 750,-466 745,-461.5 755,-466 755,-466"/>
</g>
<!-- choice109101100105974510810598115471081059811211010345494654465149 -->
<g id="node12" class="node">
<title>choice109101100105974510810598115471081059811211010345494654465149</title>
<g id="a_node12"><a xlink:href="../media-libs/libpng-1.6.31.svg" xlink:title="media&#45;libs/libpng&#45;1.6.31">
<ellipse fill="none" stroke="red" cx="900" cy="-412" rx="144" ry="18"/>
<text text-anchor="middle" x="900" y="-409" font-family="Helvetica,sans-Serif" font-size="10.00">media&#45;libs/libpng&#45;1.6.31</text>
</a>
</g>
</g>
<!-- dependency396991&#45;&gt;choice109101100105974510810598115471081059811211010345494654465149 -->
<g id="edge11" class="edge">
<title>dependency396991:e&#45;&gt;choice109101100105974510810598115471081059811211010345494654465149:w</title>
<path fill="none" stroke="black" stroke-dasharray="1,5" d="M649,-466C698.26,-466 701.85,-419.13 744.86,-412.72"/>
<polygon fill="black" stroke="black" points="755,-412 745.35,-417.2 750.01,-412.36 745.03,-412.71 745.03,-412.71 745.03,-412.71 750.01,-412.36 744.71,-408.22 755,-412 755,-412"/>
</g>
<!-- choice109101100105974510810598115471081059811211010345494654465150 -->
<g id="node13" class="node">
<title>choice109101100105974510810598115471081059811211010345494654465150</title>
<g id="a_node13"><a xlink:href="../media-libs/libpng-1.6.32.svg" xlink:title="media&#45;libs/libpng&#45;1.6.32">
<ellipse fill="none" stroke="red" cx="900" cy="-358" rx="144" ry="18"/>
<text text-anchor="middle" x="900" y="-355" font-family="Helvetica,sans-Serif" font-size="10.00">media&#45;libs/libpng&#45;1.6.32</text>
</a>
</g>
</g>
<!-- dependency396991&#45;&gt;choice109101100105974510810598115471081059811211010345494654465150 -->
<g id="edge12" class="edge">
<title>dependency396991:e&#45;&gt;choice109101100105974510810598115471081059811211010345494654465150:w</title>
<path fill="none" stroke="black" stroke-dasharray="1,5" d="M649,-466C712.58,-466 690.58,-369.49 744.79,-358.93"/>
<polygon fill="black" stroke="black" points="755,-358 745.45,-363.39 750.02,-358.46 745.04,-358.91 745.04,-358.91 745.04,-358.91 750.02,-358.46 744.63,-354.43 755,-358 755,-358"/>
</g>
<!-- choice109101100105974510810598115471081059811211010345494654465152 -->
<g id="node14" class="node">
<title>choice109101100105974510810598115471081059811211010345494654465152</title>
<g id="a_node14"><a xlink:href="../media-libs/libpng-1.6.34.svg" xlink:title="media&#45;libs/libpng&#45;1.6.34">
<ellipse fill="none" stroke="red" cx="900" cy="-304" rx="144" ry="18"/>
<text text-anchor="middle" x="900" y="-301" font-family="Helvetica,sans-Serif" font-size="10.00">media&#45;libs/libpng&#45;1.6.34</text>
</a>
</g>
</g>
<!-- dependency396991&#45;&gt;choice109101100105974510810598115471081059811211010345494654465152 -->
<g id="edge13" class="edge">
<title>dependency396991:e&#45;&gt;choice109101100105974510810598115471081059811211010345494654465152:w</title>
<path fill="none" stroke="black" stroke-dasharray="1,5" d="M649,-466C731.35,-466 674.36,-317.62 744.73,-304.87"/>
<polygon fill="black" stroke="black" points="755,-304 745.42,-309.33 750.02,-304.42 745.04,-304.85 745.04,-304.85 745.04,-304.85 750.02,-304.42 744.66,-300.36 755,-304 755,-304"/>
</g>
<!-- choice1091011001059745108105981154711010111611298109454948465454464848 -->
<g id="node15" class="node">
<title>choice1091011001059745108105981154711010111611298109454948465454464848</title>
<g id="a_node15"><a xlink:href="../media-libs/netpbm-10.66.00.svg" xlink:title="media&#45;libs/netpbm&#45;10.66.00">
<ellipse fill="none" stroke="red" cx="900" cy="-250" rx="144" ry="18"/>
<text text-anchor="middle" x="900" y="-247" font-family="Helvetica,sans-Serif" font-size="10.00">media&#45;libs/netpbm&#45;10.66.00</text>
</a>
</g>
</g>
<!-- dependency396992&#45;&gt;choice1091011001059745108105981154711010111611298109454948465454464848 -->
<g id="edge14" class="edge">
<title>dependency396992:e&#45;&gt;choice1091011001059745108105981154711010111611298109454948465454464848:w</title>
<path fill="none" stroke="black" stroke-dasharray="1,5" d="M649,-209C695.96,-209 703.56,-244.44 744.99,-249.42"/>
<polygon fill="black" stroke="black" points="755,-250 744.76,-253.91 750.01,-249.71 745.02,-249.42 745.02,-249.42 745.02,-249.42 750.01,-249.71 745.28,-244.93 755,-250 755,-250"/>
</g>
<!-- choice1091011001059745108105981154711010111611298109454948465548464848 -->
<g id="node16" class="node">
<title>choice1091011001059745108105981154711010111611298109454948465548464848</title>
<g id="a_node16"><a xlink:href="../media-libs/netpbm-10.70.00.svg" xlink:title="media&#45;libs/netpbm&#45;10.70.00">
<ellipse fill="none" stroke="red" cx="900" cy="-196" rx="144" ry="18"/>
<text text-anchor="middle" x="900" y="-193" font-family="Helvetica,sans-Serif" font-size="10.00">media&#45;libs/netpbm&#45;10.70.00</text>
</a>
</g>
</g>
<!-- dependency396992&#45;&gt;choice1091011001059745108105981154711010111611298109454948465548464848 -->
<g id="edge15" class="edge">
<title>dependency396992:e&#45;&gt;choice1091011001059745108105981154711010111611298109454948465548464848:w</title>
<path fill="none" stroke="black" stroke-dasharray="1,5" d="M649,-209C692.76,-209 705.58,-197.95 744.51,-196.23"/>
<polygon fill="black" stroke="black" points="755,-196 745.1,-200.71 750,-196.11 745,-196.22 745,-196.22 745,-196.22 750,-196.11 744.91,-191.72 755,-196 755,-196"/>
</g>
<!-- choice1091011001059745108105981154711010111611298109454948465554464848 -->
<g id="node17" class="node">
<title>choice1091011001059745108105981154711010111611298109454948465554464848</title>
<g id="a_node17"><a xlink:href="../media-libs/netpbm-10.76.00.svg" xlink:title="media&#45;libs/netpbm&#45;10.76.00">
<ellipse fill="none" stroke="red" cx="900" cy="-142" rx="144" ry="18"/>
<text text-anchor="middle" x="900" y="-139" font-family="Helvetica,sans-Serif" font-size="10.00">media&#45;libs/netpbm&#45;10.76.00</text>
</a>
</g>
</g>
<!-- dependency396992&#45;&gt;choice1091011001059745108105981154711010111611298109454948465554464848 -->
<g id="edge16" class="edge">
<title>dependency396992:e&#45;&gt;choice1091011001059745108105981154711010111611298109454948465554464848:w</title>
<path fill="none" stroke="black" stroke-dasharray="1,5" d="M649,-209C701.14,-209 699.72,-150.36 744.95,-142.8"/>
<polygon fill="black" stroke="black" points="755,-142 745.39,-147.28 750.02,-142.4 745.03,-142.79 745.03,-142.79 745.03,-142.79 750.02,-142.4 744.67,-138.31 755,-142 755,-142"/>
</g>
<!-- choice1151211154510810598115471221081059845494650464949 -->
<g id="node18" class="node">
<title>choice1151211154510810598115471221081059845494650464949</title>
<g id="a_node18"><a xlink:href="../sys-libs/zlib-1.2.11.svg" xlink:title="sys&#45;libs/zlib&#45;1.2.11">
<ellipse fill="none" stroke="red" cx="900" cy="-88" rx="144" ry="18"/>
<text text-anchor="middle" x="900" y="-85" font-family="Helvetica,sans-Serif" font-size="10.00">sys&#45;libs/zlib&#45;1.2.11</text>
</a>
</g>
</g>
<!-- dependency396993&#45;&gt;choice1151211154510810598115471221081059845494650464949 -->
<g id="edge17" class="edge">
<title>dependency396993:e&#45;&gt;choice1151211154510810598115471221081059845494650464949:w</title>
<path fill="none" stroke="black" stroke-dasharray="1,5" d="M649,-88C692.43,-88 705.83,-88 744.57,-88"/>
<polygon fill="black" stroke="black" points="755,-88 745,-92.5 750,-88 745,-88 745,-88 745,-88 750,-88 745,-83.5 755,-88 755,-88"/>
</g>
<!-- choice11512111545108105981154712210810598454946504649494511449 -->
<g id="node19" class="node">
<title>choice11512111545108105981154712210810598454946504649494511449</title>
<g id="a_node19"><a xlink:href="../sys-libs/zlib-1.2.11-r1.svg" xlink:title="sys&#45;libs/zlib&#45;1.2.11&#45;r1">
<ellipse fill="none" stroke="red" cx="900" cy="-34" rx="144" ry="18"/>
<text text-anchor="middle" x="900" y="-31" font-family="Helvetica,sans-Serif" font-size="10.00">sys&#45;libs/zlib&#45;1.2.11&#45;r1</text>
</a>
</g>
</g>
<!-- dependency396993&#45;&gt;choice11512111545108105981154712210810598454946504649494511449 -->
<g id="edge18" class="edge">
<title>dependency396993:e&#45;&gt;choice11512111545108105981154712210810598454946504649494511449:w</title>
<path fill="none" stroke="black" stroke-dasharray="1,5" d="M649,-88C698.26,-88 701.85,-41.13 744.86,-34.72"/>
<polygon fill="black" stroke="black" points="755,-34 745.35,-39.2 750.01,-34.36 745.03,-34.71 745.03,-34.71 745.03,-34.71 750.01,-34.36 744.71,-30.22 755,-34 755,-34"/>
</g>
</g>
</svg>
