<?xml version="1.0" encoding="UTF-8" standalone="no"?>
<!DOCTYPE svg PUBLIC "-//W3C//DTD SVG 1.1//EN"
 "http://www.w3.org/Graphics/SVG/1.1/DTD/svg11.dtd">
<!-- Generated by graphviz version 9.0.0 (20230911.1827)
 -->
<!-- Title: prolog Pages: 1 -->
<svg width="1075pt" height="1508pt"
 viewBox="0.00 0.00 1075.00 1508.00" xmlns="http://www.w3.org/2000/svg" xmlns:xlink="http://www.w3.org/1999/xlink">
<g id="graph0" class="graph" transform="scale(1 1) rotate(0) translate(4 1504)">
<title>prolog</title>
<polygon fill="white" stroke="none" points="-4,4 -4,-1504 1071,-1504 1071,4 -4,4"/>
<g id="clust14" class="cluster">
<title>cluster_choices</title>
<polygon fill="none" stroke="gray" points="755,-8 755,-1492 1059,-1492 1059,-8 755,-8"/>
<text text-anchor="start" x="883.38" y="-1479.5" font-family="Helvetica,sans-Serif" font-style="italic" font-size="10.00">candidates</text>
</g>
<g id="clust2" class="cluster">
<title>cluster_midcol</title>
<polygon fill="none" stroke="gray" points="8,-596 8,-852 671,-852 671,-596 8,-596"/>
<text text-anchor="start" x="309.5" y="-839.5" font-family="Helvetica,sans-Serif" font-style="italic" font-size="10.00">dependencies</text>
</g>
<g id="clust3" class="cluster">
<title>cluster_compile</title>
<polygon fill="#eeeeee" stroke="gray" points="16,-645 16,-716 320,-716 320,-645 16,-645"/>
<text text-anchor="start" x="151.12" y="-703.5" font-family="Helvetica,sans-Serif" font-style="italic" font-size="10.00">compile</text>
</g>
<g id="clust6" class="cluster">
<title>cluster_run</title>
<polygon fill="#eeeeee" stroke="gray" points="412,-604 412,-825 663,-825 663,-604 412,-604"/>
<text text-anchor="start" x="530.75" y="-812.5" font-family="Helvetica,sans-Serif" font-style="italic" font-size="10.00">run</text>
</g>
<!-- id -->
<g id="node1" class="node">
<title>id</title>
<g id="a_node1"><a xlink:href="../app-portage/esearch-1.3-r3.svg" xlink:title="portage://app&#45;portage/esearch&#45;1.3&#45;r3">
<ellipse fill="none" stroke="red" cx="168" cy="-671" rx="144" ry="18"/>
<text text-anchor="middle" x="168" y="-667.12" font-family="Helvetica,sans-Serif" font-size="10.00">portage://app&#45;portage/esearch&#45;1.3&#45;r3</text>
</a>
</g>
</g>
<!-- dependency48995 -->
<g id="node2" class="node">
<title>dependency48995</title>
<polygon fill="none" stroke="blue" points="797,-151.5 797,-256.5 901,-256.5 901,-151.5 797,-151.5"/>
<text text-anchor="start" x="828" y="-200.12" font-family="Helvetica,sans-Serif" font-size="10.00">pack_dep</text>
<polygon fill="none" stroke="blue" points="901,-235.5 901,-256.5 1011,-256.5 1011,-235.5 901,-235.5"/>
<text text-anchor="start" x="950.75" y="-242" font-family="Helvetica,sans-Serif" font-size="10.00">no</text>
<polygon fill="none" stroke="blue" points="901,-214.5 901,-235.5 1011,-235.5 1011,-214.5 901,-214.5"/>
<text text-anchor="start" x="936.12" y="-221" font-family="Helvetica,sans-Serif" font-size="10.00">sys&#45;apps</text>
<polygon fill="none" stroke="blue" points="901,-193.5 901,-214.5 1011,-214.5 1011,-193.5 901,-193.5"/>
<text text-anchor="start" x="939.88" y="-200" font-family="Helvetica,sans-Serif" font-size="10.00">portage</text>
<polygon fill="none" stroke="blue" points="901,-172.5 901,-193.5 1011,-193.5 1011,-172.5 901,-172.5"/>
<text text-anchor="start" x="945.5" y="-179" font-family="Helvetica,sans-Serif" font-size="10.00">none</text>
<polygon fill="none" stroke="blue" points="901,-151.5 901,-172.5 1011,-172.5 1011,-151.5 901,-151.5"/>
<text text-anchor="start" x="950" y="-158" font-family="Helvetica,sans-Serif" font-size="10.00">[,,]</text>
</g>
<!-- id&#45;&gt;dependency48995 -->
<g id="edge1" class="edge">
<title>id:e&#45;&gt;dependency48995:w</title>
<path fill="none" stroke="black" d="M538.5,-204C630.45,-149.08 674.08,-200.25 776.86,-203.81"/>
<polygon fill="black" stroke="black" points="786.78,-203.98 776.71,-208.31 783,-203.91 776.78,-203.81 776.78,-203.81 776.78,-203.81 783,-203.91 776.86,-199.31 786.78,-203.98"/>
</g>
<!-- dependency48996 -->
<g id="node3" class="node">
<title>dependency48996</title>
<polygon fill="none" stroke="red" points="428,-616 428,-658 517,-658 517,-616 428,-616"/>
<text text-anchor="start" x="438.75" y="-633.12" font-family="Helvetica,sans-Serif" font-size="10.00">use_conditional</text>
<polygon fill="none" stroke="red" points="517,-637 517,-658 647,-658 647,-637 517,-637"/>
<text text-anchor="start" x="565.12" y="-643.5" font-family="Helvetica,sans-Serif" font-size="10.00">positive</text>
<polygon fill="none" stroke="red" points="517,-616 517,-637 647,-637 647,-616 517,-616"/>
<text text-anchor="start" x="522" y="-622.5" font-family="Helvetica,sans-Serif" font-size="10.00">python_targets_python3_10</text>
</g>
<!-- id&#45;&gt;dependency48996 -->
<g id="edge3" class="edge">
<title>id:e&#45;&gt;dependency48996:w</title>
<path fill="none" stroke="black" d="M313,-671C359.58,-671 368.76,-641.12 410.66,-637.38"/>
<ellipse fill="none" stroke="black" cx="415" cy="-637.19" rx="4" ry="4"/>
</g>
<!-- dependency48998 -->
<g id="node5" class="node">
<title>dependency48998</title>
<polygon fill="none" stroke="red" points="428,-752 428,-794 517,-794 517,-752 428,-752"/>
<text text-anchor="start" x="438.75" y="-769.12" font-family="Helvetica,sans-Serif" font-size="10.00">use_conditional</text>
<polygon fill="none" stroke="red" points="517,-773 517,-794 647,-794 647,-773 517,-773"/>
<text text-anchor="start" x="565.12" y="-779.5" font-family="Helvetica,sans-Serif" font-size="10.00">positive</text>
<polygon fill="none" stroke="red" points="517,-752 517,-773 647,-773 647,-752 517,-752"/>
<text text-anchor="start" x="522" y="-758.5" font-family="Helvetica,sans-Serif" font-size="10.00">python_targets_python3_11</text>
</g>
<!-- id&#45;&gt;dependency48998 -->
<g id="edge5" class="edge">
<title>id:e&#45;&gt;dependency48998:w</title>
<path fill="none" stroke="black" d="M313,-671C375.47,-671 356.07,-763.66 410.86,-772.35"/>
<ellipse fill="none" stroke="black" cx="415.01" cy="-772.66" rx="4" ry="4"/>
</g>
<!-- dependency49000 -->
<g id="node7" class="node">
<title>dependency49000</title>
<polygon fill="none" stroke="red" points="428,-684 428,-726 517,-726 517,-684 428,-684"/>
<text text-anchor="start" x="438.75" y="-701.12" font-family="Helvetica,sans-Serif" font-size="10.00">use_conditional</text>
<polygon fill="none" stroke="red" points="517,-705 517,-726 647,-726 647,-705 517,-705"/>
<text text-anchor="start" x="565.12" y="-711.5" font-family="Helvetica,sans-Serif" font-size="10.00">positive</text>
<polygon fill="none" stroke="red" points="517,-684 517,-705 647,-705 647,-684 517,-684"/>
<text text-anchor="start" x="522" y="-690.5" font-family="Helvetica,sans-Serif" font-size="10.00">python_targets_python3_12</text>
</g>
<!-- id&#45;&gt;dependency49000 -->
<g id="edge7" class="edge">
<title>id:e&#45;&gt;dependency49000:w</title>
<path fill="none" stroke="black" d="M313,-671C359.58,-671 368.76,-700.88 410.66,-704.62"/>
<ellipse fill="none" stroke="black" cx="415" cy="-704.81" rx="4" ry="4"/>
</g>
<!-- dependency49002 -->
<g id="node9" class="node">
<title>dependency49002</title>
<polygon fill="none" stroke="blue" points="797,-20.5 797,-125.5 901,-125.5 901,-20.5 797,-20.5"/>
<text text-anchor="start" x="828" y="-69.12" font-family="Helvetica,sans-Serif" font-size="10.00">pack_dep</text>
<polygon fill="none" stroke="blue" points="901,-104.5 901,-125.5 1011,-125.5 1011,-104.5 901,-104.5"/>
<text text-anchor="start" x="950.75" y="-111" font-family="Helvetica,sans-Serif" font-size="10.00">no</text>
<polygon fill="none" stroke="blue" points="901,-83.5 901,-104.5 1011,-104.5 1011,-83.5 901,-83.5"/>
<text text-anchor="start" x="936.12" y="-90" font-family="Helvetica,sans-Serif" font-size="10.00">sys&#45;apps</text>
<polygon fill="none" stroke="blue" points="901,-62.5 901,-83.5 1011,-83.5 1011,-62.5 901,-62.5"/>
<text text-anchor="start" x="939.88" y="-69" font-family="Helvetica,sans-Serif" font-size="10.00">portage</text>
<polygon fill="none" stroke="blue" points="901,-41.5 901,-62.5 1011,-62.5 1011,-41.5 901,-41.5"/>
<text text-anchor="start" x="945.5" y="-48" font-family="Helvetica,sans-Serif" font-size="10.00">none</text>
<polygon fill="none" stroke="blue" points="901,-20.5 901,-41.5 1011,-41.5 1011,-20.5 901,-20.5"/>
<text text-anchor="start" x="950" y="-27" font-family="Helvetica,sans-Serif" font-size="10.00">[,,]</text>
</g>
<!-- id&#45;&gt;dependency49002 -->
<g id="edge8" class="edge">
<title>id:e&#45;&gt;dependency49002:w</title>
<path fill="none" stroke="black" d="M538.5,-204C643.4,-141.34 661.88,-76.26 779.02,-73.12"/>
<ellipse fill="none" stroke="black" cx="783.5" cy="-73.06" rx="4" ry="4"/>
<path fill="none" stroke="black" d="M313,-671C428.05,-671 437.73,-263 536.5,-204"/>
</g>
<!-- choice11512111545971121121154711211111411697103101455146484654494511449 -->
<g id="node10" class="node">
<title>choice11512111545971121121154711211111411697103101455146484654494511449</title>
<g id="a_node10"><a xlink:href="../sys-apps/portage-3.0.61-r1.svg" xlink:title="portage://sys&#45;apps/portage&#45;3.0.61&#45;r1">
<ellipse fill="none" stroke="red" cx="907" cy="-405" rx="144" ry="18"/>
<text text-anchor="middle" x="907" y="-401.12" font-family="Helvetica,sans-Serif" font-size="10.00">portage://sys&#45;apps/portage&#45;3.0.61&#45;r1</text>
</a>
</g>
</g>
<!-- dependency48995&#45;&gt;choice11512111545971121121154711211111411697103101455146484654494511449 -->
<g id="edge9" class="edge">
<title>dependency48995:e&#45;&gt;choice11512111545971121121154711211111411697103101455146484654494511449:w</title>
<path fill="none" stroke="black" stroke-dasharray="1,5" d="M1026,-204C1051.12,-204 1042.6,-242.59 1025,-260.5 1000.66,-285.27 734.83,-251.99 713,-279 677.59,-322.81 698.83,-395.22 751.13,-404.1"/>
<polygon fill="black" stroke="black" points="760.79,-404.9 750.45,-408.56 757.02,-404.59 750.82,-404.07 750.82,-404.07 750.82,-404.07 757.02,-404.59 751.19,-399.59 760.79,-404.9"/>
</g>
<!-- choice11512111545971121121154711211111411697103101455146484654514511449 -->
<g id="node11" class="node">
<title>choice11512111545971121121154711211111411697103101455146484654514511449</title>
<g id="a_node11"><a xlink:href="../sys-apps/portage-3.0.63-r1.svg" xlink:title="portage://sys&#45;apps/portage&#45;3.0.63&#45;r1">
<ellipse fill="none" stroke="red" cx="907" cy="-351" rx="144" ry="18"/>
<text text-anchor="middle" x="907" y="-347.12" font-family="Helvetica,sans-Serif" font-size="10.00">portage://sys&#45;apps/portage&#45;3.0.63&#45;r1</text>
</a>
</g>
</g>
<!-- dependency48995&#45;&gt;choice11512111545971121121154711211111411697103101455146484654514511449 -->
<g id="edge10" class="edge">
<title>dependency48995:e&#45;&gt;choice11512111545971121121154711211111411697103101455146484654514511449:w</title>
<path fill="none" stroke="black" stroke-dasharray="1,5" d="M1026,-204C1051.12,-204 1042.6,-242.59 1025,-260.5 1000.66,-285.27 734.83,-251.99 713,-279 690.95,-306.28 717.32,-343.25 751.27,-349.94"/>
<polygon fill="black" stroke="black" points="760.79,-350.88 750.39,-354.38 757.02,-350.51 750.84,-349.9 750.84,-349.9 750.84,-349.9 757.02,-350.51 751.28,-345.42 760.79,-350.88"/>
</g>
<!-- choice11512111545971121121154711211111411697103101455146484654524511451 -->
<g id="node12" class="node">
<title>choice11512111545971121121154711211111411697103101455146484654524511451</title>
<g id="a_node12"><a xlink:href="../sys-apps/portage-3.0.64-r3.svg" xlink:title="portage://sys&#45;apps/portage&#45;3.0.64&#45;r3">
<ellipse fill="none" stroke="red" cx="907" cy="-297" rx="144" ry="18"/>
<text text-anchor="middle" x="907" y="-293.12" font-family="Helvetica,sans-Serif" font-size="10.00">portage://sys&#45;apps/portage&#45;3.0.64&#45;r3</text>
</a>
</g>
</g>
<!-- dependency48995&#45;&gt;choice11512111545971121121154711211111411697103101455146484654524511451 -->
<g id="edge11" class="edge">
<title>dependency48995:e&#45;&gt;choice11512111545971121121154711211111411697103101455146484654524511451:w</title>
<path fill="none" stroke="black" stroke-dasharray="1,5" d="M758.37,-286.45C759.4,-283.7 761.07,-280.96 763,-279 803.96,-237.42 984.83,-302.85 1025,-260.5 1042.28,-242.28 1051.12,-204 1026,-204"/>
<polygon fill="black" stroke="black" points="761.6,-295.85 754.09,-287.86 760.37,-292.27 758.34,-286.39 758.34,-286.39 758.34,-286.39 760.37,-292.27 762.6,-284.93 761.6,-295.85"/>
</g>
<!-- choice1151211154597112112115471121111141169710310145514648465453 -->
<g id="node13" class="node">
<title>choice1151211154597112112115471121111141169710310145514648465453</title>
<g id="a_node13"><a xlink:href="../sys-apps/portage-3.0.65.svg" xlink:title="portage://sys&#45;apps/portage&#45;3.0.65">
<ellipse fill="none" stroke="red" cx="907" cy="-513" rx="144" ry="18"/>
<text text-anchor="middle" x="907" y="-509.12" font-family="Helvetica,sans-Serif" font-size="10.00">portage://sys&#45;apps/portage&#45;3.0.65</text>
</a>
</g>
</g>
<!-- dependency48995&#45;&gt;choice1151211154597112112115471121111141169710310145514648465453 -->
<g id="edge12" class="edge">
<title>dependency48995:e&#45;&gt;choice1151211154597112112115471121111141169710310145514648465453:w</title>
<path fill="none" stroke="black" stroke-dasharray="1,5" d="M1026,-204C1051.12,-204 1042.6,-242.59 1025,-260.5 1000.66,-285.27 734.83,-251.99 713,-279 657.68,-347.43 673.26,-398.49 713,-477 723.39,-497.53 732.02,-509.2 751.04,-512.21"/>
<polygon fill="black" stroke="black" points="760.78,-512.91 750.49,-516.68 757.01,-512.64 750.81,-512.2 750.81,-512.2 750.81,-512.2 757.01,-512.64 751.13,-507.71 760.78,-512.91"/>
</g>
<!-- choice115121115459711211211547112111114116971031014557575757 -->
<g id="node14" class="node">
<title>choice115121115459711211211547112111114116971031014557575757</title>
<g id="a_node14"><a xlink:href="../sys-apps/portage-9999.svg" xlink:title="portage://sys&#45;apps/portage&#45;9999">
<ellipse fill="none" stroke="red" cx="907" cy="-459" rx="144" ry="18"/>
<text text-anchor="middle" x="907" y="-455.12" font-family="Helvetica,sans-Serif" font-size="10.00">portage://sys&#45;apps/portage&#45;9999</text>
</a>
</g>
</g>
<!-- dependency48995&#45;&gt;choice115121115459711211211547112111114116971031014557575757 -->
<g id="edge13" class="edge">
<title>dependency48995:e&#45;&gt;choice115121115459711211211547112111114116971031014557575757:w</title>
<path fill="none" stroke="black" stroke-dasharray="1,5" d="M1026,-204C1051.12,-204 1042.6,-242.59 1025,-260.5 1000.66,-285.27 734.83,-251.99 713,-279 663.22,-340.58 677.59,-448.72 751.22,-458.32"/>
<polygon fill="black" stroke="black" points="760.78,-458.92 750.52,-462.78 757.01,-458.68 750.8,-458.29 750.8,-458.29 750.8,-458.29 757.01,-458.68 751.09,-453.8 760.78,-458.92"/>
</g>
<!-- dependency48997 -->
<g id="node4" class="node">
<title>dependency48997</title>
<polygon fill="none" stroke="blue" points="797,-553.5 797,-658.5 901,-658.5 901,-553.5 797,-553.5"/>
<text text-anchor="start" x="828" y="-602.12" font-family="Helvetica,sans-Serif" font-size="10.00">pack_dep</text>
<polygon fill="none" stroke="blue" points="901,-637.5 901,-658.5 1011,-658.5 1011,-637.5 901,-637.5"/>
<text text-anchor="start" x="950.75" y="-644" font-family="Helvetica,sans-Serif" font-size="10.00">no</text>
<polygon fill="none" stroke="blue" points="901,-616.5 901,-637.5 1011,-637.5 1011,-616.5 901,-616.5"/>
<text text-anchor="start" x="937.62" y="-623" font-family="Helvetica,sans-Serif" font-size="10.00">dev&#45;lang</text>
<polygon fill="none" stroke="blue" points="901,-595.5 901,-616.5 1011,-616.5 1011,-595.5 901,-595.5"/>
<text text-anchor="start" x="941.38" y="-602" font-family="Helvetica,sans-Serif" font-size="10.00">python</text>
<polygon fill="none" stroke="blue" points="901,-574.5 901,-595.5 1011,-595.5 1011,-574.5 901,-574.5"/>
<text text-anchor="start" x="945.5" y="-581" font-family="Helvetica,sans-Serif" font-size="10.00">none</text>
<polygon fill="none" stroke="blue" points="901,-553.5 901,-574.5 1011,-574.5 1011,-553.5 901,-553.5"/>
<text text-anchor="start" x="950" y="-560" font-family="Helvetica,sans-Serif" font-size="10.00">[,,]</text>
</g>
<!-- dependency48996&#45;&gt;dependency48997 -->
<g id="edge2" class="edge">
<title>dependency48996:e&#45;&gt;dependency48997:w</title>
<path fill="none" stroke="black" stroke-dasharray="5,2" d="M655.5,-637C712.08,-637 725.83,-609.87 776.89,-606.37"/>
<polygon fill="black" stroke="black" points="786.78,-606.04 776.94,-610.87 783,-606.17 776.79,-606.37 776.79,-606.37 776.79,-606.37 783,-606.17 776.64,-601.88 786.78,-606.04"/>
</g>
<!-- choice100101118451089711010347112121116104111110455046554649569511249544511450 -->
<g id="node15" class="node">
<title>choice100101118451089711010347112121116104111110455046554649569511249544511450</title>
<g id="a_node15"><a xlink:href="../dev-lang/python-2.7.18_p16-r2.svg" xlink:title="portage://dev&#45;lang/python&#45;2.7.18_p16&#45;r2">
<ellipse fill="none" stroke="red" cx="907" cy="-1447" rx="144" ry="18"/>
<text text-anchor="middle" x="907" y="-1443.12" font-family="Helvetica,sans-Serif" font-size="10.00">portage://dev&#45;lang/python&#45;2.7.18_p16&#45;r2</text>
</a>
</g>
</g>
<!-- dependency48997&#45;&gt;choice100101118451089711010347112121116104111110455046554649569511249544511450 -->
<g id="edge14" class="edge">
<title>dependency48997:e&#45;&gt;choice100101118451089711010347112121116104111110455046554649569511249544511450:w</title>
<path fill="none" stroke="black" stroke-dasharray="1,5" d="M1026,-606C1051.12,-606 1042.6,-644.59 1025,-662.5 1000.66,-687.27 734.83,-653.99 713,-681 662.01,-744.08 676.37,-1338.63 713,-1411 723.39,-1431.53 732.02,-1443.2 751.04,-1446.21"/>
<polygon fill="black" stroke="black" points="760.78,-1446.91 750.49,-1450.68 757.01,-1446.64 750.81,-1446.2 750.81,-1446.2 750.81,-1446.2 757.01,-1446.64 751.13,-1441.71 760.78,-1446.91"/>
</g>
<!-- choice100101118451089711010347112121116104111110455146494846495295112494511449 -->
<g id="node16" class="node">
<title>choice100101118451089711010347112121116104111110455146494846495295112494511449</title>
<g id="a_node16"><a xlink:href="../dev-lang/python-3.10.14_p1-r1.svg" xlink:title="portage://dev&#45;lang/python&#45;3.10.14_p1&#45;r1">
<ellipse fill="none" stroke="red" cx="907" cy="-1393" rx="144" ry="18"/>
<text text-anchor="middle" x="907" y="-1389.12" font-family="Helvetica,sans-Serif" font-size="10.00">portage://dev&#45;lang/python&#45;3.10.14_p1&#45;r1</text>
</a>
</g>
</g>
<!-- dependency48997&#45;&gt;choice100101118451089711010347112121116104111110455146494846495295112494511449 -->
<g id="edge15" class="edge">
<title>dependency48997:e&#45;&gt;choice100101118451089711010347112121116104111110455146494846495295112494511449:w</title>
<path fill="none" stroke="black" stroke-dasharray="1,5" d="M1026,-606C1051.12,-606 1042.6,-644.59 1025,-662.5 1000.66,-687.27 734.83,-653.99 713,-681 665.78,-739.41 679.08,-1289.99 713,-1357 723.39,-1377.53 732.02,-1389.2 751.04,-1392.21"/>
<polygon fill="black" stroke="black" points="760.78,-1392.91 750.49,-1396.68 757.01,-1392.64 750.81,-1392.2 750.81,-1392.2 750.81,-1392.2 757.01,-1392.64 751.13,-1387.71 760.78,-1392.91"/>
</g>
<!-- choice100101118451089711010347112121116104111110455146494946574511449 -->
<g id="node17" class="node">
<title>choice100101118451089711010347112121116104111110455146494946574511449</title>
<g id="a_node17"><a xlink:href="../dev-lang/python-3.11.9-r1.svg" xlink:title="portage://dev&#45;lang/python&#45;3.11.9&#45;r1">
<ellipse fill="none" stroke="red" cx="907" cy="-1339" rx="144" ry="18"/>
<text text-anchor="middle" x="907" y="-1335.12" font-family="Helvetica,sans-Serif" font-size="10.00">portage://dev&#45;lang/python&#45;3.11.9&#45;r1</text>
</a>
</g>
</g>
<!-- dependency48997&#45;&gt;choice100101118451089711010347112121116104111110455146494946574511449 -->
<g id="edge16" class="edge">
<title>dependency48997:e&#45;&gt;choice100101118451089711010347112121116104111110455146494946574511449:w</title>
<path fill="none" stroke="black" stroke-dasharray="1,5" d="M1026,-606C1051.12,-606 1042.6,-644.59 1025,-662.5 1000.66,-687.27 734.83,-653.99 713,-681 669.55,-734.75 681.79,-1241.34 713,-1303 723.39,-1323.53 732.02,-1335.2 751.04,-1338.21"/>
<polygon fill="black" stroke="black" points="760.78,-1338.91 750.49,-1342.68 757.01,-1338.64 750.81,-1338.2 750.81,-1338.2 750.81,-1338.2 757.01,-1338.64 751.13,-1333.71 760.78,-1338.91"/>
</g>
<!-- choice100101118451089711010347112121116104111110455146495046514511449 -->
<g id="node18" class="node">
<title>choice100101118451089711010347112121116104111110455146495046514511449</title>
<g id="a_node18"><a xlink:href="../dev-lang/python-3.12.3-r1.svg" xlink:title="portage://dev&#45;lang/python&#45;3.12.3&#45;r1">
<ellipse fill="none" stroke="red" cx="907" cy="-1285" rx="144" ry="18"/>
<text text-anchor="middle" x="907" y="-1281.12" font-family="Helvetica,sans-Serif" font-size="10.00">portage://dev&#45;lang/python&#45;3.12.3&#45;r1</text>
</a>
</g>
</g>
<!-- dependency48997&#45;&gt;choice100101118451089711010347112121116104111110455146495046514511449 -->
<g id="edge17" class="edge">
<title>dependency48997:e&#45;&gt;choice100101118451089711010347112121116104111110455146495046514511449:w</title>
<path fill="none" stroke="black" stroke-dasharray="1,5" d="M1026,-606C1051.12,-606 1042.6,-644.59 1025,-662.5 1000.66,-687.27 734.83,-653.99 713,-681 673.32,-730.08 684.5,-1192.69 713,-1249 723.39,-1269.53 732.02,-1281.2 751.04,-1284.21"/>
<polygon fill="black" stroke="black" points="760.78,-1284.91 750.49,-1288.68 757.01,-1284.64 750.81,-1284.2 750.81,-1284.2 750.81,-1284.2 757.01,-1284.64 751.13,-1279.71 760.78,-1284.91"/>
</g>
<!-- choice100101118451089711010347112121116104111110455146495046529511249 -->
<g id="node19" class="node">
<title>choice100101118451089711010347112121116104111110455146495046529511249</title>
<g id="a_node19"><a xlink:href="../dev-lang/python-3.12.4_p1.svg" xlink:title="portage://dev&#45;lang/python&#45;3.12.4_p1">
<ellipse fill="none" stroke="red" cx="907" cy="-1231" rx="144" ry="18"/>
<text text-anchor="middle" x="907" y="-1227.12" font-family="Helvetica,sans-Serif" font-size="10.00">portage://dev&#45;lang/python&#45;3.12.4_p1</text>
</a>
</g>
</g>
<!-- dependency48997&#45;&gt;choice100101118451089711010347112121116104111110455146495046529511249 -->
<g id="edge18" class="edge">
<title>dependency48997:e&#45;&gt;choice100101118451089711010347112121116104111110455146495046529511249:w</title>
<path fill="none" stroke="black" stroke-dasharray="1,5" d="M1026,-606C1051.12,-606 1042.6,-644.59 1025,-662.5 1000.66,-687.27 734.83,-653.99 713,-681 677.1,-725.41 687.21,-1144.04 713,-1195 723.39,-1215.53 732.02,-1227.2 751.04,-1230.21"/>
<polygon fill="black" stroke="black" points="760.78,-1230.91 750.49,-1234.68 757.01,-1230.64 750.81,-1230.2 750.81,-1230.2 750.81,-1230.2 757.01,-1230.64 751.13,-1225.71 760.78,-1230.91"/>
</g>
<!-- choice10010111845108971101034711212111610411111045514649514648959810111697499511251 -->
<g id="node20" class="node">
<title>choice10010111845108971101034711212111610411111045514649514648959810111697499511251</title>
<g id="a_node20"><a xlink:href="../dev-lang/python-3.13.0_beta1_p3.svg" xlink:title="portage://dev&#45;lang/python&#45;3.13.0_beta1_p3">
<ellipse fill="none" stroke="red" cx="907" cy="-1177" rx="144" ry="18"/>
<text text-anchor="middle" x="907" y="-1173.12" font-family="Helvetica,sans-Serif" font-size="10.00">portage://dev&#45;lang/python&#45;3.13.0_beta1_p3</text>
</a>
</g>
</g>
<!-- dependency48997&#45;&gt;choice10010111845108971101034711212111610411111045514649514648959810111697499511251 -->
<g id="edge19" class="edge">
<title>dependency48997:e&#45;&gt;choice10010111845108971101034711212111610411111045514649514648959810111697499511251:w</title>
<path fill="none" stroke="black" stroke-dasharray="1,5" d="M1026,-606C1051.12,-606 1042.6,-644.59 1025,-662.5 1000.66,-687.27 734.83,-653.99 713,-681 648.74,-760.49 666.83,-1049.8 713,-1141 723.39,-1161.53 732.02,-1173.2 751.04,-1176.21"/>
<polygon fill="black" stroke="black" points="760.78,-1176.91 750.49,-1180.68 757.01,-1176.64 750.81,-1176.2 750.81,-1176.2 750.81,-1176.2 757.01,-1176.64 751.13,-1171.71 760.78,-1176.91"/>
</g>
<!-- choice10010111845108971101034711212111610411111045514649514648959810111697509511257 -->
<g id="node21" class="node">
<title>choice10010111845108971101034711212111610411111045514649514648959810111697509511257</title>
<g id="a_node21"><a xlink:href="../dev-lang/python-3.13.0_beta2_p9.svg" xlink:title="portage://dev&#45;lang/python&#45;3.13.0_beta2_p9">
<ellipse fill="none" stroke="red" cx="907" cy="-1123" rx="144" ry="18"/>
<text text-anchor="middle" x="907" y="-1119.12" font-family="Helvetica,sans-Serif" font-size="10.00">portage://dev&#45;lang/python&#45;3.13.0_beta2_p9</text>
</a>
</g>
</g>
<!-- dependency48997&#45;&gt;choice10010111845108971101034711212111610411111045514649514648959810111697509511257 -->
<g id="edge20" class="edge">
<title>dependency48997:e&#45;&gt;choice10010111845108971101034711212111610411111045514649514648959810111697509511257:w</title>
<path fill="none" stroke="black" stroke-dasharray="1,5" d="M1026,-606C1051.12,-606 1042.6,-644.59 1025,-662.5 1000.66,-687.27 734.83,-653.99 713,-681 656.28,-751.16 672.25,-1006.5 713,-1087 723.39,-1107.53 732.02,-1119.2 751.04,-1122.21"/>
<polygon fill="black" stroke="black" points="760.78,-1122.91 750.49,-1126.68 757.01,-1122.64 750.81,-1122.2 750.81,-1122.2 750.81,-1122.2 757.01,-1122.64 751.13,-1117.71 760.78,-1122.91"/>
</g>
<!-- choice1001011184510897110103471121211161041111104551464951464895981011169751 -->
<g id="node22" class="node">
<title>choice1001011184510897110103471121211161041111104551464951464895981011169751</title>
<g id="a_node22"><a xlink:href="../dev-lang/python-3.13.0_beta3.svg" xlink:title="portage://dev&#45;lang/python&#45;3.13.0_beta3">
<ellipse fill="none" stroke="red" cx="907" cy="-1069" rx="144" ry="18"/>
<text text-anchor="middle" x="907" y="-1065.12" font-family="Helvetica,sans-Serif" font-size="10.00">portage://dev&#45;lang/python&#45;3.13.0_beta3</text>
</a>
</g>
</g>
<!-- dependency48997&#45;&gt;choice1001011184510897110103471121211161041111104551464951464895981011169751 -->
<g id="edge21" class="edge">
<title>dependency48997:e&#45;&gt;choice1001011184510897110103471121211161041111104551464951464895981011169751:w</title>
<path fill="none" stroke="black" stroke-dasharray="1,5" d="M1026,-606C1051.12,-606 1042.6,-644.59 1025,-662.5 1000.66,-687.27 734.83,-653.99 713,-681 663.82,-741.83 677.67,-963.21 713,-1033 723.39,-1053.53 732.02,-1065.2 751.04,-1068.21"/>
<polygon fill="black" stroke="black" points="760.78,-1068.91 750.49,-1072.68 757.01,-1068.64 750.81,-1068.2 750.81,-1068.2 750.81,-1068.2 757.01,-1068.64 751.13,-1063.71 760.78,-1068.91"/>
</g>
<!-- choice100101118451089711010347112121116104111110455146564649579511250 -->
<g id="node23" class="node">
<title>choice100101118451089711010347112121116104111110455146564649579511250</title>
<g id="a_node23"><a xlink:href="../dev-lang/python-3.8.19_p2.svg" xlink:title="portage://dev&#45;lang/python&#45;3.8.19_p2">
<ellipse fill="none" stroke="red" cx="907" cy="-1015" rx="144" ry="18"/>
<text text-anchor="middle" x="907" y="-1011.12" font-family="Helvetica,sans-Serif" font-size="10.00">portage://dev&#45;lang/python&#45;3.8.19_p2</text>
</a>
</g>
</g>
<!-- dependency48997&#45;&gt;choice100101118451089711010347112121116104111110455146564649579511250 -->
<g id="edge22" class="edge">
<title>dependency48997:e&#45;&gt;choice100101118451089711010347112121116104111110455146564649579511250:w</title>
<path fill="none" stroke="black" stroke-dasharray="1,5" d="M1026,-606C1051.12,-606 1042.6,-644.59 1025,-662.5 1000.66,-687.27 734.83,-653.99 713,-681 671.37,-732.5 683.09,-919.92 713,-979 723.39,-999.53 732.02,-1011.2 751.04,-1014.21"/>
<polygon fill="black" stroke="black" points="760.78,-1014.91 750.49,-1018.68 757.01,-1014.64 750.81,-1014.2 750.81,-1014.2 750.81,-1014.2 757.01,-1014.64 751.13,-1009.71 760.78,-1014.91"/>
</g>
<!-- choice100101118451089711010347112121116104111110455146574649579511251 -->
<g id="node24" class="node">
<title>choice100101118451089711010347112121116104111110455146574649579511251</title>
<g id="a_node24"><a xlink:href="../dev-lang/python-3.9.19_p3.svg" xlink:title="portage://dev&#45;lang/python&#45;3.9.19_p3">
<ellipse fill="none" stroke="red" cx="907" cy="-961" rx="144" ry="18"/>
<text text-anchor="middle" x="907" y="-957.12" font-family="Helvetica,sans-Serif" font-size="10.00">portage://dev&#45;lang/python&#45;3.9.19_p3</text>
</a>
</g>
</g>
<!-- dependency48997&#45;&gt;choice100101118451089711010347112121116104111110455146574649579511251 -->
<g id="edge23" class="edge">
<title>dependency48997:e&#45;&gt;choice100101118451089711010347112121116104111110455146574649579511251:w</title>
<path fill="none" stroke="black" stroke-dasharray="1,5" d="M1026,-606C1051.12,-606 1042.6,-644.59 1025,-662.5 1000.66,-687.27 734.83,-653.99 713,-681 678.91,-723.17 688.51,-876.62 713,-925 723.39,-945.53 732.02,-957.2 751.04,-960.21"/>
<polygon fill="black" stroke="black" points="760.78,-960.91 750.49,-964.68 757.01,-960.64 750.81,-960.2 750.81,-960.2 750.81,-960.2 757.01,-960.64 751.13,-955.71 760.78,-960.91"/>
</g>
<!-- dependency48999 -->
<g id="node6" class="node">
<title>dependency48999</title>
<polygon fill="none" stroke="blue" points="797,-815.5 797,-920.5 901,-920.5 901,-815.5 797,-815.5"/>
<text text-anchor="start" x="828" y="-864.12" font-family="Helvetica,sans-Serif" font-size="10.00">pack_dep</text>
<polygon fill="none" stroke="blue" points="901,-899.5 901,-920.5 1011,-920.5 1011,-899.5 901,-899.5"/>
<text text-anchor="start" x="950.75" y="-906" font-family="Helvetica,sans-Serif" font-size="10.00">no</text>
<polygon fill="none" stroke="blue" points="901,-878.5 901,-899.5 1011,-899.5 1011,-878.5 901,-878.5"/>
<text text-anchor="start" x="937.62" y="-885" font-family="Helvetica,sans-Serif" font-size="10.00">dev&#45;lang</text>
<polygon fill="none" stroke="blue" points="901,-857.5 901,-878.5 1011,-878.5 1011,-857.5 901,-857.5"/>
<text text-anchor="start" x="941.38" y="-864" font-family="Helvetica,sans-Serif" font-size="10.00">python</text>
<polygon fill="none" stroke="blue" points="901,-836.5 901,-857.5 1011,-857.5 1011,-836.5 901,-836.5"/>
<text text-anchor="start" x="945.5" y="-843" font-family="Helvetica,sans-Serif" font-size="10.00">none</text>
<polygon fill="none" stroke="blue" points="901,-815.5 901,-836.5 1011,-836.5 1011,-815.5 901,-815.5"/>
<text text-anchor="start" x="950" y="-822" font-family="Helvetica,sans-Serif" font-size="10.00">[,,]</text>
</g>
<!-- dependency48998&#45;&gt;dependency48999 -->
<g id="edge4" class="edge">
<title>dependency48998:e&#45;&gt;dependency48999:w</title>
<path fill="none" stroke="black" stroke-dasharray="5,2" d="M655.5,-773C724,-773 716.64,-857.89 776.85,-867.18"/>
<polygon fill="black" stroke="black" points="786.78,-867.91 776.48,-871.66 783.01,-867.63 776.81,-867.18 776.81,-867.18 776.81,-867.18 783.01,-867.63 777.14,-862.69 786.78,-867.91"/>
</g>
<!-- dependency48999&#45;&gt;choice100101118451089711010347112121116104111110455046554649569511249544511450 -->
<g id="edge24" class="edge">
<title>dependency48999:e&#45;&gt;choice100101118451089711010347112121116104111110455046554649569511249544511450:w</title>
<path fill="none" stroke="black" stroke-dasharray="1,5" d="M1026,-868C1051.12,-868 1042.6,-906.59 1025,-924.5 1000.66,-949.27 734.83,-915.99 713,-943 680.31,-983.44 689.52,-1364.61 713,-1411 723.39,-1431.53 732.02,-1443.2 751.04,-1446.21"/>
<polygon fill="black" stroke="black" points="760.78,-1446.91 750.49,-1450.68 757.01,-1446.64 750.81,-1446.2 750.81,-1446.2 750.81,-1446.2 757.01,-1446.64 751.13,-1441.71 760.78,-1446.91"/>
</g>
<!-- dependency48999&#45;&gt;choice100101118451089711010347112121116104111110455146494846495295112494511449 -->
<g id="edge25" class="edge">
<title>dependency48999:e&#45;&gt;choice100101118451089711010347112121116104111110455146494846495295112494511449:w</title>
<path fill="none" stroke="black" stroke-dasharray="1,5" d="M1026,-868C1051.12,-868 1042.6,-906.59 1025,-924.5 1000.66,-949.27 734.83,-915.99 713,-943 655.16,-1014.55 671.45,-1274.92 713,-1357 723.39,-1377.53 732.02,-1389.2 751.04,-1392.21"/>
<polygon fill="black" stroke="black" points="760.78,-1392.91 750.49,-1396.68 757.01,-1392.64 750.81,-1392.2 750.81,-1392.2 750.81,-1392.2 757.01,-1392.64 751.13,-1387.71 760.78,-1392.91"/>
</g>
<!-- dependency48999&#45;&gt;choice100101118451089711010347112121116104111110455146494946574511449 -->
<g id="edge26" class="edge">
<title>dependency48999:e&#45;&gt;choice100101118451089711010347112121116104111110455146494946574511449:w</title>
<path fill="none" stroke="black" stroke-dasharray="1,5" d="M1026,-868C1051.12,-868 1042.6,-906.59 1025,-924.5 1000.66,-949.27 734.83,-915.99 713,-943 662.71,-1005.21 676.87,-1231.62 713,-1303 723.39,-1323.53 732.02,-1335.2 751.04,-1338.21"/>
<polygon fill="black" stroke="black" points="760.78,-1338.91 750.49,-1342.68 757.01,-1338.64 750.81,-1338.2 750.81,-1338.2 750.81,-1338.2 757.01,-1338.64 751.13,-1333.71 760.78,-1338.91"/>
</g>
<!-- dependency48999&#45;&gt;choice100101118451089711010347112121116104111110455146495046514511449 -->
<g id="edge27" class="edge">
<title>dependency48999:e&#45;&gt;choice100101118451089711010347112121116104111110455146495046514511449:w</title>
<path fill="none" stroke="black" stroke-dasharray="1,5" d="M1026,-868C1051.12,-868 1042.6,-906.59 1025,-924.5 1000.66,-949.27 734.83,-915.99 713,-943 670.25,-995.88 682.29,-1188.33 713,-1249 723.39,-1269.53 732.02,-1281.2 751.04,-1284.21"/>
<polygon fill="black" stroke="black" points="760.78,-1284.91 750.49,-1288.68 757.01,-1284.64 750.81,-1284.2 750.81,-1284.2 750.81,-1284.2 757.01,-1284.64 751.13,-1279.71 760.78,-1284.91"/>
</g>
<!-- dependency48999&#45;&gt;choice100101118451089711010347112121116104111110455146495046529511249 -->
<g id="edge28" class="edge">
<title>dependency48999:e&#45;&gt;choice100101118451089711010347112121116104111110455146495046529511249:w</title>
<path fill="none" stroke="black" stroke-dasharray="1,5" d="M1026,-868C1051.12,-868 1042.6,-906.59 1025,-924.5 1000.66,-949.27 734.83,-915.99 713,-943 677.79,-986.55 687.71,-1145.04 713,-1195 723.39,-1215.53 732.02,-1227.2 751.04,-1230.21"/>
<polygon fill="black" stroke="black" points="760.78,-1230.91 750.49,-1234.68 757.01,-1230.64 750.81,-1230.2 750.81,-1230.2 750.81,-1230.2 757.01,-1230.64 751.13,-1225.71 760.78,-1230.91"/>
</g>
<!-- dependency48999&#45;&gt;choice10010111845108971101034711212111610411111045514649514648959810111697499511251 -->
<g id="edge29" class="edge">
<title>dependency48999:e&#45;&gt;choice10010111845108971101034711212111610411111045514649514648959810111697499511251:w</title>
<path fill="none" stroke="black" stroke-dasharray="1,5" d="M1026,-868C1051.12,-868 1042.6,-906.59 1025,-924.5 1000.66,-949.27 734.83,-915.99 713,-943 657.68,-1011.43 673.26,-1062.49 713,-1141 723.39,-1161.53 732.02,-1173.2 751.04,-1176.21"/>
<polygon fill="black" stroke="black" points="760.78,-1176.91 750.49,-1180.68 757.01,-1176.64 750.81,-1176.2 750.81,-1176.2 750.81,-1176.2 757.01,-1176.64 751.13,-1171.71 760.78,-1176.91"/>
</g>
<!-- dependency48999&#45;&gt;choice10010111845108971101034711212111610411111045514649514648959810111697509511257 -->
<g id="edge30" class="edge">
<title>dependency48999:e&#45;&gt;choice10010111845108971101034711212111610411111045514649514648959810111697509511257:w</title>
<path fill="none" stroke="black" stroke-dasharray="1,5" d="M1026,-868C1051.12,-868 1042.6,-906.59 1025,-924.5 1000.66,-949.27 734.83,-915.99 713,-943 663.22,-1004.58 677.59,-1112.72 751.22,-1122.32"/>
<polygon fill="black" stroke="black" points="760.78,-1122.92 750.52,-1126.78 757.01,-1122.68 750.8,-1122.29 750.8,-1122.29 750.8,-1122.29 757.01,-1122.68 751.09,-1117.8 760.78,-1122.92"/>
</g>
<!-- dependency48999&#45;&gt;choice1001011184510897110103471121211161041111104551464951464895981011169751 -->
<g id="edge31" class="edge">
<title>dependency48999:e&#45;&gt;choice1001011184510897110103471121211161041111104551464951464895981011169751:w</title>
<path fill="none" stroke="black" stroke-dasharray="1,5" d="M1026,-868C1051.12,-868 1042.6,-906.59 1025,-924.5 1000.66,-949.27 734.83,-915.99 713,-943 677.59,-986.81 698.83,-1059.22 751.13,-1068.1"/>
<polygon fill="black" stroke="black" points="760.79,-1068.9 750.45,-1072.56 757.02,-1068.59 750.82,-1068.07 750.82,-1068.07 750.82,-1068.07 757.02,-1068.59 751.19,-1063.59 760.79,-1068.9"/>
</g>
<!-- dependency48999&#45;&gt;choice100101118451089711010347112121116104111110455146564649579511250 -->
<g id="edge32" class="edge">
<title>dependency48999:e&#45;&gt;choice100101118451089711010347112121116104111110455146564649579511250:w</title>
<path fill="none" stroke="black" stroke-dasharray="1,5" d="M1026,-868C1051.12,-868 1042.6,-906.59 1025,-924.5 1000.66,-949.27 734.83,-915.99 713,-943 690.95,-970.28 717.32,-1007.25 751.27,-1013.94"/>
<polygon fill="black" stroke="black" points="760.79,-1014.88 750.39,-1018.38 757.02,-1014.51 750.84,-1013.9 750.84,-1013.9 750.84,-1013.9 757.02,-1014.51 751.28,-1009.42 760.79,-1014.88"/>
</g>
<!-- dependency48999&#45;&gt;choice100101118451089711010347112121116104111110455146574649579511251 -->
<g id="edge33" class="edge">
<title>dependency48999:e&#45;&gt;choice100101118451089711010347112121116104111110455146574649579511251:w</title>
<path fill="none" stroke="black" stroke-dasharray="1,5" d="M758.37,-950.45C759.4,-947.7 761.07,-944.96 763,-943 803.96,-901.42 984.83,-966.85 1025,-924.5 1042.28,-906.28 1051.12,-868 1026,-868"/>
<polygon fill="black" stroke="black" points="761.6,-959.85 754.09,-951.86 760.37,-956.27 758.34,-950.39 758.34,-950.39 758.34,-950.39 760.37,-956.27 762.6,-948.93 761.6,-959.85"/>
</g>
<!-- dependency49001 -->
<g id="node8" class="node">
<title>dependency49001</title>
<polygon fill="none" stroke="blue" points="797,-684.5 797,-789.5 901,-789.5 901,-684.5 797,-684.5"/>
<text text-anchor="start" x="828" y="-733.12" font-family="Helvetica,sans-Serif" font-size="10.00">pack_dep</text>
<polygon fill="none" stroke="blue" points="901,-768.5 901,-789.5 1011,-789.5 1011,-768.5 901,-768.5"/>
<text text-anchor="start" x="950.75" y="-775" font-family="Helvetica,sans-Serif" font-size="10.00">no</text>
<polygon fill="none" stroke="blue" points="901,-747.5 901,-768.5 1011,-768.5 1011,-747.5 901,-747.5"/>
<text text-anchor="start" x="937.62" y="-754" font-family="Helvetica,sans-Serif" font-size="10.00">dev&#45;lang</text>
<polygon fill="none" stroke="blue" points="901,-726.5 901,-747.5 1011,-747.5 1011,-726.5 901,-726.5"/>
<text text-anchor="start" x="941.38" y="-733" font-family="Helvetica,sans-Serif" font-size="10.00">python</text>
<polygon fill="none" stroke="blue" points="901,-705.5 901,-726.5 1011,-726.5 1011,-705.5 901,-705.5"/>
<text text-anchor="start" x="945.5" y="-712" font-family="Helvetica,sans-Serif" font-size="10.00">none</text>
<polygon fill="none" stroke="blue" points="901,-684.5 901,-705.5 1011,-705.5 1011,-684.5 901,-684.5"/>
<text text-anchor="start" x="950" y="-691" font-family="Helvetica,sans-Serif" font-size="10.00">[,,]</text>
</g>
<!-- dependency49000&#45;&gt;dependency49001 -->
<g id="edge6" class="edge">
<title>dependency49000:e&#45;&gt;dependency49001:w</title>
<path fill="none" stroke="black" stroke-dasharray="5,2" d="M655.5,-705C712.18,-705 725.75,-733.01 776.87,-736.62"/>
<polygon fill="black" stroke="black" points="786.78,-736.96 776.63,-741.11 783,-736.83 776.79,-736.62 776.79,-736.62 776.79,-736.62 783,-736.83 776.94,-732.12 786.78,-736.96"/>
</g>
<!-- dependency49001&#45;&gt;choice100101118451089711010347112121116104111110455046554649569511249544511450 -->
<g id="edge34" class="edge">
<title>dependency49001:e&#45;&gt;choice100101118451089711010347112121116104111110455046554649569511249544511450:w</title>
<path fill="none" stroke="black" stroke-dasharray="1,5" d="M1026,-737C1051.12,-737 1042.6,-775.59 1025,-793.5 1000.66,-818.27 734.83,-784.99 713,-812 671.16,-863.76 682.94,-1351.62 713,-1411 723.39,-1431.53 732.02,-1443.2 751.04,-1446.21"/>
<polygon fill="black" stroke="black" points="760.78,-1446.91 750.49,-1450.68 757.01,-1446.64 750.81,-1446.2 750.81,-1446.2 750.81,-1446.2 757.01,-1446.64 751.13,-1441.71 760.78,-1446.91"/>
</g>
<!-- dependency49001&#45;&gt;choice100101118451089711010347112121116104111110455146494846495295112494511449 -->
<g id="edge35" class="edge">
<title>dependency49001:e&#45;&gt;choice100101118451089711010347112121116104111110455146494846495295112494511449:w</title>
<path fill="none" stroke="black" stroke-dasharray="1,5" d="M1026,-737C1051.12,-737 1042.6,-775.59 1025,-793.5 1000.66,-818.27 734.83,-784.99 713,-812 674.93,-859.09 685.65,-1302.97 713,-1357 723.39,-1377.53 732.02,-1389.2 751.04,-1392.21"/>
<polygon fill="black" stroke="black" points="760.78,-1392.91 750.49,-1396.68 757.01,-1392.64 750.81,-1392.2 750.81,-1392.2 750.81,-1392.2 757.01,-1392.64 751.13,-1387.71 760.78,-1392.91"/>
</g>
<!-- dependency49001&#45;&gt;choice100101118451089711010347112121116104111110455146494946574511449 -->
<g id="edge36" class="edge">
<title>dependency49001:e&#45;&gt;choice100101118451089711010347112121116104111110455146494946574511449:w</title>
<path fill="none" stroke="black" stroke-dasharray="1,5" d="M1026,-737C1051.12,-737 1042.6,-775.59 1025,-793.5 1000.66,-818.27 734.83,-784.99 713,-812 678.7,-854.43 688.36,-1254.33 713,-1303 723.39,-1323.53 732.02,-1335.2 751.04,-1338.21"/>
<polygon fill="black" stroke="black" points="760.78,-1338.91 750.49,-1342.68 757.01,-1338.64 750.81,-1338.2 750.81,-1338.2 750.81,-1338.2 757.01,-1338.64 751.13,-1333.71 760.78,-1338.91"/>
</g>
<!-- dependency49001&#45;&gt;choice100101118451089711010347112121116104111110455146495046514511449 -->
<g id="edge37" class="edge">
<title>dependency49001:e&#45;&gt;choice100101118451089711010347112121116104111110455146495046514511449:w</title>
<path fill="none" stroke="black" stroke-dasharray="1,5" d="M1026,-737C1051.12,-737 1042.6,-775.59 1025,-793.5 1000.66,-818.27 734.83,-784.99 713,-812 648.97,-891.21 655.72,-1257.16 750.92,-1283.5"/>
<polygon fill="black" stroke="black" points="760.79,-1284.84 750.28,-1287.96 757.05,-1284.33 750.88,-1283.5 750.88,-1283.5 750.88,-1283.5 757.05,-1284.33 751.49,-1279.04 760.79,-1284.84"/>
</g>
<!-- dependency49001&#45;&gt;choice100101118451089711010347112121116104111110455146495046529511249 -->
<g id="edge38" class="edge">
<title>dependency49001:e&#45;&gt;choice100101118451089711010347112121116104111110455146495046529511249:w</title>
<path fill="none" stroke="black" stroke-dasharray="1,5" d="M1026,-737C1051.12,-737 1042.6,-775.59 1025,-793.5 1000.66,-818.27 734.83,-784.99 713,-812 659.49,-878.19 674.56,-1119.06 713,-1195 723.39,-1215.53 732.02,-1227.2 751.04,-1230.21"/>
<polygon fill="black" stroke="black" points="760.78,-1230.91 750.49,-1234.68 757.01,-1230.64 750.81,-1230.2 750.81,-1230.2 750.81,-1230.2 757.01,-1230.64 751.13,-1225.71 760.78,-1230.91"/>
</g>
<!-- dependency49001&#45;&gt;choice10010111845108971101034711212111610411111045514649514648959810111697499511251 -->
<g id="edge39" class="edge">
<title>dependency49001:e&#45;&gt;choice10010111845108971101034711212111610411111045514649514648959810111697499511251:w</title>
<path fill="none" stroke="black" stroke-dasharray="1,5" d="M1026,-737C1051.12,-737 1042.6,-775.59 1025,-793.5 1000.66,-818.27 734.83,-784.99 713,-812 667.04,-868.86 679.98,-1075.77 713,-1141 723.39,-1161.53 732.02,-1173.2 751.04,-1176.21"/>
<polygon fill="black" stroke="black" points="760.78,-1176.91 750.49,-1180.68 757.01,-1176.64 750.81,-1176.2 750.81,-1176.2 750.81,-1176.2 757.01,-1176.64 751.13,-1171.71 760.78,-1176.91"/>
</g>
<!-- dependency49001&#45;&gt;choice10010111845108971101034711212111610411111045514649514648959810111697509511257 -->
<g id="edge40" class="edge">
<title>dependency49001:e&#45;&gt;choice10010111845108971101034711212111610411111045514649514648959810111697509511257:w</title>
<path fill="none" stroke="black" stroke-dasharray="1,5" d="M1026,-737C1051.12,-737 1042.6,-775.59 1025,-793.5 1000.66,-818.27 734.83,-784.99 713,-812 674.58,-859.52 685.4,-1032.48 713,-1087 723.39,-1107.53 732.02,-1119.2 751.04,-1122.21"/>
<polygon fill="black" stroke="black" points="760.78,-1122.91 750.49,-1126.68 757.01,-1122.64 750.81,-1122.2 750.81,-1122.2 750.81,-1122.2 757.01,-1122.64 751.13,-1117.71 760.78,-1122.91"/>
</g>
<!-- dependency49001&#45;&gt;choice1001011184510897110103471121211161041111104551464951464895981011169751 -->
<g id="edge41" class="edge">
<title>dependency49001:e&#45;&gt;choice1001011184510897110103471121211161041111104551464951464895981011169751:w</title>
<path fill="none" stroke="black" stroke-dasharray="1,5" d="M1026,-737C1051.12,-737 1042.6,-775.59 1025,-793.5 1000.66,-818.27 734.83,-784.99 713,-812 651.25,-888.38 668.64,-945.37 713,-1033 723.39,-1053.53 732.02,-1065.2 751.04,-1068.21"/>
<polygon fill="black" stroke="black" points="760.78,-1068.91 750.49,-1072.68 757.01,-1068.64 750.81,-1068.2 750.81,-1068.2 750.81,-1068.2 757.01,-1068.64 751.13,-1063.71 760.78,-1068.91"/>
</g>
<!-- dependency49001&#45;&gt;choice100101118451089711010347112121116104111110455146564649579511250 -->
<g id="edge42" class="edge">
<title>dependency49001:e&#45;&gt;choice100101118451089711010347112121116104111110455146564649579511250:w</title>
<path fill="none" stroke="black" stroke-dasharray="1,5" d="M1026,-737C1051.12,-737 1042.6,-775.59 1025,-793.5 1000.66,-818.27 734.83,-784.99 713,-812 657.04,-881.22 668.12,-1004.37 750.97,-1014.35"/>
<polygon fill="black" stroke="black" points="760.78,-1014.93 750.54,-1018.83 757.01,-1014.71 750.8,-1014.34 750.8,-1014.34 750.8,-1014.34 757.01,-1014.71 751.06,-1009.85 760.78,-1014.93"/>
</g>
<!-- dependency49001&#45;&gt;choice100101118451089711010347112121116104111110455146574649579511251 -->
<g id="edge43" class="edge">
<title>dependency49001:e&#45;&gt;choice100101118451089711010347112121116104111110455146574649579511251:w</title>
<path fill="none" stroke="black" stroke-dasharray="1,5" d="M1026,-737C1051.12,-737 1042.6,-775.59 1025,-793.5 1000.66,-818.27 734.83,-784.99 713,-812 671.57,-863.25 689.96,-950.75 750.98,-960.17"/>
<polygon fill="black" stroke="black" points="760.79,-960.91 750.48,-964.65 757.01,-960.63 750.81,-960.16 750.81,-960.16 750.81,-960.16 757.01,-960.63 751.15,-955.67 760.79,-960.91"/>
</g>
<!-- dependency49002&#45;&gt;choice11512111545971121121154711211111411697103101455146484654494511449 -->
<g id="edge44" class="edge">
<title>dependency49002:e&#45;&gt;choice11512111545971121121154711211111411697103101455146484654494511449:w</title>
<path fill="none" stroke="black" stroke-dasharray="1,5" d="M1026,-73C1051.12,-73 1042.6,-111.59 1025,-129.5 1000.66,-154.27 734.83,-120.99 713,-148 651.25,-224.38 668.64,-281.37 713,-369 723.39,-389.53 732.02,-401.2 751.04,-404.21"/>
<polygon fill="black" stroke="black" points="760.78,-404.91 750.49,-408.68 757.01,-404.64 750.81,-404.2 750.81,-404.2 750.81,-404.2 757.01,-404.64 751.13,-399.71 760.78,-404.91"/>
</g>
<!-- dependency49002&#45;&gt;choice11512111545971121121154711211111411697103101455146484654514511449 -->
<g id="edge45" class="edge">
<title>dependency49002:e&#45;&gt;choice11512111545971121121154711211111411697103101455146484654514511449:w</title>
<path fill="none" stroke="black" stroke-dasharray="1,5" d="M1026,-73C1051.12,-73 1042.6,-111.59 1025,-129.5 1000.66,-154.27 734.83,-120.99 713,-148 657.04,-217.22 668.12,-340.37 750.97,-350.35"/>
<polygon fill="black" stroke="black" points="760.78,-350.93 750.54,-354.83 757.01,-350.71 750.8,-350.34 750.8,-350.34 750.8,-350.34 757.01,-350.71 751.06,-345.85 760.78,-350.93"/>
</g>
<!-- dependency49002&#45;&gt;choice11512111545971121121154711211111411697103101455146484654524511451 -->
<g id="edge46" class="edge">
<title>dependency49002:e&#45;&gt;choice11512111545971121121154711211111411697103101455146484654524511451:w</title>
<path fill="none" stroke="black" stroke-dasharray="1,5" d="M1026,-73C1051.12,-73 1042.6,-111.59 1025,-129.5 1000.66,-154.27 734.83,-120.99 713,-148 671.57,-199.25 689.96,-286.75 750.98,-296.17"/>
<polygon fill="black" stroke="black" points="760.79,-296.91 750.48,-300.65 757.01,-296.63 750.81,-296.16 750.81,-296.16 750.81,-296.16 757.01,-296.63 751.15,-291.67 760.79,-296.91"/>
</g>
<!-- dependency49002&#45;&gt;choice1151211154597112112115471121111141169710310145514648465453 -->
<g id="edge47" class="edge">
<title>dependency49002:e&#45;&gt;choice1151211154597112112115471121111141169710310145514648465453:w</title>
<path fill="none" stroke="black" stroke-dasharray="1,5" d="M1026,-73C1051.12,-73 1042.6,-111.59 1025,-129.5 1000.66,-154.27 734.83,-120.99 713,-148 667.04,-204.86 679.98,-411.77 713,-477 723.39,-497.53 732.02,-509.2 751.04,-512.21"/>
<polygon fill="black" stroke="black" points="760.78,-512.91 750.49,-516.68 757.01,-512.64 750.81,-512.2 750.81,-512.2 750.81,-512.2 757.01,-512.64 751.13,-507.71 760.78,-512.91"/>
</g>
<!-- dependency49002&#45;&gt;choice115121115459711211211547112111114116971031014557575757 -->
<g id="edge48" class="edge">
<title>dependency49002:e&#45;&gt;choice115121115459711211211547112111114116971031014557575757:w</title>
<path fill="none" stroke="black" stroke-dasharray="1,5" d="M1026,-73C1051.12,-73 1042.6,-111.59 1025,-129.5 1000.66,-154.27 734.83,-120.99 713,-148 674.58,-195.52 685.4,-368.48 713,-423 723.39,-443.53 732.02,-455.2 751.04,-458.21"/>
<polygon fill="black" stroke="black" points="760.78,-458.91 750.49,-462.68 757.01,-458.64 750.81,-458.2 750.81,-458.2 750.81,-458.2 757.01,-458.64 751.13,-453.71 760.78,-458.91"/>
</g>
</g>
</svg>
