<?xml version="1.0" encoding="UTF-8" standalone="no"?>
<!DOCTYPE svg PUBLIC "-//W3C//DTD SVG 1.1//EN"
 "http://www.w3.org/Graphics/SVG/1.1/DTD/svg11.dtd">
<!-- Generated by graphviz version 2.41.20171026.1811 (20171026.1811)
 -->
<!-- Title: prolog Pages: 1 -->
<svg width="1411pt" height="958pt"
 viewBox="0.00 0.00 1411.00 958.00" xmlns="http://www.w3.org/2000/svg" xmlns:xlink="http://www.w3.org/1999/xlink">
<g id="graph0" class="graph" transform="scale(1 1) rotate(0) translate(4 954)">
<title>prolog</title>
<polygon fill="white" stroke="transparent" points="-4,4 -4,-954 1407,-954 1407,4 -4,4"/>
<g id="clust1" class="cluster">
<title>cluster_leftcol</title>
<polygon fill="none" stroke="gray" points="8,-466 8,-536 312,-536 312,-466 8,-466"/>
<text text-anchor="start" x="146.66" y="-525" font-family="Helvetica,sans-Serif" font-style="italic" font-size="10.00">ebuild</text>
</g>
<g id="clust2" class="cluster">
<title>cluster_midcol</title>
<polygon fill="none" stroke="gray" points="396,-131 396,-788 1007,-788 1007,-131 396,-131"/>
<text text-anchor="start" x="670.36" y="-777" font-family="Helvetica,sans-Serif" font-style="italic" font-size="10.00">dependencies</text>
</g>
<g id="clust4" class="cluster">
<title>cluster_compileandrun</title>
<polygon fill="#eeeeee" stroke="gray" points="404,-458 404,-762 999,-762 999,-458 404,-458"/>
<text text-anchor="start" x="665.92" y="-751" font-family="Helvetica,sans-Serif" font-style="italic" font-size="10.00">compile and run</text>
</g>
<g id="clust8" class="cluster">
<title>cluster_run</title>
<polygon fill="#eeeeee" stroke="gray" points="747,-139 747,-433 999,-433 999,-139 747,-139"/>
<text text-anchor="start" x="865.77" y="-422" font-family="Helvetica,sans-Serif" font-style="italic" font-size="10.00">run</text>
</g>
<g id="clust11" class="cluster">
<title>cluster_choices</title>
<polygon fill="none" stroke="gray" points="1091,-8 1091,-942 1395,-942 1395,-8 1091,-8"/>
<text text-anchor="start" x="1218.82" y="-931" font-family="Helvetica,sans-Serif" font-style="italic" font-size="10.00">candidates</text>
</g>
<!-- id -->
<g id="node1" class="node">
<title>id</title>
<g id="a_node1"><a xlink:href="../app-portage/pfl-2.4-r4.svg" xlink:title="app&#45;portage/pfl&#45;2.4&#45;r4">
<ellipse fill="none" stroke="red" cx="160" cy="-492" rx="144" ry="18"/>
<text text-anchor="middle" x="160" y="-489" font-family="Helvetica,sans-Serif" font-size="10.00">app&#45;portage/pfl&#45;2.4&#45;r4</text>
</a>
</g>
</g>
<!-- dependency54540 -->
<g id="node2" class="node">
<title>dependency54540</title>
<polygon fill="none" stroke="red" points="420.5,-566 420.5,-606 511.5,-606 511.5,-566 420.5,-566"/>
<text text-anchor="start" x="431.25" y="-583" font-family="Helvetica,sans-Serif" font-size="10.00">use_conditional</text>
<polygon fill="none" stroke="red" points="511.5,-586 511.5,-606 639.5,-606 639.5,-586 511.5,-586"/>
<text text-anchor="start" x="558.55" y="-593" font-family="Helvetica,sans-Serif" font-size="10.00">positive</text>
<polygon fill="none" stroke="red" points="511.5,-566 511.5,-586 639.5,-586 639.5,-566 511.5,-566"/>
<text text-anchor="start" x="516.29" y="-573" font-family="Helvetica,sans-Serif" font-size="10.00">python_targets_python2_7</text>
</g>
<!-- id&#45;&gt;dependency54540 -->
<g id="edge2" class="edge">
<title>id:e&#45;&gt;dependency54540:w</title>
<path fill="none" stroke="black" d="M305,-492C360.93,-492 351.1,-566.56 392.65,-582.87"/>
<ellipse fill="none" stroke="black" cx="406.56" cy="-585.31" rx="4" ry="4"/>
<polygon fill="black" stroke="black" points="402.62,-584.62 391.99,-587.33 397.7,-583.76 392.77,-582.89 392.77,-582.89 392.77,-582.89 397.7,-583.76 393.55,-578.46 402.62,-584.62 402.62,-584.62"/>
</g>
<!-- dependency54542 -->
<g id="node4" class="node">
<title>dependency54542</title>
<polygon fill="none" stroke="blue" points="763,-470 763,-570 868,-570 868,-470 763,-470"/>
<text text-anchor="start" x="793.82" y="-517" font-family="Helvetica,sans-Serif" font-size="10.00">pack_dep</text>
<polygon fill="none" stroke="blue" points="868,-550 868,-570 978,-570 978,-550 868,-550"/>
<text text-anchor="start" x="917.44" y="-557" font-family="Helvetica,sans-Serif" font-size="10.00">no</text>
<polygon fill="none" stroke="blue" points="868,-530 868,-550 978,-550 978,-530 868,-530"/>
<text text-anchor="start" x="903.82" y="-537" font-family="Helvetica,sans-Serif" font-size="10.00">dev&#45;lang</text>
<polygon fill="none" stroke="blue" points="868,-510 868,-530 978,-530 978,-510 868,-510"/>
<text text-anchor="start" x="895.76" y="-517" font-family="Helvetica,sans-Serif" font-size="10.00">python&#45;exec</text>
<polygon fill="none" stroke="blue" points="868,-490 868,-510 978,-510 978,-490 868,-490"/>
<text text-anchor="start" x="894.92" y="-497" font-family="Helvetica,sans-Serif" font-size="10.00">greaterequal</text>
<polygon fill="none" stroke="blue" points="868,-470 868,-490 978,-490 978,-470 868,-470"/>
<text text-anchor="start" x="920.22" y="-477" font-family="Helvetica,sans-Serif" font-size="10.00">2</text>
</g>
<!-- id&#45;&gt;dependency54542 -->
<g id="edge3" class="edge">
<title>id:e&#45;&gt;dependency54542:w</title>
<path fill="none" stroke="black" d="M530.5,-399C586.81,-388.6 596.67,-426.71 647,-454 690.17,-477.41 696.95,-510.65 735.89,-518.36"/>
<ellipse fill="none" stroke="black" cx="750.02" cy="-519.64" rx="4" ry="4"/>
<polygon fill="black" stroke="black" points="746.03,-519.28 735.67,-522.86 741.05,-518.83 736.07,-518.38 736.07,-518.38 736.07,-518.38 741.05,-518.83 736.48,-513.9 746.03,-519.28 746.03,-519.28"/>
</g>
<!-- dependency54543 -->
<g id="node5" class="node">
<title>dependency54543</title>
<polygon fill="none" stroke="blue" points="763,-313 763,-403 868,-403 868,-313 763,-313"/>
<text text-anchor="start" x="793.82" y="-355" font-family="Helvetica,sans-Serif" font-size="10.00">pack_dep</text>
<polygon fill="none" stroke="blue" points="868,-383 868,-403 978,-403 978,-383 868,-383"/>
<text text-anchor="start" x="917.44" y="-390" font-family="Helvetica,sans-Serif" font-size="10.00">no</text>
<polygon fill="none" stroke="blue" points="868,-363 868,-383 978,-383 978,-363 868,-363"/>
<text text-anchor="start" x="904.11" y="-370" font-family="Helvetica,sans-Serif" font-size="10.00">net&#45;misc</text>
<polygon fill="none" stroke="blue" points="868,-343 868,-363 978,-363 978,-343 868,-343"/>
<text text-anchor="start" x="914.94" y="-350" font-family="Helvetica,sans-Serif" font-size="10.00">curl</text>
<polygon fill="none" stroke="blue" points="868,-323 868,-343 978,-343 978,-323 868,-323"/>
<text text-anchor="start" x="911.88" y="-330" font-family="Helvetica,sans-Serif" font-size="10.00">none</text>
<polygon fill="none" stroke="blue" points="868,-313 868,-323 978,-323 978,-313 868,-313"/>
</g>
<!-- id&#45;&gt;dependency54543 -->
<g id="edge4" class="edge">
<title>id:e&#45;&gt;dependency54543:w</title>
<path fill="none" stroke="black" d="M530.5,-399C627.09,-381.15 651.68,-359.24 745.89,-358.05"/>
<ellipse fill="none" stroke="black" cx="750" cy="-358.02" rx="4" ry="4"/>
</g>
<!-- dependency54544 -->
<g id="node6" class="node">
<title>dependency54544</title>
<polygon fill="none" stroke="blue" points="763,-151 763,-241 868,-241 868,-151 763,-151"/>
<text text-anchor="start" x="793.82" y="-193" font-family="Helvetica,sans-Serif" font-size="10.00">pack_dep</text>
<polygon fill="none" stroke="blue" points="868,-221 868,-241 978,-241 978,-221 868,-221"/>
<text text-anchor="start" x="917.44" y="-228" font-family="Helvetica,sans-Serif" font-size="10.00">no</text>
<polygon fill="none" stroke="blue" points="868,-201 868,-221 978,-221 978,-201 868,-201"/>
<text text-anchor="start" x="902.99" y="-208" font-family="Helvetica,sans-Serif" font-size="10.00">sys&#45;apps</text>
<polygon fill="none" stroke="blue" points="868,-181 868,-201 978,-201 978,-181 868,-181"/>
<text text-anchor="start" x="906.04" y="-188" font-family="Helvetica,sans-Serif" font-size="10.00">portage</text>
<polygon fill="none" stroke="blue" points="868,-161 868,-181 978,-181 978,-161 868,-161"/>
<text text-anchor="start" x="911.88" y="-168" font-family="Helvetica,sans-Serif" font-size="10.00">none</text>
<polygon fill="none" stroke="blue" points="868,-151 868,-161 978,-161 978,-151 868,-151"/>
</g>
<!-- id&#45;&gt;dependency54544 -->
<g id="edge5" class="edge">
<title>id:e&#45;&gt;dependency54544:w</title>
<path fill="none" stroke="black" d="M530.5,-399C659.75,-375.12 621.49,-203.26 745.96,-196.22"/>
<ellipse fill="none" stroke="black" cx="750" cy="-196.11" rx="4" ry="4"/>
<path fill="none" stroke="black" d="M305,-492C348.83,-492 355.54,-470.85 396,-454 454.86,-429.49 465.8,-410.58 528.5,-399"/>
</g>
<!-- dependency54541 -->
<g id="node3" class="node">
<title>dependency54541</title>
<polygon fill="none" stroke="blue" points="763,-632 763,-732 868,-732 868,-632 763,-632"/>
<text text-anchor="start" x="793.82" y="-679" font-family="Helvetica,sans-Serif" font-size="10.00">pack_dep</text>
<polygon fill="none" stroke="blue" points="868,-712 868,-732 978,-732 978,-712 868,-712"/>
<text text-anchor="start" x="917.44" y="-719" font-family="Helvetica,sans-Serif" font-size="10.00">no</text>
<polygon fill="none" stroke="blue" points="868,-692 868,-712 978,-712 978,-692 868,-692"/>
<text text-anchor="start" x="903.82" y="-699" font-family="Helvetica,sans-Serif" font-size="10.00">dev&#45;lang</text>
<polygon fill="none" stroke="blue" points="868,-672 868,-692 978,-692 978,-672 868,-672"/>
<text text-anchor="start" x="907.99" y="-679" font-family="Helvetica,sans-Serif" font-size="10.00">python</text>
<polygon fill="none" stroke="blue" points="868,-652 868,-672 978,-672 978,-652 868,-652"/>
<text text-anchor="start" x="894.92" y="-659" font-family="Helvetica,sans-Serif" font-size="10.00">greaterequal</text>
<polygon fill="none" stroke="blue" points="868,-632 868,-652 978,-652 978,-632 868,-632"/>
<text text-anchor="start" x="905.77" y="-639" font-family="Helvetica,sans-Serif" font-size="10.00">2.7.5&#45;r2</text>
</g>
<!-- dependency54540&#45;&gt;dependency54541 -->
<g id="edge1" class="edge">
<title>dependency54540:e&#45;&gt;dependency54541:w</title>
<path fill="none" stroke="black" stroke-dasharray="5,2" d="M647,-586C707.27,-586 692.19,-671.43 743.93,-681.11"/>
<polygon fill="black" stroke="black" points="754,-682 743.64,-685.6 749.02,-681.56 744.04,-681.12 744.04,-681.12 744.04,-681.12 749.02,-681.56 744.43,-676.64 754,-682 754,-682"/>
</g>
<!-- choice10010111845108971101034711212111610411111045504655464950 -->
<g id="node7" class="node">
<title>choice10010111845108971101034711212111610411111045504655464950</title>
<g id="a_node7"><a xlink:href="../dev-lang/python-2.7.12.svg" xlink:title="dev&#45;lang/python&#45;2.7.12">
<ellipse fill="none" stroke="red" cx="1243" cy="-898" rx="144" ry="18"/>
<text text-anchor="middle" x="1243" y="-895" font-family="Helvetica,sans-Serif" font-size="10.00">dev&#45;lang/python&#45;2.7.12</text>
</a>
</g>
</g>
<!-- dependency54541&#45;&gt;choice10010111845108971101034711212111610411111045504655464950 -->
<g id="edge6" class="edge">
<title>dependency54541:e&#45;&gt;choice10010111845108971101034711212111610411111045504655464950:w</title>
<path fill="none" stroke="black" stroke-dasharray="1,5" d="M992,-682C1095.28,-682 998.19,-883.49 1087.77,-897.26"/>
<polygon fill="black" stroke="black" points="1098,-898 1087.7,-901.77 1093.01,-897.64 1088.03,-897.28 1088.03,-897.28 1088.03,-897.28 1093.01,-897.64 1088.35,-892.79 1098,-898 1098,-898"/>
</g>
<!-- choice10010111845108971101034711212111610411111045504655464952 -->
<g id="node8" class="node">
<title>choice10010111845108971101034711212111610411111045504655464952</title>
<g id="a_node8"><a xlink:href="../dev-lang/python-2.7.14.svg" xlink:title="dev&#45;lang/python&#45;2.7.14">
<ellipse fill="none" stroke="red" cx="1243" cy="-844" rx="144" ry="18"/>
<text text-anchor="middle" x="1243" y="-841" font-family="Helvetica,sans-Serif" font-size="10.00">dev&#45;lang/python&#45;2.7.14</text>
</a>
</g>
</g>
<!-- dependency54541&#45;&gt;choice10010111845108971101034711212111610411111045504655464952 -->
<g id="edge7" class="edge">
<title>dependency54541:e&#45;&gt;choice10010111845108971101034711212111610411111045504655464952:w</title>
<path fill="none" stroke="black" stroke-dasharray="1,5" d="M992,-682C1074.35,-682 1017.36,-830.38 1087.73,-843.13"/>
<polygon fill="black" stroke="black" points="1098,-844 1087.66,-847.64 1093.02,-843.58 1088.04,-843.15 1088.04,-843.15 1088.04,-843.15 1093.02,-843.58 1088.42,-838.67 1098,-844 1098,-844"/>
</g>
<!-- choice100101118451089711010347112121116104111110455146524653 -->
<g id="node9" class="node">
<title>choice100101118451089711010347112121116104111110455146524653</title>
<g id="a_node9"><a xlink:href="../dev-lang/python-3.4.5.svg" xlink:title="dev&#45;lang/python&#45;3.4.5">
<ellipse fill="none" stroke="red" cx="1243" cy="-790" rx="144" ry="18"/>
<text text-anchor="middle" x="1243" y="-787" font-family="Helvetica,sans-Serif" font-size="10.00">dev&#45;lang/python&#45;3.4.5</text>
</a>
</g>
</g>
<!-- dependency54541&#45;&gt;choice100101118451089711010347112121116104111110455146524653 -->
<g id="edge8" class="edge">
<title>dependency54541:e&#45;&gt;choice100101118451089711010347112121116104111110455146524653:w</title>
<path fill="none" stroke="black" stroke-dasharray="1,5" d="M992,-682C1055.58,-682 1033.58,-778.51 1087.79,-789.07"/>
<polygon fill="black" stroke="black" points="1098,-790 1087.63,-793.57 1093.02,-789.54 1088.04,-789.09 1088.04,-789.09 1088.04,-789.09 1093.02,-789.54 1088.45,-784.61 1098,-790 1098,-790"/>
</g>
<!-- choice100101118451089711010347112121116104111110455146524654 -->
<g id="node10" class="node">
<title>choice100101118451089711010347112121116104111110455146524654</title>
<g id="a_node10"><a xlink:href="../dev-lang/python-3.4.6.svg" xlink:title="dev&#45;lang/python&#45;3.4.6">
<ellipse fill="none" stroke="red" cx="1243" cy="-736" rx="144" ry="18"/>
<text text-anchor="middle" x="1243" y="-733" font-family="Helvetica,sans-Serif" font-size="10.00">dev&#45;lang/python&#45;3.4.6</text>
</a>
</g>
</g>
<!-- dependency54541&#45;&gt;choice100101118451089711010347112121116104111110455146524654 -->
<g id="edge9" class="edge">
<title>dependency54541:e&#45;&gt;choice100101118451089711010347112121116104111110455146524654:w</title>
<path fill="none" stroke="black" stroke-dasharray="1,5" d="M992,-682C1041.26,-682 1044.85,-728.87 1087.86,-735.28"/>
<polygon fill="black" stroke="black" points="1098,-736 1087.71,-739.78 1093.01,-735.64 1088.03,-735.29 1088.03,-735.29 1088.03,-735.29 1093.01,-735.64 1088.35,-730.8 1098,-736 1098,-736"/>
</g>
<!-- choice100101118451089711010347112121116104111110455146534652 -->
<g id="node11" class="node">
<title>choice100101118451089711010347112121116104111110455146534652</title>
<g id="a_node11"><a xlink:href="../dev-lang/python-3.5.4.svg" xlink:title="dev&#45;lang/python&#45;3.5.4">
<ellipse fill="none" stroke="red" cx="1243" cy="-682" rx="144" ry="18"/>
<text text-anchor="middle" x="1243" y="-679" font-family="Helvetica,sans-Serif" font-size="10.00">dev&#45;lang/python&#45;3.5.4</text>
</a>
</g>
</g>
<!-- dependency54541&#45;&gt;choice100101118451089711010347112121116104111110455146534652 -->
<g id="edge10" class="edge">
<title>dependency54541:e&#45;&gt;choice100101118451089711010347112121116104111110455146534652:w</title>
<path fill="none" stroke="black" stroke-dasharray="1,5" d="M992,-682C1035.43,-682 1048.83,-682 1087.57,-682"/>
<polygon fill="black" stroke="black" points="1098,-682 1088,-686.5 1093,-682 1088,-682 1088,-682 1088,-682 1093,-682 1088,-677.5 1098,-682 1098,-682"/>
</g>
<!-- choice100101118451089711010347112121116104111110455146544651 -->
<g id="node12" class="node">
<title>choice100101118451089711010347112121116104111110455146544651</title>
<g id="a_node12"><a xlink:href="../dev-lang/python-3.6.3.svg" xlink:title="dev&#45;lang/python&#45;3.6.3">
<ellipse fill="none" stroke="red" cx="1243" cy="-628" rx="144" ry="18"/>
<text text-anchor="middle" x="1243" y="-625" font-family="Helvetica,sans-Serif" font-size="10.00">dev&#45;lang/python&#45;3.6.3</text>
</a>
</g>
</g>
<!-- dependency54541&#45;&gt;choice100101118451089711010347112121116104111110455146544651 -->
<g id="edge11" class="edge">
<title>dependency54541:e&#45;&gt;choice100101118451089711010347112121116104111110455146544651:w</title>
<path fill="none" stroke="black" stroke-dasharray="1,5" d="M992,-682C1041.26,-682 1044.85,-635.13 1087.86,-628.72"/>
<polygon fill="black" stroke="black" points="1098,-628 1088.35,-633.2 1093.01,-628.36 1088.03,-628.71 1088.03,-628.71 1088.03,-628.71 1093.01,-628.36 1087.71,-624.22 1098,-628 1098,-628"/>
</g>
<!-- choice1001011184510897110103471121211161041111104510112010199455046524652 -->
<g id="node13" class="node">
<title>choice1001011184510897110103471121211161041111104510112010199455046524652</title>
<g id="a_node13"><a xlink:href="../dev-lang/python-exec-2.4.4.svg" xlink:title="dev&#45;lang/python&#45;exec&#45;2.4.4">
<ellipse fill="none" stroke="red" cx="1243" cy="-574" rx="144" ry="18"/>
<text text-anchor="middle" x="1243" y="-571" font-family="Helvetica,sans-Serif" font-size="10.00">dev&#45;lang/python&#45;exec&#45;2.4.4</text>
</a>
</g>
</g>
<!-- dependency54542&#45;&gt;choice1001011184510897110103471121211161041111104510112010199455046524652 -->
<g id="edge12" class="edge">
<title>dependency54542:e&#45;&gt;choice1001011184510897110103471121211161041111104510112010199455046524652:w</title>
<path fill="none" stroke="black" stroke-dasharray="1,5" d="M992,-520C1041.26,-520 1044.85,-566.87 1087.86,-573.28"/>
<polygon fill="black" stroke="black" points="1098,-574 1087.71,-577.78 1093.01,-573.64 1088.03,-573.29 1088.03,-573.29 1088.03,-573.29 1093.01,-573.64 1088.35,-568.8 1098,-574 1098,-574"/>
</g>
<!-- choice1001011184510897110103471121211161041111104510112010199455046524653 -->
<g id="node14" class="node">
<title>choice1001011184510897110103471121211161041111104510112010199455046524653</title>
<g id="a_node14"><a xlink:href="../dev-lang/python-exec-2.4.5.svg" xlink:title="dev&#45;lang/python&#45;exec&#45;2.4.5">
<ellipse fill="none" stroke="red" cx="1243" cy="-520" rx="144" ry="18"/>
<text text-anchor="middle" x="1243" y="-517" font-family="Helvetica,sans-Serif" font-size="10.00">dev&#45;lang/python&#45;exec&#45;2.4.5</text>
</a>
</g>
</g>
<!-- dependency54542&#45;&gt;choice1001011184510897110103471121211161041111104510112010199455046524653 -->
<g id="edge13" class="edge">
<title>dependency54542:e&#45;&gt;choice1001011184510897110103471121211161041111104510112010199455046524653:w</title>
<path fill="none" stroke="black" stroke-dasharray="1,5" d="M992,-520C1035.43,-520 1048.83,-520 1087.57,-520"/>
<polygon fill="black" stroke="black" points="1098,-520 1088,-524.5 1093,-520 1088,-520 1088,-520 1088,-520 1093,-520 1088,-515.5 1098,-520 1098,-520"/>
</g>
<!-- choice10010111845108971101034711212111610411111045101120101994557575757 -->
<g id="node15" class="node">
<title>choice10010111845108971101034711212111610411111045101120101994557575757</title>
<g id="a_node15"><a xlink:href="../dev-lang/python-exec-9999.svg" xlink:title="dev&#45;lang/python&#45;exec&#45;9999">
<ellipse fill="none" stroke="red" cx="1243" cy="-466" rx="144" ry="18"/>
<text text-anchor="middle" x="1243" y="-463" font-family="Helvetica,sans-Serif" font-size="10.00">dev&#45;lang/python&#45;exec&#45;9999</text>
</a>
</g>
</g>
<!-- dependency54542&#45;&gt;choice10010111845108971101034711212111610411111045101120101994557575757 -->
<g id="edge14" class="edge">
<title>dependency54542:e&#45;&gt;choice10010111845108971101034711212111610411111045101120101994557575757:w</title>
<path fill="none" stroke="black" stroke-dasharray="1,5" d="M992,-520C1041.26,-520 1044.85,-473.13 1087.86,-466.72"/>
<polygon fill="black" stroke="black" points="1098,-466 1088.35,-471.2 1093.01,-466.36 1088.03,-466.71 1088.03,-466.71 1088.03,-466.71 1093.01,-466.36 1087.71,-462.22 1098,-466 1098,-466"/>
</g>
<!-- choice1101011164510910511599479911711410845554653534649 -->
<g id="node16" class="node">
<title>choice1101011164510910511599479911711410845554653534649</title>
<g id="a_node16"><a xlink:href="../net-misc/curl-7.55.1.svg" xlink:title="net&#45;misc/curl&#45;7.55.1">
<ellipse fill="none" stroke="red" cx="1243" cy="-412" rx="144" ry="18"/>
<text text-anchor="middle" x="1243" y="-409" font-family="Helvetica,sans-Serif" font-size="10.00">net&#45;misc/curl&#45;7.55.1</text>
</a>
</g>
</g>
<!-- dependency54543&#45;&gt;choice1101011164510910511599479911711410845554653534649 -->
<g id="edge15" class="edge">
<title>dependency54543:e&#45;&gt;choice1101011164510910511599479911711410845554653534649:w</title>
<path fill="none" stroke="black" stroke-dasharray="1,5" d="M992,-358C1041.26,-358 1044.85,-404.87 1087.86,-411.28"/>
<polygon fill="black" stroke="black" points="1098,-412 1087.71,-415.78 1093.01,-411.64 1088.03,-411.29 1088.03,-411.29 1088.03,-411.29 1093.01,-411.64 1088.35,-406.8 1098,-412 1098,-412"/>
</g>
<!-- choice1101011164510910511599479911711410845554653544648 -->
<g id="node17" class="node">
<title>choice1101011164510910511599479911711410845554653544648</title>
<g id="a_node17"><a xlink:href="../net-misc/curl-7.56.0.svg" xlink:title="net&#45;misc/curl&#45;7.56.0">
<ellipse fill="none" stroke="red" cx="1243" cy="-358" rx="144" ry="18"/>
<text text-anchor="middle" x="1243" y="-355" font-family="Helvetica,sans-Serif" font-size="10.00">net&#45;misc/curl&#45;7.56.0</text>
</a>
</g>
</g>
<!-- dependency54543&#45;&gt;choice1101011164510910511599479911711410845554653544648 -->
<g id="edge16" class="edge">
<title>dependency54543:e&#45;&gt;choice1101011164510910511599479911711410845554653544648:w</title>
<path fill="none" stroke="black" stroke-dasharray="1,5" d="M992,-358C1035.43,-358 1048.83,-358 1087.57,-358"/>
<polygon fill="black" stroke="black" points="1098,-358 1088,-362.5 1093,-358 1088,-358 1088,-358 1088,-358 1093,-358 1088,-353.5 1098,-358 1098,-358"/>
</g>
<!-- choice1101011164510910511599479911711410845554653544649 -->
<g id="node18" class="node">
<title>choice1101011164510910511599479911711410845554653544649</title>
<g id="a_node18"><a xlink:href="../net-misc/curl-7.56.1.svg" xlink:title="net&#45;misc/curl&#45;7.56.1">
<ellipse fill="none" stroke="red" cx="1243" cy="-304" rx="144" ry="18"/>
<text text-anchor="middle" x="1243" y="-301" font-family="Helvetica,sans-Serif" font-size="10.00">net&#45;misc/curl&#45;7.56.1</text>
</a>
</g>
</g>
<!-- dependency54543&#45;&gt;choice1101011164510910511599479911711410845554653544649 -->
<g id="edge17" class="edge">
<title>dependency54543:e&#45;&gt;choice1101011164510910511599479911711410845554653544649:w</title>
<path fill="none" stroke="black" stroke-dasharray="1,5" d="M992,-358C1041.26,-358 1044.85,-311.13 1087.86,-304.72"/>
<polygon fill="black" stroke="black" points="1098,-304 1088.35,-309.2 1093.01,-304.36 1088.03,-304.71 1088.03,-304.71 1088.03,-304.71 1093.01,-304.36 1087.71,-300.22 1098,-304 1098,-304"/>
</g>
<!-- choice1151211154597112112115471121111141169710310145504651464950 -->
<g id="node19" class="node">
<title>choice1151211154597112112115471121111141169710310145504651464950</title>
<g id="a_node19"><a xlink:href="../sys-apps/portage-2.3.12.svg" xlink:title="sys&#45;apps/portage&#45;2.3.12">
<ellipse fill="none" stroke="red" cx="1243" cy="-250" rx="144" ry="18"/>
<text text-anchor="middle" x="1243" y="-247" font-family="Helvetica,sans-Serif" font-size="10.00">sys&#45;apps/portage&#45;2.3.12</text>
</a>
</g>
</g>
<!-- dependency54544&#45;&gt;choice1151211154597112112115471121111141169710310145504651464950 -->
<g id="edge18" class="edge">
<title>dependency54544:e&#45;&gt;choice1151211154597112112115471121111141169710310145504651464950:w</title>
<path fill="none" stroke="black" stroke-dasharray="1,5" d="M992,-196C1041.26,-196 1044.85,-242.87 1087.86,-249.28"/>
<polygon fill="black" stroke="black" points="1098,-250 1087.71,-253.78 1093.01,-249.64 1088.03,-249.29 1088.03,-249.29 1088.03,-249.29 1093.01,-249.64 1088.35,-244.8 1098,-250 1098,-250"/>
</g>
<!-- choice1151211154597112112115471121111141169710310145504651464951 -->
<g id="node20" class="node">
<title>choice1151211154597112112115471121111141169710310145504651464951</title>
<g id="a_node20"><a xlink:href="../sys-apps/portage-2.3.13.svg" xlink:title="sys&#45;apps/portage&#45;2.3.13">
<ellipse fill="none" stroke="red" cx="1243" cy="-196" rx="144" ry="18"/>
<text text-anchor="middle" x="1243" y="-193" font-family="Helvetica,sans-Serif" font-size="10.00">sys&#45;apps/portage&#45;2.3.13</text>
</a>
</g>
</g>
<!-- dependency54544&#45;&gt;choice1151211154597112112115471121111141169710310145504651464951 -->
<g id="edge19" class="edge">
<title>dependency54544:e&#45;&gt;choice1151211154597112112115471121111141169710310145504651464951:w</title>
<path fill="none" stroke="black" stroke-dasharray="1,5" d="M992,-196C1035.43,-196 1048.83,-196 1087.57,-196"/>
<polygon fill="black" stroke="black" points="1098,-196 1088,-200.5 1093,-196 1088,-196 1088,-196 1088,-196 1093,-196 1088,-191.5 1098,-196 1098,-196"/>
</g>
<!-- choice11512111545971121121154711211111411697103101455046514654 -->
<g id="node21" class="node">
<title>choice11512111545971121121154711211111411697103101455046514654</title>
<g id="a_node21"><a xlink:href="../sys-apps/portage-2.3.6.svg" xlink:title="sys&#45;apps/portage&#45;2.3.6">
<ellipse fill="none" stroke="red" cx="1243" cy="-142" rx="144" ry="18"/>
<text text-anchor="middle" x="1243" y="-139" font-family="Helvetica,sans-Serif" font-size="10.00">sys&#45;apps/portage&#45;2.3.6</text>
</a>
</g>
</g>
<!-- dependency54544&#45;&gt;choice11512111545971121121154711211111411697103101455046514654 -->
<g id="edge20" class="edge">
<title>dependency54544:e&#45;&gt;choice11512111545971121121154711211111411697103101455046514654:w</title>
<path fill="none" stroke="black" stroke-dasharray="1,5" d="M992,-196C1041.26,-196 1044.85,-149.13 1087.86,-142.72"/>
<polygon fill="black" stroke="black" points="1098,-142 1088.35,-147.2 1093.01,-142.36 1088.03,-142.71 1088.03,-142.71 1088.03,-142.71 1093.01,-142.36 1087.71,-138.22 1098,-142 1098,-142"/>
</g>
<!-- choice11512111545971121121154711211111411697103101455046514656 -->
<g id="node22" class="node">
<title>choice11512111545971121121154711211111411697103101455046514656</title>
<g id="a_node22"><a xlink:href="../sys-apps/portage-2.3.8.svg" xlink:title="sys&#45;apps/portage&#45;2.3.8">
<ellipse fill="none" stroke="red" cx="1243" cy="-88" rx="144" ry="18"/>
<text text-anchor="middle" x="1243" y="-85" font-family="Helvetica,sans-Serif" font-size="10.00">sys&#45;apps/portage&#45;2.3.8</text>
</a>
</g>
</g>
<!-- dependency54544&#45;&gt;choice11512111545971121121154711211111411697103101455046514656 -->
<g id="edge21" class="edge">
<title>dependency54544:e&#45;&gt;choice11512111545971121121154711211111411697103101455046514656:w</title>
<path fill="none" stroke="black" stroke-dasharray="1,5" d="M992,-196C1055.58,-196 1033.58,-99.49 1087.79,-88.93"/>
<polygon fill="black" stroke="black" points="1098,-88 1088.45,-93.39 1093.02,-88.46 1088.04,-88.91 1088.04,-88.91 1088.04,-88.91 1093.02,-88.46 1087.63,-84.43 1098,-88 1098,-88"/>
</g>
<!-- choice115121115459711211211547112111114116971031014557575757 -->
<g id="node23" class="node">
<title>choice115121115459711211211547112111114116971031014557575757</title>
<g id="a_node23"><a xlink:href="../sys-apps/portage-9999.svg" xlink:title="sys&#45;apps/portage&#45;9999">
<ellipse fill="none" stroke="red" cx="1243" cy="-34" rx="144" ry="18"/>
<text text-anchor="middle" x="1243" y="-31" font-family="Helvetica,sans-Serif" font-size="10.00">sys&#45;apps/portage&#45;9999</text>
</a>
</g>
</g>
<!-- dependency54544&#45;&gt;choice115121115459711211211547112111114116971031014557575757 -->
<g id="edge22" class="edge">
<title>dependency54544:e&#45;&gt;choice115121115459711211211547112111114116971031014557575757:w</title>
<path fill="none" stroke="black" stroke-dasharray="1,5" d="M992,-196C1074.35,-196 1017.36,-47.62 1087.73,-34.87"/>
<polygon fill="black" stroke="black" points="1098,-34 1088.42,-39.33 1093.02,-34.42 1088.04,-34.85 1088.04,-34.85 1088.04,-34.85 1093.02,-34.42 1087.66,-30.36 1098,-34 1098,-34"/>
</g>
</g>
</svg>
