<?xml version="1.0" encoding="UTF-8" standalone="no"?>
<!DOCTYPE svg PUBLIC "-//W3C//DTD SVG 1.1//EN"
 "http://www.w3.org/Graphics/SVG/1.1/DTD/svg11.dtd">
<!-- Generated by graphviz version 2.41.20171026.1811 (20171026.1811)
 -->
<!-- Title: prolog Pages: 1 -->
<svg width="982pt" height="2038pt"
 viewBox="0.00 0.00 982.00 2038.00" xmlns="http://www.w3.org/2000/svg" xmlns:xlink="http://www.w3.org/1999/xlink">
<g id="graph0" class="graph" transform="scale(1 1) rotate(0) translate(4 2034)">
<title>prolog</title>
<polygon fill="white" stroke="transparent" points="-4,4 -4,-2034 978,-2034 978,4 -4,4"/>
<g id="clust17" class="cluster">
<title>cluster_choices</title>
<polygon fill="none" stroke="gray" points="662,-8 662,-2022 966,-2022 966,-8 662,-8"/>
<text text-anchor="start" x="789.82" y="-2010" font-family="Helvetica,sans-Serif" font-style="italic" font-size="10.00">candidates</text>
</g>
<g id="clust1" class="cluster">
<title>cluster_leftcol</title>
<polygon fill="none" stroke="gray" points="8,-620 8,-692 312,-692 312,-620 8,-620"/>
<text text-anchor="start" x="146.66" y="-680" font-family="Helvetica,sans-Serif" font-style="italic" font-size="10.00">ebuild</text>
</g>
<g id="clust2" class="cluster">
<title>cluster_midcol</title>
<polygon fill="none" stroke="gray" points="396,-933 396,-1057 578,-1057 578,-933 396,-933"/>
<text text-anchor="start" x="455.88" y="-1045" font-family="Helvetica,sans-Serif" font-style="italic" font-size="10.00">dependencies</text>
</g>
<g id="clust3" class="cluster">
<title>cluster_compile</title>
<polygon fill="#eeeeee" stroke="gray" points="404,-941 404,-1029 570,-1029 570,-941 404,-941"/>
<text text-anchor="start" x="469.78" y="-1017" font-family="Helvetica,sans-Serif" font-style="italic" font-size="10.00">compile</text>
</g>
<!-- id -->
<g id="node1" class="node">
<title>id</title>
<g id="a_node1"><a xlink:href="../app-portage/pram-8.svg" xlink:title="app&#45;portage/pram&#45;8">
<ellipse fill="none" stroke="red" cx="160" cy="-646" rx="144" ry="18"/>
<text text-anchor="middle" x="160" y="-643" font-family="Helvetica,sans-Serif" font-size="10.00">app&#45;portage/pram&#45;8</text>
</a>
</g>
</g>
<!-- dependency506650 -->
<g id="node2" class="node">
<title>dependency506650</title>
<polygon fill="none" stroke="red" points="420,-953 420,-997 511,-997 511,-953 420,-953"/>
<text text-anchor="start" x="430.77" y="-972" font-family="Helvetica,sans-Serif" font-size="10.00">use_conditional</text>
<polygon fill="none" stroke="red" points="511,-975 511,-997 554,-997 554,-975 511,-975"/>
<text text-anchor="start" x="515.55" y="-983" font-family="Helvetica,sans-Serif" font-size="10.00">positive</text>
<polygon fill="none" stroke="red" points="511,-953 511,-975 554,-975 554,-953 511,-953"/>
<text text-anchor="start" x="524.44" y="-961" font-family="Helvetica,sans-Serif" font-size="10.00">test</text>
</g>
<!-- id&#45;&gt;dependency506650 -->
<g id="edge7" class="edge">
<title>id:e&#45;&gt;dependency506650:w</title>
<path fill="none" stroke="black" d="M305,-646C455.02,-646 266.61,-959.76 400.77,-974.47"/>
<polygon fill="black" stroke="black" points="411,-975 400.78,-978.97 406.01,-974.74 401.01,-974.48 401.01,-974.48 401.01,-974.48 406.01,-974.74 401.25,-969.98 411,-975 411,-975"/>
</g>
<!-- dependency506657 -->
<g id="node9" class="node">
<title>dependency506657</title>
<polygon fill="none" stroke="blue" points="704,-392 704,-490 809,-490 809,-392 704,-392"/>
<text text-anchor="start" x="734.82" y="-438" font-family="Helvetica,sans-Serif" font-size="10.00">pack_dep</text>
<polygon fill="none" stroke="blue" points="809,-468 809,-490 919,-490 919,-468 809,-468"/>
<text text-anchor="start" x="858.44" y="-476" font-family="Helvetica,sans-Serif" font-size="10.00">no</text>
<polygon fill="none" stroke="blue" points="809,-446 809,-468 919,-468 919,-446 809,-446"/>
<text text-anchor="start" x="846.78" y="-454" font-family="Helvetica,sans-Serif" font-size="10.00">dev&#45;vcs</text>
<polygon fill="none" stroke="blue" points="809,-424 809,-446 919,-446 919,-424 809,-424"/>
<text text-anchor="start" x="858.72" y="-432" font-family="Helvetica,sans-Serif" font-size="10.00">git</text>
<polygon fill="none" stroke="blue" points="809,-402 809,-424 919,-424 919,-402 809,-402"/>
<text text-anchor="start" x="852.88" y="-410" font-family="Helvetica,sans-Serif" font-size="10.00">none</text>
<polygon fill="none" stroke="blue" points="809,-392 809,-402 919,-402 919,-392 809,-392"/>
</g>
<!-- id&#45;&gt;dependency506657 -->
<g id="edge8" class="edge">
<title>id:e&#45;&gt;dependency506657:w</title>
<path fill="none" stroke="black" d="M488,-317C580.23,-268.05 587.43,-431.97 686.73,-440.64"/>
<ellipse fill="none" stroke="black" cx="691" cy="-440.83" rx="4" ry="4"/>
</g>
<!-- dependency506658 -->
<g id="node10" class="node">
<title>dependency506658</title>
<polygon fill="none" stroke="blue" points="704,-268 704,-366 809,-366 809,-268 704,-268"/>
<text text-anchor="start" x="734.82" y="-314" font-family="Helvetica,sans-Serif" font-size="10.00">pack_dep</text>
<polygon fill="none" stroke="blue" points="809,-344 809,-366 919,-366 919,-344 809,-344"/>
<text text-anchor="start" x="858.44" y="-352" font-family="Helvetica,sans-Serif" font-size="10.00">no</text>
<polygon fill="none" stroke="blue" points="809,-322 809,-344 919,-344 919,-322 809,-322"/>
<text text-anchor="start" x="845.11" y="-330" font-family="Helvetica,sans-Serif" font-size="10.00">net&#45;misc</text>
<polygon fill="none" stroke="blue" points="809,-300 809,-322 919,-322 919,-300 809,-300"/>
<text text-anchor="start" x="853.44" y="-308" font-family="Helvetica,sans-Serif" font-size="10.00">wget</text>
<polygon fill="none" stroke="blue" points="809,-278 809,-300 919,-300 919,-278 809,-278"/>
<text text-anchor="start" x="852.88" y="-286" font-family="Helvetica,sans-Serif" font-size="10.00">none</text>
<polygon fill="none" stroke="blue" points="809,-268 809,-278 919,-278 919,-268 809,-268"/>
</g>
<!-- id&#45;&gt;dependency506658 -->
<g id="edge9" class="edge">
<title>id:e&#45;&gt;dependency506658:w</title>
<path fill="none" stroke="black" d="M488,-317C566.8,-275.18 600.91,-314.47 686.8,-316.89"/>
<ellipse fill="none" stroke="black" cx="691" cy="-316.94" rx="4" ry="4"/>
</g>
<!-- dependency506659 -->
<g id="node11" class="node">
<title>dependency506659</title>
<polygon fill="none" stroke="blue" points="704,-144 704,-242 809,-242 809,-144 704,-144"/>
<text text-anchor="start" x="734.82" y="-190" font-family="Helvetica,sans-Serif" font-size="10.00">pack_dep</text>
<polygon fill="none" stroke="blue" points="809,-220 809,-242 919,-242 919,-220 809,-220"/>
<text text-anchor="start" x="858.44" y="-228" font-family="Helvetica,sans-Serif" font-size="10.00">no</text>
<polygon fill="none" stroke="blue" points="809,-198 809,-220 919,-220 919,-198 809,-198"/>
<text text-anchor="start" x="850.67" y="-206" font-family="Helvetica,sans-Serif" font-size="10.00">virtual</text>
<polygon fill="none" stroke="blue" points="809,-176 809,-198 919,-198 919,-176 809,-176"/>
<text text-anchor="start" x="851.5" y="-184" font-family="Helvetica,sans-Serif" font-size="10.00">editor</text>
<polygon fill="none" stroke="blue" points="809,-154 809,-176 919,-176 919,-154 809,-154"/>
<text text-anchor="start" x="852.88" y="-162" font-family="Helvetica,sans-Serif" font-size="10.00">none</text>
<polygon fill="none" stroke="blue" points="809,-144 809,-154 919,-154 919,-144 809,-144"/>
</g>
<!-- id&#45;&gt;dependency506659 -->
<g id="edge10" class="edge">
<title>id:e&#45;&gt;dependency506659:w</title>
<path fill="none" stroke="black" d="M488,-317C580.23,-268.05 587.43,-196.87 686.73,-193.15"/>
<ellipse fill="none" stroke="black" cx="691" cy="-193.07" rx="4" ry="4"/>
</g>
<!-- dependency506660 -->
<g id="node12" class="node">
<title>dependency506660</title>
<polygon fill="none" stroke="blue" points="704,-20 704,-118 809,-118 809,-20 704,-20"/>
<text text-anchor="start" x="734.82" y="-66" font-family="Helvetica,sans-Serif" font-size="10.00">pack_dep</text>
<polygon fill="none" stroke="blue" points="809,-96 809,-118 919,-118 919,-96 809,-96"/>
<text text-anchor="start" x="852.33" y="-104" font-family="Helvetica,sans-Serif" font-size="10.00">weak</text>
<polygon fill="none" stroke="blue" points="809,-74 809,-96 919,-96 919,-74 809,-74"/>
<text text-anchor="start" x="845.94" y="-82" font-family="Helvetica,sans-Serif" font-size="10.00">dev&#45;perl</text>
<polygon fill="none" stroke="blue" points="809,-52 809,-74 919,-74 919,-52 809,-52"/>
<text text-anchor="start" x="823.44" y="-60" font-family="Helvetica,sans-Serif" font-size="10.00">Gentoo&#45;App&#45;Pram</text>
<polygon fill="none" stroke="blue" points="809,-30 809,-52 919,-52 919,-30 809,-30"/>
<text text-anchor="start" x="852.88" y="-38" font-family="Helvetica,sans-Serif" font-size="10.00">none</text>
<polygon fill="none" stroke="blue" points="809,-20 809,-30 919,-30 919,-20 809,-20"/>
</g>
<!-- id&#45;&gt;dependency506660 -->
<g id="edge11" class="edge">
<title>id:e&#45;&gt;dependency506660:w</title>
<path fill="none" stroke="black" d="M488,-317C612.34,-251.01 553.83,-76.02 686.82,-69.2"/>
<ellipse fill="none" stroke="black" cx="691" cy="-69.1" rx="4" ry="4"/>
<path fill="none" stroke="black" d="M305,-646C471.89,-646 338.58,-395.24 486,-317"/>
</g>
<!-- dependency506651 -->
<g id="node3" class="node">
<title>dependency506651</title>
<polygon fill="none" stroke="blue" points="704,-1514 704,-1612 809,-1612 809,-1514 704,-1514"/>
<text text-anchor="start" x="734.82" y="-1560" font-family="Helvetica,sans-Serif" font-size="10.00">pack_dep</text>
<polygon fill="none" stroke="blue" points="809,-1590 809,-1612 919,-1612 919,-1590 809,-1590"/>
<text text-anchor="start" x="858.44" y="-1598" font-family="Helvetica,sans-Serif" font-size="10.00">no</text>
<polygon fill="none" stroke="blue" points="809,-1568 809,-1590 919,-1590 919,-1568 809,-1568"/>
<text text-anchor="start" x="846.78" y="-1576" font-family="Helvetica,sans-Serif" font-size="10.00">dev&#45;vcs</text>
<polygon fill="none" stroke="blue" points="809,-1546 809,-1568 919,-1568 919,-1546 809,-1546"/>
<text text-anchor="start" x="858.72" y="-1554" font-family="Helvetica,sans-Serif" font-size="10.00">git</text>
<polygon fill="none" stroke="blue" points="809,-1524 809,-1546 919,-1546 919,-1524 809,-1524"/>
<text text-anchor="start" x="852.88" y="-1532" font-family="Helvetica,sans-Serif" font-size="10.00">none</text>
<polygon fill="none" stroke="blue" points="809,-1514 809,-1524 919,-1524 919,-1514 809,-1514"/>
</g>
<!-- dependency506650&#45;&gt;dependency506651 -->
<g id="edge1" class="edge">
<title>dependency506650:e&#45;&gt;dependency506651:w</title>
<path fill="none" stroke="black" stroke-dasharray="5,2" d="M563,-975C827.31,-975 437.69,-1547.6 684.75,-1562.7"/>
<polygon fill="black" stroke="black" points="695,-1563 684.87,-1567.2 690,-1562.85 685,-1562.7 685,-1562.7 685,-1562.7 690,-1562.85 685.14,-1558.21 695,-1563 695,-1563"/>
</g>
<!-- dependency506652 -->
<g id="node4" class="node">
<title>dependency506652</title>
<polygon fill="none" stroke="blue" points="704,-1282 704,-1380 809,-1380 809,-1282 704,-1282"/>
<text text-anchor="start" x="734.82" y="-1328" font-family="Helvetica,sans-Serif" font-size="10.00">pack_dep</text>
<polygon fill="none" stroke="blue" points="809,-1358 809,-1380 919,-1380 919,-1358 809,-1358"/>
<text text-anchor="start" x="858.44" y="-1366" font-family="Helvetica,sans-Serif" font-size="10.00">no</text>
<polygon fill="none" stroke="blue" points="809,-1336 809,-1358 919,-1358 919,-1336 809,-1336"/>
<text text-anchor="start" x="845.11" y="-1344" font-family="Helvetica,sans-Serif" font-size="10.00">net&#45;misc</text>
<polygon fill="none" stroke="blue" points="809,-1314 809,-1336 919,-1336 919,-1314 809,-1314"/>
<text text-anchor="start" x="853.44" y="-1322" font-family="Helvetica,sans-Serif" font-size="10.00">wget</text>
<polygon fill="none" stroke="blue" points="809,-1292 809,-1314 919,-1314 919,-1292 809,-1292"/>
<text text-anchor="start" x="852.88" y="-1300" font-family="Helvetica,sans-Serif" font-size="10.00">none</text>
<polygon fill="none" stroke="blue" points="809,-1282 809,-1292 919,-1292 919,-1282 809,-1282"/>
</g>
<!-- dependency506650&#45;&gt;dependency506652 -->
<g id="edge2" class="edge">
<title>dependency506650:e&#45;&gt;dependency506652:w</title>
<path fill="none" stroke="black" stroke-dasharray="5,2" d="M563,-975C728.12,-975 534.91,-1315.87 684.63,-1330.51"/>
<polygon fill="black" stroke="black" points="695,-1331 684.8,-1335.03 690.01,-1330.77 685.01,-1330.53 685.01,-1330.53 685.01,-1330.53 690.01,-1330.77 685.22,-1326.04 695,-1331 695,-1331"/>
</g>
<!-- dependency506653 -->
<g id="node5" class="node">
<title>dependency506653</title>
<polygon fill="none" stroke="blue" points="704,-1104 704,-1202 809,-1202 809,-1104 704,-1104"/>
<text text-anchor="start" x="734.82" y="-1150" font-family="Helvetica,sans-Serif" font-size="10.00">pack_dep</text>
<polygon fill="none" stroke="blue" points="809,-1180 809,-1202 919,-1202 919,-1180 809,-1180"/>
<text text-anchor="start" x="858.44" y="-1188" font-family="Helvetica,sans-Serif" font-size="10.00">no</text>
<polygon fill="none" stroke="blue" points="809,-1158 809,-1180 919,-1180 919,-1158 809,-1158"/>
<text text-anchor="start" x="850.67" y="-1166" font-family="Helvetica,sans-Serif" font-size="10.00">virtual</text>
<polygon fill="none" stroke="blue" points="809,-1136 809,-1158 919,-1158 919,-1136 809,-1136"/>
<text text-anchor="start" x="851.5" y="-1144" font-family="Helvetica,sans-Serif" font-size="10.00">editor</text>
<polygon fill="none" stroke="blue" points="809,-1114 809,-1136 919,-1136 919,-1114 809,-1114"/>
<text text-anchor="start" x="852.88" y="-1122" font-family="Helvetica,sans-Serif" font-size="10.00">none</text>
<polygon fill="none" stroke="blue" points="809,-1104 809,-1114 919,-1114 919,-1104 809,-1104"/>
</g>
<!-- dependency506650&#45;&gt;dependency506653 -->
<g id="edge3" class="edge">
<title>dependency506650:e&#45;&gt;dependency506653:w</title>
<path fill="none" stroke="black" stroke-dasharray="5,2" d="M563,-975C657.93,-975 600.99,-1140.37 684.95,-1152.32"/>
<polygon fill="black" stroke="black" points="695,-1153 684.72,-1156.81 690.01,-1152.66 685.02,-1152.32 685.02,-1152.32 685.02,-1152.32 690.01,-1152.66 685.33,-1147.83 695,-1153 695,-1153"/>
</g>
<!-- dependency506654 -->
<g id="node6" class="node">
<title>dependency506654</title>
<polygon fill="none" stroke="blue" points="704,-926 704,-1024 809,-1024 809,-926 704,-926"/>
<text text-anchor="start" x="734.82" y="-972" font-family="Helvetica,sans-Serif" font-size="10.00">pack_dep</text>
<polygon fill="none" stroke="blue" points="809,-1002 809,-1024 919,-1024 919,-1002 809,-1002"/>
<text text-anchor="start" x="852.33" y="-1010" font-family="Helvetica,sans-Serif" font-size="10.00">weak</text>
<polygon fill="none" stroke="blue" points="809,-980 809,-1002 919,-1002 919,-980 809,-980"/>
<text text-anchor="start" x="845.94" y="-988" font-family="Helvetica,sans-Serif" font-size="10.00">dev&#45;perl</text>
<polygon fill="none" stroke="blue" points="809,-958 809,-980 919,-980 919,-958 809,-958"/>
<text text-anchor="start" x="823.44" y="-966" font-family="Helvetica,sans-Serif" font-size="10.00">Gentoo&#45;App&#45;Pram</text>
<polygon fill="none" stroke="blue" points="809,-936 809,-958 919,-958 919,-936 809,-936"/>
<text text-anchor="start" x="852.88" y="-944" font-family="Helvetica,sans-Serif" font-size="10.00">none</text>
<polygon fill="none" stroke="blue" points="809,-926 809,-936 919,-936 919,-926 809,-926"/>
</g>
<!-- dependency506650&#45;&gt;dependency506654 -->
<g id="edge4" class="edge">
<title>dependency506650:e&#45;&gt;dependency506654:w</title>
<path fill="none" stroke="black" stroke-dasharray="5,2" d="M563,-975C618.11,-975 634.4,-975 684.81,-975"/>
<polygon fill="black" stroke="black" points="695,-975 685,-979.5 690,-975 685,-975 685,-975 685,-975 690,-975 685,-970.5 695,-975 695,-975"/>
</g>
<!-- dependency506655 -->
<g id="node7" class="node">
<title>dependency506655</title>
<polygon fill="none" stroke="blue" points="704,-748 704,-846 809,-846 809,-748 704,-748"/>
<text text-anchor="start" x="734.82" y="-794" font-family="Helvetica,sans-Serif" font-size="10.00">pack_dep</text>
<polygon fill="none" stroke="blue" points="809,-824 809,-846 919,-846 919,-824 809,-824"/>
<text text-anchor="start" x="858.44" y="-832" font-family="Helvetica,sans-Serif" font-size="10.00">no</text>
<polygon fill="none" stroke="blue" points="809,-802 809,-824 919,-824 919,-802 809,-802"/>
<text text-anchor="start" x="843.16" y="-810" font-family="Helvetica,sans-Serif" font-size="10.00">app&#45;crypt</text>
<polygon fill="none" stroke="blue" points="809,-780 809,-802 919,-802 919,-780 809,-780"/>
<text text-anchor="start" x="850.1" y="-788" font-family="Helvetica,sans-Serif" font-size="10.00">gnupg</text>
<polygon fill="none" stroke="blue" points="809,-758 809,-780 919,-780 919,-758 809,-758"/>
<text text-anchor="start" x="852.88" y="-766" font-family="Helvetica,sans-Serif" font-size="10.00">none</text>
<polygon fill="none" stroke="blue" points="809,-748 809,-758 919,-758 919,-748 809,-748"/>
</g>
<!-- dependency506650&#45;&gt;dependency506655 -->
<g id="edge5" class="edge">
<title>dependency506650:e&#45;&gt;dependency506655:w</title>
<path fill="none" stroke="black" stroke-dasharray="5,2" d="M563,-975C657.93,-975 600.99,-809.63 684.95,-797.68"/>
<polygon fill="black" stroke="black" points="695,-797 685.33,-802.17 690.01,-797.34 685.02,-797.68 685.02,-797.68 685.02,-797.68 690.01,-797.34 684.72,-793.19 695,-797 695,-797"/>
</g>
<!-- dependency506656 -->
<g id="node8" class="node">
<title>dependency506656</title>
<polygon fill="none" stroke="blue" points="704,-516 704,-614 809,-614 809,-516 704,-516"/>
<text text-anchor="start" x="734.82" y="-562" font-family="Helvetica,sans-Serif" font-size="10.00">pack_dep</text>
<polygon fill="none" stroke="blue" points="809,-592 809,-614 919,-614 919,-592 809,-592"/>
<text text-anchor="start" x="858.44" y="-600" font-family="Helvetica,sans-Serif" font-size="10.00">no</text>
<polygon fill="none" stroke="blue" points="809,-570 809,-592 919,-592 919,-570 809,-570"/>
<text text-anchor="start" x="844" y="-578" font-family="Helvetica,sans-Serif" font-size="10.00">sys&#45;apps</text>
<polygon fill="none" stroke="blue" points="809,-548 809,-570 919,-570 919,-548 809,-548"/>
<text text-anchor="start" x="848.44" y="-556" font-family="Helvetica,sans-Serif" font-size="10.00">diffutils</text>
<polygon fill="none" stroke="blue" points="809,-526 809,-548 919,-548 919,-526 809,-526"/>
<text text-anchor="start" x="852.88" y="-534" font-family="Helvetica,sans-Serif" font-size="10.00">none</text>
<polygon fill="none" stroke="blue" points="809,-516 809,-526 919,-526 919,-516 809,-516"/>
</g>
<!-- dependency506650&#45;&gt;dependency506656 -->
<g id="edge6" class="edge">
<title>dependency506650:e&#45;&gt;dependency506656:w</title>
<path fill="none" stroke="black" stroke-dasharray="5,2" d="M563,-975C750.88,-975 512.72,-580.07 684.8,-565.42"/>
<polygon fill="black" stroke="black" points="695,-565 685.19,-569.91 690,-565.2 685.01,-565.41 685.01,-565.41 685.01,-565.41 690,-565.2 684.82,-560.91 695,-565 695,-565"/>
</g>
<!-- choice10010111845118991154710310511645504650494648 -->
<g id="node13" class="node">
<title>choice10010111845118991154710310511645504650494648</title>
<g id="a_node13"><a xlink:href="../dev-vcs/git-2.21.0.svg" xlink:title="dev&#45;vcs/git&#45;2.21.0">
<ellipse fill="none" stroke="red" cx="814" cy="-1976" rx="144" ry="18"/>
<text text-anchor="middle" x="814" y="-1973" font-family="Helvetica,sans-Serif" font-size="10.00">dev&#45;vcs/git&#45;2.21.0</text>
</a>
</g>
</g>
<!-- dependency506651&#45;&gt;choice10010111845118991154710310511645504650494648 -->
<g id="edge12" class="edge">
<title>dependency506651:e&#45;&gt;choice10010111845118991154710310511645504650494648:w</title>
<path fill="none" stroke="black" stroke-dasharray="1,5" d="M933,-1563C956.56,-1563 948.54,-1599.22 932,-1616 907.62,-1640.73 641.83,-1607 620,-1634 577.25,-1686.88 589.29,-1879.33 620,-1940 630.54,-1960.81 639.26,-1972.52 658.83,-1975.33"/>
<polygon fill="black" stroke="black" points="669,-1976 658.73,-1979.84 664.01,-1975.67 659.02,-1975.34 659.02,-1975.34 659.02,-1975.34 664.01,-1975.67 659.32,-1970.85 669,-1976 669,-1976"/>
</g>
<!-- choice100101118451189911547103105116455046505146484511449 -->
<g id="node14" class="node">
<title>choice100101118451189911547103105116455046505146484511449</title>
<g id="a_node14"><a xlink:href="../dev-vcs/git-2.23.0-r1.svg" xlink:title="dev&#45;vcs/git&#45;2.23.0&#45;r1">
<ellipse fill="none" stroke="red" cx="814" cy="-1922" rx="144" ry="18"/>
<text text-anchor="middle" x="814" y="-1919" font-family="Helvetica,sans-Serif" font-size="10.00">dev&#45;vcs/git&#45;2.23.0&#45;r1</text>
</a>
</g>
</g>
<!-- dependency506651&#45;&gt;choice100101118451189911547103105116455046505146484511449 -->
<g id="edge13" class="edge">
<title>dependency506651:e&#45;&gt;choice100101118451189911547103105116455046505146484511449:w</title>
<path fill="none" stroke="black" stroke-dasharray="1,5" d="M933,-1563C956.56,-1563 948.54,-1599.22 932,-1616 907.62,-1640.73 641.83,-1607 620,-1634 584.79,-1677.55 594.71,-1836.04 620,-1886 630.54,-1906.81 639.26,-1918.52 658.83,-1921.33"/>
<polygon fill="black" stroke="black" points="669,-1922 658.73,-1925.84 664.01,-1921.67 659.02,-1921.34 659.02,-1921.34 659.02,-1921.34 664.01,-1921.67 659.32,-1916.85 669,-1922 669,-1922"/>
</g>
<!-- choice10010111845118991154710310511645504650524648 -->
<g id="node15" class="node">
<title>choice10010111845118991154710310511645504650524648</title>
<g id="a_node15"><a xlink:href="../dev-vcs/git-2.24.0.svg" xlink:title="dev&#45;vcs/git&#45;2.24.0">
<ellipse fill="none" stroke="red" cx="814" cy="-1868" rx="144" ry="18"/>
<text text-anchor="middle" x="814" y="-1865" font-family="Helvetica,sans-Serif" font-size="10.00">dev&#45;vcs/git&#45;2.24.0</text>
</a>
</g>
</g>
<!-- dependency506651&#45;&gt;choice10010111845118991154710310511645504650524648 -->
<g id="edge14" class="edge">
<title>dependency506651:e&#45;&gt;choice10010111845118991154710310511645504650524648:w</title>
<path fill="none" stroke="black" stroke-dasharray="1,5" d="M933,-1563C956.56,-1563 948.54,-1599.22 932,-1616 907.62,-1640.73 641.83,-1607 620,-1634 564.68,-1702.43 580.26,-1753.49 620,-1832 630.54,-1852.81 639.26,-1864.52 658.83,-1867.33"/>
<polygon fill="black" stroke="black" points="669,-1868 658.73,-1871.84 664.01,-1867.67 659.02,-1867.34 659.02,-1867.34 659.02,-1867.34 664.01,-1867.67 659.32,-1862.85 669,-1868 669,-1868"/>
</g>
<!-- choice1001011184511899115471031051164557575757 -->
<g id="node16" class="node">
<title>choice1001011184511899115471031051164557575757</title>
<g id="a_node16"><a xlink:href="../dev-vcs/git-9999.svg" xlink:title="dev&#45;vcs/git&#45;9999">
<ellipse fill="none" stroke="red" cx="814" cy="-1814" rx="144" ry="18"/>
<text text-anchor="middle" x="814" y="-1811" font-family="Helvetica,sans-Serif" font-size="10.00">dev&#45;vcs/git&#45;9999</text>
</a>
</g>
</g>
<!-- dependency506651&#45;&gt;choice1001011184511899115471031051164557575757 -->
<g id="edge15" class="edge">
<title>dependency506651:e&#45;&gt;choice1001011184511899115471031051164557575757:w</title>
<path fill="none" stroke="black" stroke-dasharray="1,5" d="M933,-1563C956.56,-1563 948.54,-1599.22 932,-1616 907.62,-1640.73 641.83,-1607 620,-1634 570.12,-1695.71 584.65,-1804.17 658.67,-1813.37"/>
<polygon fill="black" stroke="black" points="669,-1814 658.75,-1817.89 664.01,-1813.7 659.02,-1813.39 659.02,-1813.39 659.02,-1813.39 664.01,-1813.7 659.29,-1808.9 669,-1814 669,-1814"/>
</g>
<!-- choice10010111845118991154710310511645575757574511449 -->
<g id="node17" class="node">
<title>choice10010111845118991154710310511645575757574511449</title>
<g id="a_node17"><a xlink:href="../dev-vcs/git-9999-r1.svg" xlink:title="dev&#45;vcs/git&#45;9999&#45;r1">
<ellipse fill="none" stroke="red" cx="814" cy="-1760" rx="144" ry="18"/>
<text text-anchor="middle" x="814" y="-1757" font-family="Helvetica,sans-Serif" font-size="10.00">dev&#45;vcs/git&#45;9999&#45;r1</text>
</a>
</g>
</g>
<!-- dependency506651&#45;&gt;choice10010111845118991154710310511645575757574511449 -->
<g id="edge16" class="edge">
<title>dependency506651:e&#45;&gt;choice10010111845118991154710310511645575757574511449:w</title>
<path fill="none" stroke="black" stroke-dasharray="1,5" d="M933,-1563C956.56,-1563 948.54,-1599.22 932,-1616 907.62,-1640.73 641.83,-1607 620,-1634 584.44,-1677.99 606.01,-1750.82 658.79,-1759.21"/>
<polygon fill="black" stroke="black" points="669,-1760 658.68,-1763.71 664.02,-1759.61 659.03,-1759.22 659.03,-1759.22 659.03,-1759.22 664.02,-1759.61 659.38,-1754.74 669,-1760 669,-1760"/>
</g>
<!-- choice10010111845118991154710310511645575757574511450 -->
<g id="node18" class="node">
<title>choice10010111845118991154710310511645575757574511450</title>
<g id="a_node18"><a xlink:href="../dev-vcs/git-9999-r2.svg" xlink:title="dev&#45;vcs/git&#45;9999&#45;r2">
<ellipse fill="none" stroke="red" cx="814" cy="-1706" rx="144" ry="18"/>
<text text-anchor="middle" x="814" y="-1703" font-family="Helvetica,sans-Serif" font-size="10.00">dev&#45;vcs/git&#45;9999&#45;r2</text>
</a>
</g>
</g>
<!-- dependency506651&#45;&gt;choice10010111845118991154710310511645575757574511450 -->
<g id="edge17" class="edge">
<title>dependency506651:e&#45;&gt;choice10010111845118991154710310511645575757574511450:w</title>
<path fill="none" stroke="black" stroke-dasharray="1,5" d="M933,-1563C956.56,-1563 948.54,-1599.22 932,-1616 907.62,-1640.73 641.83,-1607 620,-1634 597.85,-1661.4 624.55,-1698.57 658.71,-1705.02"/>
<polygon fill="black" stroke="black" points="669,-1706 658.62,-1709.54 664.02,-1705.53 659.04,-1705.06 659.04,-1705.06 659.04,-1705.06 664.02,-1705.53 659.47,-1700.58 669,-1706 669,-1706"/>
</g>
<!-- choice10010111845118991154710310511645575757574511451 -->
<g id="node19" class="node">
<title>choice10010111845118991154710310511645575757574511451</title>
<g id="a_node19"><a xlink:href="../dev-vcs/git-9999-r3.svg" xlink:title="dev&#45;vcs/git&#45;9999&#45;r3">
<ellipse fill="none" stroke="red" cx="814" cy="-1652" rx="144" ry="18"/>
<text text-anchor="middle" x="814" y="-1649" font-family="Helvetica,sans-Serif" font-size="10.00">dev&#45;vcs/git&#45;9999&#45;r3</text>
</a>
</g>
</g>
<!-- dependency506651&#45;&gt;choice10010111845118991154710310511645575757574511451 -->
<g id="edge18" class="edge">
<title>dependency506651:e&#45;&gt;choice10010111845118991154710310511645575757574511451:w</title>
<path fill="none" stroke="black" stroke-dasharray="1,5" d="M664.98,-1642.58C665.95,-1639.46 667.8,-1636.23 670,-1634 711,-1592.46 891.77,-1658.28 932,-1616 948.24,-1598.93 956.56,-1563 933,-1563"/>
<polygon fill="black" stroke="black" points="669,-1652 660.94,-1644.57 667.04,-1647.4 665.07,-1642.8 665.07,-1642.8 665.07,-1642.8 667.04,-1647.4 669.21,-1641.04 669,-1652 669,-1652"/>
</g>
<!-- choice110101116451091051159947119103101116454946504846514511449 -->
<g id="node20" class="node">
<title>choice110101116451091051159947119103101116454946504846514511449</title>
<g id="a_node20"><a xlink:href="../net-misc/wget-1.20.3-r1.svg" xlink:title="net&#45;misc/wget&#45;1.20.3&#45;r1">
<ellipse fill="none" stroke="red" cx="814" cy="-1474" rx="144" ry="18"/>
<text text-anchor="middle" x="814" y="-1471" font-family="Helvetica,sans-Serif" font-size="10.00">net&#45;misc/wget&#45;1.20.3&#45;r1</text>
</a>
</g>
</g>
<!-- dependency506652&#45;&gt;choice110101116451091051159947119103101116454946504846514511449 -->
<g id="edge19" class="edge">
<title>dependency506652:e&#45;&gt;choice110101116451091051159947119103101116454946504846514511449:w</title>
<path fill="none" stroke="black" stroke-dasharray="1,5" d="M933,-1331C956.56,-1331 948.54,-1367.22 932,-1384 907.62,-1408.73 641.83,-1375 620,-1402 597.85,-1429.4 624.55,-1466.57 658.71,-1473.02"/>
<polygon fill="black" stroke="black" points="669,-1474 658.62,-1477.54 664.02,-1473.53 659.04,-1473.06 659.04,-1473.06 659.04,-1473.06 664.02,-1473.53 659.47,-1468.58 669,-1474 669,-1474"/>
</g>
<!-- choice110101116451091051159947119103101116454946504846514511450 -->
<g id="node21" class="node">
<title>choice110101116451091051159947119103101116454946504846514511450</title>
<g id="a_node21"><a xlink:href="../net-misc/wget-1.20.3-r2.svg" xlink:title="net&#45;misc/wget&#45;1.20.3&#45;r2">
<ellipse fill="none" stroke="red" cx="814" cy="-1420" rx="144" ry="18"/>
<text text-anchor="middle" x="814" y="-1417" font-family="Helvetica,sans-Serif" font-size="10.00">net&#45;misc/wget&#45;1.20.3&#45;r2</text>
</a>
</g>
</g>
<!-- dependency506652&#45;&gt;choice110101116451091051159947119103101116454946504846514511450 -->
<g id="edge20" class="edge">
<title>dependency506652:e&#45;&gt;choice110101116451091051159947119103101116454946504846514511450:w</title>
<path fill="none" stroke="black" stroke-dasharray="1,5" d="M664.98,-1410.58C665.95,-1407.46 667.8,-1404.23 670,-1402 711,-1360.46 891.77,-1426.28 932,-1384 948.24,-1366.93 956.56,-1331 933,-1331"/>
<polygon fill="black" stroke="black" points="669,-1420 660.94,-1412.57 667.04,-1415.4 665.07,-1410.8 665.07,-1410.8 665.07,-1410.8 667.04,-1415.4 669.21,-1409.04 669,-1420 669,-1420"/>
</g>
<!-- choice118105114116117971084710110010511611111445484511450 -->
<g id="node22" class="node">
<title>choice118105114116117971084710110010511611111445484511450</title>
<g id="a_node22"><a xlink:href="../virtual/editor-0-r2.svg" xlink:title="virtual/editor&#45;0&#45;r2">
<ellipse fill="none" stroke="red" cx="814" cy="-1242" rx="144" ry="18"/>
<text text-anchor="middle" x="814" y="-1239" font-family="Helvetica,sans-Serif" font-size="10.00">virtual/editor&#45;0&#45;r2</text>
</a>
</g>
</g>
<!-- dependency506653&#45;&gt;choice118105114116117971084710110010511611111445484511450 -->
<g id="edge21" class="edge">
<title>dependency506653:e&#45;&gt;choice118105114116117971084710110010511611111445484511450:w</title>
<path fill="none" stroke="black" stroke-dasharray="1,5" d="M664.98,-1232.58C665.95,-1229.46 667.8,-1226.23 670,-1224 711,-1182.46 891.77,-1248.28 932,-1206 948.24,-1188.93 956.56,-1153 933,-1153"/>
<polygon fill="black" stroke="black" points="669,-1242 660.94,-1234.57 667.04,-1237.4 665.07,-1232.8 665.07,-1232.8 665.07,-1232.8 667.04,-1237.4 669.21,-1231.04 669,-1242 669,-1242"/>
</g>
<!-- choice10010111845112101114108477110111011611111145651121124580114971094548465048484648 -->
<g id="node23" class="node">
<title>choice10010111845112101114108477110111011611111145651121124580114971094548465048484648</title>
<g id="a_node23"><a xlink:href="../dev-perl/Gentoo-App-Pram-0.200.0.svg" xlink:title="dev&#45;perl/Gentoo&#45;App&#45;Pram&#45;0.200.0">
<ellipse fill="none" stroke="red" cx="814" cy="-1064" rx="144" ry="18"/>
<text text-anchor="middle" x="814" y="-1061" font-family="Helvetica,sans-Serif" font-size="10.00">dev&#45;perl/Gentoo&#45;App&#45;Pram&#45;0.200.0</text>
</a>
</g>
</g>
<!-- dependency506654&#45;&gt;choice10010111845112101114108477110111011611111145651121124580114971094548465048484648 -->
<g id="edge22" class="edge">
<title>dependency506654:e&#45;&gt;choice10010111845112101114108477110111011611111145651121124580114971094548465048484648:w</title>
<path fill="none" stroke="black" stroke-dasharray="1,5" d="M664.98,-1054.58C665.95,-1051.46 667.8,-1048.23 670,-1046 711,-1004.46 891.77,-1070.28 932,-1028 948.24,-1010.93 956.56,-975 933,-975"/>
<polygon fill="black" stroke="black" points="669,-1064 660.94,-1056.57 667.04,-1059.4 665.07,-1054.8 665.07,-1054.8 665.07,-1054.8 667.04,-1059.4 669.21,-1053.04 669,-1064 669,-1064"/>
</g>
<!-- choice9711211245991141211121164710311011711210345504650464955 -->
<g id="node24" class="node">
<title>choice9711211245991141211121164710311011711210345504650464955</title>
<g id="a_node24"><a xlink:href="../app-crypt/gnupg-2.2.17.svg" xlink:title="app&#45;crypt/gnupg&#45;2.2.17">
<ellipse fill="none" stroke="red" cx="814" cy="-886" rx="144" ry="18"/>
<text text-anchor="middle" x="814" y="-883" font-family="Helvetica,sans-Serif" font-size="10.00">app&#45;crypt/gnupg&#45;2.2.17</text>
</a>
</g>
</g>
<!-- dependency506655&#45;&gt;choice9711211245991141211121164710311011711210345504650464955 -->
<g id="edge23" class="edge">
<title>dependency506655:e&#45;&gt;choice9711211245991141211121164710311011711210345504650464955:w</title>
<path fill="none" stroke="black" stroke-dasharray="1,5" d="M664.98,-876.58C665.95,-873.46 667.8,-870.23 670,-868 711,-826.46 891.77,-892.28 932,-850 948.24,-832.93 956.56,-797 933,-797"/>
<polygon fill="black" stroke="black" points="669,-886 660.94,-878.57 667.04,-881.4 665.07,-876.8 665.07,-876.8 665.07,-876.8 667.04,-881.4 669.21,-875.04 669,-886 669,-886"/>
</g>
<!-- choice115121115459711211211547100105102102117116105108115455146544511449 -->
<g id="node25" class="node">
<title>choice115121115459711211211547100105102102117116105108115455146544511449</title>
<g id="a_node25"><a xlink:href="../sys-apps/diffutils-3.6-r1.svg" xlink:title="sys&#45;apps/diffutils&#45;3.6&#45;r1">
<ellipse fill="none" stroke="red" cx="814" cy="-708" rx="144" ry="18"/>
<text text-anchor="middle" x="814" y="-705" font-family="Helvetica,sans-Serif" font-size="10.00">sys&#45;apps/diffutils&#45;3.6&#45;r1</text>
</a>
</g>
</g>
<!-- dependency506656&#45;&gt;choice115121115459711211211547100105102102117116105108115455146544511449 -->
<g id="edge24" class="edge">
<title>dependency506656:e&#45;&gt;choice115121115459711211211547100105102102117116105108115455146544511449:w</title>
<path fill="none" stroke="black" stroke-dasharray="1,5" d="M933,-565C956.56,-565 948.54,-601.22 932,-618 907.62,-642.73 641.83,-609 620,-636 597.85,-663.4 624.55,-700.57 658.71,-707.02"/>
<polygon fill="black" stroke="black" points="669,-708 658.62,-711.54 664.02,-707.53 659.04,-707.06 659.04,-707.06 659.04,-707.06 664.02,-707.53 659.47,-702.58 669,-708 669,-708"/>
</g>
<!-- choice11512111545971121121154710010510210211711610510811545514655 -->
<g id="node26" class="node">
<title>choice11512111545971121121154710010510210211711610510811545514655</title>
<g id="a_node26"><a xlink:href="../sys-apps/diffutils-3.7.svg" xlink:title="sys&#45;apps/diffutils&#45;3.7">
<ellipse fill="none" stroke="red" cx="814" cy="-654" rx="144" ry="18"/>
<text text-anchor="middle" x="814" y="-651" font-family="Helvetica,sans-Serif" font-size="10.00">sys&#45;apps/diffutils&#45;3.7</text>
</a>
</g>
</g>
<!-- dependency506656&#45;&gt;choice11512111545971121121154710010510210211711610510811545514655 -->
<g id="edge25" class="edge">
<title>dependency506656:e&#45;&gt;choice11512111545971121121154710010510210211711610510811545514655:w</title>
<path fill="none" stroke="black" stroke-dasharray="1,5" d="M664.98,-644.58C665.95,-641.46 667.8,-638.23 670,-636 711,-594.46 891.77,-660.28 932,-618 948.24,-600.93 956.56,-565 933,-565"/>
<polygon fill="black" stroke="black" points="669,-654 660.94,-646.57 667.04,-649.4 665.07,-644.8 665.07,-644.8 665.07,-644.8 667.04,-649.4 669.21,-643.04 669,-654 669,-654"/>
</g>
<!-- dependency506657&#45;&gt;choice10010111845118991154710310511645504650494648 -->
<g id="edge26" class="edge">
<title>dependency506657:e&#45;&gt;choice10010111845118991154710310511645504650494648:w</title>
<path fill="none" stroke="black" stroke-dasharray="1,5" d="M933,-441C956.56,-441 948.54,-477.22 932,-494 907.62,-518.73 641.83,-485 620,-512 570.12,-573.69 584.17,-1869.22 620,-1940 630.54,-1960.81 639.26,-1972.52 658.83,-1975.33"/>
<polygon fill="black" stroke="black" points="669,-1976 658.73,-1979.84 664.01,-1975.67 659.02,-1975.34 659.02,-1975.34 659.02,-1975.34 664.01,-1975.67 659.32,-1970.85 669,-1976 669,-1976"/>
</g>
<!-- dependency506657&#45;&gt;choice100101118451189911547103105116455046505146484511449 -->
<g id="edge27" class="edge">
<title>dependency506657:e&#45;&gt;choice100101118451189911547103105116455046505146484511449:w</title>
<path fill="none" stroke="black" stroke-dasharray="1,5" d="M933,-441C956.56,-441 948.54,-477.22 932,-494 907.62,-518.73 641.83,-485 620,-512 572.01,-571.36 585.53,-1817.89 620,-1886 630.54,-1906.81 639.26,-1918.52 658.83,-1921.33"/>
<polygon fill="black" stroke="black" points="669,-1922 658.73,-1925.84 664.01,-1921.67 659.02,-1921.34 659.02,-1921.34 659.02,-1921.34 664.01,-1921.67 659.32,-1916.85 669,-1922 669,-1922"/>
</g>
<!-- dependency506657&#45;&gt;choice10010111845118991154710310511645504650524648 -->
<g id="edge28" class="edge">
<title>dependency506657:e&#45;&gt;choice10010111845118991154710310511645504650524648:w</title>
<path fill="none" stroke="black" stroke-dasharray="1,5" d="M933,-441C956.56,-441 948.54,-477.22 932,-494 907.62,-518.73 641.83,-485 620,-512 573.9,-569.03 586.88,-1766.57 620,-1832 630.54,-1852.81 639.26,-1864.52 658.83,-1867.33"/>
<polygon fill="black" stroke="black" points="669,-1868 658.73,-1871.84 664.01,-1867.67 659.02,-1867.34 659.02,-1867.34 659.02,-1867.34 664.01,-1867.67 659.32,-1862.85 669,-1868 669,-1868"/>
</g>
<!-- dependency506657&#45;&gt;choice1001011184511899115471031051164557575757 -->
<g id="edge29" class="edge">
<title>dependency506657:e&#45;&gt;choice1001011184511899115471031051164557575757:w</title>
<path fill="none" stroke="black" stroke-dasharray="1,5" d="M933,-441C956.56,-441 948.54,-477.22 932,-494 907.62,-518.73 641.83,-485 620,-512 575.78,-566.7 588.24,-1715.25 620,-1778 630.54,-1798.81 639.26,-1810.52 658.83,-1813.33"/>
<polygon fill="black" stroke="black" points="669,-1814 658.73,-1817.84 664.01,-1813.67 659.02,-1813.34 659.02,-1813.34 659.02,-1813.34 664.01,-1813.67 659.32,-1808.85 669,-1814 669,-1814"/>
</g>
<!-- dependency506657&#45;&gt;choice10010111845118991154710310511645575757574511449 -->
<g id="edge30" class="edge">
<title>dependency506657:e&#45;&gt;choice10010111845118991154710310511645575757574511449:w</title>
<path fill="none" stroke="black" stroke-dasharray="1,5" d="M933,-441C956.56,-441 948.54,-477.22 932,-494 907.62,-518.73 641.83,-485 620,-512 577.67,-564.36 589.59,-1663.92 620,-1724 630.54,-1744.81 639.26,-1756.52 658.83,-1759.33"/>
<polygon fill="black" stroke="black" points="669,-1760 658.73,-1763.84 664.01,-1759.67 659.02,-1759.34 659.02,-1759.34 659.02,-1759.34 664.01,-1759.67 659.32,-1754.85 669,-1760 669,-1760"/>
</g>
<!-- dependency506657&#45;&gt;choice10010111845118991154710310511645575757574511450 -->
<g id="edge31" class="edge">
<title>dependency506657:e&#45;&gt;choice10010111845118991154710310511645575757574511450:w</title>
<path fill="none" stroke="black" stroke-dasharray="1,5" d="M933,-441C956.56,-441 948.54,-477.22 932,-494 907.62,-518.73 641.83,-485 620,-512 579.56,-562.03 590.95,-1612.6 620,-1670 630.54,-1690.81 639.26,-1702.52 658.83,-1705.33"/>
<polygon fill="black" stroke="black" points="669,-1706 658.73,-1709.84 664.01,-1705.67 659.02,-1705.34 659.02,-1705.34 659.02,-1705.34 664.01,-1705.67 659.32,-1700.85 669,-1706 669,-1706"/>
</g>
<!-- dependency506657&#45;&gt;choice10010111845118991154710310511645575757574511451 -->
<g id="edge32" class="edge">
<title>dependency506657:e&#45;&gt;choice10010111845118991154710310511645575757574511451:w</title>
<path fill="none" stroke="black" stroke-dasharray="1,5" d="M933,-441C956.56,-441 948.54,-477.22 932,-494 907.62,-518.73 641.83,-485 620,-512 581.44,-559.7 592.3,-1561.28 620,-1616 630.54,-1636.81 639.26,-1648.52 658.83,-1651.33"/>
<polygon fill="black" stroke="black" points="669,-1652 658.73,-1655.84 664.01,-1651.67 659.02,-1651.34 659.02,-1651.34 659.02,-1651.34 664.01,-1651.67 659.32,-1646.85 669,-1652 669,-1652"/>
</g>
<!-- dependency506658&#45;&gt;choice110101116451091051159947119103101116454946504846514511449 -->
<g id="edge33" class="edge">
<title>dependency506658:e&#45;&gt;choice110101116451091051159947119103101116454946504846514511449:w</title>
<path fill="none" stroke="black" stroke-dasharray="1,5" d="M933,-317C956.56,-317 948.54,-353.22 932,-370 907.62,-394.73 641.83,-361 620,-388 583.33,-433.36 593.66,-1385.95 620,-1438 630.54,-1458.81 639.26,-1470.52 658.83,-1473.33"/>
<polygon fill="black" stroke="black" points="669,-1474 658.73,-1477.84 664.01,-1473.67 659.02,-1473.34 659.02,-1473.34 659.02,-1473.34 664.01,-1473.67 659.32,-1468.85 669,-1474 669,-1474"/>
</g>
<!-- dependency506658&#45;&gt;choice110101116451091051159947119103101116454946504846514511450 -->
<g id="edge34" class="edge">
<title>dependency506658:e&#45;&gt;choice110101116451091051159947119103101116454946504846514511450:w</title>
<path fill="none" stroke="black" stroke-dasharray="1,5" d="M933,-317C956.56,-317 948.54,-353.22 932,-370 907.62,-394.73 641.83,-361 620,-388 585.21,-431.03 595.01,-1334.63 620,-1384 630.54,-1404.81 639.26,-1416.52 658.83,-1419.33"/>
<polygon fill="black" stroke="black" points="669,-1420 658.73,-1423.84 664.01,-1419.67 659.02,-1419.34 659.02,-1419.34 659.02,-1419.34 664.01,-1419.67 659.32,-1414.85 669,-1420 669,-1420"/>
</g>
<!-- dependency506659&#45;&gt;choice118105114116117971084710110010511611111445484511450 -->
<g id="edge35" class="edge">
<title>dependency506659:e&#45;&gt;choice118105114116117971084710110010511611111445484511450:w</title>
<path fill="none" stroke="black" stroke-dasharray="1,5" d="M933,-193C956.56,-193 948.54,-229.22 932,-246 907.62,-270.73 641.83,-237 620,-264 587.1,-304.7 596.37,-1159.31 620,-1206 630.54,-1226.81 639.26,-1238.52 658.83,-1241.33"/>
<polygon fill="black" stroke="black" points="669,-1242 658.73,-1245.84 664.01,-1241.67 659.02,-1241.34 659.02,-1241.34 659.02,-1241.34 664.01,-1241.67 659.32,-1236.85 669,-1242 669,-1242"/>
</g>
<!-- dependency506660&#45;&gt;choice10010111845112101114108477110111011611111145651121124580114971094548465048484648 -->
<g id="edge36" class="edge">
<title>dependency506660:e&#45;&gt;choice10010111845112101114108477110111011611111145651121124580114971094548465048484648:w</title>
<path fill="none" stroke="black" stroke-dasharray="1,5" d="M933,-69C956.56,-69 948.54,-105.22 932,-122 907.62,-146.73 641.83,-113 620,-140 557.97,-216.73 575.44,-939.97 620,-1028 630.54,-1048.81 639.26,-1060.52 658.83,-1063.33"/>
<polygon fill="black" stroke="black" points="669,-1064 658.73,-1067.84 664.01,-1063.67 659.02,-1063.34 659.02,-1063.34 659.02,-1063.34 664.01,-1063.67 659.32,-1058.85 669,-1064 669,-1064"/>
</g>
</g>
</svg>
