<?xml version="1.0" encoding="UTF-8" standalone="no"?>
<!DOCTYPE svg PUBLIC "-//W3C//DTD SVG 1.1//EN"
 "http://www.w3.org/Graphics/SVG/1.1/DTD/svg11.dtd">
<!-- Generated by graphviz version 2.41.20171026.1811 (20171026.1811)
 -->
<!-- Title: prolog Pages: 1 -->
<svg width="1094pt" height="1440pt"
 viewBox="0.00 0.00 1094.00 1440.00" xmlns="http://www.w3.org/2000/svg" xmlns:xlink="http://www.w3.org/1999/xlink">
<g id="graph0" class="graph" transform="scale(1 1) rotate(0) translate(4 1436)">
<title>prolog</title>
<polygon fill="white" stroke="transparent" points="-4,4 -4,-1436 1090,-1436 1090,4 -4,4"/>
<g id="clust14" class="cluster">
<title>cluster_choices</title>
<polygon fill="none" stroke="gray" points="774,-8 774,-1424 1078,-1424 1078,-8 774,-8"/>
<text text-anchor="start" x="901.82" y="-1412" font-family="Helvetica,sans-Serif" font-style="italic" font-size="10.00">candidates</text>
</g>
<g id="clust1" class="cluster">
<title>cluster_leftcol</title>
<polygon fill="none" stroke="gray" points="8,-380 8,-452 312,-452 312,-380 8,-380"/>
<text text-anchor="start" x="146.66" y="-440" font-family="Helvetica,sans-Serif" font-style="italic" font-size="10.00">ebuild</text>
</g>
<g id="clust2" class="cluster">
<title>cluster_midcol</title>
<polygon fill="none" stroke="gray" points="396,-329 396,-523 690,-523 690,-329 396,-329"/>
<text text-anchor="start" x="511.88" y="-511" font-family="Helvetica,sans-Serif" font-style="italic" font-size="10.00">dependencies</text>
</g>
<g id="clust6" class="cluster">
<title>cluster_run</title>
<polygon fill="#eeeeee" stroke="gray" points="404,-337 404,-495 682,-495 682,-337 404,-337"/>
<text text-anchor="start" x="535.78" y="-483" font-family="Helvetica,sans-Serif" font-style="italic" font-size="10.00">run</text>
</g>
<!-- id -->
<g id="node1" class="node">
<title>id</title>
<g id="a_node1"><a xlink:href="../www-apache/mod_wsgi-4.6.5.svg" xlink:title="portage://www&#45;apache/mod_wsgi&#45;4.6.5">
<ellipse fill="none" stroke="red" cx="160" cy="-406" rx="144" ry="18"/>
<text text-anchor="middle" x="160" y="-403" font-family="Helvetica,sans-Serif" font-size="10.00">portage://www&#45;apache/mod_wsgi&#45;4.6.5</text>
</a>
</g>
</g>
<!-- dependency37118 -->
<g id="node2" class="node">
<title>dependency37118</title>
<polygon fill="none" stroke="blue" points="816,-1228 816,-1338 921,-1338 921,-1228 816,-1228"/>
<text text-anchor="start" x="846.82" y="-1280" font-family="Helvetica,sans-Serif" font-size="10.00">pack_dep</text>
<polygon fill="none" stroke="blue" points="921,-1316 921,-1338 1031,-1338 1031,-1316 921,-1316"/>
<text text-anchor="start" x="970.44" y="-1324" font-family="Helvetica,sans-Serif" font-size="10.00">no</text>
<polygon fill="none" stroke="blue" points="921,-1294 921,-1316 1031,-1316 1031,-1294 921,-1294"/>
<text text-anchor="start" x="947.12" y="-1302" font-family="Helvetica,sans-Serif" font-size="10.00">www&#45;servers</text>
<polygon fill="none" stroke="blue" points="921,-1272 921,-1294 1031,-1294 1031,-1272 921,-1272"/>
<text text-anchor="start" x="959.6" y="-1280" font-family="Helvetica,sans-Serif" font-size="10.00">apache</text>
<polygon fill="none" stroke="blue" points="921,-1250 921,-1272 1031,-1272 1031,-1250 921,-1250"/>
<text text-anchor="start" x="963.77" y="-1258" font-family="Helvetica,sans-Serif" font-size="10.00">equal</text>
<polygon fill="none" stroke="blue" points="921,-1228 921,-1250 1031,-1250 1031,-1228 921,-1228"/>
<text text-anchor="start" x="971.28" y="-1236" font-family="Helvetica,sans-Serif" font-size="10.00">2*</text>
</g>
<!-- id&#45;&gt;dependency37118 -->
<g id="edge1" class="edge">
<title>id:e&#45;&gt;dependency37118:w</title>
<path fill="none" stroke="black" d="M305,-406C414.1,-406 679.14,-1234.03 797.07,-1280.93"/>
<polygon fill="black" stroke="black" points="807,-1283 796.29,-1285.36 802.11,-1281.98 797.21,-1280.96 797.21,-1280.96 797.21,-1280.96 802.11,-1281.98 798.13,-1276.55 807,-1283 807,-1283"/>
</g>
<!-- dependency37119 -->
<g id="node3" class="node">
<title>dependency37119</title>
<polygon fill="none" stroke="red" points="420,-419 420,-463 511,-463 511,-419 420,-419"/>
<text text-anchor="start" x="430.77" y="-438" font-family="Helvetica,sans-Serif" font-size="10.00">use_conditional</text>
<polygon fill="none" stroke="red" points="511,-441 511,-463 666,-463 666,-441 511,-441"/>
<text text-anchor="start" x="571.55" y="-449" font-family="Helvetica,sans-Serif" font-size="10.00">positive</text>
<polygon fill="none" stroke="red" points="511,-419 511,-441 666,-441 666,-419 511,-419"/>
<text text-anchor="start" x="515.97" y="-427" font-family="Helvetica,sans-Serif" font-size="10.00">python_single_target_python2_7</text>
</g>
<!-- id&#45;&gt;dependency37119 -->
<g id="edge4" class="edge">
<title>id:e&#45;&gt;dependency37119:w</title>
<path fill="none" stroke="black" d="M305,-406C351.8,-406 360.48,-437.15 402.97,-440.68"/>
<ellipse fill="none" stroke="black" cx="407" cy="-440.84" rx="4" ry="4"/>
</g>
<!-- dependency37122 -->
<g id="node6" class="node">
<title>dependency37122</title>
<polygon fill="none" stroke="red" points="420,-349 420,-393 511,-393 511,-349 420,-349"/>
<text text-anchor="start" x="430.77" y="-368" font-family="Helvetica,sans-Serif" font-size="10.00">use_conditional</text>
<polygon fill="none" stroke="red" points="511,-371 511,-393 666,-393 666,-371 511,-371"/>
<text text-anchor="start" x="571.55" y="-379" font-family="Helvetica,sans-Serif" font-size="10.00">positive</text>
<polygon fill="none" stroke="red" points="511,-349 511,-371 666,-371 666,-349 511,-349"/>
<text text-anchor="start" x="515.97" y="-357" font-family="Helvetica,sans-Serif" font-size="10.00">python_single_target_python3_6</text>
</g>
<!-- id&#45;&gt;dependency37122 -->
<g id="edge7" class="edge">
<title>id:e&#45;&gt;dependency37122:w</title>
<path fill="none" stroke="black" d="M305,-406C351.8,-406 360.48,-374.85 402.97,-371.32"/>
<ellipse fill="none" stroke="black" cx="407" cy="-371.16" rx="4" ry="4"/>
</g>
<!-- dependency37125 -->
<g id="node9" class="node">
<title>dependency37125</title>
<polygon fill="none" stroke="blue" points="816,-20 816,-130 921,-130 921,-20 816,-20"/>
<text text-anchor="start" x="846.82" y="-72" font-family="Helvetica,sans-Serif" font-size="10.00">pack_dep</text>
<polygon fill="none" stroke="blue" points="921,-108 921,-130 1031,-130 1031,-108 921,-108"/>
<text text-anchor="start" x="970.44" y="-116" font-family="Helvetica,sans-Serif" font-size="10.00">no</text>
<polygon fill="none" stroke="blue" points="921,-86 921,-108 1031,-108 1031,-86 921,-86"/>
<text text-anchor="start" x="947.12" y="-94" font-family="Helvetica,sans-Serif" font-size="10.00">www&#45;servers</text>
<polygon fill="none" stroke="blue" points="921,-64 921,-86 1031,-86 1031,-64 921,-64"/>
<text text-anchor="start" x="959.6" y="-72" font-family="Helvetica,sans-Serif" font-size="10.00">apache</text>
<polygon fill="none" stroke="blue" points="921,-42 921,-64 1031,-64 1031,-42 921,-42"/>
<text text-anchor="start" x="963.77" y="-50" font-family="Helvetica,sans-Serif" font-size="10.00">equal</text>
<polygon fill="none" stroke="blue" points="921,-20 921,-42 1031,-42 1031,-20 921,-20"/>
<text text-anchor="start" x="971.28" y="-28" font-family="Helvetica,sans-Serif" font-size="10.00">2*</text>
</g>
<!-- id&#45;&gt;dependency37125 -->
<g id="edge8" class="edge">
<title>id:e&#45;&gt;dependency37125:w</title>
<path fill="none" stroke="black" d="M305,-406C356.85,-406 353.75,-363.06 396,-333 569.51,-209.57 590.8,-78.38 798.88,-75.06"/>
<ellipse fill="none" stroke="black" cx="803" cy="-75.03" rx="4" ry="4"/>
</g>
<!-- choice119119119451151011141181011141154797112979910410145504652465249 -->
<g id="node10" class="node">
<title>choice119119119451151011141181011141154797112979910410145504652465249</title>
<g id="a_node10"><a xlink:href="../www-servers/apache-2.4.41.svg" xlink:title="portage://www&#45;servers/apache&#45;2.4.41">
<ellipse fill="none" stroke="red" cx="926" cy="-1378" rx="144" ry="18"/>
<text text-anchor="middle" x="926" y="-1375" font-family="Helvetica,sans-Serif" font-size="10.00">portage://www&#45;servers/apache&#45;2.4.41</text>
</a>
</g>
</g>
<!-- dependency37118&#45;&gt;choice119119119451151011141181011141154797112979910410145504652465249 -->
<g id="edge9" class="edge">
<title>dependency37118:e&#45;&gt;choice119119119451151011141181011141154797112979910410145504652465249:w</title>
<path fill="none" stroke="black" stroke-dasharray="1,5" d="M776.98,-1368.58C777.95,-1365.46 779.8,-1362.23 782,-1360 823,-1318.46 1003.81,-1384.32 1044,-1342 1062.06,-1322.98 1071.23,-1283 1045,-1283"/>
<polygon fill="black" stroke="black" points="781,-1378 772.94,-1370.57 779.04,-1373.4 777.07,-1368.8 777.07,-1368.8 777.07,-1368.8 779.04,-1373.4 781.21,-1367.04 781,-1378 781,-1378"/>
</g>
<!-- dependency37120 -->
<g id="node4" class="node">
<title>dependency37120</title>
<polygon fill="none" stroke="blue" points="816,-660 816,-770 921,-770 921,-660 816,-660"/>
<text text-anchor="start" x="846.82" y="-712" font-family="Helvetica,sans-Serif" font-size="10.00">pack_dep</text>
<polygon fill="none" stroke="blue" points="921,-748 921,-770 1031,-770 1031,-748 921,-748"/>
<text text-anchor="start" x="970.44" y="-756" font-family="Helvetica,sans-Serif" font-size="10.00">no</text>
<polygon fill="none" stroke="blue" points="921,-726 921,-748 1031,-748 1031,-726 921,-726"/>
<text text-anchor="start" x="956.83" y="-734" font-family="Helvetica,sans-Serif" font-size="10.00">dev&#45;lang</text>
<polygon fill="none" stroke="blue" points="921,-704 921,-726 1031,-726 1031,-704 921,-704"/>
<text text-anchor="start" x="960.99" y="-712" font-family="Helvetica,sans-Serif" font-size="10.00">python</text>
<polygon fill="none" stroke="blue" points="921,-682 921,-704 1031,-704 1031,-682 921,-682"/>
<text text-anchor="start" x="947.94" y="-690" font-family="Helvetica,sans-Serif" font-size="10.00">greaterequal</text>
<polygon fill="none" stroke="blue" points="921,-660 921,-682 1031,-682 1031,-660 921,-660"/>
<text text-anchor="start" x="958.77" y="-668" font-family="Helvetica,sans-Serif" font-size="10.00">2.7.5&#45;r2</text>
</g>
<!-- dependency37119&#45;&gt;dependency37120 -->
<g id="edge2" class="edge">
<title>dependency37119:e&#45;&gt;dependency37120:w</title>
<path fill="none" stroke="black" stroke-dasharray="5,2" d="M675,-441C806.61,-441 678.93,-700.74 796.87,-714.44"/>
<polygon fill="black" stroke="black" points="807,-715 796.77,-718.94 802.01,-714.72 797.02,-714.45 797.02,-714.45 797.02,-714.45 802.01,-714.72 797.26,-709.95 807,-715 807,-715"/>
</g>
<!-- dependency37121 -->
<g id="node5" class="node">
<title>dependency37121</title>
<polygon fill="none" stroke="blue" points="816,-416 816,-526 921,-526 921,-416 816,-416"/>
<text text-anchor="start" x="846.82" y="-468" font-family="Helvetica,sans-Serif" font-size="10.00">pack_dep</text>
<polygon fill="none" stroke="blue" points="921,-504 921,-526 1031,-526 1031,-504 921,-504"/>
<text text-anchor="start" x="970.44" y="-512" font-family="Helvetica,sans-Serif" font-size="10.00">no</text>
<polygon fill="none" stroke="blue" points="921,-482 921,-504 1031,-504 1031,-482 921,-482"/>
<text text-anchor="start" x="956.83" y="-490" font-family="Helvetica,sans-Serif" font-size="10.00">dev&#45;lang</text>
<polygon fill="none" stroke="blue" points="921,-460 921,-482 1031,-482 1031,-460 921,-460"/>
<text text-anchor="start" x="948.77" y="-468" font-family="Helvetica,sans-Serif" font-size="10.00">python&#45;exec</text>
<polygon fill="none" stroke="blue" points="921,-438 921,-460 1031,-460 1031,-438 921,-438"/>
<text text-anchor="start" x="947.94" y="-446" font-family="Helvetica,sans-Serif" font-size="10.00">greaterequal</text>
<polygon fill="none" stroke="blue" points="921,-416 921,-438 1031,-438 1031,-416 921,-416"/>
<text text-anchor="start" x="973.22" y="-424" font-family="Helvetica,sans-Serif" font-size="10.00">2</text>
</g>
<!-- dependency37119&#45;&gt;dependency37121 -->
<g id="edge3" class="edge">
<title>dependency37119:e&#45;&gt;dependency37121:w</title>
<path fill="none" stroke="black" stroke-dasharray="5,2" d="M675,-441C731.64,-441 745.3,-467.59 796.9,-470.7"/>
<polygon fill="black" stroke="black" points="807,-471 796.87,-475.2 802,-470.85 797,-470.71 797,-470.71 797,-470.71 802,-470.85 797.14,-466.21 807,-471 807,-471"/>
</g>
<!-- choice10010111845108971101034711212111610411111045514657464895971081121049750 -->
<g id="node11" class="node">
<title>choice10010111845108971101034711212111610411111045514657464895971081121049750</title>
<g id="a_node11"><a xlink:href="../dev-lang/python-3.9.0_alpha2.svg" xlink:title="portage://dev&#45;lang/python&#45;3.9.0_alpha2">
<ellipse fill="none" stroke="red" cx="926" cy="-1188" rx="144" ry="18"/>
<text text-anchor="middle" x="926" y="-1185" font-family="Helvetica,sans-Serif" font-size="10.00">portage://dev&#45;lang/python&#45;3.9.0_alpha2</text>
</a>
</g>
</g>
<!-- dependency37120&#45;&gt;choice10010111845108971101034711212111610411111045514657464895971081121049750 -->
<g id="edge10" class="edge">
<title>dependency37120:e&#45;&gt;choice10010111845108971101034711212111610411111045514657464895971081121049750:w</title>
<path fill="none" stroke="black" stroke-dasharray="1,5" d="M1045,-715C1071.23,-715 1062.39,-755.3 1044,-774 1019.65,-798.75 753.83,-765 732,-792 681.71,-854.21 695.87,-1080.62 732,-1152 742.54,-1172.81 751.26,-1184.52 770.83,-1187.33"/>
<polygon fill="black" stroke="black" points="781,-1188 770.73,-1191.84 776.01,-1187.67 771.02,-1187.34 771.02,-1187.34 771.02,-1187.34 776.01,-1187.67 771.32,-1182.85 781,-1188 781,-1188"/>
</g>
<!-- choice100101118451089711010347112121116104111110455146564649 -->
<g id="node12" class="node">
<title>choice100101118451089711010347112121116104111110455146564649</title>
<g id="a_node12"><a xlink:href="../dev-lang/python-3.8.1.svg" xlink:title="portage://dev&#45;lang/python&#45;3.8.1">
<ellipse fill="none" stroke="red" cx="926" cy="-1134" rx="144" ry="18"/>
<text text-anchor="middle" x="926" y="-1131" font-family="Helvetica,sans-Serif" font-size="10.00">portage://dev&#45;lang/python&#45;3.8.1</text>
</a>
</g>
</g>
<!-- dependency37120&#45;&gt;choice100101118451089711010347112121116104111110455146564649 -->
<g id="edge11" class="edge">
<title>dependency37120:e&#45;&gt;choice100101118451089711010347112121116104111110455146564649:w</title>
<path fill="none" stroke="black" stroke-dasharray="1,5" d="M1045,-715C1071.23,-715 1062.39,-755.3 1044,-774 1019.65,-798.75 753.83,-765 732,-792 689.25,-844.88 701.29,-1037.33 732,-1098 742.54,-1118.81 751.26,-1130.52 770.83,-1133.33"/>
<polygon fill="black" stroke="black" points="781,-1134 770.73,-1137.84 776.01,-1133.67 771.02,-1133.34 771.02,-1133.34 771.02,-1133.34 776.01,-1133.67 771.32,-1128.85 781,-1134 781,-1134"/>
</g>
<!-- choice100101118451089711010347112121116104111110455146554654 -->
<g id="node13" class="node">
<title>choice100101118451089711010347112121116104111110455146554654</title>
<g id="a_node13"><a xlink:href="../dev-lang/python-3.7.6.svg" xlink:title="portage://dev&#45;lang/python&#45;3.7.6">
<ellipse fill="none" stroke="red" cx="926" cy="-1080" rx="144" ry="18"/>
<text text-anchor="middle" x="926" y="-1077" font-family="Helvetica,sans-Serif" font-size="10.00">portage://dev&#45;lang/python&#45;3.7.6</text>
</a>
</g>
</g>
<!-- dependency37120&#45;&gt;choice100101118451089711010347112121116104111110455146554654 -->
<g id="edge12" class="edge">
<title>dependency37120:e&#45;&gt;choice100101118451089711010347112121116104111110455146554654:w</title>
<path fill="none" stroke="black" stroke-dasharray="1,5" d="M1045,-715C1071.23,-715 1062.39,-755.3 1044,-774 1019.65,-798.75 753.83,-765 732,-792 696.79,-835.55 706.71,-994.04 732,-1044 742.54,-1064.81 751.26,-1076.52 770.83,-1079.33"/>
<polygon fill="black" stroke="black" points="781,-1080 770.73,-1083.84 776.01,-1079.67 771.02,-1079.34 771.02,-1079.34 771.02,-1079.34 776.01,-1079.67 771.32,-1074.85 781,-1080 781,-1080"/>
</g>
<!-- choice1001011184510897110103471121211161041111104551465546534511449 -->
<g id="node14" class="node">
<title>choice1001011184510897110103471121211161041111104551465546534511449</title>
<g id="a_node14"><a xlink:href="../dev-lang/python-3.7.5-r1.svg" xlink:title="portage://dev&#45;lang/python&#45;3.7.5&#45;r1">
<ellipse fill="none" stroke="red" cx="926" cy="-1026" rx="144" ry="18"/>
<text text-anchor="middle" x="926" y="-1023" font-family="Helvetica,sans-Serif" font-size="10.00">portage://dev&#45;lang/python&#45;3.7.5&#45;r1</text>
</a>
</g>
</g>
<!-- dependency37120&#45;&gt;choice1001011184510897110103471121211161041111104551465546534511449 -->
<g id="edge13" class="edge">
<title>dependency37120:e&#45;&gt;choice1001011184510897110103471121211161041111104551465546534511449:w</title>
<path fill="none" stroke="black" stroke-dasharray="1,5" d="M1045,-715C1071.23,-715 1062.39,-755.3 1044,-774 1019.65,-798.75 753.83,-765 732,-792 676.68,-860.43 692.26,-911.49 732,-990 742.54,-1010.81 751.26,-1022.52 770.83,-1025.33"/>
<polygon fill="black" stroke="black" points="781,-1026 770.73,-1029.84 776.01,-1025.67 771.02,-1025.34 771.02,-1025.34 771.02,-1025.34 776.01,-1025.67 771.32,-1020.85 781,-1026 781,-1026"/>
</g>
<!-- choice100101118451089711010347112121116104111110455146544657 -->
<g id="node15" class="node">
<title>choice100101118451089711010347112121116104111110455146544657</title>
<g id="a_node15"><a xlink:href="../dev-lang/python-3.6.9.svg" xlink:title="portage://dev&#45;lang/python&#45;3.6.9">
<ellipse fill="none" stroke="red" cx="926" cy="-972" rx="144" ry="18"/>
<text text-anchor="middle" x="926" y="-969" font-family="Helvetica,sans-Serif" font-size="10.00">portage://dev&#45;lang/python&#45;3.6.9</text>
</a>
</g>
</g>
<!-- dependency37120&#45;&gt;choice100101118451089711010347112121116104111110455146544657 -->
<g id="edge14" class="edge">
<title>dependency37120:e&#45;&gt;choice100101118451089711010347112121116104111110455146544657:w</title>
<path fill="none" stroke="black" stroke-dasharray="1,5" d="M1045,-715C1071.23,-715 1062.39,-755.3 1044,-774 1019.65,-798.75 753.83,-765 732,-792 682.12,-853.71 696.65,-962.17 770.67,-971.37"/>
<polygon fill="black" stroke="black" points="781,-972 770.75,-975.89 776.01,-971.7 771.02,-971.39 771.02,-971.39 771.02,-971.39 776.01,-971.7 771.29,-966.9 781,-972 781,-972"/>
</g>
<!-- choice10010111845108971101034711212111610411111045514654464948 -->
<g id="node16" class="node">
<title>choice10010111845108971101034711212111610411111045514654464948</title>
<g id="a_node16"><a xlink:href="../dev-lang/python-3.6.10.svg" xlink:title="portage://dev&#45;lang/python&#45;3.6.10">
<ellipse fill="none" stroke="red" cx="926" cy="-918" rx="144" ry="18"/>
<text text-anchor="middle" x="926" y="-915" font-family="Helvetica,sans-Serif" font-size="10.00">portage://dev&#45;lang/python&#45;3.6.10</text>
</a>
</g>
</g>
<!-- dependency37120&#45;&gt;choice10010111845108971101034711212111610411111045514654464948 -->
<g id="edge15" class="edge">
<title>dependency37120:e&#45;&gt;choice10010111845108971101034711212111610411111045514654464948:w</title>
<path fill="none" stroke="black" stroke-dasharray="1,5" d="M1045,-715C1071.23,-715 1062.39,-755.3 1044,-774 1019.65,-798.75 753.83,-765 732,-792 696.44,-835.99 718.01,-908.82 770.79,-917.21"/>
<polygon fill="black" stroke="black" points="781,-918 770.68,-921.71 776.02,-917.61 771.03,-917.22 771.03,-917.22 771.03,-917.22 776.02,-917.61 771.38,-912.74 781,-918 781,-918"/>
</g>
<!-- choice100101118451089711010347112121116104111110455046554649554511449 -->
<g id="node17" class="node">
<title>choice100101118451089711010347112121116104111110455046554649554511449</title>
<g id="a_node17"><a xlink:href="../dev-lang/python-2.7.17-r1.svg" xlink:title="portage://dev&#45;lang/python&#45;2.7.17&#45;r1">
<ellipse fill="none" stroke="red" cx="926" cy="-864" rx="144" ry="18"/>
<text text-anchor="middle" x="926" y="-861" font-family="Helvetica,sans-Serif" font-size="10.00">portage://dev&#45;lang/python&#45;2.7.17&#45;r1</text>
</a>
</g>
</g>
<!-- dependency37120&#45;&gt;choice100101118451089711010347112121116104111110455046554649554511449 -->
<g id="edge16" class="edge">
<title>dependency37120:e&#45;&gt;choice100101118451089711010347112121116104111110455046554649554511449:w</title>
<path fill="none" stroke="black" stroke-dasharray="1,5" d="M1045,-715C1071.23,-715 1062.39,-755.3 1044,-774 1019.65,-798.75 753.83,-765 732,-792 709.85,-819.4 736.55,-856.57 770.71,-863.02"/>
<polygon fill="black" stroke="black" points="781,-864 770.62,-867.54 776.02,-863.53 771.04,-863.06 771.04,-863.06 771.04,-863.06 776.02,-863.53 771.47,-858.58 781,-864 781,-864"/>
</g>
<!-- choice10010111845108971101034711212111610411111045504655464955 -->
<g id="node18" class="node">
<title>choice10010111845108971101034711212111610411111045504655464955</title>
<g id="a_node18"><a xlink:href="../dev-lang/python-2.7.17.svg" xlink:title="portage://dev&#45;lang/python&#45;2.7.17">
<ellipse fill="none" stroke="red" cx="926" cy="-810" rx="144" ry="18"/>
<text text-anchor="middle" x="926" y="-807" font-family="Helvetica,sans-Serif" font-size="10.00">portage://dev&#45;lang/python&#45;2.7.17</text>
</a>
</g>
</g>
<!-- dependency37120&#45;&gt;choice10010111845108971101034711212111610411111045504655464955 -->
<g id="edge17" class="edge">
<title>dependency37120:e&#45;&gt;choice10010111845108971101034711212111610411111045504655464955:w</title>
<path fill="none" stroke="black" stroke-dasharray="1,5" d="M776.98,-800.58C777.95,-797.46 779.8,-794.23 782,-792 823,-750.46 1003.81,-816.32 1044,-774 1062.06,-754.98 1071.23,-715 1045,-715"/>
<polygon fill="black" stroke="black" points="781,-810 772.94,-802.57 779.04,-805.4 777.07,-800.8 777.07,-800.8 777.07,-800.8 779.04,-805.4 781.21,-799.04 781,-810 781,-810"/>
</g>
<!-- choice10010111845108971101034711212111610411111045101120101994557575757 -->
<g id="node19" class="node">
<title>choice10010111845108971101034711212111610411111045101120101994557575757</title>
<g id="a_node19"><a xlink:href="../dev-lang/python-exec-9999.svg" xlink:title="portage://dev&#45;lang/python&#45;exec&#45;9999">
<ellipse fill="none" stroke="red" cx="926" cy="-620" rx="144" ry="18"/>
<text text-anchor="middle" x="926" y="-617" font-family="Helvetica,sans-Serif" font-size="10.00">portage://dev&#45;lang/python&#45;exec&#45;9999</text>
</a>
</g>
</g>
<!-- dependency37121&#45;&gt;choice10010111845108971101034711212111610411111045101120101994557575757 -->
<g id="edge18" class="edge">
<title>dependency37121:e&#45;&gt;choice10010111845108971101034711212111610411111045101120101994557575757:w</title>
<path fill="none" stroke="black" stroke-dasharray="1,5" d="M1045,-471C1071.23,-471 1062.39,-511.3 1044,-530 1019.65,-554.75 753.83,-521 732,-548 709.85,-575.4 736.55,-612.57 770.71,-619.02"/>
<polygon fill="black" stroke="black" points="781,-620 770.62,-623.54 776.02,-619.53 771.04,-619.06 771.04,-619.06 771.04,-619.06 776.02,-619.53 771.47,-614.58 781,-620 781,-620"/>
</g>
<!-- choice10010111845108971101034711212111610411111045101120101994550465246544511449 -->
<g id="node20" class="node">
<title>choice10010111845108971101034711212111610411111045101120101994550465246544511449</title>
<g id="a_node20"><a xlink:href="../dev-lang/python-exec-2.4.6-r1.svg" xlink:title="portage://dev&#45;lang/python&#45;exec&#45;2.4.6&#45;r1">
<ellipse fill="none" stroke="red" cx="926" cy="-566" rx="144" ry="18"/>
<text text-anchor="middle" x="926" y="-563" font-family="Helvetica,sans-Serif" font-size="10.00">portage://dev&#45;lang/python&#45;exec&#45;2.4.6&#45;r1</text>
</a>
</g>
</g>
<!-- dependency37121&#45;&gt;choice10010111845108971101034711212111610411111045101120101994550465246544511449 -->
<g id="edge19" class="edge">
<title>dependency37121:e&#45;&gt;choice10010111845108971101034711212111610411111045101120101994550465246544511449:w</title>
<path fill="none" stroke="black" stroke-dasharray="1,5" d="M776.98,-556.58C777.95,-553.46 779.8,-550.23 782,-548 823,-506.46 1003.81,-572.32 1044,-530 1062.06,-510.98 1071.23,-471 1045,-471"/>
<polygon fill="black" stroke="black" points="781,-566 772.94,-558.57 779.04,-561.4 777.07,-556.8 777.07,-556.8 777.07,-556.8 779.04,-561.4 781.21,-555.04 781,-566 781,-566"/>
</g>
<!-- dependency37123 -->
<g id="node7" class="node">
<title>dependency37123</title>
<polygon fill="none" stroke="blue" points="816,-292 816,-390 921,-390 921,-292 816,-292"/>
<text text-anchor="start" x="846.82" y="-338" font-family="Helvetica,sans-Serif" font-size="10.00">pack_dep</text>
<polygon fill="none" stroke="blue" points="921,-368 921,-390 1031,-390 1031,-368 921,-368"/>
<text text-anchor="start" x="970.44" y="-376" font-family="Helvetica,sans-Serif" font-size="10.00">no</text>
<polygon fill="none" stroke="blue" points="921,-346 921,-368 1031,-368 1031,-346 921,-346"/>
<text text-anchor="start" x="956.83" y="-354" font-family="Helvetica,sans-Serif" font-size="10.00">dev&#45;lang</text>
<polygon fill="none" stroke="blue" points="921,-324 921,-346 1031,-346 1031,-324 921,-324"/>
<text text-anchor="start" x="960.99" y="-332" font-family="Helvetica,sans-Serif" font-size="10.00">python</text>
<polygon fill="none" stroke="blue" points="921,-302 921,-324 1031,-324 1031,-302 921,-302"/>
<text text-anchor="start" x="964.88" y="-310" font-family="Helvetica,sans-Serif" font-size="10.00">none</text>
<polygon fill="none" stroke="blue" points="921,-292 921,-302 1031,-302 1031,-292 921,-292"/>
</g>
<!-- dependency37122&#45;&gt;dependency37123 -->
<g id="edge5" class="edge">
<title>dependency37122:e&#45;&gt;dependency37123:w</title>
<path fill="none" stroke="black" stroke-dasharray="5,2" d="M675,-371C731.64,-371 745.3,-344.41 796.9,-341.3"/>
<polygon fill="black" stroke="black" points="807,-341 797.14,-345.79 802,-341.15 797,-341.29 797,-341.29 797,-341.29 802,-341.15 796.87,-336.8 807,-341 807,-341"/>
</g>
<!-- dependency37124 -->
<g id="node8" class="node">
<title>dependency37124</title>
<polygon fill="none" stroke="blue" points="816,-156 816,-266 921,-266 921,-156 816,-156"/>
<text text-anchor="start" x="846.82" y="-208" font-family="Helvetica,sans-Serif" font-size="10.00">pack_dep</text>
<polygon fill="none" stroke="blue" points="921,-244 921,-266 1031,-266 1031,-244 921,-244"/>
<text text-anchor="start" x="970.44" y="-252" font-family="Helvetica,sans-Serif" font-size="10.00">no</text>
<polygon fill="none" stroke="blue" points="921,-222 921,-244 1031,-244 1031,-222 921,-222"/>
<text text-anchor="start" x="956.83" y="-230" font-family="Helvetica,sans-Serif" font-size="10.00">dev&#45;lang</text>
<polygon fill="none" stroke="blue" points="921,-200 921,-222 1031,-222 1031,-200 921,-200"/>
<text text-anchor="start" x="948.77" y="-208" font-family="Helvetica,sans-Serif" font-size="10.00">python&#45;exec</text>
<polygon fill="none" stroke="blue" points="921,-178 921,-200 1031,-200 1031,-178 921,-178"/>
<text text-anchor="start" x="947.94" y="-186" font-family="Helvetica,sans-Serif" font-size="10.00">greaterequal</text>
<polygon fill="none" stroke="blue" points="921,-156 921,-178 1031,-178 1031,-156 921,-156"/>
<text text-anchor="start" x="973.22" y="-164" font-family="Helvetica,sans-Serif" font-size="10.00">2</text>
</g>
<!-- dependency37122&#45;&gt;dependency37124 -->
<g id="edge6" class="edge">
<title>dependency37122:e&#45;&gt;dependency37124:w</title>
<path fill="none" stroke="black" stroke-dasharray="5,2" d="M675,-371C763.59,-371 718.68,-223.26 796.84,-211.71"/>
<polygon fill="black" stroke="black" points="807,-211 797.34,-216.19 802.01,-211.35 797.02,-211.7 797.02,-211.7 797.02,-211.7 802.01,-211.35 796.71,-207.21 807,-211 807,-211"/>
</g>
<!-- dependency37123&#45;&gt;choice10010111845108971101034711212111610411111045514657464895971081121049750 -->
<g id="edge20" class="edge">
<title>dependency37123:e&#45;&gt;choice10010111845108971101034711212111610411111045514657464895971081121049750:w</title>
<path fill="none" stroke="black" stroke-dasharray="1,5" d="M1045,-341C1068.56,-341 1060.54,-377.22 1044,-394 1019.62,-418.73 753.83,-385 732,-412 680.31,-475.94 694.87,-1078.64 732,-1152 742.54,-1172.81 751.26,-1184.52 770.83,-1187.33"/>
<polygon fill="black" stroke="black" points="781,-1188 770.73,-1191.84 776.01,-1187.67 771.02,-1187.34 771.02,-1187.34 771.02,-1187.34 776.01,-1187.67 771.32,-1182.85 781,-1188 781,-1188"/>
</g>
<!-- dependency37123&#45;&gt;choice100101118451089711010347112121116104111110455146564649 -->
<g id="edge21" class="edge">
<title>dependency37123:e&#45;&gt;choice100101118451089711010347112121116104111110455146564649:w</title>
<path fill="none" stroke="black" stroke-dasharray="1,5" d="M1045,-341C1068.56,-341 1060.54,-377.22 1044,-394 1019.62,-418.73 753.83,-385 732,-412 684.08,-471.28 697.58,-1029.99 732,-1098 742.54,-1118.81 751.26,-1130.52 770.83,-1133.33"/>
<polygon fill="black" stroke="black" points="781,-1134 770.73,-1137.84 776.01,-1133.67 771.02,-1133.34 771.02,-1133.34 771.02,-1133.34 776.01,-1133.67 771.32,-1128.85 781,-1134 781,-1134"/>
</g>
<!-- dependency37123&#45;&gt;choice100101118451089711010347112121116104111110455146554654 -->
<g id="edge22" class="edge">
<title>dependency37123:e&#45;&gt;choice100101118451089711010347112121116104111110455146554654:w</title>
<path fill="none" stroke="black" stroke-dasharray="1,5" d="M1045,-341C1068.56,-341 1060.54,-377.22 1044,-394 1019.62,-418.73 753.83,-385 732,-412 687.85,-466.61 700.29,-981.35 732,-1044 742.54,-1064.81 751.26,-1076.52 770.83,-1079.33"/>
<polygon fill="black" stroke="black" points="781,-1080 770.73,-1083.84 776.01,-1079.67 771.02,-1079.34 771.02,-1079.34 771.02,-1079.34 776.01,-1079.67 771.32,-1074.85 781,-1080 781,-1080"/>
</g>
<!-- dependency37123&#45;&gt;choice1001011184510897110103471121211161041111104551465546534511449 -->
<g id="edge23" class="edge">
<title>dependency37123:e&#45;&gt;choice1001011184510897110103471121211161041111104551465546534511449:w</title>
<path fill="none" stroke="black" stroke-dasharray="1,5" d="M1045,-341C1068.56,-341 1060.54,-377.22 1044,-394 1019.62,-418.73 753.83,-385 732,-412 691.62,-461.94 703,-932.7 732,-990 742.54,-1010.81 751.26,-1022.52 770.83,-1025.33"/>
<polygon fill="black" stroke="black" points="781,-1026 770.73,-1029.84 776.01,-1025.67 771.02,-1025.34 771.02,-1025.34 771.02,-1025.34 776.01,-1025.67 771.32,-1020.85 781,-1026 781,-1026"/>
</g>
<!-- dependency37123&#45;&gt;choice100101118451089711010347112121116104111110455146544657 -->
<g id="edge24" class="edge">
<title>dependency37123:e&#45;&gt;choice100101118451089711010347112121116104111110455146544657:w</title>
<path fill="none" stroke="black" stroke-dasharray="1,5" d="M1045,-341C1068.56,-341 1060.54,-377.22 1044,-394 1019.62,-418.73 753.83,-385 732,-412 695.4,-457.28 705.71,-884.05 732,-936 742.54,-956.81 751.26,-968.52 770.83,-971.33"/>
<polygon fill="black" stroke="black" points="781,-972 770.73,-975.84 776.01,-971.67 771.02,-971.34 771.02,-971.34 771.02,-971.34 776.01,-971.67 771.32,-966.85 781,-972 781,-972"/>
</g>
<!-- dependency37123&#45;&gt;choice10010111845108971101034711212111610411111045514654464948 -->
<g id="edge25" class="edge">
<title>dependency37123:e&#45;&gt;choice10010111845108971101034711212111610411111045514654464948:w</title>
<path fill="none" stroke="black" stroke-dasharray="1,5" d="M1045,-341C1068.56,-341 1060.54,-377.22 1044,-394 1019.62,-418.73 753.83,-385 732,-412 699.17,-452.61 708.42,-835.41 732,-882 742.54,-902.81 751.26,-914.52 770.83,-917.33"/>
<polygon fill="black" stroke="black" points="781,-918 770.73,-921.84 776.01,-917.67 771.02,-917.34 771.02,-917.34 771.02,-917.34 776.01,-917.67 771.32,-912.85 781,-918 781,-918"/>
</g>
<!-- dependency37123&#45;&gt;choice100101118451089711010347112121116104111110455046554649554511449 -->
<g id="edge26" class="edge">
<title>dependency37123:e&#45;&gt;choice100101118451089711010347112121116104111110455046554649554511449:w</title>
<path fill="none" stroke="black" stroke-dasharray="1,5" d="M1045,-341C1068.56,-341 1060.54,-377.22 1044,-394 1019.62,-418.73 753.83,-385 732,-412 673.88,-483.89 690.25,-745.52 732,-828 742.54,-848.81 751.26,-860.52 770.83,-863.33"/>
<polygon fill="black" stroke="black" points="781,-864 770.73,-867.84 776.01,-863.67 771.02,-863.34 771.02,-863.34 771.02,-863.34 776.01,-863.67 771.32,-858.85 781,-864 781,-864"/>
</g>
<!-- dependency37123&#45;&gt;choice10010111845108971101034711212111610411111045504655464955 -->
<g id="edge27" class="edge">
<title>dependency37123:e&#45;&gt;choice10010111845108971101034711212111610411111045504655464955:w</title>
<path fill="none" stroke="black" stroke-dasharray="1,5" d="M1045,-341C1068.56,-341 1060.54,-377.22 1044,-394 1019.62,-418.73 753.83,-385 732,-412 681.43,-474.56 695.67,-702.23 732,-774 742.54,-794.81 751.26,-806.52 770.83,-809.33"/>
<polygon fill="black" stroke="black" points="781,-810 770.73,-813.84 776.01,-809.67 771.02,-809.34 771.02,-809.34 771.02,-809.34 776.01,-809.67 771.32,-804.85 781,-810 781,-810"/>
</g>
<!-- dependency37124&#45;&gt;choice10010111845108971101034711212111610411111045101120101994557575757 -->
<g id="edge28" class="edge">
<title>dependency37124:e&#45;&gt;choice10010111845108971101034711212111610411111045101120101994557575757:w</title>
<path fill="none" stroke="black" stroke-dasharray="1,5" d="M1045,-211C1071.23,-211 1062.39,-251.3 1044,-270 1019.65,-294.75 753.83,-261 732,-288 690.65,-339.15 702.29,-525.31 732,-584 742.54,-604.81 751.26,-616.52 770.83,-619.33"/>
<polygon fill="black" stroke="black" points="781,-620 770.73,-623.84 776.01,-619.67 771.02,-619.34 771.02,-619.34 771.02,-619.34 776.01,-619.67 771.32,-614.85 781,-620 781,-620"/>
</g>
<!-- dependency37124&#45;&gt;choice10010111845108971101034711212111610411111045101120101994550465246544511449 -->
<g id="edge29" class="edge">
<title>dependency37124:e&#45;&gt;choice10010111845108971101034711212111610411111045101120101994550465246544511449:w</title>
<path fill="none" stroke="black" stroke-dasharray="1,5" d="M1045,-211C1071.23,-211 1062.39,-251.3 1044,-270 1019.65,-294.75 753.83,-261 732,-288 698.19,-329.82 707.71,-482.02 732,-530 742.54,-550.81 751.26,-562.52 770.83,-565.33"/>
<polygon fill="black" stroke="black" points="781,-566 770.73,-569.84 776.01,-565.67 771.02,-565.34 771.02,-565.34 771.02,-565.34 776.01,-565.67 771.32,-560.85 781,-566 781,-566"/>
</g>
<!-- dependency37125&#45;&gt;choice119119119451151011141181011141154797112979910410145504652465249 -->
<g id="edge30" class="edge">
<title>dependency37125:e&#45;&gt;choice119119119451151011141181011141154797112979910410145504652465249:w</title>
<path fill="none" stroke="black" stroke-dasharray="1,5" d="M1045,-75C1071.23,-75 1062.39,-115.3 1044,-134 1019.65,-158.75 753.83,-125 732,-152 690.44,-203.41 702.14,-1283.02 732,-1342 742.54,-1362.81 751.26,-1374.52 770.83,-1377.33"/>
<polygon fill="black" stroke="black" points="781,-1378 770.73,-1381.84 776.01,-1377.67 771.02,-1377.34 771.02,-1377.34 771.02,-1377.34 776.01,-1377.67 771.32,-1372.85 781,-1378 781,-1378"/>
</g>
</g>
</svg>
