<?xml version="1.0" encoding="UTF-8" standalone="no"?>
<!DOCTYPE svg PUBLIC "-//W3C//DTD SVG 1.1//EN"
 "http://www.w3.org/Graphics/SVG/1.1/DTD/svg11.dtd">
<!-- Generated by graphviz version 2.41.20171026.1811 (20171026.1811)
 -->
<!-- Title: prolog Pages: 1 -->
<svg width="1068pt" height="372pt"
 viewBox="0.00 0.00 1068.00 372.00" xmlns="http://www.w3.org/2000/svg" xmlns:xlink="http://www.w3.org/1999/xlink">
<g id="graph0" class="graph" transform="scale(1 1) rotate(0) translate(4 368)">
<title>prolog</title>
<polygon fill="white" stroke="transparent" points="-4,4 -4,-368 1064,-368 1064,4 -4,4"/>
<g id="clust1" class="cluster">
<title>cluster_leftcol</title>
<polygon fill="none" stroke="gray" points="8,-161 8,-231 312,-231 312,-161 8,-161"/>
<text text-anchor="start" x="146.66" y="-220" font-family="Helvetica,sans-Serif" font-style="italic" font-size="10.00">ebuild</text>
</g>
<g id="clust2" class="cluster">
<title>cluster_midcol</title>
<polygon fill="none" stroke="gray" points="396,-54 396,-356 664,-356 664,-54 396,-54"/>
<text text-anchor="start" x="498.86" y="-345" font-family="Helvetica,sans-Serif" font-style="italic" font-size="10.00">dependencies</text>
</g>
<g id="clust4" class="cluster">
<title>cluster_compileandrun</title>
<polygon fill="#eeeeee" stroke="gray" points="404,-62 404,-330 656,-330 656,-62 404,-62"/>
<text text-anchor="start" x="494.42" y="-319" font-family="Helvetica,sans-Serif" font-style="italic" font-size="10.00">compile and run</text>
</g>
<g id="clust8" class="cluster">
<title>cluster_choices</title>
<polygon fill="none" stroke="gray" points="748,-8 748,-294 1052,-294 1052,-8 748,-8"/>
<text text-anchor="start" x="875.82" y="-283" font-family="Helvetica,sans-Serif" font-style="italic" font-size="10.00">candidates</text>
</g>
<!-- id -->
<g id="node1" class="node">
<title>id</title>
<g id="a_node1"><a xlink:href="../www-apache/mod_scgi-1.14-r1.svg" xlink:title="www&#45;apache/mod_scgi&#45;1.14&#45;r1">
<ellipse fill="none" stroke="red" cx="160" cy="-187" rx="144" ry="18"/>
<text text-anchor="middle" x="160" y="-184" font-family="Helvetica,sans-Serif" font-size="10.00">www&#45;apache/mod_scgi&#45;1.14&#45;r1</text>
</a>
</g>
</g>
<!-- dependency8994 -->
<g id="node2" class="node">
<title>dependency8994</title>
<polygon fill="none" stroke="blue" points="420,-200 420,-300 525,-300 525,-200 420,-200"/>
<text text-anchor="start" x="450.82" y="-247" font-family="Helvetica,sans-Serif" font-size="10.00">pack_dep</text>
<polygon fill="none" stroke="blue" points="525,-280 525,-300 635,-300 635,-280 525,-280"/>
<text text-anchor="start" x="574.44" y="-287" font-family="Helvetica,sans-Serif" font-size="10.00">no</text>
<polygon fill="none" stroke="blue" points="525,-260 525,-280 635,-280 635,-260 525,-260"/>
<text text-anchor="start" x="556.66" y="-267" font-family="Helvetica,sans-Serif" font-size="10.00">www&#45;apps</text>
<polygon fill="none" stroke="blue" points="525,-240 525,-260 635,-260 635,-240 525,-240"/>
<text text-anchor="start" x="571.11" y="-247" font-family="Helvetica,sans-Serif" font-size="10.00">scgi</text>
<polygon fill="none" stroke="blue" points="525,-220 525,-240 635,-240 635,-220 525,-220"/>
<text text-anchor="start" x="570.83" y="-227" font-family="Helvetica,sans-Serif" font-size="10.00">tilde</text>
<polygon fill="none" stroke="blue" points="525,-200 525,-220 635,-220 635,-200 525,-200"/>
<text text-anchor="start" x="570.27" y="-207" font-family="Helvetica,sans-Serif" font-size="10.00">1.14</text>
</g>
<!-- id&#45;&gt;dependency8994 -->
<g id="edge1" class="edge">
<title>id:e&#45;&gt;dependency8994:w</title>
<path fill="none" stroke="black" d="M305,-187C352.95,-187 356.19,-235.23 392.96,-247.29"/>
<ellipse fill="none" stroke="black" cx="407.04" cy="-249.41" rx="4" ry="4"/>
<polygon fill="black" stroke="black" points="403.09,-248.81 392.53,-251.78 398.14,-248.07 393.2,-247.33 393.2,-247.33 393.2,-247.33 398.14,-248.07 393.87,-242.88 403.09,-248.81 403.09,-248.81"/>
</g>
<!-- dependency8995 -->
<g id="node3" class="node">
<title>dependency8995</title>
<polygon fill="none" stroke="blue" points="420,-74 420,-174 525,-174 525,-74 420,-74"/>
<text text-anchor="start" x="450.82" y="-121" font-family="Helvetica,sans-Serif" font-size="10.00">pack_dep</text>
<polygon fill="none" stroke="blue" points="525,-154 525,-174 635,-174 635,-154 525,-154"/>
<text text-anchor="start" x="574.44" y="-161" font-family="Helvetica,sans-Serif" font-size="10.00">no</text>
<polygon fill="none" stroke="blue" points="525,-134 525,-154 635,-154 635,-134 525,-134"/>
<text text-anchor="start" x="551.11" y="-141" font-family="Helvetica,sans-Serif" font-size="10.00">www&#45;servers</text>
<polygon fill="none" stroke="blue" points="525,-114 525,-134 635,-134 635,-114 525,-114"/>
<text text-anchor="start" x="563.6" y="-121" font-family="Helvetica,sans-Serif" font-size="10.00">apache</text>
<polygon fill="none" stroke="blue" points="525,-94 525,-114 635,-114 635,-94 525,-94"/>
<text text-anchor="start" x="567.77" y="-101" font-family="Helvetica,sans-Serif" font-size="10.00">equal</text>
<polygon fill="none" stroke="blue" points="525,-74 525,-94 635,-94 635,-74 525,-74"/>
<text text-anchor="start" x="571.1" y="-81" font-family="Helvetica,sans-Serif" font-size="10.00">2.4*</text>
</g>
<!-- id&#45;&gt;dependency8995 -->
<g id="edge2" class="edge">
<title>id:e&#45;&gt;dependency8995:w</title>
<path fill="none" stroke="black" d="M305,-187C352.95,-187 356.19,-138.77 392.96,-126.71"/>
<ellipse fill="none" stroke="black" cx="407.04" cy="-124.59" rx="4" ry="4"/>
<polygon fill="black" stroke="black" points="403.09,-125.19 393.87,-131.12 398.14,-125.93 393.2,-126.67 393.2,-126.67 393.2,-126.67 398.14,-125.93 392.53,-122.22 403.09,-125.19 403.09,-125.19"/>
</g>
<!-- choice1191191194597112112115471159910310545494649524511449 -->
<g id="node4" class="node">
<title>choice1191191194597112112115471159910310545494649524511449</title>
<g id="a_node4"><a xlink:href="../www-apps/scgi-1.14-r1.svg" xlink:title="www&#45;apps/scgi&#45;1.14&#45;r1">
<ellipse fill="none" stroke="red" cx="900" cy="-250" rx="144" ry="18"/>
<text text-anchor="middle" x="900" y="-247" font-family="Helvetica,sans-Serif" font-size="10.00">www&#45;apps/scgi&#45;1.14&#45;r1</text>
</a>
</g>
</g>
<!-- dependency8994&#45;&gt;choice1191191194597112112115471159910310545494649524511449 -->
<g id="edge3" class="edge">
<title>dependency8994:e&#45;&gt;choice1191191194597112112115471159910310545494649524511449:w</title>
<path fill="none" stroke="black" stroke-dasharray="1,5" d="M649,-250C692.43,-250 705.83,-250 744.57,-250"/>
<polygon fill="black" stroke="black" points="755,-250 745,-254.5 750,-250 745,-250 745,-250 745,-250 750,-250 745,-245.5 755,-250 755,-250"/>
</g>
<!-- choice119119119451151011141181011141154797112979910410145504650465152 -->
<g id="node5" class="node">
<title>choice119119119451151011141181011141154797112979910410145504650465152</title>
<g id="a_node5"><a xlink:href="../www-servers/apache-2.2.34.svg" xlink:title="www&#45;servers/apache&#45;2.2.34">
<ellipse fill="none" stroke="red" cx="900" cy="-196" rx="144" ry="18"/>
<text text-anchor="middle" x="900" y="-193" font-family="Helvetica,sans-Serif" font-size="10.00">www&#45;servers/apache&#45;2.2.34</text>
</a>
</g>
</g>
<!-- dependency8995&#45;&gt;choice119119119451151011141181011141154797112979910410145504650465152 -->
<g id="edge4" class="edge">
<title>dependency8995:e&#45;&gt;choice119119119451151011141181011141154797112979910410145504650465152:w</title>
<path fill="none" stroke="black" stroke-dasharray="1,5" d="M649,-124C702.28,-124 698.8,-187.02 744.76,-195.14"/>
<polygon fill="black" stroke="black" points="755,-196 744.66,-199.65 750.02,-195.58 745.03,-195.16 745.03,-195.16 745.03,-195.16 750.02,-195.58 745.41,-190.68 755,-196 755,-196"/>
</g>
<!-- choice1191191194511510111411810111411547971129799104101455046524650554511449 -->
<g id="node6" class="node">
<title>choice1191191194511510111411810111411547971129799104101455046524650554511449</title>
<g id="a_node6"><a xlink:href="../www-servers/apache-2.4.27-r1.svg" xlink:title="www&#45;servers/apache&#45;2.4.27&#45;r1">
<ellipse fill="none" stroke="red" cx="900" cy="-142" rx="144" ry="18"/>
<text text-anchor="middle" x="900" y="-139" font-family="Helvetica,sans-Serif" font-size="10.00">www&#45;servers/apache&#45;2.4.27&#45;r1</text>
</a>
</g>
</g>
<!-- dependency8995&#45;&gt;choice1191191194511510111411810111411547971129799104101455046524650554511449 -->
<g id="edge5" class="edge">
<title>dependency8995:e&#45;&gt;choice1191191194511510111411810111411547971129799104101455046524650554511449:w</title>
<path fill="none" stroke="black" stroke-dasharray="1,5" d="M649,-124C693.24,-124 705.46,-139.43 744.95,-141.72"/>
<polygon fill="black" stroke="black" points="755,-142 744.88,-146.22 750,-141.86 745,-141.72 745,-141.72 745,-141.72 750,-141.86 745.13,-137.22 755,-142 755,-142"/>
</g>
<!-- choice1191191194511510111411810111411547971129799104101455046524650574511449 -->
<g id="node7" class="node">
<title>choice1191191194511510111411810111411547971129799104101455046524650574511449</title>
<g id="a_node7"><a xlink:href="../www-servers/apache-2.4.29-r1.svg" xlink:title="www&#45;servers/apache&#45;2.4.29&#45;r1">
<ellipse fill="none" stroke="red" cx="900" cy="-88" rx="144" ry="18"/>
<text text-anchor="middle" x="900" y="-85" font-family="Helvetica,sans-Serif" font-size="10.00">www&#45;servers/apache&#45;2.4.29&#45;r1</text>
</a>
</g>
</g>
<!-- dependency8995&#45;&gt;choice1191191194511510111411810111411547971129799104101455046524650574511449 -->
<g id="edge6" class="edge">
<title>dependency8995:e&#45;&gt;choice1191191194511510111411810111411547971129799104101455046524650574511449:w</title>
<path fill="none" stroke="black" stroke-dasharray="1,5" d="M649,-124C695.16,-124 704.08,-93.02 744.86,-88.54"/>
<polygon fill="black" stroke="black" points="755,-88 745.25,-93.02 750.01,-88.26 745.01,-88.53 745.01,-88.53 745.01,-88.53 750.01,-88.26 744.78,-84.03 755,-88 755,-88"/>
</g>
<!-- choice119119119451151011141181011141154797112979910410145504652465151 -->
<g id="node8" class="node">
<title>choice119119119451151011141181011141154797112979910410145504652465151</title>
<g id="a_node8"><a xlink:href="../www-servers/apache-2.4.33.svg" xlink:title="www&#45;servers/apache&#45;2.4.33">
<ellipse fill="none" stroke="red" cx="900" cy="-34" rx="144" ry="18"/>
<text text-anchor="middle" x="900" y="-31" font-family="Helvetica,sans-Serif" font-size="10.00">www&#45;servers/apache&#45;2.4.33</text>
</a>
</g>
</g>
<!-- dependency8995&#45;&gt;choice119119119451151011141181011141154797112979910410145504652465151 -->
<g id="edge7" class="edge">
<title>dependency8995:e&#45;&gt;choice119119119451151011141181011141154797112979910410145504652465151:w</title>
<path fill="none" stroke="black" stroke-dasharray="1,5" d="M649,-124C707.18,-124 694.99,-44.24 744.92,-34.89"/>
<polygon fill="black" stroke="black" points="755,-34 745.44,-39.36 750.02,-34.44 745.04,-34.88 745.04,-34.88 745.04,-34.88 750.02,-34.44 744.64,-30.4 755,-34 755,-34"/>
</g>
</g>
</svg>
