<?xml version="1.0" encoding="UTF-8" standalone="no"?>
<!DOCTYPE svg PUBLIC "-//W3C//DTD SVG 1.1//EN"
 "http://www.w3.org/Graphics/SVG/1.1/DTD/svg11.dtd">
<!-- Generated by graphviz version 9.0.0 (20230911.1827)
 -->
<!-- Title: prolog Pages: 1 -->
<svg width="1332pt" height="1085pt"
 viewBox="0.00 0.00 1332.00 1085.00" xmlns="http://www.w3.org/2000/svg" xmlns:xlink="http://www.w3.org/1999/xlink">
<g id="graph0" class="graph" transform="scale(1 1) rotate(0) translate(4 1081)">
<title>prolog</title>
<polygon fill="white" stroke="none" points="-4,4 -4,-1081 1328,-1081 1328,4 -4,4"/>
<g id="clust2" class="cluster">
<title>cluster_midcol</title>
<polygon fill="none" stroke="gray" points="8,-8 8,-1069 928,-1069 928,-8 8,-8"/>
<text text-anchor="start" x="438" y="-1056.5" font-family="Helvetica,sans-Serif" font-style="italic" font-size="10.00">dependencies</text>
</g>
<g id="clust3" class="cluster">
<title>cluster_compile</title>
<polygon fill="#eeeeee" stroke="gray" points="16,-16 16,-525 920,-525 920,-16 16,-16"/>
<text text-anchor="start" x="451.12" y="-512.5" font-family="Helvetica,sans-Serif" font-style="italic" font-size="10.00">compile</text>
</g>
<g id="clust11" class="cluster">
<title>cluster_run</title>
<polygon fill="#eeeeee" stroke="gray" points="412,-533 412,-1042 920,-1042 920,-533 412,-533"/>
<text text-anchor="start" x="659.25" y="-1029.5" font-family="Helvetica,sans-Serif" font-style="italic" font-size="10.00">run</text>
</g>
<g id="clust18" class="cluster">
<title>cluster_choices</title>
<polygon fill="none" stroke="gray" points="1012,-292 1012,-741 1316,-741 1316,-292 1012,-292"/>
<text text-anchor="start" x="1140.38" y="-728.5" font-family="Helvetica,sans-Serif" font-style="italic" font-size="10.00">candidates</text>
</g>
<!-- id -->
<g id="node1" class="node">
<title>id</title>
<g id="a_node1"><a xlink:href="../www-apache/mod_log_sql-1.101-r2.svg" xlink:title="portage://www&#45;apache/mod_log_sql&#45;1.101&#45;r2">
<ellipse fill="none" stroke="red" cx="168" cy="-460" rx="144" ry="18"/>
<text text-anchor="middle" x="168" y="-456.12" font-family="Helvetica,sans-Serif" font-size="10.00">portage://www&#45;apache/mod_log_sql&#45;1.101&#45;r2</text>
</a>
</g>
</g>
<!-- dependency7045 -->
<g id="node2" class="node">
<title>dependency7045</title>
<polygon fill="none" stroke="red" points="428,-118 428,-160 517,-160 517,-118 428,-118"/>
<text text-anchor="start" x="438.75" y="-135.12" font-family="Helvetica,sans-Serif" font-size="10.00">use_conditional</text>
<polygon fill="none" stroke="red" points="517,-139 517,-160 560,-160 560,-139 517,-139"/>
<text text-anchor="start" x="521.62" y="-145.5" font-family="Helvetica,sans-Serif" font-size="10.00">positive</text>
<polygon fill="none" stroke="red" points="517,-118 517,-139 560,-139 560,-118 517,-118"/>
<text text-anchor="start" x="532.12" y="-124.5" font-family="Helvetica,sans-Serif" font-size="10.00">dbi</text>
</g>
<!-- id&#45;&gt;dependency7045 -->
<g id="edge2" class="edge">
<title>id:e&#45;&gt;dependency7045:w</title>
<path fill="none" stroke="black" d="M312,-460C458.42,-460 278.6,-155.7 407.81,-139.66"/>
<polygon fill="black" stroke="black" points="417.78,-139.07 408.06,-144.15 414.01,-139.29 407.8,-139.66 407.8,-139.66 407.8,-139.66 414.01,-139.29 407.54,-135.17 417.78,-139.07"/>
</g>
<!-- dependency7047 -->
<g id="node4" class="node">
<title>dependency7047</title>
<polygon fill="none" stroke="red" points="428,-313 428,-355 517,-355 517,-313 428,-313"/>
<text text-anchor="start" x="438.75" y="-330.12" font-family="Helvetica,sans-Serif" font-size="10.00">use_conditional</text>
<polygon fill="none" stroke="red" points="517,-334 517,-355 560,-355 560,-334 517,-334"/>
<text text-anchor="start" x="521.62" y="-340.5" font-family="Helvetica,sans-Serif" font-size="10.00">positive</text>
<polygon fill="none" stroke="red" points="517,-313 517,-334 560,-334 560,-313 517,-313"/>
<text text-anchor="start" x="532.12" y="-319.5" font-family="Helvetica,sans-Serif" font-size="10.00">ssl</text>
</g>
<!-- id&#45;&gt;dependency7047 -->
<g id="edge4" class="edge">
<title>id:e&#45;&gt;dependency7047:w</title>
<path fill="none" stroke="black" d="M312,-460C381.45,-460 349.56,-347.4 407.93,-335.09"/>
<polygon fill="black" stroke="black" points="417.79,-334.12 408.28,-339.58 414.02,-334.49 407.84,-335.1 407.84,-335.1 407.84,-335.1 414.02,-334.49 407.39,-330.62 417.79,-334.12"/>
</g>
<!-- dependency7049 -->
<g id="node6" class="node">
<title>dependency7049</title>
<polygon fill="none" stroke="blue" points="684,-268 684,-362 788,-362 788,-268 684,-268"/>
<text text-anchor="start" x="715" y="-311.12" font-family="Helvetica,sans-Serif" font-size="10.00">pack_dep</text>
<polygon fill="none" stroke="blue" points="788,-341 788,-362 898,-362 898,-341 788,-341"/>
<text text-anchor="start" x="837.75" y="-347.5" font-family="Helvetica,sans-Serif" font-size="10.00">no</text>
<polygon fill="none" stroke="blue" points="788,-320 788,-341 898,-341 898,-320 788,-320"/>
<text text-anchor="start" x="829.88" y="-326.5" font-family="Helvetica,sans-Serif" font-size="10.00">virtual</text>
<polygon fill="none" stroke="blue" points="788,-299 788,-320 898,-320 898,-299 788,-299"/>
<text text-anchor="start" x="829.88" y="-305.5" font-family="Helvetica,sans-Serif" font-size="10.00">mysql</text>
<polygon fill="none" stroke="blue" points="788,-278 788,-299 898,-299 898,-278 788,-278"/>
<text text-anchor="start" x="832.5" y="-284.5" font-family="Helvetica,sans-Serif" font-size="10.00">none</text>
<polygon fill="none" stroke="blue" points="788,-268 788,-278 898,-278 898,-268 788,-268"/>
</g>
<!-- id&#45;&gt;dependency7049 -->
<g id="edge5" class="edge">
<title>id:e&#45;&gt;dependency7049:w</title>
<path fill="none" stroke="black" d="M495,-441C588.36,-428.55 578.92,-323.68 665.01,-315.5"/>
<polygon fill="black" stroke="black" points="674.78,-315.06 665,-320.01 671.01,-315.23 664.79,-315.51 664.79,-315.51 664.79,-315.51 671.01,-315.23 664.59,-311.02 674.78,-315.06"/>
<path fill="none" stroke="black" d="M312,-460C392.89,-460 412.82,-451.69 493,-441"/>
</g>
<!-- dependency7050 -->
<g id="node7" class="node">
<title>dependency7050</title>
<polygon fill="none" stroke="blue" points="684,-388.5 684,-493.5 788,-493.5 788,-388.5 684,-388.5"/>
<text text-anchor="start" x="715" y="-437.12" font-family="Helvetica,sans-Serif" font-size="10.00">pack_dep</text>
<polygon fill="none" stroke="blue" points="788,-472.5 788,-493.5 898,-493.5 898,-472.5 788,-472.5"/>
<text text-anchor="start" x="837.75" y="-479" font-family="Helvetica,sans-Serif" font-size="10.00">no</text>
<polygon fill="none" stroke="blue" points="788,-451.5 788,-472.5 898,-472.5 898,-451.5 788,-451.5"/>
<text text-anchor="start" x="814.12" y="-458" font-family="Helvetica,sans-Serif" font-size="10.00">www&#45;servers</text>
<polygon fill="none" stroke="blue" points="788,-430.5 788,-451.5 898,-451.5 898,-430.5 788,-430.5"/>
<text text-anchor="start" x="827.25" y="-437" font-family="Helvetica,sans-Serif" font-size="10.00">apache</text>
<polygon fill="none" stroke="blue" points="788,-409.5 788,-430.5 898,-430.5 898,-409.5 788,-409.5"/>
<text text-anchor="start" x="831.38" y="-416" font-family="Helvetica,sans-Serif" font-size="10.00">equal</text>
<polygon fill="none" stroke="blue" points="788,-388.5 788,-409.5 898,-409.5 898,-388.5 788,-388.5"/>
<text text-anchor="start" x="834.38" y="-395" font-family="Helvetica,sans-Serif" font-size="10.00">2.4*</text>
</g>
<!-- id&#45;&gt;dependency7050 -->
<g id="edge6" class="edge">
<title>id:e&#45;&gt;dependency7050:w</title>
<path fill="none" stroke="black" d="M495,-441C571,-430.86 593.47,-440.05 665.07,-440.93"/>
<polygon fill="black" stroke="black" points="674.78,-440.99 664.75,-445.43 671,-440.97 664.78,-440.93 664.78,-440.93 664.78,-440.93 671,-440.97 664.81,-436.43 674.78,-440.99"/>
</g>
<!-- dependency7051 -->
<g id="node8" class="node">
<title>dependency7051</title>
<polygon fill="none" stroke="red" points="428,-558 428,-600 517,-600 517,-558 428,-558"/>
<text text-anchor="start" x="438.75" y="-575.12" font-family="Helvetica,sans-Serif" font-size="10.00">use_conditional</text>
<polygon fill="none" stroke="red" points="517,-579 517,-600 560,-600 560,-579 517,-579"/>
<text text-anchor="start" x="521.62" y="-585.5" font-family="Helvetica,sans-Serif" font-size="10.00">positive</text>
<polygon fill="none" stroke="red" points="517,-558 517,-579 560,-579 560,-558 517,-558"/>
<text text-anchor="start" x="532.12" y="-564.5" font-family="Helvetica,sans-Serif" font-size="10.00">dbi</text>
</g>
<!-- id&#45;&gt;dependency7051 -->
<g id="edge8" class="edge">
<title>id:e&#45;&gt;dependency7051:w</title>
<path fill="none" stroke="black" d="M312,-460C379.93,-460 350.83,-568.55 410.04,-578.3"/>
<ellipse fill="none" stroke="black" cx="414.51" cy="-578.65" rx="4" ry="4"/>
</g>
<!-- dependency7053 -->
<g id="node10" class="node">
<title>dependency7053</title>
<polygon fill="none" stroke="red" points="428,-659 428,-701 517,-701 517,-659 428,-659"/>
<text text-anchor="start" x="438.75" y="-676.12" font-family="Helvetica,sans-Serif" font-size="10.00">use_conditional</text>
<polygon fill="none" stroke="red" points="517,-680 517,-701 560,-701 560,-680 517,-680"/>
<text text-anchor="start" x="521.62" y="-686.5" font-family="Helvetica,sans-Serif" font-size="10.00">positive</text>
<polygon fill="none" stroke="red" points="517,-659 517,-680 560,-680 560,-659 517,-659"/>
<text text-anchor="start" x="532.12" y="-665.5" font-family="Helvetica,sans-Serif" font-size="10.00">ssl</text>
</g>
<!-- id&#45;&gt;dependency7053 -->
<g id="edge10" class="edge">
<title>id:e&#45;&gt;dependency7053:w</title>
<path fill="none" stroke="black" d="M312,-460C417.65,-460 316.35,-667.72 410.28,-679.48"/>
<ellipse fill="none" stroke="black" cx="414.51" cy="-679.73" rx="4" ry="4"/>
</g>
<!-- dependency7055 -->
<g id="node12" class="node">
<title>dependency7055</title>
<polygon fill="none" stroke="blue" points="684,-785 684,-879 788,-879 788,-785 684,-785"/>
<text text-anchor="start" x="715" y="-828.12" font-family="Helvetica,sans-Serif" font-size="10.00">pack_dep</text>
<polygon fill="none" stroke="blue" points="788,-858 788,-879 898,-879 898,-858 788,-858"/>
<text text-anchor="start" x="837.75" y="-864.5" font-family="Helvetica,sans-Serif" font-size="10.00">no</text>
<polygon fill="none" stroke="blue" points="788,-837 788,-858 898,-858 898,-837 788,-837"/>
<text text-anchor="start" x="829.88" y="-843.5" font-family="Helvetica,sans-Serif" font-size="10.00">virtual</text>
<polygon fill="none" stroke="blue" points="788,-816 788,-837 898,-837 898,-816 788,-816"/>
<text text-anchor="start" x="829.88" y="-822.5" font-family="Helvetica,sans-Serif" font-size="10.00">mysql</text>
<polygon fill="none" stroke="blue" points="788,-795 788,-816 898,-816 898,-795 788,-795"/>
<text text-anchor="start" x="832.5" y="-801.5" font-family="Helvetica,sans-Serif" font-size="10.00">none</text>
<polygon fill="none" stroke="blue" points="788,-785 788,-795 898,-795 898,-785 788,-785"/>
</g>
<!-- id&#45;&gt;dependency7055 -->
<g id="edge11" class="edge">
<title>id:e&#45;&gt;dependency7055:w</title>
<path fill="none" stroke="black" d="M495,-895C568.5,-931.77 589.37,-838.94 667.25,-832.36"/>
<ellipse fill="none" stroke="black" cx="671.5" cy="-832.19" rx="4" ry="4"/>
<path fill="none" stroke="black" d="M312,-460C433.32,-460 364.99,-602.16 412,-714 446.15,-795.25 414.18,-855.57 493,-895"/>
</g>
<!-- dependency7056 -->
<g id="node13" class="node">
<title>dependency7056</title>
<polygon fill="none" stroke="blue" points="684,-905.5 684,-1010.5 788,-1010.5 788,-905.5 684,-905.5"/>
<text text-anchor="start" x="715" y="-954.12" font-family="Helvetica,sans-Serif" font-size="10.00">pack_dep</text>
<polygon fill="none" stroke="blue" points="788,-989.5 788,-1010.5 898,-1010.5 898,-989.5 788,-989.5"/>
<text text-anchor="start" x="837.75" y="-996" font-family="Helvetica,sans-Serif" font-size="10.00">no</text>
<polygon fill="none" stroke="blue" points="788,-968.5 788,-989.5 898,-989.5 898,-968.5 788,-968.5"/>
<text text-anchor="start" x="814.12" y="-975" font-family="Helvetica,sans-Serif" font-size="10.00">www&#45;servers</text>
<polygon fill="none" stroke="blue" points="788,-947.5 788,-968.5 898,-968.5 898,-947.5 788,-947.5"/>
<text text-anchor="start" x="827.25" y="-954" font-family="Helvetica,sans-Serif" font-size="10.00">apache</text>
<polygon fill="none" stroke="blue" points="788,-926.5 788,-947.5 898,-947.5 898,-926.5 788,-926.5"/>
<text text-anchor="start" x="831.38" y="-933" font-family="Helvetica,sans-Serif" font-size="10.00">equal</text>
<polygon fill="none" stroke="blue" points="788,-905.5 788,-926.5 898,-926.5 898,-905.5 788,-905.5"/>
<text text-anchor="start" x="834.38" y="-912" font-family="Helvetica,sans-Serif" font-size="10.00">2.4*</text>
</g>
<!-- id&#45;&gt;dependency7056 -->
<g id="edge12" class="edge">
<title>id:e&#45;&gt;dependency7056:w</title>
<path fill="none" stroke="black" d="M495,-895C568.5,-931.77 589.37,-956.23 667.25,-957.91"/>
<ellipse fill="none" stroke="black" cx="671.5" cy="-957.95" rx="4" ry="4"/>
</g>
<!-- dependency7046 -->
<g id="node3" class="node">
<title>dependency7046</title>
<polygon fill="none" stroke="blue" points="684,-28 684,-122 788,-122 788,-28 684,-28"/>
<text text-anchor="start" x="715" y="-71.12" font-family="Helvetica,sans-Serif" font-size="10.00">pack_dep</text>
<polygon fill="none" stroke="blue" points="788,-101 788,-122 898,-122 898,-101 788,-101"/>
<text text-anchor="start" x="837.75" y="-107.5" font-family="Helvetica,sans-Serif" font-size="10.00">no</text>
<polygon fill="none" stroke="blue" points="788,-80 788,-101 898,-101 898,-80 788,-80"/>
<text text-anchor="start" x="828.38" y="-86.5" font-family="Helvetica,sans-Serif" font-size="10.00">dev&#45;db</text>
<polygon fill="none" stroke="blue" points="788,-59 788,-80 898,-80 898,-59 788,-59"/>
<text text-anchor="start" x="831.75" y="-65.5" font-family="Helvetica,sans-Serif" font-size="10.00">libdbi</text>
<polygon fill="none" stroke="blue" points="788,-38 788,-59 898,-59 898,-38 788,-38"/>
<text text-anchor="start" x="832.5" y="-44.5" font-family="Helvetica,sans-Serif" font-size="10.00">none</text>
<polygon fill="none" stroke="blue" points="788,-28 788,-38 898,-38 898,-28 788,-28"/>
</g>
<!-- dependency7045&#45;&gt;dependency7046 -->
<g id="edge1" class="edge">
<title>dependency7045:e&#45;&gt;dependency7046:w</title>
<path fill="none" stroke="black" stroke-dasharray="5,2" d="M568,-139C619.87,-139 620.42,-83.68 665.07,-75.9"/>
<polygon fill="black" stroke="black" points="674.79,-75.1 665.19,-80.41 671.02,-75.41 664.82,-75.93 664.82,-75.93 664.82,-75.93 671.02,-75.41 664.45,-71.44 674.79,-75.1"/>
</g>
<!-- choice1001011184510098471081059810098105454846574648 -->
<g id="node14" class="node">
<title>choice1001011184510098471081059810098105454846574648</title>
<g id="a_node14"><a xlink:href="../dev-db/libdbi-0.9.0.svg" xlink:title="portage://dev&#45;db/libdbi&#45;0.9.0">
<ellipse fill="none" stroke="red" cx="1164" cy="-318" rx="144" ry="18"/>
<text text-anchor="middle" x="1164" y="-314.12" font-family="Helvetica,sans-Serif" font-size="10.00">portage://dev&#45;db/libdbi&#45;0.9.0</text>
</a>
</g>
</g>
<!-- dependency7046&#45;&gt;choice1001011184510098471081059810098105454846574648 -->
<g id="edge13" class="edge">
<title>dependency7046:e&#45;&gt;choice1001011184510098471081059810098105454846574648:w</title>
<path fill="none" stroke="black" stroke-dasharray="1,5" d="M913,-75C1026.92,-75 909.51,-302.13 1008.06,-317.21"/>
<polygon fill="black" stroke="black" points="1017.78,-317.91 1007.49,-321.68 1014.01,-317.64 1007.81,-317.2 1007.81,-317.2 1007.81,-317.2 1014.01,-317.64 1008.13,-312.71 1017.78,-317.91"/>
</g>
<!-- dependency7048 -->
<g id="node5" class="node">
<title>dependency7048</title>
<polygon fill="none" stroke="blue" points="684,-148 684,-242 788,-242 788,-148 684,-148"/>
<text text-anchor="start" x="715" y="-191.12" font-family="Helvetica,sans-Serif" font-size="10.00">pack_dep</text>
<polygon fill="none" stroke="blue" points="788,-221 788,-242 898,-242 898,-221 788,-221"/>
<text text-anchor="start" x="837.75" y="-227.5" font-family="Helvetica,sans-Serif" font-size="10.00">no</text>
<polygon fill="none" stroke="blue" points="788,-200 788,-221 898,-221 898,-200 788,-200"/>
<text text-anchor="start" x="826.12" y="-206.5" font-family="Helvetica,sans-Serif" font-size="10.00">dev&#45;libs</text>
<polygon fill="none" stroke="blue" points="788,-179 788,-200 898,-200 898,-179 788,-179"/>
<text text-anchor="start" x="826.12" y="-185.5" font-family="Helvetica,sans-Serif" font-size="10.00">openssl</text>
<polygon fill="none" stroke="blue" points="788,-158 788,-179 898,-179 898,-158 788,-158"/>
<text text-anchor="start" x="832.5" y="-164.5" font-family="Helvetica,sans-Serif" font-size="10.00">none</text>
<polygon fill="none" stroke="blue" points="788,-148 788,-158 898,-158 898,-148 788,-148"/>
</g>
<!-- dependency7047&#45;&gt;dependency7048 -->
<g id="edge3" class="edge">
<title>dependency7047:e&#45;&gt;dependency7048:w</title>
<path fill="none" stroke="black" stroke-dasharray="5,2" d="M568,-334C642.26,-334 602.36,-208.76 665.03,-196.04"/>
<polygon fill="black" stroke="black" points="674.79,-195.11 665.26,-200.54 671.02,-195.47 664.83,-196.06 664.83,-196.06 664.83,-196.06 671.02,-195.47 664.41,-191.58 674.79,-195.11"/>
</g>
<!-- choice100101118451081059811547111112101110115115108454946494649101 -->
<g id="node15" class="node">
<title>choice100101118451081059811547111112101110115115108454946494649101</title>
<g id="a_node15"><a xlink:href="../dev-libs/openssl-1.1.1e.svg" xlink:title="portage://dev&#45;libs/openssl&#45;1.1.1e">
<ellipse fill="none" stroke="red" cx="1164" cy="-372" rx="144" ry="18"/>
<text text-anchor="middle" x="1164" y="-368.12" font-family="Helvetica,sans-Serif" font-size="10.00">portage://dev&#45;libs/openssl&#45;1.1.1e</text>
</a>
</g>
</g>
<!-- dependency7048&#45;&gt;choice100101118451081059811547111112101110115115108454946494649101 -->
<g id="edge14" class="edge">
<title>dependency7048:e&#45;&gt;choice100101118451081059811547111112101110115115108454946494649101:w</title>
<path fill="none" stroke="black" stroke-dasharray="1,5" d="M913,-195C1000.75,-195 933.64,-357.12 1008.09,-371.05"/>
<polygon fill="black" stroke="black" points="1017.79,-371.89 1007.43,-375.51 1014.02,-371.57 1007.82,-371.02 1007.82,-371.02 1007.82,-371.02 1014.02,-371.57 1008.22,-366.54 1017.79,-371.89"/>
</g>
<!-- choice1001011184510810598115471111121011101151151084549464946491004511451 -->
<g id="node16" class="node">
<title>choice1001011184510810598115471111121011101151151084549464946491004511451</title>
<g id="a_node16"><a xlink:href="../dev-libs/openssl-1.1.1d-r3.svg" xlink:title="portage://dev&#45;libs/openssl&#45;1.1.1d&#45;r3">
<ellipse fill="none" stroke="red" cx="1164" cy="-534" rx="144" ry="18"/>
<text text-anchor="middle" x="1164" y="-530.12" font-family="Helvetica,sans-Serif" font-size="10.00">portage://dev&#45;libs/openssl&#45;1.1.1d&#45;r3</text>
</a>
</g>
</g>
<!-- dependency7048&#45;&gt;choice1001011184510810598115471111121011101151151084549464946491004511451 -->
<g id="edge15" class="edge">
<title>dependency7048:e&#45;&gt;choice1001011184510810598115471111121011101151151084549464946491004511451:w</title>
<path fill="none" stroke="black" stroke-dasharray="1,5" d="M913,-195C1067.01,-195 871.16,-517.65 1008.08,-533.4"/>
<polygon fill="black" stroke="black" points="1017.78,-533.93 1007.55,-537.88 1014.01,-533.73 1007.8,-533.39 1007.8,-533.39 1007.8,-533.39 1014.01,-533.73 1008.04,-528.89 1017.78,-533.93"/>
</g>
<!-- choice100101118451081059811547111112101110115115108454946494648108 -->
<g id="node17" class="node">
<title>choice100101118451081059811547111112101110115115108454946494648108</title>
<g id="a_node17"><a xlink:href="../dev-libs/openssl-1.1.0l.svg" xlink:title="portage://dev&#45;libs/openssl&#45;1.1.0l">
<ellipse fill="none" stroke="red" cx="1164" cy="-480" rx="144" ry="18"/>
<text text-anchor="middle" x="1164" y="-476.12" font-family="Helvetica,sans-Serif" font-size="10.00">portage://dev&#45;libs/openssl&#45;1.1.0l</text>
</a>
</g>
</g>
<!-- dependency7048&#45;&gt;choice100101118451081059811547111112101110115115108454946494648108 -->
<g id="edge16" class="edge">
<title>dependency7048:e&#45;&gt;choice100101118451081059811547111112101110115115108454946494648108:w</title>
<path fill="none" stroke="black" stroke-dasharray="1,5" d="M913,-195C1044.18,-195 893.23,-463.55 1007.88,-479.28"/>
<polygon fill="black" stroke="black" points="1017.78,-479.92 1007.51,-483.77 1014.01,-479.68 1007.8,-479.28 1007.8,-479.28 1007.8,-479.28 1014.01,-479.68 1008.1,-474.79 1017.78,-479.92"/>
</g>
<!-- choice100101118451081059811547111112101110115115108454946484650117 -->
<g id="node18" class="node">
<title>choice100101118451081059811547111112101110115115108454946484650117</title>
<g id="a_node18"><a xlink:href="../dev-libs/openssl-1.0.2u.svg" xlink:title="portage://dev&#45;libs/openssl&#45;1.0.2u">
<ellipse fill="none" stroke="red" cx="1164" cy="-426" rx="144" ry="18"/>
<text text-anchor="middle" x="1164" y="-422.12" font-family="Helvetica,sans-Serif" font-size="10.00">portage://dev&#45;libs/openssl&#45;1.0.2u</text>
</a>
</g>
</g>
<!-- dependency7048&#45;&gt;choice100101118451081059811547111112101110115115108454946484650117 -->
<g id="edge17" class="edge">
<title>dependency7048:e&#45;&gt;choice100101118451081059811547111112101110115115108454946484650117:w</title>
<path fill="none" stroke="black" stroke-dasharray="1,5" d="M913,-195C1021.99,-195 914.18,-410.04 1007.93,-425.16"/>
<polygon fill="black" stroke="black" points="1017.79,-425.91 1007.47,-429.64 1014.01,-425.62 1007.81,-425.15 1007.81,-425.15 1007.81,-425.15 1014.01,-425.62 1008.15,-420.67 1017.79,-425.91"/>
</g>
<!-- choice118105114116117971084710912111511310845534654451144951 -->
<g id="node19" class="node">
<title>choice118105114116117971084710912111511310845534654451144951</title>
<g id="a_node19"><a xlink:href="../virtual/mysql-5.6-r13.svg" xlink:title="portage://virtual/mysql&#45;5.6&#45;r13">
<ellipse fill="none" stroke="red" cx="1164" cy="-588" rx="144" ry="18"/>
<text text-anchor="middle" x="1164" y="-584.12" font-family="Helvetica,sans-Serif" font-size="10.00">portage://virtual/mysql&#45;5.6&#45;r13</text>
</a>
</g>
</g>
<!-- dependency7049&#45;&gt;choice118105114116117971084710912111511310845534654451144951 -->
<g id="edge18" class="edge">
<title>dependency7049:e&#45;&gt;choice118105114116117971084710912111511310845534654451144951:w</title>
<path fill="none" stroke="black" stroke-dasharray="1,5" d="M913,-315C1039.22,-315 897.92,-571.72 1007.95,-587.26"/>
<polygon fill="black" stroke="black" points="1017.78,-587.92 1007.51,-591.75 1014.01,-587.67 1007.81,-587.26 1007.81,-587.26 1007.81,-587.26 1014.01,-587.67 1008.11,-582.77 1017.78,-587.92"/>
</g>
<!-- choice1181051141161179710847109121115113108455346534511450 -->
<g id="node20" class="node">
<title>choice1181051141161179710847109121115113108455346534511450</title>
<g id="a_node20"><a xlink:href="../virtual/mysql-5.5-r2.svg" xlink:title="portage://virtual/mysql&#45;5.5&#45;r2">
<ellipse fill="none" stroke="red" cx="1164" cy="-642" rx="144" ry="18"/>
<text text-anchor="middle" x="1164" y="-638.12" font-family="Helvetica,sans-Serif" font-size="10.00">portage://virtual/mysql&#45;5.5&#45;r2</text>
</a>
</g>
</g>
<!-- dependency7049&#45;&gt;choice1181051141161179710847109121115113108455346534511450 -->
<g id="edge19" class="edge">
<title>dependency7049:e&#45;&gt;choice1181051141161179710847109121115113108455346534511450:w</title>
<path fill="none" stroke="black" stroke-dasharray="1,5" d="M913,-315C1061.9,-315 876.13,-625.61 1008.03,-641.38"/>
<polygon fill="black" stroke="black" points="1017.78,-641.93 1007.54,-645.86 1014.01,-641.72 1007.8,-641.36 1007.8,-641.36 1007.8,-641.36 1014.01,-641.72 1008.05,-636.87 1017.78,-641.93"/>
</g>
<!-- choice119119119451151011141181011141154797112979910410145504652465249 -->
<g id="node21" class="node">
<title>choice119119119451151011141181011141154797112979910410145504652465249</title>
<g id="a_node21"><a xlink:href="../www-servers/apache-2.4.41.svg" xlink:title="portage://www&#45;servers/apache&#45;2.4.41">
<ellipse fill="none" stroke="red" cx="1164" cy="-696" rx="144" ry="18"/>
<text text-anchor="middle" x="1164" y="-692.12" font-family="Helvetica,sans-Serif" font-size="10.00">portage://www&#45;servers/apache&#45;2.4.41</text>
</a>
</g>
</g>
<!-- dependency7050&#45;&gt;choice119119119451151011141181011141154797112979910410145504652465249 -->
<g id="edge20" class="edge">
<title>dependency7050:e&#45;&gt;choice119119119451151011141181011141154797112979910410145504652465249:w</title>
<path fill="none" stroke="black" stroke-dasharray="1,5" d="M913,-441C1031.78,-441 904.98,-679.83 1007.93,-695.22"/>
<polygon fill="black" stroke="black" points="1017.78,-695.91 1007.49,-699.7 1014.01,-695.65 1007.81,-695.21 1007.81,-695.21 1007.81,-695.21 1014.01,-695.65 1008.12,-690.72 1017.78,-695.91"/>
</g>
<!-- dependency7052 -->
<g id="node9" class="node">
<title>dependency7052</title>
<polygon fill="none" stroke="blue" points="684,-545 684,-639 788,-639 788,-545 684,-545"/>
<text text-anchor="start" x="715" y="-588.12" font-family="Helvetica,sans-Serif" font-size="10.00">pack_dep</text>
<polygon fill="none" stroke="blue" points="788,-618 788,-639 898,-639 898,-618 788,-618"/>
<text text-anchor="start" x="837.75" y="-624.5" font-family="Helvetica,sans-Serif" font-size="10.00">no</text>
<polygon fill="none" stroke="blue" points="788,-597 788,-618 898,-618 898,-597 788,-597"/>
<text text-anchor="start" x="828.38" y="-603.5" font-family="Helvetica,sans-Serif" font-size="10.00">dev&#45;db</text>
<polygon fill="none" stroke="blue" points="788,-576 788,-597 898,-597 898,-576 788,-576"/>
<text text-anchor="start" x="831.75" y="-582.5" font-family="Helvetica,sans-Serif" font-size="10.00">libdbi</text>
<polygon fill="none" stroke="blue" points="788,-555 788,-576 898,-576 898,-555 788,-555"/>
<text text-anchor="start" x="832.5" y="-561.5" font-family="Helvetica,sans-Serif" font-size="10.00">none</text>
<polygon fill="none" stroke="blue" points="788,-545 788,-555 898,-555 898,-545 788,-545"/>
</g>
<!-- dependency7051&#45;&gt;dependency7052 -->
<g id="edge7" class="edge">
<title>dependency7051:e&#45;&gt;dependency7052:w</title>
<path fill="none" stroke="black" stroke-dasharray="5,2" d="M568,-579C612.38,-579 625.55,-589.95 664.81,-591.75"/>
<polygon fill="black" stroke="black" points="674.78,-591.97 664.68,-596.25 671,-591.89 664.78,-591.75 664.78,-591.75 664.78,-591.75 671,-591.89 664.88,-587.25 674.78,-591.97"/>
</g>
<!-- dependency7052&#45;&gt;choice1001011184510098471081059810098105454846574648 -->
<g id="edge21" class="edge">
<title>dependency7052:e&#45;&gt;choice1001011184510098471081059810098105454846574648:w</title>
<path fill="none" stroke="black" stroke-dasharray="1,5" d="M913,-592C1039.62,-592 897.56,-334.34 1007.91,-318.74"/>
<polygon fill="black" stroke="black" points="1017.78,-318.08 1008.11,-323.24 1014.01,-318.33 1007.81,-318.75 1007.81,-318.75 1007.81,-318.75 1014.01,-318.33 1007.51,-314.26 1017.78,-318.08"/>
</g>
<!-- dependency7054 -->
<g id="node11" class="node">
<title>dependency7054</title>
<polygon fill="none" stroke="blue" points="684,-665 684,-759 788,-759 788,-665 684,-665"/>
<text text-anchor="start" x="715" y="-708.12" font-family="Helvetica,sans-Serif" font-size="10.00">pack_dep</text>
<polygon fill="none" stroke="blue" points="788,-738 788,-759 898,-759 898,-738 788,-738"/>
<text text-anchor="start" x="837.75" y="-744.5" font-family="Helvetica,sans-Serif" font-size="10.00">no</text>
<polygon fill="none" stroke="blue" points="788,-717 788,-738 898,-738 898,-717 788,-717"/>
<text text-anchor="start" x="826.12" y="-723.5" font-family="Helvetica,sans-Serif" font-size="10.00">dev&#45;libs</text>
<polygon fill="none" stroke="blue" points="788,-696 788,-717 898,-717 898,-696 788,-696"/>
<text text-anchor="start" x="826.12" y="-702.5" font-family="Helvetica,sans-Serif" font-size="10.00">openssl</text>
<polygon fill="none" stroke="blue" points="788,-675 788,-696 898,-696 898,-675 788,-675"/>
<text text-anchor="start" x="832.5" y="-681.5" font-family="Helvetica,sans-Serif" font-size="10.00">none</text>
<polygon fill="none" stroke="blue" points="788,-665 788,-675 898,-675 898,-665 788,-665"/>
</g>
<!-- dependency7053&#45;&gt;dependency7054 -->
<g id="edge9" class="edge">
<title>dependency7053:e&#45;&gt;dependency7054:w</title>
<path fill="none" stroke="black" stroke-dasharray="5,2" d="M568,-680C614.15,-680 624.45,-707.2 665,-711.44"/>
<polygon fill="black" stroke="black" points="674.78,-711.94 664.57,-715.93 671.01,-711.75 664.8,-711.43 664.8,-711.43 664.8,-711.43 671.01,-711.75 665.02,-706.94 674.78,-711.94"/>
</g>
<!-- dependency7054&#45;&gt;choice100101118451081059811547111112101110115115108454946494649101 -->
<g id="edge22" class="edge">
<title>dependency7054:e&#45;&gt;choice100101118451081059811547111112101110115115108454946494649101:w</title>
<path fill="none" stroke="black" stroke-dasharray="1,5" d="M913,-712C1067.42,-712 870.78,-388.4 1008.06,-372.6"/>
<polygon fill="black" stroke="black" points="1017.78,-372.07 1008.04,-377.11 1014.01,-372.27 1007.8,-372.61 1007.8,-372.61 1007.8,-372.61 1014.01,-372.27 1007.55,-368.12 1017.78,-372.07"/>
</g>
<!-- dependency7054&#45;&gt;choice1001011184510810598115471111121011101151151084549464946491004511451 -->
<g id="edge23" class="edge">
<title>dependency7054:e&#45;&gt;choice1001011184510810598115471111121011101151151084549464946491004511451:w</title>
<path fill="none" stroke="black" stroke-dasharray="1,5" d="M913,-712C1001.12,-712 933.33,-548.97 1008.05,-534.96"/>
<polygon fill="black" stroke="black" points="1017.79,-534.11 1008.22,-539.46 1014.02,-534.44 1007.82,-534.98 1007.82,-534.98 1007.82,-534.98 1014.02,-534.44 1007.43,-530.49 1017.79,-534.11"/>
</g>
<!-- dependency7054&#45;&gt;choice100101118451081059811547111112101110115115108454946494648108 -->
<g id="edge24" class="edge">
<title>dependency7054:e&#45;&gt;choice100101118451081059811547111112101110115115108454946494648108:w</title>
<path fill="none" stroke="black" stroke-dasharray="1,5" d="M913,-712C1022.38,-712 913.84,-496.03 1007.89,-480.84"/>
<polygon fill="black" stroke="black" points="1017.79,-480.09 1008.15,-485.33 1014.01,-480.38 1007.81,-480.85 1007.81,-480.85 1007.81,-480.85 1014.01,-480.38 1007.47,-476.36 1017.79,-480.09"/>
</g>
<!-- dependency7054&#45;&gt;choice100101118451081059811547111112101110115115108454946484650117 -->
<g id="edge25" class="edge">
<title>dependency7054:e&#45;&gt;choice100101118451081059811547111112101110115115108454946484650117:w</title>
<path fill="none" stroke="black" stroke-dasharray="1,5" d="M913,-712C1044.59,-712 892.86,-442.51 1007.84,-426.72"/>
<polygon fill="black" stroke="black" points="1017.78,-426.08 1008.1,-431.22 1014.01,-426.32 1007.8,-426.72 1007.8,-426.72 1007.8,-426.72 1014.01,-426.32 1007.51,-422.23 1017.78,-426.08"/>
</g>
<!-- dependency7055&#45;&gt;choice118105114116117971084710912111511310845534654451144951 -->
<g id="edge26" class="edge">
<title>dependency7055:e&#45;&gt;choice118105114116117971084710912111511310845534654451144951:w</title>
<path fill="none" stroke="black" stroke-dasharray="1,5" d="M913,-832C1027.31,-832 909.15,-603.93 1008.03,-588.79"/>
<polygon fill="black" stroke="black" points="1017.78,-588.09 1008.13,-593.29 1014.01,-588.36 1007.81,-588.8 1007.81,-588.8 1007.81,-588.8 1014.01,-588.36 1007.49,-584.32 1017.78,-588.09"/>
</g>
<!-- dependency7055&#45;&gt;choice1181051141161179710847109121115113108455346534511450 -->
<g id="edge27" class="edge">
<title>dependency7055:e&#45;&gt;choice1181051141161179710847109121115113108455346534511450:w</title>
<path fill="none" stroke="black" stroke-dasharray="1,5" d="M913,-832C1005.73,-832 929.16,-657.27 1008.01,-642.93"/>
<polygon fill="black" stroke="black" points="1017.79,-642.1 1008.2,-647.43 1014.02,-642.42 1007.82,-642.95 1007.82,-642.95 1007.82,-642.95 1014.02,-642.42 1007.44,-638.46 1017.79,-642.1"/>
</g>
<!-- dependency7056&#45;&gt;choice119119119451151011141181011141154797112979910410145504652465249 -->
<g id="edge28" class="edge">
<title>dependency7056:e&#45;&gt;choice119119119451151011141181011141154797112979910410145504652465249:w</title>
<path fill="none" stroke="black" stroke-dasharray="1,5" d="M913,-958C1034.69,-958 902.2,-712.12 1008,-696.75"/>
<polygon fill="black" stroke="black" points="1017.78,-696.08 1008.11,-701.25 1014.01,-696.34 1007.81,-696.76 1007.81,-696.76 1007.81,-696.76 1014.01,-696.34 1007.5,-692.28 1017.78,-696.08"/>
</g>
</g>
</svg>
