<?xml version="1.0" encoding="UTF-8" standalone="no"?>
<!DOCTYPE svg PUBLIC "-//W3C//DTD SVG 1.1//EN"
 "http://www.w3.org/Graphics/SVG/1.1/DTD/svg11.dtd">
<!-- Generated by graphviz version 2.41.20171026.1811 (20171026.1811)
 -->
<!-- Title: prolog Pages: 1 -->
<svg width="1068pt" height="626pt"
 viewBox="0.00 0.00 1068.00 626.00" xmlns="http://www.w3.org/2000/svg" xmlns:xlink="http://www.w3.org/1999/xlink">
<g id="graph0" class="graph" transform="scale(1 1) rotate(0) translate(4 622)">
<title>prolog</title>
<polygon fill="white" stroke="transparent" points="-4,4 -4,-622 1064,-622 1064,4 -4,4"/>
<g id="clust1" class="cluster">
<title>cluster_leftcol</title>
<polygon fill="none" stroke="gray" points="8,-263 8,-335 312,-335 312,-263 8,-263"/>
<text text-anchor="start" x="146.66" y="-323" font-family="Helvetica,sans-Serif" font-style="italic" font-size="10.00">ebuild</text>
</g>
<g id="clust2" class="cluster">
<title>cluster_midcol</title>
<polygon fill="none" stroke="gray" points="396,-8 396,-610 664,-610 664,-8 396,-8"/>
<text text-anchor="start" x="498.88" y="-598" font-family="Helvetica,sans-Serif" font-style="italic" font-size="10.00">dependencies</text>
</g>
<g id="clust3" class="cluster">
<title>cluster_compile</title>
<polygon fill="#eeeeee" stroke="gray" points="404,-440 404,-582 656,-582 656,-440 404,-440"/>
<text text-anchor="start" x="512.78" y="-570" font-family="Helvetica,sans-Serif" font-style="italic" font-size="10.00">compile</text>
</g>
<g id="clust5" class="cluster">
<title>cluster_compileandrun</title>
<polygon fill="#eeeeee" stroke="gray" points="404,-166 404,-432 656,-432 656,-166 404,-166"/>
<text text-anchor="start" x="494.44" y="-420" font-family="Helvetica,sans-Serif" font-style="italic" font-size="10.00">compile and run</text>
</g>
<g id="clust8" class="cluster">
<title>cluster_run</title>
<polygon fill="#eeeeee" stroke="gray" points="404,-16 404,-158 656,-158 656,-16 404,-16"/>
<text text-anchor="start" x="522.78" y="-146" font-family="Helvetica,sans-Serif" font-style="italic" font-size="10.00">run</text>
</g>
<g id="clust10" class="cluster">
<title>cluster_choices</title>
<polygon fill="none" stroke="gray" points="748,-39 748,-559 1052,-559 1052,-39 748,-39"/>
<text text-anchor="start" x="875.82" y="-547" font-family="Helvetica,sans-Serif" font-style="italic" font-size="10.00">candidates</text>
</g>
<!-- id -->
<g id="node1" class="node">
<title>id</title>
<g id="a_node1"><a xlink:href="../x11-apps/setxkbmap-1.3.2.svg" xlink:title="portage://x11&#45;apps/setxkbmap&#45;1.3.2">
<ellipse fill="none" stroke="red" cx="160" cy="-289" rx="144" ry="18"/>
<text text-anchor="middle" x="160" y="-286" font-family="Helvetica,sans-Serif" font-size="10.00">portage://x11&#45;apps/setxkbmap&#45;1.3.2</text>
</a>
</g>
</g>
<!-- dependency445880 -->
<g id="node2" class="node">
<title>dependency445880</title>
<polygon fill="none" stroke="blue" points="420,-452 420,-550 525,-550 525,-452 420,-452"/>
<text text-anchor="start" x="450.82" y="-498" font-family="Helvetica,sans-Serif" font-size="10.00">pack_dep</text>
<polygon fill="none" stroke="blue" points="525,-528 525,-550 635,-550 635,-528 525,-528"/>
<text text-anchor="start" x="574.44" y="-536" font-family="Helvetica,sans-Serif" font-size="10.00">no</text>
<polygon fill="none" stroke="blue" points="525,-506 525,-528 635,-528 635,-506 525,-506"/>
<text text-anchor="start" x="559.44" y="-514" font-family="Helvetica,sans-Serif" font-size="10.00">x11&#45;base</text>
<polygon fill="none" stroke="blue" points="525,-484 525,-506 635,-506 635,-484 525,-484"/>
<text text-anchor="start" x="557.22" y="-492" font-family="Helvetica,sans-Serif" font-size="10.00">xorg&#45;proto</text>
<polygon fill="none" stroke="blue" points="525,-462 525,-484 635,-484 635,-462 525,-462"/>
<text text-anchor="start" x="568.88" y="-470" font-family="Helvetica,sans-Serif" font-size="10.00">none</text>
<polygon fill="none" stroke="blue" points="525,-452 525,-462 635,-462 635,-452 525,-452"/>
</g>
<!-- id&#45;&gt;dependency445880 -->
<g id="edge1" class="edge">
<title>id:e&#45;&gt;dependency445880:w</title>
<path fill="none" stroke="black" d="M305,-289C406.74,-289 312.57,-486.76 400.92,-500.27"/>
<polygon fill="black" stroke="black" points="411,-501 400.7,-504.77 406.01,-500.64 401.03,-500.28 401.03,-500.28 401.03,-500.28 406.01,-500.64 401.35,-495.79 411,-501 411,-501"/>
</g>
<!-- dependency445881 -->
<g id="node3" class="node">
<title>dependency445881</title>
<polygon fill="none" stroke="blue" points="420,-302 420,-400 525,-400 525,-302 420,-302"/>
<text text-anchor="start" x="450.82" y="-348" font-family="Helvetica,sans-Serif" font-size="10.00">pack_dep</text>
<polygon fill="none" stroke="blue" points="525,-378 525,-400 635,-400 635,-378 525,-378"/>
<text text-anchor="start" x="574.44" y="-386" font-family="Helvetica,sans-Serif" font-size="10.00">no</text>
<polygon fill="none" stroke="blue" points="525,-356 525,-378 635,-378 635,-356 525,-356"/>
<text text-anchor="start" x="562.78" y="-364" font-family="Helvetica,sans-Serif" font-size="10.00">x11&#45;libs</text>
<polygon fill="none" stroke="blue" points="525,-334 525,-356 635,-356 635,-334 525,-334"/>
<text text-anchor="start" x="566.11" y="-342" font-family="Helvetica,sans-Serif" font-size="10.00">libX11</text>
<polygon fill="none" stroke="blue" points="525,-312 525,-334 635,-334 635,-312 525,-312"/>
<text text-anchor="start" x="568.88" y="-320" font-family="Helvetica,sans-Serif" font-size="10.00">none</text>
<polygon fill="none" stroke="blue" points="525,-302 525,-312 635,-312 635,-302 525,-302"/>
</g>
<!-- id&#45;&gt;dependency445881 -->
<g id="edge2" class="edge">
<title>id:e&#45;&gt;dependency445881:w</title>
<path fill="none" stroke="black" d="M305,-289C352.76,-289 356.31,-336.47 393.01,-348.34"/>
<ellipse fill="none" stroke="black" cx="407.04" cy="-350.41" rx="4" ry="4"/>
<polygon fill="black" stroke="black" points="403.09,-349.83 392.53,-352.81 398.14,-349.1 393.19,-348.36 393.19,-348.36 393.19,-348.36 398.14,-349.1 393.85,-343.91 403.09,-349.83 403.09,-349.83"/>
</g>
<!-- dependency445882 -->
<g id="node4" class="node">
<title>dependency445882</title>
<polygon fill="none" stroke="blue" points="420,-178 420,-276 525,-276 525,-178 420,-178"/>
<text text-anchor="start" x="450.82" y="-224" font-family="Helvetica,sans-Serif" font-size="10.00">pack_dep</text>
<polygon fill="none" stroke="blue" points="525,-254 525,-276 635,-276 635,-254 525,-254"/>
<text text-anchor="start" x="574.44" y="-262" font-family="Helvetica,sans-Serif" font-size="10.00">no</text>
<polygon fill="none" stroke="blue" points="525,-232 525,-254 635,-254 635,-232 525,-232"/>
<text text-anchor="start" x="562.78" y="-240" font-family="Helvetica,sans-Serif" font-size="10.00">x11&#45;libs</text>
<polygon fill="none" stroke="blue" points="525,-210 525,-232 635,-232 635,-210 525,-210"/>
<text text-anchor="start" x="560.83" y="-218" font-family="Helvetica,sans-Serif" font-size="10.00">libxkbfile</text>
<polygon fill="none" stroke="blue" points="525,-188 525,-210 635,-210 635,-188 525,-188"/>
<text text-anchor="start" x="568.88" y="-196" font-family="Helvetica,sans-Serif" font-size="10.00">none</text>
<polygon fill="none" stroke="blue" points="525,-178 525,-188 635,-188 635,-178 525,-178"/>
</g>
<!-- id&#45;&gt;dependency445882 -->
<g id="edge3" class="edge">
<title>id:e&#45;&gt;dependency445882:w</title>
<path fill="none" stroke="black" d="M305,-289C352.76,-289 356.31,-241.53 393.01,-229.66"/>
<ellipse fill="none" stroke="black" cx="407.04" cy="-227.59" rx="4" ry="4"/>
<polygon fill="black" stroke="black" points="403.09,-228.17 393.85,-234.09 398.14,-228.9 393.19,-229.64 393.19,-229.64 393.19,-229.64 398.14,-228.9 392.53,-225.19 403.09,-228.17 403.09,-228.17"/>
</g>
<!-- dependency445883 -->
<g id="node5" class="node">
<title>dependency445883</title>
<polygon fill="none" stroke="blue" points="420,-28 420,-126 525,-126 525,-28 420,-28"/>
<text text-anchor="start" x="450.82" y="-74" font-family="Helvetica,sans-Serif" font-size="10.00">pack_dep</text>
<polygon fill="none" stroke="blue" points="525,-104 525,-126 635,-126 635,-104 525,-104"/>
<text text-anchor="start" x="574.44" y="-112" font-family="Helvetica,sans-Serif" font-size="10.00">no</text>
<polygon fill="none" stroke="blue" points="525,-82 525,-104 635,-104 635,-82 525,-82"/>
<text text-anchor="start" x="560" y="-90" font-family="Helvetica,sans-Serif" font-size="10.00">x11&#45;misc</text>
<polygon fill="none" stroke="blue" points="525,-60 525,-82 635,-82 635,-60 525,-60"/>
<text text-anchor="start" x="541.94" y="-68" font-family="Helvetica,sans-Serif" font-size="10.00">xkeyboard&#45;config</text>
<polygon fill="none" stroke="blue" points="525,-38 525,-60 635,-60 635,-38 525,-38"/>
<text text-anchor="start" x="568.88" y="-46" font-family="Helvetica,sans-Serif" font-size="10.00">none</text>
<polygon fill="none" stroke="blue" points="525,-28 525,-38 635,-38 635,-28 525,-28"/>
</g>
<!-- id&#45;&gt;dependency445883 -->
<g id="edge4" class="edge">
<title>id:e&#45;&gt;dependency445883:w</title>
<path fill="none" stroke="black" d="M305,-289C407.46,-289 311.22,-88.44 402.82,-77.47"/>
<ellipse fill="none" stroke="black" cx="407.01" cy="-77.23" rx="4" ry="4"/>
</g>
<!-- choiceportage1204949459897115101471201111141034511211411111611145504849574649 -->
<g id="node6" class="node">
<title>choiceportage1204949459897115101471201111141034511211411111611145504849574649</title>
<g id="a_node6"><a xlink:href="../x11-base/xorg-proto-2019.1.svg" xlink:title="portage://x11&#45;base/xorg&#45;proto&#45;2019.1">
<ellipse fill="none" stroke="red" cx="900" cy="-513" rx="144" ry="18"/>
<text text-anchor="middle" x="900" y="-510" font-family="Helvetica,sans-Serif" font-size="10.00">portage://x11&#45;base/xorg&#45;proto&#45;2019.1</text>
</a>
</g>
</g>
<!-- dependency445880&#45;&gt;choiceportage1204949459897115101471201111141034511211411111611145504849574649 -->
<g id="edge5" class="edge">
<title>dependency445880:e&#45;&gt;choiceportage1204949459897115101471201111141034511211411111611145504849574649:w</title>
<path fill="none" stroke="black" stroke-dasharray="1,5" d="M649,-501C692.71,-501 705.62,-511.2 744.52,-512.79"/>
<polygon fill="black" stroke="black" points="755,-513 744.91,-517.3 750,-512.9 745,-512.8 745,-512.8 745,-512.8 750,-512.9 745.09,-508.3 755,-513 755,-513"/>
</g>
<!-- choiceportage1204949459897115101471201111141034511211411111611145504849574650 -->
<g id="node7" class="node">
<title>choiceportage1204949459897115101471201111141034511211411111611145504849574650</title>
<g id="a_node7"><a xlink:href="../x11-base/xorg-proto-2019.2.svg" xlink:title="portage://x11&#45;base/xorg&#45;proto&#45;2019.2">
<ellipse fill="none" stroke="red" cx="900" cy="-459" rx="144" ry="18"/>
<text text-anchor="middle" x="900" y="-456" font-family="Helvetica,sans-Serif" font-size="10.00">portage://x11&#45;base/xorg&#45;proto&#45;2019.2</text>
</a>
</g>
</g>
<!-- dependency445880&#45;&gt;choiceportage1204949459897115101471201111141034511211411111611145504849574650 -->
<g id="edge6" class="edge">
<title>dependency445880:e&#45;&gt;choiceportage1204949459897115101471201111141034511211411111611145504849574650:w</title>
<path fill="none" stroke="black" stroke-dasharray="1,5" d="M649,-501C696.11,-501 703.44,-464.7 744.96,-459.59"/>
<polygon fill="black" stroke="black" points="755,-459 745.28,-464.08 750.01,-459.3 745.02,-459.59 745.02,-459.59 745.02,-459.59 750.01,-459.3 744.75,-455.1 755,-459 755,-459"/>
</g>
<!-- choiceportage120494945989711510147120111114103451121141111161114557575757 -->
<g id="node8" class="node">
<title>choiceportage120494945989711510147120111114103451121141111161114557575757</title>
<g id="a_node8"><a xlink:href="../x11-base/xorg-proto-9999.svg" xlink:title="portage://x11&#45;base/xorg&#45;proto&#45;9999">
<ellipse fill="none" stroke="red" cx="900" cy="-405" rx="144" ry="18"/>
<text text-anchor="middle" x="900" y="-402" font-family="Helvetica,sans-Serif" font-size="10.00">portage://x11&#45;base/xorg&#45;proto&#45;9999</text>
</a>
</g>
</g>
<!-- dependency445880&#45;&gt;choiceportage120494945989711510147120111114103451121141111161114557575757 -->
<g id="edge7" class="edge">
<title>dependency445880:e&#45;&gt;choiceportage120494945989711510147120111114103451121141111161114557575757:w</title>
<path fill="none" stroke="black" stroke-dasharray="1,5" d="M649,-501C708.96,-501 693.56,-415.57 744.98,-405.89"/>
<polygon fill="black" stroke="black" points="755,-405 745.44,-410.37 750.02,-405.44 745.04,-405.88 745.04,-405.88 745.04,-405.88 750.02,-405.44 744.64,-401.4 755,-405 755,-405"/>
</g>
<!-- choiceportage120494945108105981154710810598884949454946544656 -->
<g id="node9" class="node">
<title>choiceportage120494945108105981154710810598884949454946544656</title>
<g id="a_node9"><a xlink:href="../x11-libs/libX11-1.6.8.svg" xlink:title="portage://x11&#45;libs/libX11&#45;1.6.8">
<ellipse fill="none" stroke="red" cx="900" cy="-351" rx="144" ry="18"/>
<text text-anchor="middle" x="900" y="-348" font-family="Helvetica,sans-Serif" font-size="10.00">portage://x11&#45;libs/libX11&#45;1.6.8</text>
</a>
</g>
</g>
<!-- dependency445881&#45;&gt;choiceportage120494945108105981154710810598884949454946544656 -->
<g id="edge8" class="edge">
<title>dependency445881:e&#45;&gt;choiceportage120494945108105981154710810598884949454946544656:w</title>
<path fill="none" stroke="black" stroke-dasharray="1,5" d="M649,-351C692.43,-351 705.83,-351 744.57,-351"/>
<polygon fill="black" stroke="black" points="755,-351 745,-355.5 750,-351 745,-351 745,-351 745,-351 750,-351 745,-346.5 755,-351 755,-351"/>
</g>
<!-- choiceportage120494945108105981154710810598884949454946544657 -->
<g id="node10" class="node">
<title>choiceportage120494945108105981154710810598884949454946544657</title>
<g id="a_node10"><a xlink:href="../x11-libs/libX11-1.6.9.svg" xlink:title="portage://x11&#45;libs/libX11&#45;1.6.9">
<ellipse fill="none" stroke="red" cx="900" cy="-297" rx="144" ry="18"/>
<text text-anchor="middle" x="900" y="-294" font-family="Helvetica,sans-Serif" font-size="10.00">portage://x11&#45;libs/libX11&#45;1.6.9</text>
</a>
</g>
</g>
<!-- dependency445881&#45;&gt;choiceportage120494945108105981154710810598884949454946544657 -->
<g id="edge9" class="edge">
<title>dependency445881:e&#45;&gt;choiceportage120494945108105981154710810598884949454946544657:w</title>
<path fill="none" stroke="black" stroke-dasharray="1,5" d="M649,-351C698.26,-351 701.85,-304.13 744.86,-297.72"/>
<polygon fill="black" stroke="black" points="755,-297 745.35,-302.2 750.01,-297.36 745.03,-297.71 745.03,-297.71 745.03,-297.71 750.01,-297.36 744.71,-293.22 755,-297 755,-297"/>
</g>
<!-- choiceportage12049494510810598115471081059812010798102105108101454946494648 -->
<g id="node11" class="node">
<title>choiceportage12049494510810598115471081059812010798102105108101454946494648</title>
<g id="a_node11"><a xlink:href="../x11-libs/libxkbfile-1.1.0.svg" xlink:title="portage://x11&#45;libs/libxkbfile&#45;1.1.0">
<ellipse fill="none" stroke="red" cx="900" cy="-227" rx="144" ry="18"/>
<text text-anchor="middle" x="900" y="-224" font-family="Helvetica,sans-Serif" font-size="10.00">portage://x11&#45;libs/libxkbfile&#45;1.1.0</text>
</a>
</g>
</g>
<!-- dependency445882&#45;&gt;choiceportage12049494510810598115471081059812010798102105108101454946494648 -->
<g id="edge10" class="edge">
<title>dependency445882:e&#45;&gt;choiceportage12049494510810598115471081059812010798102105108101454946494648:w</title>
<path fill="none" stroke="black" stroke-dasharray="1,5" d="M649,-227C692.43,-227 705.83,-227 744.57,-227"/>
<polygon fill="black" stroke="black" points="755,-227 745,-231.5 750,-227 745,-227 745,-227 745,-227 750,-227 745,-222.5 755,-227 755,-227"/>
</g>
<!-- choiceportage1204949451091051159947120107101121981119711410045991111101021051034550465055 -->
<g id="node12" class="node">
<title>choiceportage1204949451091051159947120107101121981119711410045991111101021051034550465055</title>
<g id="a_node12"><a xlink:href="../x11-misc/xkeyboard-config-2.27.svg" xlink:title="portage://x11&#45;misc/xkeyboard&#45;config&#45;2.27">
<ellipse fill="none" stroke="red" cx="900" cy="-173" rx="144" ry="18"/>
<text text-anchor="middle" x="900" y="-170" font-family="Helvetica,sans-Serif" font-size="10.00">portage://x11&#45;misc/xkeyboard&#45;config&#45;2.27</text>
</a>
</g>
</g>
<!-- dependency445883&#45;&gt;choiceportage1204949451091051159947120107101121981119711410045991111101021051034550465055 -->
<g id="edge11" class="edge">
<title>dependency445883:e&#45;&gt;choiceportage1204949451091051159947120107101121981119711410045991111101021051034550465055:w</title>
<path fill="none" stroke="black" stroke-dasharray="1,5" d="M649,-77C708.96,-77 693.56,-162.43 744.98,-172.11"/>
<polygon fill="black" stroke="black" points="755,-173 744.64,-176.6 750.02,-172.56 745.04,-172.12 745.04,-172.12 745.04,-172.12 750.02,-172.56 745.44,-167.63 755,-173 755,-173"/>
</g>
<!-- choiceportage1204949451091051159947120107101121981119711410045991111101021051034550465056 -->
<g id="node13" class="node">
<title>choiceportage1204949451091051159947120107101121981119711410045991111101021051034550465056</title>
<g id="a_node13"><a xlink:href="../x11-misc/xkeyboard-config-2.28.svg" xlink:title="portage://x11&#45;misc/xkeyboard&#45;config&#45;2.28">
<ellipse fill="none" stroke="red" cx="900" cy="-119" rx="144" ry="18"/>
<text text-anchor="middle" x="900" y="-116" font-family="Helvetica,sans-Serif" font-size="10.00">portage://x11&#45;misc/xkeyboard&#45;config&#45;2.28</text>
</a>
</g>
</g>
<!-- dependency445883&#45;&gt;choiceportage1204949451091051159947120107101121981119711410045991111101021051034550465056 -->
<g id="edge12" class="edge">
<title>dependency445883:e&#45;&gt;choiceportage1204949451091051159947120107101121981119711410045991111101021051034550465056:w</title>
<path fill="none" stroke="black" stroke-dasharray="1,5" d="M649,-77C696.11,-77 703.44,-113.3 744.96,-118.41"/>
<polygon fill="black" stroke="black" points="755,-119 744.75,-122.9 750.01,-118.7 745.02,-118.41 745.02,-118.41 745.02,-118.41 750.01,-118.7 745.28,-113.92 755,-119 755,-119"/>
</g>
<!-- choiceportage1204949451091051159947120107101121981119711410045991111101021051034557575757 -->
<g id="node14" class="node">
<title>choiceportage1204949451091051159947120107101121981119711410045991111101021051034557575757</title>
<g id="a_node14"><a xlink:href="../x11-misc/xkeyboard-config-9999.svg" xlink:title="portage://x11&#45;misc/xkeyboard&#45;config&#45;9999">
<ellipse fill="none" stroke="red" cx="900" cy="-65" rx="144" ry="18"/>
<text text-anchor="middle" x="900" y="-62" font-family="Helvetica,sans-Serif" font-size="10.00">portage://x11&#45;misc/xkeyboard&#45;config&#45;9999</text>
</a>
</g>
</g>
<!-- dependency445883&#45;&gt;choiceportage1204949451091051159947120107101121981119711410045991111101021051034557575757 -->
<g id="edge13" class="edge">
<title>dependency445883:e&#45;&gt;choiceportage1204949451091051159947120107101121981119711410045991111101021051034557575757:w</title>
<path fill="none" stroke="black" stroke-dasharray="1,5" d="M649,-77C692.71,-77 705.62,-66.8 744.52,-65.21"/>
<polygon fill="black" stroke="black" points="755,-65 745.09,-69.7 750,-65.1 745,-65.2 745,-65.2 745,-65.2 750,-65.1 744.91,-60.7 755,-65 755,-65"/>
</g>
</g>
</svg>
