<?xml version="1.0" encoding="UTF-8" standalone="no"?>
<!DOCTYPE svg PUBLIC "-//W3C//DTD SVG 1.1//EN"
 "http://www.w3.org/Graphics/SVG/1.1/DTD/svg11.dtd">
<!-- Generated by graphviz version 2.41.20171026.1811 (20171026.1811)
 -->
<!-- Title: prolog Pages: 1 -->
<svg width="1068pt" height="1070pt"
 viewBox="0.00 0.00 1068.00 1070.00" xmlns="http://www.w3.org/2000/svg" xmlns:xlink="http://www.w3.org/1999/xlink">
<g id="graph0" class="graph" transform="scale(1 1) rotate(0) translate(4 1066)">
<title>prolog</title>
<polygon fill="white" stroke="transparent" points="-4,4 -4,-1066 1064,-1066 1064,4 -4,4"/>
<g id="clust1" class="cluster">
<title>cluster_leftcol</title>
<polygon fill="none" stroke="gray" points="8,-485 8,-557 312,-557 312,-485 8,-485"/>
<text text-anchor="start" x="146.66" y="-545" font-family="Helvetica,sans-Serif" font-style="italic" font-size="10.00">ebuild</text>
</g>
<g id="clust2" class="cluster">
<title>cluster_midcol</title>
<polygon fill="none" stroke="gray" points="396,-8 396,-1054 664,-1054 664,-8 396,-8"/>
<text text-anchor="start" x="498.88" y="-1042" font-family="Helvetica,sans-Serif" font-style="italic" font-size="10.00">dependencies</text>
</g>
<g id="clust4" class="cluster">
<title>cluster_compileandrun</title>
<polygon fill="#eeeeee" stroke="gray" points="404,-16 404,-1026 656,-1026 656,-16 404,-16"/>
<text text-anchor="start" x="494.44" y="-1014" font-family="Helvetica,sans-Serif" font-style="italic" font-size="10.00">compile and run</text>
</g>
<g id="clust14" class="cluster">
<title>cluster_choices</title>
<polygon fill="none" stroke="gray" points="748,-121 748,-921 1052,-921 1052,-121 748,-121"/>
<text text-anchor="start" x="875.82" y="-909" font-family="Helvetica,sans-Serif" font-style="italic" font-size="10.00">candidates</text>
</g>
<!-- id -->
<g id="node1" class="node">
<title>id</title>
<g id="a_node1"><a xlink:href="../x11-apps/xlogo-1.0.5.svg" xlink:title="portage://x11&#45;apps/xlogo&#45;1.0.5">
<ellipse fill="none" stroke="red" cx="160" cy="-511" rx="144" ry="18"/>
<text text-anchor="middle" x="160" y="-508" font-family="Helvetica,sans-Serif" font-size="10.00">portage://x11&#45;apps/xlogo&#45;1.0.5</text>
</a>
</g>
</g>
<!-- dependency446661 -->
<g id="node2" class="node">
<title>dependency446661</title>
<polygon fill="none" stroke="blue" points="420,-896 420,-994 525,-994 525,-896 420,-896"/>
<text text-anchor="start" x="450.82" y="-942" font-family="Helvetica,sans-Serif" font-size="10.00">pack_dep</text>
<polygon fill="none" stroke="blue" points="525,-972 525,-994 635,-994 635,-972 525,-972"/>
<text text-anchor="start" x="574.44" y="-980" font-family="Helvetica,sans-Serif" font-size="10.00">no</text>
<polygon fill="none" stroke="blue" points="525,-950 525,-972 635,-972 635,-950 525,-950"/>
<text text-anchor="start" x="562.78" y="-958" font-family="Helvetica,sans-Serif" font-size="10.00">x11&#45;libs</text>
<polygon fill="none" stroke="blue" points="525,-928 525,-950 635,-950 635,-928 525,-928"/>
<text text-anchor="start" x="567.5" y="-936" font-family="Helvetica,sans-Serif" font-size="10.00">libSM</text>
<polygon fill="none" stroke="blue" points="525,-906 525,-928 635,-928 635,-906 525,-906"/>
<text text-anchor="start" x="568.88" y="-914" font-family="Helvetica,sans-Serif" font-size="10.00">none</text>
<polygon fill="none" stroke="blue" points="525,-896 525,-906 635,-906 635,-896 525,-896"/>
</g>
<!-- id&#45;&gt;dependency446661 -->
<g id="edge1" class="edge">
<title>id:e&#45;&gt;dependency446661:w</title>
<path fill="none" stroke="black" d="M305,-511C496.97,-511 231.23,-916.66 392.81,-943.6"/>
<ellipse fill="none" stroke="black" cx="407.01" cy="-944.69" rx="4" ry="4"/>
<polygon fill="black" stroke="black" points="403.02,-944.38 392.71,-948.1 398.04,-944 393.05,-943.62 393.05,-943.62 393.05,-943.62 398.04,-944 393.4,-939.13 403.02,-944.38 403.02,-944.38"/>
</g>
<!-- dependency446662 -->
<g id="node3" class="node">
<title>dependency446662</title>
<polygon fill="none" stroke="blue" points="420,-772 420,-870 525,-870 525,-772 420,-772"/>
<text text-anchor="start" x="450.82" y="-818" font-family="Helvetica,sans-Serif" font-size="10.00">pack_dep</text>
<polygon fill="none" stroke="blue" points="525,-848 525,-870 635,-870 635,-848 525,-848"/>
<text text-anchor="start" x="574.44" y="-856" font-family="Helvetica,sans-Serif" font-size="10.00">no</text>
<polygon fill="none" stroke="blue" points="525,-826 525,-848 635,-848 635,-826 525,-826"/>
<text text-anchor="start" x="562.78" y="-834" font-family="Helvetica,sans-Serif" font-size="10.00">x11&#45;libs</text>
<polygon fill="none" stroke="blue" points="525,-804 525,-826 635,-826 635,-804 525,-804"/>
<text text-anchor="start" x="566.11" y="-812" font-family="Helvetica,sans-Serif" font-size="10.00">libX11</text>
<polygon fill="none" stroke="blue" points="525,-782 525,-804 635,-804 635,-782 525,-782"/>
<text text-anchor="start" x="568.88" y="-790" font-family="Helvetica,sans-Serif" font-size="10.00">none</text>
<polygon fill="none" stroke="blue" points="525,-772 525,-782 635,-782 635,-772 525,-772"/>
</g>
<!-- id&#45;&gt;dependency446662 -->
<g id="edge2" class="edge">
<title>id:e&#45;&gt;dependency446662:w</title>
<path fill="none" stroke="black" d="M305,-511C443.93,-511 281.7,-793.2 392.98,-819.1"/>
<ellipse fill="none" stroke="black" cx="407.02" cy="-820.58" rx="4" ry="4"/>
<polygon fill="black" stroke="black" points="403.04,-820.16 392.63,-823.59 398.07,-819.64 393.1,-819.11 393.1,-819.11 393.1,-819.11 398.07,-819.64 393.57,-814.64 403.04,-820.16 403.04,-820.16"/>
</g>
<!-- dependency446663 -->
<g id="node4" class="node">
<title>dependency446663</title>
<polygon fill="none" stroke="blue" points="420,-648 420,-746 525,-746 525,-648 420,-648"/>
<text text-anchor="start" x="450.82" y="-694" font-family="Helvetica,sans-Serif" font-size="10.00">pack_dep</text>
<polygon fill="none" stroke="blue" points="525,-724 525,-746 635,-746 635,-724 525,-724"/>
<text text-anchor="start" x="574.44" y="-732" font-family="Helvetica,sans-Serif" font-size="10.00">no</text>
<polygon fill="none" stroke="blue" points="525,-702 525,-724 635,-724 635,-702 525,-702"/>
<text text-anchor="start" x="562.78" y="-710" font-family="Helvetica,sans-Serif" font-size="10.00">x11&#45;libs</text>
<polygon fill="none" stroke="blue" points="525,-680 525,-702 635,-702 635,-680 525,-680"/>
<text text-anchor="start" x="565.28" y="-688" font-family="Helvetica,sans-Serif" font-size="10.00">libXaw</text>
<polygon fill="none" stroke="blue" points="525,-658 525,-680 635,-680 635,-658 525,-658"/>
<text text-anchor="start" x="568.88" y="-666" font-family="Helvetica,sans-Serif" font-size="10.00">none</text>
<polygon fill="none" stroke="blue" points="525,-648 525,-658 635,-658 635,-648 525,-648"/>
</g>
<!-- id&#45;&gt;dependency446663 -->
<g id="edge3" class="edge">
<title>id:e&#45;&gt;dependency446663:w</title>
<path fill="none" stroke="black" d="M305,-511C393.27,-511 327.1,-671.09 393.05,-694.23"/>
<ellipse fill="none" stroke="black" cx="407.05" cy="-696.39" rx="4" ry="4"/>
<polygon fill="black" stroke="black" points="403.09,-695.78 392.52,-698.7 398.15,-695.01 393.21,-694.25 393.21,-694.25 393.21,-694.25 398.15,-695.01 393.9,-689.8 403.09,-695.78 403.09,-695.78"/>
</g>
<!-- dependency446664 -->
<g id="node5" class="node">
<title>dependency446664</title>
<polygon fill="none" stroke="blue" points="420,-524 420,-622 525,-622 525,-524 420,-524"/>
<text text-anchor="start" x="450.82" y="-570" font-family="Helvetica,sans-Serif" font-size="10.00">pack_dep</text>
<polygon fill="none" stroke="blue" points="525,-600 525,-622 635,-622 635,-600 525,-600"/>
<text text-anchor="start" x="574.44" y="-608" font-family="Helvetica,sans-Serif" font-size="10.00">no</text>
<polygon fill="none" stroke="blue" points="525,-578 525,-600 635,-600 635,-578 525,-578"/>
<text text-anchor="start" x="562.78" y="-586" font-family="Helvetica,sans-Serif" font-size="10.00">x11&#45;libs</text>
<polygon fill="none" stroke="blue" points="525,-556 525,-578 635,-578 635,-556 525,-556"/>
<text text-anchor="start" x="565" y="-564" font-family="Helvetica,sans-Serif" font-size="10.00">libXext</text>
<polygon fill="none" stroke="blue" points="525,-534 525,-556 635,-556 635,-534 525,-534"/>
<text text-anchor="start" x="568.88" y="-542" font-family="Helvetica,sans-Serif" font-size="10.00">none</text>
<polygon fill="none" stroke="blue" points="525,-524 525,-534 635,-534 635,-524 525,-524"/>
</g>
<!-- id&#45;&gt;dependency446664 -->
<g id="edge4" class="edge">
<title>id:e&#45;&gt;dependency446664:w</title>
<path fill="none" stroke="black" d="M305,-511C352.76,-511 356.31,-558.47 393.01,-570.34"/>
<ellipse fill="none" stroke="black" cx="407.04" cy="-572.41" rx="4" ry="4"/>
<polygon fill="black" stroke="black" points="403.09,-571.83 392.53,-574.81 398.14,-571.1 393.19,-570.36 393.19,-570.36 393.19,-570.36 398.14,-571.1 393.85,-565.91 403.09,-571.83 403.09,-571.83"/>
</g>
<!-- dependency446665 -->
<g id="node6" class="node">
<title>dependency446665</title>
<polygon fill="none" stroke="blue" points="420,-400 420,-498 525,-498 525,-400 420,-400"/>
<text text-anchor="start" x="450.82" y="-446" font-family="Helvetica,sans-Serif" font-size="10.00">pack_dep</text>
<polygon fill="none" stroke="blue" points="525,-476 525,-498 635,-498 635,-476 525,-476"/>
<text text-anchor="start" x="574.44" y="-484" font-family="Helvetica,sans-Serif" font-size="10.00">no</text>
<polygon fill="none" stroke="blue" points="525,-454 525,-476 635,-476 635,-454 525,-454"/>
<text text-anchor="start" x="562.78" y="-462" font-family="Helvetica,sans-Serif" font-size="10.00">x11&#45;libs</text>
<polygon fill="none" stroke="blue" points="525,-432 525,-454 635,-454 635,-432 525,-432"/>
<text text-anchor="start" x="568.89" y="-440" font-family="Helvetica,sans-Serif" font-size="10.00">libXft</text>
<polygon fill="none" stroke="blue" points="525,-410 525,-432 635,-432 635,-410 525,-410"/>
<text text-anchor="start" x="568.88" y="-418" font-family="Helvetica,sans-Serif" font-size="10.00">none</text>
<polygon fill="none" stroke="blue" points="525,-400 525,-410 635,-410 635,-400 525,-400"/>
</g>
<!-- id&#45;&gt;dependency446665 -->
<g id="edge5" class="edge">
<title>id:e&#45;&gt;dependency446665:w</title>
<path fill="none" stroke="black" d="M305,-511C352.76,-511 356.31,-463.53 393.01,-451.66"/>
<ellipse fill="none" stroke="black" cx="407.04" cy="-449.59" rx="4" ry="4"/>
<polygon fill="black" stroke="black" points="403.09,-450.17 393.85,-456.09 398.14,-450.9 393.19,-451.64 393.19,-451.64 393.19,-451.64 398.14,-450.9 392.53,-447.19 403.09,-450.17 403.09,-450.17"/>
</g>
<!-- dependency446666 -->
<g id="node7" class="node">
<title>dependency446666</title>
<polygon fill="none" stroke="blue" points="420,-276 420,-374 525,-374 525,-276 420,-276"/>
<text text-anchor="start" x="450.82" y="-322" font-family="Helvetica,sans-Serif" font-size="10.00">pack_dep</text>
<polygon fill="none" stroke="blue" points="525,-352 525,-374 635,-374 635,-352 525,-352"/>
<text text-anchor="start" x="574.44" y="-360" font-family="Helvetica,sans-Serif" font-size="10.00">no</text>
<polygon fill="none" stroke="blue" points="525,-330 525,-352 635,-352 635,-330 525,-330"/>
<text text-anchor="start" x="562.78" y="-338" font-family="Helvetica,sans-Serif" font-size="10.00">x11&#45;libs</text>
<polygon fill="none" stroke="blue" points="525,-308 525,-330 635,-330 635,-308 525,-308"/>
<text text-anchor="start" x="564.72" y="-316" font-family="Helvetica,sans-Serif" font-size="10.00">libXmu</text>
<polygon fill="none" stroke="blue" points="525,-286 525,-308 635,-308 635,-286 525,-286"/>
<text text-anchor="start" x="568.88" y="-294" font-family="Helvetica,sans-Serif" font-size="10.00">none</text>
<polygon fill="none" stroke="blue" points="525,-276 525,-286 635,-286 635,-276 525,-276"/>
</g>
<!-- id&#45;&gt;dependency446666 -->
<g id="edge6" class="edge">
<title>id:e&#45;&gt;dependency446666:w</title>
<path fill="none" stroke="black" d="M305,-511C393.27,-511 327.1,-350.91 393.05,-327.77"/>
<ellipse fill="none" stroke="black" cx="407.05" cy="-325.61" rx="4" ry="4"/>
<polygon fill="black" stroke="black" points="403.09,-326.22 393.9,-332.2 398.15,-326.99 393.21,-327.75 393.21,-327.75 393.21,-327.75 398.15,-326.99 392.52,-323.3 403.09,-326.22 403.09,-326.22"/>
</g>
<!-- dependency446667 -->
<g id="node8" class="node">
<title>dependency446667</title>
<polygon fill="none" stroke="blue" points="420,-152 420,-250 525,-250 525,-152 420,-152"/>
<text text-anchor="start" x="450.82" y="-198" font-family="Helvetica,sans-Serif" font-size="10.00">pack_dep</text>
<polygon fill="none" stroke="blue" points="525,-228 525,-250 635,-250 635,-228 525,-228"/>
<text text-anchor="start" x="574.44" y="-236" font-family="Helvetica,sans-Serif" font-size="10.00">no</text>
<polygon fill="none" stroke="blue" points="525,-206 525,-228 635,-228 635,-206 525,-206"/>
<text text-anchor="start" x="562.78" y="-214" font-family="Helvetica,sans-Serif" font-size="10.00">x11&#45;libs</text>
<polygon fill="none" stroke="blue" points="525,-184 525,-206 635,-206 635,-184 525,-184"/>
<text text-anchor="start" x="557.22" y="-192" font-family="Helvetica,sans-Serif" font-size="10.00">libXrender</text>
<polygon fill="none" stroke="blue" points="525,-162 525,-184 635,-184 635,-162 525,-162"/>
<text text-anchor="start" x="568.88" y="-170" font-family="Helvetica,sans-Serif" font-size="10.00">none</text>
<polygon fill="none" stroke="blue" points="525,-152 525,-162 635,-162 635,-152 525,-152"/>
</g>
<!-- id&#45;&gt;dependency446667 -->
<g id="edge7" class="edge">
<title>id:e&#45;&gt;dependency446667:w</title>
<path fill="none" stroke="black" d="M305,-511C443.93,-511 281.7,-228.8 392.98,-202.9"/>
<ellipse fill="none" stroke="black" cx="407.02" cy="-201.42" rx="4" ry="4"/>
<polygon fill="black" stroke="black" points="403.04,-201.84 393.57,-207.36 398.07,-202.36 393.1,-202.89 393.1,-202.89 393.1,-202.89 398.07,-202.36 392.63,-198.41 403.04,-201.84 403.04,-201.84"/>
</g>
<!-- dependency446668 -->
<g id="node9" class="node">
<title>dependency446668</title>
<polygon fill="none" stroke="blue" points="420,-28 420,-126 525,-126 525,-28 420,-28"/>
<text text-anchor="start" x="450.82" y="-74" font-family="Helvetica,sans-Serif" font-size="10.00">pack_dep</text>
<polygon fill="none" stroke="blue" points="525,-104 525,-126 635,-126 635,-104 525,-104"/>
<text text-anchor="start" x="574.44" y="-112" font-family="Helvetica,sans-Serif" font-size="10.00">no</text>
<polygon fill="none" stroke="blue" points="525,-82 525,-104 635,-104 635,-82 525,-82"/>
<text text-anchor="start" x="562.78" y="-90" font-family="Helvetica,sans-Serif" font-size="10.00">x11&#45;libs</text>
<polygon fill="none" stroke="blue" points="525,-60 525,-82 635,-82 635,-60 525,-60"/>
<text text-anchor="start" x="570.28" y="-68" font-family="Helvetica,sans-Serif" font-size="10.00">libXt</text>
<polygon fill="none" stroke="blue" points="525,-38 525,-60 635,-60 635,-38 525,-38"/>
<text text-anchor="start" x="568.88" y="-46" font-family="Helvetica,sans-Serif" font-size="10.00">none</text>
<polygon fill="none" stroke="blue" points="525,-28 525,-38 635,-38 635,-28 525,-28"/>
</g>
<!-- id&#45;&gt;dependency446668 -->
<g id="edge8" class="edge">
<title>id:e&#45;&gt;dependency446668:w</title>
<path fill="none" stroke="black" d="M305,-511C496.97,-511 231.23,-105.34 392.81,-78.4"/>
<ellipse fill="none" stroke="black" cx="407.01" cy="-77.31" rx="4" ry="4"/>
<polygon fill="black" stroke="black" points="403.02,-77.62 393.4,-82.87 398.04,-78 393.05,-78.38 393.05,-78.38 393.05,-78.38 398.04,-78 392.71,-73.9 403.02,-77.62 403.02,-77.62"/>
</g>
<!-- choiceportage1204949451081059811547108105988377454946504651 -->
<g id="node10" class="node">
<title>choiceportage1204949451081059811547108105988377454946504651</title>
<g id="a_node10"><a xlink:href="../x11-libs/libSM-1.2.3.svg" xlink:title="portage://x11&#45;libs/libSM&#45;1.2.3">
<ellipse fill="none" stroke="red" cx="900" cy="-875" rx="144" ry="18"/>
<text text-anchor="middle" x="900" y="-872" font-family="Helvetica,sans-Serif" font-size="10.00">portage://x11&#45;libs/libSM&#45;1.2.3</text>
</a>
</g>
</g>
<!-- dependency446661&#45;&gt;choiceportage1204949451081059811547108105988377454946504651 -->
<g id="edge9" class="edge">
<title>dependency446661:e&#45;&gt;choiceportage1204949451081059811547108105988377454946504651:w</title>
<path fill="none" stroke="black" stroke-dasharray="1,5" d="M649,-945C701.82,-945 699.17,-883.73 744.84,-875.83"/>
<polygon fill="black" stroke="black" points="755,-875 745.4,-880.3 750.02,-875.41 745.03,-875.82 745.03,-875.82 745.03,-875.82 750.02,-875.41 744.67,-871.33 755,-875 755,-875"/>
</g>
<!-- choiceportage120494945108105981154710810598884949454946544656 -->
<g id="node11" class="node">
<title>choiceportage120494945108105981154710810598884949454946544656</title>
<g id="a_node11"><a xlink:href="../x11-libs/libX11-1.6.8.svg" xlink:title="portage://x11&#45;libs/libX11&#45;1.6.8">
<ellipse fill="none" stroke="red" cx="900" cy="-821" rx="144" ry="18"/>
<text text-anchor="middle" x="900" y="-818" font-family="Helvetica,sans-Serif" font-size="10.00">portage://x11&#45;libs/libX11&#45;1.6.8</text>
</a>
</g>
</g>
<!-- dependency446662&#45;&gt;choiceportage120494945108105981154710810598884949454946544656 -->
<g id="edge10" class="edge">
<title>dependency446662:e&#45;&gt;choiceportage120494945108105981154710810598884949454946544656:w</title>
<path fill="none" stroke="black" stroke-dasharray="1,5" d="M649,-821C692.43,-821 705.83,-821 744.57,-821"/>
<polygon fill="black" stroke="black" points="755,-821 745,-825.5 750,-821 745,-821 745,-821 745,-821 750,-821 745,-816.5 755,-821 755,-821"/>
</g>
<!-- choiceportage120494945108105981154710810598884949454946544657 -->
<g id="node12" class="node">
<title>choiceportage120494945108105981154710810598884949454946544657</title>
<g id="a_node12"><a xlink:href="../x11-libs/libX11-1.6.9.svg" xlink:title="portage://x11&#45;libs/libX11&#45;1.6.9">
<ellipse fill="none" stroke="red" cx="900" cy="-767" rx="144" ry="18"/>
<text text-anchor="middle" x="900" y="-764" font-family="Helvetica,sans-Serif" font-size="10.00">portage://x11&#45;libs/libX11&#45;1.6.9</text>
</a>
</g>
</g>
<!-- dependency446662&#45;&gt;choiceportage120494945108105981154710810598884949454946544657 -->
<g id="edge11" class="edge">
<title>dependency446662:e&#45;&gt;choiceportage120494945108105981154710810598884949454946544657:w</title>
<path fill="none" stroke="black" stroke-dasharray="1,5" d="M649,-821C698.26,-821 701.85,-774.13 744.86,-767.72"/>
<polygon fill="black" stroke="black" points="755,-767 745.35,-772.2 750.01,-767.36 745.03,-767.71 745.03,-767.71 745.03,-767.71 750.01,-767.36 744.71,-763.22 755,-767 755,-767"/>
</g>
<!-- choiceportage1204949451081059811547108105988897119454946484649514511449 -->
<g id="node13" class="node">
<title>choiceportage1204949451081059811547108105988897119454946484649514511449</title>
<g id="a_node13"><a xlink:href="../x11-libs/libXaw-1.0.13-r1.svg" xlink:title="portage://x11&#45;libs/libXaw&#45;1.0.13&#45;r1">
<ellipse fill="none" stroke="red" cx="900" cy="-697" rx="144" ry="18"/>
<text text-anchor="middle" x="900" y="-694" font-family="Helvetica,sans-Serif" font-size="10.00">portage://x11&#45;libs/libXaw&#45;1.0.13&#45;r1</text>
</a>
</g>
</g>
<!-- dependency446663&#45;&gt;choiceportage1204949451081059811547108105988897119454946484649514511449 -->
<g id="edge12" class="edge">
<title>dependency446663:e&#45;&gt;choiceportage1204949451081059811547108105988897119454946484649514511449:w</title>
<path fill="none" stroke="black" stroke-dasharray="1,5" d="M649,-697C692.43,-697 705.83,-697 744.57,-697"/>
<polygon fill="black" stroke="black" points="755,-697 745,-701.5 750,-697 745,-697 745,-697 745,-697 750,-697 745,-692.5 755,-697 755,-697"/>
</g>
<!-- choiceportage12049494510810598115471081059888101120116454946514652 -->
<g id="node14" class="node">
<title>choiceportage12049494510810598115471081059888101120116454946514652</title>
<g id="a_node14"><a xlink:href="../x11-libs/libXext-1.3.4.svg" xlink:title="portage://x11&#45;libs/libXext&#45;1.3.4">
<ellipse fill="none" stroke="red" cx="900" cy="-573" rx="144" ry="18"/>
<text text-anchor="middle" x="900" y="-570" font-family="Helvetica,sans-Serif" font-size="10.00">portage://x11&#45;libs/libXext&#45;1.3.4</text>
</a>
</g>
</g>
<!-- dependency446664&#45;&gt;choiceportage12049494510810598115471081059888101120116454946514652 -->
<g id="edge13" class="edge">
<title>dependency446664:e&#45;&gt;choiceportage12049494510810598115471081059888101120116454946514652:w</title>
<path fill="none" stroke="black" stroke-dasharray="1,5" d="M649,-573C692.43,-573 705.83,-573 744.57,-573"/>
<polygon fill="black" stroke="black" points="755,-573 745,-577.5 750,-573 745,-573 745,-573 745,-573 750,-573 745,-568.5 755,-573 755,-573"/>
</g>
<!-- choiceportage12049494510810598115471081059888102116455046514651 -->
<g id="node15" class="node">
<title>choiceportage12049494510810598115471081059888102116455046514651</title>
<g id="a_node15"><a xlink:href="../x11-libs/libXft-2.3.3.svg" xlink:title="portage://x11&#45;libs/libXft&#45;2.3.3">
<ellipse fill="none" stroke="red" cx="900" cy="-449" rx="144" ry="18"/>
<text text-anchor="middle" x="900" y="-446" font-family="Helvetica,sans-Serif" font-size="10.00">portage://x11&#45;libs/libXft&#45;2.3.3</text>
</a>
</g>
</g>
<!-- dependency446665&#45;&gt;choiceportage12049494510810598115471081059888102116455046514651 -->
<g id="edge14" class="edge">
<title>dependency446665:e&#45;&gt;choiceportage12049494510810598115471081059888102116455046514651:w</title>
<path fill="none" stroke="black" stroke-dasharray="1,5" d="M649,-449C692.43,-449 705.83,-449 744.57,-449"/>
<polygon fill="black" stroke="black" points="755,-449 745,-453.5 750,-449 745,-449 745,-449 745,-449 750,-449 745,-444.5 755,-449 755,-449"/>
</g>
<!-- choiceportage12049494510810598115471081059888109117454946494651 -->
<g id="node16" class="node">
<title>choiceportage12049494510810598115471081059888109117454946494651</title>
<g id="a_node16"><a xlink:href="../x11-libs/libXmu-1.1.3.svg" xlink:title="portage://x11&#45;libs/libXmu&#45;1.1.3">
<ellipse fill="none" stroke="red" cx="900" cy="-325" rx="144" ry="18"/>
<text text-anchor="middle" x="900" y="-322" font-family="Helvetica,sans-Serif" font-size="10.00">portage://x11&#45;libs/libXmu&#45;1.1.3</text>
</a>
</g>
</g>
<!-- dependency446666&#45;&gt;choiceportage12049494510810598115471081059888109117454946494651 -->
<g id="edge15" class="edge">
<title>dependency446666:e&#45;&gt;choiceportage12049494510810598115471081059888109117454946494651:w</title>
<path fill="none" stroke="black" stroke-dasharray="1,5" d="M649,-325C692.43,-325 705.83,-325 744.57,-325"/>
<polygon fill="black" stroke="black" points="755,-325 745,-329.5 750,-325 745,-325 745,-325 745,-325 750,-325 745,-320.5 755,-325 755,-325"/>
</g>
<!-- choiceportage12049494510810598115471081059888114101110100101114454846574649484511449 -->
<g id="node17" class="node">
<title>choiceportage12049494510810598115471081059888114101110100101114454846574649484511449</title>
<g id="a_node17"><a xlink:href="../x11-libs/libXrender-0.9.10-r1.svg" xlink:title="portage://x11&#45;libs/libXrender&#45;0.9.10&#45;r1">
<ellipse fill="none" stroke="red" cx="900" cy="-201" rx="144" ry="18"/>
<text text-anchor="middle" x="900" y="-198" font-family="Helvetica,sans-Serif" font-size="10.00">portage://x11&#45;libs/libXrender&#45;0.9.10&#45;r1</text>
</a>
</g>
</g>
<!-- dependency446667&#45;&gt;choiceportage12049494510810598115471081059888114101110100101114454846574649484511449 -->
<g id="edge16" class="edge">
<title>dependency446667:e&#45;&gt;choiceportage12049494510810598115471081059888114101110100101114454846574649484511449:w</title>
<path fill="none" stroke="black" stroke-dasharray="1,5" d="M649,-201C692.43,-201 705.83,-201 744.57,-201"/>
<polygon fill="black" stroke="black" points="755,-201 745,-205.5 750,-201 745,-201 745,-201 745,-201 750,-201 745,-196.5 755,-201 755,-201"/>
</g>
<!-- choiceportage12049494510810598115471081059888116454946504648 -->
<g id="node18" class="node">
<title>choiceportage12049494510810598115471081059888116454946504648</title>
<g id="a_node18"><a xlink:href="../x11-libs/libXt-1.2.0.svg" xlink:title="portage://x11&#45;libs/libXt&#45;1.2.0">
<ellipse fill="none" stroke="red" cx="900" cy="-147" rx="144" ry="18"/>
<text text-anchor="middle" x="900" y="-144" font-family="Helvetica,sans-Serif" font-size="10.00">portage://x11&#45;libs/libXt&#45;1.2.0</text>
</a>
</g>
</g>
<!-- dependency446668&#45;&gt;choiceportage12049494510810598115471081059888116454946504648 -->
<g id="edge17" class="edge">
<title>dependency446668:e&#45;&gt;choiceportage12049494510810598115471081059888116454946504648:w</title>
<path fill="none" stroke="black" stroke-dasharray="1,5" d="M649,-77C701.82,-77 699.17,-138.27 744.84,-146.17"/>
<polygon fill="black" stroke="black" points="755,-147 744.67,-150.67 750.02,-146.59 745.03,-146.18 745.03,-146.18 745.03,-146.18 750.02,-146.59 745.4,-141.7 755,-147 755,-147"/>
</g>
</g>
</svg>
