<?xml version="1.0" encoding="UTF-8" standalone="no"?>
<!DOCTYPE svg PUBLIC "-//W3C//DTD SVG 1.1//EN"
 "http://www.w3.org/Graphics/SVG/1.1/DTD/svg11.dtd">
<!-- Generated by graphviz version 2.41.20171026.1811 (20171026.1811)
 -->
<!-- Title: prolog Pages: 1 -->
<svg width="1068pt" height="471pt"
 viewBox="0.00 0.00 1068.00 471.00" xmlns="http://www.w3.org/2000/svg" xmlns:xlink="http://www.w3.org/1999/xlink">
<g id="graph0" class="graph" transform="scale(1 1) rotate(0) translate(4 467)">
<title>prolog</title>
<polygon fill="white" stroke="transparent" points="-4,4 -4,-467 1064,-467 1064,4 -4,4"/>
<g id="clust1" class="cluster">
<title>cluster_leftcol</title>
<polygon fill="none" stroke="gray" points="8,-183 8,-253 312,-253 312,-183 8,-183"/>
<text text-anchor="start" x="146.66" y="-242" font-family="Helvetica,sans-Serif" font-style="italic" font-size="10.00">ebuild</text>
</g>
<g id="clust2" class="cluster">
<title>cluster_midcol</title>
<polygon fill="none" stroke="gray" points="396,-23 396,-455 664,-455 664,-23 396,-23"/>
<text text-anchor="start" x="498.86" y="-444" font-family="Helvetica,sans-Serif" font-style="italic" font-size="10.00">dependencies</text>
</g>
<g id="clust3" class="cluster">
<title>cluster_compile</title>
<polygon fill="#eeeeee" stroke="gray" points="404,-297 404,-429 656,-429 656,-297 404,-297"/>
<text text-anchor="start" x="512.77" y="-418" font-family="Helvetica,sans-Serif" font-style="italic" font-size="10.00">compile</text>
</g>
<g id="clust6" class="cluster">
<title>cluster_run</title>
<polygon fill="#eeeeee" stroke="gray" points="404,-31 404,-289 656,-289 656,-31 404,-31"/>
<text text-anchor="start" x="522.77" y="-278" font-family="Helvetica,sans-Serif" font-style="italic" font-size="10.00">run</text>
</g>
<g id="clust9" class="cluster">
<title>cluster_choices</title>
<polygon fill="none" stroke="gray" points="748,-8 748,-402 1052,-402 1052,-8 748,-8"/>
<text text-anchor="start" x="875.82" y="-391" font-family="Helvetica,sans-Serif" font-style="italic" font-size="10.00">candidates</text>
</g>
<!-- id -->
<g id="node1" class="node">
<title>id</title>
<g id="a_node1"><a xlink:href="../net-print/hplip-plugin-3.18.5.svg" xlink:title="net&#45;print/hplip&#45;plugin&#45;3.18.5">
<ellipse fill="none" stroke="red" cx="160" cy="-209" rx="144" ry="18"/>
<text text-anchor="middle" x="160" y="-206" font-family="Helvetica,sans-Serif" font-size="10.00">net&#45;print/hplip&#45;plugin&#45;3.18.5</text>
</a>
</g>
</g>
<!-- dependency522 -->
<g id="node2" class="node">
<title>dependency522</title>
<polygon fill="none" stroke="blue" points="420,-309 420,-399 525,-399 525,-309 420,-309"/>
<text text-anchor="start" x="450.82" y="-351" font-family="Helvetica,sans-Serif" font-size="10.00">pack_dep</text>
<polygon fill="none" stroke="blue" points="525,-379 525,-399 635,-399 635,-379 525,-379"/>
<text text-anchor="start" x="574.44" y="-386" font-family="Helvetica,sans-Serif" font-size="10.00">no</text>
<polygon fill="none" stroke="blue" points="525,-359 525,-379 635,-379 635,-359 525,-359"/>
<text text-anchor="start" x="566.66" y="-366" font-family="Helvetica,sans-Serif" font-size="10.00">virtual</text>
<polygon fill="none" stroke="blue" points="525,-339 525,-359 635,-359 635,-339 525,-339"/>
<text text-anchor="start" x="558.6" y="-346" font-family="Helvetica,sans-Serif" font-size="10.00">pkgconfig</text>
<polygon fill="none" stroke="blue" points="525,-319 525,-339 635,-339 635,-319 525,-319"/>
<text text-anchor="start" x="568.88" y="-326" font-family="Helvetica,sans-Serif" font-size="10.00">none</text>
<polygon fill="none" stroke="blue" points="525,-309 525,-319 635,-319 635,-309 525,-309"/>
</g>
<!-- id&#45;&gt;dependency522 -->
<g id="edge1" class="edge">
<title>id:e&#45;&gt;dependency522:w</title>
<path fill="none" stroke="black" d="M305,-209C381.24,-209 335.72,-341.27 401.03,-353.15"/>
<polygon fill="black" stroke="black" points="411,-354 400.65,-357.63 406.02,-353.57 401.04,-353.15 401.04,-353.15 401.04,-353.15 406.02,-353.57 401.42,-348.67 411,-354 411,-354"/>
</g>
<!-- dependency523 -->
<g id="node3" class="node">
<title>dependency523</title>
<polygon fill="none" stroke="blue" points="420,-159 420,-259 525,-259 525,-159 420,-159"/>
<text text-anchor="start" x="450.82" y="-206" font-family="Helvetica,sans-Serif" font-size="10.00">pack_dep</text>
<polygon fill="none" stroke="blue" points="525,-239 525,-259 635,-259 635,-239 525,-239"/>
<text text-anchor="start" x="574.44" y="-246" font-family="Helvetica,sans-Serif" font-size="10.00">no</text>
<polygon fill="none" stroke="blue" points="525,-219 525,-239 635,-239 635,-219 525,-219"/>
<text text-anchor="start" x="561.66" y="-226" font-family="Helvetica,sans-Serif" font-size="10.00">net&#45;print</text>
<polygon fill="none" stroke="blue" points="525,-199 525,-219 635,-219 635,-199 525,-199"/>
<text text-anchor="start" x="569.44" y="-206" font-family="Helvetica,sans-Serif" font-size="10.00">hplip</text>
<polygon fill="none" stroke="blue" points="525,-179 525,-199 635,-199 635,-179 525,-179"/>
<text text-anchor="start" x="570.83" y="-186" font-family="Helvetica,sans-Serif" font-size="10.00">tilde</text>
<polygon fill="none" stroke="blue" points="525,-159 525,-179 635,-179 635,-159 525,-159"/>
<text text-anchor="start" x="566.1" y="-166" font-family="Helvetica,sans-Serif" font-size="10.00">3.18.5</text>
</g>
<!-- id&#45;&gt;dependency523 -->
<g id="edge2" class="edge">
<title>id:e&#45;&gt;dependency523:w</title>
<path fill="none" stroke="black" d="M305,-209C349.26,-209 362.33,-209 402.82,-209"/>
<ellipse fill="none" stroke="black" cx="407" cy="-209" rx="4" ry="4"/>
</g>
<!-- dependency524 -->
<g id="node4" class="node">
<title>dependency524</title>
<polygon fill="none" stroke="blue" points="420,-43 420,-133 525,-133 525,-43 420,-43"/>
<text text-anchor="start" x="450.82" y="-85" font-family="Helvetica,sans-Serif" font-size="10.00">pack_dep</text>
<polygon fill="none" stroke="blue" points="525,-113 525,-133 635,-133 635,-113 525,-113"/>
<text text-anchor="start" x="574.44" y="-120" font-family="Helvetica,sans-Serif" font-size="10.00">no</text>
<polygon fill="none" stroke="blue" points="525,-93 525,-113 635,-113 635,-93 525,-93"/>
<text text-anchor="start" x="566.66" y="-100" font-family="Helvetica,sans-Serif" font-size="10.00">virtual</text>
<polygon fill="none" stroke="blue" points="525,-73 525,-93 635,-93 635,-73 525,-73"/>
<text text-anchor="start" x="569.16" y="-80" font-family="Helvetica,sans-Serif" font-size="10.00">udev</text>
<polygon fill="none" stroke="blue" points="525,-53 525,-73 635,-73 635,-53 525,-53"/>
<text text-anchor="start" x="568.88" y="-60" font-family="Helvetica,sans-Serif" font-size="10.00">none</text>
<polygon fill="none" stroke="blue" points="525,-43 525,-53 635,-53 635,-43 525,-43"/>
</g>
<!-- id&#45;&gt;dependency524 -->
<g id="edge3" class="edge">
<title>id:e&#45;&gt;dependency524:w</title>
<path fill="none" stroke="black" d="M305,-209C373.56,-209 342.36,-97.72 402.74,-88.59"/>
<ellipse fill="none" stroke="black" cx="407.01" cy="-88.29" rx="4" ry="4"/>
</g>
<!-- choice11810511411611797108471121071039911111010210510345484511449 -->
<g id="node5" class="node">
<title>choice11810511411611797108471121071039911111010210510345484511449</title>
<g id="a_node5"><a xlink:href="../virtual/pkgconfig-0-r1.svg" xlink:title="virtual/pkgconfig&#45;0&#45;r1">
<ellipse fill="none" stroke="red" cx="900" cy="-358" rx="144" ry="18"/>
<text text-anchor="middle" x="900" y="-355" font-family="Helvetica,sans-Serif" font-size="10.00">virtual/pkgconfig&#45;0&#45;r1</text>
</a>
</g>
</g>
<!-- dependency522&#45;&gt;choice11810511411611797108471121071039911111010210510345484511449 -->
<g id="edge4" class="edge">
<title>dependency522:e&#45;&gt;choice11810511411611797108471121071039911111010210510345484511449:w</title>
<path fill="none" stroke="black" stroke-dasharray="1,5" d="M649,-354C692.46,-354 705.81,-357.4 744.57,-357.93"/>
<polygon fill="black" stroke="black" points="755,-358 744.97,-362.43 750,-357.97 745,-357.93 745,-357.93 745,-357.93 750,-357.97 745.03,-353.43 755,-358 755,-358"/>
</g>
<!-- choice11010111645112114105110116471041121081051124551464955464948 -->
<g id="node6" class="node">
<title>choice11010111645112114105110116471041121081051124551464955464948</title>
<g id="a_node6"><a xlink:href="../net-print/hplip-3.17.10.svg" xlink:title="net&#45;print/hplip&#45;3.17.10">
<ellipse fill="none" stroke="red" cx="900" cy="-304" rx="144" ry="18"/>
<text text-anchor="middle" x="900" y="-301" font-family="Helvetica,sans-Serif" font-size="10.00">net&#45;print/hplip&#45;3.17.10</text>
</a>
</g>
</g>
<!-- dependency523&#45;&gt;choice11010111645112114105110116471041121081051124551464955464948 -->
<g id="edge5" class="edge">
<title>dependency523:e&#45;&gt;choice11010111645112114105110116471041121081051124551464955464948:w</title>
<path fill="none" stroke="black" stroke-dasharray="1,5" d="M649,-209C708.68,-209 693.79,-293.54 745.03,-303.12"/>
<polygon fill="black" stroke="black" points="755,-304 744.64,-307.6 750.02,-303.56 745.04,-303.12 745.04,-303.12 745.04,-303.12 750.02,-303.56 745.43,-298.64 755,-304 755,-304"/>
</g>
<!-- choice110101116451121141051101164710411210810511245514649564652 -->
<g id="node7" class="node">
<title>choice110101116451121141051101164710411210810511245514649564652</title>
<g id="a_node7"><a xlink:href="../net-print/hplip-3.18.4.svg" xlink:title="net&#45;print/hplip&#45;3.18.4">
<ellipse fill="none" stroke="red" cx="900" cy="-250" rx="144" ry="18"/>
<text text-anchor="middle" x="900" y="-247" font-family="Helvetica,sans-Serif" font-size="10.00">net&#45;print/hplip&#45;3.18.4</text>
</a>
</g>
</g>
<!-- dependency523&#45;&gt;choice110101116451121141051101164710411210810511245514649564652 -->
<g id="edge6" class="edge">
<title>dependency523:e&#45;&gt;choice110101116451121141051101164710411210810511245514649564652:w</title>
<path fill="none" stroke="black" stroke-dasharray="1,5" d="M649,-209C695.96,-209 703.56,-244.44 744.99,-249.42"/>
<polygon fill="black" stroke="black" points="755,-250 744.76,-253.91 750.01,-249.71 745.02,-249.42 745.02,-249.42 745.02,-249.42 750.01,-249.71 745.28,-244.93 755,-250 755,-250"/>
</g>
<!-- choice110101116451121141051101164710411210810511245514649564653 -->
<g id="node8" class="node">
<title>choice110101116451121141051101164710411210810511245514649564653</title>
<g id="a_node8"><a xlink:href="../net-print/hplip-3.18.5.svg" xlink:title="net&#45;print/hplip&#45;3.18.5">
<ellipse fill="none" stroke="red" cx="900" cy="-196" rx="144" ry="18"/>
<text text-anchor="middle" x="900" y="-193" font-family="Helvetica,sans-Serif" font-size="10.00">net&#45;print/hplip&#45;3.18.5</text>
</a>
</g>
</g>
<!-- dependency523&#45;&gt;choice110101116451121141051101164710411210810511245514649564653 -->
<g id="edge7" class="edge">
<title>dependency523:e&#45;&gt;choice110101116451121141051101164710411210810511245514649564653:w</title>
<path fill="none" stroke="black" stroke-dasharray="1,5" d="M649,-209C692.76,-209 705.58,-197.95 744.51,-196.23"/>
<polygon fill="black" stroke="black" points="755,-196 745.1,-200.71 750,-196.11 745,-196.22 745,-196.22 745,-196.22 750,-196.11 744.91,-191.72 755,-196 755,-196"/>
</g>
<!-- choice110101116451121141051101164710411210810511245514649564654 -->
<g id="node9" class="node">
<title>choice110101116451121141051101164710411210810511245514649564654</title>
<g id="a_node9"><a xlink:href="../net-print/hplip-3.18.6.svg" xlink:title="net&#45;print/hplip&#45;3.18.6">
<ellipse fill="none" stroke="red" cx="900" cy="-142" rx="144" ry="18"/>
<text text-anchor="middle" x="900" y="-139" font-family="Helvetica,sans-Serif" font-size="10.00">net&#45;print/hplip&#45;3.18.6</text>
</a>
</g>
</g>
<!-- dependency523&#45;&gt;choice110101116451121141051101164710411210810511245514649564654 -->
<g id="edge8" class="edge">
<title>dependency523:e&#45;&gt;choice110101116451121141051101164710411210810511245514649564654:w</title>
<path fill="none" stroke="black" stroke-dasharray="1,5" d="M649,-209C701.14,-209 699.72,-150.36 744.95,-142.8"/>
<polygon fill="black" stroke="black" points="755,-142 745.39,-147.28 750.02,-142.4 745.03,-142.79 745.03,-142.79 745.03,-142.79 750.02,-142.4 744.67,-138.31 755,-142 755,-142"/>
</g>
<!-- choice118105114116117971084711710010111845504953 -->
<g id="node10" class="node">
<title>choice118105114116117971084711710010111845504953</title>
<g id="a_node10"><a xlink:href="../virtual/udev-215.svg" xlink:title="virtual/udev&#45;215">
<ellipse fill="none" stroke="red" cx="900" cy="-88" rx="144" ry="18"/>
<text text-anchor="middle" x="900" y="-85" font-family="Helvetica,sans-Serif" font-size="10.00">virtual/udev&#45;215</text>
</a>
</g>
</g>
<!-- dependency524&#45;&gt;choice118105114116117971084711710010111845504953 -->
<g id="edge9" class="edge">
<title>dependency524:e&#45;&gt;choice118105114116117971084711710010111845504953:w</title>
<path fill="none" stroke="black" stroke-dasharray="1,5" d="M649,-88C692.43,-88 705.83,-88 744.57,-88"/>
<polygon fill="black" stroke="black" points="755,-88 745,-92.5 750,-88 745,-88 745,-88 745,-88 750,-88 745,-83.5 755,-88 755,-88"/>
</g>
<!-- choice118105114116117971084711710010111845504955 -->
<g id="node11" class="node">
<title>choice118105114116117971084711710010111845504955</title>
<g id="a_node11"><a xlink:href="../virtual/udev-217.svg" xlink:title="virtual/udev&#45;217">
<ellipse fill="none" stroke="red" cx="900" cy="-34" rx="144" ry="18"/>
<text text-anchor="middle" x="900" y="-31" font-family="Helvetica,sans-Serif" font-size="10.00">virtual/udev&#45;217</text>
</a>
</g>
</g>
<!-- dependency524&#45;&gt;choice118105114116117971084711710010111845504955 -->
<g id="edge10" class="edge">
<title>dependency524:e&#45;&gt;choice118105114116117971084711710010111845504955:w</title>
<path fill="none" stroke="black" stroke-dasharray="1,5" d="M649,-88C698.26,-88 701.85,-41.13 744.86,-34.72"/>
<polygon fill="black" stroke="black" points="755,-34 745.35,-39.2 750.01,-34.36 745.03,-34.71 745.03,-34.71 745.03,-34.71 750.01,-34.36 744.71,-30.22 755,-34 755,-34"/>
</g>
</g>
</svg>
