<?xml version="1.0" encoding="UTF-8" standalone="no"?>
<!DOCTYPE svg PUBLIC "-//W3C//DTD SVG 1.1//EN"
 "http://www.w3.org/Graphics/SVG/1.1/DTD/svg11.dtd">
<!-- Generated by graphviz version 2.41.20171026.1811 (20171026.1811)
 -->
<!-- Title: prolog Pages: 1 -->
<svg width="1326pt" height="470pt"
 viewBox="0.00 0.00 1326.00 470.00" xmlns="http://www.w3.org/2000/svg" xmlns:xlink="http://www.w3.org/1999/xlink">
<g id="graph0" class="graph" transform="scale(1 1) rotate(0) translate(4 466)">
<title>prolog</title>
<polygon fill="white" stroke="transparent" points="-4,4 -4,-466 1322,-466 1322,4 -4,4"/>
<g id="clust1" class="cluster">
<title>cluster_leftcol</title>
<polygon fill="none" stroke="gray" points="8,-249 8,-319 312,-319 312,-249 8,-249"/>
<text text-anchor="start" x="146.66" y="-308" font-family="Helvetica,sans-Serif" font-style="italic" font-size="10.00">ebuild</text>
</g>
<g id="clust2" class="cluster">
<title>cluster_midcol</title>
<polygon fill="none" stroke="gray" points="396,-36 396,-454 922,-454 922,-36 396,-36"/>
<text text-anchor="start" x="627.86" y="-443" font-family="Helvetica,sans-Serif" font-style="italic" font-size="10.00">dependencies</text>
</g>
<g id="clust4" class="cluster">
<title>cluster_compileandrun</title>
<polygon fill="#eeeeee" stroke="gray" points="404,-44 404,-428 914,-428 914,-44 404,-44"/>
<text text-anchor="start" x="623.42" y="-417" font-family="Helvetica,sans-Serif" font-style="italic" font-size="10.00">compile and run</text>
</g>
<g id="clust10" class="cluster">
<title>cluster_choices</title>
<polygon fill="none" stroke="gray" points="1006,-8 1006,-348 1310,-348 1310,-8 1006,-8"/>
<text text-anchor="start" x="1133.82" y="-337" font-family="Helvetica,sans-Serif" font-style="italic" font-size="10.00">candidates</text>
</g>
<!-- id -->
<g id="node1" class="node">
<title>id</title>
<g id="a_node1"><a xlink:href="../net-print/splix-2.0.0_p20130826.svg" xlink:title="net&#45;print/splix&#45;2.0.0_p20130826">
<ellipse fill="none" stroke="red" cx="160" cy="-275" rx="144" ry="18"/>
<text text-anchor="middle" x="160" y="-272" font-family="Helvetica,sans-Serif" font-size="10.00">net&#45;print/splix&#45;2.0.0_p20130826</text>
</a>
</g>
</g>
<!-- dependency436278 -->
<g id="node2" class="node">
<title>dependency436278</title>
<polygon fill="none" stroke="red" points="420,-298 420,-338 511,-338 511,-298 420,-298"/>
<text text-anchor="start" x="430.75" y="-315" font-family="Helvetica,sans-Serif" font-size="10.00">use_conditional</text>
<polygon fill="none" stroke="red" points="511,-318 511,-338 554,-338 554,-318 511,-318"/>
<text text-anchor="start" x="515.55" y="-325" font-family="Helvetica,sans-Serif" font-size="10.00">positive</text>
<polygon fill="none" stroke="red" points="511,-298 511,-318 554,-318 554,-298 511,-298"/>
<text text-anchor="start" x="524.72" y="-305" font-family="Helvetica,sans-Serif" font-size="10.00">jbig</text>
</g>
<!-- id&#45;&gt;dependency436278 -->
<g id="edge2" class="edge">
<title>id:e&#45;&gt;dependency436278:w</title>
<path fill="none" stroke="black" d="M305,-275C349.09,-275 358.19,-307.34 392.99,-315.93"/>
<ellipse fill="none" stroke="black" cx="407.03" cy="-317.54" rx="4" ry="4"/>
<polygon fill="black" stroke="black" points="403.05,-317.08 392.6,-320.41 398.09,-316.51 393.12,-315.94 393.12,-315.94 393.12,-315.94 398.09,-316.51 393.63,-311.47 403.05,-317.08 403.05,-317.08"/>
</g>
<!-- dependency436280 -->
<g id="node4" class="node">
<title>dependency436280</title>
<polygon fill="none" stroke="blue" points="678,-182 678,-282 783,-282 783,-182 678,-182"/>
<text text-anchor="start" x="708.82" y="-229" font-family="Helvetica,sans-Serif" font-size="10.00">pack_dep</text>
<polygon fill="none" stroke="blue" points="783,-262 783,-282 893,-282 893,-262 783,-262"/>
<text text-anchor="start" x="832.44" y="-269" font-family="Helvetica,sans-Serif" font-size="10.00">no</text>
<polygon fill="none" stroke="blue" points="783,-242 783,-262 893,-262 893,-242 783,-242"/>
<text text-anchor="start" x="819.93" y="-249" font-family="Helvetica,sans-Serif" font-size="10.00">app&#45;text</text>
<polygon fill="none" stroke="blue" points="783,-222 783,-242 893,-242 893,-222 783,-222"/>
<text text-anchor="start" x="805.49" y="-229" font-family="Helvetica,sans-Serif" font-size="10.00">ghostscript&#45;gpl</text>
<polygon fill="none" stroke="blue" points="783,-202 783,-222 893,-222 893,-202 783,-202"/>
<text text-anchor="start" x="809.92" y="-209" font-family="Helvetica,sans-Serif" font-size="10.00">greaterequal</text>
<polygon fill="none" stroke="blue" points="783,-182 783,-202 893,-202 893,-182 783,-182"/>
<text text-anchor="start" x="828.27" y="-189" font-family="Helvetica,sans-Serif" font-size="10.00">9.02</text>
</g>
<!-- id&#45;&gt;dependency436280 -->
<g id="edge3" class="edge">
<title>id:e&#45;&gt;dependency436280:w</title>
<path fill="none" stroke="black" d="M488,-232C561.36,-219.52 585.31,-230 651.65,-231.76"/>
<ellipse fill="none" stroke="black" cx="666" cy="-231.95" rx="4" ry="4"/>
<polygon fill="black" stroke="black" points="662,-231.9 651.94,-236.26 657,-231.83 652,-231.76 652,-231.76 652,-231.76 657,-231.83 652.06,-227.26 662,-231.9 662,-231.9"/>
</g>
<!-- dependency436281 -->
<g id="node5" class="node">
<title>dependency436281</title>
<polygon fill="none" stroke="blue" points="678,-56 678,-156 783,-156 783,-56 678,-56"/>
<text text-anchor="start" x="708.82" y="-103" font-family="Helvetica,sans-Serif" font-size="10.00">pack_dep</text>
<polygon fill="none" stroke="blue" points="783,-136 783,-156 893,-156 893,-136 783,-136"/>
<text text-anchor="start" x="832.44" y="-143" font-family="Helvetica,sans-Serif" font-size="10.00">no</text>
<polygon fill="none" stroke="blue" points="783,-116 783,-136 893,-136 893,-116 783,-116"/>
<text text-anchor="start" x="819.66" y="-123" font-family="Helvetica,sans-Serif" font-size="10.00">net&#45;print</text>
<polygon fill="none" stroke="blue" points="783,-96 783,-116 893,-116 893,-96 783,-96"/>
<text text-anchor="start" x="827.44" y="-103" font-family="Helvetica,sans-Serif" font-size="10.00">cups</text>
<polygon fill="none" stroke="blue" points="783,-76 783,-96 893,-96 893,-76 783,-76"/>
<text text-anchor="start" x="809.92" y="-83" font-family="Helvetica,sans-Serif" font-size="10.00">greaterequal</text>
<polygon fill="none" stroke="blue" points="783,-56 783,-76 893,-76 893,-56 783,-56"/>
<text text-anchor="start" x="826.88" y="-63" font-family="Helvetica,sans-Serif" font-size="10.00">1.4.0</text>
</g>
<!-- id&#45;&gt;dependency436281 -->
<g id="edge4" class="edge">
<title>id:e&#45;&gt;dependency436281:w</title>
<path fill="none" stroke="black" d="M488,-232C578.55,-216.59 572.91,-120.13 651.81,-107.39"/>
<ellipse fill="none" stroke="black" cx="666.01" cy="-106.3" rx="4" ry="4"/>
<polygon fill="black" stroke="black" points="662.02,-106.61 652.4,-111.86 657.04,-106.99 652.05,-107.37 652.05,-107.37 652.05,-107.37 657.04,-106.99 651.71,-102.88 662.02,-106.61 662.02,-106.61"/>
<path fill="none" stroke="black" d="M305,-275C387.68,-275 404.49,-245.87 486,-232"/>
</g>
<!-- dependency436279 -->
<g id="node3" class="node">
<title>dependency436279</title>
<polygon fill="none" stroke="blue" points="678,-308 678,-398 783,-398 783,-308 678,-308"/>
<text text-anchor="start" x="708.82" y="-350" font-family="Helvetica,sans-Serif" font-size="10.00">pack_dep</text>
<polygon fill="none" stroke="blue" points="783,-378 783,-398 893,-398 893,-378 783,-378"/>
<text text-anchor="start" x="832.44" y="-385" font-family="Helvetica,sans-Serif" font-size="10.00">no</text>
<polygon fill="none" stroke="blue" points="783,-358 783,-378 893,-378 893,-358 783,-358"/>
<text text-anchor="start" x="815.21" y="-365" font-family="Helvetica,sans-Serif" font-size="10.00">media&#45;libs</text>
<polygon fill="none" stroke="blue" points="783,-338 783,-358 893,-358 893,-338 783,-338"/>
<text text-anchor="start" x="825.22" y="-345" font-family="Helvetica,sans-Serif" font-size="10.00">jbigkit</text>
<polygon fill="none" stroke="blue" points="783,-318 783,-338 893,-338 893,-318 783,-318"/>
<text text-anchor="start" x="826.88" y="-325" font-family="Helvetica,sans-Serif" font-size="10.00">none</text>
<polygon fill="none" stroke="blue" points="783,-308 783,-318 893,-318 893,-308 783,-308"/>
</g>
<!-- dependency436278&#45;&gt;dependency436279 -->
<g id="edge1" class="edge">
<title>dependency436278:e&#45;&gt;dependency436279:w</title>
<path fill="none" stroke="black" stroke-dasharray="5,2" d="M562,-318C608.91,-318 618.33,-348.25 659.97,-352.51"/>
<polygon fill="black" stroke="black" points="670,-353 659.79,-357 665.01,-352.75 660.01,-352.51 660.01,-352.51 660.01,-352.51 665.01,-352.75 660.23,-348.01 670,-353 670,-353"/>
</g>
<!-- choice109101100105974510810598115471069810510310710511645504649 -->
<g id="node6" class="node">
<title>choice109101100105974510810598115471069810510310710511645504649</title>
<g id="a_node6"><a xlink:href="../media-libs/jbigkit-2.1.svg" xlink:title="media&#45;libs/jbigkit&#45;2.1">
<ellipse fill="none" stroke="red" cx="1158" cy="-304" rx="144" ry="18"/>
<text text-anchor="middle" x="1158" y="-301" font-family="Helvetica,sans-Serif" font-size="10.00">media&#45;libs/jbigkit&#45;2.1</text>
</a>
</g>
</g>
<!-- dependency436279&#45;&gt;choice109101100105974510810598115471069810510310710511645504649 -->
<g id="edge5" class="edge">
<title>dependency436279:e&#45;&gt;choice109101100105974510810598115471069810510310710511645504649:w</title>
<path fill="none" stroke="black" stroke-dasharray="1,5" d="M907,-353C955.35,-353 960.57,-310.47 1003.02,-304.66"/>
<polygon fill="black" stroke="black" points="1013,-304 1003.32,-309.15 1008.01,-304.33 1003.02,-304.66 1003.02,-304.66 1003.02,-304.66 1008.01,-304.33 1002.73,-300.17 1013,-304 1013,-304"/>
</g>
<!-- choice97112112451161011201164710310411111511611599114105112116451031121084557465049 -->
<g id="node7" class="node">
<title>choice97112112451161011201164710310411111511611599114105112116451031121084557465049</title>
<g id="a_node7"><a xlink:href="../app-text/ghostscript-gpl-9.21.svg" xlink:title="app&#45;text/ghostscript&#45;gpl&#45;9.21">
<ellipse fill="none" stroke="red" cx="1158" cy="-250" rx="144" ry="18"/>
<text text-anchor="middle" x="1158" y="-247" font-family="Helvetica,sans-Serif" font-size="10.00">app&#45;text/ghostscript&#45;gpl&#45;9.21</text>
</a>
</g>
</g>
<!-- dependency436280&#45;&gt;choice97112112451161011201164710310411111511611599114105112116451031121084557465049 -->
<g id="edge6" class="edge">
<title>dependency436280:e&#45;&gt;choice97112112451161011201164710310411111511611599114105112116451031121084557465049:w</title>
<path fill="none" stroke="black" stroke-dasharray="1,5" d="M907,-232C951.24,-232 963.46,-247.43 1002.95,-249.72"/>
<polygon fill="black" stroke="black" points="1013,-250 1002.88,-254.22 1008,-249.86 1003,-249.72 1003,-249.72 1003,-249.72 1008,-249.86 1003.13,-245.22 1013,-250 1013,-250"/>
</g>
<!-- choice110101116451121141051101164799117112115455046494652 -->
<g id="node8" class="node">
<title>choice110101116451121141051101164799117112115455046494652</title>
<g id="a_node8"><a xlink:href="../net-print/cups-2.1.4.svg" xlink:title="net&#45;print/cups&#45;2.1.4">
<ellipse fill="none" stroke="red" cx="1158" cy="-196" rx="144" ry="18"/>
<text text-anchor="middle" x="1158" y="-193" font-family="Helvetica,sans-Serif" font-size="10.00">net&#45;print/cups&#45;2.1.4</text>
</a>
</g>
</g>
<!-- dependency436281&#45;&gt;choice110101116451121141051101164799117112115455046494652 -->
<g id="edge7" class="edge">
<title>dependency436281:e&#45;&gt;choice110101116451121141051101164799117112115455046494652:w</title>
<path fill="none" stroke="black" stroke-dasharray="1,5" d="M907,-106C965.18,-106 952.99,-185.76 1002.92,-195.11"/>
<polygon fill="black" stroke="black" points="1013,-196 1002.64,-199.6 1008.02,-195.56 1003.04,-195.12 1003.04,-195.12 1003.04,-195.12 1008.02,-195.56 1003.44,-190.64 1013,-196 1013,-196"/>
</g>
<!-- choice110101116451121141051101164799117112115455046504652 -->
<g id="node9" class="node">
<title>choice110101116451121141051101164799117112115455046504652</title>
<g id="a_node9"><a xlink:href="../net-print/cups-2.2.4.svg" xlink:title="net&#45;print/cups&#45;2.2.4">
<ellipse fill="none" stroke="red" cx="1158" cy="-142" rx="144" ry="18"/>
<text text-anchor="middle" x="1158" y="-139" font-family="Helvetica,sans-Serif" font-size="10.00">net&#45;print/cups&#45;2.2.4</text>
</a>
</g>
</g>
<!-- dependency436281&#45;&gt;choice110101116451121141051101164799117112115455046504652 -->
<g id="edge8" class="edge">
<title>dependency436281:e&#45;&gt;choice110101116451121141051101164799117112115455046504652:w</title>
<path fill="none" stroke="black" stroke-dasharray="1,5" d="M907,-106C953.16,-106 962.08,-136.98 1002.86,-141.46"/>
<polygon fill="black" stroke="black" points="1013,-142 1002.78,-145.97 1008.01,-141.74 1003.01,-141.47 1003.01,-141.47 1003.01,-141.47 1008.01,-141.74 1003.25,-136.98 1013,-142 1013,-142"/>
</g>
<!-- choice110101116451121141051101164799117112115455046504654 -->
<g id="node10" class="node">
<title>choice110101116451121141051101164799117112115455046504654</title>
<g id="a_node10"><a xlink:href="../net-print/cups-2.2.6.svg" xlink:title="net&#45;print/cups&#45;2.2.6">
<ellipse fill="none" stroke="red" cx="1158" cy="-88" rx="144" ry="18"/>
<text text-anchor="middle" x="1158" y="-85" font-family="Helvetica,sans-Serif" font-size="10.00">net&#45;print/cups&#45;2.2.6</text>
</a>
</g>
</g>
<!-- dependency436281&#45;&gt;choice110101116451121141051101164799117112115455046504654 -->
<g id="edge9" class="edge">
<title>dependency436281:e&#45;&gt;choice110101116451121141051101164799117112115455046504654:w</title>
<path fill="none" stroke="black" stroke-dasharray="1,5" d="M907,-106C951.24,-106 963.46,-90.57 1002.95,-88.28"/>
<polygon fill="black" stroke="black" points="1013,-88 1003.13,-92.78 1008,-88.14 1003,-88.28 1003,-88.28 1003,-88.28 1008,-88.14 1002.88,-83.78 1013,-88 1013,-88"/>
</g>
<!-- choice1101011164511211410511011647991171121154557575757 -->
<g id="node11" class="node">
<title>choice1101011164511211410511011647991171121154557575757</title>
<g id="a_node11"><a xlink:href="../net-print/cups-9999.svg" xlink:title="net&#45;print/cups&#45;9999">
<ellipse fill="none" stroke="red" cx="1158" cy="-34" rx="144" ry="18"/>
<text text-anchor="middle" x="1158" y="-31" font-family="Helvetica,sans-Serif" font-size="10.00">net&#45;print/cups&#45;9999</text>
</a>
</g>
</g>
<!-- dependency436281&#45;&gt;choice1101011164511211410511011647991171121154557575757 -->
<g id="edge10" class="edge">
<title>dependency436281:e&#45;&gt;choice1101011164511211410511011647991171121154557575757:w</title>
<path fill="none" stroke="black" stroke-dasharray="1,5" d="M907,-106C960.28,-106 956.8,-42.98 1002.76,-34.86"/>
<polygon fill="black" stroke="black" points="1013,-34 1003.41,-39.32 1008.02,-34.42 1003.03,-34.84 1003.03,-34.84 1003.03,-34.84 1008.02,-34.42 1002.66,-30.35 1013,-34 1013,-34"/>
</g>
</g>
</svg>
