<?xml version="1.0" encoding="UTF-8" standalone="no"?>
<!DOCTYPE svg PUBLIC "-//W3C//DTD SVG 1.1//EN"
 "http://www.w3.org/Graphics/SVG/1.1/DTD/svg11.dtd">
<!-- Generated by graphviz version 12.0.0 (20240704.0754)
 -->
<!-- Title: prolog Pages: 1 -->
<svg width="1599pt" height="743pt"
 viewBox="0.00 0.00 1599.29 743.00" xmlns="http://www.w3.org/2000/svg" xmlns:xlink="http://www.w3.org/1999/xlink">
<g id="graph0" class="graph" transform="scale(1 1) rotate(0) translate(4 739)">
<title>prolog</title>
<polygon fill="white" stroke="none" points="-4,4 -4,-739 1595.29,-739 1595.29,4 -4,4"/>
<g id="clust1" class="cluster">
<title>cluster_leftcol</title>
<polygon fill="none" stroke="gray" points="8,-201 8,-272 324.29,-272 324.29,-201 8,-201"/>
<text text-anchor="start" x="153.39" y="-259.5" font-family="Helvetica,sans-Serif" font-style="italic" font-size="10.00">ebuild</text>
</g>
<g id="clust2" class="cluster">
<title>cluster_midcol</title>
<polygon fill="none" stroke="gray" points="408.29,-23 408.29,-600 1195.29,-600 1195.29,-23 408.29,-23"/>
<text text-anchor="start" x="771.79" y="-587.5" font-family="Helvetica,sans-Serif" font-style="italic" font-size="10.00">dependencies</text>
</g>
<g id="clust5" class="cluster">
<title>cluster_run</title>
<polygon fill="#eeeeee" stroke="gray" points="416.29,-31 416.29,-573 1187.29,-573 1187.29,-31 416.29,-31"/>
<text text-anchor="start" x="795.04" y="-560.5" font-family="Helvetica,sans-Serif" font-style="italic" font-size="10.00">run</text>
</g>
<g id="clust14" class="cluster">
<title>cluster_choices</title>
<polygon fill="none" stroke="gray" points="1279.29,-8 1279.29,-727 1583.29,-727 1583.29,-8 1279.29,-8"/>
<text text-anchor="start" x="1407.66" y="-714.5" font-family="Helvetica,sans-Serif" font-style="italic" font-size="10.00">candidates</text>
</g>
<!-- id -->
<g id="node1" class="node">
<title>id</title>
<g id="a_node1"><a xlink:href="../games-util/game-device-udev-rules-20230603.svg" xlink:title="portage://games&#45;util/game&#45;device&#45;udev&#45;rules&#45;20230603">
<ellipse fill="none" stroke="red" cx="166.14" cy="-227" rx="150.14" ry="18"/>
<text text-anchor="middle" x="166.14" y="-223.12" font-family="Helvetica,sans-Serif" font-size="10.00">portage://games&#45;util/game&#45;device&#45;udev&#45;rules&#45;20230603</text>
</a>
</g>
</g>
<!-- dependency236012 -->
<g id="node2" class="node">
<title>dependency236012</title>
<polygon fill="none" stroke="red" points="432.29,-206 432.29,-248 521.29,-248 521.29,-206 432.29,-206"/>
<text text-anchor="start" x="443.04" y="-223.12" font-family="Helvetica,sans-Serif" font-size="10.00">use_conditional</text>
<polygon fill="none" stroke="red" points="521.29,-227 521.29,-248 567.29,-248 567.29,-227 521.29,-227"/>
<text text-anchor="start" x="525.91" y="-233.5" font-family="Helvetica,sans-Serif" font-size="10.00">negative</text>
<polygon fill="none" stroke="red" points="521.29,-206 521.29,-227 567.29,-227 567.29,-206 521.29,-206"/>
<text text-anchor="start" x="537.91" y="-212.5" font-family="Helvetica,sans-Serif" font-size="10.00">acl</text>
</g>
<!-- id&#45;&gt;dependency236012 -->
<g id="edge2" class="edge">
<title>id:e&#45;&gt;dependency236012:w</title>
<path fill="none" stroke="black" d="M317.53,-227C361.44,-227 374.61,-227 414.43,-227"/>
<ellipse fill="none" stroke="black" cx="418.86" cy="-227" rx="4" ry="4"/>
</g>
<!-- dependency236014 -->
<g id="node4" class="node">
<title>dependency236014</title>
<polygon fill="none" stroke="red" points="433.79,-337 433.79,-379 522.79,-379 522.79,-337 433.79,-337"/>
<text text-anchor="start" x="444.54" y="-354.12" font-family="Helvetica,sans-Serif" font-size="10.00">use_conditional</text>
<polygon fill="none" stroke="red" points="522.79,-358 522.79,-379 565.79,-379 565.79,-358 522.79,-358"/>
<text text-anchor="start" x="527.41" y="-364.5" font-family="Helvetica,sans-Serif" font-size="10.00">positive</text>
<polygon fill="none" stroke="red" points="522.79,-337 522.79,-358 565.79,-358 565.79,-337 522.79,-337"/>
<text text-anchor="start" x="537.91" y="-343.5" font-family="Helvetica,sans-Serif" font-size="10.00">acl</text>
</g>
<!-- id&#45;&gt;dependency236014 -->
<g id="edge7" class="edge">
<title>id:e&#45;&gt;dependency236014:w</title>
<path fill="none" stroke="black" d="M317.53,-227C389.71,-227 352.93,-347.47 416.18,-357.36"/>
<ellipse fill="none" stroke="black" cx="420.37" cy="-357.67" rx="4" ry="4"/>
</g>
<!-- dependency236019 -->
<g id="node9" class="node">
<title>dependency236019</title>
<polygon fill="none" stroke="blue" points="951.29,-43.5 951.29,-148.5 1055.29,-148.5 1055.29,-43.5 951.29,-43.5"/>
<text text-anchor="start" x="982.29" y="-92.12" font-family="Helvetica,sans-Serif" font-size="10.00">pack_dep</text>
<polygon fill="none" stroke="blue" points="1055.29,-127.5 1055.29,-148.5 1165.29,-148.5 1165.29,-127.5 1055.29,-127.5"/>
<text text-anchor="start" x="1103.54" y="-134" font-family="Helvetica,sans-Serif" font-size="10.00">run</text>
<polygon fill="none" stroke="blue" points="1055.29,-106.5 1055.29,-127.5 1165.29,-127.5 1165.29,-106.5 1055.29,-106.5"/>
<text text-anchor="start" x="1097.16" y="-113" font-family="Helvetica,sans-Serif" font-size="10.00">virtual</text>
<polygon fill="none" stroke="blue" points="1055.29,-85.5 1055.29,-106.5 1165.29,-106.5 1165.29,-85.5 1055.29,-85.5"/>
<text text-anchor="start" x="1099.79" y="-92" font-family="Helvetica,sans-Serif" font-size="10.00">udev</text>
<polygon fill="none" stroke="blue" points="1055.29,-64.5 1055.29,-85.5 1165.29,-85.5 1165.29,-64.5 1055.29,-64.5"/>
<text text-anchor="start" x="1099.79" y="-71" font-family="Helvetica,sans-Serif" font-size="10.00">none</text>
<polygon fill="none" stroke="blue" points="1055.29,-43.5 1055.29,-64.5 1165.29,-64.5 1165.29,-43.5 1055.29,-43.5"/>
<text text-anchor="start" x="1104.29" y="-50" font-family="Helvetica,sans-Serif" font-size="10.00">[,,]</text>
</g>
<!-- id&#45;&gt;dependency236019 -->
<g id="edge8" class="edge">
<title>id:e&#45;&gt;dependency236019:w</title>
<path fill="none" stroke="black" d="M317.53,-227C360.6,-227 366.76,-204.44 408.29,-193 638.41,-129.58 700.13,-96.81 934.52,-96.01"/>
<ellipse fill="none" stroke="black" cx="938.79" cy="-96.01" rx="4" ry="4"/>
</g>
<!-- dependency236013 -->
<g id="node3" class="node">
<title>dependency236013</title>
<polygon fill="none" stroke="blue" points="951.29,-174.5 951.29,-279.5 1055.29,-279.5 1055.29,-174.5 951.29,-174.5"/>
<text text-anchor="start" x="982.29" y="-223.12" font-family="Helvetica,sans-Serif" font-size="10.00">pack_dep</text>
<polygon fill="none" stroke="blue" points="1055.29,-258.5 1055.29,-279.5 1165.29,-279.5 1165.29,-258.5 1055.29,-258.5"/>
<text text-anchor="start" x="1103.54" y="-265" font-family="Helvetica,sans-Serif" font-size="10.00">run</text>
<polygon fill="none" stroke="blue" points="1055.29,-237.5 1055.29,-258.5 1165.29,-258.5 1165.29,-237.5 1055.29,-237.5"/>
<text text-anchor="start" x="1087.41" y="-244" font-family="Helvetica,sans-Serif" font-size="10.00">acct&#45;group</text>
<polygon fill="none" stroke="blue" points="1055.29,-216.5 1055.29,-237.5 1165.29,-237.5 1165.29,-216.5 1055.29,-216.5"/>
<text text-anchor="start" x="1099.79" y="-223" font-family="Helvetica,sans-Serif" font-size="10.00">input</text>
<polygon fill="none" stroke="blue" points="1055.29,-195.5 1055.29,-216.5 1165.29,-216.5 1165.29,-195.5 1055.29,-195.5"/>
<text text-anchor="start" x="1099.79" y="-202" font-family="Helvetica,sans-Serif" font-size="10.00">none</text>
<polygon fill="none" stroke="blue" points="1055.29,-174.5 1055.29,-195.5 1165.29,-195.5 1165.29,-174.5 1055.29,-174.5"/>
<text text-anchor="start" x="1104.29" y="-181" font-family="Helvetica,sans-Serif" font-size="10.00">[,,]</text>
</g>
<!-- dependency236012&#45;&gt;dependency236013 -->
<g id="edge1" class="edge">
<title>dependency236012:e&#45;&gt;dependency236013:w</title>
<path fill="none" stroke="black" stroke-dasharray="5,2" d="M575.29,-227C735.17,-227 777.83,-227 932.45,-227"/>
<polygon fill="black" stroke="black" points="942.07,-227 932.07,-231.5 938.29,-227 932.07,-227 932.07,-227 932.07,-227 938.29,-227 932.07,-222.5 942.07,-227"/>
</g>
<!-- choice979999116451031141111171124710511011211711645484511451 -->
<g id="node10" class="node">
<title>choice979999116451031141111171124710511011211711645484511451</title>
<g id="a_node10"><a xlink:href="../acct-group/input-0-r3.svg" xlink:title="portage://acct&#45;group/input&#45;0&#45;r3">
<ellipse fill="none" stroke="red" cx="1431.29" cy="-88" rx="144" ry="18"/>
<text text-anchor="middle" x="1431.29" y="-84.12" font-family="Helvetica,sans-Serif" font-size="10.00">portage://acct&#45;group/input&#45;0&#45;r3</text>
</a>
</g>
</g>
<!-- dependency236013&#45;&gt;choice979999116451031141111171124710511011211711645484511451 -->
<g id="edge9" class="edge">
<title>dependency236013:e&#45;&gt;choice979999116451031141111171124710511011211711645484511451:w</title>
<path fill="none" stroke="black" stroke-dasharray="1,5" d="M1180.17,-227C1253.89,-227 1213.09,-101.76 1275.17,-89.04"/>
<polygon fill="black" stroke="black" points="1284.84,-88.12 1275.31,-93.55 1281.07,-88.48 1274.88,-89.07 1274.88,-89.07 1274.88,-89.07 1281.07,-88.48 1274.46,-84.59 1284.84,-88.12"/>
</g>
<!-- dependency236015 -->
<g id="node5" class="node">
<title>dependency236015</title>
<polygon fill="none" stroke="red" points="693.29,-436 693.29,-478 782.29,-478 782.29,-436 693.29,-436"/>
<text text-anchor="start" x="704.04" y="-453.12" font-family="Helvetica,sans-Serif" font-size="10.00">use_conditional</text>
<polygon fill="none" stroke="red" points="782.29,-457 782.29,-478 825.29,-478 825.29,-457 782.29,-457"/>
<text text-anchor="start" x="786.91" y="-463.5" font-family="Helvetica,sans-Serif" font-size="10.00">positive</text>
<polygon fill="none" stroke="red" points="782.29,-436 782.29,-457 825.29,-457 825.29,-436 782.29,-436"/>
<text text-anchor="start" x="788.41" y="-442.5" font-family="Helvetica,sans-Serif" font-size="10.00">elogind</text>
</g>
<!-- dependency236014&#45;&gt;dependency236015 -->
<g id="edge4" class="edge">
<title>dependency236014:e&#45;&gt;dependency236015:w</title>
<path fill="none" stroke="black" stroke-dasharray="5,2" d="M574.72,-358C636.4,-358 621.01,-445.37 673.35,-455.96"/>
<polygon fill="black" stroke="black" points="683.14,-456.88 672.76,-460.42 679.38,-456.53 673.19,-455.94 673.19,-455.94 673.19,-455.94 679.38,-456.53 673.61,-451.46 683.14,-456.88"/>
</g>
<!-- dependency236017 -->
<g id="node7" class="node">
<title>dependency236017</title>
<polygon fill="none" stroke="red" points="691.29,-337 691.29,-379 780.29,-379 780.29,-337 691.29,-337"/>
<text text-anchor="start" x="702.04" y="-354.12" font-family="Helvetica,sans-Serif" font-size="10.00">use_conditional</text>
<polygon fill="none" stroke="red" points="780.29,-358 780.29,-379 827.29,-379 827.29,-358 780.29,-358"/>
<text text-anchor="start" x="786.91" y="-364.5" font-family="Helvetica,sans-Serif" font-size="10.00">positive</text>
<polygon fill="none" stroke="red" points="780.29,-337 780.29,-358 827.29,-358 827.29,-337 780.29,-337"/>
<text text-anchor="start" x="785.04" y="-343.5" font-family="Helvetica,sans-Serif" font-size="10.00">systemd</text>
</g>
<!-- dependency236014&#45;&gt;dependency236017 -->
<g id="edge6" class="edge">
<title>dependency236014:e&#45;&gt;dependency236017:w</title>
<path fill="none" stroke="black" stroke-dasharray="5,2" d="M574.72,-358C619.01,-358 632.81,-358 672.1,-358"/>
<polygon fill="black" stroke="black" points="682.07,-358 672.07,-362.5 678.29,-358 672.07,-358 672.07,-358 672.07,-358 678.29,-358 672.07,-353.5 682.07,-358"/>
</g>
<!-- dependency236016 -->
<g id="node6" class="node">
<title>dependency236016</title>
<polygon fill="none" stroke="blue" points="951.29,-436.5 951.29,-541.5 1055.29,-541.5 1055.29,-436.5 951.29,-436.5"/>
<text text-anchor="start" x="982.29" y="-485.12" font-family="Helvetica,sans-Serif" font-size="10.00">pack_dep</text>
<polygon fill="none" stroke="blue" points="1055.29,-520.5 1055.29,-541.5 1165.29,-541.5 1165.29,-520.5 1055.29,-520.5"/>
<text text-anchor="start" x="1103.54" y="-527" font-family="Helvetica,sans-Serif" font-size="10.00">run</text>
<polygon fill="none" stroke="blue" points="1055.29,-499.5 1055.29,-520.5 1165.29,-520.5 1165.29,-499.5 1055.29,-499.5"/>
<text text-anchor="start" x="1091.54" y="-506" font-family="Helvetica,sans-Serif" font-size="10.00">sys&#45;auth</text>
<polygon fill="none" stroke="blue" points="1055.29,-478.5 1055.29,-499.5 1165.29,-499.5 1165.29,-478.5 1055.29,-478.5"/>
<text text-anchor="start" x="1094.91" y="-485" font-family="Helvetica,sans-Serif" font-size="10.00">elogind</text>
<polygon fill="none" stroke="blue" points="1055.29,-457.5 1055.29,-478.5 1165.29,-478.5 1165.29,-457.5 1055.29,-457.5"/>
<text text-anchor="start" x="1099.79" y="-464" font-family="Helvetica,sans-Serif" font-size="10.00">none</text>
<polygon fill="none" stroke="blue" points="1055.29,-436.5 1055.29,-457.5 1165.29,-457.5 1165.29,-436.5 1055.29,-436.5"/>
<text text-anchor="start" x="1104.29" y="-443" font-family="Helvetica,sans-Serif" font-size="10.00">[,,]</text>
</g>
<!-- dependency236015&#45;&gt;dependency236016 -->
<g id="edge3" class="edge">
<title>dependency236015:e&#45;&gt;dependency236016:w</title>
<path fill="none" stroke="black" stroke-dasharray="5,2" d="M834.22,-457C880.79,-457 891.25,-484.2 932.18,-488.44"/>
<polygon fill="black" stroke="black" points="942.07,-488.94 931.86,-492.93 938.29,-488.75 932.08,-488.44 932.08,-488.44 932.08,-488.44 938.29,-488.75 932.31,-483.95 942.07,-488.94"/>
</g>
<!-- choice1151211154597117116104471011081111031051101004550535046574511450 -->
<g id="node11" class="node">
<title>choice1151211154597117116104471011081111031051101004550535046574511450</title>
<g id="a_node11"><a xlink:href="../sys-auth/elogind-252.9-r2.svg" xlink:title="portage://sys&#45;auth/elogind&#45;252.9&#45;r2">
<ellipse fill="none" stroke="red" cx="1431.29" cy="-682" rx="144" ry="18"/>
<text text-anchor="middle" x="1431.29" y="-678.12" font-family="Helvetica,sans-Serif" font-size="10.00">portage://sys&#45;auth/elogind&#45;252.9&#45;r2</text>
</a>
</g>
</g>
<!-- dependency236016&#45;&gt;choice1151211154597117116104471011081111031051101004550535046574511450 -->
<g id="edge10" class="edge">
<title>dependency236016:e&#45;&gt;choice1151211154597117116104471011081111031051101004550535046574511450:w</title>
<path fill="none" stroke="black" stroke-dasharray="1,5" d="M1180.17,-489C1274,-489 1195.26,-666.49 1274.93,-681.05"/>
<polygon fill="black" stroke="black" points="1284.84,-681.9 1274.49,-685.53 1281.07,-681.58 1274.87,-681.05 1274.87,-681.05 1274.87,-681.05 1281.07,-681.58 1275.26,-676.56 1284.84,-681.9"/>
</g>
<!-- choice115121115459711711610447101108111103105110100455052544649484511452 -->
<g id="node12" class="node">
<title>choice115121115459711711610447101108111103105110100455052544649484511452</title>
<g id="a_node12"><a xlink:href="../sys-auth/elogind-246.10-r4.svg" xlink:title="portage://sys&#45;auth/elogind&#45;246.10&#45;r4">
<ellipse fill="none" stroke="red" cx="1431.29" cy="-628" rx="144" ry="18"/>
<text text-anchor="middle" x="1431.29" y="-624.12" font-family="Helvetica,sans-Serif" font-size="10.00">portage://sys&#45;auth/elogind&#45;246.10&#45;r4</text>
</a>
</g>
</g>
<!-- dependency236016&#45;&gt;choice115121115459711711610447101108111103105110100455052544649484511452 -->
<g id="edge11" class="edge">
<title>dependency236016:e&#45;&gt;choice115121115459711711610447101108111103105110100455052544649484511452:w</title>
<path fill="none" stroke="black" stroke-dasharray="1,5" d="M1180.17,-489C1253.89,-489 1213.09,-614.24 1275.17,-626.96"/>
<polygon fill="black" stroke="black" points="1284.84,-627.88 1274.46,-631.41 1281.07,-627.52 1274.88,-626.93 1274.88,-626.93 1274.88,-626.93 1281.07,-627.52 1275.31,-622.45 1284.84,-627.88"/>
</g>
<!-- dependency236018 -->
<g id="node8" class="node">
<title>dependency236018</title>
<polygon fill="none" stroke="blue" points="951.29,-305.5 951.29,-410.5 1055.29,-410.5 1055.29,-305.5 951.29,-305.5"/>
<text text-anchor="start" x="982.29" y="-354.12" font-family="Helvetica,sans-Serif" font-size="10.00">pack_dep</text>
<polygon fill="none" stroke="blue" points="1055.29,-389.5 1055.29,-410.5 1165.29,-410.5 1165.29,-389.5 1055.29,-389.5"/>
<text text-anchor="start" x="1103.54" y="-396" font-family="Helvetica,sans-Serif" font-size="10.00">run</text>
<polygon fill="none" stroke="blue" points="1055.29,-368.5 1055.29,-389.5 1165.29,-389.5 1165.29,-368.5 1055.29,-368.5"/>
<text text-anchor="start" x="1090.41" y="-375" font-family="Helvetica,sans-Serif" font-size="10.00">sys&#45;apps</text>
<polygon fill="none" stroke="blue" points="1055.29,-347.5 1055.29,-368.5 1165.29,-368.5 1165.29,-347.5 1055.29,-347.5"/>
<text text-anchor="start" x="1091.54" y="-354" font-family="Helvetica,sans-Serif" font-size="10.00">systemd</text>
<polygon fill="none" stroke="blue" points="1055.29,-326.5 1055.29,-347.5 1165.29,-347.5 1165.29,-326.5 1055.29,-326.5"/>
<text text-anchor="start" x="1099.79" y="-333" font-family="Helvetica,sans-Serif" font-size="10.00">none</text>
<polygon fill="none" stroke="blue" points="1055.29,-305.5 1055.29,-326.5 1165.29,-326.5 1165.29,-305.5 1055.29,-305.5"/>
<text text-anchor="start" x="1104.29" y="-312" font-family="Helvetica,sans-Serif" font-size="10.00">[,,]</text>
</g>
<!-- dependency236017&#45;&gt;dependency236018 -->
<g id="edge5" class="edge">
<title>dependency236017:e&#45;&gt;dependency236018:w</title>
<path fill="none" stroke="black" stroke-dasharray="5,2" d="M835.29,-358C879.35,-358 893.07,-358 932.16,-358"/>
<polygon fill="black" stroke="black" points="942.07,-358 932.07,-362.5 938.29,-358 932.07,-358 932.07,-358 932.07,-358 938.29,-358 932.07,-353.5 942.07,-358"/>
</g>
<!-- choice1151211154597112112115471151211151161011091004557575757 -->
<g id="node13" class="node">
<title>choice1151211154597112112115471151211151161011091004557575757</title>
<g id="a_node13"><a xlink:href="../sys-apps/systemd-9999.svg" xlink:title="portage://sys&#45;apps/systemd&#45;9999">
<ellipse fill="none" stroke="red" cx="1431.29" cy="-520" rx="144" ry="18"/>
<text text-anchor="middle" x="1431.29" y="-516.12" font-family="Helvetica,sans-Serif" font-size="10.00">portage://sys&#45;apps/systemd&#45;9999</text>
</a>
</g>
</g>
<!-- dependency236018&#45;&gt;choice1151211154597112112115471151211151161011091004557575757 -->
<g id="edge12" class="edge">
<title>dependency236018:e&#45;&gt;choice1151211154597112112115471151211151161011091004557575757:w</title>
<path fill="none" stroke="black" stroke-dasharray="1,5" d="M1180.17,-358C1262.16,-358 1205.91,-505.17 1274.93,-518.97"/>
<polygon fill="black" stroke="black" points="1284.84,-519.89 1274.46,-523.44 1281.07,-519.54 1274.88,-518.96 1274.88,-518.96 1274.88,-518.96 1281.07,-519.54 1275.3,-514.48 1284.84,-519.89"/>
</g>
<!-- choice115121115459711211211547115121115116101109100455053544650 -->
<g id="node14" class="node">
<title>choice115121115459711211211547115121115116101109100455053544650</title>
<g id="a_node14"><a xlink:href="../sys-apps/systemd-256.2.svg" xlink:title="portage://sys&#45;apps/systemd&#45;256.2">
<ellipse fill="none" stroke="red" cx="1431.29" cy="-574" rx="144" ry="18"/>
<text text-anchor="middle" x="1431.29" y="-570.12" font-family="Helvetica,sans-Serif" font-size="10.00">portage://sys&#45;apps/systemd&#45;256.2</text>
</a>
</g>
</g>
<!-- dependency236018&#45;&gt;choice115121115459711211211547115121115116101109100455053544650 -->
<g id="edge13" class="edge">
<title>dependency236018:e&#45;&gt;choice115121115459711211211547115121115116101109100455053544650:w</title>
<path fill="none" stroke="black" stroke-dasharray="1,5" d="M1180.17,-358C1283.12,-358 1186.85,-558.27 1275.01,-573.13"/>
<polygon fill="black" stroke="black" points="1284.84,-573.9 1274.51,-577.6 1281.07,-573.61 1274.87,-573.12 1274.87,-573.12 1274.87,-573.12 1281.07,-573.61 1275.22,-568.63 1284.84,-573.9"/>
</g>
<!-- choice1151211154597112112115471151211151161011091004550535446494511451 -->
<g id="node15" class="node">
<title>choice1151211154597112112115471151211151161011091004550535446494511451</title>
<g id="a_node15"><a xlink:href="../sys-apps/systemd-256.1-r3.svg" xlink:title="portage://sys&#45;apps/systemd&#45;256.1&#45;r3">
<ellipse fill="none" stroke="red" cx="1431.29" cy="-142" rx="144" ry="18"/>
<text text-anchor="middle" x="1431.29" y="-138.12" font-family="Helvetica,sans-Serif" font-size="10.00">portage://sys&#45;apps/systemd&#45;256.1&#45;r3</text>
</a>
</g>
</g>
<!-- dependency236018&#45;&gt;choice1151211154597112112115471151211151161011091004550535446494511451 -->
<g id="edge14" class="edge">
<title>dependency236018:e&#45;&gt;choice1151211154597112112115471151211151161011091004550535446494511451:w</title>
<path fill="none" stroke="black" stroke-dasharray="1,5" d="M1180.17,-358C1283.12,-358 1186.85,-157.73 1275.01,-142.87"/>
<polygon fill="black" stroke="black" points="1284.84,-142.1 1275.22,-147.37 1281.07,-142.39 1274.87,-142.88 1274.87,-142.88 1274.87,-142.88 1281.07,-142.39 1274.51,-138.4 1284.84,-142.1"/>
</g>
<!-- choice115121115459711211211547115121115116101109100455053534657 -->
<g id="node16" class="node">
<title>choice115121115459711211211547115121115116101109100455053534657</title>
<g id="a_node16"><a xlink:href="../sys-apps/systemd-255.9.svg" xlink:title="portage://sys&#45;apps/systemd&#45;255.9">
<ellipse fill="none" stroke="red" cx="1431.29" cy="-196" rx="144" ry="18"/>
<text text-anchor="middle" x="1431.29" y="-192.12" font-family="Helvetica,sans-Serif" font-size="10.00">portage://sys&#45;apps/systemd&#45;255.9</text>
</a>
</g>
</g>
<!-- dependency236018&#45;&gt;choice115121115459711211211547115121115116101109100455053534657 -->
<g id="edge15" class="edge">
<title>dependency236018:e&#45;&gt;choice115121115459711211211547115121115116101109100455053534657:w</title>
<path fill="none" stroke="black" stroke-dasharray="1,5" d="M1180.17,-358C1262.16,-358 1205.91,-210.83 1274.93,-197.03"/>
<polygon fill="black" stroke="black" points="1284.84,-196.11 1275.3,-201.52 1281.07,-196.46 1274.88,-197.04 1274.88,-197.04 1274.88,-197.04 1281.07,-196.46 1274.46,-192.56 1284.84,-196.11"/>
</g>
<!-- choice115121115459711211211547115121115116101109100455053534656 -->
<g id="node17" class="node">
<title>choice115121115459711211211547115121115116101109100455053534656</title>
<g id="a_node17"><a xlink:href="../sys-apps/systemd-255.8.svg" xlink:title="portage://sys&#45;apps/systemd&#45;255.8">
<ellipse fill="none" stroke="red" cx="1431.29" cy="-250" rx="144" ry="18"/>
<text text-anchor="middle" x="1431.29" y="-246.12" font-family="Helvetica,sans-Serif" font-size="10.00">portage://sys&#45;apps/systemd&#45;255.8</text>
</a>
</g>
</g>
<!-- dependency236018&#45;&gt;choice115121115459711211211547115121115116101109100455053534656 -->
<g id="edge16" class="edge">
<title>dependency236018:e&#45;&gt;choice115121115459711211211547115121115116101109100455053534656:w</title>
<path fill="none" stroke="black" stroke-dasharray="1,5" d="M1180.17,-358C1243.45,-358 1221.85,-262.29 1275.18,-251.07"/>
<polygon fill="black" stroke="black" points="1284.84,-250.12 1275.33,-255.58 1281.08,-250.49 1274.89,-251.1 1274.89,-251.1 1274.89,-251.1 1281.08,-250.49 1274.45,-246.62 1284.84,-250.12"/>
</g>
<!-- choice1151211154597112112115471151211151161011091004550535346554511449 -->
<g id="node18" class="node">
<title>choice1151211154597112112115471151211151161011091004550535346554511449</title>
<g id="a_node18"><a xlink:href="../sys-apps/systemd-255.7-r1.svg" xlink:title="portage://sys&#45;apps/systemd&#45;255.7&#45;r1">
<ellipse fill="none" stroke="red" cx="1431.29" cy="-304" rx="144" ry="18"/>
<text text-anchor="middle" x="1431.29" y="-300.12" font-family="Helvetica,sans-Serif" font-size="10.00">portage://sys&#45;apps/systemd&#45;255.7&#45;r1</text>
</a>
</g>
</g>
<!-- dependency236018&#45;&gt;choice1151211154597112112115471151211151161011091004550535346554511449 -->
<g id="edge17" class="edge">
<title>dependency236018:e&#45;&gt;choice1151211154597112112115471151211151161011091004550535346554511449:w</title>
<path fill="none" stroke="black" stroke-dasharray="1,5" d="M1180.17,-358C1229.08,-358 1232.9,-311.72 1275.12,-304.85"/>
<polygon fill="black" stroke="black" points="1284.84,-304.09 1275.21,-309.35 1281.07,-304.39 1274.87,-304.87 1274.87,-304.87 1274.87,-304.87 1281.07,-304.39 1274.52,-300.38 1284.84,-304.09"/>
</g>
<!-- choice11512111545971121121154711512111511610110910045505352464953 -->
<g id="node19" class="node">
<title>choice11512111545971121121154711512111511610110910045505352464953</title>
<g id="a_node19"><a xlink:href="../sys-apps/systemd-254.15.svg" xlink:title="portage://sys&#45;apps/systemd&#45;254.15">
<ellipse fill="none" stroke="red" cx="1431.29" cy="-358" rx="144" ry="18"/>
<text text-anchor="middle" x="1431.29" y="-354.12" font-family="Helvetica,sans-Serif" font-size="10.00">portage://sys&#45;apps/systemd&#45;254.15</text>
</a>
</g>
</g>
<!-- dependency236018&#45;&gt;choice11512111545971121121154711512111511610110910045505352464953 -->
<g id="edge18" class="edge">
<title>dependency236018:e&#45;&gt;choice11512111545971121121154711512111511610110910045505352464953:w</title>
<path fill="none" stroke="black" stroke-dasharray="1,5" d="M1180.17,-358C1223.37,-358 1236.83,-358 1275.14,-358"/>
<polygon fill="black" stroke="black" points="1284.83,-358 1274.83,-362.5 1281.05,-358 1274.83,-358 1274.83,-358 1274.83,-358 1281.05,-358 1274.83,-353.5 1284.83,-358"/>
</g>
<!-- choice11512111545971121121154711512111511610110910045505352464952 -->
<g id="node20" class="node">
<title>choice11512111545971121121154711512111511610110910045505352464952</title>
<g id="a_node20"><a xlink:href="../sys-apps/systemd-254.14.svg" xlink:title="portage://sys&#45;apps/systemd&#45;254.14">
<ellipse fill="none" stroke="red" cx="1431.29" cy="-412" rx="144" ry="18"/>
<text text-anchor="middle" x="1431.29" y="-408.12" font-family="Helvetica,sans-Serif" font-size="10.00">portage://sys&#45;apps/systemd&#45;254.14</text>
</a>
</g>
</g>
<!-- dependency236018&#45;&gt;choice11512111545971121121154711512111511610110910045505352464952 -->
<g id="edge19" class="edge">
<title>dependency236018:e&#45;&gt;choice11512111545971121121154711512111511610110910045505352464952:w</title>
<path fill="none" stroke="black" stroke-dasharray="1,5" d="M1180.17,-358C1229.08,-358 1232.9,-404.28 1275.12,-411.15"/>
<polygon fill="black" stroke="black" points="1284.84,-411.91 1274.52,-415.62 1281.07,-411.61 1274.87,-411.13 1274.87,-411.13 1274.87,-411.13 1281.07,-411.61 1275.21,-406.65 1284.84,-411.91"/>
</g>
<!-- choice11512111545971121121154711512111511610110910045505352464951 -->
<g id="node21" class="node">
<title>choice11512111545971121121154711512111511610110910045505352464951</title>
<g id="a_node21"><a xlink:href="../sys-apps/systemd-254.13.svg" xlink:title="portage://sys&#45;apps/systemd&#45;254.13">
<ellipse fill="none" stroke="red" cx="1431.29" cy="-466" rx="144" ry="18"/>
<text text-anchor="middle" x="1431.29" y="-462.12" font-family="Helvetica,sans-Serif" font-size="10.00">portage://sys&#45;apps/systemd&#45;254.13</text>
</a>
</g>
</g>
<!-- dependency236018&#45;&gt;choice11512111545971121121154711512111511610110910045505352464951 -->
<g id="edge20" class="edge">
<title>dependency236018:e&#45;&gt;choice11512111545971121121154711512111511610110910045505352464951:w</title>
<path fill="none" stroke="black" stroke-dasharray="1,5" d="M1180.17,-358C1243.45,-358 1221.85,-453.71 1275.18,-464.93"/>
<polygon fill="black" stroke="black" points="1284.84,-465.88 1274.45,-469.38 1281.08,-465.51 1274.89,-464.9 1274.89,-464.9 1274.89,-464.9 1281.08,-465.51 1275.33,-460.42 1284.84,-465.88"/>
</g>
<!-- choice1181051141161179710847117100101118455049554511455 -->
<g id="node22" class="node">
<title>choice1181051141161179710847117100101118455049554511455</title>
<g id="a_node22"><a xlink:href="../virtual/udev-217-r7.svg" xlink:title="portage://virtual/udev&#45;217&#45;r7">
<ellipse fill="none" stroke="red" cx="1431.29" cy="-34" rx="144" ry="18"/>
<text text-anchor="middle" x="1431.29" y="-30.12" font-family="Helvetica,sans-Serif" font-size="10.00">portage://virtual/udev&#45;217&#45;r7</text>
</a>
</g>
</g>
<!-- dependency236019&#45;&gt;choice1181051141161179710847117100101118455049554511455 -->
<g id="edge21" class="edge">
<title>dependency236019:e&#45;&gt;choice1181051141161179710847117100101118455049554511455:w</title>
<path fill="none" stroke="black" stroke-dasharray="1,5" d="M1180.17,-96C1230.76,-96 1231.68,-42.64 1275.09,-34.92"/>
<polygon fill="black" stroke="black" points="1284.84,-34.1 1275.25,-39.43 1281.07,-34.42 1274.87,-34.94 1274.87,-34.94 1274.87,-34.94 1281.07,-34.42 1274.49,-30.46 1284.84,-34.1"/>
</g>
</g>
</svg>
