<?xml version="1.0" encoding="UTF-8" standalone="no"?>
<!DOCTYPE svg PUBLIC "-//W3C//DTD SVG 1.1//EN"
 "http://www.w3.org/Graphics/SVG/1.1/DTD/svg11.dtd">
<!-- Generated by graphviz version 2.40.1 (20161225.0304)
 -->
<!-- Title: prolog Pages: 1 -->
<svg width="1068pt" height="1168pt"
 viewBox="0.00 0.00 1068.00 1168.00" xmlns="http://www.w3.org/2000/svg" xmlns:xlink="http://www.w3.org/1999/xlink">
<g id="graph0" class="graph" transform="scale(1 1) rotate(0) translate(4 1164)">
<title>prolog</title>
<polygon fill="#ffffff" stroke="transparent" points="-4,4 -4,-1164 1064,-1164 1064,4 -4,4"/>
<g id="clust1" class="cluster">
<title>cluster_leftcol</title>
<polygon fill="none" stroke="#c0c0c0" points="8,-559 8,-631 312,-631 312,-559 8,-559"/>
<text text-anchor="start" x="146.663" y="-619" font-family="Helvetica,sans-Serif" font-style="italic" font-size="10.00" fill="#000000">ebuild</text>
</g>
<g id="clust2" class="cluster">
<title>cluster_midcol</title>
<polygon fill="none" stroke="#c0c0c0" points="396,-8 396,-1152 664,-1152 664,-8 396,-8"/>
<text text-anchor="start" x="498.875" y="-1140" font-family="Helvetica,sans-Serif" font-style="italic" font-size="10.00" fill="#000000">dependencies</text>
</g>
<g id="clust3" class="cluster">
<title>cluster_compile</title>
<polygon fill="#eeeeee" stroke="#c0c0c0" points="404,-450 404,-1124 656,-1124 656,-450 404,-450"/>
<text text-anchor="start" x="512.778" y="-1112" font-family="Helvetica,sans-Serif" font-style="italic" font-size="10.00" fill="#000000">compile</text>
</g>
<g id="clust10" class="cluster">
<title>cluster_run</title>
<polygon fill="#eeeeee" stroke="#c0c0c0" points="404,-16 404,-442 656,-442 656,-16 404,-16"/>
<text text-anchor="start" x="522.7765" y="-430" font-family="Helvetica,sans-Serif" font-style="italic" font-size="10.00" fill="#000000">run</text>
</g>
<g id="clust14" class="cluster">
<title>cluster_choices</title>
<polygon fill="none" stroke="#c0c0c0" points="748,-57 748,-1089 1052,-1089 1052,-57 748,-57"/>
<text text-anchor="start" x="875.824" y="-1077" font-family="Helvetica,sans-Serif" font-style="italic" font-size="10.00" fill="#000000">candidates</text>
</g>
<!-- id -->
<g id="node1" class="node">
<title>id</title>
<g id="a_node1"><a xlink:href="../xfce-extra/thunar-shares-plugin-0.3.0.svg" xlink:title="portage://xfce&#45;extra/thunar&#45;shares&#45;plugin&#45;0.3.0">
<ellipse fill="none" stroke="#ff0000" cx="160" cy="-585" rx="144" ry="18"/>
<text text-anchor="middle" x="160" y="-582" font-family="Helvetica,sans-Serif" font-size="10.00" fill="#000000">portage://xfce&#45;extra/thunar&#45;shares&#45;plugin&#45;0.3.0</text>
</a>
</g>
</g>
<!-- dependency442 -->
<g id="node2" class="node">
<title>dependency442</title>
<polygon fill="none" stroke="#0000ff" points="420,-462 420,-572 525,-572 525,-462 420,-462"/>
<text text-anchor="start" x="450.823" y="-514" font-family="Helvetica,sans-Serif" font-size="10.00" fill="#000000">pack_dep</text>
<polygon fill="none" stroke="#0000ff" points="525,-550 525,-572 635,-572 635,-550 525,-550"/>
<text text-anchor="start" x="574.441" y="-558" font-family="Helvetica,sans-Serif" font-size="10.00" fill="#000000">no</text>
<polygon fill="none" stroke="#0000ff" points="525,-528 525,-550 635,-550 635,-528 525,-528"/>
<text text-anchor="start" x="562.778" y="-536" font-family="Helvetica,sans-Serif" font-size="10.00" fill="#000000">dev&#45;libs</text>
<polygon fill="none" stroke="#0000ff" points="525,-506 525,-528 635,-528 635,-506 525,-506"/>
<text text-anchor="start" x="572.222" y="-514" font-family="Helvetica,sans-Serif" font-size="10.00" fill="#000000">glib</text>
<polygon fill="none" stroke="#0000ff" points="525,-484 525,-506 635,-506 635,-484 525,-484"/>
<text text-anchor="start" x="551.936" y="-492" font-family="Helvetica,sans-Serif" font-size="10.00" fill="#000000">greaterequal</text>
<polygon fill="none" stroke="#0000ff" points="525,-462 525,-484 635,-484 635,-462 525,-462"/>
<text text-anchor="start" x="570.272" y="-470" font-family="Helvetica,sans-Serif" font-size="10.00" fill="#000000">2.18</text>
</g>
<!-- id&#45;&gt;dependency442 -->
<g id="edge1" class="edge">
<title>id:e&#45;&gt;dependency442:w</title>
<path fill="none" stroke="#000000" d="M304,-585C357.0661,-585 355.7215,-525.4831 401.7737,-517.811"/>
<polygon fill="#000000" stroke="#000000" points="412,-517 402.3871,-522.2766 407.0157,-517.3954 402.0313,-517.7907 402.0313,-517.7907 402.0313,-517.7907 407.0157,-517.3954 401.6755,-513.3048 412,-517 412,-517"/>
</g>
<!-- dependency443 -->
<g id="node3" class="node">
<title>dependency443</title>
<polygon fill="none" stroke="#0000ff" points="420,-870 420,-968 525,-968 525,-870 420,-870"/>
<text text-anchor="start" x="450.823" y="-916" font-family="Helvetica,sans-Serif" font-size="10.00" fill="#000000">pack_dep</text>
<polygon fill="none" stroke="#0000ff" points="525,-946 525,-968 635,-968 635,-946 525,-946"/>
<text text-anchor="start" x="574.441" y="-954" font-family="Helvetica,sans-Serif" font-size="10.00" fill="#000000">no</text>
<polygon fill="none" stroke="#0000ff" points="525,-924 525,-946 635,-946 635,-924 525,-924"/>
<text text-anchor="start" x="563.8885" y="-932" font-family="Helvetica,sans-Serif" font-size="10.00" fill="#000000">dev&#45;util</text>
<polygon fill="none" stroke="#0000ff" points="525,-902 525,-924 635,-924 635,-902 525,-902"/>
<text text-anchor="start" x="565.554" y="-910" font-family="Helvetica,sans-Serif" font-size="10.00" fill="#000000">intltool</text>
<polygon fill="none" stroke="#0000ff" points="525,-880 525,-902 635,-902 635,-880 525,-880"/>
<text text-anchor="start" x="568.882" y="-888" font-family="Helvetica,sans-Serif" font-size="10.00" fill="#000000">none</text>
<polygon fill="none" stroke="#0000ff" points="525,-870 525,-880 635,-880 635,-870 525,-870"/>
</g>
<!-- id&#45;&gt;dependency443 -->
<g id="edge2" class="edge">
<title>id:e&#45;&gt;dependency443:w</title>
<path fill="none" stroke="#000000" d="M304,-585C456.3555,-585 265.3538,-903.5272 401.6145,-918.4582"/>
<polygon fill="#000000" stroke="#000000" points="412,-919 401.7791,-922.9728 407.0068,-918.7395 402.0136,-918.4789 402.0136,-918.4789 402.0136,-918.4789 407.0068,-918.7395 402.2481,-913.985 412,-919 412,-919"/>
</g>
<!-- dependency444 -->
<g id="node4" class="node">
<title>dependency444</title>
<polygon fill="none" stroke="#0000ff" points="420,-994 420,-1092 525,-1092 525,-994 420,-994"/>
<text text-anchor="start" x="450.823" y="-1040" font-family="Helvetica,sans-Serif" font-size="10.00" fill="#000000">pack_dep</text>
<polygon fill="none" stroke="#0000ff" points="525,-1070 525,-1092 635,-1092 635,-1070 525,-1070"/>
<text text-anchor="start" x="574.441" y="-1078" font-family="Helvetica,sans-Serif" font-size="10.00" fill="#000000">no</text>
<polygon fill="none" stroke="#0000ff" points="525,-1048 525,-1070 635,-1070 635,-1048 525,-1048"/>
<text text-anchor="start" x="566.668" y="-1056" font-family="Helvetica,sans-Serif" font-size="10.00" fill="#000000">virtual</text>
<polygon fill="none" stroke="#0000ff" points="525,-1026 525,-1048 635,-1048 635,-1026 525,-1026"/>
<text text-anchor="start" x="558.6035" y="-1034" font-family="Helvetica,sans-Serif" font-size="10.00" fill="#000000">pkgconfig</text>
<polygon fill="none" stroke="#0000ff" points="525,-1004 525,-1026 635,-1026 635,-1004 525,-1004"/>
<text text-anchor="start" x="568.882" y="-1012" font-family="Helvetica,sans-Serif" font-size="10.00" fill="#000000">none</text>
<polygon fill="none" stroke="#0000ff" points="525,-994 525,-1004 635,-1004 635,-994 525,-994"/>
</g>
<!-- id&#45;&gt;dependency444 -->
<g id="edge3" class="edge">
<title>id:e&#45;&gt;dependency444:w</title>
<path fill="none" stroke="#000000" d="M304,-585C509.5642,-585 213.3151,-1027.4795 401.7275,-1042.6033"/>
<polygon fill="#000000" stroke="#000000" points="412,-1043 401.8337,-1047.1106 407.0037,-1042.807 402.0074,-1042.614 402.0074,-1042.614 402.0074,-1042.614 407.0037,-1042.807 402.1812,-1038.1173 412,-1043 412,-1043"/>
</g>
<!-- dependency445 -->
<g id="node5" class="node">
<title>dependency445</title>
<polygon fill="none" stroke="#0000ff" points="420,-734 420,-844 525,-844 525,-734 420,-734"/>
<text text-anchor="start" x="450.823" y="-786" font-family="Helvetica,sans-Serif" font-size="10.00" fill="#000000">pack_dep</text>
<polygon fill="none" stroke="#0000ff" points="525,-822 525,-844 635,-844 635,-822 525,-822"/>
<text text-anchor="start" x="574.441" y="-830" font-family="Helvetica,sans-Serif" font-size="10.00" fill="#000000">no</text>
<polygon fill="none" stroke="#0000ff" points="525,-800 525,-822 635,-822 635,-800 525,-800"/>
<text text-anchor="start" x="562.778" y="-808" font-family="Helvetica,sans-Serif" font-size="10.00" fill="#000000">x11&#45;libs</text>
<polygon fill="none" stroke="#0000ff" points="525,-778 525,-800 635,-800 635,-778 525,-778"/>
<text text-anchor="start" x="570.4115" y="-786" font-family="Helvetica,sans-Serif" font-size="10.00" fill="#000000">gtk+</text>
<polygon fill="none" stroke="#0000ff" points="525,-756 525,-778 635,-778 635,-756 525,-756"/>
<text text-anchor="start" x="551.936" y="-764" font-family="Helvetica,sans-Serif" font-size="10.00" fill="#000000">greaterequal</text>
<polygon fill="none" stroke="#0000ff" points="525,-734 525,-756 635,-756 635,-734 525,-734"/>
<text text-anchor="start" x="570.272" y="-742" font-family="Helvetica,sans-Serif" font-size="10.00" fill="#000000">3.22</text>
</g>
<!-- id&#45;&gt;dependency445 -->
<g id="edge4" class="edge">
<title>id:e&#45;&gt;dependency445:w</title>
<path fill="none" stroke="#000000" d="M304,-585C402.9821,-585 315.9972,-774.9084 401.9034,-788.2613"/>
<polygon fill="#000000" stroke="#000000" points="412,-789 401.6983,-792.7582 407.0133,-788.6351 402.0267,-788.2702 402.0267,-788.2702 402.0267,-788.2702 407.0133,-788.6351 402.355,-783.7822 412,-789 412,-789"/>
</g>
<!-- dependency446 -->
<g id="node6" class="node">
<title>dependency446</title>
<polygon fill="none" stroke="#0000ff" points="420,-598 420,-708 525,-708 525,-598 420,-598"/>
<text text-anchor="start" x="450.823" y="-650" font-family="Helvetica,sans-Serif" font-size="10.00" fill="#000000">pack_dep</text>
<polygon fill="none" stroke="#0000ff" points="525,-686 525,-708 635,-708 635,-686 525,-686"/>
<text text-anchor="start" x="574.441" y="-694" font-family="Helvetica,sans-Serif" font-size="10.00" fill="#000000">no</text>
<polygon fill="none" stroke="#0000ff" points="525,-664 525,-686 635,-686 635,-664 525,-664"/>
<text text-anchor="start" x="558.328" y="-672" font-family="Helvetica,sans-Serif" font-size="10.00" fill="#000000">xfce&#45;base</text>
<polygon fill="none" stroke="#0000ff" points="525,-642 525,-664 635,-664 635,-642 525,-642"/>
<text text-anchor="start" x="565.828" y="-650" font-family="Helvetica,sans-Serif" font-size="10.00" fill="#000000">thunar</text>
<polygon fill="none" stroke="#0000ff" points="525,-620 525,-642 635,-642 635,-620 525,-620"/>
<text text-anchor="start" x="551.936" y="-628" font-family="Helvetica,sans-Serif" font-size="10.00" fill="#000000">greaterequal</text>
<polygon fill="none" stroke="#0000ff" points="525,-598 525,-620 635,-620 635,-598 525,-598"/>
<text text-anchor="start" x="573.0515" y="-606" font-family="Helvetica,sans-Serif" font-size="10.00" fill="#000000">1.7</text>
</g>
<!-- id&#45;&gt;dependency446 -->
<g id="edge5" class="edge">
<title>id:e&#45;&gt;dependency446:w</title>
<path fill="none" stroke="#000000" d="M304,-585C357.0661,-585 355.7215,-644.5169 401.7737,-652.189"/>
<polygon fill="#000000" stroke="#000000" points="412,-653 401.6755,-656.6952 407.0157,-652.6046 402.0313,-652.2093 402.0313,-652.2093 402.0313,-652.2093 407.0157,-652.6046 402.3871,-647.7234 412,-653 412,-653"/>
</g>
<!-- dependency447 -->
<g id="node7" class="node">
<title>dependency447</title>
<polygon fill="none" stroke="#0000ff" points="420,-28 420,-138 525,-138 525,-28 420,-28"/>
<text text-anchor="start" x="450.823" y="-80" font-family="Helvetica,sans-Serif" font-size="10.00" fill="#000000">pack_dep</text>
<polygon fill="none" stroke="#0000ff" points="525,-116 525,-138 635,-138 635,-116 525,-116"/>
<text text-anchor="start" x="574.441" y="-124" font-family="Helvetica,sans-Serif" font-size="10.00" fill="#000000">no</text>
<polygon fill="none" stroke="#0000ff" points="525,-94 525,-116 635,-116 635,-94 525,-94"/>
<text text-anchor="start" x="562.778" y="-102" font-family="Helvetica,sans-Serif" font-size="10.00" fill="#000000">dev&#45;libs</text>
<polygon fill="none" stroke="#0000ff" points="525,-72 525,-94 635,-94 635,-72 525,-72"/>
<text text-anchor="start" x="572.222" y="-80" font-family="Helvetica,sans-Serif" font-size="10.00" fill="#000000">glib</text>
<polygon fill="none" stroke="#0000ff" points="525,-50 525,-72 635,-72 635,-50 525,-50"/>
<text text-anchor="start" x="551.936" y="-58" font-family="Helvetica,sans-Serif" font-size="10.00" fill="#000000">greaterequal</text>
<polygon fill="none" stroke="#0000ff" points="525,-28 525,-50 635,-50 635,-28 525,-28"/>
<text text-anchor="start" x="570.272" y="-36" font-family="Helvetica,sans-Serif" font-size="10.00" fill="#000000">2.18</text>
</g>
<!-- id&#45;&gt;dependency447 -->
<g id="edge6" class="edge">
<title>id:e&#45;&gt;dependency447:w</title>
<path fill="none" stroke="#000000" d="M304,-585C529.4302,-585 192.2047,-95.1811 403.8982,-83.2226"/>
<ellipse fill="none" stroke="#000000" cx="408.0015" cy="-83.1099" rx="4" ry="4"/>
</g>
<!-- dependency448 -->
<g id="node8" class="node">
<title>dependency448</title>
<polygon fill="none" stroke="#0000ff" points="420,-300 420,-410 525,-410 525,-300 420,-300"/>
<text text-anchor="start" x="450.823" y="-352" font-family="Helvetica,sans-Serif" font-size="10.00" fill="#000000">pack_dep</text>
<polygon fill="none" stroke="#0000ff" points="525,-388 525,-410 635,-410 635,-388 525,-388"/>
<text text-anchor="start" x="574.441" y="-396" font-family="Helvetica,sans-Serif" font-size="10.00" fill="#000000">no</text>
<polygon fill="none" stroke="#0000ff" points="525,-366 525,-388 635,-388 635,-366 525,-366"/>
<text text-anchor="start" x="562.778" y="-374" font-family="Helvetica,sans-Serif" font-size="10.00" fill="#000000">x11&#45;libs</text>
<polygon fill="none" stroke="#0000ff" points="525,-344 525,-366 635,-366 635,-344 525,-344"/>
<text text-anchor="start" x="570.4115" y="-352" font-family="Helvetica,sans-Serif" font-size="10.00" fill="#000000">gtk+</text>
<polygon fill="none" stroke="#0000ff" points="525,-322 525,-344 635,-344 635,-322 525,-322"/>
<text text-anchor="start" x="551.936" y="-330" font-family="Helvetica,sans-Serif" font-size="10.00" fill="#000000">greaterequal</text>
<polygon fill="none" stroke="#0000ff" points="525,-300 525,-322 635,-322 635,-300 525,-300"/>
<text text-anchor="start" x="570.272" y="-308" font-family="Helvetica,sans-Serif" font-size="10.00" fill="#000000">3.22</text>
</g>
<!-- id&#45;&gt;dependency448 -->
<g id="edge7" class="edge">
<title>id:e&#45;&gt;dependency448:w</title>
<path fill="none" stroke="#000000" d="M304,-585C414.0635,-585 304.9055,-366.5314 403.8367,-355.4373"/>
<ellipse fill="none" stroke="#000000" cx="408.0057" cy="-355.214" rx="4" ry="4"/>
</g>
<!-- dependency449 -->
<g id="node9" class="node">
<title>dependency449</title>
<polygon fill="none" stroke="#0000ff" points="420,-164 420,-274 525,-274 525,-164 420,-164"/>
<text text-anchor="start" x="450.823" y="-216" font-family="Helvetica,sans-Serif" font-size="10.00" fill="#000000">pack_dep</text>
<polygon fill="none" stroke="#0000ff" points="525,-252 525,-274 635,-274 635,-252 525,-252"/>
<text text-anchor="start" x="574.441" y="-260" font-family="Helvetica,sans-Serif" font-size="10.00" fill="#000000">no</text>
<polygon fill="none" stroke="#0000ff" points="525,-230 525,-252 635,-252 635,-230 525,-230"/>
<text text-anchor="start" x="558.328" y="-238" font-family="Helvetica,sans-Serif" font-size="10.00" fill="#000000">xfce&#45;base</text>
<polygon fill="none" stroke="#0000ff" points="525,-208 525,-230 635,-230 635,-208 525,-208"/>
<text text-anchor="start" x="565.828" y="-216" font-family="Helvetica,sans-Serif" font-size="10.00" fill="#000000">thunar</text>
<polygon fill="none" stroke="#0000ff" points="525,-186 525,-208 635,-208 635,-186 525,-186"/>
<text text-anchor="start" x="551.936" y="-194" font-family="Helvetica,sans-Serif" font-size="10.00" fill="#000000">greaterequal</text>
<polygon fill="none" stroke="#0000ff" points="525,-164 525,-186 635,-186 635,-164 525,-164"/>
<text text-anchor="start" x="573.0515" y="-172" font-family="Helvetica,sans-Serif" font-size="10.00" fill="#000000">1.7</text>
</g>
<!-- id&#45;&gt;dependency449 -->
<g id="edge8" class="edge">
<title>id:e&#45;&gt;dependency449:w</title>
<path fill="none" stroke="#000000" d="M304,-585C470.7852,-585 249.9653,-231.0515 403.8808,-219.2993"/>
<ellipse fill="none" stroke="#000000" cx="408.0027" cy="-219.1474" rx="4" ry="4"/>
</g>
<!-- choice1001011184510810598115471031081059845504654524649 -->
<g id="node10" class="node">
<title>choice1001011184510810598115471031081059845504654524649</title>
<g id="a_node10"><a xlink:href="../dev-libs/glib-2.64.1.svg" xlink:title="portage://dev&#45;libs/glib&#45;2.64.1">
<ellipse fill="none" stroke="#ff0000" cx="900" cy="-137" rx="144" ry="18"/>
<text text-anchor="middle" x="900" y="-134" font-family="Helvetica,sans-Serif" font-size="10.00" fill="#000000">portage://dev&#45;libs/glib&#45;2.64.1</text>
</a>
</g>
</g>
<!-- dependency442&#45;&gt;choice1001011184510810598115471031081059845504654524649 -->
<g id="edge9" class="edge">
<title>dependency442:e&#45;&gt;choice1001011184510810598115471031081059845504654524649:w</title>
<path fill="none" stroke="#000000" stroke-dasharray="1,5" d="M648,-517C819.9768,-517 590.2196,-152.4261 745.719,-137.4729"/>
<polygon fill="#000000" stroke="#000000" points="756,-137 746.2174,-141.9548 751.0053,-137.2298 746.0106,-137.4596 746.0106,-137.4596 746.0106,-137.4596 751.0053,-137.2298 745.8038,-132.9643 756,-137 756,-137"/>
</g>
<!-- choice1001011184510810598115471031081059845504654504654 -->
<g id="node11" class="node">
<title>choice1001011184510810598115471031081059845504654504654</title>
<g id="a_node11"><a xlink:href="../dev-libs/glib-2.62.6.svg" xlink:title="portage://dev&#45;libs/glib&#45;2.62.6">
<ellipse fill="none" stroke="#ff0000" cx="900" cy="-353" rx="144" ry="18"/>
<text text-anchor="middle" x="900" y="-350" font-family="Helvetica,sans-Serif" font-size="10.00" fill="#000000">portage://dev&#45;libs/glib&#45;2.62.6</text>
</a>
</g>
</g>
<!-- dependency442&#45;&gt;choice1001011184510810598115471031081059845504654504654 -->
<g id="edge10" class="edge">
<title>dependency442:e&#45;&gt;choice1001011184510810598115471031081059845504654504654:w</title>
<path fill="none" stroke="#000000" stroke-dasharray="1,5" d="M648,-517C731.6946,-517 673.9261,-366.1772 746.0163,-353.8051"/>
<polygon fill="#000000" stroke="#000000" points="756,-353 746.3941,-358.2893 751.0162,-353.4019 746.0324,-353.8038 746.0324,-353.8038 746.0324,-353.8038 751.0162,-353.4019 745.6706,-349.3184 756,-353 756,-353"/>
</g>
<!-- choice1001011184510810598115471031081059845504654504653 -->
<g id="node12" class="node">
<title>choice1001011184510810598115471031081059845504654504653</title>
<g id="a_node12"><a xlink:href="../dev-libs/glib-2.62.5.svg" xlink:title="portage://dev&#45;libs/glib&#45;2.62.5">
<ellipse fill="none" stroke="#ff0000" cx="900" cy="-245" rx="144" ry="18"/>
<text text-anchor="middle" x="900" y="-242" font-family="Helvetica,sans-Serif" font-size="10.00" fill="#000000">portage://dev&#45;libs/glib&#45;2.62.5</text>
</a>
</g>
</g>
<!-- dependency442&#45;&gt;choice1001011184510810598115471031081059845504654504653 -->
<g id="edge11" class="edge">
<title>dependency442:e&#45;&gt;choice1001011184510810598115471031081059845504654504653:w</title>
<path fill="none" stroke="#000000" stroke-dasharray="1,5" d="M648,-517C774.5131,-517 634.0394,-259.6716 745.9517,-245.599"/>
<polygon fill="#000000" stroke="#000000" points="756,-245 746.2855,-250.0872 751.0089,-245.2976 746.0177,-245.5951 746.0177,-245.5951 746.0177,-245.5951 751.0089,-245.2976 745.7499,-241.1031 756,-245 756,-245"/>
</g>
<!-- choice10010111845108105981154710310810598455046544846554511450 -->
<g id="node13" class="node">
<title>choice10010111845108105981154710310810598455046544846554511450</title>
<g id="a_node13"><a xlink:href="../dev-libs/glib-2.60.7-r2.svg" xlink:title="portage://dev&#45;libs/glib&#45;2.60.7&#45;r2">
<ellipse fill="none" stroke="#ff0000" cx="900" cy="-83" rx="144" ry="18"/>
<text text-anchor="middle" x="900" y="-80" font-family="Helvetica,sans-Serif" font-size="10.00" fill="#000000">portage://dev&#45;libs/glib&#45;2.60.7&#45;r2</text>
</a>
</g>
</g>
<!-- dependency442&#45;&gt;choice10010111845108105981154710310810598455046544846554511450 -->
<g id="edge12" class="edge">
<title>dependency442:e&#45;&gt;choice10010111845108105981154710310810598455046544846554511450:w</title>
<path fill="none" stroke="#000000" stroke-dasharray="1,5" d="M648,-517C843.2775,-517 567.2568,-98.1237 745.9653,-83.3976"/>
<polygon fill="#000000" stroke="#000000" points="756,-83 746.186,-87.8925 751.0039,-83.198 746.0078,-83.396 746.0078,-83.396 746.0078,-83.396 751.0039,-83.198 745.8296,-78.8995 756,-83 756,-83"/>
</g>
<!-- choice10010111845108105981154710310810598455046544846554511449 -->
<g id="node14" class="node">
<title>choice10010111845108105981154710310810598455046544846554511449</title>
<g id="a_node14"><a xlink:href="../dev-libs/glib-2.60.7-r1.svg" xlink:title="portage://dev&#45;libs/glib&#45;2.60.7&#45;r1">
<ellipse fill="none" stroke="#ff0000" cx="900" cy="-191" rx="144" ry="18"/>
<text text-anchor="middle" x="900" y="-188" font-family="Helvetica,sans-Serif" font-size="10.00" fill="#000000">portage://dev&#45;libs/glib&#45;2.60.7&#45;r1</text>
</a>
</g>
</g>
<!-- dependency442&#45;&gt;choice10010111845108105981154710310810598455046544846554511449 -->
<g id="edge13" class="edge">
<title>dependency442:e&#45;&gt;choice10010111845108105981154710310810598455046544846554511449:w</title>
<path fill="none" stroke="#000000" stroke-dasharray="1,5" d="M648,-517C797.0555,-517 612.4218,-206.1022 745.8356,-191.5288"/>
<polygon fill="#000000" stroke="#000000" points="756,-191 746.2474,-196.0136 751.0068,-191.2598 746.0135,-191.5197 746.0135,-191.5197 746.0135,-191.5197 751.0068,-191.2598 745.7797,-187.0258 756,-191 756,-191"/>
</g>
<!-- choice1001011184510810598115471031081059845504654484655 -->
<g id="node15" class="node">
<title>choice1001011184510810598115471031081059845504654484655</title>
<g id="a_node15"><a xlink:href="../dev-libs/glib-2.60.7.svg" xlink:title="portage://dev&#45;libs/glib&#45;2.60.7">
<ellipse fill="none" stroke="#ff0000" cx="900" cy="-299" rx="144" ry="18"/>
<text text-anchor="middle" x="900" y="-296" font-family="Helvetica,sans-Serif" font-size="10.00" fill="#000000">portage://dev&#45;libs/glib&#45;2.60.7</text>
</a>
</g>
</g>
<!-- dependency442&#45;&gt;choice1001011184510810598115471031081059845504654484655 -->
<g id="edge14" class="edge">
<title>dependency442:e&#45;&gt;choice1001011184510810598115471031081059845504654484655:w</title>
<path fill="none" stroke="#000000" stroke-dasharray="1,5" d="M648,-517C752.5369,-517 654.8232,-313.2362 745.9293,-299.705"/>
<polygon fill="#000000" stroke="#000000" points="756,-299 746.3387,-304.1875 751.0122,-299.3492 746.0244,-299.6985 746.0244,-299.6985 746.0244,-299.6985 751.0122,-299.3492 745.7101,-295.2095 756,-299 756,-299"/>
</g>
<!-- choice1001011184511711610510847105110116108116111111108454846534946484511450 -->
<g id="node16" class="node">
<title>choice1001011184511711610510847105110116108116111111108454846534946484511450</title>
<g id="a_node16"><a xlink:href="../dev-util/intltool-0.51.0-r2.svg" xlink:title="portage://dev&#45;util/intltool&#45;0.51.0&#45;r2">
<ellipse fill="none" stroke="#ff0000" cx="900" cy="-919" rx="144" ry="18"/>
<text text-anchor="middle" x="900" y="-916" font-family="Helvetica,sans-Serif" font-size="10.00" fill="#000000">portage://dev&#45;util/intltool&#45;0.51.0&#45;r2</text>
</a>
</g>
</g>
<!-- dependency443&#45;&gt;choice1001011184511711610510847105110116108116111111108454846534946484511450 -->
<g id="edge15" class="edge">
<title>dependency443:e&#45;&gt;choice1001011184511711610510847105110116108116111111108454846534946484511450:w</title>
<path fill="none" stroke="#000000" stroke-dasharray="1,5" d="M648,-919C692.4375,-919 706.0204,-919 745.878,-919"/>
<polygon fill="#000000" stroke="#000000" points="756,-919 746,-923.5001 751,-919 746,-919.0001 746,-919.0001 746,-919.0001 751,-919 746,-914.5001 756,-919 756,-919"/>
</g>
<!-- choice1181051141161179710847112107103991111101021051034549 -->
<g id="node17" class="node">
<title>choice1181051141161179710847112107103991111101021051034549</title>
<g id="a_node17"><a xlink:href="../virtual/pkgconfig-1.svg" xlink:title="portage://virtual/pkgconfig&#45;1">
<ellipse fill="none" stroke="#ff0000" cx="900" cy="-1043" rx="144" ry="18"/>
<text text-anchor="middle" x="900" y="-1040" font-family="Helvetica,sans-Serif" font-size="10.00" fill="#000000">portage://virtual/pkgconfig&#45;1</text>
</a>
</g>
</g>
<!-- dependency444&#45;&gt;choice1181051141161179710847112107103991111101021051034549 -->
<g id="edge16" class="edge">
<title>dependency444:e&#45;&gt;choice1181051141161179710847112107103991111101021051034549:w</title>
<path fill="none" stroke="#000000" stroke-dasharray="1,5" d="M648,-1043C692.4375,-1043 706.0204,-1043 745.878,-1043"/>
<polygon fill="#000000" stroke="#000000" points="756,-1043 746,-1047.5001 751,-1043 746,-1043.0001 746,-1043.0001 746,-1043.0001 751,-1043 746,-1038.5001 756,-1043 756,-1043"/>
</g>
<!-- choice11810511411611797108471121071039911111010210510345484511449 -->
<g id="node18" class="node">
<title>choice11810511411611797108471121071039911111010210510345484511449</title>
<g id="a_node18"><a xlink:href="../virtual/pkgconfig-0-r1.svg" xlink:title="portage://virtual/pkgconfig&#45;0&#45;r1">
<ellipse fill="none" stroke="#ff0000" cx="900" cy="-989" rx="144" ry="18"/>
<text text-anchor="middle" x="900" y="-986" font-family="Helvetica,sans-Serif" font-size="10.00" fill="#000000">portage://virtual/pkgconfig&#45;0&#45;r1</text>
</a>
</g>
</g>
<!-- dependency444&#45;&gt;choice11810511411611797108471121071039911111010210510345484511449 -->
<g id="edge17" class="edge">
<title>dependency444:e&#45;&gt;choice11810511411611797108471121071039911111010210510345484511449:w</title>
<path fill="none" stroke="#000000" stroke-dasharray="1,5" d="M648,-1043C698.1019,-1043 702.0118,-995.9337 745.9789,-989.6828"/>
<polygon fill="#000000" stroke="#000000" points="756,-989 746.3291,-994.1694 751.0116,-989.3399 746.0231,-989.6798 746.0231,-989.6798 746.0231,-989.6798 751.0116,-989.3399 745.7172,-985.1902 756,-989 756,-989"/>
</g>
<!-- choice1204949451081059811547103116107434551465052464956 -->
<g id="node19" class="node">
<title>choice1204949451081059811547103116107434551465052464956</title>
<g id="a_node19"><a xlink:href="../x11-libs/gtk+-3.24.18.svg" xlink:title="portage://x11&#45;libs/gtk+&#45;3.24.18">
<ellipse fill="none" stroke="#ff0000" cx="900" cy="-515" rx="144" ry="18"/>
<text text-anchor="middle" x="900" y="-512" font-family="Helvetica,sans-Serif" font-size="10.00" fill="#000000">portage://x11&#45;libs/gtk+&#45;3.24.18</text>
</a>
</g>
</g>
<!-- dependency445&#45;&gt;choice1204949451081059811547103116107434551465052464956 -->
<g id="edge18" class="edge">
<title>dependency445:e&#45;&gt;choice1204949451081059811547103116107434551465052464956:w</title>
<path fill="none" stroke="#000000" stroke-dasharray="1,5" d="M648,-789C775.3171,-789 633.3014,-529.7795 745.8893,-515.6034"/>
<polygon fill="#000000" stroke="#000000" points="756,-515 746.2859,-520.0878 751.0089,-515.2979 746.0178,-515.5958 746.0178,-515.5958 746.0178,-515.5958 751.0089,-515.2979 745.7496,-511.1038 756,-515 756,-515"/>
</g>
<!-- choice1204949451081059811547103116107434551465052464955 -->
<g id="node20" class="node">
<title>choice1204949451081059811547103116107434551465052464955</title>
<g id="a_node20"><a xlink:href="../x11-libs/gtk+-3.24.17.svg" xlink:title="portage://x11&#45;libs/gtk+&#45;3.24.17">
<ellipse fill="none" stroke="#ff0000" cx="900" cy="-839" rx="144" ry="18"/>
<text text-anchor="middle" x="900" y="-836" font-family="Helvetica,sans-Serif" font-size="10.00" fill="#000000">portage://x11&#45;libs/gtk+&#45;3.24.17</text>
</a>
</g>
</g>
<!-- dependency445&#45;&gt;choice1204949451081059811547103116107434551465052464955 -->
<g id="edge19" class="edge">
<title>dependency445:e&#45;&gt;choice1204949451081059811547103116107434551465052464955:w</title>
<path fill="none" stroke="#000000" stroke-dasharray="1,5" d="M648,-789C697.2787,-789 702.5664,-832.3977 745.8306,-838.331"/>
<polygon fill="#000000" stroke="#000000" points="756,-839 745.7261,-842.8338 751.0108,-838.6717 746.0216,-838.3435 746.0216,-838.3435 746.0216,-838.3435 751.0108,-838.6717 746.317,-833.8532 756,-839 756,-839"/>
</g>
<!-- choice1204949451081059811547103116107434551465052464954 -->
<g id="node21" class="node">
<title>choice1204949451081059811547103116107434551465052464954</title>
<g id="a_node21"><a xlink:href="../x11-libs/gtk+-3.24.16.svg" xlink:title="portage://x11&#45;libs/gtk+&#45;3.24.16">
<ellipse fill="none" stroke="#ff0000" cx="900" cy="-785" rx="144" ry="18"/>
<text text-anchor="middle" x="900" y="-782" font-family="Helvetica,sans-Serif" font-size="10.00" fill="#000000">portage://x11&#45;libs/gtk+&#45;3.24.16</text>
</a>
</g>
</g>
<!-- dependency445&#45;&gt;choice1204949451081059811547103116107434551465052464954 -->
<g id="edge20" class="edge">
<title>dependency445:e&#45;&gt;choice1204949451081059811547103116107434551465052464954:w</title>
<path fill="none" stroke="#000000" stroke-dasharray="1,5" d="M648,-789C692.468,-789 705.9968,-785.5717 745.8722,-785.0628"/>
<polygon fill="#000000" stroke="#000000" points="756,-785 746.0282,-789.562 751.0001,-785.0311 746.0002,-785.0621 746.0002,-785.0621 746.0002,-785.0621 751.0001,-785.0311 745.9722,-780.5622 756,-785 756,-785"/>
</g>
<!-- choice1204949451081059811547103116107434551465052464952 -->
<g id="node22" class="node">
<title>choice1204949451081059811547103116107434551465052464952</title>
<g id="a_node22"><a xlink:href="../x11-libs/gtk+-3.24.14.svg" xlink:title="portage://x11&#45;libs/gtk+&#45;3.24.14">
<ellipse fill="none" stroke="#ff0000" cx="900" cy="-731" rx="144" ry="18"/>
<text text-anchor="middle" x="900" y="-728" font-family="Helvetica,sans-Serif" font-size="10.00" fill="#000000">portage://x11&#45;libs/gtk+&#45;3.24.14</text>
</a>
</g>
</g>
<!-- dependency445&#45;&gt;choice1204949451081059811547103116107434551465052464952 -->
<g id="edge21" class="edge">
<title>dependency445:e&#45;&gt;choice1204949451081059811547103116107434551465052464952:w</title>
<path fill="none" stroke="#000000" stroke-dasharray="1,5" d="M648,-789C698.8658,-789 701.4001,-738.4474 745.8469,-731.7333"/>
<polygon fill="#000000" stroke="#000000" points="756,-731 746.3502,-736.2088 751.013,-731.3602 746.026,-731.7205 746.026,-731.7205 746.026,-731.7205 751.013,-731.3602 745.7018,-727.2322 756,-731 756,-731"/>
</g>
<!-- choice1204949451081059811547103116107434551465052464951 -->
<g id="node23" class="node">
<title>choice1204949451081059811547103116107434551465052464951</title>
<g id="a_node23"><a xlink:href="../x11-libs/gtk+-3.24.13.svg" xlink:title="portage://x11&#45;libs/gtk+&#45;3.24.13">
<ellipse fill="none" stroke="#ff0000" cx="900" cy="-677" rx="144" ry="18"/>
<text text-anchor="middle" x="900" y="-674" font-family="Helvetica,sans-Serif" font-size="10.00" fill="#000000">portage://x11&#45;libs/gtk+&#45;3.24.13</text>
</a>
</g>
</g>
<!-- dependency445&#45;&gt;choice1204949451081059811547103116107434551465052464951 -->
<g id="edge22" class="edge">
<title>dependency445:e&#45;&gt;choice1204949451081059811547103116107434551465052464951:w</title>
<path fill="none" stroke="#000000" stroke-dasharray="1,5" d="M648,-789C713.5041,-789 689.7685,-688.501 745.8607,-677.9015"/>
<polygon fill="#000000" stroke="#000000" points="756,-677 746.4379,-682.3681 751.0196,-677.4429 746.0393,-677.8857 746.0393,-677.8857 746.0393,-677.8857 751.0196,-677.4429 745.6407,-673.4034 756,-677 756,-677"/>
</g>
<!-- choice1204949451081059811547103116107434551465052464949 -->
<g id="node24" class="node">
<title>choice1204949451081059811547103116107434551465052464949</title>
<g id="a_node24"><a xlink:href="../x11-libs/gtk+-3.24.11.svg" xlink:title="portage://x11&#45;libs/gtk+&#45;3.24.11">
<ellipse fill="none" stroke="#ff0000" cx="900" cy="-623" rx="144" ry="18"/>
<text text-anchor="middle" x="900" y="-620" font-family="Helvetica,sans-Serif" font-size="10.00" fill="#000000">portage://x11&#45;libs/gtk+&#45;3.24.11</text>
</a>
</g>
</g>
<!-- dependency445&#45;&gt;choice1204949451081059811547103116107434551465052464949 -->
<g id="edge23" class="edge">
<title>dependency445:e&#45;&gt;choice1204949451081059811547103116107434551465052464949:w</title>
<path fill="none" stroke="#000000" stroke-dasharray="1,5" d="M648,-789C732.4078,-789 673.3006,-636.3379 745.9357,-623.8149"/>
<polygon fill="#000000" stroke="#000000" points="756,-623 746.3958,-628.2924 751.0163,-623.4036 746.0326,-623.8071 746.0326,-623.8071 746.0326,-623.8071 751.0163,-623.4036 745.6694,-619.3218 756,-623 756,-623"/>
</g>
<!-- choice12049494510810598115471031161074345504650524651504511449 -->
<g id="node25" class="node">
<title>choice12049494510810598115471031161074345504650524651504511449</title>
<g id="a_node25"><a xlink:href="../x11-libs/gtk+-2.24.32-r1.svg" xlink:title="portage://x11&#45;libs/gtk+&#45;2.24.32&#45;r1">
<ellipse fill="none" stroke="#ff0000" cx="900" cy="-569" rx="144" ry="18"/>
<text text-anchor="middle" x="900" y="-566" font-family="Helvetica,sans-Serif" font-size="10.00" fill="#000000">portage://x11&#45;libs/gtk+&#45;2.24.32&#45;r1</text>
</a>
</g>
</g>
<!-- dependency445&#45;&gt;choice12049494510810598115471031161074345504650524651504511449 -->
<g id="edge24" class="edge">
<title>dependency445:e&#45;&gt;choice12049494510810598115471031161074345504650524651504511449:w</title>
<path fill="none" stroke="#000000" stroke-dasharray="1,5" d="M648,-789C753.3076,-789 654.1292,-583.3668 745.8577,-569.7115"/>
<polygon fill="#000000" stroke="#000000" points="756,-569 746.3395,-574.1889 751.0123,-569.3499 746.0245,-569.6999 746.0245,-569.6999 746.0245,-569.6999 751.0123,-569.3499 745.7096,-565.2109 756,-569 756,-569"/>
</g>
<!-- choice12010299101459897115101471161041171109711445494656464952 -->
<g id="node26" class="node">
<title>choice12010299101459897115101471161041171109711445494656464952</title>
<g id="a_node26"><a xlink:href="../xfce-base/thunar-1.8.14.svg" xlink:title="portage://xfce&#45;base/thunar&#45;1.8.14">
<ellipse fill="none" stroke="#ff0000" cx="900" cy="-407" rx="144" ry="18"/>
<text text-anchor="middle" x="900" y="-404" font-family="Helvetica,sans-Serif" font-size="10.00" fill="#000000">portage://xfce&#45;base/thunar&#45;1.8.14</text>
</a>
</g>
</g>
<!-- dependency446&#45;&gt;choice12010299101459897115101471161041171109711445494656464952 -->
<g id="edge25" class="edge">
<title>dependency446:e&#45;&gt;choice12010299101459897115101471161041171109711445494656464952:w</title>
<path fill="none" stroke="#000000" stroke-dasharray="1,5" d="M648,-653C763.7911,-653 644.285,-421.6691 745.8296,-407.6627"/>
<polygon fill="#000000" stroke="#000000" points="756,-407 746.3138,-412.1408 751.0106,-407.3252 746.0212,-407.6503 746.0212,-407.6503 746.0212,-407.6503 751.0106,-407.3252 745.7285,-403.1598 756,-407 756,-407"/>
</g>
<!-- choice12010299101459897115101471161041171109711445494656464950 -->
<g id="node27" class="node">
<title>choice12010299101459897115101471161041171109711445494656464950</title>
<g id="a_node27"><a xlink:href="../xfce-base/thunar-1.8.12.svg" xlink:title="portage://xfce&#45;base/thunar&#45;1.8.12">
<ellipse fill="none" stroke="#ff0000" cx="900" cy="-461" rx="144" ry="18"/>
<text text-anchor="middle" x="900" y="-458" font-family="Helvetica,sans-Serif" font-size="10.00" fill="#000000">portage://xfce&#45;base/thunar&#45;1.8.12</text>
</a>
</g>
</g>
<!-- dependency446&#45;&gt;choice12010299101459897115101471161041171109711445494656464950 -->
<g id="edge26" class="edge">
<title>dependency446:e&#45;&gt;choice12010299101459897115101471161041171109711445494656464950:w</title>
<path fill="none" stroke="#000000" stroke-dasharray="1,5" d="M648,-653C742.2737,-653 664.3547,-474.9856 745.8485,-461.7736"/>
<polygon fill="#000000" stroke="#000000" points="756,-461 746.3709,-466.2469 751.0145,-461.38 746.0289,-461.7599 746.0289,-461.7599 746.0289,-461.7599 751.0145,-461.38 745.6869,-457.2729 756,-461 756,-461"/>
</g>
<!-- dependency447&#45;&gt;choice1001011184510810598115471031081059845504654524649 -->
<g id="edge27" class="edge">
<title>dependency447:e&#45;&gt;choice1001011184510810598115471031081059845504654524649:w</title>
<path fill="none" stroke="#000000" stroke-dasharray="1,5" d="M648,-83C698.1019,-83 702.0118,-130.0663 745.9789,-136.3172"/>
<polygon fill="#000000" stroke="#000000" points="756,-137 745.7172,-140.8098 751.0116,-136.6601 746.0231,-136.3202 746.0231,-136.3202 746.0231,-136.3202 751.0116,-136.6601 746.3291,-131.8306 756,-137 756,-137"/>
</g>
<!-- dependency447&#45;&gt;choice1001011184510810598115471031081059845504654504654 -->
<g id="edge28" class="edge">
<title>dependency447:e&#45;&gt;choice1001011184510810598115471031081059845504654504654:w</title>
<path fill="none" stroke="#000000" stroke-dasharray="1,5" d="M648,-83C773.7099,-83 634.7767,-338.4362 746.014,-352.4054"/>
<polygon fill="#000000" stroke="#000000" points="756,-353 745.7502,-356.8976 751.0088,-352.7028 746.0177,-352.4055 746.0177,-352.4055 746.0177,-352.4055 751.0088,-352.7028 746.2852,-347.9135 756,-353 756,-353"/>
</g>
<!-- dependency447&#45;&gt;choice1001011184510810598115471031081059845504654504653 -->
<g id="edge29" class="edge">
<title>dependency447:e&#45;&gt;choice1001011184510810598115471031081059845504654504653:w</title>
<path fill="none" stroke="#000000" stroke-dasharray="1,5" d="M648,-83C730.815,-83 674.7785,-231.3772 745.661,-244.1284"/>
<polygon fill="#000000" stroke="#000000" points="756,-245 745.6573,-248.644 751.0177,-244.5799 746.0353,-244.1599 746.0353,-244.1599 746.0353,-244.1599 751.0177,-244.5799 746.4134,-239.6758 756,-245 756,-245"/>
</g>
<!-- dependency447&#45;&gt;choice10010111845108105981154710310810598455046544846554511450 -->
<g id="edge30" class="edge">
<title>dependency447:e&#45;&gt;choice10010111845108105981154710310810598455046544846554511450:w</title>
<path fill="none" stroke="#000000" stroke-dasharray="1,5" d="M648,-83C692.4375,-83 706.0204,-83 745.878,-83"/>
<polygon fill="#000000" stroke="#000000" points="756,-83 746,-87.5001 751,-83 746,-83.0001 746,-83.0001 746,-83.0001 751,-83 746,-78.5001 756,-83 756,-83"/>
</g>
<!-- dependency447&#45;&gt;choice10010111845108105981154710310810598455046544846554511449 -->
<g id="edge31" class="edge">
<title>dependency447:e&#45;&gt;choice10010111845108105981154710310810598455046544846554511449:w</title>
<path fill="none" stroke="#000000" stroke-dasharray="1,5" d="M648,-83C712.3025,-83 690.7801,-179.9097 746.0307,-190.1307"/>
<polygon fill="#000000" stroke="#000000" points="756,-191 745.6468,-194.6142 751.0189,-190.5656 746.0378,-190.1312 746.0378,-190.1312 746.0378,-190.1312 751.0189,-190.5656 746.4288,-185.6482 756,-191 756,-191"/>
</g>
<!-- dependency447&#45;&gt;choice1001011184510810598115471031081059845504654484655 -->
<g id="edge32" class="edge">
<title>dependency447:e&#45;&gt;choice1001011184510810598115471031081059845504654484655:w</title>
<path fill="none" stroke="#000000" stroke-dasharray="1,5" d="M648,-83C751.7675,-83 655.5159,-284.8944 746.0009,-298.3014"/>
<polygon fill="#000000" stroke="#000000" points="756,-299 745.7107,-302.792 751.0122,-298.6515 746.0243,-298.303 746.0243,-298.303 746.0243,-298.303 751.0122,-298.6515 746.338,-293.8139 756,-299 756,-299"/>
</g>
<!-- dependency448&#45;&gt;choice1204949451081059811547103116107434551465052464956 -->
<g id="edge33" class="edge">
<title>dependency448:e&#45;&gt;choice1204949451081059811547103116107434551465052464956:w</title>
<path fill="none" stroke="#000000" stroke-dasharray="1,5" d="M648,-355C730.1085,-355 675.3939,-501.5454 745.7442,-514.1392"/>
<polygon fill="#000000" stroke="#000000" points="756,-515 745.6586,-518.6477 751.0175,-514.5817 746.035,-514.1635 746.035,-514.1635 746.035,-514.1635 751.0175,-514.5817 746.4115,-509.6792 756,-515 756,-515"/>
</g>
<!-- dependency448&#45;&gt;choice1204949451081059811547103116107434551465052464955 -->
<g id="edge34" class="edge">
<title>dependency448:e&#45;&gt;choice1204949451081059811547103116107434551465052464955:w</title>
<path fill="none" stroke="#000000" stroke-dasharray="1,5" d="M648,-355C864.85,-355 546.18,-823.528 745.7721,-838.6271"/>
<polygon fill="#000000" stroke="#000000" points="756,-839 745.8426,-843.1325 751.0033,-838.8178 746.0066,-838.6355 746.0066,-838.6355 746.0066,-838.6355 751.0033,-838.8178 746.1707,-834.1385 756,-839 756,-839"/>
</g>
<!-- dependency448&#45;&gt;choice1204949451081059811547103116107434551465052464954 -->
<g id="edge35" class="edge">
<title>dependency448:e&#45;&gt;choice1204949451081059811547103116107434551465052464954:w</title>
<path fill="none" stroke="#000000" stroke-dasharray="1,5" d="M648,-355C841.4869,-355 569.1328,-769.6032 745.7876,-784.584"/>
<polygon fill="#000000" stroke="#000000" points="756,-785 745.8251,-789.0892 751.0041,-784.7965 746.0083,-784.5929 746.0083,-784.5929 746.0083,-784.5929 751.0041,-784.7965 746.1915,-780.0966 756,-785 756,-785"/>
</g>
<!-- dependency448&#45;&gt;choice1204949451081059811547103116107434551465052464952 -->
<g id="edge36" class="edge">
<title>dependency448:e&#45;&gt;choice1204949451081059811547103116107434551465052464952:w</title>
<path fill="none" stroke="#000000" stroke-dasharray="1,5" d="M648,-355C818.3025,-355 591.7909,-715.7363 745.8178,-730.5321"/>
<polygon fill="#000000" stroke="#000000" points="756,-731 745.8039,-735.0361 751.0053,-730.7704 746.0105,-730.5408 746.0105,-730.5408 746.0105,-730.5408 751.0053,-730.7704 746.2172,-726.0456 756,-731 756,-731"/>
</g>
<!-- dependency448&#45;&gt;choice1204949451081059811547103116107434551465052464951 -->
<g id="edge37" class="edge">
<title>dependency448:e&#45;&gt;choice1204949451081059811547103116107434551465052464951:w</title>
<path fill="none" stroke="#000000" stroke-dasharray="1,5" d="M648,-355C795.4085,-355 613.953,-662.0831 745.946,-676.4777"/>
<polygon fill="#000000" stroke="#000000" points="756,-677 745.7799,-680.975 751.0067,-676.7405 746.0135,-676.4811 746.0135,-676.4811 746.0135,-676.4811 751.0067,-676.7405 746.247,-671.9871 756,-677 756,-677"/>
</g>
<!-- dependency448&#45;&gt;choice1204949451081059811547103116107434551465052464949 -->
<g id="edge38" class="edge">
<title>dependency448:e&#45;&gt;choice1204949451081059811547103116107434551465052464949:w</title>
<path fill="none" stroke="#000000" stroke-dasharray="1,5" d="M648,-355C772.7822,-355 635.7888,-608.0353 745.7439,-622.3673"/>
<polygon fill="#000000" stroke="#000000" points="756,-623 745.7419,-626.8757 751.0095,-622.6921 746.019,-622.3842 746.019,-622.3842 746.019,-622.3842 751.0095,-622.6921 746.2961,-617.8927 756,-623 756,-623"/>
</g>
<!-- dependency448&#45;&gt;choice12049494510810598115471031161074345504650524651504511449 -->
<g id="edge39" class="edge">
<title>dependency448:e&#45;&gt;choice12049494510810598115471031161074345504650524651504511449:w</title>
<path fill="none" stroke="#000000" stroke-dasharray="1,5" d="M648,-355C750.8956,-355 656.3986,-554.6211 745.8005,-568.2671"/>
<polygon fill="#000000" stroke="#000000" points="756,-569 745.7031,-572.7716 751.0129,-568.6416 746.0257,-568.2832 746.0257,-568.2832 746.0257,-568.2832 751.0129,-568.6416 746.3483,-563.7947 756,-569 756,-569"/>
</g>
<!-- dependency449&#45;&gt;choice12010299101459897115101471161041171109711445494656464952 -->
<g id="edge40" class="edge">
<title>dependency449:e&#45;&gt;choice12010299101459897115101471161041171109711445494656464952:w</title>
<path fill="none" stroke="#000000" stroke-dasharray="1,5" d="M648,-219C740.7855,-219 665.6772,-393.3058 746.0019,-406.2425"/>
<polygon fill="#000000" stroke="#000000" points="756,-407 745.6886,-410.7316 751.0143,-406.6222 746.0286,-406.2445 746.0286,-406.2445 746.0286,-406.2445 751.0143,-406.6222 746.3686,-401.7573 756,-407 756,-407"/>
</g>
<!-- dependency449&#45;&gt;choice12010299101459897115101471161041171109711445494656464950 -->
<g id="edge41" class="edge">
<title>dependency449:e&#45;&gt;choice12010299101459897115101471161041171109711445494656464950:w</title>
<path fill="none" stroke="#000000" stroke-dasharray="1,5" d="M648,-219C762.2147,-219 645.7183,-446.5694 745.9641,-460.3481"/>
<polygon fill="#000000" stroke="#000000" points="756,-461 745.7293,-464.8422 751.0105,-460.6758 746.021,-460.3517 746.021,-460.3517 746.021,-460.3517 751.0105,-460.6758 746.3128,-455.8611 756,-461 756,-461"/>
</g>
</g>
</svg>
