<?xml version="1.0" encoding="UTF-8" standalone="no"?>
<!DOCTYPE svg PUBLIC "-//W3C//DTD SVG 1.1//EN"
 "http://www.w3.org/Graphics/SVG/1.1/DTD/svg11.dtd">
<!-- Generated by graphviz version 2.39.20160721.2101 (20160721.2101)
 -->
<!-- Title: prolog Pages: 1 -->
<svg width="1068pt" height="450pt"
 viewBox="0.00 0.00 1068.00 450.00" xmlns="http://www.w3.org/2000/svg" xmlns:xlink="http://www.w3.org/1999/xlink">
<g id="graph0" class="graph" transform="scale(1 1) rotate(0) translate(4 446)">
<title>prolog</title>
<polygon fill="white" stroke="transparent" points="-4,4 -4,-446 1064,-446 1064,4 -4,4"/>
<g id="clust1" class="cluster">
<title>cluster_leftcol</title>
<polygon fill="none" stroke="gray" points="8,-175 8,-247 312,-247 312,-175 8,-175"/>
<text text-anchor="start" x="146.663" y="-235" font-family="Helvetica,sans-Serif" font-style="italic" font-size="10.00">ebuild</text>
</g>
<g id="clust2" class="cluster">
<title>cluster_midcol</title>
<polygon fill="none" stroke="gray" points="396,-8 396,-434 664,-434 664,-8 396,-8"/>
<text text-anchor="start" x="498.875" y="-422" font-family="Helvetica,sans-Serif" font-style="italic" font-size="10.00">dependencies</text>
</g>
<g id="clust4" class="cluster">
<title>cluster_compileandrun</title>
<polygon fill="#eeeeee" stroke="gray" points="404,-16 404,-406 656,-406 656,-16 404,-16"/>
<text text-anchor="start" x="494.437" y="-394" font-family="Helvetica,sans-Serif" font-style="italic" font-size="10.00">compile and run</text>
</g>
<g id="clust9" class="cluster">
<title>cluster_choices</title>
<polygon fill="none" stroke="gray" points="748,-51 748,-301 1052,-301 1052,-51 748,-51"/>
<text text-anchor="start" x="875.824" y="-289" font-family="Helvetica,sans-Serif" font-style="italic" font-size="10.00">candidates</text>
</g>
<!-- id -->
<g id="node1" class="node">
<title>id</title>
<g id="a_node1"><a xlink:href="../net-ftp/uftpd-2.4.svg" xlink:title="net&#45;ftp/uftpd&#45;2.4">
<ellipse fill="none" stroke="red" cx="160" cy="-201" rx="144" ry="18"/>
<text text-anchor="middle" x="160" y="-198" font-family="Helvetica,sans-Serif" font-size="10.00">net&#45;ftp/uftpd&#45;2.4</text>
</a>
</g>
</g>
<!-- dependency198 -->
<g id="node2" class="node">
<title>dependency198</title>
<polygon fill="none" stroke="blue" points="420,-276 420,-374 525,-374 525,-276 420,-276"/>
<text text-anchor="start" x="450.823" y="-322" font-family="Helvetica,sans-Serif" font-size="10.00">pack_dep</text>
<polygon fill="none" stroke="blue" points="525,-352 525,-374 635,-374 635,-352 525,-352"/>
<text text-anchor="start" x="574.441" y="-360" font-family="Helvetica,sans-Serif" font-size="10.00">no</text>
<polygon fill="none" stroke="blue" points="525,-330 525,-352 635,-352 635,-330 525,-330"/>
<text text-anchor="start" x="562.778" y="-338" font-family="Helvetica,sans-Serif" font-size="10.00">dev&#45;libs</text>
<polygon fill="none" stroke="blue" points="525,-308 525,-330 635,-330 635,-308 525,-308"/>
<text text-anchor="start" x="569.723" y="-316" font-family="Helvetica,sans-Serif" font-size="10.00">libite</text>
<polygon fill="none" stroke="blue" points="525,-286 525,-308 635,-308 635,-286 525,-286"/>
<text text-anchor="start" x="568.882" y="-294" font-family="Helvetica,sans-Serif" font-size="10.00">none</text>
<polygon fill="none" stroke="blue" points="525,-276 525,-286 635,-286 635,-276 525,-276"/>
</g>
<!-- id&#45;&gt;dependency198 -->
<g id="edge1" class="edge">
<title>id:e&#45;&gt;dependency198:w</title>
<path fill="none" stroke="black" d="M304,-201C370.232,-201 345.095,-302.84 394.195,-321.935"/>
<ellipse fill="none" stroke="black" cx="408.058" cy="-324.321" rx="4" ry="4"/>
<polygon fill="black" stroke="black" points="404.116,-323.643 393.497,-326.381 399.188,-322.794 394.261,-321.946 394.261,-321.946 394.261,-321.946 399.188,-322.794 395.024,-317.511 404.116,-323.643 404.116,-323.643"/>
</g>
<!-- dependency199 -->
<g id="node3" class="node">
<title>dependency199</title>
<polygon fill="none" stroke="blue" points="420,-152 420,-250 525,-250 525,-152 420,-152"/>
<text text-anchor="start" x="450.823" y="-198" font-family="Helvetica,sans-Serif" font-size="10.00">pack_dep</text>
<polygon fill="none" stroke="blue" points="525,-228 525,-250 635,-250 635,-228 525,-228"/>
<text text-anchor="start" x="574.441" y="-236" font-family="Helvetica,sans-Serif" font-size="10.00">no</text>
<polygon fill="none" stroke="blue" points="525,-206 525,-228 635,-228 635,-206 525,-206"/>
<text text-anchor="start" x="562.778" y="-214" font-family="Helvetica,sans-Serif" font-size="10.00">dev&#45;libs</text>
<polygon fill="none" stroke="blue" points="525,-184 525,-206 635,-206 635,-184 525,-184"/>
<text text-anchor="start" x="566.942" y="-192" font-family="Helvetica,sans-Serif" font-size="10.00">libuev</text>
<polygon fill="none" stroke="blue" points="525,-162 525,-184 635,-184 635,-162 525,-162"/>
<text text-anchor="start" x="568.882" y="-170" font-family="Helvetica,sans-Serif" font-size="10.00">none</text>
<polygon fill="none" stroke="blue" points="525,-152 525,-162 635,-162 635,-152 525,-152"/>
</g>
<!-- id&#45;&gt;dependency199 -->
<g id="edge2" class="edge">
<title>id:e&#45;&gt;dependency199:w</title>
<path fill="none" stroke="black" d="M304,-201C345.25,-201 359.913,-201 393.686,-201"/>
<ellipse fill="none" stroke="black" cx="408" cy="-201" rx="4" ry="4"/>
<polygon fill="black" stroke="black" points="404,-201 394,-205.5 399,-201 394,-201 394,-201 394,-201 399,-201 394,-196.5 404,-201 404,-201"/>
</g>
<!-- dependency200 -->
<g id="node4" class="node">
<title>dependency200</title>
<polygon fill="none" stroke="blue" points="420,-28 420,-126 525,-126 525,-28 420,-28"/>
<text text-anchor="start" x="450.823" y="-74" font-family="Helvetica,sans-Serif" font-size="10.00">pack_dep</text>
<polygon fill="none" stroke="blue" points="525,-104 525,-126 635,-126 635,-104 525,-104"/>
<text text-anchor="start" x="566.107" y="-112" font-family="Helvetica,sans-Serif" font-size="10.00">strong</text>
<polygon fill="none" stroke="blue" points="525,-82 525,-104 635,-104 635,-82 525,-82"/>
<text text-anchor="start" x="561.113" y="-90" font-family="Helvetica,sans-Serif" font-size="10.00">net&#45;misc</text>
<polygon fill="none" stroke="blue" points="525,-60 525,-82 635,-82 635,-60 525,-60"/>
<text text-anchor="start" x="571.662" y="-68" font-family="Helvetica,sans-Serif" font-size="10.00">uftp</text>
<polygon fill="none" stroke="blue" points="525,-38 525,-60 635,-60 635,-38 525,-38"/>
<text text-anchor="start" x="568.882" y="-46" font-family="Helvetica,sans-Serif" font-size="10.00">none</text>
<polygon fill="none" stroke="blue" points="525,-28 525,-38 635,-38 635,-28 525,-28"/>
</g>
<!-- id&#45;&gt;dependency200 -->
<g id="edge3" class="edge">
<title>id:e&#45;&gt;dependency200:w</title>
<path fill="none" stroke="black" d="M304,-201C370.232,-201 345.095,-99.1602 394.195,-80.0652"/>
<ellipse fill="none" stroke="black" cx="408.058" cy="-77.6787" rx="4" ry="4"/>
<polygon fill="black" stroke="black" points="404.116,-78.3573 395.024,-84.4887 399.188,-79.2056 394.261,-80.054 394.261,-80.054 394.261,-80.054 399.188,-79.2056 393.497,-75.6192 404.116,-78.3573 404.116,-78.3573"/>
</g>
<!-- choice10010111845108105981154710810598105116101455046484648 -->
<g id="node5" class="node">
<title>choice10010111845108105981154710810598105116101455046484648</title>
<g id="a_node5"><a xlink:href="../dev-libs/libite-2.0.0.svg" xlink:title="dev&#45;libs/libite&#45;2.0.0">
<ellipse fill="none" stroke="red" cx="900" cy="-255" rx="144" ry="18"/>
<text text-anchor="middle" x="900" y="-252" font-family="Helvetica,sans-Serif" font-size="10.00">dev&#45;libs/libite&#45;2.0.0</text>
</a>
</g>
</g>
<!-- dependency198&#45;&gt;choice10010111845108105981154710810598105116101455046484648 -->
<g id="edge4" class="edge">
<title>dependency198:e&#45;&gt;choice10010111845108105981154710810598105116101455046484648:w</title>
<path fill="none" stroke="black" stroke-dasharray="1,5" d="M648,-325C701.626,-325 699.351,-263.477 745.989,-255.786"/>
<polygon fill="black" stroke="black" points="756,-255 746.383,-260.269 751.015,-255.391 746.031,-255.783 746.031,-255.783 746.031,-255.783 751.015,-255.391 745.678,-251.297 756,-255 756,-255"/>
</g>
<!-- choice10010111845108105981154710810598117101118455046494648 -->
<g id="node6" class="node">
<title>choice10010111845108105981154710810598117101118455046494648</title>
<g id="a_node6"><a xlink:href="../dev-libs/libuev-2.1.0.svg" xlink:title="dev&#45;libs/libuev&#45;2.1.0">
<ellipse fill="none" stroke="red" cx="900" cy="-201" rx="144" ry="18"/>
<text text-anchor="middle" x="900" y="-198" font-family="Helvetica,sans-Serif" font-size="10.00">dev&#45;libs/libuev&#45;2.1.0</text>
</a>
</g>
</g>
<!-- dependency199&#45;&gt;choice10010111845108105981154710810598117101118455046494648 -->
<g id="edge5" class="edge">
<title>dependency199:e&#45;&gt;choice10010111845108105981154710810598117101118455046494648:w</title>
<path fill="none" stroke="black" stroke-dasharray="1,5" d="M648,-201C692.438,-201 706.02,-201 745.878,-201"/>
<polygon fill="black" stroke="black" points="756,-201 746,-205.5 751,-201 746,-201 746,-201 746,-201 751,-201 746,-196.5 756,-201 756,-201"/>
</g>
<!-- choice11010111645109105115994711710211611245514655 -->
<g id="node7" class="node">
<title>choice11010111645109105115994711710211611245514655</title>
<g id="a_node7"><a xlink:href="../net-misc/uftp-3.7.svg" xlink:title="net&#45;misc/uftp&#45;3.7">
<ellipse fill="none" stroke="red" cx="900" cy="-131" rx="144" ry="18"/>
<text text-anchor="middle" x="900" y="-128" font-family="Helvetica,sans-Serif" font-size="10.00">net&#45;misc/uftp&#45;3.7</text>
</a>
</g>
</g>
<!-- dependency200&#45;&gt;choice11010111645109105115994711710211611245514655 -->
<g id="edge6" class="edge">
<title>dependency200:e&#45;&gt;choice11010111645109105115994711710211611245514655:w</title>
<path fill="none" stroke="black" stroke-dasharray="1,5" d="M648,-77C698.102,-77 702.012,-124.066 745.979,-130.317"/>
<polygon fill="black" stroke="black" points="756,-131 745.717,-134.81 751.012,-130.66 746.023,-130.32 746.023,-130.32 746.023,-130.32 751.012,-130.66 746.329,-125.831 756,-131 756,-131"/>
</g>
<!-- choice110101116451091051159947117102116112455146554649 -->
<g id="node8" class="node">
<title>choice110101116451091051159947117102116112455146554649</title>
<g id="a_node8"><a xlink:href="../net-misc/uftp-3.7.1.svg" xlink:title="net&#45;misc/uftp&#45;3.7.1">
<ellipse fill="none" stroke="red" cx="900" cy="-77" rx="144" ry="18"/>
<text text-anchor="middle" x="900" y="-74" font-family="Helvetica,sans-Serif" font-size="10.00">net&#45;misc/uftp&#45;3.7.1</text>
</a>
</g>
</g>
<!-- dependency200&#45;&gt;choice110101116451091051159947117102116112455146554649 -->
<g id="edge7" class="edge">
<title>dependency200:e&#45;&gt;choice110101116451091051159947117102116112455146554649:w</title>
<path fill="none" stroke="black" stroke-dasharray="1,5" d="M648,-77C692.438,-77 706.02,-77 745.878,-77"/>
<polygon fill="black" stroke="black" points="756,-77 746,-81.5001 751,-77 746,-77.0001 746,-77.0001 746,-77.0001 751,-77 746,-72.5001 756,-77 756,-77"/>
</g>
</g>
</svg>
