<?xml version="1.0" encoding="UTF-8" standalone="no"?>
<!DOCTYPE svg PUBLIC "-//W3C//DTD SVG 1.1//EN"
 "http://www.w3.org/Graphics/SVG/1.1/DTD/svg11.dtd">
<!-- Generated by graphviz version 2.39.20160721.2101 (20160721.2101)
 -->
<!-- Title: prolog Pages: 1 -->
<svg width="1326pt" height="352pt"
 viewBox="0.00 0.00 1326.00 352.00" xmlns="http://www.w3.org/2000/svg" xmlns:xlink="http://www.w3.org/1999/xlink">
<g id="graph0" class="graph" transform="scale(1 1) rotate(0) translate(4 348)">
<title>prolog</title>
<polygon fill="white" stroke="transparent" points="-4,4 -4,-348 1322,-348 1322,4 -4,4"/>
<g id="clust1" class="cluster">
<title>cluster_leftcol</title>
<polygon fill="none" stroke="gray" points="8,-153 8,-225 312,-225 312,-153 8,-153"/>
<text text-anchor="start" x="146.663" y="-213" font-family="Helvetica,sans-Serif" font-style="italic" font-size="10.00">ebuild</text>
</g>
<g id="clust2" class="cluster">
<title>cluster_midcol</title>
<polygon fill="none" stroke="gray" points="396,-8 396,-336 922,-336 922,-8 396,-8"/>
<text text-anchor="start" x="627.875" y="-324" font-family="Helvetica,sans-Serif" font-style="italic" font-size="10.00">dependencies</text>
</g>
<g id="clust3" class="cluster">
<title>cluster_compile</title>
<polygon fill="#eeeeee" stroke="gray" points="404,-166 404,-308 914,-308 914,-166 404,-166"/>
<text text-anchor="start" x="641.778" y="-296" font-family="Helvetica,sans-Serif" font-style="italic" font-size="10.00">compile</text>
</g>
<g id="clust6" class="cluster">
<title>cluster_compileandrun</title>
<polygon fill="#eeeeee" stroke="gray" points="662,-16 662,-158 914,-158 914,-16 662,-16"/>
<text text-anchor="start" x="752.437" y="-146" font-family="Helvetica,sans-Serif" font-style="italic" font-size="10.00">compile and run</text>
</g>
<g id="clust9" class="cluster">
<title>cluster_choices</title>
<polygon fill="none" stroke="gray" points="1006,-45 1006,-279 1310,-279 1310,-45 1006,-45"/>
<text text-anchor="start" x="1133.82" y="-267" font-family="Helvetica,sans-Serif" font-style="italic" font-size="10.00">candidates</text>
</g>
<!-- id -->
<g id="node1" class="node">
<title>id</title>
<g id="a_node1"><a xlink:href="../net-vpn/iodine-0.7.0-r2.svg" xlink:title="net&#45;vpn/iodine&#45;0.7.0&#45;r2">
<ellipse fill="none" stroke="red" cx="160" cy="-179" rx="144" ry="18"/>
<text text-anchor="middle" x="160" y="-176" font-family="Helvetica,sans-Serif" font-size="10.00">net&#45;vpn/iodine&#45;0.7.0&#45;r2</text>
</a>
</g>
</g>
<!-- dependency437649 -->
<g id="node2" class="node">
<title>dependency437649</title>
<polygon fill="none" stroke="red" points="420,-191 420,-235 511,-235 511,-191 420,-191"/>
<text text-anchor="start" x="430.767" y="-210" font-family="Helvetica,sans-Serif" font-size="10.00">use_conditional</text>
<polygon fill="none" stroke="red" points="511,-213 511,-235 554,-235 554,-213 511,-213"/>
<text text-anchor="start" x="515.553" y="-221" font-family="Helvetica,sans-Serif" font-size="10.00">positive</text>
<polygon fill="none" stroke="red" points="511,-191 511,-213 554,-213 554,-191 511,-191"/>
<text text-anchor="start" x="524.442" y="-199" font-family="Helvetica,sans-Serif" font-size="10.00">test</text>
</g>
<!-- id&#45;&gt;dependency437649 -->
<g id="edge2" class="edge">
<title>id:e&#45;&gt;dependency437649:w</title>
<path fill="none" stroke="black" d="M304,-179C350.784,-179 360.431,-208.387 401.993,-212.519"/>
<polygon fill="black" stroke="black" points="412,-213 401.796,-217.015 407.006,-212.76 402.012,-212.52 402.012,-212.52 402.012,-212.52 407.006,-212.76 402.227,-208.025 412,-213 412,-213"/>
</g>
<!-- dependency437651 -->
<g id="node4" class="node">
<title>dependency437651</title>
<polygon fill="none" stroke="blue" points="678,-28 678,-126 783,-126 783,-28 678,-28"/>
<text text-anchor="start" x="708.823" y="-74" font-family="Helvetica,sans-Serif" font-size="10.00">pack_dep</text>
<polygon fill="none" stroke="blue" points="783,-104 783,-126 893,-126 893,-104 783,-104"/>
<text text-anchor="start" x="832.441" y="-112" font-family="Helvetica,sans-Serif" font-size="10.00">no</text>
<polygon fill="none" stroke="blue" points="783,-82 783,-104 893,-104 893,-82 783,-82"/>
<text text-anchor="start" x="821.337" y="-90" font-family="Helvetica,sans-Serif" font-size="10.00">sys&#45;libs</text>
<polygon fill="none" stroke="blue" points="783,-60 783,-82 893,-82 893,-60 783,-60"/>
<text text-anchor="start" x="830.501" y="-68" font-family="Helvetica,sans-Serif" font-size="10.00">zlib</text>
<polygon fill="none" stroke="blue" points="783,-38 783,-60 893,-60 893,-38 783,-38"/>
<text text-anchor="start" x="826.882" y="-46" font-family="Helvetica,sans-Serif" font-size="10.00">none</text>
<polygon fill="none" stroke="blue" points="783,-28 783,-38 893,-38 893,-28 783,-28"/>
</g>
<!-- id&#45;&gt;dependency437651 -->
<g id="edge3" class="edge">
<title>id:e&#45;&gt;dependency437651:w</title>
<path fill="none" stroke="black" d="M304,-179C382.908,-179 560.253,-89.911 652.042,-78.2529"/>
<ellipse fill="none" stroke="black" cx="666.01" cy="-77.2784" rx="4" ry="4"/>
<polygon fill="black" stroke="black" points="662.019,-77.5568 652.357,-82.742 657.032,-77.9048 652.044,-78.2529 652.044,-78.2529 652.044,-78.2529 657.032,-77.9048 651.73,-73.7638 662.019,-77.5568 662.019,-77.5568"/>
</g>
<!-- dependency437650 -->
<g id="node3" class="node">
<title>dependency437650</title>
<polygon fill="none" stroke="blue" points="678,-178 678,-276 783,-276 783,-178 678,-178"/>
<text text-anchor="start" x="708.823" y="-224" font-family="Helvetica,sans-Serif" font-size="10.00">pack_dep</text>
<polygon fill="none" stroke="blue" points="783,-254 783,-276 893,-276 893,-254 783,-254"/>
<text text-anchor="start" x="832.441" y="-262" font-family="Helvetica,sans-Serif" font-size="10.00">no</text>
<polygon fill="none" stroke="blue" points="783,-232 783,-254 893,-254 893,-232 783,-232"/>
<text text-anchor="start" x="820.778" y="-240" font-family="Helvetica,sans-Serif" font-size="10.00">dev&#45;libs</text>
<polygon fill="none" stroke="blue" points="783,-210 783,-232 893,-232 893,-210 783,-210"/>
<text text-anchor="start" x="824.941" y="-218" font-family="Helvetica,sans-Serif" font-size="10.00">check</text>
<polygon fill="none" stroke="blue" points="783,-188 783,-210 893,-210 893,-188 783,-188"/>
<text text-anchor="start" x="826.882" y="-196" font-family="Helvetica,sans-Serif" font-size="10.00">none</text>
<polygon fill="none" stroke="blue" points="783,-178 783,-188 893,-188 893,-178 783,-178"/>
</g>
<!-- dependency437649&#45;&gt;dependency437650 -->
<g id="edge1" class="edge">
<title>dependency437649:e&#45;&gt;dependency437650:w</title>
<path fill="none" stroke="black" stroke-dasharray="5,2" d="M562,-213C606.809,-213 619.731,-224.999 659.807,-226.78"/>
<polygon fill="black" stroke="black" points="670,-227 659.905,-231.283 665.001,-226.892 660.002,-226.784 660.002,-226.784 660.002,-226.784 665.001,-226.892 660.099,-222.285 670,-227 670,-227"/>
</g>
<!-- choice1001011184510810598115479910410199107454846494846484511449 -->
<g id="node5" class="node">
<title>choice1001011184510810598115479910410199107454846494846484511449</title>
<g id="a_node5"><a xlink:href="../dev-libs/check-0.10.0-r1.svg" xlink:title="dev&#45;libs/check&#45;0.10.0&#45;r1">
<ellipse fill="none" stroke="red" cx="1158" cy="-233" rx="144" ry="18"/>
<text text-anchor="middle" x="1158" y="-230" font-family="Helvetica,sans-Serif" font-size="10.00">dev&#45;libs/check&#45;0.10.0&#45;r1</text>
</a>
</g>
</g>
<!-- dependency437650&#45;&gt;choice1001011184510810598115479910410199107454846494846484511449 -->
<g id="edge4" class="edge">
<title>dependency437650:e&#45;&gt;choice1001011184510810598115479910410199107454846494846484511449:w</title>
<path fill="none" stroke="black" stroke-dasharray="1,5" d="M906,-227C950.506,-227 963.967,-232.142 1003.86,-232.906"/>
<polygon fill="black" stroke="black" points="1014,-233 1003.96,-237.407 1009,-232.953 1004,-232.907 1004,-232.907 1004,-232.907 1009,-232.953 1004.04,-228.407 1014,-233 1014,-233"/>
</g>
<!-- choice100101118451081059811547991041019910745484649504648 -->
<g id="node6" class="node">
<title>choice100101118451081059811547991041019910745484649504648</title>
<g id="a_node6"><a xlink:href="../dev-libs/check-0.12.0.svg" xlink:title="dev&#45;libs/check&#45;0.12.0">
<ellipse fill="none" stroke="red" cx="1158" cy="-179" rx="144" ry="18"/>
<text text-anchor="middle" x="1158" y="-176" font-family="Helvetica,sans-Serif" font-size="10.00">dev&#45;libs/check&#45;0.12.0</text>
</a>
</g>
</g>
<!-- dependency437650&#45;&gt;choice100101118451081059811547991041019910745484649504648 -->
<g id="edge5" class="edge">
<title>dependency437650:e&#45;&gt;choice100101118451081059811547991041019910745484649504648:w</title>
<path fill="none" stroke="black" stroke-dasharray="1,5" d="M906,-227C954.937,-227 960.838,-185.338 1003.89,-179.642"/>
<polygon fill="black" stroke="black" points="1014,-179 1004.31,-184.125 1009.01,-179.317 1004.02,-179.634 1004.02,-179.634 1004.02,-179.634 1009.01,-179.317 1003.73,-175.143 1014,-179 1014,-179"/>
</g>
<!-- choice1151211154510810598115471221081059845494650464949 -->
<g id="node7" class="node">
<title>choice1151211154510810598115471221081059845494650464949</title>
<g id="a_node7"><a xlink:href="../sys-libs/zlib-1.2.11.svg" xlink:title="sys&#45;libs/zlib&#45;1.2.11">
<ellipse fill="none" stroke="red" cx="1158" cy="-125" rx="144" ry="18"/>
<text text-anchor="middle" x="1158" y="-122" font-family="Helvetica,sans-Serif" font-size="10.00">sys&#45;libs/zlib&#45;1.2.11</text>
</a>
</g>
</g>
<!-- dependency437651&#45;&gt;choice1151211154510810598115471221081059845494650464949 -->
<g id="edge6" class="edge">
<title>dependency437651:e&#45;&gt;choice1151211154510810598115471221081059845494650464949:w</title>
<path fill="none" stroke="black" stroke-dasharray="1,5" d="M906,-77C954.937,-77 960.838,-118.662 1003.89,-124.358"/>
<polygon fill="black" stroke="black" points="1014,-125 1003.73,-128.857 1009.01,-124.683 1004.02,-124.366 1004.02,-124.366 1004.02,-124.366 1009.01,-124.683 1004.31,-119.875 1014,-125 1014,-125"/>
</g>
<!-- choice11512111545108105981154712210810598454946504649494511449 -->
<g id="node8" class="node">
<title>choice11512111545108105981154712210810598454946504649494511449</title>
<g id="a_node8"><a xlink:href="../sys-libs/zlib-1.2.11-r1.svg" xlink:title="sys&#45;libs/zlib&#45;1.2.11&#45;r1">
<ellipse fill="none" stroke="red" cx="1158" cy="-71" rx="144" ry="18"/>
<text text-anchor="middle" x="1158" y="-68" font-family="Helvetica,sans-Serif" font-size="10.00">sys&#45;libs/zlib&#45;1.2.11&#45;r1</text>
</a>
</g>
</g>
<!-- dependency437651&#45;&gt;choice11512111545108105981154712210810598454946504649494511449 -->
<g id="edge7" class="edge">
<title>dependency437651:e&#45;&gt;choice11512111545108105981154712210810598454946504649494511449:w</title>
<path fill="none" stroke="black" stroke-dasharray="1,5" d="M906,-77C950.506,-77 963.967,-71.8576 1003.86,-71.0942"/>
<polygon fill="black" stroke="black" points="1014,-71 1004.04,-75.5929 1009,-71.0465 1004,-71.0931 1004,-71.0931 1004,-71.0931 1009,-71.0465 1003.96,-66.5933 1014,-71 1014,-71"/>
</g>
</g>
</svg>
