<?xml version="1.0" encoding="UTF-8" standalone="no"?>
<!DOCTYPE svg PUBLIC "-//W3C//DTD SVG 1.1//EN"
 "http://www.w3.org/Graphics/SVG/1.1/DTD/svg11.dtd">
<!-- Generated by graphviz version 2.41.20171026.1811 (20171026.1811)
 -->
<!-- Title: prolog Pages: 1 -->
<svg width="1604pt" height="580pt"
 viewBox="0.00 0.00 1604.00 580.00" xmlns="http://www.w3.org/2000/svg" xmlns:xlink="http://www.w3.org/1999/xlink">
<g id="graph0" class="graph" transform="scale(1 1) rotate(0) translate(4 576)">
<title>prolog</title>
<polygon fill="white" stroke="transparent" points="-4,4 -4,-576 1600,-576 1600,4 -4,4"/>
<g id="clust1" class="cluster">
<title>cluster_leftcol</title>
<polygon fill="none" stroke="gray" points="8,-164 8,-234 312,-234 312,-164 8,-164"/>
<text text-anchor="start" x="146.66" y="-223" font-family="Helvetica,sans-Serif" font-style="italic" font-size="10.00">ebuild</text>
</g>
<g id="clust2" class="cluster">
<title>cluster_midcol</title>
<polygon fill="none" stroke="gray" points="396,-9 396,-547 1200,-547 1200,-9 396,-9"/>
<text text-anchor="start" x="766.86" y="-536" font-family="Helvetica,sans-Serif" font-style="italic" font-size="10.00">dependencies</text>
</g>
<g id="clust3" class="cluster">
<title>cluster_compile</title>
<polygon fill="#eeeeee" stroke="gray" points="404,-273 404,-521 1192,-521 1192,-273 404,-273"/>
<text text-anchor="start" x="780.77" y="-510" font-family="Helvetica,sans-Serif" font-style="italic" font-size="10.00">compile</text>
</g>
<g id="clust8" class="cluster">
<title>cluster_compileandrun</title>
<polygon fill="#eeeeee" stroke="gray" points="404,-17 404,-265 1192,-265 1192,-17 404,-17"/>
<text text-anchor="start" x="762.42" y="-254" font-family="Helvetica,sans-Serif" font-style="italic" font-size="10.00">compile and run</text>
</g>
<g id="clust15" class="cluster">
<title>cluster_choices</title>
<polygon fill="none" stroke="gray" points="1284,-8 1284,-564 1588,-564 1588,-8 1284,-8"/>
<text text-anchor="start" x="1411.82" y="-553" font-family="Helvetica,sans-Serif" font-style="italic" font-size="10.00">candidates</text>
</g>
<!-- id -->
<g id="node1" class="node">
<title>id</title>
<g id="a_node1"><a xlink:href="../net-vpn/wireguard-0.0.20180519.svg" xlink:title="net&#45;vpn/wireguard&#45;0.0.20180519">
<ellipse fill="none" stroke="red" cx="160" cy="-190" rx="144" ry="18"/>
<text text-anchor="middle" x="160" y="-187" font-family="Helvetica,sans-Serif" font-size="10.00">net&#45;vpn/wireguard&#45;0.0.20180519</text>
</a>
</g>
</g>
<!-- dependency2440 -->
<g id="node2" class="node">
<title>dependency2440</title>
<polygon fill="none" stroke="red" points="420,-310 420,-350 511,-350 511,-310 420,-310"/>
<text text-anchor="start" x="430.75" y="-327" font-family="Helvetica,sans-Serif" font-size="10.00">use_conditional</text>
<polygon fill="none" stroke="red" points="511,-330 511,-350 554,-350 554,-330 511,-330"/>
<text text-anchor="start" x="515.55" y="-337" font-family="Helvetica,sans-Serif" font-size="10.00">positive</text>
<polygon fill="none" stroke="red" points="511,-310 511,-330 554,-330 554,-310 511,-310"/>
<text text-anchor="start" x="516.1" y="-317" font-family="Helvetica,sans-Serif" font-size="10.00">module</text>
</g>
<!-- id&#45;&gt;dependency2440 -->
<g id="edge4" class="edge">
<title>id:e&#45;&gt;dependency2440:w</title>
<path fill="none" stroke="black" d="M305,-190C379.39,-190 337.37,-317.18 400.84,-329.11"/>
<polygon fill="black" stroke="black" points="411,-330 400.64,-333.61 406.02,-329.56 401.04,-329.12 401.04,-329.12 401.04,-329.12 406.02,-329.56 401.43,-324.64 411,-330 411,-330"/>
</g>
<!-- dependency2444 -->
<g id="node6" class="node">
<title>dependency2444</title>
<polygon fill="none" stroke="red" points="420,-170 420,-210 511,-210 511,-170 420,-170"/>
<text text-anchor="start" x="430.75" y="-187" font-family="Helvetica,sans-Serif" font-size="10.00">use_conditional</text>
<polygon fill="none" stroke="red" points="511,-190 511,-210 554,-210 554,-190 511,-190"/>
<text text-anchor="start" x="515.55" y="-197" font-family="Helvetica,sans-Serif" font-size="10.00">positive</text>
<polygon fill="none" stroke="red" points="511,-170 511,-190 554,-190 554,-170 511,-170"/>
<text text-anchor="start" x="516.1" y="-177" font-family="Helvetica,sans-Serif" font-size="10.00">module</text>
</g>
<!-- id&#45;&gt;dependency2444 -->
<g id="edge7" class="edge">
<title>id:e&#45;&gt;dependency2444:w</title>
<path fill="none" stroke="black" d="M305,-190C345.3,-190 359.75,-190 392.57,-190"/>
<ellipse fill="none" stroke="black" cx="407" cy="-190" rx="4" ry="4"/>
<polygon fill="black" stroke="black" points="403,-190 393,-194.5 398,-190 393,-190 393,-190 393,-190 398,-190 393,-185.5 403,-190 403,-190"/>
</g>
<!-- dependency2447 -->
<g id="node9" class="node">
<title>dependency2447</title>
<polygon fill="none" stroke="red" points="420,-79 420,-119 511,-119 511,-79 420,-79"/>
<text text-anchor="start" x="430.75" y="-96" font-family="Helvetica,sans-Serif" font-size="10.00">use_conditional</text>
<polygon fill="none" stroke="red" points="511,-99 511,-119 554,-119 554,-99 511,-99"/>
<text text-anchor="start" x="515.55" y="-106" font-family="Helvetica,sans-Serif" font-size="10.00">positive</text>
<polygon fill="none" stroke="red" points="511,-79 511,-99 554,-99 554,-79 511,-79"/>
<text text-anchor="start" x="521.94" y="-86" font-family="Helvetica,sans-Serif" font-size="10.00">tools</text>
</g>
<!-- id&#45;&gt;dependency2447 -->
<g id="edge9" class="edge">
<title>id:e&#45;&gt;dependency2447:w</title>
<path fill="none" stroke="black" d="M305,-190C360.18,-190 351.96,-118.13 393.03,-102.13"/>
<ellipse fill="none" stroke="black" cx="407.06" cy="-99.69" rx="4" ry="4"/>
<polygon fill="black" stroke="black" points="403.12,-100.37 394.04,-106.52 398.19,-101.23 393.27,-102.09 393.27,-102.09 393.27,-102.09 398.19,-101.23 392.49,-97.66 403.12,-100.37 403.12,-100.37"/>
</g>
<!-- dependency2441 -->
<g id="node3" class="node">
<title>dependency2441</title>
<polygon fill="none" stroke="blue" points="956,-285 956,-375 1061,-375 1061,-285 956,-285"/>
<text text-anchor="start" x="986.82" y="-327" font-family="Helvetica,sans-Serif" font-size="10.00">pack_dep</text>
<polygon fill="none" stroke="blue" points="1061,-355 1061,-375 1171,-375 1171,-355 1061,-355"/>
<text text-anchor="start" x="1110.44" y="-362" font-family="Helvetica,sans-Serif" font-size="10.00">no</text>
<polygon fill="none" stroke="blue" points="1061,-335 1061,-355 1171,-355 1171,-335 1061,-335"/>
<text text-anchor="start" x="1095.99" y="-342" font-family="Helvetica,sans-Serif" font-size="10.00">sys&#45;apps</text>
<polygon fill="none" stroke="blue" points="1061,-315 1061,-335 1171,-335 1171,-315 1061,-315"/>
<text text-anchor="start" x="1107.94" y="-322" font-family="Helvetica,sans-Serif" font-size="10.00">sed</text>
<polygon fill="none" stroke="blue" points="1061,-295 1061,-315 1171,-315 1171,-295 1061,-295"/>
<text text-anchor="start" x="1104.88" y="-302" font-family="Helvetica,sans-Serif" font-size="10.00">none</text>
<polygon fill="none" stroke="blue" points="1061,-285 1061,-295 1171,-295 1171,-285 1061,-285"/>
</g>
<!-- dependency2440&#45;&gt;dependency2441 -->
<g id="edge1" class="edge">
<title>dependency2440:e&#45;&gt;dependency2441:w</title>
<path fill="none" stroke="black" stroke-dasharray="5,2" d="M562,-330C730.04,-330 774.63,-330 937.61,-330"/>
<polygon fill="black" stroke="black" points="948,-330 938,-334.5 943,-330 938,-330 938,-330 938,-330 943,-330 938,-325.5 948,-330 948,-330"/>
</g>
<!-- dependency2442 -->
<g id="node4" class="node">
<title>dependency2442</title>
<polygon fill="none" stroke="red" points="678,-389 678,-429 769,-429 769,-389 678,-389"/>
<text text-anchor="start" x="688.75" y="-406" font-family="Helvetica,sans-Serif" font-size="10.00">use_conditional</text>
<polygon fill="none" stroke="red" points="769,-409 769,-429 832,-429 832,-409 769,-409"/>
<text text-anchor="start" x="783.55" y="-416" font-family="Helvetica,sans-Serif" font-size="10.00">positive</text>
<polygon fill="none" stroke="red" points="769,-389 769,-409 832,-409 832,-389 769,-389"/>
<text text-anchor="start" x="773.82" y="-396" font-family="Helvetica,sans-Serif" font-size="10.00">kernel_linux</text>
</g>
<!-- dependency2440&#45;&gt;dependency2442 -->
<g id="edge3" class="edge">
<title>dependency2440:e&#45;&gt;dependency2442:w</title>
<path fill="none" stroke="black" stroke-dasharray="5,2" d="M562,-330C617.87,-330 611.6,-399.72 659.94,-408.17"/>
<polygon fill="black" stroke="black" points="670,-409 659.66,-412.66 665.02,-408.59 660.03,-408.17 660.03,-408.17 660.03,-408.17 665.02,-408.59 660.41,-403.69 670,-409 670,-409"/>
</g>
<!-- choice11512111545971121121154711510110045524652 -->
<g id="node11" class="node">
<title>choice11512111545971121121154711510110045524652</title>
<g id="a_node11"><a xlink:href="../sys-apps/sed-4.4.svg" xlink:title="sys&#45;apps/sed&#45;4.4">
<ellipse fill="none" stroke="red" cx="1436" cy="-250" rx="144" ry="18"/>
<text text-anchor="middle" x="1436" y="-247" font-family="Helvetica,sans-Serif" font-size="10.00">sys&#45;apps/sed&#45;4.4</text>
</a>
</g>
</g>
<!-- dependency2441&#45;&gt;choice11512111545971121121154711510110045524652 -->
<g id="edge10" class="edge">
<title>dependency2441:e&#45;&gt;choice11512111545971121121154711510110045524652:w</title>
<path fill="none" stroke="black" stroke-dasharray="1,5" d="M1185,-330C1240.45,-330 1233.18,-259.39 1281.03,-250.84"/>
<polygon fill="black" stroke="black" points="1291,-250 1281.42,-255.33 1286.02,-250.42 1281.04,-250.84 1281.04,-250.84 1281.04,-250.84 1286.02,-250.42 1280.66,-246.36 1291,-250 1291,-250"/>
</g>
<!-- choice115121115459711211211547115101100455246504650 -->
<g id="node12" class="node">
<title>choice115121115459711211211547115101100455246504650</title>
<g id="a_node12"><a xlink:href="../sys-apps/sed-4.2.2.svg" xlink:title="sys&#45;apps/sed&#45;4.2.2">
<ellipse fill="none" stroke="red" cx="1436" cy="-196" rx="144" ry="18"/>
<text text-anchor="middle" x="1436" y="-193" font-family="Helvetica,sans-Serif" font-size="10.00">sys&#45;apps/sed&#45;4.2.2</text>
</a>
</g>
</g>
<!-- dependency2441&#45;&gt;choice115121115459711211211547115101100455246504650 -->
<g id="edge11" class="edge">
<title>dependency2441:e&#45;&gt;choice115121115459711211211547115101100455246504650:w</title>
<path fill="none" stroke="black" stroke-dasharray="1,5" d="M1185,-330C1257.23,-330 1219.25,-208.77 1280.72,-196.93"/>
<polygon fill="black" stroke="black" points="1291,-196 1281.44,-201.38 1286.02,-196.45 1281.04,-196.9 1281.04,-196.9 1281.04,-196.9 1286.02,-196.45 1280.64,-192.42 1291,-196 1291,-196"/>
</g>
<!-- choice115121115459711211211547115101100455246514511449 -->
<g id="node13" class="node">
<title>choice115121115459711211211547115101100455246514511449</title>
<g id="a_node13"><a xlink:href="../sys-apps/sed-4.3-r1.svg" xlink:title="sys&#45;apps/sed&#45;4.3&#45;r1">
<ellipse fill="none" stroke="red" cx="1436" cy="-412" rx="144" ry="18"/>
<text text-anchor="middle" x="1436" y="-409" font-family="Helvetica,sans-Serif" font-size="10.00">sys&#45;apps/sed&#45;4.3&#45;r1</text>
</a>
</g>
</g>
<!-- dependency2441&#45;&gt;choice115121115459711211211547115101100455246514511449 -->
<g id="edge12" class="edge">
<title>dependency2441:e&#45;&gt;choice115121115459711211211547115101100455246514511449:w</title>
<path fill="none" stroke="black" stroke-dasharray="1,5" d="M1185,-330C1240.96,-330 1232.76,-402.37 1280.95,-411.13"/>
<polygon fill="black" stroke="black" points="1291,-412 1280.65,-415.63 1286.02,-411.57 1281.04,-411.14 1281.04,-411.14 1281.04,-411.14 1286.02,-411.57 1281.42,-406.66 1291,-412 1291,-412"/>
</g>
<!-- choice115121115459711211211547115101100455246524511449 -->
<g id="node14" class="node">
<title>choice115121115459711211211547115101100455246524511449</title>
<g id="a_node14"><a xlink:href="../sys-apps/sed-4.4-r1.svg" xlink:title="sys&#45;apps/sed&#45;4.4&#45;r1">
<ellipse fill="none" stroke="red" cx="1436" cy="-358" rx="144" ry="18"/>
<text text-anchor="middle" x="1436" y="-355" font-family="Helvetica,sans-Serif" font-size="10.00">sys&#45;apps/sed&#45;4.4&#45;r1</text>
</a>
</g>
</g>
<!-- dependency2441&#45;&gt;choice115121115459711211211547115101100455246524511449 -->
<g id="edge13" class="edge">
<title>dependency2441:e&#45;&gt;choice115121115459711211211547115101100455246524511449:w</title>
<path fill="none" stroke="black" stroke-dasharray="1,5" d="M1185,-330C1230.11,-330 1240.78,-354 1280.78,-357.56"/>
<polygon fill="black" stroke="black" points="1291,-358 1280.82,-362.07 1286,-357.78 1281.01,-357.57 1281.01,-357.57 1281.01,-357.57 1286,-357.78 1281.2,-353.07 1291,-358 1291,-358"/>
</g>
<!-- choice11512111545971121121154711510110045524653 -->
<g id="node15" class="node">
<title>choice11512111545971121121154711510110045524653</title>
<g id="a_node15"><a xlink:href="../sys-apps/sed-4.5.svg" xlink:title="sys&#45;apps/sed&#45;4.5">
<ellipse fill="none" stroke="red" cx="1436" cy="-304" rx="144" ry="18"/>
<text text-anchor="middle" x="1436" y="-301" font-family="Helvetica,sans-Serif" font-size="10.00">sys&#45;apps/sed&#45;4.5</text>
</a>
</g>
</g>
<!-- dependency2441&#45;&gt;choice11512111545971121121154711510110045524653 -->
<g id="edge14" class="edge">
<title>dependency2441:e&#45;&gt;choice11512111545971121121154711510110045524653:w</title>
<path fill="none" stroke="black" stroke-dasharray="1,5" d="M1185,-330C1229.91,-330 1240.94,-307.72 1280.82,-304.41"/>
<polygon fill="black" stroke="black" points="1291,-304 1281.19,-308.9 1286,-304.2 1281.01,-304.4 1281.01,-304.4 1281.01,-304.4 1286,-304.2 1280.83,-299.9 1291,-304 1291,-304"/>
</g>
<!-- dependency2443 -->
<g id="node5" class="node">
<title>dependency2443</title>
<polygon fill="none" stroke="blue" points="956,-401 956,-491 1061,-491 1061,-401 956,-401"/>
<text text-anchor="start" x="986.82" y="-443" font-family="Helvetica,sans-Serif" font-size="10.00">pack_dep</text>
<polygon fill="none" stroke="blue" points="1061,-471 1061,-491 1171,-491 1171,-471 1061,-471"/>
<text text-anchor="start" x="1110.44" y="-478" font-family="Helvetica,sans-Serif" font-size="10.00">no</text>
<polygon fill="none" stroke="blue" points="1061,-451 1061,-471 1171,-471 1171,-451 1061,-451"/>
<text text-anchor="start" x="1102.66" y="-458" font-family="Helvetica,sans-Serif" font-size="10.00">virtual</text>
<polygon fill="none" stroke="blue" points="1061,-431 1061,-451 1171,-451 1171,-431 1061,-431"/>
<text text-anchor="start" x="1086.54" y="-438" font-family="Helvetica,sans-Serif" font-size="10.00">linux&#45;sources</text>
<polygon fill="none" stroke="blue" points="1061,-411 1061,-431 1171,-431 1171,-411 1061,-411"/>
<text text-anchor="start" x="1104.88" y="-418" font-family="Helvetica,sans-Serif" font-size="10.00">none</text>
<polygon fill="none" stroke="blue" points="1061,-401 1061,-411 1171,-411 1171,-401 1061,-401"/>
</g>
<!-- dependency2442&#45;&gt;dependency2443 -->
<g id="edge2" class="edge">
<title>dependency2442:e&#45;&gt;dependency2443:w</title>
<path fill="none" stroke="black" stroke-dasharray="5,2" d="M840,-409C887.17,-409 896.13,-440.98 937.92,-445.48"/>
<polygon fill="black" stroke="black" points="948,-446 937.78,-449.98 943.01,-445.74 938.01,-445.48 938.01,-445.48 938.01,-445.48 943.01,-445.74 938.25,-440.99 948,-446 948,-446"/>
</g>
<!-- choice118105114116117971084710810511011712045115111117114991011154551 -->
<g id="node16" class="node">
<title>choice118105114116117971084710810511011712045115111117114991011154551</title>
<g id="a_node16"><a xlink:href="../virtual/linux-sources-3.svg" xlink:title="virtual/linux&#45;sources&#45;3">
<ellipse fill="none" stroke="red" cx="1436" cy="-520" rx="144" ry="18"/>
<text text-anchor="middle" x="1436" y="-517" font-family="Helvetica,sans-Serif" font-size="10.00">virtual/linux&#45;sources&#45;3</text>
</a>
</g>
</g>
<!-- dependency2443&#45;&gt;choice118105114116117971084710810511011712045115111117114991011154551 -->
<g id="edge15" class="edge">
<title>dependency2443:e&#45;&gt;choice118105114116117971084710810511011712045115111117114991011154551:w</title>
<path fill="none" stroke="black" stroke-dasharray="1,5" d="M1185,-446C1238.86,-446 1234.4,-511.04 1280.97,-519.17"/>
<polygon fill="black" stroke="black" points="1291,-520 1280.66,-523.66 1286.02,-519.59 1281.03,-519.17 1281.03,-519.17 1281.03,-519.17 1286.02,-519.59 1281.41,-514.69 1291,-520 1291,-520"/>
</g>
<!-- choice1181051141161179710847108105110117120451151111171149910111545514511449 -->
<g id="node17" class="node">
<title>choice1181051141161179710847108105110117120451151111171149910111545514511449</title>
<g id="a_node17"><a xlink:href="../virtual/linux-sources-3-r1.svg" xlink:title="virtual/linux&#45;sources&#45;3&#45;r1">
<ellipse fill="none" stroke="red" cx="1436" cy="-466" rx="144" ry="18"/>
<text text-anchor="middle" x="1436" y="-463" font-family="Helvetica,sans-Serif" font-size="10.00">virtual/linux&#45;sources&#45;3&#45;r1</text>
</a>
</g>
</g>
<!-- dependency2443&#45;&gt;choice1181051141161179710847108105110117120451151111171149910111545514511449 -->
<g id="edge16" class="edge">
<title>dependency2443:e&#45;&gt;choice1181051141161179710847108105110117120451151111171149910111545514511449:w</title>
<path fill="none" stroke="black" stroke-dasharray="1,5" d="M1185,-446C1229.38,-446 1241.35,-463.14 1280.92,-465.69"/>
<polygon fill="black" stroke="black" points="1291,-466 1280.86,-470.19 1286,-465.84 1281,-465.69 1281,-465.69 1281,-465.69 1286,-465.84 1281.15,-461.19 1291,-466 1291,-466"/>
</g>
<!-- dependency2445 -->
<g id="node7" class="node">
<title>dependency2445</title>
<polygon fill="none" stroke="red" points="678,-170 678,-210 769,-210 769,-170 678,-170"/>
<text text-anchor="start" x="688.75" y="-187" font-family="Helvetica,sans-Serif" font-size="10.00">use_conditional</text>
<polygon fill="none" stroke="red" points="769,-190 769,-210 832,-210 832,-190 769,-190"/>
<text text-anchor="start" x="783.55" y="-197" font-family="Helvetica,sans-Serif" font-size="10.00">positive</text>
<polygon fill="none" stroke="red" points="769,-170 769,-190 832,-190 832,-170 769,-170"/>
<text text-anchor="start" x="773.82" y="-177" font-family="Helvetica,sans-Serif" font-size="10.00">kernel_linux</text>
</g>
<!-- dependency2444&#45;&gt;dependency2445 -->
<g id="edge6" class="edge">
<title>dependency2444:e&#45;&gt;dependency2445:w</title>
<path fill="none" stroke="black" stroke-dasharray="5,2" d="M562,-190C606.44,-190 620.02,-190 659.88,-190"/>
<polygon fill="black" stroke="black" points="670,-190 660,-194.5 665,-190 660,-190 660,-190 660,-190 665,-190 660,-185.5 670,-190 670,-190"/>
</g>
<!-- dependency2446 -->
<g id="node8" class="node">
<title>dependency2446</title>
<polygon fill="none" stroke="blue" points="956,-145 956,-235 1061,-235 1061,-145 956,-145"/>
<text text-anchor="start" x="986.82" y="-187" font-family="Helvetica,sans-Serif" font-size="10.00">pack_dep</text>
<polygon fill="none" stroke="blue" points="1061,-215 1061,-235 1171,-235 1171,-215 1061,-215"/>
<text text-anchor="start" x="1110.44" y="-222" font-family="Helvetica,sans-Serif" font-size="10.00">no</text>
<polygon fill="none" stroke="blue" points="1061,-195 1061,-215 1171,-215 1171,-195 1061,-195"/>
<text text-anchor="start" x="1102.66" y="-202" font-family="Helvetica,sans-Serif" font-size="10.00">virtual</text>
<polygon fill="none" stroke="blue" points="1061,-175 1061,-195 1171,-195 1171,-175 1061,-175"/>
<text text-anchor="start" x="1097.38" y="-182" font-family="Helvetica,sans-Serif" font-size="10.00">modutils</text>
<polygon fill="none" stroke="blue" points="1061,-155 1061,-175 1171,-175 1171,-155 1061,-155"/>
<text text-anchor="start" x="1104.88" y="-162" font-family="Helvetica,sans-Serif" font-size="10.00">none</text>
<polygon fill="none" stroke="blue" points="1061,-145 1061,-155 1171,-155 1171,-145 1061,-145"/>
</g>
<!-- dependency2445&#45;&gt;dependency2446 -->
<g id="edge5" class="edge">
<title>dependency2445:e&#45;&gt;dependency2446:w</title>
<path fill="none" stroke="black" stroke-dasharray="5,2" d="M840,-190C884.44,-190 898.02,-190 937.88,-190"/>
<polygon fill="black" stroke="black" points="948,-190 938,-194.5 943,-190 938,-190 938,-190 938,-190 943,-190 938,-185.5 948,-190 948,-190"/>
</g>
<!-- choice11810511411611797108471091111001171161051081154548 -->
<g id="node18" class="node">
<title>choice11810511411611797108471091111001171161051081154548</title>
<g id="a_node18"><a xlink:href="../virtual/modutils-0.svg" xlink:title="virtual/modutils&#45;0">
<ellipse fill="none" stroke="red" cx="1436" cy="-142" rx="144" ry="18"/>
<text text-anchor="middle" x="1436" y="-139" font-family="Helvetica,sans-Serif" font-size="10.00">virtual/modutils&#45;0</text>
</a>
</g>
</g>
<!-- dependency2446&#45;&gt;choice11810511411611797108471091111001171161051081154548 -->
<g id="edge17" class="edge">
<title>dependency2446:e&#45;&gt;choice11810511411611797108471091111001171161051081154548:w</title>
<path fill="none" stroke="black" stroke-dasharray="1,5" d="M1185,-190C1233.08,-190 1238.68,-148.51 1280.79,-142.68"/>
<polygon fill="black" stroke="black" points="1291,-142 1281.32,-147.15 1286.01,-142.33 1281.02,-142.66 1281.02,-142.66 1281.02,-142.66 1286.01,-142.33 1280.72,-138.17 1291,-142 1291,-142"/>
</g>
<!-- dependency2448 -->
<g id="node10" class="node">
<title>dependency2448</title>
<polygon fill="none" stroke="blue" points="956,-29 956,-119 1061,-119 1061,-29 956,-29"/>
<text text-anchor="start" x="986.82" y="-71" font-family="Helvetica,sans-Serif" font-size="10.00">pack_dep</text>
<polygon fill="none" stroke="blue" points="1061,-99 1061,-119 1171,-119 1171,-99 1061,-99"/>
<text text-anchor="start" x="1110.44" y="-106" font-family="Helvetica,sans-Serif" font-size="10.00">no</text>
<polygon fill="none" stroke="blue" points="1061,-79 1061,-99 1171,-99 1171,-79 1061,-79"/>
<text text-anchor="start" x="1099.88" y="-86" font-family="Helvetica,sans-Serif" font-size="10.00">net&#45;libs</text>
<polygon fill="none" stroke="blue" points="1061,-59 1061,-79 1171,-79 1171,-59 1061,-59"/>
<text text-anchor="start" x="1102.94" y="-66" font-family="Helvetica,sans-Serif" font-size="10.00">libmnl</text>
<polygon fill="none" stroke="blue" points="1061,-39 1061,-59 1171,-59 1171,-39 1061,-39"/>
<text text-anchor="start" x="1104.88" y="-46" font-family="Helvetica,sans-Serif" font-size="10.00">none</text>
<polygon fill="none" stroke="blue" points="1061,-29 1061,-39 1171,-39 1171,-29 1061,-29"/>
</g>
<!-- dependency2447&#45;&gt;dependency2448 -->
<g id="edge8" class="edge">
<title>dependency2447:e&#45;&gt;dependency2448:w</title>
<path fill="none" stroke="black" stroke-dasharray="5,2" d="M562,-99C730.39,-99 774.3,-75.01 937.58,-74.03"/>
<polygon fill="black" stroke="black" points="948,-74 938.01,-78.53 943,-74.01 938,-74.03 938,-74.03 938,-74.03 943,-74.01 937.99,-69.53 948,-74 948,-74"/>
</g>
<!-- choice110101116451081059811547108105981091101084549464846514511449 -->
<g id="node19" class="node">
<title>choice110101116451081059811547108105981091101084549464846514511449</title>
<g id="a_node19"><a xlink:href="../net-libs/libmnl-1.0.3-r1.svg" xlink:title="net&#45;libs/libmnl&#45;1.0.3&#45;r1">
<ellipse fill="none" stroke="red" cx="1436" cy="-88" rx="144" ry="18"/>
<text text-anchor="middle" x="1436" y="-85" font-family="Helvetica,sans-Serif" font-size="10.00">net&#45;libs/libmnl&#45;1.0.3&#45;r1</text>
</a>
</g>
</g>
<!-- dependency2448&#45;&gt;choice110101116451081059811547108105981091101084549464846514511449 -->
<g id="edge18" class="edge">
<title>dependency2448:e&#45;&gt;choice110101116451081059811547108105981091101084549464846514511449:w</title>
<path fill="none" stroke="black" stroke-dasharray="1,5" d="M1185,-74C1228.99,-74 1241.65,-86 1280.99,-87.78"/>
<polygon fill="black" stroke="black" points="1291,-88 1280.9,-92.28 1286,-87.89 1281,-87.78 1281,-87.78 1281,-87.78 1286,-87.89 1281.1,-83.28 1291,-88 1291,-88"/>
</g>
<!-- choice11010111645108105981154710810598109110108454946484652 -->
<g id="node20" class="node">
<title>choice11010111645108105981154710810598109110108454946484652</title>
<g id="a_node20"><a xlink:href="../net-libs/libmnl-1.0.4.svg" xlink:title="net&#45;libs/libmnl&#45;1.0.4">
<ellipse fill="none" stroke="red" cx="1436" cy="-34" rx="144" ry="18"/>
<text text-anchor="middle" x="1436" y="-31" font-family="Helvetica,sans-Serif" font-size="10.00">net&#45;libs/libmnl&#45;1.0.4</text>
</a>
</g>
</g>
<!-- dependency2448&#45;&gt;choice11010111645108105981154710810598109110108454946484652 -->
<g id="edge19" class="edge">
<title>dependency2448:e&#45;&gt;choice11010111645108105981154710810598109110108454946484652:w</title>
<path fill="none" stroke="black" stroke-dasharray="1,5" d="M1185,-74C1231.81,-74 1239.68,-39.43 1281.02,-34.57"/>
<polygon fill="black" stroke="black" points="1291,-34 1281.27,-39.06 1286.01,-34.28 1281.02,-34.57 1281.02,-34.57 1281.02,-34.57 1286.01,-34.28 1280.76,-30.07 1291,-34 1291,-34"/>
</g>
</g>
</svg>
