<?xml version="1.0" encoding="UTF-8" standalone="no"?>
<!DOCTYPE svg PUBLIC "-//W3C//DTD SVG 1.1//EN"
 "http://www.w3.org/Graphics/SVG/1.1/DTD/svg11.dtd">
<!-- Generated by graphviz version 2.44.1 (20200629.0846)
 -->
<!-- Title: prolog Pages: 1 -->
<svg width="1386pt" height="1554pt"
 viewBox="0.00 0.00 1386.00 1554.00" xmlns="http://www.w3.org/2000/svg" xmlns:xlink="http://www.w3.org/1999/xlink">
<g id="graph0" class="graph" transform="scale(1 1) rotate(0) translate(4 1550)">
<title>prolog</title>
<polygon fill="white" stroke="transparent" points="-4,4 -4,-1550 1382,-1550 1382,4 -4,4"/>
<g id="clust1" class="cluster">
<title>cluster_leftcol</title>
<polygon fill="none" stroke="gray" points="8,-971 8,-1043 312,-1043 312,-971 8,-971"/>
<text text-anchor="start" x="146.66" y="-1031" font-family="Helvetica,sans-Serif" font-style="italic" font-size="10.00">ebuild</text>
</g>
<g id="clust2" class="cluster">
<title>cluster_midcol</title>
<polygon fill="none" stroke="gray" points="396,-229 396,-1439 982,-1439 982,-229 396,-229"/>
<text text-anchor="start" x="657.88" y="-1427" font-family="Helvetica,sans-Serif" font-style="italic" font-size="10.00">dependencies</text>
</g>
<g id="clust3" class="cluster">
<title>cluster_compile</title>
<polygon fill="#eeeeee" stroke="gray" points="404,-237 404,-871 974,-871 974,-237 404,-237"/>
<text text-anchor="start" x="671.78" y="-859" font-family="Helvetica,sans-Serif" font-style="italic" font-size="10.00">compile</text>
</g>
<g id="clust9" class="cluster">
<title>cluster_run</title>
<polygon fill="#eeeeee" stroke="gray" points="434,-1145 434,-1411 974,-1411 974,-1145 434,-1145"/>
<text text-anchor="start" x="696.78" y="-1399" font-family="Helvetica,sans-Serif" font-style="italic" font-size="10.00">run</text>
</g>
<g id="clust14" class="cluster">
<title>cluster_choices</title>
<polygon fill="none" stroke="gray" points="1066,-8 1066,-1538 1370,-1538 1370,-8 1066,-8"/>
<text text-anchor="start" x="1193.82" y="-1526" font-family="Helvetica,sans-Serif" font-style="italic" font-size="10.00">candidates</text>
</g>
<!-- id -->
<g id="node1" class="node">
<title>id</title>
<g id="a_node1"><a xlink:href="../www-servers/monkeyd-9999.svg" xlink:title="portage://www&#45;servers/monkeyd&#45;9999">
<ellipse fill="none" stroke="red" cx="160" cy="-997" rx="144" ry="18"/>
<text text-anchor="middle" x="160" y="-994" font-family="Helvetica,sans-Serif" font-size="10.00">portage://www&#45;servers/monkeyd&#45;9999</text>
</a>
</g>
</g>
<!-- dependency18979 -->
<g id="node2" class="node">
<title>dependency18979</title>
<polygon fill="none" stroke="red" points="420,-781 420,-825 511,-825 511,-781 420,-781"/>
<text text-anchor="start" x="430.77" y="-800" font-family="Helvetica,sans-Serif" font-size="10.00">use_conditional</text>
<polygon fill="none" stroke="red" points="511,-803 511,-825 614,-825 614,-803 511,-803"/>
<text text-anchor="start" x="545.55" y="-811" font-family="Helvetica,sans-Serif" font-size="10.00">positive</text>
<polygon fill="none" stroke="red" points="511,-781 511,-803 614,-803 614,-781 511,-781"/>
<text text-anchor="start" x="515.82" y="-789" font-family="Helvetica,sans-Serif" font-size="10.00">monkeyd_plugins_tls</text>
</g>
<!-- id&#45;&gt;dependency18979 -->
<g id="edge2" class="edge">
<title>id:e&#45;&gt;dependency18979:w</title>
<path fill="none" stroke="black" d="M305,-997C399.61,-997 319.2,-817.13 400.82,-803.78"/>
<polygon fill="black" stroke="black" points="411,-803 401.37,-808.25 406.01,-803.38 401.03,-803.77 401.03,-803.77 401.03,-803.77 406.01,-803.38 400.68,-799.28 411,-803 411,-803"/>
</g>
<!-- dependency18981 -->
<g id="node4" class="node">
<title>dependency18981</title>
<polygon fill="none" stroke="blue" points="738,-498 738,-596 843,-596 843,-498 738,-498"/>
<text text-anchor="start" x="768.82" y="-544" font-family="Helvetica,sans-Serif" font-size="10.00">pack_dep</text>
<polygon fill="none" stroke="blue" points="843,-574 843,-596 953,-596 953,-574 843,-574"/>
<text text-anchor="start" x="892.44" y="-582" font-family="Helvetica,sans-Serif" font-size="10.00">no</text>
<polygon fill="none" stroke="blue" points="843,-552 843,-574 953,-574 953,-552 843,-552"/>
<text text-anchor="start" x="881.89" y="-560" font-family="Helvetica,sans-Serif" font-size="10.00">dev&#45;util</text>
<polygon fill="none" stroke="blue" points="843,-530 843,-552 953,-552 953,-530 843,-530"/>
<text text-anchor="start" x="883.28" y="-538" font-family="Helvetica,sans-Serif" font-size="10.00">cmake</text>
<polygon fill="none" stroke="blue" points="843,-508 843,-530 953,-530 953,-508 843,-508"/>
<text text-anchor="start" x="886.88" y="-516" font-family="Helvetica,sans-Serif" font-size="10.00">none</text>
<polygon fill="none" stroke="blue" points="843,-498 843,-508 953,-508 953,-498 843,-498"/>
</g>
<!-- id&#45;&gt;dependency18981 -->
<g id="edge3" class="edge">
<title>id:e&#45;&gt;dependency18981:w</title>
<path fill="none" stroke="black" d="M518,-547C591.6,-493.79 632.74,-543.15 719.99,-546.79"/>
<polygon fill="black" stroke="black" points="730,-547 719.91,-551.29 725,-546.9 720,-546.79 720,-546.79 720,-546.79 725,-546.9 720.1,-542.29 730,-547 730,-547"/>
</g>
<!-- dependency18982 -->
<g id="node5" class="node">
<title>dependency18982</title>
<polygon fill="none" stroke="blue" points="738,-249 738,-359 843,-359 843,-249 738,-249"/>
<text text-anchor="start" x="768.82" y="-301" font-family="Helvetica,sans-Serif" font-size="10.00">pack_dep</text>
<polygon fill="none" stroke="blue" points="843,-337 843,-359 953,-359 953,-337 843,-337"/>
<text text-anchor="start" x="892.44" y="-345" font-family="Helvetica,sans-Serif" font-size="10.00">no</text>
<polygon fill="none" stroke="blue" points="843,-315 843,-337 953,-337 953,-315 843,-315"/>
<text text-anchor="start" x="880.78" y="-323" font-family="Helvetica,sans-Serif" font-size="10.00">dev&#45;vcs</text>
<polygon fill="none" stroke="blue" points="843,-293 843,-315 953,-315 953,-293 843,-293"/>
<text text-anchor="start" x="892.72" y="-301" font-family="Helvetica,sans-Serif" font-size="10.00">git</text>
<polygon fill="none" stroke="blue" points="843,-271 843,-293 953,-293 953,-271 843,-271"/>
<text text-anchor="start" x="869.94" y="-279" font-family="Helvetica,sans-Serif" font-size="10.00">greaterequal</text>
<polygon fill="none" stroke="blue" points="843,-249 843,-271 953,-271 953,-249 843,-249"/>
<text text-anchor="start" x="882.71" y="-257" font-family="Helvetica,sans-Serif" font-size="10.00">1.8.2.1</text>
</g>
<!-- id&#45;&gt;dependency18982 -->
<g id="edge4" class="edge">
<title>id:e&#45;&gt;dependency18982:w</title>
<path fill="none" stroke="black" d="M518,-547C631.31,-465.08 588.9,-311.72 719.84,-304.28"/>
<polygon fill="black" stroke="black" points="730,-304 720.13,-308.77 725,-304.14 720,-304.28 720,-304.28 720,-304.28 725,-304.14 719.88,-299.78 730,-304 730,-304"/>
<path fill="none" stroke="black" d="M305,-997C414.52,-997 349.57,-867.19 396,-768 443.39,-666.78 425.42,-612.48 516,-547"/>
</g>
<!-- dependency18983 -->
<g id="node6" class="node">
<title>dependency18983</title>
<polygon fill="none" stroke="red" points="450,-1274 450,-1318 541,-1318 541,-1274 450,-1274"/>
<text text-anchor="start" x="460.77" y="-1293" font-family="Helvetica,sans-Serif" font-size="10.00">use_conditional</text>
<polygon fill="none" stroke="red" points="541,-1296 541,-1318 584,-1318 584,-1296 541,-1296"/>
<text text-anchor="start" x="545.55" y="-1304" font-family="Helvetica,sans-Serif" font-size="10.00">positive</text>
<polygon fill="none" stroke="red" points="541,-1274 541,-1296 584,-1296 584,-1274 541,-1274"/>
<text text-anchor="start" x="556.11" y="-1282" font-family="Helvetica,sans-Serif" font-size="10.00">cgi</text>
</g>
<!-- id&#45;&gt;dependency18983 -->
<g id="edge6" class="edge">
<title>id:e&#45;&gt;dependency18983:w</title>
<path fill="none" stroke="black" d="M305,-997C448.14,-997 300.99,-1284.43 432.79,-1295.66"/>
<ellipse fill="none" stroke="black" cx="437" cy="-1295.84" rx="4" ry="4"/>
</g>
<!-- dependency18985 -->
<g id="node8" class="node">
<title>dependency18985</title>
<polygon fill="none" stroke="red" points="450,-1170 450,-1214 541,-1214 541,-1170 450,-1170"/>
<text text-anchor="start" x="460.77" y="-1189" font-family="Helvetica,sans-Serif" font-size="10.00">use_conditional</text>
<polygon fill="none" stroke="red" points="541,-1192 541,-1214 584,-1214 584,-1192 541,-1192"/>
<text text-anchor="start" x="545.55" y="-1200" font-family="Helvetica,sans-Serif" font-size="10.00">positive</text>
<polygon fill="none" stroke="red" points="541,-1170 541,-1192 584,-1192 584,-1170 541,-1170"/>
<text text-anchor="start" x="554.16" y="-1178" font-family="Helvetica,sans-Serif" font-size="10.00">php</text>
</g>
<!-- id&#45;&gt;dependency18985 -->
<g id="edge8" class="edge">
<title>id:e&#45;&gt;dependency18985:w</title>
<path fill="none" stroke="black" d="M305,-997C407.77,-997 339.32,-1181.48 432.73,-1191.57"/>
<ellipse fill="none" stroke="black" cx="437.01" cy="-1191.79" rx="4" ry="4"/>
</g>
<!-- dependency18980 -->
<g id="node3" class="node">
<title>dependency18980</title>
<polygon fill="none" stroke="blue" points="738,-741 738,-839 843,-839 843,-741 738,-741"/>
<text text-anchor="start" x="768.82" y="-787" font-family="Helvetica,sans-Serif" font-size="10.00">pack_dep</text>
<polygon fill="none" stroke="blue" points="843,-817 843,-839 953,-839 953,-817 843,-817"/>
<text text-anchor="start" x="892.44" y="-825" font-family="Helvetica,sans-Serif" font-size="10.00">no</text>
<polygon fill="none" stroke="blue" points="843,-795 843,-817 953,-817 953,-795 843,-795"/>
<text text-anchor="start" x="881.89" y="-803" font-family="Helvetica,sans-Serif" font-size="10.00">net&#45;libs</text>
<polygon fill="none" stroke="blue" points="843,-773 843,-795 953,-795 953,-773 843,-773"/>
<text text-anchor="start" x="880.5" y="-781" font-family="Helvetica,sans-Serif" font-size="10.00">mbedtls</text>
<polygon fill="none" stroke="blue" points="843,-751 843,-773 953,-773 953,-751 843,-751"/>
<text text-anchor="start" x="886.88" y="-759" font-family="Helvetica,sans-Serif" font-size="10.00">none</text>
<polygon fill="none" stroke="blue" points="843,-741 843,-751 953,-751 953,-741 843,-741"/>
</g>
<!-- dependency18979&#45;&gt;dependency18980 -->
<g id="edge1" class="edge">
<title>dependency18979:e&#45;&gt;dependency18980:w</title>
<path fill="none" stroke="black" stroke-dasharray="5,2" d="M622,-803C666.76,-803 679.77,-791.86 719.82,-790.2"/>
<polygon fill="black" stroke="black" points="730,-790 720.09,-794.7 725,-790.1 720,-790.2 720,-790.2 720,-790.2 725,-790.1 719.91,-785.7 730,-790 730,-790"/>
</g>
<!-- choice11010111645108105981154710998101100116108115455046495746494511450 -->
<g id="node10" class="node">
<title>choice11010111645108105981154710998101100116108115455046495746494511450</title>
<g id="a_node10"><a xlink:href="../net-libs/mbedtls-2.19.1-r2.svg" xlink:title="portage://net&#45;libs/mbedtls&#45;2.19.1&#45;r2">
<ellipse fill="none" stroke="red" cx="1218" cy="-736" rx="144" ry="18"/>
<text text-anchor="middle" x="1218" y="-733" font-family="Helvetica,sans-Serif" font-size="10.00">portage://net&#45;libs/mbedtls&#45;2.19.1&#45;r2</text>
</a>
</g>
</g>
<!-- dependency18980&#45;&gt;choice11010111645108105981154710998101100116108115455046495746494511450 -->
<g id="edge9" class="edge">
<title>dependency18980:e&#45;&gt;choice11010111645108105981154710998101100116108115455046495746494511450:w</title>
<path fill="none" stroke="black" stroke-dasharray="1,5" d="M967,-790C1016.26,-790 1019.85,-743.13 1062.86,-736.72"/>
<polygon fill="black" stroke="black" points="1073,-736 1063.35,-741.2 1068.01,-736.36 1063.03,-736.71 1063.03,-736.71 1063.03,-736.71 1068.01,-736.36 1062.71,-732.22 1073,-736 1073,-736"/>
</g>
<!-- choice11010111645108105981154710998101100116108115455046495646494511450 -->
<g id="node11" class="node">
<title>choice11010111645108105981154710998101100116108115455046495646494511450</title>
<g id="a_node11"><a xlink:href="../net-libs/mbedtls-2.18.1-r2.svg" xlink:title="portage://net&#45;libs/mbedtls&#45;2.18.1&#45;r2">
<ellipse fill="none" stroke="red" cx="1218" cy="-682" rx="144" ry="18"/>
<text text-anchor="middle" x="1218" y="-679" font-family="Helvetica,sans-Serif" font-size="10.00">portage://net&#45;libs/mbedtls&#45;2.18.1&#45;r2</text>
</a>
</g>
</g>
<!-- dependency18980&#45;&gt;choice11010111645108105981154710998101100116108115455046495646494511450 -->
<g id="edge10" class="edge">
<title>dependency18980:e&#45;&gt;choice11010111645108105981154710998101100116108115455046495646494511450:w</title>
<path fill="none" stroke="black" stroke-dasharray="1,5" d="M967,-790C1030.58,-790 1008.58,-693.49 1062.79,-682.93"/>
<polygon fill="black" stroke="black" points="1073,-682 1063.45,-687.39 1068.02,-682.46 1063.04,-682.91 1063.04,-682.91 1063.04,-682.91 1068.02,-682.46 1062.63,-678.43 1073,-682 1073,-682"/>
</g>
<!-- choice1101011164510810598115471099810110011610811545504649554648 -->
<g id="node12" class="node">
<title>choice1101011164510810598115471099810110011610811545504649554648</title>
<g id="a_node12"><a xlink:href="../net-libs/mbedtls-2.17.0.svg" xlink:title="portage://net&#45;libs/mbedtls&#45;2.17.0">
<ellipse fill="none" stroke="red" cx="1218" cy="-1006" rx="144" ry="18"/>
<text text-anchor="middle" x="1218" y="-1003" font-family="Helvetica,sans-Serif" font-size="10.00">portage://net&#45;libs/mbedtls&#45;2.17.0</text>
</a>
</g>
</g>
<!-- dependency18980&#45;&gt;choice1101011164510810598115471099810110011610811545504649554648 -->
<g id="edge11" class="edge">
<title>dependency18980:e&#45;&gt;choice1101011164510810598115471099810110011610811545504649554648:w</title>
<path fill="none" stroke="black" stroke-dasharray="1,5" d="M967,-790C1070.28,-790 973.19,-991.49 1062.77,-1005.26"/>
<polygon fill="black" stroke="black" points="1073,-1006 1062.7,-1009.77 1068.01,-1005.64 1063.03,-1005.28 1063.03,-1005.28 1063.03,-1005.28 1068.01,-1005.64 1063.35,-1000.79 1073,-1006 1073,-1006"/>
</g>
<!-- choice1101011164510810598115471099810110011610811545504649544652 -->
<g id="node13" class="node">
<title>choice1101011164510810598115471099810110011610811545504649544652</title>
<g id="a_node13"><a xlink:href="../net-libs/mbedtls-2.16.4.svg" xlink:title="portage://net&#45;libs/mbedtls&#45;2.16.4">
<ellipse fill="none" stroke="red" cx="1218" cy="-952" rx="144" ry="18"/>
<text text-anchor="middle" x="1218" y="-949" font-family="Helvetica,sans-Serif" font-size="10.00">portage://net&#45;libs/mbedtls&#45;2.16.4</text>
</a>
</g>
</g>
<!-- dependency18980&#45;&gt;choice1101011164510810598115471099810110011610811545504649544652 -->
<g id="edge12" class="edge">
<title>dependency18980:e&#45;&gt;choice1101011164510810598115471099810110011610811545504649544652:w</title>
<path fill="none" stroke="black" stroke-dasharray="1,5" d="M967,-790C1049.35,-790 992.36,-938.38 1062.73,-951.13"/>
<polygon fill="black" stroke="black" points="1073,-952 1062.66,-955.64 1068.02,-951.58 1063.04,-951.15 1063.04,-951.15 1063.04,-951.15 1068.02,-951.58 1063.42,-946.67 1073,-952 1073,-952"/>
</g>
<!-- choice1101011164510810598115471099810110011610811545504649544651 -->
<g id="node14" class="node">
<title>choice1101011164510810598115471099810110011610811545504649544651</title>
<g id="a_node14"><a xlink:href="../net-libs/mbedtls-2.16.3.svg" xlink:title="portage://net&#45;libs/mbedtls&#45;2.16.3">
<ellipse fill="none" stroke="red" cx="1218" cy="-898" rx="144" ry="18"/>
<text text-anchor="middle" x="1218" y="-895" font-family="Helvetica,sans-Serif" font-size="10.00">portage://net&#45;libs/mbedtls&#45;2.16.3</text>
</a>
</g>
</g>
<!-- dependency18980&#45;&gt;choice1101011164510810598115471099810110011610811545504649544651 -->
<g id="edge13" class="edge">
<title>dependency18980:e&#45;&gt;choice1101011164510810598115471099810110011610811545504649544651:w</title>
<path fill="none" stroke="black" stroke-dasharray="1,5" d="M967,-790C1030.58,-790 1008.58,-886.51 1062.79,-897.07"/>
<polygon fill="black" stroke="black" points="1073,-898 1062.63,-901.57 1068.02,-897.54 1063.04,-897.09 1063.04,-897.09 1063.04,-897.09 1068.02,-897.54 1063.45,-892.61 1073,-898 1073,-898"/>
</g>
<!-- choice1101011164510810598115471099810110011610811545504649504648 -->
<g id="node15" class="node">
<title>choice1101011164510810598115471099810110011610811545504649504648</title>
<g id="a_node15"><a xlink:href="../net-libs/mbedtls-2.12.0.svg" xlink:title="portage://net&#45;libs/mbedtls&#45;2.12.0">
<ellipse fill="none" stroke="red" cx="1218" cy="-844" rx="144" ry="18"/>
<text text-anchor="middle" x="1218" y="-841" font-family="Helvetica,sans-Serif" font-size="10.00">portage://net&#45;libs/mbedtls&#45;2.12.0</text>
</a>
</g>
</g>
<!-- dependency18980&#45;&gt;choice1101011164510810598115471099810110011610811545504649504648 -->
<g id="edge14" class="edge">
<title>dependency18980:e&#45;&gt;choice1101011164510810598115471099810110011610811545504649504648:w</title>
<path fill="none" stroke="black" stroke-dasharray="1,5" d="M967,-790C1016.26,-790 1019.85,-836.87 1062.86,-843.28"/>
<polygon fill="black" stroke="black" points="1073,-844 1062.71,-847.78 1068.01,-843.64 1063.03,-843.29 1063.03,-843.29 1063.03,-843.29 1068.01,-843.64 1063.35,-838.8 1073,-844 1073,-844"/>
</g>
<!-- choice1101011164510810598115471099810110011610811545504649484648 -->
<g id="node16" class="node">
<title>choice1101011164510810598115471099810110011610811545504649484648</title>
<g id="a_node16"><a xlink:href="../net-libs/mbedtls-2.10.0.svg" xlink:title="portage://net&#45;libs/mbedtls&#45;2.10.0">
<ellipse fill="none" stroke="red" cx="1218" cy="-790" rx="144" ry="18"/>
<text text-anchor="middle" x="1218" y="-787" font-family="Helvetica,sans-Serif" font-size="10.00">portage://net&#45;libs/mbedtls&#45;2.10.0</text>
</a>
</g>
</g>
<!-- dependency18980&#45;&gt;choice1101011164510810598115471099810110011610811545504649484648 -->
<g id="edge15" class="edge">
<title>dependency18980:e&#45;&gt;choice1101011164510810598115471099810110011610811545504649484648:w</title>
<path fill="none" stroke="black" stroke-dasharray="1,5" d="M967,-790C1010.43,-790 1023.83,-790 1062.57,-790"/>
<polygon fill="black" stroke="black" points="1073,-790 1063,-794.5 1068,-790 1063,-790 1063,-790 1063,-790 1068,-790 1063,-785.5 1073,-790 1073,-790"/>
</g>
<!-- choice1001011184511711610510847991099710710145514649554648951149949 -->
<g id="node17" class="node">
<title>choice1001011184511711610510847991099710710145514649554648951149949</title>
<g id="a_node17"><a xlink:href="../dev-util/cmake-3.17.0_rc1.svg" xlink:title="portage://dev&#45;util/cmake&#45;3.17.0_rc1">
<ellipse fill="none" stroke="red" cx="1218" cy="-466" rx="144" ry="18"/>
<text text-anchor="middle" x="1218" y="-463" font-family="Helvetica,sans-Serif" font-size="10.00">portage://dev&#45;util/cmake&#45;3.17.0_rc1</text>
</a>
</g>
</g>
<!-- dependency18981&#45;&gt;choice1001011184511711610510847991099710710145514649554648951149949 -->
<g id="edge16" class="edge">
<title>dependency18981:e&#45;&gt;choice1001011184511711610510847991099710710145514649554648951149949:w</title>
<path fill="none" stroke="black" stroke-dasharray="1,5" d="M967,-547C1022.7,-547 1014.97,-475.51 1062.99,-466.85"/>
<polygon fill="black" stroke="black" points="1073,-466 1063.42,-471.33 1068.02,-466.43 1063.04,-466.85 1063.04,-466.85 1063.04,-466.85 1068.02,-466.43 1062.65,-462.37 1073,-466 1073,-466"/>
</g>
<!-- choice1001011184511711610510847991099710710145514649544652 -->
<g id="node18" class="node">
<title>choice1001011184511711610510847991099710710145514649544652</title>
<g id="a_node18"><a xlink:href="../dev-util/cmake-3.16.4.svg" xlink:title="portage://dev&#45;util/cmake&#45;3.16.4">
<ellipse fill="none" stroke="red" cx="1218" cy="-628" rx="144" ry="18"/>
<text text-anchor="middle" x="1218" y="-625" font-family="Helvetica,sans-Serif" font-size="10.00">portage://dev&#45;util/cmake&#45;3.16.4</text>
</a>
</g>
</g>
<!-- dependency18981&#45;&gt;choice1001011184511711610510847991099710710145514649544652 -->
<g id="edge17" class="edge">
<title>dependency18981:e&#45;&gt;choice1001011184511711610510847991099710710145514649544652:w</title>
<path fill="none" stroke="black" stroke-dasharray="1,5" d="M967,-547C1022.7,-547 1014.97,-618.49 1062.99,-627.15"/>
<polygon fill="black" stroke="black" points="1073,-628 1062.65,-631.63 1068.02,-627.57 1063.04,-627.15 1063.04,-627.15 1063.04,-627.15 1068.02,-627.57 1063.42,-622.67 1073,-628 1073,-628"/>
</g>
<!-- choice1001011184511711610510847991099710710145514649524654 -->
<g id="node19" class="node">
<title>choice1001011184511711610510847991099710710145514649524654</title>
<g id="a_node19"><a xlink:href="../dev-util/cmake-3.14.6.svg" xlink:title="portage://dev&#45;util/cmake&#45;3.14.6">
<ellipse fill="none" stroke="red" cx="1218" cy="-574" rx="144" ry="18"/>
<text text-anchor="middle" x="1218" y="-571" font-family="Helvetica,sans-Serif" font-size="10.00">portage://dev&#45;util/cmake&#45;3.14.6</text>
</a>
</g>
</g>
<!-- dependency18981&#45;&gt;choice1001011184511711610510847991099710710145514649524654 -->
<g id="edge18" class="edge">
<title>dependency18981:e&#45;&gt;choice1001011184511711610510847991099710710145514649524654:w</title>
<path fill="none" stroke="black" stroke-dasharray="1,5" d="M967,-547C1012.01,-547 1022.86,-570.14 1062.8,-573.58"/>
<polygon fill="black" stroke="black" points="1073,-574 1062.82,-578.08 1068,-573.79 1063.01,-573.58 1063.01,-573.58 1063.01,-573.58 1068,-573.79 1063.2,-569.09 1073,-574 1073,-574"/>
</g>
<!-- choice1001011184511711610510847991099710710145514649514653 -->
<g id="node20" class="node">
<title>choice1001011184511711610510847991099710710145514649514653</title>
<g id="a_node20"><a xlink:href="../dev-util/cmake-3.13.5.svg" xlink:title="portage://dev&#45;util/cmake&#45;3.13.5">
<ellipse fill="none" stroke="red" cx="1218" cy="-520" rx="144" ry="18"/>
<text text-anchor="middle" x="1218" y="-517" font-family="Helvetica,sans-Serif" font-size="10.00">portage://dev&#45;util/cmake&#45;3.13.5</text>
</a>
</g>
</g>
<!-- dependency18981&#45;&gt;choice1001011184511711610510847991099710710145514649514653 -->
<g id="edge19" class="edge">
<title>dependency18981:e&#45;&gt;choice1001011184511711610510847991099710710145514649514653:w</title>
<path fill="none" stroke="black" stroke-dasharray="1,5" d="M967,-547C1012.01,-547 1022.86,-523.86 1062.8,-520.42"/>
<polygon fill="black" stroke="black" points="1073,-520 1063.2,-524.91 1068,-520.21 1063.01,-520.42 1063.01,-520.42 1063.01,-520.42 1068,-520.21 1062.82,-515.92 1073,-520 1073,-520"/>
</g>
<!-- choice10010111845118991154710310511645575757574511451 -->
<g id="node21" class="node">
<title>choice10010111845118991154710310511645575757574511451</title>
<g id="a_node21"><a xlink:href="../dev-vcs/git-9999-r3.svg" xlink:title="portage://dev&#45;vcs/git&#45;9999&#45;r3">
<ellipse fill="none" stroke="red" cx="1218" cy="-34" rx="144" ry="18"/>
<text text-anchor="middle" x="1218" y="-31" font-family="Helvetica,sans-Serif" font-size="10.00">portage://dev&#45;vcs/git&#45;9999&#45;r3</text>
</a>
</g>
</g>
<!-- dependency18982&#45;&gt;choice10010111845118991154710310511645575757574511451 -->
<g id="edge20" class="edge">
<title>dependency18982:e&#45;&gt;choice10010111845118991154710310511645575757574511451:w</title>
<path fill="none" stroke="black" stroke-dasharray="1,5" d="M967,-304C1092.27,-304 952.46,-49.08 1062.71,-34.64"/>
<polygon fill="black" stroke="black" points="1073,-34 1063.3,-39.11 1068.01,-34.31 1063.02,-34.62 1063.02,-34.62 1063.02,-34.62 1068.01,-34.31 1062.74,-30.13 1073,-34 1073,-34"/>
</g>
<!-- choice10010111845118991154710310511645575757574511450 -->
<g id="node22" class="node">
<title>choice10010111845118991154710310511645575757574511450</title>
<g id="a_node22"><a xlink:href="../dev-vcs/git-9999-r2.svg" xlink:title="portage://dev&#45;vcs/git&#45;9999&#45;r2">
<ellipse fill="none" stroke="red" cx="1218" cy="-412" rx="144" ry="18"/>
<text text-anchor="middle" x="1218" y="-409" font-family="Helvetica,sans-Serif" font-size="10.00">portage://dev&#45;vcs/git&#45;9999&#45;r2</text>
</a>
</g>
</g>
<!-- dependency18982&#45;&gt;choice10010111845118991154710310511645575757574511450 -->
<g id="edge21" class="edge">
<title>dependency18982:e&#45;&gt;choice10010111845118991154710310511645575757574511450:w</title>
<path fill="none" stroke="black" stroke-dasharray="1,5" d="M967,-304C1030.58,-304 1008.58,-400.51 1062.79,-411.07"/>
<polygon fill="black" stroke="black" points="1073,-412 1062.63,-415.57 1068.02,-411.54 1063.04,-411.09 1063.04,-411.09 1063.04,-411.09 1068.02,-411.54 1063.45,-406.61 1073,-412 1073,-412"/>
</g>
<!-- choice10010111845118991154710310511645575757574511449 -->
<g id="node23" class="node">
<title>choice10010111845118991154710310511645575757574511449</title>
<g id="a_node23"><a xlink:href="../dev-vcs/git-9999-r1.svg" xlink:title="portage://dev&#45;vcs/git&#45;9999&#45;r1">
<ellipse fill="none" stroke="red" cx="1218" cy="-358" rx="144" ry="18"/>
<text text-anchor="middle" x="1218" y="-355" font-family="Helvetica,sans-Serif" font-size="10.00">portage://dev&#45;vcs/git&#45;9999&#45;r1</text>
</a>
</g>
</g>
<!-- dependency18982&#45;&gt;choice10010111845118991154710310511645575757574511449 -->
<g id="edge22" class="edge">
<title>dependency18982:e&#45;&gt;choice10010111845118991154710310511645575757574511449:w</title>
<path fill="none" stroke="black" stroke-dasharray="1,5" d="M967,-304C1016.26,-304 1019.85,-350.87 1062.86,-357.28"/>
<polygon fill="black" stroke="black" points="1073,-358 1062.71,-361.78 1068.01,-357.64 1063.03,-357.29 1063.03,-357.29 1063.03,-357.29 1068.01,-357.64 1063.35,-352.8 1073,-358 1073,-358"/>
</g>
<!-- choice1001011184511899115471031051164557575757 -->
<g id="node24" class="node">
<title>choice1001011184511899115471031051164557575757</title>
<g id="a_node24"><a xlink:href="../dev-vcs/git-9999.svg" xlink:title="portage://dev&#45;vcs/git&#45;9999">
<ellipse fill="none" stroke="red" cx="1218" cy="-304" rx="144" ry="18"/>
<text text-anchor="middle" x="1218" y="-301" font-family="Helvetica,sans-Serif" font-size="10.00">portage://dev&#45;vcs/git&#45;9999</text>
</a>
</g>
</g>
<!-- dependency18982&#45;&gt;choice1001011184511899115471031051164557575757 -->
<g id="edge23" class="edge">
<title>dependency18982:e&#45;&gt;choice1001011184511899115471031051164557575757:w</title>
<path fill="none" stroke="black" stroke-dasharray="1,5" d="M967,-304C1010.43,-304 1023.83,-304 1062.57,-304"/>
<polygon fill="black" stroke="black" points="1073,-304 1063,-308.5 1068,-304 1063,-304 1063,-304 1063,-304 1068,-304 1063,-299.5 1073,-304 1073,-304"/>
</g>
<!-- choice10010111845118991154710310511645504650534649 -->
<g id="node25" class="node">
<title>choice10010111845118991154710310511645504650534649</title>
<g id="a_node25"><a xlink:href="../dev-vcs/git-2.25.1.svg" xlink:title="portage://dev&#45;vcs/git&#45;2.25.1">
<ellipse fill="none" stroke="red" cx="1218" cy="-250" rx="144" ry="18"/>
<text text-anchor="middle" x="1218" y="-247" font-family="Helvetica,sans-Serif" font-size="10.00">portage://dev&#45;vcs/git&#45;2.25.1</text>
</a>
</g>
</g>
<!-- dependency18982&#45;&gt;choice10010111845118991154710310511645504650534649 -->
<g id="edge24" class="edge">
<title>dependency18982:e&#45;&gt;choice10010111845118991154710310511645504650534649:w</title>
<path fill="none" stroke="black" stroke-dasharray="1,5" d="M967,-304C1016.26,-304 1019.85,-257.13 1062.86,-250.72"/>
<polygon fill="black" stroke="black" points="1073,-250 1063.35,-255.2 1068.01,-250.36 1063.03,-250.71 1063.03,-250.71 1063.03,-250.71 1068.01,-250.36 1062.71,-246.22 1073,-250 1073,-250"/>
</g>
<!-- choice10010111845118991154710310511645504650534648 -->
<g id="node26" class="node">
<title>choice10010111845118991154710310511645504650534648</title>
<g id="a_node26"><a xlink:href="../dev-vcs/git-2.25.0.svg" xlink:title="portage://dev&#45;vcs/git&#45;2.25.0">
<ellipse fill="none" stroke="red" cx="1218" cy="-196" rx="144" ry="18"/>
<text text-anchor="middle" x="1218" y="-193" font-family="Helvetica,sans-Serif" font-size="10.00">portage://dev&#45;vcs/git&#45;2.25.0</text>
</a>
</g>
</g>
<!-- dependency18982&#45;&gt;choice10010111845118991154710310511645504650534648 -->
<g id="edge25" class="edge">
<title>dependency18982:e&#45;&gt;choice10010111845118991154710310511645504650534648:w</title>
<path fill="none" stroke="black" stroke-dasharray="1,5" d="M967,-304C1030.58,-304 1008.58,-207.49 1062.79,-196.93"/>
<polygon fill="black" stroke="black" points="1073,-196 1063.45,-201.39 1068.02,-196.46 1063.04,-196.91 1063.04,-196.91 1063.04,-196.91 1068.02,-196.46 1062.63,-192.43 1073,-196 1073,-196"/>
</g>
<!-- choice10010111845118991154710310511645504650524649 -->
<g id="node27" class="node">
<title>choice10010111845118991154710310511645504650524649</title>
<g id="a_node27"><a xlink:href="../dev-vcs/git-2.24.1.svg" xlink:title="portage://dev&#45;vcs/git&#45;2.24.1">
<ellipse fill="none" stroke="red" cx="1218" cy="-142" rx="144" ry="18"/>
<text text-anchor="middle" x="1218" y="-139" font-family="Helvetica,sans-Serif" font-size="10.00">portage://dev&#45;vcs/git&#45;2.24.1</text>
</a>
</g>
</g>
<!-- dependency18982&#45;&gt;choice10010111845118991154710310511645504650524649 -->
<g id="edge26" class="edge">
<title>dependency18982:e&#45;&gt;choice10010111845118991154710310511645504650524649:w</title>
<path fill="none" stroke="black" stroke-dasharray="1,5" d="M967,-304C1049.35,-304 992.36,-155.62 1062.73,-142.87"/>
<polygon fill="black" stroke="black" points="1073,-142 1063.42,-147.33 1068.02,-142.42 1063.04,-142.85 1063.04,-142.85 1063.04,-142.85 1068.02,-142.42 1062.66,-138.36 1073,-142 1073,-142"/>
</g>
<!-- choice100101118451189911547103105116455046505146494511449 -->
<g id="node28" class="node">
<title>choice100101118451189911547103105116455046505146494511449</title>
<g id="a_node28"><a xlink:href="../dev-vcs/git-2.23.1-r1.svg" xlink:title="portage://dev&#45;vcs/git&#45;2.23.1&#45;r1">
<ellipse fill="none" stroke="red" cx="1218" cy="-88" rx="144" ry="18"/>
<text text-anchor="middle" x="1218" y="-85" font-family="Helvetica,sans-Serif" font-size="10.00">portage://dev&#45;vcs/git&#45;2.23.1&#45;r1</text>
</a>
</g>
</g>
<!-- dependency18982&#45;&gt;choice100101118451189911547103105116455046505146494511449 -->
<g id="edge27" class="edge">
<title>dependency18982:e&#45;&gt;choice100101118451189911547103105116455046505146494511449:w</title>
<path fill="none" stroke="black" stroke-dasharray="1,5" d="M967,-304C1070.28,-304 973.19,-102.51 1062.77,-88.74"/>
<polygon fill="black" stroke="black" points="1073,-88 1063.35,-93.21 1068.01,-88.36 1063.03,-88.72 1063.03,-88.72 1063.03,-88.72 1068.01,-88.36 1062.7,-84.23 1073,-88 1073,-88"/>
</g>
<!-- dependency18984 -->
<g id="node7" class="node">
<title>dependency18984</title>
<polygon fill="none" stroke="blue" points="738,-1281 738,-1379 843,-1379 843,-1281 738,-1281"/>
<text text-anchor="start" x="768.82" y="-1327" font-family="Helvetica,sans-Serif" font-size="10.00">pack_dep</text>
<polygon fill="none" stroke="blue" points="843,-1357 843,-1379 953,-1379 953,-1357 843,-1357"/>
<text text-anchor="start" x="892.44" y="-1365" font-family="Helvetica,sans-Serif" font-size="10.00">no</text>
<polygon fill="none" stroke="blue" points="843,-1335 843,-1357 953,-1357 953,-1335 843,-1335"/>
<text text-anchor="start" x="878.83" y="-1343" font-family="Helvetica,sans-Serif" font-size="10.00">dev&#45;lang</text>
<polygon fill="none" stroke="blue" points="843,-1313 843,-1335 953,-1335 953,-1313 843,-1313"/>
<text text-anchor="start" x="889.66" y="-1321" font-family="Helvetica,sans-Serif" font-size="10.00">php</text>
<polygon fill="none" stroke="blue" points="843,-1291 843,-1313 953,-1313 953,-1291 843,-1291"/>
<text text-anchor="start" x="886.88" y="-1299" font-family="Helvetica,sans-Serif" font-size="10.00">none</text>
<polygon fill="none" stroke="blue" points="843,-1281 843,-1291 953,-1291 953,-1281 843,-1281"/>
</g>
<!-- dependency18983&#45;&gt;dependency18984 -->
<g id="edge5" class="edge">
<title>dependency18983:e&#45;&gt;dependency18984:w</title>
<path fill="none" stroke="black" stroke-dasharray="5,2" d="M593,-1296C652.18,-1296 665.79,-1326.26 719.81,-1329.69"/>
<polygon fill="black" stroke="black" points="730,-1330 719.87,-1334.19 725,-1329.85 720,-1329.69 720,-1329.69 720,-1329.69 725,-1329.85 720.14,-1325.19 730,-1330 730,-1330"/>
</g>
<!-- choice100101118451089711010347112104112455546524651 -->
<g id="node29" class="node">
<title>choice100101118451089711010347112104112455546524651</title>
<g id="a_node29"><a xlink:href="../dev-lang/php-7.4.3.svg" xlink:title="portage://dev&#45;lang/php&#45;7.4.3">
<ellipse fill="none" stroke="red" cx="1218" cy="-1276" rx="144" ry="18"/>
<text text-anchor="middle" x="1218" y="-1273" font-family="Helvetica,sans-Serif" font-size="10.00">portage://dev&#45;lang/php&#45;7.4.3</text>
</a>
</g>
</g>
<!-- dependency18984&#45;&gt;choice100101118451089711010347112104112455546524651 -->
<g id="edge28" class="edge">
<title>dependency18984:e&#45;&gt;choice100101118451089711010347112104112455546524651:w</title>
<path fill="none" stroke="black" stroke-dasharray="1,5" d="M967,-1330C1016.26,-1330 1019.85,-1283.13 1062.86,-1276.72"/>
<polygon fill="black" stroke="black" points="1073,-1276 1063.35,-1281.2 1068.01,-1276.36 1063.03,-1276.71 1063.03,-1276.71 1063.03,-1276.71 1068.01,-1276.36 1062.71,-1272.22 1073,-1276 1073,-1276"/>
</g>
<!-- choice100101118451089711010347112104112455546524650 -->
<g id="node30" class="node">
<title>choice100101118451089711010347112104112455546524650</title>
<g id="a_node30"><a xlink:href="../dev-lang/php-7.4.2.svg" xlink:title="portage://dev&#45;lang/php&#45;7.4.2">
<ellipse fill="none" stroke="red" cx="1218" cy="-1222" rx="144" ry="18"/>
<text text-anchor="middle" x="1218" y="-1219" font-family="Helvetica,sans-Serif" font-size="10.00">portage://dev&#45;lang/php&#45;7.4.2</text>
</a>
</g>
</g>
<!-- dependency18984&#45;&gt;choice100101118451089711010347112104112455546524650 -->
<g id="edge29" class="edge">
<title>dependency18984:e&#45;&gt;choice100101118451089711010347112104112455546524650:w</title>
<path fill="none" stroke="black" stroke-dasharray="1,5" d="M967,-1330C1030.58,-1330 1008.58,-1233.49 1062.79,-1222.93"/>
<polygon fill="black" stroke="black" points="1073,-1222 1063.45,-1227.39 1068.02,-1222.46 1063.04,-1222.91 1063.04,-1222.91 1063.04,-1222.91 1068.02,-1222.46 1062.63,-1218.43 1073,-1222 1073,-1222"/>
</g>
<!-- choice100101118451089711010347112104112455546524649 -->
<g id="node31" class="node">
<title>choice100101118451089711010347112104112455546524649</title>
<g id="a_node31"><a xlink:href="../dev-lang/php-7.4.1.svg" xlink:title="portage://dev&#45;lang/php&#45;7.4.1">
<ellipse fill="none" stroke="red" cx="1218" cy="-1168" rx="144" ry="18"/>
<text text-anchor="middle" x="1218" y="-1165" font-family="Helvetica,sans-Serif" font-size="10.00">portage://dev&#45;lang/php&#45;7.4.1</text>
</a>
</g>
</g>
<!-- dependency18984&#45;&gt;choice100101118451089711010347112104112455546524649 -->
<g id="edge30" class="edge">
<title>dependency18984:e&#45;&gt;choice100101118451089711010347112104112455546524649:w</title>
<path fill="none" stroke="black" stroke-dasharray="1,5" d="M967,-1330C1049.35,-1330 992.36,-1181.62 1062.73,-1168.87"/>
<polygon fill="black" stroke="black" points="1073,-1168 1063.42,-1173.33 1068.02,-1168.42 1063.04,-1168.85 1063.04,-1168.85 1063.04,-1168.85 1068.02,-1168.42 1062.66,-1164.36 1073,-1168 1073,-1168"/>
</g>
<!-- choice10010111845108971101034711210411245554651464953 -->
<g id="node32" class="node">
<title>choice10010111845108971101034711210411245554651464953</title>
<g id="a_node32"><a xlink:href="../dev-lang/php-7.3.15.svg" xlink:title="portage://dev&#45;lang/php&#45;7.3.15">
<ellipse fill="none" stroke="red" cx="1218" cy="-1114" rx="144" ry="18"/>
<text text-anchor="middle" x="1218" y="-1111" font-family="Helvetica,sans-Serif" font-size="10.00">portage://dev&#45;lang/php&#45;7.3.15</text>
</a>
</g>
</g>
<!-- dependency18984&#45;&gt;choice10010111845108971101034711210411245554651464953 -->
<g id="edge31" class="edge">
<title>dependency18984:e&#45;&gt;choice10010111845108971101034711210411245554651464953:w</title>
<path fill="none" stroke="black" stroke-dasharray="1,5" d="M967,-1330C1070.28,-1330 973.19,-1128.51 1062.77,-1114.74"/>
<polygon fill="black" stroke="black" points="1073,-1114 1063.35,-1119.21 1068.01,-1114.36 1063.03,-1114.72 1063.03,-1114.72 1063.03,-1114.72 1068.01,-1114.36 1062.7,-1110.23 1073,-1114 1073,-1114"/>
</g>
<!-- choice10010111845108971101034711210411245554651464952 -->
<g id="node33" class="node">
<title>choice10010111845108971101034711210411245554651464952</title>
<g id="a_node33"><a xlink:href="../dev-lang/php-7.3.14.svg" xlink:title="portage://dev&#45;lang/php&#45;7.3.14">
<ellipse fill="none" stroke="red" cx="1218" cy="-1060" rx="144" ry="18"/>
<text text-anchor="middle" x="1218" y="-1057" font-family="Helvetica,sans-Serif" font-size="10.00">portage://dev&#45;lang/php&#45;7.3.14</text>
</a>
</g>
</g>
<!-- dependency18984&#45;&gt;choice10010111845108971101034711210411245554651464952 -->
<g id="edge32" class="edge">
<title>dependency18984:e&#45;&gt;choice10010111845108971101034711210411245554651464952:w</title>
<path fill="none" stroke="black" stroke-dasharray="1,5" d="M967,-1330C1092.27,-1330 952.46,-1075.08 1062.71,-1060.64"/>
<polygon fill="black" stroke="black" points="1073,-1060 1063.3,-1065.11 1068.01,-1060.31 1063.02,-1060.62 1063.02,-1060.62 1063.02,-1060.62 1068.01,-1060.31 1062.74,-1056.13 1073,-1060 1073,-1060"/>
</g>
<!-- choice10010111845108971101034711210411245554651464951 -->
<g id="node34" class="node">
<title>choice10010111845108971101034711210411245554651464951</title>
<g id="a_node34"><a xlink:href="../dev-lang/php-7.3.13.svg" xlink:title="portage://dev&#45;lang/php&#45;7.3.13">
<ellipse fill="none" stroke="red" cx="1218" cy="-1492" rx="144" ry="18"/>
<text text-anchor="middle" x="1218" y="-1489" font-family="Helvetica,sans-Serif" font-size="10.00">portage://dev&#45;lang/php&#45;7.3.13</text>
</a>
</g>
</g>
<!-- dependency18984&#45;&gt;choice10010111845108971101034711210411245554651464951 -->
<g id="edge33" class="edge">
<title>dependency18984:e&#45;&gt;choice10010111845108971101034711210411245554651464951:w</title>
<path fill="none" stroke="black" stroke-dasharray="1,5" d="M967,-1330C1049.35,-1330 992.36,-1478.38 1062.73,-1491.13"/>
<polygon fill="black" stroke="black" points="1073,-1492 1062.66,-1495.64 1068.02,-1491.58 1063.04,-1491.15 1063.04,-1491.15 1063.04,-1491.15 1068.02,-1491.58 1063.42,-1486.67 1073,-1492 1073,-1492"/>
</g>
<!-- choice10010111845108971101034711210411245554650465056 -->
<g id="node35" class="node">
<title>choice10010111845108971101034711210411245554650465056</title>
<g id="a_node35"><a xlink:href="../dev-lang/php-7.2.28.svg" xlink:title="portage://dev&#45;lang/php&#45;7.2.28">
<ellipse fill="none" stroke="red" cx="1218" cy="-1438" rx="144" ry="18"/>
<text text-anchor="middle" x="1218" y="-1435" font-family="Helvetica,sans-Serif" font-size="10.00">portage://dev&#45;lang/php&#45;7.2.28</text>
</a>
</g>
</g>
<!-- dependency18984&#45;&gt;choice10010111845108971101034711210411245554650465056 -->
<g id="edge34" class="edge">
<title>dependency18984:e&#45;&gt;choice10010111845108971101034711210411245554650465056:w</title>
<path fill="none" stroke="black" stroke-dasharray="1,5" d="M967,-1330C1030.58,-1330 1008.58,-1426.51 1062.79,-1437.07"/>
<polygon fill="black" stroke="black" points="1073,-1438 1062.63,-1441.57 1068.02,-1437.54 1063.04,-1437.09 1063.04,-1437.09 1063.04,-1437.09 1068.02,-1437.54 1063.45,-1432.61 1073,-1438 1073,-1438"/>
</g>
<!-- choice10010111845108971101034711210411245554650465055 -->
<g id="node36" class="node">
<title>choice10010111845108971101034711210411245554650465055</title>
<g id="a_node36"><a xlink:href="../dev-lang/php-7.2.27.svg" xlink:title="portage://dev&#45;lang/php&#45;7.2.27">
<ellipse fill="none" stroke="red" cx="1218" cy="-1384" rx="144" ry="18"/>
<text text-anchor="middle" x="1218" y="-1381" font-family="Helvetica,sans-Serif" font-size="10.00">portage://dev&#45;lang/php&#45;7.2.27</text>
</a>
</g>
</g>
<!-- dependency18984&#45;&gt;choice10010111845108971101034711210411245554650465055 -->
<g id="edge35" class="edge">
<title>dependency18984:e&#45;&gt;choice10010111845108971101034711210411245554650465055:w</title>
<path fill="none" stroke="black" stroke-dasharray="1,5" d="M967,-1330C1016.26,-1330 1019.85,-1376.87 1062.86,-1383.28"/>
<polygon fill="black" stroke="black" points="1073,-1384 1062.71,-1387.78 1068.01,-1383.64 1063.03,-1383.29 1063.03,-1383.29 1063.03,-1383.29 1068.01,-1383.64 1063.35,-1378.8 1073,-1384 1073,-1384"/>
</g>
<!-- choice10010111845108971101034711210411245554650465054 -->
<g id="node37" class="node">
<title>choice10010111845108971101034711210411245554650465054</title>
<g id="a_node37"><a xlink:href="../dev-lang/php-7.2.26.svg" xlink:title="portage://dev&#45;lang/php&#45;7.2.26">
<ellipse fill="none" stroke="red" cx="1218" cy="-1330" rx="144" ry="18"/>
<text text-anchor="middle" x="1218" y="-1327" font-family="Helvetica,sans-Serif" font-size="10.00">portage://dev&#45;lang/php&#45;7.2.26</text>
</a>
</g>
</g>
<!-- dependency18984&#45;&gt;choice10010111845108971101034711210411245554650465054 -->
<g id="edge36" class="edge">
<title>dependency18984:e&#45;&gt;choice10010111845108971101034711210411245554650465054:w</title>
<path fill="none" stroke="black" stroke-dasharray="1,5" d="M967,-1330C1010.43,-1330 1023.83,-1330 1062.57,-1330"/>
<polygon fill="black" stroke="black" points="1073,-1330 1063,-1334.5 1068,-1330 1063,-1330 1063,-1330 1063,-1330 1068,-1330 1063,-1325.5 1073,-1330 1073,-1330"/>
</g>
<!-- dependency18986 -->
<g id="node9" class="node">
<title>dependency18986</title>
<polygon fill="none" stroke="blue" points="738,-1157 738,-1255 843,-1255 843,-1157 738,-1157"/>
<text text-anchor="start" x="768.82" y="-1203" font-family="Helvetica,sans-Serif" font-size="10.00">pack_dep</text>
<polygon fill="none" stroke="blue" points="843,-1233 843,-1255 953,-1255 953,-1233 843,-1233"/>
<text text-anchor="start" x="892.44" y="-1241" font-family="Helvetica,sans-Serif" font-size="10.00">no</text>
<polygon fill="none" stroke="blue" points="843,-1211 843,-1233 953,-1233 953,-1211 843,-1211"/>
<text text-anchor="start" x="878.83" y="-1219" font-family="Helvetica,sans-Serif" font-size="10.00">dev&#45;lang</text>
<polygon fill="none" stroke="blue" points="843,-1189 843,-1211 953,-1211 953,-1189 843,-1189"/>
<text text-anchor="start" x="889.66" y="-1197" font-family="Helvetica,sans-Serif" font-size="10.00">php</text>
<polygon fill="none" stroke="blue" points="843,-1167 843,-1189 953,-1189 953,-1167 843,-1167"/>
<text text-anchor="start" x="886.88" y="-1175" font-family="Helvetica,sans-Serif" font-size="10.00">none</text>
<polygon fill="none" stroke="blue" points="843,-1157 843,-1167 953,-1167 953,-1157 843,-1157"/>
</g>
<!-- dependency18985&#45;&gt;dependency18986 -->
<g id="edge7" class="edge">
<title>dependency18985:e&#45;&gt;dependency18986:w</title>
<path fill="none" stroke="black" stroke-dasharray="5,2" d="M593,-1192C650.62,-1192 666.92,-1204.41 719.7,-1205.86"/>
<polygon fill="black" stroke="black" points="730,-1206 719.94,-1210.36 725,-1205.93 720,-1205.87 720,-1205.87 720,-1205.87 725,-1205.93 720.06,-1201.37 730,-1206 730,-1206"/>
</g>
<!-- dependency18986&#45;&gt;choice100101118451089711010347112104112455546524651 -->
<g id="edge37" class="edge">
<title>dependency18986:e&#45;&gt;choice100101118451089711010347112104112455546524651:w</title>
<path fill="none" stroke="black" stroke-dasharray="1,5" d="M967,-1206C1019.82,-1206 1017.17,-1267.27 1062.84,-1275.17"/>
<polygon fill="black" stroke="black" points="1073,-1276 1062.67,-1279.67 1068.02,-1275.59 1063.03,-1275.18 1063.03,-1275.18 1063.03,-1275.18 1068.02,-1275.59 1063.4,-1270.7 1073,-1276 1073,-1276"/>
</g>
<!-- dependency18986&#45;&gt;choice100101118451089711010347112104112455546524650 -->
<g id="edge38" class="edge">
<title>dependency18986:e&#45;&gt;choice100101118451089711010347112104112455546524650:w</title>
<path fill="none" stroke="black" stroke-dasharray="1,5" d="M967,-1206C1011.11,-1206 1023.56,-1219.71 1062.97,-1221.75"/>
<polygon fill="black" stroke="black" points="1073,-1222 1062.89,-1226.25 1068,-1221.87 1063,-1221.75 1063,-1221.75 1063,-1221.75 1068,-1221.87 1063.12,-1217.25 1073,-1222 1073,-1222"/>
</g>
<!-- dependency18986&#45;&gt;choice100101118451089711010347112104112455546524649 -->
<g id="edge39" class="edge">
<title>dependency18986:e&#45;&gt;choice100101118451089711010347112104112455546524649:w</title>
<path fill="none" stroke="black" stroke-dasharray="1,5" d="M967,-1206C1013.43,-1206 1021.87,-1173.29 1062.81,-1168.57"/>
<polygon fill="black" stroke="black" points="1073,-1168 1063.27,-1173.05 1068.01,-1168.28 1063.02,-1168.56 1063.02,-1168.56 1063.02,-1168.56 1068.01,-1168.28 1062.77,-1164.06 1073,-1168 1073,-1168"/>
</g>
<!-- dependency18986&#45;&gt;choice10010111845108971101034711210411245554651464953 -->
<g id="edge40" class="edge">
<title>dependency18986:e&#45;&gt;choice10010111845108971101034711210411245554651464953:w</title>
<path fill="none" stroke="black" stroke-dasharray="1,5" d="M967,-1206C1025.73,-1206 1012.54,-1124.47 1062.84,-1114.91"/>
<polygon fill="black" stroke="black" points="1073,-1114 1063.44,-1119.37 1068.02,-1114.45 1063.04,-1114.89 1063.04,-1114.89 1063.04,-1114.89 1068.02,-1114.45 1062.64,-1110.41 1073,-1114 1073,-1114"/>
</g>
<!-- dependency18986&#45;&gt;choice10010111845108971101034711210411245554651464952 -->
<g id="edge41" class="edge">
<title>dependency18986:e&#45;&gt;choice10010111845108971101034711210411245554651464952:w</title>
<path fill="none" stroke="black" stroke-dasharray="1,5" d="M967,-1206C1043.59,-1206 997.43,-1072.82 1062.98,-1060.86"/>
<polygon fill="black" stroke="black" points="1073,-1060 1063.42,-1065.34 1068.02,-1060.43 1063.04,-1060.85 1063.04,-1060.85 1063.04,-1060.85 1068.02,-1060.43 1062.65,-1056.37 1073,-1060 1073,-1060"/>
</g>
<!-- dependency18986&#45;&gt;choice10010111845108971101034711210411245554651464951 -->
<g id="edge42" class="edge">
<title>dependency18986:e&#45;&gt;choice10010111845108971101034711210411245554651464951:w</title>
<path fill="none" stroke="black" stroke-dasharray="1,5" d="M967,-1206C1098.99,-1206 945.94,-1477.12 1062.89,-1491.41"/>
<polygon fill="black" stroke="black" points="1073,-1492 1062.76,-1495.91 1068.01,-1491.71 1063.02,-1491.42 1063.02,-1491.42 1063.02,-1491.42 1068.01,-1491.71 1063.28,-1486.93 1073,-1492 1073,-1492"/>
</g>
<!-- dependency18986&#45;&gt;choice10010111845108971101034711210411245554650465056 -->
<g id="edge43" class="edge">
<title>dependency18986:e&#45;&gt;choice10010111845108971101034711210411245554650465056:w</title>
<path fill="none" stroke="black" stroke-dasharray="1,5" d="M967,-1206C1076.71,-1206 967.17,-1423.29 1062.75,-1437.29"/>
<polygon fill="black" stroke="black" points="1073,-1438 1062.71,-1441.8 1068.01,-1437.66 1063.02,-1437.31 1063.02,-1437.31 1063.02,-1437.31 1068.01,-1437.66 1063.33,-1432.82 1073,-1438 1073,-1438"/>
</g>
<!-- dependency18986&#45;&gt;choice10010111845108971101034711210411245554650465055 -->
<g id="edge44" class="edge">
<title>dependency18986:e&#45;&gt;choice10010111845108971101034711210411245554650465055:w</title>
<path fill="none" stroke="black" stroke-dasharray="1,5" d="M967,-1206C1055.48,-1206 986.77,-1370.37 1062.97,-1383.21"/>
<polygon fill="black" stroke="black" points="1073,-1384 1062.68,-1387.7 1068.02,-1383.61 1063.03,-1383.21 1063.03,-1383.21 1063.03,-1383.21 1068.02,-1383.61 1063.39,-1378.73 1073,-1384 1073,-1384"/>
</g>
<!-- dependency18986&#45;&gt;choice10010111845108971101034711210411245554650465054 -->
<g id="edge45" class="edge">
<title>dependency18986:e&#45;&gt;choice10010111845108971101034711210411245554650465054:w</title>
<path fill="none" stroke="black" stroke-dasharray="1,5" d="M967,-1206C1035.82,-1206 1004.17,-1317.73 1062.79,-1329.07"/>
<polygon fill="black" stroke="black" points="1073,-1330 1062.63,-1333.58 1068.02,-1329.55 1063.04,-1329.1 1063.04,-1329.1 1063.04,-1329.1 1068.02,-1329.55 1063.45,-1324.61 1073,-1330 1073,-1330"/>
</g>
</g>
</svg>
