<?xml version="1.0" encoding="UTF-8" standalone="no"?>
<!DOCTYPE svg PUBLIC "-//W3C//DTD SVG 1.1//EN"
 "http://www.w3.org/Graphics/SVG/1.1/DTD/svg11.dtd">
<!-- Generated by graphviz version 9.0.0 (20230911.1827)
 -->
<!-- Title: prolog Pages: 1 -->
<svg width="980pt" height="1904pt"
 viewBox="0.00 0.00 980.00 1904.00" xmlns="http://www.w3.org/2000/svg" xmlns:xlink="http://www.w3.org/1999/xlink">
<g id="graph0" class="graph" transform="scale(1 1) rotate(0) translate(4 1900)">
<title>prolog</title>
<polygon fill="white" stroke="none" points="-4,4 -4,-1900 976,-1900 976,4 -4,4"/>
<g id="clust17" class="cluster">
<title>cluster_choices</title>
<polygon fill="none" stroke="gray" points="660,-8 660,-1888 964,-1888 964,-8 660,-8"/>
<text text-anchor="start" x="788.38" y="-1875.5" font-family="Helvetica,sans-Serif" font-style="italic" font-size="10.00">candidates</text>
</g>
<g id="clust1" class="cluster">
<title>cluster_leftcol</title>
<polygon fill="none" stroke="gray" points="8,-1458 8,-1529 312,-1529 312,-1458 8,-1458"/>
<text text-anchor="start" x="147.25" y="-1516.5" font-family="Helvetica,sans-Serif" font-style="italic" font-size="10.00">ebuild</text>
</g>
<g id="clust2" class="cluster">
<title>cluster_midcol</title>
<polygon fill="none" stroke="gray" points="396,-1409 396,-1690 576,-1690 576,-1409 396,-1409"/>
<text text-anchor="start" x="456" y="-1677.5" font-family="Helvetica,sans-Serif" font-style="italic" font-size="10.00">dependencies</text>
</g>
<g id="clust13" class="cluster">
<title>cluster_run</title>
<polygon fill="#eeeeee" stroke="gray" points="404,-1578 404,-1663 568,-1663 568,-1578 404,-1578"/>
<text text-anchor="start" x="479.25" y="-1650.5" font-family="Helvetica,sans-Serif" font-style="italic" font-size="10.00">run</text>
</g>
<g id="clust3" class="cluster">
<title>cluster_compile</title>
<polygon fill="#eeeeee" stroke="gray" points="404,-1417 404,-1570 568,-1570 568,-1417 404,-1417"/>
<text text-anchor="start" x="469.12" y="-1557.5" font-family="Helvetica,sans-Serif" font-style="italic" font-size="10.00">compile</text>
</g>
<!-- id -->
<g id="node1" class="node">
<title>id</title>
<g id="a_node1"><a xlink:href="../www-servers/tomcat-9.0.45.svg" xlink:title="portage://www&#45;servers/tomcat&#45;9.0.45">
<ellipse fill="none" stroke="red" cx="160" cy="-1484" rx="144" ry="18"/>
<text text-anchor="middle" x="160" y="-1480.12" font-family="Helvetica,sans-Serif" font-size="10.00">portage://www&#45;servers/tomcat&#45;9.0.45</text>
</a>
</g>
</g>
<!-- dependency606 -->
<g id="node2" class="node">
<title>dependency606</title>
<polygon fill="none" stroke="red" points="420,-1497 420,-1539 509,-1539 509,-1497 420,-1497"/>
<text text-anchor="start" x="430.75" y="-1514.12" font-family="Helvetica,sans-Serif" font-size="10.00">use_conditional</text>
<polygon fill="none" stroke="red" points="509,-1518 509,-1539 552,-1539 552,-1518 509,-1518"/>
<text text-anchor="start" x="513.62" y="-1524.5" font-family="Helvetica,sans-Serif" font-size="10.00">positive</text>
<polygon fill="none" stroke="red" points="509,-1497 509,-1518 552,-1518 552,-1497 509,-1497"/>
<text text-anchor="start" x="515.88" y="-1503.5" font-family="Helvetica,sans-Serif" font-size="10.00">source</text>
</g>
<!-- id&#45;&gt;dependency606 -->
<g id="edge1" class="edge">
<title>id:e&#45;&gt;dependency606:w</title>
<path fill="none" stroke="black" d="M305,-1484C350.51,-1484 360.12,-1512.77 399.89,-1517.38"/>
<polygon fill="black" stroke="black" points="409.78,-1517.93 399.55,-1521.87 406.01,-1517.72 399.8,-1517.38 399.8,-1517.38 399.8,-1517.38 406.01,-1517.72 400.05,-1512.88 409.78,-1517.93"/>
</g>
<!-- dependency607 -->
<g id="node3" class="node">
<title>dependency607</title>
<polygon fill="none" stroke="red" points="420,-1429 420,-1471 509,-1471 509,-1429 420,-1429"/>
<text text-anchor="start" x="430.75" y="-1446.12" font-family="Helvetica,sans-Serif" font-size="10.00">use_conditional</text>
<polygon fill="none" stroke="red" points="509,-1450 509,-1471 552,-1471 552,-1450 509,-1450"/>
<text text-anchor="start" x="513.62" y="-1456.5" font-family="Helvetica,sans-Serif" font-size="10.00">positive</text>
<polygon fill="none" stroke="red" points="509,-1429 509,-1450 552,-1450 552,-1429 509,-1429"/>
<text text-anchor="start" x="522.25" y="-1435.5" font-family="Helvetica,sans-Serif" font-size="10.00">test</text>
</g>
<!-- id&#45;&gt;dependency607 -->
<g id="edge3" class="edge">
<title>id:e&#45;&gt;dependency607:w</title>
<path fill="none" stroke="black" d="M305,-1484C350.51,-1484 360.12,-1455.23 399.89,-1450.62"/>
<polygon fill="black" stroke="black" points="409.78,-1450.07 400.05,-1455.12 406.01,-1450.28 399.8,-1450.62 399.8,-1450.62 399.8,-1450.62 406.01,-1450.28 399.55,-1446.13 409.78,-1450.07"/>
</g>
<!-- dependency609 -->
<g id="node5" class="node">
<title>dependency609</title>
<polygon fill="none" stroke="blue" points="702,-1511.5 702,-1616.5 806,-1616.5 806,-1511.5 702,-1511.5"/>
<text text-anchor="start" x="733" y="-1560.12" font-family="Helvetica,sans-Serif" font-size="10.00">pack_dep</text>
<polygon fill="none" stroke="blue" points="806,-1595.5 806,-1616.5 916,-1616.5 916,-1595.5 806,-1595.5"/>
<text text-anchor="start" x="855.75" y="-1602" font-family="Helvetica,sans-Serif" font-size="10.00">no</text>
<polygon fill="none" stroke="blue" points="806,-1574.5 806,-1595.5 916,-1595.5 916,-1574.5 806,-1574.5"/>
<text text-anchor="start" x="842.62" y="-1581" font-family="Helvetica,sans-Serif" font-size="10.00">dev&#45;java</text>
<polygon fill="none" stroke="blue" points="806,-1553.5 806,-1574.5 916,-1574.5 916,-1553.5 806,-1553.5"/>
<text text-anchor="start" x="843.38" y="-1560" font-family="Helvetica,sans-Serif" font-size="10.00">ant&#45;core</text>
<polygon fill="none" stroke="blue" points="806,-1532.5 806,-1553.5 916,-1553.5 916,-1532.5 806,-1532.5"/>
<text text-anchor="start" x="834.38" y="-1539" font-family="Helvetica,sans-Serif" font-size="10.00">greaterequal</text>
<polygon fill="none" stroke="blue" points="806,-1511.5 806,-1532.5 916,-1532.5 916,-1511.5 806,-1511.5"/>
<text text-anchor="start" x="850.12" y="-1518" font-family="Helvetica,sans-Serif" font-size="10.00">1.8.2</text>
</g>
<!-- id&#45;&gt;dependency609 -->
<g id="edge4" class="edge">
<title>id:e&#45;&gt;dependency609:w</title>
<path fill="none" stroke="black" d="M487,-1100C564.58,-1023.34 579.25,-1528.61 682.09,-1562.25"/>
<polygon fill="black" stroke="black" points="691.8,-1563.81 681.21,-1566.66 688.06,-1563.21 681.92,-1562.22 681.92,-1562.22 681.92,-1562.22 688.06,-1563.21 682.64,-1557.78 691.8,-1563.81"/>
</g>
<!-- dependency610 -->
<g id="node6" class="node">
<title>dependency610</title>
<polygon fill="none" stroke="blue" points="702,-1380.5 702,-1485.5 806,-1485.5 806,-1380.5 702,-1380.5"/>
<text text-anchor="start" x="733" y="-1429.12" font-family="Helvetica,sans-Serif" font-size="10.00">pack_dep</text>
<polygon fill="none" stroke="blue" points="806,-1464.5 806,-1485.5 916,-1485.5 916,-1464.5 806,-1464.5"/>
<text text-anchor="start" x="855.75" y="-1471" font-family="Helvetica,sans-Serif" font-size="10.00">no</text>
<polygon fill="none" stroke="blue" points="806,-1443.5 806,-1464.5 916,-1464.5 916,-1443.5 806,-1443.5"/>
<text text-anchor="start" x="842.62" y="-1450" font-family="Helvetica,sans-Serif" font-size="10.00">dev&#45;java</text>
<polygon fill="none" stroke="blue" points="806,-1422.5 806,-1443.5 916,-1443.5 916,-1422.5 806,-1422.5"/>
<text text-anchor="start" x="843.38" y="-1429" font-family="Helvetica,sans-Serif" font-size="10.00">ant&#45;core</text>
<polygon fill="none" stroke="blue" points="806,-1401.5 806,-1422.5 916,-1422.5 916,-1401.5 806,-1401.5"/>
<text text-anchor="start" x="834.38" y="-1408" font-family="Helvetica,sans-Serif" font-size="10.00">greaterequal</text>
<polygon fill="none" stroke="blue" points="806,-1380.5 806,-1401.5 916,-1401.5 916,-1380.5 806,-1380.5"/>
<text text-anchor="start" x="847.5" y="-1387" font-family="Helvetica,sans-Serif" font-size="10.00">1.9.13</text>
</g>
<!-- id&#45;&gt;dependency610 -->
<g id="edge5" class="edge">
<title>id:e&#45;&gt;dependency610:w</title>
<path fill="none" stroke="black" d="M487,-1100C608.13,-980.31 522.82,-1413.7 682.15,-1432.38"/>
<polygon fill="black" stroke="black" points="691.78,-1432.93 681.54,-1436.85 688.01,-1432.71 681.8,-1432.36 681.8,-1432.36 681.8,-1432.36 688.01,-1432.71 682.06,-1427.87 691.78,-1432.93"/>
</g>
<!-- dependency611 -->
<g id="node7" class="node">
<title>dependency611</title>
<polygon fill="none" stroke="blue" points="702,-1140.5 702,-1245.5 806,-1245.5 806,-1140.5 702,-1140.5"/>
<text text-anchor="start" x="733" y="-1189.12" font-family="Helvetica,sans-Serif" font-size="10.00">pack_dep</text>
<polygon fill="none" stroke="blue" points="806,-1224.5 806,-1245.5 916,-1245.5 916,-1224.5 806,-1224.5"/>
<text text-anchor="start" x="855.75" y="-1231" font-family="Helvetica,sans-Serif" font-size="10.00">no</text>
<polygon fill="none" stroke="blue" points="806,-1203.5 806,-1224.5 916,-1224.5 916,-1203.5 806,-1203.5"/>
<text text-anchor="start" x="842.62" y="-1210" font-family="Helvetica,sans-Serif" font-size="10.00">dev&#45;java</text>
<polygon fill="none" stroke="blue" points="806,-1182.5 806,-1203.5 916,-1203.5 916,-1182.5 806,-1182.5"/>
<text text-anchor="start" x="837.38" y="-1189" font-family="Helvetica,sans-Serif" font-size="10.00">java&#45;config</text>
<polygon fill="none" stroke="blue" points="806,-1161.5 806,-1182.5 916,-1182.5 916,-1161.5 806,-1161.5"/>
<text text-anchor="start" x="834.38" y="-1168" font-family="Helvetica,sans-Serif" font-size="10.00">greaterequal</text>
<polygon fill="none" stroke="blue" points="806,-1140.5 806,-1161.5 916,-1161.5 916,-1140.5 806,-1140.5"/>
<text text-anchor="start" x="844.5" y="-1147" font-family="Helvetica,sans-Serif" font-size="10.00">2.2.0&#45;r3</text>
</g>
<!-- id&#45;&gt;dependency611 -->
<g id="edge6" class="edge">
<title>id:e&#45;&gt;dependency611:w</title>
<path fill="none" stroke="black" d="M487,-1100C555.73,-1032.08 589.9,-1180.88 681.81,-1192.31"/>
<polygon fill="black" stroke="black" points="691.78,-1192.93 681.53,-1196.8 688.01,-1192.69 681.8,-1192.31 681.8,-1192.31 681.8,-1192.31 688.01,-1192.69 682.08,-1187.82 691.78,-1192.93"/>
</g>
<!-- dependency612 -->
<g id="node8" class="node">
<title>dependency612</title>
<polygon fill="none" stroke="blue" points="702,-954.5 702,-1059.5 806,-1059.5 806,-954.5 702,-954.5"/>
<text text-anchor="start" x="733" y="-1003.12" font-family="Helvetica,sans-Serif" font-size="10.00">pack_dep</text>
<polygon fill="none" stroke="blue" points="806,-1038.5 806,-1059.5 916,-1059.5 916,-1038.5 806,-1038.5"/>
<text text-anchor="start" x="855.75" y="-1045" font-family="Helvetica,sans-Serif" font-size="10.00">no</text>
<polygon fill="none" stroke="blue" points="806,-1017.5 806,-1038.5 916,-1038.5 916,-1017.5 806,-1017.5"/>
<text text-anchor="start" x="842.62" y="-1024" font-family="Helvetica,sans-Serif" font-size="10.00">dev&#45;java</text>
<polygon fill="none" stroke="blue" points="806,-996.5 806,-1017.5 916,-1017.5 916,-996.5 806,-996.5"/>
<text text-anchor="start" x="838.88" y="-1003" font-family="Helvetica,sans-Serif" font-size="10.00">javatoolkit</text>
<polygon fill="none" stroke="blue" points="806,-975.5 806,-996.5 916,-996.5 916,-975.5 806,-975.5"/>
<text text-anchor="start" x="834.38" y="-982" font-family="Helvetica,sans-Serif" font-size="10.00">greaterequal</text>
<polygon fill="none" stroke="blue" points="806,-954.5 806,-975.5 916,-975.5 916,-954.5 806,-954.5"/>
<text text-anchor="start" x="844.5" y="-961" font-family="Helvetica,sans-Serif" font-size="10.00">0.3.0&#45;r2</text>
</g>
<!-- id&#45;&gt;dependency612 -->
<g id="edge7" class="edge">
<title>id:e&#45;&gt;dependency612:w</title>
<path fill="none" stroke="black" d="M487,-1100C555.73,-1032.08 589.9,-1008.78 681.81,-1007.1"/>
<polygon fill="black" stroke="black" points="691.78,-1007.01 681.82,-1011.6 688,-1007.04 681.78,-1007.1 681.78,-1007.1 681.78,-1007.1 688,-1007.04 681.74,-1002.6 691.78,-1007.01"/>
</g>
<!-- dependency613 -->
<g id="node9" class="node">
<title>dependency613</title>
<polygon fill="none" stroke="blue" points="702,-282.5 702,-387.5 806,-387.5 806,-282.5 702,-282.5"/>
<text text-anchor="start" x="733" y="-331.12" font-family="Helvetica,sans-Serif" font-size="10.00">pack_dep</text>
<polygon fill="none" stroke="blue" points="806,-366.5 806,-387.5 916,-387.5 916,-366.5 806,-366.5"/>
<text text-anchor="start" x="855.75" y="-373" font-family="Helvetica,sans-Serif" font-size="10.00">no</text>
<polygon fill="none" stroke="blue" points="806,-345.5 806,-366.5 916,-366.5 916,-345.5 806,-345.5"/>
<text text-anchor="start" x="842.62" y="-352" font-family="Helvetica,sans-Serif" font-size="10.00">dev&#45;java</text>
<polygon fill="none" stroke="blue" points="806,-324.5 806,-345.5 916,-345.5 916,-324.5 806,-324.5"/>
<text text-anchor="start" x="822" y="-331" font-family="Helvetica,sans-Serif" font-size="10.00">tomcat&#45;servlet&#45;api</text>
<polygon fill="none" stroke="blue" points="806,-303.5 806,-324.5 916,-324.5 916,-303.5 806,-303.5"/>
<text text-anchor="start" x="852" y="-310" font-family="Helvetica,sans-Serif" font-size="10.00">tilde</text>
<polygon fill="none" stroke="blue" points="806,-282.5 806,-303.5 916,-303.5 916,-282.5 806,-282.5"/>
<text text-anchor="start" x="847.5" y="-289" font-family="Helvetica,sans-Serif" font-size="10.00">9.0.45</text>
</g>
<!-- id&#45;&gt;dependency613 -->
<g id="edge8" class="edge">
<title>id:e&#45;&gt;dependency613:w</title>
<path fill="none" stroke="black" d="M487,-1100C734.77,-855.17 349.33,-346.09 681.91,-335.18"/>
<polygon fill="black" stroke="black" points="691.78,-335.02 681.86,-339.68 688,-335.08 681.78,-335.18 681.78,-335.18 681.78,-335.18 688,-335.08 681.71,-330.68 691.78,-335.02"/>
</g>
<!-- dependency614 -->
<g id="node10" class="node">
<title>dependency614</title>
<polygon fill="none" stroke="red" points="420,-1590 420,-1632 509,-1632 509,-1590 420,-1590"/>
<text text-anchor="start" x="430.75" y="-1607.12" font-family="Helvetica,sans-Serif" font-size="10.00">use_conditional</text>
<polygon fill="none" stroke="red" points="509,-1611 509,-1632 552,-1632 552,-1611 509,-1611"/>
<text text-anchor="start" x="513.62" y="-1617.5" font-family="Helvetica,sans-Serif" font-size="10.00">positive</text>
<polygon fill="none" stroke="red" points="509,-1590 509,-1611 552,-1611 552,-1590 509,-1590"/>
<text text-anchor="start" x="515.88" y="-1596.5" font-family="Helvetica,sans-Serif" font-size="10.00">source</text>
</g>
<!-- id&#45;&gt;dependency614 -->
<g id="edge9" class="edge">
<title>id:e&#45;&gt;dependency614:w</title>
<path fill="none" stroke="black" d="M305,-1484C375.36,-1484 340.79,-1600.32 402.14,-1610.32"/>
<ellipse fill="none" stroke="black" cx="406.51" cy="-1610.65" rx="4" ry="4"/>
</g>
<!-- dependency615 -->
<g id="node11" class="node">
<title>dependency615</title>
<polygon fill="none" stroke="blue" points="702,-151.5 702,-256.5 806,-256.5 806,-151.5 702,-151.5"/>
<text text-anchor="start" x="733" y="-200.12" font-family="Helvetica,sans-Serif" font-size="10.00">pack_dep</text>
<polygon fill="none" stroke="blue" points="806,-235.5 806,-256.5 916,-256.5 916,-235.5 806,-235.5"/>
<text text-anchor="start" x="855.75" y="-242" font-family="Helvetica,sans-Serif" font-size="10.00">no</text>
<polygon fill="none" stroke="blue" points="806,-214.5 806,-235.5 916,-235.5 916,-214.5 806,-214.5"/>
<text text-anchor="start" x="842.62" y="-221" font-family="Helvetica,sans-Serif" font-size="10.00">dev&#45;java</text>
<polygon fill="none" stroke="blue" points="806,-193.5 806,-214.5 916,-214.5 916,-193.5 806,-193.5"/>
<text text-anchor="start" x="837.38" y="-200" font-family="Helvetica,sans-Serif" font-size="10.00">java&#45;config</text>
<polygon fill="none" stroke="blue" points="806,-172.5 806,-193.5 916,-193.5 916,-172.5 806,-172.5"/>
<text text-anchor="start" x="834.38" y="-179" font-family="Helvetica,sans-Serif" font-size="10.00">greaterequal</text>
<polygon fill="none" stroke="blue" points="806,-151.5 806,-172.5 916,-172.5 916,-151.5 806,-151.5"/>
<text text-anchor="start" x="844.5" y="-158" font-family="Helvetica,sans-Serif" font-size="10.00">2.2.0&#45;r3</text>
</g>
<!-- id&#45;&gt;dependency615 -->
<g id="edge10" class="edge">
<title>id:e&#45;&gt;dependency615:w</title>
<path fill="none" stroke="black" d="M487,-1100C775.52,-814.9 291.57,-212.9 684.17,-204.1"/>
<ellipse fill="none" stroke="black" cx="688.5" cy="-204.05" rx="4" ry="4"/>
</g>
<!-- dependency616 -->
<g id="node12" class="node">
<title>dependency616</title>
<polygon fill="none" stroke="blue" points="702,-20.5 702,-125.5 806,-125.5 806,-20.5 702,-20.5"/>
<text text-anchor="start" x="733" y="-69.12" font-family="Helvetica,sans-Serif" font-size="10.00">pack_dep</text>
<polygon fill="none" stroke="blue" points="806,-104.5 806,-125.5 916,-125.5 916,-104.5 806,-104.5"/>
<text text-anchor="start" x="855.75" y="-111" font-family="Helvetica,sans-Serif" font-size="10.00">no</text>
<polygon fill="none" stroke="blue" points="806,-83.5 806,-104.5 916,-104.5 916,-83.5 806,-83.5"/>
<text text-anchor="start" x="842.62" y="-90" font-family="Helvetica,sans-Serif" font-size="10.00">dev&#45;java</text>
<polygon fill="none" stroke="blue" points="806,-62.5 806,-83.5 916,-83.5 916,-62.5 806,-62.5"/>
<text text-anchor="start" x="822" y="-69" font-family="Helvetica,sans-Serif" font-size="10.00">tomcat&#45;servlet&#45;api</text>
<polygon fill="none" stroke="blue" points="806,-41.5 806,-62.5 916,-62.5 916,-41.5 806,-41.5"/>
<text text-anchor="start" x="852" y="-48" font-family="Helvetica,sans-Serif" font-size="10.00">tilde</text>
<polygon fill="none" stroke="blue" points="806,-20.5 806,-41.5 916,-41.5 916,-20.5 806,-20.5"/>
<text text-anchor="start" x="847.5" y="-27" font-family="Helvetica,sans-Serif" font-size="10.00">9.0.45</text>
</g>
<!-- id&#45;&gt;dependency616 -->
<g id="edge11" class="edge">
<title>id:e&#45;&gt;dependency616:w</title>
<path fill="none" stroke="black" d="M487,-1100C816.04,-774.86 234.93,-81.87 684.26,-73.08"/>
<ellipse fill="none" stroke="black" cx="688.5" cy="-73.04" rx="4" ry="4"/>
<path fill="none" stroke="black" d="M305,-1484C399.24,-1484 417.96,-1166.24 485,-1100"/>
</g>
<!-- dependency608 -->
<g id="node4" class="node">
<title>dependency608</title>
<polygon fill="none" stroke="blue" points="702,-1697.5 702,-1802.5 806,-1802.5 806,-1697.5 702,-1697.5"/>
<text text-anchor="start" x="733" y="-1746.12" font-family="Helvetica,sans-Serif" font-size="10.00">pack_dep</text>
<polygon fill="none" stroke="blue" points="806,-1781.5 806,-1802.5 916,-1802.5 916,-1781.5 806,-1781.5"/>
<text text-anchor="start" x="855.75" y="-1788" font-family="Helvetica,sans-Serif" font-size="10.00">no</text>
<polygon fill="none" stroke="blue" points="806,-1760.5 806,-1781.5 916,-1781.5 916,-1760.5 806,-1760.5"/>
<text text-anchor="start" x="842.62" y="-1767" font-family="Helvetica,sans-Serif" font-size="10.00">dev&#45;java</text>
<polygon fill="none" stroke="blue" points="806,-1739.5 806,-1760.5 916,-1760.5 916,-1739.5 806,-1739.5"/>
<text text-anchor="start" x="843.75" y="-1746" font-family="Helvetica,sans-Serif" font-size="10.00">ant&#45;junit</text>
<polygon fill="none" stroke="blue" points="806,-1718.5 806,-1739.5 916,-1739.5 916,-1718.5 806,-1718.5"/>
<text text-anchor="start" x="834.38" y="-1725" font-family="Helvetica,sans-Serif" font-size="10.00">greaterequal</text>
<polygon fill="none" stroke="blue" points="806,-1697.5 806,-1718.5 916,-1718.5 916,-1697.5 806,-1697.5"/>
<text text-anchor="start" x="854.25" y="-1704" font-family="Helvetica,sans-Serif" font-size="10.00">1.9</text>
</g>
<!-- dependency607&#45;&gt;dependency608 -->
<g id="edge2" class="edge">
<title>dependency607:e&#45;&gt;dependency608:w</title>
<path fill="none" stroke="black" stroke-dasharray="5,2" d="M561,-1450C702.83,-1450 555.52,-1734.39 682.1,-1749.39"/>
<polygon fill="black" stroke="black" points="691.78,-1749.93 681.55,-1753.86 688.01,-1749.72 681.8,-1749.37 681.8,-1749.37 681.8,-1749.37 688.01,-1749.72 682.05,-1744.88 691.78,-1749.93"/>
</g>
<!-- choice10010111845106971189747971101164510611711010511645494649484657 -->
<g id="node13" class="node">
<title>choice10010111845106971189747971101164510611711010511645494649484657</title>
<g id="a_node13"><a xlink:href="../dev-java/ant-junit-1.10.9.svg" xlink:title="portage://dev&#45;java/ant&#45;junit&#45;1.10.9">
<ellipse fill="none" stroke="red" cx="812" cy="-1843" rx="144" ry="18"/>
<text text-anchor="middle" x="812" y="-1839.12" font-family="Helvetica,sans-Serif" font-size="10.00">portage://dev&#45;java/ant&#45;junit&#45;1.10.9</text>
</a>
</g>
</g>
<!-- dependency608&#45;&gt;choice10010111845106971189747971101164510611711010511645494649484657 -->
<g id="edge12" class="edge">
<title>dependency608:e&#45;&gt;choice10010111845106971189747971101164510611711010511645494649484657:w</title>
<path fill="none" stroke="black" stroke-dasharray="1,5" d="M663.37,-1832.45C664.4,-1829.7 666.07,-1826.96 668,-1825 708.96,-1783.42 889.83,-1848.85 930,-1806.5 947.28,-1788.28 956.12,-1750 931,-1750"/>
<polygon fill="black" stroke="black" points="666.6,-1841.85 659.09,-1833.86 665.37,-1838.27 663.34,-1832.39 663.34,-1832.39 663.34,-1832.39 665.37,-1838.27 667.6,-1830.93 666.6,-1841.85"/>
</g>
<!-- choice1001011184510697118974797110116459911111410145494649484657 -->
<g id="node14" class="node">
<title>choice1001011184510697118974797110116459911111410145494649484657</title>
<g id="a_node14"><a xlink:href="../dev-java/ant-core-1.10.9.svg" xlink:title="portage://dev&#45;java/ant&#45;core&#45;1.10.9">
<ellipse fill="none" stroke="red" cx="812" cy="-1657" rx="144" ry="18"/>
<text text-anchor="middle" x="812" y="-1653.12" font-family="Helvetica,sans-Serif" font-size="10.00">portage://dev&#45;java/ant&#45;core&#45;1.10.9</text>
</a>
</g>
</g>
<!-- dependency609&#45;&gt;choice1001011184510697118974797110116459911111410145494649484657 -->
<g id="edge13" class="edge">
<title>dependency609:e&#45;&gt;choice1001011184510697118974797110116459911111410145494649484657:w</title>
<path fill="none" stroke="black" stroke-dasharray="1,5" d="M663.37,-1646.45C664.4,-1643.7 666.07,-1640.96 668,-1639 708.96,-1597.42 889.83,-1662.85 930,-1620.5 947.28,-1602.28 956.12,-1564 931,-1564"/>
<polygon fill="black" stroke="black" points="666.6,-1655.85 659.09,-1647.86 665.37,-1652.27 663.34,-1646.39 663.34,-1646.39 663.34,-1646.39 665.37,-1652.27 667.6,-1644.93 666.6,-1655.85"/>
</g>
<!-- dependency610&#45;&gt;choice1001011184510697118974797110116459911111410145494649484657 -->
<g id="edge14" class="edge">
<title>dependency610:e&#45;&gt;choice1001011184510697118974797110116459911111410145494649484657:w</title>
<path fill="none" stroke="black" stroke-dasharray="1,5" d="M931,-1433C956.12,-1433 947.6,-1471.59 930,-1489.5 905.66,-1514.27 639.83,-1480.99 618,-1508 576.57,-1559.25 594.96,-1646.75 655.98,-1656.17"/>
<polygon fill="black" stroke="black" points="665.79,-1656.91 655.48,-1660.65 662.01,-1656.63 655.81,-1656.16 655.81,-1656.16 655.81,-1656.16 662.01,-1656.63 656.15,-1651.67 665.79,-1656.91"/>
</g>
<!-- choice1001011184510697118974710697118974599111110102105103455046514649 -->
<g id="node15" class="node">
<title>choice1001011184510697118974710697118974599111110102105103455046514649</title>
<g id="a_node15"><a xlink:href="../dev-java/java-config-2.3.1.svg" xlink:title="portage://dev&#45;java/java&#45;config&#45;2.3.1">
<ellipse fill="none" stroke="red" cx="812" cy="-1340" rx="144" ry="18"/>
<text text-anchor="middle" x="812" y="-1336.12" font-family="Helvetica,sans-Serif" font-size="10.00">portage://dev&#45;java/java&#45;config&#45;2.3.1</text>
</a>
</g>
</g>
<!-- dependency611&#45;&gt;choice1001011184510697118974710697118974599111110102105103455046514649 -->
<g id="edge15" class="edge">
<title>dependency611:e&#45;&gt;choice1001011184510697118974710697118974599111110102105103455046514649:w</title>
<path fill="none" stroke="black" stroke-dasharray="1,5" d="M931,-1193C956.12,-1193 947.6,-1231.59 930,-1249.5 905.66,-1274.27 639.83,-1240.99 618,-1268 595.95,-1295.28 622.32,-1332.25 656.27,-1338.94"/>
<polygon fill="black" stroke="black" points="665.79,-1339.88 655.39,-1343.38 662.02,-1339.51 655.84,-1338.9 655.84,-1338.9 655.84,-1338.9 662.02,-1339.51 656.28,-1334.42 665.79,-1339.88"/>
</g>
<!-- choice10010111845106971189747106971189745991111101021051034557575757 -->
<g id="node16" class="node">
<title>choice10010111845106971189747106971189745991111101021051034557575757</title>
<g id="a_node16"><a xlink:href="../dev-java/java-config-9999.svg" xlink:title="portage://dev&#45;java/java&#45;config&#45;9999">
<ellipse fill="none" stroke="red" cx="812" cy="-1286" rx="144" ry="18"/>
<text text-anchor="middle" x="812" y="-1282.12" font-family="Helvetica,sans-Serif" font-size="10.00">portage://dev&#45;java/java&#45;config&#45;9999</text>
</a>
</g>
</g>
<!-- dependency611&#45;&gt;choice10010111845106971189747106971189745991111101021051034557575757 -->
<g id="edge16" class="edge">
<title>dependency611:e&#45;&gt;choice10010111845106971189747106971189745991111101021051034557575757:w</title>
<path fill="none" stroke="black" stroke-dasharray="1,5" d="M663.37,-1275.45C664.4,-1272.7 666.07,-1269.96 668,-1268 708.96,-1226.42 889.83,-1291.85 930,-1249.5 947.28,-1231.28 956.12,-1193 931,-1193"/>
<polygon fill="black" stroke="black" points="666.6,-1284.85 659.09,-1276.86 665.37,-1281.27 663.34,-1275.39 663.34,-1275.39 663.34,-1275.39 665.37,-1281.27 667.6,-1273.93 666.6,-1284.85"/>
</g>
<!-- choice100101118451069711897471069711897116111111108107105116454846544653 -->
<g id="node17" class="node">
<title>choice100101118451069711897471069711897116111111108107105116454846544653</title>
<g id="a_node17"><a xlink:href="../dev-java/javatoolkit-0.6.5.svg" xlink:title="portage://dev&#45;java/javatoolkit&#45;0.6.5">
<ellipse fill="none" stroke="red" cx="812" cy="-1100" rx="144" ry="18"/>
<text text-anchor="middle" x="812" y="-1096.12" font-family="Helvetica,sans-Serif" font-size="10.00">portage://dev&#45;java/javatoolkit&#45;0.6.5</text>
</a>
</g>
</g>
<!-- dependency612&#45;&gt;choice100101118451069711897471069711897116111111108107105116454846544653 -->
<g id="edge17" class="edge">
<title>dependency612:e&#45;&gt;choice100101118451069711897471069711897116111111108107105116454846544653:w</title>
<path fill="none" stroke="black" stroke-dasharray="1,5" d="M663.37,-1089.45C664.4,-1086.7 666.07,-1083.96 668,-1082 708.96,-1040.42 889.83,-1105.85 930,-1063.5 947.28,-1045.28 956.12,-1007 931,-1007"/>
<polygon fill="black" stroke="black" points="666.6,-1098.85 659.09,-1090.86 665.37,-1095.27 663.34,-1089.39 663.34,-1089.39 663.34,-1089.39 665.37,-1095.27 667.6,-1087.93 666.6,-1098.85"/>
</g>
<!-- choice10010111845106971189747116111109999711645115101114118108101116459711210545494846484653 -->
<g id="node18" class="node">
<title>choice10010111845106971189747116111109999711645115101114118108101116459711210545494846484653</title>
<g id="a_node18"><a xlink:href="../dev-java/tomcat-servlet-api-10.0.5.svg" xlink:title="portage://dev&#45;java/tomcat&#45;servlet&#45;api&#45;10.0.5">
<ellipse fill="none" stroke="red" cx="812" cy="-914" rx="144" ry="18"/>
<text text-anchor="middle" x="812" y="-910.12" font-family="Helvetica,sans-Serif" font-size="10.00">portage://dev&#45;java/tomcat&#45;servlet&#45;api&#45;10.0.5</text>
</a>
</g>
</g>
<!-- dependency613&#45;&gt;choice10010111845106971189747116111109999711645115101114118108101116459711210545494846484653 -->
<g id="edge18" class="edge">
<title>dependency613:e&#45;&gt;choice10010111845106971189747116111109999711645115101114118108101116459711210545494846484653:w</title>
<path fill="none" stroke="black" stroke-dasharray="1,5" d="M931,-335C956.12,-335 947.6,-373.59 930,-391.5 905.66,-416.27 639.83,-382.99 618,-410 585.31,-450.44 594.52,-831.61 618,-878 628.39,-898.53 637.02,-910.2 656.04,-913.21"/>
<polygon fill="black" stroke="black" points="665.78,-913.91 655.49,-917.68 662.01,-913.64 655.81,-913.2 655.81,-913.2 655.81,-913.2 662.01,-913.64 656.13,-908.71 665.78,-913.91"/>
</g>
<!-- choice10010111845106971189747116111109999711645115101114118108101116459711210545494846484654 -->
<g id="node19" class="node">
<title>choice10010111845106971189747116111109999711645115101114118108101116459711210545494846484654</title>
<g id="a_node19"><a xlink:href="../dev-java/tomcat-servlet-api-10.0.6.svg" xlink:title="portage://dev&#45;java/tomcat&#45;servlet&#45;api&#45;10.0.6">
<ellipse fill="none" stroke="red" cx="812" cy="-860" rx="144" ry="18"/>
<text text-anchor="middle" x="812" y="-856.12" font-family="Helvetica,sans-Serif" font-size="10.00">portage://dev&#45;java/tomcat&#45;servlet&#45;api&#45;10.0.6</text>
</a>
</g>
</g>
<!-- dependency613&#45;&gt;choice10010111845106971189747116111109999711645115101114118108101116459711210545494846484654 -->
<g id="edge19" class="edge">
<title>dependency613:e&#45;&gt;choice10010111845106971189747116111109999711645115101114118108101116459711210545494846484654:w</title>
<path fill="none" stroke="black" stroke-dasharray="1,5" d="M931,-335C956.12,-335 947.6,-373.59 930,-391.5 905.66,-416.27 639.83,-382.99 618,-410 560.16,-481.55 576.45,-741.92 618,-824 628.39,-844.53 637.02,-856.2 656.04,-859.21"/>
<polygon fill="black" stroke="black" points="665.78,-859.91 655.49,-863.68 662.01,-859.64 655.81,-859.2 655.81,-859.2 655.81,-859.2 662.01,-859.64 656.13,-854.71 665.78,-859.91"/>
</g>
<!-- choice10010111845106971189747116111109999711645115101114118108101116459711210545524649465248 -->
<g id="node20" class="node">
<title>choice10010111845106971189747116111109999711645115101114118108101116459711210545524649465248</title>
<g id="a_node20"><a xlink:href="../dev-java/tomcat-servlet-api-4.1.40.svg" xlink:title="portage://dev&#45;java/tomcat&#45;servlet&#45;api&#45;4.1.40">
<ellipse fill="none" stroke="red" cx="812" cy="-806" rx="144" ry="18"/>
<text text-anchor="middle" x="812" y="-802.12" font-family="Helvetica,sans-Serif" font-size="10.00">portage://dev&#45;java/tomcat&#45;servlet&#45;api&#45;4.1.40</text>
</a>
</g>
</g>
<!-- dependency613&#45;&gt;choice10010111845106971189747116111109999711645115101114118108101116459711210545524649465248 -->
<g id="edge20" class="edge">
<title>dependency613:e&#45;&gt;choice10010111845106971189747116111109999711645115101114118108101116459711210545524649465248:w</title>
<path fill="none" stroke="black" stroke-dasharray="1,5" d="M931,-335C956.12,-335 947.6,-373.59 930,-391.5 905.66,-416.27 639.83,-382.99 618,-410 567.71,-472.21 581.87,-698.62 618,-770 628.39,-790.53 637.02,-802.2 656.04,-805.21"/>
<polygon fill="black" stroke="black" points="665.78,-805.91 655.49,-809.68 662.01,-805.64 655.81,-805.2 655.81,-805.2 655.81,-805.2 662.01,-805.64 656.13,-800.71 665.78,-805.91"/>
</g>
<!-- choice10010111845106971189747116111109999711645115101114118108101116459711210545534653465154 -->
<g id="node21" class="node">
<title>choice10010111845106971189747116111109999711645115101114118108101116459711210545534653465154</title>
<g id="a_node21"><a xlink:href="../dev-java/tomcat-servlet-api-5.5.36.svg" xlink:title="portage://dev&#45;java/tomcat&#45;servlet&#45;api&#45;5.5.36">
<ellipse fill="none" stroke="red" cx="812" cy="-752" rx="144" ry="18"/>
<text text-anchor="middle" x="812" y="-748.12" font-family="Helvetica,sans-Serif" font-size="10.00">portage://dev&#45;java/tomcat&#45;servlet&#45;api&#45;5.5.36</text>
</a>
</g>
</g>
<!-- dependency613&#45;&gt;choice10010111845106971189747116111109999711645115101114118108101116459711210545534653465154 -->
<g id="edge21" class="edge">
<title>dependency613:e&#45;&gt;choice10010111845106971189747116111109999711645115101114118108101116459711210545534653465154:w</title>
<path fill="none" stroke="black" stroke-dasharray="1,5" d="M931,-335C956.12,-335 947.6,-373.59 930,-391.5 905.66,-416.27 639.83,-382.99 618,-410 575.25,-462.88 587.29,-655.33 618,-716 628.39,-736.53 637.02,-748.2 656.04,-751.21"/>
<polygon fill="black" stroke="black" points="665.78,-751.91 655.49,-755.68 662.01,-751.64 655.81,-751.2 655.81,-751.2 655.81,-751.2 662.01,-751.64 656.13,-746.71 665.78,-751.91"/>
</g>
<!-- choice100101118451069711897471161111099997116451151011141181081011164597112105455446484653514511449 -->
<g id="node22" class="node">
<title>choice100101118451069711897471161111099997116451151011141181081011164597112105455446484653514511449</title>
<g id="a_node22"><a xlink:href="../dev-java/tomcat-servlet-api-6.0.53-r1.svg" xlink:title="portage://dev&#45;java/tomcat&#45;servlet&#45;api&#45;6.0.53&#45;r1">
<ellipse fill="none" stroke="red" cx="812" cy="-698" rx="144" ry="18"/>
<text text-anchor="middle" x="812" y="-694.12" font-family="Helvetica,sans-Serif" font-size="10.00">portage://dev&#45;java/tomcat&#45;servlet&#45;api&#45;6.0.53&#45;r1</text>
</a>
</g>
</g>
<!-- dependency613&#45;&gt;choice100101118451069711897471161111099997116451151011141181081011164597112105455446484653514511449 -->
<g id="edge22" class="edge">
<title>dependency613:e&#45;&gt;choice100101118451069711897471161111099997116451151011141181081011164597112105455446484653514511449:w</title>
<path fill="none" stroke="black" stroke-dasharray="1,5" d="M931,-335C956.12,-335 947.6,-373.59 930,-391.5 905.66,-416.27 639.83,-382.99 618,-410 582.79,-453.55 592.71,-612.04 618,-662 628.39,-682.53 637.02,-694.2 656.04,-697.21"/>
<polygon fill="black" stroke="black" points="665.78,-697.91 655.49,-701.68 662.01,-697.64 655.81,-697.2 655.81,-697.2 655.81,-697.2 662.01,-697.64 656.13,-692.71 665.78,-697.91"/>
</g>
<!-- choice1001011184510697118974711611110999971164511510111411810810111645971121054555464846494857 -->
<g id="node23" class="node">
<title>choice1001011184510697118974711611110999971164511510111411810810111645971121054555464846494857</title>
<g id="a_node23"><a xlink:href="../dev-java/tomcat-servlet-api-7.0.109.svg" xlink:title="portage://dev&#45;java/tomcat&#45;servlet&#45;api&#45;7.0.109">
<ellipse fill="none" stroke="red" cx="812" cy="-644" rx="144" ry="18"/>
<text text-anchor="middle" x="812" y="-640.12" font-family="Helvetica,sans-Serif" font-size="10.00">portage://dev&#45;java/tomcat&#45;servlet&#45;api&#45;7.0.109</text>
</a>
</g>
</g>
<!-- dependency613&#45;&gt;choice1001011184510697118974711611110999971164511510111411810810111645971121054555464846494857 -->
<g id="edge23" class="edge">
<title>dependency613:e&#45;&gt;choice1001011184510697118974711611110999971164511510111411810810111645971121054555464846494857:w</title>
<path fill="none" stroke="black" stroke-dasharray="1,5" d="M931,-335C956.12,-335 947.6,-373.59 930,-391.5 905.66,-416.27 639.83,-382.99 618,-410 562.68,-478.43 578.26,-529.49 618,-608 628.39,-628.53 637.02,-640.2 656.04,-643.21"/>
<polygon fill="black" stroke="black" points="665.78,-643.91 655.49,-647.68 662.01,-643.64 655.81,-643.2 655.81,-643.2 655.81,-643.2 662.01,-643.64 656.13,-638.71 665.78,-643.91"/>
</g>
<!-- choice10010111845106971189747116111109999711645115101114118108101116459711210545564653465453 -->
<g id="node24" class="node">
<title>choice10010111845106971189747116111109999711645115101114118108101116459711210545564653465453</title>
<g id="a_node24"><a xlink:href="../dev-java/tomcat-servlet-api-8.5.65.svg" xlink:title="portage://dev&#45;java/tomcat&#45;servlet&#45;api&#45;8.5.65">
<ellipse fill="none" stroke="red" cx="812" cy="-590" rx="144" ry="18"/>
<text text-anchor="middle" x="812" y="-586.12" font-family="Helvetica,sans-Serif" font-size="10.00">portage://dev&#45;java/tomcat&#45;servlet&#45;api&#45;8.5.65</text>
</a>
</g>
</g>
<!-- dependency613&#45;&gt;choice10010111845106971189747116111109999711645115101114118108101116459711210545564653465453 -->
<g id="edge24" class="edge">
<title>dependency613:e&#45;&gt;choice10010111845106971189747116111109999711645115101114118108101116459711210545564653465453:w</title>
<path fill="none" stroke="black" stroke-dasharray="1,5" d="M931,-335C956.12,-335 947.6,-373.59 930,-391.5 905.66,-416.27 639.83,-382.99 618,-410 568.22,-471.58 582.59,-579.72 656.22,-589.32"/>
<polygon fill="black" stroke="black" points="665.78,-589.92 655.52,-593.78 662.01,-589.68 655.8,-589.29 655.8,-589.29 655.8,-589.29 662.01,-589.68 656.09,-584.8 665.78,-589.92"/>
</g>
<!-- choice10010111845106971189747116111109999711645115101114118108101116459711210545564653465454 -->
<g id="node25" class="node">
<title>choice10010111845106971189747116111109999711645115101114118108101116459711210545564653465454</title>
<g id="a_node25"><a xlink:href="../dev-java/tomcat-servlet-api-8.5.66.svg" xlink:title="portage://dev&#45;java/tomcat&#45;servlet&#45;api&#45;8.5.66">
<ellipse fill="none" stroke="red" cx="812" cy="-536" rx="144" ry="18"/>
<text text-anchor="middle" x="812" y="-532.12" font-family="Helvetica,sans-Serif" font-size="10.00">portage://dev&#45;java/tomcat&#45;servlet&#45;api&#45;8.5.66</text>
</a>
</g>
</g>
<!-- dependency613&#45;&gt;choice10010111845106971189747116111109999711645115101114118108101116459711210545564653465454 -->
<g id="edge25" class="edge">
<title>dependency613:e&#45;&gt;choice10010111845106971189747116111109999711645115101114118108101116459711210545564653465454:w</title>
<path fill="none" stroke="black" stroke-dasharray="1,5" d="M931,-335C956.12,-335 947.6,-373.59 930,-391.5 905.66,-416.27 639.83,-382.99 618,-410 582.59,-453.81 603.83,-526.22 656.13,-535.1"/>
<polygon fill="black" stroke="black" points="665.79,-535.9 655.45,-539.56 662.02,-535.59 655.82,-535.07 655.82,-535.07 655.82,-535.07 662.02,-535.59 656.19,-530.59 665.79,-535.9"/>
</g>
<!-- choice10010111845106971189747116111109999711645115101114118108101116459711210545574648465253 -->
<g id="node26" class="node">
<title>choice10010111845106971189747116111109999711645115101114118108101116459711210545574648465253</title>
<g id="a_node26"><a xlink:href="../dev-java/tomcat-servlet-api-9.0.45.svg" xlink:title="portage://dev&#45;java/tomcat&#45;servlet&#45;api&#45;9.0.45">
<ellipse fill="none" stroke="red" cx="812" cy="-482" rx="144" ry="18"/>
<text text-anchor="middle" x="812" y="-478.12" font-family="Helvetica,sans-Serif" font-size="10.00">portage://dev&#45;java/tomcat&#45;servlet&#45;api&#45;9.0.45</text>
</a>
</g>
</g>
<!-- dependency613&#45;&gt;choice10010111845106971189747116111109999711645115101114118108101116459711210545574648465253 -->
<g id="edge26" class="edge">
<title>dependency613:e&#45;&gt;choice10010111845106971189747116111109999711645115101114118108101116459711210545574648465253:w</title>
<path fill="none" stroke="black" stroke-dasharray="1,5" d="M931,-335C956.12,-335 947.6,-373.59 930,-391.5 905.66,-416.27 639.83,-382.99 618,-410 595.95,-437.28 622.32,-474.25 656.27,-480.94"/>
<polygon fill="black" stroke="black" points="665.79,-481.88 655.39,-485.38 662.02,-481.51 655.84,-480.9 655.84,-480.9 655.84,-480.9 662.02,-481.51 656.28,-476.42 665.79,-481.88"/>
</g>
<!-- choice10010111845106971189747116111109999711645115101114118108101116459711210545574648465254 -->
<g id="node27" class="node">
<title>choice10010111845106971189747116111109999711645115101114118108101116459711210545574648465254</title>
<g id="a_node27"><a xlink:href="../dev-java/tomcat-servlet-api-9.0.46.svg" xlink:title="portage://dev&#45;java/tomcat&#45;servlet&#45;api&#45;9.0.46">
<ellipse fill="none" stroke="red" cx="812" cy="-428" rx="144" ry="18"/>
<text text-anchor="middle" x="812" y="-424.12" font-family="Helvetica,sans-Serif" font-size="10.00">portage://dev&#45;java/tomcat&#45;servlet&#45;api&#45;9.0.46</text>
</a>
</g>
</g>
<!-- dependency613&#45;&gt;choice10010111845106971189747116111109999711645115101114118108101116459711210545574648465254 -->
<g id="edge27" class="edge">
<title>dependency613:e&#45;&gt;choice10010111845106971189747116111109999711645115101114118108101116459711210545574648465254:w</title>
<path fill="none" stroke="black" stroke-dasharray="1,5" d="M663.37,-417.45C664.4,-414.7 666.07,-411.96 668,-410 708.96,-368.42 889.83,-433.85 930,-391.5 947.28,-373.28 956.12,-335 931,-335"/>
<polygon fill="black" stroke="black" points="666.6,-426.85 659.09,-418.86 665.37,-423.27 663.34,-417.39 663.34,-417.39 663.34,-417.39 665.37,-423.27 667.6,-415.93 666.6,-426.85"/>
</g>
<!-- dependency615&#45;&gt;choice1001011184510697118974710697118974599111110102105103455046514649 -->
<g id="edge28" class="edge">
<title>dependency615:e&#45;&gt;choice1001011184510697118974710697118974599111110102105103455046514649:w</title>
<path fill="none" stroke="black" stroke-dasharray="1,5" d="M931,-204C956.12,-204 947.6,-242.59 930,-260.5 905.66,-285.27 639.83,-251.99 618,-279 582.2,-323.28 592.28,-1253.19 618,-1304 628.39,-1324.53 637.02,-1336.2 656.04,-1339.21"/>
<polygon fill="black" stroke="black" points="665.78,-1339.91 655.49,-1343.68 662.01,-1339.64 655.81,-1339.2 655.81,-1339.2 655.81,-1339.2 662.01,-1339.64 656.13,-1334.71 665.78,-1339.91"/>
</g>
<!-- dependency615&#45;&gt;choice10010111845106971189747106971189745991111101021051034557575757 -->
<g id="edge29" class="edge">
<title>dependency615:e&#45;&gt;choice10010111845106971189747106971189745991111101021051034557575757:w</title>
<path fill="none" stroke="black" stroke-dasharray="1,5" d="M931,-204C956.12,-204 947.6,-242.59 930,-260.5 905.66,-285.27 639.83,-251.99 618,-279 584.09,-320.95 593.64,-1201.87 618,-1250 628.39,-1270.53 637.02,-1282.2 656.04,-1285.21"/>
<polygon fill="black" stroke="black" points="665.78,-1285.91 655.49,-1289.68 662.01,-1285.64 655.81,-1285.2 655.81,-1285.2 655.81,-1285.2 662.01,-1285.64 656.13,-1280.71 665.78,-1285.91"/>
</g>
<!-- dependency616&#45;&gt;choice10010111845106971189747116111109999711645115101114118108101116459711210545494846484653 -->
<g id="edge30" class="edge">
<title>dependency616:e&#45;&gt;choice10010111845106971189747116111109999711645115101114118108101116459711210545494846484653:w</title>
<path fill="none" stroke="black" stroke-dasharray="1,5" d="M931,-73C956.12,-73 947.6,-111.59 930,-129.5 905.66,-154.27 639.83,-120.99 618,-148 567.01,-211.08 581.37,-805.63 618,-878 628.39,-898.53 637.02,-910.2 656.04,-913.21"/>
<polygon fill="black" stroke="black" points="665.78,-913.91 655.49,-917.68 662.01,-913.64 655.81,-913.2 655.81,-913.2 655.81,-913.2 662.01,-913.64 656.13,-908.71 665.78,-913.91"/>
</g>
<!-- dependency616&#45;&gt;choice10010111845106971189747116111109999711645115101114118108101116459711210545494846484654 -->
<g id="edge31" class="edge">
<title>dependency616:e&#45;&gt;choice10010111845106971189747116111109999711645115101114118108101116459711210545494846484654:w</title>
<path fill="none" stroke="black" stroke-dasharray="1,5" d="M931,-73C956.12,-73 947.6,-111.59 930,-129.5 905.66,-154.27 639.83,-120.99 618,-148 570.78,-206.41 584.08,-756.99 618,-824 628.39,-844.53 637.02,-856.2 656.04,-859.21"/>
<polygon fill="black" stroke="black" points="665.78,-859.91 655.49,-863.68 662.01,-859.64 655.81,-859.2 655.81,-859.2 655.81,-859.2 662.01,-859.64 656.13,-854.71 665.78,-859.91"/>
</g>
<!-- dependency616&#45;&gt;choice10010111845106971189747116111109999711645115101114118108101116459711210545524649465248 -->
<g id="edge32" class="edge">
<title>dependency616:e&#45;&gt;choice10010111845106971189747116111109999711645115101114118108101116459711210545524649465248:w</title>
<path fill="none" stroke="black" stroke-dasharray="1,5" d="M931,-73C956.12,-73 947.6,-111.59 930,-129.5 905.66,-154.27 639.83,-120.99 618,-148 574.55,-201.75 586.79,-708.34 618,-770 628.39,-790.53 637.02,-802.2 656.04,-805.21"/>
<polygon fill="black" stroke="black" points="665.78,-805.91 655.49,-809.68 662.01,-805.64 655.81,-805.2 655.81,-805.2 655.81,-805.2 662.01,-805.64 656.13,-800.71 665.78,-805.91"/>
</g>
<!-- dependency616&#45;&gt;choice10010111845106971189747116111109999711645115101114118108101116459711210545534653465154 -->
<g id="edge33" class="edge">
<title>dependency616:e&#45;&gt;choice10010111845106971189747116111109999711645115101114118108101116459711210545534653465154:w</title>
<path fill="none" stroke="black" stroke-dasharray="1,5" d="M931,-73C956.12,-73 947.6,-111.59 930,-129.5 905.66,-154.27 639.83,-120.99 618,-148 578.32,-197.08 589.5,-659.69 618,-716 628.39,-736.53 637.02,-748.2 656.04,-751.21"/>
<polygon fill="black" stroke="black" points="665.78,-751.91 655.49,-755.68 662.01,-751.64 655.81,-751.2 655.81,-751.2 655.81,-751.2 662.01,-751.64 656.13,-746.71 665.78,-751.91"/>
</g>
<!-- dependency616&#45;&gt;choice100101118451069711897471161111099997116451151011141181081011164597112105455446484653514511449 -->
<g id="edge34" class="edge">
<title>dependency616:e&#45;&gt;choice100101118451069711897471161111099997116451151011141181081011164597112105455446484653514511449:w</title>
<path fill="none" stroke="black" stroke-dasharray="1,5" d="M931,-73C956.12,-73 947.6,-111.59 930,-129.5 905.66,-154.27 639.83,-120.99 618,-148 582.1,-192.41 592.21,-611.04 618,-662 628.39,-682.53 637.02,-694.2 656.04,-697.21"/>
<polygon fill="black" stroke="black" points="665.78,-697.91 655.49,-701.68 662.01,-697.64 655.81,-697.2 655.81,-697.2 655.81,-697.2 662.01,-697.64 656.13,-692.71 665.78,-697.91"/>
</g>
<!-- dependency616&#45;&gt;choice1001011184510697118974711611110999971164511510111411810810111645971121054555464846494857 -->
<g id="edge35" class="edge">
<title>dependency616:e&#45;&gt;choice1001011184510697118974711611110999971164511510111411810810111645971121054555464846494857:w</title>
<path fill="none" stroke="black" stroke-dasharray="1,5" d="M931,-73C956.12,-73 947.6,-111.59 930,-129.5 905.66,-154.27 639.83,-120.99 618,-148 553.74,-227.49 571.83,-516.8 618,-608 628.39,-628.53 637.02,-640.2 656.04,-643.21"/>
<polygon fill="black" stroke="black" points="665.78,-643.91 655.49,-647.68 662.01,-643.64 655.81,-643.2 655.81,-643.2 655.81,-643.2 662.01,-643.64 656.13,-638.71 665.78,-643.91"/>
</g>
<!-- dependency616&#45;&gt;choice10010111845106971189747116111109999711645115101114118108101116459711210545564653465453 -->
<g id="edge36" class="edge">
<title>dependency616:e&#45;&gt;choice10010111845106971189747116111109999711645115101114118108101116459711210545564653465453:w</title>
<path fill="none" stroke="black" stroke-dasharray="1,5" d="M931,-73C956.12,-73 947.6,-111.59 930,-129.5 905.66,-154.27 639.83,-120.99 618,-148 561.28,-218.16 577.25,-473.5 618,-554 628.39,-574.53 637.02,-586.2 656.04,-589.21"/>
<polygon fill="black" stroke="black" points="665.78,-589.91 655.49,-593.68 662.01,-589.64 655.81,-589.2 655.81,-589.2 655.81,-589.2 662.01,-589.64 656.13,-584.71 665.78,-589.91"/>
</g>
<!-- dependency616&#45;&gt;choice10010111845106971189747116111109999711645115101114118108101116459711210545564653465454 -->
<g id="edge37" class="edge">
<title>dependency616:e&#45;&gt;choice10010111845106971189747116111109999711645115101114118108101116459711210545564653465454:w</title>
<path fill="none" stroke="black" stroke-dasharray="1,5" d="M931,-73C956.12,-73 947.6,-111.59 930,-129.5 905.66,-154.27 639.83,-120.99 618,-148 568.82,-208.83 582.67,-430.21 618,-500 628.39,-520.53 637.02,-532.2 656.04,-535.21"/>
<polygon fill="black" stroke="black" points="665.78,-535.91 655.49,-539.68 662.01,-535.64 655.81,-535.2 655.81,-535.2 655.81,-535.2 662.01,-535.64 656.13,-530.71 665.78,-535.91"/>
</g>
<!-- dependency616&#45;&gt;choice10010111845106971189747116111109999711645115101114118108101116459711210545574648465253 -->
<g id="edge38" class="edge">
<title>dependency616:e&#45;&gt;choice10010111845106971189747116111109999711645115101114118108101116459711210545574648465253:w</title>
<path fill="none" stroke="black" stroke-dasharray="1,5" d="M931,-73C956.12,-73 947.6,-111.59 930,-129.5 905.66,-154.27 639.83,-120.99 618,-148 576.37,-199.5 588.09,-386.92 618,-446 628.39,-466.53 637.02,-478.2 656.04,-481.21"/>
<polygon fill="black" stroke="black" points="665.78,-481.91 655.49,-485.68 662.01,-481.64 655.81,-481.2 655.81,-481.2 655.81,-481.2 662.01,-481.64 656.13,-476.71 665.78,-481.91"/>
</g>
<!-- dependency616&#45;&gt;choice10010111845106971189747116111109999711645115101114118108101116459711210545574648465254 -->
<g id="edge39" class="edge">
<title>dependency616:e&#45;&gt;choice10010111845106971189747116111109999711645115101114118108101116459711210545574648465254:w</title>
<path fill="none" stroke="black" stroke-dasharray="1,5" d="M931,-73C956.12,-73 947.6,-111.59 930,-129.5 905.66,-154.27 639.83,-120.99 618,-148 583.91,-190.17 593.51,-343.62 618,-392 628.39,-412.53 637.02,-424.2 656.04,-427.21"/>
<polygon fill="black" stroke="black" points="665.78,-427.91 655.49,-431.68 662.01,-427.64 655.81,-427.2 655.81,-427.2 655.81,-427.2 662.01,-427.64 656.13,-422.71 665.78,-427.91"/>
</g>
</g>
</svg>
