<?xml version="1.0" encoding="UTF-8" standalone="no"?>
<!DOCTYPE svg PUBLIC "-//W3C//DTD SVG 1.1//EN"
 "http://www.w3.org/Graphics/SVG/1.1/DTD/svg11.dtd">
<!-- Generated by graphviz version 2.44.1 (20200629.0846)
 -->
<!-- Title: prolog Pages: 1 -->
<svg width="1344pt" height="500pt"
 viewBox="0.00 0.00 1344.00 500.00" xmlns="http://www.w3.org/2000/svg" xmlns:xlink="http://www.w3.org/1999/xlink">
<g id="graph0" class="graph" transform="scale(1 1) rotate(0) translate(4 496)">
<title>prolog</title>
<polygon fill="white" stroke="transparent" points="-4,4 -4,-496 1340,-496 1340,4 -4,4"/>
<g id="clust1" class="cluster">
<title>cluster_leftcol</title>
<polygon fill="none" stroke="gray" points="8,-219 8,-291 312,-291 312,-219 8,-219"/>
<text text-anchor="start" x="146.66" y="-279" font-family="Helvetica,sans-Serif" font-style="italic" font-size="10.00">ebuild</text>
</g>
<g id="clust2" class="cluster">
<title>cluster_midcol</title>
<polygon fill="none" stroke="gray" points="396,-8 396,-484 940,-484 940,-8 396,-8"/>
<text text-anchor="start" x="636.88" y="-472" font-family="Helvetica,sans-Serif" font-style="italic" font-size="10.00">dependencies</text>
</g>
<g id="clust3" class="cluster">
<title>cluster_compile</title>
<polygon fill="#eeeeee" stroke="gray" points="404,-178 404,-456 932,-456 932,-178 404,-178"/>
<text text-anchor="start" x="650.78" y="-444" font-family="Helvetica,sans-Serif" font-style="italic" font-size="10.00">compile</text>
</g>
<g id="clust9" class="cluster">
<title>cluster_run</title>
<polygon fill="#eeeeee" stroke="gray" points="413,-16 413,-170 932,-170 932,-16 413,-16"/>
<text text-anchor="start" x="665.28" y="-158" font-family="Helvetica,sans-Serif" font-style="italic" font-size="10.00">run</text>
</g>
<g id="clust12" class="cluster">
<title>cluster_choices</title>
<polygon fill="none" stroke="gray" points="1024,-165 1024,-345 1328,-345 1328,-165 1024,-165"/>
<text text-anchor="start" x="1151.82" y="-333" font-family="Helvetica,sans-Serif" font-style="italic" font-size="10.00">candidates</text>
</g>
<!-- id -->
<g id="node1" class="node">
<title>id</title>
<g id="a_node1"><a xlink:href="../media-libs/flac-1.3.3.svg" xlink:title="portage://media&#45;libs/flac&#45;1.3.3">
<ellipse fill="none" stroke="red" cx="160" cy="-245" rx="144" ry="18"/>
<text text-anchor="middle" x="160" y="-242" font-family="Helvetica,sans-Serif" font-size="10.00">portage://media&#45;libs/flac&#45;1.3.3</text>
</a>
</g>
</g>
<!-- dependency215066 -->
<g id="node2" class="node">
<title>dependency215066</title>
<polygon fill="none" stroke="red" points="420,-323 420,-367 511,-367 511,-323 420,-323"/>
<text text-anchor="start" x="430.77" y="-342" font-family="Helvetica,sans-Serif" font-size="10.00">use_conditional</text>
<polygon fill="none" stroke="red" points="511,-345 511,-367 572,-367 572,-345 511,-345"/>
<text text-anchor="start" x="524.55" y="-353" font-family="Helvetica,sans-Serif" font-size="10.00">positive</text>
<polygon fill="none" stroke="red" points="511,-323 511,-345 572,-345 572,-323 511,-323"/>
<text text-anchor="start" x="515.65" y="-331" font-family="Helvetica,sans-Serif" font-size="10.00">abi_x86_32</text>
</g>
<!-- id&#45;&gt;dependency215066 -->
<g id="edge2" class="edge">
<title>id:e&#45;&gt;dependency215066:w</title>
<path fill="none" stroke="black" d="M305,-245C366.1,-245 348.62,-333.99 400.81,-344.07"/>
<polygon fill="black" stroke="black" points="411,-345 400.63,-348.58 406.02,-344.55 401.04,-344.09 401.04,-344.09 401.04,-344.09 406.02,-344.55 401.45,-339.61 411,-345 411,-345"/>
</g>
<!-- dependency215068 -->
<g id="node4" class="node">
<title>dependency215068</title>
<polygon fill="none" stroke="red" points="429,-223 429,-267 520,-267 520,-223 429,-223"/>
<text text-anchor="start" x="439.77" y="-242" font-family="Helvetica,sans-Serif" font-size="10.00">use_conditional</text>
<polygon fill="none" stroke="red" points="520,-245 520,-267 563,-267 563,-245 520,-245"/>
<text text-anchor="start" x="524.55" y="-253" font-family="Helvetica,sans-Serif" font-size="10.00">positive</text>
<polygon fill="none" stroke="red" points="520,-223 520,-245 563,-245 563,-223 520,-223"/>
<text text-anchor="start" x="533.16" y="-231" font-family="Helvetica,sans-Serif" font-size="10.00">ogg</text>
</g>
<!-- id&#45;&gt;dependency215068 -->
<g id="edge4" class="edge">
<title>id:e&#45;&gt;dependency215068:w</title>
<path fill="none" stroke="black" d="M305,-245C352.52,-245 366.9,-245 409.76,-245"/>
<polygon fill="black" stroke="black" points="420,-245 410,-249.5 415,-245 410,-245 410,-245 410,-245 415,-245 410,-240.5 420,-245 420,-245"/>
</g>
<!-- dependency215070 -->
<g id="node6" class="node">
<title>dependency215070</title>
<polygon fill="none" stroke="red" points="429,-78 429,-122 520,-122 520,-78 429,-78"/>
<text text-anchor="start" x="439.77" y="-97" font-family="Helvetica,sans-Serif" font-size="10.00">use_conditional</text>
<polygon fill="none" stroke="red" points="520,-100 520,-122 563,-122 563,-100 520,-100"/>
<text text-anchor="start" x="524.55" y="-108" font-family="Helvetica,sans-Serif" font-size="10.00">positive</text>
<polygon fill="none" stroke="red" points="520,-78 520,-100 563,-100 563,-78 520,-78"/>
<text text-anchor="start" x="533.16" y="-86" font-family="Helvetica,sans-Serif" font-size="10.00">ogg</text>
</g>
<!-- id&#45;&gt;dependency215070 -->
<g id="edge6" class="edge">
<title>id:e&#45;&gt;dependency215070:w</title>
<path fill="none" stroke="black" d="M305,-245C384.36,-245 341.07,-110.02 411.8,-100.53"/>
<ellipse fill="none" stroke="black" cx="416.01" cy="-100.26" rx="4" ry="4"/>
</g>
<!-- dependency215067 -->
<g id="node3" class="node">
<title>dependency215067</title>
<polygon fill="none" stroke="blue" points="696,-326 696,-424 801,-424 801,-326 696,-326"/>
<text text-anchor="start" x="726.82" y="-372" font-family="Helvetica,sans-Serif" font-size="10.00">pack_dep</text>
<polygon fill="none" stroke="blue" points="801,-402 801,-424 911,-424 911,-402 801,-402"/>
<text text-anchor="start" x="850.44" y="-410" font-family="Helvetica,sans-Serif" font-size="10.00">no</text>
<polygon fill="none" stroke="blue" points="801,-380 801,-402 911,-402 911,-380 801,-380"/>
<text text-anchor="start" x="836.83" y="-388" font-family="Helvetica,sans-Serif" font-size="10.00">dev&#45;lang</text>
<polygon fill="none" stroke="blue" points="801,-358 801,-380 911,-380 911,-358 801,-358"/>
<text text-anchor="start" x="843.78" y="-366" font-family="Helvetica,sans-Serif" font-size="10.00">nasm</text>
<polygon fill="none" stroke="blue" points="801,-336 801,-358 911,-358 911,-336 801,-336"/>
<text text-anchor="start" x="844.88" y="-344" font-family="Helvetica,sans-Serif" font-size="10.00">none</text>
<polygon fill="none" stroke="blue" points="801,-326 801,-336 911,-336 911,-326 801,-326"/>
</g>
<!-- dependency215066&#45;&gt;dependency215067 -->
<g id="edge1" class="edge">
<title>dependency215066:e&#45;&gt;dependency215067:w</title>
<path fill="none" stroke="black" stroke-dasharray="5,2" d="M580,-345C626.22,-345 636.76,-370.82 677.82,-374.55"/>
<polygon fill="black" stroke="black" points="688,-375 677.81,-379.06 683,-374.78 678.01,-374.56 678.01,-374.56 678.01,-374.56 683,-374.78 678.21,-370.07 688,-375 688,-375"/>
</g>
<!-- choice100101118451089711010347110971151094550464952464850 -->
<g id="node8" class="node">
<title>choice100101118451089711010347110971151094550464952464850</title>
<g id="a_node8"><a xlink:href="../dev-lang/nasm-2.14.02.svg" xlink:title="portage://dev&#45;lang/nasm&#45;2.14.02">
<ellipse fill="none" stroke="red" cx="1176" cy="-299" rx="144" ry="18"/>
<text text-anchor="middle" x="1176" y="-296" font-family="Helvetica,sans-Serif" font-size="10.00">portage://dev&#45;lang/nasm&#45;2.14.02</text>
</a>
</g>
</g>
<!-- dependency215067&#45;&gt;choice100101118451089711010347110971151094550464952464850 -->
<g id="edge7" class="edge">
<title>dependency215067:e&#45;&gt;choice100101118451089711010347110971151094550464952464850:w</title>
<path fill="none" stroke="black" stroke-dasharray="1,5" d="M925,-375C979.35,-375 974.01,-308.2 1020.89,-299.85"/>
<polygon fill="black" stroke="black" points="1031,-299 1021.41,-304.33 1026.02,-299.42 1021.04,-299.84 1021.04,-299.84 1021.04,-299.84 1026.02,-299.42 1020.66,-295.36 1031,-299 1031,-299"/>
</g>
<!-- dependency215069 -->
<g id="node5" class="node">
<title>dependency215069</title>
<polygon fill="none" stroke="blue" points="696,-190 696,-300 801,-300 801,-190 696,-190"/>
<text text-anchor="start" x="726.82" y="-242" font-family="Helvetica,sans-Serif" font-size="10.00">pack_dep</text>
<polygon fill="none" stroke="blue" points="801,-278 801,-300 911,-300 911,-278 801,-278"/>
<text text-anchor="start" x="850.44" y="-286" font-family="Helvetica,sans-Serif" font-size="10.00">no</text>
<polygon fill="none" stroke="blue" points="801,-256 801,-278 911,-278 911,-256 801,-256"/>
<text text-anchor="start" x="833.22" y="-264" font-family="Helvetica,sans-Serif" font-size="10.00">media&#45;libs</text>
<polygon fill="none" stroke="blue" points="801,-234 801,-256 911,-256 911,-234 801,-234"/>
<text text-anchor="start" x="842.66" y="-242" font-family="Helvetica,sans-Serif" font-size="10.00">libogg</text>
<polygon fill="none" stroke="blue" points="801,-212 801,-234 911,-234 911,-212 801,-212"/>
<text text-anchor="start" x="827.94" y="-220" font-family="Helvetica,sans-Serif" font-size="10.00">greaterequal</text>
<polygon fill="none" stroke="blue" points="801,-190 801,-212 911,-212 911,-190 801,-190"/>
<text text-anchor="start" x="844.88" y="-198" font-family="Helvetica,sans-Serif" font-size="10.00">1.3.0</text>
</g>
<!-- dependency215068&#45;&gt;dependency215069 -->
<g id="edge3" class="edge">
<title>dependency215068:e&#45;&gt;dependency215069:w</title>
<path fill="none" stroke="black" stroke-dasharray="5,2" d="M572,-245C620.03,-245 634.5,-245 677.94,-245"/>
<polygon fill="black" stroke="black" points="688,-245 678,-249.5 683,-245 678,-245 678,-245 678,-245 683,-245 678,-240.5 688,-245 688,-245"/>
</g>
<!-- choice1091011001059745108105981154710810598111103103454946514652 -->
<g id="node9" class="node">
<title>choice1091011001059745108105981154710810598111103103454946514652</title>
<g id="a_node9"><a xlink:href="../media-libs/libogg-1.3.4.svg" xlink:title="portage://media&#45;libs/libogg&#45;1.3.4">
<ellipse fill="none" stroke="red" cx="1176" cy="-245" rx="144" ry="18"/>
<text text-anchor="middle" x="1176" y="-242" font-family="Helvetica,sans-Serif" font-size="10.00">portage://media&#45;libs/libogg&#45;1.3.4</text>
</a>
</g>
</g>
<!-- dependency215069&#45;&gt;choice1091011001059745108105981154710810598111103103454946514652 -->
<g id="edge8" class="edge">
<title>dependency215069:e&#45;&gt;choice1091011001059745108105981154710810598111103103454946514652:w</title>
<path fill="none" stroke="black" stroke-dasharray="1,5" d="M925,-245C968.43,-245 981.83,-245 1020.57,-245"/>
<polygon fill="black" stroke="black" points="1031,-245 1021,-249.5 1026,-245 1021,-245 1021,-245 1021,-245 1026,-245 1021,-240.5 1031,-245 1031,-245"/>
</g>
<!-- choice1091011001059745108105981154710810598111103103454946514651 -->
<g id="node10" class="node">
<title>choice1091011001059745108105981154710810598111103103454946514651</title>
<g id="a_node10"><a xlink:href="../media-libs/libogg-1.3.3.svg" xlink:title="portage://media&#45;libs/libogg&#45;1.3.3">
<ellipse fill="none" stroke="red" cx="1176" cy="-191" rx="144" ry="18"/>
<text text-anchor="middle" x="1176" y="-188" font-family="Helvetica,sans-Serif" font-size="10.00">portage://media&#45;libs/libogg&#45;1.3.3</text>
</a>
</g>
</g>
<!-- dependency215069&#45;&gt;choice1091011001059745108105981154710810598111103103454946514651 -->
<g id="edge9" class="edge">
<title>dependency215069:e&#45;&gt;choice1091011001059745108105981154710810598111103103454946514651:w</title>
<path fill="none" stroke="black" stroke-dasharray="1,5" d="M925,-245C974.26,-245 977.85,-198.13 1020.86,-191.72"/>
<polygon fill="black" stroke="black" points="1031,-191 1021.35,-196.2 1026.01,-191.36 1021.03,-191.71 1021.03,-191.71 1021.03,-191.71 1026.01,-191.36 1020.71,-187.22 1031,-191 1031,-191"/>
</g>
<!-- dependency215071 -->
<g id="node7" class="node">
<title>dependency215071</title>
<polygon fill="none" stroke="blue" points="696,-28 696,-138 801,-138 801,-28 696,-28"/>
<text text-anchor="start" x="726.82" y="-80" font-family="Helvetica,sans-Serif" font-size="10.00">pack_dep</text>
<polygon fill="none" stroke="blue" points="801,-116 801,-138 911,-138 911,-116 801,-116"/>
<text text-anchor="start" x="850.44" y="-124" font-family="Helvetica,sans-Serif" font-size="10.00">no</text>
<polygon fill="none" stroke="blue" points="801,-94 801,-116 911,-116 911,-94 801,-94"/>
<text text-anchor="start" x="833.22" y="-102" font-family="Helvetica,sans-Serif" font-size="10.00">media&#45;libs</text>
<polygon fill="none" stroke="blue" points="801,-72 801,-94 911,-94 911,-72 801,-72"/>
<text text-anchor="start" x="842.66" y="-80" font-family="Helvetica,sans-Serif" font-size="10.00">libogg</text>
<polygon fill="none" stroke="blue" points="801,-50 801,-72 911,-72 911,-50 801,-50"/>
<text text-anchor="start" x="827.94" y="-58" font-family="Helvetica,sans-Serif" font-size="10.00">greaterequal</text>
<polygon fill="none" stroke="blue" points="801,-28 801,-50 911,-50 911,-28 801,-28"/>
<text text-anchor="start" x="844.88" y="-36" font-family="Helvetica,sans-Serif" font-size="10.00">1.3.0</text>
</g>
<!-- dependency215070&#45;&gt;dependency215071 -->
<g id="edge5" class="edge">
<title>dependency215070:e&#45;&gt;dependency215071:w</title>
<path fill="none" stroke="black" stroke-dasharray="5,2" d="M572,-100C620.54,-100 634.09,-85.24 677.85,-83.23"/>
<polygon fill="black" stroke="black" points="688,-83 678.1,-87.72 683,-83.11 678,-83.22 678,-83.22 678,-83.22 683,-83.11 677.9,-78.73 688,-83 688,-83"/>
</g>
<!-- dependency215071&#45;&gt;choice1091011001059745108105981154710810598111103103454946514652 -->
<g id="edge10" class="edge">
<title>dependency215071:e&#45;&gt;choice1091011001059745108105981154710810598111103103454946514652:w</title>
<path fill="none" stroke="black" stroke-dasharray="1,5" d="M925,-83C1007.35,-83 950.36,-231.38 1020.73,-244.13"/>
<polygon fill="black" stroke="black" points="1031,-245 1020.66,-248.64 1026.02,-244.58 1021.04,-244.15 1021.04,-244.15 1021.04,-244.15 1026.02,-244.58 1021.42,-239.67 1031,-245 1031,-245"/>
</g>
<!-- dependency215071&#45;&gt;choice1091011001059745108105981154710810598111103103454946514651 -->
<g id="edge11" class="edge">
<title>dependency215071:e&#45;&gt;choice1091011001059745108105981154710810598111103103454946514651:w</title>
<path fill="none" stroke="black" stroke-dasharray="1,5" d="M925,-83C988.58,-83 966.58,-179.51 1020.79,-190.07"/>
<polygon fill="black" stroke="black" points="1031,-191 1020.63,-194.57 1026.02,-190.54 1021.04,-190.09 1021.04,-190.09 1021.04,-190.09 1026.02,-190.54 1021.45,-185.61 1031,-191 1031,-191"/>
</g>
</g>
</svg>
