<?xml version="1.0" encoding="UTF-8" standalone="no"?>
<!DOCTYPE svg PUBLIC "-//W3C//DTD SVG 1.1//EN"
 "http://www.w3.org/Graphics/SVG/1.1/DTD/svg11.dtd">
<!-- Generated by graphviz version 12.2.1 (20241206.2353)
 -->
<!-- Title: prolog Pages: 1 -->
<svg width="1442pt" height="660pt"
 viewBox="0.00 0.00 1442.25 659.75" xmlns="http://www.w3.org/2000/svg" xmlns:xlink="http://www.w3.org/1999/xlink">
<g id="graph0" class="graph" transform="scale(1 1) rotate(0) translate(4 655.75)">
<title>prolog</title>
<polygon fill="white" stroke="none" points="-4,4 -4,-655.75 1438.25,-655.75 1438.25,4 -4,4"/>
<polygon fill="none" stroke="black" points="8,-622.5 8,-647.75 171.5,-647.75 171.5,-622.5 8,-622.5"/>
<text text-anchor="start" x="65.38" y="-632.25" font-family="Helvetica,sans-Serif" font-weight="bold" font-size="10.00">navigation</text>
<polygon fill="none" stroke="black" points="201.5,-622.5 201.5,-647.75 532.75,-647.75 532.75,-622.5 201.5,-622.5"/>
<text text-anchor="start" x="324" y="-632.25" font-family="Helvetica,sans-Serif" font-weight="bold" font-size="10.00">dependency graph</text>
<polygon fill="none" stroke="black" points="562.75,-622.5 562.75,-647.75 771.75,-647.75 771.75,-622.5 562.75,-622.5"/>
<text text-anchor="start" x="632" y="-632.25" font-family="Helvetica,sans-Serif" font-weight="bold" font-size="10.00">version control</text>
<polygon fill="none" stroke="black" points="801.75,-622.5 801.75,-647.75 953.25,-647.75 953.25,-622.5 801.75,-622.5"/>
<text text-anchor="start" x="844.12" y="-632.25" font-family="Helvetica,sans-Serif" font-weight="bold" font-size="10.00">command line</text>
<polygon fill="none" stroke="black" points="983.25,-622.5 983.25,-647.75 1029.5,-647.75 1029.5,-622.5 983.25,-622.5"/>
<text text-anchor="start" x="991.38" y="-632.25" font-family="Helvetica,sans-Serif" font-weight="bold" font-size="10.00">legacy</text>
<g id="a_graph0_0"><a xlink:href="../index.html" xlink:title="repository">
<polygon fill="none" stroke="black" points="8,-597.25 8,-622.5 54.25,-622.5 54.25,-597.25 8,-597.25"/>
<text text-anchor="start" x="15" y="-606" font-family="Helvetica,sans-Serif" font-size="10.00" fill="blue">portage</text>
</a>
</g>
<g id="a_graph0_1"><a xlink:href="./index.html" xlink:title="repository">
<polygon fill="none" stroke="black" points="54.25,-597.25 54.25,-622.5 112.5,-622.5 112.5,-597.25 54.25,-597.25"/>
<text text-anchor="start" x="61.25" y="-606" font-family="Helvetica,sans-Serif" font-size="10.00" fill="blue">media&#45;libs</text>
</a>
</g>
<g id="a_graph0_2"><a xlink:href="./ksanecore.html" xlink:title="repository">
<polygon fill="none" stroke="black" points="112.5,-597.25 112.5,-622.5 171.5,-622.5 171.5,-597.25 112.5,-597.25"/>
<text text-anchor="start" x="119.5" y="-606" font-family="Helvetica,sans-Serif" font-size="10.00" fill="blue">ksanecore</text>
</a>
</g>
<g id="a_graph0_3"><a xlink:href="../media-libs/ksanecore-25.08.3.svg" xlink:title="portage://media&#45;libs/ksanecore&#45;25.08.3">
<polygon fill="none" stroke="black" points="201.5,-597.25 201.5,-622.5 238.75,-622.5 238.75,-597.25 201.5,-597.25"/>
<text text-anchor="start" x="208.5" y="-606" font-family="Helvetica,sans-Serif" font-size="10.00" fill="blue">detail</text>
</a>
</g>
<g id="a_graph0_4"><a xlink:href="../media-libs/ksanecore-25.08.3-bdepend.svg" xlink:title="portage://media&#45;libs/ksanecore&#45;25.08.3">
<polygon fill="none" stroke="black" points="238.75,-597.25 238.75,-622.5 289.5,-622.5 289.5,-597.25 238.75,-597.25"/>
<text text-anchor="start" x="245.75" y="-606" font-family="Helvetica,sans-Serif" font-size="10.00" fill="blue">bdepend</text>
</a>
</g>
<g id="a_graph0_5"><a xlink:href="../media-libs/ksanecore-25.08.3-cdepend.svg" xlink:title="portage://media&#45;libs/ksanecore&#45;25.08.3">
<polygon fill="none" stroke="black" points="289.5,-597.25 289.5,-622.5 340.25,-622.5 340.25,-597.25 289.5,-597.25"/>
<text text-anchor="start" x="296.5" y="-606" font-family="Helvetica,sans-Serif" font-size="10.00" fill="blue">cdepend</text>
</a>
</g>
<g id="a_graph0_6"><a xlink:href="../media-libs/ksanecore-25.08.3-depend.svg" xlink:title="portage://media&#45;libs/ksanecore&#45;25.08.3">
<polygon fill="none" stroke="black" points="340.25,-597.25 340.25,-622.5 385.75,-622.5 385.75,-597.25 340.25,-597.25"/>
<text text-anchor="start" x="347.25" y="-607" font-family="Helvetica,sans-Serif" text-decoration="underline" font-size="10.00" fill="blue">depend</text>
</a>
</g>
<g id="a_graph0_7"><a xlink:href="../media-libs/ksanecore-25.08.3-idepend.svg" xlink:title="portage://media&#45;libs/ksanecore&#45;25.08.3">
<polygon fill="none" stroke="black" points="385.75,-597.25 385.75,-622.5 433.5,-622.5 433.5,-597.25 385.75,-597.25"/>
<text text-anchor="start" x="392.75" y="-606" font-family="Helvetica,sans-Serif" font-size="10.00" fill="blue">idepend</text>
</a>
</g>
<g id="a_graph0_8"><a xlink:href="../media-libs/ksanecore-25.08.3-rdepend.svg" xlink:title="portage://media&#45;libs/ksanecore&#45;25.08.3">
<polygon fill="none" stroke="black" points="433.5,-597.25 433.5,-622.5 482,-622.5 482,-597.25 433.5,-597.25"/>
<text text-anchor="start" x="440.5" y="-606" font-family="Helvetica,sans-Serif" font-size="10.00" fill="blue">rdepend</text>
</a>
</g>
<g id="a_graph0_9"><a xlink:href="../media-libs/ksanecore-25.08.3-pdepend.svg" xlink:title="portage://media&#45;libs/ksanecore&#45;25.08.3">
<polygon fill="none" stroke="black" points="482,-597.25 482,-622.5 532.75,-622.5 532.75,-597.25 482,-597.25"/>
<text text-anchor="start" x="489" y="-606" font-family="Helvetica,sans-Serif" font-size="10.00" fill="blue">pdepend</text>
</a>
</g>
<g id="a_graph0_10"><a xlink:href="../media-libs/ksanecore-25.12.0-depend.svg" xlink:title="portage://media&#45;libs/ksanecore&#45;25.12.0">
<polygon fill="none" stroke="black" points="562.75,-597.25 562.75,-622.5 623.25,-622.5 623.25,-597.25 562.75,-597.25"/>
<text text-anchor="start" x="569.75" y="-606" font-family="Helvetica,sans-Serif" font-size="10.00" fill="blue">&lt;&lt; newest</text>
</a>
</g>
<g id="a_graph0_11"><a xlink:href="../media-libs/ksanecore-25.12.0-depend.svg" xlink:title="portage://media&#45;libs/ksanecore&#45;25.12.0">
<polygon fill="none" stroke="black" points="623.25,-597.25 623.25,-622.5 672.5,-622.5 672.5,-597.25 623.25,-597.25"/>
<text text-anchor="start" x="630.25" y="-606" font-family="Helvetica,sans-Serif" font-size="10.00" fill="blue">&lt; newer</text>
</a>
</g>
<polygon fill="none" stroke="black" points="672.5,-597.25 672.5,-622.5 716.5,-622.5 716.5,-597.25 672.5,-597.25"/>
<text text-anchor="start" x="679.5" y="-606" font-family="Helvetica,sans-Serif" font-size="10.00" fill="gray">older &gt;</text>
<polygon fill="none" stroke="black" points="716.5,-597.25 716.5,-622.5 771.75,-622.5 771.75,-597.25 716.5,-597.25"/>
<text text-anchor="start" x="723.5" y="-606" font-family="Helvetica,sans-Serif" font-size="10.00" fill="gray">oldest &gt;&gt;</text>
<g id="a_graph0_12"><a xlink:href="../media-libs/ksanecore-25.08.3-merge.svg" xlink:title="portage://media&#45;libs/ksanecore&#45;25.08.3">
<polygon fill="none" stroke="black" points="801.75,-597.25 801.75,-622.5 851.75,-622.5 851.75,-597.25 801.75,-597.25"/>
<text text-anchor="start" x="808.75" y="-606" font-family="Helvetica,sans-Serif" font-size="10.00" fill="blue">&#45;&#45;merge </text>
</a>
</g>
<g id="a_graph0_13"><a xlink:href="../media-libs/ksanecore-25.08.3-fetchonly.svg" xlink:title="portage://media&#45;libs/ksanecore&#45;25.08.3">
<polygon fill="none" stroke="black" points="851.75,-597.25 851.75,-622.5 914.5,-622.5 914.5,-597.25 851.75,-597.25"/>
<text text-anchor="start" x="858.75" y="-606" font-family="Helvetica,sans-Serif" font-size="10.00" fill="blue">&#45;&#45;fetchonly </text>
</a>
</g>
<g id="a_graph0_14"><a xlink:href="../media-libs/ksanecore-25.08.3-info.svg" xlink:title="portage://media&#45;libs/ksanecore&#45;25.08.3">
<polygon fill="none" stroke="black" points="914.5,-597.25 914.5,-622.5 953.25,-622.5 953.25,-597.25 914.5,-597.25"/>
<text text-anchor="start" x="921.5" y="-606" font-family="Helvetica,sans-Serif" font-size="10.00" fill="blue">&#45;&#45;info </text>
</a>
</g>
<g id="a_graph0_15"><a xlink:href="../media-libs/ksanecore-25.08.3-emerge.svg" xlink:title="portage://media&#45;libs/ksanecore&#45;25.08.3">
<polygon fill="none" stroke="black" points="983.25,-597.25 983.25,-622.5 1029.5,-622.5 1029.5,-597.25 983.25,-597.25"/>
<text text-anchor="start" x="990.25" y="-606" font-family="Helvetica,sans-Serif" font-size="10.00" fill="blue">emerge</text>
</a>
</g>
<!-- root -->
<!-- portage://media&#45;libs/ksanecore&#45;25.08.3 -->
<g id="node2" class="node">
<title>portage://media&#45;libs/ksanecore&#45;25.08.3</title>
<g id="a_node2"><a xlink:href="../media-libs/ksanecore-25.08.3-depend.svg" xlink:title="portage://media&#45;libs/ksanecore&#45;25.08.3">
<ellipse fill="none" stroke="red" stroke-width="2" cx="774.57" cy="-558" rx="115.08" ry="18"/>
<text text-anchor="middle" x="774.57" y="-554.12" font-family="Helvetica,sans-Serif" font-weight="bold" font-size="10.00">portage://media&#45;libs/ksanecore&#45;25.08.3</text>
</a>
</g>
</g>
<!-- root&#45;&gt;portage://media&#45;libs/ksanecore&#45;25.08.3 -->
<!-- portage://dev&#45;qt/qtbase&#45;6.9999 -->
<g id="node3" class="node">
<title>portage://dev&#45;qt/qtbase&#45;6.9999</title>
<g id="a_node3"><a xlink:href="../dev-qt/qtbase-6.9999-depend.svg" xlink:title="portage://dev&#45;qt/qtbase&#45;6.9999">
<ellipse fill="none" stroke="red" cx="603.57" cy="-234" rx="88.01" ry="18"/>
<text text-anchor="middle" x="603.57" y="-230.12" font-family="Helvetica,sans-Serif" font-size="10.00">portage://dev&#45;qt/qtbase&#45;6.9999</text>
</a>
</g>
</g>
<!-- portage://media&#45;libs/ksanecore&#45;25.08.3&#45;&gt;portage://dev&#45;qt/qtbase&#45;6.9999 -->
<g id="edge2" class="edge">
<title>portage://media&#45;libs/ksanecore&#45;25.08.3&#45;&gt;portage://dev&#45;qt/qtbase&#45;6.9999</title>
<path fill="none" stroke="black" d="M743.92,-539.9C695.27,-510.64 602.79,-445.7 572.57,-360 560.36,-325.4 576.54,-283.8 589.73,-258.39"/>
<polygon fill="black" stroke="black" points="592.42,-253.36 591.97,-259.93 591.58,-254.93 589.59,-258.65 589.59,-258.65 589.59,-258.65 591.58,-254.93 587.21,-257.37 592.42,-253.36"/>
</g>
<!-- portage://kde&#45;frameworks/ki18n&#45;6.21.0 -->
<g id="node4" class="node">
<title>portage://kde&#45;frameworks/ki18n&#45;6.21.0</title>
<g id="a_node4"><a xlink:href="../kde-frameworks/ki18n-6.21.0-depend.svg" xlink:title="portage://kde&#45;frameworks/ki18n&#45;6.21.0">
<ellipse fill="none" stroke="red" cx="774.57" cy="-450" rx="108.43" ry="18"/>
<text text-anchor="middle" x="774.57" y="-446.12" font-family="Helvetica,sans-Serif" font-size="10.00">portage://kde&#45;frameworks/ki18n&#45;6.21.0</text>
</a>
</g>
</g>
<!-- portage://media&#45;libs/ksanecore&#45;25.08.3&#45;&gt;portage://kde&#45;frameworks/ki18n&#45;6.21.0 -->
<g id="edge3" class="edge">
<title>portage://media&#45;libs/ksanecore&#45;25.08.3&#45;&gt;portage://kde&#45;frameworks/ki18n&#45;6.21.0</title>
<path fill="none" stroke="black" d="M774.57,-539.02C774.57,-521.53 774.57,-494.82 774.57,-475.41"/>
<polygon fill="black" stroke="black" points="774.57,-469.58 777.27,-475.58 774.57,-471.36 774.57,-475.58 774.57,-475.58 774.57,-475.58 774.57,-471.36 771.87,-475.58 774.57,-469.58"/>
</g>
<!-- portage://media&#45;gfx/sane&#45;backends&#45;1.3.1&#45;r2 -->
<g id="node5" class="node">
<title>portage://media&#45;gfx/sane&#45;backends&#45;1.3.1&#45;r2</title>
<g id="a_node5"><a xlink:href="../media-gfx/sane-backends-1.3.1-r2-depend.svg" xlink:title="portage://media&#45;gfx/sane&#45;backends&#45;1.3.1&#45;r2">
<ellipse fill="none" stroke="red" cx="1070.57" cy="-450" rx="121.3" ry="18"/>
<text text-anchor="middle" x="1070.57" y="-446.12" font-family="Helvetica,sans-Serif" font-size="10.00">portage://media&#45;gfx/sane&#45;backends&#45;1.3.1&#45;r2</text>
</a>
</g>
</g>
<!-- portage://media&#45;libs/ksanecore&#45;25.08.3&#45;&gt;portage://media&#45;gfx/sane&#45;backends&#45;1.3.1&#45;r2 -->
<g id="edge4" class="edge">
<title>portage://media&#45;libs/ksanecore&#45;25.08.3&#45;&gt;portage://media&#45;gfx/sane&#45;backends&#45;1.3.1&#45;r2</title>
<path fill="none" stroke="black" d="M820.49,-540.55C874.17,-521.33 962.77,-489.6 1018.83,-469.53"/>
<polygon fill="black" stroke="black" points="1024.36,-467.55 1019.62,-472.11 1022.68,-468.15 1018.71,-469.57 1018.71,-469.57 1018.71,-469.57 1022.68,-468.15 1017.8,-467.03 1024.36,-467.55"/>
</g>
<!-- portage://virtual/zlib&#45;1.3.1&#45;r1 -->
<g id="node6" class="node">
<title>portage://virtual/zlib&#45;1.3.1&#45;r1</title>
<g id="a_node6"><a xlink:href="../virtual/zlib-1.3.1-r1-depend.svg" xlink:title="portage://virtual/zlib&#45;1.3.1&#45;r1">
<ellipse fill="none" stroke="red" cx="689.57" cy="-18" rx="81.36" ry="18"/>
<text text-anchor="middle" x="689.57" y="-14.12" font-family="Helvetica,sans-Serif" font-size="10.00">portage://virtual/zlib&#45;1.3.1&#45;r1</text>
</a>
</g>
</g>
<!-- portage://dev&#45;qt/qtbase&#45;6.9999&#45;&gt;portage://virtual/zlib&#45;1.3.1&#45;r1 -->
<g id="edge6" class="edge">
<title>portage://dev&#45;qt/qtbase&#45;6.9999&#45;&gt;portage://virtual/zlib&#45;1.3.1&#45;r1</title>
<path fill="none" stroke="black" d="M646.16,-217.81C677.96,-203.96 719.13,-180.09 738.57,-144 757.06,-109.66 730.44,-66.8 709.78,-41.23"/>
<polygon fill="black" stroke="black" points="705.99,-36.68 711.91,-39.57 707.13,-38.05 709.83,-41.29 709.83,-41.29 709.83,-41.29 707.13,-38.05 707.75,-43.02 705.99,-36.68"/>
</g>
<!-- portage://app&#45;crypt/libb2&#45;0.98.1&#45;r3 -->
<g id="node7" class="node">
<title>portage://app&#45;crypt/libb2&#45;0.98.1&#45;r3</title>
<g id="a_node7"><a xlink:href="../app-crypt/libb2-0.98.1-r3-depend.svg" xlink:title="portage://app&#45;crypt/libb2&#45;0.98.1&#45;r3">
<ellipse fill="none" stroke="red" cx="209.57" cy="-126" rx="96" ry="18"/>
<text text-anchor="middle" x="209.57" y="-122.12" font-family="Helvetica,sans-Serif" font-size="10.00">portage://app&#45;crypt/libb2&#45;0.98.1&#45;r3</text>
</a>
</g>
</g>
<!-- portage://dev&#45;qt/qtbase&#45;6.9999&#45;&gt;portage://app&#45;crypt/libb2&#45;0.98.1&#45;r3 -->
<g id="edge7" class="edge">
<title>portage://dev&#45;qt/qtbase&#45;6.9999&#45;&gt;portage://app&#45;crypt/libb2&#45;0.98.1&#45;r3</title>
<path fill="none" stroke="black" d="M551.65,-219.03C478.83,-199.44 346.66,-163.88 269.67,-143.17"/>
<polygon fill="black" stroke="black" points="264.03,-141.65 270.53,-140.6 265.75,-142.12 269.83,-143.21 269.83,-143.21 269.83,-143.21 265.75,-142.12 269.12,-145.82 264.03,-141.65"/>
</g>
<!-- portage://dev&#45;libs/double&#45;conversion&#45;3.4.0 -->
<g id="node8" class="node">
<title>portage://dev&#45;libs/double&#45;conversion&#45;3.4.0</title>
<g id="a_node8"><a xlink:href="../dev-libs/double-conversion-3.4.0-depend.svg" xlink:title="portage://dev&#45;libs/double&#45;conversion&#45;3.4.0">
<ellipse fill="none" stroke="red" cx="436.57" cy="-126" rx="116.86" ry="18"/>
<text text-anchor="middle" x="436.57" y="-122.12" font-family="Helvetica,sans-Serif" font-size="10.00">portage://dev&#45;libs/double&#45;conversion&#45;3.4.0</text>
</a>
</g>
</g>
<!-- portage://dev&#45;qt/qtbase&#45;6.9999&#45;&gt;portage://dev&#45;libs/double&#45;conversion&#45;3.4.0 -->
<g id="edge8" class="edge">
<title>portage://dev&#45;qt/qtbase&#45;6.9999&#45;&gt;portage://dev&#45;libs/double&#45;conversion&#45;3.4.0</title>
<path fill="none" stroke="black" d="M577.47,-216.44C548.19,-197.85 500.67,-167.69 469.02,-147.6"/>
<polygon fill="black" stroke="black" points="464.33,-144.62 470.85,-145.56 465.84,-145.58 469.4,-147.84 469.4,-147.84 469.4,-147.84 465.84,-145.58 467.95,-150.12 464.33,-144.62"/>
</g>
<!-- portage://dev&#45;libs/glib&#45;2.86.1 -->
<g id="node9" class="node">
<title>portage://dev&#45;libs/glib&#45;2.86.1</title>
<g id="a_node9"><a xlink:href="../dev-libs/glib-2.86.1-depend.svg" xlink:title="portage://dev&#45;libs/glib&#45;2.86.1">
<ellipse fill="none" stroke="red" cx="649.57" cy="-126" rx="82.25" ry="18"/>
<text text-anchor="middle" x="649.57" y="-122.12" font-family="Helvetica,sans-Serif" font-size="10.00">portage://dev&#45;libs/glib&#45;2.86.1</text>
</a>
</g>
</g>
<!-- portage://dev&#45;qt/qtbase&#45;6.9999&#45;&gt;portage://dev&#45;libs/glib&#45;2.86.1 -->
<g id="edge9" class="edge">
<title>portage://dev&#45;qt/qtbase&#45;6.9999&#45;&gt;portage://dev&#45;libs/glib&#45;2.86.1</title>
<path fill="none" stroke="black" d="M610.96,-215.97C618.62,-198.3 630.67,-170.54 639.27,-150.73"/>
<polygon fill="black" stroke="black" points="641.55,-145.46 641.64,-152.04 640.85,-147.09 639.17,-150.96 639.17,-150.96 639.17,-150.96 640.85,-147.09 636.69,-149.89 641.55,-145.46"/>
</g>
<!-- portage://dev&#45;libs/libpcre2&#45;10.47 -->
<g id="node10" class="node">
<title>portage://dev&#45;libs/libpcre2&#45;10.47</title>
<g id="a_node10"><a xlink:href="../dev-libs/libpcre2-10.47-depend.svg" xlink:title="portage://dev&#45;libs/libpcre2&#45;10.47">
<ellipse fill="none" stroke="red" cx="91.57" cy="-18" rx="91.57" ry="18"/>
<text text-anchor="middle" x="91.57" y="-14.12" font-family="Helvetica,sans-Serif" font-size="10.00">portage://dev&#45;libs/libpcre2&#45;10.47</text>
</a>
</g>
</g>
<!-- portage://dev&#45;qt/qtbase&#45;6.9999&#45;&gt;portage://dev&#45;libs/libpcre2&#45;10.47 -->
<g id="edge10" class="edge">
<title>portage://dev&#45;qt/qtbase&#45;6.9999&#45;&gt;portage://dev&#45;libs/libpcre2&#45;10.47</title>
<path fill="none" stroke="black" d="M517.76,-229.59C390.67,-222.63 161.47,-202.17 106.57,-144 81.22,-117.15 82.79,-71.32 86.79,-43.24"/>
<polygon fill="black" stroke="black" points="87.72,-37.36 89.45,-43.71 87.44,-39.12 86.78,-43.29 86.78,-43.29 86.78,-43.29 87.44,-39.12 84.12,-42.87 87.72,-37.36"/>
</g>
<!-- portage://kde&#45;frameworks/ki18n&#45;6.21.0&#45;&gt;portage://dev&#45;qt/qtbase&#45;6.9999 -->
<g id="edge18" class="edge">
<title>portage://kde&#45;frameworks/ki18n&#45;6.21.0&#45;&gt;portage://dev&#45;qt/qtbase&#45;6.9999</title>
<path fill="none" stroke="black" d="M783.93,-431.58C794.11,-411.03 809.01,-375.55 809.57,-343"/>
<path fill="none" stroke="black" d="M809.57,-341C810.55,-282.74 744.46,-256.48 686.89,-244.65"/>
<polygon fill="black" stroke="black" points="681.11,-243.51 687.52,-242.02 682.86,-243.86 687,-244.67 687,-244.67 687,-244.67 682.86,-243.86 686.48,-247.32 681.11,-243.51"/>
</g>
<!-- portage://virtual/libintl&#45;0&#45;r2 -->
<g id="node14" class="node">
<title>portage://virtual/libintl&#45;0&#45;r2</title>
<g id="a_node14"><a xlink:href="../virtual/libintl-0-r2-depend.svg" xlink:title="portage://virtual/libintl&#45;0&#45;r2">
<ellipse fill="none" stroke="red" cx="860.57" cy="-18" rx="76.03" ry="18"/>
<text text-anchor="middle" x="860.57" y="-14.12" font-family="Helvetica,sans-Serif" font-size="10.00">portage://virtual/libintl&#45;0&#45;r2</text>
</a>
</g>
</g>
<!-- portage://kde&#45;frameworks/ki18n&#45;6.21.0&#45;&gt;portage://virtual/libintl&#45;0&#45;r2 -->
<g id="edge21" class="edge">
<title>portage://kde&#45;frameworks/ki18n&#45;6.21.0&#45;&gt;portage://virtual/libintl&#45;0&#45;r2</title>
<path fill="none" stroke="black" d="M809.57,-341C811.18,-245.9 811.51,-222.09 809.57,-127"/>
<path fill="none" stroke="black" d="M809.57,-125C808.86,-93.97 826.97,-62.42 841.8,-41.9"/>
<polygon fill="black" stroke="black" points="845.35,-37.14 843.93,-43.57 844.29,-38.57 841.77,-41.95 841.77,-41.95 841.77,-41.95 844.29,-38.57 839.6,-40.34 845.35,-37.14"/>
</g>
<!-- portage://dev&#45;qt/qtdeclarative&#45;6.9999 -->
<g id="node15" class="node">
<title>portage://dev&#45;qt/qtdeclarative&#45;6.9999</title>
<g id="a_node15"><a xlink:href="../dev-qt/qtdeclarative-6.9999-depend.svg" xlink:title="portage://dev&#45;qt/qtdeclarative&#45;6.9999">
<ellipse fill="none" stroke="red" cx="683.57" cy="-342" rx="103.55" ry="18"/>
<text text-anchor="middle" x="683.57" y="-338.12" font-family="Helvetica,sans-Serif" font-size="10.00">portage://dev&#45;qt/qtdeclarative&#45;6.9999</text>
</a>
</g>
</g>
<!-- portage://kde&#45;frameworks/ki18n&#45;6.21.0&#45;&gt;portage://dev&#45;qt/qtdeclarative&#45;6.9999 -->
<g id="edge19" class="edge">
<title>portage://kde&#45;frameworks/ki18n&#45;6.21.0&#45;&gt;portage://dev&#45;qt/qtdeclarative&#45;6.9999</title>
<path fill="none" stroke="black" d="M759.94,-431.97C744.42,-413.89 719.82,-385.23 702.75,-365.35"/>
<polygon fill="black" stroke="black" points="698.94,-360.91 704.9,-363.71 700.1,-362.26 702.85,-365.47 702.85,-365.47 702.85,-365.47 700.1,-362.26 700.8,-367.22 698.94,-360.91"/>
</g>
<!-- portage://sys&#45;devel/gettext&#45;0.26 -->
<g id="node16" class="node">
<title>portage://sys&#45;devel/gettext&#45;0.26</title>
<g id="a_node16"><a xlink:href="../sys-devel/gettext-0.26-depend.svg" xlink:title="portage://sys&#45;devel/gettext&#45;0.26">
<ellipse fill="none" stroke="red" cx="922.57" cy="-234" rx="91.12" ry="18"/>
<text text-anchor="middle" x="922.57" y="-230.12" font-family="Helvetica,sans-Serif" font-size="10.00">portage://sys&#45;devel/gettext&#45;0.26</text>
</a>
</g>
</g>
<!-- portage://kde&#45;frameworks/ki18n&#45;6.21.0&#45;&gt;portage://sys&#45;devel/gettext&#45;0.26 -->
<g id="edge20" class="edge">
<title>portage://kde&#45;frameworks/ki18n&#45;6.21.0&#45;&gt;portage://sys&#45;devel/gettext&#45;0.26</title>
<path fill="none" stroke="black" d="M809.57,-341C810.24,-301.04 848.2,-271.75 879.94,-254.22"/>
<polygon fill="black" stroke="black" points="885.12,-251.44 881.1,-256.65 883.55,-252.28 879.83,-254.28 879.83,-254.28 879.83,-254.28 883.55,-252.28 878.55,-251.9 885.12,-251.44"/>
</g>
<!-- portage://dev&#45;libs/libxml2&#45;9999 -->
<g id="node17" class="node">
<title>portage://dev&#45;libs/libxml2&#45;9999</title>
<g id="a_node17"><a xlink:href="../dev-libs/libxml2-9999-depend.svg" xlink:title="portage://dev&#45;libs/libxml2&#45;9999">
<ellipse fill="none" stroke="red" cx="922.57" cy="-126" rx="88.01" ry="18"/>
<text text-anchor="middle" x="922.57" y="-122.12" font-family="Helvetica,sans-Serif" font-size="10.00">portage://dev&#45;libs/libxml2&#45;9999</text>
</a>
</g>
</g>
<!-- portage://media&#45;gfx/sane&#45;backends&#45;1.3.1&#45;r2&#45;&gt;portage://dev&#45;libs/libxml2&#45;9999 -->
<g id="edge31" class="edge">
<title>portage://media&#45;gfx/sane&#45;backends&#45;1.3.1&#45;r2&#45;&gt;portage://dev&#45;libs/libxml2&#45;9999</title>
<path fill="none" stroke="black" d="M1066.58,-431.62C1062.48,-413.7 1055.96,-384.92 1050.57,-360 1036.73,-296.11 1053.02,-272.75 1020.57,-216 1004.44,-187.8 976.24,-163.6 954.22,-147.59"/>
<polygon fill="black" stroke="black" points="949.47,-144.2 955.92,-145.49 950.92,-145.24 954.35,-147.68 954.35,-147.68 954.35,-147.68 950.92,-145.24 952.78,-149.88 949.47,-144.2"/>
</g>
<!-- portage://acct&#45;user/saned&#45;0&#45;r2 -->
<g id="node18" class="node">
<title>portage://acct&#45;user/saned&#45;0&#45;r2</title>
<g id="a_node18"><a xlink:href="../acct-user/saned-0-r2-depend.svg" xlink:title="portage://acct&#45;user/saned&#45;0&#45;r2">
<ellipse fill="none" stroke="red" cx="1347.57" cy="-342" rx="86.68" ry="18"/>
<text text-anchor="middle" x="1347.57" y="-338.12" font-family="Helvetica,sans-Serif" font-size="10.00">portage://acct&#45;user/saned&#45;0&#45;r2</text>
</a>
</g>
</g>
<!-- portage://media&#45;gfx/sane&#45;backends&#45;1.3.1&#45;r2&#45;&gt;portage://acct&#45;user/saned&#45;0&#45;r2 -->
<g id="edge29" class="edge">
<title>portage://media&#45;gfx/sane&#45;backends&#45;1.3.1&#45;r2&#45;&gt;portage://acct&#45;user/saned&#45;0&#45;r2</title>
<path fill="none" stroke="black" d="M1112.94,-432.79C1163.66,-413.38 1248.33,-380.98 1300.89,-360.86"/>
<polygon fill="black" stroke="black" points="1306.31,-358.79 1301.67,-363.45 1304.65,-359.42 1300.71,-360.93 1300.71,-360.93 1300.71,-360.93 1304.65,-359.42 1299.74,-358.41 1306.31,-358.79"/>
</g>
<!-- portage://acct&#45;group/scanner&#45;0&#45;r2 -->
<g id="node19" class="node">
<title>portage://acct&#45;group/scanner&#45;0&#45;r2</title>
<g id="a_node19"><a xlink:href="../acct-group/scanner-0-r2-depend.svg" xlink:title="portage://acct&#45;group/scanner&#45;0&#45;r2">
<ellipse fill="none" stroke="red" cx="1152.57" cy="-342" rx="94.67" ry="18"/>
<text text-anchor="middle" x="1152.57" y="-338.12" font-family="Helvetica,sans-Serif" font-size="10.00">portage://acct&#45;group/scanner&#45;0&#45;r2</text>
</a>
</g>
</g>
<!-- portage://media&#45;gfx/sane&#45;backends&#45;1.3.1&#45;r2&#45;&gt;portage://acct&#45;group/scanner&#45;0&#45;r2 -->
<g id="edge30" class="edge">
<title>portage://media&#45;gfx/sane&#45;backends&#45;1.3.1&#45;r2&#45;&gt;portage://acct&#45;group/scanner&#45;0&#45;r2</title>
<path fill="none" stroke="black" d="M1083.74,-431.97C1097.67,-413.97 1119.7,-385.48 1135.08,-365.6"/>
<polygon fill="black" stroke="black" points="1138.68,-360.95 1137.14,-367.35 1137.59,-362.36 1135.01,-365.7 1135.01,-365.7 1135.01,-365.7 1137.59,-362.36 1132.87,-364.05 1138.68,-360.95"/>
</g>
<!-- portage://dev&#45;libs/glib&#45;2.86.1&#45;&gt;portage://virtual/zlib&#45;1.3.1&#45;r1 -->
<g id="edge15" class="edge">
<title>portage://dev&#45;libs/glib&#45;2.86.1&#45;&gt;portage://virtual/zlib&#45;1.3.1&#45;r1</title>
<path fill="none" stroke="black" d="M655.99,-107.97C662.63,-90.38 673.04,-62.78 680.51,-42.99"/>
<polygon fill="black" stroke="black" points="682.59,-37.48 683,-44.05 681.96,-39.15 680.47,-43.09 680.47,-43.09 680.47,-43.09 681.96,-39.15 677.95,-42.14 682.59,-37.48"/>
</g>
<!-- portage://dev&#45;libs/glib&#45;2.86.1&#45;&gt;portage://dev&#45;libs/libpcre2&#45;10.47 -->
<g id="edge13" class="edge">
<title>portage://dev&#45;libs/glib&#45;2.86.1&#45;&gt;portage://dev&#45;libs/libpcre2&#45;10.47</title>
<path fill="none" stroke="black" d="M589.25,-113.47C579.65,-111.64 569.84,-109.77 560.57,-108 419.53,-81.15 254.6,-49.88 162.7,-32.47"/>
<polygon fill="black" stroke="black" points="156.87,-31.37 163.27,-29.83 158.62,-31.7 162.76,-32.48 162.76,-32.48 162.76,-32.48 158.62,-31.7 162.26,-35.14 156.87,-31.37"/>
</g>
<!-- portage://dev&#45;util/gdbus&#45;codegen&#45;2.84.4 -->
<g id="node11" class="node">
<title>portage://dev&#45;util/gdbus&#45;codegen&#45;2.84.4</title>
<g id="a_node11"><a xlink:href="../dev-util/gdbus-codegen-2.84.4-depend.svg" xlink:title="portage://dev&#45;util/gdbus&#45;codegen&#45;2.84.4">
<ellipse fill="none" stroke="red" cx="483.57" cy="-18" rx="111.09" ry="18"/>
<text text-anchor="middle" x="483.57" y="-14.12" font-family="Helvetica,sans-Serif" font-size="10.00">portage://dev&#45;util/gdbus&#45;codegen&#45;2.84.4</text>
</a>
</g>
</g>
<!-- portage://dev&#45;libs/glib&#45;2.86.1&#45;&gt;portage://dev&#45;util/gdbus&#45;codegen&#45;2.84.4 -->
<g id="edge11" class="edge">
<title>portage://dev&#45;libs/glib&#45;2.86.1&#45;&gt;portage://dev&#45;util/gdbus&#45;codegen&#45;2.84.4</title>
<path fill="none" stroke="orange" stroke-dasharray="5,2" d="M617.58,-104.58C588.34,-85.9 545.28,-58.41 515.92,-39.66"/>
<polygon fill="orange" stroke="orange" points="622.6,-107.78 616.09,-106.83 621.1,-106.82 617.54,-104.55 617.54,-104.55 617.54,-104.55 621.1,-106.82 619,-102.28 622.6,-107.78"/>
<polygon fill="orange" stroke="orange" points="510.9,-36.45 517.41,-37.41 512.4,-37.41 515.95,-39.68 515.95,-39.68 515.95,-39.68 512.4,-37.41 514.5,-41.96 510.9,-36.45"/>
</g>
<!-- portage://virtual/libiconv&#45;0&#45;r2 -->
<g id="node12" class="node">
<title>portage://virtual/libiconv&#45;0&#45;r2</title>
<g id="a_node12"><a xlink:href="../virtual/libiconv-0-r2-depend.svg" xlink:title="portage://virtual/libiconv&#45;0&#45;r2">
<ellipse fill="none" stroke="red" cx="1032.57" cy="-18" rx="82.25" ry="18"/>
<text text-anchor="middle" x="1032.57" y="-14.12" font-family="Helvetica,sans-Serif" font-size="10.00">portage://virtual/libiconv&#45;0&#45;r2</text>
</a>
</g>
</g>
<!-- portage://dev&#45;libs/glib&#45;2.86.1&#45;&gt;portage://virtual/libiconv&#45;0&#45;r2 -->
<g id="edge12" class="edge">
<title>portage://dev&#45;libs/glib&#45;2.86.1&#45;&gt;portage://virtual/libiconv&#45;0&#45;r2</title>
<path fill="none" stroke="black" d="M699.24,-111.25C770.56,-91.51 901.59,-55.25 976.36,-34.55"/>
<polygon fill="black" stroke="black" points="981.8,-33.05 976.74,-37.25 980.08,-33.52 976.02,-34.65 976.02,-34.65 976.02,-34.65 980.08,-33.52 975.3,-32.05 981.8,-33.05"/>
</g>
<!-- portage://dev&#45;libs/libffi&#45;9999 -->
<g id="node13" class="node">
<title>portage://dev&#45;libs/libffi&#45;9999</title>
<g id="a_node13"><a xlink:href="../dev-libs/libffi-9999-depend.svg" xlink:title="portage://dev&#45;libs/libffi&#45;9999">
<ellipse fill="none" stroke="red" cx="277.57" cy="-18" rx="80.47" ry="18"/>
<text text-anchor="middle" x="277.57" y="-14.12" font-family="Helvetica,sans-Serif" font-size="10.00">portage://dev&#45;libs/libffi&#45;9999</text>
</a>
</g>
</g>
<!-- portage://dev&#45;libs/glib&#45;2.86.1&#45;&gt;portage://dev&#45;libs/libffi&#45;9999 -->
<g id="edge14" class="edge">
<title>portage://dev&#45;libs/glib&#45;2.86.1&#45;&gt;portage://dev&#45;libs/libffi&#45;9999</title>
<path fill="none" stroke="black" d="M600.93,-111.14C531.77,-91.44 405.36,-55.41 332.77,-34.73"/>
<polygon fill="black" stroke="black" points="327.09,-33.11 333.6,-32.16 328.8,-33.6 332.86,-34.76 332.86,-34.76 332.86,-34.76 328.8,-33.6 332.12,-37.35 327.09,-33.11"/>
</g>
<!-- portage://dev&#45;libs/glib&#45;2.86.1&#45;&gt;portage://virtual/libintl&#45;0&#45;r2 -->
<g id="edge16" class="edge">
<title>portage://dev&#45;libs/glib&#45;2.86.1&#45;&gt;portage://virtual/libintl&#45;0&#45;r2</title>
<path fill="none" stroke="black" d="M681.15,-109.13C719.02,-90.11 782.42,-58.26 822.82,-37.96"/>
<polygon fill="black" stroke="black" points="828.02,-35.35 823.87,-40.46 826.42,-36.15 822.66,-38.04 822.66,-38.04 822.66,-38.04 826.42,-36.15 821.44,-35.63 828.02,-35.35"/>
</g>
<!-- portage://dev&#45;qt/qtdeclarative&#45;6.9999&#45;&gt;portage://dev&#45;qt/qtbase&#45;6.9999 -->
<g id="edge23" class="edge">
<title>portage://dev&#45;qt/qtdeclarative&#45;6.9999&#45;&gt;portage://dev&#45;qt/qtbase&#45;6.9999</title>
<path fill="none" stroke="black" d="M670.71,-323.97C657.12,-305.97 635.62,-277.48 620.62,-257.6"/>
<polygon fill="black" stroke="black" points="617.12,-252.96 622.89,-256.12 618.19,-254.38 620.73,-257.75 620.73,-257.75 620.73,-257.75 618.19,-254.38 618.58,-259.38 617.12,-252.96"/>
</g>
<!-- portage://sys&#45;devel/gettext&#45;0.26&#45;&gt;portage://virtual/libiconv&#45;0&#45;r2 -->
<g id="edge24" class="edge">
<title>portage://sys&#45;devel/gettext&#45;0.26&#45;&gt;portage://virtual/libiconv&#45;0&#45;r2</title>
<path fill="none" stroke="black" d="M948.74,-216.35C971.06,-200.61 1001.94,-174.85 1017.57,-144 1033.81,-111.92 1035.37,-69.44 1034.41,-43.18"/>
<polygon fill="black" stroke="black" points="1034.14,-37.45 1037.12,-43.31 1034.22,-39.23 1034.42,-43.44 1034.42,-43.44 1034.42,-43.44 1034.22,-39.23 1031.73,-43.57 1034.14,-37.45"/>
</g>
<!-- portage://sys&#45;devel/gettext&#45;0.26&#45;&gt;portage://virtual/libintl&#45;0&#45;r2 -->
<g id="edge25" class="edge">
<title>portage://sys&#45;devel/gettext&#45;0.26&#45;&gt;portage://virtual/libintl&#45;0&#45;r2</title>
<path fill="none" stroke="black" d="M886.26,-217.13C853.54,-200.1 810.44,-169.63 809.57,-127"/>
</g>
<!-- portage://sys&#45;devel/gettext&#45;0.26&#45;&gt;portage://dev&#45;libs/libxml2&#45;9999 -->
<g id="edge26" class="edge">
<title>portage://sys&#45;devel/gettext&#45;0.26&#45;&gt;portage://dev&#45;libs/libxml2&#45;9999</title>
<path fill="none" stroke="black" d="M922.57,-215.97C922.57,-198.53 922.57,-171.26 922.57,-151.51"/>
<polygon fill="black" stroke="black" points="922.57,-145.56 925.27,-151.56 922.57,-147.34 922.57,-151.56 922.57,-151.56 922.57,-151.56 922.57,-147.34 919.87,-151.56 922.57,-145.56"/>
</g>
<!-- portage://dev&#45;libs/libxml2&#45;9999&#45;&gt;portage://virtual/zlib&#45;1.3.1&#45;r1 -->
<g id="edge28" class="edge">
<title>portage://dev&#45;libs/libxml2&#45;9999&#45;&gt;portage://virtual/zlib&#45;1.3.1&#45;r1</title>
<path fill="none" stroke="black" d="M887.68,-109.13C845.57,-89.97 774.88,-57.81 730.31,-37.53"/>
<polygon fill="black" stroke="black" points="725.03,-35.14 731.61,-35.16 726.66,-35.87 730.5,-37.62 730.5,-37.62 730.5,-37.62 726.66,-35.87 729.38,-40.08 725.03,-35.14"/>
</g>
<!-- portage://dev&#45;libs/libxml2&#45;9999&#45;&gt;portage://virtual/libiconv&#45;0&#45;r2 -->
<g id="edge27" class="edge">
<title>portage://dev&#45;libs/libxml2&#45;9999&#45;&gt;portage://virtual/libiconv&#45;0&#45;r2</title>
<path fill="none" stroke="black" d="M940.24,-107.97C959.16,-89.73 989.25,-60.74 1009.9,-40.84"/>
<polygon fill="black" stroke="black" points="1014.06,-36.83 1011.61,-42.94 1012.78,-38.07 1009.74,-41 1009.74,-41 1009.74,-41 1012.78,-38.07 1007.86,-39.05 1014.06,-36.83"/>
</g>
</g>
</svg>
