<?xml version="1.0" encoding="UTF-8" standalone="no"?>
<!DOCTYPE svg PUBLIC "-//W3C//DTD SVG 1.1//EN"
 "http://www.w3.org/Graphics/SVG/1.1/DTD/svg11.dtd">
<!-- Generated by graphviz version 2.41.20171026.1811 (20171026.1811)
 -->
<!-- Title: prolog Pages: 1 -->
<svg width="1326pt" height="678pt"
 viewBox="0.00 0.00 1326.00 678.00" xmlns="http://www.w3.org/2000/svg" xmlns:xlink="http://www.w3.org/1999/xlink">
<g id="graph0" class="graph" transform="scale(1 1) rotate(0) translate(4 674)">
<title>prolog</title>
<polygon fill="white" stroke="transparent" points="-4,4 -4,-674 1322,-674 1322,4 -4,4"/>
<g id="clust1" class="cluster">
<title>cluster_leftcol</title>
<polygon fill="none" stroke="gray" points="8,-336 8,-406 312,-406 312,-336 8,-336"/>
<text text-anchor="start" x="146.66" y="-395" font-family="Helvetica,sans-Serif" font-style="italic" font-size="10.00">ebuild</text>
</g>
<g id="clust2" class="cluster">
<title>cluster_midcol</title>
<polygon fill="none" stroke="gray" points="396,-8 396,-662 922,-662 922,-8 396,-8"/>
<text text-anchor="start" x="627.86" y="-651" font-family="Helvetica,sans-Serif" font-style="italic" font-size="10.00">dependencies</text>
</g>
<g id="clust3" class="cluster">
<title>cluster_compile</title>
<polygon fill="#eeeeee" stroke="gray" points="662,-504 662,-636 914,-636 914,-504 662,-504"/>
<text text-anchor="start" x="770.77" y="-625" font-family="Helvetica,sans-Serif" font-style="italic" font-size="10.00">compile</text>
</g>
<g id="clust5" class="cluster">
<title>cluster_compileandrun</title>
<polygon fill="#eeeeee" stroke="gray" points="404,-16 404,-496 914,-496 914,-16 404,-16"/>
<text text-anchor="start" x="623.42" y="-485" font-family="Helvetica,sans-Serif" font-style="italic" font-size="10.00">compile and run</text>
</g>
<g id="clust13" class="cluster">
<title>cluster_choices</title>
<polygon fill="none" stroke="gray" points="1006,-109 1006,-519 1310,-519 1310,-109 1006,-109"/>
<text text-anchor="start" x="1133.82" y="-508" font-family="Helvetica,sans-Serif" font-style="italic" font-size="10.00">candidates</text>
</g>
<!-- id -->
<g id="node1" class="node">
<title>id</title>
<g id="a_node1"><a xlink:href="../media-libs/libshout-2.3.1.svg" xlink:title="media&#45;libs/libshout&#45;2.3.1">
<ellipse fill="none" stroke="red" cx="160" cy="-362" rx="144" ry="18"/>
<text text-anchor="middle" x="160" y="-359" font-family="Helvetica,sans-Serif" font-size="10.00">media&#45;libs/libshout&#45;2.3.1</text>
</a>
</g>
</g>
<!-- dependency365537 -->
<g id="node2" class="node">
<title>dependency365537</title>
<polygon fill="none" stroke="blue" points="678,-516 678,-606 783,-606 783,-516 678,-516"/>
<text text-anchor="start" x="708.82" y="-558" font-family="Helvetica,sans-Serif" font-size="10.00">pack_dep</text>
<polygon fill="none" stroke="blue" points="783,-586 783,-606 893,-606 893,-586 783,-586"/>
<text text-anchor="start" x="832.44" y="-593" font-family="Helvetica,sans-Serif" font-size="10.00">no</text>
<polygon fill="none" stroke="blue" points="783,-566 783,-586 893,-586 893,-566 783,-566"/>
<text text-anchor="start" x="824.66" y="-573" font-family="Helvetica,sans-Serif" font-size="10.00">virtual</text>
<polygon fill="none" stroke="blue" points="783,-546 783,-566 893,-566 893,-546 783,-546"/>
<text text-anchor="start" x="816.6" y="-553" font-family="Helvetica,sans-Serif" font-size="10.00">pkgconfig</text>
<polygon fill="none" stroke="blue" points="783,-526 783,-546 893,-546 893,-526 783,-526"/>
<text text-anchor="start" x="826.88" y="-533" font-family="Helvetica,sans-Serif" font-size="10.00">none</text>
<polygon fill="none" stroke="blue" points="783,-516 783,-526 893,-526 893,-516 783,-516"/>
</g>
<!-- id&#45;&gt;dependency365537 -->
<g id="edge1" class="edge">
<title>id:e&#45;&gt;dependency365537:w</title>
<path fill="none" stroke="black" d="M305,-362C378.47,-362 335.52,-458.28 396,-500 495.54,-568.66 542.1,-561.46 658.97,-561.02"/>
<polygon fill="black" stroke="black" points="669,-561 659.01,-565.52 664,-561.01 659,-561.02 659,-561.02 659,-561.02 664,-561.01 658.99,-556.52 669,-561 669,-561"/>
</g>
<!-- dependency365538 -->
<g id="node3" class="node">
<title>dependency365538</title>
<polygon fill="none" stroke="red" points="420,-388 420,-428 511,-428 511,-388 420,-388"/>
<text text-anchor="start" x="430.75" y="-405" font-family="Helvetica,sans-Serif" font-size="10.00">use_conditional</text>
<polygon fill="none" stroke="red" points="511,-408 511,-428 554,-428 554,-408 511,-408"/>
<text text-anchor="start" x="515.55" y="-415" font-family="Helvetica,sans-Serif" font-size="10.00">positive</text>
<polygon fill="none" stroke="red" points="511,-388 511,-408 554,-408 554,-388 511,-388"/>
<text text-anchor="start" x="519.16" y="-395" font-family="Helvetica,sans-Serif" font-size="10.00">speex</text>
</g>
<!-- id&#45;&gt;dependency365538 -->
<g id="edge3" class="edge">
<title>id:e&#45;&gt;dependency365538:w</title>
<path fill="none" stroke="black" d="M305,-362C349.54,-362 357.92,-396.59 392.86,-405.78"/>
<ellipse fill="none" stroke="black" cx="407.03" cy="-407.51" rx="4" ry="4"/>
<polygon fill="black" stroke="black" points="403.06,-407.03 392.59,-410.28 398.1,-406.42 393.13,-405.82 393.13,-405.82 393.13,-405.82 398.1,-406.42 393.68,-401.35 403.06,-407.03 403.06,-407.03"/>
</g>
<!-- dependency365540 -->
<g id="node5" class="node">
<title>dependency365540</title>
<polygon fill="none" stroke="red" points="420,-297 420,-337 511,-337 511,-297 420,-297"/>
<text text-anchor="start" x="430.75" y="-314" font-family="Helvetica,sans-Serif" font-size="10.00">use_conditional</text>
<polygon fill="none" stroke="red" points="511,-317 511,-337 554,-337 554,-317 511,-317"/>
<text text-anchor="start" x="515.55" y="-324" font-family="Helvetica,sans-Serif" font-size="10.00">positive</text>
<polygon fill="none" stroke="red" points="511,-297 511,-317 554,-317 554,-297 511,-297"/>
<text text-anchor="start" x="518.32" y="-304" font-family="Helvetica,sans-Serif" font-size="10.00">theora</text>
</g>
<!-- id&#45;&gt;dependency365540 -->
<g id="edge5" class="edge">
<title>id:e&#45;&gt;dependency365540:w</title>
<path fill="none" stroke="black" d="M305,-362C349.38,-362 358.01,-328.16 392.9,-319.17"/>
<ellipse fill="none" stroke="black" cx="407.03" cy="-317.48" rx="4" ry="4"/>
<polygon fill="black" stroke="black" points="403.06,-317.95 393.66,-323.61 398.09,-318.55 393.13,-319.14 393.13,-319.14 393.13,-319.14 398.09,-318.55 392.59,-314.68 403.06,-317.95 403.06,-317.95"/>
</g>
<!-- dependency365542 -->
<g id="node7" class="node">
<title>dependency365542</title>
<polygon fill="none" stroke="blue" points="678,-144 678,-234 783,-234 783,-144 678,-144"/>
<text text-anchor="start" x="708.82" y="-186" font-family="Helvetica,sans-Serif" font-size="10.00">pack_dep</text>
<polygon fill="none" stroke="blue" points="783,-214 783,-234 893,-234 893,-214 783,-214"/>
<text text-anchor="start" x="832.44" y="-221" font-family="Helvetica,sans-Serif" font-size="10.00">no</text>
<polygon fill="none" stroke="blue" points="783,-194 783,-214 893,-214 893,-194 783,-194"/>
<text text-anchor="start" x="815.21" y="-201" font-family="Helvetica,sans-Serif" font-size="10.00">media&#45;libs</text>
<polygon fill="none" stroke="blue" points="783,-174 783,-194 893,-194 893,-174 783,-174"/>
<text text-anchor="start" x="824.66" y="-181" font-family="Helvetica,sans-Serif" font-size="10.00">libogg</text>
<polygon fill="none" stroke="blue" points="783,-154 783,-174 893,-174 893,-154 783,-154"/>
<text text-anchor="start" x="826.88" y="-161" font-family="Helvetica,sans-Serif" font-size="10.00">none</text>
<polygon fill="none" stroke="blue" points="783,-144 783,-154 893,-154 893,-144 783,-144"/>
</g>
<!-- id&#45;&gt;dependency365542 -->
<g id="edge6" class="edge">
<title>id:e&#45;&gt;dependency365542:w</title>
<path fill="none" stroke="black" d="M488,-189C557.8,-164.43 584.28,-185.06 650.69,-188.53"/>
<ellipse fill="none" stroke="black" cx="665" cy="-188.9" rx="4" ry="4"/>
<polygon fill="black" stroke="black" points="661,-188.79 650.89,-193.03 656,-188.66 651.01,-188.54 651.01,-188.54 651.01,-188.54 656,-188.66 651.12,-184.04 661,-188.79 661,-188.79"/>
</g>
<!-- dependency365543 -->
<g id="node8" class="node">
<title>dependency365543</title>
<polygon fill="none" stroke="blue" points="678,-28 678,-118 783,-118 783,-28 678,-28"/>
<text text-anchor="start" x="708.82" y="-70" font-family="Helvetica,sans-Serif" font-size="10.00">pack_dep</text>
<polygon fill="none" stroke="blue" points="783,-98 783,-118 893,-118 893,-98 783,-98"/>
<text text-anchor="start" x="832.44" y="-105" font-family="Helvetica,sans-Serif" font-size="10.00">no</text>
<polygon fill="none" stroke="blue" points="783,-78 783,-98 893,-98 893,-78 783,-78"/>
<text text-anchor="start" x="815.21" y="-85" font-family="Helvetica,sans-Serif" font-size="10.00">media&#45;libs</text>
<polygon fill="none" stroke="blue" points="783,-58 783,-78 893,-78 893,-58 783,-58"/>
<text text-anchor="start" x="819.66" y="-65" font-family="Helvetica,sans-Serif" font-size="10.00">libvorbis</text>
<polygon fill="none" stroke="blue" points="783,-38 783,-58 893,-58 893,-38 783,-38"/>
<text text-anchor="start" x="826.88" y="-45" font-family="Helvetica,sans-Serif" font-size="10.00">none</text>
<polygon fill="none" stroke="blue" points="783,-28 783,-38 893,-38 893,-28 783,-28"/>
</g>
<!-- id&#45;&gt;dependency365543 -->
<g id="edge7" class="edge">
<title>id:e&#45;&gt;dependency365543:w</title>
<path fill="none" stroke="black" d="M488,-189C571.96,-159.44 573.65,-84.28 650.75,-74.14"/>
<ellipse fill="none" stroke="black" cx="665.01" cy="-73.25" rx="4" ry="4"/>
<polygon fill="black" stroke="black" points="661.02,-73.5 651.31,-78.61 656.03,-73.81 651.03,-74.12 651.03,-74.12 651.03,-74.12 656.03,-73.81 650.75,-69.63 661.02,-73.5 661.02,-73.5"/>
<path fill="none" stroke="black" d="M305,-362C360.64,-362 433.52,-207.48 486,-189"/>
</g>
<!-- choice11810511411611797108471121071039911111010210510345484511449 -->
<g id="node9" class="node">
<title>choice11810511411611797108471121071039911111010210510345484511449</title>
<g id="a_node9"><a xlink:href="../virtual/pkgconfig-0-r1.svg" xlink:title="virtual/pkgconfig&#45;0&#45;r1">
<ellipse fill="none" stroke="red" cx="1158" cy="-475" rx="144" ry="18"/>
<text text-anchor="middle" x="1158" y="-472" font-family="Helvetica,sans-Serif" font-size="10.00">virtual/pkgconfig&#45;0&#45;r1</text>
</a>
</g>
</g>
<!-- dependency365537&#45;&gt;choice11810511411611797108471121071039911111010210510345484511449 -->
<g id="edge8" class="edge">
<title>dependency365537:e&#45;&gt;choice11810511411611797108471121071039911111010210510345484511449:w</title>
<path fill="none" stroke="black" stroke-dasharray="1,5" d="M907,-561C963.99,-561 953.91,-485.1 1002.78,-475.91"/>
<polygon fill="black" stroke="black" points="1013,-475 1003.44,-480.37 1008.02,-475.44 1003.04,-475.88 1003.04,-475.88 1003.04,-475.88 1008.02,-475.44 1002.64,-471.4 1013,-475 1013,-475"/>
</g>
<!-- dependency365539 -->
<g id="node4" class="node">
<title>dependency365539</title>
<polygon fill="none" stroke="blue" points="678,-376 678,-466 783,-466 783,-376 678,-376"/>
<text text-anchor="start" x="708.82" y="-418" font-family="Helvetica,sans-Serif" font-size="10.00">pack_dep</text>
<polygon fill="none" stroke="blue" points="783,-446 783,-466 893,-466 893,-446 783,-446"/>
<text text-anchor="start" x="832.44" y="-453" font-family="Helvetica,sans-Serif" font-size="10.00">no</text>
<polygon fill="none" stroke="blue" points="783,-426 783,-446 893,-446 893,-426 783,-426"/>
<text text-anchor="start" x="815.21" y="-433" font-family="Helvetica,sans-Serif" font-size="10.00">media&#45;libs</text>
<polygon fill="none" stroke="blue" points="783,-406 783,-426 893,-426 893,-406 783,-406"/>
<text text-anchor="start" x="824.66" y="-413" font-family="Helvetica,sans-Serif" font-size="10.00">speex</text>
<polygon fill="none" stroke="blue" points="783,-386 783,-406 893,-406 893,-386 783,-386"/>
<text text-anchor="start" x="826.88" y="-393" font-family="Helvetica,sans-Serif" font-size="10.00">none</text>
<polygon fill="none" stroke="blue" points="783,-376 783,-386 893,-386 893,-376 783,-376"/>
</g>
<!-- dependency365538&#45;&gt;dependency365539 -->
<g id="edge2" class="edge">
<title>dependency365538:e&#45;&gt;dependency365539:w</title>
<path fill="none" stroke="black" stroke-dasharray="5,2" d="M562,-408C606.35,-408 619.23,-419.14 658.91,-420.8"/>
<polygon fill="black" stroke="black" points="669,-421 658.91,-425.3 664,-420.9 659,-420.8 659,-420.8 659,-420.8 664,-420.9 659.09,-416.3 669,-421 669,-421"/>
</g>
<!-- choice109101100105974510810598115471151121011011204549465046484511449 -->
<g id="node10" class="node">
<title>choice109101100105974510810598115471151121011011204549465046484511449</title>
<g id="a_node10"><a xlink:href="../media-libs/speex-1.2.0-r1.svg" xlink:title="media&#45;libs/speex&#45;1.2.0&#45;r1">
<ellipse fill="none" stroke="red" cx="1158" cy="-421" rx="144" ry="18"/>
<text text-anchor="middle" x="1158" y="-418" font-family="Helvetica,sans-Serif" font-size="10.00">media&#45;libs/speex&#45;1.2.0&#45;r1</text>
</a>
</g>
</g>
<!-- dependency365539&#45;&gt;choice109101100105974510810598115471151121011011204549465046484511449 -->
<g id="edge9" class="edge">
<title>dependency365539:e&#45;&gt;choice109101100105974510810598115471151121011011204549465046484511449:w</title>
<path fill="none" stroke="black" stroke-dasharray="1,5" d="M907,-421C950.43,-421 963.83,-421 1002.57,-421"/>
<polygon fill="black" stroke="black" points="1013,-421 1003,-425.5 1008,-421 1003,-421 1003,-421 1003,-421 1008,-421 1003,-416.5 1013,-421 1013,-421"/>
</g>
<!-- choice10910110010597451081059811547115112101101120454946509511499494511450 -->
<g id="node11" class="node">
<title>choice10910110010597451081059811547115112101101120454946509511499494511450</title>
<g id="a_node11"><a xlink:href="../media-libs/speex-1.2_rc1-r2.svg" xlink:title="media&#45;libs/speex&#45;1.2_rc1&#45;r2">
<ellipse fill="none" stroke="red" cx="1158" cy="-367" rx="144" ry="18"/>
<text text-anchor="middle" x="1158" y="-364" font-family="Helvetica,sans-Serif" font-size="10.00">media&#45;libs/speex&#45;1.2_rc1&#45;r2</text>
</a>
</g>
</g>
<!-- dependency365539&#45;&gt;choice10910110010597451081059811547115112101101120454946509511499494511450 -->
<g id="edge10" class="edge">
<title>dependency365539:e&#45;&gt;choice10910110010597451081059811547115112101101120454946509511499494511450:w</title>
<path fill="none" stroke="black" stroke-dasharray="1,5" d="M907,-421C956.26,-421 959.85,-374.13 1002.86,-367.72"/>
<polygon fill="black" stroke="black" points="1013,-367 1003.35,-372.2 1008.01,-367.36 1003.03,-367.71 1003.03,-367.71 1003.03,-367.71 1008.01,-367.36 1002.71,-363.22 1013,-367 1013,-367"/>
</g>
<!-- dependency365541 -->
<g id="node6" class="node">
<title>dependency365541</title>
<polygon fill="none" stroke="blue" points="678,-260 678,-350 783,-350 783,-260 678,-260"/>
<text text-anchor="start" x="708.82" y="-302" font-family="Helvetica,sans-Serif" font-size="10.00">pack_dep</text>
<polygon fill="none" stroke="blue" points="783,-330 783,-350 893,-350 893,-330 783,-330"/>
<text text-anchor="start" x="832.44" y="-337" font-family="Helvetica,sans-Serif" font-size="10.00">no</text>
<polygon fill="none" stroke="blue" points="783,-310 783,-330 893,-330 893,-310 783,-310"/>
<text text-anchor="start" x="815.21" y="-317" font-family="Helvetica,sans-Serif" font-size="10.00">media&#45;libs</text>
<polygon fill="none" stroke="blue" points="783,-290 783,-310 893,-310 893,-290 783,-290"/>
<text text-anchor="start" x="818.82" y="-297" font-family="Helvetica,sans-Serif" font-size="10.00">libtheora</text>
<polygon fill="none" stroke="blue" points="783,-270 783,-290 893,-290 893,-270 783,-270"/>
<text text-anchor="start" x="826.88" y="-277" font-family="Helvetica,sans-Serif" font-size="10.00">none</text>
<polygon fill="none" stroke="blue" points="783,-260 783,-270 893,-270 893,-260 783,-260"/>
</g>
<!-- dependency365540&#45;&gt;dependency365541 -->
<g id="edge4" class="edge">
<title>dependency365540:e&#45;&gt;dependency365541:w</title>
<path fill="none" stroke="black" stroke-dasharray="5,2" d="M562,-317C606.3,-317 619.27,-306.72 658.92,-305.19"/>
<polygon fill="black" stroke="black" points="669,-305 659.09,-309.69 664,-305.09 659,-305.19 659,-305.19 659,-305.19 664,-305.09 658.92,-300.69 669,-305 669,-305"/>
</g>
<!-- choice1091011001059745108105981154710810598116104101111114974549464946494511449 -->
<g id="node12" class="node">
<title>choice1091011001059745108105981154710810598116104101111114974549464946494511449</title>
<g id="a_node12"><a xlink:href="../media-libs/libtheora-1.1.1-r1.svg" xlink:title="media&#45;libs/libtheora&#45;1.1.1&#45;r1">
<ellipse fill="none" stroke="red" cx="1158" cy="-305" rx="144" ry="18"/>
<text text-anchor="middle" x="1158" y="-302" font-family="Helvetica,sans-Serif" font-size="10.00">media&#45;libs/libtheora&#45;1.1.1&#45;r1</text>
</a>
</g>
</g>
<!-- dependency365541&#45;&gt;choice1091011001059745108105981154710810598116104101111114974549464946494511449 -->
<g id="edge11" class="edge">
<title>dependency365541:e&#45;&gt;choice1091011001059745108105981154710810598116104101111114974549464946494511449:w</title>
<path fill="none" stroke="black" stroke-dasharray="1,5" d="M907,-305C950.43,-305 963.83,-305 1002.57,-305"/>
<polygon fill="black" stroke="black" points="1013,-305 1003,-309.5 1008,-305 1003,-305 1003,-305 1003,-305 1008,-305 1003,-300.5 1013,-305 1013,-305"/>
</g>
<!-- choice1091011001059745108105981154710810598111103103454946514650 -->
<g id="node13" class="node">
<title>choice1091011001059745108105981154710810598111103103454946514650</title>
<g id="a_node13"><a xlink:href="../media-libs/libogg-1.3.2.svg" xlink:title="media&#45;libs/libogg&#45;1.3.2">
<ellipse fill="none" stroke="red" cx="1158" cy="-243" rx="144" ry="18"/>
<text text-anchor="middle" x="1158" y="-240" font-family="Helvetica,sans-Serif" font-size="10.00">media&#45;libs/libogg&#45;1.3.2</text>
</a>
</g>
</g>
<!-- dependency365542&#45;&gt;choice1091011001059745108105981154710810598111103103454946514650 -->
<g id="edge12" class="edge">
<title>dependency365542:e&#45;&gt;choice1091011001059745108105981154710810598111103103454946514650:w</title>
<path fill="none" stroke="black" stroke-dasharray="1,5" d="M907,-189C956.26,-189 959.85,-235.87 1002.86,-242.28"/>
<polygon fill="black" stroke="black" points="1013,-243 1002.71,-246.78 1008.01,-242.64 1003.03,-242.29 1003.03,-242.29 1003.03,-242.29 1008.01,-242.64 1003.35,-237.8 1013,-243 1013,-243"/>
</g>
<!-- choice1091011001059745108105981154710810598111103103454946514651 -->
<g id="node14" class="node">
<title>choice1091011001059745108105981154710810598111103103454946514651</title>
<g id="a_node14"><a xlink:href="../media-libs/libogg-1.3.3.svg" xlink:title="media&#45;libs/libogg&#45;1.3.3">
<ellipse fill="none" stroke="red" cx="1158" cy="-189" rx="144" ry="18"/>
<text text-anchor="middle" x="1158" y="-186" font-family="Helvetica,sans-Serif" font-size="10.00">media&#45;libs/libogg&#45;1.3.3</text>
</a>
</g>
</g>
<!-- dependency365542&#45;&gt;choice1091011001059745108105981154710810598111103103454946514651 -->
<g id="edge13" class="edge">
<title>dependency365542:e&#45;&gt;choice1091011001059745108105981154710810598111103103454946514651:w</title>
<path fill="none" stroke="black" stroke-dasharray="1,5" d="M907,-189C950.43,-189 963.83,-189 1002.57,-189"/>
<polygon fill="black" stroke="black" points="1013,-189 1003,-193.5 1008,-189 1003,-189 1003,-189 1003,-189 1008,-189 1003,-184.5 1013,-189 1013,-189"/>
</g>
<!-- choice109101100105974510810598115471081059811811111498105115454946514653 -->
<g id="node15" class="node">
<title>choice109101100105974510810598115471081059811811111498105115454946514653</title>
<g id="a_node15"><a xlink:href="../media-libs/libvorbis-1.3.5.svg" xlink:title="media&#45;libs/libvorbis&#45;1.3.5">
<ellipse fill="none" stroke="red" cx="1158" cy="-135" rx="144" ry="18"/>
<text text-anchor="middle" x="1158" y="-132" font-family="Helvetica,sans-Serif" font-size="10.00">media&#45;libs/libvorbis&#45;1.3.5</text>
</a>
</g>
</g>
<!-- dependency365543&#45;&gt;choice109101100105974510810598115471081059811811111498105115454946514653 -->
<g id="edge14" class="edge">
<title>dependency365543:e&#45;&gt;choice109101100105974510810598115471081059811811111498105115454946514653:w</title>
<path fill="none" stroke="black" stroke-dasharray="1,5" d="M907,-73C957.95,-73 958.59,-127.04 1002.86,-134.22"/>
<polygon fill="black" stroke="black" points="1013,-135 1002.68,-138.72 1008.01,-134.61 1003.03,-134.23 1003.03,-134.23 1003.03,-134.23 1008.01,-134.61 1003.38,-129.74 1013,-135 1013,-135"/>
</g>
</g>
</svg>
