<?xml version="1.0" encoding="UTF-8" standalone="no"?>
<!DOCTYPE svg PUBLIC "-//W3C//DTD SVG 1.1//EN"
 "http://www.w3.org/Graphics/SVG/1.1/DTD/svg11.dtd">
<!-- Generated by graphviz version 2.44.1 (20200629.0846)
 -->
<!-- Title: prolog Pages: 1 -->
<svg width="1068pt" height="798pt"
 viewBox="0.00 0.00 1068.00 798.00" xmlns="http://www.w3.org/2000/svg" xmlns:xlink="http://www.w3.org/1999/xlink">
<g id="graph0" class="graph" transform="scale(1 1) rotate(0) translate(4 794)">
<title>prolog</title>
<polygon fill="white" stroke="transparent" points="-4,4 -4,-794 1064,-794 1064,4 -4,4"/>
<g id="clust1" class="cluster">
<title>cluster_leftcol</title>
<polygon fill="none" stroke="gray" points="8,-354 8,-426 312,-426 312,-354 8,-354"/>
<text text-anchor="start" x="146.66" y="-414" font-family="Helvetica,sans-Serif" font-style="italic" font-size="10.00">ebuild</text>
</g>
<g id="clust2" class="cluster">
<title>cluster_midcol</title>
<polygon fill="none" stroke="gray" points="396,-51 396,-737 664,-737 664,-51 396,-51"/>
<text text-anchor="start" x="498.88" y="-725" font-family="Helvetica,sans-Serif" font-style="italic" font-size="10.00">dependencies</text>
</g>
<g id="clust4" class="cluster">
<title>cluster_compileandrun</title>
<polygon fill="#eeeeee" stroke="gray" points="404,-59 404,-709 656,-709 656,-59 404,-59"/>
<text text-anchor="start" x="494.44" y="-697" font-family="Helvetica,sans-Serif" font-style="italic" font-size="10.00">compile and run</text>
</g>
<g id="clust11" class="cluster">
<title>cluster_choices</title>
<polygon fill="none" stroke="gray" points="748,-8 748,-782 1052,-782 1052,-8 748,-8"/>
<text text-anchor="start" x="875.82" y="-770" font-family="Helvetica,sans-Serif" font-style="italic" font-size="10.00">candidates</text>
</g>
<!-- id -->
<g id="node1" class="node">
<title>id</title>
<g id="a_node1"><a xlink:href="../media-libs/phonon-vlc-0.10.2.svg" xlink:title="portage://media&#45;libs/phonon&#45;vlc&#45;0.10.2">
<ellipse fill="none" stroke="red" cx="160" cy="-380" rx="144" ry="18"/>
<text text-anchor="middle" x="160" y="-377" font-family="Helvetica,sans-Serif" font-size="10.00">portage://media&#45;libs/phonon&#45;vlc&#45;0.10.2</text>
</a>
</g>
</g>
<!-- dependency323915 -->
<g id="node2" class="node">
<title>dependency323915</title>
<polygon fill="none" stroke="blue" points="420,-579 420,-677 525,-677 525,-579 420,-579"/>
<text text-anchor="start" x="450.82" y="-625" font-family="Helvetica,sans-Serif" font-size="10.00">pack_dep</text>
<polygon fill="none" stroke="blue" points="525,-655 525,-677 635,-677 635,-655 525,-655"/>
<text text-anchor="start" x="574.44" y="-663" font-family="Helvetica,sans-Serif" font-size="10.00">no</text>
<polygon fill="none" stroke="blue" points="525,-633 525,-655 635,-655 635,-633 525,-633"/>
<text text-anchor="start" x="566.11" y="-641" font-family="Helvetica,sans-Serif" font-size="10.00">dev&#45;qt</text>
<polygon fill="none" stroke="blue" points="525,-611 525,-633 635,-633 635,-611 525,-611"/>
<text text-anchor="start" x="566.11" y="-619" font-family="Helvetica,sans-Serif" font-size="10.00">qtcore</text>
<polygon fill="none" stroke="blue" points="525,-589 525,-611 635,-611 635,-589 525,-589"/>
<text text-anchor="start" x="568.88" y="-597" font-family="Helvetica,sans-Serif" font-size="10.00">none</text>
<polygon fill="none" stroke="blue" points="525,-579 525,-589 635,-589 635,-579 525,-579"/>
</g>
<!-- id&#45;&gt;dependency323915 -->
<g id="edge1" class="edge">
<title>id:e&#45;&gt;dependency323915:w</title>
<path fill="none" stroke="black" d="M305,-380C418.08,-380 305.47,-600.7 392.98,-625.7"/>
<ellipse fill="none" stroke="black" cx="407.03" cy="-627.49" rx="4" ry="4"/>
<polygon fill="black" stroke="black" points="403.06,-626.99 392.58,-630.19 398.1,-626.36 393.14,-625.72 393.14,-625.72 393.14,-625.72 398.1,-626.36 393.71,-621.26 403.06,-626.99 403.06,-626.99"/>
</g>
<!-- dependency323916 -->
<g id="node3" class="node">
<title>dependency323916</title>
<polygon fill="none" stroke="blue" points="420,-455 420,-553 525,-553 525,-455 420,-455"/>
<text text-anchor="start" x="450.82" y="-501" font-family="Helvetica,sans-Serif" font-size="10.00">pack_dep</text>
<polygon fill="none" stroke="blue" points="525,-531 525,-553 635,-553 635,-531 525,-531"/>
<text text-anchor="start" x="574.44" y="-539" font-family="Helvetica,sans-Serif" font-size="10.00">no</text>
<polygon fill="none" stroke="blue" points="525,-509 525,-531 635,-531 635,-509 525,-509"/>
<text text-anchor="start" x="566.11" y="-517" font-family="Helvetica,sans-Serif" font-size="10.00">dev&#45;qt</text>
<polygon fill="none" stroke="blue" points="525,-487 525,-509 635,-509 635,-487 525,-487"/>
<text text-anchor="start" x="569.16" y="-495" font-family="Helvetica,sans-Serif" font-size="10.00">qtgui</text>
<polygon fill="none" stroke="blue" points="525,-465 525,-487 635,-487 635,-465 525,-465"/>
<text text-anchor="start" x="568.88" y="-473" font-family="Helvetica,sans-Serif" font-size="10.00">none</text>
<polygon fill="none" stroke="blue" points="525,-455 525,-465 635,-465 635,-455 525,-455"/>
</g>
<!-- id&#45;&gt;dependency323916 -->
<g id="edge2" class="edge">
<title>id:e&#45;&gt;dependency323916:w</title>
<path fill="none" stroke="black" d="M305,-380C370.56,-380 344.94,-481.4 393.05,-500.81"/>
<ellipse fill="none" stroke="black" cx="407.06" cy="-503.3" rx="4" ry="4"/>
<polygon fill="black" stroke="black" points="403.12,-502.6 392.49,-505.28 398.2,-501.73 393.28,-500.85 393.28,-500.85 393.28,-500.85 398.2,-501.73 394.07,-496.42 403.12,-502.6 403.12,-502.6"/>
</g>
<!-- dependency323917 -->
<g id="node4" class="node">
<title>dependency323917</title>
<polygon fill="none" stroke="blue" points="420,-331 420,-429 525,-429 525,-331 420,-331"/>
<text text-anchor="start" x="450.82" y="-377" font-family="Helvetica,sans-Serif" font-size="10.00">pack_dep</text>
<polygon fill="none" stroke="blue" points="525,-407 525,-429 635,-429 635,-407 525,-407"/>
<text text-anchor="start" x="574.44" y="-415" font-family="Helvetica,sans-Serif" font-size="10.00">no</text>
<polygon fill="none" stroke="blue" points="525,-385 525,-407 635,-407 635,-385 525,-385"/>
<text text-anchor="start" x="566.11" y="-393" font-family="Helvetica,sans-Serif" font-size="10.00">dev&#45;qt</text>
<polygon fill="none" stroke="blue" points="525,-363 525,-385 635,-385 635,-363 525,-363"/>
<text text-anchor="start" x="558.88" y="-371" font-family="Helvetica,sans-Serif" font-size="10.00">qtwidgets</text>
<polygon fill="none" stroke="blue" points="525,-341 525,-363 635,-363 635,-341 525,-341"/>
<text text-anchor="start" x="568.88" y="-349" font-family="Helvetica,sans-Serif" font-size="10.00">none</text>
<polygon fill="none" stroke="blue" points="525,-331 525,-341 635,-341 635,-331 525,-331"/>
</g>
<!-- id&#45;&gt;dependency323917 -->
<g id="edge3" class="edge">
<title>id:e&#45;&gt;dependency323917:w</title>
<path fill="none" stroke="black" d="M305,-380C345.3,-380 359.75,-380 392.57,-380"/>
<ellipse fill="none" stroke="black" cx="407" cy="-380" rx="4" ry="4"/>
<polygon fill="black" stroke="black" points="403,-380 393,-384.5 398,-380 393,-380 393,-380 393,-380 398,-380 393,-375.5 403,-380 403,-380"/>
</g>
<!-- dependency323918 -->
<g id="node5" class="node">
<title>dependency323918</title>
<polygon fill="none" stroke="blue" points="420,-195 420,-305 525,-305 525,-195 420,-195"/>
<text text-anchor="start" x="450.82" y="-247" font-family="Helvetica,sans-Serif" font-size="10.00">pack_dep</text>
<polygon fill="none" stroke="blue" points="525,-283 525,-305 635,-305 635,-283 525,-283"/>
<text text-anchor="start" x="574.44" y="-291" font-family="Helvetica,sans-Serif" font-size="10.00">no</text>
<polygon fill="none" stroke="blue" points="525,-261 525,-283 635,-283 635,-261 525,-261"/>
<text text-anchor="start" x="557.22" y="-269" font-family="Helvetica,sans-Serif" font-size="10.00">media&#45;libs</text>
<polygon fill="none" stroke="blue" points="525,-239 525,-261 635,-261 635,-239 525,-239"/>
<text text-anchor="start" x="563.32" y="-247" font-family="Helvetica,sans-Serif" font-size="10.00">phonon</text>
<polygon fill="none" stroke="blue" points="525,-217 525,-239 635,-239 635,-217 525,-217"/>
<text text-anchor="start" x="551.94" y="-225" font-family="Helvetica,sans-Serif" font-size="10.00">greaterequal</text>
<polygon fill="none" stroke="blue" points="525,-195 525,-217 635,-217 635,-195 525,-195"/>
<text text-anchor="start" x="566.1" y="-203" font-family="Helvetica,sans-Serif" font-size="10.00">4.10.0</text>
</g>
<!-- id&#45;&gt;dependency323918 -->
<g id="edge4" class="edge">
<title>id:e&#45;&gt;dependency323918:w</title>
<path fill="none" stroke="black" d="M305,-380C372.71,-380 343.37,-272.77 393.26,-253.09"/>
<ellipse fill="none" stroke="black" cx="407.06" cy="-250.69" rx="4" ry="4"/>
<polygon fill="black" stroke="black" points="403.12,-251.37 394.04,-257.52 398.19,-252.23 393.27,-253.08 393.27,-253.08 393.27,-253.08 398.19,-252.23 392.5,-248.65 403.12,-251.37 403.12,-251.37"/>
</g>
<!-- dependency323919 -->
<g id="node6" class="node">
<title>dependency323919</title>
<polygon fill="none" stroke="blue" points="420,-71 420,-169 525,-169 525,-71 420,-71"/>
<text text-anchor="start" x="450.82" y="-117" font-family="Helvetica,sans-Serif" font-size="10.00">pack_dep</text>
<polygon fill="none" stroke="blue" points="525,-147 525,-169 635,-169 635,-147 525,-147"/>
<text text-anchor="start" x="574.44" y="-155" font-family="Helvetica,sans-Serif" font-size="10.00">no</text>
<polygon fill="none" stroke="blue" points="525,-125 525,-147 635,-147 635,-125 525,-125"/>
<text text-anchor="start" x="552.77" y="-133" font-family="Helvetica,sans-Serif" font-size="10.00">media&#45;video</text>
<polygon fill="none" stroke="blue" points="525,-103 525,-125 635,-125 635,-103 525,-103"/>
<text text-anchor="start" x="573.89" y="-111" font-family="Helvetica,sans-Serif" font-size="10.00">vlc</text>
<polygon fill="none" stroke="blue" points="525,-81 525,-103 635,-103 635,-81 525,-81"/>
<text text-anchor="start" x="568.88" y="-89" font-family="Helvetica,sans-Serif" font-size="10.00">none</text>
<polygon fill="none" stroke="blue" points="525,-71 525,-81 635,-81 635,-71 525,-71"/>
</g>
<!-- id&#45;&gt;dependency323919 -->
<g id="edge5" class="edge">
<title>id:e&#45;&gt;dependency323919:w</title>
<path fill="none" stroke="black" d="M305,-380C422.97,-380 301.11,-147.66 392.85,-122.25"/>
<ellipse fill="none" stroke="black" cx="407.03" cy="-120.49" rx="4" ry="4"/>
<polygon fill="black" stroke="black" points="403.06,-120.98 393.69,-126.68 398.1,-121.6 393.14,-122.21 393.14,-122.21 393.14,-122.21 398.1,-121.6 392.58,-117.75 403.06,-120.98 403.06,-120.98"/>
</g>
<!-- choiceportage10010111845113116471131169911111410145534649504651 -->
<g id="node7" class="node">
<title>choiceportage10010111845113116471131169911111410145534649504651</title>
<g id="a_node7"><a xlink:href="../dev-qt/qtcore-5.12.3.svg" xlink:title="portage://dev&#45;qt/qtcore&#45;5.12.3">
<ellipse fill="none" stroke="red" cx="900" cy="-736" rx="144" ry="18"/>
<text text-anchor="middle" x="900" y="-733" font-family="Helvetica,sans-Serif" font-size="10.00">portage://dev&#45;qt/qtcore&#45;5.12.3</text>
</a>
</g>
</g>
<!-- dependency323915&#45;&gt;choiceportage10010111845113116471131169911111410145534649504651 -->
<g id="edge6" class="edge">
<title>dependency323915:e&#45;&gt;choiceportage10010111845113116471131169911111410145534649504651:w</title>
<path fill="none" stroke="black" stroke-dasharray="1,5" d="M649,-628C712.58,-628 690.58,-724.51 744.79,-735.07"/>
<polygon fill="black" stroke="black" points="755,-736 744.63,-739.57 750.02,-735.54 745.04,-735.09 745.04,-735.09 745.04,-735.09 750.02,-735.54 745.45,-730.61 755,-736 755,-736"/>
</g>
<!-- choiceportage100101118451131164711311699111114101455346495046534511449 -->
<g id="node8" class="node">
<title>choiceportage100101118451131164711311699111114101455346495046534511449</title>
<g id="a_node8"><a xlink:href="../dev-qt/qtcore-5.12.5-r1.svg" xlink:title="portage://dev&#45;qt/qtcore&#45;5.12.5&#45;r1">
<ellipse fill="none" stroke="red" cx="900" cy="-682" rx="144" ry="18"/>
<text text-anchor="middle" x="900" y="-679" font-family="Helvetica,sans-Serif" font-size="10.00">portage://dev&#45;qt/qtcore&#45;5.12.5&#45;r1</text>
</a>
</g>
</g>
<!-- dependency323915&#45;&gt;choiceportage100101118451131164711311699111114101455346495046534511449 -->
<g id="edge7" class="edge">
<title>dependency323915:e&#45;&gt;choiceportage100101118451131164711311699111114101455346495046534511449:w</title>
<path fill="none" stroke="black" stroke-dasharray="1,5" d="M649,-628C698.26,-628 701.85,-674.87 744.86,-681.28"/>
<polygon fill="black" stroke="black" points="755,-682 744.71,-685.78 750.01,-681.64 745.03,-681.29 745.03,-681.29 745.03,-681.29 750.01,-681.64 745.35,-676.8 755,-682 755,-682"/>
</g>
<!-- choiceportage10010111845113116471131169911111410145534649514650 -->
<g id="node9" class="node">
<title>choiceportage10010111845113116471131169911111410145534649514650</title>
<g id="a_node9"><a xlink:href="../dev-qt/qtcore-5.13.2.svg" xlink:title="portage://dev&#45;qt/qtcore&#45;5.13.2">
<ellipse fill="none" stroke="red" cx="900" cy="-628" rx="144" ry="18"/>
<text text-anchor="middle" x="900" y="-625" font-family="Helvetica,sans-Serif" font-size="10.00">portage://dev&#45;qt/qtcore&#45;5.13.2</text>
</a>
</g>
</g>
<!-- dependency323915&#45;&gt;choiceportage10010111845113116471131169911111410145534649514650 -->
<g id="edge8" class="edge">
<title>dependency323915:e&#45;&gt;choiceportage10010111845113116471131169911111410145534649514650:w</title>
<path fill="none" stroke="black" stroke-dasharray="1,5" d="M649,-628C692.43,-628 705.83,-628 744.57,-628"/>
<polygon fill="black" stroke="black" points="755,-628 745,-632.5 750,-628 745,-628 745,-628 745,-628 750,-628 745,-623.5 755,-628 755,-628"/>
</g>
<!-- choiceportage1001011184511311647113116103117105455346495046514511449 -->
<g id="node10" class="node">
<title>choiceportage1001011184511311647113116103117105455346495046514511449</title>
<g id="a_node10"><a xlink:href="../dev-qt/qtgui-5.12.3-r1.svg" xlink:title="portage://dev&#45;qt/qtgui&#45;5.12.3&#45;r1">
<ellipse fill="none" stroke="red" cx="900" cy="-574" rx="144" ry="18"/>
<text text-anchor="middle" x="900" y="-571" font-family="Helvetica,sans-Serif" font-size="10.00">portage://dev&#45;qt/qtgui&#45;5.12.3&#45;r1</text>
</a>
</g>
</g>
<!-- dependency323916&#45;&gt;choiceportage1001011184511311647113116103117105455346495046514511449 -->
<g id="edge9" class="edge">
<title>dependency323916:e&#45;&gt;choiceportage1001011184511311647113116103117105455346495046514511449:w</title>
<path fill="none" stroke="black" stroke-dasharray="1,5" d="M649,-504C701.82,-504 699.17,-565.27 744.84,-573.17"/>
<polygon fill="black" stroke="black" points="755,-574 744.67,-577.67 750.02,-573.59 745.03,-573.18 745.03,-573.18 745.03,-573.18 750.02,-573.59 745.4,-568.7 755,-574 755,-574"/>
</g>
<!-- choiceportage100101118451131164711311610311710545534649504653 -->
<g id="node11" class="node">
<title>choiceportage100101118451131164711311610311710545534649504653</title>
<g id="a_node11"><a xlink:href="../dev-qt/qtgui-5.12.5.svg" xlink:title="portage://dev&#45;qt/qtgui&#45;5.12.5">
<ellipse fill="none" stroke="red" cx="900" cy="-520" rx="144" ry="18"/>
<text text-anchor="middle" x="900" y="-517" font-family="Helvetica,sans-Serif" font-size="10.00">portage://dev&#45;qt/qtgui&#45;5.12.5</text>
</a>
</g>
</g>
<!-- dependency323916&#45;&gt;choiceportage100101118451131164711311610311710545534649504653 -->
<g id="edge10" class="edge">
<title>dependency323916:e&#45;&gt;choiceportage100101118451131164711311610311710545534649504653:w</title>
<path fill="none" stroke="black" stroke-dasharray="1,5" d="M649,-504C693.11,-504 705.56,-517.71 744.97,-519.75"/>
<polygon fill="black" stroke="black" points="755,-520 744.89,-524.25 750,-519.87 745,-519.75 745,-519.75 745,-519.75 750,-519.87 745.12,-515.25 755,-520 755,-520"/>
</g>
<!-- choiceportage100101118451131164711311610311710545534649514650 -->
<g id="node12" class="node">
<title>choiceportage100101118451131164711311610311710545534649514650</title>
<g id="a_node12"><a xlink:href="../dev-qt/qtgui-5.13.2.svg" xlink:title="portage://dev&#45;qt/qtgui&#45;5.13.2">
<ellipse fill="none" stroke="red" cx="900" cy="-466" rx="144" ry="18"/>
<text text-anchor="middle" x="900" y="-463" font-family="Helvetica,sans-Serif" font-size="10.00">portage://dev&#45;qt/qtgui&#45;5.13.2</text>
</a>
</g>
</g>
<!-- dependency323916&#45;&gt;choiceportage100101118451131164711311610311710545534649514650 -->
<g id="edge11" class="edge">
<title>dependency323916:e&#45;&gt;choiceportage100101118451131164711311610311710545534649514650:w</title>
<path fill="none" stroke="black" stroke-dasharray="1,5" d="M649,-504C695.43,-504 703.87,-471.29 744.81,-466.57"/>
<polygon fill="black" stroke="black" points="755,-466 745.27,-471.05 750.01,-466.28 745.02,-466.56 745.02,-466.56 745.02,-466.56 750.01,-466.28 744.77,-462.06 755,-466 755,-466"/>
</g>
<!-- choiceportage100101118451131164711311611910510010310111611545534649504651 -->
<g id="node13" class="node">
<title>choiceportage100101118451131164711311611910510010310111611545534649504651</title>
<g id="a_node13"><a xlink:href="../dev-qt/qtwidgets-5.12.3.svg" xlink:title="portage://dev&#45;qt/qtwidgets&#45;5.12.3">
<ellipse fill="none" stroke="red" cx="900" cy="-412" rx="144" ry="18"/>
<text text-anchor="middle" x="900" y="-409" font-family="Helvetica,sans-Serif" font-size="10.00">portage://dev&#45;qt/qtwidgets&#45;5.12.3</text>
</a>
</g>
</g>
<!-- dependency323917&#45;&gt;choiceportage100101118451131164711311611910510010310111611545534649504651 -->
<g id="edge12" class="edge">
<title>dependency323917:e&#45;&gt;choiceportage100101118451131164711311611910510010310111611545534649504651:w</title>
<path fill="none" stroke="black" stroke-dasharray="1,5" d="M649,-380C694.65,-380 704.48,-407.54 744.95,-411.52"/>
<polygon fill="black" stroke="black" points="755,-412 744.8,-416.02 750.01,-411.76 745.01,-411.53 745.01,-411.53 745.01,-411.53 750.01,-411.76 745.22,-407.03 755,-412 755,-412"/>
</g>
<!-- choiceportage1001011184511311647113116119105100103101116115455346495046534511449 -->
<g id="node14" class="node">
<title>choiceportage1001011184511311647113116119105100103101116115455346495046534511449</title>
<g id="a_node14"><a xlink:href="../dev-qt/qtwidgets-5.12.5-r1.svg" xlink:title="portage://dev&#45;qt/qtwidgets&#45;5.12.5&#45;r1">
<ellipse fill="none" stroke="red" cx="900" cy="-358" rx="144" ry="18"/>
<text text-anchor="middle" x="900" y="-355" font-family="Helvetica,sans-Serif" font-size="10.00">portage://dev&#45;qt/qtwidgets&#45;5.12.5&#45;r1</text>
</a>
</g>
</g>
<!-- dependency323917&#45;&gt;choiceportage1001011184511311647113116119105100103101116115455346495046534511449 -->
<g id="edge13" class="edge">
<title>dependency323917:e&#45;&gt;choiceportage1001011184511311647113116119105100103101116115455346495046534511449:w</title>
<path fill="none" stroke="black" stroke-dasharray="1,5" d="M649,-380C693.54,-380 705.22,-361.14 744.89,-358.35"/>
<polygon fill="black" stroke="black" points="755,-358 745.16,-362.84 750,-358.17 745.01,-358.34 745.01,-358.34 745.01,-358.34 750,-358.17 744.85,-353.84 755,-358 755,-358"/>
</g>
<!-- choiceportage100101118451131164711311611910510010310111611545534649514650 -->
<g id="node15" class="node">
<title>choiceportage100101118451131164711311611910510010310111611545534649514650</title>
<g id="a_node15"><a xlink:href="../dev-qt/qtwidgets-5.13.2.svg" xlink:title="portage://dev&#45;qt/qtwidgets&#45;5.13.2">
<ellipse fill="none" stroke="red" cx="900" cy="-304" rx="144" ry="18"/>
<text text-anchor="middle" x="900" y="-301" font-family="Helvetica,sans-Serif" font-size="10.00">portage://dev&#45;qt/qtwidgets&#45;5.13.2</text>
</a>
</g>
</g>
<!-- dependency323917&#45;&gt;choiceportage100101118451131164711311611910510010310111611545534649514650 -->
<g id="edge14" class="edge">
<title>dependency323917:e&#45;&gt;choiceportage100101118451131164711311611910510010310111611545534649514650:w</title>
<path fill="none" stroke="black" stroke-dasharray="1,5" d="M649,-380C703.35,-380 698.01,-313.2 744.89,-304.85"/>
<polygon fill="black" stroke="black" points="755,-304 745.41,-309.33 750.02,-304.42 745.04,-304.84 745.04,-304.84 745.04,-304.84 750.02,-304.42 744.66,-300.36 755,-304 755,-304"/>
</g>
<!-- choiceportage1091011001059745108105981154711210411111011111045524649484650 -->
<g id="node16" class="node">
<title>choiceportage1091011001059745108105981154711210411111011111045524649484650</title>
<g id="a_node16"><a xlink:href="../media-libs/phonon-4.10.2.svg" xlink:title="portage://media&#45;libs/phonon&#45;4.10.2">
<ellipse fill="none" stroke="red" cx="900" cy="-250" rx="144" ry="18"/>
<text text-anchor="middle" x="900" y="-247" font-family="Helvetica,sans-Serif" font-size="10.00">portage://media&#45;libs/phonon&#45;4.10.2</text>
</a>
</g>
</g>
<!-- dependency323918&#45;&gt;choiceportage1091011001059745108105981154711210411111011111045524649484650 -->
<g id="edge15" class="edge">
<title>dependency323918:e&#45;&gt;choiceportage1091011001059745108105981154711210411111011111045524649484650:w</title>
<path fill="none" stroke="black" stroke-dasharray="1,5" d="M649,-250C692.43,-250 705.83,-250 744.57,-250"/>
<polygon fill="black" stroke="black" points="755,-250 745,-254.5 750,-250 745,-250 745,-250 745,-250 750,-250 745,-245.5 755,-250 755,-250"/>
</g>
<!-- choiceportage1091011001059745108105981154711210411111011111045524649494649 -->
<g id="node17" class="node">
<title>choiceportage1091011001059745108105981154711210411111011111045524649494649</title>
<g id="a_node17"><a xlink:href="../media-libs/phonon-4.11.1.svg" xlink:title="portage://media&#45;libs/phonon&#45;4.11.1">
<ellipse fill="none" stroke="red" cx="900" cy="-196" rx="144" ry="18"/>
<text text-anchor="middle" x="900" y="-193" font-family="Helvetica,sans-Serif" font-size="10.00">portage://media&#45;libs/phonon&#45;4.11.1</text>
</a>
</g>
</g>
<!-- dependency323918&#45;&gt;choiceportage1091011001059745108105981154711210411111011111045524649494649 -->
<g id="edge16" class="edge">
<title>dependency323918:e&#45;&gt;choiceportage1091011001059745108105981154711210411111011111045524649494649:w</title>
<path fill="none" stroke="black" stroke-dasharray="1,5" d="M649,-250C698.26,-250 701.85,-203.13 744.86,-196.72"/>
<polygon fill="black" stroke="black" points="755,-196 745.35,-201.2 750.01,-196.36 745.03,-196.71 745.03,-196.71 745.03,-196.71 750.01,-196.36 744.71,-192.22 755,-196 755,-196"/>
</g>
<!-- choiceportage10910110010597451181051001011114711810899455146484656 -->
<g id="node18" class="node">
<title>choiceportage10910110010597451181051001011114711810899455146484656</title>
<g id="a_node18"><a xlink:href="../media-video/vlc-3.0.8.svg" xlink:title="portage://media&#45;video/vlc&#45;3.0.8">
<ellipse fill="none" stroke="red" cx="900" cy="-142" rx="144" ry="18"/>
<text text-anchor="middle" x="900" y="-139" font-family="Helvetica,sans-Serif" font-size="10.00">portage://media&#45;video/vlc&#45;3.0.8</text>
</a>
</g>
</g>
<!-- dependency323919&#45;&gt;choiceportage10910110010597451181051001011114711810899455146484656 -->
<g id="edge17" class="edge">
<title>dependency323919:e&#45;&gt;choiceportage10910110010597451181051001011114711810899455146484656:w</title>
<path fill="none" stroke="black" stroke-dasharray="1,5" d="M649,-120C693.54,-120 705.22,-138.86 744.89,-141.65"/>
<polygon fill="black" stroke="black" points="755,-142 744.85,-146.16 750,-141.83 745.01,-141.66 745.01,-141.66 745.01,-141.66 750,-141.83 745.16,-137.16 755,-142 755,-142"/>
</g>
<!-- choiceportage10910110010597451181051001011114711810899455146484657575757 -->
<g id="node19" class="node">
<title>choiceportage10910110010597451181051001011114711810899455146484657575757</title>
<g id="a_node19"><a xlink:href="../media-video/vlc-3.0.9999.svg" xlink:title="portage://media&#45;video/vlc&#45;3.0.9999">
<ellipse fill="none" stroke="red" cx="900" cy="-88" rx="144" ry="18"/>
<text text-anchor="middle" x="900" y="-85" font-family="Helvetica,sans-Serif" font-size="10.00">portage://media&#45;video/vlc&#45;3.0.9999</text>
</a>
</g>
</g>
<!-- dependency323919&#45;&gt;choiceportage10910110010597451181051001011114711810899455146484657575757 -->
<g id="edge18" class="edge">
<title>dependency323919:e&#45;&gt;choiceportage10910110010597451181051001011114711810899455146484657575757:w</title>
<path fill="none" stroke="black" stroke-dasharray="1,5" d="M649,-120C694.65,-120 704.48,-92.46 744.95,-88.48"/>
<polygon fill="black" stroke="black" points="755,-88 745.22,-92.97 750.01,-88.24 745.01,-88.47 745.01,-88.47 745.01,-88.47 750.01,-88.24 744.8,-83.98 755,-88 755,-88"/>
</g>
<!-- choiceportage109101100105974511810510010111147118108994557575757 -->
<g id="node20" class="node">
<title>choiceportage109101100105974511810510010111147118108994557575757</title>
<g id="a_node20"><a xlink:href="../media-video/vlc-9999.svg" xlink:title="portage://media&#45;video/vlc&#45;9999">
<ellipse fill="none" stroke="red" cx="900" cy="-34" rx="144" ry="18"/>
<text text-anchor="middle" x="900" y="-31" font-family="Helvetica,sans-Serif" font-size="10.00">portage://media&#45;video/vlc&#45;9999</text>
</a>
</g>
</g>
<!-- dependency323919&#45;&gt;choiceportage109101100105974511810510010111147118108994557575757 -->
<g id="edge19" class="edge">
<title>dependency323919:e&#45;&gt;choiceportage109101100105974511810510010111147118108994557575757:w</title>
<path fill="none" stroke="black" stroke-dasharray="1,5" d="M649,-120C705.99,-120 695.91,-44.1 744.78,-34.91"/>
<polygon fill="black" stroke="black" points="755,-34 745.44,-39.37 750.02,-34.44 745.04,-34.88 745.04,-34.88 745.04,-34.88 750.02,-34.44 744.64,-30.4 755,-34 755,-34"/>
</g>
</g>
</svg>
