<?xml version="1.0" encoding="UTF-8" standalone="no"?>
<!DOCTYPE svg PUBLIC "-//W3C//DTD SVG 1.1//EN"
 "http://www.w3.org/Graphics/SVG/1.1/DTD/svg11.dtd">
<!-- Generated by graphviz version 9.0.0 (20230911.1827)
 -->
<!-- Title: prolog Pages: 1 -->
<svg width="1333pt" height="1282pt"
 viewBox="0.00 0.00 1333.00 1282.00" xmlns="http://www.w3.org/2000/svg" xmlns:xlink="http://www.w3.org/1999/xlink">
<g id="graph0" class="graph" transform="scale(1 1) rotate(0) translate(4 1278)">
<title>prolog</title>
<polygon fill="white" stroke="none" points="-4,4 -4,-1278 1329,-1278 1329,4 -4,4"/>
<g id="clust1" class="cluster">
<title>cluster_leftcol</title>
<polygon fill="none" stroke="gray" points="8,-605 8,-676 312,-676 312,-605 8,-605"/>
<text text-anchor="start" x="147.25" y="-663.5" font-family="Helvetica,sans-Serif" font-style="italic" font-size="10.00">ebuild</text>
</g>
<g id="clust2" class="cluster">
<title>cluster_midcol</title>
<polygon fill="none" stroke="gray" points="396,-8 396,-1266 929,-1266 929,-8 396,-8"/>
<text text-anchor="start" x="632.5" y="-1253.5" font-family="Helvetica,sans-Serif" font-style="italic" font-size="10.00">dependencies</text>
</g>
<g id="clust3" class="cluster">
<title>cluster_compile</title>
<polygon fill="#eeeeee" stroke="gray" points="404,-566 404,-1239 921,-1239 921,-566 404,-566"/>
<text text-anchor="start" x="645.62" y="-1226.5" font-family="Helvetica,sans-Serif" font-style="italic" font-size="10.00">compile</text>
</g>
<g id="clust15" class="cluster">
<title>cluster_run</title>
<polygon fill="#eeeeee" stroke="gray" points="404,-16 404,-558 921,-558 921,-16 404,-16"/>
<text text-anchor="start" x="655.75" y="-545.5" font-family="Helvetica,sans-Serif" font-style="italic" font-size="10.00">run</text>
</g>
<g id="clust24" class="cluster">
<title>cluster_choices</title>
<polygon fill="none" stroke="gray" points="1013,-381 1013,-1200 1317,-1200 1317,-381 1013,-381"/>
<text text-anchor="start" x="1141.38" y="-1187.5" font-family="Helvetica,sans-Serif" font-style="italic" font-size="10.00">candidates</text>
</g>
<!-- id -->
<g id="node1" class="node">
<title>id</title>
<g id="a_node1"><a xlink:href="../media-libs/urt-3.1b-r3.svg" xlink:title="portage://media&#45;libs/urt&#45;3.1b&#45;r3">
<ellipse fill="none" stroke="red" cx="160" cy="-631" rx="144" ry="18"/>
<text text-anchor="middle" x="160" y="-627.12" font-family="Helvetica,sans-Serif" font-size="10.00">portage://media&#45;libs/urt&#45;3.1b&#45;r3</text>
</a>
</g>
</g>
<!-- dependency299209 -->
<g id="node2" class="node">
<title>dependency299209</title>
<polygon fill="none" stroke="red" points="424.5,-1074 424.5,-1116 513.5,-1116 513.5,-1074 424.5,-1074"/>
<text text-anchor="start" x="435.25" y="-1091.12" font-family="Helvetica,sans-Serif" font-size="10.00">use_conditional</text>
<polygon fill="none" stroke="red" points="513.5,-1095 513.5,-1116 556.5,-1116 556.5,-1095 513.5,-1095"/>
<text text-anchor="start" x="518.12" y="-1101.5" font-family="Helvetica,sans-Serif" font-size="10.00">positive</text>
<polygon fill="none" stroke="red" points="513.5,-1074 513.5,-1095 556.5,-1095 556.5,-1074 513.5,-1074"/>
<text text-anchor="start" x="531.62" y="-1080.5" font-family="Helvetica,sans-Serif" font-size="10.00">X</text>
</g>
<!-- id&#45;&gt;dependency299209 -->
<g id="edge2" class="edge">
<title>id:e&#45;&gt;dependency299209:w</title>
<path fill="none" stroke="black" d="M305,-631C513.16,-631 214.67,-1078.39 404.52,-1094.55"/>
<polygon fill="black" stroke="black" points="414.28,-1094.95 404.11,-1099.04 410.5,-1094.8 404.29,-1094.54 404.29,-1094.54 404.29,-1094.54 410.5,-1094.8 404.47,-1090.05 414.28,-1094.95"/>
</g>
<!-- dependency299211 -->
<g id="node4" class="node">
<title>dependency299211</title>
<polygon fill="none" stroke="red" points="424.5,-947 424.5,-989 513.5,-989 513.5,-947 424.5,-947"/>
<text text-anchor="start" x="435.25" y="-964.12" font-family="Helvetica,sans-Serif" font-size="10.00">use_conditional</text>
<polygon fill="none" stroke="red" points="513.5,-968 513.5,-989 556.5,-989 556.5,-968 513.5,-968"/>
<text text-anchor="start" x="518.12" y="-974.5" font-family="Helvetica,sans-Serif" font-size="10.00">positive</text>
<polygon fill="none" stroke="red" points="513.5,-947 513.5,-968 556.5,-968 556.5,-947 513.5,-947"/>
<text text-anchor="start" x="531.62" y="-953.5" font-family="Helvetica,sans-Serif" font-size="10.00">X</text>
</g>
<!-- id&#45;&gt;dependency299211 -->
<g id="edge4" class="edge">
<title>id:e&#45;&gt;dependency299211:w</title>
<path fill="none" stroke="black" d="M305,-631C458.78,-631 267.66,-951.75 404.59,-967.41"/>
<polygon fill="black" stroke="black" points="414.28,-967.93 404.05,-971.88 410.51,-967.73 404.3,-967.39 404.3,-967.39 404.3,-967.39 410.51,-967.73 404.54,-962.9 414.28,-967.93"/>
</g>
<!-- dependency299213 -->
<g id="node6" class="node">
<title>dependency299213</title>
<polygon fill="none" stroke="red" points="424.5,-610 424.5,-652 513.5,-652 513.5,-610 424.5,-610"/>
<text text-anchor="start" x="435.25" y="-627.12" font-family="Helvetica,sans-Serif" font-size="10.00">use_conditional</text>
<polygon fill="none" stroke="red" points="513.5,-631 513.5,-652 556.5,-652 556.5,-631 513.5,-631"/>
<text text-anchor="start" x="518.12" y="-637.5" font-family="Helvetica,sans-Serif" font-size="10.00">positive</text>
<polygon fill="none" stroke="red" points="513.5,-610 513.5,-631 556.5,-631 556.5,-610 513.5,-610"/>
<text text-anchor="start" x="529.75" y="-616.5" font-family="Helvetica,sans-Serif" font-size="10.00">gif</text>
</g>
<!-- id&#45;&gt;dependency299213 -->
<g id="edge6" class="edge">
<title>id:e&#45;&gt;dependency299213:w</title>
<path fill="none" stroke="black" d="M305,-631C350.18,-631 364.19,-631 404.37,-631"/>
<polygon fill="black" stroke="black" points="414.28,-631 404.28,-635.5 410.5,-631 404.28,-631 404.28,-631 404.28,-631 410.5,-631 404.28,-626.5 414.28,-631"/>
</g>
<!-- dependency299215 -->
<g id="node8" class="node">
<title>dependency299215</title>
<polygon fill="none" stroke="red" points="420,-824 420,-866 509,-866 509,-824 420,-824"/>
<text text-anchor="start" x="430.75" y="-841.12" font-family="Helvetica,sans-Serif" font-size="10.00">use_conditional</text>
<polygon fill="none" stroke="red" points="509,-845 509,-866 561,-866 561,-845 509,-845"/>
<text text-anchor="start" x="518.12" y="-851.5" font-family="Helvetica,sans-Serif" font-size="10.00">positive</text>
<polygon fill="none" stroke="red" points="509,-824 509,-845 561,-845 561,-824 509,-824"/>
<text text-anchor="start" x="513.62" y="-830.5" font-family="Helvetica,sans-Serif" font-size="10.00">postscript</text>
</g>
<!-- id&#45;&gt;dependency299215 -->
<g id="edge8" class="edge">
<title>id:e&#45;&gt;dependency299215:w</title>
<path fill="none" stroke="black" d="M305,-631C407.3,-631 312.83,-829.41 400.53,-844.14"/>
<polygon fill="black" stroke="black" points="410.29,-844.9 399.96,-848.61 406.52,-844.61 400.32,-844.12 400.32,-844.12 400.32,-844.12 406.52,-844.61 400.67,-839.63 410.29,-844.9"/>
</g>
<!-- dependency299217 -->
<g id="node10" class="node">
<title>dependency299217</title>
<polygon fill="none" stroke="red" points="424.5,-709 424.5,-751 513.5,-751 513.5,-709 424.5,-709"/>
<text text-anchor="start" x="435.25" y="-726.12" font-family="Helvetica,sans-Serif" font-size="10.00">use_conditional</text>
<polygon fill="none" stroke="red" points="513.5,-730 513.5,-751 556.5,-751 556.5,-730 513.5,-730"/>
<text text-anchor="start" x="518.12" y="-736.5" font-family="Helvetica,sans-Serif" font-size="10.00">positive</text>
<polygon fill="none" stroke="red" points="513.5,-709 513.5,-730 556.5,-730 556.5,-709 513.5,-709"/>
<text text-anchor="start" x="529.38" y="-715.5" font-family="Helvetica,sans-Serif" font-size="10.00">tiff</text>
</g>
<!-- id&#45;&gt;dependency299217 -->
<g id="edge10" class="edge">
<title>id:e&#45;&gt;dependency299217:w</title>
<path fill="none" stroke="black" d="M305,-631C366.95,-631 351.83,-718.37 404.44,-728.96"/>
<polygon fill="black" stroke="black" points="414.29,-729.89 403.91,-733.42 410.52,-729.53 404.33,-728.94 404.33,-728.94 404.33,-728.94 410.52,-729.53 404.75,-724.46 414.29,-729.89"/>
</g>
<!-- dependency299219 -->
<g id="node12" class="node">
<title>dependency299219</title>
<polygon fill="none" stroke="red" points="424.5,-471 424.5,-513 513.5,-513 513.5,-471 424.5,-471"/>
<text text-anchor="start" x="435.25" y="-488.12" font-family="Helvetica,sans-Serif" font-size="10.00">use_conditional</text>
<polygon fill="none" stroke="red" points="513.5,-492 513.5,-513 556.5,-513 556.5,-492 513.5,-492"/>
<text text-anchor="start" x="518.12" y="-498.5" font-family="Helvetica,sans-Serif" font-size="10.00">positive</text>
<polygon fill="none" stroke="red" points="513.5,-471 513.5,-492 556.5,-492 556.5,-471 513.5,-471"/>
<text text-anchor="start" x="531.62" y="-477.5" font-family="Helvetica,sans-Serif" font-size="10.00">X</text>
</g>
<!-- id&#45;&gt;dependency299219 -->
<g id="edge12" class="edge">
<title>id:e&#45;&gt;dependency299219:w</title>
<path fill="none" stroke="black" d="M305,-631C380.84,-631 340.09,-502.65 406.81,-492.62"/>
<ellipse fill="none" stroke="black" cx="411.01" cy="-492.32" rx="4" ry="4"/>
</g>
<!-- dependency299221 -->
<g id="node14" class="node">
<title>dependency299221</title>
<polygon fill="none" stroke="red" points="424.5,-74 424.5,-116 513.5,-116 513.5,-74 424.5,-74"/>
<text text-anchor="start" x="435.25" y="-91.12" font-family="Helvetica,sans-Serif" font-size="10.00">use_conditional</text>
<polygon fill="none" stroke="red" points="513.5,-95 513.5,-116 556.5,-116 556.5,-95 513.5,-95"/>
<text text-anchor="start" x="518.12" y="-101.5" font-family="Helvetica,sans-Serif" font-size="10.00">positive</text>
<polygon fill="none" stroke="red" points="513.5,-74 513.5,-95 556.5,-95 556.5,-74 513.5,-74"/>
<text text-anchor="start" x="529.75" y="-80.5" font-family="Helvetica,sans-Serif" font-size="10.00">gif</text>
</g>
<!-- id&#45;&gt;dependency299221 -->
<g id="edge14" class="edge">
<title>id:e&#45;&gt;dependency299221:w</title>
<path fill="none" stroke="black" d="M305,-631C545.14,-631 181.71,-108.52 406.53,-95.26"/>
<ellipse fill="none" stroke="black" cx="411" cy="-95.13" rx="4" ry="4"/>
</g>
<!-- dependency299223 -->
<g id="node16" class="node">
<title>dependency299223</title>
<polygon fill="none" stroke="red" points="420,-375 420,-417 509,-417 509,-375 420,-375"/>
<text text-anchor="start" x="430.75" y="-392.12" font-family="Helvetica,sans-Serif" font-size="10.00">use_conditional</text>
<polygon fill="none" stroke="red" points="509,-396 509,-417 561,-417 561,-396 509,-396"/>
<text text-anchor="start" x="518.12" y="-402.5" font-family="Helvetica,sans-Serif" font-size="10.00">positive</text>
<polygon fill="none" stroke="red" points="509,-375 509,-396 561,-396 561,-375 509,-375"/>
<text text-anchor="start" x="513.62" y="-381.5" font-family="Helvetica,sans-Serif" font-size="10.00">postscript</text>
</g>
<!-- id&#45;&gt;dependency299223 -->
<g id="edge16" class="edge">
<title>id:e&#45;&gt;dependency299223:w</title>
<path fill="none" stroke="black" d="M305,-631C416.53,-631 303.37,-408.68 402.62,-396.52"/>
<ellipse fill="none" stroke="black" cx="407.01" cy="-396.26" rx="4" ry="4"/>
</g>
<!-- dependency299225 -->
<g id="node18" class="node">
<title>dependency299225</title>
<polygon fill="none" stroke="red" points="424.5,-252 424.5,-294 513.5,-294 513.5,-252 424.5,-252"/>
<text text-anchor="start" x="435.25" y="-269.12" font-family="Helvetica,sans-Serif" font-size="10.00">use_conditional</text>
<polygon fill="none" stroke="red" points="513.5,-273 513.5,-294 556.5,-294 556.5,-273 513.5,-273"/>
<text text-anchor="start" x="518.12" y="-279.5" font-family="Helvetica,sans-Serif" font-size="10.00">positive</text>
<polygon fill="none" stroke="red" points="513.5,-252 513.5,-273 556.5,-273 556.5,-252 513.5,-252"/>
<text text-anchor="start" x="529.38" y="-258.5" font-family="Helvetica,sans-Serif" font-size="10.00">tiff</text>
</g>
<!-- id&#45;&gt;dependency299225 -->
<g id="edge18" class="edge">
<title>id:e&#45;&gt;dependency299225:w</title>
<path fill="none" stroke="black" d="M305,-631C468.43,-631 257.11,-286.16 406.63,-273.37"/>
<ellipse fill="none" stroke="black" cx="411" cy="-273.19" rx="4" ry="4"/>
</g>
<!-- dependency299210 -->
<g id="node3" class="node">
<title>dependency299210</title>
<polygon fill="none" stroke="blue" points="685,-1102.5 685,-1207.5 789,-1207.5 789,-1102.5 685,-1102.5"/>
<text text-anchor="start" x="716" y="-1151.12" font-family="Helvetica,sans-Serif" font-size="10.00">pack_dep</text>
<polygon fill="none" stroke="blue" points="789,-1186.5 789,-1207.5 899,-1207.5 899,-1186.5 789,-1186.5"/>
<text text-anchor="start" x="838.75" y="-1193" font-family="Helvetica,sans-Serif" font-size="10.00">no</text>
<polygon fill="none" stroke="blue" points="789,-1165.5 789,-1186.5 899,-1186.5 899,-1165.5 789,-1165.5"/>
<text text-anchor="start" x="824.12" y="-1172" font-family="Helvetica,sans-Serif" font-size="10.00">x11&#45;base</text>
<polygon fill="none" stroke="blue" points="789,-1144.5 789,-1165.5 899,-1165.5 899,-1144.5 789,-1144.5"/>
<text text-anchor="start" x="822.25" y="-1151" font-family="Helvetica,sans-Serif" font-size="10.00">xorg&#45;proto</text>
<polygon fill="none" stroke="blue" points="789,-1123.5 789,-1144.5 899,-1144.5 899,-1123.5 789,-1123.5"/>
<text text-anchor="start" x="833.5" y="-1130" font-family="Helvetica,sans-Serif" font-size="10.00">none</text>
<polygon fill="none" stroke="blue" points="789,-1102.5 789,-1123.5 899,-1123.5 899,-1102.5 789,-1102.5"/>
<text text-anchor="start" x="838" y="-1109" font-family="Helvetica,sans-Serif" font-size="10.00">[,,]</text>
</g>
<!-- dependency299209&#45;&gt;dependency299210 -->
<g id="edge1" class="edge">
<title>dependency299209:e&#45;&gt;dependency299210:w</title>
<path fill="none" stroke="black" stroke-dasharray="5,2" d="M565.5,-1095C617.82,-1095 620.59,-1146.86 665.94,-1154.15"/>
<polygon fill="black" stroke="black" points="675.79,-1154.91 665.47,-1158.63 672.01,-1154.62 665.81,-1154.14 665.81,-1154.14 665.81,-1154.14 672.01,-1154.62 666.16,-1149.66 675.79,-1154.91"/>
</g>
<!-- choice1204949459897115101471201111141034511211411111611145504850524649 -->
<g id="node20" class="node">
<title>choice1204949459897115101471201111141034511211411111611145504850524649</title>
<g id="a_node20"><a xlink:href="../x11-base/xorg-proto-2024.1.svg" xlink:title="portage://x11&#45;base/xorg&#45;proto&#45;2024.1">
<ellipse fill="none" stroke="red" cx="1165" cy="-1155" rx="144" ry="18"/>
<text text-anchor="middle" x="1165" y="-1151.12" font-family="Helvetica,sans-Serif" font-size="10.00">portage://x11&#45;base/xorg&#45;proto&#45;2024.1</text>
</a>
</g>
</g>
<!-- dependency299210&#45;&gt;choice1204949459897115101471201111141034511211411111611145504850524649 -->
<g id="edge19" class="edge">
<title>dependency299210:e&#45;&gt;choice1204949459897115101471201111141034511211411111611145504850524649:w</title>
<path fill="none" stroke="black" stroke-dasharray="1,5" d="M914,-1155C957.25,-1155 970.72,-1155 1009.08,-1155"/>
<polygon fill="black" stroke="black" points="1018.78,-1155 1008.78,-1159.5 1015,-1155 1008.78,-1155 1008.78,-1155 1008.78,-1155 1015,-1155 1008.78,-1150.5 1018.78,-1155"/>
</g>
<!-- choice120494945989711510147120111114103451121141111161114557575757 -->
<g id="node21" class="node">
<title>choice120494945989711510147120111114103451121141111161114557575757</title>
<g id="a_node21"><a xlink:href="../x11-base/xorg-proto-9999.svg" xlink:title="portage://x11&#45;base/xorg&#45;proto&#45;9999">
<ellipse fill="none" stroke="red" cx="1165" cy="-1101" rx="144" ry="18"/>
<text text-anchor="middle" x="1165" y="-1097.12" font-family="Helvetica,sans-Serif" font-size="10.00">portage://x11&#45;base/xorg&#45;proto&#45;9999</text>
</a>
</g>
</g>
<!-- dependency299210&#45;&gt;choice120494945989711510147120111114103451121141111161114557575757 -->
<g id="edge20" class="edge">
<title>dependency299210:e&#45;&gt;choice120494945989711510147120111114103451121141111161114557575757:w</title>
<path fill="none" stroke="black" stroke-dasharray="1,5" d="M914,-1155C962.95,-1155 966.8,-1108.72 1009.05,-1101.85"/>
<polygon fill="black" stroke="black" points="1018.79,-1101.09 1009.16,-1106.35 1015.01,-1101.39 1008.82,-1101.87 1008.82,-1101.87 1008.82,-1101.87 1015.01,-1101.39 1008.47,-1097.38 1018.79,-1101.09"/>
</g>
<!-- dependency299212 -->
<g id="node5" class="node">
<title>dependency299212</title>
<polygon fill="none" stroke="blue" points="685,-971.5 685,-1076.5 789,-1076.5 789,-971.5 685,-971.5"/>
<text text-anchor="start" x="716" y="-1020.12" font-family="Helvetica,sans-Serif" font-size="10.00">pack_dep</text>
<polygon fill="none" stroke="blue" points="789,-1055.5 789,-1076.5 899,-1076.5 899,-1055.5 789,-1055.5"/>
<text text-anchor="start" x="838.75" y="-1062" font-family="Helvetica,sans-Serif" font-size="10.00">no</text>
<polygon fill="none" stroke="blue" points="789,-1034.5 789,-1055.5 899,-1055.5 899,-1034.5 789,-1034.5"/>
<text text-anchor="start" x="827.12" y="-1041" font-family="Helvetica,sans-Serif" font-size="10.00">x11&#45;libs</text>
<polygon fill="none" stroke="blue" points="789,-1013.5 789,-1034.5 899,-1034.5 899,-1013.5 789,-1013.5"/>
<text text-anchor="start" x="829" y="-1020" font-family="Helvetica,sans-Serif" font-size="10.00">libXext</text>
<polygon fill="none" stroke="blue" points="789,-992.5 789,-1013.5 899,-1013.5 899,-992.5 789,-992.5"/>
<text text-anchor="start" x="833.5" y="-999" font-family="Helvetica,sans-Serif" font-size="10.00">none</text>
<polygon fill="none" stroke="blue" points="789,-971.5 789,-992.5 899,-992.5 899,-971.5 789,-971.5"/>
<text text-anchor="start" x="838" y="-978" font-family="Helvetica,sans-Serif" font-size="10.00">[,,]</text>
</g>
<!-- dependency299211&#45;&gt;dependency299212 -->
<g id="edge3" class="edge">
<title>dependency299211:e&#45;&gt;dependency299212:w</title>
<path fill="none" stroke="black" stroke-dasharray="5,2" d="M565.5,-968C617.06,-968 621.19,-1016.4 666.08,-1023.21"/>
<polygon fill="black" stroke="black" points="675.78,-1023.91 665.49,-1027.68 672.01,-1023.64 665.81,-1023.19 665.81,-1023.19 665.81,-1023.19 672.01,-1023.64 666.14,-1018.7 675.78,-1023.91"/>
</g>
<!-- choice12049494510810598115471081059888101120116454946514654 -->
<g id="node22" class="node">
<title>choice12049494510810598115471081059888101120116454946514654</title>
<g id="a_node22"><a xlink:href="../x11-libs/libXext-1.3.6.svg" xlink:title="portage://x11&#45;libs/libXext&#45;1.3.6">
<ellipse fill="none" stroke="red" cx="1165" cy="-986" rx="144" ry="18"/>
<text text-anchor="middle" x="1165" y="-982.12" font-family="Helvetica,sans-Serif" font-size="10.00">portage://x11&#45;libs/libXext&#45;1.3.6</text>
</a>
</g>
</g>
<!-- dependency299212&#45;&gt;choice12049494510810598115471081059888101120116454946514654 -->
<g id="edge21" class="edge">
<title>dependency299212:e&#45;&gt;choice12049494510810598115471081059888101120116454946514654:w</title>
<path fill="none" stroke="black" stroke-dasharray="1,5" d="M914,-1024C960.14,-1024 968.76,-991.71 1009.04,-986.66"/>
<polygon fill="black" stroke="black" points="1018.78,-986.07 1009.07,-991.17 1015.01,-986.3 1008.8,-986.67 1008.8,-986.67 1008.8,-986.67 1015.01,-986.3 1008.53,-982.18 1018.78,-986.07"/>
</g>
<!-- dependency299214 -->
<g id="node7" class="node">
<title>dependency299214</title>
<polygon fill="none" stroke="blue" points="685,-578.5 685,-683.5 789,-683.5 789,-578.5 685,-578.5"/>
<text text-anchor="start" x="716" y="-627.12" font-family="Helvetica,sans-Serif" font-size="10.00">pack_dep</text>
<polygon fill="none" stroke="blue" points="789,-662.5 789,-683.5 899,-683.5 899,-662.5 789,-662.5"/>
<text text-anchor="start" x="838.75" y="-669" font-family="Helvetica,sans-Serif" font-size="10.00">no</text>
<polygon fill="none" stroke="blue" points="789,-641.5 789,-662.5 899,-662.5 899,-641.5 789,-641.5"/>
<text text-anchor="start" x="821.88" y="-648" font-family="Helvetica,sans-Serif" font-size="10.00">media&#45;libs</text>
<polygon fill="none" stroke="blue" points="789,-620.5 789,-641.5 899,-641.5 899,-620.5 789,-620.5"/>
<text text-anchor="start" x="833.88" y="-627" font-family="Helvetica,sans-Serif" font-size="10.00">giflib</text>
<polygon fill="none" stroke="blue" points="789,-599.5 789,-620.5 899,-620.5 899,-599.5 789,-599.5"/>
<text text-anchor="start" x="833.5" y="-606" font-family="Helvetica,sans-Serif" font-size="10.00">none</text>
<polygon fill="none" stroke="blue" points="789,-578.5 789,-599.5 899,-599.5 899,-578.5 789,-578.5"/>
<text text-anchor="start" x="838" y="-585" font-family="Helvetica,sans-Serif" font-size="10.00">[,,]</text>
</g>
<!-- dependency299213&#45;&gt;dependency299214 -->
<g id="edge5" class="edge">
<title>dependency299213:e&#45;&gt;dependency299214:w</title>
<path fill="none" stroke="black" stroke-dasharray="5,2" d="M565.5,-631C611.18,-631 625.28,-631 666.03,-631"/>
<polygon fill="black" stroke="black" points="675.78,-631 665.78,-635.5 672,-631 665.78,-631 665.78,-631 665.78,-631 672,-631 665.78,-626.5 675.78,-631"/>
</g>
<!-- choice10910110010597451081059811547103105102108105984553465046494511449 -->
<g id="node23" class="node">
<title>choice10910110010597451081059811547103105102108105984553465046494511449</title>
<g id="a_node23"><a xlink:href="../media-libs/giflib-5.2.1-r1.svg" xlink:title="portage://media&#45;libs/giflib&#45;5.2.1&#45;r1">
<ellipse fill="none" stroke="red" cx="1165" cy="-461" rx="144" ry="18"/>
<text text-anchor="middle" x="1165" y="-457.12" font-family="Helvetica,sans-Serif" font-size="10.00">portage://media&#45;libs/giflib&#45;5.2.1&#45;r1</text>
</a>
</g>
</g>
<!-- dependency299214&#45;&gt;choice10910110010597451081059811547103105102108105984553465046494511449 -->
<g id="edge22" class="edge">
<title>dependency299214:e&#45;&gt;choice10910110010597451081059811547103105102108105984553465046494511449:w</title>
<path fill="none" stroke="black" stroke-dasharray="1,5" d="M914,-631C999.04,-631 937.11,-475.93 1008.95,-462"/>
<polygon fill="black" stroke="black" points="1018.79,-461.11 1009.23,-466.49 1015.02,-461.45 1008.83,-462.01 1008.83,-462.01 1008.83,-462.01 1015.02,-461.45 1008.42,-457.53 1018.79,-461.11"/>
</g>
<!-- choice1091011001059745108105981154710310510210810598455346504650 -->
<g id="node24" class="node">
<title>choice1091011001059745108105981154710310510210810598455346504650</title>
<g id="a_node24"><a xlink:href="../media-libs/giflib-5.2.2.svg" xlink:title="portage://media&#45;libs/giflib&#45;5.2.2">
<ellipse fill="none" stroke="red" cx="1165" cy="-407" rx="144" ry="18"/>
<text text-anchor="middle" x="1165" y="-403.12" font-family="Helvetica,sans-Serif" font-size="10.00">portage://media&#45;libs/giflib&#45;5.2.2</text>
</a>
</g>
</g>
<!-- dependency299214&#45;&gt;choice1091011001059745108105981154710310510210810598455346504650 -->
<g id="edge23" class="edge">
<title>dependency299214:e&#45;&gt;choice1091011001059745108105981154710310510210810598455346504650:w</title>
<path fill="none" stroke="black" stroke-dasharray="1,5" d="M914,-631C1020.16,-631 917.83,-422.9 1008.92,-407.86"/>
<polygon fill="black" stroke="black" points="1018.79,-407.09 1009.16,-412.35 1015.01,-407.39 1008.81,-407.86 1008.81,-407.86 1008.81,-407.86 1015.01,-407.39 1008.47,-403.38 1018.79,-407.09"/>
</g>
<!-- dependency299216 -->
<g id="node9" class="node">
<title>dependency299216</title>
<polygon fill="none" stroke="blue" points="685,-840.5 685,-945.5 789,-945.5 789,-840.5 685,-840.5"/>
<text text-anchor="start" x="716" y="-889.12" font-family="Helvetica,sans-Serif" font-size="10.00">pack_dep</text>
<polygon fill="none" stroke="blue" points="789,-924.5 789,-945.5 899,-945.5 899,-924.5 789,-924.5"/>
<text text-anchor="start" x="838.75" y="-931" font-family="Helvetica,sans-Serif" font-size="10.00">no</text>
<polygon fill="none" stroke="blue" points="789,-903.5 789,-924.5 899,-924.5 899,-903.5 789,-903.5"/>
<text text-anchor="start" x="826.38" y="-910" font-family="Helvetica,sans-Serif" font-size="10.00">app&#45;text</text>
<polygon fill="none" stroke="blue" points="789,-882.5 789,-903.5 899,-903.5 899,-882.5 789,-882.5"/>
<text text-anchor="start" x="812.12" y="-889" font-family="Helvetica,sans-Serif" font-size="10.00">ghostscript&#45;gpl</text>
<polygon fill="none" stroke="blue" points="789,-861.5 789,-882.5 899,-882.5 899,-861.5 789,-861.5"/>
<text text-anchor="start" x="833.5" y="-868" font-family="Helvetica,sans-Serif" font-size="10.00">none</text>
<polygon fill="none" stroke="blue" points="789,-840.5 789,-861.5 899,-861.5 899,-840.5 789,-840.5"/>
<text text-anchor="start" x="838" y="-847" font-family="Helvetica,sans-Serif" font-size="10.00">[,,]</text>
</g>
<!-- dependency299215&#45;&gt;dependency299216 -->
<g id="edge7" class="edge">
<title>dependency299215:e&#45;&gt;dependency299216:w</title>
<path fill="none" stroke="black" stroke-dasharray="5,2" d="M569,-845C617.53,-845 623.74,-885.97 665.82,-892.21"/>
<polygon fill="black" stroke="black" points="675.78,-892.91 665.49,-896.7 672.01,-892.65 665.81,-892.21 665.81,-892.21 665.81,-892.21 672.01,-892.65 666.13,-887.72 675.78,-892.91"/>
</g>
<!-- choice97112112451161011201164710310411111511611599114105112116451031121084549484648504649 -->
<g id="node25" class="node">
<title>choice97112112451161011201164710310411111511611599114105112116451031121084549484648504649</title>
<g id="a_node25"><a xlink:href="../app-text/ghostscript-gpl-10.02.1.svg" xlink:title="portage://app&#45;text/ghostscript&#45;gpl&#45;10.02.1">
<ellipse fill="none" stroke="red" cx="1165" cy="-893" rx="144" ry="18"/>
<text text-anchor="middle" x="1165" y="-889.12" font-family="Helvetica,sans-Serif" font-size="10.00">portage://app&#45;text/ghostscript&#45;gpl&#45;10.02.1</text>
</a>
</g>
</g>
<!-- dependency299216&#45;&gt;choice97112112451161011201164710310411111511611599114105112116451031121084549484648504649 -->
<g id="edge24" class="edge">
<title>dependency299216:e&#45;&gt;choice97112112451161011201164710310411111511611599114105112116451031121084549484648504649:w</title>
<path fill="none" stroke="black" stroke-dasharray="1,5" d="M914,-893C957.25,-893 970.72,-893 1009.08,-893"/>
<polygon fill="black" stroke="black" points="1018.78,-893 1008.78,-897.5 1015,-893 1008.78,-893 1008.78,-893 1008.78,-893 1015,-893 1008.78,-888.5 1018.78,-893"/>
</g>
<!-- choice971121124511610112011647103104111115116115991141051121164510311210845494846485046494511449 -->
<g id="node26" class="node">
<title>choice971121124511610112011647103104111115116115991141051121164510311210845494846485046494511449</title>
<g id="a_node26"><a xlink:href="../app-text/ghostscript-gpl-10.02.1-r1.svg" xlink:title="portage://app&#45;text/ghostscript&#45;gpl&#45;10.02.1&#45;r1">
<ellipse fill="none" stroke="red" cx="1165" cy="-839" rx="144" ry="18"/>
<text text-anchor="middle" x="1165" y="-835.12" font-family="Helvetica,sans-Serif" font-size="10.00">portage://app&#45;text/ghostscript&#45;gpl&#45;10.02.1&#45;r1</text>
</a>
</g>
</g>
<!-- dependency299216&#45;&gt;choice971121124511610112011647103104111115116115991141051121164510311210845494846485046494511449 -->
<g id="edge25" class="edge">
<title>dependency299216:e&#45;&gt;choice971121124511610112011647103104111115116115991141051121164510311210845494846485046494511449:w</title>
<path fill="none" stroke="black" stroke-dasharray="1,5" d="M914,-893C962.95,-893 966.8,-846.72 1009.05,-839.85"/>
<polygon fill="black" stroke="black" points="1018.79,-839.09 1009.16,-844.35 1015.01,-839.39 1008.82,-839.87 1008.82,-839.87 1008.82,-839.87 1015.01,-839.39 1008.47,-835.38 1018.79,-839.09"/>
</g>
<!-- choice971121124511610112011647103104111115116115991141051121164510311210845494846485146484511449 -->
<g id="node27" class="node">
<title>choice971121124511610112011647103104111115116115991141051121164510311210845494846485146484511449</title>
<g id="a_node27"><a xlink:href="../app-text/ghostscript-gpl-10.03.0-r1.svg" xlink:title="portage://app&#45;text/ghostscript&#45;gpl&#45;10.03.0&#45;r1">
<ellipse fill="none" stroke="red" cx="1165" cy="-785" rx="144" ry="18"/>
<text text-anchor="middle" x="1165" y="-781.12" font-family="Helvetica,sans-Serif" font-size="10.00">portage://app&#45;text/ghostscript&#45;gpl&#45;10.03.0&#45;r1</text>
</a>
</g>
</g>
<!-- dependency299216&#45;&gt;choice971121124511610112011647103104111115116115991141051121164510311210845494846485146484511449 -->
<g id="edge26" class="edge">
<title>dependency299216:e&#45;&gt;choice971121124511610112011647103104111115116115991141051121164510311210845494846485146484511449:w</title>
<path fill="none" stroke="black" stroke-dasharray="1,5" d="M914,-893C977.32,-893 955.76,-797.29 1009.13,-786.07"/>
<polygon fill="black" stroke="black" points="1018.79,-785.12 1009.28,-790.58 1015.02,-785.49 1008.84,-786.1 1008.84,-786.1 1008.84,-786.1 1015.02,-785.49 1008.4,-781.62 1018.79,-785.12"/>
</g>
<!-- choice97112112451161011201164710310411111511611599114105112116451031121084549484648514649 -->
<g id="node28" class="node">
<title>choice97112112451161011201164710310411111511611599114105112116451031121084549484648514649</title>
<g id="a_node28"><a xlink:href="../app-text/ghostscript-gpl-10.03.1.svg" xlink:title="portage://app&#45;text/ghostscript&#45;gpl&#45;10.03.1">
<ellipse fill="none" stroke="red" cx="1165" cy="-731" rx="144" ry="18"/>
<text text-anchor="middle" x="1165" y="-727.12" font-family="Helvetica,sans-Serif" font-size="10.00">portage://app&#45;text/ghostscript&#45;gpl&#45;10.03.1</text>
</a>
</g>
</g>
<!-- dependency299216&#45;&gt;choice97112112451161011201164710310411111511611599114105112116451031121084549484648514649 -->
<g id="edge27" class="edge">
<title>dependency299216:e&#45;&gt;choice97112112451161011201164710310411111511611599114105112116451031121084549484648514649:w</title>
<path fill="none" stroke="black" stroke-dasharray="1,5" d="M914,-893C996.01,-893 939.82,-745.83 1008.87,-732.03"/>
<polygon fill="black" stroke="black" points="1018.79,-731.11 1009.25,-736.52 1015.02,-731.46 1008.83,-732.04 1008.83,-732.04 1008.83,-732.04 1015.02,-731.46 1008.41,-727.56 1018.79,-731.11"/>
</g>
<!-- dependency299218 -->
<g id="node11" class="node">
<title>dependency299218</title>
<polygon fill="none" stroke="blue" points="685,-709.5 685,-814.5 789,-814.5 789,-709.5 685,-709.5"/>
<text text-anchor="start" x="716" y="-758.12" font-family="Helvetica,sans-Serif" font-size="10.00">pack_dep</text>
<polygon fill="none" stroke="blue" points="789,-793.5 789,-814.5 899,-814.5 899,-793.5 789,-793.5"/>
<text text-anchor="start" x="838.75" y="-800" font-family="Helvetica,sans-Serif" font-size="10.00">no</text>
<polygon fill="none" stroke="blue" points="789,-772.5 789,-793.5 899,-793.5 899,-772.5 789,-772.5"/>
<text text-anchor="start" x="821.88" y="-779" font-family="Helvetica,sans-Serif" font-size="10.00">media&#45;libs</text>
<polygon fill="none" stroke="blue" points="789,-751.5 789,-772.5 899,-772.5 899,-751.5 789,-751.5"/>
<text text-anchor="start" x="838.38" y="-758" font-family="Helvetica,sans-Serif" font-size="10.00">tiff</text>
<polygon fill="none" stroke="blue" points="789,-730.5 789,-751.5 899,-751.5 899,-730.5 789,-730.5"/>
<text text-anchor="start" x="833.5" y="-737" font-family="Helvetica,sans-Serif" font-size="10.00">none</text>
<polygon fill="none" stroke="blue" points="789,-709.5 789,-730.5 899,-730.5 899,-709.5 789,-709.5"/>
<text text-anchor="start" x="838" y="-716" font-family="Helvetica,sans-Serif" font-size="10.00">[,,]</text>
</g>
<!-- dependency299217&#45;&gt;dependency299218 -->
<g id="edge9" class="edge">
<title>dependency299217:e&#45;&gt;dependency299218:w</title>
<path fill="none" stroke="black" stroke-dasharray="5,2" d="M565.5,-730C613.13,-730 623.92,-757.31 665.93,-761.47"/>
<polygon fill="black" stroke="black" points="675.78,-761.94 665.58,-765.96 672.01,-761.76 665.79,-761.46 665.79,-761.46 665.79,-761.46 672.01,-761.76 666.01,-756.97 675.78,-761.94"/>
</g>
<!-- choice109101100105974510810598115471161051021024552465346484511450 -->
<g id="node29" class="node">
<title>choice109101100105974510810598115471161051021024552465346484511450</title>
<g id="a_node29"><a xlink:href="../media-libs/tiff-4.5.0-r2.svg" xlink:title="portage://media&#45;libs/tiff&#45;4.5.0&#45;r2">
<ellipse fill="none" stroke="red" cx="1165" cy="-677" rx="144" ry="18"/>
<text text-anchor="middle" x="1165" y="-673.12" font-family="Helvetica,sans-Serif" font-size="10.00">portage://media&#45;libs/tiff&#45;4.5.0&#45;r2</text>
</a>
</g>
</g>
<!-- dependency299218&#45;&gt;choice109101100105974510810598115471161051021024552465346484511450 -->
<g id="edge28" class="edge">
<title>dependency299218:e&#45;&gt;choice109101100105974510810598115471161051021024552465346484511450:w</title>
<path fill="none" stroke="black" stroke-dasharray="1,5" d="M914,-762C970.38,-762 961.24,-687.91 1008.92,-678.07"/>
<polygon fill="black" stroke="black" points="1018.79,-677.12 1009.27,-682.56 1015.02,-677.48 1008.83,-678.08 1008.83,-678.08 1008.83,-678.08 1015.02,-677.48 1008.4,-673.6 1018.79,-677.12"/>
</g>
<!-- choice10910110010597451081059811547116105102102455246534649 -->
<g id="node30" class="node">
<title>choice10910110010597451081059811547116105102102455246534649</title>
<g id="a_node30"><a xlink:href="../media-libs/tiff-4.5.1.svg" xlink:title="portage://media&#45;libs/tiff&#45;4.5.1">
<ellipse fill="none" stroke="red" cx="1165" cy="-623" rx="144" ry="18"/>
<text text-anchor="middle" x="1165" y="-619.12" font-family="Helvetica,sans-Serif" font-size="10.00">portage://media&#45;libs/tiff&#45;4.5.1</text>
</a>
</g>
</g>
<!-- dependency299218&#45;&gt;choice10910110010597451081059811547116105102102455246534649 -->
<g id="edge29" class="edge">
<title>dependency299218:e&#45;&gt;choice10910110010597451081059811547116105102102455246534649:w</title>
<path fill="none" stroke="black" stroke-dasharray="1,5" d="M914,-762C987.75,-762 947,-636.76 1009.11,-624.04"/>
<polygon fill="black" stroke="black" points="1018.79,-623.12 1009.26,-628.55 1015.02,-623.48 1008.83,-624.07 1008.83,-624.07 1008.83,-624.07 1015.02,-623.48 1008.4,-619.59 1018.79,-623.12"/>
</g>
<!-- choice10910110010597451081059811547116105102102455246544648 -->
<g id="node31" class="node">
<title>choice10910110010597451081059811547116105102102455246544648</title>
<g id="a_node31"><a xlink:href="../media-libs/tiff-4.6.0.svg" xlink:title="portage://media&#45;libs/tiff&#45;4.6.0">
<ellipse fill="none" stroke="red" cx="1165" cy="-569" rx="144" ry="18"/>
<text text-anchor="middle" x="1165" y="-565.12" font-family="Helvetica,sans-Serif" font-size="10.00">portage://media&#45;libs/tiff&#45;4.6.0</text>
</a>
</g>
</g>
<!-- dependency299218&#45;&gt;choice10910110010597451081059811547116105102102455246544648 -->
<g id="edge30" class="edge">
<title>dependency299218:e&#45;&gt;choice10910110010597451081059811547116105102102455246544648:w</title>
<path fill="none" stroke="black" stroke-dasharray="1,5" d="M914,-762C1007.85,-762 929.18,-584.51 1008.88,-569.95"/>
<polygon fill="black" stroke="black" points="1018.79,-569.1 1009.2,-574.44 1015.02,-569.42 1008.82,-569.95 1008.82,-569.95 1008.82,-569.95 1015.02,-569.42 1008.44,-565.47 1018.79,-569.1"/>
</g>
<!-- choice109101100105974510810598115471161051021024552465446484511449 -->
<g id="node32" class="node">
<title>choice109101100105974510810598115471161051021024552465446484511449</title>
<g id="a_node32"><a xlink:href="../media-libs/tiff-4.6.0-r1.svg" xlink:title="portage://media&#45;libs/tiff&#45;4.6.0&#45;r1">
<ellipse fill="none" stroke="red" cx="1165" cy="-515" rx="144" ry="18"/>
<text text-anchor="middle" x="1165" y="-511.12" font-family="Helvetica,sans-Serif" font-size="10.00">portage://media&#45;libs/tiff&#45;4.6.0&#45;r1</text>
</a>
</g>
</g>
<!-- dependency299218&#45;&gt;choice109101100105974510810598115471161051021024552465446484511449 -->
<g id="edge31" class="edge">
<title>dependency299218:e&#45;&gt;choice109101100105974510810598115471161051021024552465446484511449:w</title>
<path fill="none" stroke="black" stroke-dasharray="1,5" d="M914,-762C1029.49,-762 909.09,-531.13 1008.92,-515.8"/>
<polygon fill="black" stroke="black" points="1018.78,-515.09 1009.13,-520.29 1015.01,-515.36 1008.81,-515.81 1008.81,-515.81 1008.81,-515.81 1015.01,-515.36 1008.49,-511.32 1018.78,-515.09"/>
</g>
<!-- dependency299220 -->
<g id="node13" class="node">
<title>dependency299220</title>
<polygon fill="none" stroke="blue" points="685,-421.5 685,-526.5 789,-526.5 789,-421.5 685,-421.5"/>
<text text-anchor="start" x="716" y="-470.12" font-family="Helvetica,sans-Serif" font-size="10.00">pack_dep</text>
<polygon fill="none" stroke="blue" points="789,-505.5 789,-526.5 899,-526.5 899,-505.5 789,-505.5"/>
<text text-anchor="start" x="838.75" y="-512" font-family="Helvetica,sans-Serif" font-size="10.00">no</text>
<polygon fill="none" stroke="blue" points="789,-484.5 789,-505.5 899,-505.5 899,-484.5 789,-484.5"/>
<text text-anchor="start" x="827.12" y="-491" font-family="Helvetica,sans-Serif" font-size="10.00">x11&#45;libs</text>
<polygon fill="none" stroke="blue" points="789,-463.5 789,-484.5 899,-484.5 899,-463.5 789,-463.5"/>
<text text-anchor="start" x="829" y="-470" font-family="Helvetica,sans-Serif" font-size="10.00">libXext</text>
<polygon fill="none" stroke="blue" points="789,-442.5 789,-463.5 899,-463.5 899,-442.5 789,-442.5"/>
<text text-anchor="start" x="833.5" y="-449" font-family="Helvetica,sans-Serif" font-size="10.00">none</text>
<polygon fill="none" stroke="blue" points="789,-421.5 789,-442.5 899,-442.5 899,-421.5 789,-421.5"/>
<text text-anchor="start" x="838" y="-428" font-family="Helvetica,sans-Serif" font-size="10.00">[,,]</text>
</g>
<!-- dependency299219&#45;&gt;dependency299220 -->
<g id="edge11" class="edge">
<title>dependency299219:e&#45;&gt;dependency299220:w</title>
<path fill="none" stroke="black" stroke-dasharray="5,2" d="M565.5,-492C611.78,-492 624.83,-476.7 665.91,-474.31"/>
<polygon fill="black" stroke="black" points="675.78,-474.03 665.91,-478.81 672,-474.14 665.79,-474.32 665.79,-474.32 665.79,-474.32 672,-474.14 665.66,-469.82 675.78,-474.03"/>
</g>
<!-- dependency299220&#45;&gt;choice12049494510810598115471081059888101120116454946514654 -->
<g id="edge32" class="edge">
<title>dependency299220:e&#45;&gt;choice12049494510810598115471081059888101120116454946514654:w</title>
<path fill="none" stroke="black" stroke-dasharray="1,5" d="M914,-474C1142.52,-474 799.37,-969.14 1008.91,-985.58"/>
<polygon fill="black" stroke="black" points="1018.78,-985.95 1008.62,-990.07 1015,-985.81 1008.79,-985.58 1008.79,-985.58 1008.79,-985.58 1015,-985.81 1008.96,-981.08 1018.78,-985.95"/>
</g>
<!-- dependency299222 -->
<g id="node15" class="node">
<title>dependency299222</title>
<polygon fill="none" stroke="blue" points="685,-28.5 685,-133.5 789,-133.5 789,-28.5 685,-28.5"/>
<text text-anchor="start" x="716" y="-77.12" font-family="Helvetica,sans-Serif" font-size="10.00">pack_dep</text>
<polygon fill="none" stroke="blue" points="789,-112.5 789,-133.5 899,-133.5 899,-112.5 789,-112.5"/>
<text text-anchor="start" x="838.75" y="-119" font-family="Helvetica,sans-Serif" font-size="10.00">no</text>
<polygon fill="none" stroke="blue" points="789,-91.5 789,-112.5 899,-112.5 899,-91.5 789,-91.5"/>
<text text-anchor="start" x="821.88" y="-98" font-family="Helvetica,sans-Serif" font-size="10.00">media&#45;libs</text>
<polygon fill="none" stroke="blue" points="789,-70.5 789,-91.5 899,-91.5 899,-70.5 789,-70.5"/>
<text text-anchor="start" x="833.88" y="-77" font-family="Helvetica,sans-Serif" font-size="10.00">giflib</text>
<polygon fill="none" stroke="blue" points="789,-49.5 789,-70.5 899,-70.5 899,-49.5 789,-49.5"/>
<text text-anchor="start" x="833.5" y="-56" font-family="Helvetica,sans-Serif" font-size="10.00">none</text>
<polygon fill="none" stroke="blue" points="789,-28.5 789,-49.5 899,-49.5 899,-28.5 789,-28.5"/>
<text text-anchor="start" x="838" y="-35" font-family="Helvetica,sans-Serif" font-size="10.00">[,,]</text>
</g>
<!-- dependency299221&#45;&gt;dependency299222 -->
<g id="edge13" class="edge">
<title>dependency299221:e&#45;&gt;dependency299222:w</title>
<path fill="none" stroke="black" stroke-dasharray="5,2" d="M565.5,-95C611.54,-95 625.01,-83.1 665.96,-81.24"/>
<polygon fill="black" stroke="black" points="675.78,-81.03 665.88,-85.75 672,-81.11 665.78,-81.25 665.78,-81.25 665.78,-81.25 672,-81.11 665.69,-76.75 675.78,-81.03"/>
</g>
<!-- dependency299222&#45;&gt;choice10910110010597451081059811547103105102108105984553465046494511449 -->
<g id="edge33" class="edge">
<title>dependency299222:e&#45;&gt;choice10910110010597451081059811547103105102108105984553465046494511449:w</title>
<path fill="none" stroke="black" stroke-dasharray="1,5" d="M914,-81C1085.4,-81 855.44,-444.12 1008.81,-460.43"/>
<polygon fill="black" stroke="black" points="1018.78,-460.94 1008.57,-464.93 1015.01,-460.75 1008.8,-460.43 1008.8,-460.43 1008.8,-460.43 1015.01,-460.75 1009.02,-455.94 1018.78,-460.94"/>
</g>
<!-- dependency299222&#45;&gt;choice1091011001059745108105981154710310510210810598455346504650 -->
<g id="edge34" class="edge">
<title>dependency299222:e&#45;&gt;choice1091011001059745108105981154710310510210810598455346504650:w</title>
<path fill="none" stroke="black" stroke-dasharray="1,5" d="M914,-81C1062.49,-81 877.51,-390.66 1009.06,-406.38"/>
<polygon fill="black" stroke="black" points="1018.78,-406.93 1008.54,-410.86 1015.01,-406.72 1008.8,-406.37 1008.8,-406.37 1008.8,-406.37 1015.01,-406.72 1009.05,-401.87 1018.78,-406.93"/>
</g>
<!-- dependency299224 -->
<g id="node17" class="node">
<title>dependency299224</title>
<polygon fill="none" stroke="blue" points="685,-290.5 685,-395.5 789,-395.5 789,-290.5 685,-290.5"/>
<text text-anchor="start" x="716" y="-339.12" font-family="Helvetica,sans-Serif" font-size="10.00">pack_dep</text>
<polygon fill="none" stroke="blue" points="789,-374.5 789,-395.5 899,-395.5 899,-374.5 789,-374.5"/>
<text text-anchor="start" x="838.75" y="-381" font-family="Helvetica,sans-Serif" font-size="10.00">no</text>
<polygon fill="none" stroke="blue" points="789,-353.5 789,-374.5 899,-374.5 899,-353.5 789,-353.5"/>
<text text-anchor="start" x="826.38" y="-360" font-family="Helvetica,sans-Serif" font-size="10.00">app&#45;text</text>
<polygon fill="none" stroke="blue" points="789,-332.5 789,-353.5 899,-353.5 899,-332.5 789,-332.5"/>
<text text-anchor="start" x="812.12" y="-339" font-family="Helvetica,sans-Serif" font-size="10.00">ghostscript&#45;gpl</text>
<polygon fill="none" stroke="blue" points="789,-311.5 789,-332.5 899,-332.5 899,-311.5 789,-311.5"/>
<text text-anchor="start" x="833.5" y="-318" font-family="Helvetica,sans-Serif" font-size="10.00">none</text>
<polygon fill="none" stroke="blue" points="789,-290.5 789,-311.5 899,-311.5 899,-290.5 789,-290.5"/>
<text text-anchor="start" x="838" y="-297" font-family="Helvetica,sans-Serif" font-size="10.00">[,,]</text>
</g>
<!-- dependency299223&#45;&gt;dependency299224 -->
<g id="edge15" class="edge">
<title>dependency299223:e&#45;&gt;dependency299224:w</title>
<path fill="none" stroke="black" stroke-dasharray="5,2" d="M569,-396C618.5,-396 623.09,-350.58 665.92,-343.83"/>
<polygon fill="black" stroke="black" points="675.78,-343.09 666.15,-348.33 672.01,-343.37 665.81,-343.84 665.81,-343.84 665.81,-343.84 672.01,-343.37 665.48,-339.35 675.78,-343.09"/>
</g>
<!-- dependency299224&#45;&gt;choice97112112451161011201164710310411111511611599114105112116451031121084549484648504649 -->
<g id="edge35" class="edge">
<title>dependency299224:e&#45;&gt;choice97112112451161011201164710310411111511611599114105112116451031121084549484648504649:w</title>
<path fill="none" stroke="black" stroke-dasharray="1,5" d="M914,-343C1159.05,-343 783.15,-875.95 1008.8,-892.6"/>
<polygon fill="black" stroke="black" points="1018.78,-892.96 1008.63,-897.1 1015,-892.82 1008.79,-892.6 1008.79,-892.6 1008.79,-892.6 1015,-892.82 1008.95,-888.1 1018.78,-892.96"/>
</g>
<!-- dependency299224&#45;&gt;choice971121124511610112011647103104111115116115991141051121164510311210845494846485046494511449 -->
<g id="edge36" class="edge">
<title>dependency299224:e&#45;&gt;choice971121124511610112011647103104111115116115991141051121164510311210845494846485046494511449:w</title>
<path fill="none" stroke="black" stroke-dasharray="1,5" d="M914,-343C1135.57,-343 806.2,-822.19 1008.94,-838.57"/>
<polygon fill="black" stroke="black" points="1018.78,-838.95 1008.62,-843.06 1015,-838.81 1008.79,-838.56 1008.79,-838.56 1008.79,-838.56 1015,-838.81 1008.96,-834.07 1018.78,-838.95"/>
</g>
<!-- dependency299224&#45;&gt;choice971121124511610112011647103104111115116115991141051121164510311210845494846485146484511449 -->
<g id="edge37" class="edge">
<title>dependency299224:e&#45;&gt;choice971121124511610112011647103104111115116115991141051121164510311210845494846485146484511449:w</title>
<path fill="none" stroke="black" stroke-dasharray="1,5" d="M914,-343C1112.17,-343 829.15,-768.33 1009,-784.53"/>
<polygon fill="black" stroke="black" points="1018.78,-784.95 1008.6,-789.01 1015,-784.78 1008.79,-784.52 1008.79,-784.52 1008.79,-784.52 1015,-784.78 1008.99,-780.02 1018.78,-784.95"/>
</g>
<!-- dependency299224&#45;&gt;choice97112112451161011201164710310411111511611599114105112116451031121084549484648514649 -->
<g id="edge38" class="edge">
<title>dependency299224:e&#45;&gt;choice97112112451161011201164710310411111511611599114105112116451031121084549484648514649:w</title>
<path fill="none" stroke="black" stroke-dasharray="1,5" d="M914,-343C1088.92,-343 851.85,-714.51 1009.07,-730.47"/>
<polygon fill="black" stroke="black" points="1018.78,-730.94 1008.58,-734.95 1015.01,-730.76 1008.79,-730.46 1008.79,-730.46 1008.79,-730.46 1015.01,-730.76 1009.01,-725.96 1018.78,-730.94"/>
</g>
<!-- dependency299226 -->
<g id="node19" class="node">
<title>dependency299226</title>
<polygon fill="none" stroke="blue" points="685,-159.5 685,-264.5 789,-264.5 789,-159.5 685,-159.5"/>
<text text-anchor="start" x="716" y="-208.12" font-family="Helvetica,sans-Serif" font-size="10.00">pack_dep</text>
<polygon fill="none" stroke="blue" points="789,-243.5 789,-264.5 899,-264.5 899,-243.5 789,-243.5"/>
<text text-anchor="start" x="838.75" y="-250" font-family="Helvetica,sans-Serif" font-size="10.00">no</text>
<polygon fill="none" stroke="blue" points="789,-222.5 789,-243.5 899,-243.5 899,-222.5 789,-222.5"/>
<text text-anchor="start" x="821.88" y="-229" font-family="Helvetica,sans-Serif" font-size="10.00">media&#45;libs</text>
<polygon fill="none" stroke="blue" points="789,-201.5 789,-222.5 899,-222.5 899,-201.5 789,-201.5"/>
<text text-anchor="start" x="838.38" y="-208" font-family="Helvetica,sans-Serif" font-size="10.00">tiff</text>
<polygon fill="none" stroke="blue" points="789,-180.5 789,-201.5 899,-201.5 899,-180.5 789,-180.5"/>
<text text-anchor="start" x="833.5" y="-187" font-family="Helvetica,sans-Serif" font-size="10.00">none</text>
<polygon fill="none" stroke="blue" points="789,-159.5 789,-180.5 899,-180.5 899,-159.5 789,-159.5"/>
<text text-anchor="start" x="838" y="-166" font-family="Helvetica,sans-Serif" font-size="10.00">[,,]</text>
</g>
<!-- dependency299225&#45;&gt;dependency299226 -->
<g id="edge17" class="edge">
<title>dependency299225:e&#45;&gt;dependency299226:w</title>
<path fill="none" stroke="black" stroke-dasharray="5,2" d="M565.5,-273C618.02,-273 620.43,-220.28 665.9,-212.86"/>
<polygon fill="black" stroke="black" points="675.79,-212.09 666.16,-217.36 672.02,-212.39 665.82,-212.87 665.82,-212.87 665.82,-212.87 672.02,-212.39 665.47,-208.38 675.79,-212.09"/>
</g>
<!-- dependency299226&#45;&gt;choice109101100105974510810598115471161051021024552465346484511450 -->
<g id="edge39" class="edge">
<title>dependency299226:e&#45;&gt;choice109101100105974510810598115471161051021024552465346484511450:w</title>
<path fill="none" stroke="black" stroke-dasharray="1,5" d="M914,-212C1122.14,-212 819.35,-660.35 1009.02,-676.55"/>
<polygon fill="black" stroke="black" points="1018.78,-676.95 1008.61,-681.04 1015,-676.8 1008.79,-676.54 1008.79,-676.54 1008.79,-676.54 1015,-676.8 1008.98,-672.04 1018.78,-676.95"/>
</g>
<!-- dependency299226&#45;&gt;choice10910110010597451081059811547116105102102455246534649 -->
<g id="edge40" class="edge">
<title>dependency299226:e&#45;&gt;choice10910110010597451081059811547116105102102455246534649:w</title>
<path fill="none" stroke="black" stroke-dasharray="1,5" d="M914,-212C1098.78,-212 842.29,-606.32 1008.97,-622.49"/>
<polygon fill="black" stroke="black" points="1018.78,-622.94 1008.59,-626.98 1015.01,-622.77 1008.79,-622.48 1008.79,-622.48 1008.79,-622.48 1015.01,-622.77 1009,-617.99 1018.78,-622.94"/>
</g>
<!-- dependency299226&#45;&gt;choice10910110010597451081059811547116105102102455246544648 -->
<g id="edge41" class="edge">
<title>dependency299226:e&#45;&gt;choice10910110010597451081059811547116105102102455246544648:w</title>
<path fill="none" stroke="black" stroke-dasharray="1,5" d="M914,-212C1075.63,-212 864.82,-552.46 1009,-568.42"/>
<polygon fill="black" stroke="black" points="1018.78,-568.94 1008.56,-572.9 1015.01,-568.74 1008.8,-568.41 1008.8,-568.41 1008.8,-568.41 1015.01,-568.74 1009.03,-563.92 1018.78,-568.94"/>
</g>
<!-- dependency299226&#45;&gt;choice109101100105974510810598115471161051021024552465446484511449 -->
<g id="edge42" class="edge">
<title>dependency299226:e&#45;&gt;choice109101100105974510810598115471161051021024552465446484511449:w</title>
<path fill="none" stroke="black" stroke-dasharray="1,5" d="M914,-212C1052.77,-212 886.9,-498.66 1009.01,-514.33"/>
<polygon fill="black" stroke="black" points="1018.78,-514.93 1008.53,-518.81 1015.01,-514.7 1008.8,-514.32 1008.8,-514.32 1008.8,-514.32 1015.01,-514.7 1009.07,-509.83 1018.78,-514.93"/>
</g>
</g>
</svg>
