<?xml version="1.0" encoding="UTF-8" standalone="no"?>
<!DOCTYPE svg PUBLIC "-//W3C//DTD SVG 1.1//EN"
 "http://www.w3.org/Graphics/SVG/1.1/DTD/svg11.dtd">
<!-- Generated by graphviz version 9.0.0 (20230911.1827)
 -->
<!-- Title: prolog Pages: 1 -->
<svg width="1328pt" height="827pt"
 viewBox="0.00 0.00 1328.00 827.00" xmlns="http://www.w3.org/2000/svg" xmlns:xlink="http://www.w3.org/1999/xlink">
<g id="graph0" class="graph" transform="scale(1 1) rotate(0) translate(4 823)">
<title>prolog</title>
<polygon fill="white" stroke="none" points="-4,4 -4,-823 1324,-823 1324,4 -4,4"/>
<g id="clust1" class="cluster">
<title>cluster_leftcol</title>
<polygon fill="none" stroke="gray" points="8,-344 8,-415 312,-415 312,-344 8,-344"/>
<text text-anchor="start" x="147.25" y="-402.5" font-family="Helvetica,sans-Serif" font-style="italic" font-size="10.00">ebuild</text>
</g>
<g id="clust2" class="cluster">
<title>cluster_midcol</title>
<polygon fill="none" stroke="gray" points="396,-8 396,-709 924,-709 924,-8 396,-8"/>
<text text-anchor="start" x="630" y="-696.5" font-family="Helvetica,sans-Serif" font-style="italic" font-size="10.00">dependencies</text>
</g>
<g id="clust3" class="cluster">
<title>cluster_compile</title>
<polygon fill="#eeeeee" stroke="gray" points="404,-293 404,-682 916,-682 916,-293 404,-293"/>
<text text-anchor="start" x="643.12" y="-669.5" font-family="Helvetica,sans-Serif" font-style="italic" font-size="10.00">compile</text>
</g>
<g id="clust9" class="cluster">
<title>cluster_run</title>
<polygon fill="#eeeeee" stroke="gray" points="664,-16 664,-285 916,-285 916,-16 664,-16"/>
<text text-anchor="start" x="783.25" y="-272.5" font-family="Helvetica,sans-Serif" font-style="italic" font-size="10.00">run</text>
</g>
<g id="clust12" class="cluster">
<title>cluster_choices</title>
<polygon fill="none" stroke="gray" points="1008,-254 1008,-811 1312,-811 1312,-254 1008,-254"/>
<text text-anchor="start" x="1136.38" y="-798.5" font-family="Helvetica,sans-Serif" font-style="italic" font-size="10.00">candidates</text>
</g>
<!-- id -->
<g id="node1" class="node">
<title>id</title>
<g id="a_node1"><a xlink:href="../sci-geosciences/gdal-grass-2.1.3.svg" xlink:title="portage://sci&#45;geosciences/gdal&#45;grass&#45;2.1.3">
<ellipse fill="none" stroke="red" cx="160" cy="-370" rx="144" ry="18"/>
<text text-anchor="middle" x="160" y="-366.12" font-family="Helvetica,sans-Serif" font-size="10.00">portage://sci&#45;geosciences/gdal&#45;grass&#45;2.1.3</text>
</a>
</g>
</g>
<!-- dependency2667 -->
<g id="node2" class="node">
<title>dependency2667</title>
<polygon fill="none" stroke="red" points="420,-445 420,-487 509,-487 509,-445 420,-445"/>
<text text-anchor="start" x="430.75" y="-462.12" font-family="Helvetica,sans-Serif" font-size="10.00">use_conditional</text>
<polygon fill="none" stroke="red" points="509,-466 509,-487 556,-487 556,-466 509,-466"/>
<text text-anchor="start" x="515.62" y="-472.5" font-family="Helvetica,sans-Serif" font-size="10.00">positive</text>
<polygon fill="none" stroke="red" points="509,-445 509,-466 556,-466 556,-445 509,-445"/>
<text text-anchor="start" x="513.75" y="-451.5" font-family="Helvetica,sans-Serif" font-size="10.00">postgres</text>
</g>
<!-- id&#45;&gt;dependency2667 -->
<g id="edge2" class="edge">
<title>id:e&#45;&gt;dependency2667:w</title>
<path fill="none" stroke="black" d="M305,-370C364.59,-370 349.75,-454.38 400.03,-464.92"/>
<polygon fill="black" stroke="black" points="409.79,-465.88 399.4,-469.38 406.02,-465.51 399.84,-464.9 399.84,-464.9 399.84,-464.9 406.02,-465.51 400.28,-460.42 409.79,-465.88"/>
</g>
<!-- dependency2669 -->
<g id="node4" class="node">
<title>dependency2669</title>
<polygon fill="none" stroke="blue" points="680,-437 680,-531 784,-531 784,-437 680,-437"/>
<text text-anchor="start" x="711" y="-480.12" font-family="Helvetica,sans-Serif" font-size="10.00">pack_dep</text>
<polygon fill="none" stroke="blue" points="784,-510 784,-531 894,-531 894,-510 784,-510"/>
<text text-anchor="start" x="833.75" y="-516.5" font-family="Helvetica,sans-Serif" font-size="10.00">no</text>
<polygon fill="none" stroke="blue" points="784,-489 784,-510 894,-510 894,-489 784,-489"/>
<text text-anchor="start" x="803.75" y="-495.5" font-family="Helvetica,sans-Serif" font-size="10.00">sci&#45;geosciences</text>
<polygon fill="none" stroke="blue" points="784,-468 784,-489 894,-489 894,-468 784,-468"/>
<text text-anchor="start" x="827" y="-474.5" font-family="Helvetica,sans-Serif" font-size="10.00">grass</text>
<polygon fill="none" stroke="blue" points="784,-447 784,-468 894,-468 894,-447 784,-447"/>
<text text-anchor="start" x="828.5" y="-453.5" font-family="Helvetica,sans-Serif" font-size="10.00">none</text>
<polygon fill="none" stroke="blue" points="784,-437 784,-447 894,-447 894,-437 784,-437"/>
</g>
<!-- id&#45;&gt;dependency2669 -->
<g id="edge3" class="edge">
<title>id:e&#45;&gt;dependency2669:w</title>
<path fill="none" stroke="black" d="M489,-275C522.63,-270.65 536.54,-269.11 564,-289 640.94,-344.72 577.53,-473.42 660.18,-483.39"/>
<polygon fill="black" stroke="black" points="669.78,-483.93 659.54,-487.86 666.01,-483.72 659.8,-483.36 659.8,-483.36 659.8,-483.36 666.01,-483.72 660.05,-478.87 669.78,-483.93"/>
</g>
<!-- dependency2670 -->
<g id="node5" class="node">
<title>dependency2670</title>
<polygon fill="none" stroke="blue" points="680,-305.5 680,-410.5 784,-410.5 784,-305.5 680,-305.5"/>
<text text-anchor="start" x="711" y="-354.12" font-family="Helvetica,sans-Serif" font-size="10.00">pack_dep</text>
<polygon fill="none" stroke="blue" points="784,-389.5 784,-410.5 894,-410.5 894,-389.5 784,-389.5"/>
<text text-anchor="start" x="833.75" y="-396" font-family="Helvetica,sans-Serif" font-size="10.00">no</text>
<polygon fill="none" stroke="blue" points="784,-368.5 784,-389.5 894,-389.5 894,-368.5 784,-368.5"/>
<text text-anchor="start" x="823.62" y="-375" font-family="Helvetica,sans-Serif" font-size="10.00">sci&#45;libs</text>
<polygon fill="none" stroke="blue" points="784,-347.5 784,-368.5 894,-368.5 894,-347.5 784,-347.5"/>
<text text-anchor="start" x="830" y="-354" font-family="Helvetica,sans-Serif" font-size="10.00">gdal</text>
<polygon fill="none" stroke="blue" points="784,-326.5 784,-347.5 894,-347.5 894,-326.5 784,-326.5"/>
<text text-anchor="start" x="812.38" y="-333" font-family="Helvetica,sans-Serif" font-size="10.00">greaterequal</text>
<polygon fill="none" stroke="blue" points="784,-305.5 784,-326.5 894,-326.5 894,-305.5 784,-305.5"/>
<text text-anchor="start" x="828.12" y="-312" font-family="Helvetica,sans-Serif" font-size="10.00">2.0.0</text>
</g>
<!-- id&#45;&gt;dependency2670 -->
<g id="edge4" class="edge">
<title>id:e&#45;&gt;dependency2670:w</title>
<path fill="none" stroke="black" d="M489,-275C522.63,-270.65 532.49,-276.47 564,-289 612.88,-308.45 614.45,-351.37 659.9,-357.31"/>
<polygon fill="black" stroke="black" points="669.78,-357.92 659.53,-361.8 666.01,-357.69 659.8,-357.31 659.8,-357.31 659.8,-357.31 666.01,-357.69 660.08,-352.82 669.78,-357.92"/>
</g>
<!-- dependency2671 -->
<g id="node6" class="node">
<title>dependency2671</title>
<polygon fill="none" stroke="blue" points="680,-160 680,-254 784,-254 784,-160 680,-160"/>
<text text-anchor="start" x="711" y="-203.12" font-family="Helvetica,sans-Serif" font-size="10.00">pack_dep</text>
<polygon fill="none" stroke="blue" points="784,-233 784,-254 894,-254 894,-233 784,-233"/>
<text text-anchor="start" x="833.75" y="-239.5" font-family="Helvetica,sans-Serif" font-size="10.00">no</text>
<polygon fill="none" stroke="blue" points="784,-212 784,-233 894,-233 894,-212 784,-212"/>
<text text-anchor="start" x="803.75" y="-218.5" font-family="Helvetica,sans-Serif" font-size="10.00">sci&#45;geosciences</text>
<polygon fill="none" stroke="blue" points="784,-191 784,-212 894,-212 894,-191 784,-191"/>
<text text-anchor="start" x="827" y="-197.5" font-family="Helvetica,sans-Serif" font-size="10.00">grass</text>
<polygon fill="none" stroke="blue" points="784,-170 784,-191 894,-191 894,-170 784,-170"/>
<text text-anchor="start" x="828.5" y="-176.5" font-family="Helvetica,sans-Serif" font-size="10.00">none</text>
<polygon fill="none" stroke="blue" points="784,-160 784,-170 894,-170 894,-160 784,-160"/>
</g>
<!-- id&#45;&gt;dependency2671 -->
<g id="edge5" class="edge">
<title>id:e&#45;&gt;dependency2671:w</title>
<path fill="none" stroke="black" d="M489,-275C571.63,-264.32 583.85,-210.95 662.17,-207.21"/>
<ellipse fill="none" stroke="black" cx="666.5" cy="-207.11" rx="4" ry="4"/>
</g>
<!-- dependency2672 -->
<g id="node7" class="node">
<title>dependency2672</title>
<polygon fill="none" stroke="blue" points="680,-28.5 680,-133.5 784,-133.5 784,-28.5 680,-28.5"/>
<text text-anchor="start" x="711" y="-77.12" font-family="Helvetica,sans-Serif" font-size="10.00">pack_dep</text>
<polygon fill="none" stroke="blue" points="784,-112.5 784,-133.5 894,-133.5 894,-112.5 784,-112.5"/>
<text text-anchor="start" x="833.75" y="-119" font-family="Helvetica,sans-Serif" font-size="10.00">no</text>
<polygon fill="none" stroke="blue" points="784,-91.5 784,-112.5 894,-112.5 894,-91.5 784,-91.5"/>
<text text-anchor="start" x="823.62" y="-98" font-family="Helvetica,sans-Serif" font-size="10.00">sci&#45;libs</text>
<polygon fill="none" stroke="blue" points="784,-70.5 784,-91.5 894,-91.5 894,-70.5 784,-70.5"/>
<text text-anchor="start" x="830" y="-77" font-family="Helvetica,sans-Serif" font-size="10.00">gdal</text>
<polygon fill="none" stroke="blue" points="784,-49.5 784,-70.5 894,-70.5 894,-49.5 784,-49.5"/>
<text text-anchor="start" x="812.38" y="-56" font-family="Helvetica,sans-Serif" font-size="10.00">greaterequal</text>
<polygon fill="none" stroke="blue" points="784,-28.5 784,-49.5 894,-49.5 894,-28.5 784,-28.5"/>
<text text-anchor="start" x="828.12" y="-35" font-family="Helvetica,sans-Serif" font-size="10.00">2.0.0</text>
</g>
<!-- id&#45;&gt;dependency2672 -->
<g id="edge6" class="edge">
<title>id:e&#45;&gt;dependency2672:w</title>
<path fill="none" stroke="black" d="M489,-275C603.27,-260.23 555.38,-89.98 662.32,-81.34"/>
<ellipse fill="none" stroke="black" cx="666.5" cy="-81.18" rx="4" ry="4"/>
<path fill="none" stroke="black" d="M305,-370C359.15,-370 347.01,-312.06 396,-289 433.02,-271.57 446.42,-280.25 487,-275"/>
</g>
<!-- dependency2668 -->
<g id="node3" class="node">
<title>dependency2668</title>
<polygon fill="none" stroke="blue" points="680,-557 680,-651 784,-651 784,-557 680,-557"/>
<text text-anchor="start" x="711" y="-600.12" font-family="Helvetica,sans-Serif" font-size="10.00">pack_dep</text>
<polygon fill="none" stroke="blue" points="784,-630 784,-651 894,-651 894,-630 784,-630"/>
<text text-anchor="start" x="833.75" y="-636.5" font-family="Helvetica,sans-Serif" font-size="10.00">no</text>
<polygon fill="none" stroke="blue" points="784,-609 784,-630 894,-630 894,-609 784,-609"/>
<text text-anchor="start" x="824.38" y="-615.5" font-family="Helvetica,sans-Serif" font-size="10.00">dev&#45;db</text>
<polygon fill="none" stroke="blue" points="784,-588 784,-609 894,-609 894,-588 784,-588"/>
<text text-anchor="start" x="816.5" y="-594.5" font-family="Helvetica,sans-Serif" font-size="10.00">postgresql</text>
<polygon fill="none" stroke="blue" points="784,-567 784,-588 894,-588 894,-567 784,-567"/>
<text text-anchor="start" x="828.5" y="-573.5" font-family="Helvetica,sans-Serif" font-size="10.00">none</text>
<polygon fill="none" stroke="blue" points="784,-557 784,-567 894,-567 894,-557 784,-557"/>
</g>
<!-- dependency2667&#45;&gt;dependency2668 -->
<g id="edge1" class="edge">
<title>dependency2667:e&#45;&gt;dependency2668:w</title>
<path fill="none" stroke="black" stroke-dasharray="5,2" d="M564,-466C637.67,-466 597.96,-590.34 660.12,-602.97"/>
<polygon fill="black" stroke="black" points="669.79,-603.89 659.41,-607.42 666.02,-603.53 659.83,-602.94 659.83,-602.94 659.83,-602.94 666.02,-603.53 660.26,-598.46 669.79,-603.89"/>
</g>
<!-- choice1001011184510098471121111151161031141011151131084557575757 -->
<g id="node8" class="node">
<title>choice1001011184510098471121111151161031141011151131084557575757</title>
<g id="a_node8"><a xlink:href="../dev-db/postgresql-9999.svg" xlink:title="portage://dev&#45;db/postgresql&#45;9999">
<ellipse fill="none" stroke="red" cx="1160" cy="-496" rx="144" ry="18"/>
<text text-anchor="middle" x="1160" y="-492.12" font-family="Helvetica,sans-Serif" font-size="10.00">portage://dev&#45;db/postgresql&#45;9999</text>
</a>
</g>
</g>
<!-- dependency2668&#45;&gt;choice1001011184510098471121111151161031141011151131084557575757 -->
<g id="edge7" class="edge">
<title>dependency2668:e&#45;&gt;choice1001011184510098471121111151161031141011151131084557575757:w</title>
<path fill="none" stroke="black" stroke-dasharray="1,5" d="M909,-604C972.32,-604 950.76,-508.29 1004.13,-497.07"/>
<polygon fill="black" stroke="black" points="1013.79,-496.12 1004.28,-501.58 1010.02,-496.49 1003.84,-497.1 1003.84,-497.1 1003.84,-497.1 1010.02,-496.49 1003.4,-492.62 1013.79,-496.12"/>
</g>
<!-- choice10010111845100984711211111511610311410111511310845574654464957 -->
<g id="node9" class="node">
<title>choice10010111845100984711211111511610311410111511310845574654464957</title>
<g id="a_node9"><a xlink:href="../dev-db/postgresql-9.6.19.svg" xlink:title="portage://dev&#45;db/postgresql&#45;9.6.19">
<ellipse fill="none" stroke="red" cx="1160" cy="-442" rx="144" ry="18"/>
<text text-anchor="middle" x="1160" y="-438.12" font-family="Helvetica,sans-Serif" font-size="10.00">portage://dev&#45;db/postgresql&#45;9.6.19</text>
</a>
</g>
</g>
<!-- dependency2668&#45;&gt;choice10010111845100984711211111511610311410111511310845574654464957 -->
<g id="edge8" class="edge">
<title>dependency2668:e&#45;&gt;choice10010111845100984711211111511610311410111511310845574654464957:w</title>
<path fill="none" stroke="black" stroke-dasharray="1,5" d="M909,-604C991.01,-604 934.82,-456.83 1003.87,-443.03"/>
<polygon fill="black" stroke="black" points="1013.79,-442.11 1004.25,-447.52 1010.02,-442.46 1003.83,-443.04 1003.83,-443.04 1003.83,-443.04 1010.02,-442.46 1003.41,-438.56 1013.79,-442.11"/>
</g>
<!-- choice10010111845100984711211111511610311410111511310845574653465051 -->
<g id="node10" class="node">
<title>choice10010111845100984711211111511610311410111511310845574653465051</title>
<g id="a_node10"><a xlink:href="../dev-db/postgresql-9.5.23.svg" xlink:title="portage://dev&#45;db/postgresql&#45;9.5.23">
<ellipse fill="none" stroke="red" cx="1160" cy="-766" rx="144" ry="18"/>
<text text-anchor="middle" x="1160" y="-762.12" font-family="Helvetica,sans-Serif" font-size="10.00">portage://dev&#45;db/postgresql&#45;9.5.23</text>
</a>
</g>
</g>
<!-- dependency2668&#45;&gt;choice10010111845100984711211111511610311410111511310845574653465051 -->
<g id="edge9" class="edge">
<title>dependency2668:e&#45;&gt;choice10010111845100984711211111511610311410111511310845574653465051:w</title>
<path fill="none" stroke="black" stroke-dasharray="1,5" d="M909,-604C991.01,-604 934.82,-751.17 1003.87,-764.97"/>
<polygon fill="black" stroke="black" points="1013.79,-765.89 1003.41,-769.44 1010.02,-765.54 1003.83,-764.96 1003.83,-764.96 1003.83,-764.96 1010.02,-765.54 1004.25,-760.48 1013.79,-765.89"/>
</g>
<!-- choice10010111845100984711211111511610311410111511310845495195981011169751 -->
<g id="node11" class="node">
<title>choice10010111845100984711211111511610311410111511310845495195981011169751</title>
<g id="a_node11"><a xlink:href="../dev-db/postgresql-13_beta3.svg" xlink:title="portage://dev&#45;db/postgresql&#45;13_beta3">
<ellipse fill="none" stroke="red" cx="1160" cy="-712" rx="144" ry="18"/>
<text text-anchor="middle" x="1160" y="-708.12" font-family="Helvetica,sans-Serif" font-size="10.00">portage://dev&#45;db/postgresql&#45;13_beta3</text>
</a>
</g>
</g>
<!-- dependency2668&#45;&gt;choice10010111845100984711211111511610311410111511310845495195981011169751 -->
<g id="edge10" class="edge">
<title>dependency2668:e&#45;&gt;choice10010111845100984711211111511610311410111511310845495195981011169751:w</title>
<path fill="none" stroke="black" stroke-dasharray="1,5" d="M909,-604C972.32,-604 950.76,-699.71 1004.13,-710.93"/>
<polygon fill="black" stroke="black" points="1013.79,-711.88 1003.4,-715.38 1010.02,-711.51 1003.84,-710.9 1003.84,-710.9 1003.84,-710.9 1010.02,-711.51 1004.28,-706.42 1013.79,-711.88"/>
</g>
<!-- choice1001011184510098471121111151161031141011151131084549504652 -->
<g id="node12" class="node">
<title>choice1001011184510098471121111151161031141011151131084549504652</title>
<g id="a_node12"><a xlink:href="../dev-db/postgresql-12.4.svg" xlink:title="portage://dev&#45;db/postgresql&#45;12.4">
<ellipse fill="none" stroke="red" cx="1160" cy="-658" rx="144" ry="18"/>
<text text-anchor="middle" x="1160" y="-654.12" font-family="Helvetica,sans-Serif" font-size="10.00">portage://dev&#45;db/postgresql&#45;12.4</text>
</a>
</g>
</g>
<!-- dependency2668&#45;&gt;choice1001011184510098471121111151161031141011151131084549504652 -->
<g id="edge11" class="edge">
<title>dependency2668:e&#45;&gt;choice1001011184510098471121111151161031141011151131084549504652:w</title>
<path fill="none" stroke="black" stroke-dasharray="1,5" d="M909,-604C957.95,-604 961.8,-650.28 1004.05,-657.15"/>
<polygon fill="black" stroke="black" points="1013.79,-657.91 1003.47,-661.62 1010.01,-657.61 1003.82,-657.13 1003.82,-657.13 1003.82,-657.13 1010.01,-657.61 1004.16,-652.65 1013.79,-657.91"/>
</g>
<!-- choice1001011184510098471121111151161031141011151131084549494657 -->
<g id="node13" class="node">
<title>choice1001011184510098471121111151161031141011151131084549494657</title>
<g id="a_node13"><a xlink:href="../dev-db/postgresql-11.9.svg" xlink:title="portage://dev&#45;db/postgresql&#45;11.9">
<ellipse fill="none" stroke="red" cx="1160" cy="-604" rx="144" ry="18"/>
<text text-anchor="middle" x="1160" y="-600.12" font-family="Helvetica,sans-Serif" font-size="10.00">portage://dev&#45;db/postgresql&#45;11.9</text>
</a>
</g>
</g>
<!-- dependency2668&#45;&gt;choice1001011184510098471121111151161031141011151131084549494657 -->
<g id="edge12" class="edge">
<title>dependency2668:e&#45;&gt;choice1001011184510098471121111151161031141011151131084549494657:w</title>
<path fill="none" stroke="black" stroke-dasharray="1,5" d="M909,-604C952.25,-604 965.72,-604 1004.08,-604"/>
<polygon fill="black" stroke="black" points="1013.78,-604 1003.78,-608.5 1010,-604 1003.78,-604 1003.78,-604 1003.78,-604 1010,-604 1003.78,-599.5 1013.78,-604"/>
</g>
<!-- choice100101118451009847112111115116103114101115113108454948464952 -->
<g id="node14" class="node">
<title>choice100101118451009847112111115116103114101115113108454948464952</title>
<g id="a_node14"><a xlink:href="../dev-db/postgresql-10.14.svg" xlink:title="portage://dev&#45;db/postgresql&#45;10.14">
<ellipse fill="none" stroke="red" cx="1160" cy="-550" rx="144" ry="18"/>
<text text-anchor="middle" x="1160" y="-546.12" font-family="Helvetica,sans-Serif" font-size="10.00">portage://dev&#45;db/postgresql&#45;10.14</text>
</a>
</g>
</g>
<!-- dependency2668&#45;&gt;choice100101118451009847112111115116103114101115113108454948464952 -->
<g id="edge13" class="edge">
<title>dependency2668:e&#45;&gt;choice100101118451009847112111115116103114101115113108454948464952:w</title>
<path fill="none" stroke="black" stroke-dasharray="1,5" d="M909,-604C957.95,-604 961.8,-557.72 1004.05,-550.85"/>
<polygon fill="black" stroke="black" points="1013.79,-550.09 1004.16,-555.35 1010.01,-550.39 1003.82,-550.87 1003.82,-550.87 1003.82,-550.87 1010.01,-550.39 1003.47,-546.38 1013.79,-550.09"/>
</g>
<!-- choice1159910545103101111115991051011109910111547103114971151154555465246524511451 -->
<g id="node15" class="node">
<title>choice1159910545103101111115991051011109910111547103114971151154555465246524511451</title>
<g id="a_node15"><a xlink:href="../sci-geosciences/grass-7.4.4-r3.svg" xlink:title="portage://sci&#45;geosciences/grass&#45;7.4.4&#45;r3">
<ellipse fill="none" stroke="red" cx="1160" cy="-334" rx="144" ry="18"/>
<text text-anchor="middle" x="1160" y="-330.12" font-family="Helvetica,sans-Serif" font-size="10.00">portage://sci&#45;geosciences/grass&#45;7.4.4&#45;r3</text>
</a>
</g>
</g>
<!-- dependency2669&#45;&gt;choice1159910545103101111115991051011109910111547103114971151154555465246524511451 -->
<g id="edge14" class="edge">
<title>dependency2669:e&#45;&gt;choice1159910545103101111115991051011109910111547103114971151154555465246524511451:w</title>
<path fill="none" stroke="black" stroke-dasharray="1,5" d="M909,-484C986.65,-484 938.63,-348.29 1004,-335.04"/>
<polygon fill="black" stroke="black" points="1013.79,-334.11 1004.25,-339.53 1010.02,-334.47 1003.83,-335.05 1003.83,-335.05 1003.83,-335.05 1010.02,-334.47 1003.41,-330.57 1013.79,-334.11"/>
</g>
<!-- choice115991054510310111111599105101110991011154710311497115115455546524652 -->
<g id="node16" class="node">
<title>choice115991054510310111111599105101110991011154710311497115115455546524652</title>
<g id="a_node16"><a xlink:href="../sci-geosciences/grass-7.4.4.svg" xlink:title="portage://sci&#45;geosciences/grass&#45;7.4.4">
<ellipse fill="none" stroke="red" cx="1160" cy="-388" rx="144" ry="18"/>
<text text-anchor="middle" x="1160" y="-384.12" font-family="Helvetica,sans-Serif" font-size="10.00">portage://sci&#45;geosciences/grass&#45;7.4.4</text>
</a>
</g>
</g>
<!-- dependency2669&#45;&gt;choice115991054510310111111599105101110991011154710311497115115455546524652 -->
<g id="edge15" class="edge">
<title>dependency2669:e&#45;&gt;choice115991054510310111111599105101110991011154710311497115115455546524652:w</title>
<path fill="none" stroke="black" stroke-dasharray="1,5" d="M909,-484C968.59,-484 953.75,-399.62 1004.03,-389.08"/>
<polygon fill="black" stroke="black" points="1013.79,-388.12 1004.28,-393.58 1010.02,-388.49 1003.84,-389.1 1003.84,-389.1 1003.84,-389.1 1010.02,-388.49 1003.4,-384.62 1013.79,-388.12"/>
</g>
<!-- choice11599105451081059811547103100971084551464846524511449 -->
<g id="node17" class="node">
<title>choice11599105451081059811547103100971084551464846524511449</title>
<g id="a_node17"><a xlink:href="../sci-libs/gdal-3.0.4-r1.svg" xlink:title="portage://sci&#45;libs/gdal&#45;3.0.4&#45;r1">
<ellipse fill="none" stroke="red" cx="1160" cy="-280" rx="144" ry="18"/>
<text text-anchor="middle" x="1160" y="-276.12" font-family="Helvetica,sans-Serif" font-size="10.00">portage://sci&#45;libs/gdal&#45;3.0.4&#45;r1</text>
</a>
</g>
</g>
<!-- dependency2670&#45;&gt;choice11599105451081059811547103100971084551464846524511449 -->
<g id="edge16" class="edge">
<title>dependency2670:e&#45;&gt;choice11599105451081059811547103100971084551464846524511449:w</title>
<path fill="none" stroke="black" stroke-dasharray="1,5" d="M909,-358C963.49,-358 957.69,-290.3 1003.93,-281.04"/>
<polygon fill="black" stroke="black" points="1013.79,-280.11 1004.25,-285.53 1010.02,-280.47 1003.83,-281.05 1003.83,-281.05 1003.83,-281.05 1010.02,-280.47 1003.41,-276.57 1013.79,-280.11"/>
</g>
<!-- dependency2671&#45;&gt;choice1159910545103101111115991051011109910111547103114971151154555465246524511451 -->
<g id="edge17" class="edge">
<title>dependency2671:e&#45;&gt;choice1159910545103101111115991051011109910111547103114971151154555465246524511451:w</title>
<path fill="none" stroke="black" stroke-dasharray="1,5" d="M909,-207C978.5,-207 945.62,-320.49 1003.93,-332.9"/>
<polygon fill="black" stroke="black" points="1013.79,-333.88 1003.39,-337.37 1010.02,-333.51 1003.84,-332.89 1003.84,-332.89 1003.84,-332.89 1010.02,-333.51 1004.28,-328.41 1013.79,-333.88"/>
</g>
<!-- dependency2671&#45;&gt;choice115991054510310111111599105101110991011154710311497115115455546524652 -->
<g id="edge18" class="edge">
<title>dependency2671:e&#45;&gt;choice115991054510310111111599105101110991011154710311497115115455546524652:w</title>
<path fill="none" stroke="black" stroke-dasharray="1,5" d="M909,-207C998.22,-207 928.37,-372.78 1003.92,-387.03"/>
<polygon fill="black" stroke="black" points="1013.79,-387.89 1003.43,-391.5 1010.02,-387.56 1003.82,-387.02 1003.82,-387.02 1003.82,-387.02 1010.02,-387.56 1004.22,-382.54 1013.79,-387.89"/>
</g>
<!-- dependency2672&#45;&gt;choice11599105451081059811547103100971084551464846524511449 -->
<g id="edge19" class="edge">
<title>dependency2672:e&#45;&gt;choice11599105451081059811547103100971084551464846524511449:w</title>
<path fill="none" stroke="black" stroke-dasharray="1,5" d="M909,-81C1005.29,-81 921.87,-264.76 1004.12,-279.11"/>
<polygon fill="black" stroke="black" points="1013.79,-279.9 1003.45,-283.57 1010.02,-279.59 1003.82,-279.09 1003.82,-279.09 1003.82,-279.09 1010.02,-279.59 1004.18,-274.6 1013.79,-279.9"/>
</g>
</g>
</svg>
