<?xml version="1.0" encoding="UTF-8" standalone="no"?>
<!DOCTYPE svg PUBLIC "-//W3C//DTD SVG 1.1//EN"
 "http://www.w3.org/Graphics/SVG/1.1/DTD/svg11.dtd">
<!-- Generated by graphviz version 2.41.20171026.1811 (20171026.1811)
 -->
<!-- Title: prolog Pages: 1 -->
<svg width="1326pt" height="1230pt"
 viewBox="0.00 0.00 1326.00 1230.00" xmlns="http://www.w3.org/2000/svg" xmlns:xlink="http://www.w3.org/1999/xlink">
<g id="graph0" class="graph" transform="scale(1 1) rotate(0) translate(4 1226)">
<title>prolog</title>
<polygon fill="white" stroke="transparent" points="-4,4 -4,-1226 1322,-1226 1322,4 -4,4"/>
<g id="clust1" class="cluster">
<title>cluster_leftcol</title>
<polygon fill="none" stroke="gray" points="8,-440 8,-512 312,-512 312,-440 8,-440"/>
<text text-anchor="start" x="146.66" y="-500" font-family="Helvetica,sans-Serif" font-style="italic" font-size="10.00">ebuild</text>
</g>
<g id="clust2" class="cluster">
<title>cluster_midcol</title>
<polygon fill="none" stroke="gray" points="396,-57 396,-1115 922,-1115 922,-57 396,-57"/>
<text text-anchor="start" x="627.88" y="-1103" font-family="Helvetica,sans-Serif" font-style="italic" font-size="10.00">dependencies</text>
</g>
<g id="clust3" class="cluster">
<title>cluster_compile</title>
<polygon fill="#eeeeee" stroke="gray" points="662,-659 662,-1087 914,-1087 914,-659 662,-659"/>
<text text-anchor="start" x="770.78" y="-1075" font-family="Helvetica,sans-Serif" font-style="italic" font-size="10.00">compile</text>
</g>
<g id="clust7" class="cluster">
<title>cluster_compileandrun</title>
<polygon fill="#eeeeee" stroke="gray" points="404,-65 404,-547 914,-547 914,-65 404,-65"/>
<text text-anchor="start" x="623.44" y="-535" font-family="Helvetica,sans-Serif" font-style="italic" font-size="10.00">compile and run</text>
</g>
<g id="clust13" class="cluster">
<title>cluster_choices</title>
<polygon fill="none" stroke="gray" points="1006,-8 1006,-1214 1310,-1214 1310,-8 1006,-8"/>
<text text-anchor="start" x="1133.82" y="-1202" font-family="Helvetica,sans-Serif" font-style="italic" font-size="10.00">candidates</text>
</g>
<!-- id -->
<g id="node1" class="node">
<title>id</title>
<g id="a_node1"><a xlink:href="../sci-geosciences/gpscorrelate-1.6.1.svg" xlink:title="sci&#45;geosciences/gpscorrelate&#45;1.6.1">
<ellipse fill="none" stroke="red" cx="160" cy="-466" rx="144" ry="18"/>
<text text-anchor="middle" x="160" y="-463" font-family="Helvetica,sans-Serif" font-size="10.00">sci&#45;geosciences/gpscorrelate&#45;1.6.1</text>
</a>
</g>
</g>
<!-- dependency448456 -->
<g id="node2" class="node">
<title>dependency448456</title>
<polygon fill="none" stroke="blue" points="678,-957 678,-1055 783,-1055 783,-957 678,-957"/>
<text text-anchor="start" x="708.82" y="-1003" font-family="Helvetica,sans-Serif" font-size="10.00">pack_dep</text>
<polygon fill="none" stroke="blue" points="783,-1033 783,-1055 893,-1055 893,-1033 783,-1033"/>
<text text-anchor="start" x="832.44" y="-1041" font-family="Helvetica,sans-Serif" font-size="10.00">no</text>
<polygon fill="none" stroke="blue" points="783,-1011 783,-1033 893,-1033 893,-1011 783,-1011"/>
<text text-anchor="start" x="819.94" y="-1019" font-family="Helvetica,sans-Serif" font-size="10.00">app&#45;text</text>
<polygon fill="none" stroke="blue" points="783,-989 783,-1011 893,-1011 893,-989 783,-989"/>
<text text-anchor="start" x="801.05" y="-997" font-family="Helvetica,sans-Serif" font-size="10.00">docbook&#45;xml&#45;dtd</text>
<polygon fill="none" stroke="blue" points="783,-967 783,-989 893,-989 893,-967 783,-967"/>
<text text-anchor="start" x="826.88" y="-975" font-family="Helvetica,sans-Serif" font-size="10.00">none</text>
<polygon fill="none" stroke="blue" points="783,-957 783,-967 893,-967 893,-957 783,-957"/>
</g>
<!-- id&#45;&gt;dependency448456 -->
<g id="edge1" class="edge">
<title>id:e&#45;&gt;dependency448456:w</title>
<path fill="none" stroke="black" d="M488,-844C582.09,-889.43 562.47,-998.65 658.97,-1005.65"/>
<polygon fill="black" stroke="black" points="669,-1006 658.85,-1010.15 664,-1005.82 659.01,-1005.65 659.01,-1005.65 659.01,-1005.65 664,-1005.82 659.16,-1001.15 669,-1006 669,-1006"/>
</g>
<!-- dependency448457 -->
<g id="node3" class="node">
<title>dependency448457</title>
<polygon fill="none" stroke="blue" points="678,-795 678,-893 783,-893 783,-795 678,-795"/>
<text text-anchor="start" x="708.82" y="-841" font-family="Helvetica,sans-Serif" font-size="10.00">pack_dep</text>
<polygon fill="none" stroke="blue" points="783,-871 783,-893 893,-893 893,-871 783,-871"/>
<text text-anchor="start" x="832.44" y="-879" font-family="Helvetica,sans-Serif" font-size="10.00">no</text>
<polygon fill="none" stroke="blue" points="783,-849 783,-871 893,-871 893,-849 783,-849"/>
<text text-anchor="start" x="820.78" y="-857" font-family="Helvetica,sans-Serif" font-size="10.00">dev&#45;libs</text>
<polygon fill="none" stroke="blue" points="783,-827 783,-849 893,-849 893,-827 783,-827"/>
<text text-anchor="start" x="825.5" y="-835" font-family="Helvetica,sans-Serif" font-size="10.00">libxslt</text>
<polygon fill="none" stroke="blue" points="783,-805 783,-827 893,-827 893,-805 783,-805"/>
<text text-anchor="start" x="826.88" y="-813" font-family="Helvetica,sans-Serif" font-size="10.00">none</text>
<polygon fill="none" stroke="blue" points="783,-795 783,-805 893,-805 893,-795 783,-795"/>
</g>
<!-- id&#45;&gt;dependency448457 -->
<g id="edge2" class="edge">
<title>id:e&#45;&gt;dependency448457:w</title>
<path fill="none" stroke="black" d="M488,-844C557.33,-877.48 586.06,-846.88 658.91,-844.19"/>
<polygon fill="black" stroke="black" points="669,-844 659.08,-848.68 664,-844.09 659,-844.18 659,-844.18 659,-844.18 664,-844.09 658.92,-839.68 669,-844 669,-844"/>
</g>
<!-- dependency448458 -->
<g id="node4" class="node">
<title>dependency448458</title>
<polygon fill="none" stroke="blue" points="678,-671 678,-769 783,-769 783,-671 678,-671"/>
<text text-anchor="start" x="708.82" y="-717" font-family="Helvetica,sans-Serif" font-size="10.00">pack_dep</text>
<polygon fill="none" stroke="blue" points="783,-747 783,-769 893,-769 893,-747 783,-747"/>
<text text-anchor="start" x="832.44" y="-755" font-family="Helvetica,sans-Serif" font-size="10.00">no</text>
<polygon fill="none" stroke="blue" points="783,-725 783,-747 893,-747 893,-725 783,-725"/>
<text text-anchor="start" x="824.67" y="-733" font-family="Helvetica,sans-Serif" font-size="10.00">virtual</text>
<polygon fill="none" stroke="blue" points="783,-703 783,-725 893,-725 893,-703 783,-703"/>
<text text-anchor="start" x="816.6" y="-711" font-family="Helvetica,sans-Serif" font-size="10.00">pkgconfig</text>
<polygon fill="none" stroke="blue" points="783,-681 783,-703 893,-703 893,-681 783,-681"/>
<text text-anchor="start" x="826.88" y="-689" font-family="Helvetica,sans-Serif" font-size="10.00">none</text>
<polygon fill="none" stroke="blue" points="783,-671 783,-681 893,-681 893,-671 783,-671"/>
</g>
<!-- id&#45;&gt;dependency448458 -->
<g id="edge3" class="edge">
<title>id:e&#45;&gt;dependency448458:w</title>
<path fill="none" stroke="black" d="M488,-844C572.64,-884.87 571.68,-731.75 658.82,-720.63"/>
<polygon fill="black" stroke="black" points="669,-720 659.3,-725.11 664.01,-720.31 659.02,-720.62 659.02,-720.62 659.02,-720.62 664.01,-720.31 658.74,-716.13 669,-720 669,-720"/>
<path fill="none" stroke="black" d="M305,-466C398.13,-466 402.13,-803.5 486,-844"/>
</g>
<!-- dependency448459 -->
<g id="node5" class="node">
<title>dependency448459</title>
<polygon fill="none" stroke="red" points="420,-444 420,-488 511,-488 511,-444 420,-444"/>
<text text-anchor="start" x="430.77" y="-463" font-family="Helvetica,sans-Serif" font-size="10.00">use_conditional</text>
<polygon fill="none" stroke="red" points="511,-466 511,-488 554,-488 554,-466 511,-466"/>
<text text-anchor="start" x="515.55" y="-474" font-family="Helvetica,sans-Serif" font-size="10.00">positive</text>
<polygon fill="none" stroke="red" points="511,-444 511,-466 554,-466 554,-444 511,-444"/>
<text text-anchor="start" x="525.83" y="-452" font-family="Helvetica,sans-Serif" font-size="10.00">gtk</text>
</g>
<!-- id&#45;&gt;dependency448459 -->
<g id="edge5" class="edge">
<title>id:e&#45;&gt;dependency448459:w</title>
<path fill="none" stroke="black" d="M305,-466C345.3,-466 359.75,-466 392.57,-466"/>
<ellipse fill="none" stroke="black" cx="407" cy="-466" rx="4" ry="4"/>
<polygon fill="black" stroke="black" points="403,-466 393,-470.5 398,-466 393,-466 393,-466 393,-466 398,-466 393,-461.5 403,-466 403,-466"/>
</g>
<!-- dependency448461 -->
<g id="node7" class="node">
<title>dependency448461</title>
<polygon fill="none" stroke="blue" points="678,-201 678,-299 783,-299 783,-201 678,-201"/>
<text text-anchor="start" x="708.82" y="-247" font-family="Helvetica,sans-Serif" font-size="10.00">pack_dep</text>
<polygon fill="none" stroke="blue" points="783,-277 783,-299 893,-299 893,-277 783,-277"/>
<text text-anchor="start" x="832.44" y="-285" font-family="Helvetica,sans-Serif" font-size="10.00">no</text>
<polygon fill="none" stroke="blue" points="783,-255 783,-277 893,-277 893,-255 783,-255"/>
<text text-anchor="start" x="820.78" y="-263" font-family="Helvetica,sans-Serif" font-size="10.00">dev&#45;libs</text>
<polygon fill="none" stroke="blue" points="783,-233 783,-255 893,-255 893,-233 783,-233"/>
<text text-anchor="start" x="822.45" y="-241" font-family="Helvetica,sans-Serif" font-size="10.00">libxml2</text>
<polygon fill="none" stroke="blue" points="783,-211 783,-233 893,-233 893,-211 783,-211"/>
<text text-anchor="start" x="826.88" y="-219" font-family="Helvetica,sans-Serif" font-size="10.00">none</text>
<polygon fill="none" stroke="blue" points="783,-201 783,-211 893,-211 893,-201 783,-201"/>
</g>
<!-- id&#45;&gt;dependency448461 -->
<g id="edge6" class="edge">
<title>id:e&#45;&gt;dependency448461:w</title>
<path fill="none" stroke="black" d="M488,-250C556.35,-221.63 584.04,-245.46 650.66,-249.45"/>
<ellipse fill="none" stroke="black" cx="665" cy="-249.88" rx="4" ry="4"/>
<polygon fill="black" stroke="black" points="661,-249.76 650.87,-253.96 656.01,-249.61 651.01,-249.46 651.01,-249.46 651.01,-249.46 656.01,-249.61 651.14,-244.97 661,-249.76 661,-249.76"/>
</g>
<!-- dependency448462 -->
<g id="node8" class="node">
<title>dependency448462</title>
<polygon fill="none" stroke="blue" points="678,-77 678,-175 783,-175 783,-77 678,-77"/>
<text text-anchor="start" x="708.82" y="-123" font-family="Helvetica,sans-Serif" font-size="10.00">pack_dep</text>
<polygon fill="none" stroke="blue" points="783,-153 783,-175 893,-175 893,-153 783,-153"/>
<text text-anchor="start" x="832.44" y="-161" font-family="Helvetica,sans-Serif" font-size="10.00">no</text>
<polygon fill="none" stroke="blue" points="783,-131 783,-153 893,-153 893,-131 783,-131"/>
<text text-anchor="start" x="816.05" y="-139" font-family="Helvetica,sans-Serif" font-size="10.00">media&#45;gfx</text>
<polygon fill="none" stroke="blue" points="783,-109 783,-131 893,-131 893,-109 783,-109"/>
<text text-anchor="start" x="826.33" y="-117" font-family="Helvetica,sans-Serif" font-size="10.00">exiv2</text>
<polygon fill="none" stroke="blue" points="783,-87 783,-109 893,-109 893,-87 783,-87"/>
<text text-anchor="start" x="826.88" y="-95" font-family="Helvetica,sans-Serif" font-size="10.00">none</text>
<polygon fill="none" stroke="blue" points="783,-77 783,-87 893,-87 893,-77 783,-77"/>
</g>
<!-- id&#45;&gt;dependency448462 -->
<g id="edge7" class="edge">
<title>id:e&#45;&gt;dependency448462:w</title>
<path fill="none" stroke="black" d="M488,-250C572.08,-215.1 571.94,-137.29 650.89,-127.11"/>
<ellipse fill="none" stroke="black" cx="665.01" cy="-126.24" rx="4" ry="4"/>
<polygon fill="black" stroke="black" points="661.01,-126.49 651.31,-131.59 656.02,-126.79 651.03,-127.1 651.03,-127.1 651.03,-127.1 656.02,-126.79 650.76,-122.61 661.01,-126.49 661.01,-126.49"/>
<path fill="none" stroke="black" d="M305,-466C430.25,-466 370.32,-298.02 486,-250"/>
</g>
<!-- choice971121124511610112011647100111999811111110745120109108451001161004552464946504511454 -->
<g id="node9" class="node">
<title>choice971121124511610112011647100111999811111110745120109108451001161004552464946504511454</title>
<g id="a_node9"><a xlink:href="../app-text/docbook-xml-dtd-4.1.2-r6.svg" xlink:title="app&#45;text/docbook&#45;xml&#45;dtd&#45;4.1.2&#45;r6">
<ellipse fill="none" stroke="red" cx="1158" cy="-1168" rx="144" ry="18"/>
<text text-anchor="middle" x="1158" y="-1165" font-family="Helvetica,sans-Serif" font-size="10.00">app&#45;text/docbook&#45;xml&#45;dtd&#45;4.1.2&#45;r6</text>
</a>
</g>
</g>
<!-- dependency448456&#45;&gt;choice971121124511610112011647100111999811111110745120109108451001161004552464946504511454 -->
<g id="edge8" class="edge">
<title>dependency448456:e&#45;&gt;choice971121124511610112011647100111999811111110745120109108451001161004552464946504511454:w</title>
<path fill="none" stroke="black" stroke-dasharray="1,5" d="M907,-1006C989.35,-1006 932.36,-1154.38 1002.73,-1167.13"/>
<polygon fill="black" stroke="black" points="1013,-1168 1002.66,-1171.64 1008.02,-1167.58 1003.04,-1167.15 1003.04,-1167.15 1003.04,-1167.15 1008.02,-1167.58 1003.42,-1162.67 1013,-1168 1013,-1168"/>
</g>
<!-- choice97112112451161011201164710011199981111111074512010910845100116100455246504511450 -->
<g id="node10" class="node">
<title>choice97112112451161011201164710011199981111111074512010910845100116100455246504511450</title>
<g id="a_node10"><a xlink:href="../app-text/docbook-xml-dtd-4.2-r2.svg" xlink:title="app&#45;text/docbook&#45;xml&#45;dtd&#45;4.2&#45;r2">
<ellipse fill="none" stroke="red" cx="1158" cy="-1114" rx="144" ry="18"/>
<text text-anchor="middle" x="1158" y="-1111" font-family="Helvetica,sans-Serif" font-size="10.00">app&#45;text/docbook&#45;xml&#45;dtd&#45;4.2&#45;r2</text>
</a>
</g>
</g>
<!-- dependency448456&#45;&gt;choice97112112451161011201164710011199981111111074512010910845100116100455246504511450 -->
<g id="edge9" class="edge">
<title>dependency448456:e&#45;&gt;choice97112112451161011201164710011199981111111074512010910845100116100455246504511450:w</title>
<path fill="none" stroke="black" stroke-dasharray="1,5" d="M907,-1006C970.58,-1006 948.58,-1102.51 1002.79,-1113.07"/>
<polygon fill="black" stroke="black" points="1013,-1114 1002.63,-1117.57 1008.02,-1113.54 1003.04,-1113.09 1003.04,-1113.09 1003.04,-1113.09 1008.02,-1113.54 1003.45,-1108.61 1013,-1114 1013,-1114"/>
</g>
<!-- choice97112112451161011201164710011199981111111074512010910845100116100455246514511449 -->
<g id="node11" class="node">
<title>choice97112112451161011201164710011199981111111074512010910845100116100455246514511449</title>
<g id="a_node11"><a xlink:href="../app-text/docbook-xml-dtd-4.3-r1.svg" xlink:title="app&#45;text/docbook&#45;xml&#45;dtd&#45;4.3&#45;r1">
<ellipse fill="none" stroke="red" cx="1158" cy="-1060" rx="144" ry="18"/>
<text text-anchor="middle" x="1158" y="-1057" font-family="Helvetica,sans-Serif" font-size="10.00">app&#45;text/docbook&#45;xml&#45;dtd&#45;4.3&#45;r1</text>
</a>
</g>
</g>
<!-- dependency448456&#45;&gt;choice97112112451161011201164710011199981111111074512010910845100116100455246514511449 -->
<g id="edge10" class="edge">
<title>dependency448456:e&#45;&gt;choice97112112451161011201164710011199981111111074512010910845100116100455246514511449:w</title>
<path fill="none" stroke="black" stroke-dasharray="1,5" d="M907,-1006C956.26,-1006 959.85,-1052.87 1002.86,-1059.28"/>
<polygon fill="black" stroke="black" points="1013,-1060 1002.71,-1063.78 1008.01,-1059.64 1003.03,-1059.29 1003.03,-1059.29 1003.03,-1059.29 1008.01,-1059.64 1003.35,-1054.8 1013,-1060 1013,-1060"/>
</g>
<!-- choice97112112451161011201164710011199981111111074512010910845100116100455246524511450 -->
<g id="node12" class="node">
<title>choice97112112451161011201164710011199981111111074512010910845100116100455246524511450</title>
<g id="a_node12"><a xlink:href="../app-text/docbook-xml-dtd-4.4-r2.svg" xlink:title="app&#45;text/docbook&#45;xml&#45;dtd&#45;4.4&#45;r2">
<ellipse fill="none" stroke="red" cx="1158" cy="-1006" rx="144" ry="18"/>
<text text-anchor="middle" x="1158" y="-1003" font-family="Helvetica,sans-Serif" font-size="10.00">app&#45;text/docbook&#45;xml&#45;dtd&#45;4.4&#45;r2</text>
</a>
</g>
</g>
<!-- dependency448456&#45;&gt;choice97112112451161011201164710011199981111111074512010910845100116100455246524511450 -->
<g id="edge11" class="edge">
<title>dependency448456:e&#45;&gt;choice97112112451161011201164710011199981111111074512010910845100116100455246524511450:w</title>
<path fill="none" stroke="black" stroke-dasharray="1,5" d="M907,-1006C950.43,-1006 963.83,-1006 1002.57,-1006"/>
<polygon fill="black" stroke="black" points="1013,-1006 1003,-1010.5 1008,-1006 1003,-1006 1003,-1006 1003,-1006 1008,-1006 1003,-1001.5 1013,-1006 1013,-1006"/>
</g>
<!-- choice97112112451161011201164710011199981111111074512010910845100116100455246534511449 -->
<g id="node13" class="node">
<title>choice97112112451161011201164710011199981111111074512010910845100116100455246534511449</title>
<g id="a_node13"><a xlink:href="../app-text/docbook-xml-dtd-4.5-r1.svg" xlink:title="app&#45;text/docbook&#45;xml&#45;dtd&#45;4.5&#45;r1">
<ellipse fill="none" stroke="red" cx="1158" cy="-952" rx="144" ry="18"/>
<text text-anchor="middle" x="1158" y="-949" font-family="Helvetica,sans-Serif" font-size="10.00">app&#45;text/docbook&#45;xml&#45;dtd&#45;4.5&#45;r1</text>
</a>
</g>
</g>
<!-- dependency448456&#45;&gt;choice97112112451161011201164710011199981111111074512010910845100116100455246534511449 -->
<g id="edge12" class="edge">
<title>dependency448456:e&#45;&gt;choice97112112451161011201164710011199981111111074512010910845100116100455246534511449:w</title>
<path fill="none" stroke="black" stroke-dasharray="1,5" d="M907,-1006C956.26,-1006 959.85,-959.13 1002.86,-952.72"/>
<polygon fill="black" stroke="black" points="1013,-952 1003.35,-957.2 1008.01,-952.36 1003.03,-952.71 1003.03,-952.71 1003.03,-952.71 1008.01,-952.36 1002.71,-948.22 1013,-952 1013,-952"/>
</g>
<!-- choice10010111845108105981154710810598120115108116454946494650574511449 -->
<g id="node14" class="node">
<title>choice10010111845108105981154710810598120115108116454946494650574511449</title>
<g id="a_node14"><a xlink:href="../dev-libs/libxslt-1.1.29-r1.svg" xlink:title="dev&#45;libs/libxslt&#45;1.1.29&#45;r1">
<ellipse fill="none" stroke="red" cx="1158" cy="-898" rx="144" ry="18"/>
<text text-anchor="middle" x="1158" y="-895" font-family="Helvetica,sans-Serif" font-size="10.00">dev&#45;libs/libxslt&#45;1.1.29&#45;r1</text>
</a>
</g>
</g>
<!-- dependency448457&#45;&gt;choice10010111845108105981154710810598120115108116454946494650574511449 -->
<g id="edge13" class="edge">
<title>dependency448457:e&#45;&gt;choice10010111845108105981154710810598120115108116454946494650574511449:w</title>
<path fill="none" stroke="black" stroke-dasharray="1,5" d="M907,-844C956.26,-844 959.85,-890.87 1002.86,-897.28"/>
<polygon fill="black" stroke="black" points="1013,-898 1002.71,-901.78 1008.01,-897.64 1003.03,-897.29 1003.03,-897.29 1003.03,-897.29 1008.01,-897.64 1003.35,-892.8 1013,-898 1013,-898"/>
</g>
<!-- choice1001011184510810598115471081059812011510811645494649465148 -->
<g id="node15" class="node">
<title>choice1001011184510810598115471081059812011510811645494649465148</title>
<g id="a_node15"><a xlink:href="../dev-libs/libxslt-1.1.30.svg" xlink:title="dev&#45;libs/libxslt&#45;1.1.30">
<ellipse fill="none" stroke="red" cx="1158" cy="-844" rx="144" ry="18"/>
<text text-anchor="middle" x="1158" y="-841" font-family="Helvetica,sans-Serif" font-size="10.00">dev&#45;libs/libxslt&#45;1.1.30</text>
</a>
</g>
</g>
<!-- dependency448457&#45;&gt;choice1001011184510810598115471081059812011510811645494649465148 -->
<g id="edge14" class="edge">
<title>dependency448457:e&#45;&gt;choice1001011184510810598115471081059812011510811645494649465148:w</title>
<path fill="none" stroke="black" stroke-dasharray="1,5" d="M907,-844C950.43,-844 963.83,-844 1002.57,-844"/>
<polygon fill="black" stroke="black" points="1013,-844 1003,-848.5 1008,-844 1003,-844 1003,-844 1003,-844 1008,-844 1003,-839.5 1013,-844 1013,-844"/>
</g>
<!-- choice10010111845108105981154710810598120115108116454946494651484511449 -->
<g id="node16" class="node">
<title>choice10010111845108105981154710810598120115108116454946494651484511449</title>
<g id="a_node16"><a xlink:href="../dev-libs/libxslt-1.1.30-r1.svg" xlink:title="dev&#45;libs/libxslt&#45;1.1.30&#45;r1">
<ellipse fill="none" stroke="red" cx="1158" cy="-790" rx="144" ry="18"/>
<text text-anchor="middle" x="1158" y="-787" font-family="Helvetica,sans-Serif" font-size="10.00">dev&#45;libs/libxslt&#45;1.1.30&#45;r1</text>
</a>
</g>
</g>
<!-- dependency448457&#45;&gt;choice10010111845108105981154710810598120115108116454946494651484511449 -->
<g id="edge15" class="edge">
<title>dependency448457:e&#45;&gt;choice10010111845108105981154710810598120115108116454946494651484511449:w</title>
<path fill="none" stroke="black" stroke-dasharray="1,5" d="M907,-844C956.26,-844 959.85,-797.13 1002.86,-790.72"/>
<polygon fill="black" stroke="black" points="1013,-790 1003.35,-795.2 1008.01,-790.36 1003.03,-790.71 1003.03,-790.71 1003.03,-790.71 1008.01,-790.36 1002.71,-786.22 1013,-790 1013,-790"/>
</g>
<!-- choice10010111845108105981154710810598120115108116454946494651484511450 -->
<g id="node17" class="node">
<title>choice10010111845108105981154710810598120115108116454946494651484511450</title>
<g id="a_node17"><a xlink:href="../dev-libs/libxslt-1.1.30-r2.svg" xlink:title="dev&#45;libs/libxslt&#45;1.1.30&#45;r2">
<ellipse fill="none" stroke="red" cx="1158" cy="-736" rx="144" ry="18"/>
<text text-anchor="middle" x="1158" y="-733" font-family="Helvetica,sans-Serif" font-size="10.00">dev&#45;libs/libxslt&#45;1.1.30&#45;r2</text>
</a>
</g>
</g>
<!-- dependency448457&#45;&gt;choice10010111845108105981154710810598120115108116454946494651484511450 -->
<g id="edge16" class="edge">
<title>dependency448457:e&#45;&gt;choice10010111845108105981154710810598120115108116454946494651484511450:w</title>
<path fill="none" stroke="black" stroke-dasharray="1,5" d="M907,-844C970.58,-844 948.58,-747.49 1002.79,-736.93"/>
<polygon fill="black" stroke="black" points="1013,-736 1003.45,-741.39 1008.02,-736.46 1003.04,-736.91 1003.04,-736.91 1003.04,-736.91 1008.02,-736.46 1002.63,-732.43 1013,-736 1013,-736"/>
</g>
<!-- choice11810511411611797108471121071039911111010210510345484511449 -->
<g id="node18" class="node">
<title>choice11810511411611797108471121071039911111010210510345484511449</title>
<g id="a_node18"><a xlink:href="../virtual/pkgconfig-0-r1.svg" xlink:title="virtual/pkgconfig&#45;0&#45;r1">
<ellipse fill="none" stroke="red" cx="1158" cy="-682" rx="144" ry="18"/>
<text text-anchor="middle" x="1158" y="-679" font-family="Helvetica,sans-Serif" font-size="10.00">virtual/pkgconfig&#45;0&#45;r1</text>
</a>
</g>
</g>
<!-- dependency448458&#45;&gt;choice11810511411611797108471121071039911111010210510345484511449 -->
<g id="edge17" class="edge">
<title>dependency448458:e&#45;&gt;choice11810511411611797108471121071039911111010210510345484511449:w</title>
<path fill="none" stroke="black" stroke-dasharray="1,5" d="M907,-720C953.43,-720 961.87,-687.29 1002.81,-682.57"/>
<polygon fill="black" stroke="black" points="1013,-682 1003.27,-687.05 1008.01,-682.28 1003.02,-682.56 1003.02,-682.56 1003.02,-682.56 1008.01,-682.28 1002.77,-678.06 1013,-682 1013,-682"/>
</g>
<!-- dependency448460 -->
<g id="node6" class="node">
<title>dependency448460</title>
<polygon fill="none" stroke="blue" points="678,-417 678,-515 783,-515 783,-417 678,-417"/>
<text text-anchor="start" x="708.82" y="-463" font-family="Helvetica,sans-Serif" font-size="10.00">pack_dep</text>
<polygon fill="none" stroke="blue" points="783,-493 783,-515 893,-515 893,-493 783,-493"/>
<text text-anchor="start" x="832.44" y="-501" font-family="Helvetica,sans-Serif" font-size="10.00">no</text>
<polygon fill="none" stroke="blue" points="783,-471 783,-493 893,-493 893,-471 783,-471"/>
<text text-anchor="start" x="820.78" y="-479" font-family="Helvetica,sans-Serif" font-size="10.00">x11&#45;libs</text>
<polygon fill="none" stroke="blue" points="783,-449 783,-471 893,-471 893,-449 783,-449"/>
<text text-anchor="start" x="828.41" y="-457" font-family="Helvetica,sans-Serif" font-size="10.00">gtk+</text>
<polygon fill="none" stroke="blue" points="783,-427 783,-449 893,-449 893,-427 783,-427"/>
<text text-anchor="start" x="826.88" y="-435" font-family="Helvetica,sans-Serif" font-size="10.00">none</text>
<polygon fill="none" stroke="blue" points="783,-417 783,-427 893,-427 893,-417 783,-417"/>
</g>
<!-- dependency448459&#45;&gt;dependency448460 -->
<g id="edge4" class="edge">
<title>dependency448459:e&#45;&gt;dependency448460:w</title>
<path fill="none" stroke="black" stroke-dasharray="5,2" d="M562,-466C606.03,-466 619.48,-466 658.97,-466"/>
<polygon fill="black" stroke="black" points="669,-466 659,-470.5 664,-466 659,-466 659,-466 659,-466 664,-466 659,-461.5 669,-466 669,-466"/>
</g>
<!-- choice12049494510810598115471031161074345504650524651494511449 -->
<g id="node19" class="node">
<title>choice12049494510810598115471031161074345504650524651494511449</title>
<g id="a_node19"><a xlink:href="../x11-libs/gtk+-2.24.31-r1.svg" xlink:title="x11&#45;libs/gtk+&#45;2.24.31&#45;r1">
<ellipse fill="none" stroke="red" cx="1158" cy="-628" rx="144" ry="18"/>
<text text-anchor="middle" x="1158" y="-625" font-family="Helvetica,sans-Serif" font-size="10.00">x11&#45;libs/gtk+&#45;2.24.31&#45;r1</text>
</a>
</g>
</g>
<!-- dependency448460&#45;&gt;choice12049494510810598115471031161074345504650524651494511449 -->
<g id="edge18" class="edge">
<title>dependency448460:e&#45;&gt;choice12049494510810598115471031161074345504650524651494511449:w</title>
<path fill="none" stroke="black" stroke-dasharray="1,5" d="M907,-466C989.35,-466 932.36,-614.38 1002.73,-627.13"/>
<polygon fill="black" stroke="black" points="1013,-628 1002.66,-631.64 1008.02,-627.58 1003.04,-627.15 1003.04,-627.15 1003.04,-627.15 1008.02,-627.58 1003.42,-622.67 1013,-628 1013,-628"/>
</g>
<!-- choice1204949451081059811547103116107434551465050464953 -->
<g id="node20" class="node">
<title>choice1204949451081059811547103116107434551465050464953</title>
<g id="a_node20"><a xlink:href="../x11-libs/gtk+-3.22.15.svg" xlink:title="x11&#45;libs/gtk+&#45;3.22.15">
<ellipse fill="none" stroke="red" cx="1158" cy="-574" rx="144" ry="18"/>
<text text-anchor="middle" x="1158" y="-571" font-family="Helvetica,sans-Serif" font-size="10.00">x11&#45;libs/gtk+&#45;3.22.15</text>
</a>
</g>
</g>
<!-- dependency448460&#45;&gt;choice1204949451081059811547103116107434551465050464953 -->
<g id="edge19" class="edge">
<title>dependency448460:e&#45;&gt;choice1204949451081059811547103116107434551465050464953:w</title>
<path fill="none" stroke="black" stroke-dasharray="1,5" d="M907,-466C970.58,-466 948.58,-562.51 1002.79,-573.07"/>
<polygon fill="black" stroke="black" points="1013,-574 1002.63,-577.57 1008.02,-573.54 1003.04,-573.09 1003.04,-573.09 1003.04,-573.09 1008.02,-573.54 1003.45,-568.61 1013,-574 1013,-574"/>
</g>
<!-- choice1204949451081059811547103116107434551465050464954 -->
<g id="node21" class="node">
<title>choice1204949451081059811547103116107434551465050464954</title>
<g id="a_node21"><a xlink:href="../x11-libs/gtk+-3.22.16.svg" xlink:title="x11&#45;libs/gtk+&#45;3.22.16">
<ellipse fill="none" stroke="red" cx="1158" cy="-520" rx="144" ry="18"/>
<text text-anchor="middle" x="1158" y="-517" font-family="Helvetica,sans-Serif" font-size="10.00">x11&#45;libs/gtk+&#45;3.22.16</text>
</a>
</g>
</g>
<!-- dependency448460&#45;&gt;choice1204949451081059811547103116107434551465050464954 -->
<g id="edge20" class="edge">
<title>dependency448460:e&#45;&gt;choice1204949451081059811547103116107434551465050464954:w</title>
<path fill="none" stroke="black" stroke-dasharray="1,5" d="M907,-466C956.26,-466 959.85,-512.87 1002.86,-519.28"/>
<polygon fill="black" stroke="black" points="1013,-520 1002.71,-523.78 1008.01,-519.64 1003.03,-519.29 1003.03,-519.29 1003.03,-519.29 1008.01,-519.64 1003.35,-514.8 1013,-520 1013,-520"/>
</g>
<!-- choice1204949451081059811547103116107434551465050464955 -->
<g id="node22" class="node">
<title>choice1204949451081059811547103116107434551465050464955</title>
<g id="a_node22"><a xlink:href="../x11-libs/gtk+-3.22.17.svg" xlink:title="x11&#45;libs/gtk+&#45;3.22.17">
<ellipse fill="none" stroke="red" cx="1158" cy="-466" rx="144" ry="18"/>
<text text-anchor="middle" x="1158" y="-463" font-family="Helvetica,sans-Serif" font-size="10.00">x11&#45;libs/gtk+&#45;3.22.17</text>
</a>
</g>
</g>
<!-- dependency448460&#45;&gt;choice1204949451081059811547103116107434551465050464955 -->
<g id="edge21" class="edge">
<title>dependency448460:e&#45;&gt;choice1204949451081059811547103116107434551465050464955:w</title>
<path fill="none" stroke="black" stroke-dasharray="1,5" d="M907,-466C950.43,-466 963.83,-466 1002.57,-466"/>
<polygon fill="black" stroke="black" points="1013,-466 1003,-470.5 1008,-466 1003,-466 1003,-466 1003,-466 1008,-466 1003,-461.5 1013,-466 1013,-466"/>
</g>
<!-- choice1204949451081059811547103116107434551465050464957 -->
<g id="node23" class="node">
<title>choice1204949451081059811547103116107434551465050464957</title>
<g id="a_node23"><a xlink:href="../x11-libs/gtk+-3.22.19.svg" xlink:title="x11&#45;libs/gtk+&#45;3.22.19">
<ellipse fill="none" stroke="red" cx="1158" cy="-412" rx="144" ry="18"/>
<text text-anchor="middle" x="1158" y="-409" font-family="Helvetica,sans-Serif" font-size="10.00">x11&#45;libs/gtk+&#45;3.22.19</text>
</a>
</g>
</g>
<!-- dependency448460&#45;&gt;choice1204949451081059811547103116107434551465050464957 -->
<g id="edge22" class="edge">
<title>dependency448460:e&#45;&gt;choice1204949451081059811547103116107434551465050464957:w</title>
<path fill="none" stroke="black" stroke-dasharray="1,5" d="M907,-466C956.26,-466 959.85,-419.13 1002.86,-412.72"/>
<polygon fill="black" stroke="black" points="1013,-412 1003.35,-417.2 1008.01,-412.36 1003.03,-412.71 1003.03,-412.71 1003.03,-412.71 1008.01,-412.36 1002.71,-408.22 1013,-412 1013,-412"/>
</g>
<!-- choice10010111845108105981154710810598120109108504550465746524511449 -->
<g id="node24" class="node">
<title>choice10010111845108105981154710810598120109108504550465746524511449</title>
<g id="a_node24"><a xlink:href="../dev-libs/libxml2-2.9.4-r1.svg" xlink:title="dev&#45;libs/libxml2&#45;2.9.4&#45;r1">
<ellipse fill="none" stroke="red" cx="1158" cy="-358" rx="144" ry="18"/>
<text text-anchor="middle" x="1158" y="-355" font-family="Helvetica,sans-Serif" font-size="10.00">dev&#45;libs/libxml2&#45;2.9.4&#45;r1</text>
</a>
</g>
</g>
<!-- dependency448461&#45;&gt;choice10010111845108105981154710810598120109108504550465746524511449 -->
<g id="edge23" class="edge">
<title>dependency448461:e&#45;&gt;choice10010111845108105981154710810598120109108504550465746524511449:w</title>
<path fill="none" stroke="black" stroke-dasharray="1,5" d="M907,-250C970.58,-250 948.58,-346.51 1002.79,-357.07"/>
<polygon fill="black" stroke="black" points="1013,-358 1002.63,-361.57 1008.02,-357.54 1003.04,-357.09 1003.04,-357.09 1003.04,-357.09 1008.02,-357.54 1003.45,-352.61 1013,-358 1013,-358"/>
</g>
<!-- choice10010111845108105981154710810598120109108504550465746524511450 -->
<g id="node25" class="node">
<title>choice10010111845108105981154710810598120109108504550465746524511450</title>
<g id="a_node25"><a xlink:href="../dev-libs/libxml2-2.9.4-r2.svg" xlink:title="dev&#45;libs/libxml2&#45;2.9.4&#45;r2">
<ellipse fill="none" stroke="red" cx="1158" cy="-304" rx="144" ry="18"/>
<text text-anchor="middle" x="1158" y="-301" font-family="Helvetica,sans-Serif" font-size="10.00">dev&#45;libs/libxml2&#45;2.9.4&#45;r2</text>
</a>
</g>
</g>
<!-- dependency448461&#45;&gt;choice10010111845108105981154710810598120109108504550465746524511450 -->
<g id="edge24" class="edge">
<title>dependency448461:e&#45;&gt;choice10010111845108105981154710810598120109108504550465746524511450:w</title>
<path fill="none" stroke="black" stroke-dasharray="1,5" d="M907,-250C956.26,-250 959.85,-296.87 1002.86,-303.28"/>
<polygon fill="black" stroke="black" points="1013,-304 1002.71,-307.78 1008.01,-303.64 1003.03,-303.29 1003.03,-303.29 1003.03,-303.29 1008.01,-303.64 1003.35,-298.8 1013,-304 1013,-304"/>
</g>
<!-- choice10010111845108105981154710810598120109108504550465746524511451 -->
<g id="node26" class="node">
<title>choice10010111845108105981154710810598120109108504550465746524511451</title>
<g id="a_node26"><a xlink:href="../dev-libs/libxml2-2.9.4-r3.svg" xlink:title="dev&#45;libs/libxml2&#45;2.9.4&#45;r3">
<ellipse fill="none" stroke="red" cx="1158" cy="-250" rx="144" ry="18"/>
<text text-anchor="middle" x="1158" y="-247" font-family="Helvetica,sans-Serif" font-size="10.00">dev&#45;libs/libxml2&#45;2.9.4&#45;r3</text>
</a>
</g>
</g>
<!-- dependency448461&#45;&gt;choice10010111845108105981154710810598120109108504550465746524511451 -->
<g id="edge25" class="edge">
<title>dependency448461:e&#45;&gt;choice10010111845108105981154710810598120109108504550465746524511451:w</title>
<path fill="none" stroke="black" stroke-dasharray="1,5" d="M907,-250C950.43,-250 963.83,-250 1002.57,-250"/>
<polygon fill="black" stroke="black" points="1013,-250 1003,-254.5 1008,-250 1003,-250 1003,-250 1003,-250 1008,-250 1003,-245.5 1013,-250 1013,-250"/>
</g>
<!-- choice1001011184510810598115471081059812010910850455046574653 -->
<g id="node27" class="node">
<title>choice1001011184510810598115471081059812010910850455046574653</title>
<g id="a_node27"><a xlink:href="../dev-libs/libxml2-2.9.5.svg" xlink:title="dev&#45;libs/libxml2&#45;2.9.5">
<ellipse fill="none" stroke="red" cx="1158" cy="-196" rx="144" ry="18"/>
<text text-anchor="middle" x="1158" y="-193" font-family="Helvetica,sans-Serif" font-size="10.00">dev&#45;libs/libxml2&#45;2.9.5</text>
</a>
</g>
</g>
<!-- dependency448461&#45;&gt;choice1001011184510810598115471081059812010910850455046574653 -->
<g id="edge26" class="edge">
<title>dependency448461:e&#45;&gt;choice1001011184510810598115471081059812010910850455046574653:w</title>
<path fill="none" stroke="black" stroke-dasharray="1,5" d="M907,-250C956.26,-250 959.85,-203.13 1002.86,-196.72"/>
<polygon fill="black" stroke="black" points="1013,-196 1003.35,-201.2 1008.01,-196.36 1003.03,-196.71 1003.03,-196.71 1003.03,-196.71 1008.01,-196.36 1002.71,-192.22 1013,-196 1013,-196"/>
</g>
<!-- choice1001011184510810598115471081059812010910850455046574654 -->
<g id="node28" class="node">
<title>choice1001011184510810598115471081059812010910850455046574654</title>
<g id="a_node28"><a xlink:href="../dev-libs/libxml2-2.9.6.svg" xlink:title="dev&#45;libs/libxml2&#45;2.9.6">
<ellipse fill="none" stroke="red" cx="1158" cy="-142" rx="144" ry="18"/>
<text text-anchor="middle" x="1158" y="-139" font-family="Helvetica,sans-Serif" font-size="10.00">dev&#45;libs/libxml2&#45;2.9.6</text>
</a>
</g>
</g>
<!-- dependency448461&#45;&gt;choice1001011184510810598115471081059812010910850455046574654 -->
<g id="edge27" class="edge">
<title>dependency448461:e&#45;&gt;choice1001011184510810598115471081059812010910850455046574654:w</title>
<path fill="none" stroke="black" stroke-dasharray="1,5" d="M907,-250C970.58,-250 948.58,-153.49 1002.79,-142.93"/>
<polygon fill="black" stroke="black" points="1013,-142 1003.45,-147.39 1008.02,-142.46 1003.04,-142.91 1003.04,-142.91 1003.04,-142.91 1008.02,-142.46 1002.63,-138.43 1013,-142 1013,-142"/>
</g>
<!-- choice1091011001059745103102120471011201051185045484650534511450 -->
<g id="node29" class="node">
<title>choice1091011001059745103102120471011201051185045484650534511450</title>
<g id="a_node29"><a xlink:href="../media-gfx/exiv2-0.25-r2.svg" xlink:title="media&#45;gfx/exiv2&#45;0.25&#45;r2">
<ellipse fill="none" stroke="red" cx="1158" cy="-88" rx="144" ry="18"/>
<text text-anchor="middle" x="1158" y="-85" font-family="Helvetica,sans-Serif" font-size="10.00">media&#45;gfx/exiv2&#45;0.25&#45;r2</text>
</a>
</g>
</g>
<!-- dependency448462&#45;&gt;choice1091011001059745103102120471011201051185045484650534511450 -->
<g id="edge28" class="edge">
<title>dependency448462:e&#45;&gt;choice1091011001059745103102120471011201051185045484650534511450:w</title>
<path fill="none" stroke="black" stroke-dasharray="1,5" d="M907,-126C953.43,-126 961.87,-93.29 1002.81,-88.57"/>
<polygon fill="black" stroke="black" points="1013,-88 1003.27,-93.05 1008.01,-88.28 1003.02,-88.56 1003.02,-88.56 1003.02,-88.56 1008.01,-88.28 1002.77,-84.06 1013,-88 1013,-88"/>
</g>
<!-- choice109101100105974510310212047101120105118504548465054951125048495549494852 -->
<g id="node30" class="node">
<title>choice109101100105974510310212047101120105118504548465054951125048495549494852</title>
<g id="a_node30"><a xlink:href="../media-gfx/exiv2-0.26_p20171104.svg" xlink:title="media&#45;gfx/exiv2&#45;0.26_p20171104">
<ellipse fill="none" stroke="red" cx="1158" cy="-34" rx="144" ry="18"/>
<text text-anchor="middle" x="1158" y="-31" font-family="Helvetica,sans-Serif" font-size="10.00">media&#45;gfx/exiv2&#45;0.26_p20171104</text>
</a>
</g>
</g>
<!-- dependency448462&#45;&gt;choice109101100105974510310212047101120105118504548465054951125048495549494852 -->
<g id="edge29" class="edge">
<title>dependency448462:e&#45;&gt;choice109101100105974510310212047101120105118504548465054951125048495549494852:w</title>
<path fill="none" stroke="black" stroke-dasharray="1,5" d="M907,-126C965.73,-126 952.54,-44.47 1002.84,-34.91"/>
<polygon fill="black" stroke="black" points="1013,-34 1003.44,-39.37 1008.02,-34.45 1003.04,-34.89 1003.04,-34.89 1003.04,-34.89 1008.02,-34.45 1002.64,-30.41 1013,-34 1013,-34"/>
</g>
</g>
</svg>
