<?xml version="1.0" encoding="UTF-8" standalone="no"?>
<!DOCTYPE svg PUBLIC "-//W3C//DTD SVG 1.1//EN"
 "http://www.w3.org/Graphics/SVG/1.1/DTD/svg11.dtd">
<!-- Generated by graphviz version 9.0.0 (20230911.1827)
 -->
<!-- Title: prolog Pages: 1 -->
<svg width="1076pt" height="689pt"
 viewBox="0.00 0.00 1076.00 689.00" xmlns="http://www.w3.org/2000/svg" xmlns:xlink="http://www.w3.org/1999/xlink">
<g id="graph0" class="graph" transform="scale(1 1) rotate(0) translate(4 685)">
<title>prolog</title>
<polygon fill="white" stroke="none" points="-4,4 -4,-685 1072,-685 1072,4 -4,4"/>
<g id="clust2" class="cluster">
<title>cluster_midcol</title>
<polygon fill="none" stroke="gray" points="8,-183 8,-517 672,-517 672,-183 8,-183"/>
<text text-anchor="start" x="310" y="-504.5" font-family="Helvetica,sans-Serif" font-style="italic" font-size="10.00">dependencies</text>
</g>
<g id="clust3" class="cluster">
<title>cluster_compile</title>
<polygon fill="#eeeeee" stroke="gray" points="16,-191 16,-490 664,-490 664,-191 16,-191"/>
<text text-anchor="start" x="323.12" y="-477.5" font-family="Helvetica,sans-Serif" font-style="italic" font-size="10.00">compile</text>
</g>
<g id="clust8" class="cluster">
<title>cluster_choices</title>
<polygon fill="none" stroke="gray" points="756,-8 756,-673 1060,-673 1060,-8 756,-8"/>
<text text-anchor="start" x="884.38" y="-660.5" font-family="Helvetica,sans-Serif" font-style="italic" font-size="10.00">candidates</text>
</g>
<!-- id -->
<g id="node1" class="node">
<title>id</title>
<g id="a_node1"><a xlink:href="../app-misc/rq-0.10.4.svg" xlink:title="portage://app&#45;misc/rq&#45;0.10.4">
<ellipse fill="none" stroke="red" cx="168" cy="-331" rx="144" ry="18"/>
<text text-anchor="middle" x="168" y="-327.12" font-family="Helvetica,sans-Serif" font-size="10.00">portage://app&#45;misc/rq&#45;0.10.4</text>
</a>
</g>
</g>
<!-- dependency35724 -->
<g id="node2" class="node">
<title>dependency35724</title>
<polygon fill="none" stroke="blue" points="428,-203 428,-297 532,-297 532,-203 428,-203"/>
<text text-anchor="start" x="459" y="-246.12" font-family="Helvetica,sans-Serif" font-size="10.00">pack_dep</text>
<polygon fill="none" stroke="blue" points="532,-276 532,-297 642,-297 642,-276 532,-276"/>
<text text-anchor="start" x="581.75" y="-282.5" font-family="Helvetica,sans-Serif" font-size="10.00">no</text>
<polygon fill="none" stroke="blue" points="532,-255 532,-276 642,-276 642,-255 532,-255"/>
<text text-anchor="start" x="566" y="-261.5" font-family="Helvetica,sans-Serif" font-size="10.00">sys&#45;devel</text>
<polygon fill="none" stroke="blue" points="532,-234 532,-255 642,-255 642,-234 532,-234"/>
<text text-anchor="start" x="575.38" y="-240.5" font-family="Helvetica,sans-Serif" font-size="10.00">clang</text>
<polygon fill="none" stroke="blue" points="532,-213 532,-234 642,-234 642,-213 532,-213"/>
<text text-anchor="start" x="576.5" y="-219.5" font-family="Helvetica,sans-Serif" font-size="10.00">none</text>
<polygon fill="none" stroke="blue" points="532,-203 532,-213 642,-213 642,-203 532,-203"/>
</g>
<!-- id&#45;&gt;dependency35724 -->
<g id="edge1" class="edge">
<title>id:e&#45;&gt;dependency35724:w</title>
<path fill="none" stroke="black" d="M312,-331C368.02,-331 361.28,-260.4 408.96,-251.02"/>
<polygon fill="black" stroke="black" points="418.79,-250.11 409.25,-255.52 415.02,-250.46 408.83,-251.04 408.83,-251.04 408.83,-251.04 415.02,-250.46 408.41,-246.56 418.79,-250.11"/>
</g>
<!-- dependency35725 -->
<g id="node3" class="node">
<title>dependency35725</title>
<polygon fill="none" stroke="blue" points="428,-365 428,-459 532,-459 532,-365 428,-365"/>
<text text-anchor="start" x="459" y="-408.12" font-family="Helvetica,sans-Serif" font-size="10.00">pack_dep</text>
<polygon fill="none" stroke="blue" points="532,-438 532,-459 642,-459 642,-438 532,-438"/>
<text text-anchor="start" x="581.75" y="-444.5" font-family="Helvetica,sans-Serif" font-size="10.00">no</text>
<polygon fill="none" stroke="blue" points="532,-417 532,-438 642,-438 642,-417 532,-417"/>
<text text-anchor="start" x="573.88" y="-423.5" font-family="Helvetica,sans-Serif" font-size="10.00">virtual</text>
<polygon fill="none" stroke="blue" points="532,-396 532,-417 642,-417 642,-396 532,-396"/>
<text text-anchor="start" x="575" y="-402.5" font-family="Helvetica,sans-Serif" font-size="10.00">cargo</text>
<polygon fill="none" stroke="blue" points="532,-375 532,-396 642,-396 642,-375 532,-375"/>
<text text-anchor="start" x="576.5" y="-381.5" font-family="Helvetica,sans-Serif" font-size="10.00">none</text>
<polygon fill="none" stroke="blue" points="532,-365 532,-375 642,-375 642,-365 532,-365"/>
</g>
<!-- id&#45;&gt;dependency35725 -->
<g id="edge2" class="edge">
<title>id:e&#45;&gt;dependency35725:w</title>
<path fill="none" stroke="black" d="M312,-331C368.02,-331 361.28,-401.6 408.96,-410.98"/>
<polygon fill="black" stroke="black" points="418.79,-411.89 408.41,-415.44 415.02,-411.54 408.83,-410.96 408.83,-410.96 408.83,-410.96 415.02,-411.54 409.25,-406.48 418.79,-411.89"/>
</g>
<!-- choiceportage11512111545100101118101108479910897110103454948464846484657575757 -->
<g id="node4" class="node">
<title>choiceportage11512111545100101118101108479910897110103454948464846484657575757</title>
<g id="a_node4"><a xlink:href="../sys-devel/clang-10.0.0.9999.svg" xlink:title="portage://sys&#45;devel/clang&#45;10.0.0.9999">
<ellipse fill="none" stroke="red" cx="908" cy="-304" rx="144" ry="18"/>
<text text-anchor="middle" x="908" y="-300.12" font-family="Helvetica,sans-Serif" font-size="10.00">portage://sys&#45;devel/clang&#45;10.0.0.9999</text>
</a>
</g>
</g>
<!-- dependency35724&#45;&gt;choiceportage11512111545100101118101108479910897110103454948464846484657575757 -->
<g id="edge3" class="edge">
<title>dependency35724:e&#45;&gt;choiceportage11512111545100101118101108479910897110103454948464846484657575757:w</title>
<path fill="none" stroke="black" stroke-dasharray="1,5" d="M657,-250C705.95,-250 709.8,-296.28 752.05,-303.15"/>
<polygon fill="black" stroke="black" points="761.79,-303.91 751.47,-307.62 758.01,-303.61 751.82,-303.13 751.82,-303.13 751.82,-303.13 758.01,-303.61 752.16,-298.65 761.79,-303.91"/>
</g>
<!-- choiceportage11512111545100101118101108479910897110103455446484649 -->
<g id="node5" class="node">
<title>choiceportage11512111545100101118101108479910897110103455446484649</title>
<g id="a_node5"><a xlink:href="../sys-devel/clang-6.0.1.svg" xlink:title="portage://sys&#45;devel/clang&#45;6.0.1">
<ellipse fill="none" stroke="red" cx="908" cy="-250" rx="144" ry="18"/>
<text text-anchor="middle" x="908" y="-246.12" font-family="Helvetica,sans-Serif" font-size="10.00">portage://sys&#45;devel/clang&#45;6.0.1</text>
</a>
</g>
</g>
<!-- dependency35724&#45;&gt;choiceportage11512111545100101118101108479910897110103455446484649 -->
<g id="edge4" class="edge">
<title>dependency35724:e&#45;&gt;choiceportage11512111545100101118101108479910897110103455446484649:w</title>
<path fill="none" stroke="black" stroke-dasharray="1,5" d="M657,-250C700.25,-250 713.72,-250 752.08,-250"/>
<polygon fill="black" stroke="black" points="761.78,-250 751.78,-254.5 758,-250 751.78,-250 751.78,-250 751.78,-250 758,-250 751.78,-245.5 761.78,-250"/>
</g>
<!-- choiceportage11512111545100101118101108479910897110103455546494648 -->
<g id="node6" class="node">
<title>choiceportage11512111545100101118101108479910897110103455546494648</title>
<g id="a_node6"><a xlink:href="../sys-devel/clang-7.1.0.svg" xlink:title="portage://sys&#45;devel/clang&#45;7.1.0">
<ellipse fill="none" stroke="red" cx="908" cy="-196" rx="144" ry="18"/>
<text text-anchor="middle" x="908" y="-192.12" font-family="Helvetica,sans-Serif" font-size="10.00">portage://sys&#45;devel/clang&#45;7.1.0</text>
</a>
</g>
</g>
<!-- dependency35724&#45;&gt;choiceportage11512111545100101118101108479910897110103455546494648 -->
<g id="edge5" class="edge">
<title>dependency35724:e&#45;&gt;choiceportage11512111545100101118101108479910897110103455546494648:w</title>
<path fill="none" stroke="black" stroke-dasharray="1,5" d="M657,-250C705.95,-250 709.8,-203.72 752.05,-196.85"/>
<polygon fill="black" stroke="black" points="761.79,-196.09 752.16,-201.35 758.01,-196.39 751.82,-196.87 751.82,-196.87 751.82,-196.87 758.01,-196.39 751.47,-192.38 761.79,-196.09"/>
</g>
<!-- choiceportage11512111545100101118101108479910897110103455646484649 -->
<g id="node7" class="node">
<title>choiceportage11512111545100101118101108479910897110103455646484649</title>
<g id="a_node7"><a xlink:href="../sys-devel/clang-8.0.1.svg" xlink:title="portage://sys&#45;devel/clang&#45;8.0.1">
<ellipse fill="none" stroke="red" cx="908" cy="-142" rx="144" ry="18"/>
<text text-anchor="middle" x="908" y="-138.12" font-family="Helvetica,sans-Serif" font-size="10.00">portage://sys&#45;devel/clang&#45;8.0.1</text>
</a>
</g>
</g>
<!-- dependency35724&#45;&gt;choiceportage11512111545100101118101108479910897110103455646484649 -->
<g id="edge6" class="edge">
<title>dependency35724:e&#45;&gt;choiceportage11512111545100101118101108479910897110103455646484649:w</title>
<path fill="none" stroke="black" stroke-dasharray="1,5" d="M657,-250C720.32,-250 698.76,-154.29 752.13,-143.07"/>
<polygon fill="black" stroke="black" points="761.79,-142.12 752.28,-147.58 758.02,-142.49 751.84,-143.1 751.84,-143.1 751.84,-143.1 758.02,-142.49 751.4,-138.62 761.79,-142.12"/>
</g>
<!-- choiceportage11512111545100101118101108479910897110103455746484648 -->
<g id="node8" class="node">
<title>choiceportage11512111545100101118101108479910897110103455746484648</title>
<g id="a_node8"><a xlink:href="../sys-devel/clang-9.0.0.svg" xlink:title="portage://sys&#45;devel/clang&#45;9.0.0">
<ellipse fill="none" stroke="red" cx="908" cy="-88" rx="144" ry="18"/>
<text text-anchor="middle" x="908" y="-84.12" font-family="Helvetica,sans-Serif" font-size="10.00">portage://sys&#45;devel/clang&#45;9.0.0</text>
</a>
</g>
</g>
<!-- dependency35724&#45;&gt;choiceportage11512111545100101118101108479910897110103455746484648 -->
<g id="edge7" class="edge">
<title>dependency35724:e&#45;&gt;choiceportage11512111545100101118101108479910897110103455746484648:w</title>
<path fill="none" stroke="black" stroke-dasharray="1,5" d="M657,-250C739.01,-250 682.82,-102.83 751.87,-89.03"/>
<polygon fill="black" stroke="black" points="761.79,-88.11 752.25,-93.52 758.02,-88.46 751.83,-89.04 751.83,-89.04 751.83,-89.04 758.02,-88.46 751.41,-84.56 761.79,-88.11"/>
</g>
<!-- choiceportage115121115451001011181011084799108971101034557464846494657575757 -->
<g id="node9" class="node">
<title>choiceportage115121115451001011181011084799108971101034557464846494657575757</title>
<g id="a_node9"><a xlink:href="../sys-devel/clang-9.0.1.9999.svg" xlink:title="portage://sys&#45;devel/clang&#45;9.0.1.9999">
<ellipse fill="none" stroke="red" cx="908" cy="-34" rx="144" ry="18"/>
<text text-anchor="middle" x="908" y="-30.12" font-family="Helvetica,sans-Serif" font-size="10.00">portage://sys&#45;devel/clang&#45;9.0.1.9999</text>
</a>
</g>
</g>
<!-- dependency35724&#45;&gt;choiceportage115121115451001011181011084799108971101034557464846494657575757 -->
<g id="edge8" class="edge">
<title>dependency35724:e&#45;&gt;choiceportage115121115451001011181011084799108971101034557464846494657575757:w</title>
<path fill="none" stroke="black" stroke-dasharray="1,5" d="M657,-250C759.97,-250 663.77,-49.73 751.96,-34.87"/>
<polygon fill="black" stroke="black" points="761.79,-34.1 752.17,-39.37 758.02,-34.39 751.82,-34.88 751.82,-34.88 751.82,-34.88 758.02,-34.39 751.46,-30.4 761.79,-34.1"/>
</g>
<!-- choiceportage1181051141161179710847999711410311145494651524650 -->
<g id="node10" class="node">
<title>choiceportage1181051141161179710847999711410311145494651524650</title>
<g id="a_node10"><a xlink:href="../virtual/cargo-1.34.2.svg" xlink:title="portage://virtual/cargo&#45;1.34.2">
<ellipse fill="none" stroke="red" cx="908" cy="-628" rx="144" ry="18"/>
<text text-anchor="middle" x="908" y="-624.12" font-family="Helvetica,sans-Serif" font-size="10.00">portage://virtual/cargo&#45;1.34.2</text>
</a>
</g>
</g>
<!-- dependency35725&#45;&gt;choiceportage1181051141161179710847999711410311145494651524650 -->
<g id="edge9" class="edge">
<title>dependency35725:e&#45;&gt;choiceportage1181051141161179710847999711410311145494651524650:w</title>
<path fill="none" stroke="black" stroke-dasharray="1,5" d="M657,-412C759.97,-412 663.77,-612.27 751.96,-627.13"/>
<polygon fill="black" stroke="black" points="761.79,-627.9 751.46,-631.6 758.02,-627.61 751.82,-627.12 751.82,-627.12 751.82,-627.12 758.02,-627.61 752.17,-622.63 761.79,-627.9"/>
</g>
<!-- choiceportage1181051141161179710847999711410311145494651534648 -->
<g id="node11" class="node">
<title>choiceportage1181051141161179710847999711410311145494651534648</title>
<g id="a_node11"><a xlink:href="../virtual/cargo-1.35.0.svg" xlink:title="portage://virtual/cargo&#45;1.35.0">
<ellipse fill="none" stroke="red" cx="908" cy="-574" rx="144" ry="18"/>
<text text-anchor="middle" x="908" y="-570.12" font-family="Helvetica,sans-Serif" font-size="10.00">portage://virtual/cargo&#45;1.35.0</text>
</a>
</g>
</g>
<!-- dependency35725&#45;&gt;choiceportage1181051141161179710847999711410311145494651534648 -->
<g id="edge10" class="edge">
<title>dependency35725:e&#45;&gt;choiceportage1181051141161179710847999711410311145494651534648:w</title>
<path fill="none" stroke="black" stroke-dasharray="1,5" d="M657,-412C739.01,-412 682.82,-559.17 751.87,-572.97"/>
<polygon fill="black" stroke="black" points="761.79,-573.89 751.41,-577.44 758.02,-573.54 751.83,-572.96 751.83,-572.96 751.83,-572.96 758.02,-573.54 752.25,-568.48 761.79,-573.89"/>
</g>
<!-- choiceportage1181051141161179710847999711410311145494651544648 -->
<g id="node12" class="node">
<title>choiceportage1181051141161179710847999711410311145494651544648</title>
<g id="a_node12"><a xlink:href="../virtual/cargo-1.36.0.svg" xlink:title="portage://virtual/cargo&#45;1.36.0">
<ellipse fill="none" stroke="red" cx="908" cy="-520" rx="144" ry="18"/>
<text text-anchor="middle" x="908" y="-516.12" font-family="Helvetica,sans-Serif" font-size="10.00">portage://virtual/cargo&#45;1.36.0</text>
</a>
</g>
</g>
<!-- dependency35725&#45;&gt;choiceportage1181051141161179710847999711410311145494651544648 -->
<g id="edge11" class="edge">
<title>dependency35725:e&#45;&gt;choiceportage1181051141161179710847999711410311145494651544648:w</title>
<path fill="none" stroke="black" stroke-dasharray="1,5" d="M657,-412C720.32,-412 698.76,-507.71 752.13,-518.93"/>
<polygon fill="black" stroke="black" points="761.79,-519.88 751.4,-523.38 758.02,-519.51 751.84,-518.9 751.84,-518.9 751.84,-518.9 758.02,-519.51 752.28,-514.42 761.79,-519.88"/>
</g>
<!-- choiceportage1181051141161179710847999711410311145494651554648 -->
<g id="node13" class="node">
<title>choiceportage1181051141161179710847999711410311145494651554648</title>
<g id="a_node13"><a xlink:href="../virtual/cargo-1.37.0.svg" xlink:title="portage://virtual/cargo&#45;1.37.0">
<ellipse fill="none" stroke="red" cx="908" cy="-466" rx="144" ry="18"/>
<text text-anchor="middle" x="908" y="-462.12" font-family="Helvetica,sans-Serif" font-size="10.00">portage://virtual/cargo&#45;1.37.0</text>
</a>
</g>
</g>
<!-- dependency35725&#45;&gt;choiceportage1181051141161179710847999711410311145494651554648 -->
<g id="edge12" class="edge">
<title>dependency35725:e&#45;&gt;choiceportage1181051141161179710847999711410311145494651554648:w</title>
<path fill="none" stroke="black" stroke-dasharray="1,5" d="M657,-412C705.95,-412 709.8,-458.28 752.05,-465.15"/>
<polygon fill="black" stroke="black" points="761.79,-465.91 751.47,-469.62 758.01,-465.61 751.82,-465.13 751.82,-465.13 751.82,-465.13 758.01,-465.61 752.16,-460.65 761.79,-465.91"/>
</g>
<!-- choiceportage1181051141161179710847999711410311145494651564648 -->
<g id="node14" class="node">
<title>choiceportage1181051141161179710847999711410311145494651564648</title>
<g id="a_node14"><a xlink:href="../virtual/cargo-1.38.0.svg" xlink:title="portage://virtual/cargo&#45;1.38.0">
<ellipse fill="none" stroke="red" cx="908" cy="-412" rx="144" ry="18"/>
<text text-anchor="middle" x="908" y="-408.12" font-family="Helvetica,sans-Serif" font-size="10.00">portage://virtual/cargo&#45;1.38.0</text>
</a>
</g>
</g>
<!-- dependency35725&#45;&gt;choiceportage1181051141161179710847999711410311145494651564648 -->
<g id="edge13" class="edge">
<title>dependency35725:e&#45;&gt;choiceportage1181051141161179710847999711410311145494651564648:w</title>
<path fill="none" stroke="black" stroke-dasharray="1,5" d="M657,-412C700.25,-412 713.72,-412 752.08,-412"/>
<polygon fill="black" stroke="black" points="761.78,-412 751.78,-416.5 758,-412 751.78,-412 751.78,-412 751.78,-412 758,-412 751.78,-407.5 761.78,-412"/>
</g>
<!-- choiceportage1181051141161179710847999711410311145494651574648 -->
<g id="node15" class="node">
<title>choiceportage1181051141161179710847999711410311145494651574648</title>
<g id="a_node15"><a xlink:href="../virtual/cargo-1.39.0.svg" xlink:title="portage://virtual/cargo&#45;1.39.0">
<ellipse fill="none" stroke="red" cx="908" cy="-358" rx="144" ry="18"/>
<text text-anchor="middle" x="908" y="-354.12" font-family="Helvetica,sans-Serif" font-size="10.00">portage://virtual/cargo&#45;1.39.0</text>
</a>
</g>
</g>
<!-- dependency35725&#45;&gt;choiceportage1181051141161179710847999711410311145494651574648 -->
<g id="edge14" class="edge">
<title>dependency35725:e&#45;&gt;choiceportage1181051141161179710847999711410311145494651574648:w</title>
<path fill="none" stroke="black" stroke-dasharray="1,5" d="M657,-412C705.95,-412 709.8,-365.72 752.05,-358.85"/>
<polygon fill="black" stroke="black" points="761.79,-358.09 752.16,-363.35 758.01,-358.39 751.82,-358.87 751.82,-358.87 751.82,-358.87 758.01,-358.39 751.47,-354.38 761.79,-358.09"/>
</g>
</g>
</svg>
