<?xml version="1.0" encoding="UTF-8" standalone="no"?>
<!DOCTYPE svg PUBLIC "-//W3C//DTD SVG 1.1//EN"
 "http://www.w3.org/Graphics/SVG/1.1/DTD/svg11.dtd">
<!-- Generated by graphviz version 2.41.20171026.1811 (20171026.1811)
 -->
<!-- Title: prolog Pages: 1 -->
<svg width="1275pt" height="661pt"
 viewBox="0.00 0.00 1275.00 661.00" xmlns="http://www.w3.org/2000/svg" xmlns:xlink="http://www.w3.org/1999/xlink">
<g id="graph0" class="graph" transform="scale(1 1) rotate(0) translate(4 657)">
<title>prolog</title>
<polygon fill="white" stroke="transparent" points="-4,4 -4,-657 1271,-657 1271,4 -4,4"/>
<g id="clust1" class="cluster">
<title>cluster_leftcol</title>
<polygon fill="none" stroke="gray" points="8,-311 8,-383 312,-383 312,-311 8,-311"/>
<text text-anchor="start" x="146.66" y="-371" font-family="Helvetica,sans-Serif" font-style="italic" font-size="10.00">ebuild</text>
</g>
<g id="clust2" class="cluster">
<title>cluster_midcol</title>
<polygon fill="none" stroke="gray" points="396,-69 396,-645 871,-645 871,-69 396,-69"/>
<text text-anchor="start" x="602.38" y="-633" font-family="Helvetica,sans-Serif" font-style="italic" font-size="10.00">dependencies</text>
</g>
<g id="clust3" class="cluster">
<title>cluster_compile</title>
<polygon fill="#eeeeee" stroke="gray" points="404,-351 404,-617 863,-617 863,-351 404,-351"/>
<text text-anchor="start" x="616.28" y="-605" font-family="Helvetica,sans-Serif" font-style="italic" font-size="10.00">compile</text>
</g>
<g id="clust8" class="cluster">
<title>cluster_run</title>
<polygon fill="#eeeeee" stroke="gray" points="611,-77 611,-343 863,-343 863,-77 611,-77"/>
<text text-anchor="start" x="729.78" y="-331" font-family="Helvetica,sans-Serif" font-style="italic" font-size="10.00">run</text>
</g>
<g id="clust11" class="cluster">
<title>cluster_choices</title>
<polygon fill="none" stroke="gray" points="955,-8 955,-512 1259,-512 1259,-8 955,-8"/>
<text text-anchor="start" x="1082.82" y="-500" font-family="Helvetica,sans-Serif" font-style="italic" font-size="10.00">candidates</text>
</g>
<!-- id -->
<g id="node1" class="node">
<title>id</title>
<g id="a_node1"><a xlink:href="../app-i18n/dbskkd-cdb-3.00.svg" xlink:title="app&#45;i18n/dbskkd&#45;cdb&#45;3.00">
<ellipse fill="none" stroke="red" cx="160" cy="-337" rx="144" ry="18"/>
<text text-anchor="middle" x="160" y="-334" font-family="Helvetica,sans-Serif" font-size="10.00">app&#45;i18n/dbskkd&#45;cdb&#45;3.00</text>
</a>
</g>
</g>
<!-- dependency1294364 -->
<g id="node2" class="node">
<title>dependency1294364</title>
<polygon fill="none" stroke="red" points="420.5,-395 420.5,-429 503.5,-429 503.5,-395 420.5,-395"/>
<text text-anchor="start" x="431.43" y="-409" font-family="Helvetica,sans-Serif" font-size="10.00">any_of_group</text>
</g>
<!-- id&#45;&gt;dependency1294364 -->
<g id="edge3" class="edge">
<title>id:e&#45;&gt;dependency1294364:w</title>
<path fill="none" stroke="black" d="M305,-337C358.93,-337 353.9,-402.92 400.47,-411.16"/>
<polygon fill="black" stroke="black" points="410.5,-412 400.16,-415.65 405.52,-411.58 400.54,-411.16 400.54,-411.16 400.54,-411.16 405.52,-411.58 400.91,-406.68 410.5,-412 410.5,-412"/>
</g>
<!-- dependency1294367 -->
<g id="node5" class="node">
<title>dependency1294367</title>
<polygon fill="none" stroke="blue" points="627,-213 627,-311 732,-311 732,-213 627,-213"/>
<text text-anchor="start" x="657.82" y="-259" font-family="Helvetica,sans-Serif" font-size="10.00">pack_dep</text>
<polygon fill="none" stroke="blue" points="732,-289 732,-311 842,-311 842,-289 732,-289"/>
<text text-anchor="start" x="781.44" y="-297" font-family="Helvetica,sans-Serif" font-size="10.00">no</text>
<polygon fill="none" stroke="blue" points="732,-267 732,-289 842,-289 842,-267 732,-267"/>
<text text-anchor="start" x="767.55" y="-275" font-family="Helvetica,sans-Serif" font-size="10.00">app&#45;i18n</text>
<polygon fill="none" stroke="blue" points="732,-245 732,-267 842,-267 842,-245 732,-245"/>
<text text-anchor="start" x="767.84" y="-253" font-family="Helvetica,sans-Serif" font-size="10.00">skk&#45;jisyo</text>
<polygon fill="none" stroke="blue" points="732,-223 732,-245 842,-245 842,-223 732,-223"/>
<text text-anchor="start" x="775.88" y="-231" font-family="Helvetica,sans-Serif" font-size="10.00">none</text>
<polygon fill="none" stroke="blue" points="732,-213 732,-223 842,-223 842,-213 732,-213"/>
</g>
<!-- id&#45;&gt;dependency1294367 -->
<g id="edge4" class="edge">
<title>id:e&#45;&gt;dependency1294367:w</title>
<path fill="none" stroke="black" d="M462.5,-262C526.99,-246.72 547.24,-260.75 609.74,-261.92"/>
<ellipse fill="none" stroke="black" cx="614" cy="-261.96" rx="4" ry="4"/>
</g>
<!-- dependency1294368 -->
<g id="node6" class="node">
<title>dependency1294368</title>
<polygon fill="none" stroke="blue" points="627,-89 627,-187 732,-187 732,-89 627,-89"/>
<text text-anchor="start" x="657.82" y="-135" font-family="Helvetica,sans-Serif" font-size="10.00">pack_dep</text>
<polygon fill="none" stroke="blue" points="732,-165 732,-187 842,-187 842,-165 732,-165"/>
<text text-anchor="start" x="781.44" y="-173" font-family="Helvetica,sans-Serif" font-size="10.00">no</text>
<polygon fill="none" stroke="blue" points="732,-143 732,-165 842,-165 842,-143 732,-143"/>
<text text-anchor="start" x="767" y="-151" font-family="Helvetica,sans-Serif" font-size="10.00">sys&#45;apps</text>
<polygon fill="none" stroke="blue" points="732,-121 732,-143 842,-143 842,-121 732,-121"/>
<text text-anchor="start" x="773.66" y="-129" font-family="Helvetica,sans-Serif" font-size="10.00">xinetd</text>
<polygon fill="none" stroke="blue" points="732,-99 732,-121 842,-121 842,-99 732,-99"/>
<text text-anchor="start" x="775.88" y="-107" font-family="Helvetica,sans-Serif" font-size="10.00">none</text>
<polygon fill="none" stroke="blue" points="732,-89 732,-99 842,-99 842,-89 732,-89"/>
</g>
<!-- id&#45;&gt;dependency1294368 -->
<g id="edge5" class="edge">
<title>id:e&#45;&gt;dependency1294368:w</title>
<path fill="none" stroke="black" d="M462.5,-262C545.66,-242.3 530.75,-144.79 609.54,-138.34"/>
<ellipse fill="none" stroke="black" cx="614" cy="-138.16" rx="4" ry="4"/>
<path fill="none" stroke="black" d="M305,-337C381.73,-337 385.84,-279.69 460.5,-262"/>
</g>
<!-- dependency1294365 -->
<g id="node3" class="node">
<title>dependency1294365</title>
<polygon fill="none" stroke="blue" points="627,-363 627,-461 732,-461 732,-363 627,-363"/>
<text text-anchor="start" x="657.82" y="-409" font-family="Helvetica,sans-Serif" font-size="10.00">pack_dep</text>
<polygon fill="none" stroke="blue" points="732,-439 732,-461 842,-461 842,-439 732,-439"/>
<text text-anchor="start" x="781.44" y="-447" font-family="Helvetica,sans-Serif" font-size="10.00">no</text>
<polygon fill="none" stroke="blue" points="732,-417 732,-439 842,-439 842,-417 732,-417"/>
<text text-anchor="start" x="771.72" y="-425" font-family="Helvetica,sans-Serif" font-size="10.00">dev&#45;db</text>
<polygon fill="none" stroke="blue" points="732,-395 732,-417 842,-417 842,-395 732,-395"/>
<text text-anchor="start" x="771.16" y="-403" font-family="Helvetica,sans-Serif" font-size="10.00">tinycdb</text>
<polygon fill="none" stroke="blue" points="732,-373 732,-395 842,-395 842,-373 732,-373"/>
<text text-anchor="start" x="775.88" y="-381" font-family="Helvetica,sans-Serif" font-size="10.00">none</text>
<polygon fill="none" stroke="blue" points="732,-363 732,-373 842,-373 842,-363 732,-363"/>
</g>
<!-- dependency1294364&#45;&gt;dependency1294365 -->
<g id="edge1" class="edge">
<title>dependency1294364:e&#45;&gt;dependency1294365:w</title>
<path fill="none" stroke="black" stroke-dasharray="1,5" d="M511,-412C555.03,-412 568.48,-412 607.97,-412"/>
<polygon fill="none" stroke="black" points="618,-415.5 608,-412 618,-408.5 618,-415.5"/>
</g>
<!-- dependency1294366 -->
<g id="node4" class="node">
<title>dependency1294366</title>
<polygon fill="none" stroke="blue" points="627,-487 627,-585 732,-585 732,-487 627,-487"/>
<text text-anchor="start" x="657.82" y="-533" font-family="Helvetica,sans-Serif" font-size="10.00">pack_dep</text>
<polygon fill="none" stroke="blue" points="732,-563 732,-585 842,-585 842,-563 732,-563"/>
<text text-anchor="start" x="781.44" y="-571" font-family="Helvetica,sans-Serif" font-size="10.00">no</text>
<polygon fill="none" stroke="blue" points="732,-541 732,-563 842,-563 842,-541 732,-541"/>
<text text-anchor="start" x="771.72" y="-549" font-family="Helvetica,sans-Serif" font-size="10.00">dev&#45;db</text>
<polygon fill="none" stroke="blue" points="732,-519 732,-541 842,-541 842,-519 732,-519"/>
<text text-anchor="start" x="778.94" y="-527" font-family="Helvetica,sans-Serif" font-size="10.00">cdb</text>
<polygon fill="none" stroke="blue" points="732,-497 732,-519 842,-519 842,-497 732,-497"/>
<text text-anchor="start" x="775.88" y="-505" font-family="Helvetica,sans-Serif" font-size="10.00">none</text>
<polygon fill="none" stroke="blue" points="732,-487 732,-497 842,-497 842,-487 732,-487"/>
</g>
<!-- dependency1294364&#45;&gt;dependency1294366 -->
<g id="edge2" class="edge">
<title>dependency1294364:e&#45;&gt;dependency1294366:w</title>
<path fill="none" stroke="black" stroke-dasharray="1,5" d="M511,-412C580.1,-412 548.84,-523.73 607.74,-535.07"/>
<polygon fill="none" stroke="black" points="617.68,-539.49 608.04,-535.1 618.32,-532.51 617.68,-539.49"/>
</g>
<!-- choice100101118451009847116105110121991009845484655554511450 -->
<g id="node7" class="node">
<title>choice100101118451009847116105110121991009845484655554511450</title>
<g id="a_node7"><a xlink:href="../dev-db/tinycdb-0.77-r2.svg" xlink:title="dev&#45;db/tinycdb&#45;0.77&#45;r2">
<ellipse fill="none" stroke="red" cx="1107" cy="-412" rx="144" ry="18"/>
<text text-anchor="middle" x="1107" y="-409" font-family="Helvetica,sans-Serif" font-size="10.00">dev&#45;db/tinycdb&#45;0.77&#45;r2</text>
</a>
</g>
</g>
<!-- dependency1294365&#45;&gt;choice100101118451009847116105110121991009845484655554511450 -->
<g id="edge6" class="edge">
<title>dependency1294365:e&#45;&gt;choice100101118451009847116105110121991009845484655554511450:w</title>
<path fill="none" stroke="black" stroke-dasharray="1,5" d="M856,-412C899.43,-412 912.83,-412 951.57,-412"/>
<polygon fill="black" stroke="black" points="962,-412 952,-416.5 957,-412 952,-412 952,-412 952,-412 957,-412 952,-407.5 962,-412 962,-412"/>
</g>
<!-- choice100101118451009847991009845484655534511452 -->
<g id="node8" class="node">
<title>choice100101118451009847991009845484655534511452</title>
<g id="a_node8"><a xlink:href="../dev-db/cdb-0.75-r4.svg" xlink:title="dev&#45;db/cdb&#45;0.75&#45;r4">
<ellipse fill="none" stroke="red" cx="1107" cy="-466" rx="144" ry="18"/>
<text text-anchor="middle" x="1107" y="-463" font-family="Helvetica,sans-Serif" font-size="10.00">dev&#45;db/cdb&#45;0.75&#45;r4</text>
</a>
</g>
</g>
<!-- dependency1294366&#45;&gt;choice100101118451009847991009845484655534511452 -->
<g id="edge7" class="edge">
<title>dependency1294366:e&#45;&gt;choice100101118451009847991009845484655534511452:w</title>
<path fill="none" stroke="black" stroke-dasharray="1,5" d="M856,-536C908.82,-536 906.17,-474.73 951.84,-466.83"/>
<polygon fill="black" stroke="black" points="962,-466 952.4,-471.3 957.02,-466.41 952.03,-466.82 952.03,-466.82 952.03,-466.82 957.02,-466.41 951.67,-462.33 962,-466 962,-466"/>
</g>
<!-- choice97112112451054956110471151071074510610511512111145504849544853 -->
<g id="node9" class="node">
<title>choice97112112451054956110471151071074510610511512111145504849544853</title>
<g id="a_node9"><a xlink:href="../app-i18n/skk-jisyo-201605.svg" xlink:title="app&#45;i18n/skk&#45;jisyo&#45;201605">
<ellipse fill="none" stroke="red" cx="1107" cy="-358" rx="144" ry="18"/>
<text text-anchor="middle" x="1107" y="-355" font-family="Helvetica,sans-Serif" font-size="10.00">app&#45;i18n/skk&#45;jisyo&#45;201605</text>
</a>
</g>
</g>
<!-- dependency1294367&#45;&gt;choice97112112451054956110471151071074510610511512111145504849544853 -->
<g id="edge8" class="edge">
<title>dependency1294367:e&#45;&gt;choice97112112451054956110471151071074510610511512111145504849544853:w</title>
<path fill="none" stroke="black" stroke-dasharray="1,5" d="M856,-262C915.96,-262 900.56,-347.43 951.98,-357.11"/>
<polygon fill="black" stroke="black" points="962,-358 951.64,-361.6 957.02,-357.56 952.04,-357.12 952.04,-357.12 952.04,-357.12 957.02,-357.56 952.44,-352.63 962,-358 962,-358"/>
</g>
<!-- choice97112112451054956110471151071074510610511512111145504849564853 -->
<g id="node10" class="node">
<title>choice97112112451054956110471151071074510610511512111145504849564853</title>
<g id="a_node10"><a xlink:href="../app-i18n/skk-jisyo-201805.svg" xlink:title="app&#45;i18n/skk&#45;jisyo&#45;201805">
<ellipse fill="none" stroke="red" cx="1107" cy="-304" rx="144" ry="18"/>
<text text-anchor="middle" x="1107" y="-301" font-family="Helvetica,sans-Serif" font-size="10.00">app&#45;i18n/skk&#45;jisyo&#45;201805</text>
</a>
</g>
</g>
<!-- dependency1294367&#45;&gt;choice97112112451054956110471151071074510610511512111145504849564853 -->
<g id="edge9" class="edge">
<title>dependency1294367:e&#45;&gt;choice97112112451054956110471151071074510610511512111145504849564853:w</title>
<path fill="none" stroke="black" stroke-dasharray="1,5" d="M856,-262C903.11,-262 910.44,-298.3 951.96,-303.41"/>
<polygon fill="black" stroke="black" points="962,-304 951.75,-307.9 957.01,-303.7 952.02,-303.41 952.02,-303.41 952.02,-303.41 957.01,-303.7 952.28,-298.92 962,-304 962,-304"/>
</g>
<!-- choice97112112451054956110471151071074510610511512111145575757575757 -->
<g id="node11" class="node">
<title>choice97112112451054956110471151071074510610511512111145575757575757</title>
<g id="a_node11"><a xlink:href="../app-i18n/skk-jisyo-999999.svg" xlink:title="app&#45;i18n/skk&#45;jisyo&#45;999999">
<ellipse fill="none" stroke="red" cx="1107" cy="-250" rx="144" ry="18"/>
<text text-anchor="middle" x="1107" y="-247" font-family="Helvetica,sans-Serif" font-size="10.00">app&#45;i18n/skk&#45;jisyo&#45;999999</text>
</a>
</g>
</g>
<!-- dependency1294367&#45;&gt;choice97112112451054956110471151071074510610511512111145575757575757 -->
<g id="edge10" class="edge">
<title>dependency1294367:e&#45;&gt;choice97112112451054956110471151071074510610511512111145575757575757:w</title>
<path fill="none" stroke="black" stroke-dasharray="1,5" d="M856,-262C899.71,-262 912.62,-251.8 951.52,-250.21"/>
<polygon fill="black" stroke="black" points="962,-250 952.09,-254.7 957,-250.1 952,-250.2 952,-250.2 952,-250.2 957,-250.1 951.91,-245.7 962,-250 962,-250"/>
</g>
<!-- choice115121115459711211211547120105110101116100455046514649534511451 -->
<g id="node12" class="node">
<title>choice115121115459711211211547120105110101116100455046514649534511451</title>
<g id="a_node12"><a xlink:href="../sys-apps/xinetd-2.3.15-r3.svg" xlink:title="sys&#45;apps/xinetd&#45;2.3.15&#45;r3">
<ellipse fill="none" stroke="red" cx="1107" cy="-142" rx="144" ry="18"/>
<text text-anchor="middle" x="1107" y="-139" font-family="Helvetica,sans-Serif" font-size="10.00">sys&#45;apps/xinetd&#45;2.3.15&#45;r3</text>
</a>
</g>
</g>
<!-- dependency1294368&#45;&gt;choice115121115459711211211547120105110101116100455046514649534511451 -->
<g id="edge11" class="edge">
<title>dependency1294368:e&#45;&gt;choice115121115459711211211547120105110101116100455046514649534511451:w</title>
<path fill="none" stroke="black" stroke-dasharray="1,5" d="M856,-138C899.46,-138 912.81,-141.4 951.57,-141.93"/>
<polygon fill="black" stroke="black" points="962,-142 951.97,-146.43 957,-141.97 952,-141.93 952,-141.93 952,-141.93 957,-141.97 952.03,-137.43 962,-142 962,-142"/>
</g>
<!-- choice115121115459711211211547120105110101116100455046514649534651 -->
<g id="node13" class="node">
<title>choice115121115459711211211547120105110101116100455046514649534651</title>
<g id="a_node13"><a xlink:href="../sys-apps/xinetd-2.3.15.3.svg" xlink:title="sys&#45;apps/xinetd&#45;2.3.15.3">
<ellipse fill="none" stroke="red" cx="1107" cy="-88" rx="144" ry="18"/>
<text text-anchor="middle" x="1107" y="-85" font-family="Helvetica,sans-Serif" font-size="10.00">sys&#45;apps/xinetd&#45;2.3.15.3</text>
</a>
</g>
</g>
<!-- dependency1294368&#45;&gt;choice115121115459711211211547120105110101116100455046514649534651 -->
<g id="edge12" class="edge">
<title>dependency1294368:e&#45;&gt;choice115121115459711211211547120105110101116100455046514649534651:w</title>
<path fill="none" stroke="black" stroke-dasharray="1,5" d="M856,-138C904.53,-138 909.43,-94.6 951.99,-88.67"/>
<polygon fill="black" stroke="black" points="962,-88 952.32,-93.16 957.01,-88.33 952.02,-88.67 952.02,-88.67 952.02,-88.67 957.01,-88.33 951.72,-84.18 962,-88 962,-88"/>
</g>
<!-- choice1151211154597112112115471201051101011161004550465146495346514511450 -->
<g id="node14" class="node">
<title>choice1151211154597112112115471201051101011161004550465146495346514511450</title>
<g id="a_node14"><a xlink:href="../sys-apps/xinetd-2.3.15.3-r2.svg" xlink:title="sys&#45;apps/xinetd&#45;2.3.15.3&#45;r2">
<ellipse fill="none" stroke="red" cx="1107" cy="-34" rx="144" ry="18"/>
<text text-anchor="middle" x="1107" y="-31" font-family="Helvetica,sans-Serif" font-size="10.00">sys&#45;apps/xinetd&#45;2.3.15.3&#45;r2</text>
</a>
</g>
</g>
<!-- dependency1294368&#45;&gt;choice1151211154597112112115471201051101011161004550465146495346514511450 -->
<g id="edge13" class="edge">
<title>dependency1294368:e&#45;&gt;choice1151211154597112112115471201051101011161004550465146495346514511450:w</title>
<path fill="none" stroke="black" stroke-dasharray="1,5" d="M856,-138C918.39,-138 898.57,-45.06 951.97,-34.9"/>
<polygon fill="black" stroke="black" points="962,-34 952.44,-39.37 957.02,-34.45 952.04,-34.89 952.04,-34.89 952.04,-34.89 957.02,-34.45 951.64,-30.41 962,-34 962,-34"/>
</g>
<!-- choice115121115459711211211547120105110101116100455046514649534652 -->
<g id="node15" class="node">
<title>choice115121115459711211211547120105110101116100455046514649534652</title>
<g id="a_node15"><a xlink:href="../sys-apps/xinetd-2.3.15.4.svg" xlink:title="sys&#45;apps/xinetd&#45;2.3.15.4">
<ellipse fill="none" stroke="red" cx="1107" cy="-196" rx="144" ry="18"/>
<text text-anchor="middle" x="1107" y="-193" font-family="Helvetica,sans-Serif" font-size="10.00">sys&#45;apps/xinetd&#45;2.3.15.4</text>
</a>
</g>
</g>
<!-- dependency1294368&#45;&gt;choice115121115459711211211547120105110101116100455046514649534652 -->
<g id="edge14" class="edge">
<title>dependency1294368:e&#45;&gt;choice115121115459711211211547120105110101116100455046514649534652:w</title>
<path fill="none" stroke="black" stroke-dasharray="1,5" d="M856,-138C906.14,-138 908.24,-188.55 952,-195.27"/>
<polygon fill="black" stroke="black" points="962,-196 951.7,-199.76 957.01,-195.63 952.03,-195.27 952.03,-195.27 952.03,-195.27 957.01,-195.63 952.36,-190.78 962,-196 962,-196"/>
</g>
</g>
</svg>
