<?xml version="1.0" encoding="UTF-8" standalone="no"?>
<!DOCTYPE svg PUBLIC "-//W3C//DTD SVG 1.1//EN"
 "http://www.w3.org/Graphics/SVG/1.1/DTD/svg11.dtd">
<!-- Generated by graphviz version 9.0.0 (20230911.1827)
 -->
<!-- Title: prolog Pages: 1 -->
<svg width="980pt" height="675pt"
 viewBox="0.00 0.00 980.00 675.00" xmlns="http://www.w3.org/2000/svg" xmlns:xlink="http://www.w3.org/1999/xlink">
<g id="graph0" class="graph" transform="scale(1 1) rotate(0) translate(4 671)">
<title>prolog</title>
<polygon fill="white" stroke="none" points="-4,4 -4,-671 976,-671 976,4 -4,4"/>
<g id="clust12" class="cluster">
<title>cluster_choices</title>
<polygon fill="none" stroke="gray" points="660,-8 660,-659 964,-659 964,-8 660,-8"/>
<text text-anchor="start" x="788.38" y="-646.5" font-family="Helvetica,sans-Serif" font-style="italic" font-size="10.00">candidates</text>
</g>
<g id="clust1" class="cluster">
<title>cluster_leftcol</title>
<polygon fill="none" stroke="gray" points="8,-364 8,-435 312,-435 312,-364 8,-364"/>
<text text-anchor="start" x="147.25" y="-422.5" font-family="Helvetica,sans-Serif" font-style="italic" font-size="10.00">ebuild</text>
</g>
<g id="clust2" class="cluster">
<title>cluster_midcol</title>
<polygon fill="none" stroke="gray" points="396,-349 396,-562 576,-562 576,-349 396,-349"/>
<text text-anchor="start" x="456" y="-549.5" font-family="Helvetica,sans-Serif" font-style="italic" font-size="10.00">dependencies</text>
</g>
<g id="clust3" class="cluster">
<title>cluster_compile</title>
<polygon fill="#eeeeee" stroke="gray" points="404,-450 404,-535 568,-535 568,-450 404,-450"/>
<text text-anchor="start" x="469.12" y="-522.5" font-family="Helvetica,sans-Serif" font-style="italic" font-size="10.00">compile</text>
</g>
<g id="clust8" class="cluster">
<title>cluster_run</title>
<polygon fill="#eeeeee" stroke="gray" points="404,-357 404,-442 568,-442 568,-357 404,-357"/>
<text text-anchor="start" x="479.25" y="-429.5" font-family="Helvetica,sans-Serif" font-style="italic" font-size="10.00">run</text>
</g>
<!-- id -->
<g id="node1" class="node">
<title>id</title>
<g id="a_node1"><a xlink:href="../app-i18n/scim-tables-0.5.13.svg" xlink:title="portage://app&#45;i18n/scim&#45;tables&#45;0.5.13">
<ellipse fill="none" stroke="red" cx="160" cy="-390" rx="144" ry="18"/>
<text text-anchor="middle" x="160" y="-386.12" font-family="Helvetica,sans-Serif" font-size="10.00">portage://app&#45;i18n/scim&#45;tables&#45;0.5.13</text>
</a>
</g>
</g>
<!-- dependency38833 -->
<g id="node2" class="node">
<title>dependency38833</title>
<polygon fill="none" stroke="red" points="420,-462 420,-504 509,-504 509,-462 420,-462"/>
<text text-anchor="start" x="430.75" y="-479.12" font-family="Helvetica,sans-Serif" font-size="10.00">use_conditional</text>
<polygon fill="none" stroke="red" points="509,-483 509,-504 552,-504 552,-483 509,-483"/>
<text text-anchor="start" x="513.62" y="-489.5" font-family="Helvetica,sans-Serif" font-size="10.00">positive</text>
<polygon fill="none" stroke="red" points="509,-462 509,-483 552,-483 552,-462 509,-462"/>
<text text-anchor="start" x="524.12" y="-468.5" font-family="Helvetica,sans-Serif" font-size="10.00">nls</text>
</g>
<!-- id&#45;&gt;dependency38833 -->
<g id="edge2" class="edge">
<title>id:e&#45;&gt;dependency38833:w</title>
<path fill="none" stroke="black" d="M305,-390C363.63,-390 350.48,-471.4 399.86,-481.89"/>
<polygon fill="black" stroke="black" points="409.79,-482.88 399.39,-486.37 406.02,-482.5 399.84,-481.89 399.84,-481.89 399.84,-481.89 406.02,-482.5 400.28,-477.41 409.79,-482.88"/>
</g>
<!-- dependency38835 -->
<g id="node4" class="node">
<title>dependency38835</title>
<polygon fill="none" stroke="blue" points="702,-151.5 702,-256.5 806,-256.5 806,-151.5 702,-151.5"/>
<text text-anchor="start" x="733" y="-200.12" font-family="Helvetica,sans-Serif" font-size="10.00">pack_dep</text>
<polygon fill="none" stroke="blue" points="806,-235.5 806,-256.5 916,-256.5 916,-235.5 806,-235.5"/>
<text text-anchor="start" x="848.25" y="-242" font-family="Helvetica,sans-Serif" font-size="10.00">install</text>
<polygon fill="none" stroke="blue" points="806,-214.5 806,-235.5 916,-235.5 916,-214.5 806,-214.5"/>
<text text-anchor="start" x="842.62" y="-221" font-family="Helvetica,sans-Serif" font-size="10.00">app&#45;i18n</text>
<polygon fill="none" stroke="blue" points="806,-193.5 806,-214.5 916,-214.5 916,-193.5 806,-193.5"/>
<text text-anchor="start" x="850.5" y="-200" font-family="Helvetica,sans-Serif" font-size="10.00">scim</text>
<polygon fill="none" stroke="blue" points="806,-172.5 806,-193.5 916,-193.5 916,-172.5 806,-172.5"/>
<text text-anchor="start" x="834.38" y="-179" font-family="Helvetica,sans-Serif" font-size="10.00">greaterequal</text>
<polygon fill="none" stroke="blue" points="806,-151.5 806,-172.5 916,-172.5 916,-151.5 806,-151.5"/>
<text text-anchor="start" x="820.5" y="-158" font-family="Helvetica,sans-Serif" font-size="10.00">[1.4.7,,&#45;r2,1.4.7&#45;r2]</text>
</g>
<!-- id&#45;&gt;dependency38835 -->
<g id="edge3" class="edge">
<title>id:e&#45;&gt;dependency38835:w</title>
<path fill="none" stroke="black" d="M487,-204C569.14,-173.23 598.93,-201.42 681.79,-203.84"/>
<polygon fill="black" stroke="black" points="691.78,-203.98 681.72,-208.34 688,-203.93 681.78,-203.84 681.78,-203.84 681.78,-203.84 688,-203.93 681.85,-199.34 691.78,-203.98"/>
</g>
<!-- dependency38836 -->
<g id="node5" class="node">
<title>dependency38836</title>
<polygon fill="none" stroke="red" points="420,-369 420,-411 509,-411 509,-369 420,-369"/>
<text text-anchor="start" x="430.75" y="-386.12" font-family="Helvetica,sans-Serif" font-size="10.00">use_conditional</text>
<polygon fill="none" stroke="red" points="509,-390 509,-411 552,-411 552,-390 509,-390"/>
<text text-anchor="start" x="513.62" y="-396.5" font-family="Helvetica,sans-Serif" font-size="10.00">positive</text>
<polygon fill="none" stroke="red" points="509,-369 509,-390 552,-390 552,-369 509,-369"/>
<text text-anchor="start" x="524.12" y="-375.5" font-family="Helvetica,sans-Serif" font-size="10.00">nls</text>
</g>
<!-- id&#45;&gt;dependency38836 -->
<g id="edge5" class="edge">
<title>id:e&#45;&gt;dependency38836:w</title>
<path fill="none" stroke="black" d="M305,-390C348.98,-390 362.17,-390 402.06,-390"/>
<ellipse fill="none" stroke="black" cx="406.5" cy="-390" rx="4" ry="4"/>
</g>
<!-- dependency38838 -->
<g id="node7" class="node">
<title>dependency38838</title>
<polygon fill="none" stroke="blue" points="702,-20.5 702,-125.5 806,-125.5 806,-20.5 702,-20.5"/>
<text text-anchor="start" x="733" y="-69.12" font-family="Helvetica,sans-Serif" font-size="10.00">pack_dep</text>
<polygon fill="none" stroke="blue" points="806,-104.5 806,-125.5 916,-125.5 916,-104.5 806,-104.5"/>
<text text-anchor="start" x="854.25" y="-111" font-family="Helvetica,sans-Serif" font-size="10.00">run</text>
<polygon fill="none" stroke="blue" points="806,-83.5 806,-104.5 916,-104.5 916,-83.5 806,-83.5"/>
<text text-anchor="start" x="842.62" y="-90" font-family="Helvetica,sans-Serif" font-size="10.00">app&#45;i18n</text>
<polygon fill="none" stroke="blue" points="806,-62.5 806,-83.5 916,-83.5 916,-62.5 806,-62.5"/>
<text text-anchor="start" x="850.5" y="-69" font-family="Helvetica,sans-Serif" font-size="10.00">scim</text>
<polygon fill="none" stroke="blue" points="806,-41.5 806,-62.5 916,-62.5 916,-41.5 806,-41.5"/>
<text text-anchor="start" x="834.38" y="-48" font-family="Helvetica,sans-Serif" font-size="10.00">greaterequal</text>
<polygon fill="none" stroke="blue" points="806,-20.5 806,-41.5 916,-41.5 916,-20.5 806,-20.5"/>
<text text-anchor="start" x="820.5" y="-27" font-family="Helvetica,sans-Serif" font-size="10.00">[1.4.7,,&#45;r2,1.4.7&#45;r2]</text>
</g>
<!-- id&#45;&gt;dependency38838 -->
<g id="edge6" class="edge">
<title>id:e&#45;&gt;dependency38838:w</title>
<path fill="none" stroke="black" d="M487,-204C585.73,-167.02 584.65,-78.22 684.05,-73.22"/>
<ellipse fill="none" stroke="black" cx="688.5" cy="-73.11" rx="4" ry="4"/>
<path fill="none" stroke="black" d="M305,-390C420.04,-390 377.27,-244.35 485,-204"/>
</g>
<!-- dependency38834 -->
<g id="node3" class="node">
<title>dependency38834</title>
<polygon fill="none" stroke="blue" points="702,-468.5 702,-573.5 806,-573.5 806,-468.5 702,-468.5"/>
<text text-anchor="start" x="733" y="-517.12" font-family="Helvetica,sans-Serif" font-size="10.00">pack_dep</text>
<polygon fill="none" stroke="blue" points="806,-552.5 806,-573.5 916,-573.5 916,-552.5 806,-552.5"/>
<text text-anchor="start" x="848.25" y="-559" font-family="Helvetica,sans-Serif" font-size="10.00">install</text>
<polygon fill="none" stroke="blue" points="806,-531.5 806,-552.5 916,-552.5 916,-531.5 806,-531.5"/>
<text text-anchor="start" x="847.88" y="-538" font-family="Helvetica,sans-Serif" font-size="10.00">virtual</text>
<polygon fill="none" stroke="blue" points="806,-510.5 806,-531.5 916,-531.5 916,-510.5 806,-510.5"/>
<text text-anchor="start" x="849.75" y="-517" font-family="Helvetica,sans-Serif" font-size="10.00">libintl</text>
<polygon fill="none" stroke="blue" points="806,-489.5 806,-510.5 916,-510.5 916,-489.5 806,-489.5"/>
<text text-anchor="start" x="850.5" y="-496" font-family="Helvetica,sans-Serif" font-size="10.00">none</text>
<polygon fill="none" stroke="blue" points="806,-468.5 806,-489.5 916,-489.5 916,-468.5 806,-468.5"/>
<text text-anchor="start" x="855" y="-475" font-family="Helvetica,sans-Serif" font-size="10.00">[,,]</text>
</g>
<!-- dependency38833&#45;&gt;dependency38834 -->
<g id="edge1" class="edge">
<title>dependency38833:e&#45;&gt;dependency38834:w</title>
<path fill="none" stroke="black" stroke-dasharray="5,2" d="M561,-483C618.11,-483 630.46,-516.26 681.81,-520.55"/>
<polygon fill="black" stroke="black" points="691.78,-520.95 681.61,-525.04 688,-520.8 681.79,-520.55 681.79,-520.55 681.79,-520.55 688,-520.8 681.97,-516.05 691.78,-520.95"/>
</g>
<!-- choice11810511411611797108471081059810511011610845484511450 -->
<g id="node8" class="node">
<title>choice11810511411611797108471081059810511011610845484511450</title>
<g id="a_node8"><a xlink:href="../virtual/libintl-0-r2.svg" xlink:title="portage://virtual/libintl&#45;0&#45;r2">
<ellipse fill="none" stroke="red" cx="812" cy="-614" rx="144" ry="18"/>
<text text-anchor="middle" x="812" y="-610.12" font-family="Helvetica,sans-Serif" font-size="10.00">portage://virtual/libintl&#45;0&#45;r2</text>
</a>
</g>
</g>
<!-- dependency38834&#45;&gt;choice11810511411611797108471081059810511011610845484511450 -->
<g id="edge7" class="edge">
<title>dependency38834:e&#45;&gt;choice11810511411611797108471081059810511011610845484511450:w</title>
<path fill="none" stroke="black" stroke-dasharray="1,5" d="M663.37,-603.45C664.4,-600.7 666.07,-597.96 668,-596 708.96,-554.42 889.83,-619.85 930,-577.5 947.28,-559.28 956.12,-521 931,-521"/>
<polygon fill="black" stroke="black" points="666.6,-612.85 659.09,-604.86 665.37,-609.27 663.34,-603.39 663.34,-603.39 663.34,-603.39 665.37,-609.27 667.6,-601.93 666.6,-612.85"/>
</g>
<!-- choice971121124510549561104711599105109454946524649564511449 -->
<g id="node9" class="node">
<title>choice971121124510549561104711599105109454946524649564511449</title>
<g id="a_node9"><a xlink:href="../app-i18n/scim-1.4.18-r1.svg" xlink:title="portage://app&#45;i18n/scim&#45;1.4.18&#45;r1">
<ellipse fill="none" stroke="red" cx="812" cy="-297" rx="144" ry="18"/>
<text text-anchor="middle" x="812" y="-293.12" font-family="Helvetica,sans-Serif" font-size="10.00">portage://app&#45;i18n/scim&#45;1.4.18&#45;r1</text>
</a>
</g>
</g>
<!-- dependency38835&#45;&gt;choice971121124510549561104711599105109454946524649564511449 -->
<g id="edge8" class="edge">
<title>dependency38835:e&#45;&gt;choice971121124510549561104711599105109454946524649564511449:w</title>
<path fill="none" stroke="black" stroke-dasharray="1,5" d="M663.37,-286.45C664.4,-283.7 666.07,-280.96 668,-279 708.96,-237.42 889.83,-302.85 930,-260.5 947.28,-242.28 956.12,-204 931,-204"/>
<polygon fill="black" stroke="black" points="666.6,-295.85 659.09,-287.86 665.37,-292.27 663.34,-286.39 663.34,-286.39 663.34,-286.39 665.37,-292.27 667.6,-284.93 666.6,-295.85"/>
</g>
<!-- dependency38837 -->
<g id="node6" class="node">
<title>dependency38837</title>
<polygon fill="none" stroke="blue" points="702,-337.5 702,-442.5 806,-442.5 806,-337.5 702,-337.5"/>
<text text-anchor="start" x="733" y="-386.12" font-family="Helvetica,sans-Serif" font-size="10.00">pack_dep</text>
<polygon fill="none" stroke="blue" points="806,-421.5 806,-442.5 916,-442.5 916,-421.5 806,-421.5"/>
<text text-anchor="start" x="854.25" y="-428" font-family="Helvetica,sans-Serif" font-size="10.00">run</text>
<polygon fill="none" stroke="blue" points="806,-400.5 806,-421.5 916,-421.5 916,-400.5 806,-400.5"/>
<text text-anchor="start" x="847.88" y="-407" font-family="Helvetica,sans-Serif" font-size="10.00">virtual</text>
<polygon fill="none" stroke="blue" points="806,-379.5 806,-400.5 916,-400.5 916,-379.5 806,-379.5"/>
<text text-anchor="start" x="849.75" y="-386" font-family="Helvetica,sans-Serif" font-size="10.00">libintl</text>
<polygon fill="none" stroke="blue" points="806,-358.5 806,-379.5 916,-379.5 916,-358.5 806,-358.5"/>
<text text-anchor="start" x="850.5" y="-365" font-family="Helvetica,sans-Serif" font-size="10.00">none</text>
<polygon fill="none" stroke="blue" points="806,-337.5 806,-358.5 916,-358.5 916,-337.5 806,-337.5"/>
<text text-anchor="start" x="855" y="-344" font-family="Helvetica,sans-Serif" font-size="10.00">[,,]</text>
</g>
<!-- dependency38836&#45;&gt;dependency38837 -->
<g id="edge4" class="edge">
<title>dependency38836:e&#45;&gt;dependency38837:w</title>
<path fill="none" stroke="black" stroke-dasharray="5,2" d="M561,-390C615.77,-390 632.19,-390 681.87,-390"/>
<polygon fill="black" stroke="black" points="691.78,-390 681.78,-394.5 688,-390 681.78,-390 681.78,-390 681.78,-390 688,-390 681.78,-385.5 691.78,-390"/>
</g>
<!-- dependency38837&#45;&gt;choice11810511411611797108471081059810511011610845484511450 -->
<g id="edge9" class="edge">
<title>dependency38837:e&#45;&gt;choice11810511411611797108471081059810511011610845484511450:w</title>
<path fill="none" stroke="black" stroke-dasharray="1,5" d="M931,-390C956.12,-390 947.6,-428.59 930,-446.5 905.66,-471.27 639.83,-437.99 618,-465 576.57,-516.25 594.96,-603.75 655.98,-613.17"/>
<polygon fill="black" stroke="black" points="665.79,-613.91 655.48,-617.65 662.01,-613.63 655.81,-613.16 655.81,-613.16 655.81,-613.16 662.01,-613.63 656.15,-608.67 665.79,-613.91"/>
</g>
<!-- dependency38838&#45;&gt;choice971121124510549561104711599105109454946524649564511449 -->
<g id="edge10" class="edge">
<title>dependency38838:e&#45;&gt;choice971121124510549561104711599105109454946524649564511449:w</title>
<path fill="none" stroke="black" stroke-dasharray="1,5" d="M931,-73C956.12,-73 947.6,-111.59 930,-129.5 905.66,-154.27 639.83,-120.99 618,-148 576.57,-199.25 594.96,-286.75 655.98,-296.17"/>
<polygon fill="black" stroke="black" points="665.79,-296.91 655.48,-300.65 662.01,-296.63 655.81,-296.16 655.81,-296.16 655.81,-296.16 662.01,-296.63 656.15,-291.67 665.79,-296.91"/>
</g>
</g>
</svg>
