<?xml version="1.0" encoding="UTF-8" standalone="no"?>
<!DOCTYPE svg PUBLIC "-//W3C//DTD SVG 1.1//EN"
 "http://www.w3.org/Graphics/SVG/1.1/DTD/svg11.dtd">
<!-- Generated by graphviz version 2.41.20171026.1811 (20171026.1811)
 -->
<!-- Title: prolog Pages: 1 -->
<svg width="1067pt" height="1426pt"
 viewBox="0.00 0.00 1067.00 1426.00" xmlns="http://www.w3.org/2000/svg" xmlns:xlink="http://www.w3.org/1999/xlink">
<g id="graph0" class="graph" transform="scale(1 1) rotate(0) translate(4 1422)">
<title>prolog</title>
<polygon fill="white" stroke="transparent" points="-4,4 -4,-1422 1063,-1422 1063,4 -4,4"/>
<g id="clust13" class="cluster">
<title>cluster_choices</title>
<polygon fill="none" stroke="gray" points="747,-8 747,-1410 1051,-1410 1051,-8 747,-8"/>
<text text-anchor="start" x="874.82" y="-1399" font-family="Helvetica,sans-Serif" font-style="italic" font-size="10.00">candidates</text>
</g>
<g id="clust1" class="cluster">
<title>cluster_leftcol</title>
<polygon fill="none" stroke="gray" points="8,-746 8,-816 312,-816 312,-746 8,-746"/>
<text text-anchor="start" x="146.66" y="-805" font-family="Helvetica,sans-Serif" font-style="italic" font-size="10.00">ebuild</text>
</g>
<g id="clust2" class="cluster">
<title>cluster_midcol</title>
<polygon fill="none" stroke="gray" points="396,-732 396,-914 663,-914 663,-732 396,-732"/>
<text text-anchor="start" x="498.36" y="-903" font-family="Helvetica,sans-Serif" font-style="italic" font-size="10.00">dependencies</text>
</g>
<g id="clust4" class="cluster">
<title>cluster_compileandrun</title>
<polygon fill="#eeeeee" stroke="gray" points="404,-740 404,-888 655,-888 655,-740 404,-740"/>
<text text-anchor="start" x="493.92" y="-877" font-family="Helvetica,sans-Serif" font-style="italic" font-size="10.00">compile and run</text>
</g>
<!-- id -->
<g id="node1" class="node">
<title>id</title>
<g id="a_node1"><a xlink:href="../app-mobilephone/lightblue-0.4-r1.svg" xlink:title="app&#45;mobilephone/lightblue&#45;0.4&#45;r1">
<ellipse fill="none" stroke="red" cx="160" cy="-772" rx="144" ry="18"/>
<text text-anchor="middle" x="160" y="-769" font-family="Helvetica,sans-Serif" font-size="10.00">app&#45;mobilephone/lightblue&#45;0.4&#45;r1</text>
</a>
</g>
</g>
<!-- dependency49252 -->
<g id="node2" class="node">
<title>dependency49252</title>
<polygon fill="none" stroke="red" points="433.5,-818 433.5,-858 524.5,-858 524.5,-818 433.5,-818"/>
<text text-anchor="start" x="444.25" y="-835" font-family="Helvetica,sans-Serif" font-size="10.00">use_conditional</text>
<polygon fill="none" stroke="red" points="524.5,-838 524.5,-858 626.5,-858 626.5,-838 524.5,-838"/>
<text text-anchor="start" x="558.55" y="-845" font-family="Helvetica,sans-Serif" font-size="10.00">positive</text>
<polygon fill="none" stroke="red" points="524.5,-818 524.5,-838 626.5,-838 626.5,-818 524.5,-818"/>
<text text-anchor="start" x="529.08" y="-825" font-family="Helvetica,sans-Serif" font-size="10.00">python_targets_pypy</text>
</g>
<!-- id&#45;&gt;dependency49252 -->
<g id="edge2" class="edge">
<title>id:e&#45;&gt;dependency49252:w</title>
<path fill="none" stroke="black" d="M305,-772C358.57,-772 362.9,-824.12 405.51,-835.73"/>
<ellipse fill="none" stroke="black" cx="419.53" cy="-837.5" rx="4" ry="4"/>
<polygon fill="black" stroke="black" points="415.56,-837 405.08,-840.21 410.6,-836.37 405.64,-835.74 405.64,-835.74 405.64,-835.74 410.6,-836.37 406.21,-831.28 415.56,-837 415.56,-837"/>
</g>
<!-- dependency49254 -->
<g id="node4" class="node">
<title>dependency49254</title>
<polygon fill="none" stroke="red" points="420.5,-752 420.5,-792 511.5,-792 511.5,-752 420.5,-752"/>
<text text-anchor="start" x="431.25" y="-769" font-family="Helvetica,sans-Serif" font-size="10.00">use_conditional</text>
<polygon fill="none" stroke="red" points="511.5,-772 511.5,-792 639.5,-792 639.5,-772 511.5,-772"/>
<text text-anchor="start" x="558.55" y="-779" font-family="Helvetica,sans-Serif" font-size="10.00">positive</text>
<polygon fill="none" stroke="red" points="511.5,-752 511.5,-772 639.5,-772 639.5,-752 511.5,-752"/>
<text text-anchor="start" x="516.29" y="-759" font-family="Helvetica,sans-Serif" font-size="10.00">python_targets_python2_7</text>
</g>
<!-- id&#45;&gt;dependency49254 -->
<g id="edge4" class="edge">
<title>id:e&#45;&gt;dependency49254:w</title>
<path fill="none" stroke="black" d="M305,-772C345.11,-772 359.49,-772 392.16,-772"/>
<ellipse fill="none" stroke="black" cx="406.5" cy="-772" rx="4" ry="4"/>
<polygon fill="black" stroke="black" points="402.5,-772 392.5,-776.5 397.5,-772 392.5,-772 392.5,-772 392.5,-772 397.5,-772 392.5,-767.5 402.5,-772 402.5,-772"/>
</g>
<!-- dependency49256 -->
<g id="node6" class="node">
<title>dependency49256</title>
<polygon fill="none" stroke="blue" points="789,-434 789,-534 894,-534 894,-434 789,-434"/>
<text text-anchor="start" x="819.82" y="-481" font-family="Helvetica,sans-Serif" font-size="10.00">pack_dep</text>
<polygon fill="none" stroke="blue" points="894,-514 894,-534 1004,-534 1004,-514 894,-514"/>
<text text-anchor="start" x="943.44" y="-521" font-family="Helvetica,sans-Serif" font-size="10.00">no</text>
<polygon fill="none" stroke="blue" points="894,-494 894,-514 1004,-514 1004,-494 894,-494"/>
<text text-anchor="start" x="929.82" y="-501" font-family="Helvetica,sans-Serif" font-size="10.00">dev&#45;lang</text>
<polygon fill="none" stroke="blue" points="894,-474 894,-494 1004,-494 1004,-474 894,-474"/>
<text text-anchor="start" x="921.76" y="-481" font-family="Helvetica,sans-Serif" font-size="10.00">python&#45;exec</text>
<polygon fill="none" stroke="blue" points="894,-454 894,-474 1004,-474 1004,-454 894,-454"/>
<text text-anchor="start" x="920.92" y="-461" font-family="Helvetica,sans-Serif" font-size="10.00">greaterequal</text>
<polygon fill="none" stroke="blue" points="894,-434 894,-454 1004,-454 1004,-434 894,-434"/>
<text text-anchor="start" x="946.22" y="-441" font-family="Helvetica,sans-Serif" font-size="10.00">2</text>
</g>
<!-- id&#45;&gt;dependency49256 -->
<g id="edge5" class="edge">
<title>id:e&#45;&gt;dependency49256:w</title>
<path fill="none" stroke="black" d="M530.5,-394C626.15,-336.59 658.63,-468.42 761.74,-482.75"/>
<ellipse fill="none" stroke="black" cx="776.01" cy="-483.73" rx="4" ry="4"/>
<polygon fill="black" stroke="black" points="772.02,-483.45 761.74,-487.26 767.03,-483.11 762.04,-482.77 762.04,-482.77 762.04,-482.77 767.03,-483.11 762.35,-478.28 772.02,-483.45 772.02,-483.45"/>
</g>
<!-- dependency49257 -->
<g id="node7" class="node">
<title>dependency49257</title>
<polygon fill="none" stroke="blue" points="789,-254 789,-354 894,-354 894,-254 789,-254"/>
<text text-anchor="start" x="819.82" y="-301" font-family="Helvetica,sans-Serif" font-size="10.00">pack_dep</text>
<polygon fill="none" stroke="blue" points="894,-334 894,-354 1004,-354 1004,-334 894,-334"/>
<text text-anchor="start" x="943.44" y="-341" font-family="Helvetica,sans-Serif" font-size="10.00">no</text>
<polygon fill="none" stroke="blue" points="894,-314 894,-334 1004,-334 1004,-314 894,-314"/>
<text text-anchor="start" x="931.77" y="-321" font-family="Helvetica,sans-Serif" font-size="10.00">dev&#45;libs</text>
<polygon fill="none" stroke="blue" points="894,-294 894,-314 1004,-314 1004,-294 894,-294"/>
<text text-anchor="start" x="927.03" y="-301" font-family="Helvetica,sans-Serif" font-size="10.00">openobex</text>
<polygon fill="none" stroke="blue" points="894,-274 894,-294 1004,-294 1004,-274 894,-274"/>
<text text-anchor="start" x="920.92" y="-281" font-family="Helvetica,sans-Serif" font-size="10.00">greaterequal</text>
<polygon fill="none" stroke="blue" points="894,-254 894,-274 1004,-274 1004,-254 894,-254"/>
<text text-anchor="start" x="942.05" y="-261" font-family="Helvetica,sans-Serif" font-size="10.00">1.3</text>
</g>
<!-- id&#45;&gt;dependency49257 -->
<g id="edge6" class="edge">
<title>id:e&#45;&gt;dependency49257:w</title>
<path fill="none" stroke="black" d="M530.5,-394C626.15,-336.59 658.63,-307.24 761.74,-304.25"/>
<ellipse fill="none" stroke="black" cx="776" cy="-304.06" rx="4" ry="4"/>
<polygon fill="black" stroke="black" points="772,-304.11 762.06,-308.75 767,-304.18 762,-304.25 762,-304.25 762,-304.25 767,-304.18 761.94,-299.75 772,-304.11 772,-304.11"/>
</g>
<!-- dependency49258 -->
<g id="node8" class="node">
<title>dependency49258</title>
<polygon fill="none" stroke="blue" points="789,-20 789,-120 894,-120 894,-20 789,-20"/>
<text text-anchor="start" x="819.82" y="-67" font-family="Helvetica,sans-Serif" font-size="10.00">pack_dep</text>
<polygon fill="none" stroke="blue" points="894,-100 894,-120 1004,-120 1004,-100 894,-100"/>
<text text-anchor="start" x="943.44" y="-107" font-family="Helvetica,sans-Serif" font-size="10.00">no</text>
<polygon fill="none" stroke="blue" points="894,-80 894,-100 1004,-100 1004,-80 894,-80"/>
<text text-anchor="start" x="924.26" y="-87" font-family="Helvetica,sans-Serif" font-size="10.00">dev&#45;python</text>
<polygon fill="none" stroke="blue" points="894,-60 894,-80 1004,-80 1004,-60 894,-60"/>
<text text-anchor="start" x="931.77" y="-67" font-family="Helvetica,sans-Serif" font-size="10.00">pybluez</text>
<polygon fill="none" stroke="blue" points="894,-40 894,-60 1004,-60 1004,-40 894,-40"/>
<text text-anchor="start" x="920.92" y="-47" font-family="Helvetica,sans-Serif" font-size="10.00">greaterequal</text>
<polygon fill="none" stroke="blue" points="894,-20 894,-40 1004,-40 1004,-20 894,-20"/>
<text text-anchor="start" x="942.05" y="-27" font-family="Helvetica,sans-Serif" font-size="10.00">0.9</text>
</g>
<!-- id&#45;&gt;dependency49258 -->
<g id="edge7" class="edge">
<title>id:e&#45;&gt;dependency49258:w</title>
<path fill="none" stroke="black" d="M530.5,-394C680.86,-303.76 604.14,-86.04 761.81,-70.84"/>
<ellipse fill="none" stroke="black" cx="776" cy="-70.18" rx="4" ry="4"/>
<polygon fill="black" stroke="black" points="772.01,-70.37 762.23,-75.32 767.01,-70.6 762.02,-70.83 762.02,-70.83 762.02,-70.83 767.01,-70.6 761.81,-66.33 772.01,-70.37 772.01,-70.37"/>
<path fill="none" stroke="black" d="M305,-772C500.17,-772 361.16,-494.44 528.5,-394"/>
</g>
<!-- dependency49253 -->
<g id="node3" class="node">
<title>dependency49253</title>
<polygon fill="none" stroke="blue" points="789,-1172 789,-1272 894,-1272 894,-1172 789,-1172"/>
<text text-anchor="start" x="819.82" y="-1219" font-family="Helvetica,sans-Serif" font-size="10.00">pack_dep</text>
<polygon fill="none" stroke="blue" points="894,-1252 894,-1272 1004,-1272 1004,-1252 894,-1252"/>
<text text-anchor="start" x="943.44" y="-1259" font-family="Helvetica,sans-Serif" font-size="10.00">no</text>
<polygon fill="none" stroke="blue" points="894,-1232 894,-1252 1004,-1252 1004,-1232 894,-1232"/>
<text text-anchor="start" x="935.66" y="-1239" font-family="Helvetica,sans-Serif" font-size="10.00">virtual</text>
<polygon fill="none" stroke="blue" points="894,-1212 894,-1232 1004,-1232 1004,-1212 894,-1212"/>
<text text-anchor="start" x="938.44" y="-1219" font-family="Helvetica,sans-Serif" font-size="10.00">pypy</text>
<polygon fill="none" stroke="blue" points="894,-1192 894,-1212 1004,-1212 1004,-1192 894,-1192"/>
<text text-anchor="start" x="920.92" y="-1199" font-family="Helvetica,sans-Serif" font-size="10.00">greaterequal</text>
<polygon fill="none" stroke="blue" points="894,-1172 894,-1192 1004,-1192 1004,-1172 894,-1172"/>
<text text-anchor="start" x="946.22" y="-1179" font-family="Helvetica,sans-Serif" font-size="10.00">5</text>
</g>
<!-- dependency49252&#45;&gt;dependency49253 -->
<g id="edge1" class="edge">
<title>dependency49252:e&#45;&gt;dependency49253:w</title>
<path fill="none" stroke="black" stroke-dasharray="5,2" d="M635.5,-838C814.29,-838 606.1,-1207.15 769.77,-1221.57"/>
<polygon fill="black" stroke="black" points="780,-1222 769.82,-1226.07 775,-1221.79 770.01,-1221.58 770.01,-1221.58 770.01,-1221.58 775,-1221.79 770.2,-1217.08 780,-1222 780,-1222"/>
</g>
<!-- choice1181051141161179710847112121112121455346564648 -->
<g id="node9" class="node">
<title>choice1181051141161179710847112121112121455346564648</title>
<g id="a_node9"><a xlink:href="../virtual/pypy-5.8.0.svg" xlink:title="virtual/pypy&#45;5.8.0">
<ellipse fill="none" stroke="red" cx="899" cy="-1366" rx="144" ry="18"/>
<text text-anchor="middle" x="899" y="-1363" font-family="Helvetica,sans-Serif" font-size="10.00">virtual/pypy&#45;5.8.0</text>
</a>
</g>
</g>
<!-- dependency49253&#45;&gt;choice1181051141161179710847112121112121455346564648 -->
<g id="edge8" class="edge">
<title>dependency49253:e&#45;&gt;choice1181051141161179710847112121112121455346564648:w</title>
<path fill="none" stroke="black" stroke-dasharray="1,5" d="M1018,-1222C1042,-1222 1033.85,-1258.9 1017,-1276 992.63,-1300.73 726.83,-1267 705,-1294 682.85,-1321.4 709.55,-1358.57 743.71,-1365.02"/>
<polygon fill="black" stroke="black" points="754,-1366 743.62,-1369.54 749.02,-1365.53 744.04,-1365.06 744.04,-1365.06 744.04,-1365.06 749.02,-1365.53 744.47,-1360.58 754,-1366 754,-1366"/>
</g>
<!-- choice1181051141161179710847112121112121455346574648 -->
<g id="node10" class="node">
<title>choice1181051141161179710847112121112121455346574648</title>
<g id="a_node10"><a xlink:href="../virtual/pypy-5.9.0.svg" xlink:title="virtual/pypy&#45;5.9.0">
<ellipse fill="none" stroke="red" cx="899" cy="-1312" rx="144" ry="18"/>
<text text-anchor="middle" x="899" y="-1309" font-family="Helvetica,sans-Serif" font-size="10.00">virtual/pypy&#45;5.9.0</text>
</a>
</g>
</g>
<!-- dependency49253&#45;&gt;choice1181051141161179710847112121112121455346574648 -->
<g id="edge9" class="edge">
<title>dependency49253:e&#45;&gt;choice1181051141161179710847112121112121455346574648:w</title>
<path fill="none" stroke="black" stroke-dasharray="1,5" d="M749.98,-1302.58C750.95,-1299.46 752.8,-1296.23 755,-1294 796,-1252.46 976.78,-1318.29 1017,-1276 1033.54,-1258.61 1042,-1222 1018,-1222"/>
<polygon fill="black" stroke="black" points="754,-1312 745.94,-1304.57 752.04,-1307.4 750.07,-1302.8 750.07,-1302.8 750.07,-1302.8 752.04,-1307.4 754.21,-1301.04 754,-1312 754,-1312"/>
</g>
<!-- dependency49255 -->
<g id="node5" class="node">
<title>dependency49255</title>
<polygon fill="none" stroke="blue" points="789,-722 789,-822 894,-822 894,-722 789,-722"/>
<text text-anchor="start" x="819.82" y="-769" font-family="Helvetica,sans-Serif" font-size="10.00">pack_dep</text>
<polygon fill="none" stroke="blue" points="894,-802 894,-822 1004,-822 1004,-802 894,-802"/>
<text text-anchor="start" x="943.44" y="-809" font-family="Helvetica,sans-Serif" font-size="10.00">no</text>
<polygon fill="none" stroke="blue" points="894,-782 894,-802 1004,-802 1004,-782 894,-782"/>
<text text-anchor="start" x="929.82" y="-789" font-family="Helvetica,sans-Serif" font-size="10.00">dev&#45;lang</text>
<polygon fill="none" stroke="blue" points="894,-762 894,-782 1004,-782 1004,-762 894,-762"/>
<text text-anchor="start" x="933.99" y="-769" font-family="Helvetica,sans-Serif" font-size="10.00">python</text>
<polygon fill="none" stroke="blue" points="894,-742 894,-762 1004,-762 1004,-742 894,-742"/>
<text text-anchor="start" x="920.92" y="-749" font-family="Helvetica,sans-Serif" font-size="10.00">greaterequal</text>
<polygon fill="none" stroke="blue" points="894,-722 894,-742 1004,-742 1004,-722 894,-722"/>
<text text-anchor="start" x="931.77" y="-729" font-family="Helvetica,sans-Serif" font-size="10.00">2.7.5&#45;r2</text>
</g>
<!-- dependency49254&#45;&gt;dependency49255 -->
<g id="edge3" class="edge">
<title>dependency49254:e&#45;&gt;dependency49255:w</title>
<path fill="none" stroke="black" stroke-dasharray="5,2" d="M648.5,-772C703.41,-772 719.63,-772 769.85,-772"/>
<polygon fill="black" stroke="black" points="780,-772 770,-776.5 775,-772 770,-772 770,-772 770,-772 775,-772 770,-767.5 780,-772 780,-772"/>
</g>
<!-- choice10010111845108971101034711212111610411111045504655464950 -->
<g id="node11" class="node">
<title>choice10010111845108971101034711212111610411111045504655464950</title>
<g id="a_node11"><a xlink:href="../dev-lang/python-2.7.12.svg" xlink:title="dev&#45;lang/python&#45;2.7.12">
<ellipse fill="none" stroke="red" cx="899" cy="-1132" rx="144" ry="18"/>
<text text-anchor="middle" x="899" y="-1129" font-family="Helvetica,sans-Serif" font-size="10.00">dev&#45;lang/python&#45;2.7.12</text>
</a>
</g>
</g>
<!-- dependency49255&#45;&gt;choice10010111845108971101034711212111610411111045504655464950 -->
<g id="edge10" class="edge">
<title>dependency49255:e&#45;&gt;choice10010111845108971101034711212111610411111045504655464950:w</title>
<path fill="none" stroke="black" stroke-dasharray="1,5" d="M1018,-772C1042,-772 1033.85,-808.9 1017,-826 992.63,-850.73 726.83,-817 705,-844 669.79,-887.55 679.71,-1046.04 705,-1096 715.54,-1116.81 724.26,-1128.52 743.83,-1131.33"/>
<polygon fill="black" stroke="black" points="754,-1132 743.73,-1135.84 749.01,-1131.67 744.02,-1131.34 744.02,-1131.34 744.02,-1131.34 749.01,-1131.67 744.32,-1126.85 754,-1132 754,-1132"/>
</g>
<!-- choice10010111845108971101034711212111610411111045504655464952 -->
<g id="node12" class="node">
<title>choice10010111845108971101034711212111610411111045504655464952</title>
<g id="a_node12"><a xlink:href="../dev-lang/python-2.7.14.svg" xlink:title="dev&#45;lang/python&#45;2.7.14">
<ellipse fill="none" stroke="red" cx="899" cy="-1078" rx="144" ry="18"/>
<text text-anchor="middle" x="899" y="-1075" font-family="Helvetica,sans-Serif" font-size="10.00">dev&#45;lang/python&#45;2.7.14</text>
</a>
</g>
</g>
<!-- dependency49255&#45;&gt;choice10010111845108971101034711212111610411111045504655464952 -->
<g id="edge11" class="edge">
<title>dependency49255:e&#45;&gt;choice10010111845108971101034711212111610411111045504655464952:w</title>
<path fill="none" stroke="black" stroke-dasharray="1,5" d="M1018,-772C1042,-772 1033.85,-808.9 1017,-826 992.63,-850.73 726.83,-817 705,-844 649.68,-912.43 665.26,-963.49 705,-1042 715.54,-1062.81 724.26,-1074.52 743.83,-1077.33"/>
<polygon fill="black" stroke="black" points="754,-1078 743.73,-1081.84 749.01,-1077.67 744.02,-1077.34 744.02,-1077.34 744.02,-1077.34 749.01,-1077.67 744.32,-1072.85 754,-1078 754,-1078"/>
</g>
<!-- choice100101118451089711010347112121116104111110455146524653 -->
<g id="node13" class="node">
<title>choice100101118451089711010347112121116104111110455146524653</title>
<g id="a_node13"><a xlink:href="../dev-lang/python-3.4.5.svg" xlink:title="dev&#45;lang/python&#45;3.4.5">
<ellipse fill="none" stroke="red" cx="899" cy="-1024" rx="144" ry="18"/>
<text text-anchor="middle" x="899" y="-1021" font-family="Helvetica,sans-Serif" font-size="10.00">dev&#45;lang/python&#45;3.4.5</text>
</a>
</g>
</g>
<!-- dependency49255&#45;&gt;choice100101118451089711010347112121116104111110455146524653 -->
<g id="edge12" class="edge">
<title>dependency49255:e&#45;&gt;choice100101118451089711010347112121116104111110455146524653:w</title>
<path fill="none" stroke="black" stroke-dasharray="1,5" d="M1018,-772C1042,-772 1033.85,-808.9 1017,-826 992.63,-850.73 726.83,-817 705,-844 655.12,-905.71 669.65,-1014.17 743.67,-1023.37"/>
<polygon fill="black" stroke="black" points="754,-1024 743.75,-1027.89 749.01,-1023.7 744.02,-1023.39 744.02,-1023.39 744.02,-1023.39 749.01,-1023.7 744.29,-1018.9 754,-1024 754,-1024"/>
</g>
<!-- choice100101118451089711010347112121116104111110455146524654 -->
<g id="node14" class="node">
<title>choice100101118451089711010347112121116104111110455146524654</title>
<g id="a_node14"><a xlink:href="../dev-lang/python-3.4.6.svg" xlink:title="dev&#45;lang/python&#45;3.4.6">
<ellipse fill="none" stroke="red" cx="899" cy="-970" rx="144" ry="18"/>
<text text-anchor="middle" x="899" y="-967" font-family="Helvetica,sans-Serif" font-size="10.00">dev&#45;lang/python&#45;3.4.6</text>
</a>
</g>
</g>
<!-- dependency49255&#45;&gt;choice100101118451089711010347112121116104111110455146524654 -->
<g id="edge13" class="edge">
<title>dependency49255:e&#45;&gt;choice100101118451089711010347112121116104111110455146524654:w</title>
<path fill="none" stroke="black" stroke-dasharray="1,5" d="M1018,-772C1042,-772 1033.85,-808.9 1017,-826 992.63,-850.73 726.83,-817 705,-844 669.44,-887.99 691.01,-960.82 743.79,-969.21"/>
<polygon fill="black" stroke="black" points="754,-970 743.68,-973.71 749.02,-969.61 744.03,-969.22 744.03,-969.22 744.03,-969.22 749.02,-969.61 744.38,-964.74 754,-970 754,-970"/>
</g>
<!-- choice100101118451089711010347112121116104111110455146534652 -->
<g id="node15" class="node">
<title>choice100101118451089711010347112121116104111110455146534652</title>
<g id="a_node15"><a xlink:href="../dev-lang/python-3.5.4.svg" xlink:title="dev&#45;lang/python&#45;3.5.4">
<ellipse fill="none" stroke="red" cx="899" cy="-916" rx="144" ry="18"/>
<text text-anchor="middle" x="899" y="-913" font-family="Helvetica,sans-Serif" font-size="10.00">dev&#45;lang/python&#45;3.5.4</text>
</a>
</g>
</g>
<!-- dependency49255&#45;&gt;choice100101118451089711010347112121116104111110455146534652 -->
<g id="edge14" class="edge">
<title>dependency49255:e&#45;&gt;choice100101118451089711010347112121116104111110455146534652:w</title>
<path fill="none" stroke="black" stroke-dasharray="1,5" d="M1018,-772C1042,-772 1033.85,-808.9 1017,-826 992.63,-850.73 726.83,-817 705,-844 682.85,-871.4 709.55,-908.57 743.71,-915.02"/>
<polygon fill="black" stroke="black" points="754,-916 743.62,-919.54 749.02,-915.53 744.04,-915.06 744.04,-915.06 744.04,-915.06 749.02,-915.53 744.47,-910.58 754,-916 754,-916"/>
</g>
<!-- choice100101118451089711010347112121116104111110455146544651 -->
<g id="node16" class="node">
<title>choice100101118451089711010347112121116104111110455146544651</title>
<g id="a_node16"><a xlink:href="../dev-lang/python-3.6.3.svg" xlink:title="dev&#45;lang/python&#45;3.6.3">
<ellipse fill="none" stroke="red" cx="899" cy="-862" rx="144" ry="18"/>
<text text-anchor="middle" x="899" y="-859" font-family="Helvetica,sans-Serif" font-size="10.00">dev&#45;lang/python&#45;3.6.3</text>
</a>
</g>
</g>
<!-- dependency49255&#45;&gt;choice100101118451089711010347112121116104111110455146544651 -->
<g id="edge15" class="edge">
<title>dependency49255:e&#45;&gt;choice100101118451089711010347112121116104111110455146544651:w</title>
<path fill="none" stroke="black" stroke-dasharray="1,5" d="M749.98,-852.58C750.95,-849.46 752.8,-846.23 755,-844 796,-802.46 976.78,-868.29 1017,-826 1033.54,-808.61 1042,-772 1018,-772"/>
<polygon fill="black" stroke="black" points="754,-862 745.94,-854.57 752.04,-857.4 750.07,-852.8 750.07,-852.8 750.07,-852.8 752.04,-857.4 754.21,-851.04 754,-862 754,-862"/>
</g>
<!-- choice1001011184510897110103471121211161041111104510112010199455046524652 -->
<g id="node17" class="node">
<title>choice1001011184510897110103471121211161041111104510112010199455046524652</title>
<g id="a_node17"><a xlink:href="../dev-lang/python-exec-2.4.4.svg" xlink:title="dev&#45;lang/python&#45;exec&#45;2.4.4">
<ellipse fill="none" stroke="red" cx="899" cy="-682" rx="144" ry="18"/>
<text text-anchor="middle" x="899" y="-679" font-family="Helvetica,sans-Serif" font-size="10.00">dev&#45;lang/python&#45;exec&#45;2.4.4</text>
</a>
</g>
</g>
<!-- dependency49256&#45;&gt;choice1001011184510897110103471121211161041111104510112010199455046524652 -->
<g id="edge16" class="edge">
<title>dependency49256:e&#45;&gt;choice1001011184510897110103471121211161041111104510112010199455046524652:w</title>
<path fill="none" stroke="black" stroke-dasharray="1,5" d="M1018,-484C1042,-484 1033.85,-520.9 1017,-538 992.63,-562.73 726.83,-529 705,-556 669.44,-599.99 691.01,-672.82 743.79,-681.21"/>
<polygon fill="black" stroke="black" points="754,-682 743.68,-685.71 749.02,-681.61 744.03,-681.22 744.03,-681.22 744.03,-681.22 749.02,-681.61 744.38,-676.74 754,-682 754,-682"/>
</g>
<!-- choice1001011184510897110103471121211161041111104510112010199455046524653 -->
<g id="node18" class="node">
<title>choice1001011184510897110103471121211161041111104510112010199455046524653</title>
<g id="a_node18"><a xlink:href="../dev-lang/python-exec-2.4.5.svg" xlink:title="dev&#45;lang/python&#45;exec&#45;2.4.5">
<ellipse fill="none" stroke="red" cx="899" cy="-628" rx="144" ry="18"/>
<text text-anchor="middle" x="899" y="-625" font-family="Helvetica,sans-Serif" font-size="10.00">dev&#45;lang/python&#45;exec&#45;2.4.5</text>
</a>
</g>
</g>
<!-- dependency49256&#45;&gt;choice1001011184510897110103471121211161041111104510112010199455046524653 -->
<g id="edge17" class="edge">
<title>dependency49256:e&#45;&gt;choice1001011184510897110103471121211161041111104510112010199455046524653:w</title>
<path fill="none" stroke="black" stroke-dasharray="1,5" d="M1018,-484C1042,-484 1033.85,-520.9 1017,-538 992.63,-562.73 726.83,-529 705,-556 682.85,-583.4 709.55,-620.57 743.71,-627.02"/>
<polygon fill="black" stroke="black" points="754,-628 743.62,-631.54 749.02,-627.53 744.04,-627.06 744.04,-627.06 744.04,-627.06 749.02,-627.53 744.47,-622.58 754,-628 754,-628"/>
</g>
<!-- choice10010111845108971101034711212111610411111045101120101994557575757 -->
<g id="node19" class="node">
<title>choice10010111845108971101034711212111610411111045101120101994557575757</title>
<g id="a_node19"><a xlink:href="../dev-lang/python-exec-9999.svg" xlink:title="dev&#45;lang/python&#45;exec&#45;9999">
<ellipse fill="none" stroke="red" cx="899" cy="-574" rx="144" ry="18"/>
<text text-anchor="middle" x="899" y="-571" font-family="Helvetica,sans-Serif" font-size="10.00">dev&#45;lang/python&#45;exec&#45;9999</text>
</a>
</g>
</g>
<!-- dependency49256&#45;&gt;choice10010111845108971101034711212111610411111045101120101994557575757 -->
<g id="edge18" class="edge">
<title>dependency49256:e&#45;&gt;choice10010111845108971101034711212111610411111045101120101994557575757:w</title>
<path fill="none" stroke="black" stroke-dasharray="1,5" d="M749.98,-564.58C750.95,-561.46 752.8,-558.23 755,-556 796,-514.46 976.78,-580.29 1017,-538 1033.54,-520.61 1042,-484 1018,-484"/>
<polygon fill="black" stroke="black" points="754,-574 745.94,-566.57 752.04,-569.4 750.07,-564.8 750.07,-564.8 750.07,-564.8 752.04,-569.4 754.21,-563.04 754,-574 754,-574"/>
</g>
<!-- choice10010111845108105981154711111210111011198101120454946554649 -->
<g id="node20" class="node">
<title>choice10010111845108105981154711111210111011198101120454946554649</title>
<g id="a_node20"><a xlink:href="../dev-libs/openobex-1.7.1.svg" xlink:title="dev&#45;libs/openobex&#45;1.7.1">
<ellipse fill="none" stroke="red" cx="899" cy="-394" rx="144" ry="18"/>
<text text-anchor="middle" x="899" y="-391" font-family="Helvetica,sans-Serif" font-size="10.00">dev&#45;libs/openobex&#45;1.7.1</text>
</a>
</g>
</g>
<!-- dependency49257&#45;&gt;choice10010111845108105981154711111210111011198101120454946554649 -->
<g id="edge19" class="edge">
<title>dependency49257:e&#45;&gt;choice10010111845108105981154711111210111011198101120454946554649:w</title>
<path fill="none" stroke="black" stroke-dasharray="1,5" d="M749.98,-384.58C750.95,-381.46 752.8,-378.23 755,-376 796,-334.46 976.78,-400.29 1017,-358 1033.54,-340.61 1042,-304 1018,-304"/>
<polygon fill="black" stroke="black" points="754,-394 745.94,-386.57 752.04,-389.4 750.07,-384.8 750.07,-384.8 750.07,-384.8 752.04,-389.4 754.21,-383.04 754,-394 754,-394"/>
</g>
<!-- choice10010111845112121116104111110471121219810811710112245484649564511449 -->
<g id="node21" class="node">
<title>choice10010111845112121116104111110471121219810811710112245484649564511449</title>
<g id="a_node21"><a xlink:href="../dev-python/pybluez-0.18-r1.svg" xlink:title="dev&#45;python/pybluez&#45;0.18&#45;r1">
<ellipse fill="none" stroke="red" cx="899" cy="-214" rx="144" ry="18"/>
<text text-anchor="middle" x="899" y="-211" font-family="Helvetica,sans-Serif" font-size="10.00">dev&#45;python/pybluez&#45;0.18&#45;r1</text>
</a>
</g>
</g>
<!-- dependency49258&#45;&gt;choice10010111845112121116104111110471121219810811710112245484649564511449 -->
<g id="edge20" class="edge">
<title>dependency49258:e&#45;&gt;choice10010111845112121116104111110471121219810811710112245484649564511449:w</title>
<path fill="none" stroke="black" stroke-dasharray="1,5" d="M1018,-70C1042,-70 1033.85,-106.9 1017,-124 992.63,-148.73 726.83,-115 705,-142 682.85,-169.4 709.55,-206.57 743.71,-213.02"/>
<polygon fill="black" stroke="black" points="754,-214 743.62,-217.54 749.02,-213.53 744.04,-213.06 744.04,-213.06 744.04,-213.06 749.02,-213.53 744.47,-208.58 754,-214 754,-214"/>
</g>
<!-- choice1001011184511212111610411111047112121981081171011224548465050 -->
<g id="node22" class="node">
<title>choice1001011184511212111610411111047112121981081171011224548465050</title>
<g id="a_node22"><a xlink:href="../dev-python/pybluez-0.22.svg" xlink:title="dev&#45;python/pybluez&#45;0.22">
<ellipse fill="none" stroke="red" cx="899" cy="-160" rx="144" ry="18"/>
<text text-anchor="middle" x="899" y="-157" font-family="Helvetica,sans-Serif" font-size="10.00">dev&#45;python/pybluez&#45;0.22</text>
</a>
</g>
</g>
<!-- dependency49258&#45;&gt;choice1001011184511212111610411111047112121981081171011224548465050 -->
<g id="edge21" class="edge">
<title>dependency49258:e&#45;&gt;choice1001011184511212111610411111047112121981081171011224548465050:w</title>
<path fill="none" stroke="black" stroke-dasharray="1,5" d="M749.98,-150.58C750.95,-147.46 752.8,-144.23 755,-142 796,-100.46 976.78,-166.29 1017,-124 1033.54,-106.61 1042,-70 1018,-70"/>
<polygon fill="black" stroke="black" points="754,-160 745.94,-152.57 752.04,-155.4 750.07,-150.8 750.07,-150.8 750.07,-150.8 752.04,-155.4 754.21,-149.04 754,-160 754,-160"/>
</g>
</g>
</svg>
