<?xml version="1.0" encoding="UTF-8" standalone="no"?>
<!DOCTYPE svg PUBLIC "-//W3C//DTD SVG 1.1//EN"
 "http://www.w3.org/Graphics/SVG/1.1/DTD/svg11.dtd">
<!-- Generated by graphviz version 2.40.1 (20161225.0304)
 -->
<!-- Title: prolog Pages: 1 -->
<svg width="1326pt" height="600pt"
 viewBox="0.00 0.00 1326.00 600.00" xmlns="http://www.w3.org/2000/svg" xmlns:xlink="http://www.w3.org/1999/xlink">
<g id="graph0" class="graph" transform="scale(1 1) rotate(0) translate(4 596)">
<title>prolog</title>
<polygon fill="#ffffff" stroke="transparent" points="-4,4 -4,-596 1322,-596 1322,4 -4,4"/>
<g id="clust1" class="cluster">
<title>cluster_leftcol</title>
<polygon fill="none" stroke="#c0c0c0" points="8,-202 8,-274 312,-274 312,-202 8,-202"/>
<text text-anchor="start" x="146.663" y="-262" font-family="Helvetica,sans-Serif" font-style="italic" font-size="10.00" fill="#000000">ebuild</text>
</g>
<g id="clust2" class="cluster">
<title>cluster_midcol</title>
<polygon fill="none" stroke="#c0c0c0" points="396,-8 396,-584 922,-584 922,-8 396,-8"/>
<text text-anchor="start" x="627.875" y="-572" font-family="Helvetica,sans-Serif" font-style="italic" font-size="10.00" fill="#000000">dependencies</text>
</g>
<g id="clust3" class="cluster">
<title>cluster_compile</title>
<polygon fill="#eeeeee" stroke="#c0c0c0" points="404,-290 404,-556 914,-556 914,-290 404,-290"/>
<text text-anchor="start" x="641.778" y="-544" font-family="Helvetica,sans-Serif" font-style="italic" font-size="10.00" fill="#000000">compile</text>
</g>
<g id="clust8" class="cluster">
<title>cluster_run</title>
<polygon fill="#eeeeee" stroke="#c0c0c0" points="404,-16 404,-282 914,-282 914,-16 404,-16"/>
<text text-anchor="start" x="651.7765" y="-270" font-family="Helvetica,sans-Serif" font-style="italic" font-size="10.00" fill="#000000">run</text>
</g>
<g id="clust12" class="cluster">
<title>cluster_choices</title>
<polygon fill="none" stroke="#c0c0c0" points="1006,-223 1006,-403 1310,-403 1310,-223 1006,-223"/>
<text text-anchor="start" x="1133.824" y="-391" font-family="Helvetica,sans-Serif" font-style="italic" font-size="10.00" fill="#000000">candidates</text>
</g>
<!-- id -->
<g id="node1" class="node">
<title>id</title>
<g id="a_node1"><a xlink:href="../net-misc/autoupnp-0.4.7.svg" xlink:title="portage://net&#45;misc/autoupnp&#45;0.4.7">
<ellipse fill="none" stroke="#ff0000" cx="160" cy="-228" rx="144" ry="18"/>
<text text-anchor="middle" x="160" y="-225" font-family="Helvetica,sans-Serif" font-size="10.00" fill="#000000">portage://net&#45;misc/autoupnp&#45;0.4.7</text>
</a>
</g>
</g>
<!-- dependency3275 -->
<g id="node2" class="node">
<title>dependency3275</title>
<polygon fill="none" stroke="#ff0000" points="420,-377 420,-421 511,-421 511,-377 420,-377"/>
<text text-anchor="start" x="430.7665" y="-396" font-family="Helvetica,sans-Serif" font-size="10.00" fill="#000000">use_conditional</text>
<polygon fill="none" stroke="#ff0000" points="511,-399 511,-421 554,-421 554,-399 511,-399"/>
<text text-anchor="start" x="515.553" y="-407" font-family="Helvetica,sans-Serif" font-size="10.00" fill="#000000">positive</text>
<polygon fill="none" stroke="#ff0000" points="511,-377 511,-399 554,-399 554,-377 511,-377"/>
<text text-anchor="start" x="515.554" y="-385" font-family="Helvetica,sans-Serif" font-size="10.00" fill="#000000">libnotify</text>
</g>
<!-- id&#45;&gt;dependency3275 -->
<g id="edge2" class="edge">
<title>id:e&#45;&gt;dependency3275:w</title>
<path fill="none" stroke="#000000" d="M304,-228C390.202,-228 327.7272,-385.2603 401.7331,-398.1606"/>
<polygon fill="#000000" stroke="#000000" points="412,-399 401.6665,-402.6701 407.0166,-398.5925 402.0333,-398.185 402.0333,-398.185 402.0333,-398.185 407.0166,-398.5925 402.4,-393.7 412,-399 412,-399"/>
</g>
<!-- dependency3277 -->
<g id="node4" class="node">
<title>dependency3277</title>
<polygon fill="none" stroke="#0000ff" points="678,-302 678,-400 783,-400 783,-302 678,-302"/>
<text text-anchor="start" x="708.823" y="-348" font-family="Helvetica,sans-Serif" font-size="10.00" fill="#000000">pack_dep</text>
<polygon fill="none" stroke="#0000ff" points="783,-378 783,-400 893,-400 893,-378 783,-378"/>
<text text-anchor="start" x="832.441" y="-386" font-family="Helvetica,sans-Serif" font-size="10.00" fill="#000000">no</text>
<polygon fill="none" stroke="#0000ff" points="783,-356 783,-378 893,-378 893,-356 783,-356"/>
<text text-anchor="start" x="821.8885" y="-364" font-family="Helvetica,sans-Serif" font-size="10.00" fill="#000000">net&#45;libs</text>
<polygon fill="none" stroke="#0000ff" points="783,-334 783,-356 893,-356 893,-334 783,-334"/>
<text text-anchor="start" x="815.219" y="-342" font-family="Helvetica,sans-Serif" font-size="10.00" fill="#000000">miniupnpc</text>
<polygon fill="none" stroke="#0000ff" points="783,-312 783,-334 893,-334 893,-312 783,-312"/>
<text text-anchor="start" x="826.882" y="-320" font-family="Helvetica,sans-Serif" font-size="10.00" fill="#000000">none</text>
<polygon fill="none" stroke="#0000ff" points="783,-302 783,-312 893,-312 893,-302 783,-302"/>
</g>
<!-- id&#45;&gt;dependency3277 -->
<g id="edge3" class="edge">
<title>id:e&#45;&gt;dependency3277:w</title>
<path fill="none" stroke="#000000" d="M487,-174C521.3821,-173.4577 533.8086,-173.3109 562,-193 628.7393,-239.6113 588.7466,-341.7192 659.7459,-350.4081"/>
<polygon fill="#000000" stroke="#000000" points="670,-351 659.7573,-354.9162 665.0083,-350.7118 660.0166,-350.4236 660.0166,-350.4236 660.0166,-350.4236 665.0083,-350.7118 660.276,-345.9311 670,-351 670,-351"/>
</g>
<!-- dependency3278 -->
<g id="node5" class="node">
<title>dependency3278</title>
<polygon fill="none" stroke="#ff0000" points="420,-206 420,-250 511,-250 511,-206 420,-206"/>
<text text-anchor="start" x="430.7665" y="-225" font-family="Helvetica,sans-Serif" font-size="10.00" fill="#000000">use_conditional</text>
<polygon fill="none" stroke="#ff0000" points="511,-228 511,-250 554,-250 554,-228 511,-228"/>
<text text-anchor="start" x="515.553" y="-236" font-family="Helvetica,sans-Serif" font-size="10.00" fill="#000000">positive</text>
<polygon fill="none" stroke="#ff0000" points="511,-206 511,-228 554,-228 554,-206 511,-206"/>
<text text-anchor="start" x="515.554" y="-214" font-family="Helvetica,sans-Serif" font-size="10.00" fill="#000000">libnotify</text>
</g>
<!-- id&#45;&gt;dependency3278 -->
<g id="edge5" class="edge">
<title>id:e&#45;&gt;dependency3278:w</title>
<path fill="none" stroke="#000000" d="M304,-228C349.1875,-228 362.4702,-228 403.9188,-228"/>
<ellipse fill="none" stroke="#000000" cx="408" cy="-228" rx="4" ry="4"/>
</g>
<!-- dependency3280 -->
<g id="node7" class="node">
<title>dependency3280</title>
<polygon fill="none" stroke="#0000ff" points="678,-28 678,-126 783,-126 783,-28 678,-28"/>
<text text-anchor="start" x="708.823" y="-74" font-family="Helvetica,sans-Serif" font-size="10.00" fill="#000000">pack_dep</text>
<polygon fill="none" stroke="#0000ff" points="783,-104 783,-126 893,-126 893,-104 783,-104"/>
<text text-anchor="start" x="832.441" y="-112" font-family="Helvetica,sans-Serif" font-size="10.00" fill="#000000">no</text>
<polygon fill="none" stroke="#0000ff" points="783,-82 783,-104 893,-104 893,-82 783,-82"/>
<text text-anchor="start" x="821.8885" y="-90" font-family="Helvetica,sans-Serif" font-size="10.00" fill="#000000">net&#45;libs</text>
<polygon fill="none" stroke="#0000ff" points="783,-60 783,-82 893,-82 893,-60 783,-60"/>
<text text-anchor="start" x="815.219" y="-68" font-family="Helvetica,sans-Serif" font-size="10.00" fill="#000000">miniupnpc</text>
<polygon fill="none" stroke="#0000ff" points="783,-38 783,-60 893,-60 893,-38 783,-38"/>
<text text-anchor="start" x="826.882" y="-46" font-family="Helvetica,sans-Serif" font-size="10.00" fill="#000000">none</text>
<polygon fill="none" stroke="#0000ff" points="783,-28 783,-38 893,-38 893,-28 783,-28"/>
</g>
<!-- id&#45;&gt;dependency3280 -->
<g id="edge6" class="edge">
<title>id:e&#45;&gt;dependency3280:w</title>
<path fill="none" stroke="#000000" d="M487,-174C576.2547,-172.5921 577.9283,-82.6989 661.8907,-77.2574"/>
<ellipse fill="none" stroke="#000000" cx="666.002" cy="-77.127" rx="4" ry="4"/>
<path fill="none" stroke="#000000" d="M304,-228C347.7479,-228 354.0129,-205.2866 396,-193 435.6537,-181.3962 445.6885,-174.6516 487,-174"/>
</g>
<!-- dependency3276 -->
<g id="node3" class="node">
<title>dependency3276</title>
<polygon fill="none" stroke="#0000ff" points="678,-426 678,-524 783,-524 783,-426 678,-426"/>
<text text-anchor="start" x="708.823" y="-472" font-family="Helvetica,sans-Serif" font-size="10.00" fill="#000000">pack_dep</text>
<polygon fill="none" stroke="#0000ff" points="783,-502 783,-524 893,-524 893,-502 783,-502"/>
<text text-anchor="start" x="832.441" y="-510" font-family="Helvetica,sans-Serif" font-size="10.00" fill="#000000">no</text>
<polygon fill="none" stroke="#0000ff" points="783,-480 783,-502 893,-502 893,-480 783,-480"/>
<text text-anchor="start" x="820.778" y="-488" font-family="Helvetica,sans-Serif" font-size="10.00" fill="#000000">x11&#45;libs</text>
<polygon fill="none" stroke="#0000ff" points="783,-458 783,-480 893,-480 893,-458 783,-458"/>
<text text-anchor="start" x="813.2755" y="-466" font-family="Helvetica,sans-Serif" font-size="10.00" fill="#000000">libtinynotify</text>
<polygon fill="none" stroke="#0000ff" points="783,-436 783,-458 893,-458 893,-436 783,-436"/>
<text text-anchor="start" x="826.882" y="-444" font-family="Helvetica,sans-Serif" font-size="10.00" fill="#000000">none</text>
<polygon fill="none" stroke="#0000ff" points="783,-426 783,-436 893,-436 893,-426 783,-426"/>
</g>
<!-- dependency3275&#45;&gt;dependency3276 -->
<g id="edge1" class="edge">
<title>dependency3275:e&#45;&gt;dependency3276:w</title>
<path fill="none" stroke="#000000" stroke-dasharray="5,2" d="M562,-399C617.0252,-399 612.2139,-465.7969 659.7595,-474.1465"/>
<polygon fill="#000000" stroke="#000000" points="670,-475 659.6607,-478.6538 665.0173,-474.5847 660.0346,-474.1693 660.0346,-474.1693 660.0346,-474.1693 665.0173,-474.5847 660.4084,-469.6849 670,-475 670,-475"/>
</g>
<!-- choice1204949451081059811547108105981161051101211101111161051021214557575757 -->
<g id="node8" class="node">
<title>choice1204949451081059811547108105981161051101211101111161051021214557575757</title>
<g id="a_node8"><a xlink:href="../x11-libs/libtinynotify-9999.svg" xlink:title="portage://x11&#45;libs/libtinynotify&#45;9999">
<ellipse fill="none" stroke="#ff0000" cx="1158" cy="-357" rx="144" ry="18"/>
<text text-anchor="middle" x="1158" y="-354" font-family="Helvetica,sans-Serif" font-size="10.00" fill="#000000">portage://x11&#45;libs/libtinynotify&#45;9999</text>
</a>
</g>
</g>
<!-- dependency3276&#45;&gt;choice1204949451081059811547108105981161051101211101111161051021214557575757 -->
<g id="edge7" class="edge">
<title>dependency3276:e&#45;&gt;choice1204949451081059811547108105981161051101211101111161051021214557575757:w</title>
<path fill="none" stroke="#000000" stroke-dasharray="1,5" d="M906,-475C973.4842,-475 946.1064,-368.6801 1003.9561,-357.882"/>
<polygon fill="#000000" stroke="#000000" points="1014,-357 1004.432,-362.3576 1009.0192,-357.4374 1004.0383,-357.8748 1004.0383,-357.8748 1004.0383,-357.8748 1009.0192,-357.4374 1003.6447,-353.3921 1014,-357 1014,-357"/>
</g>
<!-- choice120494945108105981154710810598116105110121110111116105102121454846504649 -->
<g id="node9" class="node">
<title>choice120494945108105981154710810598116105110121110111116105102121454846504649</title>
<g id="a_node9"><a xlink:href="../x11-libs/libtinynotify-0.2.1.svg" xlink:title="portage://x11&#45;libs/libtinynotify&#45;0.2.1">
<ellipse fill="none" stroke="#ff0000" cx="1158" cy="-303" rx="144" ry="18"/>
<text text-anchor="middle" x="1158" y="-300" font-family="Helvetica,sans-Serif" font-size="10.00" fill="#000000">portage://x11&#45;libs/libtinynotify&#45;0.2.1</text>
</a>
</g>
</g>
<!-- dependency3276&#45;&gt;choice120494945108105981154710810598116105110121110111116105102121454846504649 -->
<g id="edge8" class="edge">
<title>dependency3276:e&#45;&gt;choice120494945108105981154710810598116105110121110111116105102121454846504649:w</title>
<path fill="none" stroke="#000000" stroke-dasharray="1,5" d="M906,-475C992.5626,-475 929.4109,-316.82 1003.6923,-303.8443"/>
<polygon fill="#000000" stroke="#000000" points="1014,-303 1004.4008,-308.3015 1009.0167,-303.4082 1004.0334,-303.8165 1004.0334,-303.8165 1004.0334,-303.8165 1009.0167,-303.4082 1003.666,-299.3315 1014,-303 1014,-303"/>
</g>
<!-- choice1101011164510810598115471091051101051171121101129945504649465048495749505052 -->
<g id="node10" class="node">
<title>choice1101011164510810598115471091051101051171121101129945504649465048495749505052</title>
<g id="a_node10"><a xlink:href="../net-libs/miniupnpc-2.1.20191224.svg" xlink:title="portage://net&#45;libs/miniupnpc&#45;2.1.20191224">
<ellipse fill="none" stroke="#ff0000" cx="1158" cy="-249" rx="144" ry="18"/>
<text text-anchor="middle" x="1158" y="-246" font-family="Helvetica,sans-Serif" font-size="10.00" fill="#000000">portage://net&#45;libs/miniupnpc&#45;2.1.20191224</text>
</a>
</g>
</g>
<!-- dependency3277&#45;&gt;choice1101011164510810598115471091051101051171121101129945504649465048495749505052 -->
<g id="edge9" class="edge">
<title>dependency3277:e&#45;&gt;choice1101011164510810598115471091051101051171121101129945504649465048495749505052:w</title>
<path fill="none" stroke="#000000" stroke-dasharray="1,5" d="M906,-351C968.4129,-351 950.3372,-259.8512 1003.9467,-249.8818"/>
<polygon fill="#000000" stroke="#000000" points="1014,-249 1004.4315,-254.3566 1009.0191,-249.4369 1004.0382,-249.8739 1004.0382,-249.8739 1004.0382,-249.8739 1009.0191,-249.4369 1003.645,-245.3911 1014,-249 1014,-249"/>
</g>
<!-- dependency3279 -->
<g id="node6" class="node">
<title>dependency3279</title>
<polygon fill="none" stroke="#0000ff" points="678,-152 678,-250 783,-250 783,-152 678,-152"/>
<text text-anchor="start" x="708.823" y="-198" font-family="Helvetica,sans-Serif" font-size="10.00" fill="#000000">pack_dep</text>
<polygon fill="none" stroke="#0000ff" points="783,-228 783,-250 893,-250 893,-228 783,-228"/>
<text text-anchor="start" x="832.441" y="-236" font-family="Helvetica,sans-Serif" font-size="10.00" fill="#000000">no</text>
<polygon fill="none" stroke="#0000ff" points="783,-206 783,-228 893,-228 893,-206 783,-206"/>
<text text-anchor="start" x="820.778" y="-214" font-family="Helvetica,sans-Serif" font-size="10.00" fill="#000000">x11&#45;libs</text>
<polygon fill="none" stroke="#0000ff" points="783,-184 783,-206 893,-206 893,-184 783,-184"/>
<text text-anchor="start" x="813.2755" y="-192" font-family="Helvetica,sans-Serif" font-size="10.00" fill="#000000">libtinynotify</text>
<polygon fill="none" stroke="#0000ff" points="783,-162 783,-184 893,-184 893,-162 783,-162"/>
<text text-anchor="start" x="826.882" y="-170" font-family="Helvetica,sans-Serif" font-size="10.00" fill="#000000">none</text>
<polygon fill="none" stroke="#0000ff" points="783,-152 783,-162 893,-162 893,-152 783,-152"/>
</g>
<!-- dependency3278&#45;&gt;dependency3279 -->
<g id="edge4" class="edge">
<title>dependency3278:e&#45;&gt;dependency3279:w</title>
<path fill="none" stroke="#000000" stroke-dasharray="5,2" d="M562,-228C607.9018,-228 619.0042,-204.7613 659.8764,-201.4026"/>
<polygon fill="#000000" stroke="#000000" points="670,-201 660.1868,-205.8939 665.0039,-201.1987 660.0079,-201.3975 660.0079,-201.3975 660.0079,-201.3975 665.0039,-201.1987 659.829,-196.901 670,-201 670,-201"/>
</g>
<!-- dependency3279&#45;&gt;choice1204949451081059811547108105981161051101211101111161051021214557575757 -->
<g id="edge10" class="edge">
<title>dependency3279:e&#45;&gt;choice1204949451081059811547108105981161051101211101111161051021214557575757:w</title>
<path fill="none" stroke="#000000" stroke-dasharray="1,5" d="M906,-201C986.704,-201 934.6174,-343.8818 1003.9097,-356.1607"/>
<polygon fill="#000000" stroke="#000000" points="1014,-357 1003.6613,-360.6555 1009.0172,-356.5855 1004.0344,-356.171 1004.0344,-356.171 1004.0344,-356.171 1009.0172,-356.5855 1004.4075,-351.6864 1014,-357 1014,-357"/>
</g>
<!-- dependency3279&#45;&gt;choice120494945108105981154710810598116105110121110111116105102121454846504649 -->
<g id="edge11" class="edge">
<title>dependency3279:e&#45;&gt;choice120494945108105981154710810598116105110121110111116105102121454846504649:w</title>
<path fill="none" stroke="#000000" stroke-dasharray="1,5" d="M906,-201C968.4129,-201 950.3372,-292.1488 1003.9467,-302.1182"/>
<polygon fill="#000000" stroke="#000000" points="1014,-303 1003.645,-306.6089 1009.0191,-302.5631 1004.0382,-302.1261 1004.0382,-302.1261 1004.0382,-302.1261 1009.0191,-302.5631 1004.4315,-297.6434 1014,-303 1014,-303"/>
</g>
<!-- dependency3280&#45;&gt;choice1101011164510810598115471091051101051171121101129945504649465048495749505052 -->
<g id="edge12" class="edge">
<title>dependency3280:e&#45;&gt;choice1101011164510810598115471091051101051171121101129945504649465048495749505052:w</title>
<path fill="none" stroke="#000000" stroke-dasharray="1,5" d="M906,-77C992.5626,-77 929.4109,-235.18 1003.6923,-248.1557"/>
<polygon fill="#000000" stroke="#000000" points="1014,-249 1003.666,-252.6685 1009.0167,-248.5918 1004.0334,-248.1835 1004.0334,-248.1835 1004.0334,-248.1835 1009.0167,-248.5918 1004.4008,-243.6985 1014,-249 1014,-249"/>
</g>
</g>
</svg>
