<?xml version="1.0" encoding="UTF-8" standalone="no"?>
<!DOCTYPE svg PUBLIC "-//W3C//DTD SVG 1.1//EN"
 "http://www.w3.org/Graphics/SVG/1.1/DTD/svg11.dtd">
<!-- Generated by graphviz version 2.41.20171026.1811 (20171026.1811)
 -->
<!-- Title: prolog Pages: 1 -->
<svg width="986pt" height="1648pt"
 viewBox="0.00 0.00 986.00 1648.00" xmlns="http://www.w3.org/2000/svg" xmlns:xlink="http://www.w3.org/1999/xlink">
<g id="graph0" class="graph" transform="scale(1 1) rotate(0) translate(4 1644)">
<title>prolog</title>
<polygon fill="white" stroke="transparent" points="-4,4 -4,-1644 982,-1644 982,4 -4,4"/>
<g id="clust14" class="cluster">
<title>cluster_choices</title>
<polygon fill="none" stroke="gray" points="666,-8 666,-1632 970,-1632 970,-8 666,-8"/>
<text text-anchor="start" x="793.82" y="-1621" font-family="Helvetica,sans-Serif" font-style="italic" font-size="10.00">candidates</text>
</g>
<g id="clust1" class="cluster">
<title>cluster_leftcol</title>
<polygon fill="none" stroke="gray" points="8,-787 8,-857 312,-857 312,-787 8,-787"/>
<text text-anchor="start" x="146.66" y="-846" font-family="Helvetica,sans-Serif" font-style="italic" font-size="10.00">ebuild</text>
</g>
<g id="clust2" class="cluster">
<title>cluster_midcol</title>
<polygon fill="none" stroke="gray" points="396,-674 396,-1012 582,-1012 582,-674 396,-674"/>
<text text-anchor="start" x="457.86" y="-1001" font-family="Helvetica,sans-Serif" font-style="italic" font-size="10.00">dependencies</text>
</g>
<g id="clust3" class="cluster">
<title>cluster_compile</title>
<polygon fill="#eeeeee" stroke="gray" points="406,-904 406,-986 572,-986 572,-904 406,-904"/>
<text text-anchor="start" x="471.77" y="-975" font-family="Helvetica,sans-Serif" font-style="italic" font-size="10.00">compile</text>
</g>
<g id="clust6" class="cluster">
<title>cluster_compileandrun</title>
<polygon fill="#eeeeee" stroke="gray" points="404,-682 404,-896 574,-896 574,-682 404,-682"/>
<text text-anchor="start" x="453.42" y="-885" font-family="Helvetica,sans-Serif" font-style="italic" font-size="10.00">compile and run</text>
</g>
<!-- id -->
<g id="node1" class="node">
<title>id</title>
<g id="a_node1"><a xlink:href="../net-misc/ipv6calc-0.99.2.svg" xlink:title="net&#45;misc/ipv6calc&#45;0.99.2">
<ellipse fill="none" stroke="red" cx="160" cy="-813" rx="144" ry="18"/>
<text text-anchor="middle" x="160" y="-810" font-family="Helvetica,sans-Serif" font-size="10.00">net&#45;misc/ipv6calc&#45;0.99.2</text>
</a>
</g>
</g>
<!-- dependency426589 -->
<g id="node2" class="node">
<title>dependency426589</title>
<polygon fill="none" stroke="red" points="422,-916 422,-956 513,-956 513,-916 422,-916"/>
<text text-anchor="start" x="432.75" y="-933" font-family="Helvetica,sans-Serif" font-size="10.00">use_conditional</text>
<polygon fill="none" stroke="red" points="513,-936 513,-956 556,-956 556,-936 513,-936"/>
<text text-anchor="start" x="517.55" y="-943" font-family="Helvetica,sans-Serif" font-size="10.00">positive</text>
<polygon fill="none" stroke="red" points="513,-916 513,-936 556,-936 556,-916 513,-916"/>
<text text-anchor="start" x="526.44" y="-923" font-family="Helvetica,sans-Serif" font-size="10.00">test</text>
</g>
<!-- id&#45;&gt;dependency426589 -->
<g id="edge2" class="edge">
<title>id:e&#45;&gt;dependency426589:w</title>
<path fill="none" stroke="black" d="M305,-813C374.05,-813 343.77,-923.82 402.74,-935.08"/>
<polygon fill="black" stroke="black" points="413,-936 402.64,-939.59 408.02,-935.55 403.04,-935.11 403.04,-935.11 403.04,-935.11 408.02,-935.55 403.44,-930.63 413,-936 413,-936"/>
</g>
<!-- dependency426591 -->
<g id="node4" class="node">
<title>dependency426591</title>
<polygon fill="none" stroke="red" points="420,-826 420,-866 511,-866 511,-826 420,-826"/>
<text text-anchor="start" x="430.75" y="-843" font-family="Helvetica,sans-Serif" font-size="10.00">use_conditional</text>
<polygon fill="none" stroke="red" points="511,-846 511,-866 558,-866 558,-846 511,-846"/>
<text text-anchor="start" x="515.6" y="-853" font-family="Helvetica,sans-Serif" font-size="10.00">negative</text>
<polygon fill="none" stroke="red" points="511,-826 511,-846 558,-846 558,-826 511,-826"/>
<text text-anchor="start" x="518.94" y="-833" font-family="Helvetica,sans-Serif" font-size="10.00">libressl</text>
</g>
<!-- id&#45;&gt;dependency426591 -->
<g id="edge4" class="edge">
<title>id:e&#45;&gt;dependency426591:w</title>
<path fill="none" stroke="black" d="M305,-813C347.6,-813 358.87,-837.59 392.9,-844.32"/>
<ellipse fill="none" stroke="black" cx="407.02" cy="-845.63" rx="4" ry="4"/>
<polygon fill="black" stroke="black" points="403.03,-845.26 392.66,-848.81 398.06,-844.8 393.08,-844.33 393.08,-844.33 393.08,-844.33 398.06,-844.8 393.49,-839.85 403.03,-845.26 403.03,-845.26"/>
</g>
<!-- dependency426593 -->
<g id="node6" class="node">
<title>dependency426593</title>
<polygon fill="none" stroke="red" points="422,-760 422,-800 513,-800 513,-760 422,-760"/>
<text text-anchor="start" x="432.75" y="-777" font-family="Helvetica,sans-Serif" font-size="10.00">use_conditional</text>
<polygon fill="none" stroke="red" points="513,-780 513,-800 556,-800 556,-780 513,-780"/>
<text text-anchor="start" x="517.55" y="-787" font-family="Helvetica,sans-Serif" font-size="10.00">positive</text>
<polygon fill="none" stroke="red" points="513,-760 513,-780 556,-780 556,-760 513,-760"/>
<text text-anchor="start" x="522.27" y="-767" font-family="Helvetica,sans-Serif" font-size="10.00">geoip</text>
</g>
<!-- id&#45;&gt;dependency426593 -->
<g id="edge6" class="edge">
<title>id:e&#45;&gt;dependency426593:w</title>
<path fill="none" stroke="black" d="M305,-813C348.52,-813 360.03,-788.18 395.06,-781.59"/>
<ellipse fill="none" stroke="black" cx="409.02" cy="-780.35" rx="4" ry="4"/>
<polygon fill="black" stroke="black" points="405.03,-780.71 395.47,-786.07 400.05,-781.15 395.07,-781.59 395.07,-781.59 395.07,-781.59 400.05,-781.15 394.67,-777.11 405.03,-780.71 405.03,-780.71"/>
</g>
<!-- dependency426595 -->
<g id="node8" class="node">
<title>dependency426595</title>
<polygon fill="none" stroke="red" points="422,-694 422,-734 513,-734 513,-694 422,-694"/>
<text text-anchor="start" x="432.75" y="-711" font-family="Helvetica,sans-Serif" font-size="10.00">use_conditional</text>
<polygon fill="none" stroke="red" points="513,-714 513,-734 556,-734 556,-714 513,-714"/>
<text text-anchor="start" x="517.55" y="-721" font-family="Helvetica,sans-Serif" font-size="10.00">positive</text>
<polygon fill="none" stroke="red" points="513,-694 513,-714 556,-714 556,-694 513,-694"/>
<text text-anchor="start" x="518.94" y="-701" font-family="Helvetica,sans-Serif" font-size="10.00">libressl</text>
</g>
<!-- id&#45;&gt;dependency426595 -->
<g id="edge8" class="edge">
<title>id:e&#45;&gt;dependency426595:w</title>
<path fill="none" stroke="black" d="M305,-813C363.25,-813 351.6,-733.78 395.11,-717.07"/>
<ellipse fill="none" stroke="black" cx="409.06" cy="-714.68" rx="4" ry="4"/>
<polygon fill="black" stroke="black" points="405.12,-715.35 396.02,-721.48 400.19,-716.2 395.26,-717.05 395.26,-717.05 395.26,-717.05 400.19,-716.2 394.5,-712.61 405.12,-715.35 405.12,-715.35"/>
</g>
<!-- dependency426590 -->
<g id="node3" class="node">
<title>dependency426590</title>
<polygon fill="none" stroke="blue" points="708,-1458 708,-1548 813,-1548 813,-1458 708,-1458"/>
<text text-anchor="start" x="738.82" y="-1500" font-family="Helvetica,sans-Serif" font-size="10.00">pack_dep</text>
<polygon fill="none" stroke="blue" points="813,-1528 813,-1548 923,-1548 923,-1528 813,-1528"/>
<text text-anchor="start" x="862.44" y="-1535" font-family="Helvetica,sans-Serif" font-size="10.00">no</text>
<polygon fill="none" stroke="blue" points="813,-1508 813,-1528 923,-1528 923,-1508 813,-1508"/>
<text text-anchor="start" x="849.94" y="-1515" font-family="Helvetica,sans-Serif" font-size="10.00">dev&#45;perl</text>
<polygon fill="none" stroke="blue" points="813,-1488 813,-1508 923,-1508 923,-1488 813,-1488"/>
<text text-anchor="start" x="839.1" y="-1495" font-family="Helvetica,sans-Serif" font-size="10.00">Digest&#45;SHA1</text>
<polygon fill="none" stroke="blue" points="813,-1468 813,-1488 923,-1488 923,-1468 813,-1468"/>
<text text-anchor="start" x="856.88" y="-1475" font-family="Helvetica,sans-Serif" font-size="10.00">none</text>
<polygon fill="none" stroke="blue" points="813,-1458 813,-1468 923,-1468 923,-1458 813,-1458"/>
</g>
<!-- dependency426589&#45;&gt;dependency426590 -->
<g id="edge1" class="edge">
<title>dependency426589:e&#45;&gt;dependency426590:w</title>
<path fill="none" stroke="black" stroke-dasharray="5,2" d="M565,-936C820.4,-936 450.43,-1487.6 688.74,-1502.68"/>
<polygon fill="black" stroke="black" points="699,-1503 688.87,-1507.19 694,-1502.85 689,-1502.69 689,-1502.69 689,-1502.69 694,-1502.85 689.14,-1498.2 699,-1503 699,-1503"/>
</g>
<!-- choice100101118451121011141084768105103101115116458372654945504649514846484511449 -->
<g id="node10" class="node">
<title>choice100101118451121011141084768105103101115116458372654945504649514846484511449</title>
<g id="a_node10"><a xlink:href="../dev-perl/Digest-SHA1-2.130.0-r1.svg" xlink:title="dev&#45;perl/Digest&#45;SHA1&#45;2.130.0&#45;r1">
<ellipse fill="none" stroke="red" cx="818" cy="-1588" rx="144" ry="18"/>
<text text-anchor="middle" x="818" y="-1585" font-family="Helvetica,sans-Serif" font-size="10.00">dev&#45;perl/Digest&#45;SHA1&#45;2.130.0&#45;r1</text>
</a>
</g>
</g>
<!-- dependency426590&#45;&gt;choice100101118451121011141084768105103101115116458372654945504649514846484511449 -->
<g id="edge9" class="edge">
<title>dependency426590:e&#45;&gt;choice100101118451121011141084768105103101115116458372654945504649514846484511449:w</title>
<path fill="none" stroke="black" stroke-dasharray="1,5" d="M668.98,-1578.58C669.95,-1575.46 671.8,-1572.23 674,-1570 715,-1528.46 895.74,-1594.25 936,-1552 951.03,-1536.23 958.78,-1503 937,-1503"/>
<polygon fill="black" stroke="black" points="673,-1588 664.94,-1580.57 671.04,-1583.4 669.07,-1578.8 669.07,-1578.8 669.07,-1578.8 671.04,-1583.4 673.21,-1577.04 673,-1588 673,-1588"/>
</g>
<!-- dependency426592 -->
<g id="node5" class="node">
<title>dependency426592</title>
<polygon fill="none" stroke="blue" points="708,-910 708,-1000 813,-1000 813,-910 708,-910"/>
<text text-anchor="start" x="738.82" y="-952" font-family="Helvetica,sans-Serif" font-size="10.00">pack_dep</text>
<polygon fill="none" stroke="blue" points="813,-980 813,-1000 923,-1000 923,-980 813,-980"/>
<text text-anchor="start" x="862.44" y="-987" font-family="Helvetica,sans-Serif" font-size="10.00">no</text>
<polygon fill="none" stroke="blue" points="813,-960 813,-980 923,-980 923,-960 813,-960"/>
<text text-anchor="start" x="850.77" y="-967" font-family="Helvetica,sans-Serif" font-size="10.00">dev&#45;libs</text>
<polygon fill="none" stroke="blue" points="813,-940 813,-960 923,-960 923,-940 813,-940"/>
<text text-anchor="start" x="850.77" y="-947" font-family="Helvetica,sans-Serif" font-size="10.00">openssl</text>
<polygon fill="none" stroke="blue" points="813,-920 813,-940 923,-940 923,-920 813,-920"/>
<text text-anchor="start" x="856.88" y="-927" font-family="Helvetica,sans-Serif" font-size="10.00">none</text>
<polygon fill="none" stroke="blue" points="813,-910 813,-920 923,-920 923,-910 813,-910"/>
</g>
<!-- dependency426591&#45;&gt;dependency426592 -->
<g id="edge3" class="edge">
<title>dependency426591:e&#45;&gt;dependency426592:w</title>
<path fill="none" stroke="black" stroke-dasharray="5,2" d="M567,-846C639.52,-846 624.6,-945.02 688.92,-954.3"/>
<polygon fill="black" stroke="black" points="699,-955 688.71,-958.8 694.01,-954.66 689.02,-954.31 689.02,-954.31 689.02,-954.31 694.01,-954.66 689.33,-949.82 699,-955 699,-955"/>
</g>
<!-- choice1001011184510810598115471111121011101151151084548465746561229511256 -->
<g id="node11" class="node">
<title>choice1001011184510810598115471111121011101151151084548465746561229511256</title>
<g id="a_node11"><a xlink:href="../dev-libs/openssl-0.9.8z_p8.svg" xlink:title="dev&#45;libs/openssl&#45;0.9.8z_p8">
<ellipse fill="none" stroke="red" cx="818" cy="-1418" rx="144" ry="18"/>
<text text-anchor="middle" x="818" y="-1415" font-family="Helvetica,sans-Serif" font-size="10.00">dev&#45;libs/openssl&#45;0.9.8z_p8</text>
</a>
</g>
</g>
<!-- dependency426592&#45;&gt;choice1001011184510810598115471111121011101151151084548465746561229511256 -->
<g id="edge10" class="edge">
<title>dependency426592:e&#45;&gt;choice1001011184510810598115471111121011101151151084548465746561229511256:w</title>
<path fill="none" stroke="black" stroke-dasharray="1,5" d="M937,-955C958.78,-955 951.3,-988.5 936,-1004 911.61,-1028.71 645.83,-995 624,-1022 573.71,-1084.21 587.87,-1310.62 624,-1382 634.54,-1402.81 643.26,-1414.52 662.83,-1417.33"/>
<polygon fill="black" stroke="black" points="673,-1418 662.73,-1421.84 668.01,-1417.67 663.02,-1417.34 663.02,-1417.34 663.02,-1417.34 668.01,-1417.67 663.32,-1412.85 673,-1418 673,-1418"/>
</g>
<!-- choice100101118451081059811547111112101110115115108454946484650107 -->
<g id="node12" class="node">
<title>choice100101118451081059811547111112101110115115108454946484650107</title>
<g id="a_node12"><a xlink:href="../dev-libs/openssl-1.0.2k.svg" xlink:title="dev&#45;libs/openssl&#45;1.0.2k">
<ellipse fill="none" stroke="red" cx="818" cy="-1364" rx="144" ry="18"/>
<text text-anchor="middle" x="818" y="-1361" font-family="Helvetica,sans-Serif" font-size="10.00">dev&#45;libs/openssl&#45;1.0.2k</text>
</a>
</g>
</g>
<!-- dependency426592&#45;&gt;choice100101118451081059811547111112101110115115108454946484650107 -->
<g id="edge11" class="edge">
<title>dependency426592:e&#45;&gt;choice100101118451081059811547111112101110115115108454946484650107:w</title>
<path fill="none" stroke="black" stroke-dasharray="1,5" d="M937,-955C958.78,-955 951.3,-988.5 936,-1004 911.61,-1028.71 645.83,-995 624,-1022 581.25,-1074.88 593.29,-1267.33 624,-1328 634.54,-1348.81 643.26,-1360.52 662.83,-1363.33"/>
<polygon fill="black" stroke="black" points="673,-1364 662.73,-1367.84 668.01,-1363.67 663.02,-1363.34 663.02,-1363.34 663.02,-1363.34 668.01,-1363.67 663.32,-1358.85 673,-1364 673,-1364"/>
</g>
<!-- choice100101118451081059811547111112101110115115108454946484650108 -->
<g id="node13" class="node">
<title>choice100101118451081059811547111112101110115115108454946484650108</title>
<g id="a_node13"><a xlink:href="../dev-libs/openssl-1.0.2l.svg" xlink:title="dev&#45;libs/openssl&#45;1.0.2l">
<ellipse fill="none" stroke="red" cx="818" cy="-1310" rx="144" ry="18"/>
<text text-anchor="middle" x="818" y="-1307" font-family="Helvetica,sans-Serif" font-size="10.00">dev&#45;libs/openssl&#45;1.0.2l</text>
</a>
</g>
</g>
<!-- dependency426592&#45;&gt;choice100101118451081059811547111112101110115115108454946484650108 -->
<g id="edge12" class="edge">
<title>dependency426592:e&#45;&gt;choice100101118451081059811547111112101110115115108454946484650108:w</title>
<path fill="none" stroke="black" stroke-dasharray="1,5" d="M937,-955C958.78,-955 951.3,-988.5 936,-1004 911.61,-1028.71 645.83,-995 624,-1022 588.79,-1065.55 598.71,-1224.04 624,-1274 634.54,-1294.81 643.26,-1306.52 662.83,-1309.33"/>
<polygon fill="black" stroke="black" points="673,-1310 662.73,-1313.84 668.01,-1309.67 663.02,-1309.34 663.02,-1309.34 663.02,-1309.34 668.01,-1309.67 663.32,-1304.85 673,-1310 673,-1310"/>
</g>
<!-- choice1001011184510810598115471111121011101151151084549464846501084511449 -->
<g id="node14" class="node">
<title>choice1001011184510810598115471111121011101151151084549464846501084511449</title>
<g id="a_node14"><a xlink:href="../dev-libs/openssl-1.0.2l-r1.svg" xlink:title="dev&#45;libs/openssl&#45;1.0.2l&#45;r1">
<ellipse fill="none" stroke="red" cx="818" cy="-1256" rx="144" ry="18"/>
<text text-anchor="middle" x="818" y="-1253" font-family="Helvetica,sans-Serif" font-size="10.00">dev&#45;libs/openssl&#45;1.0.2l&#45;r1</text>
</a>
</g>
</g>
<!-- dependency426592&#45;&gt;choice1001011184510810598115471111121011101151151084549464846501084511449 -->
<g id="edge13" class="edge">
<title>dependency426592:e&#45;&gt;choice1001011184510810598115471111121011101151151084549464846501084511449:w</title>
<path fill="none" stroke="black" stroke-dasharray="1,5" d="M937,-955C958.78,-955 951.3,-988.5 936,-1004 911.61,-1028.71 645.83,-995 624,-1022 568.68,-1090.43 584.26,-1141.49 624,-1220 634.54,-1240.81 643.26,-1252.52 662.83,-1255.33"/>
<polygon fill="black" stroke="black" points="673,-1256 662.73,-1259.84 668.01,-1255.67 663.02,-1255.34 663.02,-1255.34 663.02,-1255.34 668.01,-1255.67 663.32,-1250.85 673,-1256 673,-1256"/>
</g>
<!-- choice100101118451081059811547111112101110115115108454946484650109 -->
<g id="node15" class="node">
<title>choice100101118451081059811547111112101110115115108454946484650109</title>
<g id="a_node15"><a xlink:href="../dev-libs/openssl-1.0.2m.svg" xlink:title="dev&#45;libs/openssl&#45;1.0.2m">
<ellipse fill="none" stroke="red" cx="818" cy="-1202" rx="144" ry="18"/>
<text text-anchor="middle" x="818" y="-1199" font-family="Helvetica,sans-Serif" font-size="10.00">dev&#45;libs/openssl&#45;1.0.2m</text>
</a>
</g>
</g>
<!-- dependency426592&#45;&gt;choice100101118451081059811547111112101110115115108454946484650109 -->
<g id="edge14" class="edge">
<title>dependency426592:e&#45;&gt;choice100101118451081059811547111112101110115115108454946484650109:w</title>
<path fill="none" stroke="black" stroke-dasharray="1,5" d="M937,-955C958.78,-955 951.3,-988.5 936,-1004 911.61,-1028.71 645.83,-995 624,-1022 574.12,-1083.71 588.65,-1192.17 662.67,-1201.37"/>
<polygon fill="black" stroke="black" points="673,-1202 662.75,-1205.89 668.01,-1201.7 663.02,-1201.39 663.02,-1201.39 663.02,-1201.39 668.01,-1201.7 663.29,-1196.9 673,-1202 673,-1202"/>
</g>
<!-- choice100101118451081059811547111112101110115115108454946494648102 -->
<g id="node16" class="node">
<title>choice100101118451081059811547111112101110115115108454946494648102</title>
<g id="a_node16"><a xlink:href="../dev-libs/openssl-1.1.0f.svg" xlink:title="dev&#45;libs/openssl&#45;1.1.0f">
<ellipse fill="none" stroke="red" cx="818" cy="-1148" rx="144" ry="18"/>
<text text-anchor="middle" x="818" y="-1145" font-family="Helvetica,sans-Serif" font-size="10.00">dev&#45;libs/openssl&#45;1.1.0f</text>
</a>
</g>
</g>
<!-- dependency426592&#45;&gt;choice100101118451081059811547111112101110115115108454946494648102 -->
<g id="edge15" class="edge">
<title>dependency426592:e&#45;&gt;choice100101118451081059811547111112101110115115108454946494648102:w</title>
<path fill="none" stroke="black" stroke-dasharray="1,5" d="M937,-955C958.78,-955 951.3,-988.5 936,-1004 911.61,-1028.71 645.83,-995 624,-1022 588.44,-1065.99 610.01,-1138.82 662.79,-1147.21"/>
<polygon fill="black" stroke="black" points="673,-1148 662.68,-1151.71 668.02,-1147.61 663.03,-1147.22 663.03,-1147.22 663.03,-1147.22 668.02,-1147.61 663.38,-1142.74 673,-1148 673,-1148"/>
</g>
<!-- choice1001011184510810598115471111121011101151151084549464946481024511449 -->
<g id="node17" class="node">
<title>choice1001011184510810598115471111121011101151151084549464946481024511449</title>
<g id="a_node17"><a xlink:href="../dev-libs/openssl-1.1.0f-r1.svg" xlink:title="dev&#45;libs/openssl&#45;1.1.0f&#45;r1">
<ellipse fill="none" stroke="red" cx="818" cy="-1094" rx="144" ry="18"/>
<text text-anchor="middle" x="818" y="-1091" font-family="Helvetica,sans-Serif" font-size="10.00">dev&#45;libs/openssl&#45;1.1.0f&#45;r1</text>
</a>
</g>
</g>
<!-- dependency426592&#45;&gt;choice1001011184510810598115471111121011101151151084549464946481024511449 -->
<g id="edge16" class="edge">
<title>dependency426592:e&#45;&gt;choice1001011184510810598115471111121011101151151084549464946481024511449:w</title>
<path fill="none" stroke="black" stroke-dasharray="1,5" d="M937,-955C958.78,-955 951.3,-988.5 936,-1004 911.61,-1028.71 645.83,-995 624,-1022 601.85,-1049.4 628.55,-1086.57 662.71,-1093.02"/>
<polygon fill="black" stroke="black" points="673,-1094 662.62,-1097.54 668.02,-1093.53 663.04,-1093.06 663.04,-1093.06 663.04,-1093.06 668.02,-1093.53 663.47,-1088.58 673,-1094 673,-1094"/>
</g>
<!-- choice100101118451081059811547111112101110115115108454946494648103 -->
<g id="node18" class="node">
<title>choice100101118451081059811547111112101110115115108454946494648103</title>
<g id="a_node18"><a xlink:href="../dev-libs/openssl-1.1.0g.svg" xlink:title="dev&#45;libs/openssl&#45;1.1.0g">
<ellipse fill="none" stroke="red" cx="818" cy="-1040" rx="144" ry="18"/>
<text text-anchor="middle" x="818" y="-1037" font-family="Helvetica,sans-Serif" font-size="10.00">dev&#45;libs/openssl&#45;1.1.0g</text>
</a>
</g>
</g>
<!-- dependency426592&#45;&gt;choice100101118451081059811547111112101110115115108454946494648103 -->
<g id="edge17" class="edge">
<title>dependency426592:e&#45;&gt;choice100101118451081059811547111112101110115115108454946494648103:w</title>
<path fill="none" stroke="black" stroke-dasharray="1,5" d="M668.98,-1030.58C669.95,-1027.46 671.8,-1024.23 674,-1022 715,-980.46 895.74,-1046.25 936,-1004 951.03,-988.23 958.78,-955 937,-955"/>
<polygon fill="black" stroke="black" points="673,-1040 664.94,-1032.57 671.04,-1035.4 669.07,-1030.8 669.07,-1030.8 669.07,-1030.8 671.04,-1035.4 673.21,-1029.04 673,-1040 673,-1040"/>
</g>
<!-- dependency426594 -->
<g id="node7" class="node">
<title>dependency426594</title>
<polygon fill="none" stroke="blue" points="708,-622 708,-722 813,-722 813,-622 708,-622"/>
<text text-anchor="start" x="738.82" y="-669" font-family="Helvetica,sans-Serif" font-size="10.00">pack_dep</text>
<polygon fill="none" stroke="blue" points="813,-702 813,-722 923,-722 923,-702 813,-702"/>
<text text-anchor="start" x="862.44" y="-709" font-family="Helvetica,sans-Serif" font-size="10.00">no</text>
<polygon fill="none" stroke="blue" points="813,-682 813,-702 923,-702 923,-682 813,-682"/>
<text text-anchor="start" x="850.77" y="-689" font-family="Helvetica,sans-Serif" font-size="10.00">dev&#45;libs</text>
<polygon fill="none" stroke="blue" points="813,-662 813,-682 923,-682 923,-662 813,-662"/>
<text text-anchor="start" x="855.77" y="-669" font-family="Helvetica,sans-Serif" font-size="10.00">geoip</text>
<polygon fill="none" stroke="blue" points="813,-642 813,-662 923,-662 923,-642 813,-642"/>
<text text-anchor="start" x="839.92" y="-649" font-family="Helvetica,sans-Serif" font-size="10.00">greaterequal</text>
<polygon fill="none" stroke="blue" points="813,-622 813,-642 923,-642 923,-622 813,-622"/>
<text text-anchor="start" x="856.88" y="-629" font-family="Helvetica,sans-Serif" font-size="10.00">1.4.7</text>
</g>
<!-- dependency426593&#45;&gt;dependency426594 -->
<g id="edge5" class="edge">
<title>dependency426593:e&#45;&gt;dependency426594:w</title>
<path fill="none" stroke="black" stroke-dasharray="5,2" d="M565,-780C637.91,-780 624.08,-681.89 688.85,-672.69"/>
<polygon fill="black" stroke="black" points="699,-672 689.33,-677.17 694.01,-672.34 689.02,-672.68 689.02,-672.68 689.02,-672.68 694.01,-672.34 688.72,-668.19 699,-672 699,-672"/>
</g>
<!-- choice10010111845108105981154710310111110511245494654464948 -->
<g id="node19" class="node">
<title>choice10010111845108105981154710310111110511245494654464948</title>
<g id="a_node19"><a xlink:href="../dev-libs/geoip-1.6.10.svg" xlink:title="dev&#45;libs/geoip&#45;1.6.10">
<ellipse fill="none" stroke="red" cx="818" cy="-870" rx="144" ry="18"/>
<text text-anchor="middle" x="818" y="-867" font-family="Helvetica,sans-Serif" font-size="10.00">dev&#45;libs/geoip&#45;1.6.10</text>
</a>
</g>
</g>
<!-- dependency426594&#45;&gt;choice10010111845108105981154710310111110511245494654464948 -->
<g id="edge18" class="edge">
<title>dependency426594:e&#45;&gt;choice10010111845108105981154710310111110511245494654464948:w</title>
<path fill="none" stroke="black" stroke-dasharray="1,5" d="M937,-672C961,-672 952.85,-708.9 936,-726 911.63,-750.73 645.83,-717 624,-744 588.44,-787.99 610.01,-860.82 662.79,-869.21"/>
<polygon fill="black" stroke="black" points="673,-870 662.68,-873.71 668.02,-869.61 663.03,-869.22 663.03,-869.22 663.03,-869.22 668.02,-869.61 663.38,-864.74 673,-870 673,-870"/>
</g>
<!-- choice10010111845108105981154710310111110511245494654464949 -->
<g id="node20" class="node">
<title>choice10010111845108105981154710310111110511245494654464949</title>
<g id="a_node20"><a xlink:href="../dev-libs/geoip-1.6.11.svg" xlink:title="dev&#45;libs/geoip&#45;1.6.11">
<ellipse fill="none" stroke="red" cx="818" cy="-816" rx="144" ry="18"/>
<text text-anchor="middle" x="818" y="-813" font-family="Helvetica,sans-Serif" font-size="10.00">dev&#45;libs/geoip&#45;1.6.11</text>
</a>
</g>
</g>
<!-- dependency426594&#45;&gt;choice10010111845108105981154710310111110511245494654464949 -->
<g id="edge19" class="edge">
<title>dependency426594:e&#45;&gt;choice10010111845108105981154710310111110511245494654464949:w</title>
<path fill="none" stroke="black" stroke-dasharray="1,5" d="M937,-672C961,-672 952.85,-708.9 936,-726 911.63,-750.73 645.83,-717 624,-744 601.85,-771.4 628.55,-808.57 662.71,-815.02"/>
<polygon fill="black" stroke="black" points="673,-816 662.62,-819.54 668.02,-815.53 663.04,-815.06 663.04,-815.06 663.04,-815.06 668.02,-815.53 663.47,-810.58 673,-816 673,-816"/>
</g>
<!-- choice1001011184510810598115471031011111051124549465446574511449 -->
<g id="node21" class="node">
<title>choice1001011184510810598115471031011111051124549465446574511449</title>
<g id="a_node21"><a xlink:href="../dev-libs/geoip-1.6.9-r1.svg" xlink:title="dev&#45;libs/geoip&#45;1.6.9&#45;r1">
<ellipse fill="none" stroke="red" cx="818" cy="-762" rx="144" ry="18"/>
<text text-anchor="middle" x="818" y="-759" font-family="Helvetica,sans-Serif" font-size="10.00">dev&#45;libs/geoip&#45;1.6.9&#45;r1</text>
</a>
</g>
</g>
<!-- dependency426594&#45;&gt;choice1001011184510810598115471031011111051124549465446574511449 -->
<g id="edge20" class="edge">
<title>dependency426594:e&#45;&gt;choice1001011184510810598115471031011111051124549465446574511449:w</title>
<path fill="none" stroke="black" stroke-dasharray="1,5" d="M668.98,-752.58C669.95,-749.46 671.8,-746.23 674,-744 715,-702.46 895.78,-768.29 936,-726 952.54,-708.61 961,-672 937,-672"/>
<polygon fill="black" stroke="black" points="673,-762 664.94,-754.57 671.04,-757.4 669.07,-752.8 669.07,-752.8 669.07,-752.8 671.04,-757.4 673.21,-751.04 673,-762 673,-762"/>
</g>
<!-- dependency426596 -->
<g id="node9" class="node">
<title>dependency426596</title>
<polygon fill="none" stroke="blue" points="708,-20 708,-110 813,-110 813,-20 708,-20"/>
<text text-anchor="start" x="738.82" y="-62" font-family="Helvetica,sans-Serif" font-size="10.00">pack_dep</text>
<polygon fill="none" stroke="blue" points="813,-90 813,-110 923,-110 923,-90 813,-90"/>
<text text-anchor="start" x="862.44" y="-97" font-family="Helvetica,sans-Serif" font-size="10.00">no</text>
<polygon fill="none" stroke="blue" points="813,-70 813,-90 923,-90 923,-70 813,-70"/>
<text text-anchor="start" x="850.77" y="-77" font-family="Helvetica,sans-Serif" font-size="10.00">dev&#45;libs</text>
<polygon fill="none" stroke="blue" points="813,-50 813,-70 923,-70 923,-50 813,-50"/>
<text text-anchor="start" x="852.44" y="-57" font-family="Helvetica,sans-Serif" font-size="10.00">libressl</text>
<polygon fill="none" stroke="blue" points="813,-30 813,-50 923,-50 923,-30 813,-30"/>
<text text-anchor="start" x="856.88" y="-37" font-family="Helvetica,sans-Serif" font-size="10.00">none</text>
<polygon fill="none" stroke="blue" points="813,-20 813,-30 923,-30 923,-20 813,-20"/>
</g>
<!-- dependency426595&#45;&gt;dependency426596 -->
<g id="edge7" class="edge">
<title>dependency426595:e&#45;&gt;dependency426596:w</title>
<path fill="none" stroke="black" stroke-dasharray="5,2" d="M565,-714C708.67,-714 559.39,-96.3 688.76,-66.14"/>
<polygon fill="black" stroke="black" points="699,-65 689.56,-70.58 694.03,-65.55 689.06,-66.11 689.06,-66.11 689.06,-66.11 694.03,-65.55 688.56,-61.64 699,-65 699,-65"/>
</g>
<!-- choice1001011184510810598115471081059811410111511510845504651464948 -->
<g id="node22" class="node">
<title>choice1001011184510810598115471081059811410111511510845504651464948</title>
<g id="a_node22"><a xlink:href="../dev-libs/libressl-2.3.10.svg" xlink:title="dev&#45;libs/libressl&#45;2.3.10">
<ellipse fill="none" stroke="red" cx="818" cy="-582" rx="144" ry="18"/>
<text text-anchor="middle" x="818" y="-579" font-family="Helvetica,sans-Serif" font-size="10.00">dev&#45;libs/libressl&#45;2.3.10</text>
</a>
</g>
</g>
<!-- dependency426596&#45;&gt;choice1001011184510810598115471081059811410111511510845504651464948 -->
<g id="edge21" class="edge">
<title>dependency426596:e&#45;&gt;choice1001011184510810598115471081059811410111511510845504651464948:w</title>
<path fill="none" stroke="black" stroke-dasharray="1,5" d="M937,-65C958.78,-65 951.3,-98.5 936,-114 911.61,-138.71 645.83,-105 624,-132 566.16,-203.55 582.45,-463.92 624,-546 634.54,-566.81 643.26,-578.52 662.83,-581.33"/>
<polygon fill="black" stroke="black" points="673,-582 662.73,-585.84 668.01,-581.67 663.02,-581.34 663.02,-581.34 663.02,-581.34 668.01,-581.67 663.32,-576.85 673,-582 673,-582"/>
</g>
<!-- choice10010111845108105981154710810598114101115115108455046524653 -->
<g id="node23" class="node">
<title>choice10010111845108105981154710810598114101115115108455046524653</title>
<g id="a_node23"><a xlink:href="../dev-libs/libressl-2.4.5.svg" xlink:title="dev&#45;libs/libressl&#45;2.4.5">
<ellipse fill="none" stroke="red" cx="818" cy="-528" rx="144" ry="18"/>
<text text-anchor="middle" x="818" y="-525" font-family="Helvetica,sans-Serif" font-size="10.00">dev&#45;libs/libressl&#45;2.4.5</text>
</a>
</g>
</g>
<!-- dependency426596&#45;&gt;choice10010111845108105981154710810598114101115115108455046524653 -->
<g id="edge22" class="edge">
<title>dependency426596:e&#45;&gt;choice10010111845108105981154710810598114101115115108455046524653:w</title>
<path fill="none" stroke="black" stroke-dasharray="1,5" d="M937,-65C958.78,-65 951.3,-98.5 936,-114 911.61,-138.71 645.83,-105 624,-132 573.71,-194.21 587.87,-420.62 624,-492 634.54,-512.81 643.26,-524.52 662.83,-527.33"/>
<polygon fill="black" stroke="black" points="673,-528 662.73,-531.84 668.01,-527.67 663.02,-527.34 663.02,-527.34 663.02,-527.34 668.01,-527.67 663.32,-522.85 673,-528 673,-528"/>
</g>
<!-- choice10010111845108105981154710810598114101115115108455046534648 -->
<g id="node24" class="node">
<title>choice10010111845108105981154710810598114101115115108455046534648</title>
<g id="a_node24"><a xlink:href="../dev-libs/libressl-2.5.0.svg" xlink:title="dev&#45;libs/libressl&#45;2.5.0">
<ellipse fill="none" stroke="red" cx="818" cy="-474" rx="144" ry="18"/>
<text text-anchor="middle" x="818" y="-471" font-family="Helvetica,sans-Serif" font-size="10.00">dev&#45;libs/libressl&#45;2.5.0</text>
</a>
</g>
</g>
<!-- dependency426596&#45;&gt;choice10010111845108105981154710810598114101115115108455046534648 -->
<g id="edge23" class="edge">
<title>dependency426596:e&#45;&gt;choice10010111845108105981154710810598114101115115108455046534648:w</title>
<path fill="none" stroke="black" stroke-dasharray="1,5" d="M937,-65C958.78,-65 951.3,-98.5 936,-114 911.61,-138.71 645.83,-105 624,-132 581.25,-184.88 593.29,-377.33 624,-438 634.54,-458.81 643.26,-470.52 662.83,-473.33"/>
<polygon fill="black" stroke="black" points="673,-474 662.73,-477.84 668.01,-473.67 663.02,-473.34 663.02,-473.34 663.02,-473.34 668.01,-473.67 663.32,-468.85 673,-474 673,-474"/>
</g>
<!-- choice10010111845108105981154710810598114101115115108455046534652 -->
<g id="node25" class="node">
<title>choice10010111845108105981154710810598114101115115108455046534652</title>
<g id="a_node25"><a xlink:href="../dev-libs/libressl-2.5.4.svg" xlink:title="dev&#45;libs/libressl&#45;2.5.4">
<ellipse fill="none" stroke="red" cx="818" cy="-420" rx="144" ry="18"/>
<text text-anchor="middle" x="818" y="-417" font-family="Helvetica,sans-Serif" font-size="10.00">dev&#45;libs/libressl&#45;2.5.4</text>
</a>
</g>
</g>
<!-- dependency426596&#45;&gt;choice10010111845108105981154710810598114101115115108455046534652 -->
<g id="edge24" class="edge">
<title>dependency426596:e&#45;&gt;choice10010111845108105981154710810598114101115115108455046534652:w</title>
<path fill="none" stroke="black" stroke-dasharray="1,5" d="M937,-65C958.78,-65 951.3,-98.5 936,-114 911.61,-138.71 645.83,-105 624,-132 588.79,-175.55 598.71,-334.04 624,-384 634.54,-404.81 643.26,-416.52 662.83,-419.33"/>
<polygon fill="black" stroke="black" points="673,-420 662.73,-423.84 668.01,-419.67 663.02,-419.34 663.02,-419.34 663.02,-419.34 668.01,-419.67 663.32,-414.85 673,-420 673,-420"/>
</g>
<!-- choice10010111845108105981154710810598114101115115108455046534653 -->
<g id="node26" class="node">
<title>choice10010111845108105981154710810598114101115115108455046534653</title>
<g id="a_node26"><a xlink:href="../dev-libs/libressl-2.5.5.svg" xlink:title="dev&#45;libs/libressl&#45;2.5.5">
<ellipse fill="none" stroke="red" cx="818" cy="-366" rx="144" ry="18"/>
<text text-anchor="middle" x="818" y="-363" font-family="Helvetica,sans-Serif" font-size="10.00">dev&#45;libs/libressl&#45;2.5.5</text>
</a>
</g>
</g>
<!-- dependency426596&#45;&gt;choice10010111845108105981154710810598114101115115108455046534653 -->
<g id="edge25" class="edge">
<title>dependency426596:e&#45;&gt;choice10010111845108105981154710810598114101115115108455046534653:w</title>
<path fill="none" stroke="black" stroke-dasharray="1,5" d="M937,-65C958.78,-65 951.3,-98.5 936,-114 911.61,-138.71 645.83,-105 624,-132 568.68,-200.43 584.26,-251.49 624,-330 634.54,-350.81 643.26,-362.52 662.83,-365.33"/>
<polygon fill="black" stroke="black" points="673,-366 662.73,-369.84 668.01,-365.67 663.02,-365.34 663.02,-365.34 663.02,-365.34 668.01,-365.67 663.32,-360.85 673,-366 673,-366"/>
</g>
<!-- choice10010111845108105981154710810598114101115115108455046544648 -->
<g id="node27" class="node">
<title>choice10010111845108105981154710810598114101115115108455046544648</title>
<g id="a_node27"><a xlink:href="../dev-libs/libressl-2.6.0.svg" xlink:title="dev&#45;libs/libressl&#45;2.6.0">
<ellipse fill="none" stroke="red" cx="818" cy="-312" rx="144" ry="18"/>
<text text-anchor="middle" x="818" y="-309" font-family="Helvetica,sans-Serif" font-size="10.00">dev&#45;libs/libressl&#45;2.6.0</text>
</a>
</g>
</g>
<!-- dependency426596&#45;&gt;choice10010111845108105981154710810598114101115115108455046544648 -->
<g id="edge26" class="edge">
<title>dependency426596:e&#45;&gt;choice10010111845108105981154710810598114101115115108455046544648:w</title>
<path fill="none" stroke="black" stroke-dasharray="1,5" d="M937,-65C958.78,-65 951.3,-98.5 936,-114 911.61,-138.71 645.83,-105 624,-132 574.12,-193.71 588.65,-302.17 662.67,-311.37"/>
<polygon fill="black" stroke="black" points="673,-312 662.75,-315.89 668.01,-311.7 663.02,-311.39 663.02,-311.39 663.02,-311.39 668.01,-311.7 663.29,-306.9 673,-312 673,-312"/>
</g>
<!-- choice10010111845108105981154710810598114101115115108455046544649 -->
<g id="node28" class="node">
<title>choice10010111845108105981154710810598114101115115108455046544649</title>
<g id="a_node28"><a xlink:href="../dev-libs/libressl-2.6.1.svg" xlink:title="dev&#45;libs/libressl&#45;2.6.1">
<ellipse fill="none" stroke="red" cx="818" cy="-258" rx="144" ry="18"/>
<text text-anchor="middle" x="818" y="-255" font-family="Helvetica,sans-Serif" font-size="10.00">dev&#45;libs/libressl&#45;2.6.1</text>
</a>
</g>
</g>
<!-- dependency426596&#45;&gt;choice10010111845108105981154710810598114101115115108455046544649 -->
<g id="edge27" class="edge">
<title>dependency426596:e&#45;&gt;choice10010111845108105981154710810598114101115115108455046544649:w</title>
<path fill="none" stroke="black" stroke-dasharray="1,5" d="M937,-65C958.78,-65 951.3,-98.5 936,-114 911.61,-138.71 645.83,-105 624,-132 588.44,-175.99 610.01,-248.82 662.79,-257.21"/>
<polygon fill="black" stroke="black" points="673,-258 662.68,-261.71 668.02,-257.61 663.03,-257.22 663.03,-257.22 663.03,-257.22 668.02,-257.61 663.38,-252.74 673,-258 673,-258"/>
</g>
<!-- choice10010111845108105981154710810598114101115115108455046544650 -->
<g id="node29" class="node">
<title>choice10010111845108105981154710810598114101115115108455046544650</title>
<g id="a_node29"><a xlink:href="../dev-libs/libressl-2.6.2.svg" xlink:title="dev&#45;libs/libressl&#45;2.6.2">
<ellipse fill="none" stroke="red" cx="818" cy="-204" rx="144" ry="18"/>
<text text-anchor="middle" x="818" y="-201" font-family="Helvetica,sans-Serif" font-size="10.00">dev&#45;libs/libressl&#45;2.6.2</text>
</a>
</g>
</g>
<!-- dependency426596&#45;&gt;choice10010111845108105981154710810598114101115115108455046544650 -->
<g id="edge28" class="edge">
<title>dependency426596:e&#45;&gt;choice10010111845108105981154710810598114101115115108455046544650:w</title>
<path fill="none" stroke="black" stroke-dasharray="1,5" d="M937,-65C958.78,-65 951.3,-98.5 936,-114 911.61,-138.71 645.83,-105 624,-132 601.85,-159.4 628.55,-196.57 662.71,-203.02"/>
<polygon fill="black" stroke="black" points="673,-204 662.62,-207.54 668.02,-203.53 663.04,-203.06 663.04,-203.06 663.04,-203.06 668.02,-203.53 663.47,-198.58 673,-204 673,-204"/>
</g>
<!-- choice100101118451081059811547108105981141011151151084550465446514511449 -->
<g id="node30" class="node">
<title>choice100101118451081059811547108105981141011151151084550465446514511449</title>
<g id="a_node30"><a xlink:href="../dev-libs/libressl-2.6.3-r1.svg" xlink:title="dev&#45;libs/libressl&#45;2.6.3&#45;r1">
<ellipse fill="none" stroke="red" cx="818" cy="-150" rx="144" ry="18"/>
<text text-anchor="middle" x="818" y="-147" font-family="Helvetica,sans-Serif" font-size="10.00">dev&#45;libs/libressl&#45;2.6.3&#45;r1</text>
</a>
</g>
</g>
<!-- dependency426596&#45;&gt;choice100101118451081059811547108105981141011151151084550465446514511449 -->
<g id="edge29" class="edge">
<title>dependency426596:e&#45;&gt;choice100101118451081059811547108105981141011151151084550465446514511449:w</title>
<path fill="none" stroke="black" stroke-dasharray="1,5" d="M668.98,-140.58C669.95,-137.46 671.8,-134.23 674,-132 715,-90.46 895.74,-156.25 936,-114 951.03,-98.23 958.78,-65 937,-65"/>
<polygon fill="black" stroke="black" points="673,-150 664.94,-142.57 671.04,-145.4 669.07,-140.8 669.07,-140.8 669.07,-140.8 671.04,-145.4 673.21,-139.04 673,-150 673,-150"/>
</g>
</g>
</svg>
