<?xml version="1.0" encoding="UTF-8" standalone="no"?>
<!DOCTYPE svg PUBLIC "-//W3C//DTD SVG 1.1//EN"
 "http://www.w3.org/Graphics/SVG/1.1/DTD/svg11.dtd">
<!-- Generated by graphviz version 12.0.0 (20240704.0754)
 -->
<!-- Title: prolog Pages: 1 -->
<svg width="1337pt" height="441pt"
 viewBox="0.00 0.00 1337.00 441.00" xmlns="http://www.w3.org/2000/svg" xmlns:xlink="http://www.w3.org/1999/xlink">
<g id="graph0" class="graph" transform="scale(1 1) rotate(0) translate(4 437)">
<title>prolog</title>
<polygon fill="white" stroke="none" points="-4,4 -4,-437 1333,-437 1333,4 -4,4"/>
<g id="clust1" class="cluster">
<title>cluster_leftcol</title>
<polygon fill="none" stroke="gray" points="8,-159 8,-230 312,-230 312,-159 8,-159"/>
<text text-anchor="start" x="147.25" y="-217.5" font-family="Helvetica,sans-Serif" font-style="italic" font-size="10.00">ebuild</text>
</g>
<g id="clust2" class="cluster">
<title>cluster_midcol</title>
<polygon fill="none" stroke="gray" points="396,-8 396,-425 933,-425 933,-8 396,-8"/>
<text text-anchor="start" x="634.5" y="-412.5" font-family="Helvetica,sans-Serif" font-style="italic" font-size="10.00">dependencies</text>
</g>
<g id="clust3" class="cluster">
<title>cluster_compile</title>
<polygon fill="#eeeeee" stroke="gray" points="404,-16 404,-237 925,-237 925,-16 404,-16"/>
<text text-anchor="start" x="647.62" y="-224.5" font-family="Helvetica,sans-Serif" font-style="italic" font-size="10.00">compile</text>
</g>
<g id="clust9" class="cluster">
<title>cluster_run</title>
<polygon fill="#eeeeee" stroke="gray" points="409,-245 409,-398 925,-398 925,-245 409,-245"/>
<text text-anchor="start" x="660.25" y="-385.5" font-family="Helvetica,sans-Serif" font-style="italic" font-size="10.00">run</text>
</g>
<g id="clust13" class="cluster">
<title>cluster_choices</title>
<polygon fill="none" stroke="gray" points="1017,-124 1017,-357 1321,-357 1321,-124 1017,-124"/>
<text text-anchor="start" x="1145.38" y="-344.5" font-family="Helvetica,sans-Serif" font-style="italic" font-size="10.00">candidates</text>
</g>
<!-- id -->
<g id="node1" class="node">
<title>id</title>
<g id="a_node1"><a xlink:href="../net-misc/miniupnpd-2.3.4.svg" xlink:title="portage://net&#45;misc/miniupnpd&#45;2.3.4">
<ellipse fill="none" stroke="red" cx="160" cy="-185" rx="144" ry="18"/>
<text text-anchor="middle" x="160" y="-181.12" font-family="Helvetica,sans-Serif" font-size="10.00">portage://net&#45;misc/miniupnpd&#45;2.3.4</text>
</a>
</g>
</g>
<!-- dependency1986 -->
<g id="node2" class="node">
<title>dependency1986</title>
<polygon fill="none" stroke="red" points="425,-164 425,-206 514,-206 514,-164 425,-164"/>
<text text-anchor="start" x="435.75" y="-181.12" font-family="Helvetica,sans-Serif" font-size="10.00">use_conditional</text>
<polygon fill="none" stroke="red" points="514,-185 514,-206 560,-206 560,-185 514,-185"/>
<text text-anchor="start" x="518.62" y="-191.5" font-family="Helvetica,sans-Serif" font-size="10.00">negative</text>
<polygon fill="none" stroke="red" points="514,-164 514,-185 560,-185 560,-164 514,-164"/>
<text text-anchor="start" x="519.75" y="-170.5" font-family="Helvetica,sans-Serif" font-size="10.00">nftables</text>
</g>
<!-- id&#45;&gt;dependency1986 -->
<g id="edge2" class="edge">
<title>id:e&#45;&gt;dependency1986:w</title>
<path fill="none" stroke="black" d="M305.23,-185C350.55,-185 364.6,-185 404.91,-185"/>
<polygon fill="black" stroke="black" points="414.85,-185 404.85,-189.5 411.07,-185 404.85,-185 404.85,-185 404.85,-185 411.07,-185 404.85,-180.5 414.85,-185"/>
</g>
<!-- dependency1988 -->
<g id="node4" class="node">
<title>dependency1988</title>
<polygon fill="none" stroke="red" points="420,-28 420,-70 509,-70 509,-28 420,-28"/>
<text text-anchor="start" x="430.75" y="-45.12" font-family="Helvetica,sans-Serif" font-size="10.00">use_conditional</text>
<polygon fill="none" stroke="red" points="509,-49 509,-70 565,-70 565,-49 509,-49"/>
<text text-anchor="start" x="520.12" y="-55.5" font-family="Helvetica,sans-Serif" font-size="10.00">positive</text>
<polygon fill="none" stroke="red" points="509,-28 509,-49 565,-49 565,-28 509,-28"/>
<text text-anchor="start" x="513.75" y="-34.5" font-family="Helvetica,sans-Serif" font-size="10.00">elibc_musl</text>
</g>
<!-- id&#45;&gt;dependency1988 -->
<g id="edge3" class="edge">
<title>id:e&#45;&gt;dependency1988:w</title>
<path fill="none" stroke="black" d="M305.23,-185C377.79,-185 339.13,-62.97 399.96,-50.09"/>
<polygon fill="black" stroke="black" points="409.86,-49.12 400.35,-54.58 406.1,-49.49 399.91,-50.1 399.91,-50.1 399.91,-50.1 406.1,-49.49 399.47,-45.62 409.86,-49.12"/>
</g>
<!-- dependency1989 -->
<g id="node5" class="node">
<title>dependency1989</title>
<polygon fill="none" stroke="red" points="426,-96 426,-138 515,-138 515,-96 426,-96"/>
<text text-anchor="start" x="436.75" y="-113.12" font-family="Helvetica,sans-Serif" font-size="10.00">use_conditional</text>
<polygon fill="none" stroke="red" points="515,-117 515,-138 559,-138 559,-117 515,-117"/>
<text text-anchor="start" x="520.12" y="-123.5" font-family="Helvetica,sans-Serif" font-size="10.00">positive</text>
<polygon fill="none" stroke="red" points="515,-96 515,-117 559,-117 559,-96 515,-96"/>
<text text-anchor="start" x="519.75" y="-102.5" font-family="Helvetica,sans-Serif" font-size="10.00">nftables</text>
</g>
<!-- id&#45;&gt;dependency1989 -->
<g id="edge4" class="edge">
<title>id:e&#45;&gt;dependency1989:w</title>
<path fill="none" stroke="black" d="M305.23,-185C359.43,-185 359.22,-125.98 405.98,-117.91"/>
<polygon fill="black" stroke="black" points="415.86,-117.1 406.26,-122.4 412.09,-117.41 405.89,-117.92 405.89,-117.92 405.89,-117.92 412.09,-117.41 405.52,-113.43 415.86,-117.1"/>
</g>
<!-- dependency1990 -->
<g id="node6" class="node">
<title>dependency1990</title>
<polygon fill="none" stroke="red" points="425,-257 425,-299 514,-299 514,-257 425,-257"/>
<text text-anchor="start" x="435.75" y="-274.12" font-family="Helvetica,sans-Serif" font-size="10.00">use_conditional</text>
<polygon fill="none" stroke="red" points="514,-278 514,-299 560,-299 560,-278 514,-278"/>
<text text-anchor="start" x="518.62" y="-284.5" font-family="Helvetica,sans-Serif" font-size="10.00">negative</text>
<polygon fill="none" stroke="red" points="514,-257 514,-278 560,-278 560,-257 514,-257"/>
<text text-anchor="start" x="519.75" y="-263.5" font-family="Helvetica,sans-Serif" font-size="10.00">nftables</text>
</g>
<!-- id&#45;&gt;dependency1990 -->
<g id="edge6" class="edge">
<title>id:e&#45;&gt;dependency1990:w</title>
<path fill="none" stroke="black" d="M305.23,-185C366.4,-185 353.31,-269.14 407.22,-277.36"/>
<ellipse fill="none" stroke="black" cx="411.58" cy="-277.67" rx="4" ry="4"/>
</g>
<!-- dependency1992 -->
<g id="node8" class="node">
<title>dependency1992</title>
<polygon fill="none" stroke="red" points="426,-325 426,-367 515,-367 515,-325 426,-325"/>
<text text-anchor="start" x="436.75" y="-342.12" font-family="Helvetica,sans-Serif" font-size="10.00">use_conditional</text>
<polygon fill="none" stroke="red" points="515,-346 515,-367 559,-367 559,-346 515,-346"/>
<text text-anchor="start" x="520.12" y="-352.5" font-family="Helvetica,sans-Serif" font-size="10.00">positive</text>
<polygon fill="none" stroke="red" points="515,-325 515,-346 559,-346 559,-325 515,-325"/>
<text text-anchor="start" x="519.75" y="-331.5" font-family="Helvetica,sans-Serif" font-size="10.00">nftables</text>
</g>
<!-- id&#45;&gt;dependency1992 -->
<g id="edge7" class="edge">
<title>id:e&#45;&gt;dependency1992:w</title>
<path fill="none" stroke="black" d="M305.23,-185C389.3,-185 334.15,-334.88 408.42,-345.42"/>
<ellipse fill="none" stroke="black" cx="412.58" cy="-345.7" rx="4" ry="4"/>
</g>
<!-- dependency1987 -->
<g id="node3" class="node">
<title>dependency1987</title>
<polygon fill="none" stroke="blue" points="689,-100.5 689,-205.5 793,-205.5 793,-100.5 689,-100.5"/>
<text text-anchor="start" x="720" y="-149.12" font-family="Helvetica,sans-Serif" font-size="10.00">pack_dep</text>
<polygon fill="none" stroke="blue" points="793,-184.5 793,-205.5 903,-205.5 903,-184.5 793,-184.5"/>
<text text-anchor="start" x="842.75" y="-191" font-family="Helvetica,sans-Serif" font-size="10.00">no</text>
<polygon fill="none" stroke="blue" points="793,-163.5 793,-184.5 903,-184.5 903,-163.5 793,-163.5"/>
<text text-anchor="start" x="824.38" y="-170" font-family="Helvetica,sans-Serif" font-size="10.00">net&#45;firewall</text>
<polygon fill="none" stroke="blue" points="793,-142.5 793,-163.5 903,-163.5 903,-142.5 793,-142.5"/>
<text text-anchor="start" x="831.12" y="-149" font-family="Helvetica,sans-Serif" font-size="10.00">iptables</text>
<polygon fill="none" stroke="blue" points="793,-121.5 793,-142.5 903,-142.5 903,-121.5 793,-121.5"/>
<text text-anchor="start" x="821.38" y="-128" font-family="Helvetica,sans-Serif" font-size="10.00">greaterequal</text>
<polygon fill="none" stroke="blue" points="793,-100.5 793,-121.5 903,-121.5 903,-100.5 793,-100.5"/>
<text text-anchor="start" x="837.12" y="-107" font-family="Helvetica,sans-Serif" font-size="10.00">1.4.6</text>
</g>
<!-- dependency1986&#45;&gt;dependency1987 -->
<g id="edge1" class="edge">
<title>dependency1986:e&#45;&gt;dependency1987:w</title>
<path fill="none" stroke="black" stroke-dasharray="5,2" d="M568.93,-185C616.78,-185 627.66,-157.69 669.88,-153.53"/>
<polygon fill="black" stroke="black" points="679.78,-153.06 670.01,-158.03 676.01,-153.24 669.79,-153.53 669.79,-153.53 669.79,-153.53 676.01,-153.24 669.58,-149.04 679.78,-153.06"/>
</g>
<!-- choice110101116451021051141011199710810847105112116979810810111545494656464948 -->
<g id="node9" class="node">
<title>choice110101116451021051141011199710810847105112116979810810111545494656464948</title>
<g id="a_node9"><a xlink:href="../net-firewall/iptables-1.8.10.svg" xlink:title="portage://net&#45;firewall/iptables&#45;1.8.10">
<ellipse fill="none" stroke="red" cx="1169" cy="-150" rx="144" ry="18"/>
<text text-anchor="middle" x="1169" y="-146.12" font-family="Helvetica,sans-Serif" font-size="10.00">portage://net&#45;firewall/iptables&#45;1.8.10</text>
</a>
</g>
</g>
<!-- dependency1987&#45;&gt;choice110101116451021051141011199710810847105112116979810810111545494656464948 -->
<g id="edge8" class="edge">
<title>dependency1987:e&#45;&gt;choice110101116451021051141011199710810847105112116979810810111545494656464948:w</title>
<path fill="none" stroke="black" stroke-dasharray="1,5" d="M917.89,-153C961.1,-153 974.53,-150.47 1012.86,-150.06"/>
<polygon fill="black" stroke="black" points="1022.55,-150.01 1012.57,-154.56 1018.77,-150.03 1012.55,-150.06 1012.55,-150.06 1012.55,-150.06 1018.77,-150.03 1012.52,-145.56 1022.55,-150.01"/>
</g>
<!-- choice1101011164510210511410111997108108471051121169798108101115454946564649484511449 -->
<g id="node10" class="node">
<title>choice1101011164510210511410111997108108471051121169798108101115454946564649484511449</title>
<g id="a_node10"><a xlink:href="../net-firewall/iptables-1.8.10-r1.svg" xlink:title="portage://net&#45;firewall/iptables&#45;1.8.10&#45;r1">
<ellipse fill="none" stroke="red" cx="1169" cy="-204" rx="144" ry="18"/>
<text text-anchor="middle" x="1169" y="-200.12" font-family="Helvetica,sans-Serif" font-size="10.00">portage://net&#45;firewall/iptables&#45;1.8.10&#45;r1</text>
</a>
</g>
</g>
<!-- dependency1987&#45;&gt;choice1101011164510210511410111997108108471051121169798108101115454946564649484511449 -->
<g id="edge9" class="edge">
<title>dependency1987:e&#45;&gt;choice1101011164510210511410111997108108471051121169798108101115454946564649484511449:w</title>
<path fill="none" stroke="black" stroke-dasharray="1,5" d="M917.89,-153C966.14,-153 971.02,-196.53 1012.67,-203.16"/>
<polygon fill="black" stroke="black" points="1022.55,-203.91 1012.24,-207.64 1018.78,-203.62 1012.58,-203.15 1012.58,-203.15 1012.58,-203.15 1018.78,-203.62 1012.92,-198.66 1022.55,-203.91"/>
</g>
<!-- choice1101011164510210511410111997108108471051121169798108101115454946564657 -->
<g id="node11" class="node">
<title>choice1101011164510210511410111997108108471051121169798108101115454946564657</title>
<g id="a_node11"><a xlink:href="../net-firewall/iptables-1.8.9.svg" xlink:title="portage://net&#45;firewall/iptables&#45;1.8.9">
<ellipse fill="none" stroke="red" cx="1169" cy="-258" rx="144" ry="18"/>
<text text-anchor="middle" x="1169" y="-254.12" font-family="Helvetica,sans-Serif" font-size="10.00">portage://net&#45;firewall/iptables&#45;1.8.9</text>
</a>
</g>
</g>
<!-- dependency1987&#45;&gt;choice1101011164510210511410111997108108471051121169798108101115454946564657 -->
<g id="edge10" class="edge">
<title>dependency1987:e&#45;&gt;choice1101011164510210511410111997108108471051121169798108101115454946564657:w</title>
<path fill="none" stroke="black" stroke-dasharray="1,5" d="M917.89,-153C980.15,-153 960.38,-245.67 1012.71,-256.89"/>
<polygon fill="black" stroke="black" points="1022.55,-257.88 1012.15,-261.36 1018.79,-257.5 1012.6,-256.88 1012.6,-256.88 1012.6,-256.88 1018.79,-257.5 1013.05,-252.4 1022.55,-257.88"/>
</g>
<!-- choice11010111645102105114101119971081084710511211697981081011154549465646574511450 -->
<g id="node12" class="node">
<title>choice11010111645102105114101119971081084710511211697981081011154549465646574511450</title>
<g id="a_node12"><a xlink:href="../net-firewall/iptables-1.8.9-r2.svg" xlink:title="portage://net&#45;firewall/iptables&#45;1.8.9&#45;r2">
<ellipse fill="none" stroke="red" cx="1169" cy="-312" rx="144" ry="18"/>
<text text-anchor="middle" x="1169" y="-308.12" font-family="Helvetica,sans-Serif" font-size="10.00">portage://net&#45;firewall/iptables&#45;1.8.9&#45;r2</text>
</a>
</g>
</g>
<!-- dependency1987&#45;&gt;choice11010111645102105114101119971081084710511211697981081011154549465646574511450 -->
<g id="edge11" class="edge">
<title>dependency1987:e&#45;&gt;choice11010111645102105114101119971081084710511211697981081011154549465646574511450:w</title>
<path fill="none" stroke="black" stroke-dasharray="1,5" d="M917.89,-153C998.81,-153 944.53,-297.44 1012.78,-310.98"/>
<polygon fill="black" stroke="black" points="1022.55,-311.89 1012.18,-315.45 1018.79,-311.54 1012.59,-310.97 1012.59,-310.97 1012.59,-310.97 1018.79,-311.54 1013.01,-306.49 1022.55,-311.89"/>
</g>
<!-- dependency1991 -->
<g id="node7" class="node">
<title>dependency1991</title>
<polygon fill="none" stroke="blue" points="689,-257.5 689,-362.5 793,-362.5 793,-257.5 689,-257.5"/>
<text text-anchor="start" x="720" y="-306.12" font-family="Helvetica,sans-Serif" font-size="10.00">pack_dep</text>
<polygon fill="none" stroke="blue" points="793,-341.5 793,-362.5 903,-362.5 903,-341.5 793,-341.5"/>
<text text-anchor="start" x="842.75" y="-348" font-family="Helvetica,sans-Serif" font-size="10.00">no</text>
<polygon fill="none" stroke="blue" points="793,-320.5 793,-341.5 903,-341.5 903,-320.5 793,-320.5"/>
<text text-anchor="start" x="824.38" y="-327" font-family="Helvetica,sans-Serif" font-size="10.00">net&#45;firewall</text>
<polygon fill="none" stroke="blue" points="793,-299.5 793,-320.5 903,-320.5 903,-299.5 793,-299.5"/>
<text text-anchor="start" x="831.12" y="-306" font-family="Helvetica,sans-Serif" font-size="10.00">iptables</text>
<polygon fill="none" stroke="blue" points="793,-278.5 793,-299.5 903,-299.5 903,-278.5 793,-278.5"/>
<text text-anchor="start" x="821.38" y="-285" font-family="Helvetica,sans-Serif" font-size="10.00">greaterequal</text>
<polygon fill="none" stroke="blue" points="793,-257.5 793,-278.5 903,-278.5 903,-257.5 793,-257.5"/>
<text text-anchor="start" x="837.12" y="-264" font-family="Helvetica,sans-Serif" font-size="10.00">1.4.6</text>
</g>
<!-- dependency1990&#45;&gt;dependency1991 -->
<g id="edge5" class="edge">
<title>dependency1990:e&#45;&gt;dependency1991:w</title>
<path fill="none" stroke="black" stroke-dasharray="5,2" d="M568.93,-278C616.78,-278 627.66,-305.31 669.88,-309.47"/>
<polygon fill="black" stroke="black" points="679.78,-309.94 669.58,-313.96 676.01,-309.76 669.79,-309.47 669.79,-309.47 669.79,-309.47 676.01,-309.76 670.01,-304.97 679.78,-309.94"/>
</g>
<!-- dependency1991&#45;&gt;choice110101116451021051141011199710810847105112116979810810111545494656464948 -->
<g id="edge12" class="edge">
<title>dependency1991:e&#45;&gt;choice110101116451021051141011199710810847105112116979810810111545494656464948:w</title>
<path fill="none" stroke="black" stroke-dasharray="1,5" d="M917.89,-310C999.16,-310 944.23,-164.65 1012.73,-151.02"/>
<polygon fill="black" stroke="black" points="1022.55,-150.11 1013.01,-155.52 1018.79,-150.46 1012.6,-151.03 1012.6,-151.03 1012.6,-151.03 1018.79,-150.46 1012.18,-146.55 1022.55,-150.11"/>
</g>
<!-- dependency1991&#45;&gt;choice1101011164510210511410111997108108471051121169798108101115454946564649484511449 -->
<g id="edge13" class="edge">
<title>dependency1991:e&#45;&gt;choice1101011164510210511410111997108108471051121169798108101115454946564649484511449:w</title>
<path fill="none" stroke="black" stroke-dasharray="1,5" d="M917.89,-310C980.44,-310 960.14,-216.45 1012.66,-205.12"/>
<polygon fill="black" stroke="black" points="1022.55,-204.12 1013.05,-209.6 1018.79,-204.5 1012.6,-205.12 1012.6,-205.12 1012.6,-205.12 1018.79,-204.5 1012.15,-200.65 1022.55,-204.12"/>
</g>
<!-- dependency1991&#45;&gt;choice1101011164510210511410111997108108471051121169798108101115454946564657 -->
<g id="edge14" class="edge">
<title>dependency1991:e&#45;&gt;choice1101011164510210511410111997108108471051121169798108101115454946564657:w</title>
<path fill="none" stroke="black" stroke-dasharray="1,5" d="M917.89,-310C966.32,-310 970.89,-265.62 1012.63,-258.86"/>
<polygon fill="black" stroke="black" points="1022.55,-258.09 1012.93,-263.35 1018.78,-258.38 1012.58,-258.86 1012.58,-258.86 1012.58,-258.86 1018.78,-258.38 1012.23,-254.38 1022.55,-258.09"/>
</g>
<!-- dependency1991&#45;&gt;choice11010111645102105114101119971081084710511211697981081011154549465646574511450 -->
<g id="edge15" class="edge">
<title>dependency1991:e&#45;&gt;choice11010111645102105114101119971081084710511211697981081011154549465646574511450:w</title>
<path fill="none" stroke="black" stroke-dasharray="1,5" d="M917.89,-310C961.09,-310 974.54,-311.69 1012.86,-311.96"/>
<polygon fill="black" stroke="black" points="1022.55,-312 1012.53,-316.46 1018.77,-311.98 1012.55,-311.96 1012.55,-311.96 1012.55,-311.96 1018.77,-311.98 1012.56,-307.46 1022.55,-312"/>
</g>
</g>
</svg>
