<?xml version="1.0" encoding="UTF-8" standalone="no"?>
<!DOCTYPE svg PUBLIC "-//W3C//DTD SVG 1.1//EN"
 "http://www.w3.org/Graphics/SVG/1.1/DTD/svg11.dtd">
<!-- Generated by graphviz version 12.0.0 (20240704.0754)
 -->
<!-- Title: prolog Pages: 1 -->
<svg width="1068pt" height="917pt"
 viewBox="0.00 0.00 1068.00 917.00" xmlns="http://www.w3.org/2000/svg" xmlns:xlink="http://www.w3.org/1999/xlink">
<g id="graph0" class="graph" transform="scale(1 1) rotate(0) translate(4 913)">
<title>prolog</title>
<polygon fill="white" stroke="none" points="-4,4 -4,-913 1064,-913 1064,4 -4,4"/>
<g id="clust1" class="cluster">
<title>cluster_leftcol</title>
<polygon fill="none" stroke="gray" points="8,-436 8,-507 312,-507 312,-436 8,-436"/>
<text text-anchor="start" x="147.25" y="-494.5" font-family="Helvetica,sans-Serif" font-style="italic" font-size="10.00">ebuild</text>
</g>
<g id="clust2" class="cluster">
<title>cluster_midcol</title>
<polygon fill="none" stroke="gray" points="396,-46 396,-901 664,-901 664,-46 396,-46"/>
<text text-anchor="start" x="500" y="-888.5" font-family="Helvetica,sans-Serif" font-style="italic" font-size="10.00">dependencies</text>
</g>
<g id="clust5" class="cluster">
<title>cluster_run</title>
<polygon fill="#eeeeee" stroke="gray" points="404,-54 404,-874 656,-874 656,-54 404,-54"/>
<text text-anchor="start" x="523.25" y="-861.5" font-family="Helvetica,sans-Serif" font-style="italic" font-size="10.00">run</text>
</g>
<g id="clust12" class="cluster">
<title>cluster_choices</title>
<polygon fill="none" stroke="gray" points="748,-8 748,-835 1052,-835 1052,-8 748,-8"/>
<text text-anchor="start" x="876.38" y="-822.5" font-family="Helvetica,sans-Serif" font-style="italic" font-size="10.00">candidates</text>
</g>
<!-- id -->
<g id="node1" class="node">
<title>id</title>
<g id="a_node1"><a xlink:href="../games-puzzle/braid-gog-2.0.0.3.svg" xlink:title="portage://games&#45;puzzle/braid&#45;gog&#45;2.0.0.3">
<ellipse fill="none" stroke="red" cx="160" cy="-462" rx="144" ry="18"/>
<text text-anchor="middle" x="160" y="-458.12" font-family="Helvetica,sans-Serif" font-size="10.00">portage://games&#45;puzzle/braid&#45;gog&#45;2.0.0.3</text>
</a>
</g>
</g>
<!-- dependency234884 -->
<g id="node2" class="node">
<title>dependency234884</title>
<polygon fill="none" stroke="blue" points="420,-66.5 420,-171.5 524,-171.5 524,-66.5 420,-66.5"/>
<text text-anchor="start" x="451" y="-115.12" font-family="Helvetica,sans-Serif" font-size="10.00">pack_dep</text>
<polygon fill="none" stroke="blue" points="524,-150.5 524,-171.5 634,-171.5 634,-150.5 524,-150.5"/>
<text text-anchor="start" x="572.25" y="-157" font-family="Helvetica,sans-Serif" font-size="10.00">run</text>
<polygon fill="none" stroke="blue" points="524,-129.5 524,-150.5 634,-150.5 634,-129.5 524,-129.5"/>
<text text-anchor="start" x="557.62" y="-136" font-family="Helvetica,sans-Serif" font-size="10.00">media&#45;gfx</text>
<polygon fill="none" stroke="blue" points="524,-108.5 524,-129.5 634,-129.5 634,-108.5 524,-108.5"/>
<text text-anchor="start" x="544.88" y="-115" font-family="Helvetica,sans-Serif" font-size="10.00">nvidia&#45;cg&#45;toolkit</text>
<polygon fill="none" stroke="blue" points="524,-87.5 524,-108.5 634,-108.5 634,-87.5 524,-87.5"/>
<text text-anchor="start" x="568.5" y="-94" font-family="Helvetica,sans-Serif" font-size="10.00">none</text>
<polygon fill="none" stroke="blue" points="524,-66.5 524,-87.5 634,-87.5 634,-66.5 524,-66.5"/>
<text text-anchor="start" x="567" y="-73" font-family="Helvetica,sans-Serif" font-size="10.00">[[],,,,]</text>
</g>
<!-- id&#45;&gt;dependency234884 -->
<g id="edge1" class="edge">
<title>id:e&#45;&gt;dependency234884:w</title>
<path fill="none" stroke="black" d="M305.23,-462C461.66,-462 259.76,-132.27 402.18,-119.39"/>
<ellipse fill="none" stroke="black" cx="406.62" cy="-119.2" rx="4" ry="4"/>
</g>
<!-- dependency234885 -->
<g id="node3" class="node">
<title>dependency234885</title>
<polygon fill="none" stroke="blue" points="420,-197.5 420,-302.5 524,-302.5 524,-197.5 420,-197.5"/>
<text text-anchor="start" x="451" y="-246.12" font-family="Helvetica,sans-Serif" font-size="10.00">pack_dep</text>
<polygon fill="none" stroke="blue" points="524,-281.5 524,-302.5 634,-302.5 634,-281.5 524,-281.5"/>
<text text-anchor="start" x="572.25" y="-288" font-family="Helvetica,sans-Serif" font-size="10.00">run</text>
<polygon fill="none" stroke="blue" points="524,-260.5 524,-281.5 634,-281.5 634,-260.5 524,-260.5"/>
<text text-anchor="start" x="556.88" y="-267" font-family="Helvetica,sans-Serif" font-size="10.00">media&#45;libs</text>
<polygon fill="none" stroke="blue" points="524,-239.5 524,-260.5 634,-260.5 634,-239.5 524,-239.5"/>
<text text-anchor="start" x="565.12" y="-246" font-family="Helvetica,sans-Serif" font-size="10.00">libsdl2</text>
<polygon fill="none" stroke="blue" points="524,-218.5 524,-239.5 634,-239.5 634,-218.5 524,-218.5"/>
<text text-anchor="start" x="568.5" y="-225" font-family="Helvetica,sans-Serif" font-size="10.00">none</text>
<polygon fill="none" stroke="blue" points="524,-197.5 524,-218.5 634,-218.5 634,-197.5 524,-197.5"/>
<text text-anchor="start" x="567" y="-204" font-family="Helvetica,sans-Serif" font-size="10.00">[[],,,,]</text>
</g>
<!-- id&#45;&gt;dependency234885 -->
<g id="edge2" class="edge">
<title>id:e&#45;&gt;dependency234885:w</title>
<path fill="none" stroke="black" d="M305.23,-462C407.47,-462 311.75,-262.24 402.39,-250.54"/>
<ellipse fill="none" stroke="black" cx="406.62" cy="-250.28" rx="4" ry="4"/>
</g>
<!-- dependency234886 -->
<g id="node4" class="node">
<title>dependency234886</title>
<polygon fill="none" stroke="blue" points="420,-344.5 420,-449.5 524,-449.5 524,-344.5 420,-344.5"/>
<text text-anchor="start" x="451" y="-393.12" font-family="Helvetica,sans-Serif" font-size="10.00">pack_dep</text>
<polygon fill="none" stroke="blue" points="524,-428.5 524,-449.5 634,-449.5 634,-428.5 524,-428.5"/>
<text text-anchor="start" x="572.25" y="-435" font-family="Helvetica,sans-Serif" font-size="10.00">run</text>
<polygon fill="none" stroke="blue" points="524,-407.5 524,-428.5 634,-428.5 634,-407.5 524,-407.5"/>
<text text-anchor="start" x="565.88" y="-414" font-family="Helvetica,sans-Serif" font-size="10.00">virtual</text>
<polygon fill="none" stroke="blue" points="524,-386.5 524,-407.5 634,-407.5 634,-386.5 524,-386.5"/>
<text text-anchor="start" x="564.75" y="-393" font-family="Helvetica,sans-Serif" font-size="10.00">opengl</text>
<polygon fill="none" stroke="blue" points="524,-365.5 524,-386.5 634,-386.5 634,-365.5 524,-365.5"/>
<text text-anchor="start" x="568.5" y="-372" font-family="Helvetica,sans-Serif" font-size="10.00">none</text>
<polygon fill="none" stroke="blue" points="524,-344.5 524,-365.5 634,-365.5 634,-344.5 524,-344.5"/>
<text text-anchor="start" x="567" y="-351" font-family="Helvetica,sans-Serif" font-size="10.00">[[],,,,]</text>
</g>
<!-- id&#45;&gt;dependency234886 -->
<g id="edge3" class="edge">
<title>id:e&#45;&gt;dependency234886:w</title>
<path fill="none" stroke="black" d="M305.23,-462C357.32,-462 356.22,-404.15 402.28,-397.6"/>
<ellipse fill="none" stroke="black" cx="406.62" cy="-397.31" rx="4" ry="4"/>
</g>
<!-- dependency234887 -->
<g id="node5" class="node">
<title>dependency234887</title>
<polygon fill="none" stroke="blue" points="420,-475.5 420,-580.5 524,-580.5 524,-475.5 420,-475.5"/>
<text text-anchor="start" x="451" y="-524.12" font-family="Helvetica,sans-Serif" font-size="10.00">pack_dep</text>
<polygon fill="none" stroke="blue" points="524,-559.5 524,-580.5 634,-580.5 634,-559.5 524,-559.5"/>
<text text-anchor="start" x="572.25" y="-566" font-family="Helvetica,sans-Serif" font-size="10.00">run</text>
<polygon fill="none" stroke="blue" points="524,-538.5 524,-559.5 634,-559.5 634,-538.5 524,-538.5"/>
<text text-anchor="start" x="562.12" y="-545" font-family="Helvetica,sans-Serif" font-size="10.00">x11&#45;libs</text>
<polygon fill="none" stroke="blue" points="524,-517.5 524,-538.5 634,-538.5 634,-517.5 524,-517.5"/>
<text text-anchor="start" x="572.25" y="-524" font-family="Helvetica,sans-Serif" font-size="10.00">fltk</text>
<polygon fill="none" stroke="blue" points="524,-496.5 524,-517.5 634,-517.5 634,-496.5 524,-496.5"/>
<text text-anchor="start" x="568.5" y="-503" font-family="Helvetica,sans-Serif" font-size="10.00">none</text>
<polygon fill="none" stroke="blue" points="524,-475.5 524,-496.5 634,-496.5 634,-475.5 524,-475.5"/>
<text text-anchor="start" x="567" y="-482" font-family="Helvetica,sans-Serif" font-size="10.00">[[],,,,]</text>
</g>
<!-- id&#45;&gt;dependency234887 -->
<g id="edge4" class="edge">
<title>id:e&#45;&gt;dependency234887:w</title>
<path fill="none" stroke="black" d="M305.23,-462C357.54,-462 356.04,-520.74 402.25,-527.39"/>
<ellipse fill="none" stroke="black" cx="406.62" cy="-527.69" rx="4" ry="4"/>
</g>
<!-- dependency234888 -->
<g id="node6" class="node">
<title>dependency234888</title>
<polygon fill="none" stroke="blue" points="420,-606.5 420,-711.5 524,-711.5 524,-606.5 420,-606.5"/>
<text text-anchor="start" x="451" y="-655.12" font-family="Helvetica,sans-Serif" font-size="10.00">pack_dep</text>
<polygon fill="none" stroke="blue" points="524,-690.5 524,-711.5 634,-711.5 634,-690.5 524,-690.5"/>
<text text-anchor="start" x="572.25" y="-697" font-family="Helvetica,sans-Serif" font-size="10.00">run</text>
<polygon fill="none" stroke="blue" points="524,-669.5 524,-690.5 634,-690.5 634,-669.5 524,-669.5"/>
<text text-anchor="start" x="562.12" y="-676" font-family="Helvetica,sans-Serif" font-size="10.00">x11&#45;libs</text>
<polygon fill="none" stroke="blue" points="524,-648.5 524,-669.5 634,-669.5 634,-648.5 524,-648.5"/>
<text text-anchor="start" x="565.5" y="-655" font-family="Helvetica,sans-Serif" font-size="10.00">libX11</text>
<polygon fill="none" stroke="blue" points="524,-627.5 524,-648.5 634,-648.5 634,-627.5 524,-627.5"/>
<text text-anchor="start" x="568.5" y="-634" font-family="Helvetica,sans-Serif" font-size="10.00">none</text>
<polygon fill="none" stroke="blue" points="524,-606.5 524,-627.5 634,-627.5 634,-606.5 524,-606.5"/>
<text text-anchor="start" x="567" y="-613" font-family="Helvetica,sans-Serif" font-size="10.00">[[],,,,]</text>
</g>
<!-- id&#45;&gt;dependency234888 -->
<g id="edge5" class="edge">
<title>id:e&#45;&gt;dependency234888:w</title>
<path fill="none" stroke="black" d="M305.23,-462C401.53,-462 317.33,-646.88 402.34,-658.43"/>
<ellipse fill="none" stroke="black" cx="406.62" cy="-658.71" rx="4" ry="4"/>
</g>
<!-- dependency234889 -->
<g id="node7" class="node">
<title>dependency234889</title>
<polygon fill="none" stroke="blue" points="420,-737.5 420,-842.5 524,-842.5 524,-737.5 420,-737.5"/>
<text text-anchor="start" x="451" y="-786.12" font-family="Helvetica,sans-Serif" font-size="10.00">pack_dep</text>
<polygon fill="none" stroke="blue" points="524,-821.5 524,-842.5 634,-842.5 634,-821.5 524,-821.5"/>
<text text-anchor="start" x="572.25" y="-828" font-family="Helvetica,sans-Serif" font-size="10.00">run</text>
<polygon fill="none" stroke="blue" points="524,-800.5 524,-821.5 634,-821.5 634,-800.5 524,-800.5"/>
<text text-anchor="start" x="548.62" y="-807" font-family="Helvetica,sans-Serif" font-size="10.00">games&#45;puzzle</text>
<polygon fill="none" stroke="blue" points="524,-779.5 524,-800.5 634,-800.5 634,-779.5 524,-779.5"/>
<text text-anchor="start" x="561.75" y="-786" font-family="Helvetica,sans-Serif" font-size="10.00">braid&#45;hb</text>
<polygon fill="none" stroke="blue" points="524,-758.5 524,-779.5 634,-779.5 634,-758.5 524,-758.5"/>
<text text-anchor="start" x="568.5" y="-765" font-family="Helvetica,sans-Serif" font-size="10.00">none</text>
<polygon fill="none" stroke="blue" points="524,-737.5 524,-758.5 634,-758.5 634,-737.5 524,-737.5"/>
<text text-anchor="start" x="567" y="-744" font-family="Helvetica,sans-Serif" font-size="10.00">[[],,,,]</text>
</g>
<!-- id&#45;&gt;dependency234889 -->
<g id="edge6" class="edge">
<title>id:e&#45;&gt;dependency234889:w</title>
<path fill="none" stroke="black" d="M305.23,-462C455.28,-462 266,-776.68 402.13,-789.59"/>
<ellipse fill="none" stroke="black" cx="406.62" cy="-789.8" rx="4" ry="4"/>
</g>
<!-- choice109101100105974510310212047110118105100105974599103451161111111081071051164551464946484849514511454 -->
<g id="node8" class="node">
<title>choice109101100105974510310212047110118105100105974599103451161111111081071051164551464946484849514511454</title>
<g id="a_node8"><a xlink:href="../media-gfx/nvidia-cg-toolkit-3.1.0013-r6.svg" xlink:title="portage://media&#45;gfx/nvidia&#45;cg&#45;toolkit&#45;3.1.0013&#45;r6">
<ellipse fill="none" stroke="red" cx="900" cy="-34" rx="144" ry="18"/>
<text text-anchor="middle" x="900" y="-30.12" font-family="Helvetica,sans-Serif" font-size="10.00">portage://media&#45;gfx/nvidia&#45;cg&#45;toolkit&#45;3.1.0013&#45;r6</text>
</a>
</g>
</g>
<!-- dependency234884&#45;&gt;choice109101100105974510310212047110118105100105974599103451161111111081071051164551464946484849514511454 -->
<g id="edge7" class="edge">
<title>dependency234884:e&#45;&gt;choice109101100105974510310212047110118105100105974599103451161111111081071051164551464946484849514511454:w</title>
<path fill="none" stroke="black" stroke-dasharray="1,5" d="M648.89,-119C705.23,-119 696.06,-44.91 743.69,-35.07"/>
<polygon fill="black" stroke="black" points="753.55,-34.12 744.03,-39.56 749.79,-34.48 743.6,-35.08 743.6,-35.08 743.6,-35.08 749.79,-34.48 743.16,-30.61 753.55,-34.12"/>
</g>
<!-- choice10910110010597451081059811547108105981151001085045504651484655 -->
<g id="node9" class="node">
<title>choice10910110010597451081059811547108105981151001085045504651484655</title>
<g id="a_node9"><a xlink:href="../media-libs/libsdl2-2.30.7.svg" xlink:title="portage://media&#45;libs/libsdl2&#45;2.30.7">
<ellipse fill="none" stroke="red" cx="900" cy="-88" rx="144" ry="18"/>
<text text-anchor="middle" x="900" y="-84.12" font-family="Helvetica,sans-Serif" font-size="10.00">portage://media&#45;libs/libsdl2&#45;2.30.7</text>
</a>
</g>
</g>
<!-- dependency234885&#45;&gt;choice10910110010597451081059811547108105981151001085045504651484655 -->
<g id="edge8" class="edge">
<title>dependency234885:e&#45;&gt;choice10910110010597451081059811547108105981151001085045504651484655:w</title>
<path fill="none" stroke="black" stroke-dasharray="1,5" d="M648.89,-250C730.87,-250 674.62,-102.83 743.64,-89.03"/>
<polygon fill="black" stroke="black" points="753.55,-88.11 744.01,-93.52 749.79,-88.46 743.6,-89.04 743.6,-89.04 743.6,-89.04 749.79,-88.46 743.18,-84.56 753.55,-88.11"/>
</g>
<!-- choice10910110010597451081059811547108105981151001085045504651484654 -->
<g id="node10" class="node">
<title>choice10910110010597451081059811547108105981151001085045504651484654</title>
<g id="a_node10"><a xlink:href="../media-libs/libsdl2-2.30.6.svg" xlink:title="portage://media&#45;libs/libsdl2&#45;2.30.6">
<ellipse fill="none" stroke="red" cx="900" cy="-142" rx="144" ry="18"/>
<text text-anchor="middle" x="900" y="-138.12" font-family="Helvetica,sans-Serif" font-size="10.00">portage://media&#45;libs/libsdl2&#45;2.30.6</text>
</a>
</g>
</g>
<!-- dependency234885&#45;&gt;choice10910110010597451081059811547108105981151001085045504651484654 -->
<g id="edge9" class="edge">
<title>dependency234885:e&#45;&gt;choice10910110010597451081059811547108105981151001085045504651484654:w</title>
<path fill="none" stroke="black" stroke-dasharray="1,5" d="M648.89,-250C712.17,-250 690.57,-154.29 743.9,-143.07"/>
<polygon fill="black" stroke="black" points="753.55,-142.12 744.04,-147.58 749.79,-142.49 743.6,-143.1 743.6,-143.1 743.6,-143.1 749.79,-142.49 743.16,-138.62 753.55,-142.12"/>
</g>
<!-- choice10910110010597451081059811547108105981151001085045504651484651 -->
<g id="node11" class="node">
<title>choice10910110010597451081059811547108105981151001085045504651484651</title>
<g id="a_node11"><a xlink:href="../media-libs/libsdl2-2.30.3.svg" xlink:title="portage://media&#45;libs/libsdl2&#45;2.30.3">
<ellipse fill="none" stroke="red" cx="900" cy="-196" rx="144" ry="18"/>
<text text-anchor="middle" x="900" y="-192.12" font-family="Helvetica,sans-Serif" font-size="10.00">portage://media&#45;libs/libsdl2&#45;2.30.3</text>
</a>
</g>
</g>
<!-- dependency234885&#45;&gt;choice10910110010597451081059811547108105981151001085045504651484651 -->
<g id="edge10" class="edge">
<title>dependency234885:e&#45;&gt;choice10910110010597451081059811547108105981151001085045504651484651:w</title>
<path fill="none" stroke="black" stroke-dasharray="1,5" d="M648.89,-250C697.79,-250 701.62,-203.72 743.83,-196.85"/>
<polygon fill="black" stroke="black" points="753.55,-196.09 743.93,-201.35 749.78,-196.39 743.58,-196.87 743.58,-196.87 743.58,-196.87 749.78,-196.39 743.23,-192.38 753.55,-196.09"/>
</g>
<!-- choice109101100105974510810598115471081059811510010850455046514846504511449 -->
<g id="node12" class="node">
<title>choice109101100105974510810598115471081059811510010850455046514846504511449</title>
<g id="a_node12"><a xlink:href="../media-libs/libsdl2-2.30.2-r1.svg" xlink:title="portage://media&#45;libs/libsdl2&#45;2.30.2&#45;r1">
<ellipse fill="none" stroke="red" cx="900" cy="-250" rx="144" ry="18"/>
<text text-anchor="middle" x="900" y="-246.12" font-family="Helvetica,sans-Serif" font-size="10.00">portage://media&#45;libs/libsdl2&#45;2.30.2&#45;r1</text>
</a>
</g>
</g>
<!-- dependency234885&#45;&gt;choice109101100105974510810598115471081059811510010850455046514846504511449 -->
<g id="edge11" class="edge">
<title>dependency234885:e&#45;&gt;choice109101100105974510810598115471081059811510010850455046514846504511449:w</title>
<path fill="none" stroke="black" stroke-dasharray="1,5" d="M648.89,-250C692.08,-250 705.54,-250 743.86,-250"/>
<polygon fill="black" stroke="black" points="753.55,-250 743.55,-254.5 749.77,-250 743.55,-250 743.55,-250 743.55,-250 749.77,-250 743.55,-245.5 753.55,-250"/>
</g>
<!-- choice109101100105974510810598115471081059811510010850455046505646534511450 -->
<g id="node13" class="node">
<title>choice109101100105974510810598115471081059811510010850455046505646534511450</title>
<g id="a_node13"><a xlink:href="../media-libs/libsdl2-2.28.5-r2.svg" xlink:title="portage://media&#45;libs/libsdl2&#45;2.28.5&#45;r2">
<ellipse fill="none" stroke="red" cx="900" cy="-304" rx="144" ry="18"/>
<text text-anchor="middle" x="900" y="-300.12" font-family="Helvetica,sans-Serif" font-size="10.00">portage://media&#45;libs/libsdl2&#45;2.28.5&#45;r2</text>
</a>
</g>
</g>
<!-- dependency234885&#45;&gt;choice109101100105974510810598115471081059811510010850455046505646534511450 -->
<g id="edge12" class="edge">
<title>dependency234885:e&#45;&gt;choice109101100105974510810598115471081059811510010850455046505646534511450:w</title>
<path fill="none" stroke="black" stroke-dasharray="1,5" d="M648.89,-250C697.79,-250 701.62,-296.28 743.83,-303.15"/>
<polygon fill="black" stroke="black" points="753.55,-303.91 743.23,-307.62 749.78,-303.61 743.58,-303.13 743.58,-303.13 743.58,-303.13 749.78,-303.61 743.93,-298.65 753.55,-303.91"/>
</g>
<!-- choice109101100105974510810598115471081059811510010850455046505646534511449 -->
<g id="node14" class="node">
<title>choice109101100105974510810598115471081059811510010850455046505646534511449</title>
<g id="a_node14"><a xlink:href="../media-libs/libsdl2-2.28.5-r1.svg" xlink:title="portage://media&#45;libs/libsdl2&#45;2.28.5&#45;r1">
<ellipse fill="none" stroke="red" cx="900" cy="-358" rx="144" ry="18"/>
<text text-anchor="middle" x="900" y="-354.12" font-family="Helvetica,sans-Serif" font-size="10.00">portage://media&#45;libs/libsdl2&#45;2.28.5&#45;r1</text>
</a>
</g>
</g>
<!-- dependency234885&#45;&gt;choice109101100105974510810598115471081059811510010850455046505646534511449 -->
<g id="edge13" class="edge">
<title>dependency234885:e&#45;&gt;choice109101100105974510810598115471081059811510010850455046505646534511449:w</title>
<path fill="none" stroke="black" stroke-dasharray="1,5" d="M648.89,-250C712.17,-250 690.57,-345.71 743.9,-356.93"/>
<polygon fill="black" stroke="black" points="753.55,-357.88 743.16,-361.38 749.79,-357.51 743.6,-356.9 743.6,-356.9 743.6,-356.9 749.79,-357.51 744.04,-352.42 753.55,-357.88"/>
</g>
<!-- choice1181051141161179710847111112101110103108455546484511450 -->
<g id="node15" class="node">
<title>choice1181051141161179710847111112101110103108455546484511450</title>
<g id="a_node15"><a xlink:href="../virtual/opengl-7.0-r2.svg" xlink:title="portage://virtual/opengl&#45;7.0&#45;r2">
<ellipse fill="none" stroke="red" cx="900" cy="-412" rx="144" ry="18"/>
<text text-anchor="middle" x="900" y="-408.12" font-family="Helvetica,sans-Serif" font-size="10.00">portage://virtual/opengl&#45;7.0&#45;r2</text>
</a>
</g>
</g>
<!-- dependency234886&#45;&gt;choice1181051141161179710847111112101110103108455546484511450 -->
<g id="edge14" class="edge">
<title>dependency234886:e&#45;&gt;choice1181051141161179710847111112101110103108455546484511450:w</title>
<path fill="none" stroke="black" stroke-dasharray="1,5" d="M648.89,-397C692.52,-397 705.22,-409.64 743.77,-411.71"/>
<polygon fill="black" stroke="black" points="753.55,-411.97 743.43,-416.21 749.77,-411.87 743.55,-411.71 743.55,-411.71 743.55,-411.71 749.77,-411.87 743.67,-407.21 753.55,-411.97"/>
</g>
<!-- choice1204949451081059811547102108116107454946524657575757 -->
<g id="node16" class="node">
<title>choice1204949451081059811547102108116107454946524657575757</title>
<g id="a_node16"><a xlink:href="../x11-libs/fltk-1.4.9999.svg" xlink:title="portage://x11&#45;libs/fltk&#45;1.4.9999">
<ellipse fill="none" stroke="red" cx="900" cy="-466" rx="144" ry="18"/>
<text text-anchor="middle" x="900" y="-462.12" font-family="Helvetica,sans-Serif" font-size="10.00">portage://x11&#45;libs/fltk&#45;1.4.9999</text>
</a>
</g>
</g>
<!-- dependency234887&#45;&gt;choice1204949451081059811547102108116107454946524657575757 -->
<g id="edge15" class="edge">
<title>dependency234887:e&#45;&gt;choice1204949451081059811547102108116107454946524657575757:w</title>
<path fill="none" stroke="black" stroke-dasharray="1,5" d="M648.89,-528C699.48,-528 700.39,-474.64 743.8,-466.92"/>
<polygon fill="black" stroke="black" points="753.55,-466.1 743.97,-471.43 749.78,-466.42 743.59,-466.94 743.59,-466.94 743.59,-466.94 749.78,-466.42 743.21,-462.46 753.55,-466.1"/>
</g>
<!-- choice1204949451081059811547102108116107454946514657575757 -->
<g id="node17" class="node">
<title>choice1204949451081059811547102108116107454946514657575757</title>
<g id="a_node17"><a xlink:href="../x11-libs/fltk-1.3.9999.svg" xlink:title="portage://x11&#45;libs/fltk&#45;1.3.9999">
<ellipse fill="none" stroke="red" cx="900" cy="-520" rx="144" ry="18"/>
<text text-anchor="middle" x="900" y="-516.12" font-family="Helvetica,sans-Serif" font-size="10.00">portage://x11&#45;libs/fltk&#45;1.3.9999</text>
</a>
</g>
</g>
<!-- dependency234887&#45;&gt;choice1204949451081059811547102108116107454946514657575757 -->
<g id="edge16" class="edge">
<title>dependency234887:e&#45;&gt;choice1204949451081059811547102108116107454946514657575757:w</title>
<path fill="none" stroke="black" stroke-dasharray="1,5" d="M648.89,-528C692.21,-528 705.45,-521.26 743.83,-520.15"/>
<polygon fill="black" stroke="black" points="753.55,-520.02 743.61,-524.66 749.77,-520.07 743.55,-520.16 743.55,-520.16 743.55,-520.16 749.77,-520.07 743.49,-515.66 753.55,-520.02"/>
</g>
<!-- choice1204949451081059811547102108116107454946514656 -->
<g id="node18" class="node">
<title>choice1204949451081059811547102108116107454946514656</title>
<g id="a_node18"><a xlink:href="../x11-libs/fltk-1.3.8.svg" xlink:title="portage://x11&#45;libs/fltk&#45;1.3.8">
<ellipse fill="none" stroke="red" cx="900" cy="-574" rx="144" ry="18"/>
<text text-anchor="middle" x="900" y="-570.12" font-family="Helvetica,sans-Serif" font-size="10.00">portage://x11&#45;libs/fltk&#45;1.3.8</text>
</a>
</g>
</g>
<!-- dependency234887&#45;&gt;choice1204949451081059811547102108116107454946514656 -->
<g id="edge17" class="edge">
<title>dependency234887:e&#45;&gt;choice1204949451081059811547102108116107454946514656:w</title>
<path fill="none" stroke="black" stroke-dasharray="1,5" d="M648.89,-528C696.29,-528 702.68,-567.26 743.84,-573.24"/>
<polygon fill="black" stroke="black" points="753.55,-573.92 743.26,-577.71 749.78,-573.65 743.57,-573.22 743.57,-573.22 743.57,-573.22 749.78,-573.65 743.89,-568.73 753.55,-573.92"/>
</g>
<!-- choice12049494510810598115471021081161074549465146534511452 -->
<g id="node19" class="node">
<title>choice12049494510810598115471021081161074549465146534511452</title>
<g id="a_node19"><a xlink:href="../x11-libs/fltk-1.3.5-r4.svg" xlink:title="portage://x11&#45;libs/fltk&#45;1.3.5&#45;r4">
<ellipse fill="none" stroke="red" cx="900" cy="-628" rx="144" ry="18"/>
<text text-anchor="middle" x="900" y="-624.12" font-family="Helvetica,sans-Serif" font-size="10.00">portage://x11&#45;libs/fltk&#45;1.3.5&#45;r4</text>
</a>
</g>
</g>
<!-- dependency234887&#45;&gt;choice12049494510810598115471021081161074549465146534511452 -->
<g id="edge18" class="edge">
<title>dependency234887:e&#45;&gt;choice12049494510810598115471021081161074549465146534511452:w</title>
<path fill="none" stroke="black" stroke-dasharray="1,5" d="M648.89,-528C709.57,-528 692.64,-615.89 743.62,-626.88"/>
<polygon fill="black" stroke="black" points="753.55,-627.88 743.15,-631.35 749.79,-627.5 743.6,-626.88 743.6,-626.88 743.6,-626.88 749.79,-627.5 744.05,-622.4 753.55,-627.88"/>
</g>
<!-- choice12049494510810598115471081059888494945494656464948 -->
<g id="node20" class="node">
<title>choice12049494510810598115471081059888494945494656464948</title>
<g id="a_node20"><a xlink:href="../x11-libs/libX11-1.8.10.svg" xlink:title="portage://x11&#45;libs/libX11&#45;1.8.10">
<ellipse fill="none" stroke="red" cx="900" cy="-682" rx="144" ry="18"/>
<text text-anchor="middle" x="900" y="-678.12" font-family="Helvetica,sans-Serif" font-size="10.00">portage://x11&#45;libs/libX11&#45;1.8.10</text>
</a>
</g>
</g>
<!-- dependency234888&#45;&gt;choice12049494510810598115471081059888494945494656464948 -->
<g id="edge19" class="edge">
<title>dependency234888:e&#45;&gt;choice12049494510810598115471081059888494945494656464948:w</title>
<path fill="none" stroke="black" stroke-dasharray="1,5" d="M648.89,-659C693.09,-659 704.78,-678.38 743.65,-681.56"/>
<polygon fill="black" stroke="black" points="753.55,-681.95 743.38,-686.05 749.77,-681.8 743.56,-681.56 743.56,-681.56 743.56,-681.56 749.77,-681.8 743.73,-677.06 753.55,-681.95"/>
</g>
<!-- choice120494945108105981154710810598884949454946564657 -->
<g id="node21" class="node">
<title>choice120494945108105981154710810598884949454946564657</title>
<g id="a_node21"><a xlink:href="../x11-libs/libX11-1.8.9.svg" xlink:title="portage://x11&#45;libs/libX11&#45;1.8.9">
<ellipse fill="none" stroke="red" cx="900" cy="-736" rx="144" ry="18"/>
<text text-anchor="middle" x="900" y="-732.12" font-family="Helvetica,sans-Serif" font-size="10.00">portage://x11&#45;libs/libX11&#45;1.8.9</text>
</a>
</g>
</g>
<!-- dependency234888&#45;&gt;choice120494945108105981154710810598884949454946564657 -->
<g id="edge20" class="edge">
<title>dependency234888:e&#45;&gt;choice120494945108105981154710810598884949454946564657:w</title>
<path fill="none" stroke="black" stroke-dasharray="1,5" d="M648.89,-659C703.1,-659 697.69,-725.83 743.75,-734.97"/>
<polygon fill="black" stroke="black" points="753.55,-735.89 743.18,-739.44 749.79,-735.53 743.6,-734.96 743.6,-734.96 743.6,-734.96 749.79,-735.53 744.02,-730.47 753.55,-735.89"/>
</g>
<!-- choice10397109101115451121171221221081014798114971051004510498455048495348544949 -->
<g id="node22" class="node">
<title>choice10397109101115451121171221221081014798114971051004510498455048495348544949</title>
<g id="a_node22"><a xlink:href="../games-puzzle/braid-hb-20150611.svg" xlink:title="portage://games&#45;puzzle/braid&#45;hb&#45;20150611">
<ellipse fill="none" stroke="red" cx="900" cy="-790" rx="144" ry="18"/>
<text text-anchor="middle" x="900" y="-786.12" font-family="Helvetica,sans-Serif" font-size="10.00">portage://games&#45;puzzle/braid&#45;hb&#45;20150611</text>
</a>
</g>
</g>
<!-- dependency234889&#45;&gt;choice10397109101115451121171221221081014798114971051004510498455048495348544949 -->
<g id="edge21" class="edge">
<title>dependency234889:e&#45;&gt;choice10397109101115451121171221221081014798114971051004510498455048495348544949:w</title>
<path fill="none" stroke="black" stroke-dasharray="1,5" d="M648.89,-790C692.08,-790 705.54,-790 743.86,-790"/>
<polygon fill="black" stroke="black" points="753.55,-790 743.55,-794.5 749.77,-790 743.55,-790 743.55,-790 743.55,-790 749.77,-790 743.55,-785.5 753.55,-790"/>
</g>
</g>
</svg>
