<?xml version="1.0" encoding="UTF-8" standalone="no"?>
<!DOCTYPE svg PUBLIC "-//W3C//DTD SVG 1.1//EN"
 "http://www.w3.org/Graphics/SVG/1.1/DTD/svg11.dtd">
<!-- Generated by graphviz version 2.39.20160721.2101 (20160721.2101)
 -->
<!-- Title: prolog Pages: 1 -->
<svg width="1068pt" height="1034pt"
 viewBox="0.00 0.00 1068.00 1034.00" xmlns="http://www.w3.org/2000/svg" xmlns:xlink="http://www.w3.org/1999/xlink">
<g id="graph0" class="graph" transform="scale(1 1) rotate(0) translate(4 1030)">
<title>prolog</title>
<polygon fill="white" stroke="transparent" points="-4,4 -4,-1030 1064,-1030 1064,4 -4,4"/>
<g id="clust1" class="cluster">
<title>cluster_leftcol</title>
<polygon fill="none" stroke="gray" points="8,-449 8,-521 312,-521 312,-449 8,-449"/>
<text text-anchor="start" x="146.663" y="-509" font-family="Helvetica,sans-Serif" font-style="italic" font-size="10.00">ebuild</text>
</g>
<g id="clust2" class="cluster">
<title>cluster_midcol</title>
<polygon fill="none" stroke="gray" points="396,-8 396,-956 664,-956 664,-8 396,-8"/>
<text text-anchor="start" x="498.875" y="-944" font-family="Helvetica,sans-Serif" font-style="italic" font-size="10.00">dependencies</text>
</g>
<g id="clust4" class="cluster">
<title>cluster_compileandrun</title>
<polygon fill="#eeeeee" stroke="gray" points="404,-166 404,-928 656,-928 656,-166 404,-166"/>
<text text-anchor="start" x="494.437" y="-916" font-family="Helvetica,sans-Serif" font-style="italic" font-size="10.00">compile and run</text>
</g>
<g id="clust11" class="cluster">
<title>cluster_run</title>
<polygon fill="#eeeeee" stroke="gray" points="404,-16 404,-158 656,-158 656,-16 404,-16"/>
<text text-anchor="start" x="522.777" y="-146" font-family="Helvetica,sans-Serif" font-style="italic" font-size="10.00">run</text>
</g>
<g id="clust13" class="cluster">
<title>cluster_choices</title>
<polygon fill="none" stroke="gray" points="748,-136 748,-1018 1052,-1018 1052,-136 748,-136"/>
<text text-anchor="start" x="875.824" y="-1006" font-family="Helvetica,sans-Serif" font-style="italic" font-size="10.00">candidates</text>
</g>
<!-- id -->
<g id="node1" class="node">
<title>id</title>
<g id="a_node1"><a xlink:href="../games-puzzle/fbg-0.9-r1.svg" xlink:title="games&#45;puzzle/fbg&#45;0.9&#45;r1">
<ellipse fill="none" stroke="red" cx="160" cy="-475" rx="144" ry="18"/>
<text text-anchor="middle" x="160" y="-472" font-family="Helvetica,sans-Serif" font-size="10.00">games&#45;puzzle/fbg&#45;0.9&#45;r1</text>
</a>
</g>
</g>
<!-- dependency301075 -->
<g id="node2" class="node">
<title>dependency301075</title>
<polygon fill="none" stroke="blue" points="420,-798 420,-896 525,-896 525,-798 420,-798"/>
<text text-anchor="start" x="450.823" y="-844" font-family="Helvetica,sans-Serif" font-size="10.00">pack_dep</text>
<polygon fill="none" stroke="blue" points="525,-874 525,-896 635,-896 635,-874 525,-874"/>
<text text-anchor="start" x="574.441" y="-882" font-family="Helvetica,sans-Serif" font-size="10.00">no</text>
<polygon fill="none" stroke="blue" points="525,-852 525,-874 635,-874 635,-852 525,-852"/>
<text text-anchor="start" x="555.274" y="-860" font-family="Helvetica,sans-Serif" font-size="10.00">dev&#45;games</text>
<polygon fill="none" stroke="blue" points="525,-830 525,-852 635,-852 635,-830 525,-830"/>
<text text-anchor="start" x="565.552" y="-838" font-family="Helvetica,sans-Serif" font-size="10.00">physfs</text>
<polygon fill="none" stroke="blue" points="525,-808 525,-830 635,-830 635,-808 525,-808"/>
<text text-anchor="start" x="568.882" y="-816" font-family="Helvetica,sans-Serif" font-size="10.00">none</text>
<polygon fill="none" stroke="blue" points="525,-798 525,-808 635,-808 635,-798 525,-798"/>
</g>
<!-- id&#45;&gt;dependency301075 -->
<g id="edge1" class="edge">
<title>id:e&#45;&gt;dependency301075:w</title>
<path fill="none" stroke="black" d="M304,-475C469.603,-475 257.248,-819.204 394.062,-845.422"/>
<ellipse fill="none" stroke="black" cx="408.015" cy="-846.65" rx="4" ry="4"/>
<polygon fill="black" stroke="black" points="404.031,-846.299 393.675,-849.906 399.05,-845.861 394.069,-845.423 394.069,-845.423 394.069,-845.423 399.05,-845.861 394.464,-840.94 404.031,-846.299 404.031,-846.299"/>
</g>
<!-- dependency301076 -->
<g id="node3" class="node">
<title>dependency301076</title>
<polygon fill="none" stroke="blue" points="420,-674 420,-772 525,-772 525,-674 420,-674"/>
<text text-anchor="start" x="450.823" y="-720" font-family="Helvetica,sans-Serif" font-size="10.00">pack_dep</text>
<polygon fill="none" stroke="blue" points="525,-750 525,-772 635,-772 635,-750 525,-750"/>
<text text-anchor="start" x="574.441" y="-758" font-family="Helvetica,sans-Serif" font-size="10.00">no</text>
<polygon fill="none" stroke="blue" points="525,-728 525,-750 635,-750 635,-728 525,-728"/>
<text text-anchor="start" x="557.225" y="-736" font-family="Helvetica,sans-Serif" font-size="10.00">media&#45;libs</text>
<polygon fill="none" stroke="blue" points="525,-706 525,-728 635,-728 635,-706 525,-706"/>
<text text-anchor="start" x="557.504" y="-714" font-family="Helvetica,sans-Serif" font-size="10.00">libmikmod</text>
<polygon fill="none" stroke="blue" points="525,-684 525,-706 635,-706 635,-684 525,-684"/>
<text text-anchor="start" x="568.882" y="-692" font-family="Helvetica,sans-Serif" font-size="10.00">none</text>
<polygon fill="none" stroke="blue" points="525,-674 525,-684 635,-684 635,-674 525,-674"/>
</g>
<!-- id&#45;&gt;dependency301076 -->
<g id="edge2" class="edge">
<title>id:e&#45;&gt;dependency301076:w</title>
<path fill="none" stroke="black" d="M304,-475C417.411,-475 305.972,-695.702 393.912,-720.703"/>
<ellipse fill="none" stroke="black" cx="408.032" cy="-722.496" rx="4" ry="4"/>
<polygon fill="black" stroke="black" points="404.064,-721.992 393.577,-725.197 399.104,-721.362 394.143,-720.733 394.143,-720.733 394.143,-720.733 399.104,-721.362 394.71,-716.268 404.064,-721.992 404.064,-721.992"/>
</g>
<!-- dependency301077 -->
<g id="node4" class="node">
<title>dependency301077</title>
<polygon fill="none" stroke="blue" points="420,-550 420,-648 525,-648 525,-550 420,-550"/>
<text text-anchor="start" x="450.823" y="-596" font-family="Helvetica,sans-Serif" font-size="10.00">pack_dep</text>
<polygon fill="none" stroke="blue" points="525,-626 525,-648 635,-648 635,-626 525,-626"/>
<text text-anchor="start" x="574.441" y="-634" font-family="Helvetica,sans-Serif" font-size="10.00">no</text>
<polygon fill="none" stroke="blue" points="525,-604 525,-626 635,-626 635,-604 525,-604"/>
<text text-anchor="start" x="557.225" y="-612" font-family="Helvetica,sans-Serif" font-size="10.00">media&#45;libs</text>
<polygon fill="none" stroke="blue" points="525,-582 525,-604 635,-604 635,-582 525,-582"/>
<text text-anchor="start" x="568.612" y="-590" font-family="Helvetica,sans-Serif" font-size="10.00">libsdl</text>
<polygon fill="none" stroke="blue" points="525,-560 525,-582 635,-582 635,-560 525,-560"/>
<text text-anchor="start" x="568.882" y="-568" font-family="Helvetica,sans-Serif" font-size="10.00">none</text>
<polygon fill="none" stroke="blue" points="525,-550 525,-560 635,-560 635,-550 525,-550"/>
</g>
<!-- id&#45;&gt;dependency301077 -->
<g id="edge3" class="edge">
<title>id:e&#45;&gt;dependency301077:w</title>
<path fill="none" stroke="black" d="M304,-475C370.232,-475 345.095,-576.84 394.195,-595.935"/>
<ellipse fill="none" stroke="black" cx="408.058" cy="-598.321" rx="4" ry="4"/>
<polygon fill="black" stroke="black" points="404.116,-597.643 393.497,-600.381 399.188,-596.794 394.261,-595.946 394.261,-595.946 394.261,-595.946 399.188,-596.794 395.024,-591.511 404.116,-597.643 404.116,-597.643"/>
</g>
<!-- dependency301078 -->
<g id="node5" class="node">
<title>dependency301078</title>
<polygon fill="none" stroke="blue" points="420,-426 420,-524 525,-524 525,-426 420,-426"/>
<text text-anchor="start" x="450.823" y="-472" font-family="Helvetica,sans-Serif" font-size="10.00">pack_dep</text>
<polygon fill="none" stroke="blue" points="525,-502 525,-524 635,-524 635,-502 525,-502"/>
<text text-anchor="start" x="574.441" y="-510" font-family="Helvetica,sans-Serif" font-size="10.00">no</text>
<polygon fill="none" stroke="blue" points="525,-480 525,-502 635,-502 635,-480 525,-480"/>
<text text-anchor="start" x="566.668" y="-488" font-family="Helvetica,sans-Serif" font-size="10.00">virtual</text>
<polygon fill="none" stroke="blue" points="525,-458 525,-480 635,-480 635,-458 525,-458"/>
<text text-anchor="start" x="573.332" y="-466" font-family="Helvetica,sans-Serif" font-size="10.00">glu</text>
<polygon fill="none" stroke="blue" points="525,-436 525,-458 635,-458 635,-436 525,-436"/>
<text text-anchor="start" x="568.882" y="-444" font-family="Helvetica,sans-Serif" font-size="10.00">none</text>
<polygon fill="none" stroke="blue" points="525,-426 525,-436 635,-436 635,-426 525,-426"/>
</g>
<!-- id&#45;&gt;dependency301078 -->
<g id="edge4" class="edge">
<title>id:e&#45;&gt;dependency301078:w</title>
<path fill="none" stroke="black" d="M304,-475C345.25,-475 359.913,-475 393.686,-475"/>
<ellipse fill="none" stroke="black" cx="408" cy="-475" rx="4" ry="4"/>
<polygon fill="black" stroke="black" points="404,-475 394,-479.5 399,-475 394,-475 394,-475 394,-475 399,-475 394,-470.5 404,-475 404,-475"/>
</g>
<!-- dependency301079 -->
<g id="node6" class="node">
<title>dependency301079</title>
<polygon fill="none" stroke="blue" points="420,-302 420,-400 525,-400 525,-302 420,-302"/>
<text text-anchor="start" x="450.823" y="-348" font-family="Helvetica,sans-Serif" font-size="10.00">pack_dep</text>
<polygon fill="none" stroke="blue" points="525,-378 525,-400 635,-400 635,-378 525,-378"/>
<text text-anchor="start" x="574.441" y="-386" font-family="Helvetica,sans-Serif" font-size="10.00">no</text>
<polygon fill="none" stroke="blue" points="525,-356 525,-378 635,-378 635,-356 525,-356"/>
<text text-anchor="start" x="566.668" y="-364" font-family="Helvetica,sans-Serif" font-size="10.00">virtual</text>
<polygon fill="none" stroke="blue" points="525,-334 525,-356 635,-356 635,-334 525,-334"/>
<text text-anchor="start" x="564.993" y="-342" font-family="Helvetica,sans-Serif" font-size="10.00">opengl</text>
<polygon fill="none" stroke="blue" points="525,-312 525,-334 635,-334 635,-312 525,-312"/>
<text text-anchor="start" x="568.882" y="-320" font-family="Helvetica,sans-Serif" font-size="10.00">none</text>
<polygon fill="none" stroke="blue" points="525,-302 525,-312 635,-312 635,-302 525,-302"/>
</g>
<!-- id&#45;&gt;dependency301079 -->
<g id="edge5" class="edge">
<title>id:e&#45;&gt;dependency301079:w</title>
<path fill="none" stroke="black" d="M304,-475C370.232,-475 345.095,-373.16 394.195,-354.065"/>
<ellipse fill="none" stroke="black" cx="408.058" cy="-351.679" rx="4" ry="4"/>
<polygon fill="black" stroke="black" points="404.116,-352.357 395.024,-358.489 399.188,-353.206 394.261,-354.054 394.261,-354.054 394.261,-354.054 399.188,-353.206 393.497,-349.619 404.116,-352.357 404.116,-352.357"/>
</g>
<!-- dependency301080 -->
<g id="node7" class="node">
<title>dependency301080</title>
<polygon fill="none" stroke="blue" points="420,-178 420,-276 525,-276 525,-178 420,-178"/>
<text text-anchor="start" x="450.823" y="-224" font-family="Helvetica,sans-Serif" font-size="10.00">pack_dep</text>
<polygon fill="none" stroke="blue" points="525,-254 525,-276 635,-276 635,-254 525,-254"/>
<text text-anchor="start" x="574.441" y="-262" font-family="Helvetica,sans-Serif" font-size="10.00">no</text>
<polygon fill="none" stroke="blue" points="525,-232 525,-254 635,-254 635,-232 525,-232"/>
<text text-anchor="start" x="562.778" y="-240" font-family="Helvetica,sans-Serif" font-size="10.00">x11&#45;libs</text>
<polygon fill="none" stroke="blue" points="525,-210 525,-232 635,-232 635,-210 525,-210"/>
<text text-anchor="start" x="570.278" y="-218" font-family="Helvetica,sans-Serif" font-size="10.00">libXt</text>
<polygon fill="none" stroke="blue" points="525,-188 525,-210 635,-210 635,-188 525,-188"/>
<text text-anchor="start" x="568.882" y="-196" font-family="Helvetica,sans-Serif" font-size="10.00">none</text>
<polygon fill="none" stroke="blue" points="525,-178 525,-188 635,-188 635,-178 525,-178"/>
</g>
<!-- id&#45;&gt;dependency301080 -->
<g id="edge6" class="edge">
<title>id:e&#45;&gt;dependency301080:w</title>
<path fill="none" stroke="black" d="M304,-475C417.411,-475 305.972,-254.298 393.912,-229.297"/>
<ellipse fill="none" stroke="black" cx="408.032" cy="-227.504" rx="4" ry="4"/>
<polygon fill="black" stroke="black" points="404.064,-228.008 394.71,-233.732 399.104,-228.638 394.143,-229.267 394.143,-229.267 394.143,-229.267 399.104,-228.638 393.577,-224.803 404.064,-228.008 404.064,-228.008"/>
</g>
<!-- dependency301081 -->
<g id="node8" class="node">
<title>dependency301081</title>
<polygon fill="none" stroke="blue" points="420,-28 420,-126 525,-126 525,-28 420,-28"/>
<text text-anchor="start" x="450.823" y="-74" font-family="Helvetica,sans-Serif" font-size="10.00">pack_dep</text>
<polygon fill="none" stroke="blue" points="525,-104 525,-126 635,-126 635,-104 525,-104"/>
<text text-anchor="start" x="574.441" y="-112" font-family="Helvetica,sans-Serif" font-size="10.00">no</text>
<polygon fill="none" stroke="blue" points="525,-82 525,-104 635,-104 635,-82 525,-82"/>
<text text-anchor="start" x="553.058" y="-90" font-family="Helvetica,sans-Serif" font-size="10.00">games&#45;misc</text>
<polygon fill="none" stroke="blue" points="525,-60 525,-82 635,-82 635,-60 525,-60"/>
<text text-anchor="start" x="552.494" y="-68" font-family="Helvetica,sans-Serif" font-size="10.00">games&#45;envd</text>
<polygon fill="none" stroke="blue" points="525,-38 525,-60 635,-60 635,-38 525,-38"/>
<text text-anchor="start" x="568.882" y="-46" font-family="Helvetica,sans-Serif" font-size="10.00">none</text>
<polygon fill="none" stroke="blue" points="525,-28 525,-38 635,-38 635,-28 525,-28"/>
</g>
<!-- id&#45;&gt;dependency301081 -->
<g id="edge7" class="edge">
<title>id:e&#45;&gt;dependency301081:w</title>
<path fill="none" stroke="black" d="M304,-475C484.511,-475 236.441,-88.9576 403.978,-77.2708"/>
<ellipse fill="none" stroke="black" cx="408.002" cy="-77.135" rx="4" ry="4"/>
</g>
<!-- choice1001011184510397109101115471121041211151021154550464846514511450 -->
<g id="node9" class="node">
<title>choice1001011184510397109101115471121041211151021154550464846514511450</title>
<g id="a_node9"><a xlink:href="../dev-games/physfs-2.0.3-r2.svg" xlink:title="dev&#45;games/physfs&#45;2.0.3&#45;r2">
<ellipse fill="none" stroke="red" cx="900" cy="-972" rx="144" ry="18"/>
<text text-anchor="middle" x="900" y="-969" font-family="Helvetica,sans-Serif" font-size="10.00">dev&#45;games/physfs&#45;2.0.3&#45;r2</text>
</a>
</g>
</g>
<!-- dependency301075&#45;&gt;choice1001011184510397109101115471121041211151021154550464846514511450 -->
<g id="edge8" class="edge">
<title>dependency301075:e&#45;&gt;choice1001011184510397109101115471121041211151021154550464846514511450:w</title>
<path fill="none" stroke="black" stroke-dasharray="1,5" d="M648,-847C717.835,-847 686.106,-960.091 746.022,-971.135"/>
<polygon fill="black" stroke="black" points="756,-972 745.649,-975.619 751.019,-971.568 746.037,-971.136 746.037,-971.136 746.037,-971.136 751.019,-971.568 746.426,-966.653 756,-972 756,-972"/>
</g>
<!-- choice100101118451039710910111547112104121115102115455146484648 -->
<g id="node10" class="node">
<title>choice100101118451039710910111547112104121115102115455146484648</title>
<g id="a_node10"><a xlink:href="../dev-games/physfs-3.0.0.svg" xlink:title="dev&#45;games/physfs&#45;3.0.0">
<ellipse fill="none" stroke="red" cx="900" cy="-918" rx="144" ry="18"/>
<text text-anchor="middle" x="900" y="-915" font-family="Helvetica,sans-Serif" font-size="10.00">dev&#45;games/physfs&#45;3.0.0</text>
</a>
</g>
</g>
<!-- dependency301075&#45;&gt;choice100101118451039710910111547112104121115102115455146484648 -->
<g id="edge9" class="edge">
<title>dependency301075:e&#45;&gt;choice100101118451039710910111547112104121115102115455146484648:w</title>
<path fill="none" stroke="black" stroke-dasharray="1,5" d="M648,-847C701.853,-847 699.166,-909.402 745.952,-917.203"/>
<polygon fill="black" stroke="black" points="756,-918 745.675,-921.695 751.016,-917.604 746.031,-917.209 746.031,-917.209 746.031,-917.209 751.016,-917.604 746.387,-912.723 756,-918 756,-918"/>
</g>
<!-- choice100101118451039710910111547112104121115102115455146484649 -->
<g id="node11" class="node">
<title>choice100101118451039710910111547112104121115102115455146484649</title>
<g id="a_node11"><a xlink:href="../dev-games/physfs-3.0.1.svg" xlink:title="dev&#45;games/physfs&#45;3.0.1">
<ellipse fill="none" stroke="red" cx="900" cy="-864" rx="144" ry="18"/>
<text text-anchor="middle" x="900" y="-861" font-family="Helvetica,sans-Serif" font-size="10.00">dev&#45;games/physfs&#45;3.0.1</text>
</a>
</g>
</g>
<!-- dependency301075&#45;&gt;choice100101118451039710910111547112104121115102115455146484649 -->
<g id="edge10" class="edge">
<title>dependency301075:e&#45;&gt;choice100101118451039710910111547112104121115102115455146484649:w</title>
<path fill="none" stroke="black" stroke-dasharray="1,5" d="M648,-847C692.985,-847 705.595,-861.57 745.774,-863.733"/>
<polygon fill="black" stroke="black" points="756,-864 745.886,-868.237 751.002,-863.869 746.003,-863.739 746.003,-863.739 746.003,-863.739 751.002,-863.869 746.121,-859.24 756,-864 756,-864"/>
</g>
<!-- choice1001011184510397109101115471121041211151021154557575757 -->
<g id="node12" class="node">
<title>choice1001011184510397109101115471121041211151021154557575757</title>
<g id="a_node12"><a xlink:href="../dev-games/physfs-9999.svg" xlink:title="dev&#45;games/physfs&#45;9999">
<ellipse fill="none" stroke="red" cx="900" cy="-810" rx="144" ry="18"/>
<text text-anchor="middle" x="900" y="-807" font-family="Helvetica,sans-Serif" font-size="10.00">dev&#45;games/physfs&#45;9999</text>
</a>
</g>
</g>
<!-- dependency301075&#45;&gt;choice1001011184510397109101115471121041211151021154557575757 -->
<g id="edge11" class="edge">
<title>dependency301075:e&#45;&gt;choice1001011184510397109101115471121041211151021154557575757:w</title>
<path fill="none" stroke="black" stroke-dasharray="1,5" d="M648,-847C695.171,-847 704.125,-815.02 745.922,-810.523"/>
<polygon fill="black" stroke="black" points="756,-810 746.247,-815.012 751.007,-810.259 746.013,-810.518 746.013,-810.518 746.013,-810.518 751.007,-810.259 745.78,-806.024 756,-810 756,-810"/>
</g>
<!-- choice109101100105974510810598115471081059810910510710911110045514651464948 -->
<g id="node13" class="node">
<title>choice109101100105974510810598115471081059810910510710911110045514651464948</title>
<g id="a_node13"><a xlink:href="../media-libs/libmikmod-3.3.10.svg" xlink:title="media&#45;libs/libmikmod&#45;3.3.10">
<ellipse fill="none" stroke="red" cx="900" cy="-756" rx="144" ry="18"/>
<text text-anchor="middle" x="900" y="-753" font-family="Helvetica,sans-Serif" font-size="10.00">media&#45;libs/libmikmod&#45;3.3.10</text>
</a>
</g>
</g>
<!-- dependency301076&#45;&gt;choice109101100105974510810598115471081059810910510710911110045514651464948 -->
<g id="edge12" class="edge">
<title>dependency301076:e&#45;&gt;choice109101100105974510810598115471081059810910510710911110045514651464948:w</title>
<path fill="none" stroke="black" stroke-dasharray="1,5" d="M648,-723C694.564,-723 704.486,-751.403 745.754,-755.508"/>
<polygon fill="black" stroke="black" points="756,-756 745.796,-760.015 751.006,-755.76 746.012,-755.52 746.012,-755.52 746.012,-755.52 751.006,-755.76 746.227,-751.025 756,-756 756,-756"/>
</g>
<!-- choice109101100105974510810598115471081059810910510710911110045514651464949 -->
<g id="node14" class="node">
<title>choice109101100105974510810598115471081059810910510710911110045514651464949</title>
<g id="a_node14"><a xlink:href="../media-libs/libmikmod-3.3.11.svg" xlink:title="media&#45;libs/libmikmod&#45;3.3.11">
<ellipse fill="none" stroke="red" cx="900" cy="-702" rx="144" ry="18"/>
<text text-anchor="middle" x="900" y="-699" font-family="Helvetica,sans-Serif" font-size="10.00">media&#45;libs/libmikmod&#45;3.3.11</text>
</a>
</g>
</g>
<!-- dependency301076&#45;&gt;choice109101100105974510810598115471081059810910510710911110045514651464949 -->
<g id="edge13" class="edge">
<title>dependency301076:e&#45;&gt;choice109101100105974510810598115471081059810910510710911110045514651464949:w</title>
<path fill="none" stroke="black" stroke-dasharray="1,5" d="M648,-723C693.365,-723 705.424,-704.925 745.976,-702.313"/>
<polygon fill="black" stroke="black" points="756,-702 746.145,-706.81 751.002,-702.156 746.005,-702.312 746.005,-702.312 746.005,-702.312 751.002,-702.156 745.864,-697.815 756,-702 756,-702"/>
</g>
<!-- choice1091011001059745108105981154710810598109105107109111100455146514649494649 -->
<g id="node15" class="node">
<title>choice1091011001059745108105981154710810598109105107109111100455146514649494649</title>
<g id="a_node15"><a xlink:href="../media-libs/libmikmod-3.3.11.1.svg" xlink:title="media&#45;libs/libmikmod&#45;3.3.11.1">
<ellipse fill="none" stroke="red" cx="900" cy="-648" rx="144" ry="18"/>
<text text-anchor="middle" x="900" y="-645" font-family="Helvetica,sans-Serif" font-size="10.00">media&#45;libs/libmikmod&#45;3.3.11.1</text>
</a>
</g>
</g>
<!-- dependency301076&#45;&gt;choice1091011001059745108105981154710810598109105107109111100455146514649494649 -->
<g id="edge14" class="edge">
<title>dependency301076:e&#45;&gt;choice1091011001059745108105981154710810598109105107109111100455146514649494649:w</title>
<path fill="none" stroke="black" stroke-dasharray="1,5" d="M648,-723C702.787,-723 698.408,-657.082 745.799,-648.842"/>
<polygon fill="black" stroke="black" points="756,-648 746.404,-653.308 751.017,-648.411 746.034,-648.823 746.034,-648.823 746.034,-648.823 751.017,-648.411 745.664,-644.338 756,-648 756,-648"/>
</g>
<!-- choice1091011001059745108105981154710810598109105107109111100455146514656 -->
<g id="node16" class="node">
<title>choice1091011001059745108105981154710810598109105107109111100455146514656</title>
<g id="a_node16"><a xlink:href="../media-libs/libmikmod-3.3.8.svg" xlink:title="media&#45;libs/libmikmod&#45;3.3.8">
<ellipse fill="none" stroke="red" cx="900" cy="-594" rx="144" ry="18"/>
<text text-anchor="middle" x="900" y="-591" font-family="Helvetica,sans-Serif" font-size="10.00">media&#45;libs/libmikmod&#45;3.3.8</text>
</a>
</g>
</g>
<!-- dependency301076&#45;&gt;choice1091011001059745108105981154710810598109105107109111100455146514656 -->
<g id="edge15" class="edge">
<title>dependency301076:e&#45;&gt;choice1091011001059745108105981154710810598109105107109111100455146514656:w</title>
<path fill="none" stroke="black" stroke-dasharray="1,5" d="M648,-723C719.123,-723 685.006,-606.29 745.852,-594.893"/>
<polygon fill="black" stroke="black" points="756,-594 746.433,-599.359 751.019,-594.438 746.038,-594.876 746.038,-594.876 746.038,-594.876 751.019,-594.438 745.644,-590.394 756,-594 756,-594"/>
</g>
<!-- choice1091011001059745108105981154710810598115100108454946504649534511457 -->
<g id="node17" class="node">
<title>choice1091011001059745108105981154710810598115100108454946504649534511457</title>
<g id="a_node17"><a xlink:href="../media-libs/libsdl-1.2.15-r9.svg" xlink:title="media&#45;libs/libsdl&#45;1.2.15&#45;r9">
<ellipse fill="none" stroke="red" cx="900" cy="-540" rx="144" ry="18"/>
<text text-anchor="middle" x="900" y="-537" font-family="Helvetica,sans-Serif" font-size="10.00">media&#45;libs/libsdl&#45;1.2.15&#45;r9</text>
</a>
</g>
</g>
<!-- dependency301077&#45;&gt;choice1091011001059745108105981154710810598115100108454946504649534511457 -->
<g id="edge16" class="edge">
<title>dependency301077:e&#45;&gt;choice1091011001059745108105981154710810598115100108454946504649534511457:w</title>
<path fill="none" stroke="black" stroke-dasharray="1,5" d="M648,-599C699.063,-599 701.242,-547.576 745.813,-540.746"/>
<polygon fill="black" stroke="black" points="756,-540 746.355,-545.218 751.013,-540.365 746.027,-540.73 746.027,-540.73 746.027,-540.73 751.013,-540.365 745.698,-536.242 756,-540 756,-540"/>
</g>
<!-- choice118105114116117971084710310811745574648 -->
<g id="node18" class="node">
<title>choice118105114116117971084710310811745574648</title>
<g id="a_node18"><a xlink:href="../virtual/glu-9.0.svg" xlink:title="virtual/glu&#45;9.0">
<ellipse fill="none" stroke="red" cx="900" cy="-486" rx="144" ry="18"/>
<text text-anchor="middle" x="900" y="-483" font-family="Helvetica,sans-Serif" font-size="10.00">virtual/glu&#45;9.0</text>
</a>
</g>
</g>
<!-- dependency301078&#45;&gt;choice118105114116117971084710310811745574648 -->
<g id="edge17" class="edge">
<title>dependency301078:e&#45;&gt;choice118105114116117971084710310811745574648:w</title>
<path fill="none" stroke="black" stroke-dasharray="1,5" d="M648,-475C692.667,-475 705.842,-484.428 745.834,-485.827"/>
<polygon fill="black" stroke="black" points="756,-486 745.925,-490.329 751.001,-485.915 746.001,-485.83 746.001,-485.83 746.001,-485.83 751.001,-485.915 746.078,-481.331 756,-486 756,-486"/>
</g>
<!-- choice1181051141161179710847103108117455746484511449 -->
<g id="node19" class="node">
<title>choice1181051141161179710847103108117455746484511449</title>
<g id="a_node19"><a xlink:href="../virtual/glu-9.0-r1.svg" xlink:title="virtual/glu&#45;9.0&#45;r1">
<ellipse fill="none" stroke="red" cx="900" cy="-432" rx="144" ry="18"/>
<text text-anchor="middle" x="900" y="-429" font-family="Helvetica,sans-Serif" font-size="10.00">virtual/glu&#45;9.0&#45;r1</text>
</a>
</g>
</g>
<!-- dependency301078&#45;&gt;choice1181051141161179710847103108117455746484511449 -->
<g id="edge18" class="edge">
<title>dependency301078:e&#45;&gt;choice1181051141161179710847103108117455746484511449:w</title>
<path fill="none" stroke="black" stroke-dasharray="1,5" d="M648,-475C696.032,-475 703.446,-437.834 745.766,-432.608"/>
<polygon fill="black" stroke="black" points="756,-432 746.284,-437.085 751.009,-432.297 746.018,-432.593 746.018,-432.593 746.018,-432.593 751.009,-432.297 745.751,-428.101 756,-432 756,-432"/>
</g>
<!-- choice118105114116117971084711111210111010310845554648 -->
<g id="node20" class="node">
<title>choice118105114116117971084711111210111010310845554648</title>
<g id="a_node20"><a xlink:href="../virtual/opengl-7.0.svg" xlink:title="virtual/opengl&#45;7.0">
<ellipse fill="none" stroke="red" cx="900" cy="-378" rx="144" ry="18"/>
<text text-anchor="middle" x="900" y="-375" font-family="Helvetica,sans-Serif" font-size="10.00">virtual/opengl&#45;7.0</text>
</a>
</g>
</g>
<!-- dependency301079&#45;&gt;choice118105114116117971084711111210111010310845554648 -->
<g id="edge19" class="edge">
<title>dependency301079:e&#45;&gt;choice118105114116117971084711111210111010310845554648:w</title>
<path fill="none" stroke="black" stroke-dasharray="1,5" d="M648,-351C693.902,-351 705.004,-374.239 745.876,-377.597"/>
<polygon fill="black" stroke="black" points="756,-378 745.829,-382.099 751.004,-377.801 746.008,-377.603 746.008,-377.603 746.008,-377.603 751.004,-377.801 746.187,-373.106 756,-378 756,-378"/>
</g>
<!-- choice1181051141161179710847111112101110103108455546484511449 -->
<g id="node21" class="node">
<title>choice1181051141161179710847111112101110103108455546484511449</title>
<g id="a_node21"><a xlink:href="../virtual/opengl-7.0-r1.svg" xlink:title="virtual/opengl&#45;7.0&#45;r1">
<ellipse fill="none" stroke="red" cx="900" cy="-324" rx="144" ry="18"/>
<text text-anchor="middle" x="900" y="-321" font-family="Helvetica,sans-Serif" font-size="10.00">virtual/opengl&#45;7.0&#45;r1</text>
</a>
</g>
</g>
<!-- dependency301079&#45;&gt;choice1181051141161179710847111112101110103108455546484511449 -->
<g id="edge20" class="edge">
<title>dependency301079:e&#45;&gt;choice1181051141161179710847111112101110103108455546484511449:w</title>
<path fill="none" stroke="black" stroke-dasharray="1,5" d="M648,-351C693.902,-351 705.004,-327.761 745.876,-324.403"/>
<polygon fill="black" stroke="black" points="756,-324 746.187,-328.894 751.004,-324.199 746.008,-324.397 746.008,-324.397 746.008,-324.397 751.004,-324.199 745.829,-319.901 756,-324 756,-324"/>
</g>
<!-- choice12049494510810598115471081059888116454946494652 -->
<g id="node22" class="node">
<title>choice12049494510810598115471081059888116454946494652</title>
<g id="a_node22"><a xlink:href="../x11-libs/libXt-1.1.4.svg" xlink:title="x11&#45;libs/libXt&#45;1.1.4">
<ellipse fill="none" stroke="red" cx="900" cy="-270" rx="144" ry="18"/>
<text text-anchor="middle" x="900" y="-267" font-family="Helvetica,sans-Serif" font-size="10.00">x11&#45;libs/libXt&#45;1.1.4</text>
</a>
</g>
</g>
<!-- dependency301080&#45;&gt;choice12049494510810598115471081059888116454946494652 -->
<g id="edge21" class="edge">
<title>dependency301080:e&#45;&gt;choice12049494510810598115471081059888116454946494652:w</title>
<path fill="none" stroke="black" stroke-dasharray="1,5" d="M648,-227C696.032,-227 703.446,-264.166 745.766,-269.392"/>
<polygon fill="black" stroke="black" points="756,-270 745.751,-273.899 751.009,-269.703 746.018,-269.407 746.018,-269.407 746.018,-269.407 751.009,-269.703 746.284,-264.915 756,-270 756,-270"/>
</g>
<!-- choice12049494510810598115471081059888116454946494653 -->
<g id="node23" class="node">
<title>choice12049494510810598115471081059888116454946494653</title>
<g id="a_node23"><a xlink:href="../x11-libs/libXt-1.1.5.svg" xlink:title="x11&#45;libs/libXt&#45;1.1.5">
<ellipse fill="none" stroke="red" cx="900" cy="-216" rx="144" ry="18"/>
<text text-anchor="middle" x="900" y="-213" font-family="Helvetica,sans-Serif" font-size="10.00">x11&#45;libs/libXt&#45;1.1.5</text>
</a>
</g>
</g>
<!-- dependency301080&#45;&gt;choice12049494510810598115471081059888116454946494653 -->
<g id="edge22" class="edge">
<title>dependency301080:e&#45;&gt;choice12049494510810598115471081059888116454946494653:w</title>
<path fill="none" stroke="black" stroke-dasharray="1,5" d="M648,-227C692.667,-227 705.842,-217.572 745.834,-216.173"/>
<polygon fill="black" stroke="black" points="756,-216 746.078,-220.669 751.001,-216.085 746.001,-216.17 746.001,-216.17 746.001,-216.17 751.001,-216.085 745.925,-211.671 756,-216 756,-216"/>
</g>
<!-- choice1039710910111545109105115994710397109101115451011101181004548 -->
<g id="node24" class="node">
<title>choice1039710910111545109105115994710397109101115451011101181004548</title>
<g id="a_node24"><a xlink:href="../games-misc/games-envd-0.svg" xlink:title="games&#45;misc/games&#45;envd&#45;0">
<ellipse fill="none" stroke="red" cx="900" cy="-162" rx="144" ry="18"/>
<text text-anchor="middle" x="900" y="-159" font-family="Helvetica,sans-Serif" font-size="10.00">games&#45;misc/games&#45;envd&#45;0</text>
</a>
</g>
</g>
<!-- dependency301081&#45;&gt;choice1039710910111545109105115994710397109101115451011101181004548 -->
<g id="edge23" class="edge">
<title>dependency301081:e&#45;&gt;choice1039710910111545109105115994710397109101115451011101181004548:w</title>
<path fill="none" stroke="black" stroke-dasharray="1,5" d="M648,-77C705.504,-77 696.319,-152.331 746.007,-161.159"/>
<polygon fill="black" stroke="black" points="756,-162 745.658,-165.645 751.018,-161.58 746.035,-161.161 746.035,-161.161 746.035,-161.161 751.018,-161.58 746.413,-156.677 756,-162 756,-162"/>
</g>
</g>
</svg>
