<?xml version="1.0" encoding="UTF-8" standalone="no"?>
<!DOCTYPE svg PUBLIC "-//W3C//DTD SVG 1.1//EN"
 "http://www.w3.org/Graphics/SVG/1.1/DTD/svg11.dtd">
<!-- Generated by graphviz version 2.41.20171026.1811 (20171026.1811)
 -->
<!-- Title: prolog Pages: 1 -->
<svg width="1360pt" height="1498pt"
 viewBox="0.00 0.00 1360.00 1498.00" xmlns="http://www.w3.org/2000/svg" xmlns:xlink="http://www.w3.org/1999/xlink">
<g id="graph0" class="graph" transform="scale(1 1) rotate(0) translate(4 1494)">
<title>prolog</title>
<polygon fill="white" stroke="transparent" points="-4,4 -4,-1494 1356,-1494 1356,4 -4,4"/>
<g id="clust1" class="cluster">
<title>cluster_leftcol</title>
<polygon fill="none" stroke="gray" points="8,-600 8,-670 312,-670 312,-600 8,-600"/>
<text text-anchor="start" x="146.66" y="-659" font-family="Helvetica,sans-Serif" font-style="italic" font-size="10.00">ebuild</text>
</g>
<g id="clust2" class="cluster">
<title>cluster_midcol</title>
<polygon fill="none" stroke="gray" points="396,-15 396,-1269 956,-1269 956,-15 396,-15"/>
<text text-anchor="start" x="644.86" y="-1258" font-family="Helvetica,sans-Serif" font-style="italic" font-size="10.00">dependencies</text>
</g>
<g id="clust5" class="cluster">
<title>cluster_run</title>
<polygon fill="#eeeeee" stroke="gray" points="404,-23 404,-1243 948,-1243 948,-23 404,-23"/>
<text text-anchor="start" x="668.77" y="-1232" font-family="Helvetica,sans-Serif" font-style="italic" font-size="10.00">run</text>
</g>
<g id="clust14" class="cluster">
<title>cluster_choices</title>
<polygon fill="none" stroke="gray" points="1040,-8 1040,-1482 1344,-1482 1344,-8 1040,-8"/>
<text text-anchor="start" x="1167.82" y="-1471" font-family="Helvetica,sans-Serif" font-style="italic" font-size="10.00">candidates</text>
</g>
<!-- id -->
<g id="node1" class="node">
<title>id</title>
<g id="a_node1"><a xlink:href="../app-crypt/sgeps-0_pre15.svg" xlink:title="app&#45;crypt/sgeps&#45;0_pre15">
<ellipse fill="none" stroke="red" cx="160" cy="-626" rx="144" ry="18"/>
<text text-anchor="middle" x="160" y="-623" font-family="Helvetica,sans-Serif" font-size="10.00">app&#45;crypt/sgeps&#45;0_pre15</text>
</a>
</g>
</g>
<!-- dependency13868 -->
<g id="node2" class="node">
<title>dependency13868</title>
<polygon fill="none" stroke="red" points="420,-804 420,-844 511,-844 511,-804 420,-804"/>
<text text-anchor="start" x="430.75" y="-821" font-family="Helvetica,sans-Serif" font-size="10.00">use_conditional</text>
<polygon fill="none" stroke="red" points="511,-824 511,-844 588,-844 588,-824 511,-824"/>
<text text-anchor="start" x="532.55" y="-831" font-family="Helvetica,sans-Serif" font-size="10.00">positive</text>
<polygon fill="none" stroke="red" points="511,-804 511,-824 588,-824 588,-804 511,-804"/>
<text text-anchor="start" x="515.87" y="-811" font-family="Helvetica,sans-Serif" font-size="10.00">zsh&#45;completion</text>
</g>
<!-- id&#45;&gt;dependency13868 -->
<g id="edge2" class="edge">
<title>id:e&#45;&gt;dependency13868:w</title>
<path fill="none" stroke="black" d="M305,-626C401.99,-626 316.33,-812.94 402.98,-823.53"/>
<ellipse fill="none" stroke="black" cx="407.01" cy="-823.77" rx="4" ry="4"/>
</g>
<!-- dependency13870 -->
<g id="node4" class="node">
<title>dependency13870</title>
<polygon fill="none" stroke="blue" points="712,-853 712,-943 817,-943 817,-853 712,-853"/>
<text text-anchor="start" x="742.82" y="-895" font-family="Helvetica,sans-Serif" font-size="10.00">pack_dep</text>
<polygon fill="none" stroke="blue" points="817,-923 817,-943 927,-943 927,-923 817,-923"/>
<text text-anchor="start" x="866.44" y="-930" font-family="Helvetica,sans-Serif" font-size="10.00">no</text>
<polygon fill="none" stroke="blue" points="817,-903 817,-923 927,-923 927,-903 817,-903"/>
<text text-anchor="start" x="851.16" y="-910" font-family="Helvetica,sans-Serif" font-size="10.00">app&#45;crypt</text>
<polygon fill="none" stroke="blue" points="817,-883 817,-903 927,-903 927,-883 817,-883"/>
<text text-anchor="start" x="858.1" y="-890" font-family="Helvetica,sans-Serif" font-size="10.00">gnupg</text>
<polygon fill="none" stroke="blue" points="817,-863 817,-883 927,-883 927,-863 817,-863"/>
<text text-anchor="start" x="860.88" y="-870" font-family="Helvetica,sans-Serif" font-size="10.00">none</text>
<polygon fill="none" stroke="blue" points="817,-853 817,-863 927,-863 927,-853 817,-853"/>
</g>
<!-- id&#45;&gt;dependency13870 -->
<g id="edge3" class="edge">
<title>id:e&#45;&gt;dependency13870:w</title>
<path fill="none" stroke="black" d="M505,-428C719.72,-363.94 483.08,-885.03 695.9,-897.76"/>
<ellipse fill="none" stroke="black" cx="700" cy="-897.88" rx="4" ry="4"/>
</g>
<!-- dependency13871 -->
<g id="node5" class="node">
<title>dependency13871</title>
<polygon fill="none" stroke="blue" points="712,-499 712,-589 817,-589 817,-499 712,-499"/>
<text text-anchor="start" x="742.82" y="-541" font-family="Helvetica,sans-Serif" font-size="10.00">pack_dep</text>
<polygon fill="none" stroke="blue" points="817,-569 817,-589 927,-589 927,-569 817,-569"/>
<text text-anchor="start" x="866.44" y="-576" font-family="Helvetica,sans-Serif" font-size="10.00">no</text>
<polygon fill="none" stroke="blue" points="817,-549 817,-569 927,-569 927,-549 817,-549"/>
<text text-anchor="start" x="852.82" y="-556" font-family="Helvetica,sans-Serif" font-size="10.00">dev&#45;lang</text>
<polygon fill="none" stroke="blue" points="817,-529 817,-549 927,-549 927,-529 817,-529"/>
<text text-anchor="start" x="863.66" y="-536" font-family="Helvetica,sans-Serif" font-size="10.00">perl</text>
<polygon fill="none" stroke="blue" points="817,-509 817,-529 927,-529 927,-509 817,-509"/>
<text text-anchor="start" x="860.88" y="-516" font-family="Helvetica,sans-Serif" font-size="10.00">none</text>
<polygon fill="none" stroke="blue" points="817,-499 817,-509 927,-509 927,-499 817,-499"/>
</g>
<!-- id&#45;&gt;dependency13871 -->
<g id="edge4" class="edge">
<title>id:e&#45;&gt;dependency13871:w</title>
<path fill="none" stroke="black" d="M505,-428C600.42,-399.53 601.63,-536.19 695.83,-543.68"/>
<ellipse fill="none" stroke="black" cx="700" cy="-543.84" rx="4" ry="4"/>
</g>
<!-- dependency13872 -->
<g id="node6" class="node">
<title>dependency13872</title>
<polygon fill="none" stroke="blue" points="712,-383 712,-473 817,-473 817,-383 712,-383"/>
<text text-anchor="start" x="742.82" y="-425" font-family="Helvetica,sans-Serif" font-size="10.00">pack_dep</text>
<polygon fill="none" stroke="blue" points="817,-453 817,-473 927,-473 927,-453 817,-453"/>
<text text-anchor="start" x="866.44" y="-460" font-family="Helvetica,sans-Serif" font-size="10.00">no</text>
<polygon fill="none" stroke="blue" points="817,-433 817,-453 927,-453 927,-433 817,-433"/>
<text text-anchor="start" x="853.94" y="-440" font-family="Helvetica,sans-Serif" font-size="10.00">dev&#45;perl</text>
<polygon fill="none" stroke="blue" points="817,-413 817,-433 927,-433 927,-413 817,-413"/>
<text text-anchor="start" x="840.6" y="-420" font-family="Helvetica,sans-Serif" font-size="10.00">Config&#45;Simple</text>
<polygon fill="none" stroke="blue" points="817,-393 817,-413 927,-413 927,-393 817,-393"/>
<text text-anchor="start" x="860.88" y="-400" font-family="Helvetica,sans-Serif" font-size="10.00">none</text>
<polygon fill="none" stroke="blue" points="817,-383 817,-393 927,-393 927,-383 817,-383"/>
</g>
<!-- id&#45;&gt;dependency13872 -->
<g id="edge5" class="edge">
<title>id:e&#45;&gt;dependency13872:w</title>
<path fill="none" stroke="black" d="M505,-428C587.1,-403.51 613.89,-426.47 695.89,-427.93"/>
<ellipse fill="none" stroke="black" cx="700" cy="-427.96" rx="4" ry="4"/>
</g>
<!-- dependency13873 -->
<g id="node7" class="node">
<title>dependency13873</title>
<polygon fill="none" stroke="blue" points="712,-267 712,-357 817,-357 817,-267 712,-267"/>
<text text-anchor="start" x="742.82" y="-309" font-family="Helvetica,sans-Serif" font-size="10.00">pack_dep</text>
<polygon fill="none" stroke="blue" points="817,-337 817,-357 927,-357 927,-337 817,-337"/>
<text text-anchor="start" x="866.44" y="-344" font-family="Helvetica,sans-Serif" font-size="10.00">no</text>
<polygon fill="none" stroke="blue" points="817,-317 817,-337 927,-337 927,-317 817,-317"/>
<text text-anchor="start" x="858.66" y="-324" font-family="Helvetica,sans-Serif" font-size="10.00">virtual</text>
<polygon fill="none" stroke="blue" points="817,-297 817,-317 927,-317 927,-297 817,-297"/>
<text text-anchor="start" x="840.05" y="-304" font-family="Helvetica,sans-Serif" font-size="10.00">perl&#45;File&#45;Temp</text>
<polygon fill="none" stroke="blue" points="817,-277 817,-297 927,-297 927,-277 817,-277"/>
<text text-anchor="start" x="860.88" y="-284" font-family="Helvetica,sans-Serif" font-size="10.00">none</text>
<polygon fill="none" stroke="blue" points="817,-267 817,-277 927,-277 927,-267 817,-267"/>
</g>
<!-- id&#45;&gt;dependency13873 -->
<g id="edge6" class="edge">
<title>id:e&#45;&gt;dependency13873:w</title>
<path fill="none" stroke="black" d="M505,-428C600.42,-399.53 601.63,-316.7 695.83,-312.19"/>
<ellipse fill="none" stroke="black" cx="700" cy="-312.09" rx="4" ry="4"/>
</g>
<!-- dependency13874 -->
<g id="node8" class="node">
<title>dependency13874</title>
<polygon fill="none" stroke="blue" points="712,-151 712,-241 817,-241 817,-151 712,-151"/>
<text text-anchor="start" x="742.82" y="-193" font-family="Helvetica,sans-Serif" font-size="10.00">pack_dep</text>
<polygon fill="none" stroke="blue" points="817,-221 817,-241 927,-241 927,-221 817,-221"/>
<text text-anchor="start" x="866.44" y="-228" font-family="Helvetica,sans-Serif" font-size="10.00">no</text>
<polygon fill="none" stroke="blue" points="817,-201 817,-221 927,-221 927,-201 817,-201"/>
<text text-anchor="start" x="858.66" y="-208" font-family="Helvetica,sans-Serif" font-size="10.00">virtual</text>
<polygon fill="none" stroke="blue" points="817,-181 817,-201 927,-201 927,-181 817,-181"/>
<text text-anchor="start" x="834.2" y="-188" font-family="Helvetica,sans-Serif" font-size="10.00">perl&#45;Getopt&#45;Long</text>
<polygon fill="none" stroke="blue" points="817,-161 817,-181 927,-181 927,-161 817,-161"/>
<text text-anchor="start" x="860.88" y="-168" font-family="Helvetica,sans-Serif" font-size="10.00">none</text>
<polygon fill="none" stroke="blue" points="817,-151 817,-161 927,-161 927,-151 817,-151"/>
</g>
<!-- id&#45;&gt;dependency13874 -->
<g id="edge7" class="edge">
<title>id:e&#45;&gt;dependency13874:w</title>
<path fill="none" stroke="black" d="M505,-428C632.51,-389.96 570.82,-203.86 695.89,-196.24"/>
<ellipse fill="none" stroke="black" cx="700" cy="-196.12" rx="4" ry="4"/>
</g>
<!-- dependency13875 -->
<g id="node9" class="node">
<title>dependency13875</title>
<polygon fill="none" stroke="blue" points="712,-35 712,-125 817,-125 817,-35 712,-35"/>
<text text-anchor="start" x="742.82" y="-77" font-family="Helvetica,sans-Serif" font-size="10.00">pack_dep</text>
<polygon fill="none" stroke="blue" points="817,-105 817,-125 927,-125 927,-105 817,-105"/>
<text text-anchor="start" x="866.44" y="-112" font-family="Helvetica,sans-Serif" font-size="10.00">no</text>
<polygon fill="none" stroke="blue" points="817,-85 817,-105 927,-105 927,-85 817,-85"/>
<text text-anchor="start" x="858.66" y="-92" font-family="Helvetica,sans-Serif" font-size="10.00">virtual</text>
<polygon fill="none" stroke="blue" points="817,-65 817,-85 927,-85 927,-65 817,-65"/>
<text text-anchor="start" x="843.37" y="-72" font-family="Helvetica,sans-Serif" font-size="10.00">perl&#45;Storable</text>
<polygon fill="none" stroke="blue" points="817,-45 817,-65 927,-65 927,-45 817,-45"/>
<text text-anchor="start" x="860.88" y="-52" font-family="Helvetica,sans-Serif" font-size="10.00">none</text>
<polygon fill="none" stroke="blue" points="817,-35 817,-45 927,-45 927,-35 817,-35"/>
</g>
<!-- id&#45;&gt;dependency13875 -->
<g id="edge8" class="edge">
<title>id:e&#45;&gt;dependency13875:w</title>
<path fill="none" stroke="black" d="M505,-428C673.07,-377.86 530.44,-89.22 695.89,-80.22"/>
<ellipse fill="none" stroke="black" cx="700" cy="-80.11" rx="4" ry="4"/>
<path fill="none" stroke="black" d="M305,-626C429.45,-626 383.74,-463.58 503,-428"/>
</g>
<!-- dependency13869 -->
<g id="node3" class="node">
<title>dependency13869</title>
<polygon fill="none" stroke="blue" points="712,-1123 712,-1213 817,-1213 817,-1123 712,-1123"/>
<text text-anchor="start" x="742.82" y="-1165" font-family="Helvetica,sans-Serif" font-size="10.00">pack_dep</text>
<polygon fill="none" stroke="blue" points="817,-1193 817,-1213 927,-1213 927,-1193 817,-1193"/>
<text text-anchor="start" x="866.44" y="-1200" font-family="Helvetica,sans-Serif" font-size="10.00">no</text>
<polygon fill="none" stroke="blue" points="817,-1173 817,-1193 927,-1193 927,-1173 817,-1173"/>
<text text-anchor="start" x="849.21" y="-1180" font-family="Helvetica,sans-Serif" font-size="10.00">app&#45;shells</text>
<polygon fill="none" stroke="blue" points="817,-1153 817,-1173 927,-1173 927,-1153 817,-1153"/>
<text text-anchor="start" x="864.22" y="-1160" font-family="Helvetica,sans-Serif" font-size="10.00">zsh</text>
<polygon fill="none" stroke="blue" points="817,-1133 817,-1153 927,-1153 927,-1133 817,-1133"/>
<text text-anchor="start" x="860.88" y="-1140" font-family="Helvetica,sans-Serif" font-size="10.00">none</text>
<polygon fill="none" stroke="blue" points="817,-1123 817,-1133 927,-1133 927,-1123 817,-1123"/>
</g>
<!-- dependency13868&#45;&gt;dependency13869 -->
<g id="edge1" class="edge">
<title>dependency13868:e&#45;&gt;dependency13869:w</title>
<path fill="none" stroke="black" stroke-dasharray="5,2" d="M596,-824C752.65,-824 553.11,-1152.72 693.76,-1167.49"/>
<polygon fill="black" stroke="black" points="704,-1168 693.79,-1171.99 699.01,-1167.75 694.01,-1167.5 694.01,-1167.5 694.01,-1167.5 699.01,-1167.75 694.24,-1163.01 704,-1168 704,-1168"/>
</g>
<!-- choice971121124511510410110810811547122115104455346484653 -->
<g id="node10" class="node">
<title>choice971121124511510410110810811547122115104455346484653</title>
<g id="a_node10"><a xlink:href="../app-shells/zsh-5.0.5.svg" xlink:title="app&#45;shells/zsh&#45;5.0.5">
<ellipse fill="none" stroke="red" cx="1192" cy="-1438" rx="144" ry="18"/>
<text text-anchor="middle" x="1192" y="-1435" font-family="Helvetica,sans-Serif" font-size="10.00">app&#45;shells/zsh&#45;5.0.5</text>
</a>
</g>
</g>
<!-- dependency13869&#45;&gt;choice971121124511510410110810811547122115104455346484653 -->
<g id="edge9" class="edge">
<title>dependency13869:e&#45;&gt;choice971121124511510410110810811547122115104455346484653:w</title>
<path fill="none" stroke="black" stroke-dasharray="1,5" d="M941,-1168C1066.27,-1168 926.46,-1422.92 1036.71,-1437.36"/>
<polygon fill="black" stroke="black" points="1047,-1438 1036.74,-1441.87 1042.01,-1437.69 1037.02,-1437.38 1037.02,-1437.38 1037.02,-1437.38 1042.01,-1437.69 1037.3,-1432.89 1047,-1438 1047,-1438"/>
</g>
<!-- choice97112112451151041011081081154712211510445534650 -->
<g id="node11" class="node">
<title>choice97112112451151041011081081154712211510445534650</title>
<g id="a_node11"><a xlink:href="../app-shells/zsh-5.2.svg" xlink:title="app&#45;shells/zsh&#45;5.2">
<ellipse fill="none" stroke="red" cx="1192" cy="-1384" rx="144" ry="18"/>
<text text-anchor="middle" x="1192" y="-1381" font-family="Helvetica,sans-Serif" font-size="10.00">app&#45;shells/zsh&#45;5.2</text>
</a>
</g>
</g>
<!-- dependency13869&#45;&gt;choice97112112451151041011081081154712211510445534650 -->
<g id="edge10" class="edge">
<title>dependency13869:e&#45;&gt;choice97112112451151041011081081154712211510445534650:w</title>
<path fill="none" stroke="black" stroke-dasharray="1,5" d="M941,-1168C1044.28,-1168 947.19,-1369.49 1036.77,-1383.26"/>
<polygon fill="black" stroke="black" points="1047,-1384 1036.7,-1387.77 1042.01,-1383.64 1037.03,-1383.28 1037.03,-1383.28 1037.03,-1383.28 1042.01,-1383.64 1037.35,-1378.79 1047,-1384 1047,-1384"/>
</g>
<!-- choice971121124511510410110810811547122115104455346504511449 -->
<g id="node12" class="node">
<title>choice971121124511510410110810811547122115104455346504511449</title>
<g id="a_node12"><a xlink:href="../app-shells/zsh-5.2-r1.svg" xlink:title="app&#45;shells/zsh&#45;5.2&#45;r1">
<ellipse fill="none" stroke="red" cx="1192" cy="-1330" rx="144" ry="18"/>
<text text-anchor="middle" x="1192" y="-1327" font-family="Helvetica,sans-Serif" font-size="10.00">app&#45;shells/zsh&#45;5.2&#45;r1</text>
</a>
</g>
</g>
<!-- dependency13869&#45;&gt;choice971121124511510410110810811547122115104455346504511449 -->
<g id="edge11" class="edge">
<title>dependency13869:e&#45;&gt;choice971121124511510410110810811547122115104455346504511449:w</title>
<path fill="none" stroke="black" stroke-dasharray="1,5" d="M941,-1168C1023.35,-1168 966.36,-1316.38 1036.73,-1329.13"/>
<polygon fill="black" stroke="black" points="1047,-1330 1036.66,-1333.64 1042.02,-1329.58 1037.04,-1329.15 1037.04,-1329.15 1037.04,-1329.15 1042.02,-1329.58 1037.42,-1324.67 1047,-1330 1047,-1330"/>
</g>
<!-- choice971121124511510410110810811547122115104455346514649 -->
<g id="node13" class="node">
<title>choice971121124511510410110810811547122115104455346514649</title>
<g id="a_node13"><a xlink:href="../app-shells/zsh-5.3.1.svg" xlink:title="app&#45;shells/zsh&#45;5.3.1">
<ellipse fill="none" stroke="red" cx="1192" cy="-1276" rx="144" ry="18"/>
<text text-anchor="middle" x="1192" y="-1273" font-family="Helvetica,sans-Serif" font-size="10.00">app&#45;shells/zsh&#45;5.3.1</text>
</a>
</g>
</g>
<!-- dependency13869&#45;&gt;choice971121124511510410110810811547122115104455346514649 -->
<g id="edge12" class="edge">
<title>dependency13869:e&#45;&gt;choice971121124511510410110810811547122115104455346514649:w</title>
<path fill="none" stroke="black" stroke-dasharray="1,5" d="M941,-1168C1004.58,-1168 982.58,-1264.51 1036.79,-1275.07"/>
<polygon fill="black" stroke="black" points="1047,-1276 1036.63,-1279.57 1042.02,-1275.54 1037.04,-1275.09 1037.04,-1275.09 1037.04,-1275.09 1042.02,-1275.54 1037.45,-1270.61 1047,-1276 1047,-1276"/>
</g>
<!-- choice971121124511510410110810811547122115104455346524649 -->
<g id="node14" class="node">
<title>choice971121124511510410110810811547122115104455346524649</title>
<g id="a_node14"><a xlink:href="../app-shells/zsh-5.4.1.svg" xlink:title="app&#45;shells/zsh&#45;5.4.1">
<ellipse fill="none" stroke="red" cx="1192" cy="-1222" rx="144" ry="18"/>
<text text-anchor="middle" x="1192" y="-1219" font-family="Helvetica,sans-Serif" font-size="10.00">app&#45;shells/zsh&#45;5.4.1</text>
</a>
</g>
</g>
<!-- dependency13869&#45;&gt;choice971121124511510410110810811547122115104455346524649 -->
<g id="edge13" class="edge">
<title>dependency13869:e&#45;&gt;choice971121124511510410110810811547122115104455346524649:w</title>
<path fill="none" stroke="black" stroke-dasharray="1,5" d="M941,-1168C990.26,-1168 993.85,-1214.87 1036.86,-1221.28"/>
<polygon fill="black" stroke="black" points="1047,-1222 1036.71,-1225.78 1042.01,-1221.64 1037.03,-1221.29 1037.03,-1221.29 1037.03,-1221.29 1042.01,-1221.64 1037.35,-1216.8 1047,-1222 1047,-1222"/>
</g>
<!-- choice971121124511510410110810811547122115104455346524650 -->
<g id="node15" class="node">
<title>choice971121124511510410110810811547122115104455346524650</title>
<g id="a_node15"><a xlink:href="../app-shells/zsh-5.4.2.svg" xlink:title="app&#45;shells/zsh&#45;5.4.2">
<ellipse fill="none" stroke="red" cx="1192" cy="-1168" rx="144" ry="18"/>
<text text-anchor="middle" x="1192" y="-1165" font-family="Helvetica,sans-Serif" font-size="10.00">app&#45;shells/zsh&#45;5.4.2</text>
</a>
</g>
</g>
<!-- dependency13869&#45;&gt;choice971121124511510410110810811547122115104455346524650 -->
<g id="edge14" class="edge">
<title>dependency13869:e&#45;&gt;choice971121124511510410110810811547122115104455346524650:w</title>
<path fill="none" stroke="black" stroke-dasharray="1,5" d="M941,-1168C984.43,-1168 997.83,-1168 1036.57,-1168"/>
<polygon fill="black" stroke="black" points="1047,-1168 1037,-1172.5 1042,-1168 1037,-1168 1037,-1168 1037,-1168 1042,-1168 1037,-1163.5 1047,-1168 1047,-1168"/>
</g>
<!-- choice9711211245115104101108108115471221151044553465246504511449 -->
<g id="node16" class="node">
<title>choice9711211245115104101108108115471221151044553465246504511449</title>
<g id="a_node16"><a xlink:href="../app-shells/zsh-5.4.2-r1.svg" xlink:title="app&#45;shells/zsh&#45;5.4.2&#45;r1">
<ellipse fill="none" stroke="red" cx="1192" cy="-1114" rx="144" ry="18"/>
<text text-anchor="middle" x="1192" y="-1111" font-family="Helvetica,sans-Serif" font-size="10.00">app&#45;shells/zsh&#45;5.4.2&#45;r1</text>
</a>
</g>
</g>
<!-- dependency13869&#45;&gt;choice9711211245115104101108108115471221151044553465246504511449 -->
<g id="edge15" class="edge">
<title>dependency13869:e&#45;&gt;choice9711211245115104101108108115471221151044553465246504511449:w</title>
<path fill="none" stroke="black" stroke-dasharray="1,5" d="M941,-1168C990.26,-1168 993.85,-1121.13 1036.86,-1114.72"/>
<polygon fill="black" stroke="black" points="1047,-1114 1037.35,-1119.2 1042.01,-1114.36 1037.03,-1114.71 1037.03,-1114.71 1037.03,-1114.71 1042.01,-1114.36 1036.71,-1110.22 1047,-1114 1047,-1114"/>
</g>
<!-- choice9711211245115104101108108115471221151044557575757 -->
<g id="node17" class="node">
<title>choice9711211245115104101108108115471221151044557575757</title>
<g id="a_node17"><a xlink:href="../app-shells/zsh-9999.svg" xlink:title="app&#45;shells/zsh&#45;9999">
<ellipse fill="none" stroke="red" cx="1192" cy="-1060" rx="144" ry="18"/>
<text text-anchor="middle" x="1192" y="-1057" font-family="Helvetica,sans-Serif" font-size="10.00">app&#45;shells/zsh&#45;9999</text>
</a>
</g>
</g>
<!-- dependency13869&#45;&gt;choice9711211245115104101108108115471221151044557575757 -->
<g id="edge16" class="edge">
<title>dependency13869:e&#45;&gt;choice9711211245115104101108108115471221151044557575757:w</title>
<path fill="none" stroke="black" stroke-dasharray="1,5" d="M941,-1168C1004.58,-1168 982.58,-1071.49 1036.79,-1060.93"/>
<polygon fill="black" stroke="black" points="1047,-1060 1037.45,-1065.39 1042.02,-1060.46 1037.04,-1060.91 1037.04,-1060.91 1037.04,-1060.91 1042.02,-1060.46 1036.63,-1056.43 1047,-1060 1047,-1060"/>
</g>
<!-- choice9711211245991141211121164710311011711210345494652465049 -->
<g id="node18" class="node">
<title>choice9711211245991141211121164710311011711210345494652465049</title>
<g id="a_node18"><a xlink:href="../app-crypt/gnupg-1.4.21.svg" xlink:title="app&#45;crypt/gnupg&#45;1.4.21">
<ellipse fill="none" stroke="red" cx="1192" cy="-1006" rx="144" ry="18"/>
<text text-anchor="middle" x="1192" y="-1003" font-family="Helvetica,sans-Serif" font-size="10.00">app&#45;crypt/gnupg&#45;1.4.21</text>
</a>
</g>
</g>
<!-- dependency13870&#45;&gt;choice9711211245991141211121164710311011711210345494652465049 -->
<g id="edge17" class="edge">
<title>dependency13870:e&#45;&gt;choice9711211245991141211121164710311011711210345494652465049:w</title>
<path fill="none" stroke="black" stroke-dasharray="1,5" d="M941,-898C1004.58,-898 982.58,-994.51 1036.79,-1005.07"/>
<polygon fill="black" stroke="black" points="1047,-1006 1036.63,-1009.57 1042.02,-1005.54 1037.04,-1005.09 1037.04,-1005.09 1037.04,-1005.09 1042.02,-1005.54 1037.45,-1000.61 1047,-1006 1047,-1006"/>
</g>
<!-- choice9711211245991141211121164710311011711210345504649464953 -->
<g id="node19" class="node">
<title>choice9711211245991141211121164710311011711210345504649464953</title>
<g id="a_node19"><a xlink:href="../app-crypt/gnupg-2.1.15.svg" xlink:title="app&#45;crypt/gnupg&#45;2.1.15">
<ellipse fill="none" stroke="red" cx="1192" cy="-952" rx="144" ry="18"/>
<text text-anchor="middle" x="1192" y="-949" font-family="Helvetica,sans-Serif" font-size="10.00">app&#45;crypt/gnupg&#45;2.1.15</text>
</a>
</g>
</g>
<!-- dependency13870&#45;&gt;choice9711211245991141211121164710311011711210345504649464953 -->
<g id="edge18" class="edge">
<title>dependency13870:e&#45;&gt;choice9711211245991141211121164710311011711210345504649464953:w</title>
<path fill="none" stroke="black" stroke-dasharray="1,5" d="M941,-898C990.26,-898 993.85,-944.87 1036.86,-951.28"/>
<polygon fill="black" stroke="black" points="1047,-952 1036.71,-955.78 1042.01,-951.64 1037.03,-951.29 1037.03,-951.29 1037.03,-951.29 1042.01,-951.64 1037.35,-946.8 1047,-952 1047,-952"/>
</g>
<!-- choice97112112459911412111211647103110117112103455046494650484511449 -->
<g id="node20" class="node">
<title>choice97112112459911412111211647103110117112103455046494650484511449</title>
<g id="a_node20"><a xlink:href="../app-crypt/gnupg-2.1.20-r1.svg" xlink:title="app&#45;crypt/gnupg&#45;2.1.20&#45;r1">
<ellipse fill="none" stroke="red" cx="1192" cy="-898" rx="144" ry="18"/>
<text text-anchor="middle" x="1192" y="-895" font-family="Helvetica,sans-Serif" font-size="10.00">app&#45;crypt/gnupg&#45;2.1.20&#45;r1</text>
</a>
</g>
</g>
<!-- dependency13870&#45;&gt;choice97112112459911412111211647103110117112103455046494650484511449 -->
<g id="edge19" class="edge">
<title>dependency13870:e&#45;&gt;choice97112112459911412111211647103110117112103455046494650484511449:w</title>
<path fill="none" stroke="black" stroke-dasharray="1,5" d="M941,-898C984.43,-898 997.83,-898 1036.57,-898"/>
<polygon fill="black" stroke="black" points="1047,-898 1037,-902.5 1042,-898 1037,-898 1037,-898 1037,-898 1042,-898 1037,-893.5 1047,-898 1047,-898"/>
</g>
<!-- choice97112112459911412111211647103110117112103455046504648 -->
<g id="node21" class="node">
<title>choice97112112459911412111211647103110117112103455046504648</title>
<g id="a_node21"><a xlink:href="../app-crypt/gnupg-2.2.0.svg" xlink:title="app&#45;crypt/gnupg&#45;2.2.0">
<ellipse fill="none" stroke="red" cx="1192" cy="-844" rx="144" ry="18"/>
<text text-anchor="middle" x="1192" y="-841" font-family="Helvetica,sans-Serif" font-size="10.00">app&#45;crypt/gnupg&#45;2.2.0</text>
</a>
</g>
</g>
<!-- dependency13870&#45;&gt;choice97112112459911412111211647103110117112103455046504648 -->
<g id="edge20" class="edge">
<title>dependency13870:e&#45;&gt;choice97112112459911412111211647103110117112103455046504648:w</title>
<path fill="none" stroke="black" stroke-dasharray="1,5" d="M941,-898C990.26,-898 993.85,-851.13 1036.86,-844.72"/>
<polygon fill="black" stroke="black" points="1047,-844 1037.35,-849.2 1042.01,-844.36 1037.03,-844.71 1037.03,-844.71 1037.03,-844.71 1042.01,-844.36 1036.71,-840.22 1047,-844 1047,-844"/>
</g>
<!-- choice97112112459911412111211647103110117112103455046504649 -->
<g id="node22" class="node">
<title>choice97112112459911412111211647103110117112103455046504649</title>
<g id="a_node22"><a xlink:href="../app-crypt/gnupg-2.2.1.svg" xlink:title="app&#45;crypt/gnupg&#45;2.2.1">
<ellipse fill="none" stroke="red" cx="1192" cy="-790" rx="144" ry="18"/>
<text text-anchor="middle" x="1192" y="-787" font-family="Helvetica,sans-Serif" font-size="10.00">app&#45;crypt/gnupg&#45;2.2.1</text>
</a>
</g>
</g>
<!-- dependency13870&#45;&gt;choice97112112459911412111211647103110117112103455046504649 -->
<g id="edge21" class="edge">
<title>dependency13870:e&#45;&gt;choice97112112459911412111211647103110117112103455046504649:w</title>
<path fill="none" stroke="black" stroke-dasharray="1,5" d="M941,-898C1004.58,-898 982.58,-801.49 1036.79,-790.93"/>
<polygon fill="black" stroke="black" points="1047,-790 1037.45,-795.39 1042.02,-790.46 1037.04,-790.91 1037.04,-790.91 1037.04,-790.91 1042.02,-790.46 1036.63,-786.43 1047,-790 1047,-790"/>
</g>
<!-- choice100101118451089711010347112101114108455346505246494511450 -->
<g id="node23" class="node">
<title>choice100101118451089711010347112101114108455346505246494511450</title>
<g id="a_node23"><a xlink:href="../dev-lang/perl-5.24.1-r2.svg" xlink:title="dev&#45;lang/perl&#45;5.24.1&#45;r2">
<ellipse fill="none" stroke="red" cx="1192" cy="-736" rx="144" ry="18"/>
<text text-anchor="middle" x="1192" y="-733" font-family="Helvetica,sans-Serif" font-size="10.00">dev&#45;lang/perl&#45;5.24.1&#45;r2</text>
</a>
</g>
</g>
<!-- dependency13871&#45;&gt;choice100101118451089711010347112101114108455346505246494511450 -->
<g id="edge22" class="edge">
<title>dependency13871:e&#45;&gt;choice100101118451089711010347112101114108455346505246494511450:w</title>
<path fill="none" stroke="black" stroke-dasharray="1,5" d="M941,-544C1034.86,-544 955.87,-722.01 1036.9,-735.23"/>
<polygon fill="black" stroke="black" points="1047,-736 1036.69,-739.72 1042.01,-735.62 1037.03,-735.24 1037.03,-735.24 1037.03,-735.24 1042.01,-735.62 1037.37,-730.75 1047,-736 1047,-736"/>
</g>
<!-- choice10010111845108971101034711210111410845534650524650 -->
<g id="node24" class="node">
<title>choice10010111845108971101034711210111410845534650524650</title>
<g id="a_node24"><a xlink:href="../dev-lang/perl-5.24.2.svg" xlink:title="dev&#45;lang/perl&#45;5.24.2">
<ellipse fill="none" stroke="red" cx="1192" cy="-682" rx="144" ry="18"/>
<text text-anchor="middle" x="1192" y="-679" font-family="Helvetica,sans-Serif" font-size="10.00">dev&#45;lang/perl&#45;5.24.2</text>
</a>
</g>
</g>
<!-- dependency13871&#45;&gt;choice10010111845108971101034711210111410845534650524650 -->
<g id="edge23" class="edge">
<title>dependency13871:e&#45;&gt;choice10010111845108971101034711210111410845534650524650:w</title>
<path fill="none" stroke="black" stroke-dasharray="1,5" d="M941,-544C1014.71,-544 973.95,-669.37 1036.93,-681.12"/>
<polygon fill="black" stroke="black" points="1047,-682 1036.65,-685.61 1042.02,-681.56 1037.04,-681.13 1037.04,-681.13 1037.04,-681.13 1042.02,-681.56 1037.43,-676.65 1047,-682 1047,-682"/>
</g>
<!-- choice10010111845108971101034711210111410845534650524651 -->
<g id="node25" class="node">
<title>choice10010111845108971101034711210111410845534650524651</title>
<g id="a_node25"><a xlink:href="../dev-lang/perl-5.24.3.svg" xlink:title="dev&#45;lang/perl&#45;5.24.3">
<ellipse fill="none" stroke="red" cx="1192" cy="-628" rx="144" ry="18"/>
<text text-anchor="middle" x="1192" y="-625" font-family="Helvetica,sans-Serif" font-size="10.00">dev&#45;lang/perl&#45;5.24.3</text>
</a>
</g>
</g>
<!-- dependency13871&#45;&gt;choice10010111845108971101034711210111410845534650524651 -->
<g id="edge24" class="edge">
<title>dependency13871:e&#45;&gt;choice10010111845108971101034711210111410845534650524651:w</title>
<path fill="none" stroke="black" stroke-dasharray="1,5" d="M941,-544C997.47,-544 988.34,-618.14 1036.87,-627.11"/>
<polygon fill="black" stroke="black" points="1047,-628 1036.65,-631.61 1042.02,-627.56 1037.04,-627.13 1037.04,-627.13 1037.04,-627.13 1042.02,-627.56 1037.43,-622.65 1047,-628 1047,-628"/>
</g>
<!-- choice10010111845108971101034711210111410845534650544648 -->
<g id="node26" class="node">
<title>choice10010111845108971101034711210111410845534650544648</title>
<g id="a_node26"><a xlink:href="../dev-lang/perl-5.26.0.svg" xlink:title="dev&#45;lang/perl&#45;5.26.0">
<ellipse fill="none" stroke="red" cx="1192" cy="-574" rx="144" ry="18"/>
<text text-anchor="middle" x="1192" y="-571" font-family="Helvetica,sans-Serif" font-size="10.00">dev&#45;lang/perl&#45;5.26.0</text>
</a>
</g>
</g>
<!-- dependency13871&#45;&gt;choice10010111845108971101034711210111410845534650544648 -->
<g id="edge25" class="edge">
<title>dependency13871:e&#45;&gt;choice10010111845108971101034711210111410845534650544648:w</title>
<path fill="none" stroke="black" stroke-dasharray="1,5" d="M941,-544C986.42,-544 996.66,-569.82 1036.99,-573.55"/>
<polygon fill="black" stroke="black" points="1047,-574 1036.81,-578.05 1042,-573.78 1037.01,-573.55 1037.01,-573.55 1037.01,-573.55 1042,-573.78 1037.21,-569.06 1047,-574 1047,-574"/>
</g>
<!-- choice10010111845108971101034711210111410845534650544649 -->
<g id="node27" class="node">
<title>choice10010111845108971101034711210111410845534650544649</title>
<g id="a_node27"><a xlink:href="../dev-lang/perl-5.26.1.svg" xlink:title="dev&#45;lang/perl&#45;5.26.1">
<ellipse fill="none" stroke="red" cx="1192" cy="-520" rx="144" ry="18"/>
<text text-anchor="middle" x="1192" y="-517" font-family="Helvetica,sans-Serif" font-size="10.00">dev&#45;lang/perl&#45;5.26.1</text>
</a>
</g>
</g>
<!-- dependency13871&#45;&gt;choice10010111845108971101034711210111410845534650544649 -->
<g id="edge26" class="edge">
<title>dependency13871:e&#45;&gt;choice10010111845108971101034711210111410845534650544649:w</title>
<path fill="none" stroke="black" stroke-dasharray="1,5" d="M941,-544C985.72,-544 997.09,-523.43 1036.86,-520.38"/>
<polygon fill="black" stroke="black" points="1047,-520 1037.17,-524.87 1042,-520.19 1037.01,-520.37 1037.01,-520.37 1037.01,-520.37 1042,-520.19 1036.84,-515.87 1047,-520 1047,-520"/>
</g>
<!-- choice100101118451089711010347112101114108455346505446494511449 -->
<g id="node28" class="node">
<title>choice100101118451089711010347112101114108455346505446494511449</title>
<g id="a_node28"><a xlink:href="../dev-lang/perl-5.26.1-r1.svg" xlink:title="dev&#45;lang/perl&#45;5.26.1&#45;r1">
<ellipse fill="none" stroke="red" cx="1192" cy="-466" rx="144" ry="18"/>
<text text-anchor="middle" x="1192" y="-463" font-family="Helvetica,sans-Serif" font-size="10.00">dev&#45;lang/perl&#45;5.26.1&#45;r1</text>
</a>
</g>
</g>
<!-- dependency13871&#45;&gt;choice100101118451089711010347112101114108455346505446494511449 -->
<g id="edge27" class="edge">
<title>dependency13871:e&#45;&gt;choice100101118451089711010347112101114108455346505446494511449:w</title>
<path fill="none" stroke="black" stroke-dasharray="1,5" d="M941,-544C995.84,-544 989.61,-475.45 1036.81,-466.88"/>
<polygon fill="black" stroke="black" points="1047,-466 1037.42,-471.34 1042.02,-466.43 1037.04,-466.86 1037.04,-466.86 1037.04,-466.86 1042.02,-466.43 1036.65,-462.37 1047,-466 1047,-466"/>
</g>
<!-- choice10010111845108971101034711210111410845534650544657575757 -->
<g id="node29" class="node">
<title>choice10010111845108971101034711210111410845534650544657575757</title>
<g id="a_node29"><a xlink:href="../dev-lang/perl-5.26.9999.svg" xlink:title="dev&#45;lang/perl&#45;5.26.9999">
<ellipse fill="none" stroke="red" cx="1192" cy="-412" rx="144" ry="18"/>
<text text-anchor="middle" x="1192" y="-409" font-family="Helvetica,sans-Serif" font-size="10.00">dev&#45;lang/perl&#45;5.26.9999</text>
</a>
</g>
</g>
<!-- dependency13871&#45;&gt;choice10010111845108971101034711210111410845534650544657575757 -->
<g id="edge28" class="edge">
<title>dependency13871:e&#45;&gt;choice10010111845108971101034711210111410845534650544657575757:w</title>
<path fill="none" stroke="black" stroke-dasharray="1,5" d="M941,-544C1012.57,-544 975.82,-424.58 1036.81,-412.91"/>
<polygon fill="black" stroke="black" points="1047,-412 1037.44,-417.37 1042.02,-412.45 1037.04,-412.89 1037.04,-412.89 1037.04,-412.89 1042.02,-412.45 1036.64,-408.41 1047,-412 1047,-412"/>
</g>
<!-- choice10010111845108971101034711210111410845534650564657575757 -->
<g id="node30" class="node">
<title>choice10010111845108971101034711210111410845534650564657575757</title>
<g id="a_node30"><a xlink:href="../dev-lang/perl-5.28.9999.svg" xlink:title="dev&#45;lang/perl&#45;5.28.9999">
<ellipse fill="none" stroke="red" cx="1192" cy="-358" rx="144" ry="18"/>
<text text-anchor="middle" x="1192" y="-355" font-family="Helvetica,sans-Serif" font-size="10.00">dev&#45;lang/perl&#45;5.28.9999</text>
</a>
</g>
</g>
<!-- dependency13871&#45;&gt;choice10010111845108971101034711210111410845534650564657575757 -->
<g id="edge29" class="edge">
<title>dependency13871:e&#45;&gt;choice10010111845108971101034711210111410845534650564657575757:w</title>
<path fill="none" stroke="black" stroke-dasharray="1,5" d="M941,-544C1032.43,-544 958.16,-372.25 1036.65,-358.83"/>
<polygon fill="black" stroke="black" points="1047,-358 1037.39,-363.28 1042.02,-358.4 1037.03,-358.8 1037.03,-358.8 1037.03,-358.8 1042.02,-358.4 1036.67,-354.31 1047,-358 1047,-358"/>
</g>
<!-- choice100101118451121011141084767111110102105103458310510911210810145524653574846484511449 -->
<g id="node31" class="node">
<title>choice100101118451121011141084767111110102105103458310510911210810145524653574846484511449</title>
<g id="a_node31"><a xlink:href="../dev-perl/Config-Simple-4.590.0-r1.svg" xlink:title="dev&#45;perl/Config&#45;Simple&#45;4.590.0&#45;r1">
<ellipse fill="none" stroke="red" cx="1192" cy="-304" rx="144" ry="18"/>
<text text-anchor="middle" x="1192" y="-301" font-family="Helvetica,sans-Serif" font-size="10.00">dev&#45;perl/Config&#45;Simple&#45;4.590.0&#45;r1</text>
</a>
</g>
</g>
<!-- dependency13872&#45;&gt;choice100101118451121011141084767111110102105103458310510911210810145524653574846484511449 -->
<g id="edge30" class="edge">
<title>dependency13872:e&#45;&gt;choice100101118451121011141084767111110102105103458310510911210810145524653574846484511449:w</title>
<path fill="none" stroke="black" stroke-dasharray="1,5" d="M941,-428C1009.82,-428 978.17,-316.27 1036.79,-304.93"/>
<polygon fill="black" stroke="black" points="1047,-304 1037.45,-309.39 1042.02,-304.45 1037.04,-304.9 1037.04,-304.9 1037.04,-304.9 1042.02,-304.45 1036.63,-300.42 1047,-304 1047,-304"/>
</g>
<!-- choice118105114116117971084711210111410845701051081014584101109112454846505148465248484511453 -->
<g id="node32" class="node">
<title>choice118105114116117971084711210111410845701051081014584101109112454846505148465248484511453</title>
<g id="a_node32"><a xlink:href="../virtual/perl-File-Temp-0.230.400-r5.svg" xlink:title="virtual/perl&#45;File&#45;Temp&#45;0.230.400&#45;r5">
<ellipse fill="none" stroke="red" cx="1192" cy="-250" rx="144" ry="18"/>
<text text-anchor="middle" x="1192" y="-247" font-family="Helvetica,sans-Serif" font-size="10.00">virtual/perl&#45;File&#45;Temp&#45;0.230.400&#45;r5</text>
</a>
</g>
</g>
<!-- dependency13873&#45;&gt;choice118105114116117971084711210111410845701051081014584101109112454846505148465248484511453 -->
<g id="edge31" class="edge">
<title>dependency13873:e&#45;&gt;choice118105114116117971084711210111410845701051081014584101109112454846505148465248484511453:w</title>
<path fill="none" stroke="black" stroke-dasharray="1,5" d="M941,-312C991.95,-312 992.59,-257.96 1036.86,-250.78"/>
<polygon fill="black" stroke="black" points="1047,-250 1037.38,-255.26 1042.01,-250.39 1037.03,-250.77 1037.03,-250.77 1037.03,-250.77 1042.01,-250.39 1036.68,-246.28 1047,-250 1047,-250"/>
</g>
<!-- choice11810511411611797108471121011141084571101116111112116457611111010345504652564846484511449 -->
<g id="node33" class="node">
<title>choice11810511411611797108471121011141084571101116111112116457611111010345504652564846484511449</title>
<g id="a_node33"><a xlink:href="../virtual/perl-Getopt-Long-2.480.0-r1.svg" xlink:title="virtual/perl&#45;Getopt&#45;Long&#45;2.480.0&#45;r1">
<ellipse fill="none" stroke="red" cx="1192" cy="-196" rx="144" ry="18"/>
<text text-anchor="middle" x="1192" y="-193" font-family="Helvetica,sans-Serif" font-size="10.00">virtual/perl&#45;Getopt&#45;Long&#45;2.480.0&#45;r1</text>
</a>
</g>
</g>
<!-- dependency13874&#45;&gt;choice11810511411611797108471121011141084571101116111112116457611111010345504652564846484511449 -->
<g id="edge32" class="edge">
<title>dependency13874:e&#45;&gt;choice11810511411611797108471121011141084571101116111112116457611111010345504652564846484511449:w</title>
<path fill="none" stroke="black" stroke-dasharray="1,5" d="M941,-196C984.43,-196 997.83,-196 1036.57,-196"/>
<polygon fill="black" stroke="black" points="1047,-196 1037,-200.5 1042,-196 1037,-196 1037,-196 1037,-196 1042,-196 1037,-191.5 1047,-196 1047,-196"/>
</g>
<!-- choice1181051141161179710847112101114108457110111611111211645761111101034550465257484648 -->
<g id="node34" class="node">
<title>choice1181051141161179710847112101114108457110111611111211645761111101034550465257484648</title>
<g id="a_node34"><a xlink:href="../virtual/perl-Getopt-Long-2.490.0.svg" xlink:title="virtual/perl&#45;Getopt&#45;Long&#45;2.490.0">
<ellipse fill="none" stroke="red" cx="1192" cy="-142" rx="144" ry="18"/>
<text text-anchor="middle" x="1192" y="-139" font-family="Helvetica,sans-Serif" font-size="10.00">virtual/perl&#45;Getopt&#45;Long&#45;2.490.0</text>
</a>
</g>
</g>
<!-- dependency13874&#45;&gt;choice1181051141161179710847112101114108457110111611111211645761111101034550465257484648 -->
<g id="edge33" class="edge">
<title>dependency13874:e&#45;&gt;choice1181051141161179710847112101114108457110111611111211645761111101034550465257484648:w</title>
<path fill="none" stroke="black" stroke-dasharray="1,5" d="M941,-196C990.26,-196 993.85,-149.13 1036.86,-142.72"/>
<polygon fill="black" stroke="black" points="1047,-142 1037.35,-147.2 1042.01,-142.36 1037.03,-142.71 1037.03,-142.71 1037.03,-142.71 1042.01,-142.36 1036.71,-138.22 1047,-142 1047,-142"/>
</g>
<!-- choice1181051141161179710847112101114108458311611111497981081014550465354484649484895114994511450 -->
<g id="node35" class="node">
<title>choice1181051141161179710847112101114108458311611111497981081014550465354484649484895114994511450</title>
<g id="a_node35"><a xlink:href="../virtual/perl-Storable-2.560.100_rc-r2.svg" xlink:title="virtual/perl&#45;Storable&#45;2.560.100_rc&#45;r2">
<ellipse fill="none" stroke="red" cx="1192" cy="-88" rx="144" ry="18"/>
<text text-anchor="middle" x="1192" y="-85" font-family="Helvetica,sans-Serif" font-size="10.00">virtual/perl&#45;Storable&#45;2.560.100_rc&#45;r2</text>
</a>
</g>
</g>
<!-- dependency13875&#45;&gt;choice1181051141161179710847112101114108458311611111497981081014550465354484649484895114994511450 -->
<g id="edge34" class="edge">
<title>dependency13875:e&#45;&gt;choice1181051141161179710847112101114108458311611111497981081014550465354484649484895114994511450:w</title>
<path fill="none" stroke="black" stroke-dasharray="1,5" d="M941,-80C984.55,-80 997.74,-86.8 1036.55,-87.86"/>
<polygon fill="black" stroke="black" points="1047,-88 1036.94,-92.37 1042,-87.93 1037,-87.87 1037,-87.87 1037,-87.87 1042,-87.93 1037.06,-83.37 1047,-88 1047,-88"/>
</g>
<!-- choice1181051141161179710847112101114108458311611111497981081014550465450484648 -->
<g id="node36" class="node">
<title>choice1181051141161179710847112101114108458311611111497981081014550465450484648</title>
<g id="a_node36"><a xlink:href="../virtual/perl-Storable-2.620.0.svg" xlink:title="virtual/perl&#45;Storable&#45;2.620.0">
<ellipse fill="none" stroke="red" cx="1192" cy="-34" rx="144" ry="18"/>
<text text-anchor="middle" x="1192" y="-31" font-family="Helvetica,sans-Serif" font-size="10.00">virtual/perl&#45;Storable&#45;2.620.0</text>
</a>
</g>
</g>
<!-- dependency13875&#45;&gt;choice1181051141161179710847112101114108458311611111497981081014550465450484648 -->
<g id="edge35" class="edge">
<title>dependency13875:e&#45;&gt;choice1181051141161179710847112101114108458311611111497981081014550465450484648:w</title>
<path fill="none" stroke="black" stroke-dasharray="1,5" d="M941,-80C988.74,-80 994.94,-40.24 1036.85,-34.65"/>
<polygon fill="black" stroke="black" points="1047,-34 1037.31,-39.13 1042.01,-34.32 1037.02,-34.64 1037.02,-34.64 1037.02,-34.64 1042.01,-34.32 1036.73,-30.15 1047,-34 1047,-34"/>
</g>
</g>
</svg>
