<?xml version="1.0" encoding="UTF-8" standalone="no"?>
<!DOCTYPE svg PUBLIC "-//W3C//DTD SVG 1.1//EN"
 "http://www.w3.org/Graphics/SVG/1.1/DTD/svg11.dtd">
<!-- Generated by graphviz version 2.44.1 (20200629.0846)
 -->
<!-- Title: prolog Pages: 1 -->
<svg width="1275pt" height="1491pt"
 viewBox="0.00 0.00 1275.00 1491.00" xmlns="http://www.w3.org/2000/svg" xmlns:xlink="http://www.w3.org/1999/xlink">
<g id="graph0" class="graph" transform="scale(1 1) rotate(0) translate(4 1487)">
<title>prolog</title>
<polygon fill="white" stroke="transparent" points="-4,4 -4,-1487 1271,-1487 1271,4 -4,4"/>
<g id="clust1" class="cluster">
<title>cluster_leftcol</title>
<polygon fill="none" stroke="gray" points="8,-421 8,-493 312,-493 312,-421 8,-421"/>
<text text-anchor="start" x="146.66" y="-481" font-family="Helvetica,sans-Serif" font-style="italic" font-size="10.00">ebuild</text>
</g>
<g id="clust2" class="cluster">
<title>cluster_midcol</title>
<polygon fill="none" stroke="gray" points="396,-8 396,-998 871,-998 871,-8 396,-8"/>
<text text-anchor="start" x="602.38" y="-986" font-family="Helvetica,sans-Serif" font-style="italic" font-size="10.00">dependencies</text>
</g>
<g id="clust3" class="cluster">
<title>cluster_compile</title>
<polygon fill="#eeeeee" stroke="gray" points="404,-16 404,-970 863,-970 863,-16 404,-16"/>
<text text-anchor="start" x="616.28" y="-958" font-family="Helvetica,sans-Serif" font-style="italic" font-size="10.00">compile</text>
</g>
<g id="clust11" class="cluster">
<title>cluster_choices</title>
<polygon fill="none" stroke="gray" points="955,-53 955,-1475 1259,-1475 1259,-53 955,-53"/>
<text text-anchor="start" x="1082.82" y="-1463" font-family="Helvetica,sans-Serif" font-style="italic" font-size="10.00">candidates</text>
</g>
<!-- id -->
<g id="node1" class="node">
<title>id</title>
<g id="a_node1"><a xlink:href="../sys-firmware/edk2-ovmf-999999.svg" xlink:title="portage://sys&#45;firmware/edk2&#45;ovmf&#45;999999">
<ellipse fill="none" stroke="red" cx="160" cy="-447" rx="144" ry="18"/>
<text text-anchor="middle" x="160" y="-444" font-family="Helvetica,sans-Serif" font-size="10.00">portage://sys&#45;firmware/edk2&#45;ovmf&#45;999999</text>
</a>
</g>
</g>
<!-- dependency4603 -->
<g id="node2" class="node">
<title>dependency4603</title>
<polygon fill="none" stroke="red" points="420.5,-594 420.5,-628 503.5,-628 503.5,-594 420.5,-594"/>
<text text-anchor="start" x="431.43" y="-608" font-family="Helvetica,sans-Serif" font-size="10.00">any_of_group</text>
</g>
<!-- id&#45;&gt;dependency4603 -->
<g id="edge2" class="edge">
<title>id:e&#45;&gt;dependency4603:w</title>
<path fill="none" stroke="black" d="M305,-447C387.94,-447 329.38,-597.21 400.16,-610.12"/>
<polygon fill="black" stroke="black" points="410.5,-611 400.15,-614.63 405.52,-610.57 400.54,-610.15 400.54,-610.15 400.54,-610.15 405.52,-610.57 400.92,-605.67 410.5,-611 410.5,-611"/>
</g>
<!-- dependency4605 -->
<g id="node4" class="node">
<title>dependency4605</title>
<polygon fill="none" stroke="blue" points="627,-300 627,-398 732,-398 732,-300 627,-300"/>
<text text-anchor="start" x="657.82" y="-346" font-family="Helvetica,sans-Serif" font-size="10.00">pack_dep</text>
<polygon fill="none" stroke="blue" points="732,-376 732,-398 842,-398 842,-376 732,-376"/>
<text text-anchor="start" x="781.44" y="-384" font-family="Helvetica,sans-Serif" font-size="10.00">no</text>
<polygon fill="none" stroke="blue" points="732,-354 732,-376 842,-376 842,-354 732,-354"/>
<text text-anchor="start" x="755.33" y="-362" font-family="Helvetica,sans-Serif" font-size="10.00">app&#45;emulation</text>
<polygon fill="none" stroke="blue" points="732,-332 732,-354 842,-354 842,-332 732,-332"/>
<text text-anchor="start" x="774.5" y="-340" font-family="Helvetica,sans-Serif" font-size="10.00">qemu</text>
<polygon fill="none" stroke="blue" points="732,-310 732,-332 842,-332 842,-310 732,-310"/>
<text text-anchor="start" x="775.88" y="-318" font-family="Helvetica,sans-Serif" font-size="10.00">none</text>
<polygon fill="none" stroke="blue" points="732,-300 732,-310 842,-310 842,-300 732,-300"/>
</g>
<!-- id&#45;&gt;dependency4605 -->
<g id="edge3" class="edge">
<title>id:e&#45;&gt;dependency4605:w</title>
<path fill="none" stroke="black" d="M462.5,-284C529.5,-258.24 542.53,-340.63 608.82,-348.42"/>
<polygon fill="black" stroke="black" points="619,-349 608.76,-352.92 614.01,-348.71 609.02,-348.43 609.02,-348.43 609.02,-348.43 614.01,-348.71 609.27,-343.93 619,-349 619,-349"/>
</g>
<!-- dependency4606 -->
<g id="node5" class="node">
<title>dependency4606</title>
<polygon fill="none" stroke="blue" points="627,-164 627,-274 732,-274 732,-164 627,-164"/>
<text text-anchor="start" x="657.82" y="-216" font-family="Helvetica,sans-Serif" font-size="10.00">pack_dep</text>
<polygon fill="none" stroke="blue" points="732,-252 732,-274 842,-274 842,-252 732,-252"/>
<text text-anchor="start" x="781.44" y="-260" font-family="Helvetica,sans-Serif" font-size="10.00">no</text>
<polygon fill="none" stroke="blue" points="732,-230 732,-252 842,-252 842,-230 732,-230"/>
<text text-anchor="start" x="767.83" y="-238" font-family="Helvetica,sans-Serif" font-size="10.00">dev&#45;lang</text>
<polygon fill="none" stroke="blue" points="732,-208 732,-230 842,-230 842,-208 732,-208"/>
<text text-anchor="start" x="774.78" y="-216" font-family="Helvetica,sans-Serif" font-size="10.00">nasm</text>
<polygon fill="none" stroke="blue" points="732,-186 732,-208 842,-208 842,-186 732,-186"/>
<text text-anchor="start" x="758.94" y="-194" font-family="Helvetica,sans-Serif" font-size="10.00">greaterequal</text>
<polygon fill="none" stroke="blue" points="732,-164 732,-186 842,-186 842,-164 732,-164"/>
<text text-anchor="start" x="775.88" y="-172" font-family="Helvetica,sans-Serif" font-size="10.00">2.0.7</text>
</g>
<!-- id&#45;&gt;dependency4606 -->
<g id="edge4" class="edge">
<title>id:e&#45;&gt;dependency4606:w</title>
<path fill="none" stroke="black" d="M462.5,-284C529.5,-258.24 542.53,-222.54 608.82,-219.25"/>
<polygon fill="black" stroke="black" points="619,-219 609.11,-223.74 614,-219.12 609,-219.24 609,-219.24 609,-219.24 614,-219.12 608.89,-214.74 619,-219 619,-219"/>
</g>
<!-- dependency4607 -->
<g id="node6" class="node">
<title>dependency4607</title>
<polygon fill="none" stroke="blue" points="627,-28 627,-138 732,-138 732,-28 627,-28"/>
<text text-anchor="start" x="657.82" y="-80" font-family="Helvetica,sans-Serif" font-size="10.00">pack_dep</text>
<polygon fill="none" stroke="blue" points="732,-116 732,-138 842,-138 842,-116 732,-116"/>
<text text-anchor="start" x="781.44" y="-124" font-family="Helvetica,sans-Serif" font-size="10.00">no</text>
<polygon fill="none" stroke="blue" points="732,-94 732,-116 842,-116 842,-94 732,-94"/>
<text text-anchor="start" x="764.22" y="-102" font-family="Helvetica,sans-Serif" font-size="10.00">sys&#45;power</text>
<polygon fill="none" stroke="blue" points="732,-72 732,-94 842,-94 842,-72 732,-72"/>
<text text-anchor="start" x="779.5" y="-80" font-family="Helvetica,sans-Serif" font-size="10.00">iasl</text>
<polygon fill="none" stroke="blue" points="732,-50 732,-72 842,-72 842,-50 732,-50"/>
<text text-anchor="start" x="758.94" y="-58" font-family="Helvetica,sans-Serif" font-size="10.00">greaterequal</text>
<polygon fill="none" stroke="blue" points="732,-28 732,-50 842,-50 842,-28 732,-28"/>
<text text-anchor="start" x="764.76" y="-36" font-family="Helvetica,sans-Serif" font-size="10.00">20160729</text>
</g>
<!-- id&#45;&gt;dependency4607 -->
<g id="edge5" class="edge">
<title>id:e&#45;&gt;dependency4607:w</title>
<path fill="none" stroke="black" d="M462.5,-284C564.87,-244.64 509.52,-92.91 608.89,-83.46"/>
<polygon fill="black" stroke="black" points="619,-83 609.22,-87.95 614.01,-83.23 609.01,-83.46 609.01,-83.46 609.01,-83.46 614.01,-83.23 608.81,-78.96 619,-83 619,-83"/>
<path fill="none" stroke="black" d="M305,-447C405.12,-447 367.05,-319.93 460.5,-284"/>
</g>
<!-- dependency4604 -->
<g id="node3" class="node">
<title>dependency4604</title>
<polygon fill="none" stroke="blue" points="627,-840 627,-938 732,-938 732,-840 627,-840"/>
<text text-anchor="start" x="657.82" y="-886" font-family="Helvetica,sans-Serif" font-size="10.00">pack_dep</text>
<polygon fill="none" stroke="blue" points="732,-916 732,-938 842,-938 842,-916 732,-916"/>
<text text-anchor="start" x="781.44" y="-924" font-family="Helvetica,sans-Serif" font-size="10.00">no</text>
<polygon fill="none" stroke="blue" points="732,-894 732,-916 842,-916 842,-894 732,-894"/>
<text text-anchor="start" x="767.83" y="-902" font-family="Helvetica,sans-Serif" font-size="10.00">dev&#45;lang</text>
<polygon fill="none" stroke="blue" points="732,-872 732,-894 842,-894 842,-872 732,-872"/>
<text text-anchor="start" x="771.99" y="-880" font-family="Helvetica,sans-Serif" font-size="10.00">python</text>
<polygon fill="none" stroke="blue" points="732,-850 732,-872 842,-872 842,-850 732,-850"/>
<text text-anchor="start" x="775.88" y="-858" font-family="Helvetica,sans-Serif" font-size="10.00">none</text>
<polygon fill="none" stroke="blue" points="732,-840 732,-850 842,-850 842,-840 732,-840"/>
</g>
<!-- dependency4603&#45;&gt;dependency4604 -->
<g id="edge1" class="edge">
<title>dependency4603:e&#45;&gt;dependency4604:w</title>
<path fill="none" stroke="black" stroke-dasharray="1,5" d="M511,-611C639.93,-611 494.82,-874 608.76,-888.39"/>
<polygon fill="none" stroke="black" points="618.79,-892.49 609.02,-888.4 619.21,-885.51 618.79,-892.49"/>
</g>
<!-- choice1001011184510897110103471121211161041111104551465746499511250 -->
<g id="node7" class="node">
<title>choice1001011184510897110103471121211161041111104551465746499511250</title>
<g id="a_node7"><a xlink:href="../dev-lang/python-3.9.1_p2.svg" xlink:title="portage://dev&#45;lang/python&#45;3.9.1_p2">
<ellipse fill="none" stroke="red" cx="1107" cy="-1429" rx="144" ry="18"/>
<text text-anchor="middle" x="1107" y="-1426" font-family="Helvetica,sans-Serif" font-size="10.00">portage://dev&#45;lang/python&#45;3.9.1_p2</text>
</a>
</g>
</g>
<!-- dependency4604&#45;&gt;choice1001011184510897110103471121211161041111104551465746499511250 -->
<g id="edge6" class="edge">
<title>dependency4604:e&#45;&gt;choice1001011184510897110103471121211161041111104551465746499511250:w</title>
<path fill="none" stroke="black" stroke-dasharray="1,5" d="M856,-889C1097.12,-889 728.15,-1413.82 951.98,-1428.68"/>
<polygon fill="black" stroke="black" points="962,-1429 951.86,-1433.18 957,-1428.84 952.01,-1428.68 952.01,-1428.68 952.01,-1428.68 957,-1428.84 952.15,-1424.18 962,-1429 962,-1429"/>
</g>
<!-- choice1001011184510897110103471121211161041111104551465746494511449 -->
<g id="node8" class="node">
<title>choice1001011184510897110103471121211161041111104551465746494511449</title>
<g id="a_node8"><a xlink:href="../dev-lang/python-3.9.1-r1.svg" xlink:title="portage://dev&#45;lang/python&#45;3.9.1&#45;r1">
<ellipse fill="none" stroke="red" cx="1107" cy="-1375" rx="144" ry="18"/>
<text text-anchor="middle" x="1107" y="-1372" font-family="Helvetica,sans-Serif" font-size="10.00">portage://dev&#45;lang/python&#45;3.9.1&#45;r1</text>
</a>
</g>
</g>
<!-- dependency4604&#45;&gt;choice1001011184510897110103471121211161041111104551465746494511449 -->
<g id="edge7" class="edge">
<title>dependency4604:e&#45;&gt;choice1001011184510897110103471121211161041111104551465746494511449:w</title>
<path fill="none" stroke="black" stroke-dasharray="1,5" d="M856,-889C1073.52,-889 751.61,-1359.46 951.74,-1374.63"/>
<polygon fill="black" stroke="black" points="962,-1375 951.84,-1379.13 957,-1374.82 952.01,-1374.64 952.01,-1374.64 952.01,-1374.64 957,-1374.82 952.17,-1370.14 962,-1375 962,-1375"/>
</g>
<!-- choice1001011184510897110103471121211161041111104551465746484511449 -->
<g id="node9" class="node">
<title>choice1001011184510897110103471121211161041111104551465746484511449</title>
<g id="a_node9"><a xlink:href="../dev-lang/python-3.9.0-r1.svg" xlink:title="portage://dev&#45;lang/python&#45;3.9.0&#45;r1">
<ellipse fill="none" stroke="red" cx="1107" cy="-1321" rx="144" ry="18"/>
<text text-anchor="middle" x="1107" y="-1318" font-family="Helvetica,sans-Serif" font-size="10.00">portage://dev&#45;lang/python&#45;3.9.0&#45;r1</text>
</a>
</g>
</g>
<!-- dependency4604&#45;&gt;choice1001011184510897110103471121211161041111104551465746484511449 -->
<g id="edge8" class="edge">
<title>dependency4604:e&#45;&gt;choice1001011184510897110103471121211161041111104551465746484511449:w</title>
<path fill="none" stroke="black" stroke-dasharray="1,5" d="M856,-889C1050.12,-889 774.6,-1305.53 951.76,-1320.58"/>
<polygon fill="black" stroke="black" points="962,-1321 951.82,-1325.09 957,-1320.8 952.01,-1320.59 952.01,-1320.59 952.01,-1320.59 957,-1320.8 952.19,-1316.1 962,-1321 962,-1321"/>
</g>
<!-- choice1001011184510897110103471121211161041111104551465646559511250 -->
<g id="node10" class="node">
<title>choice1001011184510897110103471121211161041111104551465646559511250</title>
<g id="a_node10"><a xlink:href="../dev-lang/python-3.8.7_p2.svg" xlink:title="portage://dev&#45;lang/python&#45;3.8.7_p2">
<ellipse fill="none" stroke="red" cx="1107" cy="-1267" rx="144" ry="18"/>
<text text-anchor="middle" x="1107" y="-1264" font-family="Helvetica,sans-Serif" font-size="10.00">portage://dev&#45;lang/python&#45;3.8.7_p2</text>
</a>
</g>
</g>
<!-- dependency4604&#45;&gt;choice1001011184510897110103471121211161041111104551465646559511250 -->
<g id="edge9" class="edge">
<title>dependency4604:e&#45;&gt;choice1001011184510897110103471121211161041111104551465646559511250:w</title>
<path fill="none" stroke="black" stroke-dasharray="1,5" d="M856,-889C1026.9,-889 797.31,-1251.66 951.78,-1266.53"/>
<polygon fill="black" stroke="black" points="962,-1267 951.8,-1271.04 957.01,-1266.77 952.01,-1266.54 952.01,-1266.54 952.01,-1266.54 957.01,-1266.77 952.22,-1262.04 962,-1267 962,-1267"/>
</g>
<!-- choice1001011184510897110103471121211161041111104551465646554511449 -->
<g id="node11" class="node">
<title>choice1001011184510897110103471121211161041111104551465646554511449</title>
<g id="a_node11"><a xlink:href="../dev-lang/python-3.8.7-r1.svg" xlink:title="portage://dev&#45;lang/python&#45;3.8.7&#45;r1">
<ellipse fill="none" stroke="red" cx="1107" cy="-1213" rx="144" ry="18"/>
<text text-anchor="middle" x="1107" y="-1210" font-family="Helvetica,sans-Serif" font-size="10.00">portage://dev&#45;lang/python&#45;3.8.7&#45;r1</text>
</a>
</g>
</g>
<!-- dependency4604&#45;&gt;choice1001011184510897110103471121211161041111104551465646554511449 -->
<g id="edge10" class="edge">
<title>dependency4604:e&#45;&gt;choice1001011184510897110103471121211161041111104551465646554511449:w</title>
<path fill="none" stroke="black" stroke-dasharray="1,5" d="M856,-889C1003.96,-889 819.53,-1197.99 951.91,-1212.47"/>
<polygon fill="black" stroke="black" points="962,-1213 951.78,-1216.97 957.01,-1212.74 952.01,-1212.48 952.01,-1212.48 952.01,-1212.48 957.01,-1212.74 952.25,-1207.99 962,-1213 962,-1213"/>
</g>
<!-- choice1001011184510897110103471121211161041111104551465646544511449 -->
<g id="node12" class="node">
<title>choice1001011184510897110103471121211161041111104551465646544511449</title>
<g id="a_node12"><a xlink:href="../dev-lang/python-3.8.6-r1.svg" xlink:title="portage://dev&#45;lang/python&#45;3.8.6&#45;r1">
<ellipse fill="none" stroke="red" cx="1107" cy="-1159" rx="144" ry="18"/>
<text text-anchor="middle" x="1107" y="-1156" font-family="Helvetica,sans-Serif" font-size="10.00">portage://dev&#45;lang/python&#45;3.8.6&#45;r1</text>
</a>
</g>
</g>
<!-- dependency4604&#45;&gt;choice1001011184510897110103471121211161041111104551465646544511449 -->
<g id="edge11" class="edge">
<title>dependency4604:e&#45;&gt;choice1001011184510897110103471121211161041111104551465646544511449:w</title>
<path fill="none" stroke="black" stroke-dasharray="1,5" d="M856,-889C981.27,-889 841.46,-1143.92 951.71,-1158.36"/>
<polygon fill="black" stroke="black" points="962,-1159 951.74,-1162.87 957.01,-1158.69 952.02,-1158.38 952.02,-1158.38 952.02,-1158.38 957.01,-1158.69 952.3,-1153.89 962,-1159 962,-1159"/>
</g>
<!-- choice1001011184510897110103471121211161041111104551465546579511251 -->
<g id="node13" class="node">
<title>choice1001011184510897110103471121211161041111104551465546579511251</title>
<g id="a_node13"><a xlink:href="../dev-lang/python-3.7.9_p3.svg" xlink:title="portage://dev&#45;lang/python&#45;3.7.9_p3">
<ellipse fill="none" stroke="red" cx="1107" cy="-1105" rx="144" ry="18"/>
<text text-anchor="middle" x="1107" y="-1102" font-family="Helvetica,sans-Serif" font-size="10.00">portage://dev&#45;lang/python&#45;3.7.9_p3</text>
</a>
</g>
</g>
<!-- dependency4604&#45;&gt;choice1001011184510897110103471121211161041111104551465546579511251 -->
<g id="edge12" class="edge">
<title>dependency4604:e&#45;&gt;choice1001011184510897110103471121211161041111104551465546579511251:w</title>
<path fill="none" stroke="black" stroke-dasharray="1,5" d="M856,-889C959.28,-889 862.19,-1090.49 951.77,-1104.26"/>
<polygon fill="black" stroke="black" points="962,-1105 951.7,-1108.77 957.01,-1104.64 952.03,-1104.28 952.03,-1104.28 952.03,-1104.28 957.01,-1104.64 952.35,-1099.79 962,-1105 962,-1105"/>
</g>
<!-- choice1001011184510897110103471121211161041111104551465546574511450 -->
<g id="node14" class="node">
<title>choice1001011184510897110103471121211161041111104551465546574511450</title>
<g id="a_node14"><a xlink:href="../dev-lang/python-3.7.9-r2.svg" xlink:title="portage://dev&#45;lang/python&#45;3.7.9&#45;r2">
<ellipse fill="none" stroke="red" cx="1107" cy="-1051" rx="144" ry="18"/>
<text text-anchor="middle" x="1107" y="-1048" font-family="Helvetica,sans-Serif" font-size="10.00">portage://dev&#45;lang/python&#45;3.7.9&#45;r2</text>
</a>
</g>
</g>
<!-- dependency4604&#45;&gt;choice1001011184510897110103471121211161041111104551465546574511450 -->
<g id="edge13" class="edge">
<title>dependency4604:e&#45;&gt;choice1001011184510897110103471121211161041111104551465546574511450:w</title>
<path fill="none" stroke="black" stroke-dasharray="1,5" d="M856,-889C938.35,-889 881.36,-1037.38 951.73,-1050.13"/>
<polygon fill="black" stroke="black" points="962,-1051 951.66,-1054.64 957.02,-1050.58 952.04,-1050.15 952.04,-1050.15 952.04,-1050.15 957.02,-1050.58 952.42,-1045.67 962,-1051 962,-1051"/>
</g>
<!-- choice1001011184510897110103471121211161041111104551465546574511449 -->
<g id="node15" class="node">
<title>choice1001011184510897110103471121211161041111104551465546574511449</title>
<g id="a_node15"><a xlink:href="../dev-lang/python-3.7.9-r1.svg" xlink:title="portage://dev&#45;lang/python&#45;3.7.9&#45;r1">
<ellipse fill="none" stroke="red" cx="1107" cy="-997" rx="144" ry="18"/>
<text text-anchor="middle" x="1107" y="-994" font-family="Helvetica,sans-Serif" font-size="10.00">portage://dev&#45;lang/python&#45;3.7.9&#45;r1</text>
</a>
</g>
</g>
<!-- dependency4604&#45;&gt;choice1001011184510897110103471121211161041111104551465546574511449 -->
<g id="edge14" class="edge">
<title>dependency4604:e&#45;&gt;choice1001011184510897110103471121211161041111104551465546574511449:w</title>
<path fill="none" stroke="black" stroke-dasharray="1,5" d="M856,-889C919.58,-889 897.58,-985.51 951.79,-996.07"/>
<polygon fill="black" stroke="black" points="962,-997 951.63,-1000.57 957.02,-996.54 952.04,-996.09 952.04,-996.09 952.04,-996.09 957.02,-996.54 952.45,-991.61 962,-997 962,-997"/>
</g>
<!-- choice100101118451089711010347112121116104111110455146544649509511251 -->
<g id="node16" class="node">
<title>choice100101118451089711010347112121116104111110455146544649509511251</title>
<g id="a_node16"><a xlink:href="../dev-lang/python-3.6.12_p3.svg" xlink:title="portage://dev&#45;lang/python&#45;3.6.12_p3">
<ellipse fill="none" stroke="red" cx="1107" cy="-943" rx="144" ry="18"/>
<text text-anchor="middle" x="1107" y="-940" font-family="Helvetica,sans-Serif" font-size="10.00">portage://dev&#45;lang/python&#45;3.6.12_p3</text>
</a>
</g>
</g>
<!-- dependency4604&#45;&gt;choice100101118451089711010347112121116104111110455146544649509511251 -->
<g id="edge15" class="edge">
<title>dependency4604:e&#45;&gt;choice100101118451089711010347112121116104111110455146544649509511251:w</title>
<path fill="none" stroke="black" stroke-dasharray="1,5" d="M856,-889C905.26,-889 908.85,-935.87 951.86,-942.28"/>
<polygon fill="black" stroke="black" points="962,-943 951.71,-946.78 957.01,-942.64 952.03,-942.29 952.03,-942.29 952.03,-942.29 957.01,-942.64 952.35,-937.8 962,-943 962,-943"/>
</g>
<!-- choice100101118451089711010347112121116104111110455146544649504511450 -->
<g id="node17" class="node">
<title>choice100101118451089711010347112121116104111110455146544649504511450</title>
<g id="a_node17"><a xlink:href="../dev-lang/python-3.6.12-r2.svg" xlink:title="portage://dev&#45;lang/python&#45;3.6.12&#45;r2">
<ellipse fill="none" stroke="red" cx="1107" cy="-889" rx="144" ry="18"/>
<text text-anchor="middle" x="1107" y="-886" font-family="Helvetica,sans-Serif" font-size="10.00">portage://dev&#45;lang/python&#45;3.6.12&#45;r2</text>
</a>
</g>
</g>
<!-- dependency4604&#45;&gt;choice100101118451089711010347112121116104111110455146544649504511450 -->
<g id="edge16" class="edge">
<title>dependency4604:e&#45;&gt;choice100101118451089711010347112121116104111110455146544649504511450:w</title>
<path fill="none" stroke="black" stroke-dasharray="1,5" d="M856,-889C899.43,-889 912.83,-889 951.57,-889"/>
<polygon fill="black" stroke="black" points="962,-889 952,-893.5 957,-889 952,-889 952,-889 952,-889 957,-889 952,-884.5 962,-889 962,-889"/>
</g>
<!-- choice100101118451089711010347112121116104111110455146544649504511449 -->
<g id="node18" class="node">
<title>choice100101118451089711010347112121116104111110455146544649504511449</title>
<g id="a_node18"><a xlink:href="../dev-lang/python-3.6.12-r1.svg" xlink:title="portage://dev&#45;lang/python&#45;3.6.12&#45;r1">
<ellipse fill="none" stroke="red" cx="1107" cy="-835" rx="144" ry="18"/>
<text text-anchor="middle" x="1107" y="-832" font-family="Helvetica,sans-Serif" font-size="10.00">portage://dev&#45;lang/python&#45;3.6.12&#45;r1</text>
</a>
</g>
</g>
<!-- dependency4604&#45;&gt;choice100101118451089711010347112121116104111110455146544649504511449 -->
<g id="edge17" class="edge">
<title>dependency4604:e&#45;&gt;choice100101118451089711010347112121116104111110455146544649504511449:w</title>
<path fill="none" stroke="black" stroke-dasharray="1,5" d="M856,-889C905.26,-889 908.85,-842.13 951.86,-835.72"/>
<polygon fill="black" stroke="black" points="962,-835 952.35,-840.2 957.01,-835.36 952.03,-835.71 952.03,-835.71 952.03,-835.71 957.01,-835.36 951.71,-831.22 962,-835 962,-835"/>
</g>
<!-- choice10010111845108971101034711212111610411111045514649484648959710811210497539511249 -->
<g id="node19" class="node">
<title>choice10010111845108971101034711212111610411111045514649484648959710811210497539511249</title>
<g id="a_node19"><a xlink:href="../dev-lang/python-3.10.0_alpha5_p1.svg" xlink:title="portage://dev&#45;lang/python&#45;3.10.0_alpha5_p1">
<ellipse fill="none" stroke="red" cx="1107" cy="-781" rx="144" ry="18"/>
<text text-anchor="middle" x="1107" y="-778" font-family="Helvetica,sans-Serif" font-size="10.00">portage://dev&#45;lang/python&#45;3.10.0_alpha5_p1</text>
</a>
</g>
</g>
<!-- dependency4604&#45;&gt;choice10010111845108971101034711212111610411111045514649484648959710811210497539511249 -->
<g id="edge18" class="edge">
<title>dependency4604:e&#45;&gt;choice10010111845108971101034711212111610411111045514649484648959710811210497539511249:w</title>
<path fill="none" stroke="black" stroke-dasharray="1,5" d="M856,-889C919.58,-889 897.58,-792.49 951.79,-781.93"/>
<polygon fill="black" stroke="black" points="962,-781 952.45,-786.39 957.02,-781.46 952.04,-781.91 952.04,-781.91 952.04,-781.91 957.02,-781.46 951.63,-777.43 962,-781 962,-781"/>
</g>
<!-- choice1001011184510897110103471121211161041111104551464948464895971081121049753 -->
<g id="node20" class="node">
<title>choice1001011184510897110103471121211161041111104551464948464895971081121049753</title>
<g id="a_node20"><a xlink:href="../dev-lang/python-3.10.0_alpha5.svg" xlink:title="portage://dev&#45;lang/python&#45;3.10.0_alpha5">
<ellipse fill="none" stroke="red" cx="1107" cy="-727" rx="144" ry="18"/>
<text text-anchor="middle" x="1107" y="-724" font-family="Helvetica,sans-Serif" font-size="10.00">portage://dev&#45;lang/python&#45;3.10.0_alpha5</text>
</a>
</g>
</g>
<!-- dependency4604&#45;&gt;choice1001011184510897110103471121211161041111104551464948464895971081121049753 -->
<g id="edge19" class="edge">
<title>dependency4604:e&#45;&gt;choice1001011184510897110103471121211161041111104551464948464895971081121049753:w</title>
<path fill="none" stroke="black" stroke-dasharray="1,5" d="M856,-889C938.35,-889 881.36,-740.62 951.73,-727.87"/>
<polygon fill="black" stroke="black" points="962,-727 952.42,-732.33 957.02,-727.42 952.04,-727.85 952.04,-727.85 952.04,-727.85 957.02,-727.42 951.66,-723.36 962,-727 962,-727"/>
</g>
<!-- choice1001011184510897110103471121211161041111104551464948464895971081121049752 -->
<g id="node21" class="node">
<title>choice1001011184510897110103471121211161041111104551464948464895971081121049752</title>
<g id="a_node21"><a xlink:href="../dev-lang/python-3.10.0_alpha4.svg" xlink:title="portage://dev&#45;lang/python&#45;3.10.0_alpha4">
<ellipse fill="none" stroke="red" cx="1107" cy="-673" rx="144" ry="18"/>
<text text-anchor="middle" x="1107" y="-670" font-family="Helvetica,sans-Serif" font-size="10.00">portage://dev&#45;lang/python&#45;3.10.0_alpha4</text>
</a>
</g>
</g>
<!-- dependency4604&#45;&gt;choice1001011184510897110103471121211161041111104551464948464895971081121049752 -->
<g id="edge20" class="edge">
<title>dependency4604:e&#45;&gt;choice1001011184510897110103471121211161041111104551464948464895971081121049752:w</title>
<path fill="none" stroke="black" stroke-dasharray="1,5" d="M856,-889C959.28,-889 862.19,-687.51 951.77,-673.74"/>
<polygon fill="black" stroke="black" points="962,-673 952.35,-678.21 957.01,-673.36 952.03,-673.72 952.03,-673.72 952.03,-673.72 957.01,-673.36 951.7,-669.23 962,-673 962,-673"/>
</g>
<!-- choice10010111845108971101034711212111610411111045514649484648959710811210497514511449 -->
<g id="node22" class="node">
<title>choice10010111845108971101034711212111610411111045514649484648959710811210497514511449</title>
<g id="a_node22"><a xlink:href="../dev-lang/python-3.10.0_alpha3-r1.svg" xlink:title="portage://dev&#45;lang/python&#45;3.10.0_alpha3&#45;r1">
<ellipse fill="none" stroke="red" cx="1107" cy="-619" rx="144" ry="18"/>
<text text-anchor="middle" x="1107" y="-616" font-family="Helvetica,sans-Serif" font-size="10.00">portage://dev&#45;lang/python&#45;3.10.0_alpha3&#45;r1</text>
</a>
</g>
</g>
<!-- dependency4604&#45;&gt;choice10010111845108971101034711212111610411111045514649484648959710811210497514511449 -->
<g id="edge21" class="edge">
<title>dependency4604:e&#45;&gt;choice10010111845108971101034711212111610411111045514649484648959710811210497514511449:w</title>
<path fill="none" stroke="black" stroke-dasharray="1,5" d="M856,-889C981.27,-889 841.46,-634.08 951.71,-619.64"/>
<polygon fill="black" stroke="black" points="962,-619 952.3,-624.11 957.01,-619.31 952.02,-619.62 952.02,-619.62 952.02,-619.62 957.01,-619.31 951.74,-615.13 962,-619 962,-619"/>
</g>
<!-- choice100101118451089711010347112121116104111110455046554649569511255 -->
<g id="node23" class="node">
<title>choice100101118451089711010347112121116104111110455046554649569511255</title>
<g id="a_node23"><a xlink:href="../dev-lang/python-2.7.18_p7.svg" xlink:title="portage://dev&#45;lang/python&#45;2.7.18_p7">
<ellipse fill="none" stroke="red" cx="1107" cy="-565" rx="144" ry="18"/>
<text text-anchor="middle" x="1107" y="-562" font-family="Helvetica,sans-Serif" font-size="10.00">portage://dev&#45;lang/python&#45;2.7.18_p7</text>
</a>
</g>
</g>
<!-- dependency4604&#45;&gt;choice100101118451089711010347112121116104111110455046554649569511255 -->
<g id="edge22" class="edge">
<title>dependency4604:e&#45;&gt;choice100101118451089711010347112121116104111110455046554649569511255:w</title>
<path fill="none" stroke="black" stroke-dasharray="1,5" d="M856,-889C1003.96,-889 819.53,-580.01 951.91,-565.53"/>
<polygon fill="black" stroke="black" points="962,-565 952.25,-570.01 957.01,-565.26 952.01,-565.52 952.01,-565.52 952.01,-565.52 957.01,-565.26 951.78,-561.03 962,-565 962,-565"/>
</g>
<!-- choice100101118451089711010347112121116104111110455046554649564511454 -->
<g id="node24" class="node">
<title>choice100101118451089711010347112121116104111110455046554649564511454</title>
<g id="a_node24"><a xlink:href="../dev-lang/python-2.7.18-r6.svg" xlink:title="portage://dev&#45;lang/python&#45;2.7.18&#45;r6">
<ellipse fill="none" stroke="red" cx="1107" cy="-511" rx="144" ry="18"/>
<text text-anchor="middle" x="1107" y="-508" font-family="Helvetica,sans-Serif" font-size="10.00">portage://dev&#45;lang/python&#45;2.7.18&#45;r6</text>
</a>
</g>
</g>
<!-- dependency4604&#45;&gt;choice100101118451089711010347112121116104111110455046554649564511454 -->
<g id="edge23" class="edge">
<title>dependency4604:e&#45;&gt;choice100101118451089711010347112121116104111110455046554649564511454:w</title>
<path fill="none" stroke="black" stroke-dasharray="1,5" d="M856,-889C1026.9,-889 797.31,-526.34 951.78,-511.47"/>
<polygon fill="black" stroke="black" points="962,-511 952.22,-515.96 957.01,-511.23 952.01,-511.46 952.01,-511.46 952.01,-511.46 957.01,-511.23 951.8,-506.96 962,-511 962,-511"/>
</g>
<!-- choice100101118451089711010347112121116104111110455046554649564511453 -->
<g id="node25" class="node">
<title>choice100101118451089711010347112121116104111110455046554649564511453</title>
<g id="a_node25"><a xlink:href="../dev-lang/python-2.7.18-r5.svg" xlink:title="portage://dev&#45;lang/python&#45;2.7.18&#45;r5">
<ellipse fill="none" stroke="red" cx="1107" cy="-457" rx="144" ry="18"/>
<text text-anchor="middle" x="1107" y="-454" font-family="Helvetica,sans-Serif" font-size="10.00">portage://dev&#45;lang/python&#45;2.7.18&#45;r5</text>
</a>
</g>
</g>
<!-- dependency4604&#45;&gt;choice100101118451089711010347112121116104111110455046554649564511453 -->
<g id="edge24" class="edge">
<title>dependency4604:e&#45;&gt;choice100101118451089711010347112121116104111110455046554649564511453:w</title>
<path fill="none" stroke="black" stroke-dasharray="1,5" d="M856,-889C1050.12,-889 774.6,-472.47 951.76,-457.42"/>
<polygon fill="black" stroke="black" points="962,-457 952.19,-461.9 957,-457.2 952.01,-457.41 952.01,-457.41 952.01,-457.41 957,-457.2 951.82,-452.91 962,-457 962,-457"/>
</g>
<!-- choice971121124510110911710897116105111110471131011091174557575757 -->
<g id="node26" class="node">
<title>choice971121124510110911710897116105111110471131011091174557575757</title>
<g id="a_node26"><a xlink:href="../app-emulation/qemu-9999.svg" xlink:title="portage://app&#45;emulation/qemu&#45;9999">
<ellipse fill="none" stroke="red" cx="1107" cy="-403" rx="144" ry="18"/>
<text text-anchor="middle" x="1107" y="-400" font-family="Helvetica,sans-Serif" font-size="10.00">portage://app&#45;emulation/qemu&#45;9999</text>
</a>
</g>
</g>
<!-- dependency4605&#45;&gt;choice971121124510110911710897116105111110471131011091174557575757 -->
<g id="edge25" class="edge">
<title>dependency4605:e&#45;&gt;choice971121124510110911710897116105111110471131011091174557575757:w</title>
<path fill="none" stroke="black" stroke-dasharray="1,5" d="M856,-349C905.26,-349 908.85,-395.87 951.86,-402.28"/>
<polygon fill="black" stroke="black" points="962,-403 951.71,-406.78 957.01,-402.64 952.03,-402.29 952.03,-402.29 952.03,-402.29 957.01,-402.64 952.35,-397.8 962,-403 962,-403"/>
</g>
<!-- choice971121124510110911710897116105111110471131011091174553465046484511450 -->
<g id="node27" class="node">
<title>choice971121124510110911710897116105111110471131011091174553465046484511450</title>
<g id="a_node27"><a xlink:href="../app-emulation/qemu-5.2.0-r2.svg" xlink:title="portage://app&#45;emulation/qemu&#45;5.2.0&#45;r2">
<ellipse fill="none" stroke="red" cx="1107" cy="-349" rx="144" ry="18"/>
<text text-anchor="middle" x="1107" y="-346" font-family="Helvetica,sans-Serif" font-size="10.00">portage://app&#45;emulation/qemu&#45;5.2.0&#45;r2</text>
</a>
</g>
</g>
<!-- dependency4605&#45;&gt;choice971121124510110911710897116105111110471131011091174553465046484511450 -->
<g id="edge26" class="edge">
<title>dependency4605:e&#45;&gt;choice971121124510110911710897116105111110471131011091174553465046484511450:w</title>
<path fill="none" stroke="black" stroke-dasharray="1,5" d="M856,-349C899.43,-349 912.83,-349 951.57,-349"/>
<polygon fill="black" stroke="black" points="962,-349 952,-353.5 957,-349 952,-349 952,-349 952,-349 957,-349 952,-344.5 962,-349 962,-349"/>
</g>
<!-- choice971121124510110911710897116105111110471131011091174553465046484511449 -->
<g id="node28" class="node">
<title>choice971121124510110911710897116105111110471131011091174553465046484511449</title>
<g id="a_node28"><a xlink:href="../app-emulation/qemu-5.2.0-r1.svg" xlink:title="portage://app&#45;emulation/qemu&#45;5.2.0&#45;r1">
<ellipse fill="none" stroke="red" cx="1107" cy="-295" rx="144" ry="18"/>
<text text-anchor="middle" x="1107" y="-292" font-family="Helvetica,sans-Serif" font-size="10.00">portage://app&#45;emulation/qemu&#45;5.2.0&#45;r1</text>
</a>
</g>
</g>
<!-- dependency4605&#45;&gt;choice971121124510110911710897116105111110471131011091174553465046484511449 -->
<g id="edge27" class="edge">
<title>dependency4605:e&#45;&gt;choice971121124510110911710897116105111110471131011091174553465046484511449:w</title>
<path fill="none" stroke="black" stroke-dasharray="1,5" d="M856,-349C905.26,-349 908.85,-302.13 951.86,-295.72"/>
<polygon fill="black" stroke="black" points="962,-295 952.35,-300.2 957.01,-295.36 952.03,-295.71 952.03,-295.71 952.03,-295.71 957.01,-295.36 951.71,-291.22 962,-295 962,-295"/>
</g>
<!-- choice971121124510110911710897116105111110471131011091174553464946484511451 -->
<g id="node29" class="node">
<title>choice971121124510110911710897116105111110471131011091174553464946484511451</title>
<g id="a_node29"><a xlink:href="../app-emulation/qemu-5.1.0-r3.svg" xlink:title="portage://app&#45;emulation/qemu&#45;5.1.0&#45;r3">
<ellipse fill="none" stroke="red" cx="1107" cy="-241" rx="144" ry="18"/>
<text text-anchor="middle" x="1107" y="-238" font-family="Helvetica,sans-Serif" font-size="10.00">portage://app&#45;emulation/qemu&#45;5.1.0&#45;r3</text>
</a>
</g>
</g>
<!-- dependency4605&#45;&gt;choice971121124510110911710897116105111110471131011091174553464946484511451 -->
<g id="edge28" class="edge">
<title>dependency4605:e&#45;&gt;choice971121124510110911710897116105111110471131011091174553464946484511451:w</title>
<path fill="none" stroke="black" stroke-dasharray="1,5" d="M856,-349C919.58,-349 897.58,-252.49 951.79,-241.93"/>
<polygon fill="black" stroke="black" points="962,-241 952.45,-246.39 957.02,-241.46 952.04,-241.91 952.04,-241.91 952.04,-241.91 957.02,-241.46 951.63,-237.43 962,-241 962,-241"/>
</g>
<!-- choice100101118451089711010347110971151094550464953464853 -->
<g id="node30" class="node">
<title>choice100101118451089711010347110971151094550464953464853</title>
<g id="a_node30"><a xlink:href="../dev-lang/nasm-2.15.05.svg" xlink:title="portage://dev&#45;lang/nasm&#45;2.15.05">
<ellipse fill="none" stroke="red" cx="1107" cy="-187" rx="144" ry="18"/>
<text text-anchor="middle" x="1107" y="-184" font-family="Helvetica,sans-Serif" font-size="10.00">portage://dev&#45;lang/nasm&#45;2.15.05</text>
</a>
</g>
</g>
<!-- dependency4606&#45;&gt;choice100101118451089711010347110971151094550464953464853 -->
<g id="edge29" class="edge">
<title>dependency4606:e&#45;&gt;choice100101118451089711010347110971151094550464953464853:w</title>
<path fill="none" stroke="black" stroke-dasharray="1,5" d="M856,-219C901.65,-219 911.48,-191.46 951.95,-187.48"/>
<polygon fill="black" stroke="black" points="962,-187 952.22,-191.97 957.01,-187.24 952.01,-187.47 952.01,-187.47 952.01,-187.47 957.01,-187.24 951.8,-182.98 962,-187 962,-187"/>
</g>
<!-- choice115121115451121111191011144710597115108455048504848554955 -->
<g id="node31" class="node">
<title>choice115121115451121111191011144710597115108455048504848554955</title>
<g id="a_node31"><a xlink:href="../sys-power/iasl-20200717.svg" xlink:title="portage://sys&#45;power/iasl&#45;20200717">
<ellipse fill="none" stroke="red" cx="1107" cy="-133" rx="144" ry="18"/>
<text text-anchor="middle" x="1107" y="-130" font-family="Helvetica,sans-Serif" font-size="10.00">portage://sys&#45;power/iasl&#45;20200717</text>
</a>
</g>
</g>
<!-- dependency4607&#45;&gt;choice115121115451121111191011144710597115108455048504848554955 -->
<g id="edge30" class="edge">
<title>dependency4607:e&#45;&gt;choice115121115451121111191011144710597115108455048504848554955:w</title>
<path fill="none" stroke="black" stroke-dasharray="1,5" d="M856,-83C904.53,-83 909.43,-126.4 951.99,-132.33"/>
<polygon fill="black" stroke="black" points="962,-133 951.72,-136.82 957.01,-132.67 952.02,-132.33 952.02,-132.33 952.02,-132.33 957.01,-132.67 952.32,-127.84 962,-133 962,-133"/>
</g>
<!-- choice115121115451121111191011144710597115108455048504848515054 -->
<g id="node32" class="node">
<title>choice115121115451121111191011144710597115108455048504848515054</title>
<g id="a_node32"><a xlink:href="../sys-power/iasl-20200326.svg" xlink:title="portage://sys&#45;power/iasl&#45;20200326">
<ellipse fill="none" stroke="red" cx="1107" cy="-79" rx="144" ry="18"/>
<text text-anchor="middle" x="1107" y="-76" font-family="Helvetica,sans-Serif" font-size="10.00">portage://sys&#45;power/iasl&#45;20200326</text>
</a>
</g>
</g>
<!-- dependency4607&#45;&gt;choice115121115451121111191011144710597115108455048504848515054 -->
<g id="edge31" class="edge">
<title>dependency4607:e&#45;&gt;choice115121115451121111191011144710597115108455048504848515054:w</title>
<path fill="none" stroke="black" stroke-dasharray="1,5" d="M856,-83C899.46,-83 912.81,-79.6 951.57,-79.07"/>
<polygon fill="black" stroke="black" points="962,-79 952.03,-83.57 957,-79.03 952,-79.07 952,-79.07 952,-79.07 957,-79.03 951.97,-74.57 962,-79 962,-79"/>
</g>
</g>
</svg>
