<?xml version="1.0" encoding="UTF-8" standalone="no"?>
<!DOCTYPE svg PUBLIC "-//W3C//DTD SVG 1.1//EN"
 "http://www.w3.org/Graphics/SVG/1.1/DTD/svg11.dtd">
<!-- Generated by graphviz version 2.41.20171026.1811 (20171026.1811)
 -->
<!-- Title: prolog Pages: 1 -->
<svg width="1339pt" height="472pt"
 viewBox="0.00 0.00 1339.26 472.00" xmlns="http://www.w3.org/2000/svg" xmlns:xlink="http://www.w3.org/1999/xlink">
<g id="graph0" class="graph" transform="scale(1 1) rotate(0) translate(4 468)">
<title>prolog</title>
<polygon fill="white" stroke="transparent" points="-4,4 -4,-468 1335.26,-468 1335.26,4 -4,4"/>
<g id="clust1" class="cluster">
<title>cluster_leftcol</title>
<polygon fill="none" stroke="gray" points="8,-180 8,-250 321.26,-250 321.26,-180 8,-180"/>
<text text-anchor="start" x="151.28" y="-239" font-family="Helvetica,sans-Serif" font-style="italic" font-size="10.00">ebuild</text>
</g>
<g id="clust2" class="cluster">
<title>cluster_midcol</title>
<polygon fill="none" stroke="gray" points="405.26,-53 405.26,-369 935.26,-369 935.26,-53 405.26,-53"/>
<text text-anchor="start" x="639.12" y="-358" font-family="Helvetica,sans-Serif" font-style="italic" font-size="10.00">dependencies</text>
</g>
<g id="clust3" class="cluster">
<title>cluster_compile</title>
<polygon fill="#eeeeee" stroke="gray" points="413.26,-211 413.26,-343 927.26,-343 927.26,-211 413.26,-211"/>
<text text-anchor="start" x="653.03" y="-332" font-family="Helvetica,sans-Serif" font-style="italic" font-size="10.00">compile</text>
</g>
<g id="clust7" class="cluster">
<title>cluster_run</title>
<polygon fill="#eeeeee" stroke="gray" points="675.26,-61 675.26,-203 927.26,-203 927.26,-61 675.26,-61"/>
<text text-anchor="start" x="794.03" y="-192" font-family="Helvetica,sans-Serif" font-style="italic" font-size="10.00">run</text>
</g>
<g id="clust9" class="cluster">
<title>cluster_choices</title>
<polygon fill="none" stroke="gray" points="1019.26,-8 1019.26,-456 1323.26,-456 1323.26,-8 1019.26,-8"/>
<text text-anchor="start" x="1147.07" y="-445" font-family="Helvetica,sans-Serif" font-style="italic" font-size="10.00">candidates</text>
</g>
<!-- id -->
<g id="node1" class="node">
<title>id</title>
<g id="a_node1"><a xlink:href="../sys-firmware/intel-microcode-20171117_p20171215-r1.svg" xlink:title="sys&#45;firmware/intel&#45;microcode&#45;20171117_p20171215&#45;r1">
<ellipse fill="none" stroke="red" cx="164.63" cy="-206" rx="148.76" ry="18"/>
<text text-anchor="middle" x="164.63" y="-203" font-family="Helvetica,sans-Serif" font-size="10.00">sys&#45;firmware/intel&#45;microcode&#45;20171117_p20171215&#45;r1</text>
</a>
</g>
</g>
<!-- dependency7348 -->
<g id="node2" class="node">
<title>dependency7348</title>
<polygon fill="none" stroke="red" points="429.26,-235 429.26,-275 520.26,-275 520.26,-235 429.26,-235"/>
<text text-anchor="start" x="440.01" y="-252" font-family="Helvetica,sans-Serif" font-size="10.00">use_conditional</text>
<polygon fill="none" stroke="red" points="520.26,-255 520.26,-275 567.26,-275 567.26,-255 520.26,-255"/>
<text text-anchor="start" x="526.8" y="-262" font-family="Helvetica,sans-Serif" font-size="10.00">positive</text>
<polygon fill="none" stroke="red" points="520.26,-235 520.26,-255 567.26,-255 567.26,-235 520.26,-235"/>
<text text-anchor="start" x="524.86" y="-242" font-family="Helvetica,sans-Serif" font-size="10.00">initramfs</text>
</g>
<!-- id&#45;&gt;dependency7348 -->
<g id="edge2" class="edge">
<title>id:e&#45;&gt;dependency7348:w</title>
<path fill="none" stroke="black" d="M314.63,-206C362.74,-206 367.96,-248.35 410.04,-254.31"/>
<polygon fill="black" stroke="black" points="420.26,-255 409.97,-258.81 415.27,-254.66 410.28,-254.32 410.28,-254.32 410.28,-254.32 415.27,-254.66 410.58,-249.83 420.26,-255 420.26,-255"/>
</g>
<!-- dependency7350 -->
<g id="node4" class="node">
<title>dependency7350</title>
<polygon fill="none" stroke="blue" points="691.26,-73 691.26,-173 796.26,-173 796.26,-73 691.26,-73"/>
<text text-anchor="start" x="722.07" y="-120" font-family="Helvetica,sans-Serif" font-size="10.00">pack_dep</text>
<polygon fill="none" stroke="blue" points="796.26,-153 796.26,-173 906.26,-173 906.26,-153 796.26,-153"/>
<text text-anchor="start" x="839.58" y="-160" font-family="Helvetica,sans-Serif" font-size="10.00">weak</text>
<polygon fill="none" stroke="blue" points="796.26,-133 796.26,-153 906.26,-153 906.26,-133 796.26,-133"/>
<text text-anchor="start" x="831.25" y="-140" font-family="Helvetica,sans-Serif" font-size="10.00">sys&#45;apps</text>
<polygon fill="none" stroke="blue" points="796.26,-113 796.26,-133 906.26,-133 906.26,-113 796.26,-113"/>
<text text-anchor="start" x="821.53" y="-120" font-family="Helvetica,sans-Serif" font-size="10.00">microcode&#45;ctl</text>
<polygon fill="none" stroke="blue" points="796.26,-93 796.26,-113 906.26,-113 906.26,-93 796.26,-93"/>
<text text-anchor="start" x="835.14" y="-100" font-family="Helvetica,sans-Serif" font-size="10.00">smaller</text>
<polygon fill="none" stroke="blue" points="796.26,-73 796.26,-93 906.26,-93 906.26,-73 796.26,-73"/>
<text text-anchor="start" x="835.41" y="-80" font-family="Helvetica,sans-Serif" font-size="10.00">1.17&#45;r2</text>
</g>
<!-- id&#45;&gt;dependency7350 -->
<g id="edge3" class="edge">
<title>id:e&#45;&gt;dependency7350:w</title>
<path fill="none" stroke="black" d="M314.63,-206C479.35,-206 513.63,-125.73 674.02,-123.07"/>
<ellipse fill="none" stroke="black" cx="678.26" cy="-123.03" rx="4" ry="4"/>
</g>
<!-- dependency7349 -->
<g id="node3" class="node">
<title>dependency7349</title>
<polygon fill="none" stroke="blue" points="691.26,-223 691.26,-313 796.26,-313 796.26,-223 691.26,-223"/>
<text text-anchor="start" x="722.07" y="-265" font-family="Helvetica,sans-Serif" font-size="10.00">pack_dep</text>
<polygon fill="none" stroke="blue" points="796.26,-293 796.26,-313 906.26,-313 906.26,-293 796.26,-293"/>
<text text-anchor="start" x="845.69" y="-300" font-family="Helvetica,sans-Serif" font-size="10.00">no</text>
<polygon fill="none" stroke="blue" points="796.26,-273 796.26,-293 906.26,-293 906.26,-273 796.26,-273"/>
<text text-anchor="start" x="831.25" y="-280" font-family="Helvetica,sans-Serif" font-size="10.00">sys&#45;apps</text>
<polygon fill="none" stroke="blue" points="796.26,-253 796.26,-273 906.26,-273 906.26,-253 796.26,-253"/>
<text text-anchor="start" x="825.68" y="-260" font-family="Helvetica,sans-Serif" font-size="10.00">iucode_tool</text>
<polygon fill="none" stroke="blue" points="796.26,-233 796.26,-253 906.26,-253 906.26,-233 796.26,-233"/>
<text text-anchor="start" x="840.13" y="-240" font-family="Helvetica,sans-Serif" font-size="10.00">none</text>
<polygon fill="none" stroke="blue" points="796.26,-223 796.26,-233 906.26,-233 906.26,-223 796.26,-223"/>
</g>
<!-- dependency7348&#45;&gt;dependency7349 -->
<g id="edge1" class="edge">
<title>dependency7348:e&#45;&gt;dependency7349:w</title>
<path fill="none" stroke="black" stroke-dasharray="5,2" d="M575.26,-255C619.61,-255 632.49,-266.14 672.17,-267.8"/>
<polygon fill="black" stroke="black" points="682.26,-268 672.17,-272.3 677.26,-267.9 672.26,-267.8 672.26,-267.8 672.26,-267.8 677.26,-267.9 672.35,-263.3 682.26,-268 682.26,-268"/>
</g>
<!-- choice1151211154597112112115471051179911110010195116111111108455046494649 -->
<g id="node5" class="node">
<title>choice1151211154597112112115471051179911110010195116111111108455046494649</title>
<g id="a_node5"><a xlink:href="../sys-apps/iucode_tool-2.1.1.svg" xlink:title="sys&#45;apps/iucode_tool&#45;2.1.1">
<ellipse fill="none" stroke="red" cx="1171.26" cy="-412" rx="144" ry="18"/>
<text text-anchor="middle" x="1171.26" y="-409" font-family="Helvetica,sans-Serif" font-size="10.00">sys&#45;apps/iucode_tool&#45;2.1.1</text>
</a>
</g>
</g>
<!-- dependency7349&#45;&gt;choice1151211154597112112115471051179911110010195116111111108455046494649 -->
<g id="edge4" class="edge">
<title>dependency7349:e&#45;&gt;choice1151211154597112112115471051179911110010195116111111108455046494649:w</title>
<path fill="none" stroke="black" stroke-dasharray="1,5" d="M920.26,-268C996,-268 951.46,-398.82 1015.93,-411.08"/>
<polygon fill="black" stroke="black" points="1026.26,-412 1015.9,-415.6 1021.28,-411.56 1016.29,-411.11 1016.29,-411.11 1016.29,-411.11 1021.28,-411.56 1016.69,-406.63 1026.26,-412 1026.26,-412"/>
</g>
<!-- choice1151211154597112112115471051179911110010195116111111108455046494650 -->
<g id="node6" class="node">
<title>choice1151211154597112112115471051179911110010195116111111108455046494650</title>
<g id="a_node6"><a xlink:href="../sys-apps/iucode_tool-2.1.2.svg" xlink:title="sys&#45;apps/iucode_tool&#45;2.1.2">
<ellipse fill="none" stroke="red" cx="1171.26" cy="-358" rx="144" ry="18"/>
<text text-anchor="middle" x="1171.26" y="-355" font-family="Helvetica,sans-Serif" font-size="10.00">sys&#45;apps/iucode_tool&#45;2.1.2</text>
</a>
</g>
</g>
<!-- dependency7349&#45;&gt;choice1151211154597112112115471051179911110010195116111111108455046494650 -->
<g id="edge5" class="edge">
<title>dependency7349:e&#45;&gt;choice1151211154597112112115471051179911110010195116111111108455046494650:w</title>
<path fill="none" stroke="black" stroke-dasharray="1,5" d="M920.26,-268C978.44,-268 966.24,-347.76 1016.18,-357.11"/>
<polygon fill="black" stroke="black" points="1026.26,-358 1015.9,-361.6 1021.27,-357.56 1016.29,-357.12 1016.29,-357.12 1016.29,-357.12 1021.27,-357.56 1016.69,-352.64 1026.26,-358 1026.26,-358"/>
</g>
<!-- choice115121115459711211211547105117991111001019511611111110845504650 -->
<g id="node7" class="node">
<title>choice115121115459711211211547105117991111001019511611111110845504650</title>
<g id="a_node7"><a xlink:href="../sys-apps/iucode_tool-2.2.svg" xlink:title="sys&#45;apps/iucode_tool&#45;2.2">
<ellipse fill="none" stroke="red" cx="1171.26" cy="-304" rx="144" ry="18"/>
<text text-anchor="middle" x="1171.26" y="-301" font-family="Helvetica,sans-Serif" font-size="10.00">sys&#45;apps/iucode_tool&#45;2.2</text>
</a>
</g>
</g>
<!-- dependency7349&#45;&gt;choice115121115459711211211547105117991111001019511611111110845504650 -->
<g id="edge6" class="edge">
<title>dependency7349:e&#45;&gt;choice115121115459711211211547105117991111001019511611111110845504650:w</title>
<path fill="none" stroke="black" stroke-dasharray="1,5" d="M920.26,-268C966.41,-268 975.34,-298.98 1016.11,-303.46"/>
<polygon fill="black" stroke="black" points="1026.26,-304 1016.03,-307.97 1021.26,-303.74 1016.27,-303.47 1016.27,-303.47 1016.27,-303.47 1021.26,-303.74 1016.51,-298.98 1026.26,-304 1026.26,-304"/>
</g>
<!-- choice115121115459711211211547105117991111001019511611111110845504651 -->
<g id="node8" class="node">
<title>choice115121115459711211211547105117991111001019511611111110845504651</title>
<g id="a_node8"><a xlink:href="../sys-apps/iucode_tool-2.3.svg" xlink:title="sys&#45;apps/iucode_tool&#45;2.3">
<ellipse fill="none" stroke="red" cx="1171.26" cy="-250" rx="144" ry="18"/>
<text text-anchor="middle" x="1171.26" y="-247" font-family="Helvetica,sans-Serif" font-size="10.00">sys&#45;apps/iucode_tool&#45;2.3</text>
</a>
</g>
</g>
<!-- dependency7349&#45;&gt;choice115121115459711211211547105117991111001019511611111110845504651 -->
<g id="edge7" class="edge">
<title>dependency7349:e&#45;&gt;choice115121115459711211211547105117991111001019511611111110845504651:w</title>
<path fill="none" stroke="black" stroke-dasharray="1,5" d="M920.26,-268C964.49,-268 976.72,-252.57 1016.2,-250.28"/>
<polygon fill="black" stroke="black" points="1026.26,-250 1016.39,-254.78 1021.26,-250.14 1016.26,-250.28 1016.26,-250.28 1016.26,-250.28 1021.26,-250.14 1016.13,-245.78 1026.26,-250 1026.26,-250"/>
</g>
<!-- choice1151211154597112112115471051179911110010195116111111108455046514649 -->
<g id="node9" class="node">
<title>choice1151211154597112112115471051179911110010195116111111108455046514649</title>
<g id="a_node9"><a xlink:href="../sys-apps/iucode_tool-2.3.1.svg" xlink:title="sys&#45;apps/iucode_tool&#45;2.3.1">
<ellipse fill="none" stroke="red" cx="1171.26" cy="-196" rx="144" ry="18"/>
<text text-anchor="middle" x="1171.26" y="-193" font-family="Helvetica,sans-Serif" font-size="10.00">sys&#45;apps/iucode_tool&#45;2.3.1</text>
</a>
</g>
</g>
<!-- dependency7349&#45;&gt;choice1151211154597112112115471051179911110010195116111111108455046514649 -->
<g id="edge8" class="edge">
<title>dependency7349:e&#45;&gt;choice1151211154597112112115471051179911110010195116111111108455046514649:w</title>
<path fill="none" stroke="black" stroke-dasharray="1,5" d="M920.26,-268C973.54,-268 970.05,-204.98 1016.02,-196.86"/>
<polygon fill="black" stroke="black" points="1026.26,-196 1016.67,-201.32 1021.27,-196.42 1016.29,-196.84 1016.29,-196.84 1016.29,-196.84 1021.27,-196.42 1015.91,-192.35 1026.26,-196 1026.26,-196"/>
</g>
<!-- choice115121115459711211211547109105991141119911110010145991161084549465051 -->
<g id="node10" class="node">
<title>choice115121115459711211211547109105991141119911110010145991161084549465051</title>
<g id="a_node10"><a xlink:href="../sys-apps/microcode-ctl-1.23.svg" xlink:title="sys&#45;apps/microcode&#45;ctl&#45;1.23">
<ellipse fill="none" stroke="red" cx="1171.26" cy="-142" rx="144" ry="18"/>
<text text-anchor="middle" x="1171.26" y="-139" font-family="Helvetica,sans-Serif" font-size="10.00">sys&#45;apps/microcode&#45;ctl&#45;1.23</text>
</a>
</g>
</g>
<!-- dependency7350&#45;&gt;choice115121115459711211211547109105991141119911110010145991161084549465051 -->
<g id="edge9" class="edge">
<title>dependency7350:e&#45;&gt;choice115121115459711211211547109105991141119911110010145991161084549465051:w</title>
<path fill="none" stroke="black" stroke-dasharray="1,5" d="M920.26,-123C964.57,-123 976.66,-139.28 1016.19,-141.7"/>
<polygon fill="black" stroke="black" points="1026.26,-142 1016.13,-146.2 1021.26,-141.85 1016.26,-141.7 1016.26,-141.7 1016.26,-141.7 1021.26,-141.85 1016.39,-137.21 1026.26,-142 1026.26,-142"/>
</g>
<!-- choice1151211154597112112115471091059911411199111100101459911610845494650564511450 -->
<g id="node11" class="node">
<title>choice1151211154597112112115471091059911411199111100101459911610845494650564511450</title>
<g id="a_node11"><a xlink:href="../sys-apps/microcode-ctl-1.28-r2.svg" xlink:title="sys&#45;apps/microcode&#45;ctl&#45;1.28&#45;r2">
<ellipse fill="none" stroke="red" cx="1171.26" cy="-88" rx="144" ry="18"/>
<text text-anchor="middle" x="1171.26" y="-85" font-family="Helvetica,sans-Serif" font-size="10.00">sys&#45;apps/microcode&#45;ctl&#45;1.28&#45;r2</text>
</a>
</g>
</g>
<!-- dependency7350&#45;&gt;choice1151211154597112112115471091059911411199111100101459911610845494650564511450 -->
<g id="edge10" class="edge">
<title>dependency7350:e&#45;&gt;choice1151211154597112112115471091059911411199111100101459911610845494650564511450:w</title>
<path fill="none" stroke="black" stroke-dasharray="1,5" d="M920.26,-123C966.28,-123 975.44,-92.88 1016.14,-88.52"/>
<polygon fill="black" stroke="black" points="1026.26,-88 1016.5,-93.01 1021.26,-88.26 1016.27,-88.52 1016.27,-88.52 1016.27,-88.52 1021.26,-88.26 1016.04,-84.02 1026.26,-88 1026.26,-88"/>
</g>
<!-- choice115121115459711211211547109105991141119911110010145991161084549465154 -->
<g id="node12" class="node">
<title>choice115121115459711211211547109105991141119911110010145991161084549465154</title>
<g id="a_node12"><a xlink:href="../sys-apps/microcode-ctl-1.36.svg" xlink:title="sys&#45;apps/microcode&#45;ctl&#45;1.36">
<ellipse fill="none" stroke="red" cx="1171.26" cy="-34" rx="144" ry="18"/>
<text text-anchor="middle" x="1171.26" y="-31" font-family="Helvetica,sans-Serif" font-size="10.00">sys&#45;apps/microcode&#45;ctl&#45;1.36</text>
</a>
</g>
</g>
<!-- dependency7350&#45;&gt;choice115121115459711211211547109105991141119911110010145991161084549465154 -->
<g id="edge11" class="edge">
<title>dependency7350:e&#45;&gt;choice115121115459711211211547109105991141119911110010145991161084549465154:w</title>
<path fill="none" stroke="black" stroke-dasharray="1,5" d="M920.26,-123C978.17,-123 966.47,-44.12 1016.22,-34.88"/>
<polygon fill="black" stroke="black" points="1026.26,-34 1016.69,-39.36 1021.27,-34.44 1016.29,-34.87 1016.29,-34.87 1016.29,-34.87 1021.27,-34.44 1015.9,-30.39 1026.26,-34 1026.26,-34"/>
</g>
</g>
</svg>
