<?xml version="1.0" encoding="UTF-8" standalone="no"?>
<!DOCTYPE svg PUBLIC "-//W3C//DTD SVG 1.1//EN"
 "http://www.w3.org/Graphics/SVG/1.1/DTD/svg11.dtd">
<!-- Generated by graphviz version 9.0.0 (20230911.1827)
 -->
<!-- Title: prolog Pages: 1 -->
<svg width="1071pt" height="496pt"
 viewBox="0.00 0.00 1071.41 496.00" xmlns="http://www.w3.org/2000/svg" xmlns:xlink="http://www.w3.org/1999/xlink">
<g id="graph0" class="graph" transform="scale(1 1) rotate(0) translate(4 492)">
<title>prolog</title>
<polygon fill="white" stroke="none" points="-4,4 -4,-492 1067.41,-492 1067.41,4 -4,4"/>
<g id="clust1" class="cluster">
<title>cluster_leftcol</title>
<polygon fill="none" stroke="gray" points="8,-212 8,-283 312,-283 312,-212 8,-212"/>
<text text-anchor="start" x="147.25" y="-270.5" font-family="Helvetica,sans-Serif" font-style="italic" font-size="10.00">ebuild</text>
</g>
<g id="clust2" class="cluster">
<title>cluster_midcol</title>
<polygon fill="none" stroke="gray" points="396,-8 396,-480 664,-480 664,-8 396,-8"/>
<text text-anchor="start" x="500" y="-467.5" font-family="Helvetica,sans-Serif" font-style="italic" font-size="10.00">dependencies</text>
</g>
<g id="clust3" class="cluster">
<title>cluster_compile</title>
<polygon fill="#eeeeee" stroke="gray" points="404,-173 404,-453 656,-453 656,-173 404,-173"/>
<text text-anchor="start" x="513.13" y="-440.5" font-family="Helvetica,sans-Serif" font-style="italic" font-size="10.00">compile</text>
</g>
<g id="clust7" class="cluster">
<title>cluster_run</title>
<polygon fill="#eeeeee" stroke="gray" points="404,-16 404,-165 656,-165 656,-16 404,-16"/>
<text text-anchor="start" x="523.25" y="-152.5" font-family="Helvetica,sans-Serif" font-style="italic" font-size="10.00">run</text>
</g>
<g id="clust9" class="cluster">
<title>cluster_choices</title>
<polygon fill="none" stroke="gray" points="748,-88 748,-429 1055.41,-429 1055.41,-88 748,-88"/>
<text text-anchor="start" x="878.08" y="-416.5" font-family="Helvetica,sans-Serif" font-style="italic" font-size="10.00">candidates</text>
</g>
<!-- id -->
<g id="node1" class="node">
<title>id</title>
<g id="a_node1"><a xlink:href="../x11-themes/gnome-colors-themes-5.5.1.svg" xlink:title="portage://x11&#45;themes/gnome&#45;colors&#45;themes&#45;5.5.1">
<ellipse fill="none" stroke="red" cx="160" cy="-238" rx="144" ry="18"/>
<text text-anchor="middle" x="160" y="-234.12" font-family="Helvetica,sans-Serif" font-size="10.00">portage://x11&#45;themes/gnome&#45;colors&#45;themes&#45;5.5.1</text>
</a>
</g>
</g>
<!-- dependency465103 -->
<g id="node2" class="node">
<title>dependency465103</title>
<polygon fill="none" stroke="blue" points="420,-316.5 420,-421.5 524,-421.5 524,-316.5 420,-316.5"/>
<text text-anchor="start" x="451" y="-365.12" font-family="Helvetica,sans-Serif" font-size="10.00">pack_dep</text>
<polygon fill="none" stroke="blue" points="524,-400.5 524,-421.5 634,-421.5 634,-400.5 524,-400.5"/>
<text text-anchor="start" x="566.25" y="-407" font-family="Helvetica,sans-Serif" font-size="10.00">install</text>
<polygon fill="none" stroke="blue" points="524,-379.5 524,-400.5 634,-400.5 634,-379.5 524,-379.5"/>
<text text-anchor="start" x="563.25" y="-386" font-family="Helvetica,sans-Serif" font-size="10.00">dev&#45;util</text>
<polygon fill="none" stroke="blue" points="524,-358.5 524,-379.5 634,-379.5 634,-358.5 524,-358.5"/>
<text text-anchor="start" x="543.38" y="-365" font-family="Helvetica,sans-Serif" font-size="10.00">desktop&#45;file&#45;utils</text>
<polygon fill="none" stroke="blue" points="524,-337.5 524,-358.5 634,-358.5 634,-337.5 524,-337.5"/>
<text text-anchor="start" x="568.5" y="-344" font-family="Helvetica,sans-Serif" font-size="10.00">none</text>
<polygon fill="none" stroke="blue" points="524,-316.5 524,-337.5 634,-337.5 634,-316.5 524,-316.5"/>
<text text-anchor="start" x="573" y="-323" font-family="Helvetica,sans-Serif" font-size="10.00">[,,]</text>
</g>
<!-- id&#45;&gt;dependency465103 -->
<g id="edge1" class="edge">
<title>id:e&#45;&gt;dependency465103:w</title>
<path fill="none" stroke="black" d="M305,-238C375.95,-238 340.39,-355.55 400.11,-367.95"/>
<polygon fill="black" stroke="black" points="409.79,-368.88 399.4,-372.4 406.02,-368.52 399.83,-367.92 399.83,-367.92 399.83,-367.92 406.02,-368.52 400.27,-363.44 409.79,-368.88"/>
</g>
<!-- dependency465104 -->
<g id="node3" class="node">
<title>dependency465104</title>
<polygon fill="none" stroke="blue" points="420,-185.5 420,-290.5 524,-290.5 524,-185.5 420,-185.5"/>
<text text-anchor="start" x="451" y="-234.12" font-family="Helvetica,sans-Serif" font-size="10.00">pack_dep</text>
<polygon fill="none" stroke="blue" points="524,-269.5 524,-290.5 634,-290.5 634,-269.5 524,-269.5"/>
<text text-anchor="start" x="566.25" y="-276" font-family="Helvetica,sans-Serif" font-size="10.00">install</text>
<polygon fill="none" stroke="blue" points="524,-248.5 524,-269.5 634,-269.5 634,-248.5 524,-248.5"/>
<text text-anchor="start" x="559.13" y="-255" font-family="Helvetica,sans-Serif" font-size="10.00">x11&#45;misc</text>
<polygon fill="none" stroke="blue" points="524,-227.5 524,-248.5 634,-248.5 634,-227.5 524,-227.5"/>
<text text-anchor="start" x="541.5" y="-234" font-family="Helvetica,sans-Serif" font-size="10.00">shared&#45;mime&#45;info</text>
<polygon fill="none" stroke="blue" points="524,-206.5 524,-227.5 634,-227.5 634,-206.5 524,-206.5"/>
<text text-anchor="start" x="568.5" y="-213" font-family="Helvetica,sans-Serif" font-size="10.00">none</text>
<polygon fill="none" stroke="blue" points="524,-185.5 524,-206.5 634,-206.5 634,-185.5 524,-185.5"/>
<text text-anchor="start" x="573" y="-192" font-family="Helvetica,sans-Serif" font-size="10.00">[,,]</text>
</g>
<!-- id&#45;&gt;dependency465104 -->
<g id="edge2" class="edge">
<title>id:e&#45;&gt;dependency465104:w</title>
<path fill="none" stroke="black" d="M305,-238C348.25,-238 361.72,-238 400.08,-238"/>
<polygon fill="black" stroke="black" points="409.78,-238 399.78,-242.5 406,-238 399.78,-238 399.78,-238 399.78,-238 406,-238 399.78,-233.5 409.78,-238"/>
</g>
<!-- dependency465105 -->
<g id="node4" class="node">
<title>dependency465105</title>
<polygon fill="none" stroke="blue" points="420,-28.5 420,-133.5 524,-133.5 524,-28.5 420,-28.5"/>
<text text-anchor="start" x="451" y="-77.12" font-family="Helvetica,sans-Serif" font-size="10.00">pack_dep</text>
<polygon fill="none" stroke="blue" points="524,-112.5 524,-133.5 634,-133.5 634,-112.5 524,-112.5"/>
<text text-anchor="start" x="572.25" y="-119" font-family="Helvetica,sans-Serif" font-size="10.00">run</text>
<polygon fill="none" stroke="blue" points="524,-91.5 524,-112.5 634,-112.5 634,-91.5 524,-91.5"/>
<text text-anchor="start" x="553.5" y="-98" font-family="Helvetica,sans-Serif" font-size="10.00">x11&#45;themes</text>
<polygon fill="none" stroke="blue" points="524,-70.5 524,-91.5 634,-91.5 634,-70.5 524,-70.5"/>
<text text-anchor="start" x="529.5" y="-77" font-family="Helvetica,sans-Serif" font-size="10.00">gnome&#45;colors&#45;common</text>
<polygon fill="none" stroke="blue" points="524,-49.5 524,-70.5 634,-70.5 634,-49.5 524,-49.5"/>
<text text-anchor="start" x="568.5" y="-56" font-family="Helvetica,sans-Serif" font-size="10.00">none</text>
<polygon fill="none" stroke="blue" points="524,-28.5 524,-49.5 634,-49.5 634,-28.5 524,-28.5"/>
<text text-anchor="start" x="573" y="-35" font-family="Helvetica,sans-Serif" font-size="10.00">[,,]</text>
</g>
<!-- id&#45;&gt;dependency465105 -->
<g id="edge3" class="edge">
<title>id:e&#45;&gt;dependency465105:w</title>
<path fill="none" stroke="black" d="M305,-238C386.07,-238 331.24,-92.44 402.22,-81.63"/>
<ellipse fill="none" stroke="black" cx="406.51" cy="-81.32" rx="4" ry="4"/>
</g>
<!-- choice1001011184511711610510847100101115107116111112451021051081014511711610510811545484650554511449 -->
<g id="node5" class="node">
<title>choice1001011184511711610510847100101115107116111112451021051081014511711610510811545484650554511449</title>
<g id="a_node5"><a xlink:href="../dev-util/desktop-file-utils-0.27-r1.svg" xlink:title="portage://dev&#45;util/desktop&#45;file&#45;utils&#45;0.27&#45;r1">
<ellipse fill="none" stroke="red" cx="901.71" cy="-384" rx="144" ry="18"/>
<text text-anchor="middle" x="901.71" y="-380.12" font-family="Helvetica,sans-Serif" font-size="10.00">portage://dev&#45;util/desktop&#45;file&#45;utils&#45;0.27&#45;r1</text>
</a>
</g>
</g>
<!-- dependency465103&#45;&gt;choice1001011184511711610510847100101115107116111112451021051081014511711610510811545484650554511449 -->
<g id="edge4" class="edge">
<title>dependency465103:e&#45;&gt;choice1001011184511711610510847100101115107116111112451021051081014511711610510811545484650554511449:w</title>
<path fill="none" stroke="black" stroke-dasharray="1,5" d="M649,-369C693.37,-369 706.31,-381.64 745.52,-383.71"/>
<polygon fill="black" stroke="black" points="755.49,-383.97 745.38,-388.21 751.71,-383.87 745.49,-383.71 745.49,-383.71 745.49,-383.71 751.71,-383.87 745.61,-379.21 755.49,-383.97"/>
</g>
<!-- choice100101118451171161051084710010111510711611111245102105108101451171161051081154548465055 -->
<g id="node6" class="node">
<title>choice100101118451171161051084710010111510711611111245102105108101451171161051081154548465055</title>
<g id="a_node6"><a xlink:href="../dev-util/desktop-file-utils-0.27.svg" xlink:title="portage://dev&#45;util/desktop&#45;file&#45;utils&#45;0.27">
<ellipse fill="none" stroke="red" cx="901.71" cy="-330" rx="144" ry="18"/>
<text text-anchor="middle" x="901.71" y="-326.12" font-family="Helvetica,sans-Serif" font-size="10.00">portage://dev&#45;util/desktop&#45;file&#45;utils&#45;0.27</text>
</a>
</g>
</g>
<!-- dependency465103&#45;&gt;choice100101118451171161051084710010111510711611111245102105108101451171161051081154548465055 -->
<g id="edge5" class="edge">
<title>dependency465103:e&#45;&gt;choice100101118451171161051084710010111510711611111245102105108101451171161051081154548465055:w</title>
<path fill="none" stroke="black" stroke-dasharray="1,5" d="M649,-369C695.93,-369 704.6,-335.86 745.55,-330.68"/>
<polygon fill="black" stroke="black" points="755.49,-330.07 745.78,-335.17 751.71,-330.3 745.51,-330.68 745.51,-330.68 745.51,-330.68 751.71,-330.3 745.23,-326.19 755.49,-330.07"/>
</g>
<!-- choice1204949451091051159947115104971141011004510910510910145105110102111455046524511449 -->
<g id="node7" class="node">
<title>choice1204949451091051159947115104971141011004510910510910145105110102111455046524511449</title>
<g id="a_node7"><a xlink:href="../x11-misc/shared-mime-info-2.4-r1.svg" xlink:title="portage://x11&#45;misc/shared&#45;mime&#45;info&#45;2.4&#45;r1">
<ellipse fill="none" stroke="red" cx="901.71" cy="-276" rx="144" ry="18"/>
<text text-anchor="middle" x="901.71" y="-272.12" font-family="Helvetica,sans-Serif" font-size="10.00">portage://x11&#45;misc/shared&#45;mime&#45;info&#45;2.4&#45;r1</text>
</a>
</g>
</g>
<!-- dependency465104&#45;&gt;choice1204949451091051159947115104971141011004510910510910145105110102111455046524511449 -->
<g id="edge6" class="edge">
<title>dependency465104:e&#45;&gt;choice1204949451091051159947115104971141011004510910510910145105110102111455046524511449:w</title>
<path fill="none" stroke="black" stroke-dasharray="1,5" d="M649,-238C695.8,-238 704.71,-270.29 745.58,-275.34"/>
<polygon fill="black" stroke="black" points="755.49,-275.93 745.24,-279.83 751.71,-275.7 745.51,-275.34 745.51,-275.34 745.51,-275.34 751.71,-275.7 745.77,-270.84 755.49,-275.93"/>
</g>
<!-- choice1204949451091051159947115104971141011004510910510910145105110102111455046514511449 -->
<g id="node8" class="node">
<title>choice1204949451091051159947115104971141011004510910510910145105110102111455046514511449</title>
<g id="a_node8"><a xlink:href="../x11-misc/shared-mime-info-2.3-r1.svg" xlink:title="portage://x11&#45;misc/shared&#45;mime&#45;info&#45;2.3&#45;r1">
<ellipse fill="none" stroke="red" cx="901.71" cy="-222" rx="144" ry="18"/>
<text text-anchor="middle" x="901.71" y="-218.12" font-family="Helvetica,sans-Serif" font-size="10.00">portage://x11&#45;misc/shared&#45;mime&#45;info&#45;2.3&#45;r1</text>
</a>
</g>
</g>
<!-- dependency465104&#45;&gt;choice1204949451091051159947115104971141011004510910510910145105110102111455046514511449 -->
<g id="edge7" class="edge">
<title>dependency465104:e&#45;&gt;choice1204949451091051159947115104971141011004510910510910145105110102111455046514511449:w</title>
<path fill="none" stroke="black" stroke-dasharray="1,5" d="M649,-238C693.42,-238 706.27,-224.52 745.51,-222.31"/>
<polygon fill="black" stroke="black" points="755.49,-222.03 745.61,-226.8 751.71,-222.14 745.49,-222.31 745.49,-222.31 745.49,-222.31 751.71,-222.14 745.37,-217.81 755.49,-222.03"/>
</g>
<!-- choice120494945109105115994711510497114101100451091051091014510511010211145504650 -->
<g id="node9" class="node">
<title>choice120494945109105115994711510497114101100451091051091014510511010211145504650</title>
<g id="a_node9"><a xlink:href="../x11-misc/shared-mime-info-2.2.svg" xlink:title="portage://x11&#45;misc/shared&#45;mime&#45;info&#45;2.2">
<ellipse fill="none" stroke="red" cx="901.71" cy="-168" rx="144" ry="18"/>
<text text-anchor="middle" x="901.71" y="-164.12" font-family="Helvetica,sans-Serif" font-size="10.00">portage://x11&#45;misc/shared&#45;mime&#45;info&#45;2.2</text>
</a>
</g>
</g>
<!-- dependency465104&#45;&gt;choice120494945109105115994711510497114101100451091051091014510511010211145504650 -->
<g id="edge8" class="edge">
<title>dependency465104:e&#45;&gt;choice120494945109105115994711510497114101100451091051091014510511010211145504650:w</title>
<path fill="none" stroke="black" stroke-dasharray="1,5" d="M649,-238C702.08,-238 700.21,-177.5 745.56,-168.99"/>
<polygon fill="black" stroke="black" points="755.49,-168.11 745.93,-173.47 751.72,-168.44 745.53,-168.99 745.53,-168.99 745.53,-168.99 751.72,-168.44 745.13,-164.51 755.49,-168.11"/>
</g>
<!-- choice12049494511610410110910111547103110111109101459911110811111411545991111091091111104553465346494511449 -->
<g id="node10" class="node">
<title>choice12049494511610410110910111547103110111109101459911110811111411545991111091091111104553465346494511449</title>
<g id="a_node10"><a xlink:href="../x11-themes/gnome-colors-common-5.5.1-r1.svg" xlink:title="portage://x11&#45;themes/gnome&#45;colors&#45;common&#45;5.5.1&#45;r1">
<ellipse fill="none" stroke="red" cx="901.71" cy="-114" rx="145.71" ry="18"/>
<text text-anchor="middle" x="901.71" y="-110.12" font-family="Helvetica,sans-Serif" font-size="10.00">portage://x11&#45;themes/gnome&#45;colors&#45;common&#45;5.5.1&#45;r1</text>
</a>
</g>
</g>
<!-- dependency465105&#45;&gt;choice12049494511610410110910111547103110111109101459911110811111411545991111091091111104553465346494511449 -->
<g id="edge9" class="edge">
<title>dependency465105:e&#45;&gt;choice12049494511610410110910111547103110111109101459911110811111411545991111091091111104553465346494511449:w</title>
<path fill="none" stroke="black" stroke-dasharray="1,5" d="M649,-81C694.28,-81 704.06,-108.93 743.65,-113.4"/>
<polygon fill="black" stroke="black" points="753.49,-113.93 743.26,-117.88 749.71,-113.73 743.5,-113.39 743.5,-113.39 743.5,-113.39 749.71,-113.73 743.75,-108.9 753.49,-113.93"/>
</g>
</g>
</svg>
