<?xml version="1.0" encoding="UTF-8" standalone="no"?>
<!DOCTYPE svg PUBLIC "-//W3C//DTD SVG 1.1//EN"
 "http://www.w3.org/Graphics/SVG/1.1/DTD/svg11.dtd">
<!-- Generated by graphviz version 12.0.0 (20240704.0754)
 -->
<!-- Title: prolog Pages: 1 -->
<svg width="1068pt" height="920pt"
 viewBox="0.00 0.00 1068.00 920.00" xmlns="http://www.w3.org/2000/svg" xmlns:xlink="http://www.w3.org/1999/xlink">
<g id="graph0" class="graph" transform="scale(1 1) rotate(0) translate(4 916)">
<title>prolog</title>
<polygon fill="white" stroke="none" points="-4,4 -4,-916 1064,-916 1064,4 -4,4"/>
<g id="clust1" class="cluster">
<title>cluster_leftcol</title>
<polygon fill="none" stroke="gray" points="8,-397 8,-469 312,-469 312,-397 8,-397"/>
<text text-anchor="start" x="147.25" y="-456.5" font-family="Helvetica,sans-Serif" font-style="italic" font-size="10.00">ebuild</text>
</g>
<g id="clust2" class="cluster">
<title>cluster_midcol</title>
<polygon fill="none" stroke="gray" points="396,-8 396,-904 664,-904 664,-8 396,-8"/>
<text text-anchor="start" x="500" y="-891.5" font-family="Helvetica,sans-Serif" font-style="italic" font-size="10.00">dependencies</text>
</g>
<g id="clust3" class="cluster">
<title>cluster_compile</title>
<polygon fill="#eeeeee" stroke="gray" points="404,-16 404,-578 656,-578 656,-16 404,-16"/>
<text text-anchor="start" x="513.12" y="-565.5" font-family="Helvetica,sans-Serif" font-style="italic" font-size="10.00">compile</text>
</g>
<g id="clust9" class="cluster">
<title>cluster_run</title>
<polygon fill="#eeeeee" stroke="gray" points="404,-586 404,-876 656,-876 656,-586 404,-586"/>
<text text-anchor="start" x="523.25" y="-863.5" font-family="Helvetica,sans-Serif" font-style="italic" font-size="10.00">run</text>
</g>
<g id="clust12" class="cluster">
<title>cluster_choices</title>
<polygon fill="none" stroke="gray" points="748,-59 748,-617 1052,-617 1052,-59 748,-59"/>
<text text-anchor="start" x="876.38" y="-604.5" font-family="Helvetica,sans-Serif" font-style="italic" font-size="10.00">candidates</text>
</g>
<!-- id -->
<g id="node1" class="node">
<title>id</title>
<g id="a_node1"><a xlink:href="../x11-themes/greybird-3.22.14.svg" xlink:title="portage://x11&#45;themes/greybird&#45;3.22.14">
<ellipse fill="none" stroke="red" cx="160" cy="-423" rx="144" ry="18"/>
<text text-anchor="middle" x="160" y="-419.5" font-family="Helvetica,sans-Serif" font-size="10.00">portage://x11&#45;themes/greybird&#45;3.22.14</text>
</a>
</g>
</g>
<!-- dependency465211 -->
<g id="node2" class="node">
<title>dependency465211</title>
<polygon fill="none" stroke="blue" points="420,-28 420,-138 524,-138 524,-28 420,-28"/>
<text text-anchor="start" x="451" y="-79.5" font-family="Helvetica,sans-Serif" font-size="10.00">pack_dep</text>
<polygon fill="none" stroke="blue" points="524,-116 524,-138 634,-138 634,-116 524,-116"/>
<text text-anchor="start" x="566.25" y="-123.5" font-family="Helvetica,sans-Serif" font-size="10.00">install</text>
<polygon fill="none" stroke="blue" points="524,-94 524,-116 634,-116 634,-94 524,-94"/>
<text text-anchor="start" x="560.62" y="-101.5" font-family="Helvetica,sans-Serif" font-size="10.00">dev&#45;lang</text>
<polygon fill="none" stroke="blue" points="524,-72 524,-94 634,-94 634,-72 524,-72"/>
<text text-anchor="start" x="565.88" y="-79.5" font-family="Helvetica,sans-Serif" font-size="10.00">sassc</text>
<polygon fill="none" stroke="blue" points="524,-50 524,-72 634,-72 634,-50 524,-50"/>
<text text-anchor="start" x="568.5" y="-57.5" font-family="Helvetica,sans-Serif" font-size="10.00">none</text>
<polygon fill="none" stroke="blue" points="524,-28 524,-50 634,-50 634,-28 524,-28"/>
<text text-anchor="start" x="573" y="-35.5" font-family="Helvetica,sans-Serif" font-size="10.00">[,,]</text>
</g>
<!-- id&#45;&gt;dependency465211 -->
<g id="edge1" class="edge">
<title>id:e&#45;&gt;dependency465211:w</title>
<path fill="none" stroke="black" d="M305.23,-423C459.64,-423 262.91,-99.4 400.17,-83.6"/>
<polygon fill="black" stroke="black" points="409.9,-83.07 400.16,-88.11 406.12,-83.27 399.91,-83.61 399.91,-83.61 399.91,-83.61 406.12,-83.27 399.66,-79.12 409.9,-83.07"/>
</g>
<!-- dependency465212 -->
<g id="node3" class="node">
<title>dependency465212</title>
<polygon fill="none" stroke="blue" points="420,-164 420,-274 524,-274 524,-164 420,-164"/>
<text text-anchor="start" x="451" y="-215.5" font-family="Helvetica,sans-Serif" font-size="10.00">pack_dep</text>
<polygon fill="none" stroke="blue" points="524,-252 524,-274 634,-274 634,-252 524,-252"/>
<text text-anchor="start" x="566.25" y="-259.5" font-family="Helvetica,sans-Serif" font-size="10.00">install</text>
<polygon fill="none" stroke="blue" points="524,-230 524,-252 634,-252 634,-230 524,-230"/>
<text text-anchor="start" x="562.12" y="-237.5" font-family="Helvetica,sans-Serif" font-size="10.00">dev&#45;libs</text>
<polygon fill="none" stroke="blue" points="524,-208 524,-230 634,-230 634,-208 524,-208"/>
<text text-anchor="start" x="571.5" y="-215.5" font-family="Helvetica,sans-Serif" font-size="10.00">glib</text>
<polygon fill="none" stroke="blue" points="524,-186 524,-208 634,-208 634,-186 524,-186"/>
<text text-anchor="start" x="568.5" y="-193.5" font-family="Helvetica,sans-Serif" font-size="10.00">none</text>
<polygon fill="none" stroke="blue" points="524,-164 524,-186 634,-186 634,-164 524,-164"/>
<text text-anchor="start" x="573" y="-171.5" font-family="Helvetica,sans-Serif" font-size="10.00">[,,]</text>
</g>
<!-- id&#45;&gt;dependency465212 -->
<g id="edge2" class="edge">
<title>id:e&#45;&gt;dependency465212:w</title>
<path fill="none" stroke="black" d="M305.23,-423C403.39,-423 316.34,-234.63 400.04,-219.91"/>
<polygon fill="black" stroke="black" points="409.9,-219.1 400.3,-224.4 406.13,-219.41 399.93,-219.92 399.93,-219.92 399.93,-219.92 406.13,-219.41 399.56,-215.43 409.9,-219.1"/>
</g>
<!-- dependency465213 -->
<g id="node4" class="node">
<title>dependency465213</title>
<polygon fill="none" stroke="blue" points="420,-300 420,-410 524,-410 524,-300 420,-300"/>
<text text-anchor="start" x="451" y="-351.5" font-family="Helvetica,sans-Serif" font-size="10.00">pack_dep</text>
<polygon fill="none" stroke="blue" points="524,-388 524,-410 634,-410 634,-388 524,-388"/>
<text text-anchor="start" x="566.25" y="-395.5" font-family="Helvetica,sans-Serif" font-size="10.00">install</text>
<polygon fill="none" stroke="blue" points="524,-366 524,-388 634,-388 634,-366 524,-366"/>
<text text-anchor="start" x="562.5" y="-373.5" font-family="Helvetica,sans-Serif" font-size="10.00">x11&#45;libs</text>
<polygon fill="none" stroke="blue" points="524,-344 524,-366 634,-366 634,-344 524,-344"/>
<text text-anchor="start" x="569.25" y="-351.5" font-family="Helvetica,sans-Serif" font-size="10.00">gtk+</text>
<polygon fill="none" stroke="blue" points="524,-322 524,-344 634,-344 634,-322 524,-322"/>
<text text-anchor="start" x="568.5" y="-329.5" font-family="Helvetica,sans-Serif" font-size="10.00">none</text>
<polygon fill="none" stroke="blue" points="524,-300 524,-322 634,-322 634,-300 524,-300"/>
<text text-anchor="start" x="573" y="-307.5" font-family="Helvetica,sans-Serif" font-size="10.00">[,,]</text>
</g>
<!-- id&#45;&gt;dependency465213 -->
<g id="edge3" class="edge">
<title>id:e&#45;&gt;dependency465213:w</title>
<path fill="none" stroke="black" d="M305.23,-423C357.23,-423 355.72,-364.23 400.19,-355.96"/>
<polygon fill="black" stroke="black" points="409.9,-355.11 400.33,-360.47 406.13,-355.44 399.94,-355.98 399.94,-355.98 399.94,-355.98 406.13,-355.44 399.54,-351.5 409.9,-355.11"/>
</g>
<!-- dependency465214 -->
<g id="node5" class="node">
<title>dependency465214</title>
<polygon fill="none" stroke="blue" points="420,-436 420,-546 524,-546 524,-436 420,-436"/>
<text text-anchor="start" x="451" y="-487.5" font-family="Helvetica,sans-Serif" font-size="10.00">pack_dep</text>
<polygon fill="none" stroke="blue" points="524,-524 524,-546 634,-546 634,-524 524,-524"/>
<text text-anchor="start" x="566.25" y="-531.5" font-family="Helvetica,sans-Serif" font-size="10.00">install</text>
<polygon fill="none" stroke="blue" points="524,-502 524,-524 634,-524 634,-502 524,-502"/>
<text text-anchor="start" x="553.88" y="-509.5" font-family="Helvetica,sans-Serif" font-size="10.00">x11&#45;themes</text>
<polygon fill="none" stroke="blue" points="524,-480 524,-502 634,-502 634,-480 524,-480"/>
<text text-anchor="start" x="536.25" y="-487.5" font-family="Helvetica,sans-Serif" font-size="10.00">gtk&#45;engines&#45;murrine</text>
<polygon fill="none" stroke="blue" points="524,-458 524,-480 634,-480 634,-458 524,-458"/>
<text text-anchor="start" x="568.5" y="-465.5" font-family="Helvetica,sans-Serif" font-size="10.00">none</text>
<polygon fill="none" stroke="blue" points="524,-436 524,-458 634,-458 634,-436 524,-436"/>
<text text-anchor="start" x="573" y="-443.5" font-family="Helvetica,sans-Serif" font-size="10.00">[,,]</text>
</g>
<!-- id&#45;&gt;dependency465214 -->
<g id="edge4" class="edge">
<title>id:e&#45;&gt;dependency465214:w</title>
<path fill="none" stroke="black" d="M305.23,-423C357.23,-423 355.72,-481.77 400.19,-490.04"/>
<polygon fill="black" stroke="black" points="409.9,-490.89 399.54,-494.5 406.13,-490.56 399.94,-490.02 399.94,-490.02 399.94,-490.02 406.13,-490.56 400.33,-485.53 409.9,-490.89"/>
</g>
<!-- dependency465215 -->
<g id="node6" class="node">
<title>dependency465215</title>
<polygon fill="none" stroke="blue" points="420,-598 420,-708 524,-708 524,-598 420,-598"/>
<text text-anchor="start" x="451" y="-649.5" font-family="Helvetica,sans-Serif" font-size="10.00">pack_dep</text>
<polygon fill="none" stroke="blue" points="524,-686 524,-708 634,-708 634,-686 524,-686"/>
<text text-anchor="start" x="572.25" y="-693.5" font-family="Helvetica,sans-Serif" font-size="10.00">run</text>
<polygon fill="none" stroke="blue" points="524,-664 524,-686 634,-686 634,-664 524,-664"/>
<text text-anchor="start" x="562.5" y="-671.5" font-family="Helvetica,sans-Serif" font-size="10.00">x11&#45;libs</text>
<polygon fill="none" stroke="blue" points="524,-642 524,-664 634,-664 634,-642 524,-642"/>
<text text-anchor="start" x="569.25" y="-649.5" font-family="Helvetica,sans-Serif" font-size="10.00">gtk+</text>
<polygon fill="none" stroke="blue" points="524,-620 524,-642 634,-642 634,-620 524,-620"/>
<text text-anchor="start" x="568.5" y="-627.5" font-family="Helvetica,sans-Serif" font-size="10.00">none</text>
<polygon fill="none" stroke="blue" points="524,-598 524,-620 634,-620 634,-598 524,-598"/>
<text text-anchor="start" x="573" y="-605.5" font-family="Helvetica,sans-Serif" font-size="10.00">[,,]</text>
</g>
<!-- id&#45;&gt;dependency465215 -->
<g id="edge5" class="edge">
<title>id:e&#45;&gt;dependency465215:w</title>
<path fill="none" stroke="black" d="M305.23,-423C414.69,-423 304.92,-640.59 402.39,-652.49"/>
<ellipse fill="none" stroke="black" cx="406.62" cy="-652.74" rx="4" ry="4"/>
</g>
<!-- dependency465216 -->
<g id="node7" class="node">
<title>dependency465216</title>
<polygon fill="none" stroke="blue" points="420,-734 420,-844 524,-844 524,-734 420,-734"/>
<text text-anchor="start" x="451" y="-785.5" font-family="Helvetica,sans-Serif" font-size="10.00">pack_dep</text>
<polygon fill="none" stroke="blue" points="524,-822 524,-844 634,-844 634,-822 524,-822"/>
<text text-anchor="start" x="572.25" y="-829.5" font-family="Helvetica,sans-Serif" font-size="10.00">run</text>
<polygon fill="none" stroke="blue" points="524,-800 524,-822 634,-822 634,-800 524,-800"/>
<text text-anchor="start" x="553.88" y="-807.5" font-family="Helvetica,sans-Serif" font-size="10.00">x11&#45;themes</text>
<polygon fill="none" stroke="blue" points="524,-778 524,-800 634,-800 634,-778 524,-778"/>
<text text-anchor="start" x="536.25" y="-785.5" font-family="Helvetica,sans-Serif" font-size="10.00">gtk&#45;engines&#45;murrine</text>
<polygon fill="none" stroke="blue" points="524,-756 524,-778 634,-778 634,-756 524,-756"/>
<text text-anchor="start" x="568.5" y="-763.5" font-family="Helvetica,sans-Serif" font-size="10.00">none</text>
<polygon fill="none" stroke="blue" points="524,-734 524,-756 634,-756 634,-734 524,-734"/>
<text text-anchor="start" x="573" y="-741.5" font-family="Helvetica,sans-Serif" font-size="10.00">[,,]</text>
</g>
<!-- id&#45;&gt;dependency465216 -->
<g id="edge6" class="edge">
<title>id:e&#45;&gt;dependency465216:w</title>
<path fill="none" stroke="black" d="M305.23,-423C471.59,-423 249.84,-776.25 402.55,-788.66"/>
<ellipse fill="none" stroke="black" cx="406.62" cy="-788.82" rx="4" ry="4"/>
</g>
<!-- choice1001011184510897110103471159711511599455146544650 -->
<g id="node8" class="node">
<title>choice1001011184510897110103471159711511599455146544650</title>
<g id="a_node8"><a xlink:href="../dev-lang/sassc-3.6.2.svg" xlink:title="portage://dev&#45;lang/sassc&#45;3.6.2">
<ellipse fill="none" stroke="red" cx="900" cy="-85" rx="144" ry="18"/>
<text text-anchor="middle" x="900" y="-81.5" font-family="Helvetica,sans-Serif" font-size="10.00">portage://dev&#45;lang/sassc&#45;3.6.2</text>
</a>
</g>
</g>
<!-- dependency465211&#45;&gt;choice1001011184510897110103471159711511599455146544650 -->
<g id="edge7" class="edge">
<title>dependency465211:e&#45;&gt;choice1001011184510897110103471159711511599455146544650:w</title>
<path fill="none" stroke="black" stroke-dasharray="1,5" d="M648.89,-83C692.09,-83 705.54,-84.69 743.86,-84.96"/>
<polygon fill="black" stroke="black" points="753.55,-85 743.53,-89.46 749.77,-84.98 743.55,-84.96 743.55,-84.96 743.55,-84.96 749.77,-84.98 743.56,-80.46 753.55,-85"/>
</g>
<!-- choice1001011184510810598115471031081059845504655564654 -->
<g id="node9" class="node">
<title>choice1001011184510810598115471031081059845504655564654</title>
<g id="a_node9"><a xlink:href="../dev-libs/glib-2.78.6.svg" xlink:title="portage://dev&#45;libs/glib&#45;2.78.6">
<ellipse fill="none" stroke="red" cx="900" cy="-139" rx="144" ry="18"/>
<text text-anchor="middle" x="900" y="-135.5" font-family="Helvetica,sans-Serif" font-size="10.00">portage://dev&#45;libs/glib&#45;2.78.6</text>
</a>
</g>
</g>
<!-- dependency465212&#45;&gt;choice1001011184510810598115471031081059845504655564654 -->
<g id="edge8" class="edge">
<title>dependency465212:e&#45;&gt;choice1001011184510810598115471031081059845504655564654:w</title>
<path fill="none" stroke="black" stroke-dasharray="1,5" d="M648.89,-219C703.84,-219 697.11,-149.56 743.62,-140.07"/>
<polygon fill="black" stroke="black" points="753.55,-139.12 744.03,-144.55 749.79,-139.48 743.6,-140.07 743.6,-140.07 743.6,-140.07 749.79,-139.48 743.17,-135.59 753.55,-139.12"/>
</g>
<!-- choice10010111845108105981154710310810598455046555646524511449 -->
<g id="node10" class="node">
<title>choice10010111845108105981154710310810598455046555646524511449</title>
<g id="a_node10"><a xlink:href="../dev-libs/glib-2.78.4-r1.svg" xlink:title="portage://dev&#45;libs/glib&#45;2.78.4&#45;r1">
<ellipse fill="none" stroke="red" cx="900" cy="-193" rx="144" ry="18"/>
<text text-anchor="middle" x="900" y="-189.5" font-family="Helvetica,sans-Serif" font-size="10.00">portage://dev&#45;libs/glib&#45;2.78.4&#45;r1</text>
</a>
</g>
</g>
<!-- dependency465212&#45;&gt;choice10010111845108105981154710310810598455046555646524511449 -->
<g id="edge9" class="edge">
<title>dependency465212:e&#45;&gt;choice10010111845108105981154710310810598455046555646524511449:w</title>
<path fill="none" stroke="black" stroke-dasharray="1,5" d="M648.89,-219C693.37,-219 704.57,-197.09 743.59,-193.5"/>
<polygon fill="black" stroke="black" points="753.55,-193.05 743.76,-197.99 749.77,-193.22 743.56,-193.5 743.56,-193.5 743.56,-193.5 749.77,-193.22 743.36,-189 753.55,-193.05"/>
</g>
<!-- choice1001011184510810598115471031081059845504655564651 -->
<g id="node11" class="node">
<title>choice1001011184510810598115471031081059845504655564651</title>
<g id="a_node11"><a xlink:href="../dev-libs/glib-2.78.3.svg" xlink:title="portage://dev&#45;libs/glib&#45;2.78.3">
<ellipse fill="none" stroke="red" cx="900" cy="-247" rx="144" ry="18"/>
<text text-anchor="middle" x="900" y="-243.5" font-family="Helvetica,sans-Serif" font-size="10.00">portage://dev&#45;libs/glib&#45;2.78.3</text>
</a>
</g>
</g>
<!-- dependency465212&#45;&gt;choice1001011184510810598115471031081059845504655564651 -->
<g id="edge10" class="edge">
<title>dependency465212:e&#45;&gt;choice1001011184510810598115471031081059845504655564651:w</title>
<path fill="none" stroke="black" stroke-dasharray="1,5" d="M648.89,-219C693.76,-219 704.51,-242.8 744.05,-246.51"/>
<polygon fill="black" stroke="black" points="753.55,-246.94 743.35,-250.99 749.77,-246.77 743.56,-246.49 743.56,-246.49 743.56,-246.49 749.77,-246.77 743.76,-242 753.55,-246.94"/>
</g>
<!-- choice1001011184510810598115471031081059845504655544652 -->
<g id="node12" class="node">
<title>choice1001011184510810598115471031081059845504655544652</title>
<g id="a_node12"><a xlink:href="../dev-libs/glib-2.76.4.svg" xlink:title="portage://dev&#45;libs/glib&#45;2.76.4">
<ellipse fill="none" stroke="red" cx="900" cy="-301" rx="144" ry="18"/>
<text text-anchor="middle" x="900" y="-297.5" font-family="Helvetica,sans-Serif" font-size="10.00">portage://dev&#45;libs/glib&#45;2.76.4</text>
</a>
</g>
</g>
<!-- dependency465212&#45;&gt;choice1001011184510810598115471031081059845504655544652 -->
<g id="edge11" class="edge">
<title>dependency465212:e&#45;&gt;choice1001011184510810598115471031081059845504655544652:w</title>
<path fill="none" stroke="black" stroke-dasharray="1,5" d="M648.89,-219C704.45,-219 696.67,-290.47 743.83,-299.96"/>
<polygon fill="black" stroke="black" points="753.55,-300.89 743.17,-304.42 749.79,-300.53 743.6,-299.94 743.6,-299.94 743.6,-299.94 749.79,-300.53 744.02,-295.46 753.55,-300.89"/>
</g>
<!-- choice1204949451081059811547103116107434551465052465250 -->
<g id="node13" class="node">
<title>choice1204949451081059811547103116107434551465052465250</title>
<g id="a_node13"><a xlink:href="../x11-libs/gtk+-3.24.42.svg" xlink:title="portage://x11&#45;libs/gtk+&#45;3.24.42">
<ellipse fill="none" stroke="red" cx="900" cy="-463" rx="144" ry="18"/>
<text text-anchor="middle" x="900" y="-459.5" font-family="Helvetica,sans-Serif" font-size="10.00">portage://x11&#45;libs/gtk+&#45;3.24.42</text>
</a>
</g>
</g>
<!-- dependency465213&#45;&gt;choice1204949451081059811547103116107434551465052465250 -->
<g id="edge12" class="edge">
<title>dependency465213:e&#45;&gt;choice1204949451081059811547103116107434551465052465250:w</title>
<path fill="none" stroke="black" stroke-dasharray="1,5" d="M648.89,-355C712.17,-355 690.57,-450.71 743.9,-461.93"/>
<polygon fill="black" stroke="black" points="753.55,-462.88 743.16,-466.38 749.79,-462.51 743.6,-461.9 743.6,-461.9 743.6,-461.9 749.79,-462.51 744.04,-457.42 753.55,-462.88"/>
</g>
<!-- choice1204949451081059811547103116107434551465052465249 -->
<g id="node14" class="node">
<title>choice1204949451081059811547103116107434551465052465249</title>
<g id="a_node14"><a xlink:href="../x11-libs/gtk+-3.24.41.svg" xlink:title="portage://x11&#45;libs/gtk+&#45;3.24.41">
<ellipse fill="none" stroke="red" cx="900" cy="-517" rx="144" ry="18"/>
<text text-anchor="middle" x="900" y="-513.5" font-family="Helvetica,sans-Serif" font-size="10.00">portage://x11&#45;libs/gtk+&#45;3.24.41</text>
</a>
</g>
</g>
<!-- dependency465213&#45;&gt;choice1204949451081059811547103116107434551465052465249 -->
<g id="edge13" class="edge">
<title>dependency465213:e&#45;&gt;choice1204949451081059811547103116107434551465052465249:w</title>
<path fill="none" stroke="black" stroke-dasharray="1,5" d="M648.89,-355C730.87,-355 674.62,-502.17 743.64,-515.97"/>
<polygon fill="black" stroke="black" points="753.55,-516.89 743.18,-520.44 749.79,-516.54 743.6,-515.96 743.6,-515.96 743.6,-515.96 749.79,-516.54 744.01,-511.48 753.55,-516.89"/>
</g>
<!-- choice1204949451081059811547103116107434551465052465153 -->
<g id="node15" class="node">
<title>choice1204949451081059811547103116107434551465052465153</title>
<g id="a_node15"><a xlink:href="../x11-libs/gtk+-3.24.35.svg" xlink:title="portage://x11&#45;libs/gtk+&#45;3.24.35">
<ellipse fill="none" stroke="red" cx="900" cy="-355" rx="144" ry="18"/>
<text text-anchor="middle" x="900" y="-351.5" font-family="Helvetica,sans-Serif" font-size="10.00">portage://x11&#45;libs/gtk+&#45;3.24.35</text>
</a>
</g>
</g>
<!-- dependency465213&#45;&gt;choice1204949451081059811547103116107434551465052465153 -->
<g id="edge14" class="edge">
<title>dependency465213:e&#45;&gt;choice1204949451081059811547103116107434551465052465153:w</title>
<path fill="none" stroke="black" stroke-dasharray="1,5" d="M648.89,-355C692.08,-355 705.54,-355 743.86,-355"/>
<polygon fill="black" stroke="black" points="753.55,-355 743.55,-359.5 749.77,-355 743.55,-355 743.55,-355 743.55,-355 749.77,-355 743.55,-350.5 753.55,-355"/>
</g>
<!-- choice12049494510810598115471031161074345504650524651514511451 -->
<g id="node16" class="node">
<title>choice12049494510810598115471031161074345504650524651514511451</title>
<g id="a_node16"><a xlink:href="../x11-libs/gtk+-2.24.33-r3.svg" xlink:title="portage://x11&#45;libs/gtk+&#45;2.24.33&#45;r3">
<ellipse fill="none" stroke="red" cx="900" cy="-409" rx="144" ry="18"/>
<text text-anchor="middle" x="900" y="-405.5" font-family="Helvetica,sans-Serif" font-size="10.00">portage://x11&#45;libs/gtk+&#45;2.24.33&#45;r3</text>
</a>
</g>
</g>
<!-- dependency465213&#45;&gt;choice12049494510810598115471031161074345504650524651514511451 -->
<g id="edge15" class="edge">
<title>dependency465213:e&#45;&gt;choice12049494510810598115471031161074345504650524651514511451:w</title>
<path fill="none" stroke="black" stroke-dasharray="1,5" d="M648.89,-355C697.79,-355 701.62,-401.28 743.83,-408.15"/>
<polygon fill="black" stroke="black" points="753.55,-408.91 743.23,-412.62 749.78,-408.61 743.58,-408.13 743.58,-408.13 743.58,-408.13 749.78,-408.61 743.93,-403.65 753.55,-408.91"/>
</g>
<!-- choice120494945116104101109101115471031161074510111010310511010111545109117114114105110101454846575646504511451 -->
<g id="node17" class="node">
<title>choice120494945116104101109101115471031161074510111010310511010111545109117114114105110101454846575646504511451</title>
<g id="a_node17"><a xlink:href="../x11-themes/gtk-engines-murrine-0.98.2-r3.svg" xlink:title="portage://x11&#45;themes/gtk&#45;engines&#45;murrine&#45;0.98.2&#45;r3">
<ellipse fill="none" stroke="red" cx="900" cy="-571" rx="144" ry="18"/>
<text text-anchor="middle" x="900" y="-567.5" font-family="Helvetica,sans-Serif" font-size="10.00">portage://x11&#45;themes/gtk&#45;engines&#45;murrine&#45;0.98.2&#45;r3</text>
</a>
</g>
</g>
<!-- dependency465214&#45;&gt;choice120494945116104101109101115471031161074510111010310511010111545109117114114105110101454846575646504511451 -->
<g id="edge16" class="edge">
<title>dependency465214:e&#45;&gt;choice120494945116104101109101115471031161074510111010310511010111545109117114114105110101454846575646504511451:w</title>
<path fill="none" stroke="black" stroke-dasharray="1,5" d="M648.89,-491C703.84,-491 697.11,-560.44 743.62,-569.93"/>
<polygon fill="black" stroke="black" points="753.55,-570.88 743.17,-574.41 749.79,-570.52 743.6,-569.93 743.6,-569.93 743.6,-569.93 749.79,-570.52 744.03,-565.45 753.55,-570.88"/>
</g>
<!-- dependency465215&#45;&gt;choice1204949451081059811547103116107434551465052465250 -->
<g id="edge17" class="edge">
<title>dependency465215:e&#45;&gt;choice1204949451081059811547103116107434551465052465250:w</title>
<path fill="none" stroke="black" stroke-dasharray="1,5" d="M648.89,-653C741.59,-653 664.96,-478.27 743.77,-463.93"/>
<polygon fill="black" stroke="black" points="753.55,-463.1 743.97,-468.43 749.78,-463.42 743.59,-463.95 743.59,-463.95 743.59,-463.95 749.78,-463.42 743.21,-459.46 753.55,-463.1"/>
</g>
<!-- dependency465215&#45;&gt;choice1204949451081059811547103116107434551465052465249 -->
<g id="edge18" class="edge">
<title>dependency465215:e&#45;&gt;choice1204949451081059811547103116107434551465052465249:w</title>
<path fill="none" stroke="black" stroke-dasharray="1,5" d="M648.89,-653C721.45,-653 682.81,-530.97 743.64,-518.09"/>
<polygon fill="black" stroke="black" points="753.55,-517.12 744.04,-522.58 749.79,-517.49 743.6,-518.1 743.6,-518.1 743.6,-518.1 749.79,-517.49 743.16,-513.62 753.55,-517.12"/>
</g>
<!-- dependency465215&#45;&gt;choice1204949451081059811547103116107434551465052465153 -->
<g id="edge19" class="edge">
<title>dependency465215:e&#45;&gt;choice1204949451081059811547103116107434551465052465153:w</title>
<path fill="none" stroke="black" stroke-dasharray="1,5" d="M648.89,-653C785.46,-653 623.88,-371.64 743.57,-355.7"/>
<polygon fill="black" stroke="black" points="753.55,-355.08 743.85,-360.19 749.78,-355.31 743.57,-355.7 743.57,-355.7 743.57,-355.7 749.78,-355.31 743.29,-351.21 753.55,-355.08"/>
</g>
<!-- dependency465215&#45;&gt;choice12049494510810598115471031161074345504650524651514511451 -->
<g id="edge20" class="edge">
<title>dependency465215:e&#45;&gt;choice12049494510810598115471031161074345504650524651514511451:w</title>
<path fill="none" stroke="black" stroke-dasharray="1,5" d="M648.89,-653C763.18,-653 644.95,-424.93 743.79,-409.79"/>
<polygon fill="black" stroke="black" points="753.55,-409.09 743.9,-414.29 749.78,-409.36 743.58,-409.8 743.58,-409.8 743.58,-409.8 749.78,-409.36 743.25,-405.32 753.55,-409.09"/>
</g>
<!-- dependency465216&#45;&gt;choice120494945116104101109101115471031161074510111010310511010111545109117114114105110101454846575646504511451 -->
<g id="edge21" class="edge">
<title>dependency465216:e&#45;&gt;choice120494945116104101109101115471031161074510111010310511010111545109117114114105110101454846575646504511451:w</title>
<path fill="none" stroke="black" stroke-dasharray="1,5" d="M648.89,-789C752.6,-789 654.89,-586.88 743.65,-571.88"/>
<polygon fill="black" stroke="black" points="753.55,-571.1 743.94,-576.37 749.78,-571.39 743.58,-571.88 743.58,-571.88 743.58,-571.88 749.78,-571.39 743.23,-567.4 753.55,-571.1"/>
</g>
</g>
</svg>
