<?xml version="1.0" encoding="UTF-8" standalone="no"?>
<!DOCTYPE svg PUBLIC "-//W3C//DTD SVG 1.1//EN"
 "http://www.w3.org/Graphics/SVG/1.1/DTD/svg11.dtd">
<!-- Generated by graphviz version 2.41.20171026.1811 (20171026.1811)
 -->
<!-- Title: prolog Pages: 1 -->
<svg width="1068pt" height="1368pt"
 viewBox="0.00 0.00 1068.00 1368.00" xmlns="http://www.w3.org/2000/svg" xmlns:xlink="http://www.w3.org/1999/xlink">
<g id="graph0" class="graph" transform="scale(1 1) rotate(0) translate(4 1364)">
<title>prolog</title>
<polygon fill="white" stroke="transparent" points="-4,4 -4,-1364 1064,-1364 1064,4 -4,4"/>
<g id="clust1" class="cluster">
<title>cluster_leftcol</title>
<polygon fill="none" stroke="gray" points="8,-656 8,-728 312,-728 312,-656 8,-656"/>
<text text-anchor="start" x="146.66" y="-716" font-family="Helvetica,sans-Serif" font-style="italic" font-size="10.00">ebuild</text>
</g>
<g id="clust2" class="cluster">
<title>cluster_midcol</title>
<polygon fill="none" stroke="gray" points="396,-8 396,-1352 664,-1352 664,-8 396,-8"/>
<text text-anchor="start" x="498.88" y="-1340" font-family="Helvetica,sans-Serif" font-style="italic" font-size="10.00">dependencies</text>
</g>
<g id="clust3" class="cluster">
<title>cluster_compile</title>
<polygon fill="#eeeeee" stroke="gray" points="404,-550 404,-1324 656,-1324 656,-550 404,-550"/>
<text text-anchor="start" x="512.78" y="-1312" font-family="Helvetica,sans-Serif" font-style="italic" font-size="10.00">compile</text>
</g>
<g id="clust11" class="cluster">
<title>cluster_run</title>
<polygon fill="#eeeeee" stroke="gray" points="404,-16 404,-542 656,-542 656,-16 404,-16"/>
<text text-anchor="start" x="522.78" y="-530" font-family="Helvetica,sans-Serif" font-style="italic" font-size="10.00">run</text>
</g>
<g id="clust16" class="cluster">
<title>cluster_choices</title>
<polygon fill="none" stroke="gray" points="748,-537 748,-1289 1052,-1289 1052,-537 748,-537"/>
<text text-anchor="start" x="875.82" y="-1277" font-family="Helvetica,sans-Serif" font-style="italic" font-size="10.00">candidates</text>
</g>
<!-- id -->
<g id="node1" class="node">
<title>id</title>
<g id="a_node1"><a xlink:href="../x11-terms/st-9999.svg" xlink:title="portage://x11&#45;terms/st&#45;9999">
<ellipse fill="none" stroke="red" cx="160" cy="-682" rx="144" ry="18"/>
<text text-anchor="middle" x="160" y="-679" font-family="Helvetica,sans-Serif" font-size="10.00">portage://x11&#45;terms/st&#45;9999</text>
</a>
</g>
</g>
<!-- dependency7109 -->
<g id="node2" class="node">
<title>dependency7109</title>
<polygon fill="none" stroke="blue" points="420,-822 420,-920 525,-920 525,-822 420,-822"/>
<text text-anchor="start" x="450.82" y="-868" font-family="Helvetica,sans-Serif" font-size="10.00">pack_dep</text>
<polygon fill="none" stroke="blue" points="525,-898 525,-920 635,-920 635,-898 525,-898"/>
<text text-anchor="start" x="574.44" y="-906" font-family="Helvetica,sans-Serif" font-size="10.00">no</text>
<polygon fill="none" stroke="blue" points="525,-876 525,-898 635,-898 635,-876 525,-876"/>
<text text-anchor="start" x="557.22" y="-884" font-family="Helvetica,sans-Serif" font-size="10.00">media&#45;libs</text>
<polygon fill="none" stroke="blue" points="525,-854 525,-876 635,-876 635,-854 525,-854"/>
<text text-anchor="start" x="558.32" y="-862" font-family="Helvetica,sans-Serif" font-size="10.00">fontconfig</text>
<polygon fill="none" stroke="blue" points="525,-832 525,-854 635,-854 635,-832 525,-832"/>
<text text-anchor="start" x="568.88" y="-840" font-family="Helvetica,sans-Serif" font-size="10.00">none</text>
<polygon fill="none" stroke="blue" points="525,-822 525,-832 635,-832 635,-822 525,-822"/>
</g>
<!-- id&#45;&gt;dependency7109 -->
<g id="edge1" class="edge">
<title>id:e&#45;&gt;dependency7109:w</title>
<path fill="none" stroke="black" d="M305,-682C397.74,-682 320.87,-857.23 401.02,-870.24"/>
<polygon fill="black" stroke="black" points="411,-871 400.69,-874.73 406.01,-870.62 401.03,-870.24 401.03,-870.24 401.03,-870.24 406.01,-870.62 401.37,-865.75 411,-871 411,-871"/>
</g>
<!-- dependency7110 -->
<g id="node3" class="node">
<title>dependency7110</title>
<polygon fill="none" stroke="blue" points="420,-562 420,-672 525,-672 525,-562 420,-562"/>
<text text-anchor="start" x="450.82" y="-614" font-family="Helvetica,sans-Serif" font-size="10.00">pack_dep</text>
<polygon fill="none" stroke="blue" points="525,-650 525,-672 635,-672 635,-650 525,-650"/>
<text text-anchor="start" x="574.44" y="-658" font-family="Helvetica,sans-Serif" font-size="10.00">no</text>
<polygon fill="none" stroke="blue" points="525,-628 525,-650 635,-650 635,-628 525,-628"/>
<text text-anchor="start" x="563.34" y="-636" font-family="Helvetica,sans-Serif" font-size="10.00">sys&#45;libs</text>
<polygon fill="none" stroke="blue" points="525,-606 525,-628 635,-628 635,-606 525,-606"/>
<text text-anchor="start" x="562.5" y="-614" font-family="Helvetica,sans-Serif" font-size="10.00">ncurses</text>
<polygon fill="none" stroke="blue" points="525,-584 525,-606 635,-606 635,-584 525,-584"/>
<text text-anchor="start" x="551.94" y="-592" font-family="Helvetica,sans-Serif" font-size="10.00">greaterequal</text>
<polygon fill="none" stroke="blue" points="525,-562 525,-584 635,-584 635,-562 525,-562"/>
<text text-anchor="start" x="573.05" y="-570" font-family="Helvetica,sans-Serif" font-size="10.00">6.0</text>
</g>
<!-- id&#45;&gt;dependency7110 -->
<g id="edge2" class="edge">
<title>id:e&#45;&gt;dependency7110:w</title>
<path fill="none" stroke="black" d="M305,-682C356.7,-682 356.07,-625.11 401.03,-617.78"/>
<polygon fill="black" stroke="black" points="411,-617 401.38,-622.26 406.02,-617.39 401.03,-617.78 401.03,-617.78 401.03,-617.78 406.02,-617.39 400.68,-613.29 411,-617 411,-617"/>
</g>
<!-- dependency7111 -->
<g id="node4" class="node">
<title>dependency7111</title>
<polygon fill="none" stroke="blue" points="420,-1194 420,-1292 525,-1292 525,-1194 420,-1194"/>
<text text-anchor="start" x="450.82" y="-1240" font-family="Helvetica,sans-Serif" font-size="10.00">pack_dep</text>
<polygon fill="none" stroke="blue" points="525,-1270 525,-1292 635,-1292 635,-1270 525,-1270"/>
<text text-anchor="start" x="574.44" y="-1278" font-family="Helvetica,sans-Serif" font-size="10.00">no</text>
<polygon fill="none" stroke="blue" points="525,-1248 525,-1270 635,-1270 635,-1248 525,-1248"/>
<text text-anchor="start" x="566.67" y="-1256" font-family="Helvetica,sans-Serif" font-size="10.00">virtual</text>
<polygon fill="none" stroke="blue" points="525,-1226 525,-1248 635,-1248 635,-1226 525,-1226"/>
<text text-anchor="start" x="558.6" y="-1234" font-family="Helvetica,sans-Serif" font-size="10.00">pkgconfig</text>
<polygon fill="none" stroke="blue" points="525,-1204 525,-1226 635,-1226 635,-1204 525,-1204"/>
<text text-anchor="start" x="568.88" y="-1212" font-family="Helvetica,sans-Serif" font-size="10.00">none</text>
<polygon fill="none" stroke="blue" points="525,-1194 525,-1204 635,-1204 635,-1194 525,-1194"/>
</g>
<!-- id&#45;&gt;dependency7111 -->
<g id="edge3" class="edge">
<title>id:e&#45;&gt;dependency7111:w</title>
<path fill="none" stroke="black" d="M305,-682C555.28,-682 168.11,-1227.77 400.96,-1242.69"/>
<polygon fill="black" stroke="black" points="411,-1243 400.87,-1247.19 406,-1242.84 401,-1242.69 401,-1242.69 401,-1242.69 406,-1242.84 401.14,-1238.19 411,-1243 411,-1243"/>
</g>
<!-- dependency7112 -->
<g id="node5" class="node">
<title>dependency7112</title>
<polygon fill="none" stroke="blue" points="420,-1070 420,-1168 525,-1168 525,-1070 420,-1070"/>
<text text-anchor="start" x="450.82" y="-1116" font-family="Helvetica,sans-Serif" font-size="10.00">pack_dep</text>
<polygon fill="none" stroke="blue" points="525,-1146 525,-1168 635,-1168 635,-1146 525,-1146"/>
<text text-anchor="start" x="574.44" y="-1154" font-family="Helvetica,sans-Serif" font-size="10.00">no</text>
<polygon fill="none" stroke="blue" points="525,-1124 525,-1146 635,-1146 635,-1124 525,-1124"/>
<text text-anchor="start" x="559.44" y="-1132" font-family="Helvetica,sans-Serif" font-size="10.00">x11&#45;base</text>
<polygon fill="none" stroke="blue" points="525,-1102 525,-1124 635,-1124 635,-1102 525,-1102"/>
<text text-anchor="start" x="557.22" y="-1110" font-family="Helvetica,sans-Serif" font-size="10.00">xorg&#45;proto</text>
<polygon fill="none" stroke="blue" points="525,-1080 525,-1102 635,-1102 635,-1080 525,-1080"/>
<text text-anchor="start" x="568.88" y="-1088" font-family="Helvetica,sans-Serif" font-size="10.00">none</text>
<polygon fill="none" stroke="blue" points="525,-1070 525,-1080 635,-1080 635,-1070 525,-1070"/>
</g>
<!-- id&#45;&gt;dependency7112 -->
<g id="edge4" class="edge">
<title>id:e&#45;&gt;dependency7112:w</title>
<path fill="none" stroke="black" d="M305,-682C501.34,-682 221.32,-1103.77 400.91,-1118.6"/>
<polygon fill="black" stroke="black" points="411,-1119 400.83,-1123.1 406,-1118.8 401.01,-1118.6 401.01,-1118.6 401.01,-1118.6 406,-1118.8 401.19,-1114.11 411,-1119 411,-1119"/>
</g>
<!-- dependency7113 -->
<g id="node6" class="node">
<title>dependency7113</title>
<polygon fill="none" stroke="blue" points="420,-946 420,-1044 525,-1044 525,-946 420,-946"/>
<text text-anchor="start" x="450.82" y="-992" font-family="Helvetica,sans-Serif" font-size="10.00">pack_dep</text>
<polygon fill="none" stroke="blue" points="525,-1022 525,-1044 635,-1044 635,-1022 525,-1022"/>
<text text-anchor="start" x="574.44" y="-1030" font-family="Helvetica,sans-Serif" font-size="10.00">no</text>
<polygon fill="none" stroke="blue" points="525,-1000 525,-1022 635,-1022 635,-1000 525,-1000"/>
<text text-anchor="start" x="562.78" y="-1008" font-family="Helvetica,sans-Serif" font-size="10.00">x11&#45;libs</text>
<polygon fill="none" stroke="blue" points="525,-978 525,-1000 635,-1000 635,-978 525,-978"/>
<text text-anchor="start" x="566.11" y="-986" font-family="Helvetica,sans-Serif" font-size="10.00">libX11</text>
<polygon fill="none" stroke="blue" points="525,-956 525,-978 635,-978 635,-956 525,-956"/>
<text text-anchor="start" x="568.88" y="-964" font-family="Helvetica,sans-Serif" font-size="10.00">none</text>
<polygon fill="none" stroke="blue" points="525,-946 525,-956 635,-956 635,-946 525,-946"/>
</g>
<!-- id&#45;&gt;dependency7113 -->
<g id="edge5" class="edge">
<title>id:e&#45;&gt;dependency7113:w</title>
<path fill="none" stroke="black" d="M305,-682C448.29,-682 273.1,-979.9 400.83,-994.45"/>
<polygon fill="black" stroke="black" points="411,-995 400.77,-998.95 406.01,-994.73 401.01,-994.46 401.01,-994.46 401.01,-994.46 406.01,-994.73 401.26,-989.97 411,-995 411,-995"/>
</g>
<!-- dependency7114 -->
<g id="node7" class="node">
<title>dependency7114</title>
<polygon fill="none" stroke="blue" points="420,-698 420,-796 525,-796 525,-698 420,-698"/>
<text text-anchor="start" x="450.82" y="-744" font-family="Helvetica,sans-Serif" font-size="10.00">pack_dep</text>
<polygon fill="none" stroke="blue" points="525,-774 525,-796 635,-796 635,-774 525,-774"/>
<text text-anchor="start" x="574.44" y="-782" font-family="Helvetica,sans-Serif" font-size="10.00">no</text>
<polygon fill="none" stroke="blue" points="525,-752 525,-774 635,-774 635,-752 525,-752"/>
<text text-anchor="start" x="562.78" y="-760" font-family="Helvetica,sans-Serif" font-size="10.00">x11&#45;libs</text>
<polygon fill="none" stroke="blue" points="525,-730 525,-752 635,-752 635,-730 525,-730"/>
<text text-anchor="start" x="568.89" y="-738" font-family="Helvetica,sans-Serif" font-size="10.00">libXft</text>
<polygon fill="none" stroke="blue" points="525,-708 525,-730 635,-730 635,-708 525,-708"/>
<text text-anchor="start" x="568.88" y="-716" font-family="Helvetica,sans-Serif" font-size="10.00">none</text>
<polygon fill="none" stroke="blue" points="525,-698 525,-708 635,-708 635,-698 525,-698"/>
</g>
<!-- id&#45;&gt;dependency7114 -->
<g id="edge6" class="edge">
<title>id:e&#45;&gt;dependency7114:w</title>
<path fill="none" stroke="black" d="M305,-682C356.7,-682 356.07,-738.89 401.03,-746.22"/>
<polygon fill="black" stroke="black" points="411,-747 400.68,-750.71 406.02,-746.61 401.03,-746.22 401.03,-746.22 401.03,-746.22 406.02,-746.61 401.38,-741.74 411,-747 411,-747"/>
</g>
<!-- dependency7115 -->
<g id="node8" class="node">
<title>dependency7115</title>
<polygon fill="none" stroke="blue" points="420,-288 420,-386 525,-386 525,-288 420,-288"/>
<text text-anchor="start" x="450.82" y="-334" font-family="Helvetica,sans-Serif" font-size="10.00">pack_dep</text>
<polygon fill="none" stroke="blue" points="525,-364 525,-386 635,-386 635,-364 525,-364"/>
<text text-anchor="start" x="574.44" y="-372" font-family="Helvetica,sans-Serif" font-size="10.00">no</text>
<polygon fill="none" stroke="blue" points="525,-342 525,-364 635,-364 635,-342 525,-342"/>
<text text-anchor="start" x="557.22" y="-350" font-family="Helvetica,sans-Serif" font-size="10.00">media&#45;libs</text>
<polygon fill="none" stroke="blue" points="525,-320 525,-342 635,-342 635,-320 525,-320"/>
<text text-anchor="start" x="558.32" y="-328" font-family="Helvetica,sans-Serif" font-size="10.00">fontconfig</text>
<polygon fill="none" stroke="blue" points="525,-298 525,-320 635,-320 635,-298 525,-298"/>
<text text-anchor="start" x="568.88" y="-306" font-family="Helvetica,sans-Serif" font-size="10.00">none</text>
<polygon fill="none" stroke="blue" points="525,-288 525,-298 635,-298 635,-288 525,-288"/>
</g>
<!-- id&#45;&gt;dependency7115 -->
<g id="edge7" class="edge">
<title>id:e&#45;&gt;dependency7115:w</title>
<path fill="none" stroke="black" d="M305,-682C462.59,-682 258.03,-349.02 402.88,-337.32"/>
<ellipse fill="none" stroke="black" cx="407" cy="-337.16" rx="4" ry="4"/>
</g>
<!-- dependency7116 -->
<g id="node9" class="node">
<title>dependency7116</title>
<polygon fill="none" stroke="blue" points="420,-28 420,-138 525,-138 525,-28 420,-28"/>
<text text-anchor="start" x="450.82" y="-80" font-family="Helvetica,sans-Serif" font-size="10.00">pack_dep</text>
<polygon fill="none" stroke="blue" points="525,-116 525,-138 635,-138 635,-116 525,-116"/>
<text text-anchor="start" x="574.44" y="-124" font-family="Helvetica,sans-Serif" font-size="10.00">no</text>
<polygon fill="none" stroke="blue" points="525,-94 525,-116 635,-116 635,-94 525,-94"/>
<text text-anchor="start" x="563.34" y="-102" font-family="Helvetica,sans-Serif" font-size="10.00">sys&#45;libs</text>
<polygon fill="none" stroke="blue" points="525,-72 525,-94 635,-94 635,-72 525,-72"/>
<text text-anchor="start" x="562.5" y="-80" font-family="Helvetica,sans-Serif" font-size="10.00">ncurses</text>
<polygon fill="none" stroke="blue" points="525,-50 525,-72 635,-72 635,-50 525,-50"/>
<text text-anchor="start" x="551.94" y="-58" font-family="Helvetica,sans-Serif" font-size="10.00">greaterequal</text>
<polygon fill="none" stroke="blue" points="525,-28 525,-50 635,-50 635,-28 525,-28"/>
<text text-anchor="start" x="573.05" y="-36" font-family="Helvetica,sans-Serif" font-size="10.00">6.0</text>
</g>
<!-- id&#45;&gt;dependency7116 -->
<g id="edge8" class="edge">
<title>id:e&#45;&gt;dependency7116:w</title>
<path fill="none" stroke="black" d="M305,-682C437.28,-682 282.74,-108.46 402.7,-83.82"/>
<ellipse fill="none" stroke="black" cx="407.02" cy="-83.39" rx="4" ry="4"/>
</g>
<!-- dependency7117 -->
<g id="node10" class="node">
<title>dependency7117</title>
<polygon fill="none" stroke="blue" points="420,-412 420,-510 525,-510 525,-412 420,-412"/>
<text text-anchor="start" x="450.82" y="-458" font-family="Helvetica,sans-Serif" font-size="10.00">pack_dep</text>
<polygon fill="none" stroke="blue" points="525,-488 525,-510 635,-510 635,-488 525,-488"/>
<text text-anchor="start" x="574.44" y="-496" font-family="Helvetica,sans-Serif" font-size="10.00">no</text>
<polygon fill="none" stroke="blue" points="525,-466 525,-488 635,-488 635,-466 525,-466"/>
<text text-anchor="start" x="562.78" y="-474" font-family="Helvetica,sans-Serif" font-size="10.00">x11&#45;libs</text>
<polygon fill="none" stroke="blue" points="525,-444 525,-466 635,-466 635,-444 525,-444"/>
<text text-anchor="start" x="566.11" y="-452" font-family="Helvetica,sans-Serif" font-size="10.00">libX11</text>
<polygon fill="none" stroke="blue" points="525,-422 525,-444 635,-444 635,-422 525,-422"/>
<text text-anchor="start" x="568.88" y="-430" font-family="Helvetica,sans-Serif" font-size="10.00">none</text>
<polygon fill="none" stroke="blue" points="525,-412 525,-422 635,-422 635,-412 525,-412"/>
</g>
<!-- id&#45;&gt;dependency7117 -->
<g id="edge9" class="edge">
<title>id:e&#45;&gt;dependency7117:w</title>
<path fill="none" stroke="black" d="M305,-682C411.06,-682 307.81,-472.5 402.84,-461.45"/>
<ellipse fill="none" stroke="black" cx="407.01" cy="-461.22" rx="4" ry="4"/>
</g>
<!-- dependency7118 -->
<g id="node11" class="node">
<title>dependency7118</title>
<polygon fill="none" stroke="blue" points="420,-164 420,-262 525,-262 525,-164 420,-164"/>
<text text-anchor="start" x="450.82" y="-210" font-family="Helvetica,sans-Serif" font-size="10.00">pack_dep</text>
<polygon fill="none" stroke="blue" points="525,-240 525,-262 635,-262 635,-240 525,-240"/>
<text text-anchor="start" x="574.44" y="-248" font-family="Helvetica,sans-Serif" font-size="10.00">no</text>
<polygon fill="none" stroke="blue" points="525,-218 525,-240 635,-240 635,-218 525,-218"/>
<text text-anchor="start" x="562.78" y="-226" font-family="Helvetica,sans-Serif" font-size="10.00">x11&#45;libs</text>
<polygon fill="none" stroke="blue" points="525,-196 525,-218 635,-218 635,-196 525,-196"/>
<text text-anchor="start" x="568.89" y="-204" font-family="Helvetica,sans-Serif" font-size="10.00">libXft</text>
<polygon fill="none" stroke="blue" points="525,-174 525,-196 635,-196 635,-174 525,-174"/>
<text text-anchor="start" x="568.88" y="-182" font-family="Helvetica,sans-Serif" font-size="10.00">none</text>
<polygon fill="none" stroke="blue" points="525,-164 525,-174 635,-174 635,-164 525,-164"/>
</g>
<!-- id&#45;&gt;dependency7118 -->
<g id="edge10" class="edge">
<title>id:e&#45;&gt;dependency7118:w</title>
<path fill="none" stroke="black" d="M305,-682C515.88,-682 205.68,-225.28 402.82,-213.24"/>
<ellipse fill="none" stroke="black" cx="407" cy="-213.12" rx="4" ry="4"/>
</g>
<!-- choice1091011001059745108105981154710211111011699111110102105103455046495146494511450 -->
<g id="node12" class="node">
<title>choice1091011001059745108105981154710211111011699111110102105103455046495146494511450</title>
<g id="a_node12"><a xlink:href="../media-libs/fontconfig-2.13.1-r2.svg" xlink:title="portage://media&#45;libs/fontconfig&#45;2.13.1&#45;r2">
<ellipse fill="none" stroke="red" cx="900" cy="-737" rx="144" ry="18"/>
<text text-anchor="middle" x="900" y="-734" font-family="Helvetica,sans-Serif" font-size="10.00">portage://media&#45;libs/fontconfig&#45;2.13.1&#45;r2</text>
</a>
</g>
</g>
<!-- dependency7109&#45;&gt;choice1091011001059745108105981154710211111011699111110102105103455046495146494511450 -->
<g id="edge11" class="edge">
<title>dependency7109:e&#45;&gt;choice1091011001059745108105981154710211111011699111110102105103455046495146494511450:w</title>
<path fill="none" stroke="black" stroke-dasharray="1,5" d="M649,-871C721.23,-871 683.25,-749.77 744.72,-737.93"/>
<polygon fill="black" stroke="black" points="755,-737 745.44,-742.38 750.02,-737.45 745.04,-737.9 745.04,-737.9 745.04,-737.9 750.02,-737.45 744.64,-733.42 755,-737 755,-737"/>
</g>
<!-- choice1091011001059745108105981154710211111011699111110102105103455046495146484511452 -->
<g id="node13" class="node">
<title>choice1091011001059745108105981154710211111011699111110102105103455046495146484511452</title>
<g id="a_node13"><a xlink:href="../media-libs/fontconfig-2.13.0-r4.svg" xlink:title="portage://media&#45;libs/fontconfig&#45;2.13.0&#45;r4">
<ellipse fill="none" stroke="red" cx="900" cy="-852" rx="144" ry="18"/>
<text text-anchor="middle" x="900" y="-849" font-family="Helvetica,sans-Serif" font-size="10.00">portage://media&#45;libs/fontconfig&#45;2.13.0&#45;r4</text>
</a>
</g>
</g>
<!-- dependency7109&#45;&gt;choice1091011001059745108105981154710211111011699111110102105103455046495146484511452 -->
<g id="edge12" class="edge">
<title>dependency7109:e&#45;&gt;choice1091011001059745108105981154710211111011699111110102105103455046495146484511452:w</title>
<path fill="none" stroke="black" stroke-dasharray="1,5" d="M649,-871C693.31,-871 705.41,-854.72 744.93,-852.3"/>
<polygon fill="black" stroke="black" points="755,-852 745.14,-856.79 750,-852.15 745,-852.3 745,-852.3 745,-852.3 750,-852.15 744.87,-847.8 755,-852 755,-852"/>
</g>
<!-- choice109101100105974510810598115471021111101169911111010210510345504649504654 -->
<g id="node14" class="node">
<title>choice109101100105974510810598115471021111101169911111010210510345504649504654</title>
<g id="a_node14"><a xlink:href="../media-libs/fontconfig-2.12.6.svg" xlink:title="portage://media&#45;libs/fontconfig&#45;2.12.6">
<ellipse fill="none" stroke="red" cx="900" cy="-796" rx="144" ry="18"/>
<text text-anchor="middle" x="900" y="-793" font-family="Helvetica,sans-Serif" font-size="10.00">portage://media&#45;libs/fontconfig&#45;2.12.6</text>
</a>
</g>
</g>
<!-- dependency7109&#45;&gt;choice109101100105974510810598115471021111101169911111010210510345504649504654 -->
<g id="edge13" class="edge">
<title>dependency7109:e&#45;&gt;choice109101100105974510810598115471021111101169911111010210510345504649504654:w</title>
<path fill="none" stroke="black" stroke-dasharray="1,5" d="M649,-871C703.1,-871 698.2,-805.08 744.93,-796.84"/>
<polygon fill="black" stroke="black" points="755,-796 745.41,-801.32 750.02,-796.42 745.03,-796.83 745.03,-796.83 745.03,-796.83 750.02,-796.42 744.66,-792.35 755,-796 755,-796"/>
</g>
<!-- choice1151211154510810598115471109911711411510111545544649951125048495748544857 -->
<g id="node15" class="node">
<title>choice1151211154510810598115471109911711411510111545544649951125048495748544857</title>
<g id="a_node15"><a xlink:href="../sys-libs/ncurses-6.1_p20190609.svg" xlink:title="portage://sys&#45;libs/ncurses&#45;6.1_p20190609">
<ellipse fill="none" stroke="red" cx="900" cy="-617" rx="144" ry="18"/>
<text text-anchor="middle" x="900" y="-614" font-family="Helvetica,sans-Serif" font-size="10.00">portage://sys&#45;libs/ncurses&#45;6.1_p20190609</text>
</a>
</g>
</g>
<!-- dependency7110&#45;&gt;choice1151211154510810598115471109911711411510111545544649951125048495748544857 -->
<g id="edge14" class="edge">
<title>dependency7110:e&#45;&gt;choice1151211154510810598115471109911711411510111545544649951125048495748544857:w</title>
<path fill="none" stroke="black" stroke-dasharray="1,5" d="M649,-617C692.43,-617 705.83,-617 744.57,-617"/>
<polygon fill="black" stroke="black" points="755,-617 745,-621.5 750,-617 745,-617 745,-617 745,-617 750,-617 745,-612.5 755,-617 755,-617"/>
</g>
<!-- choice1151211154510810598115471109911711411510111545544649951125048495649485048 -->
<g id="node16" class="node">
<title>choice1151211154510810598115471109911711411510111545544649951125048495649485048</title>
<g id="a_node16"><a xlink:href="../sys-libs/ncurses-6.1_p20181020.svg" xlink:title="portage://sys&#45;libs/ncurses&#45;6.1_p20181020">
<ellipse fill="none" stroke="red" cx="900" cy="-563" rx="144" ry="18"/>
<text text-anchor="middle" x="900" y="-560" font-family="Helvetica,sans-Serif" font-size="10.00">portage://sys&#45;libs/ncurses&#45;6.1_p20181020</text>
</a>
</g>
</g>
<!-- dependency7110&#45;&gt;choice1151211154510810598115471109911711411510111545544649951125048495649485048 -->
<g id="edge15" class="edge">
<title>dependency7110:e&#45;&gt;choice1151211154510810598115471109911711411510111545544649951125048495649485048:w</title>
<path fill="none" stroke="black" stroke-dasharray="1,5" d="M649,-617C698.26,-617 701.85,-570.13 744.86,-563.72"/>
<polygon fill="black" stroke="black" points="755,-563 745.35,-568.2 750.01,-563.36 745.03,-563.71 745.03,-563.71 745.03,-563.71 750.01,-563.36 744.71,-559.22 755,-563 755,-563"/>
</g>
<!-- choice1181051141161179710847112107103991111101021051034549 -->
<g id="node17" class="node">
<title>choice1181051141161179710847112107103991111101021051034549</title>
<g id="a_node17"><a xlink:href="../virtual/pkgconfig-1.svg" xlink:title="portage://virtual/pkgconfig&#45;1">
<ellipse fill="none" stroke="red" cx="900" cy="-1243" rx="144" ry="18"/>
<text text-anchor="middle" x="900" y="-1240" font-family="Helvetica,sans-Serif" font-size="10.00">portage://virtual/pkgconfig&#45;1</text>
</a>
</g>
</g>
<!-- dependency7111&#45;&gt;choice1181051141161179710847112107103991111101021051034549 -->
<g id="edge16" class="edge">
<title>dependency7111:e&#45;&gt;choice1181051141161179710847112107103991111101021051034549:w</title>
<path fill="none" stroke="black" stroke-dasharray="1,5" d="M649,-1243C692.43,-1243 705.83,-1243 744.57,-1243"/>
<polygon fill="black" stroke="black" points="755,-1243 745,-1247.5 750,-1243 745,-1243 745,-1243 745,-1243 750,-1243 745,-1238.5 755,-1243 755,-1243"/>
</g>
<!-- choice11810511411611797108471121071039911111010210510345484511449 -->
<g id="node18" class="node">
<title>choice11810511411611797108471121071039911111010210510345484511449</title>
<g id="a_node18"><a xlink:href="../virtual/pkgconfig-0-r1.svg" xlink:title="portage://virtual/pkgconfig&#45;0&#45;r1">
<ellipse fill="none" stroke="red" cx="900" cy="-1189" rx="144" ry="18"/>
<text text-anchor="middle" x="900" y="-1186" font-family="Helvetica,sans-Serif" font-size="10.00">portage://virtual/pkgconfig&#45;0&#45;r1</text>
</a>
</g>
</g>
<!-- dependency7111&#45;&gt;choice11810511411611797108471121071039911111010210510345484511449 -->
<g id="edge17" class="edge">
<title>dependency7111:e&#45;&gt;choice11810511411611797108471121071039911111010210510345484511449:w</title>
<path fill="none" stroke="black" stroke-dasharray="1,5" d="M649,-1243C698.26,-1243 701.85,-1196.13 744.86,-1189.72"/>
<polygon fill="black" stroke="black" points="755,-1189 745.35,-1194.2 750.01,-1189.36 745.03,-1189.71 745.03,-1189.71 745.03,-1189.71 750.01,-1189.36 744.71,-1185.22 755,-1189 755,-1189"/>
</g>
<!-- choice120494945989711510147120111114103451121141111161114557575757 -->
<g id="node19" class="node">
<title>choice120494945989711510147120111114103451121141111161114557575757</title>
<g id="a_node19"><a xlink:href="../x11-base/xorg-proto-9999.svg" xlink:title="portage://x11&#45;base/xorg&#45;proto&#45;9999">
<ellipse fill="none" stroke="red" cx="900" cy="-1073" rx="144" ry="18"/>
<text text-anchor="middle" x="900" y="-1070" font-family="Helvetica,sans-Serif" font-size="10.00">portage://x11&#45;base/xorg&#45;proto&#45;9999</text>
</a>
</g>
</g>
<!-- dependency7112&#45;&gt;choice120494945989711510147120111114103451121141111161114557575757 -->
<g id="edge18" class="edge">
<title>dependency7112:e&#45;&gt;choice120494945989711510147120111114103451121141111161114557575757:w</title>
<path fill="none" stroke="black" stroke-dasharray="1,5" d="M649,-1119C696.74,-1119 702.94,-1079.24 744.85,-1073.65"/>
<polygon fill="black" stroke="black" points="755,-1073 745.31,-1078.13 750.01,-1073.32 745.02,-1073.64 745.02,-1073.64 745.02,-1073.64 750.01,-1073.32 744.73,-1069.15 755,-1073 755,-1073"/>
</g>
<!-- choice1204949459897115101471201111141034511211411111611145504849574650 -->
<g id="node20" class="node">
<title>choice1204949459897115101471201111141034511211411111611145504849574650</title>
<g id="a_node20"><a xlink:href="../x11-base/xorg-proto-2019.2.svg" xlink:title="portage://x11&#45;base/xorg&#45;proto&#45;2019.2">
<ellipse fill="none" stroke="red" cx="900" cy="-1127" rx="144" ry="18"/>
<text text-anchor="middle" x="900" y="-1124" font-family="Helvetica,sans-Serif" font-size="10.00">portage://x11&#45;base/xorg&#45;proto&#45;2019.2</text>
</a>
</g>
</g>
<!-- dependency7112&#45;&gt;choice1204949459897115101471201111141034511211411111611145504849574650 -->
<g id="edge19" class="edge">
<title>dependency7112:e&#45;&gt;choice1204949459897115101471201111141034511211411111611145504849574650:w</title>
<path fill="none" stroke="black" stroke-dasharray="1,5" d="M649,-1119C692.55,-1119 705.74,-1125.8 744.55,-1126.86"/>
<polygon fill="black" stroke="black" points="755,-1127 744.94,-1131.37 750,-1126.93 745,-1126.87 745,-1126.87 745,-1126.87 750,-1126.93 745.06,-1122.37 755,-1127 755,-1127"/>
</g>
<!-- choice120494945108105981154710810598884949454946544657 -->
<g id="node21" class="node">
<title>choice120494945108105981154710810598884949454946544657</title>
<g id="a_node21"><a xlink:href="../x11-libs/libX11-1.6.9.svg" xlink:title="portage://x11&#45;libs/libX11&#45;1.6.9">
<ellipse fill="none" stroke="red" cx="900" cy="-951" rx="144" ry="18"/>
<text text-anchor="middle" x="900" y="-948" font-family="Helvetica,sans-Serif" font-size="10.00">portage://x11&#45;libs/libX11&#45;1.6.9</text>
</a>
</g>
</g>
<!-- dependency7113&#45;&gt;choice120494945108105981154710810598884949454946544657 -->
<g id="edge20" class="edge">
<title>dependency7113:e&#45;&gt;choice120494945108105981154710810598884949454946544657:w</title>
<path fill="none" stroke="black" stroke-dasharray="1,5" d="M649,-995C696.42,-995 703.2,-956.97 744.91,-951.62"/>
<polygon fill="black" stroke="black" points="755,-951 745.3,-956.11 750.01,-951.31 745.02,-951.62 745.02,-951.62 745.02,-951.62 750.01,-951.31 744.74,-947.12 755,-951 755,-951"/>
</g>
<!-- choice12049494510810598115471081059888102116455046514651 -->
<g id="node22" class="node">
<title>choice12049494510810598115471081059888102116455046514651</title>
<g id="a_node22"><a xlink:href="../x11-libs/libXft-2.3.3.svg" xlink:title="portage://x11&#45;libs/libXft&#45;2.3.3">
<ellipse fill="none" stroke="red" cx="900" cy="-674" rx="144" ry="18"/>
<text text-anchor="middle" x="900" y="-671" font-family="Helvetica,sans-Serif" font-size="10.00">portage://x11&#45;libs/libXft&#45;2.3.3</text>
</a>
</g>
</g>
<!-- dependency7114&#45;&gt;choice12049494510810598115471081059888102116455046514651 -->
<g id="edge21" class="edge">
<title>dependency7114:e&#45;&gt;choice12049494510810598115471081059888102116455046514651:w</title>
<path fill="none" stroke="black" stroke-dasharray="1,5" d="M649,-747C702.63,-747 698.59,-682.84 745.01,-674.82"/>
<polygon fill="black" stroke="black" points="755,-674 745.4,-679.3 750.02,-674.41 745.03,-674.82 745.03,-674.82 745.03,-674.82 750.02,-674.41 744.67,-670.33 755,-674 755,-674"/>
</g>
<!-- dependency7115&#45;&gt;choice1091011001059745108105981154710211111011699111110102105103455046495146494511450 -->
<g id="edge22" class="edge">
<title>dependency7115:e&#45;&gt;choice1091011001059745108105981154710211111011699111110102105103455046495146494511450:w</title>
<path fill="none" stroke="black" stroke-dasharray="1,5" d="M649,-337C829.32,-337 581.14,-721.53 744.73,-736.55"/>
<polygon fill="black" stroke="black" points="755,-737 744.81,-741.06 750,-736.78 745.01,-736.56 745.01,-736.56 745.01,-736.56 750,-736.78 745.21,-732.06 755,-737 755,-737"/>
</g>
<!-- dependency7115&#45;&gt;choice1091011001059745108105981154710211111011699111110102105103455046495146484511452 -->
<g id="edge23" class="edge">
<title>dependency7115:e&#45;&gt;choice1091011001059745108105981154710211111011699111110102105103455046495146484511452:w</title>
<path fill="none" stroke="black" stroke-dasharray="1,5" d="M649,-337C879.15,-337 532.12,-836.53 744.79,-851.65"/>
<polygon fill="black" stroke="black" points="755,-852 744.85,-856.15 750,-851.83 745.01,-851.66 745.01,-851.66 745.01,-851.66 750,-851.83 745.16,-847.16 755,-852 755,-852"/>
</g>
<!-- dependency7115&#45;&gt;choice109101100105974510810598115471021111101169911111010210510345504649504654 -->
<g id="edge24" class="edge">
<title>dependency7115:e&#45;&gt;choice109101100105974510810598115471021111101169911111010210510345504649504654:w</title>
<path fill="none" stroke="black" stroke-dasharray="1,5" d="M649,-337C854.89,-337 555.87,-780.89 745,-795.62"/>
<polygon fill="black" stroke="black" points="755,-796 744.84,-800.12 750,-795.81 745.01,-795.62 745.01,-795.62 745.01,-795.62 750,-795.81 745.18,-791.13 755,-796 755,-796"/>
</g>
<!-- dependency7116&#45;&gt;choice1151211154510810598115471109911711411510111545544649951125048495748544857 -->
<g id="edge25" class="edge">
<title>dependency7116:e&#45;&gt;choice1151211154510810598115471109911711411510111545544649951125048495748544857:w</title>
<path fill="none" stroke="black" stroke-dasharray="1,5" d="M649,-83C887.42,-83 523.98,-601.47 744.76,-616.66"/>
<polygon fill="black" stroke="black" points="755,-617 744.86,-621.17 750,-616.83 745.01,-616.67 745.01,-616.67 745.01,-616.67 750,-616.83 745.16,-612.17 755,-617 755,-617"/>
</g>
<!-- dependency7116&#45;&gt;choice1151211154510810598115471109911711411510111545544649951125048495649485048 -->
<g id="edge26" class="edge">
<title>dependency7116:e&#45;&gt;choice1151211154510810598115471109911711411510111545544649951125048495649485048:w</title>
<path fill="none" stroke="black" stroke-dasharray="1,5" d="M649,-83C863.95,-83 547.05,-547.66 744.86,-562.63"/>
<polygon fill="black" stroke="black" points="755,-563 744.84,-567.13 750,-562.82 745.01,-562.64 745.01,-562.64 745.01,-562.64 750,-562.82 745.17,-558.14 755,-563 755,-563"/>
</g>
<!-- dependency7117&#45;&gt;choice120494945108105981154710810598884949454946544657 -->
<g id="edge27" class="edge">
<title>dependency7117:e&#45;&gt;choice120494945108105981154710810598884949454946544657:w</title>
<path fill="none" stroke="black" stroke-dasharray="1,5" d="M649,-461C868.33,-461 542.66,-935.81 744.96,-950.64"/>
<polygon fill="black" stroke="black" points="755,-951 744.85,-955.14 750,-950.82 745.01,-950.65 745.01,-950.65 745.01,-950.65 750,-950.82 745.17,-946.15 755,-951 755,-951"/>
</g>
<!-- dependency7118&#45;&gt;choice12049494510810598115471081059888102116455046514651 -->
<g id="edge28" class="edge">
<title>dependency7118:e&#45;&gt;choice12049494510810598115471081059888102116455046514651:w</title>
<path fill="none" stroke="black" stroke-dasharray="1,5" d="M649,-213C855.75,-213 555.06,-658.82 744.96,-673.62"/>
<polygon fill="black" stroke="black" points="755,-674 744.84,-678.12 750,-673.81 745.01,-673.62 745.01,-673.62 745.01,-673.62 750,-673.81 745.18,-669.13 755,-674 755,-674"/>
</g>
</g>
</svg>
