<?xml version="1.0" encoding="UTF-8" standalone="no"?>
<!DOCTYPE svg PUBLIC "-//W3C//DTD SVG 1.1//EN"
 "http://www.w3.org/Graphics/SVG/1.1/DTD/svg11.dtd">
<!-- Generated by graphviz version 9.0.0 (20230911.1827)
 -->
<!-- Title: prolog Pages: 1 -->
<svg width="1076pt" height="569pt"
 viewBox="0.00 0.00 1076.00 569.00" xmlns="http://www.w3.org/2000/svg" xmlns:xlink="http://www.w3.org/1999/xlink">
<g id="graph0" class="graph" transform="scale(1 1) rotate(0) translate(4 565)">
<title>prolog</title>
<polygon fill="white" stroke="none" points="-4,4 -4,-565 1072,-565 1072,4 -4,4"/>
<g id="clust2" class="cluster">
<title>cluster_midcol</title>
<polygon fill="none" stroke="gray" points="8,-8 8,-553 672,-553 672,-8 8,-8"/>
<text text-anchor="start" x="310" y="-540.5" font-family="Helvetica,sans-Serif" font-style="italic" font-size="10.00">dependencies</text>
</g>
<g id="clust3" class="cluster">
<title>cluster_compile</title>
<polygon fill="#eeeeee" stroke="gray" points="16,-16 16,-301 664,-301 664,-16 16,-16"/>
<text text-anchor="start" x="323.12" y="-288.5" font-family="Helvetica,sans-Serif" font-style="italic" font-size="10.00">compile</text>
</g>
<g id="clust8" class="cluster">
<title>cluster_run</title>
<polygon fill="#eeeeee" stroke="gray" points="412,-309 412,-526 664,-526 664,-309 412,-309"/>
<text text-anchor="start" x="531.25" y="-513.5" font-family="Helvetica,sans-Serif" font-style="italic" font-size="10.00">run</text>
</g>
<g id="clust11" class="cluster">
<title>cluster_choices</title>
<polygon fill="none" stroke="gray" points="756,-181 756,-360 1060,-360 1060,-181 756,-181"/>
<text text-anchor="start" x="884.38" y="-347.5" font-family="Helvetica,sans-Serif" font-style="italic" font-size="10.00">candidates</text>
</g>
<!-- id -->
<g id="node1" class="node">
<title>id</title>
<g id="a_node1"><a xlink:href="../sys-apps/bolt-0.9.2.svg" xlink:title="portage://sys&#45;apps/bolt&#45;0.9.2">
<ellipse fill="none" stroke="red" cx="168" cy="-249" rx="144" ry="18"/>
<text text-anchor="middle" x="168" y="-245.12" font-family="Helvetica,sans-Serif" font-size="10.00">portage://sys&#45;apps/bolt&#45;0.9.2</text>
</a>
</g>
</g>
<!-- dependency151 -->
<g id="node2" class="node">
<title>dependency151</title>
<polygon fill="none" stroke="red" points="472,-228 472,-270 561,-270 561,-228 472,-228"/>
<text text-anchor="start" x="482.75" y="-245.12" font-family="Helvetica,sans-Serif" font-size="10.00">use_conditional</text>
<polygon fill="none" stroke="red" points="561,-249 561,-270 604,-270 604,-249 561,-249"/>
<text text-anchor="start" x="565.62" y="-255.5" font-family="Helvetica,sans-Serif" font-size="10.00">positive</text>
<polygon fill="none" stroke="red" points="561,-228 561,-249 604,-249 604,-228 561,-228"/>
<text text-anchor="start" x="567.12" y="-234.5" font-family="Helvetica,sans-Serif" font-size="10.00">selinux</text>
</g>
<!-- id&#45;&gt;dependency151 -->
<g id="edge1" class="edge">
<title>id:e&#45;&gt;dependency151:w</title>
<path fill="none" stroke="black" d="M312,-249C375.31,-249 393.83,-249 452.06,-249"/>
<polygon fill="black" stroke="black" points="461.78,-249 451.78,-253.5 458,-249 451.78,-249 451.78,-249 451.78,-249 458,-249 451.78,-244.5 461.78,-249"/>
</g>
<!-- dependency152 -->
<g id="node3" class="node">
<title>dependency152</title>
<polygon fill="none" stroke="red" points="472,-28 472,-70 561,-70 561,-28 472,-28"/>
<text text-anchor="start" x="482.75" y="-45.12" font-family="Helvetica,sans-Serif" font-size="10.00">use_conditional</text>
<polygon fill="none" stroke="red" points="561,-49 561,-70 604,-70 604,-49 561,-49"/>
<text text-anchor="start" x="565.62" y="-55.5" font-family="Helvetica,sans-Serif" font-size="10.00">positive</text>
<polygon fill="none" stroke="red" points="561,-28 561,-49 604,-49 604,-28 561,-28"/>
<text text-anchor="start" x="574.25" y="-34.5" font-family="Helvetica,sans-Serif" font-size="10.00">test</text>
</g>
<!-- id&#45;&gt;dependency152 -->
<g id="edge2" class="edge">
<title>id:e&#45;&gt;dependency152:w</title>
<path fill="none" stroke="black" d="M312,-249C419.46,-249 356.44,-62.82 451.92,-49.72"/>
<polygon fill="black" stroke="black" points="461.78,-49.08 452.1,-54.22 458.01,-49.33 451.81,-49.73 451.81,-49.73 451.81,-49.73 458.01,-49.33 451.51,-45.24 461.78,-49.08"/>
</g>
<!-- dependency153 -->
<g id="node4" class="node">
<title>dependency153</title>
<polygon fill="none" stroke="blue" points="428,-96.5 428,-201.5 532,-201.5 532,-96.5 428,-96.5"/>
<text text-anchor="start" x="459" y="-145.12" font-family="Helvetica,sans-Serif" font-size="10.00">pack_dep</text>
<polygon fill="none" stroke="blue" points="532,-180.5 532,-201.5 642,-201.5 642,-180.5 532,-180.5"/>
<text text-anchor="start" x="581.75" y="-187" font-family="Helvetica,sans-Serif" font-size="10.00">no</text>
<polygon fill="none" stroke="blue" points="532,-159.5 532,-180.5 642,-180.5 642,-159.5 532,-159.5"/>
<text text-anchor="start" x="570.12" y="-166" font-family="Helvetica,sans-Serif" font-size="10.00">dev&#45;libs</text>
<polygon fill="none" stroke="blue" points="532,-138.5 532,-159.5 642,-159.5 642,-138.5 532,-138.5"/>
<text text-anchor="start" x="579.5" y="-145" font-family="Helvetica,sans-Serif" font-size="10.00">glib</text>
<polygon fill="none" stroke="blue" points="532,-117.5 532,-138.5 642,-138.5 642,-117.5 532,-117.5"/>
<text text-anchor="start" x="560.38" y="-124" font-family="Helvetica,sans-Serif" font-size="10.00">greaterequal</text>
<polygon fill="none" stroke="blue" points="532,-96.5 532,-117.5 642,-117.5 642,-96.5 532,-96.5"/>
<text text-anchor="start" x="573.5" y="-103" font-family="Helvetica,sans-Serif" font-size="10.00">2.56.0</text>
</g>
<!-- id&#45;&gt;dependency153 -->
<g id="edge3" class="edge">
<title>id:e&#45;&gt;dependency153:w</title>
<path fill="none" stroke="black" d="M312,-249C373.15,-249 356.39,-160.74 408.11,-150.06"/>
<polygon fill="black" stroke="black" points="417.79,-149.12 408.27,-154.56 414.02,-149.48 407.83,-150.08 407.83,-150.08 407.83,-150.08 414.02,-149.48 407.4,-145.6 417.79,-149.12"/>
</g>
<!-- dependency154 -->
<g id="node5" class="node">
<title>dependency154</title>
<polygon fill="none" stroke="red" points="472,-453 472,-495 561,-495 561,-453 472,-453"/>
<text text-anchor="start" x="482.75" y="-470.12" font-family="Helvetica,sans-Serif" font-size="10.00">use_conditional</text>
<polygon fill="none" stroke="red" points="561,-474 561,-495 604,-495 604,-474 561,-474"/>
<text text-anchor="start" x="565.62" y="-480.5" font-family="Helvetica,sans-Serif" font-size="10.00">positive</text>
<polygon fill="none" stroke="red" points="561,-453 561,-474 604,-474 604,-453 561,-453"/>
<text text-anchor="start" x="567.12" y="-459.5" font-family="Helvetica,sans-Serif" font-size="10.00">selinux</text>
</g>
<!-- id&#45;&gt;dependency154 -->
<g id="edge4" class="edge">
<title>id:e&#45;&gt;dependency154:w</title>
<path fill="none" stroke="black" d="M312,-249C429.37,-249 347,-462.72 454.23,-473.57"/>
<ellipse fill="none" stroke="black" cx="458.51" cy="-473.78" rx="4" ry="4"/>
</g>
<!-- dependency155 -->
<g id="node6" class="node">
<title>dependency155</title>
<polygon fill="none" stroke="blue" points="428,-321.5 428,-426.5 532,-426.5 532,-321.5 428,-321.5"/>
<text text-anchor="start" x="459" y="-370.12" font-family="Helvetica,sans-Serif" font-size="10.00">pack_dep</text>
<polygon fill="none" stroke="blue" points="532,-405.5 532,-426.5 642,-426.5 642,-405.5 532,-405.5"/>
<text text-anchor="start" x="581.75" y="-412" font-family="Helvetica,sans-Serif" font-size="10.00">no</text>
<polygon fill="none" stroke="blue" points="532,-384.5 532,-405.5 642,-405.5 642,-384.5 532,-384.5"/>
<text text-anchor="start" x="570.12" y="-391" font-family="Helvetica,sans-Serif" font-size="10.00">dev&#45;libs</text>
<polygon fill="none" stroke="blue" points="532,-363.5 532,-384.5 642,-384.5 642,-363.5 532,-363.5"/>
<text text-anchor="start" x="579.5" y="-370" font-family="Helvetica,sans-Serif" font-size="10.00">glib</text>
<polygon fill="none" stroke="blue" points="532,-342.5 532,-363.5 642,-363.5 642,-342.5 532,-342.5"/>
<text text-anchor="start" x="560.38" y="-349" font-family="Helvetica,sans-Serif" font-size="10.00">greaterequal</text>
<polygon fill="none" stroke="blue" points="532,-321.5 532,-342.5 642,-342.5 642,-321.5 532,-321.5"/>
<text text-anchor="start" x="573.5" y="-328" font-family="Helvetica,sans-Serif" font-size="10.00">2.56.0</text>
</g>
<!-- id&#45;&gt;dependency155 -->
<g id="edge5" class="edge">
<title>id:e&#45;&gt;dependency155:w</title>
<path fill="none" stroke="black" d="M312,-249C381.99,-249 349.04,-363.49 410.18,-373.33"/>
<ellipse fill="none" stroke="black" cx="414.51" cy="-373.66" rx="4" ry="4"/>
</g>
<!-- choice1001011184510810598115471031081059845504655544652 -->
<g id="node7" class="node">
<title>choice1001011184510810598115471031081059845504655544652</title>
<g id="a_node7"><a xlink:href="../dev-libs/glib-2.76.4.svg" xlink:title="portage://dev&#45;libs/glib&#45;2.76.4">
<ellipse fill="none" stroke="red" cx="908" cy="-207" rx="144" ry="18"/>
<text text-anchor="middle" x="908" y="-203.12" font-family="Helvetica,sans-Serif" font-size="10.00">portage://dev&#45;libs/glib&#45;2.76.4</text>
</a>
</g>
</g>
<!-- dependency153&#45;&gt;choice1001011184510810598115471031081059845504655544652 -->
<g id="edge6" class="edge">
<title>dependency153:e&#45;&gt;choice1001011184510810598115471031081059845504655544652:w</title>
<path fill="none" stroke="black" stroke-dasharray="1,5" d="M657,-149C706.72,-149 709.2,-198.71 751.91,-206.09"/>
<polygon fill="black" stroke="black" points="761.79,-206.9 751.45,-210.57 758.02,-206.59 751.82,-206.08 751.82,-206.08 751.82,-206.08 758.02,-206.59 752.19,-201.6 761.79,-206.9"/>
</g>
<!-- choice1001011184510810598115471031081059845504655564648 -->
<g id="node8" class="node">
<title>choice1001011184510810598115471031081059845504655564648</title>
<g id="a_node8"><a xlink:href="../dev-libs/glib-2.78.0.svg" xlink:title="portage://dev&#45;libs/glib&#45;2.78.0">
<ellipse fill="none" stroke="red" cx="908" cy="-315" rx="144" ry="18"/>
<text text-anchor="middle" x="908" y="-311.12" font-family="Helvetica,sans-Serif" font-size="10.00">portage://dev&#45;libs/glib&#45;2.78.0</text>
</a>
</g>
</g>
<!-- dependency153&#45;&gt;choice1001011184510810598115471031081059845504655564648 -->
<g id="edge7" class="edge">
<title>dependency153:e&#45;&gt;choice1001011184510810598115471031081059845504655564648:w</title>
<path fill="none" stroke="black" stroke-dasharray="1,5" d="M657,-149C740.6,-149 681.35,-300.42 752.12,-314.03"/>
<polygon fill="black" stroke="black" points="761.79,-314.89 751.42,-318.48 758.02,-314.55 751.83,-314 751.83,-314 751.83,-314 758.02,-314.55 752.23,-309.52 761.79,-314.89"/>
</g>
<!-- choice1001011184510810598115471031081059845504655564649 -->
<g id="node9" class="node">
<title>choice1001011184510810598115471031081059845504655564649</title>
<g id="a_node9"><a xlink:href="../dev-libs/glib-2.78.1.svg" xlink:title="portage://dev&#45;libs/glib&#45;2.78.1">
<ellipse fill="none" stroke="red" cx="908" cy="-261" rx="144" ry="18"/>
<text text-anchor="middle" x="908" y="-257.12" font-family="Helvetica,sans-Serif" font-size="10.00">portage://dev&#45;libs/glib&#45;2.78.1</text>
</a>
</g>
</g>
<!-- dependency153&#45;&gt;choice1001011184510810598115471031081059845504655564649 -->
<g id="edge8" class="edge">
<title>dependency153:e&#45;&gt;choice1001011184510810598115471031081059845504655564649:w</title>
<path fill="none" stroke="black" stroke-dasharray="1,5" d="M657,-149C721.52,-149 697.76,-248.26 751.94,-259.89"/>
<polygon fill="black" stroke="black" points="761.79,-260.88 751.39,-264.36 758.02,-260.5 751.84,-259.88 751.84,-259.88 751.84,-259.88 758.02,-260.5 752.29,-255.4 761.79,-260.88"/>
</g>
<!-- dependency155&#45;&gt;choice1001011184510810598115471031081059845504655544652 -->
<g id="edge9" class="edge">
<title>dependency155:e&#45;&gt;choice1001011184510810598115471031081059845504655544652:w</title>
<path fill="none" stroke="black" stroke-dasharray="1,5" d="M657,-374C740.96,-374 681.04,-221.67 752.08,-207.98"/>
<polygon fill="black" stroke="black" points="761.79,-207.11 752.23,-212.49 758.02,-207.45 751.83,-208 751.83,-208 751.83,-208 758.02,-207.45 751.42,-203.52 761.79,-207.11"/>
</g>
<!-- dependency155&#45;&gt;choice1001011184510810598115471031081059845504655564648 -->
<g id="edge10" class="edge">
<title>dependency155:e&#45;&gt;choice1001011184510810598115471031081059845504655564648:w</title>
<path fill="none" stroke="black" stroke-dasharray="1,5" d="M657,-374C706.92,-374 709.05,-323.43 751.87,-315.93"/>
<polygon fill="black" stroke="black" points="761.79,-315.1 752.19,-320.42 758.02,-315.41 751.82,-315.93 751.82,-315.93 751.82,-315.93 758.02,-315.41 751.45,-311.45 761.79,-315.1"/>
</g>
<!-- dependency155&#45;&gt;choice1001011184510810598115471031081059845504655564649 -->
<g id="edge11" class="edge">
<title>dependency155:e&#45;&gt;choice1001011184510810598115471031081059845504655564649:w</title>
<path fill="none" stroke="black" stroke-dasharray="1,5" d="M657,-374C721.83,-374 697.51,-273.85 751.89,-262.12"/>
<polygon fill="black" stroke="black" points="761.79,-261.12 752.29,-266.6 758.03,-261.5 751.84,-262.12 751.84,-262.12 751.84,-262.12 758.03,-261.5 751.39,-257.65 761.79,-261.12"/>
</g>
</g>
</svg>
