<?xml version="1.0" encoding="UTF-8" standalone="no"?>
<!DOCTYPE svg PUBLIC "-//W3C//DTD SVG 1.1//EN"
 "http://www.w3.org/Graphics/SVG/1.1/DTD/svg11.dtd">
<!-- Generated by graphviz version 12.0.0 (20240704.0754)
 -->
<!-- Title: prolog Pages: 1 -->
<svg width="1331pt" height="581pt"
 viewBox="0.00 0.00 1331.00 581.00" xmlns="http://www.w3.org/2000/svg" xmlns:xlink="http://www.w3.org/1999/xlink">
<g id="graph0" class="graph" transform="scale(1 1) rotate(0) translate(4 577)">
<title>prolog</title>
<polygon fill="white" stroke="none" points="-4,4 -4,-577 1327,-577 1327,4 -4,4"/>
<g id="clust1" class="cluster">
<title>cluster_leftcol</title>
<polygon fill="none" stroke="gray" points="8,-229 8,-300 312,-300 312,-229 8,-229"/>
<text text-anchor="start" x="147.25" y="-287.5" font-family="Helvetica,sans-Serif" font-style="italic" font-size="10.00">ebuild</text>
</g>
<g id="clust2" class="cluster">
<title>cluster_midcol</title>
<polygon fill="none" stroke="gray" points="396,-8 396,-565 927,-565 927,-8 396,-8"/>
<text text-anchor="start" x="631.5" y="-552.5" font-family="Helvetica,sans-Serif" font-style="italic" font-size="10.00">dependencies</text>
</g>
<g id="clust3" class="cluster">
<title>cluster_compile</title>
<polygon fill="#eeeeee" stroke="gray" points="404,-16 404,-393 919,-393 919,-16 404,-16"/>
<text text-anchor="start" x="644.62" y="-380.5" font-family="Helvetica,sans-Serif" font-style="italic" font-size="10.00">compile</text>
</g>
<g id="clust10" class="cluster">
<title>cluster_run</title>
<polygon fill="#eeeeee" stroke="gray" points="404,-401 404,-538 919,-538 919,-401 404,-401"/>
<text text-anchor="start" x="654.75" y="-525.5" font-family="Helvetica,sans-Serif" font-style="italic" font-size="10.00">run</text>
</g>
<g id="clust13" class="cluster">
<title>cluster_choices</title>
<polygon fill="none" stroke="gray" points="1011,-115 1011,-360 1315,-360 1315,-115 1011,-115"/>
<text text-anchor="start" x="1139.38" y="-347.5" font-family="Helvetica,sans-Serif" font-style="italic" font-size="10.00">candidates</text>
</g>
<!-- id -->
<g id="node1" class="node">
<title>id</title>
<g id="a_node1"><a xlink:href="../sys-apps/firejail-0.9.60-r1.svg" xlink:title="portage://sys&#45;apps/firejail&#45;0.9.60&#45;r1">
<ellipse fill="none" stroke="red" cx="160" cy="-255" rx="144" ry="18"/>
<text text-anchor="middle" x="160" y="-251.12" font-family="Helvetica,sans-Serif" font-size="10.00">portage://sys&#45;apps/firejail&#45;0.9.60&#45;r1</text>
</a>
</g>
</g>
<!-- dependency2733 -->
<g id="node2" class="node">
<title>dependency2733</title>
<polygon fill="none" stroke="red" points="420,-281 420,-323 509,-323 509,-281 420,-281"/>
<text text-anchor="start" x="430.75" y="-298.12" font-family="Helvetica,sans-Serif" font-size="10.00">use_conditional</text>
<polygon fill="none" stroke="red" points="509,-302 509,-323 559,-323 559,-302 509,-302"/>
<text text-anchor="start" x="517.12" y="-308.5" font-family="Helvetica,sans-Serif" font-size="10.00">positive</text>
<polygon fill="none" stroke="red" points="509,-281 509,-302 559,-302 559,-281 509,-281"/>
<text text-anchor="start" x="513.75" y="-287.5" font-family="Helvetica,sans-Serif" font-size="10.00">apparmor</text>
</g>
<!-- id&#45;&gt;dependency2733 -->
<g id="edge2" class="edge">
<title>id:e&#45;&gt;dependency2733:w</title>
<path fill="none" stroke="black" d="M305.23,-255C352.78,-255 358.88,-295.11 400.11,-301.22"/>
<polygon fill="black" stroke="black" points="409.86,-301.91 399.57,-305.7 406.09,-301.65 399.88,-301.21 399.88,-301.21 399.88,-301.21 406.09,-301.65 400.2,-296.72 409.86,-301.91"/>
</g>
<!-- dependency2735 -->
<g id="node4" class="node">
<title>dependency2735</title>
<polygon fill="none" stroke="red" points="423.5,-187 423.5,-229 512.5,-229 512.5,-187 423.5,-187"/>
<text text-anchor="start" x="434.25" y="-204.12" font-family="Helvetica,sans-Serif" font-size="10.00">use_conditional</text>
<polygon fill="none" stroke="red" points="512.5,-208 512.5,-229 555.5,-229 555.5,-208 512.5,-208"/>
<text text-anchor="start" x="517.12" y="-214.5" font-family="Helvetica,sans-Serif" font-size="10.00">positive</text>
<polygon fill="none" stroke="red" points="512.5,-187 512.5,-208 555.5,-208 555.5,-187 512.5,-187"/>
<text text-anchor="start" x="525.75" y="-193.5" font-family="Helvetica,sans-Serif" font-size="10.00">test</text>
</g>
<!-- id&#45;&gt;dependency2735 -->
<g id="edge4" class="edge">
<title>id:e&#45;&gt;dependency2735:w</title>
<path fill="none" stroke="black" d="M305.23,-255C354.2,-255 360.88,-214.72 403.57,-208.74"/>
<polygon fill="black" stroke="black" points="413.35,-208.08 403.68,-213.24 409.58,-208.33 403.38,-208.75 403.38,-208.75 403.38,-208.75 409.58,-208.33 403.08,-204.26 413.35,-208.08"/>
</g>
<!-- dependency2737 -->
<g id="node6" class="node">
<title>dependency2737</title>
<polygon fill="none" stroke="blue" points="683,-28 683,-122 787,-122 787,-28 683,-28"/>
<text text-anchor="start" x="714" y="-71.12" font-family="Helvetica,sans-Serif" font-size="10.00">pack_dep</text>
<polygon fill="none" stroke="blue" points="787,-101 787,-122 897,-122 897,-101 787,-101"/>
<text text-anchor="start" x="830.38" y="-107.5" font-family="Helvetica,sans-Serif" font-size="10.00">weak</text>
<polygon fill="none" stroke="blue" points="787,-80 787,-101 897,-101 897,-80 787,-80"/>
<text text-anchor="start" x="822.12" y="-86.5" font-family="Helvetica,sans-Serif" font-size="10.00">sys&#45;apps</text>
<polygon fill="none" stroke="blue" points="787,-59 787,-80 897,-80 897,-59 787,-59"/>
<text text-anchor="start" x="822.5" y="-65.5" font-family="Helvetica,sans-Serif" font-size="10.00">firejail&#45;lts</text>
<polygon fill="none" stroke="blue" points="787,-38 787,-59 897,-59 897,-38 787,-38"/>
<text text-anchor="start" x="831.5" y="-44.5" font-family="Helvetica,sans-Serif" font-size="10.00">none</text>
<polygon fill="none" stroke="blue" points="787,-28 787,-38 897,-38 897,-28 787,-28"/>
</g>
<!-- id&#45;&gt;dependency2737 -->
<g id="edge5" class="edge">
<title>id:e&#45;&gt;dependency2737:w</title>
<path fill="none" stroke="black" d="M305.23,-255C359.3,-255 349.48,-201.56 396,-174 506,-108.84 541.42,-76.84 664.05,-75.08"/>
<polygon fill="black" stroke="black" points="673.78,-75.01 663.81,-79.58 670,-75.04 663.78,-75.08 663.78,-75.08 663.78,-75.08 670,-75.04 663.75,-70.58 673.78,-75.01"/>
</g>
<!-- dependency2738 -->
<g id="node7" class="node">
<title>dependency2738</title>
<polygon fill="none" stroke="red" points="420,-426 420,-468 509,-468 509,-426 420,-426"/>
<text text-anchor="start" x="430.75" y="-443.12" font-family="Helvetica,sans-Serif" font-size="10.00">use_conditional</text>
<polygon fill="none" stroke="red" points="509,-447 509,-468 559,-468 559,-447 509,-447"/>
<text text-anchor="start" x="517.12" y="-453.5" font-family="Helvetica,sans-Serif" font-size="10.00">positive</text>
<polygon fill="none" stroke="red" points="509,-426 509,-447 559,-447 559,-426 509,-426"/>
<text text-anchor="start" x="513.75" y="-432.5" font-family="Helvetica,sans-Serif" font-size="10.00">apparmor</text>
</g>
<!-- id&#45;&gt;dependency2738 -->
<g id="edge7" class="edge">
<title>id:e&#45;&gt;dependency2738:w</title>
<path fill="none" stroke="black" d="M305.23,-255C399.63,-255 319.02,-435.19 402.47,-446.45"/>
<ellipse fill="none" stroke="black" cx="406.58" cy="-446.71" rx="4" ry="4"/>
</g>
<!-- dependency2734 -->
<g id="node3" class="node">
<title>dependency2734</title>
<polygon fill="none" stroke="blue" points="683,-268 683,-362 787,-362 787,-268 683,-268"/>
<text text-anchor="start" x="714" y="-311.12" font-family="Helvetica,sans-Serif" font-size="10.00">pack_dep</text>
<polygon fill="none" stroke="blue" points="787,-341 787,-362 897,-362 897,-341 787,-341"/>
<text text-anchor="start" x="836.75" y="-347.5" font-family="Helvetica,sans-Serif" font-size="10.00">no</text>
<polygon fill="none" stroke="blue" points="787,-320 787,-341 897,-341 897,-320 787,-320"/>
<text text-anchor="start" x="825.12" y="-326.5" font-family="Helvetica,sans-Serif" font-size="10.00">sys&#45;libs</text>
<polygon fill="none" stroke="blue" points="787,-299 787,-320 897,-320 897,-299 787,-299"/>
<text text-anchor="start" x="816.88" y="-305.5" font-family="Helvetica,sans-Serif" font-size="10.00">libapparmor</text>
<polygon fill="none" stroke="blue" points="787,-278 787,-299 897,-299 897,-278 787,-278"/>
<text text-anchor="start" x="831.5" y="-284.5" font-family="Helvetica,sans-Serif" font-size="10.00">none</text>
<polygon fill="none" stroke="blue" points="787,-268 787,-278 897,-278 897,-268 787,-268"/>
</g>
<!-- dependency2733&#45;&gt;dependency2734 -->
<g id="edge1" class="edge">
<title>dependency2733:e&#45;&gt;dependency2734:w</title>
<path fill="none" stroke="black" stroke-dasharray="5,2" d="M567,-302C611.38,-302 624.55,-312.95 663.81,-314.75"/>
<polygon fill="black" stroke="black" points="673.78,-314.97 663.68,-319.25 670,-314.89 663.78,-314.75 663.78,-314.75 663.78,-314.75 670,-314.89 663.88,-310.25 673.78,-314.97"/>
</g>
<!-- choice11512111545108105981154710810598971121129711410911111445504649514652 -->
<g id="node9" class="node">
<title>choice11512111545108105981154710810598971121129711410911111445504649514652</title>
<g id="a_node9"><a xlink:href="../sys-libs/libapparmor-2.13.4.svg" xlink:title="portage://sys&#45;libs/libapparmor&#45;2.13.4">
<ellipse fill="none" stroke="red" cx="1163" cy="-315" rx="144" ry="18"/>
<text text-anchor="middle" x="1163" y="-311.12" font-family="Helvetica,sans-Serif" font-size="10.00">portage://sys&#45;libs/libapparmor&#45;2.13.4</text>
</a>
</g>
</g>
<!-- dependency2734&#45;&gt;choice11512111545108105981154710810598971121129711410911111445504649514652 -->
<g id="edge8" class="edge">
<title>dependency2734:e&#45;&gt;choice11512111545108105981154710810598971121129711410911111445504649514652:w</title>
<path fill="none" stroke="black" stroke-dasharray="1,5" d="M911.89,-315C955.08,-315 968.54,-315 1006.86,-315"/>
<polygon fill="black" stroke="black" points="1016.55,-315 1006.55,-319.5 1012.77,-315 1006.55,-315 1006.55,-315 1006.55,-315 1012.77,-315 1006.55,-310.5 1016.55,-315"/>
</g>
<!-- dependency2736 -->
<g id="node5" class="node">
<title>dependency2736</title>
<polygon fill="none" stroke="blue" points="683,-148 683,-242 787,-242 787,-148 683,-148"/>
<text text-anchor="start" x="714" y="-191.12" font-family="Helvetica,sans-Serif" font-size="10.00">pack_dep</text>
<polygon fill="none" stroke="blue" points="787,-221 787,-242 897,-242 897,-221 787,-221"/>
<text text-anchor="start" x="836.75" y="-227.5" font-family="Helvetica,sans-Serif" font-size="10.00">no</text>
<polygon fill="none" stroke="blue" points="787,-200 787,-221 897,-221 897,-200 787,-200"/>
<text text-anchor="start" x="823.25" y="-206.5" font-family="Helvetica,sans-Serif" font-size="10.00">dev&#45;tcltk</text>
<polygon fill="none" stroke="blue" points="787,-179 787,-200 897,-200 897,-179 787,-179"/>
<text text-anchor="start" x="827.38" y="-185.5" font-family="Helvetica,sans-Serif" font-size="10.00">expect</text>
<polygon fill="none" stroke="blue" points="787,-158 787,-179 897,-179 897,-158 787,-158"/>
<text text-anchor="start" x="831.5" y="-164.5" font-family="Helvetica,sans-Serif" font-size="10.00">none</text>
<polygon fill="none" stroke="blue" points="787,-148 787,-158 897,-158 897,-148 787,-148"/>
</g>
<!-- dependency2735&#45;&gt;dependency2736 -->
<g id="edge3" class="edge">
<title>dependency2735:e&#45;&gt;dependency2736:w</title>
<path fill="none" stroke="black" stroke-dasharray="5,2" d="M564.43,-208C609.95,-208 623.42,-197 663.8,-195.24"/>
<polygon fill="black" stroke="black" points="673.78,-195.03 663.88,-199.74 670,-195.11 663.78,-195.24 663.78,-195.24 663.78,-195.24 670,-195.11 663.69,-190.74 673.78,-195.03"/>
</g>
<!-- choice1001011184511699108116107471011201121019911645534652534652 -->
<g id="node10" class="node">
<title>choice1001011184511699108116107471011201121019911645534652534652</title>
<g id="a_node10"><a xlink:href="../dev-tcltk/expect-5.45.4.svg" xlink:title="portage://dev&#45;tcltk/expect&#45;5.45.4">
<ellipse fill="none" stroke="red" cx="1163" cy="-195" rx="144" ry="18"/>
<text text-anchor="middle" x="1163" y="-191.12" font-family="Helvetica,sans-Serif" font-size="10.00">portage://dev&#45;tcltk/expect&#45;5.45.4</text>
</a>
</g>
</g>
<!-- dependency2736&#45;&gt;choice1001011184511699108116107471011201121019911645534652534652 -->
<g id="edge9" class="edge">
<title>dependency2736:e&#45;&gt;choice1001011184511699108116107471011201121019911645534652534652:w</title>
<path fill="none" stroke="black" stroke-dasharray="1,5" d="M911.89,-195C955.08,-195 968.54,-195 1006.86,-195"/>
<polygon fill="black" stroke="black" points="1016.55,-195 1006.55,-199.5 1012.77,-195 1006.55,-195 1006.55,-195 1006.55,-195 1012.77,-195 1006.55,-190.5 1016.55,-195"/>
</g>
<!-- choice11512111545971121121154710210511410110697105108451081161154548465746535446504511449 -->
<g id="node11" class="node">
<title>choice11512111545971121121154710210511410110697105108451081161154548465746535446504511449</title>
<g id="a_node11"><a xlink:href="../sys-apps/firejail-lts-0.9.56.2-r1.svg" xlink:title="portage://sys&#45;apps/firejail&#45;lts&#45;0.9.56.2&#45;r1">
<ellipse fill="none" stroke="red" cx="1163" cy="-141" rx="144" ry="18"/>
<text text-anchor="middle" x="1163" y="-137.12" font-family="Helvetica,sans-Serif" font-size="10.00">portage://sys&#45;apps/firejail&#45;lts&#45;0.9.56.2&#45;r1</text>
</a>
</g>
</g>
<!-- dependency2737&#45;&gt;choice11512111545971121121154710210511410110697105108451081161154548465746535446504511449 -->
<g id="edge10" class="edge">
<title>dependency2737:e&#45;&gt;choice11512111545971121121154710210511410110697105108451081161154548465746535446504511449:w</title>
<path fill="none" stroke="black" stroke-dasharray="1,5" d="M911.89,-75C963.33,-75 962.73,-131.81 1006.65,-140.02"/>
<polygon fill="black" stroke="black" points="1016.55,-140.89 1006.19,-144.49 1012.79,-140.56 1006.59,-140.01 1006.59,-140.01 1006.59,-140.01 1012.79,-140.56 1006.99,-135.53 1016.55,-140.89"/>
</g>
<!-- dependency2739 -->
<g id="node8" class="node">
<title>dependency2739</title>
<polygon fill="none" stroke="blue" points="683,-413 683,-507 787,-507 787,-413 683,-413"/>
<text text-anchor="start" x="714" y="-456.12" font-family="Helvetica,sans-Serif" font-size="10.00">pack_dep</text>
<polygon fill="none" stroke="blue" points="787,-486 787,-507 897,-507 897,-486 787,-486"/>
<text text-anchor="start" x="836.75" y="-492.5" font-family="Helvetica,sans-Serif" font-size="10.00">no</text>
<polygon fill="none" stroke="blue" points="787,-465 787,-486 897,-486 897,-465 787,-465"/>
<text text-anchor="start" x="825.12" y="-471.5" font-family="Helvetica,sans-Serif" font-size="10.00">sys&#45;libs</text>
<polygon fill="none" stroke="blue" points="787,-444 787,-465 897,-465 897,-444 787,-444"/>
<text text-anchor="start" x="816.88" y="-450.5" font-family="Helvetica,sans-Serif" font-size="10.00">libapparmor</text>
<polygon fill="none" stroke="blue" points="787,-423 787,-444 897,-444 897,-423 787,-423"/>
<text text-anchor="start" x="831.5" y="-429.5" font-family="Helvetica,sans-Serif" font-size="10.00">none</text>
<polygon fill="none" stroke="blue" points="787,-413 787,-423 897,-423 897,-413 787,-413"/>
</g>
<!-- dependency2738&#45;&gt;dependency2739 -->
<g id="edge6" class="edge">
<title>dependency2738:e&#45;&gt;dependency2739:w</title>
<path fill="none" stroke="black" stroke-dasharray="5,2" d="M567,-447C611.38,-447 624.55,-457.95 663.81,-459.75"/>
<polygon fill="black" stroke="black" points="673.78,-459.97 663.68,-464.25 670,-459.89 663.78,-459.75 663.78,-459.75 663.78,-459.75 670,-459.89 663.88,-455.25 673.78,-459.97"/>
</g>
<!-- dependency2739&#45;&gt;choice11512111545108105981154710810598971121129711410911111445504649514652 -->
<g id="edge11" class="edge">
<title>dependency2739:e&#45;&gt;choice11512111545108105981154710810598971121129711410911111445504649514652:w</title>
<path fill="none" stroke="black" stroke-dasharray="1,5" d="M911.89,-460C987.63,-460 943.08,-329.35 1006.61,-316.08"/>
<polygon fill="black" stroke="black" points="1016.55,-315.12 1007.03,-320.56 1012.79,-315.48 1006.6,-316.08 1006.6,-316.08 1006.6,-316.08 1012.79,-315.48 1006.16,-311.61 1016.55,-315.12"/>
</g>
</g>
</svg>
