<?xml version="1.0" encoding="UTF-8" standalone="no"?>
<!DOCTYPE svg PUBLIC "-//W3C//DTD SVG 1.1//EN"
 "http://www.w3.org/Graphics/SVG/1.1/DTD/svg11.dtd">
<!-- Generated by graphviz version 2.41.20171026.1811 (20171026.1811)
 -->
<!-- Title: prolog Pages: 1 -->
<svg width="1326pt" height="795pt"
 viewBox="0.00 0.00 1326.00 795.00" xmlns="http://www.w3.org/2000/svg" xmlns:xlink="http://www.w3.org/1999/xlink">
<g id="graph0" class="graph" transform="scale(1 1) rotate(0) translate(4 791)">
<title>prolog</title>
<polygon fill="white" stroke="transparent" points="-4,4 -4,-791 1322,-791 1322,4 -4,4"/>
<g id="clust1" class="cluster">
<title>cluster_leftcol</title>
<polygon fill="none" stroke="gray" points="8,-494 8,-566 312,-566 312,-494 8,-494"/>
<text text-anchor="start" x="146.66" y="-554" font-family="Helvetica,sans-Serif" font-style="italic" font-size="10.00">ebuild</text>
</g>
<g id="clust2" class="cluster">
<title>cluster_midcol</title>
<polygon fill="none" stroke="gray" points="396,-67 396,-779 922,-779 922,-67 396,-67"/>
<text text-anchor="start" x="627.88" y="-767" font-family="Helvetica,sans-Serif" font-style="italic" font-size="10.00">dependencies</text>
</g>
<g id="clust3" class="cluster">
<title>cluster_compile</title>
<polygon fill="#eeeeee" stroke="gray" points="662,-609 662,-751 914,-751 914,-609 662,-609"/>
<text text-anchor="start" x="770.78" y="-739" font-family="Helvetica,sans-Serif" font-style="italic" font-size="10.00">compile</text>
</g>
<g id="clust5" class="cluster">
<title>cluster_compileandrun</title>
<polygon fill="#eeeeee" stroke="gray" points="404,-75 404,-601 914,-601 914,-75 404,-75"/>
<text text-anchor="start" x="623.44" y="-589" font-family="Helvetica,sans-Serif" font-style="italic" font-size="10.00">compile and run</text>
</g>
<g id="clust12" class="cluster">
<title>cluster_choices</title>
<polygon fill="none" stroke="gray" points="1006,-8 1006,-620 1310,-620 1310,-8 1006,-8"/>
<text text-anchor="start" x="1133.82" y="-608" font-family="Helvetica,sans-Serif" font-style="italic" font-size="10.00">candidates</text>
</g>
<!-- id -->
<g id="node1" class="node">
<title>id</title>
<g id="a_node1"><a xlink:href="../sys-apps/linux-misc-apps-3.18.svg" xlink:title="sys&#45;apps/linux&#45;misc&#45;apps&#45;3.18">
<ellipse fill="none" stroke="red" cx="160" cy="-520" rx="144" ry="18"/>
<text text-anchor="middle" x="160" y="-517" font-family="Helvetica,sans-Serif" font-size="10.00">sys&#45;apps/linux&#45;misc&#45;apps&#45;3.18</text>
</a>
</g>
</g>
<!-- dependency470265 -->
<g id="node2" class="node">
<title>dependency470265</title>
<polygon fill="none" stroke="blue" points="678,-621 678,-719 783,-719 783,-621 678,-621"/>
<text text-anchor="start" x="708.82" y="-667" font-family="Helvetica,sans-Serif" font-size="10.00">pack_dep</text>
<polygon fill="none" stroke="blue" points="783,-697 783,-719 893,-719 893,-697 783,-697"/>
<text text-anchor="start" x="832.44" y="-705" font-family="Helvetica,sans-Serif" font-size="10.00">no</text>
<polygon fill="none" stroke="blue" points="783,-675 783,-697 893,-697 893,-675 783,-675"/>
<text text-anchor="start" x="824.67" y="-683" font-family="Helvetica,sans-Serif" font-size="10.00">virtual</text>
<polygon fill="none" stroke="blue" points="783,-653 783,-675 893,-675 893,-653 783,-653"/>
<text text-anchor="start" x="816.6" y="-661" font-family="Helvetica,sans-Serif" font-size="10.00">pkgconfig</text>
<polygon fill="none" stroke="blue" points="783,-631 783,-653 893,-653 893,-631 783,-631"/>
<text text-anchor="start" x="826.88" y="-639" font-family="Helvetica,sans-Serif" font-size="10.00">none</text>
<polygon fill="none" stroke="blue" points="783,-621 783,-631 893,-631 893,-621 783,-621"/>
</g>
<!-- id&#45;&gt;dependency470265 -->
<g id="edge1" class="edge">
<title>id:e&#45;&gt;dependency470265:w</title>
<path fill="none" stroke="black" d="M305,-520C360.34,-520 347.23,-578.83 396,-605 502.89,-662.36 542.12,-669.63 658.96,-669.99"/>
<polygon fill="black" stroke="black" points="669,-670 658.99,-674.49 664,-669.99 659,-669.99 659,-669.99 659,-669.99 664,-669.99 659.01,-665.49 669,-670 669,-670"/>
</g>
<!-- dependency470266 -->
<g id="node3" class="node">
<title>dependency470266</title>
<polygon fill="none" stroke="red" points="420,-498 420,-542 511,-542 511,-498 420,-498"/>
<text text-anchor="start" x="430.77" y="-517" font-family="Helvetica,sans-Serif" font-size="10.00">use_conditional</text>
<polygon fill="none" stroke="red" points="511,-520 511,-542 554,-542 554,-520 511,-520"/>
<text text-anchor="start" x="515.55" y="-528" font-family="Helvetica,sans-Serif" font-size="10.00">positive</text>
<polygon fill="none" stroke="red" points="511,-498 511,-520 554,-520 554,-498 511,-498"/>
<text text-anchor="start" x="523.05" y="-506" font-family="Helvetica,sans-Serif" font-size="10.00">tcpd</text>
</g>
<!-- id&#45;&gt;dependency470266 -->
<g id="edge3" class="edge">
<title>id:e&#45;&gt;dependency470266:w</title>
<path fill="none" stroke="black" d="M305,-520C345.3,-520 359.75,-520 392.57,-520"/>
<ellipse fill="none" stroke="black" cx="407" cy="-520" rx="4" ry="4"/>
<polygon fill="black" stroke="black" points="403,-520 393,-524.5 398,-520 393,-520 393,-520 393,-520 398,-520 393,-515.5 403,-520 403,-520"/>
</g>
<!-- dependency470268 -->
<g id="node5" class="node">
<title>dependency470268</title>
<polygon fill="none" stroke="blue" points="678,-335 678,-445 783,-445 783,-335 678,-335"/>
<text text-anchor="start" x="708.82" y="-387" font-family="Helvetica,sans-Serif" font-size="10.00">pack_dep</text>
<polygon fill="none" stroke="blue" points="783,-423 783,-445 893,-445 893,-423 783,-423"/>
<text text-anchor="start" x="832.44" y="-431" font-family="Helvetica,sans-Serif" font-size="10.00">no</text>
<polygon fill="none" stroke="blue" points="783,-401 783,-423 893,-423 893,-401 783,-401"/>
<text text-anchor="start" x="820.78" y="-409" font-family="Helvetica,sans-Serif" font-size="10.00">dev&#45;libs</text>
<polygon fill="none" stroke="blue" points="783,-379 783,-401 893,-401 893,-379 783,-379"/>
<text text-anchor="start" x="830.22" y="-387" font-family="Helvetica,sans-Serif" font-size="10.00">glib</text>
<polygon fill="none" stroke="blue" points="783,-357 783,-379 893,-379 893,-357 783,-357"/>
<text text-anchor="start" x="809.94" y="-365" font-family="Helvetica,sans-Serif" font-size="10.00">greaterequal</text>
<polygon fill="none" stroke="blue" points="783,-335 783,-357 893,-357 893,-335 783,-335"/>
<text text-anchor="start" x="831.05" y="-343" font-family="Helvetica,sans-Serif" font-size="10.00">2.6</text>
</g>
<!-- id&#45;&gt;dependency470268 -->
<g id="edge4" class="edge">
<title>id:e&#45;&gt;dependency470268:w</title>
<path fill="none" stroke="black" d="M488,-325C561.56,-296.3 580.73,-376.1 650.62,-388.43"/>
<ellipse fill="none" stroke="black" cx="665.01" cy="-389.66" rx="4" ry="4"/>
<polygon fill="black" stroke="black" points="661.03,-389.32 650.68,-392.95 656.05,-388.89 651.07,-388.46 651.07,-388.46 651.07,-388.46 656.05,-388.89 651.45,-383.98 661.03,-389.32 661.03,-389.32"/>
</g>
<!-- dependency470269 -->
<g id="node6" class="node">
<title>dependency470269</title>
<polygon fill="none" stroke="blue" points="678,-211 678,-309 783,-309 783,-211 678,-211"/>
<text text-anchor="start" x="708.82" y="-257" font-family="Helvetica,sans-Serif" font-size="10.00">pack_dep</text>
<polygon fill="none" stroke="blue" points="783,-287 783,-309 893,-309 893,-287 783,-287"/>
<text text-anchor="start" x="832.44" y="-295" font-family="Helvetica,sans-Serif" font-size="10.00">no</text>
<polygon fill="none" stroke="blue" points="783,-265 783,-287 893,-287 893,-265 783,-265"/>
<text text-anchor="start" x="818" y="-273" font-family="Helvetica,sans-Serif" font-size="10.00">sys&#45;apps</text>
<polygon fill="none" stroke="blue" points="783,-243 783,-265 893,-265 893,-243 783,-243"/>
<text text-anchor="start" x="825.22" y="-251" font-family="Helvetica,sans-Serif" font-size="10.00">hwids</text>
<polygon fill="none" stroke="blue" points="783,-221 783,-243 893,-243 893,-221 783,-221"/>
<text text-anchor="start" x="826.88" y="-229" font-family="Helvetica,sans-Serif" font-size="10.00">none</text>
<polygon fill="none" stroke="blue" points="783,-211 783,-221 893,-221 893,-211 783,-211"/>
</g>
<!-- id&#45;&gt;dependency470269 -->
<g id="edge5" class="edge">
<title>id:e&#45;&gt;dependency470269:w</title>
<path fill="none" stroke="black" d="M488,-325C561.56,-296.3 580.73,-265.15 650.62,-260.57"/>
<ellipse fill="none" stroke="black" cx="665" cy="-260.12" rx="4" ry="4"/>
<polygon fill="black" stroke="black" points="661,-260.25 651.15,-265.06 656.01,-260.41 651.01,-260.56 651.01,-260.56 651.01,-260.56 656.01,-260.41 650.87,-256.06 661,-260.25 661,-260.25"/>
</g>
<!-- dependency470270 -->
<g id="node7" class="node">
<title>dependency470270</title>
<polygon fill="none" stroke="blue" points="678,-87 678,-185 783,-185 783,-87 678,-87"/>
<text text-anchor="start" x="708.82" y="-133" font-family="Helvetica,sans-Serif" font-size="10.00">pack_dep</text>
<polygon fill="none" stroke="blue" points="783,-163 783,-185 893,-185 893,-163 783,-163"/>
<text text-anchor="start" x="826.33" y="-171" font-family="Helvetica,sans-Serif" font-size="10.00">weak</text>
<polygon fill="none" stroke="blue" points="783,-141 783,-163 893,-163 893,-141 783,-141"/>
<text text-anchor="start" x="815.22" y="-149" font-family="Helvetica,sans-Serif" font-size="10.00">sys&#45;power</text>
<polygon fill="none" stroke="blue" points="783,-119 783,-141 893,-141 893,-119 783,-119"/>
<text text-anchor="start" x="820.5" y="-127" font-family="Helvetica,sans-Serif" font-size="10.00">pmtools</text>
<polygon fill="none" stroke="blue" points="783,-97 783,-119 893,-119 893,-97 783,-97"/>
<text text-anchor="start" x="826.88" y="-105" font-family="Helvetica,sans-Serif" font-size="10.00">none</text>
<polygon fill="none" stroke="blue" points="783,-87 783,-97 893,-97 893,-87 783,-87"/>
</g>
<!-- id&#45;&gt;dependency470270 -->
<g id="edge6" class="edge">
<title>id:e&#45;&gt;dependency470270:w</title>
<path fill="none" stroke="black" d="M488,-325C590.32,-285.08 557.08,-152.01 651.01,-137.32"/>
<ellipse fill="none" stroke="black" cx="665.01" cy="-136.29" rx="4" ry="4"/>
<polygon fill="black" stroke="black" points="661.02,-136.59 651.38,-141.81 656.03,-136.95 651.05,-137.32 651.05,-137.32 651.05,-137.32 656.03,-136.95 650.72,-132.83 661.02,-136.59 661.02,-136.59"/>
<path fill="none" stroke="black" d="M305,-520C423.25,-520 375.84,-367.98 486,-325"/>
</g>
<!-- choice11810511411611797108471121071039911111010210510345484511449 -->
<g id="node8" class="node">
<title>choice11810511411611797108471121071039911111010210510345484511449</title>
<g id="a_node8"><a xlink:href="../virtual/pkgconfig-0-r1.svg" xlink:title="virtual/pkgconfig&#45;0&#45;r1">
<ellipse fill="none" stroke="red" cx="1158" cy="-574" rx="144" ry="18"/>
<text text-anchor="middle" x="1158" y="-571" font-family="Helvetica,sans-Serif" font-size="10.00">virtual/pkgconfig&#45;0&#45;r1</text>
</a>
</g>
</g>
<!-- dependency470265&#45;&gt;choice11810511411611797108471121071039911111010210510345484511449 -->
<g id="edge7" class="edge">
<title>dependency470265:e&#45;&gt;choice11810511411611797108471121071039911111010210510345484511449:w</title>
<path fill="none" stroke="black" stroke-dasharray="1,5" d="M907,-670C966.96,-670 951.56,-584.57 1002.98,-574.89"/>
<polygon fill="black" stroke="black" points="1013,-574 1003.44,-579.37 1008.02,-574.44 1003.04,-574.88 1003.04,-574.88 1003.04,-574.88 1008.02,-574.44 1002.64,-570.4 1013,-574 1013,-574"/>
</g>
<!-- dependency470267 -->
<g id="node4" class="node">
<title>dependency470267</title>
<polygon fill="none" stroke="blue" points="678,-471 678,-569 783,-569 783,-471 678,-471"/>
<text text-anchor="start" x="708.82" y="-517" font-family="Helvetica,sans-Serif" font-size="10.00">pack_dep</text>
<polygon fill="none" stroke="blue" points="783,-547 783,-569 893,-569 893,-547 783,-547"/>
<text text-anchor="start" x="832.44" y="-555" font-family="Helvetica,sans-Serif" font-size="10.00">no</text>
<polygon fill="none" stroke="blue" points="783,-525 783,-547 893,-547 893,-525 783,-525"/>
<text text-anchor="start" x="818" y="-533" font-family="Helvetica,sans-Serif" font-size="10.00">sys&#45;apps</text>
<polygon fill="none" stroke="blue" points="783,-503 783,-525 893,-525 893,-503 783,-503"/>
<text text-anchor="start" x="809.11" y="-511" font-family="Helvetica,sans-Serif" font-size="10.00">tcp&#45;wrappers</text>
<polygon fill="none" stroke="blue" points="783,-481 783,-503 893,-503 893,-481 783,-481"/>
<text text-anchor="start" x="826.88" y="-489" font-family="Helvetica,sans-Serif" font-size="10.00">none</text>
<polygon fill="none" stroke="blue" points="783,-471 783,-481 893,-481 893,-471 783,-471"/>
</g>
<!-- dependency470266&#45;&gt;dependency470267 -->
<g id="edge2" class="edge">
<title>dependency470266:e&#45;&gt;dependency470267:w</title>
<path fill="none" stroke="black" stroke-dasharray="5,2" d="M562,-520C606.03,-520 619.48,-520 658.97,-520"/>
<polygon fill="black" stroke="black" points="669,-520 659,-524.5 664,-520 659,-520 659,-520 659,-520 664,-520 659,-515.5 669,-520 669,-520"/>
</g>
<!-- choice115121115459711211211547116991124511911497112112101114115455546544650504511449 -->
<g id="node9" class="node">
<title>choice115121115459711211211547116991124511911497112112101114115455546544650504511449</title>
<g id="a_node9"><a xlink:href="../sys-apps/tcp-wrappers-7.6.22-r1.svg" xlink:title="sys&#45;apps/tcp&#45;wrappers&#45;7.6.22&#45;r1">
<ellipse fill="none" stroke="red" cx="1158" cy="-520" rx="144" ry="18"/>
<text text-anchor="middle" x="1158" y="-517" font-family="Helvetica,sans-Serif" font-size="10.00">sys&#45;apps/tcp&#45;wrappers&#45;7.6.22&#45;r1</text>
</a>
</g>
</g>
<!-- dependency470267&#45;&gt;choice115121115459711211211547116991124511911497112112101114115455546544650504511449 -->
<g id="edge8" class="edge">
<title>dependency470267:e&#45;&gt;choice115121115459711211211547116991124511911497112112101114115455546544650504511449:w</title>
<path fill="none" stroke="black" stroke-dasharray="1,5" d="M907,-520C950.43,-520 963.83,-520 1002.57,-520"/>
<polygon fill="black" stroke="black" points="1013,-520 1003,-524.5 1008,-520 1003,-520 1003,-520 1003,-520 1008,-520 1003,-515.5 1013,-520 1013,-520"/>
</g>
<!-- choice10010111845108105981154710310810598455046534846514511449 -->
<g id="node10" class="node">
<title>choice10010111845108105981154710310810598455046534846514511449</title>
<g id="a_node10"><a xlink:href="../dev-libs/glib-2.50.3-r1.svg" xlink:title="dev&#45;libs/glib&#45;2.50.3&#45;r1">
<ellipse fill="none" stroke="red" cx="1158" cy="-466" rx="144" ry="18"/>
<text text-anchor="middle" x="1158" y="-463" font-family="Helvetica,sans-Serif" font-size="10.00">dev&#45;libs/glib&#45;2.50.3&#45;r1</text>
</a>
</g>
</g>
<!-- dependency470268&#45;&gt;choice10010111845108105981154710310810598455046534846514511449 -->
<g id="edge9" class="edge">
<title>dependency470268:e&#45;&gt;choice10010111845108105981154710310810598455046534846514511449:w</title>
<path fill="none" stroke="black" stroke-dasharray="1,5" d="M907,-390C961.35,-390 956.01,-456.8 1002.89,-465.15"/>
<polygon fill="black" stroke="black" points="1013,-466 1002.66,-469.64 1008.02,-465.58 1003.04,-465.16 1003.04,-465.16 1003.04,-465.16 1008.02,-465.58 1003.41,-460.67 1013,-466 1013,-466"/>
</g>
<!-- choice1001011184510810598115471031081059845504653504651 -->
<g id="node11" class="node">
<title>choice1001011184510810598115471031081059845504653504651</title>
<g id="a_node11"><a xlink:href="../dev-libs/glib-2.52.3.svg" xlink:title="dev&#45;libs/glib&#45;2.52.3">
<ellipse fill="none" stroke="red" cx="1158" cy="-412" rx="144" ry="18"/>
<text text-anchor="middle" x="1158" y="-409" font-family="Helvetica,sans-Serif" font-size="10.00">dev&#45;libs/glib&#45;2.52.3</text>
</a>
</g>
</g>
<!-- dependency470268&#45;&gt;choice1001011184510810598115471031081059845504653504651 -->
<g id="edge10" class="edge">
<title>dependency470268:e&#45;&gt;choice1001011184510810598115471031081059845504653504651:w</title>
<path fill="none" stroke="black" stroke-dasharray="1,5" d="M907,-390C951.54,-390 963.22,-408.86 1002.89,-411.65"/>
<polygon fill="black" stroke="black" points="1013,-412 1002.85,-416.16 1008,-411.83 1003.01,-411.66 1003.01,-411.66 1003.01,-411.66 1008,-411.83 1003.16,-407.16 1013,-412 1013,-412"/>
</g>
<!-- choice115121115459711211211547104119105100115455048495548515056 -->
<g id="node12" class="node">
<title>choice115121115459711211211547104119105100115455048495548515056</title>
<g id="a_node12"><a xlink:href="../sys-apps/hwids-20170328.svg" xlink:title="sys&#45;apps/hwids&#45;20170328">
<ellipse fill="none" stroke="red" cx="1158" cy="-358" rx="144" ry="18"/>
<text text-anchor="middle" x="1158" y="-355" font-family="Helvetica,sans-Serif" font-size="10.00">sys&#45;apps/hwids&#45;20170328</text>
</a>
</g>
</g>
<!-- dependency470269&#45;&gt;choice115121115459711211211547104119105100115455048495548515056 -->
<g id="edge11" class="edge">
<title>dependency470269:e&#45;&gt;choice115121115459711211211547104119105100115455048495548515056:w</title>
<path fill="none" stroke="black" stroke-dasharray="1,5" d="M907,-260C967.53,-260 951.09,-347.21 1002.9,-357.09"/>
<polygon fill="black" stroke="black" points="1013,-358 1002.64,-361.59 1008.02,-357.55 1003.04,-357.11 1003.04,-357.11 1003.04,-357.11 1008.02,-357.55 1003.44,-352.62 1013,-358 1013,-358"/>
</g>
<!-- choice115121115459711211211547104119105100115455048495548554953 -->
<g id="node13" class="node">
<title>choice115121115459711211211547104119105100115455048495548554953</title>
<g id="a_node13"><a xlink:href="../sys-apps/hwids-20170715.svg" xlink:title="sys&#45;apps/hwids&#45;20170715">
<ellipse fill="none" stroke="red" cx="1158" cy="-304" rx="144" ry="18"/>
<text text-anchor="middle" x="1158" y="-301" font-family="Helvetica,sans-Serif" font-size="10.00">sys&#45;apps/hwids&#45;20170715</text>
</a>
</g>
</g>
<!-- dependency470269&#45;&gt;choice115121115459711211211547104119105100115455048495548554953 -->
<g id="edge12" class="edge">
<title>dependency470269:e&#45;&gt;choice115121115459711211211547104119105100115455048495548554953:w</title>
<path fill="none" stroke="black" stroke-dasharray="1,5" d="M907,-260C954.42,-260 961.2,-298.03 1002.91,-303.38"/>
<polygon fill="black" stroke="black" points="1013,-304 1002.74,-307.88 1008.01,-303.69 1003.02,-303.38 1003.02,-303.38 1003.02,-303.38 1008.01,-303.69 1003.3,-298.89 1013,-304 1013,-304"/>
</g>
<!-- choice115121115459711211211547104119105100115455048495549484851 -->
<g id="node14" class="node">
<title>choice115121115459711211211547104119105100115455048495549484851</title>
<g id="a_node14"><a xlink:href="../sys-apps/hwids-20171003.svg" xlink:title="sys&#45;apps/hwids&#45;20171003">
<ellipse fill="none" stroke="red" cx="1158" cy="-250" rx="144" ry="18"/>
<text text-anchor="middle" x="1158" y="-247" font-family="Helvetica,sans-Serif" font-size="10.00">sys&#45;apps/hwids&#45;20171003</text>
</a>
</g>
</g>
<!-- dependency470269&#45;&gt;choice115121115459711211211547104119105100115455048495549484851 -->
<g id="edge13" class="edge">
<title>dependency470269:e&#45;&gt;choice115121115459711211211547104119105100115455048495549484851:w</title>
<path fill="none" stroke="black" stroke-dasharray="1,5" d="M907,-260C950.62,-260 963.69,-251.5 1002.53,-250.17"/>
<polygon fill="black" stroke="black" points="1013,-250 1003.08,-254.67 1008,-250.08 1003,-250.17 1003,-250.17 1003,-250.17 1008,-250.08 1002.93,-245.67 1013,-250 1013,-250"/>
</g>
<!-- choice115121115459711211211547104119105100115455757575757575757 -->
<g id="node15" class="node">
<title>choice115121115459711211211547104119105100115455757575757575757</title>
<g id="a_node15"><a xlink:href="../sys-apps/hwids-99999999.svg" xlink:title="sys&#45;apps/hwids&#45;99999999">
<ellipse fill="none" stroke="red" cx="1158" cy="-196" rx="144" ry="18"/>
<text text-anchor="middle" x="1158" y="-193" font-family="Helvetica,sans-Serif" font-size="10.00">sys&#45;apps/hwids&#45;99999999</text>
</a>
</g>
</g>
<!-- dependency470269&#45;&gt;choice115121115459711211211547104119105100115455757575757575757 -->
<g id="edge14" class="edge">
<title>dependency470269:e&#45;&gt;choice115121115459711211211547104119105100115455757575757575757:w</title>
<path fill="none" stroke="black" stroke-dasharray="1,5" d="M907,-260C958.38,-260 958.25,-204.22 1002.78,-196.81"/>
<polygon fill="black" stroke="black" points="1013,-196 1003.39,-201.28 1008.02,-196.39 1003.03,-196.79 1003.03,-196.79 1003.03,-196.79 1008.02,-196.39 1002.68,-192.3 1013,-196 1013,-196"/>
</g>
<!-- choice1151211154511211111910111447112109116111111108115455048485549494954 -->
<g id="node16" class="node">
<title>choice1151211154511211111910111447112109116111111108115455048485549494954</title>
<g id="a_node16"><a xlink:href="../sys-power/pmtools-20071116.svg" xlink:title="sys&#45;power/pmtools&#45;20071116">
<ellipse fill="none" stroke="red" cx="1158" cy="-142" rx="144" ry="18"/>
<text text-anchor="middle" x="1158" y="-139" font-family="Helvetica,sans-Serif" font-size="10.00">sys&#45;power/pmtools&#45;20071116</text>
</a>
</g>
</g>
<!-- dependency470270&#45;&gt;choice1151211154511211111910111447112109116111111108115455048485549494954 -->
<g id="edge15" class="edge">
<title>dependency470270:e&#45;&gt;choice1151211154511211111910111447112109116111111108115455048485549494954:w</title>
<path fill="none" stroke="black" stroke-dasharray="1,5" d="M907,-136C950.5,-136 963.78,-141.1 1002.56,-141.9"/>
<polygon fill="black" stroke="black" points="1013,-142 1002.96,-146.4 1008,-141.95 1003,-141.9 1003,-141.9 1003,-141.9 1008,-141.95 1003.05,-137.4 1013,-142 1013,-142"/>
</g>
<!-- choice1151211154511211111910111447112109116111111108115455048494948515051 -->
<g id="node17" class="node">
<title>choice1151211154511211111910111447112109116111111108115455048494948515051</title>
<g id="a_node17"><a xlink:href="../sys-power/pmtools-20110323.svg" xlink:title="sys&#45;power/pmtools&#45;20110323">
<ellipse fill="none" stroke="red" cx="1158" cy="-88" rx="144" ry="18"/>
<text text-anchor="middle" x="1158" y="-85" font-family="Helvetica,sans-Serif" font-size="10.00">sys&#45;power/pmtools&#45;20110323</text>
</a>
</g>
</g>
<!-- dependency470270&#45;&gt;choice1151211154511211111910111447112109116111111108115455048494948515051 -->
<g id="edge16" class="edge">
<title>dependency470270:e&#45;&gt;choice1151211154511211111910111447112109116111111108115455048494948515051:w</title>
<path fill="none" stroke="black" stroke-dasharray="1,5" d="M907,-136C955.08,-136 960.68,-94.51 1002.79,-88.68"/>
<polygon fill="black" stroke="black" points="1013,-88 1003.32,-93.15 1008.01,-88.33 1003.02,-88.66 1003.02,-88.66 1003.02,-88.66 1008.01,-88.33 1002.72,-84.17 1013,-88 1013,-88"/>
</g>
<!-- choice11512111545112111119101114471121091161111111081154550484949485150514511449 -->
<g id="node18" class="node">
<title>choice11512111545112111119101114471121091161111111081154550484949485150514511449</title>
<g id="a_node18"><a xlink:href="../sys-power/pmtools-20110323-r1.svg" xlink:title="sys&#45;power/pmtools&#45;20110323&#45;r1">
<ellipse fill="none" stroke="red" cx="1158" cy="-34" rx="144" ry="18"/>
<text text-anchor="middle" x="1158" y="-31" font-family="Helvetica,sans-Serif" font-size="10.00">sys&#45;power/pmtools&#45;20110323&#45;r1</text>
</a>
</g>
</g>
<!-- dependency470270&#45;&gt;choice11512111545112111119101114471121091161111111081154550484949485150514511449 -->
<g id="edge17" class="edge">
<title>dependency470270:e&#45;&gt;choice11512111545112111119101114471121091161111111081154550484949485150514511449:w</title>
<path fill="none" stroke="black" stroke-dasharray="1,5" d="M907,-136C968.68,-136 950.14,-45.23 1002.73,-34.94"/>
<polygon fill="black" stroke="black" points="1013,-34 1003.45,-39.4 1008.02,-34.46 1003.04,-34.92 1003.04,-34.92 1003.04,-34.92 1008.02,-34.46 1002.63,-30.43 1013,-34 1013,-34"/>
</g>
</g>
</svg>
