<?xml version="1.0" encoding="UTF-8" standalone="no"?>
<!DOCTYPE svg PUBLIC "-//W3C//DTD SVG 1.1//EN"
 "http://www.w3.org/Graphics/SVG/1.1/DTD/svg11.dtd">
<!-- Generated by graphviz version 9.0.0 (20230911.1827)
 -->
<!-- Title: prolog Pages: 1 -->
<svg width="1343pt" height="851pt"
 viewBox="0.00 0.00 1342.51 851.00" xmlns="http://www.w3.org/2000/svg" xmlns:xlink="http://www.w3.org/1999/xlink">
<g id="graph0" class="graph" transform="scale(1 1) rotate(0) translate(4 847)">
<title>prolog</title>
<polygon fill="white" stroke="none" points="-4,4 -4,-847 1338.51,-847 1338.51,4 -4,4"/>
<g id="clust2" class="cluster">
<title>cluster_midcol</title>
<polygon fill="none" stroke="gray" points="8,-231 8,-811 928,-811 928,-231 8,-231"/>
<text text-anchor="start" x="438" y="-798.5" font-family="Helvetica,sans-Serif" font-style="italic" font-size="10.00">dependencies</text>
</g>
<g id="clust3" class="cluster">
<title>cluster_compile</title>
<polygon fill="#eeeeee" stroke="gray" points="16,-239 16,-388 920,-388 920,-239 16,-239"/>
<text text-anchor="start" x="451.12" y="-375.5" font-family="Helvetica,sans-Serif" font-style="italic" font-size="10.00">compile</text>
</g>
<g id="clust6" class="cluster">
<title>cluster_run</title>
<polygon fill="#eeeeee" stroke="gray" points="412,-515 412,-784 920,-784 920,-515 412,-515"/>
<text text-anchor="start" x="659.25" y="-771.5" font-family="Helvetica,sans-Serif" font-style="italic" font-size="10.00">run</text>
</g>
<g id="clust10" class="cluster">
<title>cluster_choices</title>
<polygon fill="none" stroke="gray" points="1012,-8 1012,-835 1326.51,-835 1326.51,-8 1012,-8"/>
<text text-anchor="start" x="1145.63" y="-822.5" font-family="Helvetica,sans-Serif" font-style="italic" font-size="10.00">candidates</text>
</g>
<!-- id -->
<g id="node1" class="node">
<title>id</title>
<g id="a_node1"><a xlink:href="../sys-apps/opentmpfiles-9999.svg" xlink:title="portage://sys&#45;apps/opentmpfiles&#45;9999">
<ellipse fill="none" stroke="red" cx="168" cy="-343" rx="144" ry="18"/>
<text text-anchor="middle" x="168" y="-339.12" font-family="Helvetica,sans-Serif" font-size="10.00">portage://sys&#45;apps/opentmpfiles&#45;9999</text>
</a>
</g>
</g>
<!-- dependency3022 -->
<g id="node2" class="node">
<title>dependency3022</title>
<polygon fill="none" stroke="blue" points="684,-251.5 684,-356.5 788,-356.5 788,-251.5 684,-251.5"/>
<text text-anchor="start" x="715" y="-300.12" font-family="Helvetica,sans-Serif" font-size="10.00">pack_dep</text>
<polygon fill="none" stroke="blue" points="788,-335.5 788,-356.5 898,-356.5 898,-335.5 788,-335.5"/>
<text text-anchor="start" x="837.75" y="-342" font-family="Helvetica,sans-Serif" font-size="10.00">no</text>
<polygon fill="none" stroke="blue" points="788,-314.5 788,-335.5 898,-335.5 898,-314.5 788,-314.5"/>
<text text-anchor="start" x="825.75" y="-321" font-family="Helvetica,sans-Serif" font-size="10.00">dev&#45;vcs</text>
<polygon fill="none" stroke="blue" points="788,-293.5 788,-314.5 898,-314.5 898,-293.5 788,-293.5"/>
<text text-anchor="start" x="837.75" y="-300" font-family="Helvetica,sans-Serif" font-size="10.00">git</text>
<polygon fill="none" stroke="blue" points="788,-272.5 788,-293.5 898,-293.5 898,-272.5 788,-272.5"/>
<text text-anchor="start" x="816.37" y="-279" font-family="Helvetica,sans-Serif" font-size="10.00">greaterequal</text>
<polygon fill="none" stroke="blue" points="788,-251.5 788,-272.5 898,-272.5 898,-251.5 788,-251.5"/>
<text text-anchor="start" x="828" y="-258" font-family="Helvetica,sans-Serif" font-size="10.00">1.8.2.1</text>
</g>
<!-- id&#45;&gt;dependency3022 -->
<g id="edge1" class="edge">
<title>id:e&#45;&gt;dependency3022:w</title>
<path fill="none" stroke="black" d="M312,-343C471.05,-343 511.5,-305.73 665.22,-304.06"/>
<polygon fill="black" stroke="black" points="674.78,-304.01 664.81,-308.56 671,-304.03 664.78,-304.06 664.78,-304.06 664.78,-304.06 671,-304.03 664.76,-299.56 674.78,-304.01"/>
</g>
<!-- dependency3023 -->
<g id="node3" class="node">
<title>dependency3023</title>
<polygon fill="none" stroke="red" points="428,-540 428,-582 517,-582 517,-540 428,-540"/>
<text text-anchor="start" x="438.75" y="-557.12" font-family="Helvetica,sans-Serif" font-size="10.00">use_conditional</text>
<polygon fill="none" stroke="red" points="517,-561 517,-582 560,-582 560,-561 517,-561"/>
<text text-anchor="start" x="521.62" y="-567.5" font-family="Helvetica,sans-Serif" font-size="10.00">positive</text>
<polygon fill="none" stroke="red" points="517,-540 517,-561 560,-561 560,-540 517,-540"/>
<text text-anchor="start" x="523.12" y="-546.5" font-family="Helvetica,sans-Serif" font-size="10.00">selinux</text>
</g>
<!-- id&#45;&gt;dependency3023 -->
<g id="edge3" class="edge">
<title>id:e&#45;&gt;dependency3023:w</title>
<path fill="none" stroke="black" d="M312,-343C416.77,-343 317.26,-548.41 410.06,-560.45"/>
<ellipse fill="none" stroke="black" cx="414.51" cy="-560.72" rx="4" ry="4"/>
</g>
<!-- dependency3025 -->
<g id="node5" class="node">
<title>dependency3025</title>
<polygon fill="none" stroke="blue" points="684,-647.5 684,-752.5 788,-752.5 788,-647.5 684,-647.5"/>
<text text-anchor="start" x="715" y="-696.12" font-family="Helvetica,sans-Serif" font-size="10.00">pack_dep</text>
<polygon fill="none" stroke="blue" points="788,-731.5 788,-752.5 898,-752.5 898,-731.5 788,-731.5"/>
<text text-anchor="start" x="831.37" y="-738" font-family="Helvetica,sans-Serif" font-size="10.00">weak</text>
<polygon fill="none" stroke="blue" points="788,-710.5 788,-731.5 898,-731.5 898,-710.5 788,-710.5"/>
<text text-anchor="start" x="823.12" y="-717" font-family="Helvetica,sans-Serif" font-size="10.00">sys&#45;apps</text>
<polygon fill="none" stroke="blue" points="788,-689.5 788,-710.5 898,-710.5 898,-689.5 788,-689.5"/>
<text text-anchor="start" x="828.37" y="-696" font-family="Helvetica,sans-Serif" font-size="10.00">openrc</text>
<polygon fill="none" stroke="blue" points="788,-668.5 788,-689.5 898,-689.5 898,-668.5 788,-668.5"/>
<text text-anchor="start" x="827.25" y="-675" font-family="Helvetica,sans-Serif" font-size="10.00">smaller</text>
<polygon fill="none" stroke="blue" points="788,-647.5 788,-668.5 898,-668.5 898,-647.5 788,-647.5"/>
<text text-anchor="start" x="833.62" y="-654" font-family="Helvetica,sans-Serif" font-size="10.00">0.23</text>
</g>
<!-- id&#45;&gt;dependency3025 -->
<g id="edge4" class="edge">
<title>id:e&#45;&gt;dependency3025:w</title>
<path fill="none" stroke="black" d="M312,-343C432.5,-343 326.83,-509.76 412,-595 499.16,-682.23 547.43,-699.22 667.25,-699.97"/>
<ellipse fill="none" stroke="black" cx="671.5" cy="-699.99" rx="4" ry="4"/>
</g>
<!-- choice10010111845118991154710310511645575757574511451 -->
<g id="node6" class="node">
<title>choice10010111845118991154710310511645575757574511451</title>
<g id="a_node6"><a xlink:href="../dev-vcs/git-9999-r3.svg" xlink:title="portage://dev&#45;vcs/git&#45;9999&#45;r3">
<ellipse fill="none" stroke="red" cx="1169.26" cy="-466" rx="144" ry="18"/>
<text text-anchor="middle" x="1169.26" y="-462.12" font-family="Helvetica,sans-Serif" font-size="10.00">portage://dev&#45;vcs/git&#45;9999&#45;r3</text>
</a>
</g>
</g>
<!-- dependency3022&#45;&gt;choice10010111845118991154710310511645575757574511451 -->
<g id="edge5" class="edge">
<title>dependency3022:e&#45;&gt;choice10010111845118991154710310511645575757574511451:w</title>
<path fill="none" stroke="black" stroke-dasharray="1,5" d="M913,-304C996.42,-304 942.31,-451.77 1013.37,-465.05"/>
<polygon fill="black" stroke="black" points="1023.04,-465.89 1012.69,-469.51 1019.27,-465.56 1013.08,-465.02 1013.08,-465.02 1013.08,-465.02 1019.27,-465.56 1013.47,-460.54 1023.04,-465.89"/>
</g>
<!-- choice10010111845118991154710310511645575757574511450 -->
<g id="node7" class="node">
<title>choice10010111845118991154710310511645575757574511450</title>
<g id="a_node7"><a xlink:href="../dev-vcs/git-9999-r2.svg" xlink:title="portage://dev&#45;vcs/git&#45;9999&#45;r2">
<ellipse fill="none" stroke="red" cx="1169.26" cy="-412" rx="144" ry="18"/>
<text text-anchor="middle" x="1169.26" y="-408.12" font-family="Helvetica,sans-Serif" font-size="10.00">portage://dev&#45;vcs/git&#45;9999&#45;r2</text>
</a>
</g>
</g>
<!-- dependency3022&#45;&gt;choice10010111845118991154710310511645575757574511450 -->
<g id="edge6" class="edge">
<title>dependency3022:e&#45;&gt;choice10010111845118991154710310511645575757574511450:w</title>
<path fill="none" stroke="black" stroke-dasharray="1,5" d="M913,-304C978.01,-304 958.05,-400.11 1013.43,-411"/>
<polygon fill="black" stroke="black" points="1023.04,-411.89 1012.67,-415.45 1019.28,-411.54 1013.08,-410.97 1013.08,-410.97 1013.08,-410.97 1019.28,-411.54 1013.5,-406.49 1023.04,-411.89"/>
</g>
<!-- choice10010111845118991154710310511645575757574511449 -->
<g id="node8" class="node">
<title>choice10010111845118991154710310511645575757574511449</title>
<g id="a_node8"><a xlink:href="../dev-vcs/git-9999-r1.svg" xlink:title="portage://dev&#45;vcs/git&#45;9999&#45;r1">
<ellipse fill="none" stroke="red" cx="1169.26" cy="-358" rx="144" ry="18"/>
<text text-anchor="middle" x="1169.26" y="-354.12" font-family="Helvetica,sans-Serif" font-size="10.00">portage://dev&#45;vcs/git&#45;9999&#45;r1</text>
</a>
</g>
</g>
<!-- dependency3022&#45;&gt;choice10010111845118991154710310511645575757574511449 -->
<g id="edge7" class="edge">
<title>dependency3022:e&#45;&gt;choice10010111845118991154710310511645575757574511449:w</title>
<path fill="none" stroke="black" stroke-dasharray="1,5" d="M913,-304C963.99,-304 968.82,-350.48 1013.14,-357.19"/>
<polygon fill="black" stroke="black" points="1023.04,-357.91 1012.74,-361.68 1019.27,-357.64 1013.07,-357.19 1013.07,-357.19 1013.07,-357.19 1019.27,-357.64 1013.39,-352.7 1023.04,-357.91"/>
</g>
<!-- choice1001011184511899115471031051164557575757 -->
<g id="node9" class="node">
<title>choice1001011184511899115471031051164557575757</title>
<g id="a_node9"><a xlink:href="../dev-vcs/git-9999.svg" xlink:title="portage://dev&#45;vcs/git&#45;9999">
<ellipse fill="none" stroke="red" cx="1169.26" cy="-304" rx="144" ry="18"/>
<text text-anchor="middle" x="1169.26" y="-300.12" font-family="Helvetica,sans-Serif" font-size="10.00">portage://dev&#45;vcs/git&#45;9999</text>
</a>
</g>
</g>
<!-- dependency3022&#45;&gt;choice1001011184511899115471031051164557575757 -->
<g id="edge8" class="edge">
<title>dependency3022:e&#45;&gt;choice1001011184511899115471031051164557575757:w</title>
<path fill="none" stroke="black" stroke-dasharray="1,5" d="M913,-304C958.49,-304 972.59,-304 1013.05,-304"/>
<polygon fill="black" stroke="black" points="1023.04,-304 1013.04,-308.5 1019.26,-304 1013.04,-304 1013.04,-304 1013.04,-304 1019.26,-304 1013.04,-299.5 1023.04,-304"/>
</g>
<!-- choice10010111845118991154710310511645504650554648 -->
<g id="node10" class="node">
<title>choice10010111845118991154710310511645504650554648</title>
<g id="a_node10"><a xlink:href="../dev-vcs/git-2.27.0.svg" xlink:title="portage://dev&#45;vcs/git&#45;2.27.0">
<ellipse fill="none" stroke="red" cx="1169.26" cy="-250" rx="144" ry="18"/>
<text text-anchor="middle" x="1169.26" y="-246.12" font-family="Helvetica,sans-Serif" font-size="10.00">portage://dev&#45;vcs/git&#45;2.27.0</text>
</a>
</g>
</g>
<!-- dependency3022&#45;&gt;choice10010111845118991154710310511645504650554648 -->
<g id="edge9" class="edge">
<title>dependency3022:e&#45;&gt;choice10010111845118991154710310511645504650554648:w</title>
<path fill="none" stroke="black" stroke-dasharray="1,5" d="M913,-304C963.99,-304 968.82,-257.52 1013.14,-250.81"/>
<polygon fill="black" stroke="black" points="1023.04,-250.09 1013.39,-255.3 1019.27,-250.36 1013.07,-250.81 1013.07,-250.81 1013.07,-250.81 1019.27,-250.36 1012.74,-246.32 1023.04,-250.09"/>
</g>
<!-- choice10010111845118991154710310511645504650544650 -->
<g id="node11" class="node">
<title>choice10010111845118991154710310511645504650544650</title>
<g id="a_node11"><a xlink:href="../dev-vcs/git-2.26.2.svg" xlink:title="portage://dev&#45;vcs/git&#45;2.26.2">
<ellipse fill="none" stroke="red" cx="1169.26" cy="-196" rx="144" ry="18"/>
<text text-anchor="middle" x="1169.26" y="-192.12" font-family="Helvetica,sans-Serif" font-size="10.00">portage://dev&#45;vcs/git&#45;2.26.2</text>
</a>
</g>
</g>
<!-- dependency3022&#45;&gt;choice10010111845118991154710310511645504650544650 -->
<g id="edge10" class="edge">
<title>dependency3022:e&#45;&gt;choice10010111845118991154710310511645504650544650:w</title>
<path fill="none" stroke="black" stroke-dasharray="1,5" d="M913,-304C978.01,-304 958.05,-207.89 1013.43,-197"/>
<polygon fill="black" stroke="black" points="1023.04,-196.11 1013.5,-201.51 1019.28,-196.46 1013.08,-197.03 1013.08,-197.03 1013.08,-197.03 1019.28,-196.46 1012.67,-192.55 1023.04,-196.11"/>
</g>
<!-- choice10010111845118991154710310511645504650534652 -->
<g id="node12" class="node">
<title>choice10010111845118991154710310511645504650534652</title>
<g id="a_node12"><a xlink:href="../dev-vcs/git-2.25.4.svg" xlink:title="portage://dev&#45;vcs/git&#45;2.25.4">
<ellipse fill="none" stroke="red" cx="1169.26" cy="-142" rx="144" ry="18"/>
<text text-anchor="middle" x="1169.26" y="-138.12" font-family="Helvetica,sans-Serif" font-size="10.00">portage://dev&#45;vcs/git&#45;2.25.4</text>
</a>
</g>
</g>
<!-- dependency3022&#45;&gt;choice10010111845118991154710310511645504650534652 -->
<g id="edge11" class="edge">
<title>dependency3022:e&#45;&gt;choice10010111845118991154710310511645504650534652:w</title>
<path fill="none" stroke="black" stroke-dasharray="1,5" d="M913,-304C996.42,-304 942.31,-156.23 1013.37,-142.95"/>
<polygon fill="black" stroke="black" points="1023.04,-142.11 1013.47,-147.46 1019.27,-142.44 1013.08,-142.98 1013.08,-142.98 1013.08,-142.98 1019.27,-142.44 1012.69,-138.49 1023.04,-142.11"/>
</g>
<!-- choice10010111845118991154710310511645504650524651 -->
<g id="node13" class="node">
<title>choice10010111845118991154710310511645504650524651</title>
<g id="a_node13"><a xlink:href="../dev-vcs/git-2.24.3.svg" xlink:title="portage://dev&#45;vcs/git&#45;2.24.3">
<ellipse fill="none" stroke="red" cx="1169.26" cy="-88" rx="144" ry="18"/>
<text text-anchor="middle" x="1169.26" y="-84.12" font-family="Helvetica,sans-Serif" font-size="10.00">portage://dev&#45;vcs/git&#45;2.24.3</text>
</a>
</g>
</g>
<!-- dependency3022&#45;&gt;choice10010111845118991154710310511645504650524651 -->
<g id="edge12" class="edge">
<title>dependency3022:e&#45;&gt;choice10010111845118991154710310511645504650524651:w</title>
<path fill="none" stroke="black" stroke-dasharray="1,5" d="M913,-304C1016.98,-304 923.75,-103.73 1013.09,-88.87"/>
<polygon fill="black" stroke="black" points="1023.04,-88.09 1013.42,-93.36 1019.27,-88.39 1013.07,-88.87 1013.07,-88.87 1013.07,-88.87 1019.27,-88.39 1012.72,-84.39 1023.04,-88.09"/>
</g>
<!-- choice10010111845118991154710310511645504650514651 -->
<g id="node14" class="node">
<title>choice10010111845118991154710310511645504650514651</title>
<g id="a_node14"><a xlink:href="../dev-vcs/git-2.23.3.svg" xlink:title="portage://dev&#45;vcs/git&#45;2.23.3">
<ellipse fill="none" stroke="red" cx="1169.26" cy="-34" rx="144" ry="18"/>
<text text-anchor="middle" x="1169.26" y="-30.12" font-family="Helvetica,sans-Serif" font-size="10.00">portage://dev&#45;vcs/git&#45;2.23.3</text>
</a>
</g>
</g>
<!-- dependency3022&#45;&gt;choice10010111845118991154710310511645504650514651 -->
<g id="edge13" class="edge">
<title>dependency3022:e&#45;&gt;choice10010111845118991154710310511645504650514651:w</title>
<path fill="none" stroke="black" stroke-dasharray="1,5" d="M913,-304C1038.86,-304 903.19,-50.1 1013.22,-34.73"/>
<polygon fill="black" stroke="black" points="1023.04,-34.08 1013.36,-39.23 1019.27,-34.33 1013.06,-34.74 1013.06,-34.74 1013.06,-34.74 1019.27,-34.33 1012.77,-30.25 1023.04,-34.08"/>
</g>
<!-- dependency3024 -->
<g id="node4" class="node">
<title>dependency3024</title>
<polygon fill="none" stroke="blue" points="684,-527 684,-621 788,-621 788,-527 684,-527"/>
<text text-anchor="start" x="715" y="-570.12" font-family="Helvetica,sans-Serif" font-size="10.00">pack_dep</text>
<polygon fill="none" stroke="blue" points="788,-600 788,-621 898,-621 898,-600 788,-600"/>
<text text-anchor="start" x="837.75" y="-606.5" font-family="Helvetica,sans-Serif" font-size="10.00">no</text>
<polygon fill="none" stroke="blue" points="788,-579 788,-600 898,-600 898,-579 788,-579"/>
<text text-anchor="start" x="820.87" y="-585.5" font-family="Helvetica,sans-Serif" font-size="10.00">sec&#45;policy</text>
<polygon fill="none" stroke="blue" points="788,-558 788,-579 898,-579 898,-558 788,-558"/>
<text text-anchor="start" x="801.37" y="-564.5" font-family="Helvetica,sans-Serif" font-size="10.00">selinux&#45;base&#45;policy</text>
<polygon fill="none" stroke="blue" points="788,-537 788,-558 898,-558 898,-537 788,-537"/>
<text text-anchor="start" x="832.5" y="-543.5" font-family="Helvetica,sans-Serif" font-size="10.00">none</text>
<polygon fill="none" stroke="blue" points="788,-527 788,-537 898,-537 898,-527 788,-527"/>
</g>
<!-- dependency3023&#45;&gt;dependency3024 -->
<g id="edge2" class="edge">
<title>dependency3023:e&#45;&gt;dependency3024:w</title>
<path fill="none" stroke="black" stroke-dasharray="5,2" d="M568,-561C612.38,-561 625.55,-571.95 664.81,-573.75"/>
<polygon fill="black" stroke="black" points="674.78,-573.97 664.68,-578.25 671,-573.89 664.78,-573.75 664.78,-573.75 664.78,-573.75 671,-573.89 664.88,-569.25 674.78,-573.97"/>
</g>
<!-- choice1151019945112111108105991214711510110810511011712045989711510145112111108105991214557575757 -->
<g id="node15" class="node">
<title>choice1151019945112111108105991214711510110810511011712045989711510145112111108105991214557575757</title>
<g id="a_node15"><a xlink:href="../sec-policy/selinux-base-policy-9999.svg" xlink:title="portage://sec&#45;policy/selinux&#45;base&#45;policy&#45;9999">
<ellipse fill="none" stroke="red" cx="1169.26" cy="-628" rx="144" ry="18"/>
<text text-anchor="middle" x="1169.26" y="-624.12" font-family="Helvetica,sans-Serif" font-size="10.00">portage://sec&#45;policy/selinux&#45;base&#45;policy&#45;9999</text>
</a>
</g>
</g>
<!-- dependency3024&#45;&gt;choice1151019945112111108105991214711510110810511011712045989711510145112111108105991214557575757 -->
<g id="edge14" class="edge">
<title>dependency3024:e&#45;&gt;choice1151019945112111108105991214711510110810511011712045989711510145112111108105991214557575757:w</title>
<path fill="none" stroke="black" stroke-dasharray="1,5" d="M913,-574C963.99,-574 968.82,-620.48 1013.14,-627.19"/>
<polygon fill="black" stroke="black" points="1023.04,-627.91 1012.74,-631.68 1019.27,-627.64 1013.07,-627.19 1013.07,-627.19 1013.07,-627.19 1019.27,-627.64 1013.39,-622.7 1023.04,-627.91"/>
</g>
<!-- choice11510199451121111081059912147115101108105110117120459897115101451121111081059912145504650484957485448574511449 -->
<g id="node16" class="node">
<title>choice11510199451121111081059912147115101108105110117120459897115101451121111081059912145504650484957485448574511449</title>
<g id="a_node16"><a xlink:href="../sec-policy/selinux-base-policy-2.20190609-r1.svg" xlink:title="portage://sec&#45;policy/selinux&#45;base&#45;policy&#45;2.20190609&#45;r1">
<ellipse fill="none" stroke="red" cx="1169.26" cy="-574" rx="149.26" ry="18"/>
<text text-anchor="middle" x="1169.26" y="-570.12" font-family="Helvetica,sans-Serif" font-size="10.00">portage://sec&#45;policy/selinux&#45;base&#45;policy&#45;2.20190609&#45;r1</text>
</a>
</g>
</g>
<!-- dependency3024&#45;&gt;choice11510199451121111081059912147115101108105110117120459897115101451121111081059912145504650484957485448574511449 -->
<g id="edge15" class="edge">
<title>dependency3024:e&#45;&gt;choice11510199451121111081059912147115101108105110117120459897115101451121111081059912145504650484957485448574511449:w</title>
<path fill="none" stroke="black" stroke-dasharray="1,5" d="M913,-574C956.35,-574 969.86,-574 1008.31,-574"/>
<polygon fill="black" stroke="black" points="1018.04,-574 1008.04,-578.5 1014.26,-574 1008.04,-574 1008.04,-574 1008.04,-574 1014.26,-574 1008.04,-569.5 1018.04,-574"/>
</g>
<!-- choice11510199451121111081059912147115101108105110117120459897115101451121111081059912145504650484957485048494511449 -->
<g id="node17" class="node">
<title>choice11510199451121111081059912147115101108105110117120459897115101451121111081059912145504650484957485048494511449</title>
<g id="a_node17"><a xlink:href="../sec-policy/selinux-base-policy-2.20190201-r1.svg" xlink:title="portage://sec&#45;policy/selinux&#45;base&#45;policy&#45;2.20190201&#45;r1">
<ellipse fill="none" stroke="red" cx="1169.26" cy="-520" rx="149.26" ry="18"/>
<text text-anchor="middle" x="1169.26" y="-516.12" font-family="Helvetica,sans-Serif" font-size="10.00">portage://sec&#45;policy/selinux&#45;base&#45;policy&#45;2.20190201&#45;r1</text>
</a>
</g>
</g>
<!-- dependency3024&#45;&gt;choice11510199451121111081059912147115101108105110117120459897115101451121111081059912145504650484957485048494511449 -->
<g id="edge16" class="edge">
<title>dependency3024:e&#45;&gt;choice11510199451121111081059912147115101108105110117120459897115101451121111081059912145504650484957485048494511449:w</title>
<path fill="none" stroke="black" stroke-dasharray="1,5" d="M913,-574C962.04,-574 965.95,-527.72 1008.29,-520.85"/>
<polygon fill="black" stroke="black" points="1018.04,-520.09 1008.42,-525.35 1014.27,-520.39 1008.07,-520.87 1008.07,-520.87 1008.07,-520.87 1014.27,-520.39 1007.72,-516.38 1018.04,-520.09"/>
</g>
<!-- choice115121115459711211211547111112101110114994557575757 -->
<g id="node18" class="node">
<title>choice115121115459711211211547111112101110114994557575757</title>
<g id="a_node18"><a xlink:href="../sys-apps/openrc-9999.svg" xlink:title="portage://sys&#45;apps/openrc&#45;9999">
<ellipse fill="none" stroke="red" cx="1169.26" cy="-790" rx="144" ry="18"/>
<text text-anchor="middle" x="1169.26" y="-786.12" font-family="Helvetica,sans-Serif" font-size="10.00">portage://sys&#45;apps/openrc&#45;9999</text>
</a>
</g>
</g>
<!-- dependency3025&#45;&gt;choice115121115459711211211547111112101110114994557575757 -->
<g id="edge17" class="edge">
<title>dependency3025:e&#45;&gt;choice115121115459711211211547111112101110114994557575757:w</title>
<path fill="none" stroke="black" stroke-dasharray="1,5" d="M913,-700C972.63,-700 962.34,-779.1 1013.22,-788.99"/>
<polygon fill="black" stroke="black" points="1023.04,-789.89 1012.67,-793.46 1019.28,-789.54 1013.08,-788.98 1013.08,-788.98 1013.08,-788.98 1019.28,-789.54 1013.49,-784.5 1023.04,-789.89"/>
</g>
<!-- choice1151211154597112112115471111121011101149945484652504649 -->
<g id="node19" class="node">
<title>choice1151211154597112112115471111121011101149945484652504649</title>
<g id="a_node19"><a xlink:href="../sys-apps/openrc-0.42.1.svg" xlink:title="portage://sys&#45;apps/openrc&#45;0.42.1">
<ellipse fill="none" stroke="red" cx="1169.26" cy="-736" rx="144" ry="18"/>
<text text-anchor="middle" x="1169.26" y="-732.12" font-family="Helvetica,sans-Serif" font-size="10.00">portage://sys&#45;apps/openrc&#45;0.42.1</text>
</a>
</g>
</g>
<!-- dependency3025&#45;&gt;choice1151211154597112112115471111121011101149945484652504649 -->
<g id="edge18" class="edge">
<title>dependency3025:e&#45;&gt;choice1151211154597112112115471111121011101149945484652504649:w</title>
<path fill="none" stroke="black" stroke-dasharray="1,5" d="M913,-700C961.01,-700 970.91,-730.72 1013.12,-735.41"/>
<polygon fill="black" stroke="black" points="1023.04,-735.94 1012.81,-739.9 1019.26,-735.73 1013.05,-735.4 1013.05,-735.4 1013.05,-735.4 1019.26,-735.73 1013.29,-730.91 1023.04,-735.94"/>
</g>
<!-- choice1151211154597112112115471111121011101149945484652494650 -->
<g id="node20" class="node">
<title>choice1151211154597112112115471111121011101149945484652494650</title>
<g id="a_node20"><a xlink:href="../sys-apps/openrc-0.41.2.svg" xlink:title="portage://sys&#45;apps/openrc&#45;0.41.2">
<ellipse fill="none" stroke="red" cx="1169.26" cy="-682" rx="144" ry="18"/>
<text text-anchor="middle" x="1169.26" y="-678.12" font-family="Helvetica,sans-Serif" font-size="10.00">portage://sys&#45;apps/openrc&#45;0.41.2</text>
</a>
</g>
</g>
<!-- dependency3025&#45;&gt;choice1151211154597112112115471111121011101149945484652494650 -->
<g id="edge19" class="edge">
<title>dependency3025:e&#45;&gt;choice1151211154597112112115471111121011101149945484652494650:w</title>
<path fill="none" stroke="black" stroke-dasharray="1,5" d="M913,-700C959.18,-700 972.2,-684.7 1013.19,-682.31"/>
<polygon fill="black" stroke="black" points="1023.04,-682.03 1013.17,-686.82 1019.26,-682.14 1013.04,-682.32 1013.04,-682.32 1013.04,-682.32 1019.26,-682.14 1012.91,-677.82 1023.04,-682.03"/>
</g>
</g>
</svg>
