<?xml version="1.0" encoding="UTF-8" standalone="no"?>
<!DOCTYPE svg PUBLIC "-//W3C//DTD SVG 1.1//EN"
 "http://www.w3.org/Graphics/SVG/1.1/DTD/svg11.dtd">
<!-- Generated by graphviz version 9.0.0 (20230911.1827)
 -->
<!-- Title: prolog Pages: 1 -->
<svg width="1076pt" height="1121pt"
 viewBox="0.00 0.00 1076.00 1121.00" xmlns="http://www.w3.org/2000/svg" xmlns:xlink="http://www.w3.org/1999/xlink">
<g id="graph0" class="graph" transform="scale(1 1) rotate(0) translate(4 1117)">
<title>prolog</title>
<polygon fill="white" stroke="none" points="-4,4 -4,-1117 1072,-1117 1072,4 -4,4"/>
<g id="clust2" class="cluster">
<title>cluster_midcol</title>
<polygon fill="none" stroke="gray" points="8,-243 8,-1009 672,-1009 672,-243 8,-243"/>
<text text-anchor="start" x="310" y="-996.5" font-family="Helvetica,sans-Serif" font-style="italic" font-size="10.00">dependencies</text>
</g>
<g id="clust5" class="cluster">
<title>cluster_run</title>
<polygon fill="#eeeeee" stroke="gray" points="16,-251 16,-982 664,-982 664,-251 16,-251"/>
<text text-anchor="start" x="333.25" y="-969.5" font-family="Helvetica,sans-Serif" font-style="italic" font-size="10.00">run</text>
</g>
<g id="clust11" class="cluster">
<title>cluster_choices</title>
<polygon fill="none" stroke="gray" points="756,-8 756,-1105 1060,-1105 1060,-8 756,-8"/>
<text text-anchor="start" x="884.38" y="-1092.5" font-family="Helvetica,sans-Serif" font-style="italic" font-size="10.00">candidates</text>
</g>
<!-- id -->
<g id="node1" class="node">
<title>id</title>
<g id="a_node1"><a xlink:href="../sys-apps/pkgcore-0.12.23-r1.svg" xlink:title="portage://sys&#45;apps/pkgcore&#45;0.12.23&#45;r1">
<ellipse fill="none" stroke="red" cx="168" cy="-420" rx="144" ry="18"/>
<text text-anchor="middle" x="168" y="-416.12" font-family="Helvetica,sans-Serif" font-size="10.00">portage://sys&#45;apps/pkgcore&#45;0.12.23&#45;r1</text>
</a>
</g>
</g>
<!-- dependency15758 -->
<g id="node2" class="node">
<title>dependency15758</title>
<polygon fill="none" stroke="red" points="428.5,-263 428.5,-305 517.5,-305 517.5,-263 428.5,-263"/>
<text text-anchor="start" x="439.25" y="-280.12" font-family="Helvetica,sans-Serif" font-size="10.00">use_conditional</text>
<polygon fill="none" stroke="red" points="517.5,-284 517.5,-305 647.5,-305 647.5,-284 517.5,-284"/>
<text text-anchor="start" x="565.62" y="-290.5" font-family="Helvetica,sans-Serif" font-size="10.00">positive</text>
<polygon fill="none" stroke="red" points="517.5,-263 517.5,-284 647.5,-284 647.5,-263 517.5,-263"/>
<text text-anchor="start" x="522.5" y="-269.5" font-family="Helvetica,sans-Serif" font-size="10.00">python_targets_python3_10</text>
</g>
<!-- id&#45;&gt;dependency15758 -->
<g id="edge1" class="edge">
<title>id:e&#45;&gt;dependency15758:w</title>
<path fill="none" stroke="black" d="M312,-420C386.02,-420 346.41,-294.93 411.11,-284.67"/>
<ellipse fill="none" stroke="black" cx="415.51" cy="-284.34" rx="4" ry="4"/>
</g>
<!-- dependency15759 -->
<g id="node3" class="node">
<title>dependency15759</title>
<polygon fill="none" stroke="red" points="428.5,-331 428.5,-373 517.5,-373 517.5,-331 428.5,-331"/>
<text text-anchor="start" x="439.25" y="-348.12" font-family="Helvetica,sans-Serif" font-size="10.00">use_conditional</text>
<polygon fill="none" stroke="red" points="517.5,-352 517.5,-373 647.5,-373 647.5,-352 517.5,-352"/>
<text text-anchor="start" x="565.62" y="-358.5" font-family="Helvetica,sans-Serif" font-size="10.00">positive</text>
<polygon fill="none" stroke="red" points="517.5,-331 517.5,-352 647.5,-352 647.5,-331 517.5,-331"/>
<text text-anchor="start" x="522.5" y="-337.5" font-family="Helvetica,sans-Serif" font-size="10.00">python_targets_python3_11</text>
</g>
<!-- id&#45;&gt;dependency15759 -->
<g id="edge2" class="edge">
<title>id:e&#45;&gt;dependency15759:w</title>
<path fill="none" stroke="black" d="M312,-420C365.62,-420 363.69,-359.23 411.23,-352.59"/>
<ellipse fill="none" stroke="black" cx="415.51" cy="-352.3" rx="4" ry="4"/>
</g>
<!-- dependency15760 -->
<g id="node4" class="node">
<title>dependency15760</title>
<polygon fill="none" stroke="red" points="428.5,-399 428.5,-441 517.5,-441 517.5,-399 428.5,-399"/>
<text text-anchor="start" x="439.25" y="-416.12" font-family="Helvetica,sans-Serif" font-size="10.00">use_conditional</text>
<polygon fill="none" stroke="red" points="517.5,-420 517.5,-441 647.5,-441 647.5,-420 517.5,-420"/>
<text text-anchor="start" x="565.62" y="-426.5" font-family="Helvetica,sans-Serif" font-size="10.00">positive</text>
<polygon fill="none" stroke="red" points="517.5,-399 517.5,-420 647.5,-420 647.5,-399 517.5,-399"/>
<text text-anchor="start" x="522.5" y="-405.5" font-family="Helvetica,sans-Serif" font-size="10.00">python_targets_python3_12</text>
</g>
<!-- id&#45;&gt;dependency15760 -->
<g id="edge3" class="edge">
<title>id:e&#45;&gt;dependency15760:w</title>
<path fill="none" stroke="black" d="M312,-420C356.91,-420 370.3,-420 411.15,-420"/>
<ellipse fill="none" stroke="black" cx="415.5" cy="-420" rx="4" ry="4"/>
</g>
<!-- dependency15761 -->
<g id="node5" class="node">
<title>dependency15761</title>
<polygon fill="none" stroke="blue" points="428,-467.5 428,-572.5 532,-572.5 532,-467.5 428,-467.5"/>
<text text-anchor="start" x="459" y="-516.12" font-family="Helvetica,sans-Serif" font-size="10.00">pack_dep</text>
<polygon fill="none" stroke="blue" points="532,-551.5 532,-572.5 642,-572.5 642,-551.5 532,-551.5"/>
<text text-anchor="start" x="581.75" y="-558" font-family="Helvetica,sans-Serif" font-size="10.00">no</text>
<polygon fill="none" stroke="blue" points="532,-530.5 532,-551.5 642,-551.5 642,-530.5 532,-530.5"/>
<text text-anchor="start" x="564.88" y="-537" font-family="Helvetica,sans-Serif" font-size="10.00">app&#45;shells</text>
<polygon fill="none" stroke="blue" points="532,-509.5 532,-530.5 642,-530.5 642,-509.5 532,-509.5"/>
<text text-anchor="start" x="576.5" y="-516" font-family="Helvetica,sans-Serif" font-size="10.00">bash</text>
<polygon fill="none" stroke="blue" points="532,-488.5 532,-509.5 642,-509.5 642,-488.5 532,-488.5"/>
<text text-anchor="start" x="560.38" y="-495" font-family="Helvetica,sans-Serif" font-size="10.00">greaterequal</text>
<polygon fill="none" stroke="blue" points="532,-467.5 532,-488.5 642,-488.5 642,-467.5 532,-467.5"/>
<text text-anchor="start" x="580.25" y="-474" font-family="Helvetica,sans-Serif" font-size="10.00">5.0</text>
</g>
<!-- id&#45;&gt;dependency15761 -->
<g id="edge4" class="edge">
<title>id:e&#45;&gt;dependency15761:w</title>
<path fill="none" stroke="black" d="M312,-420C374.22,-420 356.6,-510.47 411.03,-519.31"/>
<ellipse fill="none" stroke="black" cx="415.51" cy="-519.65" rx="4" ry="4"/>
</g>
<!-- dependency15762 -->
<g id="node6" class="node">
<title>dependency15762</title>
<polygon fill="none" stroke="blue" points="428,-845.5 428,-950.5 532,-950.5 532,-845.5 428,-845.5"/>
<text text-anchor="start" x="459" y="-894.12" font-family="Helvetica,sans-Serif" font-size="10.00">pack_dep</text>
<polygon fill="none" stroke="blue" points="532,-929.5 532,-950.5 642,-950.5 642,-929.5 532,-929.5"/>
<text text-anchor="start" x="581.75" y="-936" font-family="Helvetica,sans-Serif" font-size="10.00">no</text>
<polygon fill="none" stroke="blue" points="532,-908.5 532,-929.5 642,-929.5 642,-908.5 532,-908.5"/>
<text text-anchor="start" x="563" y="-915" font-family="Helvetica,sans-Serif" font-size="10.00">dev&#45;python</text>
<polygon fill="none" stroke="blue" points="532,-887.5 532,-908.5 642,-908.5 642,-887.5 532,-887.5"/>
<text text-anchor="start" x="569" y="-894" font-family="Helvetica,sans-Serif" font-size="10.00">snakeoil</text>
<polygon fill="none" stroke="blue" points="532,-866.5 532,-887.5 642,-887.5 642,-866.5 532,-866.5"/>
<text text-anchor="start" x="560.38" y="-873" font-family="Helvetica,sans-Serif" font-size="10.00">greaterequal</text>
<polygon fill="none" stroke="blue" points="532,-845.5 532,-866.5 642,-866.5 642,-845.5 532,-845.5"/>
<text text-anchor="start" x="573.5" y="-852" font-family="Helvetica,sans-Serif" font-size="10.00">0.10.4</text>
</g>
<!-- id&#45;&gt;dependency15762 -->
<g id="edge5" class="edge">
<title>id:e&#45;&gt;dependency15762:w</title>
<path fill="none" stroke="black" d="M312,-420C526.72,-420 211.37,-884.56 411.07,-897.72"/>
<ellipse fill="none" stroke="black" cx="415.5" cy="-897.86" rx="4" ry="4"/>
</g>
<!-- choice9711211245115104101108108115479897115104455046485398951124951 -->
<g id="node7" class="node">
<title>choice9711211245115104101108108115479897115104455046485398951124951</title>
<g id="a_node7"><a xlink:href="../app-shells/bash-2.05b_p13.svg" xlink:title="portage://app&#45;shells/bash&#45;2.05b_p13">
<ellipse fill="none" stroke="red" cx="908" cy="-844" rx="144" ry="18"/>
<text text-anchor="middle" x="908" y="-840.12" font-family="Helvetica,sans-Serif" font-size="10.00">portage://app&#45;shells/bash&#45;2.05b_p13</text>
</a>
</g>
</g>
<!-- dependency15761&#45;&gt;choice9711211245115104101108108115479897115104455046485398951124951 -->
<g id="edge6" class="edge">
<title>dependency15761:e&#45;&gt;choice9711211245115104101108108115479897115104455046485398951124951:w</title>
<path fill="none" stroke="black" stroke-dasharray="1,5" d="M657,-520C804.66,-520 621.27,-827.76 752.12,-843.38"/>
<polygon fill="black" stroke="black" points="761.78,-843.93 751.55,-847.86 758.01,-843.72 751.8,-843.37 751.8,-843.37 751.8,-843.37 758.01,-843.72 752.05,-838.87 761.78,-843.93"/>
</g>
<!-- choice971121124511510410110810811547989711510445514648951125050 -->
<g id="node8" class="node">
<title>choice971121124511510410110810811547989711510445514648951125050</title>
<g id="a_node8"><a xlink:href="../app-shells/bash-3.0_p22.svg" xlink:title="portage://app&#45;shells/bash&#45;3.0_p22">
<ellipse fill="none" stroke="red" cx="908" cy="-790" rx="144" ry="18"/>
<text text-anchor="middle" x="908" y="-786.12" font-family="Helvetica,sans-Serif" font-size="10.00">portage://app&#45;shells/bash&#45;3.0_p22</text>
</a>
</g>
</g>
<!-- dependency15761&#45;&gt;choice971121124511510410110810811547989711510445514648951125050 -->
<g id="edge7" class="edge">
<title>dependency15761:e&#45;&gt;choice971121124511510410110810811547989711510445514648951125050:w</title>
<path fill="none" stroke="black" stroke-dasharray="1,5" d="M657,-520C782.01,-520 643.02,-773.9 752.05,-789.27"/>
<polygon fill="black" stroke="black" points="761.78,-789.92 751.51,-793.75 758.01,-789.67 751.81,-789.26 751.81,-789.26 751.81,-789.26 758.01,-789.67 752.1,-784.77 761.78,-789.92"/>
</g>
<!-- choice971121124511510410110810811547989711510445514649951125051 -->
<g id="node9" class="node">
<title>choice971121124511510410110810811547989711510445514649951125051</title>
<g id="a_node9"><a xlink:href="../app-shells/bash-3.1_p23.svg" xlink:title="portage://app&#45;shells/bash&#45;3.1_p23">
<ellipse fill="none" stroke="red" cx="908" cy="-736" rx="144" ry="18"/>
<text text-anchor="middle" x="908" y="-732.12" font-family="Helvetica,sans-Serif" font-size="10.00">portage://app&#45;shells/bash&#45;3.1_p23</text>
</a>
</g>
</g>
<!-- dependency15761&#45;&gt;choice971121124511510410110810811547989711510445514649951125051 -->
<g id="edge8" class="edge">
<title>dependency15761:e&#45;&gt;choice971121124511510410110810811547989711510445514649951125051:w</title>
<path fill="none" stroke="black" stroke-dasharray="1,5" d="M657,-520C759.97,-520 663.77,-720.27 751.96,-735.13"/>
<polygon fill="black" stroke="black" points="761.79,-735.9 751.46,-739.6 758.02,-735.61 751.82,-735.12 751.82,-735.12 751.82,-735.12 758.02,-735.61 752.17,-730.63 761.79,-735.9"/>
</g>
<!-- choice971121124511510410110810811547989711510445514650951125355 -->
<g id="node10" class="node">
<title>choice971121124511510410110810811547989711510445514650951125355</title>
<g id="a_node10"><a xlink:href="../app-shells/bash-3.2_p57.svg" xlink:title="portage://app&#45;shells/bash&#45;3.2_p57">
<ellipse fill="none" stroke="red" cx="908" cy="-682" rx="144" ry="18"/>
<text text-anchor="middle" x="908" y="-678.12" font-family="Helvetica,sans-Serif" font-size="10.00">portage://app&#45;shells/bash&#45;3.2_p57</text>
</a>
</g>
</g>
<!-- dependency15761&#45;&gt;choice971121124511510410110810811547989711510445514650951125355 -->
<g id="edge9" class="edge">
<title>dependency15761:e&#45;&gt;choice971121124511510410110810811547989711510445514650951125355:w</title>
<path fill="none" stroke="black" stroke-dasharray="1,5" d="M657,-520C739.01,-520 682.82,-667.17 751.87,-680.97"/>
<polygon fill="black" stroke="black" points="761.79,-681.89 751.41,-685.44 758.02,-681.54 751.83,-680.96 751.83,-680.96 751.83,-680.96 758.02,-681.54 752.25,-676.48 761.79,-681.89"/>
</g>
<!-- choice971121124511510410110810811547989711510445524648951125252 -->
<g id="node11" class="node">
<title>choice971121124511510410110810811547989711510445524648951125252</title>
<g id="a_node11"><a xlink:href="../app-shells/bash-4.0_p44.svg" xlink:title="portage://app&#45;shells/bash&#45;4.0_p44">
<ellipse fill="none" stroke="red" cx="908" cy="-628" rx="144" ry="18"/>
<text text-anchor="middle" x="908" y="-624.12" font-family="Helvetica,sans-Serif" font-size="10.00">portage://app&#45;shells/bash&#45;4.0_p44</text>
</a>
</g>
</g>
<!-- dependency15761&#45;&gt;choice971121124511510410110810811547989711510445524648951125252 -->
<g id="edge10" class="edge">
<title>dependency15761:e&#45;&gt;choice971121124511510410110810811547989711510445524648951125252:w</title>
<path fill="none" stroke="black" stroke-dasharray="1,5" d="M657,-520C720.32,-520 698.76,-615.71 752.13,-626.93"/>
<polygon fill="black" stroke="black" points="761.79,-627.88 751.4,-631.38 758.02,-627.51 751.84,-626.9 751.84,-626.9 751.84,-626.9 758.02,-627.51 752.28,-622.42 761.79,-627.88"/>
</g>
<!-- choice971121124511510410110810811547989711510445524649951124955 -->
<g id="node12" class="node">
<title>choice971121124511510410110810811547989711510445524649951124955</title>
<g id="a_node12"><a xlink:href="../app-shells/bash-4.1_p17.svg" xlink:title="portage://app&#45;shells/bash&#45;4.1_p17">
<ellipse fill="none" stroke="red" cx="908" cy="-574" rx="144" ry="18"/>
<text text-anchor="middle" x="908" y="-570.12" font-family="Helvetica,sans-Serif" font-size="10.00">portage://app&#45;shells/bash&#45;4.1_p17</text>
</a>
</g>
</g>
<!-- dependency15761&#45;&gt;choice971121124511510410110810811547989711510445524649951124955 -->
<g id="edge11" class="edge">
<title>dependency15761:e&#45;&gt;choice971121124511510410110810811547989711510445524649951124955:w</title>
<path fill="none" stroke="black" stroke-dasharray="1,5" d="M657,-520C705.95,-520 709.8,-566.28 752.05,-573.15"/>
<polygon fill="black" stroke="black" points="761.79,-573.91 751.47,-577.62 758.01,-573.61 751.82,-573.13 751.82,-573.13 751.82,-573.13 758.01,-573.61 752.16,-568.65 761.79,-573.91"/>
</g>
<!-- choice971121124511510410110810811547989711510445524650951125351 -->
<g id="node13" class="node">
<title>choice971121124511510410110810811547989711510445524650951125351</title>
<g id="a_node13"><a xlink:href="../app-shells/bash-4.2_p53.svg" xlink:title="portage://app&#45;shells/bash&#45;4.2_p53">
<ellipse fill="none" stroke="red" cx="908" cy="-520" rx="144" ry="18"/>
<text text-anchor="middle" x="908" y="-516.12" font-family="Helvetica,sans-Serif" font-size="10.00">portage://app&#45;shells/bash&#45;4.2_p53</text>
</a>
</g>
</g>
<!-- dependency15761&#45;&gt;choice971121124511510410110810811547989711510445524650951125351 -->
<g id="edge12" class="edge">
<title>dependency15761:e&#45;&gt;choice971121124511510410110810811547989711510445524650951125351:w</title>
<path fill="none" stroke="black" stroke-dasharray="1,5" d="M657,-520C700.25,-520 713.72,-520 752.08,-520"/>
<polygon fill="black" stroke="black" points="761.78,-520 751.78,-524.5 758,-520 751.78,-520 751.78,-520 751.78,-520 758,-520 751.78,-515.5 761.78,-520"/>
</g>
<!-- choice9711211245115104101108108115479897115104455246519511252564511450 -->
<g id="node14" class="node">
<title>choice9711211245115104101108108115479897115104455246519511252564511450</title>
<g id="a_node14"><a xlink:href="../app-shells/bash-4.3_p48-r2.svg" xlink:title="portage://app&#45;shells/bash&#45;4.3_p48&#45;r2">
<ellipse fill="none" stroke="red" cx="908" cy="-466" rx="144" ry="18"/>
<text text-anchor="middle" x="908" y="-462.12" font-family="Helvetica,sans-Serif" font-size="10.00">portage://app&#45;shells/bash&#45;4.3_p48&#45;r2</text>
</a>
</g>
</g>
<!-- dependency15761&#45;&gt;choice9711211245115104101108108115479897115104455246519511252564511450 -->
<g id="edge13" class="edge">
<title>dependency15761:e&#45;&gt;choice9711211245115104101108108115479897115104455246519511252564511450:w</title>
<path fill="none" stroke="black" stroke-dasharray="1,5" d="M657,-520C705.95,-520 709.8,-473.72 752.05,-466.85"/>
<polygon fill="black" stroke="black" points="761.79,-466.09 752.16,-471.35 758.01,-466.39 751.82,-466.87 751.82,-466.87 751.82,-466.87 758.01,-466.39 751.47,-462.38 761.79,-466.09"/>
</g>
<!-- choice9711211245115104101108108115479897115104455246529511250514511450 -->
<g id="node15" class="node">
<title>choice9711211245115104101108108115479897115104455246529511250514511450</title>
<g id="a_node15"><a xlink:href="../app-shells/bash-4.4_p23-r2.svg" xlink:title="portage://app&#45;shells/bash&#45;4.4_p23&#45;r2">
<ellipse fill="none" stroke="red" cx="908" cy="-412" rx="144" ry="18"/>
<text text-anchor="middle" x="908" y="-408.12" font-family="Helvetica,sans-Serif" font-size="10.00">portage://app&#45;shells/bash&#45;4.4_p23&#45;r2</text>
</a>
</g>
</g>
<!-- dependency15761&#45;&gt;choice9711211245115104101108108115479897115104455246529511250514511450 -->
<g id="edge14" class="edge">
<title>dependency15761:e&#45;&gt;choice9711211245115104101108108115479897115104455246529511250514511450:w</title>
<path fill="none" stroke="black" stroke-dasharray="1,5" d="M657,-520C720.32,-520 698.76,-424.29 752.13,-413.07"/>
<polygon fill="black" stroke="black" points="761.79,-412.12 752.28,-417.58 758.02,-412.49 751.84,-413.1 751.84,-413.1 751.84,-413.1 758.02,-412.49 751.4,-408.62 761.79,-412.12"/>
</g>
<!-- choice9711211245115104101108108115479897115104455346489511249564511450 -->
<g id="node16" class="node">
<title>choice9711211245115104101108108115479897115104455346489511249564511450</title>
<g id="a_node16"><a xlink:href="../app-shells/bash-5.0_p18-r2.svg" xlink:title="portage://app&#45;shells/bash&#45;5.0_p18&#45;r2">
<ellipse fill="none" stroke="red" cx="908" cy="-358" rx="144" ry="18"/>
<text text-anchor="middle" x="908" y="-354.12" font-family="Helvetica,sans-Serif" font-size="10.00">portage://app&#45;shells/bash&#45;5.0_p18&#45;r2</text>
</a>
</g>
</g>
<!-- dependency15761&#45;&gt;choice9711211245115104101108108115479897115104455346489511249564511450 -->
<g id="edge15" class="edge">
<title>dependency15761:e&#45;&gt;choice9711211245115104101108108115479897115104455346489511249564511450:w</title>
<path fill="none" stroke="black" stroke-dasharray="1,5" d="M657,-520C739.01,-520 682.82,-372.83 751.87,-359.03"/>
<polygon fill="black" stroke="black" points="761.79,-358.11 752.25,-363.52 758.02,-358.46 751.83,-359.04 751.83,-359.04 751.83,-359.04 758.02,-358.46 751.41,-354.56 761.79,-358.11"/>
</g>
<!-- choice9711211245115104101108108115479897115104455346499511249544511454 -->
<g id="node17" class="node">
<title>choice9711211245115104101108108115479897115104455346499511249544511454</title>
<g id="a_node17"><a xlink:href="../app-shells/bash-5.1_p16-r6.svg" xlink:title="portage://app&#45;shells/bash&#45;5.1_p16&#45;r6">
<ellipse fill="none" stroke="red" cx="908" cy="-304" rx="144" ry="18"/>
<text text-anchor="middle" x="908" y="-300.12" font-family="Helvetica,sans-Serif" font-size="10.00">portage://app&#45;shells/bash&#45;5.1_p16&#45;r6</text>
</a>
</g>
</g>
<!-- dependency15761&#45;&gt;choice9711211245115104101108108115479897115104455346499511249544511454 -->
<g id="edge16" class="edge">
<title>dependency15761:e&#45;&gt;choice9711211245115104101108108115479897115104455346499511249544511454:w</title>
<path fill="none" stroke="black" stroke-dasharray="1,5" d="M657,-520C759.97,-520 663.77,-319.73 751.96,-304.87"/>
<polygon fill="black" stroke="black" points="761.79,-304.1 752.17,-309.37 758.02,-304.39 751.82,-304.88 751.82,-304.88 751.82,-304.88 758.02,-304.39 751.46,-300.4 761.79,-304.1"/>
</g>
<!-- choice9711211245115104101108108115479897115104455346499511249544511455 -->
<g id="node18" class="node">
<title>choice9711211245115104101108108115479897115104455346499511249544511455</title>
<g id="a_node18"><a xlink:href="../app-shells/bash-5.1_p16-r7.svg" xlink:title="portage://app&#45;shells/bash&#45;5.1_p16&#45;r7">
<ellipse fill="none" stroke="red" cx="908" cy="-250" rx="144" ry="18"/>
<text text-anchor="middle" x="908" y="-246.12" font-family="Helvetica,sans-Serif" font-size="10.00">portage://app&#45;shells/bash&#45;5.1_p16&#45;r7</text>
</a>
</g>
</g>
<!-- dependency15761&#45;&gt;choice9711211245115104101108108115479897115104455346499511249544511455 -->
<g id="edge17" class="edge">
<title>dependency15761:e&#45;&gt;choice9711211245115104101108108115479897115104455346499511249544511455:w</title>
<path fill="none" stroke="black" stroke-dasharray="1,5" d="M657,-520C782.01,-520 643.02,-266.1 752.05,-250.73"/>
<polygon fill="black" stroke="black" points="761.78,-250.08 752.1,-255.23 758.01,-250.33 751.81,-250.74 751.81,-250.74 751.81,-250.74 758.01,-250.33 751.51,-246.25 761.78,-250.08"/>
</g>
<!-- choice9711211245115104101108108115479897115104455346509511250494511449 -->
<g id="node19" class="node">
<title>choice9711211245115104101108108115479897115104455346509511250494511449</title>
<g id="a_node19"><a xlink:href="../app-shells/bash-5.2_p21-r1.svg" xlink:title="portage://app&#45;shells/bash&#45;5.2_p21&#45;r1">
<ellipse fill="none" stroke="red" cx="908" cy="-196" rx="144" ry="18"/>
<text text-anchor="middle" x="908" y="-192.12" font-family="Helvetica,sans-Serif" font-size="10.00">portage://app&#45;shells/bash&#45;5.2_p21&#45;r1</text>
</a>
</g>
</g>
<!-- dependency15761&#45;&gt;choice9711211245115104101108108115479897115104455346509511250494511449 -->
<g id="edge18" class="edge">
<title>dependency15761:e&#45;&gt;choice9711211245115104101108108115479897115104455346509511250494511449:w</title>
<path fill="none" stroke="black" stroke-dasharray="1,5" d="M657,-520C804.66,-520 621.27,-212.24 752.12,-196.62"/>
<polygon fill="black" stroke="black" points="761.78,-196.07 752.05,-201.13 758.01,-196.28 751.8,-196.63 751.8,-196.63 751.8,-196.63 758.01,-196.28 751.55,-192.14 761.78,-196.07"/>
</g>
<!-- choice9711211245115104101108108115479897115104455346509511250494511450 -->
<g id="node20" class="node">
<title>choice9711211245115104101108108115479897115104455346509511250494511450</title>
<g id="a_node20"><a xlink:href="../app-shells/bash-5.2_p21-r2.svg" xlink:title="portage://app&#45;shells/bash&#45;5.2_p21&#45;r2">
<ellipse fill="none" stroke="red" cx="908" cy="-142" rx="144" ry="18"/>
<text text-anchor="middle" x="908" y="-138.12" font-family="Helvetica,sans-Serif" font-size="10.00">portage://app&#45;shells/bash&#45;5.2_p21&#45;r2</text>
</a>
</g>
</g>
<!-- dependency15761&#45;&gt;choice9711211245115104101108108115479897115104455346509511250494511450 -->
<g id="edge19" class="edge">
<title>dependency15761:e&#45;&gt;choice9711211245115104101108108115479897115104455346509511250494511450:w</title>
<path fill="none" stroke="black" stroke-dasharray="1,5" d="M657,-520C827.56,-520 599.22,-158.79 751.87,-142.56"/>
<polygon fill="black" stroke="black" points="761.78,-142.06 752.02,-147.06 758.01,-142.25 751.8,-142.57 751.8,-142.57 751.8,-142.57 758.01,-142.25 751.57,-138.07 761.78,-142.06"/>
</g>
<!-- choice971121124511510410110810811547989711510445534650951125054 -->
<g id="node21" class="node">
<title>choice971121124511510410110810811547989711510445534650951125054</title>
<g id="a_node21"><a xlink:href="../app-shells/bash-5.2_p26.svg" xlink:title="portage://app&#45;shells/bash&#45;5.2_p26">
<ellipse fill="none" stroke="red" cx="908" cy="-88" rx="144" ry="18"/>
<text text-anchor="middle" x="908" y="-84.12" font-family="Helvetica,sans-Serif" font-size="10.00">portage://app&#45;shells/bash&#45;5.2_p26</text>
</a>
</g>
</g>
<!-- dependency15761&#45;&gt;choice971121124511510410110810811547989711510445534650951125054 -->
<g id="edge20" class="edge">
<title>dependency15761:e&#45;&gt;choice971121124511510410110810811547989711510445534650951125054:w</title>
<path fill="none" stroke="black" stroke-dasharray="1,5" d="M657,-520C850.83,-520 576.42,-104.71 751.97,-88.49"/>
<polygon fill="black" stroke="black" points="761.78,-88.05 751.99,-92.99 758,-88.22 751.79,-88.5 751.79,-88.5 751.79,-88.5 758,-88.22 751.59,-84 761.78,-88.05"/>
</g>
<!-- choice97112112451151041011081081154798971151044557575757 -->
<g id="node22" class="node">
<title>choice97112112451151041011081081154798971151044557575757</title>
<g id="a_node22"><a xlink:href="../app-shells/bash-9999.svg" xlink:title="portage://app&#45;shells/bash&#45;9999">
<ellipse fill="none" stroke="red" cx="908" cy="-34" rx="144" ry="18"/>
<text text-anchor="middle" x="908" y="-30.12" font-family="Helvetica,sans-Serif" font-size="10.00">portage://app&#45;shells/bash&#45;9999</text>
</a>
</g>
</g>
<!-- dependency15761&#45;&gt;choice97112112451151041011081081154798971151044557575757 -->
<g id="edge21" class="edge">
<title>dependency15761:e&#45;&gt;choice97112112451151041011081081154798971151044557575757:w</title>
<path fill="none" stroke="black" stroke-dasharray="1,5" d="M657,-520C874.19,-520 553.57,-50.94 751.85,-34.45"/>
<polygon fill="black" stroke="black" points="761.78,-34.05 751.97,-38.94 758,-34.2 751.79,-34.45 751.79,-34.45 751.79,-34.45 758,-34.2 751.61,-29.95 761.78,-34.05"/>
</g>
<!-- choice10010111845112121116104111110471151109710710111110510845484649484653 -->
<g id="node23" class="node">
<title>choice10010111845112121116104111110471151109710710111110510845484649484653</title>
<g id="a_node23"><a xlink:href="../dev-python/snakeoil-0.10.5.svg" xlink:title="portage://dev&#45;python/snakeoil&#45;0.10.5">
<ellipse fill="none" stroke="red" cx="908" cy="-1060" rx="144" ry="18"/>
<text text-anchor="middle" x="908" y="-1056.12" font-family="Helvetica,sans-Serif" font-size="10.00">portage://dev&#45;python/snakeoil&#45;0.10.5</text>
</a>
</g>
</g>
<!-- dependency15762&#45;&gt;choice10010111845112121116104111110471151109710710111110510845484649484653 -->
<g id="edge22" class="edge">
<title>dependency15762:e&#45;&gt;choice10010111845112121116104111110471151109710710111110510845484649484653:w</title>
<path fill="none" stroke="black" stroke-dasharray="1,5" d="M657,-898C739.01,-898 682.82,-1045.17 751.87,-1058.97"/>
<polygon fill="black" stroke="black" points="761.79,-1059.89 751.41,-1063.44 758.02,-1059.54 751.83,-1058.96 751.83,-1058.96 751.83,-1058.96 758.02,-1059.54 752.25,-1054.48 761.79,-1059.89"/>
</g>
<!-- choice10010111845112121116104111110471151109710710111110510845484649484654 -->
<g id="node24" class="node">
<title>choice10010111845112121116104111110471151109710710111110510845484649484654</title>
<g id="a_node24"><a xlink:href="../dev-python/snakeoil-0.10.6.svg" xlink:title="portage://dev&#45;python/snakeoil&#45;0.10.6">
<ellipse fill="none" stroke="red" cx="908" cy="-1006" rx="144" ry="18"/>
<text text-anchor="middle" x="908" y="-1002.12" font-family="Helvetica,sans-Serif" font-size="10.00">portage://dev&#45;python/snakeoil&#45;0.10.6</text>
</a>
</g>
</g>
<!-- dependency15762&#45;&gt;choice10010111845112121116104111110471151109710710111110510845484649484654 -->
<g id="edge23" class="edge">
<title>dependency15762:e&#45;&gt;choice10010111845112121116104111110471151109710710111110510845484649484654:w</title>
<path fill="none" stroke="black" stroke-dasharray="1,5" d="M657,-898C720.32,-898 698.76,-993.71 752.13,-1004.93"/>
<polygon fill="black" stroke="black" points="761.79,-1005.88 751.4,-1009.38 758.02,-1005.51 751.84,-1004.9 751.84,-1004.9 751.84,-1004.9 758.02,-1005.51 752.28,-1000.42 761.79,-1005.88"/>
</g>
<!-- choice10010111845112121116104111110471151109710710111110510845484649484655 -->
<g id="node25" class="node">
<title>choice10010111845112121116104111110471151109710710111110510845484649484655</title>
<g id="a_node25"><a xlink:href="../dev-python/snakeoil-0.10.7.svg" xlink:title="portage://dev&#45;python/snakeoil&#45;0.10.7">
<ellipse fill="none" stroke="red" cx="908" cy="-952" rx="144" ry="18"/>
<text text-anchor="middle" x="908" y="-948.12" font-family="Helvetica,sans-Serif" font-size="10.00">portage://dev&#45;python/snakeoil&#45;0.10.7</text>
</a>
</g>
</g>
<!-- dependency15762&#45;&gt;choice10010111845112121116104111110471151109710710111110510845484649484655 -->
<g id="edge24" class="edge">
<title>dependency15762:e&#45;&gt;choice10010111845112121116104111110471151109710710111110510845484649484655:w</title>
<path fill="none" stroke="black" stroke-dasharray="1,5" d="M657,-898C705.95,-898 709.8,-944.28 752.05,-951.15"/>
<polygon fill="black" stroke="black" points="761.79,-951.91 751.47,-955.62 758.01,-951.61 751.82,-951.13 751.82,-951.13 751.82,-951.13 758.01,-951.61 752.16,-946.65 761.79,-951.91"/>
</g>
<!-- choice1001011184511212111610411111047115110971071011111051084557575757 -->
<g id="node26" class="node">
<title>choice1001011184511212111610411111047115110971071011111051084557575757</title>
<g id="a_node26"><a xlink:href="../dev-python/snakeoil-9999.svg" xlink:title="portage://dev&#45;python/snakeoil&#45;9999">
<ellipse fill="none" stroke="red" cx="908" cy="-898" rx="144" ry="18"/>
<text text-anchor="middle" x="908" y="-894.12" font-family="Helvetica,sans-Serif" font-size="10.00">portage://dev&#45;python/snakeoil&#45;9999</text>
</a>
</g>
</g>
<!-- dependency15762&#45;&gt;choice1001011184511212111610411111047115110971071011111051084557575757 -->
<g id="edge25" class="edge">
<title>dependency15762:e&#45;&gt;choice1001011184511212111610411111047115110971071011111051084557575757:w</title>
<path fill="none" stroke="black" stroke-dasharray="1,5" d="M657,-898C700.25,-898 713.72,-898 752.08,-898"/>
<polygon fill="black" stroke="black" points="761.78,-898 751.78,-902.5 758,-898 751.78,-898 751.78,-898 751.78,-898 758,-898 751.78,-893.5 761.78,-898"/>
</g>
</g>
</svg>
