<?xml version="1.0" encoding="UTF-8" standalone="no"?>
<!DOCTYPE svg PUBLIC "-//W3C//DTD SVG 1.1//EN"
 "http://www.w3.org/Graphics/SVG/1.1/DTD/svg11.dtd">
<!-- Generated by graphviz version 9.0.0 (20230911.1827)
 -->
<!-- Title: prolog Pages: 1 -->
<svg width="1076pt" height="353pt"
 viewBox="0.00 0.00 1076.00 353.00" xmlns="http://www.w3.org/2000/svg" xmlns:xlink="http://www.w3.org/1999/xlink">
<g id="graph0" class="graph" transform="scale(1 1) rotate(0) translate(4 349)">
<title>prolog</title>
<polygon fill="white" stroke="none" points="-4,4 -4,-349 1072,-349 1072,4 -4,4"/>
<g id="clust2" class="cluster">
<title>cluster_midcol</title>
<polygon fill="none" stroke="gray" points="8,-8 8,-337 672,-337 672,-8 8,-8"/>
<text text-anchor="start" x="310" y="-324.5" font-family="Helvetica,sans-Serif" font-style="italic" font-size="10.00">dependencies</text>
</g>
<g id="clust3" class="cluster">
<title>cluster_compile</title>
<polygon fill="#eeeeee" stroke="gray" points="16,-16 16,-153 664,-153 664,-16 16,-16"/>
<text text-anchor="start" x="323.12" y="-140.5" font-family="Helvetica,sans-Serif" font-style="italic" font-size="10.00">compile</text>
</g>
<g id="clust5" class="cluster">
<title>cluster_compileandrun</title>
<polygon fill="#eeeeee" stroke="gray" points="412,-161 412,-310 664,-310 664,-161 412,-161"/>
<text text-anchor="start" x="503.5" y="-297.5" font-family="Helvetica,sans-Serif" font-style="italic" font-size="10.00">compile and run</text>
</g>
<g id="clust8" class="cluster">
<title>cluster_choices</title>
<polygon fill="none" stroke="gray" points="756,-70 756,-303 1060,-303 1060,-70 756,-70"/>
<text text-anchor="start" x="884.38" y="-290.5" font-family="Helvetica,sans-Serif" font-style="italic" font-size="10.00">candidates</text>
</g>
<!-- id -->
<g id="node1" class="node">
<title>id</title>
<g id="a_node1"><a xlink:href="../sys-apps/secilc-2.8.svg" xlink:title="portage://sys&#45;apps/secilc&#45;2.8">
<ellipse fill="none" stroke="red" cx="168" cy="-91" rx="144" ry="18"/>
<text text-anchor="middle" x="168" y="-87.12" font-family="Helvetica,sans-Serif" font-size="10.00">portage://sys&#45;apps/secilc&#45;2.8</text>
</a>
</g>
</g>
<!-- dependency410879 -->
<g id="node2" class="node">
<title>dependency410879</title>
<polygon fill="none" stroke="blue" points="428,-28 428,-122 532,-122 532,-28 428,-28"/>
<text text-anchor="start" x="459" y="-71.12" font-family="Helvetica,sans-Serif" font-size="10.00">pack_dep</text>
<polygon fill="none" stroke="blue" points="532,-101 532,-122 642,-122 642,-101 532,-101"/>
<text text-anchor="start" x="581.75" y="-107.5" font-family="Helvetica,sans-Serif" font-size="10.00">no</text>
<polygon fill="none" stroke="blue" points="532,-80 532,-101 642,-101 642,-80 532,-80"/>
<text text-anchor="start" x="569.38" y="-86.5" font-family="Helvetica,sans-Serif" font-size="10.00">app&#45;text</text>
<polygon fill="none" stroke="blue" points="532,-59 532,-80 642,-80 642,-59 532,-59"/>
<text text-anchor="start" x="575" y="-65.5" font-family="Helvetica,sans-Serif" font-size="10.00">xmlto</text>
<polygon fill="none" stroke="blue" points="532,-38 532,-59 642,-59 642,-38 532,-38"/>
<text text-anchor="start" x="576.5" y="-44.5" font-family="Helvetica,sans-Serif" font-size="10.00">none</text>
<polygon fill="none" stroke="blue" points="532,-28 532,-38 642,-38 642,-28 532,-28"/>
</g>
<!-- id&#45;&gt;dependency410879 -->
<g id="edge1" class="edge">
<title>id:e&#45;&gt;dependency410879:w</title>
<path fill="none" stroke="black" d="M312,-91C356.14,-91 368.89,-77.52 407.88,-75.31"/>
<polygon fill="black" stroke="black" points="417.78,-75.03 407.91,-79.81 414,-75.14 407.79,-75.31 407.79,-75.31 407.79,-75.31 414,-75.14 407.66,-70.81 417.78,-75.03"/>
</g>
<!-- dependency410880 -->
<g id="node3" class="node">
<title>dependency410880</title>
<polygon fill="none" stroke="blue" points="428,-173.5 428,-278.5 532,-278.5 532,-173.5 428,-173.5"/>
<text text-anchor="start" x="459" y="-222.12" font-family="Helvetica,sans-Serif" font-size="10.00">pack_dep</text>
<polygon fill="none" stroke="blue" points="532,-257.5 532,-278.5 642,-278.5 642,-257.5 532,-257.5"/>
<text text-anchor="start" x="581.75" y="-264" font-family="Helvetica,sans-Serif" font-size="10.00">no</text>
<polygon fill="none" stroke="blue" points="532,-236.5 532,-257.5 642,-257.5 642,-236.5 532,-236.5"/>
<text text-anchor="start" x="570.12" y="-243" font-family="Helvetica,sans-Serif" font-size="10.00">sys&#45;libs</text>
<polygon fill="none" stroke="blue" points="532,-215.5 532,-236.5 642,-236.5 642,-215.5 532,-215.5"/>
<text text-anchor="start" x="570.5" y="-222" font-family="Helvetica,sans-Serif" font-size="10.00">libsepol</text>
<polygon fill="none" stroke="blue" points="532,-194.5 532,-215.5 642,-215.5 642,-194.5 532,-194.5"/>
<text text-anchor="start" x="560.38" y="-201" font-family="Helvetica,sans-Serif" font-size="10.00">greaterequal</text>
<polygon fill="none" stroke="blue" points="532,-173.5 532,-194.5 642,-194.5 642,-173.5 532,-173.5"/>
<text text-anchor="start" x="580.25" y="-180" font-family="Helvetica,sans-Serif" font-size="10.00">2.8</text>
</g>
<!-- id&#45;&gt;dependency410880 -->
<g id="edge2" class="edge">
<title>id:e&#45;&gt;dependency410880:w</title>
<path fill="none" stroke="black" d="M312,-91C380.78,-91 350.54,-199.97 399.21,-222.11"/>
<ellipse fill="none" stroke="black" cx="414.58" cy="-225.13" rx="4" ry="4"/>
<polygon fill="black" stroke="black" points="408.97,-224.03 398.29,-226.51 405.26,-223.3 399.16,-222.1 399.16,-222.1 399.16,-222.1 405.26,-223.3 400.03,-217.68 408.97,-224.03"/>
</g>
<!-- choiceportage971121124511610112011647120109108116111454846484650564511449 -->
<g id="node4" class="node">
<title>choiceportage971121124511610112011647120109108116111454846484650564511449</title>
<g id="a_node4"><a xlink:href="../app-text/xmlto-0.0.28-r1.svg" xlink:title="portage://app&#45;text/xmlto&#45;0.0.28&#45;r1">
<ellipse fill="none" stroke="red" cx="908" cy="-96" rx="144" ry="18"/>
<text text-anchor="middle" x="908" y="-92.12" font-family="Helvetica,sans-Serif" font-size="10.00">portage://app&#45;text/xmlto&#45;0.0.28&#45;r1</text>
</a>
</g>
</g>
<!-- dependency410879&#45;&gt;choiceportage971121124511610112011647120109108116111454846484650564511449 -->
<g id="edge3" class="edge">
<title>dependency410879:e&#45;&gt;choiceportage971121124511610112011647120109108116111454846484650564511449:w</title>
<path fill="none" stroke="black" stroke-dasharray="1,5" d="M657,-75C701.09,-75 713.09,-92.7 751.91,-95.6"/>
<polygon fill="black" stroke="black" points="761.78,-95.96 751.63,-100.09 758,-95.82 751.79,-95.59 751.79,-95.59 751.79,-95.59 758,-95.82 751.95,-91.1 761.78,-95.96"/>
</g>
<!-- choiceportage1151211154510810598115471081059811510111211110845504656 -->
<g id="node5" class="node">
<title>choiceportage1151211154510810598115471081059811510111211110845504656</title>
<g id="a_node5"><a xlink:href="../sys-libs/libsepol-2.8.svg" xlink:title="portage://sys&#45;libs/libsepol&#45;2.8">
<ellipse fill="none" stroke="red" cx="908" cy="-204" rx="144" ry="18"/>
<text text-anchor="middle" x="908" y="-200.12" font-family="Helvetica,sans-Serif" font-size="10.00">portage://sys&#45;libs/libsepol&#45;2.8</text>
</a>
</g>
</g>
<!-- dependency410880&#45;&gt;choiceportage1151211154510810598115471081059811510111211110845504656 -->
<g id="edge4" class="edge">
<title>dependency410880:e&#45;&gt;choiceportage1151211154510810598115471081059811510111211110845504656:w</title>
<path fill="none" stroke="black" stroke-dasharray="1,5" d="M657,-226C701.17,-226 713.02,-207.46 751.89,-204.42"/>
<polygon fill="black" stroke="black" points="761.78,-204.05 751.96,-208.92 758,-204.19 751.79,-204.42 751.79,-204.42 751.79,-204.42 758,-204.19 751.62,-199.93 761.78,-204.05"/>
</g>
<!-- choiceportage1151211154510810598115471081059811510111211110845504657 -->
<g id="node6" class="node">
<title>choiceportage1151211154510810598115471081059811510111211110845504657</title>
<g id="a_node6"><a xlink:href="../sys-libs/libsepol-2.9.svg" xlink:title="portage://sys&#45;libs/libsepol&#45;2.9">
<ellipse fill="none" stroke="red" cx="908" cy="-150" rx="144" ry="18"/>
<text text-anchor="middle" x="908" y="-146.12" font-family="Helvetica,sans-Serif" font-size="10.00">portage://sys&#45;libs/libsepol&#45;2.9</text>
</a>
</g>
</g>
<!-- dependency410880&#45;&gt;choiceportage1151211154510810598115471081059811510111211110845504657 -->
<g id="edge5" class="edge">
<title>dependency410880:e&#45;&gt;choiceportage1151211154510810598115471081059811510111211110845504657:w</title>
<path fill="none" stroke="black" stroke-dasharray="1,5" d="M657,-226C711.01,-226 706.07,-160.04 752.02,-151.02"/>
<polygon fill="black" stroke="black" points="761.79,-150.11 752.24,-155.52 758.02,-150.46 751.83,-151.03 751.83,-151.03 751.83,-151.03 758.02,-150.46 751.41,-146.55 761.79,-150.11"/>
</g>
<!-- choiceportage115121115451081059811547108105981151011121111084557575757 -->
<g id="node7" class="node">
<title>choiceportage115121115451081059811547108105981151011121111084557575757</title>
<g id="a_node7"><a xlink:href="../sys-libs/libsepol-9999.svg" xlink:title="portage://sys&#45;libs/libsepol&#45;9999">
<ellipse fill="none" stroke="red" cx="908" cy="-258" rx="144" ry="18"/>
<text text-anchor="middle" x="908" y="-254.12" font-family="Helvetica,sans-Serif" font-size="10.00">portage://sys&#45;libs/libsepol&#45;9999</text>
</a>
</g>
</g>
<!-- dependency410880&#45;&gt;choiceportage115121115451081059811547108105981151011121111084557575757 -->
<g id="edge6" class="edge">
<title>dependency410880:e&#45;&gt;choiceportage115121115451081059811547108105981151011121111084557575757:w</title>
<path fill="none" stroke="black" stroke-dasharray="1,5" d="M657,-226C702.27,-226 712.31,-253.08 751.94,-257.42"/>
<polygon fill="black" stroke="black" points="761.78,-257.94 751.56,-261.9 758.01,-257.74 751.8,-257.41 751.8,-257.41 751.8,-257.41 758.01,-257.74 752.03,-252.92 761.78,-257.94"/>
</g>
</g>
</svg>
