<?xml version="1.0" encoding="UTF-8" standalone="no"?>
<!DOCTYPE svg PUBLIC "-//W3C//DTD SVG 1.1//EN"
 "http://www.w3.org/Graphics/SVG/1.1/DTD/svg11.dtd">
<!-- Generated by graphviz version 12.0.0 (20240704.0754)
 -->
<!-- Title: prolog Pages: 1 -->
<svg width="1411pt" height="1006pt"
 viewBox="0.00 0.00 1411.00 1006.00" xmlns="http://www.w3.org/2000/svg" xmlns:xlink="http://www.w3.org/1999/xlink">
<g id="graph0" class="graph" transform="scale(1 1) rotate(0) translate(4 1002)">
<title>prolog</title>
<polygon fill="white" stroke="none" points="-4,4 -4,-1002 1407,-1002 1407,4 -4,4"/>
<g id="clust1" class="cluster">
<title>cluster_leftcol</title>
<polygon fill="none" stroke="gray" points="8,-513 8,-584 312,-584 312,-513 8,-513"/>
<text text-anchor="start" x="147.25" y="-571.5" font-family="Helvetica,sans-Serif" font-style="italic" font-size="10.00">ebuild</text>
</g>
<g id="clust2" class="cluster">
<title>cluster_midcol</title>
<polygon fill="none" stroke="gray" points="396,-8 396,-847 1007,-847 1007,-8 396,-8"/>
<text text-anchor="start" x="671.5" y="-834.5" font-family="Helvetica,sans-Serif" font-style="italic" font-size="10.00">dependencies</text>
</g>
<g id="clust5" class="cluster">
<title>cluster_run</title>
<polygon fill="#eeeeee" stroke="gray" points="404,-16 404,-820 999,-820 999,-16 404,-16"/>
<text text-anchor="start" x="694.75" y="-807.5" font-family="Helvetica,sans-Serif" font-style="italic" font-size="10.00">run</text>
</g>
<g id="clust15" class="cluster">
<title>cluster_choices</title>
<polygon fill="none" stroke="gray" points="1091,-55 1091,-990 1395,-990 1395,-55 1091,-55"/>
<text text-anchor="start" x="1219.38" y="-977.5" font-family="Helvetica,sans-Serif" font-style="italic" font-size="10.00">candidates</text>
</g>
<!-- id -->
<g id="node1" class="node">
<title>id</title>
<g id="a_node1"><a xlink:href="../sys-apps/uswid-0.4.7.svg" xlink:title="portage://sys&#45;apps/uswid&#45;0.4.7">
<ellipse fill="none" stroke="red" cx="160" cy="-539" rx="144" ry="18"/>
<text text-anchor="middle" x="160" y="-535.12" font-family="Helvetica,sans-Serif" font-size="10.00">portage://sys&#45;apps/uswid&#45;0.4.7</text>
</a>
</g>
</g>
<!-- dependency425593 -->
<g id="node2" class="node">
<title>dependency425593</title>
<polygon fill="none" stroke="red" points="420,-469 420,-511 509,-511 509,-469 420,-469"/>
<text text-anchor="start" x="430.75" y="-486.12" font-family="Helvetica,sans-Serif" font-size="10.00">use_conditional</text>
<polygon fill="none" stroke="red" points="509,-490 509,-511 639,-511 639,-490 509,-490"/>
<text text-anchor="start" x="557.12" y="-496.5" font-family="Helvetica,sans-Serif" font-size="10.00">positive</text>
<polygon fill="none" stroke="red" points="509,-469 509,-490 639,-490 639,-469 509,-469"/>
<text text-anchor="start" x="514" y="-475.5" font-family="Helvetica,sans-Serif" font-size="10.00">python_targets_python3_10</text>
</g>
<!-- id&#45;&gt;dependency425593 -->
<g id="edge2" class="edge">
<title>id:e&#45;&gt;dependency425593:w</title>
<path fill="none" stroke="black" d="M305.23,-539C353.95,-539 358.81,-495.75 402.22,-490.52"/>
<ellipse fill="none" stroke="black" cx="406.62" cy="-490.26" rx="4" ry="4"/>
</g>
<!-- dependency425595 -->
<g id="node4" class="node">
<title>dependency425595</title>
<polygon fill="none" stroke="red" points="420,-568 420,-610 509,-610 509,-568 420,-568"/>
<text text-anchor="start" x="430.75" y="-585.12" font-family="Helvetica,sans-Serif" font-size="10.00">use_conditional</text>
<polygon fill="none" stroke="red" points="509,-589 509,-610 639,-610 639,-589 509,-589"/>
<text text-anchor="start" x="557.12" y="-595.5" font-family="Helvetica,sans-Serif" font-size="10.00">positive</text>
<polygon fill="none" stroke="red" points="509,-568 509,-589 639,-589 639,-568 509,-568"/>
<text text-anchor="start" x="514" y="-574.5" font-family="Helvetica,sans-Serif" font-size="10.00">python_targets_python3_11</text>
</g>
<!-- id&#45;&gt;dependency425595 -->
<g id="edge4" class="edge">
<title>id:e&#45;&gt;dependency425595:w</title>
<path fill="none" stroke="black" d="M305.23,-539C354.12,-539 358.67,-583.13 402.19,-588.47"/>
<ellipse fill="none" stroke="black" cx="406.62" cy="-588.73" rx="4" ry="4"/>
</g>
<!-- dependency425597 -->
<g id="node6" class="node">
<title>dependency425597</title>
<polygon fill="none" stroke="red" points="420,-683 420,-725 509,-725 509,-683 420,-683"/>
<text text-anchor="start" x="430.75" y="-700.12" font-family="Helvetica,sans-Serif" font-size="10.00">use_conditional</text>
<polygon fill="none" stroke="red" points="509,-704 509,-725 639,-725 639,-704 509,-704"/>
<text text-anchor="start" x="557.12" y="-710.5" font-family="Helvetica,sans-Serif" font-size="10.00">positive</text>
<polygon fill="none" stroke="red" points="509,-683 509,-704 639,-704 639,-683 509,-683"/>
<text text-anchor="start" x="514" y="-689.5" font-family="Helvetica,sans-Serif" font-size="10.00">python_targets_python3_12</text>
</g>
<!-- id&#45;&gt;dependency425597 -->
<g id="edge6" class="edge">
<title>id:e&#45;&gt;dependency425597:w</title>
<path fill="none" stroke="black" d="M305.23,-539C389.3,-539 328.6,-692.6 402.48,-703.4"/>
<ellipse fill="none" stroke="black" cx="406.62" cy="-703.69" rx="4" ry="4"/>
</g>
<!-- dependency425599 -->
<g id="node8" class="node">
<title>dependency425599</title>
<polygon fill="none" stroke="blue" points="763,-290.5 763,-395.5 867,-395.5 867,-290.5 763,-290.5"/>
<text text-anchor="start" x="794" y="-339.12" font-family="Helvetica,sans-Serif" font-size="10.00">pack_dep</text>
<polygon fill="none" stroke="blue" points="867,-374.5 867,-395.5 977,-395.5 977,-374.5 867,-374.5"/>
<text text-anchor="start" x="915.25" y="-381" font-family="Helvetica,sans-Serif" font-size="10.00">run</text>
<polygon fill="none" stroke="blue" points="867,-353.5 867,-374.5 977,-374.5 977,-353.5 867,-353.5"/>
<text text-anchor="start" x="898" y="-360" font-family="Helvetica,sans-Serif" font-size="10.00">dev&#45;python</text>
<polygon fill="none" stroke="blue" points="867,-332.5 867,-353.5 977,-353.5 977,-332.5 867,-332.5"/>
<text text-anchor="start" x="910" y="-339" font-family="Helvetica,sans-Serif" font-size="10.00">cbor2</text>
<polygon fill="none" stroke="blue" points="867,-311.5 867,-332.5 977,-332.5 977,-311.5 867,-311.5"/>
<text text-anchor="start" x="911.5" y="-318" font-family="Helvetica,sans-Serif" font-size="10.00">none</text>
<polygon fill="none" stroke="blue" points="867,-290.5 867,-311.5 977,-311.5 977,-290.5 867,-290.5"/>
<text text-anchor="start" x="916" y="-297" font-family="Helvetica,sans-Serif" font-size="10.00">[,,]</text>
</g>
<!-- id&#45;&gt;dependency425599 -->
<g id="edge7" class="edge">
<title>id:e&#45;&gt;dependency425599:w</title>
<path fill="none" stroke="black" d="M530.5,-278C623.28,-238.51 649.6,-336.93 746.07,-342.73"/>
<ellipse fill="none" stroke="black" cx="750.5" cy="-342.87" rx="4" ry="4"/>
</g>
<!-- dependency425600 -->
<g id="node9" class="node">
<title>dependency425600</title>
<polygon fill="none" stroke="blue" points="763,-159.5 763,-264.5 867,-264.5 867,-159.5 763,-159.5"/>
<text text-anchor="start" x="794" y="-208.12" font-family="Helvetica,sans-Serif" font-size="10.00">pack_dep</text>
<polygon fill="none" stroke="blue" points="867,-243.5 867,-264.5 977,-264.5 977,-243.5 867,-243.5"/>
<text text-anchor="start" x="915.25" y="-250" font-family="Helvetica,sans-Serif" font-size="10.00">run</text>
<polygon fill="none" stroke="blue" points="867,-222.5 867,-243.5 977,-243.5 977,-222.5 867,-222.5"/>
<text text-anchor="start" x="898" y="-229" font-family="Helvetica,sans-Serif" font-size="10.00">dev&#45;python</text>
<polygon fill="none" stroke="blue" points="867,-201.5 867,-222.5 977,-222.5 977,-201.5 867,-201.5"/>
<text text-anchor="start" x="913" y="-208" font-family="Helvetica,sans-Serif" font-size="10.00">lxml</text>
<polygon fill="none" stroke="blue" points="867,-180.5 867,-201.5 977,-201.5 977,-180.5 867,-180.5"/>
<text text-anchor="start" x="911.5" y="-187" font-family="Helvetica,sans-Serif" font-size="10.00">none</text>
<polygon fill="none" stroke="blue" points="867,-159.5 867,-180.5 977,-180.5 977,-159.5 867,-159.5"/>
<text text-anchor="start" x="916" y="-166" font-family="Helvetica,sans-Serif" font-size="10.00">[,,]</text>
</g>
<!-- id&#45;&gt;dependency425600 -->
<g id="edge8" class="edge">
<title>id:e&#45;&gt;dependency425600:w</title>
<path fill="none" stroke="black" d="M530.5,-278C623.39,-238.46 649.49,-213.49 746.06,-212.06"/>
<ellipse fill="none" stroke="black" cx="750.5" cy="-212.03" rx="4" ry="4"/>
</g>
<!-- dependency425601 -->
<g id="node10" class="node">
<title>dependency425601</title>
<polygon fill="none" stroke="blue" points="763,-28.5 763,-133.5 867,-133.5 867,-28.5 763,-28.5"/>
<text text-anchor="start" x="794" y="-77.12" font-family="Helvetica,sans-Serif" font-size="10.00">pack_dep</text>
<polygon fill="none" stroke="blue" points="867,-112.5 867,-133.5 977,-133.5 977,-112.5 867,-112.5"/>
<text text-anchor="start" x="915.25" y="-119" font-family="Helvetica,sans-Serif" font-size="10.00">run</text>
<polygon fill="none" stroke="blue" points="867,-91.5 867,-112.5 977,-112.5 977,-91.5 867,-91.5"/>
<text text-anchor="start" x="898" y="-98" font-family="Helvetica,sans-Serif" font-size="10.00">dev&#45;python</text>
<polygon fill="none" stroke="blue" points="867,-70.5 867,-91.5 977,-91.5 977,-70.5 867,-70.5"/>
<text text-anchor="start" x="910.38" y="-77" font-family="Helvetica,sans-Serif" font-size="10.00">pefile</text>
<polygon fill="none" stroke="blue" points="867,-49.5 867,-70.5 977,-70.5 977,-49.5 867,-49.5"/>
<text text-anchor="start" x="911.5" y="-56" font-family="Helvetica,sans-Serif" font-size="10.00">none</text>
<polygon fill="none" stroke="blue" points="867,-28.5 867,-49.5 977,-49.5 977,-28.5 867,-28.5"/>
<text text-anchor="start" x="916" y="-35" font-family="Helvetica,sans-Serif" font-size="10.00">[,,]</text>
</g>
<!-- id&#45;&gt;dependency425601 -->
<g id="edge9" class="edge">
<title>id:e&#45;&gt;dependency425601:w</title>
<path fill="none" stroke="black" d="M530.5,-278C649.9,-227.18 623.54,-87.47 746.3,-81.22"/>
<ellipse fill="none" stroke="black" cx="750.5" cy="-81.11" rx="4" ry="4"/>
<path fill="none" stroke="black" d="M305.23,-539C343.4,-539 493.39,-292.95 528.5,-278"/>
</g>
<!-- dependency425594 -->
<g id="node3" class="node">
<title>dependency425594</title>
<polygon fill="none" stroke="blue" points="763,-421.5 763,-526.5 867,-526.5 867,-421.5 763,-421.5"/>
<text text-anchor="start" x="794" y="-470.12" font-family="Helvetica,sans-Serif" font-size="10.00">pack_dep</text>
<polygon fill="none" stroke="blue" points="867,-505.5 867,-526.5 977,-526.5 977,-505.5 867,-505.5"/>
<text text-anchor="start" x="915.25" y="-512" font-family="Helvetica,sans-Serif" font-size="10.00">run</text>
<polygon fill="none" stroke="blue" points="867,-484.5 867,-505.5 977,-505.5 977,-484.5 867,-484.5"/>
<text text-anchor="start" x="903.62" y="-491" font-family="Helvetica,sans-Serif" font-size="10.00">dev&#45;lang</text>
<polygon fill="none" stroke="blue" points="867,-463.5 867,-484.5 977,-484.5 977,-463.5 867,-463.5"/>
<text text-anchor="start" x="907.38" y="-470" font-family="Helvetica,sans-Serif" font-size="10.00">python</text>
<polygon fill="none" stroke="blue" points="867,-442.5 867,-463.5 977,-463.5 977,-442.5 867,-442.5"/>
<text text-anchor="start" x="911.5" y="-449" font-family="Helvetica,sans-Serif" font-size="10.00">none</text>
<polygon fill="none" stroke="blue" points="867,-421.5 867,-442.5 977,-442.5 977,-421.5 867,-421.5"/>
<text text-anchor="start" x="916" y="-428" font-family="Helvetica,sans-Serif" font-size="10.00">[,,]</text>
</g>
<!-- dependency425593&#45;&gt;dependency425594 -->
<g id="edge1" class="edge">
<title>dependency425593:e&#45;&gt;dependency425594:w</title>
<path fill="none" stroke="black" stroke-dasharray="5,2" d="M647,-490C691.64,-490 704.48,-476.46 744.03,-474.29"/>
<polygon fill="black" stroke="black" points="753.78,-474.03 743.91,-478.8 750,-474.13 743.79,-474.3 743.79,-474.3 743.79,-474.3 750,-474.13 743.67,-469.8 753.78,-474.03"/>
</g>
<!-- choice1001011184510897110103471121211161041111104551464951464895981011169752 -->
<g id="node11" class="node">
<title>choice1001011184510897110103471121211161041111104551464951464895981011169752</title>
<g id="a_node11"><a xlink:href="../dev-lang/python-3.13.0_beta4.svg" xlink:title="portage://dev&#45;lang/python&#45;3.13.0_beta4">
<ellipse fill="none" stroke="red" cx="1243" cy="-891" rx="144" ry="18"/>
<text text-anchor="middle" x="1243" y="-887.12" font-family="Helvetica,sans-Serif" font-size="10.00">portage://dev&#45;lang/python&#45;3.13.0_beta4</text>
</a>
</g>
</g>
<!-- dependency425594&#45;&gt;choice1001011184510897110103471121211161041111104551464951464895981011169752 -->
<g id="edge10" class="edge">
<title>dependency425594:e&#45;&gt;choice1001011184510897110103471121211161041111104551464951464895981011169752:w</title>
<path fill="none" stroke="black" stroke-dasharray="1,5" d="M991.89,-474C1179.18,-474 917.7,-874.07 1086.58,-890.48"/>
<polygon fill="black" stroke="black" points="1096.55,-890.94 1086.35,-894.97 1092.77,-890.77 1086.56,-890.48 1086.56,-890.48 1086.56,-890.48 1092.77,-890.77 1086.77,-885.98 1096.55,-890.94"/>
</g>
<!-- choice10010111845108971101034711212111610411111045514649514648959810111697519511249 -->
<g id="node12" class="node">
<title>choice10010111845108971101034711212111610411111045514649514648959810111697519511249</title>
<g id="a_node12"><a xlink:href="../dev-lang/python-3.13.0_beta3_p1.svg" xlink:title="portage://dev&#45;lang/python&#45;3.13.0_beta3_p1">
<ellipse fill="none" stroke="red" cx="1243" cy="-945" rx="144" ry="18"/>
<text text-anchor="middle" x="1243" y="-941.12" font-family="Helvetica,sans-Serif" font-size="10.00">portage://dev&#45;lang/python&#45;3.13.0_beta3_p1</text>
</a>
</g>
</g>
<!-- dependency425594&#45;&gt;choice10010111845108971101034711212111610411111045514649514648959810111697519511249 -->
<g id="edge11" class="edge">
<title>dependency425594:e&#45;&gt;choice10010111845108971101034711212111610411111045514649514648959810111697519511249:w</title>
<path fill="none" stroke="black" stroke-dasharray="1,5" d="M991.89,-474C1202.57,-474 894.71,-928.14 1086.66,-944.54"/>
<polygon fill="black" stroke="black" points="1096.55,-944.95 1086.37,-949.04 1092.77,-944.8 1086.56,-944.54 1086.56,-944.54 1086.56,-944.54 1092.77,-944.8 1086.74,-940.04 1096.55,-944.95"/>
</g>
<!-- choice1001011184510897110103471121211161041111104551464951464895981011169751 -->
<g id="node13" class="node">
<title>choice1001011184510897110103471121211161041111104551464951464895981011169751</title>
<g id="a_node13"><a xlink:href="../dev-lang/python-3.13.0_beta3.svg" xlink:title="portage://dev&#45;lang/python&#45;3.13.0_beta3">
<ellipse fill="none" stroke="red" cx="1243" cy="-297" rx="144" ry="18"/>
<text text-anchor="middle" x="1243" y="-293.12" font-family="Helvetica,sans-Serif" font-size="10.00">portage://dev&#45;lang/python&#45;3.13.0_beta3</text>
</a>
</g>
</g>
<!-- dependency425594&#45;&gt;choice1001011184510897110103471121211161041111104551464951464895981011169751 -->
<g id="edge12" class="edge">
<title>dependency425594:e&#45;&gt;choice1001011184510897110103471121211161041111104551464951464895981011169751:w</title>
<path fill="none" stroke="black" stroke-dasharray="1,5" d="M991.89,-474C1079.62,-474 1012.44,-311.88 1086.86,-297.95"/>
<polygon fill="black" stroke="black" points="1096.55,-297.11 1086.98,-302.46 1092.78,-297.43 1086.59,-297.98 1086.59,-297.98 1086.59,-297.98 1092.78,-297.43 1086.2,-293.49 1096.55,-297.11"/>
</g>
<!-- choice10010111845108971101034711212111610411111045514649514648959810111697509511257 -->
<g id="node14" class="node">
<title>choice10010111845108971101034711212111610411111045514649514648959810111697509511257</title>
<g id="a_node14"><a xlink:href="../dev-lang/python-3.13.0_beta2_p9.svg" xlink:title="portage://dev&#45;lang/python&#45;3.13.0_beta2_p9">
<ellipse fill="none" stroke="red" cx="1243" cy="-351" rx="144" ry="18"/>
<text text-anchor="middle" x="1243" y="-347.12" font-family="Helvetica,sans-Serif" font-size="10.00">portage://dev&#45;lang/python&#45;3.13.0_beta2_p9</text>
</a>
</g>
</g>
<!-- dependency425594&#45;&gt;choice10010111845108971101034711212111610411111045514649514648959810111697509511257 -->
<g id="edge13" class="edge">
<title>dependency425594:e&#45;&gt;choice10010111845108971101034711212111610411111045514649514648959810111697509511257:w</title>
<path fill="none" stroke="black" stroke-dasharray="1,5" d="M991.89,-474C1060.07,-474 1029.5,-364.09 1086.89,-352.06"/>
<polygon fill="black" stroke="black" points="1096.55,-351.12 1087.04,-356.57 1092.79,-351.49 1086.6,-352.09 1086.6,-352.09 1086.6,-352.09 1092.79,-351.49 1086.16,-347.61 1096.55,-351.12"/>
</g>
<!-- choice10010111845108971101034711212111610411111045514649514648959810111697499511251 -->
<g id="node15" class="node">
<title>choice10010111845108971101034711212111610411111045514649514648959810111697499511251</title>
<g id="a_node15"><a xlink:href="../dev-lang/python-3.13.0_beta1_p3.svg" xlink:title="portage://dev&#45;lang/python&#45;3.13.0_beta1_p3">
<ellipse fill="none" stroke="red" cx="1243" cy="-405" rx="144" ry="18"/>
<text text-anchor="middle" x="1243" y="-401.12" font-family="Helvetica,sans-Serif" font-size="10.00">portage://dev&#45;lang/python&#45;3.13.0_beta1_p3</text>
</a>
</g>
</g>
<!-- dependency425594&#45;&gt;choice10010111845108971101034711212111610411111045514649514648959810111697499511251 -->
<g id="edge14" class="edge">
<title>dependency425594:e&#45;&gt;choice10010111845108971101034711212111610411111045514649514648959810111697499511251:w</title>
<path fill="none" stroke="black" stroke-dasharray="1,5" d="M991.89,-474C1044.11,-474 1042.2,-414.36 1086.8,-405.98"/>
<polygon fill="black" stroke="black" points="1096.55,-405.11 1086.99,-410.48 1092.79,-405.44 1086.59,-405.99 1086.59,-405.99 1086.59,-405.99 1092.79,-405.44 1086.19,-401.51 1096.55,-405.11"/>
</g>
<!-- choice100101118451089711010347112121116104111110455146495046529511250 -->
<g id="node16" class="node">
<title>choice100101118451089711010347112121116104111110455146495046529511250</title>
<g id="a_node16"><a xlink:href="../dev-lang/python-3.12.4_p2.svg" xlink:title="portage://dev&#45;lang/python&#45;3.12.4_p2">
<ellipse fill="none" stroke="red" cx="1243" cy="-459" rx="144" ry="18"/>
<text text-anchor="middle" x="1243" y="-455.12" font-family="Helvetica,sans-Serif" font-size="10.00">portage://dev&#45;lang/python&#45;3.12.4_p2</text>
</a>
</g>
</g>
<!-- dependency425594&#45;&gt;choice100101118451089711010347112121116104111110455146495046529511250 -->
<g id="edge15" class="edge">
<title>dependency425594:e&#45;&gt;choice100101118451089711010347112121116104111110455146495046529511250:w</title>
<path fill="none" stroke="black" stroke-dasharray="1,5" d="M991.89,-474C1035.52,-474 1048.22,-461.36 1086.77,-459.29"/>
<polygon fill="black" stroke="black" points="1096.55,-459.03 1086.67,-463.79 1092.77,-459.13 1086.55,-459.29 1086.55,-459.29 1086.55,-459.29 1092.77,-459.13 1086.43,-454.79 1096.55,-459.03"/>
</g>
<!-- choice100101118451089711010347112121116104111110455146495046529511249 -->
<g id="node17" class="node">
<title>choice100101118451089711010347112121116104111110455146495046529511249</title>
<g id="a_node17"><a xlink:href="../dev-lang/python-3.12.4_p1.svg" xlink:title="portage://dev&#45;lang/python&#45;3.12.4_p1">
<ellipse fill="none" stroke="red" cx="1243" cy="-513" rx="144" ry="18"/>
<text text-anchor="middle" x="1243" y="-509.12" font-family="Helvetica,sans-Serif" font-size="10.00">portage://dev&#45;lang/python&#45;3.12.4_p1</text>
</a>
</g>
</g>
<!-- dependency425594&#45;&gt;choice100101118451089711010347112121116104111110455146495046529511249 -->
<g id="edge16" class="edge">
<title>dependency425594:e&#45;&gt;choice100101118451089711010347112121116104111110455146495046529511249:w</title>
<path fill="none" stroke="black" stroke-dasharray="1,5" d="M991.89,-474C1038.12,-474 1046.47,-507.14 1086.79,-512.32"/>
<polygon fill="black" stroke="black" points="1096.55,-512.93 1086.29,-516.8 1092.78,-512.69 1086.57,-512.31 1086.57,-512.31 1086.57,-512.31 1092.78,-512.69 1086.85,-507.82 1096.55,-512.93"/>
</g>
<!-- choice100101118451089711010347112121116104111110455146495046514511449 -->
<g id="node18" class="node">
<title>choice100101118451089711010347112121116104111110455146495046514511449</title>
<g id="a_node18"><a xlink:href="../dev-lang/python-3.12.3-r1.svg" xlink:title="portage://dev&#45;lang/python&#45;3.12.3&#45;r1">
<ellipse fill="none" stroke="red" cx="1243" cy="-567" rx="144" ry="18"/>
<text text-anchor="middle" x="1243" y="-563.12" font-family="Helvetica,sans-Serif" font-size="10.00">portage://dev&#45;lang/python&#45;3.12.3&#45;r1</text>
</a>
</g>
</g>
<!-- dependency425594&#45;&gt;choice100101118451089711010347112121116104111110455146495046514511449 -->
<g id="edge17" class="edge">
<title>dependency425594:e&#45;&gt;choice100101118451089711010347112121116104111110455146495046514511449:w</title>
<path fill="none" stroke="black" stroke-dasharray="1,5" d="M991.89,-474C1050.48,-474 1037.29,-555.4 1086.63,-565.89"/>
<polygon fill="black" stroke="black" points="1096.55,-566.88 1086.16,-570.37 1092.79,-566.5 1086.6,-565.89 1086.6,-565.89 1086.6,-565.89 1092.79,-566.5 1087.05,-561.41 1096.55,-566.88"/>
</g>
<!-- choice100101118451089711010347112121116104111110455146494946574511449 -->
<g id="node19" class="node">
<title>choice100101118451089711010347112121116104111110455146494946574511449</title>
<g id="a_node19"><a xlink:href="../dev-lang/python-3.11.9-r1.svg" xlink:title="portage://dev&#45;lang/python&#45;3.11.9&#45;r1">
<ellipse fill="none" stroke="red" cx="1243" cy="-621" rx="144" ry="18"/>
<text text-anchor="middle" x="1243" y="-617.12" font-family="Helvetica,sans-Serif" font-size="10.00">portage://dev&#45;lang/python&#45;3.11.9&#45;r1</text>
</a>
</g>
</g>
<!-- dependency425594&#45;&gt;choice100101118451089711010347112121116104111110455146494946574511449 -->
<g id="edge18" class="edge">
<title>dependency425594:e&#45;&gt;choice100101118451089711010347112121116104111110455146494946574511449:w</title>
<path fill="none" stroke="black" stroke-dasharray="1,5" d="M991.89,-474C1068.47,-474 1022.31,-607 1086.91,-619.98"/>
<polygon fill="black" stroke="black" points="1096.55,-620.89 1086.18,-624.43 1092.79,-620.53 1086.6,-619.95 1086.6,-619.95 1086.6,-619.95 1092.79,-620.53 1087.02,-615.47 1096.55,-620.89"/>
</g>
<!-- choice100101118451089711010347112121116104111110455146494846495295112494511449 -->
<g id="node20" class="node">
<title>choice100101118451089711010347112121116104111110455146494846495295112494511449</title>
<g id="a_node20"><a xlink:href="../dev-lang/python-3.10.14_p1-r1.svg" xlink:title="portage://dev&#45;lang/python&#45;3.10.14_p1&#45;r1">
<ellipse fill="none" stroke="red" cx="1243" cy="-675" rx="144" ry="18"/>
<text text-anchor="middle" x="1243" y="-671.12" font-family="Helvetica,sans-Serif" font-size="10.00">portage://dev&#45;lang/python&#45;3.10.14_p1&#45;r1</text>
</a>
</g>
</g>
<!-- dependency425594&#45;&gt;choice100101118451089711010347112121116104111110455146494846495295112494511449 -->
<g id="edge19" class="edge">
<title>dependency425594:e&#45;&gt;choice100101118451089711010347112121116104111110455146494846495295112494511449:w</title>
<path fill="none" stroke="black" stroke-dasharray="1,5" d="M991.89,-474C1088.91,-474 1004,-659.6 1086.81,-674.1"/>
<polygon fill="black" stroke="black" points="1096.55,-674.9 1086.22,-678.57 1092.78,-674.59 1086.58,-674.09 1086.58,-674.09 1086.58,-674.09 1092.78,-674.59 1086.95,-669.6 1096.55,-674.9"/>
</g>
<!-- choice100101118451089711010347112121116104111110455146574649579511251 -->
<g id="node21" class="node">
<title>choice100101118451089711010347112121116104111110455146574649579511251</title>
<g id="a_node21"><a xlink:href="../dev-lang/python-3.9.19_p3.svg" xlink:title="portage://dev&#45;lang/python&#45;3.9.19_p3">
<ellipse fill="none" stroke="red" cx="1243" cy="-729" rx="144" ry="18"/>
<text text-anchor="middle" x="1243" y="-725.12" font-family="Helvetica,sans-Serif" font-size="10.00">portage://dev&#45;lang/python&#45;3.9.19_p3</text>
</a>
</g>
</g>
<!-- dependency425594&#45;&gt;choice100101118451089711010347112121116104111110455146574649579511251 -->
<g id="edge20" class="edge">
<title>dependency425594:e&#45;&gt;choice100101118451089711010347112121116104111110455146574649579511251:w</title>
<path fill="none" stroke="black" stroke-dasharray="1,5" d="M991.89,-474C1110.65,-474 983.77,-712.83 1086.7,-728.22"/>
<polygon fill="black" stroke="black" points="1096.55,-728.91 1086.26,-732.7 1092.78,-728.65 1086.57,-728.21 1086.57,-728.21 1086.57,-728.21 1092.78,-728.65 1086.89,-723.72 1096.55,-728.91"/>
</g>
<!-- choice100101118451089711010347112121116104111110455146564649579511250 -->
<g id="node22" class="node">
<title>choice100101118451089711010347112121116104111110455146564649579511250</title>
<g id="a_node22"><a xlink:href="../dev-lang/python-3.8.19_p2.svg" xlink:title="portage://dev&#45;lang/python&#45;3.8.19_p2">
<ellipse fill="none" stroke="red" cx="1243" cy="-783" rx="144" ry="18"/>
<text text-anchor="middle" x="1243" y="-779.12" font-family="Helvetica,sans-Serif" font-size="10.00">portage://dev&#45;lang/python&#45;3.8.19_p2</text>
</a>
</g>
</g>
<!-- dependency425594&#45;&gt;choice100101118451089711010347112121116104111110455146564649579511250 -->
<g id="edge21" class="edge">
<title>dependency425594:e&#45;&gt;choice100101118451089711010347112121116104111110455146564649579511250:w</title>
<path fill="none" stroke="black" stroke-dasharray="1,5" d="M991.89,-474C1133.09,-474 962.44,-766.33 1086.58,-782.32"/>
<polygon fill="black" stroke="black" points="1096.55,-782.93 1086.29,-786.81 1092.77,-782.7 1086.57,-782.32 1086.57,-782.32 1086.57,-782.32 1092.77,-782.7 1086.84,-777.83 1096.55,-782.93"/>
</g>
<!-- choice100101118451089711010347112121116104111110455046554649569511249544511450 -->
<g id="node23" class="node">
<title>choice100101118451089711010347112121116104111110455046554649569511249544511450</title>
<g id="a_node23"><a xlink:href="../dev-lang/python-2.7.18_p16-r2.svg" xlink:title="portage://dev&#45;lang/python&#45;2.7.18_p16&#45;r2">
<ellipse fill="none" stroke="red" cx="1243" cy="-837" rx="144" ry="18"/>
<text text-anchor="middle" x="1243" y="-833.12" font-family="Helvetica,sans-Serif" font-size="10.00">portage://dev&#45;lang/python&#45;2.7.18_p16&#45;r2</text>
</a>
</g>
</g>
<!-- dependency425594&#45;&gt;choice100101118451089711010347112121116104111110455046554649569511249544511450 -->
<g id="edge22" class="edge">
<title>dependency425594:e&#45;&gt;choice100101118451089711010347112121116104111110455046554649569511249544511450:w</title>
<path fill="none" stroke="black" stroke-dasharray="1,5" d="M991.89,-474C1156.01,-474 940.28,-820.18 1086.6,-836.41"/>
<polygon fill="black" stroke="black" points="1096.55,-836.94 1086.33,-840.9 1092.77,-836.74 1086.56,-836.41 1086.56,-836.41 1086.56,-836.41 1092.77,-836.74 1086.8,-831.92 1096.55,-836.94"/>
</g>
<!-- dependency425596 -->
<g id="node5" class="node">
<title>dependency425596</title>
<polygon fill="none" stroke="blue" points="763,-552.5 763,-657.5 867,-657.5 867,-552.5 763,-552.5"/>
<text text-anchor="start" x="794" y="-601.12" font-family="Helvetica,sans-Serif" font-size="10.00">pack_dep</text>
<polygon fill="none" stroke="blue" points="867,-636.5 867,-657.5 977,-657.5 977,-636.5 867,-636.5"/>
<text text-anchor="start" x="915.25" y="-643" font-family="Helvetica,sans-Serif" font-size="10.00">run</text>
<polygon fill="none" stroke="blue" points="867,-615.5 867,-636.5 977,-636.5 977,-615.5 867,-615.5"/>
<text text-anchor="start" x="903.62" y="-622" font-family="Helvetica,sans-Serif" font-size="10.00">dev&#45;lang</text>
<polygon fill="none" stroke="blue" points="867,-594.5 867,-615.5 977,-615.5 977,-594.5 867,-594.5"/>
<text text-anchor="start" x="907.38" y="-601" font-family="Helvetica,sans-Serif" font-size="10.00">python</text>
<polygon fill="none" stroke="blue" points="867,-573.5 867,-594.5 977,-594.5 977,-573.5 867,-573.5"/>
<text text-anchor="start" x="911.5" y="-580" font-family="Helvetica,sans-Serif" font-size="10.00">none</text>
<polygon fill="none" stroke="blue" points="867,-552.5 867,-573.5 977,-573.5 977,-552.5 867,-552.5"/>
<text text-anchor="start" x="916" y="-559" font-family="Helvetica,sans-Serif" font-size="10.00">[,,]</text>
</g>
<!-- dependency425595&#45;&gt;dependency425596 -->
<g id="edge3" class="edge">
<title>dependency425595:e&#45;&gt;dependency425596:w</title>
<path fill="none" stroke="black" stroke-dasharray="5,2" d="M647,-589C691.64,-589 704.48,-602.54 744.03,-604.71"/>
<polygon fill="black" stroke="black" points="753.78,-604.97 743.67,-609.2 750,-604.87 743.79,-604.7 743.79,-604.7 743.79,-604.7 750,-604.87 743.91,-600.2 753.78,-604.97"/>
</g>
<!-- dependency425596&#45;&gt;choice1001011184510897110103471121211161041111104551464951464895981011169752 -->
<g id="edge23" class="edge">
<title>dependency425596:e&#45;&gt;choice1001011184510897110103471121211161041111104551464951464895981011169752:w</title>
<path fill="none" stroke="black" stroke-dasharray="1,5" d="M991.89,-605C1123.46,-605 971.65,-874.49 1086.61,-890.28"/>
<polygon fill="black" stroke="black" points="1096.55,-890.92 1086.28,-894.77 1092.78,-890.68 1086.57,-890.28 1086.57,-890.28 1086.57,-890.28 1092.78,-890.68 1086.86,-885.78 1096.55,-890.92"/>
</g>
<!-- dependency425596&#45;&gt;choice10010111845108971101034711212111610411111045514649514648959810111697519511249 -->
<g id="edge24" class="edge">
<title>dependency425596:e&#45;&gt;choice10010111845108971101034711212111610411111045514649514648959810111697519511249:w</title>
<path fill="none" stroke="black" stroke-dasharray="1,5" d="M991.89,-605C1146.29,-605 949.56,-928.6 1086.82,-944.4"/>
<polygon fill="black" stroke="black" points="1096.55,-944.93 1086.32,-948.88 1092.77,-944.73 1086.56,-944.39 1086.56,-944.39 1086.56,-944.39 1092.77,-944.73 1086.81,-939.89 1096.55,-944.93"/>
</g>
<!-- dependency425596&#45;&gt;choice1001011184510897110103471121211161041111104551464951464895981011169751 -->
<g id="edge25" class="edge">
<title>dependency425596:e&#45;&gt;choice1001011184510897110103471121211161041111104551464951464895981011169751:w</title>
<path fill="none" stroke="black" stroke-dasharray="1,5" d="M991.89,-605C1132.68,-605 962.81,-313.61 1086.61,-297.68"/>
<polygon fill="black" stroke="black" points="1096.55,-297.07 1086.84,-302.17 1092.77,-297.3 1086.57,-297.68 1086.57,-297.68 1086.57,-297.68 1092.77,-297.3 1086.29,-293.19 1096.55,-297.07"/>
</g>
<!-- dependency425596&#45;&gt;choice10010111845108971101034711212111610411111045514649514648959810111697509511257 -->
<g id="edge26" class="edge">
<title>dependency425596:e&#45;&gt;choice10010111845108971101034711212111610411111045514649514648959810111697509511257:w</title>
<path fill="none" stroke="black" stroke-dasharray="1,5" d="M991.89,-605C1110.25,-605 984.13,-367.11 1086.74,-351.77"/>
<polygon fill="black" stroke="black" points="1096.55,-351.09 1086.89,-356.27 1092.78,-351.35 1086.57,-351.79 1086.57,-351.79 1086.57,-351.79 1092.78,-351.35 1086.26,-347.3 1096.55,-351.09"/>
</g>
<!-- dependency425596&#45;&gt;choice10010111845108971101034711212111610411111045514649514648959810111697499511251 -->
<g id="edge27" class="edge">
<title>dependency425596:e&#45;&gt;choice10010111845108971101034711212111610411111045514649514648959810111697499511251:w</title>
<path fill="none" stroke="black" stroke-dasharray="1,5" d="M991.89,-605C1088.54,-605 1004.33,-420.32 1086.85,-405.89"/>
<polygon fill="black" stroke="black" points="1096.55,-405.1 1086.95,-410.4 1092.78,-405.41 1086.58,-405.91 1086.58,-405.91 1086.58,-405.91 1092.78,-405.41 1086.22,-401.43 1096.55,-405.1"/>
</g>
<!-- dependency425596&#45;&gt;choice100101118451089711010347112121116104111110455146495046529511250 -->
<g id="edge28" class="edge">
<title>dependency425596:e&#45;&gt;choice100101118451089711010347112121116104111110455146495046529511250:w</title>
<path fill="none" stroke="black" stroke-dasharray="1,5" d="M991.89,-605C1068.13,-605 1022.61,-472.91 1086.96,-460.01"/>
<polygon fill="black" stroke="black" points="1096.55,-459.11 1087.01,-464.52 1092.79,-459.47 1086.6,-460.04 1086.6,-460.04 1086.6,-460.04 1092.79,-459.47 1086.18,-455.56 1096.55,-459.11"/>
</g>
<!-- dependency425596&#45;&gt;choice100101118451089711010347112121116104111110455146495046529511249 -->
<g id="edge29" class="edge">
<title>dependency425596:e&#45;&gt;choice100101118451089711010347112121116104111110455146495046529511249:w</title>
<path fill="none" stroke="black" stroke-dasharray="1,5" d="M991.89,-605C1050.21,-605 1037.51,-524.48 1086.68,-514.1"/>
<polygon fill="black" stroke="black" points="1096.55,-513.12 1087.05,-518.58 1092.79,-513.49 1086.6,-514.11 1086.6,-514.11 1086.6,-514.11 1092.79,-513.49 1086.16,-509.63 1096.55,-513.12"/>
</g>
<!-- dependency425596&#45;&gt;choice100101118451089711010347112121116104111110455146495046514511449 -->
<g id="edge30" class="edge">
<title>dependency425596:e&#45;&gt;choice100101118451089711010347112121116104111110455146495046514511449:w</title>
<path fill="none" stroke="black" stroke-dasharray="1,5" d="M991.89,-605C1037.98,-605 1046.58,-572.71 1086.81,-567.66"/>
<polygon fill="black" stroke="black" points="1096.55,-567.07 1086.84,-572.17 1092.77,-567.3 1086.57,-567.67 1086.57,-567.67 1086.57,-567.67 1092.77,-567.3 1086.3,-563.18 1096.55,-567.07"/>
</g>
<!-- dependency425596&#45;&gt;choice100101118451089711010347112121116104111110455146494946574511449 -->
<g id="edge31" class="edge">
<title>dependency425596:e&#45;&gt;choice100101118451089711010347112121116104111110455146494946574511449:w</title>
<path fill="none" stroke="black" stroke-dasharray="1,5" d="M991.89,-605C1035.58,-605 1048.17,-618.48 1086.76,-620.69"/>
<polygon fill="black" stroke="black" points="1096.55,-620.97 1086.43,-625.19 1092.77,-620.86 1086.55,-620.69 1086.55,-620.69 1086.55,-620.69 1092.77,-620.86 1086.68,-616.19 1096.55,-620.97"/>
</g>
<!-- dependency425596&#45;&gt;choice100101118451089711010347112121116104111110455146494846495295112494511449 -->
<g id="edge32" class="edge">
<title>dependency425596:e&#45;&gt;choice100101118451089711010347112121116104111110455146494846495295112494511449:w</title>
<path fill="none" stroke="black" stroke-dasharray="1,5" d="M991.89,-605C1044.33,-605 1042.02,-665.5 1086.76,-674.01"/>
<polygon fill="black" stroke="black" points="1096.55,-674.89 1086.19,-678.48 1092.79,-674.55 1086.59,-674 1086.59,-674 1086.59,-674 1092.79,-674.55 1087,-669.51 1096.55,-674.89"/>
</g>
<!-- dependency425596&#45;&gt;choice100101118451089711010347112121116104111110455146574649579511251 -->
<g id="edge33" class="edge">
<title>dependency425596:e&#45;&gt;choice100101118451089711010347112121116104111110455146574649579511251:w</title>
<path fill="none" stroke="black" stroke-dasharray="1,5" d="M991.89,-605C1060.39,-605 1029.24,-715.81 1086.84,-727.93"/>
<polygon fill="black" stroke="black" points="1096.55,-728.88 1086.16,-732.38 1092.79,-728.51 1086.6,-727.9 1086.6,-727.9 1086.6,-727.9 1092.79,-728.51 1087.04,-723.43 1096.55,-728.88"/>
</g>
<!-- dependency425596&#45;&gt;choice100101118451089711010347112121116104111110455146564649579511250 -->
<g id="edge34" class="edge">
<title>dependency425596:e&#45;&gt;choice100101118451089711010347112121116104111110455146564649579511250:w</title>
<path fill="none" stroke="black" stroke-dasharray="1,5" d="M991.89,-605C1079.98,-605 1012.12,-768.03 1086.82,-782.04"/>
<polygon fill="black" stroke="black" points="1096.55,-782.89 1086.2,-786.51 1092.78,-782.56 1086.59,-782.02 1086.59,-782.02 1086.59,-782.02 1092.78,-782.56 1086.98,-777.54 1096.55,-782.89"/>
</g>
<!-- dependency425596&#45;&gt;choice100101118451089711010347112121116104111110455046554649569511249544511450 -->
<g id="edge35" class="edge">
<title>dependency425596:e&#45;&gt;choice100101118451089711010347112121116104111110455046554649569511249544511450:w</title>
<path fill="none" stroke="black" stroke-dasharray="1,5" d="M991.89,-605C1101.24,-605 992.63,-820.97 1086.66,-836.16"/>
<polygon fill="black" stroke="black" points="1096.55,-836.91 1086.24,-840.64 1092.78,-836.62 1086.58,-836.15 1086.58,-836.15 1086.58,-836.15 1092.78,-836.62 1086.92,-831.67 1096.55,-836.91"/>
</g>
<!-- dependency425598 -->
<g id="node7" class="node">
<title>dependency425598</title>
<polygon fill="none" stroke="blue" points="763,-683.5 763,-788.5 867,-788.5 867,-683.5 763,-683.5"/>
<text text-anchor="start" x="794" y="-732.12" font-family="Helvetica,sans-Serif" font-size="10.00">pack_dep</text>
<polygon fill="none" stroke="blue" points="867,-767.5 867,-788.5 977,-788.5 977,-767.5 867,-767.5"/>
<text text-anchor="start" x="915.25" y="-774" font-family="Helvetica,sans-Serif" font-size="10.00">run</text>
<polygon fill="none" stroke="blue" points="867,-746.5 867,-767.5 977,-767.5 977,-746.5 867,-746.5"/>
<text text-anchor="start" x="903.62" y="-753" font-family="Helvetica,sans-Serif" font-size="10.00">dev&#45;lang</text>
<polygon fill="none" stroke="blue" points="867,-725.5 867,-746.5 977,-746.5 977,-725.5 867,-725.5"/>
<text text-anchor="start" x="907.38" y="-732" font-family="Helvetica,sans-Serif" font-size="10.00">python</text>
<polygon fill="none" stroke="blue" points="867,-704.5 867,-725.5 977,-725.5 977,-704.5 867,-704.5"/>
<text text-anchor="start" x="911.5" y="-711" font-family="Helvetica,sans-Serif" font-size="10.00">none</text>
<polygon fill="none" stroke="blue" points="867,-683.5 867,-704.5 977,-704.5 977,-683.5 867,-683.5"/>
<text text-anchor="start" x="916" y="-690" font-family="Helvetica,sans-Serif" font-size="10.00">[,,]</text>
</g>
<!-- dependency425597&#45;&gt;dependency425598 -->
<g id="edge5" class="edge">
<title>dependency425597:e&#45;&gt;dependency425598:w</title>
<path fill="none" stroke="black" stroke-dasharray="5,2" d="M647,-704C693.15,-704 703.45,-731.2 744,-735.44"/>
<polygon fill="black" stroke="black" points="753.78,-735.94 743.57,-739.93 750.01,-735.75 743.8,-735.43 743.8,-735.43 743.8,-735.43 750.01,-735.75 744.02,-730.94 753.78,-735.94"/>
</g>
<!-- dependency425598&#45;&gt;choice1001011184510897110103471121211161041111104551464951464895981011169752 -->
<g id="edge36" class="edge">
<title>dependency425598:e&#45;&gt;choice1001011184510897110103471121211161041111104551464951464895981011169752:w</title>
<path fill="none" stroke="black" stroke-dasharray="1,5" d="M991.89,-736C1071.4,-736 1019.74,-876.81 1086.96,-890.01"/>
<polygon fill="black" stroke="black" points="1096.55,-890.89 1086.18,-894.46 1092.79,-890.54 1086.59,-889.98 1086.59,-889.98 1086.59,-889.98 1092.79,-890.54 1087,-885.5 1096.55,-890.89"/>
</g>
<!-- dependency425598&#45;&gt;choice10010111845108971101034711212111610411111045514649514648959810111697519511249 -->
<g id="edge37" class="edge">
<title>dependency425598:e&#45;&gt;choice10010111845108971101034711212111610411111045514649514648959810111697519511249:w</title>
<path fill="none" stroke="black" stroke-dasharray="1,5" d="M991.89,-736C1092.05,-736 1001.14,-929.38 1086.74,-944.11"/>
<polygon fill="black" stroke="black" points="1096.55,-944.9 1086.22,-948.59 1092.78,-944.6 1086.58,-944.1 1086.58,-944.1 1086.58,-944.1 1092.78,-944.6 1086.94,-939.62 1096.55,-944.9"/>
</g>
<!-- dependency425598&#45;&gt;choice1001011184510897110103471121211161041111104551464951464895981011169751 -->
<g id="edge38" class="edge">
<title>dependency425598:e&#45;&gt;choice1001011184510897110103471121211161041111104551464951464895981011169751:w</title>
<path fill="none" stroke="black" stroke-dasharray="1,5" d="M991.89,-736C1188.67,-736 908.42,-313.98 1086.57,-297.5"/>
<polygon fill="black" stroke="black" points="1096.55,-297.05 1086.76,-301.99 1092.77,-297.22 1086.56,-297.5 1086.56,-297.5 1086.56,-297.5 1092.77,-297.22 1086.36,-293 1096.55,-297.05"/>
</g>
<!-- dependency425598&#45;&gt;choice10010111845108971101034711212111610411111045514649514648959810111697509511257 -->
<g id="edge39" class="edge">
<title>dependency425598:e&#45;&gt;choice10010111845108971101034711212111610411111045514649514648959810111697509511257:w</title>
<path fill="none" stroke="black" stroke-dasharray="1,5" d="M991.89,-736C1165.54,-736 930.81,-367.37 1086.91,-351.53"/>
<polygon fill="black" stroke="black" points="1096.55,-351.06 1086.78,-356.04 1092.77,-351.24 1086.56,-351.54 1086.56,-351.54 1086.56,-351.54 1092.77,-351.24 1086.34,-347.05 1096.55,-351.06"/>
</g>
<!-- dependency425598&#45;&gt;choice10010111845108971101034711212111610411111045514649514648959810111697499511251 -->
<g id="edge40" class="edge">
<title>dependency425598:e&#45;&gt;choice10010111845108971101034711212111610411111045514649514648959810111697499511251:w</title>
<path fill="none" stroke="black" stroke-dasharray="1,5" d="M991.89,-736C1142.42,-736 953.39,-421.6 1086.68,-405.63"/>
<polygon fill="black" stroke="black" points="1096.55,-405.07 1086.82,-410.13 1092.77,-405.28 1086.57,-405.64 1086.57,-405.64 1086.57,-405.64 1092.77,-405.28 1086.31,-401.14 1096.55,-405.07"/>
</g>
<!-- dependency425598&#45;&gt;choice100101118451089711010347112121116104111110455146495046529511250 -->
<g id="edge41" class="edge">
<title>dependency425598:e&#45;&gt;choice100101118451089711010347112121116104111110455146495046529511250:w</title>
<path fill="none" stroke="black" stroke-dasharray="1,5" d="M991.89,-736C1119.7,-736 975.25,-475.52 1086.58,-459.75"/>
<polygon fill="black" stroke="black" points="1096.55,-459.08 1086.87,-464.24 1092.78,-459.33 1086.57,-459.75 1086.57,-459.75 1086.57,-459.75 1092.78,-459.33 1086.27,-455.26 1096.55,-459.08"/>
</g>
<!-- dependency425598&#45;&gt;choice100101118451089711010347112121116104111110455146495046529511249 -->
<g id="edge42" class="edge">
<title>dependency425598:e&#45;&gt;choice100101118451089711010347112121116104111110455146495046529511249:w</title>
<path fill="none" stroke="black" stroke-dasharray="1,5" d="M991.89,-736C1097.64,-736 995.97,-528.82 1086.73,-513.85"/>
<polygon fill="black" stroke="black" points="1096.55,-513.09 1086.93,-518.35 1092.78,-513.38 1086.58,-513.86 1086.58,-513.86 1086.58,-513.86 1092.78,-513.38 1086.23,-509.38 1096.55,-513.09"/>
</g>
<!-- dependency425598&#45;&gt;choice100101118451089711010347112121116104111110455146495046514511449 -->
<g id="edge43" class="edge">
<title>dependency425598:e&#45;&gt;choice100101118451089711010347112121116104111110455146495046514511449:w</title>
<path fill="none" stroke="black" stroke-dasharray="1,5" d="M991.89,-736C1076.54,-736 1015.22,-581.84 1086.76,-567.99"/>
<polygon fill="black" stroke="black" points="1096.55,-567.11 1087,-572.49 1092.79,-567.45 1086.59,-568.01 1086.59,-568.01 1086.59,-568.01 1092.79,-567.45 1086.19,-563.53 1096.55,-567.11"/>
</g>
<!-- dependency425598&#45;&gt;choice100101118451089711010347112121116104111110455146494946574511449 -->
<g id="edge44" class="edge">
<title>dependency425598:e&#45;&gt;choice100101118451089711010347112121116104111110455146494946574511449:w</title>
<path fill="none" stroke="black" stroke-dasharray="1,5" d="M991.89,-736C1057.43,-736 1031.71,-633.66 1086.91,-622.07"/>
<polygon fill="black" stroke="black" points="1096.55,-621.12 1087.04,-626.57 1092.79,-621.49 1086.6,-622.1 1086.6,-622.1 1086.6,-622.1 1092.79,-621.49 1086.16,-617.62 1096.55,-621.12"/>
</g>
<!-- dependency425598&#45;&gt;choice100101118451089711010347112121116104111110455146494846495295112494511449 -->
<g id="edge45" class="edge">
<title>dependency425598:e&#45;&gt;choice100101118451089711010347112121116104111110455146494846495295112494511449:w</title>
<path fill="none" stroke="black" stroke-dasharray="1,5" d="M991.89,-736C1042.27,-736 1043.56,-683.5 1086.84,-675.91"/>
<polygon fill="black" stroke="black" points="1096.55,-675.1 1086.96,-680.42 1092.78,-675.41 1086.59,-675.93 1086.59,-675.93 1086.59,-675.93 1092.78,-675.41 1086.21,-671.45 1096.55,-675.1"/>
</g>
<!-- dependency425598&#45;&gt;choice100101118451089711010347112121116104111110455146574649579511251 -->
<g id="edge46" class="edge">
<title>dependency425598:e&#45;&gt;choice100101118451089711010347112121116104111110455146574649579511251:w</title>
<path fill="none" stroke="black" stroke-dasharray="1,5" d="M991.89,-736C1035.18,-736 1048.47,-730.1 1086.84,-729.13"/>
<polygon fill="black" stroke="black" points="1096.55,-729.01 1086.6,-733.64 1092.77,-729.06 1086.55,-729.14 1086.55,-729.14 1086.55,-729.14 1092.77,-729.06 1086.49,-724.64 1096.55,-729.01"/>
</g>
<!-- dependency425598&#45;&gt;choice100101118451089711010347112121116104111110455146564649579511250 -->
<g id="edge47" class="edge">
<title>dependency425598:e&#45;&gt;choice100101118451089711010347112121116104111110455146564649579511250:w</title>
<path fill="none" stroke="black" stroke-dasharray="1,5" d="M991.89,-736C1039.45,-736 1045.56,-776.11 1086.8,-782.22"/>
<polygon fill="black" stroke="black" points="1096.55,-782.91 1086.26,-786.7 1092.78,-782.65 1086.58,-782.21 1086.58,-782.21 1086.58,-782.21 1092.78,-782.65 1086.89,-777.72 1096.55,-782.91"/>
</g>
<!-- dependency425598&#45;&gt;choice100101118451089711010347112121116104111110455046554649569511249544511450 -->
<g id="edge48" class="edge">
<title>dependency425598:e&#45;&gt;choice100101118451089711010347112121116104111110455046554649569511249544511450:w</title>
<path fill="none" stroke="black" stroke-dasharray="1,5" d="M991.89,-736C1052.98,-736 1035.33,-825.14 1086.89,-835.93"/>
<polygon fill="black" stroke="black" points="1096.55,-836.88 1086.16,-840.38 1092.79,-836.51 1086.6,-835.91 1086.6,-835.91 1086.6,-835.91 1092.79,-836.51 1087.04,-831.43 1096.55,-836.88"/>
</g>
<!-- choice1001011184511212111610411111047999811111450455346544652 -->
<g id="node24" class="node">
<title>choice1001011184511212111610411111047999811111450455346544652</title>
<g id="a_node24"><a xlink:href="../dev-python/cbor2-5.6.4.svg" xlink:title="portage://dev&#45;python/cbor2&#45;5.6.4">
<ellipse fill="none" stroke="red" cx="1243" cy="-243" rx="144" ry="18"/>
<text text-anchor="middle" x="1243" y="-239.12" font-family="Helvetica,sans-Serif" font-size="10.00">portage://dev&#45;python/cbor2&#45;5.6.4</text>
</a>
</g>
</g>
<!-- dependency425599&#45;&gt;choice1001011184511212111610411111047999811111450455346544652 -->
<g id="edge49" class="edge">
<title>dependency425599:e&#45;&gt;choice1001011184511212111610411111047999811111450455346544652:w</title>
<path fill="none" stroke="black" stroke-dasharray="1,5" d="M991.89,-343C1052.57,-343 1035.64,-255.11 1086.62,-244.12"/>
<polygon fill="black" stroke="black" points="1096.55,-243.12 1087.05,-248.6 1092.79,-243.5 1086.6,-244.12 1086.6,-244.12 1086.6,-244.12 1092.79,-243.5 1086.15,-239.65 1096.55,-243.12"/>
</g>
<!-- choice1001011184511212111610411111047108120109108455346504650 -->
<g id="node25" class="node">
<title>choice1001011184511212111610411111047108120109108455346504650</title>
<g id="a_node25"><a xlink:href="../dev-python/lxml-5.2.2.svg" xlink:title="portage://dev&#45;python/lxml&#45;5.2.2">
<ellipse fill="none" stroke="red" cx="1243" cy="-189" rx="144" ry="18"/>
<text text-anchor="middle" x="1243" y="-185.12" font-family="Helvetica,sans-Serif" font-size="10.00">portage://dev&#45;python/lxml&#45;5.2.2</text>
</a>
</g>
</g>
<!-- dependency425600&#45;&gt;choice1001011184511212111610411111047108120109108455346504650 -->
<g id="edge50" class="edge">
<title>dependency425600:e&#45;&gt;choice1001011184511212111610411111047108120109108455346504650:w</title>
<path fill="none" stroke="black" stroke-dasharray="1,5" d="M991.89,-212C1036.09,-212 1047.78,-192.62 1086.65,-189.44"/>
<polygon fill="black" stroke="black" points="1096.55,-189.05 1086.73,-193.94 1092.77,-189.2 1086.56,-189.44 1086.56,-189.44 1086.56,-189.44 1092.77,-189.2 1086.38,-184.95 1096.55,-189.05"/>
</g>
<!-- choice10010111845112121116104111110471121011021051081014557575757 -->
<g id="node26" class="node">
<title>choice10010111845112121116104111110471121011021051081014557575757</title>
<g id="a_node26"><a xlink:href="../dev-python/pefile-9999.svg" xlink:title="portage://dev&#45;python/pefile&#45;9999">
<ellipse fill="none" stroke="red" cx="1243" cy="-81" rx="144" ry="18"/>
<text text-anchor="middle" x="1243" y="-77.12" font-family="Helvetica,sans-Serif" font-size="10.00">portage://dev&#45;python/pefile&#45;9999</text>
</a>
</g>
</g>
<!-- dependency425601&#45;&gt;choice10010111845112121116104111110471121011021051081014557575757 -->
<g id="edge51" class="edge">
<title>dependency425601:e&#45;&gt;choice10010111845112121116104111110471121011021051081014557575757:w</title>
<path fill="none" stroke="black" stroke-dasharray="1,5" d="M991.89,-81C1035.08,-81 1048.54,-81 1086.86,-81"/>
<polygon fill="black" stroke="black" points="1096.55,-81 1086.55,-85.5 1092.77,-81 1086.55,-81 1086.55,-81 1086.55,-81 1092.77,-81 1086.55,-76.5 1096.55,-81"/>
</g>
<!-- choice1001011184511212111610411111047112101102105108101455048505146504655 -->
<g id="node27" class="node">
<title>choice1001011184511212111610411111047112101102105108101455048505146504655</title>
<g id="a_node27"><a xlink:href="../dev-python/pefile-2023.2.7.svg" xlink:title="portage://dev&#45;python/pefile&#45;2023.2.7">
<ellipse fill="none" stroke="red" cx="1243" cy="-135" rx="144" ry="18"/>
<text text-anchor="middle" x="1243" y="-131.12" font-family="Helvetica,sans-Serif" font-size="10.00">portage://dev&#45;python/pefile&#45;2023.2.7</text>
</a>
</g>
</g>
<!-- dependency425601&#45;&gt;choice1001011184511212111610411111047112101102105108101455048505146504655 -->
<g id="edge52" class="edge">
<title>dependency425601:e&#45;&gt;choice1001011184511212111610411111047112101102105108101455048505146504655:w</title>
<path fill="none" stroke="black" stroke-dasharray="1,5" d="M991.89,-81C1040.79,-81 1044.62,-127.28 1086.83,-134.15"/>
<polygon fill="black" stroke="black" points="1096.55,-134.91 1086.23,-138.62 1092.78,-134.61 1086.58,-134.13 1086.58,-134.13 1086.58,-134.13 1092.78,-134.61 1086.93,-129.65 1096.55,-134.91"/>
</g>
</g>
</svg>
