<?xml version="1.0" encoding="UTF-8" standalone="no"?>
<!DOCTYPE svg PUBLIC "-//W3C//DTD SVG 1.1//EN"
 "http://www.w3.org/Graphics/SVG/1.1/DTD/svg11.dtd">
<!-- Generated by graphviz version 2.41.20171026.1811 (20171026.1811)
 -->
<!-- Title: prolog Pages: 1 -->
<svg width="1533pt" height="629pt"
 viewBox="0.00 0.00 1533.00 629.00" xmlns="http://www.w3.org/2000/svg" xmlns:xlink="http://www.w3.org/1999/xlink">
<g id="graph0" class="graph" transform="scale(1 1) rotate(0) translate(4 625)">
<title>prolog</title>
<polygon fill="white" stroke="transparent" points="-4,4 -4,-625 1529,-625 1529,4 -4,4"/>
<g id="clust1" class="cluster">
<title>cluster_leftcol</title>
<polygon fill="none" stroke="gray" points="8,-178 8,-250 312,-250 312,-178 8,-178"/>
<text text-anchor="start" x="146.66" y="-238" font-family="Helvetica,sans-Serif" font-style="italic" font-size="10.00">ebuild</text>
</g>
<g id="clust2" class="cluster">
<title>cluster_midcol</title>
<polygon fill="none" stroke="gray" points="396,-51 396,-613 1129,-613 1129,-51 396,-51"/>
<text text-anchor="start" x="731.38" y="-601" font-family="Helvetica,sans-Serif" font-style="italic" font-size="10.00">dependencies</text>
</g>
<g id="clust3" class="cluster">
<title>cluster_compile</title>
<polygon fill="#eeeeee" stroke="gray" points="404,-59 404,-585 1121,-585 1121,-59 404,-59"/>
<text text-anchor="start" x="745.28" y="-573" font-family="Helvetica,sans-Serif" font-style="italic" font-size="10.00">compile</text>
</g>
<g id="clust12" class="cluster">
<title>cluster_choices</title>
<polygon fill="none" stroke="gray" points="1213,-8 1213,-512 1517,-512 1517,-8 1213,-8"/>
<text text-anchor="start" x="1340.82" y="-500" font-family="Helvetica,sans-Serif" font-style="italic" font-size="10.00">candidates</text>
</g>
<!-- id -->
<g id="node1" class="node">
<title>id</title>
<g id="a_node1"><a xlink:href="../media-fonts/corefonts-1-r7.svg" xlink:title="media&#45;fonts/corefonts&#45;1&#45;r7">
<ellipse fill="none" stroke="red" cx="160" cy="-204" rx="144" ry="18"/>
<text text-anchor="middle" x="160" y="-201" font-family="Helvetica,sans-Serif" font-size="10.00">media&#45;fonts/corefonts&#45;1&#45;r7</text>
</a>
</g>
</g>
<!-- dependency1598806 -->
<g id="node2" class="node">
<title>dependency1598806</title>
<polygon fill="none" stroke="red" points="420,-281 420,-325 511,-325 511,-281 420,-281"/>
<text text-anchor="start" x="430.77" y="-300" font-family="Helvetica,sans-Serif" font-size="10.00">use_conditional</text>
<polygon fill="none" stroke="red" points="511,-303 511,-325 554,-325 554,-303 511,-303"/>
<text text-anchor="start" x="515.55" y="-311" font-family="Helvetica,sans-Serif" font-size="10.00">positive</text>
<polygon fill="none" stroke="red" points="511,-281 511,-303 554,-303 554,-281 511,-281"/>
<text text-anchor="start" x="529.17" y="-289" font-family="Helvetica,sans-Serif" font-size="10.00">X</text>
</g>
<!-- id&#45;&gt;dependency1598806 -->
<g id="edge5" class="edge">
<title>id:e&#45;&gt;dependency1598806:w</title>
<path fill="none" stroke="black" d="M305,-204C365.81,-204 348.85,-292.1 400.86,-302.08"/>
<polygon fill="black" stroke="black" points="411,-303 400.64,-306.58 406.02,-302.55 401.04,-302.1 401.04,-302.1 401.04,-302.1 406.02,-302.55 401.45,-297.62 411,-303 411,-303"/>
</g>
<!-- dependency1598811 -->
<g id="node7" class="node">
<title>dependency1598811</title>
<polygon fill="none" stroke="blue" points="885,-71 885,-169 990,-169 990,-71 885,-71"/>
<text text-anchor="start" x="915.82" y="-117" font-family="Helvetica,sans-Serif" font-size="10.00">pack_dep</text>
<polygon fill="none" stroke="blue" points="990,-147 990,-169 1100,-169 1100,-147 990,-147"/>
<text text-anchor="start" x="1039.44" y="-155" font-family="Helvetica,sans-Serif" font-size="10.00">no</text>
<polygon fill="none" stroke="blue" points="990,-125 990,-147 1100,-147 1100,-125 990,-125"/>
<text text-anchor="start" x="1025.27" y="-133" font-family="Helvetica,sans-Serif" font-size="10.00">app&#45;arch</text>
<polygon fill="none" stroke="blue" points="990,-103 990,-125 1100,-125 1100,-103 990,-103"/>
<text text-anchor="start" x="1021.94" y="-111" font-family="Helvetica,sans-Serif" font-size="10.00">cabextract</text>
<polygon fill="none" stroke="blue" points="990,-81 990,-103 1100,-103 1100,-81 990,-81"/>
<text text-anchor="start" x="1033.88" y="-89" font-family="Helvetica,sans-Serif" font-size="10.00">none</text>
<polygon fill="none" stroke="blue" points="990,-71 990,-81 1100,-81 1100,-71 990,-71"/>
</g>
<!-- id&#45;&gt;dependency1598811 -->
<g id="edge6" class="edge">
<title>id:e&#45;&gt;dependency1598811:w</title>
<path fill="none" stroke="black" d="M305,-204C558.56,-204 618.48,-122.2 866.94,-120.04"/>
<polygon fill="black" stroke="black" points="877,-120 867.02,-124.54 872,-120.02 867,-120.04 867,-120.04 867,-120.04 872,-120.02 866.98,-115.54 877,-120 877,-120"/>
</g>
<!-- dependency1598807 -->
<g id="node3" class="node">
<title>dependency1598807</title>
<polygon fill="none" stroke="red" points="678.5,-286 678.5,-320 761.5,-320 761.5,-286 678.5,-286"/>
<text text-anchor="start" x="689.43" y="-300" font-family="Helvetica,sans-Serif" font-size="10.00">any_of_group</text>
</g>
<!-- dependency1598806&#45;&gt;dependency1598807 -->
<g id="edge3" class="edge">
<title>dependency1598806:e&#45;&gt;dependency1598807:w</title>
<path fill="none" stroke="black" stroke-dasharray="5,2" d="M562,-303C606.44,-303 620.02,-303 659.88,-303"/>
<polygon fill="black" stroke="black" points="670,-303 660,-307.5 665,-303 660,-303 660,-303 660,-303 665,-303 660,-298.5 670,-303 670,-303"/>
</g>
<!-- dependency1598810 -->
<g id="node6" class="node">
<title>dependency1598810</title>
<polygon fill="none" stroke="blue" points="885,-455 885,-553 990,-553 990,-455 885,-455"/>
<text text-anchor="start" x="915.82" y="-501" font-family="Helvetica,sans-Serif" font-size="10.00">pack_dep</text>
<polygon fill="none" stroke="blue" points="990,-531 990,-553 1100,-553 1100,-531 990,-531"/>
<text text-anchor="start" x="1039.44" y="-539" font-family="Helvetica,sans-Serif" font-size="10.00">no</text>
<polygon fill="none" stroke="blue" points="990,-509 990,-531 1100,-531 1100,-509 990,-509"/>
<text text-anchor="start" x="1018.88" y="-517" font-family="Helvetica,sans-Serif" font-size="10.00">media&#45;fonts</text>
<polygon fill="none" stroke="blue" points="990,-487 990,-509 1100,-509 1100,-487 990,-487"/>
<text text-anchor="start" x="1022.21" y="-495" font-family="Helvetica,sans-Serif" font-size="10.00">encodings</text>
<polygon fill="none" stroke="blue" points="990,-465 990,-487 1100,-487 1100,-465 990,-465"/>
<text text-anchor="start" x="1033.88" y="-473" font-family="Helvetica,sans-Serif" font-size="10.00">none</text>
<polygon fill="none" stroke="blue" points="990,-455 990,-465 1100,-465 1100,-455 990,-455"/>
</g>
<!-- dependency1598806&#45;&gt;dependency1598810 -->
<g id="edge4" class="edge">
<title>dependency1598806:e&#45;&gt;dependency1598810:w</title>
<path fill="none" stroke="black" stroke-dasharray="5,2" d="M562,-303C724.51,-303 711.58,-495.46 866.55,-503.73"/>
<polygon fill="black" stroke="black" points="877,-504 866.89,-508.24 872,-503.87 867,-503.74 867,-503.74 867,-503.74 872,-503.87 867.12,-499.24 877,-504 877,-504"/>
</g>
<!-- dependency1598808 -->
<g id="node4" class="node">
<title>dependency1598808</title>
<polygon fill="none" stroke="blue" points="885,-195 885,-305 990,-305 990,-195 885,-195"/>
<text text-anchor="start" x="915.82" y="-247" font-family="Helvetica,sans-Serif" font-size="10.00">pack_dep</text>
<polygon fill="none" stroke="blue" points="990,-283 990,-305 1100,-305 1100,-283 990,-283"/>
<text text-anchor="start" x="1039.44" y="-291" font-family="Helvetica,sans-Serif" font-size="10.00">no</text>
<polygon fill="none" stroke="blue" points="990,-261 990,-283 1100,-283 1100,-261 990,-261"/>
<text text-anchor="start" x="1024.44" y="-269" font-family="Helvetica,sans-Serif" font-size="10.00">x11&#45;apps</text>
<polygon fill="none" stroke="blue" points="990,-239 990,-261 1100,-261 1100,-239 990,-239"/>
<text text-anchor="start" x="1018.33" y="-247" font-family="Helvetica,sans-Serif" font-size="10.00">mkfontscale</text>
<polygon fill="none" stroke="blue" points="990,-217 990,-239 1100,-239 1100,-217 990,-217"/>
<text text-anchor="start" x="1016.94" y="-225" font-family="Helvetica,sans-Serif" font-size="10.00">greaterequal</text>
<polygon fill="none" stroke="blue" points="990,-195 990,-217 1100,-217 1100,-195 990,-195"/>
<text text-anchor="start" x="1033.88" y="-203" font-family="Helvetica,sans-Serif" font-size="10.00">1.2.0</text>
</g>
<!-- dependency1598807&#45;&gt;dependency1598808 -->
<g id="edge1" class="edge">
<title>dependency1598807:e&#45;&gt;dependency1598808:w</title>
<path fill="none" stroke="black" stroke-dasharray="1,5" d="M769,-303C818.92,-303 823.16,-256.81 867.01,-250.67"/>
<polygon fill="none" stroke="black" points="877.23,-253.49 867.02,-250.67 876.77,-246.51 877.23,-253.49"/>
</g>
<!-- dependency1598809 -->
<g id="node5" class="node">
<title>dependency1598809</title>
<polygon fill="none" stroke="blue" points="885,-331 885,-429 990,-429 990,-331 885,-331"/>
<text text-anchor="start" x="915.82" y="-377" font-family="Helvetica,sans-Serif" font-size="10.00">pack_dep</text>
<polygon fill="none" stroke="blue" points="990,-407 990,-429 1100,-429 1100,-407 990,-407"/>
<text text-anchor="start" x="1039.44" y="-415" font-family="Helvetica,sans-Serif" font-size="10.00">no</text>
<polygon fill="none" stroke="blue" points="990,-385 990,-407 1100,-407 1100,-385 990,-385"/>
<text text-anchor="start" x="1024.44" y="-393" font-family="Helvetica,sans-Serif" font-size="10.00">x11&#45;apps</text>
<polygon fill="none" stroke="blue" points="990,-363 990,-385 1100,-385 1100,-363 990,-363"/>
<text text-anchor="start" x="1024.44" y="-371" font-family="Helvetica,sans-Serif" font-size="10.00">mkfontdir</text>
<polygon fill="none" stroke="blue" points="990,-341 990,-363 1100,-363 1100,-341 990,-341"/>
<text text-anchor="start" x="1033.88" y="-349" font-family="Helvetica,sans-Serif" font-size="10.00">none</text>
<polygon fill="none" stroke="blue" points="990,-331 990,-341 1100,-341 1100,-331 990,-331"/>
</g>
<!-- dependency1598807&#45;&gt;dependency1598809 -->
<g id="edge2" class="edge">
<title>dependency1598807:e&#45;&gt;dependency1598809:w</title>
<path fill="none" stroke="black" stroke-dasharray="1,5" d="M769,-303C824.38,-303 819,-370.96 867.02,-379.19"/>
<polygon fill="none" stroke="black" points="876.72,-383.49 867.03,-379.19 877.28,-376.51 876.72,-383.49"/>
</g>
<!-- choice12049494597112112115471091071021111101161159997108101454946494651 -->
<g id="node8" class="node">
<title>choice12049494597112112115471091071021111101161159997108101454946494651</title>
<g id="a_node8"><a xlink:href="../x11-apps/mkfontscale-1.1.3.svg" xlink:title="x11&#45;apps/mkfontscale&#45;1.1.3">
<ellipse fill="none" stroke="red" cx="1365" cy="-304" rx="144" ry="18"/>
<text text-anchor="middle" x="1365" y="-301" font-family="Helvetica,sans-Serif" font-size="10.00">x11&#45;apps/mkfontscale&#45;1.1.3</text>
</a>
</g>
</g>
<!-- dependency1598808&#45;&gt;choice12049494597112112115471091071021111101161159997108101454946494651 -->
<g id="edge7" class="edge">
<title>dependency1598808:e&#45;&gt;choice12049494597112112115471091071021111101161159997108101454946494651:w</title>
<path fill="none" stroke="black" stroke-dasharray="1,5" d="M1114,-250C1163.26,-250 1166.85,-296.87 1209.86,-303.28"/>
<polygon fill="black" stroke="black" points="1220,-304 1209.71,-307.78 1215.01,-303.64 1210.03,-303.29 1210.03,-303.29 1210.03,-303.29 1215.01,-303.64 1210.35,-298.8 1220,-304 1220,-304"/>
</g>
<!-- choice12049494597112112115471091071021111101161159997108101454946504648 -->
<g id="node9" class="node">
<title>choice12049494597112112115471091071021111101161159997108101454946504648</title>
<g id="a_node9"><a xlink:href="../x11-apps/mkfontscale-1.2.0.svg" xlink:title="x11&#45;apps/mkfontscale&#45;1.2.0">
<ellipse fill="none" stroke="red" cx="1365" cy="-250" rx="144" ry="18"/>
<text text-anchor="middle" x="1365" y="-247" font-family="Helvetica,sans-Serif" font-size="10.00">x11&#45;apps/mkfontscale&#45;1.2.0</text>
</a>
</g>
</g>
<!-- dependency1598808&#45;&gt;choice12049494597112112115471091071021111101161159997108101454946504648 -->
<g id="edge8" class="edge">
<title>dependency1598808:e&#45;&gt;choice12049494597112112115471091071021111101161159997108101454946504648:w</title>
<path fill="none" stroke="black" stroke-dasharray="1,5" d="M1114,-250C1157.43,-250 1170.83,-250 1209.57,-250"/>
<polygon fill="black" stroke="black" points="1220,-250 1210,-254.5 1215,-250 1210,-250 1210,-250 1210,-250 1215,-250 1210,-245.5 1220,-250 1220,-250"/>
</g>
<!-- choice1204949459711211211547109107102111110116100105114454946484655 -->
<g id="node10" class="node">
<title>choice1204949459711211211547109107102111110116100105114454946484655</title>
<g id="a_node10"><a xlink:href="../x11-apps/mkfontdir-1.0.7.svg" xlink:title="x11&#45;apps/mkfontdir&#45;1.0.7">
<ellipse fill="none" stroke="red" cx="1365" cy="-412" rx="144" ry="18"/>
<text text-anchor="middle" x="1365" y="-409" font-family="Helvetica,sans-Serif" font-size="10.00">x11&#45;apps/mkfontdir&#45;1.0.7</text>
</a>
</g>
</g>
<!-- dependency1598809&#45;&gt;choice1204949459711211211547109107102111110116100105114454946484655 -->
<g id="edge9" class="edge">
<title>dependency1598809:e&#45;&gt;choice1204949459711211211547109107102111110116100105114454946484655:w</title>
<path fill="none" stroke="black" stroke-dasharray="1,5" d="M1114,-380C1159.65,-380 1169.48,-407.54 1209.95,-411.52"/>
<polygon fill="black" stroke="black" points="1220,-412 1209.8,-416.02 1215.01,-411.76 1210.01,-411.53 1210.01,-411.53 1210.01,-411.53 1215.01,-411.76 1210.22,-407.03 1220,-412 1220,-412"/>
</g>
<!-- choice1204949459711211211547109107102111110116100105114454946504648 -->
<g id="node11" class="node">
<title>choice1204949459711211211547109107102111110116100105114454946504648</title>
<g id="a_node11"><a xlink:href="../x11-apps/mkfontdir-1.2.0.svg" xlink:title="x11&#45;apps/mkfontdir&#45;1.2.0">
<ellipse fill="none" stroke="red" cx="1365" cy="-358" rx="144" ry="18"/>
<text text-anchor="middle" x="1365" y="-355" font-family="Helvetica,sans-Serif" font-size="10.00">x11&#45;apps/mkfontdir&#45;1.2.0</text>
</a>
</g>
</g>
<!-- dependency1598809&#45;&gt;choice1204949459711211211547109107102111110116100105114454946504648 -->
<g id="edge10" class="edge">
<title>dependency1598809:e&#45;&gt;choice1204949459711211211547109107102111110116100105114454946504648:w</title>
<path fill="none" stroke="black" stroke-dasharray="1,5" d="M1114,-380C1158.54,-380 1170.22,-361.14 1209.89,-358.35"/>
<polygon fill="black" stroke="black" points="1220,-358 1210.16,-362.84 1215,-358.17 1210.01,-358.34 1210.01,-358.34 1210.01,-358.34 1215,-358.17 1209.85,-353.84 1220,-358 1220,-358"/>
</g>
<!-- choice109101100105974510211111011611547101110991111001051101031154549464846524511451 -->
<g id="node12" class="node">
<title>choice109101100105974510211111011611547101110991111001051101031154549464846524511451</title>
<g id="a_node12"><a xlink:href="../media-fonts/encodings-1.0.4-r3.svg" xlink:title="media&#45;fonts/encodings&#45;1.0.4&#45;r3">
<ellipse fill="none" stroke="red" cx="1365" cy="-466" rx="144" ry="18"/>
<text text-anchor="middle" x="1365" y="-463" font-family="Helvetica,sans-Serif" font-size="10.00">media&#45;fonts/encodings&#45;1.0.4&#45;r3</text>
</a>
</g>
</g>
<!-- dependency1598810&#45;&gt;choice109101100105974510211111011611547101110991111001051101031154549464846524511451 -->
<g id="edge11" class="edge">
<title>dependency1598810:e&#45;&gt;choice109101100105974510211111011611547101110991111001051101031154549464846524511451:w</title>
<path fill="none" stroke="black" stroke-dasharray="1,5" d="M1114,-504C1160.43,-504 1168.87,-471.29 1209.81,-466.57"/>
<polygon fill="black" stroke="black" points="1220,-466 1210.27,-471.05 1215.01,-466.28 1210.02,-466.56 1210.02,-466.56 1210.02,-466.56 1215.01,-466.28 1209.77,-462.06 1220,-466 1220,-466"/>
</g>
<!-- choice9711211245971149910447999798101120116114979911645494656 -->
<g id="node13" class="node">
<title>choice9711211245971149910447999798101120116114979911645494656</title>
<g id="a_node13"><a xlink:href="../app-arch/cabextract-1.8.svg" xlink:title="app&#45;arch/cabextract&#45;1.8">
<ellipse fill="none" stroke="red" cx="1365" cy="-142" rx="144" ry="18"/>
<text text-anchor="middle" x="1365" y="-139" font-family="Helvetica,sans-Serif" font-size="10.00">app&#45;arch/cabextract&#45;1.8</text>
</a>
</g>
</g>
<!-- dependency1598811&#45;&gt;choice9711211245971149910447999798101120116114979911645494656 -->
<g id="edge12" class="edge">
<title>dependency1598811:e&#45;&gt;choice9711211245971149910447999798101120116114979911645494656:w</title>
<path fill="none" stroke="black" stroke-dasharray="1,5" d="M1114,-120C1158.54,-120 1170.22,-138.86 1209.89,-141.65"/>
<polygon fill="black" stroke="black" points="1220,-142 1209.85,-146.16 1215,-141.83 1210.01,-141.66 1210.01,-141.66 1210.01,-141.66 1215,-141.83 1210.16,-137.16 1220,-142 1220,-142"/>
</g>
<!-- choice97112112459711499104479997981011201161149799116454946574511450 -->
<g id="node14" class="node">
<title>choice97112112459711499104479997981011201161149799116454946574511450</title>
<g id="a_node14"><a xlink:href="../app-arch/cabextract-1.9-r2.svg" xlink:title="app&#45;arch/cabextract&#45;1.9&#45;r2">
<ellipse fill="none" stroke="red" cx="1365" cy="-88" rx="144" ry="18"/>
<text text-anchor="middle" x="1365" y="-85" font-family="Helvetica,sans-Serif" font-size="10.00">app&#45;arch/cabextract&#45;1.9&#45;r2</text>
</a>
</g>
</g>
<!-- dependency1598811&#45;&gt;choice97112112459711499104479997981011201161149799116454946574511450 -->
<g id="edge13" class="edge">
<title>dependency1598811:e&#45;&gt;choice97112112459711499104479997981011201161149799116454946574511450:w</title>
<path fill="none" stroke="black" stroke-dasharray="1,5" d="M1114,-120C1159.65,-120 1169.48,-92.46 1209.95,-88.48"/>
<polygon fill="black" stroke="black" points="1220,-88 1210.22,-92.97 1215.01,-88.24 1210.01,-88.47 1210.01,-88.47 1210.01,-88.47 1215.01,-88.24 1209.8,-83.98 1220,-88 1220,-88"/>
</g>
<!-- choice97112112459711499104479997981011201161149799116454946574649 -->
<g id="node15" class="node">
<title>choice97112112459711499104479997981011201161149799116454946574649</title>
<g id="a_node15"><a xlink:href="../app-arch/cabextract-1.9.1.svg" xlink:title="app&#45;arch/cabextract&#45;1.9.1">
<ellipse fill="none" stroke="red" cx="1365" cy="-34" rx="144" ry="18"/>
<text text-anchor="middle" x="1365" y="-31" font-family="Helvetica,sans-Serif" font-size="10.00">app&#45;arch/cabextract&#45;1.9.1</text>
</a>
</g>
</g>
<!-- dependency1598811&#45;&gt;choice97112112459711499104479997981011201161149799116454946574649 -->
<g id="edge14" class="edge">
<title>dependency1598811:e&#45;&gt;choice97112112459711499104479997981011201161149799116454946574649:w</title>
<path fill="none" stroke="black" stroke-dasharray="1,5" d="M1114,-120C1170.99,-120 1160.91,-44.1 1209.78,-34.91"/>
<polygon fill="black" stroke="black" points="1220,-34 1210.44,-39.37 1215.02,-34.44 1210.04,-34.88 1210.04,-34.88 1210.04,-34.88 1215.02,-34.44 1209.64,-30.4 1220,-34 1220,-34"/>
</g>
<!-- choice971121124597114991044799979810112011611497991164557575757 -->
<g id="node16" class="node">
<title>choice971121124597114991044799979810112011611497991164557575757</title>
<g id="a_node16"><a xlink:href="../app-arch/cabextract-9999.svg" xlink:title="app&#45;arch/cabextract&#45;9999">
<ellipse fill="none" stroke="red" cx="1365" cy="-196" rx="144" ry="18"/>
<text text-anchor="middle" x="1365" y="-193" font-family="Helvetica,sans-Serif" font-size="10.00">app&#45;arch/cabextract&#45;9999</text>
</a>
</g>
</g>
<!-- dependency1598811&#45;&gt;choice971121124597114991044799979810112011611497991164557575757 -->
<g id="edge15" class="edge">
<title>dependency1598811:e&#45;&gt;choice971121124597114991044799979810112011611497991164557575757:w</title>
<path fill="none" stroke="black" stroke-dasharray="1,5" d="M1114,-120C1168.35,-120 1163.01,-186.8 1209.89,-195.15"/>
<polygon fill="black" stroke="black" points="1220,-196 1209.66,-199.64 1215.02,-195.58 1210.04,-195.16 1210.04,-195.16 1210.04,-195.16 1215.02,-195.58 1210.41,-190.67 1220,-196 1220,-196"/>
</g>
</g>
</svg>
