<?xml version="1.0" encoding="UTF-8" standalone="no"?>
<!DOCTYPE svg PUBLIC "-//W3C//DTD SVG 1.1//EN"
 "http://www.w3.org/Graphics/SVG/1.1/DTD/svg11.dtd">
<!-- Generated by graphviz version 2.44.1 (20200629.0846)
 -->
<!-- Title: prolog Pages: 1 -->
<svg width="1331pt" height="796pt"
 viewBox="0.00 0.00 1331.00 796.00" xmlns="http://www.w3.org/2000/svg" xmlns:xlink="http://www.w3.org/1999/xlink">
<g id="graph0" class="graph" transform="scale(1 1) rotate(0) translate(4 792)">
<title>prolog</title>
<polygon fill="white" stroke="transparent" points="-4,4 -4,-792 1327,-792 1327,4 -4,4"/>
<g id="clust1" class="cluster">
<title>cluster_leftcol</title>
<polygon fill="none" stroke="gray" points="8,-330 8,-402 312,-402 312,-330 8,-330"/>
<text text-anchor="start" x="146.66" y="-390" font-family="Helvetica,sans-Serif" font-style="italic" font-size="10.00">ebuild</text>
</g>
<g id="clust2" class="cluster">
<title>cluster_midcol</title>
<polygon fill="none" stroke="gray" points="396,-8 396,-780 927,-780 927,-8 396,-8"/>
<text text-anchor="start" x="630.38" y="-768" font-family="Helvetica,sans-Serif" font-style="italic" font-size="10.00">dependencies</text>
</g>
<g id="clust3" class="cluster">
<title>cluster_compile</title>
<polygon fill="#eeeeee" stroke="gray" points="404,-322 404,-752 919,-752 919,-322 404,-322"/>
<text text-anchor="start" x="644.28" y="-740" font-family="Helvetica,sans-Serif" font-style="italic" font-size="10.00">compile</text>
</g>
<g id="clust14" class="cluster">
<title>cluster_run</title>
<polygon fill="#eeeeee" stroke="gray" points="404,-16 404,-314 919,-314 919,-16 404,-16"/>
<text text-anchor="start" x="654.28" y="-302" font-family="Helvetica,sans-Serif" font-style="italic" font-size="10.00">run</text>
</g>
<g id="clust21" class="cluster">
<title>cluster_choices</title>
<polygon fill="none" stroke="gray" points="1011,-433 1011,-505 1315,-505 1315,-433 1011,-433"/>
<text text-anchor="start" x="1138.82" y="-493" font-family="Helvetica,sans-Serif" font-style="italic" font-size="10.00">candidates</text>
</g>
<!-- id -->
<g id="node1" class="node">
<title>id</title>
<g id="a_node1"><a xlink:href="../sys-auth/nss-pam-ldapd-0.9.11-r2.svg" xlink:title="portage://sys&#45;auth/nss&#45;pam&#45;ldapd&#45;0.9.11&#45;r2">
<ellipse fill="none" stroke="red" cx="160" cy="-356" rx="144" ry="18"/>
<text text-anchor="middle" x="160" y="-353" font-family="Helvetica,sans-Serif" font-size="10.00">portage://sys&#45;auth/nss&#45;pam&#45;ldapd&#45;0.9.11&#45;r2</text>
</a>
</g>
</g>
<!-- dependency1340 -->
<g id="node2" class="node">
<title>dependency1340</title>
<polygon fill="none" stroke="red" points="420.5,-614 420.5,-658 511.5,-658 511.5,-614 420.5,-614"/>
<text text-anchor="start" x="431.27" y="-633" font-family="Helvetica,sans-Serif" font-size="10.00">use_conditional</text>
<polygon fill="none" stroke="red" points="511.5,-636 511.5,-658 559.5,-658 559.5,-636 511.5,-636"/>
<text text-anchor="start" x="518.55" y="-644" font-family="Helvetica,sans-Serif" font-size="10.00">positive</text>
<polygon fill="none" stroke="red" points="511.5,-614 511.5,-636 559.5,-636 559.5,-614 511.5,-614"/>
<text text-anchor="start" x="516.05" y="-622" font-family="Helvetica,sans-Serif" font-size="10.00">kerberos</text>
</g>
<!-- id&#45;&gt;dependency1340 -->
<g id="edge1" class="edge">
<title>id:e&#45;&gt;dependency1340:w</title>
<path fill="none" stroke="black" d="M305,-356C434.35,-356 286.07,-620.9 400.24,-635.38"/>
<polygon fill="black" stroke="black" points="410.5,-636 400.25,-639.89 405.51,-635.7 400.52,-635.4 400.52,-635.4 400.52,-635.4 405.51,-635.7 400.79,-630.91 410.5,-636 410.5,-636"/>
</g>
<!-- dependency1341 -->
<g id="node3" class="node">
<title>dependency1341</title>
<polygon fill="none" stroke="red" points="422.5,-544 422.5,-588 513.5,-588 513.5,-544 422.5,-544"/>
<text text-anchor="start" x="433.27" y="-563" font-family="Helvetica,sans-Serif" font-size="10.00">use_conditional</text>
<polygon fill="none" stroke="red" points="513.5,-566 513.5,-588 556.5,-588 556.5,-566 513.5,-566"/>
<text text-anchor="start" x="518.05" y="-574" font-family="Helvetica,sans-Serif" font-size="10.00">positive</text>
<polygon fill="none" stroke="red" points="513.5,-544 513.5,-566 556.5,-566 556.5,-544 513.5,-544"/>
<text text-anchor="start" x="518.05" y="-552" font-family="Helvetica,sans-Serif" font-size="10.00">pynslcd</text>
</g>
<!-- id&#45;&gt;dependency1341 -->
<g id="edge2" class="edge">
<title>id:e&#45;&gt;dependency1341:w</title>
<path fill="none" stroke="black" d="M305,-356C406.46,-356 315.15,-551.89 403.44,-565.28"/>
<polygon fill="black" stroke="black" points="413.5,-566 403.2,-569.78 408.51,-565.64 403.53,-565.29 403.53,-565.29 403.53,-565.29 408.51,-565.64 403.85,-560.8 413.5,-566 413.5,-566"/>
</g>
<!-- dependency1342 -->
<g id="node4" class="node">
<title>dependency1342</title>
<polygon fill="none" stroke="red" points="422.5,-474 422.5,-518 513.5,-518 513.5,-474 422.5,-474"/>
<text text-anchor="start" x="433.27" y="-493" font-family="Helvetica,sans-Serif" font-size="10.00">use_conditional</text>
<polygon fill="none" stroke="red" points="513.5,-496 513.5,-518 556.5,-518 556.5,-496 513.5,-496"/>
<text text-anchor="start" x="518.05" y="-504" font-family="Helvetica,sans-Serif" font-size="10.00">positive</text>
<polygon fill="none" stroke="red" points="513.5,-474 513.5,-496 556.5,-496 556.5,-474 513.5,-474"/>
<text text-anchor="start" x="526.11" y="-482" font-family="Helvetica,sans-Serif" font-size="10.00">sasl</text>
</g>
<!-- id&#45;&gt;dependency1342 -->
<g id="edge3" class="edge">
<title>id:e&#45;&gt;dependency1342:w</title>
<path fill="none" stroke="black" d="M305,-356C380.03,-356 339.09,-483.18 403.25,-495.11"/>
<polygon fill="black" stroke="black" points="413.5,-496 403.15,-499.61 408.52,-495.57 403.54,-495.13 403.54,-495.13 403.54,-495.13 408.52,-495.57 403.93,-490.65 413.5,-496 413.5,-496"/>
</g>
<!-- dependency1343 -->
<g id="node5" class="node">
<title>dependency1343</title>
<polygon fill="none" stroke="red" points="422.5,-404 422.5,-448 513.5,-448 513.5,-404 422.5,-404"/>
<text text-anchor="start" x="433.27" y="-423" font-family="Helvetica,sans-Serif" font-size="10.00">use_conditional</text>
<polygon fill="none" stroke="red" points="513.5,-426 513.5,-448 556.5,-448 556.5,-426 513.5,-426"/>
<text text-anchor="start" x="518.05" y="-434" font-family="Helvetica,sans-Serif" font-size="10.00">positive</text>
<polygon fill="none" stroke="red" points="513.5,-404 513.5,-426 556.5,-426 556.5,-404 513.5,-404"/>
<text text-anchor="start" x="526.94" y="-412" font-family="Helvetica,sans-Serif" font-size="10.00">test</text>
</g>
<!-- id&#45;&gt;dependency1343 -->
<g id="edge6" class="edge">
<title>id:e&#45;&gt;dependency1343:w</title>
<path fill="none" stroke="black" d="M305,-356C358.8,-356 356.65,-417.52 403.45,-425.21"/>
<polygon fill="black" stroke="black" points="413.5,-426 403.18,-429.71 408.52,-425.61 403.53,-425.22 403.53,-425.22 403.53,-425.22 408.52,-425.61 403.88,-420.73 413.5,-426 413.5,-426"/>
</g>
<!-- dependency1346 -->
<g id="node8" class="node">
<title>dependency1346</title>
<polygon fill="none" stroke="red" points="422.5,-334 422.5,-378 513.5,-378 513.5,-334 422.5,-334"/>
<text text-anchor="start" x="433.27" y="-353" font-family="Helvetica,sans-Serif" font-size="10.00">use_conditional</text>
<polygon fill="none" stroke="red" points="513.5,-356 513.5,-378 556.5,-378 556.5,-356 513.5,-356"/>
<text text-anchor="start" x="518.05" y="-364" font-family="Helvetica,sans-Serif" font-size="10.00">positive</text>
<polygon fill="none" stroke="red" points="513.5,-334 513.5,-356 556.5,-356 556.5,-334 513.5,-334"/>
<text text-anchor="start" x="526.11" y="-342" font-family="Helvetica,sans-Serif" font-size="10.00">utils</text>
</g>
<!-- id&#45;&gt;dependency1346 -->
<g id="edge9" class="edge">
<title>id:e&#45;&gt;dependency1346:w</title>
<path fill="none" stroke="black" d="M305,-356C349.64,-356 363.29,-356 403.33,-356"/>
<polygon fill="black" stroke="black" points="413.5,-356 403.5,-360.5 408.5,-356 403.5,-356 403.5,-356 403.5,-356 408.5,-356 403.5,-351.5 413.5,-356 413.5,-356"/>
</g>
<!-- dependency1349 -->
<g id="node11" class="node">
<title>dependency1349</title>
<polygon fill="none" stroke="red" points="420.5,-238 420.5,-282 511.5,-282 511.5,-238 420.5,-238"/>
<text text-anchor="start" x="431.27" y="-257" font-family="Helvetica,sans-Serif" font-size="10.00">use_conditional</text>
<polygon fill="none" stroke="red" points="511.5,-260 511.5,-282 559.5,-282 559.5,-260 511.5,-260"/>
<text text-anchor="start" x="518.55" y="-268" font-family="Helvetica,sans-Serif" font-size="10.00">positive</text>
<polygon fill="none" stroke="red" points="511.5,-238 511.5,-260 559.5,-260 559.5,-238 511.5,-238"/>
<text text-anchor="start" x="516.05" y="-246" font-family="Helvetica,sans-Serif" font-size="10.00">kerberos</text>
</g>
<!-- id&#45;&gt;dependency1349 -->
<g id="edge10" class="edge">
<title>id:e&#45;&gt;dependency1349:w</title>
<path fill="none" stroke="black" d="M305,-356C365.55,-356 348.85,-268.43 402.45,-260.56"/>
<ellipse fill="none" stroke="black" cx="406.51" cy="-260.28" rx="4" ry="4"/>
</g>
<!-- dependency1350 -->
<g id="node12" class="node">
<title>dependency1350</title>
<polygon fill="none" stroke="red" points="422.5,-168 422.5,-212 513.5,-212 513.5,-168 422.5,-168"/>
<text text-anchor="start" x="433.27" y="-187" font-family="Helvetica,sans-Serif" font-size="10.00">use_conditional</text>
<polygon fill="none" stroke="red" points="513.5,-190 513.5,-212 556.5,-212 556.5,-190 513.5,-190"/>
<text text-anchor="start" x="518.05" y="-198" font-family="Helvetica,sans-Serif" font-size="10.00">positive</text>
<polygon fill="none" stroke="red" points="513.5,-168 513.5,-190 556.5,-190 556.5,-168 513.5,-168"/>
<text text-anchor="start" x="518.05" y="-176" font-family="Helvetica,sans-Serif" font-size="10.00">pynslcd</text>
</g>
<!-- id&#45;&gt;dependency1350 -->
<g id="edge11" class="edge">
<title>id:e&#45;&gt;dependency1350:w</title>
<path fill="none" stroke="black" d="M305,-356C390.21,-356 329.69,-200.84 405.22,-190.54"/>
<ellipse fill="none" stroke="black" cx="409.51" cy="-190.26" rx="4" ry="4"/>
</g>
<!-- dependency1351 -->
<g id="node13" class="node">
<title>dependency1351</title>
<polygon fill="none" stroke="red" points="422.5,-98 422.5,-142 513.5,-142 513.5,-98 422.5,-98"/>
<text text-anchor="start" x="433.27" y="-117" font-family="Helvetica,sans-Serif" font-size="10.00">use_conditional</text>
<polygon fill="none" stroke="red" points="513.5,-120 513.5,-142 556.5,-142 556.5,-120 513.5,-120"/>
<text text-anchor="start" x="518.05" y="-128" font-family="Helvetica,sans-Serif" font-size="10.00">positive</text>
<polygon fill="none" stroke="red" points="513.5,-98 513.5,-120 556.5,-120 556.5,-98 513.5,-98"/>
<text text-anchor="start" x="526.11" y="-106" font-family="Helvetica,sans-Serif" font-size="10.00">sasl</text>
</g>
<!-- id&#45;&gt;dependency1351 -->
<g id="edge12" class="edge">
<title>id:e&#45;&gt;dependency1351:w</title>
<path fill="none" stroke="black" d="M305,-356C417.62,-356 303.89,-131.38 405.46,-120.42"/>
<ellipse fill="none" stroke="black" cx="409.51" cy="-120.21" rx="4" ry="4"/>
</g>
<!-- dependency1352 -->
<g id="node14" class="node">
<title>dependency1352</title>
<polygon fill="none" stroke="red" points="422.5,-28 422.5,-72 513.5,-72 513.5,-28 422.5,-28"/>
<text text-anchor="start" x="433.27" y="-47" font-family="Helvetica,sans-Serif" font-size="10.00">use_conditional</text>
<polygon fill="none" stroke="red" points="513.5,-50 513.5,-72 556.5,-72 556.5,-50 513.5,-50"/>
<text text-anchor="start" x="518.05" y="-58" font-family="Helvetica,sans-Serif" font-size="10.00">positive</text>
<polygon fill="none" stroke="red" points="513.5,-28 513.5,-50 556.5,-50 556.5,-28 513.5,-28"/>
<text text-anchor="start" x="526.11" y="-36" font-family="Helvetica,sans-Serif" font-size="10.00">utils</text>
</g>
<!-- id&#45;&gt;dependency1352 -->
<g id="edge15" class="edge">
<title>id:e&#45;&gt;dependency1352:w</title>
<path fill="none" stroke="black" d="M305,-356C446.48,-356 276.11,-61.84 405.41,-50.35"/>
<ellipse fill="none" stroke="black" cx="409.5" cy="-50.17" rx="4" ry="4"/>
</g>
<!-- dependency1344 -->
<g id="node6" class="node">
<title>dependency1344</title>
<polygon fill="none" stroke="red" points="684,-540 684,-584 775,-584 775,-540 684,-540"/>
<text text-anchor="start" x="694.77" y="-559" font-family="Helvetica,sans-Serif" font-size="10.00">use_conditional</text>
<polygon fill="none" stroke="red" points="775,-562 775,-584 903,-584 903,-562 775,-562"/>
<text text-anchor="start" x="822.05" y="-570" font-family="Helvetica,sans-Serif" font-size="10.00">positive</text>
<polygon fill="none" stroke="red" points="775,-540 775,-562 903,-562 903,-540 775,-540"/>
<text text-anchor="start" x="779.81" y="-548" font-family="Helvetica,sans-Serif" font-size="10.00">python_targets_python3_7</text>
</g>
<!-- dependency1343&#45;&gt;dependency1344 -->
<g id="edge4" class="edge">
<title>dependency1343:e&#45;&gt;dependency1344:w</title>
<path fill="none" stroke="black" stroke-dasharray="5,2" d="M565.5,-426C639.46,-426 601.41,-549.55 664.87,-561.13"/>
<polygon fill="black" stroke="black" points="675,-562 664.65,-565.63 670.02,-561.57 665.04,-561.15 665.04,-561.15 665.04,-561.15 670.02,-561.57 665.42,-556.66 675,-562 675,-562"/>
</g>
<!-- dependency1345 -->
<g id="node7" class="node">
<title>dependency1345</title>
<polygon fill="none" stroke="blue" points="683,-610 683,-720 788,-720 788,-610 683,-610"/>
<text text-anchor="start" x="713.82" y="-662" font-family="Helvetica,sans-Serif" font-size="10.00">pack_dep</text>
<polygon fill="none" stroke="blue" points="788,-698 788,-720 898,-720 898,-698 788,-698"/>
<text text-anchor="start" x="837.44" y="-706" font-family="Helvetica,sans-Serif" font-size="10.00">no</text>
<polygon fill="none" stroke="blue" points="788,-676 788,-698 898,-698 898,-676 788,-676"/>
<text text-anchor="start" x="823.83" y="-684" font-family="Helvetica,sans-Serif" font-size="10.00">dev&#45;lang</text>
<polygon fill="none" stroke="blue" points="788,-654 788,-676 898,-676 898,-654 788,-654"/>
<text text-anchor="start" x="815.77" y="-662" font-family="Helvetica,sans-Serif" font-size="10.00">python&#45;exec</text>
<polygon fill="none" stroke="blue" points="788,-632 788,-654 898,-654 898,-632 788,-632"/>
<text text-anchor="start" x="814.94" y="-640" font-family="Helvetica,sans-Serif" font-size="10.00">greaterequal</text>
<polygon fill="none" stroke="blue" points="788,-610 788,-632 898,-632 898,-610 788,-610"/>
<text text-anchor="start" x="840.22" y="-618" font-family="Helvetica,sans-Serif" font-size="10.00">2</text>
</g>
<!-- dependency1343&#45;&gt;dependency1345 -->
<g id="edge5" class="edge">
<title>dependency1343:e&#45;&gt;dependency1345:w</title>
<path fill="none" stroke="black" stroke-dasharray="5,2" d="M565.5,-426C678.69,-426 565.69,-650.3 664.74,-664.31"/>
<polygon fill="black" stroke="black" points="675,-665 664.72,-668.82 670.01,-664.67 665.02,-664.33 665.02,-664.33 665.02,-664.33 670.01,-664.67 665.32,-659.84 675,-665 675,-665"/>
</g>
<!-- choice10010111845108971101034711212111610411111045101120101994550465246544511452 -->
<g id="node17" class="node">
<title>choice10010111845108971101034711212111610411111045101120101994550465246544511452</title>
<g id="a_node17"><a xlink:href="../dev-lang/python-exec-2.4.6-r4.svg" xlink:title="portage://dev&#45;lang/python&#45;exec&#45;2.4.6&#45;r4">
<ellipse fill="none" stroke="red" cx="1163" cy="-459" rx="144" ry="18"/>
<text text-anchor="middle" x="1163" y="-456" font-family="Helvetica,sans-Serif" font-size="10.00">portage://dev&#45;lang/python&#45;exec&#45;2.4.6&#45;r4</text>
</a>
</g>
</g>
<!-- dependency1345&#45;&gt;choice10010111845108971101034711212111610411111045101120101994550465246544511452 -->
<g id="edge16" class="edge">
<title>dependency1345:e&#45;&gt;choice10010111845108971101034711212111610411111045101120101994550465246544511452:w</title>
<path fill="none" stroke="black" stroke-dasharray="1,5" d="M912,-665C1011.35,-665 921.81,-473.23 1007.88,-459.75"/>
<polygon fill="black" stroke="black" points="1018,-459 1008.36,-464.22 1013.01,-459.37 1008.03,-459.73 1008.03,-459.73 1008.03,-459.73 1013.01,-459.37 1007.7,-455.25 1018,-459 1018,-459"/>
</g>
<!-- dependency1347 -->
<g id="node9" class="node">
<title>dependency1347</title>
<polygon fill="none" stroke="red" points="684,-334 684,-378 775,-378 775,-334 684,-334"/>
<text text-anchor="start" x="694.77" y="-353" font-family="Helvetica,sans-Serif" font-size="10.00">use_conditional</text>
<polygon fill="none" stroke="red" points="775,-356 775,-378 903,-378 903,-356 775,-356"/>
<text text-anchor="start" x="822.05" y="-364" font-family="Helvetica,sans-Serif" font-size="10.00">positive</text>
<polygon fill="none" stroke="red" points="775,-334 775,-356 903,-356 903,-334 775,-334"/>
<text text-anchor="start" x="779.81" y="-342" font-family="Helvetica,sans-Serif" font-size="10.00">python_targets_python3_7</text>
</g>
<!-- dependency1346&#45;&gt;dependency1347 -->
<g id="edge7" class="edge">
<title>dependency1346:e&#45;&gt;dependency1347:w</title>
<path fill="none" stroke="black" stroke-dasharray="5,2" d="M565.5,-356C610.65,-356 624.38,-356 664.99,-356"/>
<polygon fill="black" stroke="black" points="675,-356 665,-360.5 670,-356 665,-356 665,-356 665,-356 670,-356 665,-351.5 675,-356 675,-356"/>
</g>
<!-- dependency1348 -->
<g id="node10" class="node">
<title>dependency1348</title>
<polygon fill="none" stroke="blue" points="683,-404 683,-514 788,-514 788,-404 683,-404"/>
<text text-anchor="start" x="713.82" y="-456" font-family="Helvetica,sans-Serif" font-size="10.00">pack_dep</text>
<polygon fill="none" stroke="blue" points="788,-492 788,-514 898,-514 898,-492 788,-492"/>
<text text-anchor="start" x="837.44" y="-500" font-family="Helvetica,sans-Serif" font-size="10.00">no</text>
<polygon fill="none" stroke="blue" points="788,-470 788,-492 898,-492 898,-470 788,-470"/>
<text text-anchor="start" x="823.83" y="-478" font-family="Helvetica,sans-Serif" font-size="10.00">dev&#45;lang</text>
<polygon fill="none" stroke="blue" points="788,-448 788,-470 898,-470 898,-448 788,-448"/>
<text text-anchor="start" x="815.77" y="-456" font-family="Helvetica,sans-Serif" font-size="10.00">python&#45;exec</text>
<polygon fill="none" stroke="blue" points="788,-426 788,-448 898,-448 898,-426 788,-426"/>
<text text-anchor="start" x="814.94" y="-434" font-family="Helvetica,sans-Serif" font-size="10.00">greaterequal</text>
<polygon fill="none" stroke="blue" points="788,-404 788,-426 898,-426 898,-404 788,-404"/>
<text text-anchor="start" x="840.22" y="-412" font-family="Helvetica,sans-Serif" font-size="10.00">2</text>
</g>
<!-- dependency1346&#45;&gt;dependency1348 -->
<g id="edge8" class="edge">
<title>dependency1346:e&#45;&gt;dependency1348:w</title>
<path fill="none" stroke="black" stroke-dasharray="5,2" d="M565.5,-356C628.66,-356 610.55,-448.04 664.82,-458.11"/>
<polygon fill="black" stroke="black" points="675,-459 664.65,-462.61 670.02,-458.56 665.04,-458.13 665.04,-458.13 665.04,-458.13 670.02,-458.56 665.43,-453.65 675,-459 675,-459"/>
</g>
<!-- dependency1348&#45;&gt;choice10010111845108971101034711212111610411111045101120101994550465246544511452 -->
<g id="edge17" class="edge">
<title>dependency1348:e&#45;&gt;choice10010111845108971101034711212111610411111045101120101994550465246544511452:w</title>
<path fill="none" stroke="black" stroke-dasharray="1,5" d="M912,-459C955.43,-459 968.83,-459 1007.57,-459"/>
<polygon fill="black" stroke="black" points="1018,-459 1008,-463.5 1013,-459 1008,-459 1008,-459 1008,-459 1013,-459 1008,-454.5 1018,-459 1018,-459"/>
</g>
<!-- dependency1353 -->
<g id="node15" class="node">
<title>dependency1353</title>
<polygon fill="none" stroke="red" points="684,-28 684,-72 775,-72 775,-28 684,-28"/>
<text text-anchor="start" x="694.77" y="-47" font-family="Helvetica,sans-Serif" font-size="10.00">use_conditional</text>
<polygon fill="none" stroke="red" points="775,-50 775,-72 903,-72 903,-50 775,-50"/>
<text text-anchor="start" x="822.05" y="-58" font-family="Helvetica,sans-Serif" font-size="10.00">positive</text>
<polygon fill="none" stroke="red" points="775,-28 775,-50 903,-50 903,-28 775,-28"/>
<text text-anchor="start" x="779.81" y="-36" font-family="Helvetica,sans-Serif" font-size="10.00">python_targets_python3_7</text>
</g>
<!-- dependency1352&#45;&gt;dependency1353 -->
<g id="edge13" class="edge">
<title>dependency1352:e&#45;&gt;dependency1353:w</title>
<path fill="none" stroke="black" stroke-dasharray="5,2" d="M565.5,-50C610.65,-50 624.38,-50 664.99,-50"/>
<polygon fill="black" stroke="black" points="675,-50 665,-54.5 670,-50 665,-50 665,-50 665,-50 670,-50 665,-45.5 675,-50 675,-50"/>
</g>
<!-- dependency1354 -->
<g id="node16" class="node">
<title>dependency1354</title>
<polygon fill="none" stroke="blue" points="683,-172 683,-282 788,-282 788,-172 683,-172"/>
<text text-anchor="start" x="713.82" y="-224" font-family="Helvetica,sans-Serif" font-size="10.00">pack_dep</text>
<polygon fill="none" stroke="blue" points="788,-260 788,-282 898,-282 898,-260 788,-260"/>
<text text-anchor="start" x="837.44" y="-268" font-family="Helvetica,sans-Serif" font-size="10.00">no</text>
<polygon fill="none" stroke="blue" points="788,-238 788,-260 898,-260 898,-238 788,-238"/>
<text text-anchor="start" x="823.83" y="-246" font-family="Helvetica,sans-Serif" font-size="10.00">dev&#45;lang</text>
<polygon fill="none" stroke="blue" points="788,-216 788,-238 898,-238 898,-216 788,-216"/>
<text text-anchor="start" x="815.77" y="-224" font-family="Helvetica,sans-Serif" font-size="10.00">python&#45;exec</text>
<polygon fill="none" stroke="blue" points="788,-194 788,-216 898,-216 898,-194 788,-194"/>
<text text-anchor="start" x="814.94" y="-202" font-family="Helvetica,sans-Serif" font-size="10.00">greaterequal</text>
<polygon fill="none" stroke="blue" points="788,-172 788,-194 898,-194 898,-172 788,-172"/>
<text text-anchor="start" x="840.22" y="-180" font-family="Helvetica,sans-Serif" font-size="10.00">2</text>
</g>
<!-- dependency1352&#45;&gt;dependency1354 -->
<g id="edge14" class="edge">
<title>dependency1352:e&#45;&gt;dependency1354:w</title>
<path fill="none" stroke="black" stroke-dasharray="5,2" d="M565.5,-50C654.39,-50 588.14,-213.44 664.91,-226.21"/>
<polygon fill="black" stroke="black" points="675,-227 664.68,-230.71 670.02,-226.61 665.03,-226.22 665.03,-226.22 665.03,-226.22 670.02,-226.61 665.38,-221.73 675,-227 675,-227"/>
</g>
<!-- dependency1354&#45;&gt;choice10010111845108971101034711212111610411111045101120101994550465246544511452 -->
<g id="edge18" class="edge">
<title>dependency1354:e&#45;&gt;choice10010111845108971101034711212111610411111045101120101994550465246544511452:w</title>
<path fill="none" stroke="black" stroke-dasharray="1,5" d="M912,-227C1021.71,-227 912.17,-444.29 1007.75,-458.29"/>
<polygon fill="black" stroke="black" points="1018,-459 1007.71,-462.8 1013.01,-458.66 1008.02,-458.31 1008.02,-458.31 1008.02,-458.31 1013.01,-458.66 1008.33,-453.82 1018,-459 1018,-459"/>
</g>
</g>
</svg>
