<?xml version="1.0" encoding="UTF-8" standalone="no"?>
<!DOCTYPE svg PUBLIC "-//W3C//DTD SVG 1.1//EN"
 "http://www.w3.org/Graphics/SVG/1.1/DTD/svg11.dtd">
<!-- Generated by graphviz version 9.0.0 (20230911.1827)
 -->
<!-- Title: prolog Pages: 1 -->
<svg width="1336pt" height="773pt"
 viewBox="0.00 0.00 1336.00 773.00" xmlns="http://www.w3.org/2000/svg" xmlns:xlink="http://www.w3.org/1999/xlink">
<g id="graph0" class="graph" transform="scale(1 1) rotate(0) translate(4 769)">
<title>prolog</title>
<polygon fill="white" stroke="none" points="-4,4 -4,-769 1332,-769 1332,4 -4,4"/>
<g id="clust2" class="cluster">
<title>cluster_midcol</title>
<polygon fill="none" stroke="gray" points="8,-8 8,-757 932,-757 932,-8 8,-8"/>
<text text-anchor="start" x="440" y="-744.5" font-family="Helvetica,sans-Serif" font-style="italic" font-size="10.00">dependencies</text>
</g>
<g id="clust3" class="cluster">
<title>cluster_compile</title>
<polygon fill="#eeeeee" stroke="gray" points="16,-16 16,-433 924,-433 924,-16 16,-16"/>
<text text-anchor="start" x="453.12" y="-420.5" font-family="Helvetica,sans-Serif" font-style="italic" font-size="10.00">compile</text>
</g>
<g id="clust14" class="cluster">
<title>cluster_run</title>
<polygon fill="#eeeeee" stroke="gray" points="412,-441 412,-730 924,-730 924,-441 412,-441"/>
<text text-anchor="start" x="661.25" y="-717.5" font-family="Helvetica,sans-Serif" font-style="italic" font-size="10.00">run</text>
</g>
<g id="clust21" class="cluster">
<title>cluster_choices</title>
<polygon fill="none" stroke="gray" points="1016,-323 1016,-394 1320,-394 1320,-323 1016,-323"/>
<text text-anchor="start" x="1144.38" y="-381.5" font-family="Helvetica,sans-Serif" font-style="italic" font-size="10.00">candidates</text>
</g>
<!-- id -->
<g id="node1" class="node">
<title>id</title>
<g id="a_node1"><a xlink:href="../sys-auth/nss-pam-ldapd-0.9.11-r2.svg" xlink:title="portage://sys&#45;auth/nss&#45;pam&#45;ldapd&#45;0.9.11&#45;r2">
<ellipse fill="none" stroke="red" cx="168" cy="-365" rx="144" ry="18"/>
<text text-anchor="middle" x="168" y="-361.12" font-family="Helvetica,sans-Serif" font-size="10.00">portage://sys&#45;auth/nss&#45;pam&#45;ldapd&#45;0.9.11&#45;r2</text>
</a>
</g>
</g>
<!-- dependency958 -->
<g id="node2" class="node">
<title>dependency958</title>
<polygon fill="none" stroke="red" points="428,-72 428,-114 517,-114 517,-72 428,-72"/>
<text text-anchor="start" x="438.75" y="-89.12" font-family="Helvetica,sans-Serif" font-size="10.00">use_conditional</text>
<polygon fill="none" stroke="red" points="517,-93 517,-114 564,-114 564,-93 517,-93"/>
<text text-anchor="start" x="523.62" y="-99.5" font-family="Helvetica,sans-Serif" font-size="10.00">positive</text>
<polygon fill="none" stroke="red" points="517,-72 517,-93 564,-93 564,-72 517,-72"/>
<text text-anchor="start" x="521.75" y="-78.5" font-family="Helvetica,sans-Serif" font-size="10.00">kerberos</text>
</g>
<!-- id&#45;&gt;dependency958 -->
<g id="edge1" class="edge">
<title>id:e&#45;&gt;dependency958:w</title>
<path fill="none" stroke="black" d="M312,-365C437.97,-365 298.09,-109.22 407.96,-93.73"/>
<polygon fill="black" stroke="black" points="417.78,-93.08 408.1,-98.23 414.01,-93.33 407.81,-93.74 407.81,-93.74 407.81,-93.74 414.01,-93.33 407.51,-89.25 417.78,-93.08"/>
</g>
<!-- dependency959 -->
<g id="node3" class="node">
<title>dependency959</title>
<polygon fill="none" stroke="red" points="430,-140 430,-182 519,-182 519,-140 430,-140"/>
<text text-anchor="start" x="440.75" y="-157.12" font-family="Helvetica,sans-Serif" font-size="10.00">use_conditional</text>
<polygon fill="none" stroke="red" points="519,-161 519,-182 562,-182 562,-161 519,-161"/>
<text text-anchor="start" x="523.62" y="-167.5" font-family="Helvetica,sans-Serif" font-size="10.00">positive</text>
<polygon fill="none" stroke="red" points="519,-140 519,-161 562,-161 562,-140 519,-140"/>
<text text-anchor="start" x="523.62" y="-146.5" font-family="Helvetica,sans-Serif" font-size="10.00">pynslcd</text>
</g>
<!-- id&#45;&gt;dependency959 -->
<g id="edge2" class="edge">
<title>id:e&#45;&gt;dependency959:w</title>
<path fill="none" stroke="black" d="M312,-365C410.78,-365 325.44,-176.63 409.84,-161.91"/>
<polygon fill="black" stroke="black" points="419.79,-161.1 410.18,-166.4 416.02,-161.41 409.82,-161.91 409.82,-161.91 409.82,-161.91 416.02,-161.41 409.45,-157.43 419.79,-161.1"/>
</g>
<!-- dependency960 -->
<g id="node4" class="node">
<title>dependency960</title>
<polygon fill="none" stroke="red" points="430,-208 430,-250 519,-250 519,-208 430,-208"/>
<text text-anchor="start" x="440.75" y="-225.12" font-family="Helvetica,sans-Serif" font-size="10.00">use_conditional</text>
<polygon fill="none" stroke="red" points="519,-229 519,-250 562,-250 562,-229 519,-229"/>
<text text-anchor="start" x="523.62" y="-235.5" font-family="Helvetica,sans-Serif" font-size="10.00">positive</text>
<polygon fill="none" stroke="red" points="519,-208 519,-229 562,-229 562,-208 519,-208"/>
<text text-anchor="start" x="531.5" y="-214.5" font-family="Helvetica,sans-Serif" font-size="10.00">sasl</text>
</g>
<!-- id&#45;&gt;dependency960 -->
<g id="edge3" class="edge">
<title>id:e&#45;&gt;dependency960:w</title>
<path fill="none" stroke="black" d="M312,-365C385.53,-365 347.88,-242.46 410.12,-230.02"/>
<polygon fill="black" stroke="black" points="419.79,-229.11 410.25,-234.52 416.02,-229.47 409.83,-230.04 409.83,-230.04 409.83,-230.04 416.02,-229.47 409.41,-225.56 419.79,-229.11"/>
</g>
<!-- dependency961 -->
<g id="node5" class="node">
<title>dependency961</title>
<polygon fill="none" stroke="red" points="430,-276 430,-318 519,-318 519,-276 430,-276"/>
<text text-anchor="start" x="440.75" y="-293.12" font-family="Helvetica,sans-Serif" font-size="10.00">use_conditional</text>
<polygon fill="none" stroke="red" points="519,-297 519,-318 562,-318 562,-297 519,-297"/>
<text text-anchor="start" x="523.62" y="-303.5" font-family="Helvetica,sans-Serif" font-size="10.00">positive</text>
<polygon fill="none" stroke="red" points="519,-276 519,-297 562,-297 562,-276 519,-276"/>
<text text-anchor="start" x="532.25" y="-282.5" font-family="Helvetica,sans-Serif" font-size="10.00">test</text>
</g>
<!-- id&#45;&gt;dependency961 -->
<g id="edge6" class="edge">
<title>id:e&#45;&gt;dependency961:w</title>
<path fill="none" stroke="black" d="M312,-365C365.08,-365 364.32,-306.23 409.84,-297.96"/>
<polygon fill="black" stroke="black" points="419.79,-297.1 410.21,-302.45 416.02,-297.43 409.82,-297.96 409.82,-297.96 409.82,-297.96 416.02,-297.43 409.44,-293.48 419.79,-297.1"/>
</g>
<!-- dependency964 -->
<g id="node8" class="node">
<title>dependency964</title>
<polygon fill="none" stroke="red" points="430,-344 430,-386 519,-386 519,-344 430,-344"/>
<text text-anchor="start" x="440.75" y="-361.12" font-family="Helvetica,sans-Serif" font-size="10.00">use_conditional</text>
<polygon fill="none" stroke="red" points="519,-365 519,-386 562,-386 562,-365 519,-365"/>
<text text-anchor="start" x="523.62" y="-371.5" font-family="Helvetica,sans-Serif" font-size="10.00">positive</text>
<polygon fill="none" stroke="red" points="519,-344 519,-365 562,-365 562,-344 519,-344"/>
<text text-anchor="start" x="531.5" y="-350.5" font-family="Helvetica,sans-Serif" font-size="10.00">utils</text>
</g>
<!-- id&#45;&gt;dependency964 -->
<g id="edge9" class="edge">
<title>id:e&#45;&gt;dependency964:w</title>
<path fill="none" stroke="black" d="M312,-365C356.57,-365 370.38,-365 410.02,-365"/>
<polygon fill="black" stroke="black" points="419.78,-365 409.78,-369.5 416,-365 409.78,-365 409.78,-365 409.78,-365 416,-365 409.78,-360.5 419.78,-365"/>
</g>
<!-- dependency967 -->
<g id="node11" class="node">
<title>dependency967</title>
<polygon fill="none" stroke="red" points="428,-657 428,-699 517,-699 517,-657 428,-657"/>
<text text-anchor="start" x="438.75" y="-674.12" font-family="Helvetica,sans-Serif" font-size="10.00">use_conditional</text>
<polygon fill="none" stroke="red" points="517,-678 517,-699 564,-699 564,-678 517,-678"/>
<text text-anchor="start" x="523.62" y="-684.5" font-family="Helvetica,sans-Serif" font-size="10.00">positive</text>
<polygon fill="none" stroke="red" points="517,-657 517,-678 564,-678 564,-657 517,-657"/>
<text text-anchor="start" x="521.75" y="-663.5" font-family="Helvetica,sans-Serif" font-size="10.00">kerberos</text>
</g>
<!-- id&#45;&gt;dependency967 -->
<g id="edge10" class="edge">
<title>id:e&#45;&gt;dependency967:w</title>
<path fill="none" stroke="black" d="M312,-365C456,-365 279.52,-665.29 410.37,-677.61"/>
<ellipse fill="none" stroke="black" cx="414.5" cy="-677.8" rx="4" ry="4"/>
</g>
<!-- dependency968 -->
<g id="node12" class="node">
<title>dependency968</title>
<polygon fill="none" stroke="red" points="430,-589 430,-631 519,-631 519,-589 430,-589"/>
<text text-anchor="start" x="440.75" y="-606.12" font-family="Helvetica,sans-Serif" font-size="10.00">use_conditional</text>
<polygon fill="none" stroke="red" points="519,-610 519,-631 562,-631 562,-610 519,-610"/>
<text text-anchor="start" x="523.62" y="-616.5" font-family="Helvetica,sans-Serif" font-size="10.00">positive</text>
<polygon fill="none" stroke="red" points="519,-589 519,-610 562,-610 562,-589 519,-589"/>
<text text-anchor="start" x="523.62" y="-595.5" font-family="Helvetica,sans-Serif" font-size="10.00">pynslcd</text>
</g>
<!-- id&#45;&gt;dependency968 -->
<g id="edge11" class="edge">
<title>id:e&#45;&gt;dependency968:w</title>
<path fill="none" stroke="black" d="M312,-365C428.04,-365 308.47,-597.25 412.08,-609.5"/>
<ellipse fill="none" stroke="black" cx="416.51" cy="-609.75" rx="4" ry="4"/>
</g>
<!-- dependency969 -->
<g id="node13" class="node">
<title>dependency969</title>
<polygon fill="none" stroke="red" points="430,-521 430,-563 519,-563 519,-521 430,-521"/>
<text text-anchor="start" x="440.75" y="-538.12" font-family="Helvetica,sans-Serif" font-size="10.00">use_conditional</text>
<polygon fill="none" stroke="red" points="519,-542 519,-563 562,-563 562,-542 519,-542"/>
<text text-anchor="start" x="523.62" y="-548.5" font-family="Helvetica,sans-Serif" font-size="10.00">positive</text>
<polygon fill="none" stroke="red" points="519,-521 519,-542 562,-542 562,-521 519,-521"/>
<text text-anchor="start" x="531.5" y="-527.5" font-family="Helvetica,sans-Serif" font-size="10.00">sasl</text>
</g>
<!-- id&#45;&gt;dependency969 -->
<g id="edge12" class="edge">
<title>id:e&#45;&gt;dependency969:w</title>
<path fill="none" stroke="black" d="M312,-365C401.32,-365 333.46,-530.44 412.34,-541.43"/>
<ellipse fill="none" stroke="black" cx="416.51" cy="-541.7" rx="4" ry="4"/>
</g>
<!-- dependency970 -->
<g id="node14" class="node">
<title>dependency970</title>
<polygon fill="none" stroke="red" points="430,-453 430,-495 519,-495 519,-453 430,-453"/>
<text text-anchor="start" x="440.75" y="-470.12" font-family="Helvetica,sans-Serif" font-size="10.00">use_conditional</text>
<polygon fill="none" stroke="red" points="519,-474 519,-495 562,-495 562,-474 519,-474"/>
<text text-anchor="start" x="523.62" y="-480.5" font-family="Helvetica,sans-Serif" font-size="10.00">positive</text>
<polygon fill="none" stroke="red" points="519,-453 519,-474 562,-474 562,-453 519,-453"/>
<text text-anchor="start" x="531.5" y="-459.5" font-family="Helvetica,sans-Serif" font-size="10.00">utils</text>
</g>
<!-- id&#45;&gt;dependency970 -->
<g id="edge15" class="edge">
<title>id:e&#45;&gt;dependency970:w</title>
<path fill="none" stroke="black" d="M312,-365C377.43,-365 354.81,-464.43 412.33,-473.36"/>
<ellipse fill="none" stroke="black" cx="416.51" cy="-473.67" rx="4" ry="4"/>
</g>
<!-- dependency962 -->
<g id="node6" class="node">
<title>dependency962</title>
<polygon fill="none" stroke="red" points="691.5,-28 691.5,-70 780.5,-70 780.5,-28 691.5,-28"/>
<text text-anchor="start" x="702.25" y="-45.12" font-family="Helvetica,sans-Serif" font-size="10.00">use_conditional</text>
<polygon fill="none" stroke="red" points="780.5,-49 780.5,-70 904.5,-70 904.5,-49 780.5,-49"/>
<text text-anchor="start" x="825.62" y="-55.5" font-family="Helvetica,sans-Serif" font-size="10.00">positive</text>
<polygon fill="none" stroke="red" points="780.5,-28 780.5,-49 904.5,-49 904.5,-28 780.5,-28"/>
<text text-anchor="start" x="785.12" y="-34.5" font-family="Helvetica,sans-Serif" font-size="10.00">python_targets_python3_7</text>
</g>
<!-- dependency961&#45;&gt;dependency962 -->
<g id="edge4" class="edge">
<title>dependency961:e&#45;&gt;dependency962:w</title>
<path fill="none" stroke="black" stroke-dasharray="5,2" d="M571,-297C688.04,-297 570.17,-64.73 672.07,-49.76"/>
<polygon fill="black" stroke="black" points="681.78,-49.08 672.12,-54.26 678.01,-49.35 671.81,-49.77 671.81,-49.77 671.81,-49.77 678.01,-49.35 671.5,-45.29 681.78,-49.08"/>
</g>
<!-- dependency963 -->
<g id="node7" class="node">
<title>dependency963</title>
<polygon fill="none" stroke="blue" points="688,-96.5 688,-201.5 792,-201.5 792,-96.5 688,-96.5"/>
<text text-anchor="start" x="719" y="-145.12" font-family="Helvetica,sans-Serif" font-size="10.00">pack_dep</text>
<polygon fill="none" stroke="blue" points="792,-180.5 792,-201.5 902,-201.5 902,-180.5 792,-180.5"/>
<text text-anchor="start" x="841.75" y="-187" font-family="Helvetica,sans-Serif" font-size="10.00">no</text>
<polygon fill="none" stroke="blue" points="792,-159.5 792,-180.5 902,-180.5 902,-159.5 792,-159.5"/>
<text text-anchor="start" x="828.62" y="-166" font-family="Helvetica,sans-Serif" font-size="10.00">dev&#45;lang</text>
<polygon fill="none" stroke="blue" points="792,-138.5 792,-159.5 902,-159.5 902,-138.5 792,-138.5"/>
<text text-anchor="start" x="820.38" y="-145" font-family="Helvetica,sans-Serif" font-size="10.00">python&#45;exec</text>
<polygon fill="none" stroke="blue" points="792,-117.5 792,-138.5 902,-138.5 902,-117.5 792,-117.5"/>
<text text-anchor="start" x="820.38" y="-124" font-family="Helvetica,sans-Serif" font-size="10.00">greaterequal</text>
<polygon fill="none" stroke="blue" points="792,-96.5 792,-117.5 902,-117.5 902,-96.5 792,-96.5"/>
<text text-anchor="start" x="844.38" y="-103" font-family="Helvetica,sans-Serif" font-size="10.00">2</text>
</g>
<!-- dependency961&#45;&gt;dependency963 -->
<g id="edge5" class="edge">
<title>dependency961:e&#45;&gt;dependency963:w</title>
<path fill="none" stroke="black" stroke-dasharray="5,2" d="M571,-297C648.7,-297 603.29,-163.1 668.98,-150.02"/>
<polygon fill="black" stroke="black" points="678.79,-149.11 669.25,-154.52 675.02,-149.46 668.83,-150.04 668.83,-150.04 668.83,-150.04 675.02,-149.46 668.41,-145.56 678.79,-149.11"/>
</g>
<!-- choice10010111845108971101034711212111610411111045101120101994550465246544511452 -->
<g id="node17" class="node">
<title>choice10010111845108971101034711212111610411111045101120101994550465246544511452</title>
<g id="a_node17"><a xlink:href="../dev-lang/python-exec-2.4.6-r4.svg" xlink:title="portage://dev&#45;lang/python&#45;exec&#45;2.4.6&#45;r4">
<ellipse fill="none" stroke="red" cx="1168" cy="-349" rx="144" ry="18"/>
<text text-anchor="middle" x="1168" y="-345.12" font-family="Helvetica,sans-Serif" font-size="10.00">portage://dev&#45;lang/python&#45;exec&#45;2.4.6&#45;r4</text>
</a>
</g>
</g>
<!-- dependency963&#45;&gt;choice10010111845108971101034711212111610411111045101120101994550465246544511452 -->
<g id="edge16" class="edge">
<title>dependency963:e&#45;&gt;choice10010111845108971101034711212111610411111045101120101994550465246544511452:w</title>
<path fill="none" stroke="black" stroke-dasharray="1,5" d="M917,-149C1013.67,-149 929.54,-333.68 1012.08,-348.11"/>
<polygon fill="black" stroke="black" points="1021.79,-348.9 1011.45,-352.57 1018.02,-348.59 1011.82,-348.09 1011.82,-348.09 1011.82,-348.09 1018.02,-348.59 1012.19,-343.6 1021.79,-348.9"/>
</g>
<!-- dependency965 -->
<g id="node9" class="node">
<title>dependency965</title>
<polygon fill="none" stroke="red" points="691.5,-228 691.5,-270 780.5,-270 780.5,-228 691.5,-228"/>
<text text-anchor="start" x="702.25" y="-245.12" font-family="Helvetica,sans-Serif" font-size="10.00">use_conditional</text>
<polygon fill="none" stroke="red" points="780.5,-249 780.5,-270 904.5,-270 904.5,-249 780.5,-249"/>
<text text-anchor="start" x="825.62" y="-255.5" font-family="Helvetica,sans-Serif" font-size="10.00">positive</text>
<polygon fill="none" stroke="red" points="780.5,-228 780.5,-249 904.5,-249 904.5,-228 780.5,-228"/>
<text text-anchor="start" x="785.12" y="-234.5" font-family="Helvetica,sans-Serif" font-size="10.00">python_targets_python3_7</text>
</g>
<!-- dependency964&#45;&gt;dependency965 -->
<g id="edge7" class="edge">
<title>dependency964:e&#45;&gt;dependency965:w</title>
<path fill="none" stroke="black" stroke-dasharray="5,2" d="M571,-365C638.75,-365 614.45,-261.34 672.13,-250"/>
<polygon fill="black" stroke="black" points="681.79,-249.11 672.24,-254.51 678.02,-249.46 671.83,-250.03 671.83,-250.03 671.83,-250.03 678.02,-249.46 671.42,-245.55 681.79,-249.11"/>
</g>
<!-- dependency966 -->
<g id="node10" class="node">
<title>dependency966</title>
<polygon fill="none" stroke="blue" points="688,-296.5 688,-401.5 792,-401.5 792,-296.5 688,-296.5"/>
<text text-anchor="start" x="719" y="-345.12" font-family="Helvetica,sans-Serif" font-size="10.00">pack_dep</text>
<polygon fill="none" stroke="blue" points="792,-380.5 792,-401.5 902,-401.5 902,-380.5 792,-380.5"/>
<text text-anchor="start" x="841.75" y="-387" font-family="Helvetica,sans-Serif" font-size="10.00">no</text>
<polygon fill="none" stroke="blue" points="792,-359.5 792,-380.5 902,-380.5 902,-359.5 792,-359.5"/>
<text text-anchor="start" x="828.62" y="-366" font-family="Helvetica,sans-Serif" font-size="10.00">dev&#45;lang</text>
<polygon fill="none" stroke="blue" points="792,-338.5 792,-359.5 902,-359.5 902,-338.5 792,-338.5"/>
<text text-anchor="start" x="820.38" y="-345" font-family="Helvetica,sans-Serif" font-size="10.00">python&#45;exec</text>
<polygon fill="none" stroke="blue" points="792,-317.5 792,-338.5 902,-338.5 902,-317.5 792,-317.5"/>
<text text-anchor="start" x="820.38" y="-324" font-family="Helvetica,sans-Serif" font-size="10.00">greaterequal</text>
<polygon fill="none" stroke="blue" points="792,-296.5 792,-317.5 902,-317.5 902,-296.5 792,-296.5"/>
<text text-anchor="start" x="844.38" y="-303" font-family="Helvetica,sans-Serif" font-size="10.00">2</text>
</g>
<!-- dependency964&#45;&gt;dependency966 -->
<g id="edge8" class="edge">
<title>dependency964:e&#45;&gt;dependency966:w</title>
<path fill="none" stroke="black" stroke-dasharray="5,2" d="M571,-365C616.04,-365 629.02,-351.46 668.93,-349.29"/>
<polygon fill="black" stroke="black" points="678.78,-349.03 668.9,-353.79 675,-349.13 668.79,-349.3 668.79,-349.3 668.79,-349.3 675,-349.13 668.67,-344.8 678.78,-349.03"/>
</g>
<!-- dependency966&#45;&gt;choice10010111845108971101034711212111610411111045101120101994550465246544511452 -->
<g id="edge17" class="edge">
<title>dependency966:e&#45;&gt;choice10010111845108971101034711212111610411111045101120101994550465246544511452:w</title>
<path fill="none" stroke="black" stroke-dasharray="1,5" d="M917,-349C960.25,-349 973.72,-349 1012.08,-349"/>
<polygon fill="black" stroke="black" points="1021.78,-349 1011.78,-353.5 1018,-349 1011.78,-349 1011.78,-349 1011.78,-349 1018,-349 1011.78,-344.5 1021.78,-349"/>
</g>
<!-- dependency971 -->
<g id="node15" class="node">
<title>dependency971</title>
<polygon fill="none" stroke="red" points="691.5,-453 691.5,-495 780.5,-495 780.5,-453 691.5,-453"/>
<text text-anchor="start" x="702.25" y="-470.12" font-family="Helvetica,sans-Serif" font-size="10.00">use_conditional</text>
<polygon fill="none" stroke="red" points="780.5,-474 780.5,-495 904.5,-495 904.5,-474 780.5,-474"/>
<text text-anchor="start" x="825.62" y="-480.5" font-family="Helvetica,sans-Serif" font-size="10.00">positive</text>
<polygon fill="none" stroke="red" points="780.5,-453 780.5,-474 904.5,-474 904.5,-453 780.5,-453"/>
<text text-anchor="start" x="785.12" y="-459.5" font-family="Helvetica,sans-Serif" font-size="10.00">python_targets_python3_7</text>
</g>
<!-- dependency970&#45;&gt;dependency971 -->
<g id="edge13" class="edge">
<title>dependency970:e&#45;&gt;dependency971:w</title>
<path fill="none" stroke="black" stroke-dasharray="5,2" d="M571,-474C616.89,-474 631.05,-474 671.98,-474"/>
<polygon fill="black" stroke="black" points="681.78,-474 671.78,-478.5 678,-474 671.78,-474 671.78,-474 671.78,-474 678,-474 671.78,-469.5 681.78,-474"/>
</g>
<!-- dependency972 -->
<g id="node16" class="node">
<title>dependency972</title>
<polygon fill="none" stroke="blue" points="688,-521.5 688,-626.5 792,-626.5 792,-521.5 688,-521.5"/>
<text text-anchor="start" x="719" y="-570.12" font-family="Helvetica,sans-Serif" font-size="10.00">pack_dep</text>
<polygon fill="none" stroke="blue" points="792,-605.5 792,-626.5 902,-626.5 902,-605.5 792,-605.5"/>
<text text-anchor="start" x="841.75" y="-612" font-family="Helvetica,sans-Serif" font-size="10.00">no</text>
<polygon fill="none" stroke="blue" points="792,-584.5 792,-605.5 902,-605.5 902,-584.5 792,-584.5"/>
<text text-anchor="start" x="828.62" y="-591" font-family="Helvetica,sans-Serif" font-size="10.00">dev&#45;lang</text>
<polygon fill="none" stroke="blue" points="792,-563.5 792,-584.5 902,-584.5 902,-563.5 792,-563.5"/>
<text text-anchor="start" x="820.38" y="-570" font-family="Helvetica,sans-Serif" font-size="10.00">python&#45;exec</text>
<polygon fill="none" stroke="blue" points="792,-542.5 792,-563.5 902,-563.5 902,-542.5 792,-542.5"/>
<text text-anchor="start" x="820.38" y="-549" font-family="Helvetica,sans-Serif" font-size="10.00">greaterequal</text>
<polygon fill="none" stroke="blue" points="792,-521.5 792,-542.5 902,-542.5 902,-521.5 792,-521.5"/>
<text text-anchor="start" x="844.38" y="-528" font-family="Helvetica,sans-Serif" font-size="10.00">2</text>
</g>
<!-- dependency970&#45;&gt;dependency972 -->
<g id="edge14" class="edge">
<title>dependency970:e&#45;&gt;dependency972:w</title>
<path fill="none" stroke="black" stroke-dasharray="5,2" d="M571,-474C632.76,-474 616.66,-562.26 668.99,-572.94"/>
<polygon fill="black" stroke="black" points="678.79,-573.88 668.4,-577.41 675.02,-573.52 668.83,-572.93 668.83,-572.93 668.83,-572.93 675.02,-573.52 669.26,-568.45 678.79,-573.88"/>
</g>
<!-- dependency972&#45;&gt;choice10010111845108971101034711212111610411111045101120101994550465246544511452 -->
<g id="edge18" class="edge">
<title>dependency972:e&#45;&gt;choice10010111845108971101034711212111610411111045101120101994550465246544511452:w</title>
<path fill="none" stroke="black" stroke-dasharray="1,5" d="M917,-574C1023.55,-574 920.48,-364.97 1011.88,-349.86"/>
<polygon fill="black" stroke="black" points="1021.79,-349.09 1012.16,-354.35 1018.01,-349.39 1011.81,-349.87 1011.81,-349.87 1011.81,-349.87 1018.01,-349.39 1011.47,-345.38 1021.79,-349.09"/>
</g>
</g>
</svg>
