<?xml version="1.0" encoding="UTF-8" standalone="no"?>
<!DOCTYPE svg PUBLIC "-//W3C//DTD SVG 1.1//EN"
 "http://www.w3.org/Graphics/SVG/1.1/DTD/svg11.dtd">
<!-- Generated by graphviz version 2.39.20160721.2101 (20160721.2101)
 -->
<!-- Title: prolog Pages: 1 -->
<svg width="1411pt" height="1284pt"
 viewBox="0.00 0.00 1411.00 1284.00" xmlns="http://www.w3.org/2000/svg" xmlns:xlink="http://www.w3.org/1999/xlink">
<g id="graph0" class="graph" transform="scale(1 1) rotate(0) translate(4 1280)">
<title>prolog</title>
<polygon fill="white" stroke="transparent" points="-4,4 -4,-1280 1407,-1280 1407,4 -4,4"/>
<g id="clust1" class="cluster">
<title>cluster_leftcol</title>
<polygon fill="none" stroke="gray" points="8,-410 8,-482 312,-482 312,-410 8,-410"/>
<text text-anchor="start" x="146.663" y="-470" font-family="Helvetica,sans-Serif" font-style="italic" font-size="10.00">ebuild</text>
</g>
<g id="clust2" class="cluster">
<title>cluster_midcol</title>
<polygon fill="none" stroke="gray" points="396,-39 396,-1255 1007,-1255 1007,-39 396,-39"/>
<text text-anchor="start" x="670.375" y="-1243" font-family="Helvetica,sans-Serif" font-style="italic" font-size="10.00">dependencies</text>
</g>
<g id="clust3" class="cluster">
<title>cluster_compile</title>
<polygon fill="#eeeeee" stroke="gray" points="747,-837 747,-1227 999,-1227 999,-837 747,-837"/>
<text text-anchor="start" x="855.778" y="-1215" font-family="Helvetica,sans-Serif" font-style="italic" font-size="10.00">compile</text>
</g>
<g id="clust7" class="cluster">
<title>cluster_compileandrun</title>
<polygon fill="#eeeeee" stroke="gray" points="404,-47 404,-597 999,-597 999,-47 404,-47"/>
<text text-anchor="start" x="665.937" y="-585" font-family="Helvetica,sans-Serif" font-style="italic" font-size="10.00">compile and run</text>
</g>
<g id="clust15" class="cluster">
<title>cluster_run</title>
<polygon fill="#eeeeee" stroke="gray" points="446.5,-675 446.5,-817 999,-817 999,-675 446.5,-675"/>
<text text-anchor="start" x="715.527" y="-805" font-family="Helvetica,sans-Serif" font-style="italic" font-size="10.00">run</text>
</g>
<g id="clust18" class="cluster">
<title>cluster_choices</title>
<polygon fill="none" stroke="gray" points="1091,-8 1091,-1268 1395,-1268 1395,-8 1091,-8"/>
<text text-anchor="start" x="1218.82" y="-1256" font-family="Helvetica,sans-Serif" font-style="italic" font-size="10.00">candidates</text>
</g>
<!-- id -->
<g id="node1" class="node">
<title>id</title>
<g id="a_node1"><a xlink:href="../app-admin/webapp-config-1.53-r2.svg" xlink:title="app&#45;admin/webapp&#45;config&#45;1.53&#45;r2">
<ellipse fill="none" stroke="red" cx="160" cy="-436" rx="144" ry="18"/>
<text text-anchor="middle" x="160" y="-433" font-family="Helvetica,sans-Serif" font-size="10.00">app&#45;admin/webapp&#45;config&#45;1.53&#45;r2</text>
</a>
</g>
</g>
<!-- dependency7492 -->
<g id="node2" class="node">
<title>dependency7492</title>
<polygon fill="none" stroke="blue" points="763,-973 763,-1071 868,-1071 868,-973 763,-973"/>
<text text-anchor="start" x="793.823" y="-1019" font-family="Helvetica,sans-Serif" font-size="10.00">pack_dep</text>
<polygon fill="none" stroke="blue" points="868,-1049 868,-1071 978,-1071 978,-1049 868,-1049"/>
<text text-anchor="start" x="917.441" y="-1057" font-family="Helvetica,sans-Serif" font-size="10.00">no</text>
<polygon fill="none" stroke="blue" points="868,-1027 868,-1049 978,-1049 978,-1027 868,-1027"/>
<text text-anchor="start" x="904.938" y="-1035" font-family="Helvetica,sans-Serif" font-size="10.00">app&#45;text</text>
<polygon fill="none" stroke="blue" points="868,-1005 868,-1027 978,-1027 978,-1005 868,-1005"/>
<text text-anchor="start" x="911.057" y="-1013" font-family="Helvetica,sans-Serif" font-size="10.00">xmlto</text>
<polygon fill="none" stroke="blue" points="868,-983 868,-1005 978,-1005 978,-983 868,-983"/>
<text text-anchor="start" x="911.882" y="-991" font-family="Helvetica,sans-Serif" font-size="10.00">none</text>
<polygon fill="none" stroke="blue" points="868,-973 868,-983 978,-983 978,-973 868,-973"/>
</g>
<!-- id&#45;&gt;dependency7492 -->
<g id="edge1" class="edge">
<title>id:e&#45;&gt;dependency7492:w</title>
<path fill="none" stroke="black" d="M529.5,-1022C614.256,-1068.76 652.154,-1025.2 744.939,-1022.16"/>
<polygon fill="black" stroke="black" points="755,-1022 745.075,-1026.66 750.001,-1022.08 745.001,-1022.16 745.001,-1022.16 745.001,-1022.16 750.001,-1022.08 744.928,-1017.66 755,-1022 755,-1022"/>
</g>
<!-- dependency7493 -->
<g id="node3" class="node">
<title>dependency7493</title>
<polygon fill="none" stroke="blue" points="763,-849 763,-947 868,-947 868,-849 763,-849"/>
<text text-anchor="start" x="793.823" y="-895" font-family="Helvetica,sans-Serif" font-size="10.00">pack_dep</text>
<polygon fill="none" stroke="blue" points="868,-925 868,-947 978,-947 978,-925 868,-925"/>
<text text-anchor="start" x="917.441" y="-933" font-family="Helvetica,sans-Serif" font-size="10.00">no</text>
<polygon fill="none" stroke="blue" points="868,-903 868,-925 978,-925 978,-903 868,-903"/>
<text text-anchor="start" x="902.997" y="-911" font-family="Helvetica,sans-Serif" font-size="10.00">sys&#45;apps</text>
<polygon fill="none" stroke="blue" points="868,-881 868,-903 978,-903 978,-881 868,-881"/>
<text text-anchor="start" x="886.042" y="-889" font-family="Helvetica,sans-Serif" font-size="10.00">gentoo&#45;functions</text>
<polygon fill="none" stroke="blue" points="868,-859 868,-881 978,-881 978,-859 868,-859"/>
<text text-anchor="start" x="911.882" y="-867" font-family="Helvetica,sans-Serif" font-size="10.00">none</text>
<polygon fill="none" stroke="blue" points="868,-849 868,-859 978,-859 978,-849 868,-849"/>
</g>
<!-- id&#45;&gt;dependency7493 -->
<g id="edge2" class="edge">
<title>id:e&#45;&gt;dependency7493:w</title>
<path fill="none" stroke="black" d="M529.5,-1022C626.616,-1075.57 639.878,-908.638 744.891,-898.481"/>
<polygon fill="black" stroke="black" points="755,-898 745.225,-902.971 750.006,-898.238 745.011,-898.476 745.011,-898.476 745.011,-898.476 750.006,-898.238 744.797,-893.981 755,-898 755,-898"/>
<path fill="none" stroke="black" d="M304,-436C479.929,-436 325.805,-659.682 396,-821 438.789,-919.336 435.598,-970.199 529.5,-1022"/>
</g>
<!-- dependency7494 -->
<g id="node4" class="node">
<title>dependency7494</title>
<polygon fill="none" stroke="blue" points="763,-1097 763,-1195 868,-1195 868,-1097 763,-1097"/>
<text text-anchor="start" x="793.823" y="-1143" font-family="Helvetica,sans-Serif" font-size="10.00">pack_dep</text>
<polygon fill="none" stroke="blue" points="868,-1173 868,-1195 978,-1195 978,-1173 868,-1173"/>
<text text-anchor="start" x="911.332" y="-1181" font-family="Helvetica,sans-Serif" font-size="10.00">weak</text>
<polygon fill="none" stroke="blue" points="868,-1151 868,-1173 978,-1173 978,-1151 868,-1151"/>
<text text-anchor="start" x="898.269" y="-1159" font-family="Helvetica,sans-Serif" font-size="10.00">dev&#45;python</text>
<polygon fill="none" stroke="blue" points="868,-1129 868,-1151 978,-1151 978,-1129 868,-1129"/>
<text text-anchor="start" x="895.495" y="-1137" font-family="Helvetica,sans-Serif" font-size="10.00">configparser</text>
<polygon fill="none" stroke="blue" points="868,-1107 868,-1129 978,-1129 978,-1107 868,-1107"/>
<text text-anchor="start" x="911.882" y="-1115" font-family="Helvetica,sans-Serif" font-size="10.00">none</text>
<polygon fill="none" stroke="blue" points="868,-1097 868,-1107 978,-1107 978,-1097 868,-1097"/>
</g>
<!-- id&#45;&gt;dependency7494 -->
<g id="edge3" class="edge">
<title>id:e&#45;&gt;dependency7494:w</title>
<path fill="none" stroke="black" d="M529.5,-1022C626.616,-1075.57 639.878,-1141.85 744.891,-1145.81"/>
<polygon fill="black" stroke="black" points="755,-1146 744.919,-1150.31 750.001,-1145.91 745.002,-1145.82 745.002,-1145.82 745.002,-1145.82 750.001,-1145.91 745.085,-1141.32 755,-1146 755,-1146"/>
</g>
<!-- dependency7495 -->
<g id="node5" class="node">
<title>dependency7495</title>
<polygon fill="none" stroke="red" points="433.5,-268 433.5,-312 524.5,-312 524.5,-268 433.5,-268"/>
<text text-anchor="start" x="444.267" y="-287" font-family="Helvetica,sans-Serif" font-size="10.00">use_conditional</text>
<polygon fill="none" stroke="red" points="524.5,-290 524.5,-312 626.5,-312 626.5,-290 524.5,-290"/>
<text text-anchor="start" x="558.553" y="-298" font-family="Helvetica,sans-Serif" font-size="10.00">positive</text>
<polygon fill="none" stroke="red" points="524.5,-268 524.5,-290 626.5,-290 626.5,-268 524.5,-268"/>
<text text-anchor="start" x="529.092" y="-276" font-family="Helvetica,sans-Serif" font-size="10.00">python_targets_pypy</text>
</g>
<!-- id&#45;&gt;dependency7495 -->
<g id="edge5" class="edge">
<title>id:e&#45;&gt;dependency7495:w</title>
<path fill="none" stroke="black" d="M304,-436C381.398,-436 347.17,-312.447 406.69,-292.659"/>
<ellipse fill="none" stroke="black" cx="420.544" cy="-290.591" rx="4" ry="4"/>
<polygon fill="black" stroke="black" points="416.588,-291.181 407.362,-297.108 411.642,-291.919 406.697,-292.658 406.697,-292.658 406.697,-292.658 411.642,-291.919 406.033,-288.207 416.588,-291.181 416.588,-291.181"/>
</g>
<!-- dependency7497 -->
<g id="node7" class="node">
<title>dependency7497</title>
<polygon fill="none" stroke="red" points="420.5,-379 420.5,-423 511.5,-423 511.5,-379 420.5,-379"/>
<text text-anchor="start" x="431.267" y="-398" font-family="Helvetica,sans-Serif" font-size="10.00">use_conditional</text>
<polygon fill="none" stroke="red" points="511.5,-401 511.5,-423 639.5,-423 639.5,-401 511.5,-401"/>
<text text-anchor="start" x="558.553" y="-409" font-family="Helvetica,sans-Serif" font-size="10.00">positive</text>
<polygon fill="none" stroke="red" points="511.5,-379 511.5,-401 639.5,-401 639.5,-379 511.5,-379"/>
<text text-anchor="start" x="516.306" y="-387" font-family="Helvetica,sans-Serif" font-size="10.00">python_targets_python2_7</text>
</g>
<!-- id&#45;&gt;dependency7497 -->
<g id="edge7" class="edge">
<title>id:e&#45;&gt;dependency7497:w</title>
<path fill="none" stroke="black" d="M304,-436C347.573,-436 358.63,-409.68 393.565,-402.688"/>
<ellipse fill="none" stroke="black" cx="407.518" cy="-401.375" rx="4" ry="4"/>
<polygon fill="black" stroke="black" points="403.535,-401.75 394.001,-407.167 398.557,-402.218 393.579,-402.687 393.579,-402.687 393.579,-402.687 398.557,-402.218 393.157,-398.207 403.535,-401.75 403.535,-401.75"/>
</g>
<!-- dependency7499 -->
<g id="node9" class="node">
<title>dependency7499</title>
<polygon fill="none" stroke="red" points="420.5,-479 420.5,-523 511.5,-523 511.5,-479 420.5,-479"/>
<text text-anchor="start" x="431.267" y="-498" font-family="Helvetica,sans-Serif" font-size="10.00">use_conditional</text>
<polygon fill="none" stroke="red" points="511.5,-501 511.5,-523 639.5,-523 639.5,-501 511.5,-501"/>
<text text-anchor="start" x="558.553" y="-509" font-family="Helvetica,sans-Serif" font-size="10.00">positive</text>
<polygon fill="none" stroke="red" points="511.5,-479 511.5,-501 639.5,-501 639.5,-479 511.5,-479"/>
<text text-anchor="start" x="516.306" y="-487" font-family="Helvetica,sans-Serif" font-size="10.00">python_targets_python3_4</text>
</g>
<!-- id&#45;&gt;dependency7499 -->
<g id="edge9" class="edge">
<title>id:e&#45;&gt;dependency7499:w</title>
<path fill="none" stroke="black" d="M304,-436C353.072,-436 355.796,-486.211 393.643,-498.371"/>
<ellipse fill="none" stroke="black" cx="407.543" cy="-500.417" rx="4" ry="4"/>
<polygon fill="black" stroke="black" points="403.585,-499.835 393.037,-502.831 398.639,-499.107 393.692,-498.378 393.692,-498.378 393.692,-498.378 398.639,-499.107 394.347,-493.926 403.585,-499.835 403.585,-499.835"/>
</g>
<!-- dependency7501 -->
<g id="node11" class="node">
<title>dependency7501</title>
<polygon fill="none" stroke="blue" points="763,-59 763,-169 868,-169 868,-59 763,-59"/>
<text text-anchor="start" x="793.823" y="-111" font-family="Helvetica,sans-Serif" font-size="10.00">pack_dep</text>
<polygon fill="none" stroke="blue" points="868,-147 868,-169 978,-169 978,-147 868,-147"/>
<text text-anchor="start" x="917.441" y="-155" font-family="Helvetica,sans-Serif" font-size="10.00">no</text>
<polygon fill="none" stroke="blue" points="868,-125 868,-147 978,-147 978,-125 868,-125"/>
<text text-anchor="start" x="903.828" y="-133" font-family="Helvetica,sans-Serif" font-size="10.00">dev&#45;lang</text>
<polygon fill="none" stroke="blue" points="868,-103 868,-125 978,-125 978,-103 868,-103"/>
<text text-anchor="start" x="895.769" y="-111" font-family="Helvetica,sans-Serif" font-size="10.00">python&#45;exec</text>
<polygon fill="none" stroke="blue" points="868,-81 868,-103 978,-103 978,-81 868,-81"/>
<text text-anchor="start" x="894.936" y="-89" font-family="Helvetica,sans-Serif" font-size="10.00">greaterequal</text>
<polygon fill="none" stroke="blue" points="868,-59 868,-81 978,-81 978,-59 868,-59"/>
<text text-anchor="start" x="920.221" y="-67" font-family="Helvetica,sans-Serif" font-size="10.00">2</text>
</g>
<!-- id&#45;&gt;dependency7501 -->
<g id="edge10" class="edge">
<title>id:e&#45;&gt;dependency7501:w</title>
<path fill="none" stroke="black" d="M304,-436C394.24,-436 329.202,-315.674 396,-255 518.305,-143.908 579.107,-115.977 736.844,-114.104"/>
<ellipse fill="none" stroke="black" cx="751" cy="-114.023" rx="4" ry="4"/>
<polygon fill="black" stroke="black" points="747,-114.046 737.026,-118.603 742,-114.074 737,-114.103 737,-114.103 737,-114.103 742,-114.074 736.975,-109.603 747,-114.046 747,-114.046"/>
</g>
<!-- dependency7502 -->
<g id="node12" class="node">
<title>dependency7502</title>
<polygon fill="none" stroke="red" points="462.5,-700 462.5,-744 553.5,-744 553.5,-700 462.5,-700"/>
<text text-anchor="start" x="473.267" y="-719" font-family="Helvetica,sans-Serif" font-size="10.00">use_conditional</text>
<polygon fill="none" stroke="red" points="553.5,-722 553.5,-744 596.5,-744 596.5,-722 553.5,-722"/>
<text text-anchor="start" x="558.053" y="-730" font-family="Helvetica,sans-Serif" font-size="10.00">positive</text>
<polygon fill="none" stroke="red" points="553.5,-700 553.5,-722 596.5,-722 596.5,-700 553.5,-700"/>
<text text-anchor="start" x="558.048" y="-708" font-family="Helvetica,sans-Serif" font-size="10.00">portage</text>
</g>
<!-- id&#45;&gt;dependency7502 -->
<g id="edge12" class="edge">
<title>id:e&#45;&gt;dependency7502:w</title>
<path fill="none" stroke="black" d="M304,-436C444.831,-436 316.1,-710.937 446.401,-721.677"/>
<ellipse fill="none" stroke="black" cx="450.503" cy="-721.841" rx="4" ry="4"/>
</g>
<!-- choice971121124511610112011647120109108116111454846484650544511449 -->
<g id="node14" class="node">
<title>choice971121124511610112011647120109108116111454846484650544511449</title>
<g id="a_node14"><a xlink:href="../app-text/xmlto-0.0.26-r1.svg" xlink:title="app&#45;text/xmlto&#45;0.0.26&#45;r1">
<ellipse fill="none" stroke="red" cx="1243" cy="-1060" rx="144" ry="18"/>
<text text-anchor="middle" x="1243" y="-1057" font-family="Helvetica,sans-Serif" font-size="10.00">app&#45;text/xmlto&#45;0.0.26&#45;r1</text>
</a>
</g>
</g>
<!-- dependency7492&#45;&gt;choice971121124511610112011647120109108116111454846484650544511449 -->
<g id="edge13" class="edge">
<title>dependency7492:e&#45;&gt;choice971121124511610112011647120109108116111454846484650544511449:w</title>
<path fill="none" stroke="black" stroke-dasharray="1,5" d="M991,-1022C1038.31,-1022 1047.02,-1054.84 1088.9,-1059.46"/>
<polygon fill="black" stroke="black" points="1099,-1060 1088.78,-1063.96 1094.01,-1059.73 1089.01,-1059.47 1089.01,-1059.47 1089.01,-1059.47 1094.01,-1059.73 1089.25,-1054.98 1099,-1060 1099,-1060"/>
</g>
<!-- choice971121124511610112011647120109108116111454846484650564511449 -->
<g id="node15" class="node">
<title>choice971121124511610112011647120109108116111454846484650564511449</title>
<g id="a_node15"><a xlink:href="../app-text/xmlto-0.0.28-r1.svg" xlink:title="app&#45;text/xmlto&#45;0.0.28&#45;r1">
<ellipse fill="none" stroke="red" cx="1243" cy="-1006" rx="144" ry="18"/>
<text text-anchor="middle" x="1243" y="-1003" font-family="Helvetica,sans-Serif" font-size="10.00">app&#45;text/xmlto&#45;0.0.28&#45;r1</text>
</a>
</g>
</g>
<!-- dependency7492&#45;&gt;choice971121124511610112011647120109108116111454846484650564511449 -->
<g id="edge14" class="edge">
<title>dependency7492:e&#45;&gt;choice971121124511610112011647120109108116111454846484650564511449:w</title>
<path fill="none" stroke="black" stroke-dasharray="1,5" d="M991,-1022C1035.92,-1022 1048.64,-1008.29 1088.79,-1006.25"/>
<polygon fill="black" stroke="black" points="1099,-1006 1089.11,-1010.74 1094,-1006.12 1089,-1006.25 1089,-1006.25 1089,-1006.25 1094,-1006.12 1088.89,-1001.75 1099,-1006 1099,-1006"/>
</g>
<!-- choice11512111545971121121154710310111011611111145102117110991161051111101154548464950 -->
<g id="node16" class="node">
<title>choice11512111545971121121154710310111011611111145102117110991161051111101154548464950</title>
<g id="a_node16"><a xlink:href="../sys-apps/gentoo-functions-0.12.svg" xlink:title="sys&#45;apps/gentoo&#45;functions&#45;0.12">
<ellipse fill="none" stroke="red" cx="1243" cy="-952" rx="144" ry="18"/>
<text text-anchor="middle" x="1243" y="-949" font-family="Helvetica,sans-Serif" font-size="10.00">sys&#45;apps/gentoo&#45;functions&#45;0.12</text>
</a>
</g>
</g>
<!-- dependency7493&#45;&gt;choice11512111545971121121154710310111011611111145102117110991161051111101154548464950 -->
<g id="edge15" class="edge">
<title>dependency7493:e&#45;&gt;choice11512111545971121121154710310111011611111145102117110991161051111101154548464950:w</title>
<path fill="none" stroke="black" stroke-dasharray="1,5" d="M991,-898C1041.1,-898 1045.01,-945.066 1088.98,-951.317"/>
<polygon fill="black" stroke="black" points="1099,-952 1088.72,-955.81 1094.01,-951.66 1089.02,-951.32 1089.02,-951.32 1089.02,-951.32 1094.01,-951.66 1089.33,-946.831 1099,-952 1099,-952"/>
</g>
<!-- choice11512111545971121121154710310111011611111145102117110991161051111101154557575757 -->
<g id="node17" class="node">
<title>choice11512111545971121121154710310111011611111145102117110991161051111101154557575757</title>
<g id="a_node17"><a xlink:href="../sys-apps/gentoo-functions-9999.svg" xlink:title="sys&#45;apps/gentoo&#45;functions&#45;9999">
<ellipse fill="none" stroke="red" cx="1243" cy="-898" rx="144" ry="18"/>
<text text-anchor="middle" x="1243" y="-895" font-family="Helvetica,sans-Serif" font-size="10.00">sys&#45;apps/gentoo&#45;functions&#45;9999</text>
</a>
</g>
</g>
<!-- dependency7493&#45;&gt;choice11512111545971121121154710310111011611111145102117110991161051111101154557575757 -->
<g id="edge16" class="edge">
<title>dependency7493:e&#45;&gt;choice11512111545971121121154710310111011611111145102117110991161051111101154557575757:w</title>
<path fill="none" stroke="black" stroke-dasharray="1,5" d="M991,-898C1035.44,-898 1049.02,-898 1088.88,-898"/>
<polygon fill="black" stroke="black" points="1099,-898 1089,-902.5 1094,-898 1089,-898 1089,-898 1089,-898 1094,-898 1089,-893.5 1099,-898 1099,-898"/>
</g>
<!-- choice100101118451121211161041111104799111110102105103112971141151011144551465146484650 -->
<g id="node18" class="node">
<title>choice100101118451121211161041111104799111110102105103112971141151011144551465146484650</title>
<g id="a_node18"><a xlink:href="../dev-python/configparser-3.3.0.2.svg" xlink:title="dev&#45;python/configparser&#45;3.3.0.2">
<ellipse fill="none" stroke="red" cx="1243" cy="-1168" rx="144" ry="18"/>
<text text-anchor="middle" x="1243" y="-1165" font-family="Helvetica,sans-Serif" font-size="10.00">dev&#45;python/configparser&#45;3.3.0.2</text>
</a>
</g>
</g>
<!-- dependency7494&#45;&gt;choice100101118451121211161041111104799111110102105103112971141151011144551465146484650 -->
<g id="edge17" class="edge">
<title>dependency7494:e&#45;&gt;choice100101118451121211161041111104799111110102105103112971141151011144551465146484650:w</title>
<path fill="none" stroke="black" stroke-dasharray="1,5" d="M991,-1146C1036.45,-1146 1048.36,-1164.94 1088.96,-1167.67"/>
<polygon fill="black" stroke="black" points="1099,-1168 1088.86,-1172.17 1094,-1167.84 1089.01,-1167.67 1089.01,-1167.67 1089.01,-1167.67 1094,-1167.84 1089.15,-1163.18 1099,-1168 1099,-1168"/>
</g>
<!-- choice10010111845112121116104111110479911111010210510311297114115101114455146534648 -->
<g id="node19" class="node">
<title>choice10010111845112121116104111110479911111010210510311297114115101114455146534648</title>
<g id="a_node19"><a xlink:href="../dev-python/configparser-3.5.0.svg" xlink:title="dev&#45;python/configparser&#45;3.5.0">
<ellipse fill="none" stroke="red" cx="1243" cy="-1114" rx="144" ry="18"/>
<text text-anchor="middle" x="1243" y="-1111" font-family="Helvetica,sans-Serif" font-size="10.00">dev&#45;python/configparser&#45;3.5.0</text>
</a>
</g>
</g>
<!-- dependency7494&#45;&gt;choice10010111845112121116104111110479911111010210510311297114115101114455146534648 -->
<g id="edge18" class="edge">
<title>dependency7494:e&#45;&gt;choice10010111845112121116104111110479911111010210510311297114115101114455146534648:w</title>
<path fill="none" stroke="black" stroke-dasharray="1,5" d="M991,-1146C1037.44,-1146 1047.58,-1118.46 1088.78,-1114.48"/>
<polygon fill="black" stroke="black" points="1099,-1114 1089.22,-1118.96 1094.01,-1114.23 1089.01,-1114.47 1089.01,-1114.47 1089.01,-1114.47 1094.01,-1114.23 1088.8,-1109.97 1099,-1114 1099,-1114"/>
</g>
<!-- choice100101118451121211161041111104799111110102105103112971141151011144551465346484511449 -->
<g id="node20" class="node">
<title>choice100101118451121211161041111104799111110102105103112971141151011144551465346484511449</title>
<g id="a_node20"><a xlink:href="../dev-python/configparser-3.5.0-r1.svg" xlink:title="dev&#45;python/configparser&#45;3.5.0&#45;r1">
<ellipse fill="none" stroke="red" cx="1243" cy="-1222" rx="144" ry="18"/>
<text text-anchor="middle" x="1243" y="-1219" font-family="Helvetica,sans-Serif" font-size="10.00">dev&#45;python/configparser&#45;3.5.0&#45;r1</text>
</a>
</g>
</g>
<!-- dependency7494&#45;&gt;choice100101118451121211161041111104799111110102105103112971141151011144551465346484511449 -->
<g id="edge19" class="edge">
<title>dependency7494:e&#45;&gt;choice100101118451121211161041111104799111110102105103112971141151011144551465346484511449:w</title>
<path fill="none" stroke="black" stroke-dasharray="1,5" d="M991,-1146C1046.03,-1146 1041.21,-1212.8 1088.76,-1221.15"/>
<polygon fill="black" stroke="black" points="1099,-1222 1088.66,-1225.65 1094.02,-1221.58 1089.03,-1221.17 1089.03,-1221.17 1089.03,-1221.17 1094.02,-1221.58 1089.41,-1216.68 1099,-1222 1099,-1222"/>
</g>
<!-- dependency7496 -->
<g id="node6" class="node">
<title>dependency7496</title>
<polygon fill="none" stroke="blue" points="763,-195 763,-305 868,-305 868,-195 763,-195"/>
<text text-anchor="start" x="793.823" y="-247" font-family="Helvetica,sans-Serif" font-size="10.00">pack_dep</text>
<polygon fill="none" stroke="blue" points="868,-283 868,-305 978,-305 978,-283 868,-283"/>
<text text-anchor="start" x="917.441" y="-291" font-family="Helvetica,sans-Serif" font-size="10.00">no</text>
<polygon fill="none" stroke="blue" points="868,-261 868,-283 978,-283 978,-261 868,-261"/>
<text text-anchor="start" x="909.668" y="-269" font-family="Helvetica,sans-Serif" font-size="10.00">virtual</text>
<polygon fill="none" stroke="blue" points="868,-239 868,-261 978,-261 978,-239 868,-239"/>
<text text-anchor="start" x="912.441" y="-247" font-family="Helvetica,sans-Serif" font-size="10.00">pypy</text>
<polygon fill="none" stroke="blue" points="868,-217 868,-239 978,-239 978,-217 868,-217"/>
<text text-anchor="start" x="894.936" y="-225" font-family="Helvetica,sans-Serif" font-size="10.00">greaterequal</text>
<polygon fill="none" stroke="blue" points="868,-195 868,-217 978,-217 978,-195 868,-195"/>
<text text-anchor="start" x="920.221" y="-203" font-family="Helvetica,sans-Serif" font-size="10.00">5</text>
</g>
<!-- dependency7495&#45;&gt;dependency7496 -->
<g id="edge4" class="edge">
<title>dependency7495:e&#45;&gt;dependency7496:w</title>
<path fill="none" stroke="black" stroke-dasharray="5,2" d="M634.5,-290C687.402,-290 697.425,-254.844 744.967,-250.449"/>
<polygon fill="black" stroke="black" points="755,-250 745.211,-254.943 750.005,-250.224 745.01,-250.447 745.01,-250.447 745.01,-250.447 750.005,-250.224 744.809,-245.952 755,-250 755,-250"/>
</g>
<!-- choice1181051141161179710847112121112121455346564648 -->
<g id="node21" class="node">
<title>choice1181051141161179710847112121112121455346564648</title>
<g id="a_node21"><a xlink:href="../virtual/pypy-5.8.0.svg" xlink:title="virtual/pypy&#45;5.8.0">
<ellipse fill="none" stroke="red" cx="1243" cy="-196" rx="144" ry="18"/>
<text text-anchor="middle" x="1243" y="-193" font-family="Helvetica,sans-Serif" font-size="10.00">virtual/pypy&#45;5.8.0</text>
</a>
</g>
</g>
<!-- dependency7496&#45;&gt;choice1181051141161179710847112121112121455346564648 -->
<g id="edge20" class="edge">
<title>dependency7496:e&#45;&gt;choice1181051141161179710847112121112121455346564648:w</title>
<path fill="none" stroke="black" stroke-dasharray="1,5" d="M991,-250C1041.1,-250 1045.01,-202.934 1088.98,-196.683"/>
<polygon fill="black" stroke="black" points="1099,-196 1089.33,-201.169 1094.01,-196.34 1089.02,-196.68 1089.02,-196.68 1089.02,-196.68 1094.01,-196.34 1088.72,-192.19 1099,-196 1099,-196"/>
</g>
<!-- choice1181051141161179710847112121112121455346574648 -->
<g id="node22" class="node">
<title>choice1181051141161179710847112121112121455346574648</title>
<g id="a_node22"><a xlink:href="../virtual/pypy-5.9.0.svg" xlink:title="virtual/pypy&#45;5.9.0">
<ellipse fill="none" stroke="red" cx="1243" cy="-250" rx="144" ry="18"/>
<text text-anchor="middle" x="1243" y="-247" font-family="Helvetica,sans-Serif" font-size="10.00">virtual/pypy&#45;5.9.0</text>
</a>
</g>
</g>
<!-- dependency7496&#45;&gt;choice1181051141161179710847112121112121455346574648 -->
<g id="edge21" class="edge">
<title>dependency7496:e&#45;&gt;choice1181051141161179710847112121112121455346574648:w</title>
<path fill="none" stroke="black" stroke-dasharray="1,5" d="M991,-250C1035.44,-250 1049.02,-250 1088.88,-250"/>
<polygon fill="black" stroke="black" points="1099,-250 1089,-254.5 1094,-250 1089,-250 1089,-250 1089,-250 1094,-250 1089,-245.5 1099,-250 1099,-250"/>
</g>
<!-- dependency7498 -->
<g id="node8" class="node">
<title>dependency7498</title>
<polygon fill="none" stroke="blue" points="763,-331 763,-441 868,-441 868,-331 763,-331"/>
<text text-anchor="start" x="793.823" y="-383" font-family="Helvetica,sans-Serif" font-size="10.00">pack_dep</text>
<polygon fill="none" stroke="blue" points="868,-419 868,-441 978,-441 978,-419 868,-419"/>
<text text-anchor="start" x="917.441" y="-427" font-family="Helvetica,sans-Serif" font-size="10.00">no</text>
<polygon fill="none" stroke="blue" points="868,-397 868,-419 978,-419 978,-397 868,-397"/>
<text text-anchor="start" x="903.828" y="-405" font-family="Helvetica,sans-Serif" font-size="10.00">dev&#45;lang</text>
<polygon fill="none" stroke="blue" points="868,-375 868,-397 978,-397 978,-375 868,-375"/>
<text text-anchor="start" x="907.992" y="-383" font-family="Helvetica,sans-Serif" font-size="10.00">python</text>
<polygon fill="none" stroke="blue" points="868,-353 868,-375 978,-375 978,-353 868,-353"/>
<text text-anchor="start" x="894.936" y="-361" font-family="Helvetica,sans-Serif" font-size="10.00">greaterequal</text>
<polygon fill="none" stroke="blue" points="868,-331 868,-353 978,-353 978,-331 868,-331"/>
<text text-anchor="start" x="905.774" y="-339" font-family="Helvetica,sans-Serif" font-size="10.00">2.7.5&#45;r2</text>
</g>
<!-- dependency7497&#45;&gt;dependency7498 -->
<g id="edge6" class="edge">
<title>dependency7497:e&#45;&gt;dependency7498:w</title>
<path fill="none" stroke="black" stroke-dasharray="5,2" d="M647,-401C691.864,-401 704.689,-388.144 744.797,-386.236"/>
<polygon fill="black" stroke="black" points="755,-386 745.107,-390.73 750.001,-386.115 745.003,-386.231 745.003,-386.231 745.003,-386.231 750.001,-386.115 744.899,-381.732 755,-386 755,-386"/>
</g>
<!-- choice10010111845108971101034711212111610411111045504655464950 -->
<g id="node23" class="node">
<title>choice10010111845108971101034711212111610411111045504655464950</title>
<g id="a_node23"><a xlink:href="../dev-lang/python-2.7.12.svg" xlink:title="dev&#45;lang/python&#45;2.7.12">
<ellipse fill="none" stroke="red" cx="1243" cy="-358" rx="144" ry="18"/>
<text text-anchor="middle" x="1243" y="-355" font-family="Helvetica,sans-Serif" font-size="10.00">dev&#45;lang/python&#45;2.7.12</text>
</a>
</g>
</g>
<!-- dependency7498&#45;&gt;choice10010111845108971101034711212111610411111045504655464950 -->
<g id="edge22" class="edge">
<title>dependency7498:e&#45;&gt;choice10010111845108971101034711212111610411111045504655464950:w</title>
<path fill="none" stroke="black" stroke-dasharray="1,5" d="M991,-386C1037,-386 1047.92,-361.901 1088.86,-358.418"/>
<polygon fill="black" stroke="black" points="1099,-358 1089.19,-362.908 1094,-358.206 1089.01,-358.411 1089.01,-358.411 1089.01,-358.411 1094,-358.206 1088.82,-353.915 1099,-358 1099,-358"/>
</g>
<!-- choice10010111845108971101034711212111610411111045504655464952 -->
<g id="node24" class="node">
<title>choice10010111845108971101034711212111610411111045504655464952</title>
<g id="a_node24"><a xlink:href="../dev-lang/python-2.7.14.svg" xlink:title="dev&#45;lang/python&#45;2.7.14">
<ellipse fill="none" stroke="red" cx="1243" cy="-304" rx="144" ry="18"/>
<text text-anchor="middle" x="1243" y="-301" font-family="Helvetica,sans-Serif" font-size="10.00">dev&#45;lang/python&#45;2.7.14</text>
</a>
</g>
</g>
<!-- dependency7498&#45;&gt;choice10010111845108971101034711212111610411111045504655464952 -->
<g id="edge23" class="edge">
<title>dependency7498:e&#45;&gt;choice10010111845108971101034711212111610411111045504655464952:w</title>
<path fill="none" stroke="black" stroke-dasharray="1,5" d="M991,-386C1047.62,-386 1039.98,-313.629 1088.82,-304.865"/>
<polygon fill="black" stroke="black" points="1099,-304 1089.42,-309.331 1094.02,-304.424 1089.04,-304.847 1089.04,-304.847 1089.04,-304.847 1094.02,-304.424 1088.65,-300.363 1099,-304 1099,-304"/>
</g>
<!-- choice100101118451089711010347112121116104111110455146524653 -->
<g id="node25" class="node">
<title>choice100101118451089711010347112121116104111110455146524653</title>
<g id="a_node25"><a xlink:href="../dev-lang/python-3.4.5.svg" xlink:title="dev&#45;lang/python&#45;3.4.5">
<ellipse fill="none" stroke="red" cx="1243" cy="-574" rx="144" ry="18"/>
<text text-anchor="middle" x="1243" y="-571" font-family="Helvetica,sans-Serif" font-size="10.00">dev&#45;lang/python&#45;3.4.5</text>
</a>
</g>
</g>
<!-- dependency7498&#45;&gt;choice100101118451089711010347112121116104111110455146524653 -->
<g id="edge24" class="edge">
<title>dependency7498:e&#45;&gt;choice100101118451089711010347112121116104111110455146524653:w</title>
<path fill="none" stroke="black" stroke-dasharray="1,5" d="M991,-386C1083.79,-386 1008.68,-560.306 1089,-573.243"/>
<polygon fill="black" stroke="black" points="1099,-574 1088.69,-577.732 1094.01,-573.622 1089.03,-573.244 1089.03,-573.244 1089.03,-573.244 1094.01,-573.622 1089.37,-568.757 1099,-574 1099,-574"/>
</g>
<!-- choice100101118451089711010347112121116104111110455146524654 -->
<g id="node26" class="node">
<title>choice100101118451089711010347112121116104111110455146524654</title>
<g id="a_node26"><a xlink:href="../dev-lang/python-3.4.6.svg" xlink:title="dev&#45;lang/python&#45;3.4.6">
<ellipse fill="none" stroke="red" cx="1243" cy="-520" rx="144" ry="18"/>
<text text-anchor="middle" x="1243" y="-517" font-family="Helvetica,sans-Serif" font-size="10.00">dev&#45;lang/python&#45;3.4.6</text>
</a>
</g>
</g>
<!-- dependency7498&#45;&gt;choice100101118451089711010347112121116104111110455146524654 -->
<g id="edge25" class="edge">
<title>dependency7498:e&#45;&gt;choice100101118451089711010347112121116104111110455146524654:w</title>
<path fill="none" stroke="black" stroke-dasharray="1,5" d="M991,-386C1063.91,-386 1026.46,-507.732 1089.02,-519.144"/>
<polygon fill="black" stroke="black" points="1099,-520 1088.65,-523.629 1094.02,-519.573 1089.04,-519.146 1089.04,-519.146 1089.04,-519.146 1094.02,-519.573 1089.42,-514.662 1099,-520 1099,-520"/>
</g>
<!-- choice100101118451089711010347112121116104111110455146534652 -->
<g id="node27" class="node">
<title>choice100101118451089711010347112121116104111110455146534652</title>
<g id="a_node27"><a xlink:href="../dev-lang/python-3.5.4.svg" xlink:title="dev&#45;lang/python&#45;3.5.4">
<ellipse fill="none" stroke="red" cx="1243" cy="-466" rx="144" ry="18"/>
<text text-anchor="middle" x="1243" y="-463" font-family="Helvetica,sans-Serif" font-size="10.00">dev&#45;lang/python&#45;3.5.4</text>
</a>
</g>
</g>
<!-- dependency7498&#45;&gt;choice100101118451089711010347112121116104111110455146534652 -->
<g id="edge26" class="edge">
<title>dependency7498:e&#45;&gt;choice100101118451089711010347112121116104111110455146534652:w</title>
<path fill="none" stroke="black" stroke-dasharray="1,5" d="M991,-386C1047.12,-386 1040.39,-456.606 1088.9,-465.156"/>
<polygon fill="black" stroke="black" points="1099,-466 1088.66,-469.651 1094.02,-465.583 1089.03,-465.167 1089.03,-465.167 1089.03,-465.167 1094.02,-465.583 1089.41,-460.682 1099,-466 1099,-466"/>
</g>
<!-- choice100101118451089711010347112121116104111110455146544651 -->
<g id="node28" class="node">
<title>choice100101118451089711010347112121116104111110455146544651</title>
<g id="a_node28"><a xlink:href="../dev-lang/python-3.6.3.svg" xlink:title="dev&#45;lang/python&#45;3.6.3">
<ellipse fill="none" stroke="red" cx="1243" cy="-412" rx="144" ry="18"/>
<text text-anchor="middle" x="1243" y="-409" font-family="Helvetica,sans-Serif" font-size="10.00">dev&#45;lang/python&#45;3.6.3</text>
</a>
</g>
</g>
<!-- dependency7498&#45;&gt;choice100101118451089711010347112121116104111110455146544651 -->
<g id="edge27" class="edge">
<title>dependency7498:e&#45;&gt;choice100101118451089711010347112121116104111110455146544651:w</title>
<path fill="none" stroke="black" stroke-dasharray="1,5" d="M991,-386C1036.8,-386 1048.08,-408.378 1088.89,-411.612"/>
<polygon fill="black" stroke="black" points="1099,-412 1088.83,-416.113 1094,-411.808 1089.01,-411.617 1089.01,-411.617 1089.01,-411.617 1094,-411.808 1089.18,-407.12 1099,-412 1099,-412"/>
</g>
<!-- dependency7500 -->
<g id="node10" class="node">
<title>dependency7500</title>
<polygon fill="none" stroke="blue" points="763,-467 763,-565 868,-565 868,-467 763,-467"/>
<text text-anchor="start" x="793.823" y="-513" font-family="Helvetica,sans-Serif" font-size="10.00">pack_dep</text>
<polygon fill="none" stroke="blue" points="868,-543 868,-565 978,-565 978,-543 868,-543"/>
<text text-anchor="start" x="917.441" y="-551" font-family="Helvetica,sans-Serif" font-size="10.00">no</text>
<polygon fill="none" stroke="blue" points="868,-521 868,-543 978,-543 978,-521 868,-521"/>
<text text-anchor="start" x="903.828" y="-529" font-family="Helvetica,sans-Serif" font-size="10.00">dev&#45;lang</text>
<polygon fill="none" stroke="blue" points="868,-499 868,-521 978,-521 978,-499 868,-499"/>
<text text-anchor="start" x="907.992" y="-507" font-family="Helvetica,sans-Serif" font-size="10.00">python</text>
<polygon fill="none" stroke="blue" points="868,-477 868,-499 978,-499 978,-477 868,-477"/>
<text text-anchor="start" x="911.882" y="-485" font-family="Helvetica,sans-Serif" font-size="10.00">none</text>
<polygon fill="none" stroke="blue" points="868,-467 868,-477 978,-477 978,-467 868,-467"/>
</g>
<!-- dependency7499&#45;&gt;dependency7500 -->
<g id="edge8" class="edge">
<title>dependency7499:e&#45;&gt;dependency7500:w</title>
<path fill="none" stroke="black" stroke-dasharray="5,2" d="M647,-501C691.864,-501 704.689,-513.856 744.797,-515.764"/>
<polygon fill="black" stroke="black" points="755,-516 744.899,-520.268 750.001,-515.885 745.003,-515.769 745.003,-515.769 745.003,-515.769 750.001,-515.885 745.107,-511.27 755,-516 755,-516"/>
</g>
<!-- dependency7500&#45;&gt;choice10010111845108971101034711212111610411111045504655464950 -->
<g id="edge28" class="edge">
<title>dependency7500:e&#45;&gt;choice10010111845108971101034711212111610411111045504655464950:w</title>
<path fill="none" stroke="black" stroke-dasharray="1,5" d="M991,-516C1072.4,-516 1019.01,-371.286 1088.83,-358.85"/>
<polygon fill="black" stroke="black" points="1099,-358 1089.41,-363.317 1094.02,-358.416 1089.03,-358.833 1089.03,-358.833 1089.03,-358.833 1094.02,-358.416 1088.66,-354.348 1099,-358 1099,-358"/>
</g>
<!-- dependency7500&#45;&gt;choice10010111845108971101034711212111610411111045504655464952 -->
<g id="edge29" class="edge">
<title>dependency7500:e&#45;&gt;choice10010111845108971101034711212111610411111045504655464952:w</title>
<path fill="none" stroke="black" stroke-dasharray="1,5" d="M991,-516C1093.13,-516 1000.09,-318.245 1088.87,-304.726"/>
<polygon fill="black" stroke="black" points="1099,-304 1089.35,-309.204 1094.01,-304.358 1089.03,-304.715 1089.03,-304.715 1089.03,-304.715 1094.01,-304.358 1088.7,-300.227 1099,-304 1099,-304"/>
</g>
<!-- dependency7500&#45;&gt;choice100101118451089711010347112121116104111110455146524653 -->
<g id="edge30" class="edge">
<title>dependency7500:e&#45;&gt;choice100101118451089711010347112121116104111110455146524653:w</title>
<path fill="none" stroke="black" stroke-dasharray="1,5" d="M991,-516C1041.87,-516 1044.4,-566.553 1088.85,-573.267"/>
<polygon fill="black" stroke="black" points="1099,-574 1088.7,-577.768 1094.01,-573.64 1089.03,-573.28 1089.03,-573.28 1089.03,-573.28 1094.01,-573.64 1089.35,-568.791 1099,-574 1099,-574"/>
</g>
<!-- dependency7500&#45;&gt;choice100101118451089711010347112121116104111110455146524654 -->
<g id="edge31" class="edge">
<title>dependency7500:e&#45;&gt;choice100101118451089711010347112121116104111110455146524654:w</title>
<path fill="none" stroke="black" stroke-dasharray="1,5" d="M991,-516C1035.47,-516 1049,-519.428 1088.87,-519.937"/>
<polygon fill="black" stroke="black" points="1099,-520 1088.97,-524.438 1094,-519.969 1089,-519.938 1089,-519.938 1089,-519.938 1094,-519.969 1089.03,-515.438 1099,-520 1099,-520"/>
</g>
<!-- dependency7500&#45;&gt;choice100101118451089711010347112121116104111110455146534652 -->
<g id="edge32" class="edge">
<title>dependency7500:e&#45;&gt;choice100101118451089711010347112121116104111110455146534652:w</title>
<path fill="none" stroke="black" stroke-dasharray="1,5" d="M991,-516C1040.28,-516 1045.57,-472.602 1088.83,-466.669"/>
<polygon fill="black" stroke="black" points="1099,-466 1089.32,-471.147 1094.01,-466.328 1089.02,-466.657 1089.02,-466.657 1089.02,-466.657 1094.01,-466.328 1088.73,-462.166 1099,-466 1099,-466"/>
</g>
<!-- dependency7500&#45;&gt;choice100101118451089711010347112121116104111110455146544651 -->
<g id="edge33" class="edge">
<title>dependency7500:e&#45;&gt;choice100101118451089711010347112121116104111110455146544651:w</title>
<path fill="none" stroke="black" stroke-dasharray="1,5" d="M991,-516C1053.99,-516 1034.85,-423.064 1088.86,-412.899"/>
<polygon fill="black" stroke="black" points="1099,-412 1089.44,-417.366 1094.02,-412.442 1089.04,-412.883 1089.04,-412.883 1089.04,-412.883 1094.02,-412.442 1088.64,-408.401 1099,-412 1099,-412"/>
</g>
<!-- choice1001011184510897110103471121211161041111104510112010199455046524652 -->
<g id="node29" class="node">
<title>choice1001011184510897110103471121211161041111104510112010199455046524652</title>
<g id="a_node29"><a xlink:href="../dev-lang/python-exec-2.4.4.svg" xlink:title="dev&#45;lang/python&#45;exec&#45;2.4.4">
<ellipse fill="none" stroke="red" cx="1243" cy="-34" rx="144" ry="18"/>
<text text-anchor="middle" x="1243" y="-31" font-family="Helvetica,sans-Serif" font-size="10.00">dev&#45;lang/python&#45;exec&#45;2.4.4</text>
</a>
</g>
</g>
<!-- dependency7501&#45;&gt;choice1001011184510897110103471121211161041111104510112010199455046524652 -->
<g id="edge34" class="edge">
<title>dependency7501:e&#45;&gt;choice1001011184510897110103471121211161041111104510112010199455046524652:w</title>
<path fill="none" stroke="black" stroke-dasharray="1,5" d="M991,-114C1047.12,-114 1040.39,-43.3942 1088.9,-34.8443"/>
<polygon fill="black" stroke="black" points="1099,-34 1089.41,-39.3176 1094.02,-34.4166 1089.03,-34.8332 1089.03,-34.8332 1089.03,-34.8332 1094.02,-34.4166 1088.66,-30.3489 1099,-34 1099,-34"/>
</g>
<!-- choice1001011184510897110103471121211161041111104510112010199455046524653 -->
<g id="node30" class="node">
<title>choice1001011184510897110103471121211161041111104510112010199455046524653</title>
<g id="a_node30"><a xlink:href="../dev-lang/python-exec-2.4.5.svg" xlink:title="dev&#45;lang/python&#45;exec&#45;2.4.5">
<ellipse fill="none" stroke="red" cx="1243" cy="-142" rx="144" ry="18"/>
<text text-anchor="middle" x="1243" y="-139" font-family="Helvetica,sans-Serif" font-size="10.00">dev&#45;lang/python&#45;exec&#45;2.4.5</text>
</a>
</g>
</g>
<!-- dependency7501&#45;&gt;choice1001011184510897110103471121211161041111104510112010199455046524653 -->
<g id="edge35" class="edge">
<title>dependency7501:e&#45;&gt;choice1001011184510897110103471121211161041111104510112010199455046524653:w</title>
<path fill="none" stroke="black" stroke-dasharray="1,5" d="M991,-114C1037,-114 1047.92,-138.099 1088.86,-141.582"/>
<polygon fill="black" stroke="black" points="1099,-142 1088.82,-146.085 1094,-141.794 1089.01,-141.589 1089.01,-141.589 1089.01,-141.589 1094,-141.794 1089.19,-137.092 1099,-142 1099,-142"/>
</g>
<!-- choice10010111845108971101034711212111610411111045101120101994557575757 -->
<g id="node31" class="node">
<title>choice10010111845108971101034711212111610411111045101120101994557575757</title>
<g id="a_node31"><a xlink:href="../dev-lang/python-exec-9999.svg" xlink:title="dev&#45;lang/python&#45;exec&#45;9999">
<ellipse fill="none" stroke="red" cx="1243" cy="-88" rx="144" ry="18"/>
<text text-anchor="middle" x="1243" y="-85" font-family="Helvetica,sans-Serif" font-size="10.00">dev&#45;lang/python&#45;exec&#45;9999</text>
</a>
</g>
</g>
<!-- dependency7501&#45;&gt;choice10010111845108971101034711212111610411111045101120101994557575757 -->
<g id="edge36" class="edge">
<title>dependency7501:e&#45;&gt;choice10010111845108971101034711212111610411111045101120101994557575757:w</title>
<path fill="none" stroke="black" stroke-dasharray="1,5" d="M991,-114C1036.8,-114 1048.08,-91.622 1088.89,-88.3877"/>
<polygon fill="black" stroke="black" points="1099,-88 1089.18,-92.8802 1094,-88.1917 1089.01,-88.3835 1089.01,-88.3835 1089.01,-88.3835 1094,-88.1917 1088.83,-83.8868 1099,-88 1099,-88"/>
</g>
<!-- dependency7503 -->
<g id="node13" class="node">
<title>dependency7503</title>
<polygon fill="none" stroke="blue" points="763,-687 763,-785 868,-785 868,-687 763,-687"/>
<text text-anchor="start" x="793.823" y="-733" font-family="Helvetica,sans-Serif" font-size="10.00">pack_dep</text>
<polygon fill="none" stroke="blue" points="868,-763 868,-785 978,-785 978,-763 868,-763"/>
<text text-anchor="start" x="917.441" y="-771" font-family="Helvetica,sans-Serif" font-size="10.00">no</text>
<polygon fill="none" stroke="blue" points="868,-741 868,-763 978,-763 978,-741 868,-741"/>
<text text-anchor="start" x="902.997" y="-749" font-family="Helvetica,sans-Serif" font-size="10.00">sys&#45;apps</text>
<polygon fill="none" stroke="blue" points="868,-719 868,-741 978,-741 978,-719 868,-719"/>
<text text-anchor="start" x="906.048" y="-727" font-family="Helvetica,sans-Serif" font-size="10.00">portage</text>
<polygon fill="none" stroke="blue" points="868,-697 868,-719 978,-719 978,-697 868,-697"/>
<text text-anchor="start" x="911.882" y="-705" font-family="Helvetica,sans-Serif" font-size="10.00">none</text>
<polygon fill="none" stroke="blue" points="868,-687 868,-697 978,-697 978,-687 868,-687"/>
</g>
<!-- dependency7502&#45;&gt;dependency7503 -->
<g id="edge11" class="edge">
<title>dependency7502:e&#45;&gt;dependency7503:w</title>
<path fill="none" stroke="black" stroke-dasharray="5,2" d="M604.5,-722C668.135,-722 685.978,-734.562 744.783,-735.887"/>
<polygon fill="black" stroke="black" points="755,-736 744.951,-740.389 750,-735.945 745.001,-735.89 745.001,-735.89 745.001,-735.89 750,-735.945 745.05,-731.39 755,-736 755,-736"/>
</g>
<!-- choice1151211154597112112115471121111141169710310145504651464950 -->
<g id="node32" class="node">
<title>choice1151211154597112112115471121111141169710310145504651464950</title>
<g id="a_node32"><a xlink:href="../sys-apps/portage-2.3.12.svg" xlink:title="sys&#45;apps/portage&#45;2.3.12">
<ellipse fill="none" stroke="red" cx="1243" cy="-844" rx="144" ry="18"/>
<text text-anchor="middle" x="1243" y="-841" font-family="Helvetica,sans-Serif" font-size="10.00">sys&#45;apps/portage&#45;2.3.12</text>
</a>
</g>
</g>
<!-- dependency7503&#45;&gt;choice1151211154597112112115471121111141169710310145504651464950 -->
<g id="edge37" class="edge">
<title>dependency7503:e&#45;&gt;choice1151211154597112112115471121111141169710310145504651464950:w</title>
<path fill="none" stroke="black" stroke-dasharray="1,5" d="M991,-736C1055.3,-736 1033.78,-832.91 1089.03,-843.131"/>
<polygon fill="black" stroke="black" points="1099,-844 1088.65,-847.614 1094.02,-843.566 1089.04,-843.131 1089.04,-843.131 1089.04,-843.131 1094.02,-843.566 1089.43,-838.648 1099,-844 1099,-844"/>
</g>
<!-- choice1151211154597112112115471121111141169710310145504651464951 -->
<g id="node33" class="node">
<title>choice1151211154597112112115471121111141169710310145504651464951</title>
<g id="a_node33"><a xlink:href="../sys-apps/portage-2.3.13.svg" xlink:title="sys&#45;apps/portage&#45;2.3.13">
<ellipse fill="none" stroke="red" cx="1243" cy="-790" rx="144" ry="18"/>
<text text-anchor="middle" x="1243" y="-787" font-family="Helvetica,sans-Serif" font-size="10.00">sys&#45;apps/portage&#45;2.3.13</text>
</a>
</g>
</g>
<!-- dependency7503&#45;&gt;choice1151211154597112112115471121111141169710310145504651464951 -->
<g id="edge38" class="edge">
<title>dependency7503:e&#45;&gt;choice1151211154597112112115471121111141169710310145504651464951:w</title>
<path fill="none" stroke="black" stroke-dasharray="1,5" d="M991,-736C1041.1,-736 1045.01,-783.066 1088.98,-789.317"/>
<polygon fill="black" stroke="black" points="1099,-790 1088.72,-793.81 1094.01,-789.66 1089.02,-789.32 1089.02,-789.32 1089.02,-789.32 1094.01,-789.66 1089.33,-784.831 1099,-790 1099,-790"/>
</g>
<!-- choice11512111545971121121154711211111411697103101455046514654 -->
<g id="node34" class="node">
<title>choice11512111545971121121154711211111411697103101455046514654</title>
<g id="a_node34"><a xlink:href="../sys-apps/portage-2.3.6.svg" xlink:title="sys&#45;apps/portage&#45;2.3.6">
<ellipse fill="none" stroke="red" cx="1243" cy="-736" rx="144" ry="18"/>
<text text-anchor="middle" x="1243" y="-733" font-family="Helvetica,sans-Serif" font-size="10.00">sys&#45;apps/portage&#45;2.3.6</text>
</a>
</g>
</g>
<!-- dependency7503&#45;&gt;choice11512111545971121121154711211111411697103101455046514654 -->
<g id="edge39" class="edge">
<title>dependency7503:e&#45;&gt;choice11512111545971121121154711211111411697103101455046514654:w</title>
<path fill="none" stroke="black" stroke-dasharray="1,5" d="M991,-736C1035.44,-736 1049.02,-736 1088.88,-736"/>
<polygon fill="black" stroke="black" points="1099,-736 1089,-740.5 1094,-736 1089,-736 1089,-736 1089,-736 1094,-736 1089,-731.5 1099,-736 1099,-736"/>
</g>
<!-- choice11512111545971121121154711211111411697103101455046514656 -->
<g id="node35" class="node">
<title>choice11512111545971121121154711211111411697103101455046514656</title>
<g id="a_node35"><a xlink:href="../sys-apps/portage-2.3.8.svg" xlink:title="sys&#45;apps/portage&#45;2.3.8">
<ellipse fill="none" stroke="red" cx="1243" cy="-682" rx="144" ry="18"/>
<text text-anchor="middle" x="1243" y="-679" font-family="Helvetica,sans-Serif" font-size="10.00">sys&#45;apps/portage&#45;2.3.8</text>
</a>
</g>
</g>
<!-- dependency7503&#45;&gt;choice11512111545971121121154711211111411697103101455046514656 -->
<g id="edge40" class="edge">
<title>dependency7503:e&#45;&gt;choice11512111545971121121154711211111411697103101455046514656:w</title>
<path fill="none" stroke="black" stroke-dasharray="1,5" d="M991,-736C1041.1,-736 1045.01,-688.934 1088.98,-682.683"/>
<polygon fill="black" stroke="black" points="1099,-682 1089.33,-687.169 1094.01,-682.34 1089.02,-682.68 1089.02,-682.68 1089.02,-682.68 1094.01,-682.34 1088.72,-678.19 1099,-682 1099,-682"/>
</g>
<!-- choice115121115459711211211547112111114116971031014557575757 -->
<g id="node36" class="node">
<title>choice115121115459711211211547112111114116971031014557575757</title>
<g id="a_node36"><a xlink:href="../sys-apps/portage-9999.svg" xlink:title="sys&#45;apps/portage&#45;9999">
<ellipse fill="none" stroke="red" cx="1243" cy="-628" rx="144" ry="18"/>
<text text-anchor="middle" x="1243" y="-625" font-family="Helvetica,sans-Serif" font-size="10.00">sys&#45;apps/portage&#45;9999</text>
</a>
</g>
</g>
<!-- dependency7503&#45;&gt;choice115121115459711211211547112111114116971031014557575757 -->
<g id="edge41" class="edge">
<title>dependency7503:e&#45;&gt;choice115121115459711211211547112111114116971031014557575757:w</title>
<path fill="none" stroke="black" stroke-dasharray="1,5" d="M991,-736C1055.3,-736 1033.78,-639.09 1089.03,-628.869"/>
<polygon fill="black" stroke="black" points="1099,-628 1089.43,-633.352 1094.02,-628.434 1089.04,-628.869 1089.04,-628.869 1089.04,-628.869 1094.02,-628.434 1088.65,-624.386 1099,-628 1099,-628"/>
</g>
</g>
</svg>
